<?xml version="1.0" encoding="utf-8"?>
<svg xmlns="http://www.w3.org/2000/svg" xmlns:xlink="http://www.w3.org/1999/xlink" width="600" height="400" viewBox="0 0 2400 1600">
<defs>
  <clipPath id="clip400">
    <rect x="0" y="0" width="2400" height="1600"/>
  </clipPath>
</defs>
<path clip-path="url(#clip400)" d="
M0 1600 L2400 1600 L2400 0 L0 0  Z
  " fill="#ffffff" fill-rule="evenodd" fill-opacity="1"/>
<defs>
  <clipPath id="clip401">
    <rect x="480" y="0" width="1681" height="1600"/>
  </clipPath>
</defs>
<defs>
  <clipPath id="clip402">
    <rect x="267" y="47" width="2086" height="1347"/>
  </clipPath>
</defs>
<path clip-path="url(#clip400)" d="
M267.629 1392.94 L2352.76 1392.94 L2352.76 47.2441 L267.629 47.2441  Z
  " fill="#ffffff" fill-rule="evenodd" fill-opacity="1"/>
<polyline clip-path="url(#clip402)" style="stroke:#000000; stroke-linecap:round; stroke-linejoin:round; stroke-width:2; stroke-opacity:0.1; fill:none" points="
  621.707,1392.94 621.707,47.2441 
  "/>
<polyline clip-path="url(#clip402)" style="stroke:#000000; stroke-linecap:round; stroke-linejoin:round; stroke-width:2; stroke-opacity:0.1; fill:none" points="
  1113.48,1392.94 1113.48,47.2441 
  "/>
<polyline clip-path="url(#clip402)" style="stroke:#000000; stroke-linecap:round; stroke-linejoin:round; stroke-width:2; stroke-opacity:0.1; fill:none" points="
  1605.26,1392.94 1605.26,47.2441 
  "/>
<polyline clip-path="url(#clip402)" style="stroke:#000000; stroke-linecap:round; stroke-linejoin:round; stroke-width:2; stroke-opacity:0.1; fill:none" points="
  2097.03,1392.94 2097.03,47.2441 
  "/>
<polyline clip-path="url(#clip400)" style="stroke:#000000; stroke-linecap:round; stroke-linejoin:round; stroke-width:4; stroke-opacity:1; fill:none" points="
  267.629,1392.94 2352.76,1392.94 
  "/>
<polyline clip-path="url(#clip400)" style="stroke:#000000; stroke-linecap:round; stroke-linejoin:round; stroke-width:4; stroke-opacity:1; fill:none" points="
  621.707,1392.94 621.707,1374.04 
  "/>
<polyline clip-path="url(#clip400)" style="stroke:#000000; stroke-linecap:round; stroke-linejoin:round; stroke-width:4; stroke-opacity:1; fill:none" points="
  1113.48,1392.94 1113.48,1374.04 
  "/>
<polyline clip-path="url(#clip400)" style="stroke:#000000; stroke-linecap:round; stroke-linejoin:round; stroke-width:4; stroke-opacity:1; fill:none" points="
  1605.26,1392.94 1605.26,1374.04 
  "/>
<polyline clip-path="url(#clip400)" style="stroke:#000000; stroke-linecap:round; stroke-linejoin:round; stroke-width:4; stroke-opacity:1; fill:none" points="
  2097.03,1392.94 2097.03,1374.04 
  "/>
<path clip-path="url(#clip400)" d="M542.246 1451.7 L586.76 1451.7 L586.76 1457.6 L542.246 1457.6 L542.246 1451.7 Z" fill="#000000" fill-rule="evenodd" fill-opacity="1" /><path clip-path="url(#clip400)" d="M607.94 1471.04 L632.419 1471.04 L632.419 1476.94 L599.503 1476.94 L599.503 1471.04 Q603.496 1466.91 610.371 1459.96 Q617.28 1452.98 619.051 1450.97 Q622.419 1447.18 623.739 1444.58 Q625.093 1441.94 625.093 1439.41 Q625.093 1435.27 622.176 1432.67 Q619.294 1430.07 614.641 1430.07 Q611.343 1430.07 607.662 1431.21 Q604.017 1432.36 599.85 1434.68 L599.85 1427.6 Q604.086 1425.9 607.767 1425.03 Q611.447 1424.16 614.503 1424.16 Q622.558 1424.16 627.35 1428.19 Q632.141 1432.22 632.141 1438.95 Q632.141 1442.15 630.926 1445.03 Q629.746 1447.88 626.586 1451.77 Q625.718 1452.77 621.065 1457.6 Q616.412 1462.39 607.94 1471.04 Z" fill="#000000" fill-rule="evenodd" fill-opacity="1" /><path clip-path="url(#clip400)" d="M647.141 1468.12 L654.468 1468.12 L654.468 1476.94 L647.141 1476.94 L647.141 1468.12 Z" fill="#000000" fill-rule="evenodd" fill-opacity="1" /><path clip-path="url(#clip400)" d="M669.815 1425.1 L697.349 1425.1 L697.349 1431 L676.238 1431 L676.238 1443.71 Q677.766 1443.19 679.294 1442.95 Q680.822 1442.67 682.349 1442.67 Q691.03 1442.67 696.099 1447.43 Q701.169 1452.18 701.169 1460.31 Q701.169 1468.68 695.96 1473.33 Q690.752 1477.95 681.273 1477.95 Q678.009 1477.95 674.606 1477.39 Q671.238 1476.84 667.627 1475.72 L667.627 1468.68 Q670.752 1470.38 674.086 1471.21 Q677.419 1472.04 681.134 1472.04 Q687.141 1472.04 690.648 1468.88 Q694.155 1465.72 694.155 1460.31 Q694.155 1454.89 690.648 1451.73 Q687.141 1448.57 681.134 1448.57 Q678.322 1448.57 675.509 1449.2 Q672.731 1449.82 669.815 1451.14 L669.815 1425.1 Z" fill="#000000" fill-rule="evenodd" fill-opacity="1" /><path clip-path="url(#clip400)" d="M1079.56 1429.72 Q1074.14 1429.72 1071.4 1435.07 Q1068.69 1440.38 1068.69 1451.07 Q1068.69 1461.73 1071.4 1467.08 Q1074.14 1472.39 1079.56 1472.39 Q1085.01 1472.39 1087.72 1467.08 Q1090.46 1461.73 1090.46 1451.07 Q1090.46 1440.38 1087.72 1435.07 Q1085.01 1429.72 1079.56 1429.72 M1079.56 1424.16 Q1088.27 1424.16 1092.86 1431.07 Q1097.48 1437.95 1097.48 1451.07 Q1097.48 1464.16 1092.86 1471.07 Q1088.27 1477.95 1079.56 1477.95 Q1070.84 1477.95 1066.23 1471.07 Q1061.64 1464.16 1061.64 1451.07 Q1061.64 1437.95 1066.23 1431.07 Q1070.84 1424.16 1079.56 1424.16 Z" fill="#000000" fill-rule="evenodd" fill-opacity="1" /><path clip-path="url(#clip400)" d="M1109.8 1468.12 L1117.13 1468.12 L1117.13 1476.94 L1109.8 1476.94 L1109.8 1468.12 Z" fill="#000000" fill-rule="evenodd" fill-opacity="1" /><path clip-path="url(#clip400)" d="M1147.41 1429.72 Q1141.99 1429.72 1139.25 1435.07 Q1136.54 1440.38 1136.54 1451.07 Q1136.54 1461.73 1139.25 1467.08 Q1141.99 1472.39 1147.41 1472.39 Q1152.86 1472.39 1155.57 1467.08 Q1158.31 1461.73 1158.31 1451.07 Q1158.31 1440.38 1155.57 1435.07 Q1152.86 1429.72 1147.41 1429.72 M1147.41 1424.16 Q1156.12 1424.16 1160.7 1431.07 Q1165.32 1437.95 1165.32 1451.07 Q1165.32 1464.16 1160.7 1471.07 Q1156.12 1477.95 1147.41 1477.95 Q1138.69 1477.95 1134.07 1471.07 Q1129.49 1464.16 1129.49 1451.07 Q1129.49 1437.95 1134.07 1431.07 Q1138.69 1424.16 1147.41 1424.16 Z" fill="#000000" fill-rule="evenodd" fill-opacity="1" /><path clip-path="url(#clip400)" d="M1562.86 1471.04 L1587.34 1471.04 L1587.34 1476.94 L1554.42 1476.94 L1554.42 1471.04 Q1558.42 1466.91 1565.29 1459.96 Q1572.2 1452.98 1573.97 1450.97 Q1577.34 1447.18 1578.66 1444.58 Q1580.01 1441.94 1580.01 1439.41 Q1580.01 1435.27 1577.1 1432.67 Q1574.22 1430.07 1569.56 1430.07 Q1566.26 1430.07 1562.58 1431.21 Q1558.94 1432.36 1554.77 1434.68 L1554.77 1427.6 Q1559.01 1425.9 1562.69 1425.03 Q1566.37 1424.16 1569.42 1424.16 Q1577.48 1424.16 1582.27 1428.19 Q1587.06 1432.22 1587.06 1438.95 Q1587.06 1442.15 1585.85 1445.03 Q1584.67 1447.88 1581.51 1451.77 Q1580.64 1452.77 1575.99 1457.6 Q1571.33 1462.39 1562.86 1471.04 Z" fill="#000000" fill-rule="evenodd" fill-opacity="1" /><path clip-path="url(#clip400)" d="M1602.06 1468.12 L1609.39 1468.12 L1609.39 1476.94 L1602.06 1476.94 L1602.06 1468.12 Z" fill="#000000" fill-rule="evenodd" fill-opacity="1" /><path clip-path="url(#clip400)" d="M1624.74 1425.1 L1652.27 1425.1 L1652.27 1431 L1631.16 1431 L1631.16 1443.71 Q1632.69 1443.19 1634.22 1442.95 Q1635.74 1442.67 1637.27 1442.67 Q1645.95 1442.67 1651.02 1447.43 Q1656.09 1452.18 1656.09 1460.31 Q1656.09 1468.68 1650.88 1473.33 Q1645.67 1477.95 1636.2 1477.95 Q1632.93 1477.95 1629.53 1477.39 Q1626.16 1476.84 1622.55 1475.72 L1622.55 1468.68 Q1625.67 1470.38 1629.01 1471.21 Q1632.34 1472.04 1636.06 1472.04 Q1642.06 1472.04 1645.57 1468.88 Q1649.08 1465.72 1649.08 1460.31 Q1649.08 1454.89 1645.57 1451.73 Q1642.06 1448.57 1636.06 1448.57 Q1633.24 1448.57 1630.43 1449.2 Q1627.65 1449.82 1624.74 1451.14 L1624.74 1425.1 Z" fill="#000000" fill-rule="evenodd" fill-opacity="1" /><path clip-path="url(#clip400)" d="M2047.78 1425.1 L2075.31 1425.1 L2075.31 1431 L2054.2 1431 L2054.2 1443.71 Q2055.73 1443.19 2057.26 1442.95 Q2058.79 1442.67 2060.31 1442.67 Q2068.99 1442.67 2074.06 1447.43 Q2079.13 1452.18 2079.13 1460.31 Q2079.13 1468.68 2073.93 1473.33 Q2068.72 1477.95 2059.24 1477.95 Q2055.97 1477.95 2052.57 1477.39 Q2049.2 1476.84 2045.59 1475.72 L2045.59 1468.68 Q2048.72 1470.38 2052.05 1471.21 Q2055.38 1472.04 2059.1 1472.04 Q2065.11 1472.04 2068.61 1468.88 Q2072.12 1465.72 2072.12 1460.31 Q2072.12 1454.89 2068.61 1451.73 Q2065.11 1448.57 2059.1 1448.57 Q2056.29 1448.57 2053.47 1449.2 Q2050.7 1449.82 2047.78 1451.14 L2047.78 1425.1 Z" fill="#000000" fill-rule="evenodd" fill-opacity="1" /><path clip-path="url(#clip400)" d="M2092.95 1468.12 L2100.28 1468.12 L2100.28 1476.94 L2092.95 1476.94 L2092.95 1468.12 Z" fill="#000000" fill-rule="evenodd" fill-opacity="1" /><path clip-path="url(#clip400)" d="M2130.56 1429.72 Q2125.14 1429.72 2122.4 1435.07 Q2119.69 1440.38 2119.69 1451.07 Q2119.69 1461.73 2122.4 1467.08 Q2125.14 1472.39 2130.56 1472.39 Q2136.01 1472.39 2138.72 1467.08 Q2141.46 1461.73 2141.46 1451.07 Q2141.46 1440.38 2138.72 1435.07 Q2136.01 1429.72 2130.56 1429.72 M2130.56 1424.16 Q2139.27 1424.16 2143.86 1431.07 Q2148.47 1437.95 2148.47 1451.07 Q2148.47 1464.16 2143.86 1471.07 Q2139.27 1477.95 2130.56 1477.95 Q2121.84 1477.95 2117.22 1471.07 Q2112.64 1464.16 2112.64 1451.07 Q2112.64 1437.95 2117.22 1431.07 Q2121.84 1424.16 2130.56 1424.16 Z" fill="#000000" fill-rule="evenodd" fill-opacity="1" /><path clip-path="url(#clip400)" d="M1328.23 1529.32 Q1328.23 1531.62 1326.8 1532.93 Q1325.36 1534.2 1323.72 1534.2 Q1322.17 1534.2 1321.35 1533.3 Q1320.53 1532.4 1320.53 1531.25 Q1320.53 1529.69 1321.67 1528.34 Q1322.82 1526.99 1324.54 1526.7 Q1322.86 1525.64 1320.36 1525.64 Q1318.72 1525.64 1317.29 1526.5 Q1315.89 1527.36 1315.03 1528.46 Q1314.21 1529.57 1313.48 1531.17 Q1312.78 1532.73 1312.49 1533.67 Q1312.25 1534.57 1312.04 1535.55 L1309.17 1547.03 Q1307.78 1552.48 1307.78 1554.41 Q1307.78 1556.79 1308.93 1558.39 Q1310.07 1559.94 1312.37 1559.94 Q1313.27 1559.94 1314.3 1559.7 Q1315.32 1559.41 1316.63 1558.67 Q1317.99 1557.89 1319.17 1556.75 Q1320.4 1555.56 1321.59 1553.55 Q1322.78 1551.54 1323.56 1548.96 Q1323.81 1548.06 1324.63 1548.06 Q1325.65 1548.06 1325.65 1548.88 Q1325.65 1549.57 1325.08 1551.05 Q1324.54 1552.48 1323.35 1554.37 Q1322.21 1556.21 1320.69 1557.89 Q1319.17 1559.53 1316.92 1560.68 Q1314.67 1561.83 1312.21 1561.83 Q1308.68 1561.83 1306.34 1559.94 Q1304.01 1558.06 1303.15 1555.43 Q1302.94 1555.8 1302.66 1556.3 Q1302.37 1556.79 1301.51 1557.89 Q1300.69 1558.96 1299.75 1559.78 Q1298.8 1560.56 1297.33 1561.17 Q1295.89 1561.83 1294.33 1561.83 Q1292.37 1561.83 1290.6 1561.26 Q1288.88 1560.68 1287.65 1559.37 Q1286.42 1558.06 1286.42 1556.25 Q1286.42 1554.25 1287.78 1552.85 Q1289.17 1551.42 1291.06 1551.42 Q1292.24 1551.42 1293.19 1552.11 Q1294.17 1552.81 1294.17 1554.33 Q1294.17 1556.01 1293.02 1557.28 Q1291.88 1558.55 1290.24 1558.88 Q1291.92 1559.94 1294.42 1559.94 Q1297.12 1559.94 1299.25 1557.57 Q1301.38 1555.19 1302.41 1551.21 Q1304.95 1541.66 1305.93 1537.4 Q1306.92 1533.1 1306.92 1531.25 Q1306.92 1529.53 1306.47 1528.34 Q1306.02 1527.15 1305.24 1526.62 Q1304.5 1526.05 1303.8 1525.84 Q1303.15 1525.64 1302.41 1525.64 Q1301.18 1525.64 1299.79 1526.13 Q1298.43 1526.62 1296.79 1527.77 Q1295.2 1528.87 1293.68 1531.17 Q1292.16 1533.46 1291.14 1536.62 Q1290.93 1537.56 1290.03 1537.56 Q1289.05 1537.52 1289.05 1536.7 Q1289.05 1536.01 1289.58 1534.57 Q1290.15 1533.1 1291.3 1531.25 Q1292.49 1529.41 1294.01 1527.77 Q1295.56 1526.09 1297.82 1524.94 Q1300.11 1523.79 1302.57 1523.79 Q1303.68 1523.79 1304.75 1524.04 Q1305.85 1524.24 1307.16 1524.86 Q1308.52 1525.47 1309.71 1526.82 Q1310.89 1528.18 1311.63 1530.14 Q1312.12 1529.2 1312.78 1528.3 Q1313.48 1527.4 1314.54 1526.29 Q1315.65 1525.14 1317.17 1524.49 Q1318.72 1523.79 1320.44 1523.79 Q1322.13 1523.79 1323.76 1524.24 Q1325.4 1524.65 1326.8 1526 Q1328.23 1527.32 1328.23 1529.32 Z" fill="#000000" fill-rule="evenodd" fill-opacity="1" /><polyline clip-path="url(#clip402)" style="stroke:#000000; stroke-linecap:round; stroke-linejoin:round; stroke-width:2; stroke-opacity:0.1; fill:none" points="
  267.629,1354.85 2352.76,1354.85 
  "/>
<polyline clip-path="url(#clip402)" style="stroke:#000000; stroke-linecap:round; stroke-linejoin:round; stroke-width:2; stroke-opacity:0.1; fill:none" points="
  267.629,1058.82 2352.76,1058.82 
  "/>
<polyline clip-path="url(#clip402)" style="stroke:#000000; stroke-linecap:round; stroke-linejoin:round; stroke-width:2; stroke-opacity:0.1; fill:none" points="
  267.629,762.778 2352.76,762.778 
  "/>
<polyline clip-path="url(#clip402)" style="stroke:#000000; stroke-linecap:round; stroke-linejoin:round; stroke-width:2; stroke-opacity:0.1; fill:none" points="
  267.629,466.741 2352.76,466.741 
  "/>
<polyline clip-path="url(#clip402)" style="stroke:#000000; stroke-linecap:round; stroke-linejoin:round; stroke-width:2; stroke-opacity:0.1; fill:none" points="
  267.629,170.703 2352.76,170.703 
  "/>
<polyline clip-path="url(#clip400)" style="stroke:#000000; stroke-linecap:round; stroke-linejoin:round; stroke-width:4; stroke-opacity:1; fill:none" points="
  267.629,1392.94 267.629,47.2441 
  "/>
<polyline clip-path="url(#clip400)" style="stroke:#000000; stroke-linecap:round; stroke-linejoin:round; stroke-width:4; stroke-opacity:1; fill:none" points="
  267.629,1354.85 286.527,1354.85 
  "/>
<polyline clip-path="url(#clip400)" style="stroke:#000000; stroke-linecap:round; stroke-linejoin:round; stroke-width:4; stroke-opacity:1; fill:none" points="
  267.629,1058.82 286.527,1058.82 
  "/>
<polyline clip-path="url(#clip400)" style="stroke:#000000; stroke-linecap:round; stroke-linejoin:round; stroke-width:4; stroke-opacity:1; fill:none" points="
  267.629,762.778 286.527,762.778 
  "/>
<polyline clip-path="url(#clip400)" style="stroke:#000000; stroke-linecap:round; stroke-linejoin:round; stroke-width:4; stroke-opacity:1; fill:none" points="
  267.629,466.741 286.527,466.741 
  "/>
<polyline clip-path="url(#clip400)" style="stroke:#000000; stroke-linecap:round; stroke-linejoin:round; stroke-width:4; stroke-opacity:1; fill:none" points="
  267.629,170.703 286.527,170.703 
  "/>
<path clip-path="url(#clip400)" d="M145.866 1333.55 Q140.449 1333.55 137.706 1338.9 Q134.998 1344.21 134.998 1354.91 Q134.998 1365.57 137.706 1370.91 Q140.449 1376.23 145.866 1376.23 Q151.317 1376.23 154.026 1370.91 Q156.769 1365.57 156.769 1354.91 Q156.769 1344.21 154.026 1338.9 Q151.317 1333.55 145.866 1333.55 M145.866 1328 Q154.581 1328 159.164 1334.91 Q163.782 1341.78 163.782 1354.91 Q163.782 1368 159.164 1374.91 Q154.581 1381.78 145.866 1381.78 Q137.151 1381.78 132.533 1374.91 Q127.949 1368 127.949 1354.91 Q127.949 1341.78 132.533 1334.91 Q137.151 1328 145.866 1328 Z" fill="#000000" fill-rule="evenodd" fill-opacity="1" /><path clip-path="url(#clip400)" d="M176.109 1371.95 L183.435 1371.95 L183.435 1380.77 L176.109 1380.77 L176.109 1371.95 Z" fill="#000000" fill-rule="evenodd" fill-opacity="1" /><path clip-path="url(#clip400)" d="M213.713 1333.55 Q208.296 1333.55 205.553 1338.9 Q202.845 1344.21 202.845 1354.91 Q202.845 1365.57 205.553 1370.91 Q208.296 1376.23 213.713 1376.23 Q219.164 1376.23 221.872 1370.91 Q224.615 1365.57 224.615 1354.91 Q224.615 1344.21 221.872 1338.9 Q219.164 1333.55 213.713 1333.55 M213.713 1328 Q222.428 1328 227.011 1334.91 Q231.629 1341.78 231.629 1354.91 Q231.629 1368 227.011 1374.91 Q222.428 1381.78 213.713 1381.78 Q204.998 1381.78 200.379 1374.91 Q195.796 1368 195.796 1354.91 Q195.796 1341.78 200.379 1334.91 Q204.998 1328 213.713 1328 Z" fill="#000000" fill-rule="evenodd" fill-opacity="1" /><path clip-path="url(#clip400)" d="M147.706 1037.51 Q142.29 1037.51 139.546 1042.86 Q136.838 1048.17 136.838 1058.87 Q136.838 1069.53 139.546 1074.88 Q142.29 1080.19 147.706 1080.19 Q153.158 1080.19 155.866 1074.88 Q158.609 1069.53 158.609 1058.87 Q158.609 1048.17 155.866 1042.86 Q153.158 1037.51 147.706 1037.51 M147.706 1031.96 Q156.421 1031.96 161.005 1038.87 Q165.623 1045.74 165.623 1058.87 Q165.623 1071.96 161.005 1078.87 Q156.421 1085.74 147.706 1085.74 Q138.991 1085.74 134.373 1078.87 Q129.79 1071.96 129.79 1058.87 Q129.79 1045.74 134.373 1038.87 Q138.991 1031.96 147.706 1031.96 Z" fill="#000000" fill-rule="evenodd" fill-opacity="1" /><path clip-path="url(#clip400)" d="M177.949 1075.92 L185.275 1075.92 L185.275 1084.74 L177.949 1084.74 L177.949 1075.92 Z" fill="#000000" fill-rule="evenodd" fill-opacity="1" /><path clip-path="url(#clip400)" d="M201.768 1078.83 L213.227 1078.83 L213.227 1039.29 L200.761 1041.79 L200.761 1035.4 L213.157 1032.9 L220.171 1032.9 L220.171 1078.83 L231.629 1078.83 L231.629 1084.74 L201.768 1084.74 L201.768 1078.83 Z" fill="#000000" fill-rule="evenodd" fill-opacity="1" /><path clip-path="url(#clip400)" d="M148.262 741.476 Q142.845 741.476 140.102 746.824 Q137.394 752.136 137.394 762.83 Q137.394 773.49 140.102 778.837 Q142.845 784.15 148.262 784.15 Q153.713 784.15 156.421 778.837 Q159.164 773.49 159.164 762.83 Q159.164 752.136 156.421 746.824 Q153.713 741.476 148.262 741.476 M148.262 735.921 Q156.977 735.921 161.56 742.831 Q166.178 749.706 166.178 762.83 Q166.178 775.921 161.56 782.83 Q156.977 789.705 148.262 789.705 Q139.546 789.705 134.928 782.83 Q130.345 775.921 130.345 762.83 Q130.345 749.706 134.928 742.831 Q139.546 735.921 148.262 735.921 Z" fill="#000000" fill-rule="evenodd" fill-opacity="1" /><path clip-path="url(#clip400)" d="M178.505 779.879 L185.831 779.879 L185.831 788.698 L178.505 788.698 L178.505 779.879 Z" fill="#000000" fill-rule="evenodd" fill-opacity="1" /><path clip-path="url(#clip400)" d="M207.15 782.796 L231.629 782.796 L231.629 788.698 L198.713 788.698 L198.713 782.796 Q202.706 778.664 209.581 771.719 Q216.491 764.74 218.261 762.726 Q221.629 758.942 222.949 756.337 Q224.303 753.699 224.303 751.164 Q224.303 747.032 221.386 744.428 Q218.504 741.824 213.852 741.824 Q210.553 741.824 206.873 742.969 Q203.227 744.115 199.06 746.442 L199.06 739.358 Q203.296 737.657 206.977 736.789 Q210.657 735.921 213.713 735.921 Q221.768 735.921 226.56 739.949 Q231.352 743.976 231.352 750.712 Q231.352 753.907 230.136 756.789 Q228.956 759.636 225.796 763.525 Q224.928 764.532 220.275 769.358 Q215.622 774.15 207.15 782.796 Z" fill="#000000" fill-rule="evenodd" fill-opacity="1" /><path clip-path="url(#clip400)" d="M146.838 445.439 Q141.421 445.439 138.678 450.786 Q135.97 456.098 135.97 466.793 Q135.97 477.452 138.678 482.799 Q141.421 488.112 146.838 488.112 Q152.289 488.112 154.998 482.799 Q157.741 477.452 157.741 466.793 Q157.741 456.098 154.998 450.786 Q152.289 445.439 146.838 445.439 M146.838 439.883 Q155.553 439.883 160.137 446.793 Q164.755 453.668 164.755 466.793 Q164.755 479.883 160.137 486.792 Q155.553 493.667 146.838 493.667 Q138.123 493.667 133.505 486.792 Q128.922 479.883 128.922 466.793 Q128.922 453.668 133.505 446.793 Q138.123 439.883 146.838 439.883 Z" fill="#000000" fill-rule="evenodd" fill-opacity="1" /><path clip-path="url(#clip400)" d="M177.081 483.841 L184.407 483.841 L184.407 492.661 L177.081 492.661 L177.081 483.841 Z" fill="#000000" fill-rule="evenodd" fill-opacity="1" /><path clip-path="url(#clip400)" d="M220.935 464.709 Q225.97 465.786 228.782 469.188 Q231.629 472.591 231.629 477.591 Q231.629 485.265 226.352 489.466 Q221.074 493.667 211.352 493.667 Q208.088 493.667 204.616 493.008 Q201.178 492.383 197.498 491.098 L197.498 484.327 Q200.414 486.029 203.886 486.897 Q207.359 487.765 211.143 487.765 Q217.741 487.765 221.178 485.161 Q224.65 482.556 224.65 477.591 Q224.65 473.008 221.421 470.438 Q218.227 467.834 212.497 467.834 L206.456 467.834 L206.456 462.07 L212.775 462.07 Q217.949 462.07 220.692 460.022 Q223.435 457.938 223.435 454.05 Q223.435 450.057 220.588 447.939 Q217.775 445.786 212.497 445.786 Q209.616 445.786 206.317 446.411 Q203.018 447.036 199.06 448.355 L199.06 442.105 Q203.053 440.994 206.525 440.439 Q210.032 439.883 213.122 439.883 Q221.109 439.883 225.761 443.529 Q230.414 447.14 230.414 453.32 Q230.414 457.626 227.949 460.612 Q225.484 463.563 220.935 464.709 Z" fill="#000000" fill-rule="evenodd" fill-opacity="1" /><path clip-path="url(#clip400)" d="M145.137 149.401 Q139.72 149.401 136.977 154.748 Q134.269 160.06 134.269 170.755 Q134.269 181.414 136.977 186.762 Q139.72 192.074 145.137 192.074 Q150.588 192.074 153.296 186.762 Q156.039 181.414 156.039 170.755 Q156.039 160.06 153.296 154.748 Q150.588 149.401 145.137 149.401 M145.137 143.845 Q153.852 143.845 158.435 150.755 Q163.053 157.63 163.053 170.755 Q163.053 183.845 158.435 190.755 Q153.852 197.63 145.137 197.63 Q136.421 197.63 131.803 190.755 Q127.22 183.845 127.22 170.755 Q127.22 157.63 131.803 150.755 Q136.421 143.845 145.137 143.845 Z" fill="#000000" fill-rule="evenodd" fill-opacity="1" /><path clip-path="url(#clip400)" d="M175.38 187.803 L182.706 187.803 L182.706 196.623 L175.38 196.623 L175.38 187.803 Z" fill="#000000" fill-rule="evenodd" fill-opacity="1" /><path clip-path="url(#clip400)" d="M217.254 150.894 L199.546 178.567 L217.254 178.567 L217.254 150.894 M215.414 144.783 L224.234 144.783 L224.234 178.567 L231.629 178.567 L231.629 184.4 L224.234 184.4 L224.234 196.623 L217.254 196.623 L217.254 184.4 L193.852 184.4 L193.852 177.63 L215.414 144.783 Z" fill="#000000" fill-rule="evenodd" fill-opacity="1" /><path clip-path="url(#clip400)" d="M19.3207 864.304 L66.3517 864.304 L66.3517 854.42 Q66.3517 841.903 60.6804 836.11 Q55.0091 830.277 42.7754 830.277 Q30.6227 830.277 24.9919 836.11 Q19.3207 841.903 19.3207 854.42 L19.3207 864.304 M12.5962 872.487 L12.5962 855.676 Q12.5962 838.095 19.9283 829.871 Q27.2199 821.648 42.7754 821.648 Q58.4119 821.648 65.744 829.912 Q73.0762 838.176 73.0762 855.676 L73.0762 872.487 L12.5962 872.487 Z" fill="#000000" fill-rule="evenodd" fill-opacity="1" /><path clip-path="url(#clip400)" d="M48.5277 770.121 L52.1735 770.121 L52.1735 804.391 Q59.8702 803.905 63.9211 799.773 Q67.9315 795.601 67.9315 788.188 Q67.9315 783.894 66.8783 779.883 Q65.825 775.832 63.7186 771.863 L70.7671 771.863 Q72.4685 775.873 73.3597 780.086 Q74.2509 784.299 74.2509 788.633 Q74.2509 799.49 67.9315 805.85 Q61.6121 812.169 50.8367 812.169 Q39.6967 812.169 33.1748 806.174 Q26.6123 800.138 26.6123 789.93 Q26.6123 780.775 32.5266 775.468 Q38.4004 770.121 48.5277 770.121 M46.3402 777.574 Q40.2233 777.655 36.5775 781.018 Q32.9317 784.339 32.9317 789.849 Q32.9317 796.087 36.456 799.854 Q39.9803 803.581 46.3807 804.148 L46.3402 777.574 Z" fill="#000000" fill-rule="evenodd" fill-opacity="1" /><path clip-path="url(#clip400)" d="M45.692 720.173 L73.0762 720.173 L73.0762 727.627 L45.9351 727.627 Q39.4942 727.627 36.2939 730.138 Q33.0937 732.65 33.0937 737.673 Q33.0937 743.709 36.9421 747.193 Q40.7905 750.676 47.4339 750.676 L73.0762 750.676 L73.0762 758.17 L27.706 758.17 L27.706 750.676 L34.7546 750.676 Q30.6632 748.003 28.6377 744.397 Q26.6123 740.752 26.6123 736.012 Q26.6123 728.194 31.4734 724.183 Q36.2939 720.173 45.692 720.173 Z" fill="#000000" fill-rule="evenodd" fill-opacity="1" /><path clip-path="url(#clip400)" d="M29.0428 676.383 L36.0914 676.383 Q34.471 679.542 33.6609 682.945 Q32.8507 686.348 32.8507 689.994 Q32.8507 695.543 34.5521 698.339 Q36.2534 701.093 39.6562 701.093 Q42.2488 701.093 43.7476 699.108 Q45.2059 697.123 46.5427 691.128 L47.1099 688.576 Q48.8112 680.636 51.9304 677.314 Q55.0091 673.952 60.5589 673.952 Q66.8783 673.952 70.5646 678.975 Q74.2509 683.958 74.2509 692.708 Q74.2509 696.354 73.5218 700.324 Q72.8331 704.253 71.4153 708.628 L63.7186 708.628 Q65.8655 704.496 66.9593 700.486 Q68.0125 696.475 68.0125 692.546 Q68.0125 687.28 66.2301 684.444 Q64.4072 681.608 61.126 681.608 Q58.0878 681.608 56.4675 683.674 Q54.8471 685.7 53.3483 692.627 L52.7406 695.219 Q51.2823 702.146 48.2846 705.225 Q45.2464 708.304 39.9803 708.304 Q33.5798 708.304 30.0961 703.767 Q26.6123 699.23 26.6123 690.885 Q26.6123 686.753 27.2199 683.107 Q27.8276 679.461 29.0428 676.383 Z" fill="#000000" fill-rule="evenodd" fill-opacity="1" /><path clip-path="url(#clip400)" d="M27.706 662.083 L27.706 654.629 L73.0762 654.629 L73.0762 662.083 L27.706 662.083 M10.0441 662.083 L10.0441 654.629 L19.4827 654.629 L19.4827 662.083 L10.0441 662.083 Z" fill="#000000" fill-rule="evenodd" fill-opacity="1" /><path clip-path="url(#clip400)" d="M14.8242 631.661 L27.706 631.661 L27.706 616.308 L33.4988 616.308 L33.4988 631.661 L58.1283 631.661 Q63.6781 631.661 65.2579 630.162 Q66.8378 628.623 66.8378 623.964 L66.8378 616.308 L73.0762 616.308 L73.0762 623.964 Q73.0762 632.592 69.8759 635.874 Q66.6352 639.155 58.1283 639.155 L33.4988 639.155 L33.4988 644.624 L27.706 644.624 L27.706 639.155 L14.8242 639.155 L14.8242 631.661 Z" fill="#000000" fill-rule="evenodd" fill-opacity="1" /><path clip-path="url(#clip400)" d="M77.2891 587.627 Q85.3909 590.787 87.862 593.785 Q90.333 596.782 90.333 601.806 L90.333 607.76 L84.0946 607.76 L84.0946 603.385 Q84.0946 600.307 82.6363 598.605 Q81.178 596.904 75.7498 594.838 L72.347 593.501 L27.706 611.852 L27.706 603.953 L63.192 589.774 L27.706 575.596 L27.706 567.697 L77.2891 587.627 Z" fill="#000000" fill-rule="evenodd" fill-opacity="1" /><polyline clip-path="url(#clip402)" style="stroke:#ff0000; stroke-linecap:round; stroke-linejoin:round; stroke-width:12; stroke-opacity:1; fill:none" points="
  720.062,1354.85 739.733,1354.85 759.404,1354.85 779.075,1354.85 798.746,1354.85 818.417,1354.83 838.088,1353.22 857.759,1335.18 877.43,1265.56 897.101,1122.02 
  916.773,921.084 936.444,702.362 956.115,502.696 975.786,343.994 995.457,233.513 1015.13,168.855 1034.8,142.883 1054.47,147.066 1074.14,173.3 1093.81,214.7 
  1113.48,265.792 1133.15,322.422 1152.82,381.551 1172.5,441.026 1192.17,499.374 1211.84,555.63 1231.51,609.199 1251.18,659.75 1270.85,707.139 1290.52,751.347 
  1310.19,792.443 1329.86,830.549 1349.53,865.818 1369.21,898.423 1388.88,928.544 1408.55,956.359 1428.22,982.044 1447.89,1005.76 1467.56,1027.68 1487.23,1047.93 
  1506.9,1066.66 1526.57,1083.99 1546.24,1100.05 1565.92,1114.93 1585.59,1128.73 1605.26,1141.54 1624.93,1153.45 1644.6,1164.53 1664.27,1174.84 1683.94,1184.44 
  1703.61,1193.4 1723.28,1201.77 1742.95,1209.58 1762.63,1216.89 1782.3,1223.73 1801.97,1230.14 1821.64,1236.15 1841.31,1241.78 1860.98,1247.08 1880.65,1252.06 
  1900.32,1256.74 1919.99,1261.15 1939.66,1265.3 1959.34,1269.22 1979.01,1272.92 1998.68,1276.41 2018.35,1279.7 2038.02,1282.82 2057.69,1285.78 2077.36,1288.57 
  2097.03,1291.22 2116.7,1293.73 2136.37,1296.11 2156.05,1298.38 2175.72,1300.53 2195.39,1302.57 2215.06,1304.51 2234.73,1306.36 2254.4,1308.12 2274.07,1309.8 
  2293.74,1311.4 
  "/>
<polyline clip-path="url(#clip402)" style="stroke:#008000; stroke-linecap:round; stroke-linejoin:round; stroke-width:12; stroke-opacity:1; fill:none" points="
  326.642,1354.85 346.313,1354.85 365.984,1354.85 385.655,1354.85 405.326,1354.85 424.997,1354.85 444.668,1354.85 464.339,1354.85 484.01,1354.85 503.681,1354.85 
  523.352,1354.85 543.023,1354.85 562.694,1354.85 582.365,1354.84 602.036,1354.8 621.707,1354.67 641.378,1354.32 661.049,1353.48 680.72,1351.64 700.391,1347.99 
  720.062,1341.34 739.733,1330.14 759.404,1312.61 779.075,1286.88 798.746,1251.31 818.417,1204.74 838.088,1146.78 857.759,1077.92 877.43,999.557 897.101,913.915 
  916.773,823.839 936.444,732.525 956.115,643.243 975.786,559.076 995.457,482.711 1015.13,416.29 1034.8,361.34 1054.47,318.76 1074.14,288.853 1093.81,271.409 
  1113.48,265.792 1133.15,271.047 1152.82,286.001 1172.5,309.35 1192.17,339.744 1211.84,375.844 1231.51,416.375 1251.18,460.155 1270.85,506.122 1290.52,553.34 
  1310.19,601.004 1329.86,648.44 1349.53,695.093 1369.21,740.519 1388.88,784.376 1408.55,826.407 1428.22,866.434 1447.89,904.34 1467.56,940.064 1487.23,973.586 
  1506.9,1004.92 1526.57,1034.12 1546.24,1061.24 1565.92,1086.36 1585.59,1109.59 1605.26,1131 1624.93,1150.72 1644.6,1168.83 1664.27,1185.45 1683.94,1200.69 
  1703.61,1214.62 1723.28,1227.37 1742.95,1239 1762.63,1249.62 1782.3,1259.3 1801.97,1268.12 1821.64,1276.15 1841.31,1283.45 1860.98,1290.09 1880.65,1296.13 
  1900.32,1301.62 1919.99,1306.6 1939.66,1311.12 1959.34,1315.23 1979.01,1318.95 1998.68,1322.33 2018.35,1325.39 2038.02,1328.17 2057.69,1330.69 2077.36,1332.97 
  2097.03,1335.04 2116.7,1336.92 2136.37,1338.61 2156.05,1340.15 2175.72,1341.54 2195.39,1342.81 2215.06,1343.95 2234.73,1344.98 2254.4,1345.92 2274.07,1346.77 
  2293.74,1347.53 
  "/>
<polyline clip-path="url(#clip402)" style="stroke:#0000ff; stroke-linecap:round; stroke-linejoin:round; stroke-width:12; stroke-opacity:1; fill:none" points="
  326.642,1353.76 346.313,1353.4 365.984,1352.94 385.655,1352.35 405.326,1351.59 424.997,1350.62 444.668,1349.4 464.339,1347.86 484.01,1345.93 503.681,1343.53 
  523.352,1340.57 543.023,1336.92 562.694,1332.47 582.365,1327.06 602.036,1320.53 621.707,1312.69 641.378,1303.36 661.049,1292.3 680.72,1279.29 700.391,1264.08 
  720.062,1246.41 739.733,1226.04 759.404,1202.7 779.075,1176.15 798.746,1146.16 818.417,1112.55 838.088,1075.16 857.759,1033.88 877.43,988.692 897.101,939.626 
  916.773,886.822 936.444,830.516 956.115,771.062 975.786,708.933 995.457,644.732 1015.13,579.193 1034.8,513.179 1054.47,447.68 1074.14,383.8 1093.81,322.742 
  1113.48,265.792 1133.15,214.289 1152.82,169.601 1172.5,133.087 1192.17,106.066 1211.84,89.7744 1231.51,85.3298 1251.18,93.6911 1270.85,115.622 1290.52,151.659 
  1310.19,202.081 1329.86,266.889 1349.53,345.787 1369.21,438.182 1388.88,543.179 1408.55,659.6 1428.22,785.994 1447.89,920.677 1467.56,1061.76 1487.23,1207.2 
  1506.9,1354.85 
  "/>
<circle clip-path="url(#clip402)" cx="720.062" cy="1354.85" r="14.4" fill="#ff0000" fill-rule="evenodd" fill-opacity="1" stroke="#000000" stroke-opacity="1" stroke-width="3.2"/>
<circle clip-path="url(#clip402)" cx="1506.9" cy="1354.85" r="14.4" fill="#0000ff" fill-rule="evenodd" fill-opacity="1" stroke="#000000" stroke-opacity="1" stroke-width="3.2"/>
<path clip-path="url(#clip400)" d="
M1745.92 403.141 L2283.25 403.141 L2283.25 92.1006 L1745.92 92.1006  Z
  " fill="#ffffff" fill-rule="evenodd" fill-opacity="1"/>
<polyline clip-path="url(#clip400)" style="stroke:#000000; stroke-linecap:round; stroke-linejoin:round; stroke-width:4; stroke-opacity:1; fill:none" points="
  1745.92,403.141 2283.25,403.141 2283.25,92.1006 1745.92,92.1006 1745.92,403.141 
  "/>
<polyline clip-path="url(#clip400)" style="stroke:#ff0000; stroke-linecap:round; stroke-linejoin:round; stroke-width:18; stroke-opacity:1; fill:none" points="
  1769.08,169.861 1908.09,169.861 
  "/>
<path clip-path="url(#clip400)" d="M1961.69 145.099 Q1961.69 147.312 1955.29 147.312 Q1954.2 147.312 1953.6 147.277 Q1953.01 147.207 1952.13 146.856 Q1951.29 146.469 1950.69 145.731 Q1946.89 147.593 1944.79 151.107 Q1942.71 154.62 1942.71 157.958 Q1942.71 161.436 1944.86 163.579 Q1947.53 162.701 1950.9 162.701 Q1953.6 162.701 1955.19 163.087 Q1956.8 163.474 1956.8 164.668 Q1956.8 165.195 1956.49 165.617 Q1956.17 166.003 1955.5 166.249 Q1954.87 166.46 1954.27 166.601 Q1953.71 166.741 1952.8 166.812 Q1951.88 166.847 1951.39 166.882 Q1950.9 166.882 1950.13 166.882 Q1946.33 166.882 1943.77 165.968 Q1939.66 168.041 1937.3 171.801 Q1934.95 175.525 1934.95 178.195 Q1934.95 182.411 1940.32 184.589 L1944.65 186.311 Q1945.63 186.627 1949.04 187.962 L1953.43 189.613 Q1956.87 191.124 1956.87 194.743 Q1956.87 197.553 1954.69 199.978 Q1952.55 202.437 1949.39 202.437 Q1947.53 202.437 1945.59 201.734 Q1943.7 201.067 1942.61 200.259 Q1941.55 199.451 1941.55 198.994 Q1941.55 198.186 1942.26 198.186 Q1942.54 198.186 1943.06 198.537 Q1946.4 200.856 1949.39 200.856 Q1950.93 200.856 1951.92 199.626 Q1952.94 198.397 1952.94 197.026 Q1952.94 196.289 1952.73 195.762 Q1952.55 195.235 1952.02 194.848 Q1951.53 194.497 1951.29 194.356 Q1951.08 194.251 1950.41 193.935 Q1949 193.408 1946.58 192.459 Q1944.15 191.546 1941.69 190.562 Q1937.55 189.016 1936.28 188.313 Q1935.05 187.646 1933.33 185.889 L1933.19 185.713 Q1933.02 185.503 1932.84 185.257 Q1932.7 185.011 1932.45 184.659 Q1932.24 184.273 1932.03 183.816 Q1931.82 183.359 1931.65 182.832 Q1931.47 182.27 1931.37 181.603 Q1931.26 180.9 1931.26 180.197 Q1931.26 179.038 1931.65 177.527 Q1932.07 175.981 1932.98 173.944 Q1933.93 171.906 1935.93 169.692 Q1937.94 167.479 1940.68 165.652 L1941.62 164.949 Q1939.24 163.579 1938.08 161.541 Q1936.95 159.504 1936.95 157.325 Q1936.95 153.074 1940.39 149.28 Q1943.87 145.45 1949.53 143.869 Q1949.04 141.902 1949.04 141.059 Q1949.04 140.742 1949.07 140.391 Q1949.11 140.005 1949.18 139.267 Q1949.28 138.494 1949.56 138.037 Q1949.88 137.545 1950.34 137.545 Q1951.18 137.545 1951.18 138.459 Q1950.83 140.11 1950.83 141.129 Q1950.83 142.464 1951.18 143.518 Q1953.22 143.131 1955.71 143.131 Q1958.49 143.131 1960.07 143.518 Q1961.69 143.869 1961.69 145.099 M1959.82 145.169 Q1958.14 144.712 1955.78 144.712 Q1953.6 144.712 1952.34 145.099 Q1952.9 145.521 1953.5 145.626 Q1954.13 145.731 1955.36 145.731 Q1958.31 145.731 1959.82 145.169 M1954.94 164.739 Q1953.25 164.282 1950.83 164.282 Q1948.51 164.282 1946.72 164.739 Q1947.63 165.125 1948.26 165.231 Q1948.93 165.301 1950.34 165.301 Q1953.82 165.301 1954.94 164.739 Z" fill="#000000" fill-rule="evenodd" fill-opacity="1" /><path clip-path="url(#clip400)" d="M1982.44 176.754 Q1982.51 175.876 1983.88 175.876 L2027.97 175.876 Q2030.04 175.876 2030.08 176.684 Q2030.08 177.562 2028.11 177.527 L1984.37 177.527 Q1982.44 177.562 1982.44 176.754 M1982.44 162.701 Q1982.44 161.823 1983.95 161.858 L2027.9 161.858 Q2030.04 161.858 2030.08 162.701 Q2030.08 163.509 2028.25 163.509 L1983.88 163.509 Q1982.44 163.509 1982.44 162.701 Z" fill="#000000" fill-rule="evenodd" fill-opacity="1" /><path clip-path="url(#clip400)" d="M2057.83 146.61 L2057.83 144.361 Q2066.47 144.361 2070.93 139.759 Q2072.16 139.759 2072.37 140.04 Q2072.59 140.321 2072.59 141.621 L2072.59 181.989 Q2072.59 184.132 2073.64 184.8 Q2074.69 185.468 2079.3 185.468 L2081.58 185.468 L2081.58 187.681 Q2079.05 187.47 2069.92 187.47 Q2060.78 187.47 2058.29 187.681 L2058.29 185.468 L2060.57 185.468 Q2065.1 185.468 2066.19 184.835 Q2067.28 184.168 2067.28 181.989 L2067.28 144.712 Q2063.52 146.61 2057.83 146.61 Z" fill="#000000" fill-rule="evenodd" fill-opacity="1" /><path clip-path="url(#clip400)" d="M2093.46 204.65 Q2093.46 204.299 2093.74 203.526 L2119.14 135.648 Q2119.14 135.578 2119.32 135.191 Q2119.5 134.805 2119.6 134.559 Q2119.71 134.278 2119.92 134.067 Q2120.16 133.856 2120.44 133.856 Q2121.15 133.856 2121.15 134.734 Q2121.15 134.805 2120.94 135.648 L2095.46 203.596 Q2095.04 204.826 2094.76 205.177 Q2094.52 205.529 2094.09 205.529 Q2093.46 205.529 2093.46 204.65 Z" fill="#000000" fill-rule="evenodd" fill-opacity="1" /><path clip-path="url(#clip400)" d="M2129.09 187.681 Q2129.09 186.381 2129.2 185.995 Q2129.34 185.608 2129.9 185.011 L2143.71 169.622 Q2151.26 161.12 2151.26 153.707 Q2151.26 148.893 2148.73 145.45 Q2146.24 142.007 2141.64 142.007 Q2138.48 142.007 2135.81 143.94 Q2133.14 145.872 2131.91 149.315 Q2132.12 149.245 2132.85 149.245 Q2134.65 149.245 2135.63 150.369 Q2136.65 151.493 2136.65 153.004 Q2136.65 154.936 2135.38 155.885 Q2134.15 156.798 2132.92 156.798 Q2132.43 156.798 2131.77 156.693 Q2131.13 156.588 2130.11 155.604 Q2129.09 154.585 2129.09 152.793 Q2129.09 147.769 2132.89 143.764 Q2136.72 139.759 2142.55 139.759 Q2149.16 139.759 2153.48 143.694 Q2157.83 147.593 2157.83 153.707 Q2157.83 155.85 2157.17 157.817 Q2156.53 159.75 2155.66 161.26 Q2154.81 162.771 2152.49 165.195 Q2150.18 167.62 2148.31 169.341 Q2146.45 171.063 2142.27 174.717 L2134.65 182.13 L2147.61 182.13 Q2153.93 182.13 2154.43 181.568 Q2155.13 180.549 2156.01 175.173 L2157.83 175.173 L2155.8 187.681 L2129.09 187.681 Z" fill="#000000" fill-rule="evenodd" fill-opacity="1" /><polyline clip-path="url(#clip400)" style="stroke:#008000; stroke-linecap:round; stroke-linejoin:round; stroke-width:18; stroke-opacity:1; fill:none" points="
  1769.08,247.621 1908.09,247.621 
  "/>
<path clip-path="url(#clip400)" d="M1961.69 222.562 Q1961.69 224.775 1955.29 224.775 Q1954.2 224.775 1953.6 224.74 Q1953.01 224.67 1952.13 224.319 Q1951.29 223.932 1950.69 223.194 Q1946.89 225.057 1944.79 228.57 Q1942.71 232.083 1942.71 235.421 Q1942.71 238.899 1944.86 241.042 Q1947.53 240.164 1950.9 240.164 Q1953.6 240.164 1955.19 240.55 Q1956.8 240.937 1956.8 242.132 Q1956.8 242.659 1956.49 243.08 Q1956.17 243.467 1955.5 243.713 Q1954.87 243.923 1954.27 244.064 Q1953.71 244.204 1952.8 244.275 Q1951.88 244.31 1951.39 244.345 Q1950.9 244.345 1950.13 244.345 Q1946.33 244.345 1943.77 243.431 Q1939.66 245.504 1937.3 249.264 Q1934.95 252.988 1934.95 255.658 Q1934.95 259.874 1940.32 262.052 L1944.65 263.774 Q1945.63 264.09 1949.04 265.425 L1953.43 267.076 Q1956.87 268.587 1956.87 272.206 Q1956.87 275.017 1954.69 277.441 Q1952.55 279.9 1949.39 279.9 Q1947.53 279.9 1945.59 279.198 Q1943.7 278.53 1942.61 277.722 Q1941.55 276.914 1941.55 276.457 Q1941.55 275.649 1942.26 275.649 Q1942.54 275.649 1943.06 276 Q1946.4 278.319 1949.39 278.319 Q1950.93 278.319 1951.92 277.09 Q1952.94 275.86 1952.94 274.49 Q1952.94 273.752 1952.73 273.225 Q1952.55 272.698 1952.02 272.311 Q1951.53 271.96 1951.29 271.819 Q1951.08 271.714 1950.41 271.398 Q1949 270.871 1946.58 269.922 Q1944.15 269.009 1941.69 268.025 Q1937.55 266.479 1936.28 265.776 Q1935.05 265.109 1933.33 263.352 L1933.19 263.177 Q1933.02 262.966 1932.84 262.72 Q1932.7 262.474 1932.45 262.123 Q1932.24 261.736 1932.03 261.279 Q1931.82 260.823 1931.65 260.296 Q1931.47 259.733 1931.37 259.066 Q1931.26 258.363 1931.26 257.661 Q1931.26 256.501 1931.65 254.99 Q1932.07 253.445 1932.98 251.407 Q1933.93 249.369 1935.93 247.156 Q1937.94 244.942 1940.68 243.115 L1941.62 242.413 Q1939.24 241.042 1938.08 239.005 Q1936.95 236.967 1936.95 234.789 Q1936.95 230.537 1940.39 226.743 Q1943.87 222.913 1949.53 221.332 Q1949.04 219.365 1949.04 218.522 Q1949.04 218.205 1949.07 217.854 Q1949.11 217.468 1949.18 216.73 Q1949.28 215.957 1949.56 215.5 Q1949.88 215.008 1950.34 215.008 Q1951.18 215.008 1951.18 215.922 Q1950.83 217.573 1950.83 218.592 Q1950.83 219.927 1951.18 220.981 Q1953.22 220.595 1955.71 220.595 Q1958.49 220.595 1960.07 220.981 Q1961.69 221.332 1961.69 222.562 M1959.82 222.632 Q1958.14 222.176 1955.78 222.176 Q1953.6 222.176 1952.34 222.562 Q1952.9 222.984 1953.5 223.089 Q1954.13 223.194 1955.36 223.194 Q1958.31 223.194 1959.82 222.632 M1954.94 242.202 Q1953.25 241.745 1950.83 241.745 Q1948.51 241.745 1946.72 242.202 Q1947.63 242.588 1948.26 242.694 Q1948.93 242.764 1950.34 242.764 Q1953.82 242.764 1954.94 242.202 Z" fill="#000000" fill-rule="evenodd" fill-opacity="1" /><path clip-path="url(#clip400)" d="M1982.44 254.217 Q1982.51 253.339 1983.88 253.339 L2027.97 253.339 Q2030.04 253.339 2030.08 254.147 Q2030.08 255.026 2028.11 254.99 L1984.37 254.99 Q1982.44 255.026 1982.44 254.217 M1982.44 240.164 Q1982.44 239.286 1983.95 239.321 L2027.9 239.321 Q2030.04 239.321 2030.08 240.164 Q2030.08 240.972 2028.25 240.972 L1983.88 240.972 Q1982.44 240.972 1982.44 240.164 Z" fill="#000000" fill-rule="evenodd" fill-opacity="1" /><path clip-path="url(#clip400)" d="M2057.83 242.132 Q2057.83 231.556 2060.5 225.794 Q2064.22 217.222 2073.01 217.222 Q2074.87 217.222 2076.8 217.749 Q2078.77 218.241 2081.23 220.173 Q2083.72 222.105 2085.23 225.267 Q2088.11 231.381 2088.11 242.132 Q2088.11 252.636 2085.44 258.363 Q2081.54 266.725 2072.94 266.725 Q2069.7 266.725 2066.4 265.074 Q2063.13 263.423 2061.06 259.452 Q2057.83 253.515 2057.83 242.132 M2063.8 241.253 Q2063.8 252.109 2064.57 256.431 Q2065.45 261.104 2067.84 263.141 Q2070.27 265.144 2072.94 265.144 Q2075.82 265.144 2078.21 263.001 Q2080.63 260.823 2081.37 256.15 Q2082.18 251.547 2082.14 241.253 Q2082.14 231.24 2081.44 227.235 Q2080.49 222.562 2077.96 220.7 Q2075.47 218.803 2072.94 218.803 Q2071.99 218.803 2070.97 219.084 Q2069.99 219.365 2068.55 220.173 Q2067.1 220.981 2065.98 222.984 Q2064.89 224.986 2064.36 228.008 Q2063.8 231.908 2063.8 241.253 Z" fill="#000000" fill-rule="evenodd" fill-opacity="1" /><polyline clip-path="url(#clip400)" style="stroke:#0000ff; stroke-linecap:round; stroke-linejoin:round; stroke-width:18; stroke-opacity:1; fill:none" points="
  1769.08,325.381 1908.09,325.381 
  "/>
<path clip-path="url(#clip400)" d="M1961.69 300.619 Q1961.69 302.832 1955.29 302.832 Q1954.2 302.832 1953.6 302.797 Q1953.01 302.727 1952.13 302.376 Q1951.29 301.989 1950.69 301.251 Q1946.89 303.113 1944.79 306.627 Q1942.71 310.14 1942.71 313.478 Q1942.71 316.956 1944.86 319.099 Q1947.53 318.221 1950.9 318.221 Q1953.6 318.221 1955.19 318.607 Q1956.8 318.994 1956.8 320.188 Q1956.8 320.715 1956.49 321.137 Q1956.17 321.523 1955.5 321.769 Q1954.87 321.98 1954.27 322.121 Q1953.71 322.261 1952.8 322.332 Q1951.88 322.367 1951.39 322.402 Q1950.9 322.402 1950.13 322.402 Q1946.33 322.402 1943.77 321.488 Q1939.66 323.561 1937.3 327.321 Q1934.95 331.045 1934.95 333.715 Q1934.95 337.931 1940.32 340.109 L1944.65 341.831 Q1945.63 342.147 1949.04 343.482 L1953.43 345.133 Q1956.87 346.644 1956.87 350.263 Q1956.87 353.073 1954.69 355.498 Q1952.55 357.957 1949.39 357.957 Q1947.53 357.957 1945.59 357.254 Q1943.7 356.587 1942.61 355.779 Q1941.55 354.971 1941.55 354.514 Q1941.55 353.706 1942.26 353.706 Q1942.54 353.706 1943.06 354.057 Q1946.4 356.376 1949.39 356.376 Q1950.93 356.376 1951.92 355.146 Q1952.94 353.917 1952.94 352.546 Q1952.94 351.809 1952.73 351.282 Q1952.55 350.755 1952.02 350.368 Q1951.53 350.017 1951.29 349.876 Q1951.08 349.771 1950.41 349.455 Q1949 348.928 1946.58 347.979 Q1944.15 347.066 1941.69 346.082 Q1937.55 344.536 1936.28 343.833 Q1935.05 343.166 1933.33 341.409 L1933.19 341.233 Q1933.02 341.023 1932.84 340.777 Q1932.7 340.531 1932.45 340.179 Q1932.24 339.793 1932.03 339.336 Q1931.82 338.879 1931.65 338.352 Q1931.47 337.79 1931.37 337.123 Q1931.26 336.42 1931.26 335.717 Q1931.26 334.558 1931.65 333.047 Q1932.07 331.501 1932.98 329.464 Q1933.93 327.426 1935.93 325.212 Q1937.94 322.999 1940.68 321.172 L1941.62 320.469 Q1939.24 319.099 1938.08 317.061 Q1936.95 315.024 1936.95 312.845 Q1936.95 308.594 1940.39 304.8 Q1943.87 300.97 1949.53 299.389 Q1949.04 297.422 1949.04 296.579 Q1949.04 296.262 1949.07 295.911 Q1949.11 295.525 1949.18 294.787 Q1949.28 294.014 1949.56 293.557 Q1949.88 293.065 1950.34 293.065 Q1951.18 293.065 1951.18 293.979 Q1950.83 295.63 1950.83 296.649 Q1950.83 297.984 1951.18 299.038 Q1953.22 298.651 1955.71 298.651 Q1958.49 298.651 1960.07 299.038 Q1961.69 299.389 1961.69 300.619 M1959.82 300.689 Q1958.14 300.232 1955.78 300.232 Q1953.6 300.232 1952.34 300.619 Q1952.9 301.041 1953.5 301.146 Q1954.13 301.251 1955.36 301.251 Q1958.31 301.251 1959.82 300.689 M1954.94 320.259 Q1953.25 319.802 1950.83 319.802 Q1948.51 319.802 1946.72 320.259 Q1947.63 320.645 1948.26 320.751 Q1948.93 320.821 1950.34 320.821 Q1953.82 320.821 1954.94 320.259 Z" fill="#000000" fill-rule="evenodd" fill-opacity="1" /><path clip-path="url(#clip400)" d="M1982.44 332.274 Q1982.51 331.396 1983.88 331.396 L2027.97 331.396 Q2030.04 331.396 2030.08 332.204 Q2030.08 333.082 2028.11 333.047 L1984.37 333.047 Q1982.44 333.082 1982.44 332.274 M1982.44 318.221 Q1982.44 317.343 1983.95 317.378 L2027.9 317.378 Q2030.04 317.378 2030.08 318.221 Q2030.08 319.029 2028.25 319.029 L1983.88 319.029 Q1982.44 319.029 1982.44 318.221 Z" fill="#000000" fill-rule="evenodd" fill-opacity="1" /><path clip-path="url(#clip400)" d="M2125.29 324.194 Q2125.71 324.615 2125.71 325.212 Q2125.71 325.81 2125.29 326.231 Q2124.87 326.653 2124.27 326.653 L2079.23 326.653 Q2078.63 326.653 2078.21 326.231 Q2077.79 325.81 2077.79 325.212 Q2077.79 324.615 2078.21 324.194 Q2078.63 323.772 2079.23 323.772 L2124.27 323.772 Q2124.87 323.772 2125.29 324.194 Z" fill="#000000" fill-rule="evenodd" fill-opacity="1" /><path clip-path="url(#clip400)" d="M2153.19 302.13 L2153.19 299.881 Q2161.83 299.881 2166.29 295.279 Q2167.52 295.279 2167.73 295.56 Q2167.94 295.841 2167.94 297.141 L2167.94 337.509 Q2167.94 339.652 2169 340.32 Q2170.05 340.988 2174.65 340.988 L2176.94 340.988 L2176.94 343.201 Q2174.41 342.99 2165.27 342.99 Q2156.14 342.99 2153.64 343.201 L2153.64 340.988 L2155.93 340.988 Q2160.46 340.988 2161.55 340.355 Q2162.64 339.688 2162.64 337.509 L2162.64 300.232 Q2158.88 302.13 2153.19 302.13 Z" fill="#000000" fill-rule="evenodd" fill-opacity="1" /><path clip-path="url(#clip400)" d="M2188.82 360.17 Q2188.82 359.819 2189.1 359.046 L2214.5 291.168 Q2214.5 291.098 2214.68 290.711 Q2214.85 290.325 2214.96 290.079 Q2215.06 289.798 2215.27 289.587 Q2215.52 289.376 2215.8 289.376 Q2216.5 289.376 2216.5 290.254 Q2216.5 290.325 2216.29 291.168 L2190.82 359.116 Q2190.4 360.346 2190.12 360.697 Q2189.87 361.049 2189.45 361.049 Q2188.82 361.049 2188.82 360.17 Z" fill="#000000" fill-rule="evenodd" fill-opacity="1" /><path clip-path="url(#clip400)" d="M2224.45 343.201 Q2224.45 341.901 2224.56 341.515 Q2224.7 341.128 2225.26 340.531 L2239.07 325.142 Q2246.62 316.64 2246.62 309.227 Q2246.62 304.413 2244.09 300.97 Q2241.6 297.527 2236.99 297.527 Q2233.83 297.527 2231.16 299.46 Q2228.49 301.392 2227.26 304.835 Q2227.47 304.765 2228.21 304.765 Q2230 304.765 2230.99 305.889 Q2232 307.013 2232 308.524 Q2232 310.456 2230.74 311.405 Q2229.51 312.318 2228.28 312.318 Q2227.79 312.318 2227.12 312.213 Q2226.49 312.108 2225.47 311.124 Q2224.45 310.105 2224.45 308.313 Q2224.45 303.289 2228.25 299.284 Q2232.07 295.279 2237.91 295.279 Q2244.51 295.279 2248.83 299.214 Q2253.19 303.113 2253.19 309.227 Q2253.19 311.37 2252.52 313.337 Q2251.89 315.27 2251.01 316.78 Q2250.17 318.291 2247.85 320.715 Q2245.53 323.14 2243.67 324.861 Q2241.81 326.583 2237.63 330.237 L2230 337.65 L2242.97 337.65 Q2249.29 337.65 2249.78 337.088 Q2250.48 336.069 2251.36 330.693 L2253.19 330.693 L2251.15 343.201 L2224.45 343.201 Z" fill="#000000" fill-rule="evenodd" fill-opacity="1" /></svg>
