<?xml version="1.0" encoding="utf-8"?>
<svg xmlns="http://www.w3.org/2000/svg" xmlns:xlink="http://www.w3.org/1999/xlink" width="600" height="400" viewBox="0 0 2400 1600">
<defs>
  <clipPath id="clip240">
    <rect x="0" y="0" width="2400" height="1600"/>
  </clipPath>
</defs>
<path clip-path="url(#clip240)" d="
M0 1600 L2400 1600 L2400 0 L0 0  Z
  " fill="#ffffff" fill-rule="evenodd" fill-opacity="1"/>
<defs>
  <clipPath id="clip241">
    <rect x="480" y="0" width="1681" height="1600"/>
  </clipPath>
</defs>
<path clip-path="url(#clip240)" d="
M266.9 1392.94 L2352.76 1392.94 L2352.76 47.2441 L266.9 47.2441  Z
  " fill="#ffffff" fill-rule="evenodd" fill-opacity="1"/>
<defs>
  <clipPath id="clip242">
    <rect x="266" y="47" width="2087" height="1347"/>
  </clipPath>
</defs>
<polyline clip-path="url(#clip242)" style="stroke:#000000; stroke-linecap:round; stroke-linejoin:round; stroke-width:2; stroke-opacity:0.1; fill:none" points="
  266.9,1392.94 266.9,47.2441 
  "/>
<polyline clip-path="url(#clip242)" style="stroke:#000000; stroke-linecap:round; stroke-linejoin:round; stroke-width:2; stroke-opacity:0.1; fill:none" points="
  962.185,1392.94 962.185,47.2441 
  "/>
<polyline clip-path="url(#clip242)" style="stroke:#000000; stroke-linecap:round; stroke-linejoin:round; stroke-width:2; stroke-opacity:0.1; fill:none" points="
  1657.47,1392.94 1657.47,47.2441 
  "/>
<polyline clip-path="url(#clip242)" style="stroke:#000000; stroke-linecap:round; stroke-linejoin:round; stroke-width:2; stroke-opacity:0.1; fill:none" points="
  2352.76,1392.94 2352.76,47.2441 
  "/>
<polyline clip-path="url(#clip240)" style="stroke:#000000; stroke-linecap:round; stroke-linejoin:round; stroke-width:4; stroke-opacity:1; fill:none" points="
  266.9,1392.94 2352.76,1392.94 
  "/>
<polyline clip-path="url(#clip240)" style="stroke:#000000; stroke-linecap:round; stroke-linejoin:round; stroke-width:4; stroke-opacity:1; fill:none" points="
  266.9,1392.94 266.9,1374.04 
  "/>
<polyline clip-path="url(#clip240)" style="stroke:#000000; stroke-linecap:round; stroke-linejoin:round; stroke-width:4; stroke-opacity:1; fill:none" points="
  962.185,1392.94 962.185,1374.04 
  "/>
<polyline clip-path="url(#clip240)" style="stroke:#000000; stroke-linecap:round; stroke-linejoin:round; stroke-width:4; stroke-opacity:1; fill:none" points="
  1657.47,1392.94 1657.47,1374.04 
  "/>
<polyline clip-path="url(#clip240)" style="stroke:#000000; stroke-linecap:round; stroke-linejoin:round; stroke-width:4; stroke-opacity:1; fill:none" points="
  2352.76,1392.94 2352.76,1374.04 
  "/>
<path clip-path="url(#clip240)" d="M232.977 1429.72 Q227.56 1429.72 224.817 1435.07 Q222.109 1440.38 222.109 1451.07 Q222.109 1461.73 224.817 1467.08 Q227.56 1472.39 232.977 1472.39 Q238.428 1472.39 241.136 1467.08 Q243.879 1461.73 243.879 1451.07 Q243.879 1440.38 241.136 1435.07 Q238.428 1429.72 232.977 1429.72 M232.977 1424.16 Q241.692 1424.16 246.275 1431.07 Q250.893 1437.95 250.893 1451.07 Q250.893 1464.16 246.275 1471.07 Q241.692 1477.95 232.977 1477.95 Q224.261 1477.95 219.643 1471.07 Q215.06 1464.16 215.06 1451.07 Q215.06 1437.95 219.643 1431.07 Q224.261 1424.16 232.977 1424.16 Z" fill="#000000" fill-rule="evenodd" fill-opacity="1" /><path clip-path="url(#clip240)" d="M263.22 1468.12 L270.546 1468.12 L270.546 1476.94 L263.22 1476.94 L263.22 1468.12 Z" fill="#000000" fill-rule="evenodd" fill-opacity="1" /><path clip-path="url(#clip240)" d="M300.824 1429.72 Q295.407 1429.72 292.664 1435.07 Q289.956 1440.38 289.956 1451.07 Q289.956 1461.73 292.664 1467.08 Q295.407 1472.39 300.824 1472.39 Q306.275 1472.39 308.983 1467.08 Q311.726 1461.73 311.726 1451.07 Q311.726 1440.38 308.983 1435.07 Q306.275 1429.72 300.824 1429.72 M300.824 1424.16 Q309.539 1424.16 314.122 1431.07 Q318.74 1437.95 318.74 1451.07 Q318.74 1464.16 314.122 1471.07 Q309.539 1477.95 300.824 1477.95 Q292.108 1477.95 287.49 1471.07 Q282.907 1464.16 282.907 1451.07 Q282.907 1437.95 287.49 1431.07 Q292.108 1424.16 300.824 1424.16 Z" fill="#000000" fill-rule="evenodd" fill-opacity="1" /><path clip-path="url(#clip240)" d="M929.009 1429.72 Q923.592 1429.72 920.849 1435.07 Q918.141 1440.38 918.141 1451.07 Q918.141 1461.73 920.849 1467.08 Q923.592 1472.39 929.009 1472.39 Q934.46 1472.39 937.168 1467.08 Q939.911 1461.73 939.911 1451.07 Q939.911 1440.38 937.168 1435.07 Q934.46 1429.72 929.009 1429.72 M929.009 1424.16 Q937.724 1424.16 942.307 1431.07 Q946.925 1437.95 946.925 1451.07 Q946.925 1464.16 942.307 1471.07 Q937.724 1477.95 929.009 1477.95 Q920.293 1477.95 915.675 1471.07 Q911.092 1464.16 911.092 1451.07 Q911.092 1437.95 915.675 1431.07 Q920.293 1424.16 929.009 1424.16 Z" fill="#000000" fill-rule="evenodd" fill-opacity="1" /><path clip-path="url(#clip240)" d="M959.251 1468.12 L966.578 1468.12 L966.578 1476.94 L959.251 1476.94 L959.251 1468.12 Z" fill="#000000" fill-rule="evenodd" fill-opacity="1" /><path clip-path="url(#clip240)" d="M981.925 1425.1 L1009.46 1425.1 L1009.46 1431 L988.348 1431 L988.348 1443.71 Q989.876 1443.19 991.404 1442.95 Q992.932 1442.67 994.46 1442.67 Q1003.14 1442.67 1008.21 1447.43 Q1013.28 1452.18 1013.28 1460.31 Q1013.28 1468.68 1008.07 1473.33 Q1002.86 1477.95 993.383 1477.95 Q990.119 1477.95 986.717 1477.39 Q983.348 1476.84 979.737 1475.72 L979.737 1468.68 Q982.862 1470.38 986.196 1471.21 Q989.529 1472.04 993.244 1472.04 Q999.251 1472.04 1002.76 1468.88 Q1006.27 1465.72 1006.27 1460.31 Q1006.27 1454.89 1002.76 1451.73 Q999.251 1448.57 993.244 1448.57 Q990.432 1448.57 987.619 1449.2 Q984.842 1449.82 981.925 1451.14 L981.925 1425.1 Z" fill="#000000" fill-rule="evenodd" fill-opacity="1" /><path clip-path="url(#clip240)" d="M1608.2 1471.04 L1619.66 1471.04 L1619.66 1431.49 L1607.19 1433.99 L1607.19 1427.6 L1619.59 1425.1 L1626.6 1425.1 L1626.6 1471.04 L1638.06 1471.04 L1638.06 1476.94 L1608.2 1476.94 L1608.2 1471.04 Z" fill="#000000" fill-rule="evenodd" fill-opacity="1" /><path clip-path="url(#clip240)" d="M1652.23 1468.12 L1659.55 1468.12 L1659.55 1476.94 L1652.23 1476.94 L1652.23 1468.12 Z" fill="#000000" fill-rule="evenodd" fill-opacity="1" /><path clip-path="url(#clip240)" d="M1689.83 1429.72 Q1684.41 1429.72 1681.67 1435.07 Q1678.96 1440.38 1678.96 1451.07 Q1678.96 1461.73 1681.67 1467.08 Q1684.41 1472.39 1689.83 1472.39 Q1695.28 1472.39 1697.99 1467.08 Q1700.73 1461.73 1700.73 1451.07 Q1700.73 1440.38 1697.99 1435.07 Q1695.28 1429.72 1689.83 1429.72 M1689.83 1424.16 Q1698.55 1424.16 1703.13 1431.07 Q1707.75 1437.95 1707.75 1451.07 Q1707.75 1464.16 1703.13 1471.07 Q1698.55 1477.95 1689.83 1477.95 Q1681.12 1477.95 1676.5 1471.07 Q1671.92 1464.16 1671.92 1451.07 Q1671.92 1437.95 1676.5 1431.07 Q1681.12 1424.16 1689.83 1424.16 Z" fill="#000000" fill-rule="evenodd" fill-opacity="1" /><path clip-path="url(#clip240)" d="M2304.23 1471.04 L2315.69 1471.04 L2315.69 1431.49 L2303.22 1433.99 L2303.22 1427.6 L2315.62 1425.1 L2322.63 1425.1 L2322.63 1471.04 L2334.09 1471.04 L2334.09 1476.94 L2304.23 1476.94 L2304.23 1471.04 Z" fill="#000000" fill-rule="evenodd" fill-opacity="1" /><path clip-path="url(#clip240)" d="M2348.26 1468.12 L2355.59 1468.12 L2355.59 1476.94 L2348.26 1476.94 L2348.26 1468.12 Z" fill="#000000" fill-rule="evenodd" fill-opacity="1" /><path clip-path="url(#clip240)" d="M2370.93 1425.1 L2398.47 1425.1 L2398.47 1431 L2377.36 1431 L2377.36 1443.71 Q2378.88 1443.19 2380.41 1442.95 Q2381.94 1442.67 2383.47 1442.67 Q2392.15 1442.67 2397.22 1447.43 Q2402.29 1452.18 2402.29 1460.31 Q2402.29 1468.68 2397.08 1473.33 Q2391.87 1477.95 2382.39 1477.95 Q2379.13 1477.95 2375.72 1477.39 Q2372.36 1476.84 2368.75 1475.72 L2368.75 1468.68 Q2371.87 1470.38 2375.2 1471.21 Q2378.54 1472.04 2382.25 1472.04 Q2388.26 1472.04 2391.77 1468.88 Q2395.27 1465.72 2395.27 1460.31 Q2395.27 1454.89 2391.77 1451.73 Q2388.26 1448.57 2382.25 1448.57 Q2379.44 1448.57 2376.63 1449.2 Q2373.85 1449.82 2370.93 1451.14 L2370.93 1425.1 Z" fill="#000000" fill-rule="evenodd" fill-opacity="1" /><path clip-path="url(#clip240)" d="M583.663 1518.8 L634.826 1518.8 L634.826 1525.68 L613.356 1525.68 L613.356 1579.28 L605.133 1579.28 L605.133 1525.68 L583.663 1525.68 L583.663 1518.8 Z" fill="#000000" fill-rule="evenodd" fill-opacity="1" /><path clip-path="url(#clip240)" d="M639.849 1533.91 L647.303 1533.91 L647.303 1579.28 L639.849 1579.28 L639.849 1533.91 M639.849 1516.24 L647.303 1516.24 L647.303 1525.68 L639.849 1525.68 L639.849 1516.24 Z" fill="#000000" fill-rule="evenodd" fill-opacity="1" /><path clip-path="url(#clip240)" d="M692.754 1540.79 L692.754 1516.24 L700.207 1516.24 L700.207 1579.28 L692.754 1579.28 L692.754 1572.47 Q690.404 1576.52 686.799 1578.51 Q683.234 1580.45 678.211 1580.45 Q669.988 1580.45 664.803 1573.89 Q659.658 1567.33 659.658 1556.63 Q659.658 1545.94 664.803 1539.37 Q669.988 1532.81 678.211 1532.81 Q683.234 1532.81 686.799 1534.8 Q690.404 1536.74 692.754 1540.79 M667.355 1556.63 Q667.355 1564.85 670.717 1569.55 Q674.12 1574.21 680.034 1574.21 Q685.948 1574.21 689.351 1569.55 Q692.754 1564.85 692.754 1556.63 Q692.754 1548.41 689.351 1543.75 Q685.948 1539.05 680.034 1539.05 Q674.12 1539.05 670.717 1543.75 Q667.355 1548.41 667.355 1556.63 Z" fill="#000000" fill-rule="evenodd" fill-opacity="1" /><path clip-path="url(#clip240)" d="M754.368 1554.73 L754.368 1558.37 L720.097 1558.37 Q720.584 1566.07 724.715 1570.12 Q728.888 1574.13 736.301 1574.13 Q740.595 1574.13 744.605 1573.08 Q748.656 1572.02 752.626 1569.92 L752.626 1576.97 Q748.616 1578.67 744.403 1579.56 Q740.19 1580.45 735.855 1580.45 Q724.999 1580.45 718.639 1574.13 Q712.32 1567.81 712.32 1557.04 Q712.32 1545.9 718.315 1539.37 Q724.351 1532.81 734.559 1532.81 Q743.714 1532.81 749.021 1538.73 Q754.368 1544.6 754.368 1554.73 M746.914 1552.54 Q746.833 1546.42 743.471 1542.78 Q740.149 1539.13 734.64 1539.13 Q728.402 1539.13 724.634 1542.66 Q720.908 1546.18 720.34 1552.58 L746.914 1552.54 Z" fill="#000000" fill-rule="evenodd" fill-opacity="1" /><path clip-path="url(#clip240)" d="M834.535 1570.65 L834.535 1554.4 L821.167 1554.4 L821.167 1547.68 L842.637 1547.68 L842.637 1573.65 Q837.898 1577.01 832.186 1578.75 Q826.474 1580.45 819.993 1580.45 Q805.815 1580.45 797.794 1572.19 Q789.813 1563.88 789.813 1549.1 Q789.813 1534.27 797.794 1526.01 Q805.815 1517.7 819.993 1517.7 Q825.907 1517.7 831.214 1519.16 Q836.561 1520.62 841.057 1523.45 L841.057 1532.16 Q836.52 1528.32 831.416 1526.37 Q826.312 1524.43 820.681 1524.43 Q809.582 1524.43 803.992 1530.62 Q798.442 1536.82 798.442 1549.1 Q798.442 1561.33 803.992 1567.53 Q809.582 1573.73 820.681 1573.73 Q825.016 1573.73 828.419 1573 Q831.821 1572.23 834.535 1570.65 Z" fill="#000000" fill-rule="evenodd" fill-opacity="1" /><path clip-path="url(#clip240)" d="M877.88 1556.47 Q868.847 1556.47 865.363 1558.54 Q861.879 1560.6 861.879 1565.58 Q861.879 1569.55 864.472 1571.9 Q867.105 1574.21 871.601 1574.21 Q877.799 1574.21 881.526 1569.84 Q885.293 1565.42 885.293 1558.13 L885.293 1556.47 L877.88 1556.47 M892.747 1553.39 L892.747 1579.28 L885.293 1579.28 L885.293 1572.39 Q882.741 1576.52 878.933 1578.51 Q875.125 1580.45 869.616 1580.45 Q862.649 1580.45 858.517 1576.56 Q854.425 1572.63 854.425 1566.07 Q854.425 1558.41 859.53 1554.52 Q864.674 1550.64 874.842 1550.64 L885.293 1550.64 L885.293 1549.91 Q885.293 1544.76 881.891 1541.97 Q878.528 1539.13 872.411 1539.13 Q868.523 1539.13 864.836 1540.06 Q861.15 1540.99 857.747 1542.86 L857.747 1535.97 Q861.839 1534.39 865.687 1533.62 Q869.535 1532.81 873.181 1532.81 Q883.025 1532.81 887.886 1537.92 Q892.747 1543.02 892.747 1553.39 Z" fill="#000000" fill-rule="evenodd" fill-opacity="1" /><path clip-path="url(#clip240)" d="M907.33 1561.37 L907.33 1533.91 L914.784 1533.91 L914.784 1561.09 Q914.784 1567.53 917.295 1570.77 Q919.807 1573.97 924.83 1573.97 Q930.866 1573.97 934.35 1570.12 Q937.874 1566.27 937.874 1559.63 L937.874 1533.91 L945.328 1533.91 L945.328 1579.28 L937.874 1579.28 L937.874 1572.31 Q935.16 1576.44 931.555 1578.47 Q927.99 1580.45 923.25 1580.45 Q915.432 1580.45 911.381 1575.59 Q907.33 1570.73 907.33 1561.37 M926.086 1532.81 L926.086 1532.81 Z" fill="#000000" fill-rule="evenodd" fill-opacity="1" /><path clip-path="url(#clip240)" d="M990.536 1556.06 Q990.536 1547.96 987.174 1543.51 Q983.852 1539.05 977.816 1539.05 Q971.821 1539.05 968.458 1543.51 Q965.137 1547.96 965.137 1556.06 Q965.137 1564.13 968.458 1568.58 Q971.821 1573.04 977.816 1573.04 Q983.852 1573.04 987.174 1568.58 Q990.536 1564.13 990.536 1556.06 M997.989 1573.65 Q997.989 1585.23 992.845 1590.86 Q987.7 1596.53 977.087 1596.53 Q973.157 1596.53 969.674 1595.93 Q966.19 1595.36 962.909 1594.14 L962.909 1586.89 Q966.19 1588.67 969.39 1589.52 Q972.59 1590.38 975.912 1590.38 Q983.244 1590.38 986.89 1586.53 Q990.536 1582.72 990.536 1574.98 L990.536 1571.3 Q988.227 1575.31 984.621 1577.29 Q981.016 1579.28 975.993 1579.28 Q967.648 1579.28 962.544 1572.92 Q957.44 1566.56 957.44 1556.06 Q957.44 1545.53 962.544 1539.17 Q967.648 1532.81 975.993 1532.81 Q981.016 1532.81 984.621 1534.8 Q988.227 1536.78 990.536 1540.79 L990.536 1533.91 L997.989 1533.91 L997.989 1573.65 Z" fill="#000000" fill-rule="evenodd" fill-opacity="1" /><path clip-path="url(#clip240)" d="M1052.15 1554.73 L1052.15 1558.37 L1017.88 1558.37 Q1018.37 1566.07 1022.5 1570.12 Q1026.67 1574.13 1034.08 1574.13 Q1038.38 1574.13 1042.39 1573.08 Q1046.44 1572.02 1050.41 1569.92 L1050.41 1576.97 Q1046.4 1578.67 1042.18 1579.56 Q1037.97 1580.45 1033.64 1580.45 Q1022.78 1580.45 1016.42 1574.13 Q1010.1 1567.81 1010.1 1557.04 Q1010.1 1545.9 1016.1 1539.37 Q1022.13 1532.81 1032.34 1532.81 Q1041.5 1532.81 1046.8 1538.73 Q1052.15 1544.6 1052.15 1554.73 M1044.7 1552.54 Q1044.62 1546.42 1041.25 1542.78 Q1037.93 1539.13 1032.42 1539.13 Q1026.18 1539.13 1022.42 1542.66 Q1018.69 1546.18 1018.12 1552.58 L1044.7 1552.54 Z" fill="#000000" fill-rule="evenodd" fill-opacity="1" /><path clip-path="url(#clip240)" d="M1085.69 1518.8 L1093.96 1518.8 L1106.68 1569.92 L1119.35 1518.8 L1128.55 1518.8 L1141.27 1569.92 L1153.95 1518.8 L1162.25 1518.8 L1147.06 1579.28 L1136.77 1579.28 L1124.01 1526.78 L1111.13 1579.28 L1100.84 1579.28 L1085.69 1518.8 Z" fill="#000000" fill-rule="evenodd" fill-opacity="1" /><path clip-path="url(#clip240)" d="M1206.73 1554.73 L1206.73 1558.37 L1172.46 1558.37 Q1172.95 1566.07 1177.08 1570.12 Q1181.25 1574.13 1188.67 1574.13 Q1192.96 1574.13 1196.97 1573.08 Q1201.02 1572.02 1204.99 1569.92 L1204.99 1576.97 Q1200.98 1578.67 1196.77 1579.56 Q1192.55 1580.45 1188.22 1580.45 Q1177.36 1580.45 1171 1574.13 Q1164.68 1567.81 1164.68 1557.04 Q1164.68 1545.9 1170.68 1539.37 Q1176.72 1532.81 1186.92 1532.81 Q1196.08 1532.81 1201.39 1538.73 Q1206.73 1544.6 1206.73 1554.73 M1199.28 1552.54 Q1199.2 1546.42 1195.84 1542.78 Q1192.51 1539.13 1187 1539.13 Q1180.77 1539.13 1177 1542.66 Q1173.27 1546.18 1172.7 1552.58 L1199.28 1552.54 Z" fill="#000000" fill-rule="evenodd" fill-opacity="1" /><path clip-path="url(#clip240)" d="M1239.59 1556.47 Q1230.55 1556.47 1227.07 1558.54 Q1223.58 1560.6 1223.58 1565.58 Q1223.58 1569.55 1226.18 1571.9 Q1228.81 1574.21 1233.31 1574.21 Q1239.5 1574.21 1243.23 1569.84 Q1247 1565.42 1247 1558.13 L1247 1556.47 L1239.59 1556.47 M1254.45 1553.39 L1254.45 1579.28 L1247 1579.28 L1247 1572.39 Q1244.45 1576.52 1240.64 1578.51 Q1236.83 1580.45 1231.32 1580.45 Q1224.35 1580.45 1220.22 1576.56 Q1216.13 1572.63 1216.13 1566.07 Q1216.13 1558.41 1221.23 1554.52 Q1226.38 1550.64 1236.55 1550.64 L1247 1550.64 L1247 1549.91 Q1247 1544.76 1243.6 1541.97 Q1240.23 1539.13 1234.12 1539.13 Q1230.23 1539.13 1226.54 1540.06 Q1222.86 1540.99 1219.45 1542.86 L1219.45 1535.97 Q1223.54 1534.39 1227.39 1533.62 Q1231.24 1532.81 1234.89 1532.81 Q1244.73 1532.81 1249.59 1537.92 Q1254.45 1543.02 1254.45 1553.39 Z" fill="#000000" fill-rule="evenodd" fill-opacity="1" /><path clip-path="url(#clip240)" d="M1277.18 1521.02 L1277.18 1533.91 L1292.53 1533.91 L1292.53 1539.7 L1277.18 1539.7 L1277.18 1564.33 Q1277.18 1569.88 1278.68 1571.46 Q1280.22 1573.04 1284.87 1573.04 L1292.53 1573.04 L1292.53 1579.28 L1284.87 1579.28 Q1276.25 1579.28 1272.96 1576.08 Q1269.68 1572.83 1269.68 1564.33 L1269.68 1539.7 L1264.21 1539.7 L1264.21 1533.91 L1269.68 1533.91 L1269.68 1521.02 L1277.18 1521.02 Z" fill="#000000" fill-rule="evenodd" fill-opacity="1" /><path clip-path="url(#clip240)" d="M1340.05 1551.89 L1340.05 1579.28 L1332.59 1579.28 L1332.59 1552.13 Q1332.59 1545.69 1330.08 1542.49 Q1327.57 1539.29 1322.55 1539.29 Q1316.51 1539.29 1313.03 1543.14 Q1309.54 1546.99 1309.54 1553.63 L1309.54 1579.28 L1302.05 1579.28 L1302.05 1516.24 L1309.54 1516.24 L1309.54 1540.95 Q1312.22 1536.86 1315.82 1534.84 Q1319.47 1532.81 1324.21 1532.81 Q1332.03 1532.81 1336.04 1537.67 Q1340.05 1542.49 1340.05 1551.89 Z" fill="#000000" fill-rule="evenodd" fill-opacity="1" /><path clip-path="url(#clip240)" d="M1393.72 1554.73 L1393.72 1558.37 L1359.45 1558.37 Q1359.94 1566.07 1364.07 1570.12 Q1368.24 1574.13 1375.66 1574.13 Q1379.95 1574.13 1383.96 1573.08 Q1388.01 1572.02 1391.98 1569.92 L1391.98 1576.97 Q1387.97 1578.67 1383.76 1579.56 Q1379.54 1580.45 1375.21 1580.45 Q1364.35 1580.45 1357.99 1574.13 Q1351.67 1567.81 1351.67 1557.04 Q1351.67 1545.9 1357.67 1539.37 Q1363.71 1532.81 1373.91 1532.81 Q1383.07 1532.81 1388.38 1538.73 Q1393.72 1544.6 1393.72 1554.73 M1386.27 1552.54 Q1386.19 1546.42 1382.83 1542.78 Q1379.5 1539.13 1373.99 1539.13 Q1367.76 1539.13 1363.99 1542.66 Q1360.26 1546.18 1359.69 1552.58 L1386.27 1552.54 Z" fill="#000000" fill-rule="evenodd" fill-opacity="1" /><path clip-path="url(#clip240)" d="M1432.25 1540.87 Q1430.99 1540.14 1429.49 1539.82 Q1428.03 1539.46 1426.25 1539.46 Q1419.93 1539.46 1416.53 1543.59 Q1413.17 1547.68 1413.17 1555.38 L1413.17 1579.28 L1405.67 1579.28 L1405.67 1533.91 L1413.17 1533.91 L1413.17 1540.95 Q1415.52 1536.82 1419.28 1534.84 Q1423.05 1532.81 1428.44 1532.81 Q1429.21 1532.81 1430.14 1532.93 Q1431.07 1533.01 1432.21 1533.22 L1432.25 1540.87 Z" fill="#000000" fill-rule="evenodd" fill-opacity="1" /><path clip-path="url(#clip240)" d="M1482.36 1579.28 L1459.27 1518.8 L1467.81 1518.8 L1486.97 1569.72 L1506.18 1518.8 L1514.68 1518.8 L1491.63 1579.28 L1482.36 1579.28 Z" fill="#000000" fill-rule="evenodd" fill-opacity="1" /><path clip-path="url(#clip240)" d="M1537.37 1556.47 Q1528.33 1556.47 1524.85 1558.54 Q1521.37 1560.6 1521.37 1565.58 Q1521.37 1569.55 1523.96 1571.9 Q1526.59 1574.21 1531.09 1574.21 Q1537.29 1574.21 1541.01 1569.84 Q1544.78 1565.42 1544.78 1558.13 L1544.78 1556.47 L1537.37 1556.47 M1552.23 1553.39 L1552.23 1579.28 L1544.78 1579.28 L1544.78 1572.39 Q1542.23 1576.52 1538.42 1578.51 Q1534.61 1580.45 1529.1 1580.45 Q1522.14 1580.45 1518 1576.56 Q1513.91 1572.63 1513.91 1566.07 Q1513.91 1558.41 1519.02 1554.52 Q1524.16 1550.64 1534.33 1550.64 L1544.78 1550.64 L1544.78 1549.91 Q1544.78 1544.76 1541.38 1541.97 Q1538.02 1539.13 1531.9 1539.13 Q1528.01 1539.13 1524.32 1540.06 Q1520.64 1540.99 1517.23 1542.86 L1517.23 1535.97 Q1521.33 1534.39 1525.17 1533.62 Q1529.02 1532.81 1532.67 1532.81 Q1542.51 1532.81 1547.37 1537.92 Q1552.23 1543.02 1552.23 1553.39 Z" fill="#000000" fill-rule="evenodd" fill-opacity="1" /><path clip-path="url(#clip240)" d="M1593.88 1540.87 Q1592.62 1540.14 1591.12 1539.82 Q1589.66 1539.46 1587.88 1539.46 Q1581.56 1539.46 1578.16 1543.59 Q1574.8 1547.68 1574.8 1555.38 L1574.8 1579.28 L1567.3 1579.28 L1567.3 1533.91 L1574.8 1533.91 L1574.8 1540.95 Q1577.15 1536.82 1580.91 1534.84 Q1584.68 1532.81 1590.07 1532.81 Q1590.84 1532.81 1591.77 1532.93 Q1592.7 1533.01 1593.84 1533.22 L1593.88 1540.87 Z" fill="#000000" fill-rule="evenodd" fill-opacity="1" /><path clip-path="url(#clip240)" d="M1601.7 1533.91 L1609.15 1533.91 L1609.15 1579.28 L1601.7 1579.28 L1601.7 1533.91 M1601.7 1516.24 L1609.15 1516.24 L1609.15 1525.68 L1601.7 1525.68 L1601.7 1516.24 Z" fill="#000000" fill-rule="evenodd" fill-opacity="1" /><path clip-path="url(#clip240)" d="M1645.36 1556.47 Q1636.33 1556.47 1632.85 1558.54 Q1629.36 1560.6 1629.36 1565.58 Q1629.36 1569.55 1631.96 1571.9 Q1634.59 1574.21 1639.09 1574.21 Q1645.28 1574.21 1649.01 1569.84 Q1652.78 1565.42 1652.78 1558.13 L1652.78 1556.47 L1645.36 1556.47 M1660.23 1553.39 L1660.23 1579.28 L1652.78 1579.28 L1652.78 1572.39 Q1650.23 1576.52 1646.42 1578.51 Q1642.61 1580.45 1637.1 1580.45 Q1630.13 1580.45 1626 1576.56 Q1621.91 1572.63 1621.91 1566.07 Q1621.91 1558.41 1627.01 1554.52 Q1632.16 1550.64 1642.33 1550.64 L1652.78 1550.64 L1652.78 1549.91 Q1652.78 1544.76 1649.37 1541.97 Q1646.01 1539.13 1639.9 1539.13 Q1636.01 1539.13 1632.32 1540.06 Q1628.63 1540.99 1625.23 1542.86 L1625.23 1535.97 Q1629.32 1534.39 1633.17 1533.62 Q1637.02 1532.81 1640.67 1532.81 Q1650.51 1532.81 1655.37 1537.92 Q1660.23 1543.02 1660.23 1553.39 Z" fill="#000000" fill-rule="evenodd" fill-opacity="1" /><path clip-path="url(#clip240)" d="M1708.15 1556.63 Q1708.15 1548.41 1704.75 1543.75 Q1701.39 1539.05 1695.47 1539.05 Q1689.56 1539.05 1686.16 1543.75 Q1682.79 1548.41 1682.79 1556.63 Q1682.79 1564.85 1686.16 1569.55 Q1689.56 1574.21 1695.47 1574.21 Q1701.39 1574.21 1704.75 1569.55 Q1708.15 1564.85 1708.15 1556.63 M1682.79 1540.79 Q1685.14 1536.74 1688.71 1534.8 Q1692.31 1532.81 1697.3 1532.81 Q1705.56 1532.81 1710.71 1539.37 Q1715.89 1545.94 1715.89 1556.63 Q1715.89 1567.33 1710.71 1573.89 Q1705.56 1580.45 1697.3 1580.45 Q1692.31 1580.45 1688.71 1578.51 Q1685.14 1576.52 1682.79 1572.47 L1682.79 1579.28 L1675.3 1579.28 L1675.3 1516.24 L1682.79 1516.24 L1682.79 1540.79 Z" fill="#000000" fill-rule="evenodd" fill-opacity="1" /><path clip-path="url(#clip240)" d="M1728.25 1533.91 L1735.7 1533.91 L1735.7 1579.28 L1728.25 1579.28 L1728.25 1533.91 M1728.25 1516.24 L1735.7 1516.24 L1735.7 1525.68 L1728.25 1525.68 L1728.25 1516.24 Z" fill="#000000" fill-rule="evenodd" fill-opacity="1" /><path clip-path="url(#clip240)" d="M1751.3 1516.24 L1758.75 1516.24 L1758.75 1579.28 L1751.3 1579.28 L1751.3 1516.24 Z" fill="#000000" fill-rule="evenodd" fill-opacity="1" /><path clip-path="url(#clip240)" d="M1774.35 1533.91 L1781.8 1533.91 L1781.8 1579.28 L1774.35 1579.28 L1774.35 1533.91 M1774.35 1516.24 L1781.8 1516.24 L1781.8 1525.68 L1774.35 1525.68 L1774.35 1516.24 Z" fill="#000000" fill-rule="evenodd" fill-opacity="1" /><path clip-path="url(#clip240)" d="M1804.77 1521.02 L1804.77 1533.91 L1820.12 1533.91 L1820.12 1539.7 L1804.77 1539.7 L1804.77 1564.33 Q1804.77 1569.88 1806.27 1571.46 Q1807.81 1573.04 1812.46 1573.04 L1820.12 1573.04 L1820.12 1579.28 L1812.46 1579.28 Q1803.84 1579.28 1800.55 1576.08 Q1797.27 1572.83 1797.27 1564.33 L1797.27 1539.7 L1791.8 1539.7 L1791.8 1533.91 L1797.27 1533.91 L1797.27 1521.02 L1804.77 1521.02 Z" fill="#000000" fill-rule="evenodd" fill-opacity="1" /><path clip-path="url(#clip240)" d="M1848.8 1583.49 Q1845.64 1591.59 1842.64 1594.06 Q1839.65 1596.53 1834.62 1596.53 L1828.67 1596.53 L1828.67 1590.29 L1833.04 1590.29 Q1836.12 1590.29 1837.82 1588.84 Q1839.52 1587.38 1841.59 1581.95 L1842.93 1578.55 L1824.58 1533.91 L1832.48 1533.91 L1846.65 1569.39 L1860.83 1533.91 L1868.73 1533.91 L1848.8 1583.49 Z" fill="#000000" fill-rule="evenodd" fill-opacity="1" /><path clip-path="url(#clip240)" d="M1923.3 1516.32 Q1917.87 1525.64 1915.24 1534.76 Q1912.6 1543.87 1912.6 1553.23 Q1912.6 1562.59 1915.24 1571.78 Q1917.91 1580.94 1923.3 1590.21 L1916.82 1590.21 Q1910.74 1580.69 1907.7 1571.5 Q1904.7 1562.3 1904.7 1553.23 Q1904.7 1544.2 1907.7 1535.04 Q1910.7 1525.88 1916.82 1516.32 L1923.3 1516.32 Z" fill="#000000" fill-rule="evenodd" fill-opacity="1" /><path clip-path="url(#clip240)" d="M1973.08 1542.62 Q1975.88 1537.59 1979.77 1535.2 Q1983.66 1532.81 1988.92 1532.81 Q1996.01 1532.81 1999.86 1537.79 Q2003.71 1542.74 2003.71 1551.89 L2003.71 1579.28 L1996.21 1579.28 L1996.21 1552.13 Q1996.21 1545.61 1993.9 1542.45 Q1991.6 1539.29 1986.86 1539.29 Q1981.06 1539.29 1977.7 1543.14 Q1974.34 1546.99 1974.34 1553.63 L1974.34 1579.28 L1966.84 1579.28 L1966.84 1552.13 Q1966.84 1545.57 1964.54 1542.45 Q1962.23 1539.29 1957.41 1539.29 Q1951.69 1539.29 1948.33 1543.18 Q1944.97 1547.03 1944.97 1553.63 L1944.97 1579.28 L1937.48 1579.28 L1937.48 1533.91 L1944.97 1533.91 L1944.97 1540.95 Q1947.52 1536.78 1951.09 1534.8 Q1954.65 1532.81 1959.55 1532.81 Q1964.49 1532.81 1967.94 1535.32 Q1971.42 1537.84 1973.08 1542.62 Z" fill="#000000" fill-rule="evenodd" fill-opacity="1" /><path clip-path="url(#clip240)" d="M2017.4 1516.32 L2023.88 1516.32 Q2029.96 1525.88 2032.95 1535.04 Q2035.99 1544.2 2035.99 1553.23 Q2035.99 1562.3 2032.95 1571.5 Q2029.96 1580.69 2023.88 1590.21 L2017.4 1590.21 Q2022.79 1580.94 2025.42 1571.78 Q2028.09 1562.59 2028.09 1553.23 Q2028.09 1543.87 2025.42 1534.76 Q2022.79 1525.64 2017.4 1516.32 Z" fill="#000000" fill-rule="evenodd" fill-opacity="1" /><polyline clip-path="url(#clip242)" style="stroke:#000000; stroke-linecap:round; stroke-linejoin:round; stroke-width:2; stroke-opacity:0.1; fill:none" points="
  266.9,1354.85 2352.76,1354.85 
  "/>
<polyline clip-path="url(#clip242)" style="stroke:#000000; stroke-linecap:round; stroke-linejoin:round; stroke-width:2; stroke-opacity:0.1; fill:none" points="
  266.9,1135.12 2352.76,1135.12 
  "/>
<polyline clip-path="url(#clip242)" style="stroke:#000000; stroke-linecap:round; stroke-linejoin:round; stroke-width:2; stroke-opacity:0.1; fill:none" points="
  266.9,915.39 2352.76,915.39 
  "/>
<polyline clip-path="url(#clip242)" style="stroke:#000000; stroke-linecap:round; stroke-linejoin:round; stroke-width:2; stroke-opacity:0.1; fill:none" points="
  266.9,695.658 2352.76,695.658 
  "/>
<polyline clip-path="url(#clip242)" style="stroke:#000000; stroke-linecap:round; stroke-linejoin:round; stroke-width:2; stroke-opacity:0.1; fill:none" points="
  266.9,475.925 2352.76,475.925 
  "/>
<polyline clip-path="url(#clip242)" style="stroke:#000000; stroke-linecap:round; stroke-linejoin:round; stroke-width:2; stroke-opacity:0.1; fill:none" points="
  266.9,256.193 2352.76,256.193 
  "/>
<polyline clip-path="url(#clip240)" style="stroke:#000000; stroke-linecap:round; stroke-linejoin:round; stroke-width:4; stroke-opacity:1; fill:none" points="
  266.9,1392.94 266.9,47.2441 
  "/>
<polyline clip-path="url(#clip240)" style="stroke:#000000; stroke-linecap:round; stroke-linejoin:round; stroke-width:4; stroke-opacity:1; fill:none" points="
  266.9,1354.85 285.798,1354.85 
  "/>
<polyline clip-path="url(#clip240)" style="stroke:#000000; stroke-linecap:round; stroke-linejoin:round; stroke-width:4; stroke-opacity:1; fill:none" points="
  266.9,1135.12 285.798,1135.12 
  "/>
<polyline clip-path="url(#clip240)" style="stroke:#000000; stroke-linecap:round; stroke-linejoin:round; stroke-width:4; stroke-opacity:1; fill:none" points="
  266.9,915.39 285.798,915.39 
  "/>
<polyline clip-path="url(#clip240)" style="stroke:#000000; stroke-linecap:round; stroke-linejoin:round; stroke-width:4; stroke-opacity:1; fill:none" points="
  266.9,695.658 285.798,695.658 
  "/>
<polyline clip-path="url(#clip240)" style="stroke:#000000; stroke-linecap:round; stroke-linejoin:round; stroke-width:4; stroke-opacity:1; fill:none" points="
  266.9,475.925 285.798,475.925 
  "/>
<polyline clip-path="url(#clip240)" style="stroke:#000000; stroke-linecap:round; stroke-linejoin:round; stroke-width:4; stroke-opacity:1; fill:none" points="
  266.9,256.193 285.798,256.193 
  "/>
<path clip-path="url(#clip240)" d="M145.137 1333.55 Q139.72 1333.55 136.977 1338.9 Q134.269 1344.21 134.269 1354.91 Q134.269 1365.57 136.977 1370.91 Q139.72 1376.23 145.137 1376.23 Q150.588 1376.23 153.296 1370.91 Q156.039 1365.57 156.039 1354.91 Q156.039 1344.21 153.296 1338.9 Q150.588 1333.55 145.137 1333.55 M145.137 1328 Q153.852 1328 158.435 1334.91 Q163.053 1341.78 163.053 1354.91 Q163.053 1368 158.435 1374.91 Q153.852 1381.78 145.137 1381.78 Q136.421 1381.78 131.803 1374.91 Q127.22 1368 127.22 1354.91 Q127.22 1341.78 131.803 1334.91 Q136.421 1328 145.137 1328 Z" fill="#000000" fill-rule="evenodd" fill-opacity="1" /><path clip-path="url(#clip240)" d="M175.38 1371.95 L182.706 1371.95 L182.706 1380.77 L175.38 1380.77 L175.38 1371.95 Z" fill="#000000" fill-rule="evenodd" fill-opacity="1" /><path clip-path="url(#clip240)" d="M212.984 1333.55 Q207.567 1333.55 204.824 1338.9 Q202.116 1344.21 202.116 1354.91 Q202.116 1365.57 204.824 1370.91 Q207.567 1376.23 212.984 1376.23 Q218.435 1376.23 221.143 1370.91 Q223.886 1365.57 223.886 1354.91 Q223.886 1344.21 221.143 1338.9 Q218.435 1333.55 212.984 1333.55 M212.984 1328 Q221.699 1328 226.282 1334.91 Q230.9 1341.78 230.9 1354.91 Q230.9 1368 226.282 1374.91 Q221.699 1381.78 212.984 1381.78 Q204.268 1381.78 199.65 1374.91 Q195.067 1368 195.067 1354.91 Q195.067 1341.78 199.65 1334.91 Q204.268 1328 212.984 1328 Z" fill="#000000" fill-rule="evenodd" fill-opacity="1" /><path clip-path="url(#clip240)" d="M146.63 1113.82 Q141.213 1113.82 138.47 1119.17 Q135.762 1124.48 135.762 1135.17 Q135.762 1145.83 138.47 1151.18 Q141.213 1156.49 146.63 1156.49 Q152.081 1156.49 154.789 1151.18 Q157.532 1145.83 157.532 1135.17 Q157.532 1124.48 154.789 1119.17 Q152.081 1113.82 146.63 1113.82 M146.63 1108.26 Q155.345 1108.26 159.928 1115.17 Q164.546 1122.05 164.546 1135.17 Q164.546 1148.26 159.928 1155.17 Q155.345 1162.05 146.63 1162.05 Q137.915 1162.05 133.297 1155.17 Q128.713 1148.26 128.713 1135.17 Q128.713 1122.05 133.297 1115.17 Q137.915 1108.26 146.63 1108.26 Z" fill="#000000" fill-rule="evenodd" fill-opacity="1" /><path clip-path="url(#clip240)" d="M176.873 1152.22 L184.199 1152.22 L184.199 1161.04 L176.873 1161.04 L176.873 1152.22 Z" fill="#000000" fill-rule="evenodd" fill-opacity="1" /><path clip-path="url(#clip240)" d="M199.546 1109.2 L227.081 1109.2 L227.081 1115.1 L205.97 1115.1 L205.97 1127.81 Q207.498 1127.29 209.025 1127.05 Q210.553 1126.77 212.081 1126.77 Q220.761 1126.77 225.831 1131.53 Q230.9 1136.29 230.9 1144.41 Q230.9 1152.78 225.692 1157.43 Q220.484 1162.05 211.004 1162.05 Q207.741 1162.05 204.338 1161.49 Q200.97 1160.94 197.359 1159.83 L197.359 1152.78 Q200.484 1154.48 203.817 1155.31 Q207.15 1156.15 210.866 1156.15 Q216.872 1156.15 220.379 1152.99 Q223.886 1149.83 223.886 1144.41 Q223.886 1138.99 220.379 1135.83 Q216.872 1132.67 210.866 1132.67 Q208.053 1132.67 205.241 1133.3 Q202.463 1133.92 199.546 1135.24 L199.546 1109.2 Z" fill="#000000" fill-rule="evenodd" fill-opacity="1" /><path clip-path="url(#clip240)" d="M131.352 935.407 L142.81 935.407 L142.81 895.859 L130.345 898.359 L130.345 891.97 L142.741 889.47 L149.755 889.47 L149.755 935.407 L161.213 935.407 L161.213 941.31 L131.352 941.31 L131.352 935.407 Z" fill="#000000" fill-rule="evenodd" fill-opacity="1" /><path clip-path="url(#clip240)" d="M175.38 932.49 L182.706 932.49 L182.706 941.31 L175.38 941.31 L175.38 932.49 Z" fill="#000000" fill-rule="evenodd" fill-opacity="1" /><path clip-path="url(#clip240)" d="M212.984 894.088 Q207.567 894.088 204.824 899.435 Q202.116 904.747 202.116 915.442 Q202.116 926.101 204.824 931.449 Q207.567 936.761 212.984 936.761 Q218.435 936.761 221.143 931.449 Q223.886 926.101 223.886 915.442 Q223.886 904.747 221.143 899.435 Q218.435 894.088 212.984 894.088 M212.984 888.532 Q221.699 888.532 226.282 895.442 Q230.9 902.317 230.9 915.442 Q230.9 928.532 226.282 935.442 Q221.699 942.317 212.984 942.317 Q204.268 942.317 199.65 935.442 Q195.067 928.532 195.067 915.442 Q195.067 902.317 199.65 895.442 Q204.268 888.532 212.984 888.532 Z" fill="#000000" fill-rule="evenodd" fill-opacity="1" /><path clip-path="url(#clip240)" d="M132.845 715.675 L144.303 715.675 L144.303 676.126 L131.838 678.626 L131.838 672.237 L144.234 669.738 L151.248 669.738 L151.248 715.675 L162.706 715.675 L162.706 721.578 L132.845 721.578 L132.845 715.675 Z" fill="#000000" fill-rule="evenodd" fill-opacity="1" /><path clip-path="url(#clip240)" d="M176.873 712.758 L184.199 712.758 L184.199 721.578 L176.873 721.578 L176.873 712.758 Z" fill="#000000" fill-rule="evenodd" fill-opacity="1" /><path clip-path="url(#clip240)" d="M199.546 669.738 L227.081 669.738 L227.081 675.64 L205.97 675.64 L205.97 688.349 Q207.498 687.828 209.025 687.585 Q210.553 687.307 212.081 687.307 Q220.761 687.307 225.831 692.064 Q230.9 696.821 230.9 704.946 Q230.9 713.314 225.692 717.966 Q220.484 722.584 211.004 722.584 Q207.741 722.584 204.338 722.029 Q200.97 721.473 197.359 720.362 L197.359 713.314 Q200.484 715.015 203.817 715.848 Q207.15 716.682 210.866 716.682 Q216.872 716.682 220.379 713.522 Q223.886 710.362 223.886 704.946 Q223.886 699.529 220.379 696.369 Q216.872 693.21 210.866 693.21 Q208.053 693.21 205.241 693.835 Q202.463 694.46 199.546 695.779 L199.546 669.738 Z" fill="#000000" fill-rule="evenodd" fill-opacity="1" /><path clip-path="url(#clip240)" d="M136.178 495.943 L160.657 495.943 L160.657 501.845 L127.741 501.845 L127.741 495.943 Q131.734 491.811 138.609 484.866 Q145.519 477.887 147.289 475.873 Q150.658 472.089 151.977 469.484 Q153.331 466.845 153.331 464.311 Q153.331 460.179 150.414 457.575 Q147.533 454.971 142.88 454.971 Q139.581 454.971 135.901 456.116 Q132.255 457.262 128.088 459.589 L128.088 452.505 Q132.324 450.804 136.005 449.936 Q139.685 449.068 142.741 449.068 Q150.796 449.068 155.588 453.096 Q160.38 457.123 160.38 463.859 Q160.38 467.054 159.164 469.936 Q157.984 472.783 154.824 476.672 Q153.956 477.679 149.303 482.505 Q144.651 487.297 136.178 495.943 Z" fill="#000000" fill-rule="evenodd" fill-opacity="1" /><path clip-path="url(#clip240)" d="M175.38 493.026 L182.706 493.026 L182.706 501.845 L175.38 501.845 L175.38 493.026 Z" fill="#000000" fill-rule="evenodd" fill-opacity="1" /><path clip-path="url(#clip240)" d="M212.984 454.623 Q207.567 454.623 204.824 459.971 Q202.116 465.283 202.116 475.977 Q202.116 486.637 204.824 491.984 Q207.567 497.297 212.984 497.297 Q218.435 497.297 221.143 491.984 Q223.886 486.637 223.886 475.977 Q223.886 465.283 221.143 459.971 Q218.435 454.623 212.984 454.623 M212.984 449.068 Q221.699 449.068 226.282 455.977 Q230.9 462.852 230.9 475.977 Q230.9 489.068 226.282 495.977 Q221.699 502.852 212.984 502.852 Q204.268 502.852 199.65 495.977 Q195.067 489.068 195.067 475.977 Q195.067 462.852 199.65 455.977 Q204.268 449.068 212.984 449.068 Z" fill="#000000" fill-rule="evenodd" fill-opacity="1" /><path clip-path="url(#clip240)" d="M137.671 276.21 L162.151 276.21 L162.151 282.113 L129.234 282.113 L129.234 276.21 Q133.227 272.078 140.102 265.134 Q147.012 258.155 148.783 256.141 Q152.151 252.356 153.47 249.752 Q154.824 247.113 154.824 244.579 Q154.824 240.447 151.908 237.843 Q149.026 235.238 144.373 235.238 Q141.074 235.238 137.394 236.384 Q133.748 237.53 129.581 239.856 L129.581 232.773 Q133.817 231.072 137.498 230.204 Q141.178 229.336 144.234 229.336 Q152.289 229.336 157.081 233.363 Q161.873 237.391 161.873 244.127 Q161.873 247.322 160.657 250.204 Q159.477 253.051 156.317 256.94 Q155.449 257.947 150.796 262.773 Q146.144 267.565 137.671 276.21 Z" fill="#000000" fill-rule="evenodd" fill-opacity="1" /><path clip-path="url(#clip240)" d="M176.873 273.294 L184.199 273.294 L184.199 282.113 L176.873 282.113 L176.873 273.294 Z" fill="#000000" fill-rule="evenodd" fill-opacity="1" /><path clip-path="url(#clip240)" d="M199.546 230.273 L227.081 230.273 L227.081 236.176 L205.97 236.176 L205.97 248.884 Q207.498 248.363 209.025 248.12 Q210.553 247.842 212.081 247.842 Q220.761 247.842 225.831 252.599 Q230.9 257.356 230.9 265.481 Q230.9 273.849 225.692 278.502 Q220.484 283.12 211.004 283.12 Q207.741 283.12 204.338 282.564 Q200.97 282.009 197.359 280.898 L197.359 273.849 Q200.484 275.551 203.817 276.384 Q207.15 277.217 210.866 277.217 Q216.872 277.217 220.379 274.058 Q223.886 270.898 223.886 265.481 Q223.886 260.065 220.379 256.905 Q216.872 253.745 210.866 253.745 Q208.053 253.745 205.241 254.37 Q202.463 254.995 199.546 256.315 L199.546 230.273 Z" fill="#000000" fill-rule="evenodd" fill-opacity="1" /><path clip-path="url(#clip240)" d="M19.3207 864.304 L66.3517 864.304 L66.3517 854.42 Q66.3517 841.903 60.6804 836.11 Q55.0091 830.277 42.7754 830.277 Q30.6227 830.277 24.9919 836.11 Q19.3207 841.903 19.3207 854.42 L19.3207 864.304 M12.5962 872.487 L12.5962 855.676 Q12.5962 838.095 19.9283 829.871 Q27.2199 821.648 42.7754 821.648 Q58.4119 821.648 65.744 829.912 Q73.0762 838.176 73.0762 855.676 L73.0762 872.487 L12.5962 872.487 Z" fill="#000000" fill-rule="evenodd" fill-opacity="1" /><path clip-path="url(#clip240)" d="M48.5277 770.121 L52.1735 770.121 L52.1735 804.391 Q59.8702 803.905 63.9211 799.773 Q67.9315 795.601 67.9315 788.188 Q67.9315 783.894 66.8783 779.883 Q65.825 775.832 63.7186 771.863 L70.7671 771.863 Q72.4685 775.873 73.3597 780.086 Q74.2509 784.299 74.2509 788.633 Q74.2509 799.49 67.9315 805.85 Q61.6121 812.169 50.8367 812.169 Q39.6967 812.169 33.1748 806.174 Q26.6123 800.138 26.6123 789.93 Q26.6123 780.775 32.5266 775.468 Q38.4004 770.121 48.5277 770.121 M46.3402 777.574 Q40.2233 777.655 36.5775 781.018 Q32.9317 784.339 32.9317 789.849 Q32.9317 796.087 36.456 799.854 Q39.9803 803.581 46.3807 804.148 L46.3402 777.574 Z" fill="#000000" fill-rule="evenodd" fill-opacity="1" /><path clip-path="url(#clip240)" d="M45.692 720.173 L73.0762 720.173 L73.0762 727.627 L45.9351 727.627 Q39.4942 727.627 36.2939 730.138 Q33.0937 732.65 33.0937 737.673 Q33.0937 743.709 36.9421 747.193 Q40.7905 750.676 47.4339 750.676 L73.0762 750.676 L73.0762 758.17 L27.706 758.17 L27.706 750.676 L34.7546 750.676 Q30.6632 748.003 28.6377 744.397 Q26.6123 740.752 26.6123 736.012 Q26.6123 728.194 31.4734 724.183 Q36.2939 720.173 45.692 720.173 Z" fill="#000000" fill-rule="evenodd" fill-opacity="1" /><path clip-path="url(#clip240)" d="M29.0428 676.383 L36.0914 676.383 Q34.471 679.542 33.6609 682.945 Q32.8507 686.348 32.8507 689.994 Q32.8507 695.543 34.5521 698.339 Q36.2534 701.093 39.6562 701.093 Q42.2488 701.093 43.7476 699.108 Q45.2059 697.123 46.5427 691.128 L47.1099 688.576 Q48.8112 680.636 51.9304 677.314 Q55.0091 673.952 60.5589 673.952 Q66.8783 673.952 70.5646 678.975 Q74.2509 683.958 74.2509 692.708 Q74.2509 696.354 73.5218 700.324 Q72.8331 704.253 71.4153 708.628 L63.7186 708.628 Q65.8655 704.496 66.9593 700.486 Q68.0125 696.475 68.0125 692.546 Q68.0125 687.28 66.2301 684.444 Q64.4072 681.608 61.126 681.608 Q58.0878 681.608 56.4675 683.674 Q54.8471 685.7 53.3483 692.627 L52.7406 695.219 Q51.2823 702.146 48.2846 705.225 Q45.2464 708.304 39.9803 708.304 Q33.5798 708.304 30.0961 703.767 Q26.6123 699.23 26.6123 690.885 Q26.6123 686.753 27.2199 683.107 Q27.8276 679.461 29.0428 676.383 Z" fill="#000000" fill-rule="evenodd" fill-opacity="1" /><path clip-path="url(#clip240)" d="M27.706 662.083 L27.706 654.629 L73.0762 654.629 L73.0762 662.083 L27.706 662.083 M10.0441 662.083 L10.0441 654.629 L19.4827 654.629 L19.4827 662.083 L10.0441 662.083 Z" fill="#000000" fill-rule="evenodd" fill-opacity="1" /><path clip-path="url(#clip240)" d="M14.8242 631.661 L27.706 631.661 L27.706 616.308 L33.4988 616.308 L33.4988 631.661 L58.1283 631.661 Q63.6781 631.661 65.2579 630.162 Q66.8378 628.623 66.8378 623.964 L66.8378 616.308 L73.0762 616.308 L73.0762 623.964 Q73.0762 632.592 69.8759 635.874 Q66.6352 639.155 58.1283 639.155 L33.4988 639.155 L33.4988 644.624 L27.706 644.624 L27.706 639.155 L14.8242 639.155 L14.8242 631.661 Z" fill="#000000" fill-rule="evenodd" fill-opacity="1" /><path clip-path="url(#clip240)" d="M77.2891 587.627 Q85.3909 590.787 87.862 593.785 Q90.333 596.782 90.333 601.806 L90.333 607.76 L84.0946 607.76 L84.0946 603.385 Q84.0946 600.307 82.6363 598.605 Q81.178 596.904 75.7498 594.838 L72.347 593.501 L27.706 611.852 L27.706 603.953 L63.192 589.774 L27.706 575.596 L27.706 567.697 L77.2891 587.627 Z" fill="#000000" fill-rule="evenodd" fill-opacity="1" /><polyline clip-path="url(#clip242)" style="stroke:#009af9; stroke-linecap:round; stroke-linejoin:round; stroke-width:12; stroke-opacity:1; fill:none" points="
  31.8275,1354.85 51.214,1354.85 70.6006,1354.85 249.857,1354.85 429.113,1354.85 456.045,1354.85 482.976,1354.85 509.908,1354.85 536.839,1354.63 550.305,1353.98 
  563.77,1352.13 570.503,1350.35 577.236,1347.69 583.969,1343.86 590.702,1338.54 597.435,1331.36 604.168,1321.95 610.9,1309.95 617.633,1295.02 621,1286.35 
  624.366,1276.84 627.732,1266.46 631.099,1255.18 634.465,1242.98 637.832,1229.86 641.198,1215.8 644.565,1200.81 650.257,1173.32 655.95,1143.22 661.642,1110.61 
  667.335,1075.62 673.027,1038.44 678.72,999.294 684.412,958.421 690.105,916.095 701.49,828.25 712.875,738.169 724.26,648.261 735.645,560.786 741.338,518.597 
  747.03,477.739 752.723,438.408 758.415,400.777 764.108,364.994 769.801,331.187 775.493,299.455 781.186,269.88 786.878,242.521 792.571,217.415 798.263,194.584 
  803.956,174.031 809.648,155.743 815.341,139.694 821.033,125.846 826.726,114.15 832.91,103.814 839.093,95.8617 845.277,90.1991 851.461,86.7242 857.644,85.3298 
  863.828,85.9051 870.012,88.3365 876.195,92.5093 882.379,98.3088 888.563,105.621 894.747,114.333 900.93,124.336 907.114,135.521 913.298,147.786 919.481,161.029 
  925.665,175.155 938.032,205.693 950.4,238.717 962.767,273.617 975.135,309.854 999.869,384.52 1024.6,459.697 1047.41,527.59 1070.21,592.931 1081.61,624.397 
  1093.01,654.968 1104.42,684.599 1115.82,713.255 1127.22,740.918 1138.62,767.575 1150.02,793.226 1161.42,817.876 1172.83,841.536 1184.23,864.223 1195.63,885.957 
  1207.03,906.761 1219.25,928.062 1231.48,948.357 1243.7,967.683 1255.93,986.076 1268.15,1003.57 1280.37,1020.21 1292.6,1036.03 1304.82,1051.06 1329.27,1078.92 
  1353.72,1104.05 1378.16,1126.72 1402.61,1147.17 1430.94,1168.38 1459.26,1187.22 1487.59,1203.95 1515.91,1218.84 1544.23,1232.09 1572.56,1243.9 1600.88,1254.43 
  1629.21,1263.84 1679.55,1278.19 1729.9,1290 1780.24,1299.77 1830.58,1307.88 1874.73,1313.87 1918.88,1319 1963.02,1323.39 2007.17,1327.17 2103.43,1333.73 
  2199.7,1338.54 2296.53,1342.15 2393.37,1344.85 2607.5,1348.77 2811.24,1350.92 3023.08,1352.28 3201.4,1353.01 3419.12,1353.59 3618.55,1353.95 3802.75,1354.17 
  3989.34,1354.34 4198.45,1354.47 4387.94,1354.56 4604.89,1354.63 4805.77,1354.68 5003.81,1354.72 5196.09,1354.74 5393.21,1354.76 5609.17,1354.78 5922.89,1354.8 
  5987.25,1354.81 
  "/>
<polyline clip-path="url(#clip242)" style="stroke:#e26f46; stroke-linecap:round; stroke-linejoin:round; stroke-width:4; stroke-opacity:1; fill:none" points="
  1067.87,2738.64 1067.87,-1298.45 
  "/>
<polyline clip-path="url(#clip242)" style="stroke:#e26f46; stroke-linecap:round; stroke-linejoin:round; stroke-width:4; stroke-opacity:1; fill:none" points="
  1345.98,2738.64 1345.98,-1298.45 
  "/>
<polyline clip-path="url(#clip242)" style="stroke:#e26f46; stroke-linecap:round; stroke-linejoin:round; stroke-width:4; stroke-opacity:1; fill:none" points="
  867.627,2738.64 867.627,-1298.45 
  "/>
<polyline clip-path="url(#clip242)" style="stroke:#e26f46; stroke-linecap:round; stroke-linejoin:round; stroke-width:4; stroke-opacity:1; fill:none" points="
  681.29,2738.64 681.29,-1298.45 
  "/>
<polyline clip-path="url(#clip242)" style="stroke:#e26f46; stroke-linecap:round; stroke-linejoin:round; stroke-width:4; stroke-opacity:1; fill:none" points="
  1027.54,2738.64 1027.54,-1298.45 
  "/>
<polyline clip-path="url(#clip242)" style="stroke:#e26f46; stroke-linecap:round; stroke-linejoin:round; stroke-width:4; stroke-opacity:1; fill:none" points="
  855.111,2738.64 855.111,-1298.45 
  "/>
<polyline clip-path="url(#clip242)" style="stroke:#e26f46; stroke-linecap:round; stroke-linejoin:round; stroke-width:4; stroke-opacity:1; fill:none" points="
  760.553,2738.64 760.553,-1298.45 
  "/>
<polyline clip-path="url(#clip242)" style="stroke:#e26f46; stroke-linecap:round; stroke-linejoin:round; stroke-width:4; stroke-opacity:1; fill:none" points="
  895.438,2738.64 895.438,-1298.45 
  "/>
<polyline clip-path="url(#clip242)" style="stroke:#e26f46; stroke-linecap:round; stroke-linejoin:round; stroke-width:4; stroke-opacity:1; fill:none" points="
  1151.3,2738.64 1151.3,-1298.45 
  "/>
<polyline clip-path="url(#clip242)" style="stroke:#e26f46; stroke-linecap:round; stroke-linejoin:round; stroke-width:4; stroke-opacity:1; fill:none" points="
  1867.45,2738.64 1867.45,-1298.45 
  "/>
<polyline clip-path="url(#clip242)" style="stroke:#e26f46; stroke-linecap:round; stroke-linejoin:round; stroke-width:4; stroke-opacity:1; fill:none" points="
  920.468,2738.64 920.468,-1298.45 
  "/>
<polyline clip-path="url(#clip242)" style="stroke:#e26f46; stroke-linecap:round; stroke-linejoin:round; stroke-width:4; stroke-opacity:1; fill:none" points="
  945.499,2738.64 945.499,-1298.45 
  "/>
<path clip-path="url(#clip240)" d="
M1612.04 325.381 L2283.23 325.381 L2283.23 92.1006 L1612.04 92.1006  Z
  " fill="#ffffff" fill-rule="evenodd" fill-opacity="1"/>
<polyline clip-path="url(#clip240)" style="stroke:#000000; stroke-linecap:round; stroke-linejoin:round; stroke-width:4; stroke-opacity:1; fill:none" points="
  1612.04,325.381 2283.23,325.381 2283.23,92.1006 1612.04,92.1006 1612.04,325.381 
  "/>
<polyline clip-path="url(#clip240)" style="stroke:#009af9; stroke-linecap:round; stroke-linejoin:round; stroke-width:18; stroke-opacity:1; fill:none" points="
  1635.22,169.861 1774.27,169.861 
  "/>
<path clip-path="url(#clip240)" d="M1797.45 143.941 L1827.24 143.941 L1827.24 149.843 L1804.46 149.843 L1804.46 165.121 L1825.02 165.121 L1825.02 171.024 L1804.46 171.024 L1804.46 195.781 L1797.45 195.781 L1797.45 143.941 Z" fill="#000000" fill-rule="evenodd" fill-opacity="1" /><path clip-path="url(#clip240)" d="M1832.9 156.892 L1839.29 156.892 L1839.29 195.781 L1832.9 195.781 L1832.9 156.892 M1832.9 141.753 L1839.29 141.753 L1839.29 149.843 L1832.9 149.843 L1832.9 141.753 Z" fill="#000000" fill-rule="evenodd" fill-opacity="1" /><path clip-path="url(#clip240)" d="M1858.98 145.85 L1858.98 156.892 L1872.14 156.892 L1872.14 161.857 L1858.98 161.857 L1858.98 182.968 Q1858.98 187.725 1860.26 189.079 Q1861.58 190.433 1865.57 190.433 L1872.14 190.433 L1872.14 195.781 L1865.57 195.781 Q1858.18 195.781 1855.37 193.038 Q1852.55 190.26 1852.55 182.968 L1852.55 161.857 L1847.87 161.857 L1847.87 156.892 L1852.55 156.892 L1852.55 145.85 L1858.98 145.85 Z" fill="#000000" fill-rule="evenodd" fill-opacity="1" /><path clip-path="url(#clip240)" d="M1886.86 145.85 L1886.86 156.892 L1900.02 156.892 L1900.02 161.857 L1886.86 161.857 L1886.86 182.968 Q1886.86 187.725 1888.14 189.079 Q1889.46 190.433 1893.46 190.433 L1900.02 190.433 L1900.02 195.781 L1893.46 195.781 Q1886.06 195.781 1883.25 193.038 Q1880.44 190.26 1880.44 182.968 L1880.44 161.857 L1875.75 161.857 L1875.75 156.892 L1880.44 156.892 L1880.44 145.85 L1886.86 145.85 Z" fill="#000000" fill-rule="evenodd" fill-opacity="1" /><path clip-path="url(#clip240)" d="M1941.68 174.739 L1941.68 177.864 L1912.31 177.864 Q1912.73 184.461 1916.27 187.933 Q1919.84 191.371 1926.2 191.371 Q1929.88 191.371 1933.32 190.468 Q1936.79 189.565 1940.19 187.76 L1940.19 193.801 Q1936.75 195.26 1933.14 196.024 Q1929.53 196.788 1925.82 196.788 Q1916.51 196.788 1911.06 191.371 Q1905.64 185.954 1905.64 176.718 Q1905.64 167.17 1910.78 161.579 Q1915.96 155.954 1924.71 155.954 Q1932.55 155.954 1937.1 161.024 Q1941.68 166.059 1941.68 174.739 M1935.3 172.864 Q1935.23 167.621 1932.34 164.496 Q1929.5 161.371 1924.78 161.371 Q1919.43 161.371 1916.2 164.392 Q1913 167.413 1912.52 172.899 L1935.3 172.864 Z" fill="#000000" fill-rule="evenodd" fill-opacity="1" /><path clip-path="url(#clip240)" d="M1977.76 162.795 L1977.76 141.753 L1984.15 141.753 L1984.15 195.781 L1977.76 195.781 L1977.76 189.947 Q1975.75 193.42 1972.66 195.121 Q1969.6 196.788 1965.3 196.788 Q1958.25 196.788 1953.8 191.163 Q1949.39 185.538 1949.39 176.371 Q1949.39 167.204 1953.8 161.579 Q1958.25 155.954 1965.3 155.954 Q1969.6 155.954 1972.66 157.656 Q1975.75 159.322 1977.76 162.795 M1955.99 176.371 Q1955.99 183.42 1958.87 187.447 Q1961.79 191.44 1966.86 191.44 Q1971.93 191.44 1974.84 187.447 Q1977.76 183.42 1977.76 176.371 Q1977.76 169.322 1974.84 165.329 Q1971.93 161.302 1966.86 161.302 Q1961.79 161.302 1958.87 165.329 Q1955.99 169.322 1955.99 176.371 Z" fill="#000000" fill-rule="evenodd" fill-opacity="1" /><path clip-path="url(#clip240)" d="M2055.54 188.385 L2055.54 174.461 L2044.08 174.461 L2044.08 168.697 L2062.48 168.697 L2062.48 190.954 Q2058.42 193.836 2053.52 195.329 Q2048.63 196.788 2043.07 196.788 Q2030.92 196.788 2024.05 189.704 Q2017.21 182.586 2017.21 169.913 Q2017.21 157.204 2024.05 150.121 Q2030.92 143.003 2043.07 143.003 Q2048.14 143.003 2052.69 144.253 Q2057.27 145.503 2061.13 147.934 L2061.13 155.399 Q2057.24 152.1 2052.86 150.434 Q2048.49 148.767 2043.66 148.767 Q2034.15 148.767 2029.36 154.079 Q2024.6 159.392 2024.6 169.913 Q2024.6 180.399 2029.36 185.711 Q2034.15 191.024 2043.66 191.024 Q2047.38 191.024 2050.3 190.399 Q2053.21 189.739 2055.54 188.385 Z" fill="#000000" fill-rule="evenodd" fill-opacity="1" /><path clip-path="url(#clip240)" d="M2075.3 143.941 L2108.07 143.941 L2108.07 149.843 L2082.31 149.843 L2082.31 165.191 L2107 165.191 L2107 171.093 L2082.31 171.093 L2082.31 189.878 L2108.7 189.878 L2108.7 195.781 L2075.3 195.781 L2075.3 143.941 Z" fill="#000000" fill-rule="evenodd" fill-opacity="1" /><path clip-path="url(#clip240)" d="M2133.59 195.781 L2113.8 143.941 L2121.13 143.941 L2137.55 187.586 L2154.01 143.941 L2161.3 143.941 L2141.54 195.781 L2133.59 195.781 Z" fill="#000000" fill-rule="evenodd" fill-opacity="1" /><polyline clip-path="url(#clip240)" style="stroke:#e26f46; stroke-linecap:round; stroke-linejoin:round; stroke-width:6; stroke-opacity:1; fill:none" points="
  1635.22,247.621 1774.27,247.621 
  "/>
<path clip-path="url(#clip240)" d="M1821.48 226.458 Q1813.84 226.458 1809.32 232.152 Q1804.85 237.846 1804.85 247.673 Q1804.85 257.464 1809.32 263.159 Q1813.84 268.853 1821.48 268.853 Q1829.12 268.853 1833.56 263.159 Q1838.04 257.464 1838.04 247.673 Q1838.04 237.846 1833.56 232.152 Q1829.12 226.458 1821.48 226.458 M1821.48 220.763 Q1832.38 220.763 1838.91 228.089 Q1845.44 235.381 1845.44 247.673 Q1845.44 259.93 1838.91 267.256 Q1832.38 274.548 1821.48 274.548 Q1810.54 274.548 1803.98 267.256 Q1797.45 259.964 1797.45 247.673 Q1797.45 235.381 1803.98 228.089 Q1810.54 220.763 1821.48 220.763 Z" fill="#000000" fill-rule="evenodd" fill-opacity="1" /><path clip-path="url(#clip240)" d="M1884.05 254.131 Q1884.05 247.082 1881.13 243.089 Q1878.25 239.062 1873.18 239.062 Q1868.11 239.062 1865.19 243.089 Q1862.31 247.082 1862.31 254.131 Q1862.31 261.18 1865.19 265.207 Q1868.11 269.2 1873.18 269.2 Q1878.25 269.2 1881.13 265.207 Q1884.05 261.18 1884.05 254.131 M1862.31 240.555 Q1864.32 237.082 1867.38 235.416 Q1870.47 233.714 1874.74 233.714 Q1881.82 233.714 1886.23 239.339 Q1890.68 244.964 1890.68 254.131 Q1890.68 263.298 1886.23 268.923 Q1881.82 274.548 1874.74 274.548 Q1870.47 274.548 1867.38 272.881 Q1864.32 271.18 1862.31 267.707 L1862.31 273.541 L1855.89 273.541 L1855.89 219.513 L1862.31 219.513 L1862.31 240.555 Z" fill="#000000" fill-rule="evenodd" fill-opacity="1" /><path clip-path="url(#clip240)" d="M1926.06 235.798 L1926.06 241.839 Q1923.35 240.451 1920.43 239.756 Q1917.52 239.062 1914.39 239.062 Q1909.64 239.062 1907.24 240.52 Q1904.88 241.978 1904.88 244.895 Q1904.88 247.117 1906.58 248.402 Q1908.28 249.652 1913.42 250.798 L1915.61 251.284 Q1922.41 252.742 1925.26 255.416 Q1928.14 258.055 1928.14 262.812 Q1928.14 268.228 1923.84 271.388 Q1919.57 274.548 1912.07 274.548 Q1908.94 274.548 1905.54 273.923 Q1902.17 273.332 1898.42 272.117 L1898.42 265.52 Q1901.96 267.36 1905.4 268.298 Q1908.84 269.2 1912.21 269.2 Q1916.72 269.2 1919.15 267.673 Q1921.58 266.11 1921.58 263.298 Q1921.58 260.693 1919.81 259.305 Q1918.07 257.916 1912.14 256.631 L1909.91 256.11 Q1903.98 254.86 1901.34 252.291 Q1898.7 249.687 1898.7 245.173 Q1898.7 239.687 1902.59 236.701 Q1906.48 233.714 1913.63 233.714 Q1917.17 233.714 1920.3 234.235 Q1923.42 234.756 1926.06 235.798 Z" fill="#000000" fill-rule="evenodd" fill-opacity="1" /><path clip-path="url(#clip240)" d="M1971.58 252.499 L1971.58 255.624 L1942.21 255.624 Q1942.62 262.221 1946.16 265.693 Q1949.74 269.131 1956.09 269.131 Q1959.78 269.131 1963.21 268.228 Q1966.68 267.325 1970.09 265.52 L1970.09 271.561 Q1966.65 273.02 1963.04 273.784 Q1959.43 274.548 1955.71 274.548 Q1946.41 274.548 1940.96 269.131 Q1935.54 263.714 1935.54 254.478 Q1935.54 244.93 1940.68 239.339 Q1945.85 233.714 1954.6 233.714 Q1962.45 233.714 1967 238.784 Q1971.58 243.819 1971.58 252.499 M1965.19 250.624 Q1965.12 245.381 1962.24 242.256 Q1959.39 239.131 1954.67 239.131 Q1949.32 239.131 1946.09 242.152 Q1942.9 245.173 1942.41 250.659 L1965.19 250.624 Z" fill="#000000" fill-rule="evenodd" fill-opacity="1" /><path clip-path="url(#clip240)" d="M2004.6 240.624 Q2003.52 239.999 2002.24 239.721 Q2000.99 239.409 1999.46 239.409 Q1994.05 239.409 1991.13 242.951 Q1988.25 246.457 1988.25 253.055 L1988.25 273.541 L1981.82 273.541 L1981.82 234.652 L1988.25 234.652 L1988.25 240.694 Q1990.26 237.152 1993.49 235.451 Q1996.72 233.714 2001.34 233.714 Q2002 233.714 2002.8 233.819 Q2003.59 233.888 2004.57 234.062 L2004.6 240.624 Z" fill="#000000" fill-rule="evenodd" fill-opacity="1" /><path clip-path="url(#clip240)" d="M2006.72 234.652 L2013.49 234.652 L2025.64 267.291 L2037.8 234.652 L2044.57 234.652 L2029.98 273.541 L2021.3 273.541 L2006.72 234.652 Z" fill="#000000" fill-rule="evenodd" fill-opacity="1" /><path clip-path="url(#clip240)" d="M2071.06 253.992 Q2063.32 253.992 2060.33 255.763 Q2057.34 257.534 2057.34 261.805 Q2057.34 265.207 2059.57 267.221 Q2061.82 269.2 2065.68 269.2 Q2070.99 269.2 2074.18 265.45 Q2077.41 261.666 2077.41 255.416 L2077.41 253.992 L2071.06 253.992 M2083.8 251.353 L2083.8 273.541 L2077.41 273.541 L2077.41 267.638 Q2075.23 271.18 2071.96 272.881 Q2068.7 274.548 2063.98 274.548 Q2058 274.548 2054.46 271.214 Q2050.96 267.846 2050.96 262.221 Q2050.96 255.659 2055.33 252.325 Q2059.74 248.992 2068.46 248.992 L2077.41 248.992 L2077.41 248.367 Q2077.41 243.957 2074.5 241.562 Q2071.61 239.131 2066.37 239.131 Q2063.04 239.131 2059.88 239.93 Q2056.72 240.728 2053.8 242.326 L2053.8 236.423 Q2057.31 235.069 2060.61 234.409 Q2063.91 233.714 2067.03 233.714 Q2075.47 233.714 2079.64 238.089 Q2083.8 242.464 2083.8 251.353 Z" fill="#000000" fill-rule="evenodd" fill-opacity="1" /><path clip-path="url(#clip240)" d="M2103.28 223.61 L2103.28 234.652 L2116.44 234.652 L2116.44 239.617 L2103.28 239.617 L2103.28 260.728 Q2103.28 265.485 2104.57 266.839 Q2105.89 268.193 2109.88 268.193 L2116.44 268.193 L2116.44 273.541 L2109.88 273.541 Q2102.48 273.541 2099.67 270.798 Q2096.86 268.02 2096.86 260.728 L2096.86 239.617 L2092.17 239.617 L2092.17 234.652 L2096.86 234.652 L2096.86 223.61 L2103.28 223.61 Z" fill="#000000" fill-rule="evenodd" fill-opacity="1" /><path clip-path="url(#clip240)" d="M2124.84 234.652 L2131.23 234.652 L2131.23 273.541 L2124.84 273.541 L2124.84 234.652 M2124.84 219.513 L2131.23 219.513 L2131.23 227.603 L2124.84 227.603 L2124.84 219.513 Z" fill="#000000" fill-rule="evenodd" fill-opacity="1" /><path clip-path="url(#clip240)" d="M2159.67 239.131 Q2154.53 239.131 2151.54 243.159 Q2148.56 247.152 2148.56 254.131 Q2148.56 261.11 2151.51 265.138 Q2154.5 269.131 2159.67 269.131 Q2164.77 269.131 2167.76 265.103 Q2170.75 261.075 2170.75 254.131 Q2170.75 247.221 2167.76 243.194 Q2164.77 239.131 2159.67 239.131 M2159.67 233.714 Q2168 233.714 2172.76 239.131 Q2177.52 244.548 2177.52 254.131 Q2177.52 263.68 2172.76 269.131 Q2168 274.548 2159.67 274.548 Q2151.3 274.548 2146.54 269.131 Q2141.82 263.68 2141.82 254.131 Q2141.82 244.548 2146.54 239.131 Q2151.3 233.714 2159.67 233.714 Z" fill="#000000" fill-rule="evenodd" fill-opacity="1" /><path clip-path="url(#clip240)" d="M2220.43 250.069 L2220.43 273.541 L2214.04 273.541 L2214.04 250.277 Q2214.04 244.756 2211.89 242.013 Q2209.74 239.27 2205.43 239.27 Q2200.26 239.27 2197.27 242.569 Q2194.29 245.867 2194.29 251.562 L2194.29 273.541 L2187.86 273.541 L2187.86 234.652 L2194.29 234.652 L2194.29 240.694 Q2196.58 237.187 2199.67 235.451 Q2202.79 233.714 2206.86 233.714 Q2213.56 233.714 2217 237.881 Q2220.43 242.013 2220.43 250.069 Z" fill="#000000" fill-rule="evenodd" fill-opacity="1" /><path clip-path="url(#clip240)" d="M2257.97 235.798 L2257.97 241.839 Q2255.26 240.451 2252.34 239.756 Q2249.43 239.062 2246.3 239.062 Q2241.54 239.062 2239.15 240.52 Q2236.79 241.978 2236.79 244.895 Q2236.79 247.117 2238.49 248.402 Q2240.19 249.652 2245.33 250.798 L2247.52 251.284 Q2254.32 252.742 2257.17 255.416 Q2260.05 258.055 2260.05 262.812 Q2260.05 268.228 2255.75 271.388 Q2251.47 274.548 2243.97 274.548 Q2240.85 274.548 2237.45 273.923 Q2234.08 273.332 2230.33 272.117 L2230.33 265.52 Q2233.87 267.36 2237.31 268.298 Q2240.75 269.2 2244.11 269.2 Q2248.63 269.2 2251.06 267.673 Q2253.49 266.11 2253.49 263.298 Q2253.49 260.693 2251.72 259.305 Q2249.98 257.916 2244.04 256.631 L2241.82 256.11 Q2235.88 254.86 2233.25 252.291 Q2230.61 249.687 2230.61 245.173 Q2230.61 239.687 2234.5 236.701 Q2238.38 233.714 2245.54 233.714 Q2249.08 233.714 2252.2 234.235 Q2255.33 234.756 2257.97 235.798 Z" fill="#000000" fill-rule="evenodd" fill-opacity="1" /></svg>
