<?xml version="1.0" encoding="utf-8"?>
<svg xmlns="http://www.w3.org/2000/svg" xmlns:xlink="http://www.w3.org/1999/xlink" width="600" height="400" viewBox="0 0 2400 1600">
<defs>
  <clipPath id="clip640">
    <rect x="0" y="0" width="2400" height="1600"/>
  </clipPath>
</defs>
<path clip-path="url(#clip640)" d="
M0 1600 L2400 1600 L2400 0 L0 0  Z
  " fill="#ffffff" fill-rule="evenodd" fill-opacity="1"/>
<defs>
  <clipPath id="clip641">
    <rect x="480" y="0" width="1681" height="1600"/>
  </clipPath>
</defs>
<path clip-path="url(#clip640)" d="
M205.025 1384.3 L2352.76 1384.3 L2352.76 47.2441 L205.025 47.2441  Z
  " fill="#ffffff" fill-rule="evenodd" fill-opacity="1"/>
<defs>
  <clipPath id="clip642">
    <rect x="205" y="47" width="2149" height="1338"/>
  </clipPath>
</defs>
<polyline clip-path="url(#clip642)" style="stroke:#000000; stroke-linecap:round; stroke-linejoin:round; stroke-width:2; stroke-opacity:0.1; fill:none" points="
  321.447,1384.3 321.447,47.2441 
  "/>
<polyline clip-path="url(#clip642)" style="stroke:#000000; stroke-linecap:round; stroke-linejoin:round; stroke-width:2; stroke-opacity:0.1; fill:none" points="
  851.325,1384.3 851.325,47.2441 
  "/>
<polyline clip-path="url(#clip642)" style="stroke:#000000; stroke-linecap:round; stroke-linejoin:round; stroke-width:2; stroke-opacity:0.1; fill:none" points="
  1381.2,1384.3 1381.2,47.2441 
  "/>
<polyline clip-path="url(#clip642)" style="stroke:#000000; stroke-linecap:round; stroke-linejoin:round; stroke-width:2; stroke-opacity:0.1; fill:none" points="
  1911.08,1384.3 1911.08,47.2441 
  "/>
<polyline clip-path="url(#clip640)" style="stroke:#000000; stroke-linecap:round; stroke-linejoin:round; stroke-width:4; stroke-opacity:1; fill:none" points="
  205.025,1384.3 2352.76,1384.3 
  "/>
<polyline clip-path="url(#clip640)" style="stroke:#000000; stroke-linecap:round; stroke-linejoin:round; stroke-width:4; stroke-opacity:1; fill:none" points="
  321.447,1384.3 321.447,1365.4 
  "/>
<polyline clip-path="url(#clip640)" style="stroke:#000000; stroke-linecap:round; stroke-linejoin:round; stroke-width:4; stroke-opacity:1; fill:none" points="
  851.325,1384.3 851.325,1365.4 
  "/>
<polyline clip-path="url(#clip640)" style="stroke:#000000; stroke-linecap:round; stroke-linejoin:round; stroke-width:4; stroke-opacity:1; fill:none" points="
  1381.2,1384.3 1381.2,1365.4 
  "/>
<polyline clip-path="url(#clip640)" style="stroke:#000000; stroke-linecap:round; stroke-linejoin:round; stroke-width:4; stroke-opacity:1; fill:none" points="
  1911.08,1384.3 1911.08,1365.4 
  "/>
<path clip-path="url(#clip640)" d="M281.87 1424.01 Q275.551 1424.01 272.351 1430.25 Q269.191 1436.44 269.191 1448.92 Q269.191 1461.36 272.351 1467.6 Q275.551 1473.79 281.87 1473.79 Q288.23 1473.79 291.39 1467.6 Q294.59 1461.36 294.59 1448.92 Q294.59 1436.44 291.39 1430.25 Q288.23 1424.01 281.87 1424.01 M281.87 1417.53 Q292.038 1417.53 297.385 1425.59 Q302.773 1433.61 302.773 1448.92 Q302.773 1464.19 297.385 1472.25 Q292.038 1480.27 281.87 1480.27 Q271.702 1480.27 266.315 1472.25 Q260.967 1464.19 260.967 1448.92 Q260.967 1433.61 266.315 1425.59 Q271.702 1417.53 281.87 1417.53 Z" fill="#000000" fill-rule="evenodd" fill-opacity="1" /><path clip-path="url(#clip640)" d="M317.154 1468.81 L325.701 1468.81 L325.701 1479.1 L317.154 1479.1 L317.154 1468.81 Z" fill="#000000" fill-rule="evenodd" fill-opacity="1" /><path clip-path="url(#clip640)" d="M361.025 1424.01 Q354.705 1424.01 351.505 1430.25 Q348.345 1436.44 348.345 1448.92 Q348.345 1461.36 351.505 1467.6 Q354.705 1473.79 361.025 1473.79 Q367.385 1473.79 370.544 1467.6 Q373.745 1461.36 373.745 1448.92 Q373.745 1436.44 370.544 1430.25 Q367.385 1424.01 361.025 1424.01 M361.025 1417.53 Q371.193 1417.53 376.54 1425.59 Q381.927 1433.61 381.927 1448.92 Q381.927 1464.19 376.54 1472.25 Q371.193 1480.27 361.025 1480.27 Q350.857 1480.27 345.469 1472.25 Q340.122 1464.19 340.122 1448.92 Q340.122 1433.61 345.469 1425.59 Q350.857 1417.53 361.025 1417.53 Z" fill="#000000" fill-rule="evenodd" fill-opacity="1" /><path clip-path="url(#clip640)" d="M813.146 1424.01 Q806.826 1424.01 803.626 1430.25 Q800.466 1436.44 800.466 1448.92 Q800.466 1461.36 803.626 1467.6 Q806.826 1473.79 813.146 1473.79 Q819.506 1473.79 822.665 1467.6 Q825.865 1461.36 825.865 1448.92 Q825.865 1436.44 822.665 1430.25 Q819.506 1424.01 813.146 1424.01 M813.146 1417.53 Q823.313 1417.53 828.661 1425.59 Q834.048 1433.61 834.048 1448.92 Q834.048 1464.19 828.661 1472.25 Q823.313 1480.27 813.146 1480.27 Q802.978 1480.27 797.59 1472.25 Q792.243 1464.19 792.243 1448.92 Q792.243 1433.61 797.59 1425.59 Q802.978 1417.53 813.146 1417.53 Z" fill="#000000" fill-rule="evenodd" fill-opacity="1" /><path clip-path="url(#clip640)" d="M848.429 1468.81 L856.976 1468.81 L856.976 1479.1 L848.429 1479.1 L848.429 1468.81 Z" fill="#000000" fill-rule="evenodd" fill-opacity="1" /><path clip-path="url(#clip640)" d="M881.849 1472.21 L910.408 1472.21 L910.408 1479.1 L872.005 1479.1 L872.005 1472.21 Q876.664 1467.39 884.685 1459.29 Q892.746 1451.15 894.812 1448.8 Q898.741 1444.38 900.281 1441.35 Q901.86 1438.27 901.86 1435.31 Q901.86 1430.49 898.458 1427.45 Q895.095 1424.41 889.667 1424.41 Q885.819 1424.41 881.525 1425.75 Q877.271 1427.09 872.41 1429.8 L872.41 1421.54 Q877.352 1419.55 881.646 1418.54 Q885.94 1417.53 889.505 1417.53 Q898.903 1417.53 904.493 1422.23 Q910.084 1426.92 910.084 1434.78 Q910.084 1438.51 908.666 1441.87 Q907.289 1445.19 903.602 1449.73 Q902.59 1450.91 897.161 1456.54 Q891.733 1462.13 881.849 1472.21 Z" fill="#000000" fill-rule="evenodd" fill-opacity="1" /><path clip-path="url(#clip640)" d="M1341.2 1424.01 Q1334.88 1424.01 1331.68 1430.25 Q1328.52 1436.44 1328.52 1448.92 Q1328.52 1461.36 1331.68 1467.6 Q1334.88 1473.79 1341.2 1473.79 Q1347.56 1473.79 1350.72 1467.6 Q1353.92 1461.36 1353.92 1448.92 Q1353.92 1436.44 1350.72 1430.25 Q1347.56 1424.01 1341.2 1424.01 M1341.2 1417.53 Q1351.37 1417.53 1356.72 1425.59 Q1362.1 1433.61 1362.1 1448.92 Q1362.1 1464.19 1356.72 1472.25 Q1351.37 1480.27 1341.2 1480.27 Q1331.03 1480.27 1325.65 1472.25 Q1320.3 1464.19 1320.3 1448.92 Q1320.3 1433.61 1325.65 1425.59 Q1331.03 1417.53 1341.2 1417.53 Z" fill="#000000" fill-rule="evenodd" fill-opacity="1" /><path clip-path="url(#clip640)" d="M1376.48 1468.81 L1385.03 1468.81 L1385.03 1479.1 L1376.48 1479.1 L1376.48 1468.81 Z" fill="#000000" fill-rule="evenodd" fill-opacity="1" /><path clip-path="url(#clip640)" d="M1425.34 1425.75 L1404.68 1458.04 L1425.34 1458.04 L1425.34 1425.75 M1423.19 1418.62 L1433.48 1418.62 L1433.48 1458.04 L1442.11 1458.04 L1442.11 1464.84 L1433.48 1464.84 L1433.48 1479.1 L1425.34 1479.1 L1425.34 1464.84 L1398.03 1464.84 L1398.03 1456.94 L1423.19 1418.62 Z" fill="#000000" fill-rule="evenodd" fill-opacity="1" /><path clip-path="url(#clip640)" d="M1871.36 1424.01 Q1865.04 1424.01 1861.84 1430.25 Q1858.68 1436.44 1858.68 1448.92 Q1858.68 1461.36 1861.84 1467.6 Q1865.04 1473.79 1871.36 1473.79 Q1877.72 1473.79 1880.88 1467.6 Q1884.08 1461.36 1884.08 1448.92 Q1884.08 1436.44 1880.88 1430.25 Q1877.72 1424.01 1871.36 1424.01 M1871.36 1417.53 Q1881.53 1417.53 1886.88 1425.59 Q1892.26 1433.61 1892.26 1448.92 Q1892.26 1464.19 1886.88 1472.25 Q1881.53 1480.27 1871.36 1480.27 Q1861.19 1480.27 1855.81 1472.25 Q1850.46 1464.19 1850.46 1448.92 Q1850.46 1433.61 1855.81 1425.59 Q1861.19 1417.53 1871.36 1417.53 Z" fill="#000000" fill-rule="evenodd" fill-opacity="1" /><path clip-path="url(#clip640)" d="M1906.65 1468.81 L1915.19 1468.81 L1915.19 1479.1 L1906.65 1479.1 L1906.65 1468.81 Z" fill="#000000" fill-rule="evenodd" fill-opacity="1" /><path clip-path="url(#clip640)" d="M1951.53 1445.6 Q1946.02 1445.6 1942.78 1449.37 Q1939.58 1453.13 1939.58 1459.7 Q1939.58 1466.22 1942.78 1470.03 Q1946.02 1473.79 1951.53 1473.79 Q1957.04 1473.79 1960.24 1470.03 Q1963.48 1466.22 1963.48 1459.7 Q1963.48 1453.13 1960.24 1449.37 Q1957.04 1445.6 1951.53 1445.6 M1967.77 1419.96 L1967.77 1427.41 Q1964.69 1425.95 1961.54 1425.18 Q1958.42 1424.41 1955.34 1424.41 Q1947.24 1424.41 1942.94 1429.88 Q1938.69 1435.35 1938.08 1446.41 Q1940.47 1442.88 1944.08 1441.02 Q1947.68 1439.12 1952.02 1439.12 Q1961.13 1439.12 1966.4 1444.67 Q1971.7 1450.18 1971.7 1459.7 Q1971.7 1469.01 1966.19 1474.64 Q1960.68 1480.27 1951.53 1480.27 Q1941.04 1480.27 1935.49 1472.25 Q1929.94 1464.19 1929.94 1448.92 Q1929.94 1434.58 1936.74 1426.07 Q1943.55 1417.53 1955.01 1417.53 Q1958.09 1417.53 1961.21 1418.13 Q1964.37 1418.74 1967.77 1419.96 Z" fill="#000000" fill-rule="evenodd" fill-opacity="1" /><path clip-path="url(#clip640)" d="M950.322 1523.12 L988.562 1523.12 L988.562 1530 L958.505 1530 L958.505 1547.91 L987.307 1547.91 L987.307 1554.79 L958.505 1554.79 L958.505 1576.71 L989.292 1576.71 L989.292 1583.6 L950.322 1583.6 L950.322 1523.12 Z" fill="#000000" fill-rule="evenodd" fill-opacity="1" /><path clip-path="url(#clip640)" d="M1040.13 1538.23 L1023.72 1560.3 L1040.98 1583.6 L1032.19 1583.6 L1018.98 1565.77 L1005.78 1583.6 L996.988 1583.6 L1014.61 1559.86 L998.487 1538.23 L1007.28 1538.23 L1019.31 1554.39 L1031.34 1538.23 L1040.13 1538.23 Z" fill="#000000" fill-rule="evenodd" fill-opacity="1" /><path clip-path="url(#clip640)" d="M1082.71 1539.97 L1082.71 1546.94 Q1079.55 1545.19 1076.35 1544.34 Q1073.19 1543.45 1069.95 1543.45 Q1062.69 1543.45 1058.68 1548.07 Q1054.67 1552.65 1054.67 1560.95 Q1054.67 1569.26 1058.68 1573.87 Q1062.69 1578.45 1069.95 1578.45 Q1073.19 1578.45 1076.35 1577.6 Q1079.55 1576.71 1082.71 1574.97 L1082.71 1581.85 Q1079.59 1583.31 1076.22 1584.04 Q1072.9 1584.77 1069.13 1584.77 Q1058.89 1584.77 1052.85 1578.33 Q1046.81 1571.89 1046.81 1560.95 Q1046.81 1549.85 1052.89 1543.49 Q1059.01 1537.13 1069.62 1537.13 Q1073.06 1537.13 1076.35 1537.86 Q1079.63 1538.55 1082.71 1539.97 Z" fill="#000000" fill-rule="evenodd" fill-opacity="1" /><path clip-path="url(#clip640)" d="M1134.48 1559.05 L1134.48 1562.69 L1100.21 1562.69 Q1100.69 1570.39 1104.82 1574.44 Q1109 1578.45 1116.41 1578.45 Q1120.7 1578.45 1124.71 1577.4 Q1128.76 1576.34 1132.73 1574.24 L1132.73 1581.29 Q1128.72 1582.99 1124.51 1583.88 Q1120.3 1584.77 1115.96 1584.77 Q1105.11 1584.77 1098.75 1578.45 Q1092.43 1572.13 1092.43 1561.36 Q1092.43 1550.22 1098.42 1543.69 Q1104.46 1537.13 1114.67 1537.13 Q1123.82 1537.13 1129.13 1543.05 Q1134.48 1548.92 1134.48 1559.05 M1127.02 1556.86 Q1126.94 1550.74 1123.58 1547.1 Q1120.26 1543.45 1114.75 1543.45 Q1108.51 1543.45 1104.74 1546.98 Q1101.02 1550.5 1100.45 1556.9 L1127.02 1556.86 Z" fill="#000000" fill-rule="evenodd" fill-opacity="1" /><path clip-path="url(#clip640)" d="M1185.52 1559.05 L1185.52 1562.69 L1151.25 1562.69 Q1151.73 1570.39 1155.86 1574.44 Q1160.04 1578.45 1167.45 1578.45 Q1171.74 1578.45 1175.75 1577.4 Q1179.81 1576.34 1183.78 1574.24 L1183.78 1581.29 Q1179.77 1582.99 1175.55 1583.88 Q1171.34 1584.77 1167 1584.77 Q1156.15 1584.77 1149.79 1578.45 Q1143.47 1572.13 1143.47 1561.36 Q1143.47 1550.22 1149.46 1543.69 Q1155.5 1537.13 1165.71 1537.13 Q1174.86 1537.13 1180.17 1543.05 Q1185.52 1548.92 1185.52 1559.05 M1178.06 1556.86 Q1177.98 1550.74 1174.62 1547.1 Q1171.3 1543.45 1165.79 1543.45 Q1159.55 1543.45 1155.78 1546.98 Q1152.06 1550.5 1151.49 1556.9 L1178.06 1556.86 Z" fill="#000000" fill-rule="evenodd" fill-opacity="1" /><path clip-path="url(#clip640)" d="M1227.61 1545.11 L1227.61 1520.56 L1235.06 1520.56 L1235.06 1583.6 L1227.61 1583.6 L1227.61 1576.79 Q1225.26 1580.84 1221.65 1582.83 Q1218.09 1584.77 1213.06 1584.77 Q1204.84 1584.77 1199.66 1578.21 Q1194.51 1571.65 1194.51 1560.95 Q1194.51 1550.26 1199.66 1543.69 Q1204.84 1537.13 1213.06 1537.13 Q1218.09 1537.13 1221.65 1539.12 Q1225.26 1541.06 1227.61 1545.11 M1202.21 1560.95 Q1202.21 1569.17 1205.57 1573.87 Q1208.97 1578.53 1214.89 1578.53 Q1220.8 1578.53 1224.2 1573.87 Q1227.61 1569.17 1227.61 1560.95 Q1227.61 1552.73 1224.2 1548.07 Q1220.8 1543.37 1214.89 1543.37 Q1208.97 1543.37 1205.57 1548.07 Q1202.21 1552.73 1202.21 1560.95 Z" fill="#000000" fill-rule="evenodd" fill-opacity="1" /><path clip-path="url(#clip640)" d="M1271.03 1560.79 Q1262 1560.79 1258.51 1562.86 Q1255.03 1564.92 1255.03 1569.9 Q1255.03 1573.87 1257.62 1576.22 Q1260.26 1578.53 1264.75 1578.53 Q1270.95 1578.53 1274.68 1574.16 Q1278.45 1569.74 1278.45 1562.45 L1278.45 1560.79 L1271.03 1560.79 M1285.9 1557.71 L1285.9 1583.6 L1278.45 1583.6 L1278.45 1576.71 Q1275.89 1580.84 1272.09 1582.83 Q1268.28 1584.77 1262.77 1584.77 Q1255.8 1584.77 1251.67 1580.88 Q1247.58 1576.95 1247.58 1570.39 Q1247.58 1562.73 1252.68 1558.84 Q1257.83 1554.96 1267.99 1554.96 L1278.45 1554.96 L1278.45 1554.23 Q1278.45 1549.08 1275.04 1546.29 Q1271.68 1543.45 1265.56 1543.45 Q1261.67 1543.45 1257.99 1544.38 Q1254.3 1545.31 1250.9 1547.18 L1250.9 1540.29 Q1254.99 1538.71 1258.84 1537.94 Q1262.69 1537.13 1266.33 1537.13 Q1276.18 1537.13 1281.04 1542.24 Q1285.9 1547.34 1285.9 1557.71 Z" fill="#000000" fill-rule="evenodd" fill-opacity="1" /><path clip-path="url(#clip640)" d="M1338.97 1556.21 L1338.97 1583.6 L1331.51 1583.6 L1331.51 1556.45 Q1331.51 1550.01 1329 1546.81 Q1326.49 1543.61 1321.47 1543.61 Q1315.43 1543.61 1311.95 1547.46 Q1308.46 1551.31 1308.46 1557.95 L1308.46 1583.6 L1300.97 1583.6 L1300.97 1538.23 L1308.46 1538.23 L1308.46 1545.27 Q1311.14 1541.18 1314.74 1539.16 Q1318.39 1537.13 1323.13 1537.13 Q1330.94 1537.13 1334.96 1541.99 Q1338.97 1546.81 1338.97 1556.21 Z" fill="#000000" fill-rule="evenodd" fill-opacity="1" /><path clip-path="url(#clip640)" d="M1386.48 1539.97 L1386.48 1546.94 Q1383.32 1545.19 1380.12 1544.34 Q1376.96 1543.45 1373.72 1543.45 Q1366.47 1543.45 1362.46 1548.07 Q1358.45 1552.65 1358.45 1560.95 Q1358.45 1569.26 1362.46 1573.87 Q1366.47 1578.45 1373.72 1578.45 Q1376.96 1578.45 1380.12 1577.6 Q1383.32 1576.71 1386.48 1574.97 L1386.48 1581.85 Q1383.36 1583.31 1380 1584.04 Q1376.68 1584.77 1372.91 1584.77 Q1362.66 1584.77 1356.63 1578.33 Q1350.59 1571.89 1350.59 1560.95 Q1350.59 1549.85 1356.67 1543.49 Q1362.78 1537.13 1373.4 1537.13 Q1376.84 1537.13 1380.12 1537.86 Q1383.4 1538.55 1386.48 1539.97 Z" fill="#000000" fill-rule="evenodd" fill-opacity="1" /><path clip-path="url(#clip640)" d="M1438.25 1559.05 L1438.25 1562.69 L1403.98 1562.69 Q1404.47 1570.39 1408.6 1574.44 Q1412.77 1578.45 1420.19 1578.45 Q1424.48 1578.45 1428.49 1577.4 Q1432.54 1576.34 1436.51 1574.24 L1436.51 1581.29 Q1432.5 1582.99 1428.29 1583.88 Q1424.08 1584.77 1419.74 1584.77 Q1408.88 1584.77 1402.52 1578.45 Q1396.2 1572.13 1396.2 1561.36 Q1396.2 1550.22 1402.2 1543.69 Q1408.24 1537.13 1418.44 1537.13 Q1427.6 1537.13 1432.91 1543.05 Q1438.25 1548.92 1438.25 1559.05 M1430.8 1556.86 Q1430.72 1550.74 1427.36 1547.1 Q1424.03 1543.45 1418.53 1543.45 Q1412.29 1543.45 1408.52 1546.98 Q1404.79 1550.5 1404.23 1556.9 L1430.8 1556.86 Z" fill="#000000" fill-rule="evenodd" fill-opacity="1" /><path clip-path="url(#clip640)" d="M1494.76 1520.64 Q1489.34 1529.96 1486.7 1539.08 Q1484.07 1548.19 1484.07 1557.55 Q1484.07 1566.91 1486.7 1576.1 Q1489.38 1585.26 1494.76 1594.53 L1488.28 1594.53 Q1482.21 1585.01 1479.17 1575.82 Q1476.17 1566.62 1476.17 1557.55 Q1476.17 1548.52 1479.17 1539.36 Q1482.17 1530.2 1488.28 1520.64 L1494.76 1520.64 Z" fill="#000000" fill-rule="evenodd" fill-opacity="1" /><path clip-path="url(#clip640)" d="M1544.55 1546.94 Q1547.34 1541.91 1551.23 1539.52 Q1555.12 1537.13 1560.39 1537.13 Q1567.48 1537.13 1571.33 1542.11 Q1575.17 1547.06 1575.17 1556.21 L1575.17 1583.6 L1567.68 1583.6 L1567.68 1556.45 Q1567.68 1549.93 1565.37 1546.77 Q1563.06 1543.61 1558.32 1543.61 Q1552.53 1543.61 1549.17 1547.46 Q1545.8 1551.31 1545.8 1557.95 L1545.8 1583.6 L1538.31 1583.6 L1538.31 1556.45 Q1538.31 1549.89 1536 1546.77 Q1533.69 1543.61 1528.87 1543.61 Q1523.16 1543.61 1519.8 1547.5 Q1516.44 1551.35 1516.44 1557.95 L1516.44 1583.6 L1508.94 1583.6 L1508.94 1538.23 L1516.44 1538.23 L1516.44 1545.27 Q1518.99 1541.1 1522.55 1539.12 Q1526.12 1537.13 1531.02 1537.13 Q1535.96 1537.13 1539.4 1539.64 Q1542.89 1542.16 1544.55 1546.94 Z" fill="#000000" fill-rule="evenodd" fill-opacity="1" /><path clip-path="url(#clip640)" d="M1588.87 1520.64 L1595.35 1520.64 Q1601.42 1530.2 1604.42 1539.36 Q1607.46 1548.52 1607.46 1557.55 Q1607.46 1566.62 1604.42 1575.82 Q1601.42 1585.01 1595.35 1594.53 L1588.87 1594.53 Q1594.25 1585.26 1596.89 1576.1 Q1599.56 1566.91 1599.56 1557.55 Q1599.56 1548.19 1596.89 1539.08 Q1594.25 1529.96 1588.87 1520.64 Z" fill="#000000" fill-rule="evenodd" fill-opacity="1" /><polyline clip-path="url(#clip642)" style="stroke:#000000; stroke-linecap:round; stroke-linejoin:round; stroke-width:2; stroke-opacity:0.1; fill:none" points="
  205.025,1346.46 2352.76,1346.46 
  "/>
<polyline clip-path="url(#clip642)" style="stroke:#000000; stroke-linecap:round; stroke-linejoin:round; stroke-width:2; stroke-opacity:0.1; fill:none" points="
  205.025,971.24 2352.76,971.24 
  "/>
<polyline clip-path="url(#clip642)" style="stroke:#000000; stroke-linecap:round; stroke-linejoin:round; stroke-width:2; stroke-opacity:0.1; fill:none" points="
  205.025,596.021 2352.76,596.021 
  "/>
<polyline clip-path="url(#clip642)" style="stroke:#000000; stroke-linecap:round; stroke-linejoin:round; stroke-width:2; stroke-opacity:0.1; fill:none" points="
  205.025,220.803 2352.76,220.803 
  "/>
<polyline clip-path="url(#clip640)" style="stroke:#000000; stroke-linecap:round; stroke-linejoin:round; stroke-width:4; stroke-opacity:1; fill:none" points="
  205.025,1384.3 205.025,47.2441 
  "/>
<polyline clip-path="url(#clip640)" style="stroke:#000000; stroke-linecap:round; stroke-linejoin:round; stroke-width:4; stroke-opacity:1; fill:none" points="
  205.025,1346.46 223.923,1346.46 
  "/>
<polyline clip-path="url(#clip640)" style="stroke:#000000; stroke-linecap:round; stroke-linejoin:round; stroke-width:4; stroke-opacity:1; fill:none" points="
  205.025,971.24 223.923,971.24 
  "/>
<polyline clip-path="url(#clip640)" style="stroke:#000000; stroke-linecap:round; stroke-linejoin:round; stroke-width:4; stroke-opacity:1; fill:none" points="
  205.025,596.021 223.923,596.021 
  "/>
<polyline clip-path="url(#clip640)" style="stroke:#000000; stroke-linecap:round; stroke-linejoin:round; stroke-width:4; stroke-opacity:1; fill:none" points="
  205.025,220.803 223.923,220.803 
  "/>
<path clip-path="url(#clip640)" d="M148.123 1321.61 Q141.803 1321.61 138.603 1327.84 Q135.443 1334.04 135.443 1346.52 Q135.443 1358.96 138.603 1365.19 Q141.803 1371.39 148.123 1371.39 Q154.483 1371.39 157.642 1365.19 Q160.843 1358.96 160.843 1346.52 Q160.843 1334.04 157.642 1327.84 Q154.483 1321.61 148.123 1321.61 M148.123 1315.12 Q158.291 1315.12 163.638 1323.19 Q169.025 1331.21 169.025 1346.52 Q169.025 1361.79 163.638 1369.85 Q158.291 1377.87 148.123 1377.87 Q137.955 1377.87 132.567 1369.85 Q127.22 1361.79 127.22 1346.52 Q127.22 1331.21 132.567 1323.19 Q137.955 1315.12 148.123 1315.12 Z" fill="#000000" fill-rule="evenodd" fill-opacity="1" /><path clip-path="url(#clip640)" d="M134.188 994.593 L147.556 994.593 L147.556 948.454 L133.013 951.37 L133.013 943.917 L147.475 941 L155.658 941 L155.658 994.593 L169.025 994.593 L169.025 1001.48 L134.188 1001.48 L134.188 994.593 Z" fill="#000000" fill-rule="evenodd" fill-opacity="1" /><path clip-path="url(#clip640)" d="M140.467 619.375 L169.025 619.375 L169.025 626.261 L130.623 626.261 L130.623 619.375 Q135.281 614.554 143.302 606.452 Q151.364 598.31 153.43 595.961 Q157.359 591.545 158.898 588.507 Q160.478 585.428 160.478 582.471 Q160.478 577.65 157.075 574.612 Q153.713 571.574 148.285 571.574 Q144.437 571.574 140.143 572.911 Q135.889 574.248 131.028 576.962 L131.028 568.698 Q135.97 566.713 140.264 565.7 Q144.558 564.688 148.123 564.688 Q157.521 564.688 163.111 569.387 Q168.701 574.086 168.701 581.944 Q168.701 585.671 167.284 589.034 Q165.906 592.355 162.22 596.892 Q161.207 598.067 155.779 603.698 Q150.351 609.288 140.467 619.375 Z" fill="#000000" fill-rule="evenodd" fill-opacity="1" /><path clip-path="url(#clip640)" d="M156.549 218.433 Q162.423 219.689 165.704 223.659 Q169.025 227.628 169.025 233.462 Q169.025 242.414 162.868 247.316 Q156.711 252.217 145.368 252.217 Q141.56 252.217 137.509 251.448 Q133.499 250.719 129.205 249.22 L129.205 241.321 Q132.608 243.305 136.659 244.318 Q140.71 245.331 145.125 245.331 Q152.822 245.331 156.832 242.293 Q160.883 239.255 160.883 233.462 Q160.883 228.115 157.116 225.117 Q153.389 222.079 146.705 222.079 L139.656 222.079 L139.656 215.354 L147.029 215.354 Q153.065 215.354 156.265 212.964 Q159.465 210.534 159.465 205.997 Q159.465 201.338 156.144 198.867 Q152.862 196.355 146.705 196.355 Q143.343 196.355 139.494 197.085 Q135.646 197.814 131.028 199.353 L131.028 192.062 Q135.687 190.765 139.737 190.117 Q143.829 189.469 147.434 189.469 Q156.751 189.469 162.179 193.722 Q167.608 197.935 167.608 205.146 Q167.608 210.169 164.732 213.653 Q161.855 217.096 156.549 218.433 Z" fill="#000000" fill-rule="evenodd" fill-opacity="1" /><path clip-path="url(#clip640)" d="M19.3207 859.984 L66.3517 859.984 L66.3517 850.1 Q66.3517 837.583 60.6804 831.79 Q55.0091 825.957 42.7754 825.957 Q30.6227 825.957 24.9919 831.79 Q19.3207 837.583 19.3207 850.1 L19.3207 859.984 M12.5962 868.167 L12.5962 851.356 Q12.5962 833.775 19.9283 825.551 Q27.2199 817.328 42.7754 817.328 Q58.4119 817.328 65.744 825.592 Q73.0762 833.856 73.0762 851.356 L73.0762 868.167 L12.5962 868.167 Z" fill="#000000" fill-rule="evenodd" fill-opacity="1" /><path clip-path="url(#clip640)" d="M48.5277 765.801 L52.1735 765.801 L52.1735 800.071 Q59.8702 799.585 63.9211 795.453 Q67.9315 791.281 67.9315 783.868 Q67.9315 779.574 66.8783 775.563 Q65.825 771.512 63.7186 767.543 L70.7671 767.543 Q72.4685 771.553 73.3597 775.766 Q74.2509 779.979 74.2509 784.313 Q74.2509 795.17 67.9315 801.53 Q61.6121 807.849 50.8367 807.849 Q39.6967 807.849 33.1748 801.854 Q26.6123 795.818 26.6123 785.61 Q26.6123 776.455 32.5266 771.148 Q38.4004 765.801 48.5277 765.801 M46.3402 773.254 Q40.2233 773.335 36.5775 776.698 Q32.9317 780.019 32.9317 785.529 Q32.9317 791.767 36.456 795.534 Q39.9803 799.261 46.3807 799.828 L46.3402 773.254 Z" fill="#000000" fill-rule="evenodd" fill-opacity="1" /><path clip-path="url(#clip640)" d="M45.692 715.853 L73.0762 715.853 L73.0762 723.307 L45.9351 723.307 Q39.4942 723.307 36.2939 725.818 Q33.0937 728.33 33.0937 733.353 Q33.0937 739.389 36.9421 742.873 Q40.7905 746.356 47.4339 746.356 L73.0762 746.356 L73.0762 753.85 L27.706 753.85 L27.706 746.356 L34.7546 746.356 Q30.6632 743.683 28.6377 740.077 Q26.6123 736.432 26.6123 731.692 Q26.6123 723.874 31.4734 719.863 Q36.2939 715.853 45.692 715.853 Z" fill="#000000" fill-rule="evenodd" fill-opacity="1" /><path clip-path="url(#clip640)" d="M29.0428 672.063 L36.0914 672.063 Q34.471 675.222 33.6609 678.625 Q32.8507 682.028 32.8507 685.674 Q32.8507 691.223 34.5521 694.019 Q36.2534 696.773 39.6562 696.773 Q42.2488 696.773 43.7476 694.788 Q45.2059 692.803 46.5427 686.808 L47.1099 684.256 Q48.8112 676.316 51.9304 672.994 Q55.0091 669.632 60.5589 669.632 Q66.8783 669.632 70.5646 674.655 Q74.2509 679.638 74.2509 688.388 Q74.2509 692.034 73.5218 696.004 Q72.8331 699.933 71.4153 704.308 L63.7186 704.308 Q65.8655 700.176 66.9593 696.166 Q68.0125 692.155 68.0125 688.226 Q68.0125 682.96 66.2301 680.124 Q64.4072 677.288 61.126 677.288 Q58.0878 677.288 56.4675 679.354 Q54.8471 681.38 53.3483 688.307 L52.7406 690.899 Q51.2823 697.826 48.2846 700.905 Q45.2464 703.984 39.9803 703.984 Q33.5798 703.984 30.0961 699.447 Q26.6123 694.91 26.6123 686.565 Q26.6123 682.433 27.2199 678.787 Q27.8276 675.141 29.0428 672.063 Z" fill="#000000" fill-rule="evenodd" fill-opacity="1" /><path clip-path="url(#clip640)" d="M27.706 657.763 L27.706 650.309 L73.0762 650.309 L73.0762 657.763 L27.706 657.763 M10.0441 657.763 L10.0441 650.309 L19.4827 650.309 L19.4827 657.763 L10.0441 657.763 Z" fill="#000000" fill-rule="evenodd" fill-opacity="1" /><path clip-path="url(#clip640)" d="M14.8242 627.341 L27.706 627.341 L27.706 611.988 L33.4988 611.988 L33.4988 627.341 L58.1283 627.341 Q63.6781 627.341 65.2579 625.842 Q66.8378 624.303 66.8378 619.644 L66.8378 611.988 L73.0762 611.988 L73.0762 619.644 Q73.0762 628.272 69.8759 631.554 Q66.6352 634.835 58.1283 634.835 L33.4988 634.835 L33.4988 640.304 L27.706 640.304 L27.706 634.835 L14.8242 634.835 L14.8242 627.341 Z" fill="#000000" fill-rule="evenodd" fill-opacity="1" /><path clip-path="url(#clip640)" d="M77.2891 583.307 Q85.3909 586.467 87.862 589.465 Q90.333 592.462 90.333 597.486 L90.333 603.44 L84.0946 603.44 L84.0946 599.065 Q84.0946 595.987 82.6363 594.285 Q81.178 592.584 75.7498 590.518 L72.347 589.181 L27.706 607.532 L27.706 599.633 L63.192 585.454 L27.706 571.276 L27.706 563.377 L77.2891 583.307 Z" fill="#000000" fill-rule="evenodd" fill-opacity="1" /><path clip-path="url(#clip642)" d="
M321.447 85.0853 L321.447 1346.46 L586.386 1346.46 L586.386 85.0853 L321.447 85.0853 L321.447 85.0853  Z
  " fill="#009af9" fill-rule="evenodd" fill-opacity="1"/>
<polyline clip-path="url(#clip642)" style="stroke:#000000; stroke-linecap:round; stroke-linejoin:round; stroke-width:4; stroke-opacity:1; fill:none" points="
  321.447,85.0853 321.447,1346.46 586.386,1346.46 586.386,85.0853 321.447,85.0853 
  "/>
<path clip-path="url(#clip642)" d="
M586.386 564.088 L586.386 1346.46 L851.325 1346.46 L851.325 564.088 L586.386 564.088 L586.386 564.088  Z
  " fill="#009af9" fill-rule="evenodd" fill-opacity="1"/>
<polyline clip-path="url(#clip642)" style="stroke:#000000; stroke-linecap:round; stroke-linejoin:round; stroke-width:4; stroke-opacity:1; fill:none" points="
  586.386,564.088 586.386,1346.46 851.325,1346.46 851.325,564.088 586.386,564.088 
  "/>
<path clip-path="url(#clip642)" d="
M851.325 675.855 L851.325 1346.46 L1116.26 1346.46 L1116.26 675.855 L851.325 675.855 L851.325 675.855  Z
  " fill="#009af9" fill-rule="evenodd" fill-opacity="1"/>
<polyline clip-path="url(#clip642)" style="stroke:#000000; stroke-linecap:round; stroke-linejoin:round; stroke-width:4; stroke-opacity:1; fill:none" points="
  851.325,675.855 851.325,1346.46 1116.26,1346.46 1116.26,675.855 851.325,675.855 
  "/>
<path clip-path="url(#clip642)" d="
M1116.26 1043.09 L1116.26 1346.46 L1381.2 1346.46 L1381.2 1043.09 L1116.26 1043.09 L1116.26 1043.09  Z
  " fill="#009af9" fill-rule="evenodd" fill-opacity="1"/>
<polyline clip-path="url(#clip642)" style="stroke:#000000; stroke-linecap:round; stroke-linejoin:round; stroke-width:4; stroke-opacity:1; fill:none" points="
  1116.26,1043.09 1116.26,1346.46 1381.2,1346.46 1381.2,1043.09 1116.26,1043.09 
  "/>
<path clip-path="url(#clip642)" d="
M1381.2 1027.12 L1381.2 1346.46 L1646.14 1346.46 L1646.14 1027.12 L1381.2 1027.12 L1381.2 1027.12  Z
  " fill="#009af9" fill-rule="evenodd" fill-opacity="1"/>
<polyline clip-path="url(#clip642)" style="stroke:#000000; stroke-linecap:round; stroke-linejoin:round; stroke-width:4; stroke-opacity:1; fill:none" points="
  1381.2,1027.12 1381.2,1346.46 1646.14,1346.46 1646.14,1027.12 1381.2,1027.12 
  "/>
<path clip-path="url(#clip642)" d="
M1646.14 1043.09 L1646.14 1346.46 L1911.08 1346.46 L1911.08 1043.09 L1646.14 1043.09 L1646.14 1043.09  Z
  " fill="#009af9" fill-rule="evenodd" fill-opacity="1"/>
<polyline clip-path="url(#clip642)" style="stroke:#000000; stroke-linecap:round; stroke-linejoin:round; stroke-width:4; stroke-opacity:1; fill:none" points="
  1646.14,1043.09 1646.14,1346.46 1911.08,1346.46 1911.08,1043.09 1646.14,1043.09 
  "/>
<path clip-path="url(#clip642)" d="
M1911.08 1234.69 L1911.08 1346.46 L2176.02 1346.46 L2176.02 1234.69 L1911.08 1234.69 L1911.08 1234.69  Z
  " fill="#009af9" fill-rule="evenodd" fill-opacity="1"/>
<polyline clip-path="url(#clip642)" style="stroke:#000000; stroke-linecap:round; stroke-linejoin:round; stroke-width:4; stroke-opacity:1; fill:none" points="
  1911.08,1234.69 1911.08,1346.46 2176.02,1346.46 2176.02,1234.69 1911.08,1234.69 
  "/>
<circle clip-path="url(#clip642)" style="fill:#009af9; stroke:none; fill-opacity:0" cx="453.917" cy="85.0853" r="2"/>
<circle clip-path="url(#clip642)" style="fill:#009af9; stroke:none; fill-opacity:0" cx="718.856" cy="564.088" r="2"/>
<circle clip-path="url(#clip642)" style="fill:#009af9; stroke:none; fill-opacity:0" cx="983.795" cy="675.855" r="2"/>
<circle clip-path="url(#clip642)" style="fill:#009af9; stroke:none; fill-opacity:0" cx="1248.73" cy="1043.09" r="2"/>
<circle clip-path="url(#clip642)" style="fill:#009af9; stroke:none; fill-opacity:0" cx="1513.67" cy="1027.12" r="2"/>
<circle clip-path="url(#clip642)" style="fill:#009af9; stroke:none; fill-opacity:0" cx="1778.61" cy="1043.09" r="2"/>
<circle clip-path="url(#clip642)" style="fill:#009af9; stroke:none; fill-opacity:0" cx="2043.55" cy="1234.69" r="2"/>
<polyline clip-path="url(#clip642)" style="stroke:#e26f46; stroke-linecap:round; stroke-linejoin:round; stroke-width:12; stroke-opacity:1; fill:none" points="
  321.447,173.237 334.277,183.351 452.901,275.84 524.189,330.502 584.463,376.163 649.936,425.172 710.297,469.793 775.011,517.02 849.987,570.921 916.618,618.063 
  975.047,658.796 1038.75,702.539 1102.83,745.817 1173.68,792.79 1241.1,836.592 1311.19,881.176 1370.19,917.912 1442.23,961.732 1508.22,1000.83 1569.17,1036 
  1630.9,1070.65 1700.1,1108.25 1762.79,1141.11 1834.58,1177.19 1901.04,1209 1966.57,1238.67 2030.19,1265.68 2062.8,1278.74 2095.42,1291.21 2131.14,1304.11 
  2166.87,1316.1 2218.77,1331.54 2270.68,1343.56 2281.32,1345.3 2291.97,1346.46 
  "/>
<path clip-path="url(#clip640)" d="
M634.525 325.093 L2281.16 325.093 L2281.16 91.8126 L634.525 91.8126  Z
  " fill="#ffffff" fill-rule="evenodd" fill-opacity="1"/>
<polyline clip-path="url(#clip640)" style="stroke:#000000; stroke-linecap:round; stroke-linejoin:round; stroke-width:4; stroke-opacity:1; fill:none" points="
  634.525,325.093 2281.16,325.093 2281.16,91.8126 634.525,91.8126 634.525,325.093 
  "/>
<path clip-path="url(#clip640)" d="
M658.388 200.677 L801.57 200.677 L801.57 138.469 L658.388 138.469 L658.388 200.677  Z
  " fill="#009af9" fill-rule="evenodd" fill-opacity="1"/>
<polyline clip-path="url(#clip640)" style="stroke:#000000; stroke-linecap:round; stroke-linejoin:round; stroke-width:6; stroke-opacity:1; fill:none" points="
  658.388,200.677 801.57,200.677 801.57,138.469 658.388,138.469 658.388,200.677 
  "/>
<path clip-path="url(#clip640)" d="M863.767 188.097 L863.767 174.173 L852.309 174.173 L852.309 168.409 L870.711 168.409 L870.711 190.666 Q866.649 193.548 861.753 195.041 Q856.857 196.5 851.302 196.5 Q839.149 196.5 832.274 189.416 Q825.434 182.298 825.434 169.625 Q825.434 156.916 832.274 149.833 Q839.149 142.715 851.302 142.715 Q856.371 142.715 860.92 143.965 Q865.503 145.215 869.357 147.646 L869.357 155.111 Q865.468 151.812 861.093 150.146 Q856.718 148.479 851.892 148.479 Q842.378 148.479 837.587 153.791 Q832.83 159.104 832.83 169.625 Q832.83 180.111 837.587 185.423 Q842.378 190.736 851.892 190.736 Q855.607 190.736 858.524 190.111 Q861.441 189.451 863.767 188.097 Z" fill="#000000" fill-rule="evenodd" fill-opacity="1" /><path clip-path="url(#clip640)" d="M900.92 175.944 Q893.177 175.944 890.19 177.715 Q887.204 179.486 887.204 183.757 Q887.204 187.159 889.427 189.173 Q891.684 191.152 895.538 191.152 Q900.85 191.152 904.045 187.402 Q907.274 183.618 907.274 177.368 L907.274 175.944 L900.92 175.944 M913.663 173.305 L913.663 195.493 L907.274 195.493 L907.274 189.59 Q905.086 193.132 901.822 194.833 Q898.559 196.5 893.836 196.5 Q887.864 196.5 884.322 193.166 Q880.816 189.798 880.816 184.173 Q880.816 177.611 885.191 174.277 Q889.6 170.944 898.315 170.944 L907.274 170.944 L907.274 170.319 Q907.274 165.909 904.357 163.514 Q901.475 161.083 896.232 161.083 Q892.899 161.083 889.739 161.882 Q886.579 162.68 883.663 164.278 L883.663 158.375 Q887.17 157.021 890.468 156.361 Q893.767 155.666 896.892 155.666 Q905.329 155.666 909.496 160.041 Q913.663 164.416 913.663 173.305 Z" fill="#000000" fill-rule="evenodd" fill-opacity="1" /><path clip-path="url(#clip640)" d="M926.163 180.145 L926.163 156.604 L932.551 156.604 L932.551 179.902 Q932.551 185.423 934.704 188.201 Q936.857 190.944 941.162 190.944 Q946.336 190.944 949.322 187.645 Q952.343 184.347 952.343 178.652 L952.343 156.604 L958.732 156.604 L958.732 195.493 L952.343 195.493 L952.343 189.52 Q950.017 193.062 946.926 194.798 Q943.871 196.5 939.808 196.5 Q933.107 196.5 929.635 192.333 Q926.163 188.166 926.163 180.145 M942.239 155.666 L942.239 155.666 Z" fill="#000000" fill-rule="evenodd" fill-opacity="1" /><path clip-path="url(#clip640)" d="M997.482 175.597 Q997.482 168.652 994.6 164.833 Q991.752 161.014 986.579 161.014 Q981.44 161.014 978.558 164.833 Q975.711 168.652 975.711 175.597 Q975.711 182.507 978.558 186.326 Q981.44 190.145 986.579 190.145 Q991.752 190.145 994.6 186.326 Q997.482 182.507 997.482 175.597 M1003.87 190.666 Q1003.87 200.597 999.461 205.423 Q995.051 210.284 985.954 210.284 Q982.586 210.284 979.6 209.763 Q976.614 209.277 973.801 208.236 L973.801 202.02 Q976.614 203.548 979.357 204.277 Q982.1 205.006 984.947 205.006 Q991.232 205.006 994.357 201.708 Q997.482 198.444 997.482 191.812 L997.482 188.652 Q995.502 192.09 992.412 193.791 Q989.322 195.493 985.016 195.493 Q977.864 195.493 973.489 190.041 Q969.114 184.59 969.114 175.597 Q969.114 166.569 973.489 161.118 Q977.864 155.666 985.016 155.666 Q989.322 155.666 992.412 157.368 Q995.502 159.069 997.482 162.507 L997.482 156.604 L1003.87 156.604 L1003.87 190.666 Z" fill="#000000" fill-rule="evenodd" fill-opacity="1" /><path clip-path="url(#clip640)" d="M1050.29 174.451 L1050.29 177.576 L1020.92 177.576 Q1021.34 184.173 1024.88 187.645 Q1028.45 191.083 1034.81 191.083 Q1038.49 191.083 1041.93 190.18 Q1045.4 189.277 1048.8 187.472 L1048.8 193.513 Q1045.36 194.972 1041.75 195.736 Q1038.14 196.5 1034.43 196.5 Q1025.12 196.5 1019.67 191.083 Q1014.25 185.666 1014.25 176.43 Q1014.25 166.882 1019.39 161.291 Q1024.56 155.666 1033.31 155.666 Q1041.16 155.666 1045.71 160.736 Q1050.29 165.771 1050.29 174.451 M1043.9 172.576 Q1043.84 167.333 1040.95 164.208 Q1038.11 161.083 1033.38 161.083 Q1028.04 161.083 1024.81 164.104 Q1021.61 167.125 1021.13 172.611 L1043.9 172.576 Z" fill="#000000" fill-rule="evenodd" fill-opacity="1" /><path clip-path="url(#clip640)" d="M1079.04 143.653 L1086.13 143.653 L1097.03 187.472 L1107.9 143.653 L1115.78 143.653 L1126.68 187.472 L1137.55 143.653 L1144.67 143.653 L1131.65 195.493 L1122.83 195.493 L1111.89 150.493 L1100.85 195.493 L1092.03 195.493 L1079.04 143.653 Z" fill="#000000" fill-rule="evenodd" fill-opacity="1" /><path clip-path="url(#clip640)" d="M1182.79 174.451 L1182.79 177.576 L1153.42 177.576 Q1153.83 184.173 1157.38 187.645 Q1160.95 191.083 1167.31 191.083 Q1170.99 191.083 1174.43 190.18 Q1177.9 189.277 1181.3 187.472 L1181.3 193.513 Q1177.86 194.972 1174.25 195.736 Q1170.64 196.5 1166.93 196.5 Q1157.62 196.5 1152.17 191.083 Q1146.75 185.666 1146.75 176.43 Q1146.75 166.882 1151.89 161.291 Q1157.06 155.666 1165.81 155.666 Q1173.66 155.666 1178.21 160.736 Q1182.79 165.771 1182.79 174.451 M1176.4 172.576 Q1176.33 167.333 1173.45 164.208 Q1170.61 161.083 1165.88 161.083 Q1160.54 161.083 1157.31 164.104 Q1154.11 167.125 1153.63 172.611 L1176.4 172.576 Z" fill="#000000" fill-rule="evenodd" fill-opacity="1" /><path clip-path="url(#clip640)" d="M1210.95 175.944 Q1203.21 175.944 1200.22 177.715 Q1197.24 179.486 1197.24 183.757 Q1197.24 187.159 1199.46 189.173 Q1201.72 191.152 1205.57 191.152 Q1210.88 191.152 1214.08 187.402 Q1217.31 183.618 1217.31 177.368 L1217.31 175.944 L1210.95 175.944 M1223.7 173.305 L1223.7 195.493 L1217.31 195.493 L1217.31 189.59 Q1215.12 193.132 1211.86 194.833 Q1208.59 196.5 1203.87 196.5 Q1197.9 196.5 1194.36 193.166 Q1190.85 189.798 1190.85 184.173 Q1190.85 177.611 1195.22 174.277 Q1199.63 170.944 1208.35 170.944 L1217.31 170.944 L1217.31 170.319 Q1217.31 165.909 1214.39 163.514 Q1211.51 161.083 1206.27 161.083 Q1202.93 161.083 1199.77 161.882 Q1196.61 162.68 1193.7 164.278 L1193.7 158.375 Q1197.2 157.021 1200.5 156.361 Q1203.8 155.666 1206.92 155.666 Q1215.36 155.666 1219.53 160.041 Q1223.7 164.416 1223.7 173.305 Z" fill="#000000" fill-rule="evenodd" fill-opacity="1" /><path clip-path="url(#clip640)" d="M1243.17 145.562 L1243.17 156.604 L1256.33 156.604 L1256.33 161.569 L1243.17 161.569 L1243.17 182.68 Q1243.17 187.437 1244.46 188.791 Q1245.78 190.145 1249.77 190.145 L1256.33 190.145 L1256.33 195.493 L1249.77 195.493 Q1242.38 195.493 1239.56 192.75 Q1236.75 189.972 1236.75 182.68 L1236.75 161.569 L1232.06 161.569 L1232.06 156.604 L1236.75 156.604 L1236.75 145.562 L1243.17 145.562 Z" fill="#000000" fill-rule="evenodd" fill-opacity="1" /><path clip-path="url(#clip640)" d="M1297.06 172.021 L1297.06 195.493 L1290.67 195.493 L1290.67 172.229 Q1290.67 166.708 1288.52 163.965 Q1286.37 161.222 1282.06 161.222 Q1276.89 161.222 1273.9 164.521 Q1270.92 167.819 1270.92 173.514 L1270.92 195.493 L1264.49 195.493 L1264.49 141.465 L1270.92 141.465 L1270.92 162.646 Q1273.21 159.139 1276.3 157.403 Q1279.42 155.666 1283.49 155.666 Q1290.19 155.666 1293.63 159.833 Q1297.06 163.965 1297.06 172.021 Z" fill="#000000" fill-rule="evenodd" fill-opacity="1" /><path clip-path="url(#clip640)" d="M1343.07 174.451 L1343.07 177.576 L1313.7 177.576 Q1314.11 184.173 1317.65 187.645 Q1321.23 191.083 1327.58 191.083 Q1331.26 191.083 1334.7 190.18 Q1338.17 189.277 1341.58 187.472 L1341.58 193.513 Q1338.14 194.972 1334.53 195.736 Q1330.92 196.5 1327.2 196.5 Q1317.9 196.5 1312.45 191.083 Q1307.03 185.666 1307.03 176.43 Q1307.03 166.882 1312.17 161.291 Q1317.34 155.666 1326.09 155.666 Q1333.94 155.666 1338.49 160.736 Q1343.07 165.771 1343.07 174.451 M1336.68 172.576 Q1336.61 167.333 1333.73 164.208 Q1330.88 161.083 1326.16 161.083 Q1320.81 161.083 1317.58 164.104 Q1314.39 167.125 1313.9 172.611 L1336.68 172.576 Z" fill="#000000" fill-rule="evenodd" fill-opacity="1" /><path clip-path="url(#clip640)" d="M1376.09 162.576 Q1375.01 161.951 1373.73 161.673 Q1372.48 161.361 1370.95 161.361 Q1365.54 161.361 1362.62 164.903 Q1359.74 168.409 1359.74 175.007 L1359.74 195.493 L1353.31 195.493 L1353.31 156.604 L1359.74 156.604 L1359.74 162.646 Q1361.75 159.104 1364.98 157.403 Q1368.21 155.666 1372.83 155.666 Q1373.49 155.666 1374.29 155.771 Q1375.08 155.84 1376.06 156.014 L1376.09 162.576 Z" fill="#000000" fill-rule="evenodd" fill-opacity="1" /><path clip-path="url(#clip640)" d="M1405.67 143.653 L1438.45 143.653 L1438.45 149.555 L1412.69 149.555 L1412.69 164.903 L1437.38 164.903 L1437.38 170.805 L1412.69 170.805 L1412.69 189.59 L1439.08 189.59 L1439.08 195.493 L1405.67 195.493 L1405.67 143.653 Z" fill="#000000" fill-rule="evenodd" fill-opacity="1" /><path clip-path="url(#clip640)" d="M1482.65 156.604 L1468.59 175.527 L1483.38 195.493 L1475.85 195.493 L1464.53 180.215 L1453.21 195.493 L1445.67 195.493 L1460.78 175.146 L1446.96 156.604 L1454.49 156.604 L1464.81 170.458 L1475.12 156.604 L1482.65 156.604 Z" fill="#000000" fill-rule="evenodd" fill-opacity="1" /><path clip-path="url(#clip640)" d="M1519.15 158.097 L1519.15 164.069 Q1516.44 162.576 1513.69 161.847 Q1510.99 161.083 1508.21 161.083 Q1501.99 161.083 1498.56 165.041 Q1495.12 168.965 1495.12 176.083 Q1495.12 183.201 1498.56 187.159 Q1501.99 191.083 1508.21 191.083 Q1510.99 191.083 1513.69 190.354 Q1516.44 189.59 1519.15 188.097 L1519.15 194 Q1516.47 195.25 1513.59 195.875 Q1510.74 196.5 1507.51 196.5 Q1498.73 196.5 1493.56 190.979 Q1488.38 185.458 1488.38 176.083 Q1488.38 166.569 1493.59 161.118 Q1498.83 155.666 1507.93 155.666 Q1510.88 155.666 1513.69 156.291 Q1516.51 156.882 1519.15 158.097 Z" fill="#000000" fill-rule="evenodd" fill-opacity="1" /><path clip-path="url(#clip640)" d="M1563.52 174.451 L1563.52 177.576 L1534.15 177.576 Q1534.56 184.173 1538.1 187.645 Q1541.68 191.083 1548.03 191.083 Q1551.71 191.083 1555.15 190.18 Q1558.62 189.277 1562.03 187.472 L1562.03 193.513 Q1558.59 194.972 1554.98 195.736 Q1551.37 196.5 1547.65 196.5 Q1538.35 196.5 1532.9 191.083 Q1527.48 185.666 1527.48 176.43 Q1527.48 166.882 1532.62 161.291 Q1537.79 155.666 1546.54 155.666 Q1554.39 155.666 1558.94 160.736 Q1563.52 165.771 1563.52 174.451 M1557.13 172.576 Q1557.06 167.333 1554.18 164.208 Q1551.33 161.083 1546.61 161.083 Q1541.26 161.083 1538.03 164.104 Q1534.84 167.125 1534.35 172.611 L1557.13 172.576 Z" fill="#000000" fill-rule="evenodd" fill-opacity="1" /><path clip-path="url(#clip640)" d="M1607.27 174.451 L1607.27 177.576 L1577.9 177.576 Q1578.31 184.173 1581.85 187.645 Q1585.43 191.083 1591.78 191.083 Q1595.46 191.083 1598.9 190.18 Q1602.37 189.277 1605.78 187.472 L1605.78 193.513 Q1602.34 194.972 1598.73 195.736 Q1595.12 196.5 1591.4 196.5 Q1582.1 196.5 1576.65 191.083 Q1571.23 185.666 1571.23 176.43 Q1571.23 166.882 1576.37 161.291 Q1581.54 155.666 1590.29 155.666 Q1598.14 155.666 1602.69 160.736 Q1607.27 165.771 1607.27 174.451 M1600.88 172.576 Q1600.81 167.333 1597.93 164.208 Q1595.08 161.083 1590.36 161.083 Q1585.01 161.083 1581.78 164.104 Q1578.59 167.125 1578.1 172.611 L1600.88 172.576 Z" fill="#000000" fill-rule="evenodd" fill-opacity="1" /><path clip-path="url(#clip640)" d="M1643.35 162.507 L1643.35 141.465 L1649.74 141.465 L1649.74 195.493 L1643.35 195.493 L1643.35 189.659 Q1641.33 193.132 1638.24 194.833 Q1635.19 196.5 1630.88 196.5 Q1623.83 196.5 1619.39 190.875 Q1614.98 185.25 1614.98 176.083 Q1614.98 166.916 1619.39 161.291 Q1623.83 155.666 1630.88 155.666 Q1635.19 155.666 1638.24 157.368 Q1641.33 159.034 1643.35 162.507 M1621.58 176.083 Q1621.58 183.132 1624.46 187.159 Q1627.37 191.152 1632.44 191.152 Q1637.51 191.152 1640.43 187.159 Q1643.35 183.132 1643.35 176.083 Q1643.35 169.034 1640.43 165.041 Q1637.51 161.014 1632.44 161.014 Q1627.37 161.014 1624.46 165.041 Q1621.58 169.034 1621.58 176.083 Z" fill="#000000" fill-rule="evenodd" fill-opacity="1" /><path clip-path="url(#clip640)" d="M1680.57 175.944 Q1672.83 175.944 1669.84 177.715 Q1666.85 179.486 1666.85 183.757 Q1666.85 187.159 1669.08 189.173 Q1671.33 191.152 1675.19 191.152 Q1680.5 191.152 1683.69 187.402 Q1686.92 183.618 1686.92 177.368 L1686.92 175.944 L1680.57 175.944 M1693.31 173.305 L1693.31 195.493 L1686.92 195.493 L1686.92 189.59 Q1684.73 193.132 1681.47 194.833 Q1678.21 196.5 1673.48 196.5 Q1667.51 196.5 1663.97 193.166 Q1660.46 189.798 1660.46 184.173 Q1660.46 177.611 1664.84 174.277 Q1669.25 170.944 1677.96 170.944 L1686.92 170.944 L1686.92 170.319 Q1686.92 165.909 1684.01 163.514 Q1681.12 161.083 1675.88 161.083 Q1672.55 161.083 1669.39 161.882 Q1666.23 162.68 1663.31 164.278 L1663.31 158.375 Q1666.82 157.021 1670.12 156.361 Q1673.42 155.666 1676.54 155.666 Q1684.98 155.666 1689.14 160.041 Q1693.31 164.416 1693.31 173.305 Z" fill="#000000" fill-rule="evenodd" fill-opacity="1" /><path clip-path="url(#clip640)" d="M1738.8 172.021 L1738.8 195.493 L1732.41 195.493 L1732.41 172.229 Q1732.41 166.708 1730.26 163.965 Q1728.1 161.222 1723.8 161.222 Q1718.62 161.222 1715.64 164.521 Q1712.65 167.819 1712.65 173.514 L1712.65 195.493 L1706.23 195.493 L1706.23 156.604 L1712.65 156.604 L1712.65 162.646 Q1714.94 159.139 1718.03 157.403 Q1721.16 155.666 1725.22 155.666 Q1731.92 155.666 1735.36 159.833 Q1738.8 163.965 1738.8 172.021 Z" fill="#000000" fill-rule="evenodd" fill-opacity="1" /><path clip-path="url(#clip640)" d="M1779.53 158.097 L1779.53 164.069 Q1776.82 162.576 1774.07 161.847 Q1771.37 161.083 1768.59 161.083 Q1762.37 161.083 1758.94 165.041 Q1755.5 168.965 1755.5 176.083 Q1755.5 183.201 1758.94 187.159 Q1762.37 191.083 1768.59 191.083 Q1771.37 191.083 1774.07 190.354 Q1776.82 189.59 1779.53 188.097 L1779.53 194 Q1776.85 195.25 1773.97 195.875 Q1771.12 196.5 1767.89 196.5 Q1759.11 196.5 1753.94 190.979 Q1748.76 185.458 1748.76 176.083 Q1748.76 166.569 1753.97 161.118 Q1759.21 155.666 1768.31 155.666 Q1771.26 155.666 1774.07 156.291 Q1776.89 156.882 1779.53 158.097 Z" fill="#000000" fill-rule="evenodd" fill-opacity="1" /><path clip-path="url(#clip640)" d="M1823.9 174.451 L1823.9 177.576 L1794.53 177.576 Q1794.94 184.173 1798.48 187.645 Q1802.06 191.083 1808.41 191.083 Q1812.1 191.083 1815.53 190.18 Q1819 189.277 1822.41 187.472 L1822.41 193.513 Q1818.97 194.972 1815.36 195.736 Q1811.75 196.5 1808.03 196.5 Q1798.73 196.5 1793.28 191.083 Q1787.86 185.666 1787.86 176.43 Q1787.86 166.882 1793 161.291 Q1798.17 155.666 1806.92 155.666 Q1814.77 155.666 1819.32 160.736 Q1823.9 165.771 1823.9 174.451 M1817.51 172.576 Q1817.44 167.333 1814.56 164.208 Q1811.71 161.083 1806.99 161.083 Q1801.64 161.083 1798.41 164.104 Q1795.22 167.125 1794.73 172.611 L1817.51 172.576 Z" fill="#000000" fill-rule="evenodd" fill-opacity="1" /><path clip-path="url(#clip640)" d="M1859.18 157.75 L1859.18 163.791 Q1856.47 162.403 1853.55 161.708 Q1850.64 161.014 1847.51 161.014 Q1842.75 161.014 1840.36 162.472 Q1838 163.93 1838 166.847 Q1838 169.069 1839.7 170.354 Q1841.4 171.604 1846.54 172.75 L1848.73 173.236 Q1855.53 174.694 1858.38 177.368 Q1861.26 180.007 1861.26 184.764 Q1861.26 190.18 1856.96 193.34 Q1852.69 196.5 1845.19 196.5 Q1842.06 196.5 1838.66 195.875 Q1835.29 195.284 1831.54 194.069 L1831.54 187.472 Q1835.08 189.312 1838.52 190.25 Q1841.96 191.152 1845.32 191.152 Q1849.84 191.152 1852.27 189.625 Q1854.7 188.062 1854.7 185.25 Q1854.7 182.645 1852.93 181.257 Q1851.19 179.868 1845.25 178.583 L1843.03 178.062 Q1837.1 176.812 1834.46 174.243 Q1831.82 171.639 1831.82 167.125 Q1831.82 161.639 1835.71 158.653 Q1839.6 155.666 1846.75 155.666 Q1850.29 155.666 1853.41 156.187 Q1856.54 156.708 1859.18 157.75 Z" fill="#000000" fill-rule="evenodd" fill-opacity="1" /><path clip-path="url(#clip640)" d="M1915.36 148.41 Q1907.72 148.41 1903.21 154.104 Q1898.73 159.798 1898.73 169.625 Q1898.73 179.416 1903.21 185.111 Q1907.72 190.805 1915.36 190.805 Q1923 190.805 1927.44 185.111 Q1931.92 179.416 1931.92 169.625 Q1931.92 159.798 1927.44 154.104 Q1923 148.41 1915.36 148.41 M1915.36 142.715 Q1926.26 142.715 1932.79 150.041 Q1939.32 157.333 1939.32 169.625 Q1939.32 181.882 1932.79 189.208 Q1926.26 196.5 1915.36 196.5 Q1904.42 196.5 1897.86 189.208 Q1891.33 181.916 1891.33 169.625 Q1891.33 157.333 1897.86 150.041 Q1904.42 142.715 1915.36 142.715 Z" fill="#000000" fill-rule="evenodd" fill-opacity="1" /><path clip-path="url(#clip640)" d="M1945.43 156.604 L1952.2 156.604 L1964.35 189.243 L1976.5 156.604 L1983.27 156.604 L1968.69 195.493 L1960.01 195.493 L1945.43 156.604 Z" fill="#000000" fill-rule="evenodd" fill-opacity="1" /><path clip-path="url(#clip640)" d="M2025.36 174.451 L2025.36 177.576 L1995.98 177.576 Q1996.4 184.173 1999.94 187.645 Q2003.52 191.083 2009.87 191.083 Q2013.55 191.083 2016.99 190.18 Q2020.46 189.277 2023.86 187.472 L2023.86 193.513 Q2020.43 194.972 2016.82 195.736 Q2013.21 196.5 2009.49 196.5 Q2000.18 196.5 1994.73 191.083 Q1989.32 185.666 1989.32 176.43 Q1989.32 166.882 1994.46 161.291 Q1999.63 155.666 2008.38 155.666 Q2016.23 155.666 2020.77 160.736 Q2025.36 165.771 2025.36 174.451 M2018.97 172.576 Q2018.9 167.333 2016.02 164.208 Q2013.17 161.083 2008.45 161.083 Q2003.1 161.083 1999.87 164.104 Q1996.68 167.125 1996.19 172.611 L2018.97 172.576 Z" fill="#000000" fill-rule="evenodd" fill-opacity="1" /><path clip-path="url(#clip640)" d="M2058.38 162.576 Q2057.3 161.951 2056.02 161.673 Q2054.77 161.361 2053.24 161.361 Q2047.82 161.361 2044.91 164.903 Q2042.02 168.409 2042.02 175.007 L2042.02 195.493 L2035.6 195.493 L2035.6 156.604 L2042.02 156.604 L2042.02 162.646 Q2044.04 159.104 2047.27 157.403 Q2050.5 155.666 2055.11 155.666 Q2055.77 155.666 2056.57 155.771 Q2057.37 155.84 2058.34 156.014 L2058.38 162.576 Z" fill="#000000" fill-rule="evenodd" fill-opacity="1" /><path clip-path="url(#clip640)" d="M2103.59 148.271 Q2098.17 148.271 2095.43 153.618 Q2092.72 158.93 2092.72 169.625 Q2092.72 180.284 2095.43 185.632 Q2098.17 190.944 2103.59 190.944 Q2109.04 190.944 2111.75 185.632 Q2114.49 180.284 2114.49 169.625 Q2114.49 158.93 2111.75 153.618 Q2109.04 148.271 2103.59 148.271 M2103.59 142.715 Q2112.3 142.715 2116.89 149.625 Q2121.5 156.5 2121.5 169.625 Q2121.5 182.715 2116.89 189.625 Q2112.3 196.5 2103.59 196.5 Q2094.87 196.5 2090.25 189.625 Q2085.67 182.715 2085.67 169.625 Q2085.67 156.5 2090.25 149.625 Q2094.87 142.715 2103.59 142.715 Z" fill="#000000" fill-rule="evenodd" fill-opacity="1" /><path clip-path="url(#clip640)" d="M2133.83 186.673 L2141.16 186.673 L2141.16 195.493 L2133.83 195.493 L2133.83 186.673 Z" fill="#000000" fill-rule="evenodd" fill-opacity="1" /><path clip-path="url(#clip640)" d="M2156.5 143.653 L2184.04 143.653 L2184.04 149.555 L2162.93 149.555 L2162.93 162.264 Q2164.45 161.743 2165.98 161.5 Q2167.51 161.222 2169.04 161.222 Q2177.72 161.222 2182.79 165.979 Q2187.86 170.736 2187.86 178.861 Q2187.86 187.229 2182.65 191.882 Q2177.44 196.5 2167.96 196.5 Q2164.7 196.5 2161.29 195.944 Q2157.93 195.388 2154.32 194.277 L2154.32 187.229 Q2157.44 188.93 2160.77 189.763 Q2164.11 190.597 2167.82 190.597 Q2173.83 190.597 2177.34 187.437 Q2180.84 184.277 2180.84 178.861 Q2180.84 173.444 2177.34 170.284 Q2173.83 167.125 2167.82 167.125 Q2165.01 167.125 2162.2 167.75 Q2159.42 168.375 2156.5 169.694 L2156.5 143.653 Z" fill="#000000" fill-rule="evenodd" fill-opacity="1" /><path clip-path="url(#clip640)" d="M2231.05 164.069 Q2233.45 159.764 2236.78 157.715 Q2240.11 155.666 2244.63 155.666 Q2250.7 155.666 2254 159.937 Q2257.3 164.173 2257.3 172.021 L2257.3 195.493 L2250.88 195.493 L2250.88 172.229 Q2250.88 166.639 2248.9 163.93 Q2246.92 161.222 2242.86 161.222 Q2237.89 161.222 2235.01 164.521 Q2232.13 167.819 2232.13 173.514 L2232.13 195.493 L2225.7 195.493 L2225.7 172.229 Q2225.7 166.604 2223.73 163.93 Q2221.75 161.222 2217.61 161.222 Q2212.72 161.222 2209.84 164.555 Q2206.95 167.854 2206.95 173.514 L2206.95 195.493 L2200.53 195.493 L2200.53 156.604 L2206.95 156.604 L2206.95 162.646 Q2209.14 159.069 2212.2 157.368 Q2215.25 155.666 2219.45 155.666 Q2223.69 155.666 2226.64 157.819 Q2229.63 159.972 2231.05 164.069 Z" fill="#000000" fill-rule="evenodd" fill-opacity="1" /><polyline clip-path="url(#clip640)" style="stroke:#e26f46; stroke-linecap:round; stroke-linejoin:round; stroke-width:18; stroke-opacity:1; fill:none" points="
  658.388,247.333 801.57,247.333 
  "/>
<path clip-path="url(#clip640)" d="M863.767 265.857 L863.767 251.933 L852.309 251.933 L852.309 246.169 L870.711 246.169 L870.711 268.426 Q866.649 271.308 861.753 272.801 Q856.857 274.26 851.302 274.26 Q839.149 274.26 832.274 267.176 Q825.434 260.058 825.434 247.385 Q825.434 234.676 832.274 227.593 Q839.149 220.475 851.302 220.475 Q856.371 220.475 860.92 221.725 Q865.503 222.975 869.357 225.406 L869.357 232.871 Q865.468 229.572 861.093 227.906 Q856.718 226.239 851.892 226.239 Q842.378 226.239 837.587 231.551 Q832.83 236.864 832.83 247.385 Q832.83 257.871 837.587 263.183 Q842.378 268.496 851.892 268.496 Q855.607 268.496 858.524 267.871 Q861.441 267.211 863.767 265.857 Z" fill="#000000" fill-rule="evenodd" fill-opacity="1" /><path clip-path="url(#clip640)" d="M890.538 227.176 L890.538 246.656 L899.357 246.656 Q904.253 246.656 906.927 244.121 Q909.6 241.586 909.6 236.899 Q909.6 232.246 906.927 229.711 Q904.253 227.176 899.357 227.176 L890.538 227.176 M883.524 221.413 L899.357 221.413 Q908.072 221.413 912.517 225.371 Q916.996 229.295 916.996 236.899 Q916.996 244.572 912.517 248.496 Q908.072 252.419 899.357 252.419 L890.538 252.419 L890.538 273.253 L883.524 273.253 L883.524 221.413 Z" fill="#000000" fill-rule="evenodd" fill-opacity="1" /><path clip-path="url(#clip640)" d="M949.01 221.413 L978.801 221.413 L978.801 227.315 L956.023 227.315 L956.023 242.593 L976.579 242.593 L976.579 248.496 L956.023 248.496 L956.023 273.253 L949.01 273.253 L949.01 221.413 Z" fill="#000000" fill-rule="evenodd" fill-opacity="1" /><path clip-path="url(#clip640)" d="M984.461 234.364 L990.85 234.364 L990.85 273.253 L984.461 273.253 L984.461 234.364 M984.461 219.225 L990.85 219.225 L990.85 227.315 L984.461 227.315 L984.461 219.225 Z" fill="#000000" fill-rule="evenodd" fill-opacity="1" /><path clip-path="url(#clip640)" d="M1010.54 223.322 L1010.54 234.364 L1023.7 234.364 L1023.7 239.329 L1010.54 239.329 L1010.54 260.44 Q1010.54 265.197 1011.82 266.551 Q1013.14 267.905 1017.13 267.905 L1023.7 267.905 L1023.7 273.253 L1017.13 273.253 Q1009.74 273.253 1006.93 270.51 Q1004.11 267.732 1004.11 260.44 L1004.11 239.329 L999.426 239.329 L999.426 234.364 L1004.11 234.364 L1004.11 223.322 L1010.54 223.322 Z" fill="#000000" fill-rule="evenodd" fill-opacity="1" /></svg>
