<?xml version="1.0" encoding="utf-8"?>
<svg xmlns="http://www.w3.org/2000/svg" xmlns:xlink="http://www.w3.org/1999/xlink" width="600" height="400" viewBox="0 0 2400 1600">
<defs>
  <clipPath id="clip960">
    <rect x="0" y="0" width="2400" height="1600"/>
  </clipPath>
</defs>
<path clip-path="url(#clip960)" d="
M0 1600 L2400 1600 L2400 0 L0 0  Z
  " fill="#ffffff" fill-rule="evenodd" fill-opacity="1"/>
<defs>
  <clipPath id="clip961">
    <rect x="480" y="0" width="1681" height="1600"/>
  </clipPath>
</defs>
<defs>
  <clipPath id="clip962">
    <rect x="312" y="47" width="2042" height="1347"/>
  </clipPath>
</defs>
<path clip-path="url(#clip960)" d="
M312.143 1392.94 L2352.76 1392.94 L2352.76 47.2441 L312.143 47.2441  Z
  " fill="#ffffff" fill-rule="evenodd" fill-opacity="1"/>
<polyline clip-path="url(#clip962)" style="stroke:#000000; stroke-linecap:round; stroke-linejoin:round; stroke-width:2; stroke-opacity:0.1; fill:none" points="
  369.896,1392.94 369.896,47.2441 
  "/>
<polyline clip-path="url(#clip962)" style="stroke:#000000; stroke-linecap:round; stroke-linejoin:round; stroke-width:2; stroke-opacity:0.1; fill:none" points="
  690.747,1392.94 690.747,47.2441 
  "/>
<polyline clip-path="url(#clip962)" style="stroke:#000000; stroke-linecap:round; stroke-linejoin:round; stroke-width:2; stroke-opacity:0.1; fill:none" points="
  1011.6,1392.94 1011.6,47.2441 
  "/>
<polyline clip-path="url(#clip962)" style="stroke:#000000; stroke-linecap:round; stroke-linejoin:round; stroke-width:2; stroke-opacity:0.1; fill:none" points="
  1332.45,1392.94 1332.45,47.2441 
  "/>
<polyline clip-path="url(#clip962)" style="stroke:#000000; stroke-linecap:round; stroke-linejoin:round; stroke-width:2; stroke-opacity:0.1; fill:none" points="
  1653.3,1392.94 1653.3,47.2441 
  "/>
<polyline clip-path="url(#clip962)" style="stroke:#000000; stroke-linecap:round; stroke-linejoin:round; stroke-width:2; stroke-opacity:0.1; fill:none" points="
  1974.15,1392.94 1974.15,47.2441 
  "/>
<polyline clip-path="url(#clip962)" style="stroke:#000000; stroke-linecap:round; stroke-linejoin:round; stroke-width:2; stroke-opacity:0.1; fill:none" points="
  2295,1392.94 2295,47.2441 
  "/>
<polyline clip-path="url(#clip960)" style="stroke:#000000; stroke-linecap:round; stroke-linejoin:round; stroke-width:4; stroke-opacity:1; fill:none" points="
  312.143,1392.94 2352.76,1392.94 
  "/>
<polyline clip-path="url(#clip960)" style="stroke:#000000; stroke-linecap:round; stroke-linejoin:round; stroke-width:4; stroke-opacity:1; fill:none" points="
  369.896,1392.94 369.896,1374.04 
  "/>
<polyline clip-path="url(#clip960)" style="stroke:#000000; stroke-linecap:round; stroke-linejoin:round; stroke-width:4; stroke-opacity:1; fill:none" points="
  690.747,1392.94 690.747,1374.04 
  "/>
<polyline clip-path="url(#clip960)" style="stroke:#000000; stroke-linecap:round; stroke-linejoin:round; stroke-width:4; stroke-opacity:1; fill:none" points="
  1011.6,1392.94 1011.6,1374.04 
  "/>
<polyline clip-path="url(#clip960)" style="stroke:#000000; stroke-linecap:round; stroke-linejoin:round; stroke-width:4; stroke-opacity:1; fill:none" points="
  1332.45,1392.94 1332.45,1374.04 
  "/>
<polyline clip-path="url(#clip960)" style="stroke:#000000; stroke-linecap:round; stroke-linejoin:round; stroke-width:4; stroke-opacity:1; fill:none" points="
  1653.3,1392.94 1653.3,1374.04 
  "/>
<polyline clip-path="url(#clip960)" style="stroke:#000000; stroke-linecap:round; stroke-linejoin:round; stroke-width:4; stroke-opacity:1; fill:none" points="
  1974.15,1392.94 1974.15,1374.04 
  "/>
<polyline clip-path="url(#clip960)" style="stroke:#000000; stroke-linecap:round; stroke-linejoin:round; stroke-width:4; stroke-opacity:1; fill:none" points="
  2295,1392.94 2295,1374.04 
  "/>
<path clip-path="url(#clip960)" d="M369.896 1429.72 Q364.48 1429.72 361.736 1435.07 Q359.028 1440.38 359.028 1451.07 Q359.028 1461.73 361.736 1467.08 Q364.48 1472.39 369.896 1472.39 Q375.348 1472.39 378.056 1467.08 Q380.799 1461.73 380.799 1451.07 Q380.799 1440.38 378.056 1435.07 Q375.348 1429.72 369.896 1429.72 M369.896 1424.16 Q378.611 1424.16 383.195 1431.07 Q387.813 1437.95 387.813 1451.07 Q387.813 1464.16 383.195 1471.07 Q378.611 1477.95 369.896 1477.95 Q361.181 1477.95 356.563 1471.07 Q351.98 1464.16 351.98 1451.07 Q351.98 1437.95 356.563 1431.07 Q361.181 1424.16 369.896 1424.16 Z" fill="#000000" fill-rule="evenodd" fill-opacity="1" /><path clip-path="url(#clip960)" d="M676.32 1471.04 L687.779 1471.04 L687.779 1431.49 L675.313 1433.99 L675.313 1427.6 L687.709 1425.1 L694.723 1425.1 L694.723 1471.04 L706.181 1471.04 L706.181 1476.94 L676.32 1476.94 L676.32 1471.04 Z" fill="#000000" fill-rule="evenodd" fill-opacity="1" /><path clip-path="url(#clip960)" d="M1003.58 1471.04 L1028.06 1471.04 L1028.06 1476.94 L995.14 1476.94 L995.14 1471.04 Q999.133 1466.91 1006.01 1459.96 Q1012.92 1452.98 1014.69 1450.97 Q1018.06 1447.18 1019.38 1444.58 Q1020.73 1441.94 1020.73 1439.41 Q1020.73 1435.27 1017.81 1432.67 Q1014.93 1430.07 1010.28 1430.07 Q1006.98 1430.07 1003.3 1431.21 Q999.654 1432.36 995.487 1434.68 L995.487 1427.6 Q999.723 1425.9 1003.4 1425.03 Q1007.08 1424.16 1010.14 1424.16 Q1018.2 1424.16 1022.99 1428.19 Q1027.78 1432.22 1027.78 1438.95 Q1027.78 1442.15 1026.56 1445.03 Q1025.38 1447.88 1022.22 1451.77 Q1021.36 1452.77 1016.7 1457.6 Q1012.05 1462.39 1003.58 1471.04 Z" fill="#000000" fill-rule="evenodd" fill-opacity="1" /><path clip-path="url(#clip960)" d="M1338.82 1448.99 Q1343.86 1450.06 1346.67 1453.47 Q1349.52 1456.87 1349.52 1461.87 Q1349.52 1469.54 1344.24 1473.75 Q1338.96 1477.95 1329.24 1477.95 Q1325.97 1477.95 1322.5 1477.29 Q1319.06 1476.66 1315.38 1475.38 L1315.38 1468.61 Q1318.3 1470.31 1321.77 1471.18 Q1325.24 1472.04 1329.03 1472.04 Q1335.63 1472.04 1339.06 1469.44 Q1342.54 1466.84 1342.54 1461.87 Q1342.54 1457.29 1339.31 1454.72 Q1336.11 1452.11 1330.38 1452.11 L1324.34 1452.11 L1324.34 1446.35 L1330.66 1446.35 Q1335.83 1446.35 1338.58 1444.3 Q1341.32 1442.22 1341.32 1438.33 Q1341.32 1434.34 1338.47 1432.22 Q1335.66 1430.07 1330.38 1430.07 Q1327.5 1430.07 1324.2 1430.69 Q1320.9 1431.32 1316.95 1432.63 L1316.95 1426.38 Q1320.94 1425.27 1324.41 1424.72 Q1327.92 1424.16 1331.01 1424.16 Q1338.99 1424.16 1343.65 1427.81 Q1348.3 1431.42 1348.3 1437.6 Q1348.3 1441.91 1345.83 1444.89 Q1343.37 1447.84 1338.82 1448.99 Z" fill="#000000" fill-rule="evenodd" fill-opacity="1" /><path clip-path="url(#clip960)" d="M1657.81 1431.21 L1640.11 1458.88 L1657.81 1458.88 L1657.81 1431.21 M1655.97 1425.1 L1664.79 1425.1 L1664.79 1458.88 L1672.19 1458.88 L1672.19 1464.72 L1664.79 1464.72 L1664.79 1476.94 L1657.81 1476.94 L1657.81 1464.72 L1634.41 1464.72 L1634.41 1457.95 L1655.97 1425.1 Z" fill="#000000" fill-rule="evenodd" fill-opacity="1" /><path clip-path="url(#clip960)" d="M1959.57 1425.1 L1987.1 1425.1 L1987.1 1431 L1965.99 1431 L1965.99 1443.71 Q1967.52 1443.19 1969.05 1442.95 Q1970.58 1442.67 1972.1 1442.67 Q1980.78 1442.67 1985.85 1447.43 Q1990.92 1452.18 1990.92 1460.31 Q1990.92 1468.68 1985.71 1473.33 Q1980.51 1477.95 1971.03 1477.95 Q1967.76 1477.95 1964.36 1477.39 Q1960.99 1476.84 1957.38 1475.72 L1957.38 1468.68 Q1960.51 1470.38 1963.84 1471.21 Q1967.17 1472.04 1970.89 1472.04 Q1976.89 1472.04 1980.4 1468.88 Q1983.91 1465.72 1983.91 1460.31 Q1983.91 1454.89 1980.4 1451.73 Q1976.89 1448.57 1970.89 1448.57 Q1968.08 1448.57 1965.26 1449.2 Q1962.49 1449.82 1959.57 1451.14 L1959.57 1425.1 Z" fill="#000000" fill-rule="evenodd" fill-opacity="1" /><path clip-path="url(#clip960)" d="M2295.61 1448.22 Q2290.89 1448.22 2288.11 1451.45 Q2285.37 1454.68 2285.37 1460.31 Q2285.37 1465.9 2288.11 1469.16 Q2290.89 1472.39 2295.61 1472.39 Q2300.33 1472.39 2303.08 1469.16 Q2305.85 1465.9 2305.85 1460.31 Q2305.85 1454.68 2303.08 1451.45 Q2300.33 1448.22 2295.61 1448.22 M2309.53 1426.25 L2309.53 1432.63 Q2306.9 1431.38 2304.19 1430.72 Q2301.51 1430.07 2298.87 1430.07 Q2291.93 1430.07 2288.25 1434.75 Q2284.6 1439.44 2284.08 1448.92 Q2286.13 1445.9 2289.22 1444.3 Q2292.31 1442.67 2296.03 1442.67 Q2303.84 1442.67 2308.35 1447.43 Q2312.9 1452.15 2312.9 1460.31 Q2312.9 1468.29 2308.18 1473.12 Q2303.46 1477.95 2295.61 1477.95 Q2286.62 1477.95 2281.86 1471.07 Q2277.1 1464.16 2277.1 1451.07 Q2277.1 1438.78 2282.94 1431.49 Q2288.77 1424.16 2298.6 1424.16 Q2301.24 1424.16 2303.91 1424.68 Q2306.62 1425.2 2309.53 1426.25 Z" fill="#000000" fill-rule="evenodd" fill-opacity="1" /><path clip-path="url(#clip960)" d="M1350.49 1529.32 Q1350.49 1531.62 1349.05 1532.93 Q1347.62 1534.2 1345.98 1534.2 Q1344.42 1534.2 1343.6 1533.3 Q1342.78 1532.4 1342.78 1531.25 Q1342.78 1529.69 1343.93 1528.34 Q1345.08 1526.99 1346.8 1526.7 Q1345.12 1525.64 1342.62 1525.64 Q1340.98 1525.64 1339.55 1526.5 Q1338.15 1527.36 1337.29 1528.46 Q1336.47 1529.57 1335.73 1531.17 Q1335.04 1532.73 1334.75 1533.67 Q1334.5 1534.57 1334.3 1535.55 L1331.43 1547.03 Q1330.04 1552.48 1330.04 1554.41 Q1330.04 1556.79 1331.18 1558.39 Q1332.33 1559.94 1334.63 1559.94 Q1335.53 1559.94 1336.55 1559.7 Q1337.58 1559.41 1338.89 1558.67 Q1340.24 1557.89 1341.43 1556.75 Q1342.66 1555.56 1343.85 1553.55 Q1345.04 1551.54 1345.82 1548.96 Q1346.06 1548.06 1346.88 1548.06 Q1347.91 1548.06 1347.91 1548.88 Q1347.91 1549.57 1347.33 1551.05 Q1346.8 1552.48 1345.61 1554.37 Q1344.46 1556.21 1342.95 1557.89 Q1341.43 1559.53 1339.18 1560.68 Q1336.92 1561.83 1334.46 1561.83 Q1330.94 1561.83 1328.6 1559.94 Q1326.26 1558.06 1325.4 1555.43 Q1325.2 1555.8 1324.91 1556.3 Q1324.63 1556.79 1323.76 1557.89 Q1322.94 1558.96 1322 1559.78 Q1321.06 1560.56 1319.58 1561.17 Q1318.15 1561.83 1316.59 1561.83 Q1314.62 1561.83 1312.86 1561.26 Q1311.14 1560.68 1309.91 1559.37 Q1308.68 1558.06 1308.68 1556.25 Q1308.68 1554.25 1310.03 1552.85 Q1311.43 1551.42 1313.31 1551.42 Q1314.5 1551.42 1315.44 1552.11 Q1316.43 1552.81 1316.43 1554.33 Q1316.43 1556.01 1315.28 1557.28 Q1314.13 1558.55 1312.49 1558.88 Q1314.17 1559.94 1316.67 1559.94 Q1319.38 1559.94 1321.51 1557.57 Q1323.64 1555.19 1324.67 1551.21 Q1327.21 1541.66 1328.19 1537.4 Q1329.18 1533.1 1329.18 1531.25 Q1329.18 1529.53 1328.72 1528.34 Q1328.27 1527.15 1327.49 1526.62 Q1326.76 1526.05 1326.06 1525.84 Q1325.4 1525.64 1324.67 1525.64 Q1323.44 1525.64 1322.04 1526.13 Q1320.69 1526.62 1319.05 1527.77 Q1317.45 1528.87 1315.94 1531.17 Q1314.42 1533.46 1313.39 1536.62 Q1313.19 1537.56 1312.29 1537.56 Q1311.3 1537.52 1311.3 1536.7 Q1311.3 1536.01 1311.84 1534.57 Q1312.41 1533.1 1313.56 1531.25 Q1314.75 1529.41 1316.26 1527.77 Q1317.82 1526.09 1320.08 1524.94 Q1322.37 1523.79 1324.83 1523.79 Q1325.94 1523.79 1327 1524.04 Q1328.11 1524.24 1329.42 1524.86 Q1330.77 1525.47 1331.96 1526.82 Q1333.15 1528.18 1333.89 1530.14 Q1334.38 1529.2 1335.04 1528.3 Q1335.73 1527.4 1336.8 1526.29 Q1337.91 1525.14 1339.42 1524.49 Q1340.98 1523.79 1342.7 1523.79 Q1344.38 1523.79 1346.02 1524.24 Q1347.66 1524.65 1349.05 1526 Q1350.49 1527.32 1350.49 1529.32 Z" fill="#000000" fill-rule="evenodd" fill-opacity="1" /><polyline clip-path="url(#clip962)" style="stroke:#000000; stroke-linecap:round; stroke-linejoin:round; stroke-width:2; stroke-opacity:0.1; fill:none" points="
  312.143,1354.85 2352.76,1354.85 
  "/>
<polyline clip-path="url(#clip962)" style="stroke:#000000; stroke-linecap:round; stroke-linejoin:round; stroke-width:2; stroke-opacity:0.1; fill:none" points="
  312.143,1037.47 2352.76,1037.47 
  "/>
<polyline clip-path="url(#clip962)" style="stroke:#000000; stroke-linecap:round; stroke-linejoin:round; stroke-width:2; stroke-opacity:0.1; fill:none" points="
  312.143,720.092 2352.76,720.092 
  "/>
<polyline clip-path="url(#clip962)" style="stroke:#000000; stroke-linecap:round; stroke-linejoin:round; stroke-width:2; stroke-opacity:0.1; fill:none" points="
  312.143,402.711 2352.76,402.711 
  "/>
<polyline clip-path="url(#clip962)" style="stroke:#000000; stroke-linecap:round; stroke-linejoin:round; stroke-width:2; stroke-opacity:0.1; fill:none" points="
  312.143,85.3298 2352.76,85.3298 
  "/>
<polyline clip-path="url(#clip960)" style="stroke:#000000; stroke-linecap:round; stroke-linejoin:round; stroke-width:4; stroke-opacity:1; fill:none" points="
  312.143,1392.94 312.143,47.2441 
  "/>
<polyline clip-path="url(#clip960)" style="stroke:#000000; stroke-linecap:round; stroke-linejoin:round; stroke-width:4; stroke-opacity:1; fill:none" points="
  312.143,1354.85 331.041,1354.85 
  "/>
<polyline clip-path="url(#clip960)" style="stroke:#000000; stroke-linecap:round; stroke-linejoin:round; stroke-width:4; stroke-opacity:1; fill:none" points="
  312.143,1037.47 331.041,1037.47 
  "/>
<polyline clip-path="url(#clip960)" style="stroke:#000000; stroke-linecap:round; stroke-linejoin:round; stroke-width:4; stroke-opacity:1; fill:none" points="
  312.143,720.092 331.041,720.092 
  "/>
<polyline clip-path="url(#clip960)" style="stroke:#000000; stroke-linecap:round; stroke-linejoin:round; stroke-width:4; stroke-opacity:1; fill:none" points="
  312.143,402.711 331.041,402.711 
  "/>
<polyline clip-path="url(#clip960)" style="stroke:#000000; stroke-linecap:round; stroke-linejoin:round; stroke-width:4; stroke-opacity:1; fill:none" points="
  312.143,85.3298 331.041,85.3298 
  "/>
<path clip-path="url(#clip960)" d="M145.137 1333.55 Q139.72 1333.55 136.977 1338.9 Q134.269 1344.21 134.269 1354.91 Q134.269 1365.57 136.977 1370.91 Q139.72 1376.23 145.137 1376.23 Q150.588 1376.23 153.296 1370.91 Q156.039 1365.57 156.039 1354.91 Q156.039 1344.21 153.296 1338.9 Q150.588 1333.55 145.137 1333.55 M145.137 1328 Q153.852 1328 158.435 1334.91 Q163.053 1341.78 163.053 1354.91 Q163.053 1368 158.435 1374.91 Q153.852 1381.78 145.137 1381.78 Q136.421 1381.78 131.803 1374.91 Q127.22 1368 127.22 1354.91 Q127.22 1341.78 131.803 1334.91 Q136.421 1328 145.137 1328 Z" fill="#000000" fill-rule="evenodd" fill-opacity="1" /><path clip-path="url(#clip960)" d="M175.38 1371.95 L182.706 1371.95 L182.706 1380.77 L175.38 1380.77 L175.38 1371.95 Z" fill="#000000" fill-rule="evenodd" fill-opacity="1" /><path clip-path="url(#clip960)" d="M212.984 1333.55 Q207.567 1333.55 204.824 1338.9 Q202.116 1344.21 202.116 1354.91 Q202.116 1365.57 204.824 1370.91 Q207.567 1376.23 212.984 1376.23 Q218.435 1376.23 221.143 1370.91 Q223.886 1365.57 223.886 1354.91 Q223.886 1344.21 221.143 1338.9 Q218.435 1333.55 212.984 1333.55 M212.984 1328 Q221.699 1328 226.282 1334.91 Q230.9 1341.78 230.9 1354.91 Q230.9 1368 226.282 1374.91 Q221.699 1381.78 212.984 1381.78 Q204.268 1381.78 199.65 1374.91 Q195.067 1368 195.067 1354.91 Q195.067 1341.78 199.65 1334.91 Q204.268 1328 212.984 1328 Z" fill="#000000" fill-rule="evenodd" fill-opacity="1" /><path clip-path="url(#clip960)" d="M258.226 1333.55 Q252.81 1333.55 250.067 1338.9 Q247.358 1344.21 247.358 1354.91 Q247.358 1365.57 250.067 1370.91 Q252.81 1376.23 258.226 1376.23 Q263.678 1376.23 266.386 1370.91 Q269.129 1365.57 269.129 1354.91 Q269.129 1344.21 266.386 1338.9 Q263.678 1333.55 258.226 1333.55 M258.226 1328 Q266.942 1328 271.525 1334.91 Q276.143 1341.78 276.143 1354.91 Q276.143 1368 271.525 1374.91 Q266.942 1381.78 258.226 1381.78 Q249.511 1381.78 244.893 1374.91 Q240.31 1368 240.31 1354.91 Q240.31 1341.78 244.893 1334.91 Q249.511 1328 258.226 1328 Z" fill="#000000" fill-rule="evenodd" fill-opacity="1" /><path clip-path="url(#clip960)" d="M146.63 1016.17 Q141.213 1016.17 138.47 1021.52 Q135.762 1026.83 135.762 1037.53 Q135.762 1048.18 138.47 1053.53 Q141.213 1058.84 146.63 1058.84 Q152.081 1058.84 154.789 1053.53 Q157.532 1048.18 157.532 1037.53 Q157.532 1026.83 154.789 1021.52 Q152.081 1016.17 146.63 1016.17 M146.63 1010.62 Q155.345 1010.62 159.928 1017.53 Q164.546 1024.4 164.546 1037.53 Q164.546 1050.62 159.928 1057.53 Q155.345 1064.4 146.63 1064.4 Q137.915 1064.4 133.297 1057.53 Q128.713 1050.62 128.713 1037.53 Q128.713 1024.4 133.297 1017.53 Q137.915 1010.62 146.63 1010.62 Z" fill="#000000" fill-rule="evenodd" fill-opacity="1" /><path clip-path="url(#clip960)" d="M176.873 1054.57 L184.199 1054.57 L184.199 1063.39 L176.873 1063.39 L176.873 1054.57 Z" fill="#000000" fill-rule="evenodd" fill-opacity="1" /><path clip-path="url(#clip960)" d="M205.518 1057.49 L229.997 1057.49 L229.997 1063.39 L197.081 1063.39 L197.081 1057.49 Q201.074 1053.36 207.949 1046.41 Q214.859 1039.43 216.629 1037.42 Q219.997 1033.64 221.317 1031.03 Q222.671 1028.39 222.671 1025.86 Q222.671 1021.73 219.754 1019.12 Q216.872 1016.52 212.22 1016.52 Q208.921 1016.52 205.241 1017.66 Q201.595 1018.81 197.428 1021.14 L197.428 1014.05 Q201.664 1012.35 205.345 1011.48 Q209.025 1010.62 212.081 1010.62 Q220.136 1010.62 224.928 1014.64 Q229.72 1018.67 229.72 1025.41 Q229.72 1028.6 228.504 1031.48 Q227.324 1034.33 224.164 1038.22 Q223.296 1039.23 218.643 1044.05 Q213.991 1048.84 205.518 1057.49 Z" fill="#000000" fill-rule="evenodd" fill-opacity="1" /><path clip-path="url(#clip960)" d="M244.789 1011.55 L272.324 1011.55 L272.324 1017.46 L251.213 1017.46 L251.213 1030.16 Q252.74 1029.64 254.268 1029.4 Q255.796 1029.12 257.324 1029.12 Q266.004 1029.12 271.074 1033.88 Q276.143 1038.64 276.143 1046.76 Q276.143 1055.13 270.935 1059.78 Q265.726 1064.4 256.247 1064.4 Q252.983 1064.4 249.581 1063.84 Q246.213 1063.29 242.601 1062.18 L242.601 1055.13 Q245.726 1056.83 249.06 1057.66 Q252.393 1058.5 256.108 1058.5 Q262.115 1058.5 265.622 1055.34 Q269.129 1052.18 269.129 1046.76 Q269.129 1041.34 265.622 1038.18 Q262.115 1035.03 256.108 1035.03 Q253.296 1035.03 250.483 1035.65 Q247.706 1036.28 244.789 1037.59 L244.789 1011.55 Z" fill="#000000" fill-rule="evenodd" fill-opacity="1" /><path clip-path="url(#clip960)" d="M145.137 698.79 Q139.72 698.79 136.977 704.137 Q134.269 709.45 134.269 720.144 Q134.269 730.804 136.977 736.151 Q139.72 741.463 145.137 741.463 Q150.588 741.463 153.296 736.151 Q156.039 730.804 156.039 720.144 Q156.039 709.45 153.296 704.137 Q150.588 698.79 145.137 698.79 M145.137 693.234 Q153.852 693.234 158.435 700.144 Q163.053 707.019 163.053 720.144 Q163.053 733.234 158.435 740.144 Q153.852 747.019 145.137 747.019 Q136.421 747.019 131.803 740.144 Q127.22 733.234 127.22 720.144 Q127.22 707.019 131.803 700.144 Q136.421 693.234 145.137 693.234 Z" fill="#000000" fill-rule="evenodd" fill-opacity="1" /><path clip-path="url(#clip960)" d="M175.38 737.193 L182.706 737.193 L182.706 746.012 L175.38 746.012 L175.38 737.193 Z" fill="#000000" fill-rule="evenodd" fill-opacity="1" /><path clip-path="url(#clip960)" d="M198.053 694.172 L225.588 694.172 L225.588 700.075 L204.477 700.075 L204.477 712.783 Q206.004 712.262 207.532 712.019 Q209.06 711.741 210.588 711.741 Q219.268 711.741 224.338 716.498 Q229.407 721.255 229.407 729.38 Q229.407 737.748 224.199 742.401 Q218.99 747.019 209.511 747.019 Q206.248 747.019 202.845 746.463 Q199.477 745.908 195.866 744.797 L195.866 737.748 Q198.991 739.45 202.324 740.283 Q205.657 741.116 209.372 741.116 Q215.379 741.116 218.886 737.956 Q222.393 734.797 222.393 729.38 Q222.393 723.963 218.886 720.804 Q215.379 717.644 209.372 717.644 Q206.56 717.644 203.748 718.269 Q200.97 718.894 198.053 720.213 L198.053 694.172 Z" fill="#000000" fill-rule="evenodd" fill-opacity="1" /><path clip-path="url(#clip960)" d="M258.226 698.79 Q252.81 698.79 250.067 704.137 Q247.358 709.45 247.358 720.144 Q247.358 730.804 250.067 736.151 Q252.81 741.463 258.226 741.463 Q263.678 741.463 266.386 736.151 Q269.129 730.804 269.129 720.144 Q269.129 709.45 266.386 704.137 Q263.678 698.79 258.226 698.79 M258.226 693.234 Q266.942 693.234 271.525 700.144 Q276.143 707.019 276.143 720.144 Q276.143 733.234 271.525 740.144 Q266.942 747.019 258.226 747.019 Q249.511 747.019 244.893 740.144 Q240.31 733.234 240.31 720.144 Q240.31 707.019 244.893 700.144 Q249.511 693.234 258.226 693.234 Z" fill="#000000" fill-rule="evenodd" fill-opacity="1" /><path clip-path="url(#clip960)" d="M146.63 381.409 Q141.213 381.409 138.47 386.756 Q135.762 392.069 135.762 402.763 Q135.762 413.423 138.47 418.77 Q141.213 424.082 146.63 424.082 Q152.081 424.082 154.789 418.77 Q157.532 413.423 157.532 402.763 Q157.532 392.069 154.789 386.756 Q152.081 381.409 146.63 381.409 M146.63 375.853 Q155.345 375.853 159.928 382.763 Q164.546 389.638 164.546 402.763 Q164.546 415.853 159.928 422.763 Q155.345 429.638 146.63 429.638 Q137.915 429.638 133.297 422.763 Q128.713 415.853 128.713 402.763 Q128.713 389.638 133.297 382.763 Q137.915 375.853 146.63 375.853 Z" fill="#000000" fill-rule="evenodd" fill-opacity="1" /><path clip-path="url(#clip960)" d="M176.873 419.811 L184.199 419.811 L184.199 428.631 L176.873 428.631 L176.873 419.811 Z" fill="#000000" fill-rule="evenodd" fill-opacity="1" /><path clip-path="url(#clip960)" d="M197.706 376.791 L231.039 376.791 L231.039 379.777 L212.22 428.631 L204.893 428.631 L222.602 382.694 L197.706 382.694 L197.706 376.791 Z" fill="#000000" fill-rule="evenodd" fill-opacity="1" /><path clip-path="url(#clip960)" d="M244.789 376.791 L272.324 376.791 L272.324 382.694 L251.213 382.694 L251.213 395.402 Q252.74 394.881 254.268 394.638 Q255.796 394.36 257.324 394.36 Q266.004 394.36 271.074 399.117 Q276.143 403.874 276.143 411.999 Q276.143 420.367 270.935 425.02 Q265.726 429.638 256.247 429.638 Q252.983 429.638 249.581 429.082 Q246.213 428.527 242.601 427.416 L242.601 420.367 Q245.726 422.068 249.06 422.902 Q252.393 423.735 256.108 423.735 Q262.115 423.735 265.622 420.575 Q269.129 417.416 269.129 411.999 Q269.129 406.582 265.622 403.423 Q262.115 400.263 256.108 400.263 Q253.296 400.263 250.483 400.888 Q247.706 401.513 244.789 402.832 L244.789 376.791 Z" fill="#000000" fill-rule="evenodd" fill-opacity="1" /><path clip-path="url(#clip960)" d="M131.352 105.347 L142.81 105.347 L142.81 65.7987 L130.345 68.2987 L130.345 61.9098 L142.741 59.4098 L149.755 59.4098 L149.755 105.347 L161.213 105.347 L161.213 111.25 L131.352 111.25 L131.352 105.347 Z" fill="#000000" fill-rule="evenodd" fill-opacity="1" /><path clip-path="url(#clip960)" d="M175.38 102.43 L182.706 102.43 L182.706 111.25 L175.38 111.25 L175.38 102.43 Z" fill="#000000" fill-rule="evenodd" fill-opacity="1" /><path clip-path="url(#clip960)" d="M212.984 64.0279 Q207.567 64.0279 204.824 69.375 Q202.116 74.6875 202.116 85.3819 Q202.116 96.0416 204.824 101.389 Q207.567 106.701 212.984 106.701 Q218.435 106.701 221.143 101.389 Q223.886 96.0416 223.886 85.3819 Q223.886 74.6875 221.143 69.375 Q218.435 64.0279 212.984 64.0279 M212.984 58.4723 Q221.699 58.4723 226.282 65.382 Q230.9 72.257 230.9 85.3819 Q230.9 98.4721 226.282 105.382 Q221.699 112.257 212.984 112.257 Q204.268 112.257 199.65 105.382 Q195.067 98.4721 195.067 85.3819 Q195.067 72.257 199.65 65.382 Q204.268 58.4723 212.984 58.4723 Z" fill="#000000" fill-rule="evenodd" fill-opacity="1" /><path clip-path="url(#clip960)" d="M258.226 64.0279 Q252.81 64.0279 250.067 69.375 Q247.358 74.6875 247.358 85.3819 Q247.358 96.0416 250.067 101.389 Q252.81 106.701 258.226 106.701 Q263.678 106.701 266.386 101.389 Q269.129 96.0416 269.129 85.3819 Q269.129 74.6875 266.386 69.375 Q263.678 64.0279 258.226 64.0279 M258.226 58.4723 Q266.942 58.4723 271.525 65.382 Q276.143 72.257 276.143 85.3819 Q276.143 98.4721 271.525 105.382 Q266.942 112.257 258.226 112.257 Q249.511 112.257 244.893 105.382 Q240.31 98.4721 240.31 85.3819 Q240.31 72.257 244.893 65.382 Q249.511 58.4723 258.226 58.4723 Z" fill="#000000" fill-rule="evenodd" fill-opacity="1" /><path clip-path="url(#clip960)" d="M19.3207 864.304 L66.3517 864.304 L66.3517 854.42 Q66.3517 841.903 60.6804 836.11 Q55.0091 830.277 42.7754 830.277 Q30.6227 830.277 24.9919 836.11 Q19.3207 841.903 19.3207 854.42 L19.3207 864.304 M12.5962 872.487 L12.5962 855.676 Q12.5962 838.095 19.9283 829.871 Q27.2199 821.648 42.7754 821.648 Q58.4119 821.648 65.744 829.912 Q73.0762 838.176 73.0762 855.676 L73.0762 872.487 L12.5962 872.487 Z" fill="#000000" fill-rule="evenodd" fill-opacity="1" /><path clip-path="url(#clip960)" d="M48.5277 770.121 L52.1735 770.121 L52.1735 804.391 Q59.8702 803.905 63.9211 799.773 Q67.9315 795.601 67.9315 788.188 Q67.9315 783.894 66.8783 779.883 Q65.825 775.832 63.7186 771.863 L70.7671 771.863 Q72.4685 775.873 73.3597 780.086 Q74.2509 784.299 74.2509 788.633 Q74.2509 799.49 67.9315 805.85 Q61.6121 812.169 50.8367 812.169 Q39.6967 812.169 33.1748 806.174 Q26.6123 800.138 26.6123 789.93 Q26.6123 780.775 32.5266 775.468 Q38.4004 770.121 48.5277 770.121 M46.3402 777.574 Q40.2233 777.655 36.5775 781.018 Q32.9317 784.339 32.9317 789.849 Q32.9317 796.087 36.456 799.854 Q39.9803 803.581 46.3807 804.148 L46.3402 777.574 Z" fill="#000000" fill-rule="evenodd" fill-opacity="1" /><path clip-path="url(#clip960)" d="M45.692 720.173 L73.0762 720.173 L73.0762 727.627 L45.9351 727.627 Q39.4942 727.627 36.2939 730.138 Q33.0937 732.65 33.0937 737.673 Q33.0937 743.709 36.9421 747.193 Q40.7905 750.676 47.4339 750.676 L73.0762 750.676 L73.0762 758.17 L27.706 758.17 L27.706 750.676 L34.7546 750.676 Q30.6632 748.003 28.6377 744.397 Q26.6123 740.752 26.6123 736.012 Q26.6123 728.194 31.4734 724.183 Q36.2939 720.173 45.692 720.173 Z" fill="#000000" fill-rule="evenodd" fill-opacity="1" /><path clip-path="url(#clip960)" d="M29.0428 676.383 L36.0914 676.383 Q34.471 679.542 33.6609 682.945 Q32.8507 686.348 32.8507 689.994 Q32.8507 695.543 34.5521 698.339 Q36.2534 701.093 39.6562 701.093 Q42.2488 701.093 43.7476 699.108 Q45.2059 697.123 46.5427 691.128 L47.1099 688.576 Q48.8112 680.636 51.9304 677.314 Q55.0091 673.952 60.5589 673.952 Q66.8783 673.952 70.5646 678.975 Q74.2509 683.958 74.2509 692.708 Q74.2509 696.354 73.5218 700.324 Q72.8331 704.253 71.4153 708.628 L63.7186 708.628 Q65.8655 704.496 66.9593 700.486 Q68.0125 696.475 68.0125 692.546 Q68.0125 687.28 66.2301 684.444 Q64.4072 681.608 61.126 681.608 Q58.0878 681.608 56.4675 683.674 Q54.8471 685.7 53.3483 692.627 L52.7406 695.219 Q51.2823 702.146 48.2846 705.225 Q45.2464 708.304 39.9803 708.304 Q33.5798 708.304 30.0961 703.767 Q26.6123 699.23 26.6123 690.885 Q26.6123 686.753 27.2199 683.107 Q27.8276 679.461 29.0428 676.383 Z" fill="#000000" fill-rule="evenodd" fill-opacity="1" /><path clip-path="url(#clip960)" d="M27.706 662.083 L27.706 654.629 L73.0762 654.629 L73.0762 662.083 L27.706 662.083 M10.0441 662.083 L10.0441 654.629 L19.4827 654.629 L19.4827 662.083 L10.0441 662.083 Z" fill="#000000" fill-rule="evenodd" fill-opacity="1" /><path clip-path="url(#clip960)" d="M14.8242 631.661 L27.706 631.661 L27.706 616.308 L33.4988 616.308 L33.4988 631.661 L58.1283 631.661 Q63.6781 631.661 65.2579 630.162 Q66.8378 628.623 66.8378 623.964 L66.8378 616.308 L73.0762 616.308 L73.0762 623.964 Q73.0762 632.592 69.8759 635.874 Q66.6352 639.155 58.1283 639.155 L33.4988 639.155 L33.4988 644.624 L27.706 644.624 L27.706 639.155 L14.8242 639.155 L14.8242 631.661 Z" fill="#000000" fill-rule="evenodd" fill-opacity="1" /><path clip-path="url(#clip960)" d="M77.2891 587.627 Q85.3909 590.787 87.862 593.785 Q90.333 596.782 90.333 601.806 L90.333 607.76 L84.0946 607.76 L84.0946 603.385 Q84.0946 600.307 82.6363 598.605 Q81.178 596.904 75.7498 594.838 L72.347 593.501 L27.706 611.852 L27.706 603.953 L63.192 589.774 L27.706 575.596 L27.706 567.697 L77.2891 587.627 Z" fill="#000000" fill-rule="evenodd" fill-opacity="1" /><polyline clip-path="url(#clip962)" style="stroke:#ff0000; stroke-linecap:round; stroke-linejoin:round; stroke-width:12; stroke-opacity:1; fill:none" points="
  369.896,85.3298 401.981,258.191 434.066,401.042 466.151,520.121 498.237,620.176 530.322,704.858 562.407,777.01 594.492,838.866 626.577,892.199 658.662,938.429 
  690.747,978.699 722.832,1013.94 754.917,1044.91 787.003,1072.24 819.088,1096.45 851.173,1117.97 883.258,1137.17 915.343,1154.35 947.428,1169.77 979.513,1183.64 
  1011.6,1196.16 1043.68,1207.49 1075.77,1217.77 1107.85,1227.11 1139.94,1235.63 1172.02,1243.4 1204.11,1250.51 1236.19,1257.03 1268.28,1263.02 1300.36,1268.53 
  1332.45,1273.6 1364.53,1278.29 1396.62,1282.62 1428.7,1286.64 1460.79,1290.36 1492.87,1293.81 1524.96,1297.02 1557.05,1300.01 1589.13,1302.8 1621.22,1305.4 
  1653.3,1307.83 1685.39,1310.11 1717.47,1312.24 1749.56,1314.24 1781.64,1316.11 1813.73,1317.87 1845.81,1319.53 1877.9,1321.09 1909.98,1322.55 1942.07,1323.94 
  1974.15,1325.24 2006.24,1326.48 2038.32,1327.64 2070.41,1328.75 2102.49,1329.79 2134.58,1330.78 2166.66,1331.72 2198.75,1332.61 2230.83,1333.45 2262.92,1334.25 
  2295,1335.02 
  "/>
<polyline clip-path="url(#clip962)" style="stroke:#008000; stroke-linecap:round; stroke-linejoin:round; stroke-width:12; stroke-opacity:1; fill:none" points="
  369.896,85.3298 401.981,206.141 434.066,315.456 466.151,414.367 498.237,503.867 530.322,584.849 562.407,658.124 594.492,724.427 626.577,784.42 658.662,838.704 
  690.747,887.822 722.832,932.266 754.917,972.481 787.003,1008.87 819.088,1041.79 851.173,1071.58 883.258,1098.54 915.343,1122.93 947.428,1145 979.513,1164.97 
  1011.6,1183.04 1043.68,1199.39 1075.77,1214.19 1107.85,1227.57 1139.94,1239.69 1172.02,1250.65 1204.11,1260.56 1236.19,1269.54 1268.28,1277.65 1300.36,1285 
  1332.45,1291.65 1364.53,1297.66 1396.62,1303.11 1428.7,1308.03 1460.79,1312.49 1492.87,1316.52 1524.96,1320.17 1557.05,1323.47 1589.13,1326.45 1621.22,1329.16 
  1653.3,1331.6 1685.39,1333.81 1717.47,1335.82 1749.56,1337.63 1781.64,1339.27 1813.73,1340.75 1845.81,1342.09 1877.9,1343.31 1909.98,1344.41 1942.07,1345.4 
  1974.15,1346.3 2006.24,1347.11 2038.32,1347.85 2070.41,1348.52 2102.49,1349.12 2134.58,1349.67 2166.66,1350.16 2198.75,1350.61 2230.83,1351.01 2262.92,1351.38 
  2295,1351.71 
  "/>
<polyline clip-path="url(#clip962)" style="stroke:#0000ff; stroke-linecap:round; stroke-linejoin:round; stroke-width:12; stroke-opacity:1; fill:none" points="
  369.896,85.3298 401.981,148.806 434.066,212.282 466.151,275.758 498.237,339.235 530.322,402.711 562.407,466.187 594.492,529.663 626.577,593.14 658.662,656.616 
  690.747,720.092 722.832,783.568 754.917,847.044 787.003,910.521 819.088,973.997 851.173,1037.47 883.258,1100.95 915.343,1164.43 947.428,1227.9 979.513,1291.38 
  1011.6,1354.85 
  "/>
<circle clip-path="url(#clip962)" cx="1011.6" cy="1354.85" r="14.4" fill="#0000ff" fill-rule="evenodd" fill-opacity="1" stroke="#000000" stroke-opacity="1" stroke-width="3.2"/>
<path clip-path="url(#clip960)" d="
M1751.85 403.141 L2284.74 403.141 L2284.74 92.1006 L1751.85 92.1006  Z
  " fill="#ffffff" fill-rule="evenodd" fill-opacity="1"/>
<polyline clip-path="url(#clip960)" style="stroke:#000000; stroke-linecap:round; stroke-linejoin:round; stroke-width:4; stroke-opacity:1; fill:none" points="
  1751.85,403.141 2284.74,403.141 2284.74,92.1006 1751.85,92.1006 1751.85,403.141 
  "/>
<polyline clip-path="url(#clip960)" style="stroke:#ff0000; stroke-linecap:round; stroke-linejoin:round; stroke-width:18; stroke-opacity:1; fill:none" points="
  1774.52,169.861 1910.56,169.861 
  "/>
<path clip-path="url(#clip960)" d="M1963.66 145.099 Q1963.66 147.312 1957.27 147.312 Q1956.18 147.312 1955.58 147.277 Q1954.99 147.207 1954.11 146.856 Q1953.26 146.469 1952.67 145.731 Q1948.87 147.593 1946.76 151.107 Q1944.69 154.62 1944.69 157.958 Q1944.69 161.436 1946.84 163.579 Q1949.51 162.701 1952.88 162.701 Q1955.58 162.701 1957.16 163.087 Q1958.78 163.474 1958.78 164.668 Q1958.78 165.195 1958.46 165.617 Q1958.15 166.003 1957.48 166.249 Q1956.85 166.46 1956.25 166.601 Q1955.69 166.741 1954.78 166.812 Q1953.86 166.847 1953.37 166.882 Q1952.88 166.882 1952.11 166.882 Q1948.31 166.882 1945.75 165.968 Q1941.64 168.041 1939.28 171.801 Q1936.93 175.525 1936.93 178.195 Q1936.93 182.411 1942.3 184.589 L1946.62 186.311 Q1947.61 186.627 1951.02 187.962 L1955.41 189.613 Q1958.85 191.124 1958.85 194.743 Q1958.85 197.553 1956.67 199.978 Q1954.53 202.437 1951.37 202.437 Q1949.51 202.437 1947.57 201.734 Q1945.68 201.067 1944.59 200.259 Q1943.53 199.451 1943.53 198.994 Q1943.53 198.186 1944.24 198.186 Q1944.52 198.186 1945.04 198.537 Q1948.38 200.856 1951.37 200.856 Q1952.91 200.856 1953.9 199.626 Q1954.92 198.397 1954.92 197.026 Q1954.92 196.289 1954.7 195.762 Q1954.53 195.235 1954 194.848 Q1953.51 194.497 1953.26 194.356 Q1953.05 194.251 1952.39 193.935 Q1950.98 193.408 1948.56 192.459 Q1946.13 191.546 1943.67 190.562 Q1939.53 189.016 1938.26 188.313 Q1937.03 187.646 1935.31 185.889 L1935.17 185.713 Q1934.99 185.503 1934.82 185.257 Q1934.68 185.011 1934.43 184.659 Q1934.22 184.273 1934.01 183.816 Q1933.8 183.359 1933.62 182.832 Q1933.45 182.27 1933.34 181.603 Q1933.24 180.9 1933.24 180.197 Q1933.24 179.038 1933.62 177.527 Q1934.05 175.981 1934.96 173.944 Q1935.91 171.906 1937.91 169.692 Q1939.91 167.479 1942.65 165.652 L1943.6 164.949 Q1941.21 163.579 1940.05 161.541 Q1938.93 159.504 1938.93 157.325 Q1938.93 153.074 1942.37 149.28 Q1945.85 145.45 1951.51 143.869 Q1951.02 141.902 1951.02 141.059 Q1951.02 140.742 1951.05 140.391 Q1951.09 140.005 1951.16 139.267 Q1951.26 138.494 1951.54 138.037 Q1951.86 137.545 1952.32 137.545 Q1953.16 137.545 1953.16 138.459 Q1952.81 140.11 1952.81 141.129 Q1952.81 142.464 1953.16 143.518 Q1955.2 143.131 1957.69 143.131 Q1960.47 143.131 1962.05 143.518 Q1963.66 143.869 1963.66 145.099 M1961.8 145.169 Q1960.12 144.712 1957.76 144.712 Q1955.58 144.712 1954.32 145.099 Q1954.88 145.521 1955.48 145.626 Q1956.11 145.731 1957.34 145.731 Q1960.29 145.731 1961.8 145.169 M1956.92 164.739 Q1955.23 164.282 1952.81 164.282 Q1950.49 164.282 1948.7 164.739 Q1949.61 165.125 1950.24 165.231 Q1950.91 165.301 1952.32 165.301 Q1955.79 165.301 1956.92 164.739 Z" fill="#000000" fill-rule="evenodd" fill-opacity="1" /><path clip-path="url(#clip960)" d="M1984.41 176.754 Q1984.48 175.876 1985.85 175.876 L2029.95 175.876 Q2032.02 175.876 2032.05 176.684 Q2032.05 177.562 2030.09 177.527 L1986.35 177.527 Q1984.41 177.562 1984.41 176.754 M1984.41 162.701 Q1984.41 161.823 1985.92 161.858 L2029.88 161.858 Q2032.02 161.858 2032.05 162.701 Q2032.05 163.509 2030.23 163.509 L1985.85 163.509 Q1984.41 163.509 1984.41 162.701 Z" fill="#000000" fill-rule="evenodd" fill-opacity="1" /><path clip-path="url(#clip960)" d="M2059.81 146.61 L2059.81 144.361 Q2068.45 144.361 2072.91 139.759 Q2074.14 139.759 2074.35 140.04 Q2074.56 140.321 2074.56 141.621 L2074.56 181.989 Q2074.56 184.132 2075.62 184.8 Q2076.67 185.468 2081.27 185.468 L2083.56 185.468 L2083.56 187.681 Q2081.03 187.47 2071.89 187.47 Q2062.76 187.47 2060.26 187.681 L2060.26 185.468 L2062.55 185.468 Q2067.08 185.468 2068.17 184.835 Q2069.26 184.168 2069.26 181.989 L2069.26 144.712 Q2065.5 146.61 2059.81 146.61 Z" fill="#000000" fill-rule="evenodd" fill-opacity="1" /><path clip-path="url(#clip960)" d="M2095.44 204.65 Q2095.44 204.299 2095.72 203.526 L2121.12 135.648 Q2121.12 135.578 2121.3 135.191 Q2121.47 134.805 2121.58 134.559 Q2121.69 134.278 2121.9 134.067 Q2122.14 133.856 2122.42 133.856 Q2123.13 133.856 2123.13 134.734 Q2123.13 134.805 2122.92 135.648 L2097.44 203.596 Q2097.02 204.826 2096.74 205.177 Q2096.49 205.529 2096.07 205.529 Q2095.44 205.529 2095.44 204.65 Z" fill="#000000" fill-rule="evenodd" fill-opacity="1" /><path clip-path="url(#clip960)" d="M2131.07 187.681 Q2131.07 186.381 2131.18 185.995 Q2131.32 185.608 2131.88 185.011 L2145.69 169.622 Q2153.24 161.12 2153.24 153.707 Q2153.24 148.893 2150.71 145.45 Q2148.22 142.007 2143.62 142.007 Q2140.45 142.007 2137.78 143.94 Q2135.11 145.872 2133.88 149.315 Q2134.09 149.245 2134.83 149.245 Q2136.62 149.245 2137.61 150.369 Q2138.63 151.493 2138.63 153.004 Q2138.63 154.936 2137.36 155.885 Q2136.13 156.798 2134.9 156.798 Q2134.41 156.798 2133.74 156.693 Q2133.11 156.588 2132.09 155.604 Q2131.07 154.585 2131.07 152.793 Q2131.07 147.769 2134.87 143.764 Q2138.7 139.759 2144.53 139.759 Q2151.13 139.759 2155.46 143.694 Q2159.81 147.593 2159.81 153.707 Q2159.81 155.85 2159.15 157.817 Q2158.51 159.75 2157.63 161.26 Q2156.79 162.771 2154.47 165.195 Q2152.15 167.62 2150.29 169.341 Q2148.43 171.063 2144.25 174.717 L2136.62 182.13 L2149.59 182.13 Q2155.91 182.13 2156.4 181.568 Q2157.11 180.549 2157.99 175.173 L2159.81 175.173 L2157.77 187.681 L2131.07 187.681 Z" fill="#000000" fill-rule="evenodd" fill-opacity="1" /><polyline clip-path="url(#clip960)" style="stroke:#008000; stroke-linecap:round; stroke-linejoin:round; stroke-width:18; stroke-opacity:1; fill:none" points="
  1774.52,247.621 1910.56,247.621 
  "/>
<path clip-path="url(#clip960)" d="M1963.66 222.562 Q1963.66 224.775 1957.27 224.775 Q1956.18 224.775 1955.58 224.74 Q1954.99 224.67 1954.11 224.319 Q1953.26 223.932 1952.67 223.194 Q1948.87 225.057 1946.76 228.57 Q1944.69 232.083 1944.69 235.421 Q1944.69 238.899 1946.84 241.042 Q1949.51 240.164 1952.88 240.164 Q1955.58 240.164 1957.16 240.55 Q1958.78 240.937 1958.78 242.132 Q1958.78 242.659 1958.46 243.08 Q1958.15 243.467 1957.48 243.713 Q1956.85 243.923 1956.25 244.064 Q1955.69 244.204 1954.78 244.275 Q1953.86 244.31 1953.37 244.345 Q1952.88 244.345 1952.11 244.345 Q1948.31 244.345 1945.75 243.431 Q1941.64 245.504 1939.28 249.264 Q1936.93 252.988 1936.93 255.658 Q1936.93 259.874 1942.3 262.052 L1946.62 263.774 Q1947.61 264.09 1951.02 265.425 L1955.41 267.076 Q1958.85 268.587 1958.85 272.206 Q1958.85 275.017 1956.67 277.441 Q1954.53 279.9 1951.37 279.9 Q1949.51 279.9 1947.57 279.198 Q1945.68 278.53 1944.59 277.722 Q1943.53 276.914 1943.53 276.457 Q1943.53 275.649 1944.24 275.649 Q1944.52 275.649 1945.04 276 Q1948.38 278.319 1951.37 278.319 Q1952.91 278.319 1953.9 277.09 Q1954.92 275.86 1954.92 274.49 Q1954.92 273.752 1954.7 273.225 Q1954.53 272.698 1954 272.311 Q1953.51 271.96 1953.26 271.819 Q1953.05 271.714 1952.39 271.398 Q1950.98 270.871 1948.56 269.922 Q1946.13 269.009 1943.67 268.025 Q1939.53 266.479 1938.26 265.776 Q1937.03 265.109 1935.31 263.352 L1935.17 263.177 Q1934.99 262.966 1934.82 262.72 Q1934.68 262.474 1934.43 262.123 Q1934.22 261.736 1934.01 261.279 Q1933.8 260.823 1933.62 260.296 Q1933.45 259.733 1933.34 259.066 Q1933.24 258.363 1933.24 257.661 Q1933.24 256.501 1933.62 254.99 Q1934.05 253.445 1934.96 251.407 Q1935.91 249.369 1937.91 247.156 Q1939.91 244.942 1942.65 243.115 L1943.6 242.413 Q1941.21 241.042 1940.05 239.005 Q1938.93 236.967 1938.93 234.789 Q1938.93 230.537 1942.37 226.743 Q1945.85 222.913 1951.51 221.332 Q1951.02 219.365 1951.02 218.522 Q1951.02 218.205 1951.05 217.854 Q1951.09 217.468 1951.16 216.73 Q1951.26 215.957 1951.54 215.5 Q1951.86 215.008 1952.32 215.008 Q1953.16 215.008 1953.16 215.922 Q1952.81 217.573 1952.81 218.592 Q1952.81 219.927 1953.16 220.981 Q1955.2 220.595 1957.69 220.595 Q1960.47 220.595 1962.05 220.981 Q1963.66 221.332 1963.66 222.562 M1961.8 222.632 Q1960.12 222.176 1957.76 222.176 Q1955.58 222.176 1954.32 222.562 Q1954.88 222.984 1955.48 223.089 Q1956.11 223.194 1957.34 223.194 Q1960.29 223.194 1961.8 222.632 M1956.92 242.202 Q1955.23 241.745 1952.81 241.745 Q1950.49 241.745 1948.7 242.202 Q1949.61 242.588 1950.24 242.694 Q1950.91 242.764 1952.32 242.764 Q1955.79 242.764 1956.92 242.202 Z" fill="#000000" fill-rule="evenodd" fill-opacity="1" /><path clip-path="url(#clip960)" d="M1984.41 254.217 Q1984.48 253.339 1985.85 253.339 L2029.95 253.339 Q2032.02 253.339 2032.05 254.147 Q2032.05 255.026 2030.09 254.99 L1986.35 254.99 Q1984.41 255.026 1984.41 254.217 M1984.41 240.164 Q1984.41 239.286 1985.92 239.321 L2029.88 239.321 Q2032.02 239.321 2032.05 240.164 Q2032.05 240.972 2030.23 240.972 L1985.85 240.972 Q1984.41 240.972 1984.41 240.164 Z" fill="#000000" fill-rule="evenodd" fill-opacity="1" /><path clip-path="url(#clip960)" d="M2059.81 242.132 Q2059.81 231.556 2062.48 225.794 Q2066.2 217.222 2074.99 217.222 Q2076.85 217.222 2078.78 217.749 Q2080.75 218.241 2083.21 220.173 Q2085.7 222.105 2087.21 225.267 Q2090.09 231.381 2090.09 242.132 Q2090.09 252.636 2087.42 258.363 Q2083.52 266.725 2074.92 266.725 Q2071.68 266.725 2068.38 265.074 Q2065.11 263.423 2063.04 259.452 Q2059.81 253.515 2059.81 242.132 M2065.78 241.253 Q2065.78 252.109 2066.55 256.431 Q2067.43 261.104 2069.82 263.141 Q2072.25 265.144 2074.92 265.144 Q2077.8 265.144 2080.19 263.001 Q2082.61 260.823 2083.35 256.15 Q2084.16 251.547 2084.12 241.253 Q2084.12 231.24 2083.42 227.235 Q2082.47 222.562 2079.94 220.7 Q2077.44 218.803 2074.92 218.803 Q2073.97 218.803 2072.95 219.084 Q2071.96 219.365 2070.52 220.173 Q2069.08 220.981 2067.96 222.984 Q2066.87 224.986 2066.34 228.008 Q2065.78 231.908 2065.78 241.253 Z" fill="#000000" fill-rule="evenodd" fill-opacity="1" /><polyline clip-path="url(#clip960)" style="stroke:#0000ff; stroke-linecap:round; stroke-linejoin:round; stroke-width:18; stroke-opacity:1; fill:none" points="
  1774.52,325.381 1910.56,325.381 
  "/>
<path clip-path="url(#clip960)" d="M1963.66 300.619 Q1963.66 302.832 1957.27 302.832 Q1956.18 302.832 1955.58 302.797 Q1954.99 302.727 1954.11 302.376 Q1953.26 301.989 1952.67 301.251 Q1948.87 303.113 1946.76 306.627 Q1944.69 310.14 1944.69 313.478 Q1944.69 316.956 1946.84 319.099 Q1949.51 318.221 1952.88 318.221 Q1955.58 318.221 1957.16 318.607 Q1958.78 318.994 1958.78 320.188 Q1958.78 320.715 1958.46 321.137 Q1958.15 321.523 1957.48 321.769 Q1956.85 321.98 1956.25 322.121 Q1955.69 322.261 1954.78 322.332 Q1953.86 322.367 1953.37 322.402 Q1952.88 322.402 1952.11 322.402 Q1948.31 322.402 1945.75 321.488 Q1941.64 323.561 1939.28 327.321 Q1936.93 331.045 1936.93 333.715 Q1936.93 337.931 1942.3 340.109 L1946.62 341.831 Q1947.61 342.147 1951.02 343.482 L1955.41 345.133 Q1958.85 346.644 1958.85 350.263 Q1958.85 353.073 1956.67 355.498 Q1954.53 357.957 1951.37 357.957 Q1949.51 357.957 1947.57 357.254 Q1945.68 356.587 1944.59 355.779 Q1943.53 354.971 1943.53 354.514 Q1943.53 353.706 1944.24 353.706 Q1944.52 353.706 1945.04 354.057 Q1948.38 356.376 1951.37 356.376 Q1952.91 356.376 1953.9 355.146 Q1954.92 353.917 1954.92 352.546 Q1954.92 351.809 1954.7 351.282 Q1954.53 350.755 1954 350.368 Q1953.51 350.017 1953.26 349.876 Q1953.05 349.771 1952.39 349.455 Q1950.98 348.928 1948.56 347.979 Q1946.13 347.066 1943.67 346.082 Q1939.53 344.536 1938.26 343.833 Q1937.03 343.166 1935.31 341.409 L1935.17 341.233 Q1934.99 341.023 1934.82 340.777 Q1934.68 340.531 1934.43 340.179 Q1934.22 339.793 1934.01 339.336 Q1933.8 338.879 1933.62 338.352 Q1933.45 337.79 1933.34 337.123 Q1933.24 336.42 1933.24 335.717 Q1933.24 334.558 1933.62 333.047 Q1934.05 331.501 1934.96 329.464 Q1935.91 327.426 1937.91 325.212 Q1939.91 322.999 1942.65 321.172 L1943.6 320.469 Q1941.21 319.099 1940.05 317.061 Q1938.93 315.024 1938.93 312.845 Q1938.93 308.594 1942.37 304.8 Q1945.85 300.97 1951.51 299.389 Q1951.02 297.422 1951.02 296.579 Q1951.02 296.262 1951.05 295.911 Q1951.09 295.525 1951.16 294.787 Q1951.26 294.014 1951.54 293.557 Q1951.86 293.065 1952.32 293.065 Q1953.16 293.065 1953.16 293.979 Q1952.81 295.63 1952.81 296.649 Q1952.81 297.984 1953.16 299.038 Q1955.2 298.651 1957.69 298.651 Q1960.47 298.651 1962.05 299.038 Q1963.66 299.389 1963.66 300.619 M1961.8 300.689 Q1960.12 300.232 1957.76 300.232 Q1955.58 300.232 1954.32 300.619 Q1954.88 301.041 1955.48 301.146 Q1956.11 301.251 1957.34 301.251 Q1960.29 301.251 1961.8 300.689 M1956.92 320.259 Q1955.23 319.802 1952.81 319.802 Q1950.49 319.802 1948.7 320.259 Q1949.61 320.645 1950.24 320.751 Q1950.91 320.821 1952.32 320.821 Q1955.79 320.821 1956.92 320.259 Z" fill="#000000" fill-rule="evenodd" fill-opacity="1" /><path clip-path="url(#clip960)" d="M1984.41 332.274 Q1984.48 331.396 1985.85 331.396 L2029.95 331.396 Q2032.02 331.396 2032.05 332.204 Q2032.05 333.082 2030.09 333.047 L1986.35 333.047 Q1984.41 333.082 1984.41 332.274 M1984.41 318.221 Q1984.41 317.343 1985.92 317.378 L2029.88 317.378 Q2032.02 317.378 2032.05 318.221 Q2032.05 319.029 2030.23 319.029 L1985.85 319.029 Q1984.41 319.029 1984.41 318.221 Z" fill="#000000" fill-rule="evenodd" fill-opacity="1" /><path clip-path="url(#clip960)" d="M2127.27 324.194 Q2127.69 324.615 2127.69 325.212 Q2127.69 325.81 2127.27 326.231 Q2126.85 326.653 2126.25 326.653 L2081.21 326.653 Q2080.61 326.653 2080.19 326.231 Q2079.77 325.81 2079.77 325.212 Q2079.77 324.615 2080.19 324.194 Q2080.61 323.772 2081.21 323.772 L2126.25 323.772 Q2126.85 323.772 2127.27 324.194 Z" fill="#000000" fill-rule="evenodd" fill-opacity="1" /><path clip-path="url(#clip960)" d="M2155.16 302.13 L2155.16 299.881 Q2163.81 299.881 2168.27 295.279 Q2169.5 295.279 2169.71 295.56 Q2169.92 295.841 2169.92 297.141 L2169.92 337.509 Q2169.92 339.652 2170.97 340.32 Q2172.03 340.988 2176.63 340.988 L2178.91 340.988 L2178.91 343.201 Q2176.38 342.99 2167.25 342.99 Q2158.11 342.99 2155.62 343.201 L2155.62 340.988 L2157.9 340.988 Q2162.44 340.988 2163.53 340.355 Q2164.61 339.688 2164.61 337.509 L2164.61 300.232 Q2160.86 302.13 2155.16 302.13 Z" fill="#000000" fill-rule="evenodd" fill-opacity="1" /><path clip-path="url(#clip960)" d="M2190.8 360.17 Q2190.8 359.819 2191.08 359.046 L2216.48 291.168 Q2216.48 291.098 2216.65 290.711 Q2216.83 290.325 2216.94 290.079 Q2217.04 289.798 2217.25 289.587 Q2217.5 289.376 2217.78 289.376 Q2218.48 289.376 2218.48 290.254 Q2218.48 290.325 2218.27 291.168 L2192.8 359.116 Q2192.38 360.346 2192.1 360.697 Q2191.85 361.049 2191.43 361.049 Q2190.8 361.049 2190.8 360.17 Z" fill="#000000" fill-rule="evenodd" fill-opacity="1" /><path clip-path="url(#clip960)" d="M2226.43 343.201 Q2226.43 341.901 2226.53 341.515 Q2226.68 341.128 2227.24 340.531 L2241.04 325.142 Q2248.6 316.64 2248.6 309.227 Q2248.6 304.413 2246.07 300.97 Q2243.57 297.527 2238.97 297.527 Q2235.81 297.527 2233.14 299.46 Q2230.47 301.392 2229.24 304.835 Q2229.45 304.765 2230.19 304.765 Q2231.98 304.765 2232.96 305.889 Q2233.98 307.013 2233.98 308.524 Q2233.98 310.456 2232.72 311.405 Q2231.49 312.318 2230.26 312.318 Q2229.77 312.318 2229.1 312.213 Q2228.47 312.108 2227.45 311.124 Q2226.43 310.105 2226.43 308.313 Q2226.43 303.289 2230.22 299.284 Q2234.05 295.279 2239.89 295.279 Q2246.49 295.279 2250.81 299.214 Q2255.17 303.113 2255.17 309.227 Q2255.17 311.37 2254.5 313.337 Q2253.87 315.27 2252.99 316.78 Q2252.15 318.291 2249.83 320.715 Q2247.51 323.14 2245.65 324.861 Q2243.79 326.583 2239.6 330.237 L2231.98 337.65 L2244.94 337.65 Q2251.27 337.65 2251.76 337.088 Q2252.46 336.069 2253.34 330.693 L2255.17 330.693 L2253.13 343.201 L2226.43 343.201 Z" fill="#000000" fill-rule="evenodd" fill-opacity="1" /></svg>
