<?xml version="1.0" encoding="utf-8"?>
<svg xmlns="http://www.w3.org/2000/svg" xmlns:xlink="http://www.w3.org/1999/xlink" width="600" height="400" viewBox="0 0 2400 1600">
<defs>
  <clipPath id="clip570">
    <rect x="0" y="0" width="2400" height="1600"/>
  </clipPath>
</defs>
<path clip-path="url(#clip570)" d="
M0 1600 L2400 1600 L2400 0 L0 0  Z
  " fill="#ffffff" fill-rule="evenodd" fill-opacity="1"/>
<defs>
  <clipPath id="clip571">
    <rect x="480" y="0" width="1681" height="1600"/>
  </clipPath>
</defs>
<path clip-path="url(#clip570)" d="
M309.672 1384.3 L2352.76 1384.3 L2352.76 47.2441 L309.672 47.2441  Z
  " fill="#ffffff" fill-rule="evenodd" fill-opacity="1"/>
<defs>
  <clipPath id="clip572">
    <rect x="309" y="47" width="2044" height="1338"/>
  </clipPath>
</defs>
<polyline clip-path="url(#clip572)" style="stroke:#000000; stroke-linecap:round; stroke-linejoin:round; stroke-width:2; stroke-opacity:0.1; fill:none" points="
  650.089,1384.3 650.089,47.2441 
  "/>
<polyline clip-path="url(#clip572)" style="stroke:#000000; stroke-linecap:round; stroke-linejoin:round; stroke-width:2; stroke-opacity:0.1; fill:none" points="
  1012.39,1384.3 1012.39,47.2441 
  "/>
<polyline clip-path="url(#clip572)" style="stroke:#000000; stroke-linecap:round; stroke-linejoin:round; stroke-width:2; stroke-opacity:0.1; fill:none" points="
  1374.69,1384.3 1374.69,47.2441 
  "/>
<polyline clip-path="url(#clip572)" style="stroke:#000000; stroke-linecap:round; stroke-linejoin:round; stroke-width:2; stroke-opacity:0.1; fill:none" points="
  1736.99,1384.3 1736.99,47.2441 
  "/>
<polyline clip-path="url(#clip572)" style="stroke:#000000; stroke-linecap:round; stroke-linejoin:round; stroke-width:2; stroke-opacity:0.1; fill:none" points="
  2099.29,1384.3 2099.29,47.2441 
  "/>
<polyline clip-path="url(#clip570)" style="stroke:#000000; stroke-linecap:round; stroke-linejoin:round; stroke-width:4; stroke-opacity:1; fill:none" points="
  309.672,1384.3 2352.76,1384.3 
  "/>
<polyline clip-path="url(#clip570)" style="stroke:#000000; stroke-linecap:round; stroke-linejoin:round; stroke-width:4; stroke-opacity:1; fill:none" points="
  650.089,1384.3 650.089,1365.4 
  "/>
<polyline clip-path="url(#clip570)" style="stroke:#000000; stroke-linecap:round; stroke-linejoin:round; stroke-width:4; stroke-opacity:1; fill:none" points="
  1012.39,1384.3 1012.39,1365.4 
  "/>
<polyline clip-path="url(#clip570)" style="stroke:#000000; stroke-linecap:round; stroke-linejoin:round; stroke-width:4; stroke-opacity:1; fill:none" points="
  1374.69,1384.3 1374.69,1365.4 
  "/>
<polyline clip-path="url(#clip570)" style="stroke:#000000; stroke-linecap:round; stroke-linejoin:round; stroke-width:4; stroke-opacity:1; fill:none" points="
  1736.99,1384.3 1736.99,1365.4 
  "/>
<polyline clip-path="url(#clip570)" style="stroke:#000000; stroke-linecap:round; stroke-linejoin:round; stroke-width:4; stroke-opacity:1; fill:none" points="
  2099.29,1384.3 2099.29,1365.4 
  "/>
<path clip-path="url(#clip570)" d="M566.878 1462.4 L578.336 1462.4 L578.336 1422.85 L565.871 1425.35 L565.871 1418.96 L578.267 1416.46 L585.281 1416.46 L585.281 1462.4 L596.739 1462.4 L596.739 1468.3 L566.878 1468.3 L566.878 1462.4 Z" fill="#000000" fill-rule="evenodd" fill-opacity="1" /><path clip-path="url(#clip570)" d="M611.114 1467.22 L611.114 1460.83 Q613.753 1462.08 616.461 1462.74 Q619.169 1463.4 621.773 1463.4 Q628.718 1463.4 632.364 1458.75 Q636.044 1454.06 636.565 1444.55 Q634.551 1447.54 631.461 1449.13 Q628.371 1450.73 624.621 1450.73 Q616.843 1450.73 612.294 1446.04 Q607.781 1441.32 607.781 1433.16 Q607.781 1425.18 612.503 1420.35 Q617.225 1415.52 625.072 1415.52 Q634.065 1415.52 638.787 1422.43 Q643.544 1429.31 643.544 1442.43 Q643.544 1454.69 637.711 1462.02 Q631.912 1469.31 622.086 1469.31 Q619.447 1469.31 616.739 1468.79 Q614.03 1468.27 611.114 1467.22 M625.072 1445.24 Q629.794 1445.24 632.537 1442.02 Q635.315 1438.79 635.315 1433.16 Q635.315 1427.57 632.537 1424.34 Q629.794 1421.08 625.072 1421.08 Q620.35 1421.08 617.572 1424.34 Q614.829 1427.57 614.829 1433.16 Q614.829 1438.79 617.572 1442.02 Q620.35 1445.24 625.072 1445.24 Z" fill="#000000" fill-rule="evenodd" fill-opacity="1" /><path clip-path="url(#clip570)" d="M671.148 1421.08 Q665.732 1421.08 662.989 1426.43 Q660.28 1431.74 660.28 1442.43 Q660.28 1453.09 662.989 1458.44 Q665.732 1463.75 671.148 1463.75 Q676.6 1463.75 679.308 1458.44 Q682.051 1453.09 682.051 1442.43 Q682.051 1431.74 679.308 1426.43 Q676.6 1421.08 671.148 1421.08 M671.148 1415.52 Q679.863 1415.52 684.447 1422.43 Q689.065 1429.31 689.065 1442.43 Q689.065 1455.52 684.447 1462.43 Q679.863 1469.31 671.148 1469.31 Q662.433 1469.31 657.815 1462.43 Q653.232 1455.52 653.232 1442.43 Q653.232 1429.31 657.815 1422.43 Q662.433 1415.52 671.148 1415.52 Z" fill="#000000" fill-rule="evenodd" fill-opacity="1" /><path clip-path="url(#clip570)" d="M716.391 1421.08 Q710.974 1421.08 708.231 1426.43 Q705.523 1431.74 705.523 1442.43 Q705.523 1453.09 708.231 1458.44 Q710.974 1463.75 716.391 1463.75 Q721.842 1463.75 724.551 1458.44 Q727.294 1453.09 727.294 1442.43 Q727.294 1431.74 724.551 1426.43 Q721.842 1421.08 716.391 1421.08 M716.391 1415.52 Q725.106 1415.52 729.69 1422.43 Q734.308 1429.31 734.308 1442.43 Q734.308 1455.52 729.69 1462.43 Q725.106 1469.31 716.391 1469.31 Q707.676 1469.31 703.058 1462.43 Q698.474 1455.52 698.474 1442.43 Q698.474 1429.31 703.058 1422.43 Q707.676 1415.52 716.391 1415.52 Z" fill="#000000" fill-rule="evenodd" fill-opacity="1" /><path clip-path="url(#clip570)" d="M929.925 1462.4 L941.383 1462.4 L941.383 1422.85 L928.918 1425.35 L928.918 1418.96 L941.314 1416.46 L948.327 1416.46 L948.327 1462.4 L959.786 1462.4 L959.786 1468.3 L929.925 1468.3 L929.925 1462.4 Z" fill="#000000" fill-rule="evenodd" fill-opacity="1" /><path clip-path="url(#clip570)" d="M974.161 1467.22 L974.161 1460.83 Q976.8 1462.08 979.508 1462.74 Q982.216 1463.4 984.82 1463.4 Q991.765 1463.4 995.411 1458.75 Q999.091 1454.06 999.612 1444.55 Q997.598 1447.54 994.508 1449.13 Q991.418 1450.73 987.668 1450.73 Q979.89 1450.73 975.341 1446.04 Q970.827 1441.32 970.827 1433.16 Q970.827 1425.18 975.55 1420.35 Q980.272 1415.52 988.119 1415.52 Q997.112 1415.52 1001.83 1422.43 Q1006.59 1429.31 1006.59 1442.43 Q1006.59 1454.69 1000.76 1462.02 Q994.959 1469.31 985.133 1469.31 Q982.494 1469.31 979.786 1468.79 Q977.077 1468.27 974.161 1467.22 M988.119 1445.24 Q992.841 1445.24 995.584 1442.02 Q998.362 1438.79 998.362 1433.16 Q998.362 1427.57 995.584 1424.34 Q992.841 1421.08 988.119 1421.08 Q983.397 1421.08 980.619 1424.34 Q977.876 1427.57 977.876 1433.16 Q977.876 1438.79 980.619 1442.02 Q983.397 1445.24 988.119 1445.24 Z" fill="#000000" fill-rule="evenodd" fill-opacity="1" /><path clip-path="url(#clip570)" d="M1025.24 1462.4 L1049.72 1462.4 L1049.72 1468.3 L1016.8 1468.3 L1016.8 1462.4 Q1020.79 1458.27 1027.67 1451.32 Q1034.58 1444.34 1036.35 1442.33 Q1039.72 1438.54 1041.04 1435.94 Q1042.39 1433.3 1042.39 1430.77 Q1042.39 1426.63 1039.47 1424.03 Q1036.59 1421.43 1031.94 1421.43 Q1028.64 1421.43 1024.96 1422.57 Q1021.31 1423.72 1017.15 1426.04 L1017.15 1418.96 Q1021.38 1417.26 1025.06 1416.39 Q1028.74 1415.52 1031.8 1415.52 Q1039.85 1415.52 1044.65 1419.55 Q1049.44 1423.58 1049.44 1430.31 Q1049.44 1433.51 1048.22 1436.39 Q1047.04 1439.24 1043.88 1443.13 Q1043.01 1444.13 1038.36 1448.96 Q1033.71 1453.75 1025.24 1462.4 Z" fill="#000000" fill-rule="evenodd" fill-opacity="1" /><path clip-path="url(#clip570)" d="M1064.51 1416.46 L1092.04 1416.46 L1092.04 1422.36 L1070.93 1422.36 L1070.93 1435.07 Q1072.46 1434.55 1073.99 1434.31 Q1075.51 1434.03 1077.04 1434.03 Q1085.72 1434.03 1090.79 1438.79 Q1095.86 1443.54 1095.86 1451.67 Q1095.86 1460.04 1090.65 1464.69 Q1085.44 1469.31 1075.97 1469.31 Q1072.7 1469.31 1069.3 1468.75 Q1065.93 1468.2 1062.32 1467.08 L1062.32 1460.04 Q1065.44 1461.74 1068.78 1462.57 Q1072.11 1463.4 1075.83 1463.4 Q1081.83 1463.4 1085.34 1460.24 Q1088.85 1457.08 1088.85 1451.67 Q1088.85 1446.25 1085.34 1443.09 Q1081.83 1439.93 1075.83 1439.93 Q1073.01 1439.93 1070.2 1440.56 Q1067.42 1441.18 1064.51 1442.5 L1064.51 1416.46 Z" fill="#000000" fill-rule="evenodd" fill-opacity="1" /><path clip-path="url(#clip570)" d="M1291.48 1462.4 L1302.94 1462.4 L1302.94 1422.85 L1290.47 1425.35 L1290.47 1418.96 L1302.87 1416.46 L1309.88 1416.46 L1309.88 1462.4 L1321.34 1462.4 L1321.34 1468.3 L1291.48 1468.3 L1291.48 1462.4 Z" fill="#000000" fill-rule="evenodd" fill-opacity="1" /><path clip-path="url(#clip570)" d="M1335.71 1467.22 L1335.71 1460.83 Q1338.35 1462.08 1341.06 1462.74 Q1343.77 1463.4 1346.37 1463.4 Q1353.32 1463.4 1356.96 1458.75 Q1360.64 1454.06 1361.17 1444.55 Q1359.15 1447.54 1356.06 1449.13 Q1352.97 1450.73 1349.22 1450.73 Q1341.44 1450.73 1336.9 1446.04 Q1332.38 1441.32 1332.38 1433.16 Q1332.38 1425.18 1337.1 1420.35 Q1341.83 1415.52 1349.67 1415.52 Q1358.67 1415.52 1363.39 1422.43 Q1368.14 1429.31 1368.14 1442.43 Q1368.14 1454.69 1362.31 1462.02 Q1356.51 1469.31 1346.69 1469.31 Q1344.05 1469.31 1341.34 1468.79 Q1338.63 1468.27 1335.71 1467.22 M1349.67 1445.24 Q1354.39 1445.24 1357.14 1442.02 Q1359.92 1438.79 1359.92 1433.16 Q1359.92 1427.57 1357.14 1424.34 Q1354.39 1421.08 1349.67 1421.08 Q1344.95 1421.08 1342.17 1424.34 Q1339.43 1427.57 1339.43 1433.16 Q1339.43 1438.79 1342.17 1442.02 Q1344.95 1445.24 1349.67 1445.24 Z" fill="#000000" fill-rule="evenodd" fill-opacity="1" /><path clip-path="url(#clip570)" d="M1380.82 1416.46 L1408.35 1416.46 L1408.35 1422.36 L1387.24 1422.36 L1387.24 1435.07 Q1388.77 1434.55 1390.3 1434.31 Q1391.83 1434.03 1393.35 1434.03 Q1402.03 1434.03 1407.1 1438.79 Q1412.17 1443.54 1412.17 1451.67 Q1412.17 1460.04 1406.96 1464.69 Q1401.76 1469.31 1392.28 1469.31 Q1389.01 1469.31 1385.61 1468.75 Q1382.24 1468.2 1378.63 1467.08 L1378.63 1460.04 Q1381.76 1461.74 1385.09 1462.57 Q1388.42 1463.4 1392.14 1463.4 Q1398.14 1463.4 1401.65 1460.24 Q1405.16 1457.08 1405.16 1451.67 Q1405.16 1446.25 1401.65 1443.09 Q1398.14 1439.93 1392.14 1439.93 Q1389.33 1439.93 1386.51 1440.56 Q1383.74 1441.18 1380.82 1442.5 L1380.82 1416.46 Z" fill="#000000" fill-rule="evenodd" fill-opacity="1" /><path clip-path="url(#clip570)" d="M1440.99 1421.08 Q1435.58 1421.08 1432.83 1426.43 Q1430.12 1431.74 1430.12 1442.43 Q1430.12 1453.09 1432.83 1458.44 Q1435.58 1463.75 1440.99 1463.75 Q1446.44 1463.75 1449.15 1458.44 Q1451.89 1453.09 1451.89 1442.43 Q1451.89 1431.74 1449.15 1426.43 Q1446.44 1421.08 1440.99 1421.08 M1440.99 1415.52 Q1449.71 1415.52 1454.29 1422.43 Q1458.91 1429.31 1458.91 1442.43 Q1458.91 1455.52 1454.29 1462.43 Q1449.71 1469.31 1440.99 1469.31 Q1432.28 1469.31 1427.66 1462.43 Q1423.08 1455.52 1423.08 1442.43 Q1423.08 1429.31 1427.66 1422.43 Q1432.28 1415.52 1440.99 1415.52 Z" fill="#000000" fill-rule="evenodd" fill-opacity="1" /><path clip-path="url(#clip570)" d="M1654.53 1462.4 L1665.98 1462.4 L1665.98 1422.85 L1653.52 1425.35 L1653.52 1418.96 L1665.91 1416.46 L1672.93 1416.46 L1672.93 1462.4 L1684.39 1462.4 L1684.39 1468.3 L1654.53 1468.3 L1654.53 1462.4 Z" fill="#000000" fill-rule="evenodd" fill-opacity="1" /><path clip-path="url(#clip570)" d="M1698.76 1467.22 L1698.76 1460.83 Q1701.4 1462.08 1704.11 1462.74 Q1706.82 1463.4 1709.42 1463.4 Q1716.37 1463.4 1720.01 1458.75 Q1723.69 1454.06 1724.21 1444.55 Q1722.2 1447.54 1719.11 1449.13 Q1716.02 1450.73 1712.27 1450.73 Q1704.49 1450.73 1699.94 1446.04 Q1695.43 1441.32 1695.43 1433.16 Q1695.43 1425.18 1700.15 1420.35 Q1704.87 1415.52 1712.72 1415.52 Q1721.71 1415.52 1726.43 1422.43 Q1731.19 1429.31 1731.19 1442.43 Q1731.19 1454.69 1725.36 1462.02 Q1719.56 1469.31 1709.73 1469.31 Q1707.09 1469.31 1704.39 1468.79 Q1701.68 1468.27 1698.76 1467.22 M1712.72 1445.24 Q1717.44 1445.24 1720.18 1442.02 Q1722.96 1438.79 1722.96 1433.16 Q1722.96 1427.57 1720.18 1424.34 Q1717.44 1421.08 1712.72 1421.08 Q1708 1421.08 1705.22 1424.34 Q1702.48 1427.57 1702.48 1433.16 Q1702.48 1438.79 1705.22 1442.02 Q1708 1445.24 1712.72 1445.24 Z" fill="#000000" fill-rule="evenodd" fill-opacity="1" /><path clip-path="url(#clip570)" d="M1742.02 1416.46 L1775.36 1416.46 L1775.36 1419.45 L1756.54 1468.3 L1749.21 1468.3 L1766.92 1422.36 L1742.02 1422.36 L1742.02 1416.46 Z" fill="#000000" fill-rule="evenodd" fill-opacity="1" /><path clip-path="url(#clip570)" d="M1789.11 1416.46 L1816.64 1416.46 L1816.64 1422.36 L1795.53 1422.36 L1795.53 1435.07 Q1797.06 1434.55 1798.59 1434.31 Q1800.11 1434.03 1801.64 1434.03 Q1810.32 1434.03 1815.39 1438.79 Q1820.46 1443.54 1820.46 1451.67 Q1820.46 1460.04 1815.25 1464.69 Q1810.05 1469.31 1800.57 1469.31 Q1797.3 1469.31 1793.9 1468.75 Q1790.53 1468.2 1786.92 1467.08 L1786.92 1460.04 Q1790.05 1461.74 1793.38 1462.57 Q1796.71 1463.4 1800.43 1463.4 Q1806.43 1463.4 1809.94 1460.24 Q1813.45 1457.08 1813.45 1451.67 Q1813.45 1446.25 1809.94 1443.09 Q1806.43 1439.93 1800.43 1439.93 Q1797.61 1439.93 1794.8 1440.56 Q1792.02 1441.18 1789.11 1442.5 L1789.11 1416.46 Z" fill="#000000" fill-rule="evenodd" fill-opacity="1" /><path clip-path="url(#clip570)" d="M2022.21 1462.4 L2046.69 1462.4 L2046.69 1468.3 L2013.77 1468.3 L2013.77 1462.4 Q2017.76 1458.27 2024.64 1451.32 Q2031.55 1444.34 2033.32 1442.33 Q2036.69 1438.54 2038.01 1435.94 Q2039.36 1433.3 2039.36 1430.77 Q2039.36 1426.63 2036.44 1424.03 Q2033.56 1421.43 2028.91 1421.43 Q2025.61 1421.43 2021.93 1422.57 Q2018.28 1423.72 2014.12 1426.04 L2014.12 1418.96 Q2018.35 1417.26 2022.03 1416.39 Q2025.71 1415.52 2028.77 1415.52 Q2036.83 1415.52 2041.62 1419.55 Q2046.41 1423.58 2046.41 1430.31 Q2046.41 1433.51 2045.19 1436.39 Q2044.01 1439.24 2040.85 1443.13 Q2039.99 1444.13 2035.33 1448.96 Q2030.68 1453.75 2022.21 1462.4 Z" fill="#000000" fill-rule="evenodd" fill-opacity="1" /><path clip-path="url(#clip570)" d="M2076.41 1421.08 Q2070.99 1421.08 2068.25 1426.43 Q2065.54 1431.74 2065.54 1442.43 Q2065.54 1453.09 2068.25 1458.44 Q2070.99 1463.75 2076.41 1463.75 Q2081.86 1463.75 2084.57 1458.44 Q2087.31 1453.09 2087.31 1442.43 Q2087.31 1431.74 2084.57 1426.43 Q2081.86 1421.08 2076.41 1421.08 M2076.41 1415.52 Q2085.12 1415.52 2089.71 1422.43 Q2094.33 1429.31 2094.33 1442.43 Q2094.33 1455.52 2089.71 1462.43 Q2085.12 1469.31 2076.41 1469.31 Q2067.69 1469.31 2063.08 1462.43 Q2058.49 1455.52 2058.49 1442.43 Q2058.49 1429.31 2063.08 1422.43 Q2067.69 1415.52 2076.41 1415.52 Z" fill="#000000" fill-rule="evenodd" fill-opacity="1" /><path clip-path="url(#clip570)" d="M2121.65 1421.08 Q2116.23 1421.08 2113.49 1426.43 Q2110.78 1431.74 2110.78 1442.43 Q2110.78 1453.09 2113.49 1458.44 Q2116.23 1463.75 2121.65 1463.75 Q2127.1 1463.75 2129.81 1458.44 Q2132.55 1453.09 2132.55 1442.43 Q2132.55 1431.74 2129.81 1426.43 Q2127.1 1421.08 2121.65 1421.08 M2121.65 1415.52 Q2130.37 1415.52 2134.95 1422.43 Q2139.57 1429.31 2139.57 1442.43 Q2139.57 1455.52 2134.95 1462.43 Q2130.37 1469.31 2121.65 1469.31 Q2112.94 1469.31 2108.32 1462.43 Q2103.74 1455.52 2103.74 1442.43 Q2103.74 1429.31 2108.32 1422.43 Q2112.94 1415.52 2121.65 1415.52 Z" fill="#000000" fill-rule="evenodd" fill-opacity="1" /><path clip-path="url(#clip570)" d="M2166.89 1421.08 Q2161.48 1421.08 2158.73 1426.43 Q2156.03 1431.74 2156.03 1442.43 Q2156.03 1453.09 2158.73 1458.44 Q2161.48 1463.75 2166.89 1463.75 Q2172.35 1463.75 2175.05 1458.44 Q2177.8 1453.09 2177.8 1442.43 Q2177.8 1431.74 2175.05 1426.43 Q2172.35 1421.08 2166.89 1421.08 M2166.89 1415.52 Q2175.61 1415.52 2180.19 1422.43 Q2184.81 1429.31 2184.81 1442.43 Q2184.81 1455.52 2180.19 1462.43 Q2175.61 1469.31 2166.89 1469.31 Q2158.18 1469.31 2153.56 1462.43 Q2148.98 1455.52 2148.98 1442.43 Q2148.98 1429.31 2153.56 1422.43 Q2158.18 1415.52 2166.89 1415.52 Z" fill="#000000" fill-rule="evenodd" fill-opacity="1" /><path clip-path="url(#clip570)" d="M1230.75 1511.88 L1240.8 1511.88 L1259.96 1540.31 L1278.99 1511.88 L1289.04 1511.88 L1264.59 1548.09 L1264.59 1581 L1255.2 1581 L1255.2 1548.09 L1230.75 1511.88 Z" fill="#000000" fill-rule="evenodd" fill-opacity="1" /><path clip-path="url(#clip570)" d="M1329.55 1552.95 L1329.55 1557.12 L1290.38 1557.12 Q1290.94 1565.91 1295.66 1570.54 Q1300.43 1575.12 1308.9 1575.12 Q1313.81 1575.12 1318.39 1573.92 Q1323.02 1572.72 1327.56 1570.31 L1327.56 1578.36 Q1322.97 1580.31 1318.16 1581.33 Q1313.34 1582.35 1308.39 1582.35 Q1295.98 1582.35 1288.71 1575.12 Q1281.49 1567.9 1281.49 1555.59 Q1281.49 1542.86 1288.34 1535.4 Q1295.24 1527.9 1306.91 1527.9 Q1317.37 1527.9 1323.44 1534.66 Q1329.55 1541.37 1329.55 1552.95 M1321.03 1550.45 Q1320.94 1543.46 1317.09 1539.29 Q1313.3 1535.12 1307 1535.12 Q1299.87 1535.12 1295.57 1539.15 Q1291.31 1543.18 1290.66 1550.49 L1321.03 1550.45 Z" fill="#000000" fill-rule="evenodd" fill-opacity="1" /><path clip-path="url(#clip570)" d="M1367.09 1554.94 Q1356.77 1554.94 1352.79 1557.3 Q1348.81 1559.66 1348.81 1565.36 Q1348.81 1569.89 1351.77 1572.58 Q1354.78 1575.22 1359.92 1575.22 Q1367 1575.22 1371.26 1570.22 Q1375.57 1565.17 1375.57 1556.84 L1375.57 1554.94 L1367.09 1554.94 M1384.08 1551.42 L1384.08 1581 L1375.57 1581 L1375.57 1573.13 Q1372.65 1577.86 1368.3 1580.12 Q1363.95 1582.35 1357.65 1582.35 Q1349.69 1582.35 1344.96 1577.9 Q1340.29 1573.41 1340.29 1565.91 Q1340.29 1557.16 1346.12 1552.72 Q1352 1548.27 1363.62 1548.27 L1375.57 1548.27 L1375.57 1547.44 Q1375.57 1541.56 1371.68 1538.37 Q1367.83 1535.12 1360.84 1535.12 Q1356.4 1535.12 1352.19 1536.19 Q1347.97 1537.25 1344.08 1539.38 L1344.08 1531.51 Q1348.76 1529.71 1353.16 1528.83 Q1357.56 1527.9 1361.72 1527.9 Q1372.97 1527.9 1378.53 1533.74 Q1384.08 1539.57 1384.08 1551.42 Z" fill="#000000" fill-rule="evenodd" fill-opacity="1" /><path clip-path="url(#clip570)" d="M1431.68 1537.12 Q1430.24 1536.28 1428.53 1535.91 Q1426.86 1535.49 1424.82 1535.49 Q1417.6 1535.49 1413.71 1540.22 Q1409.87 1544.89 1409.87 1553.69 L1409.87 1581 L1401.31 1581 L1401.31 1529.15 L1409.87 1529.15 L1409.87 1537.21 Q1412.56 1532.49 1416.86 1530.22 Q1421.17 1527.9 1427.32 1527.9 Q1428.2 1527.9 1429.27 1528.04 Q1430.33 1528.13 1431.63 1528.37 L1431.68 1537.12 Z" fill="#000000" fill-rule="evenodd" fill-opacity="1" /><polyline clip-path="url(#clip572)" style="stroke:#000000; stroke-linecap:round; stroke-linejoin:round; stroke-width:2; stroke-opacity:0.1; fill:none" points="
  309.672,1094.5 2352.76,1094.5 
  "/>
<polyline clip-path="url(#clip572)" style="stroke:#000000; stroke-linecap:round; stroke-linejoin:round; stroke-width:2; stroke-opacity:0.1; fill:none" points="
  309.672,758.724 2352.76,758.724 
  "/>
<polyline clip-path="url(#clip572)" style="stroke:#000000; stroke-linecap:round; stroke-linejoin:round; stroke-width:2; stroke-opacity:0.1; fill:none" points="
  309.672,422.951 2352.76,422.951 
  "/>
<polyline clip-path="url(#clip572)" style="stroke:#000000; stroke-linecap:round; stroke-linejoin:round; stroke-width:2; stroke-opacity:0.1; fill:none" points="
  309.672,87.177 2352.76,87.177 
  "/>
<polyline clip-path="url(#clip570)" style="stroke:#000000; stroke-linecap:round; stroke-linejoin:round; stroke-width:4; stroke-opacity:1; fill:none" points="
  309.672,1384.3 309.672,47.2441 
  "/>
<polyline clip-path="url(#clip570)" style="stroke:#000000; stroke-linecap:round; stroke-linejoin:round; stroke-width:4; stroke-opacity:1; fill:none" points="
  309.672,1094.5 328.57,1094.5 
  "/>
<polyline clip-path="url(#clip570)" style="stroke:#000000; stroke-linecap:round; stroke-linejoin:round; stroke-width:4; stroke-opacity:1; fill:none" points="
  309.672,758.724 328.57,758.724 
  "/>
<polyline clip-path="url(#clip570)" style="stroke:#000000; stroke-linecap:round; stroke-linejoin:round; stroke-width:4; stroke-opacity:1; fill:none" points="
  309.672,422.951 328.57,422.951 
  "/>
<polyline clip-path="url(#clip570)" style="stroke:#000000; stroke-linecap:round; stroke-linejoin:round; stroke-width:4; stroke-opacity:1; fill:none" points="
  309.672,87.177 328.57,87.177 
  "/>
<path clip-path="url(#clip570)" d="M135.86 1095.17 L180.374 1095.17 L180.374 1101.08 L135.86 1101.08 L135.86 1095.17 Z" fill="#000000" fill-rule="evenodd" fill-opacity="1" /><path clip-path="url(#clip570)" d="M196.728 1114.52 L208.186 1114.52 L208.186 1074.97 L195.721 1077.47 L195.721 1071.08 L208.117 1068.58 L215.131 1068.58 L215.131 1114.52 L226.589 1114.52 L226.589 1120.42 L196.728 1120.42 L196.728 1114.52 Z" fill="#000000" fill-rule="evenodd" fill-opacity="1" /><path clip-path="url(#clip570)" d="M255.755 1073.2 Q250.339 1073.2 247.596 1078.54 Q244.887 1083.86 244.887 1094.55 Q244.887 1105.21 247.596 1110.56 Q250.339 1115.87 255.755 1115.87 Q261.207 1115.87 263.915 1110.56 Q266.658 1105.21 266.658 1094.55 Q266.658 1083.86 263.915 1078.54 Q261.207 1073.2 255.755 1073.2 M255.755 1067.64 Q264.471 1067.64 269.054 1074.55 Q273.672 1081.43 273.672 1094.55 Q273.672 1107.64 269.054 1114.55 Q264.471 1121.42 255.755 1121.42 Q247.04 1121.42 242.422 1114.55 Q237.839 1107.64 237.839 1094.55 Q237.839 1081.43 242.422 1074.55 Q247.04 1067.64 255.755 1067.64 Z" fill="#000000" fill-rule="evenodd" fill-opacity="1" /><path clip-path="url(#clip570)" d="M255.755 737.422 Q250.339 737.422 247.596 742.769 Q244.887 748.082 244.887 758.776 Q244.887 769.436 247.596 774.783 Q250.339 780.096 255.755 780.096 Q261.207 780.096 263.915 774.783 Q266.658 769.436 266.658 758.776 Q266.658 748.082 263.915 742.769 Q261.207 737.422 255.755 737.422 M255.755 731.867 Q264.471 731.867 269.054 738.776 Q273.672 745.651 273.672 758.776 Q273.672 771.867 269.054 778.776 Q264.471 785.651 255.755 785.651 Q247.04 785.651 242.422 778.776 Q237.839 771.867 237.839 758.776 Q237.839 745.651 242.422 738.776 Q247.04 731.867 255.755 731.867 Z" fill="#000000" fill-rule="evenodd" fill-opacity="1" /><path clip-path="url(#clip570)" d="M196.728 442.968 L208.186 442.968 L208.186 403.419 L195.721 405.919 L195.721 399.531 L208.117 397.031 L215.131 397.031 L215.131 442.968 L226.589 442.968 L226.589 448.871 L196.728 448.871 L196.728 442.968 Z" fill="#000000" fill-rule="evenodd" fill-opacity="1" /><path clip-path="url(#clip570)" d="M255.755 401.649 Q250.339 401.649 247.596 406.996 Q244.887 412.308 244.887 423.003 Q244.887 433.662 247.596 439.01 Q250.339 444.322 255.755 444.322 Q261.207 444.322 263.915 439.01 Q266.658 433.662 266.658 423.003 Q266.658 412.308 263.915 406.996 Q261.207 401.649 255.755 401.649 M255.755 396.093 Q264.471 396.093 269.054 403.003 Q273.672 409.878 273.672 423.003 Q273.672 436.093 269.054 443.003 Q264.471 449.878 255.755 449.878 Q247.04 449.878 242.422 443.003 Q237.839 436.093 237.839 423.003 Q237.839 409.878 242.422 403.003 Q247.04 396.093 255.755 396.093 Z" fill="#000000" fill-rule="evenodd" fill-opacity="1" /><path clip-path="url(#clip570)" d="M201.554 107.194 L226.033 107.194 L226.033 113.097 L193.117 113.097 L193.117 107.194 Q197.11 103.062 203.985 96.1179 Q210.894 89.1388 212.665 87.1249 Q216.033 83.3402 217.353 80.7361 Q218.707 78.0972 218.707 75.5625 Q218.707 71.4306 215.79 68.8264 Q212.908 66.2222 208.256 66.2222 Q204.957 66.2222 201.276 67.3681 Q197.631 68.5139 193.464 70.8403 L193.464 63.757 Q197.7 62.0556 201.381 61.1875 Q205.061 60.3195 208.117 60.3195 Q216.172 60.3195 220.964 64.3473 Q225.756 68.375 225.756 75.1111 Q225.756 78.3055 224.54 81.1874 Q223.36 84.0346 220.2 87.9235 Q219.332 88.9305 214.679 93.7568 Q210.026 98.5485 201.554 107.194 Z" fill="#000000" fill-rule="evenodd" fill-opacity="1" /><path clip-path="url(#clip570)" d="M255.755 65.875 Q250.339 65.875 247.596 71.2222 Q244.887 76.5347 244.887 87.2291 Q244.887 97.8887 247.596 103.236 Q250.339 108.548 255.755 108.548 Q261.207 108.548 263.915 103.236 Q266.658 97.8887 266.658 87.2291 Q266.658 76.5347 263.915 71.2222 Q261.207 65.875 255.755 65.875 M255.755 60.3195 Q264.471 60.3195 269.054 67.2292 Q273.672 74.1041 273.672 87.2291 Q273.672 100.319 269.054 107.229 Q264.471 114.104 255.755 114.104 Q247.04 114.104 242.422 107.229 Q237.839 100.319 237.839 87.2291 Q237.839 74.1041 242.422 67.2292 Q247.04 60.3195 255.755 60.3195 Z" fill="#000000" fill-rule="evenodd" fill-opacity="1" /><path clip-path="url(#clip570)" d="M46.7169 1018.9 Q47.7354 1015.89 51.0688 1013.06 Q54.4021 1010.19 60.2354 1007.32 L79.1242 997.831 L79.1242 1007.88 L61.3928 1016.72 Q54.4484 1020.15 52.1799 1023.39 Q49.9114 1026.58 49.9114 1032.14 L49.9114 1042.32 L79.1242 1042.32 L79.1242 1051.67 L10.0042 1051.67 L10.0042 1030.56 Q10.0042 1018.71 14.9578 1012.88 Q19.9115 1007.04 29.9115 1007.04 Q36.4392 1007.04 40.7447 1010.1 Q45.0503 1013.11 46.7169 1018.9 M17.6893 1042.32 L42.2262 1042.32 L42.2262 1030.56 Q42.2262 1023.8 39.1244 1020.38 Q35.9762 1016.9 29.9115 1016.9 Q23.8467 1016.9 20.7911 1020.38 Q17.6893 1023.8 17.6893 1030.56 L17.6893 1042.32 Z" fill="#000000" fill-rule="evenodd" fill-opacity="1" /><path clip-path="url(#clip570)" d="M51.0688 946.072 L55.2354 946.072 L55.2354 985.238 Q64.0316 984.683 68.6613 979.96 Q73.2446 975.192 73.2446 966.72 Q73.2446 961.812 72.0409 957.229 Q70.8372 952.599 68.4298 948.062 L76.4853 948.062 Q78.4297 952.646 79.4482 957.46 Q80.4667 962.275 80.4667 967.229 Q80.4667 979.636 73.2446 986.905 Q66.0224 994.127 53.7076 994.127 Q40.9762 994.127 33.5225 987.275 Q26.0226 980.377 26.0226 968.71 Q26.0226 958.248 32.7818 952.183 Q39.4947 946.072 51.0688 946.072 M48.5688 954.59 Q41.5781 954.683 37.4114 958.525 Q33.2448 962.322 33.2448 968.618 Q33.2448 975.747 37.2725 980.053 Q41.3003 984.312 48.6151 984.96 L48.5688 954.59 Z" fill="#000000" fill-rule="evenodd" fill-opacity="1" /><path clip-path="url(#clip570)" d="M28.8004 899.035 L36.8559 899.035 Q35.004 902.646 34.0781 906.535 Q33.1522 910.424 33.1522 914.59 Q33.1522 920.933 35.0966 924.127 Q37.041 927.275 40.9299 927.275 Q43.8929 927.275 45.6058 925.007 Q47.2725 922.738 48.8002 915.887 L49.4484 912.97 Q51.3928 903.896 54.9576 900.1 Q58.4761 896.257 64.8187 896.257 Q72.0409 896.257 76.2538 901.998 Q80.4667 907.692 80.4667 917.692 Q80.4667 921.859 79.6334 926.396 Q78.8464 930.887 77.226 935.887 L68.4298 935.887 Q70.8835 931.164 72.1335 926.581 Q73.3372 921.998 73.3372 917.507 Q73.3372 911.489 71.3001 908.248 Q69.2168 905.007 65.4668 905.007 Q61.9946 905.007 60.1428 907.368 Q58.2909 909.683 56.578 917.6 L55.8835 920.563 Q54.2169 928.479 50.791 931.998 Q47.3188 935.516 41.3003 935.516 Q33.9855 935.516 30.0041 930.331 Q26.0226 925.146 26.0226 915.609 Q26.0226 910.887 26.717 906.72 Q27.4115 902.553 28.8004 899.035 Z" fill="#000000" fill-rule="evenodd" fill-opacity="1" /><path clip-path="url(#clip570)" d="M27.2726 882.692 L27.2726 874.174 L79.1242 874.174 L79.1242 882.692 L27.2726 882.692 M7.08751 882.692 L7.08751 874.174 L17.8745 874.174 L17.8745 882.692 L7.08751 882.692 Z" fill="#000000" fill-rule="evenodd" fill-opacity="1" /><path clip-path="url(#clip570)" d="M35.1429 822.23 L7.08751 822.23 L7.08751 813.711 L79.1242 813.711 L79.1242 822.23 L71.3464 822.23 Q75.976 824.915 78.2445 829.035 Q80.4667 833.109 80.4667 838.85 Q80.4667 848.248 72.9668 854.174 Q65.4668 860.054 53.2447 860.054 Q41.0225 860.054 33.5225 854.174 Q26.0226 848.248 26.0226 838.85 Q26.0226 833.109 28.2911 829.035 Q30.5133 824.915 35.1429 822.23 M53.2447 851.257 Q62.6428 851.257 68.0131 847.415 Q73.3372 843.526 73.3372 836.767 Q73.3372 830.007 68.0131 826.119 Q62.6428 822.23 53.2447 822.23 Q43.8466 822.23 38.5225 826.119 Q33.1522 830.007 33.1522 836.767 Q33.1522 843.526 38.5225 847.415 Q43.8466 851.257 53.2447 851.257 Z" fill="#000000" fill-rule="evenodd" fill-opacity="1" /><path clip-path="url(#clip570)" d="M58.6613 797.045 L27.2726 797.045 L27.2726 788.526 L58.3372 788.526 Q65.6983 788.526 69.402 785.656 Q73.0594 782.785 73.0594 777.045 Q73.0594 770.147 68.6613 766.165 Q64.2631 762.137 56.6706 762.137 L27.2726 762.137 L27.2726 753.619 L79.1242 753.619 L79.1242 762.137 L71.1612 762.137 Q75.8834 765.239 78.1982 769.36 Q80.4667 773.434 80.4667 778.85 Q80.4667 787.785 74.9112 792.415 Q69.3557 797.045 58.6613 797.045 M26.0226 775.61 L26.0226 775.61 Z" fill="#000000" fill-rule="evenodd" fill-opacity="1" /><path clip-path="url(#clip570)" d="M53.0595 712.508 Q53.0595 722.832 55.4206 726.814 Q57.7817 730.795 63.4761 730.795 Q68.0131 730.795 70.6983 727.832 Q73.3372 724.823 73.3372 719.684 Q73.3372 712.601 68.3372 708.341 Q63.2909 704.036 54.9576 704.036 L53.0595 704.036 L53.0595 712.508 M49.541 695.517 L79.1242 695.517 L79.1242 704.036 L71.2538 704.036 Q75.976 706.953 78.2445 711.304 Q80.4667 715.656 80.4667 721.952 Q80.4667 729.915 76.0223 734.638 Q71.5316 739.314 64.0316 739.314 Q55.2817 739.314 50.8373 733.48 Q46.3929 727.601 46.3929 715.98 L46.3929 704.036 L45.5595 704.036 Q39.6799 704.036 36.4855 707.925 Q33.2448 711.767 33.2448 718.758 Q33.2448 723.202 34.3096 727.415 Q35.3744 731.628 37.504 735.517 L29.6337 735.517 Q27.8281 730.841 26.9485 726.443 Q26.0226 722.045 26.0226 717.878 Q26.0226 706.628 31.8559 701.073 Q37.6892 695.517 49.541 695.517 Z" fill="#000000" fill-rule="evenodd" fill-opacity="1" /><path clip-path="url(#clip570)" d="M7.08751 677.971 L7.08751 669.453 L79.1242 669.453 L79.1242 677.971 L7.08751 677.971 Z" fill="#000000" fill-rule="evenodd" fill-opacity="1" /><path clip-path="url(#clip570)" d="M7.1801 601.027 Q17.8282 607.231 28.2448 610.24 Q38.6614 613.249 49.3558 613.249 Q60.0502 613.249 70.5594 610.24 Q81.0223 607.185 91.6241 601.027 L91.6241 608.435 Q80.7445 615.379 70.2353 618.851 Q59.7261 622.277 49.3558 622.277 Q39.0318 622.277 28.5689 618.851 Q18.106 615.425 7.1801 608.435 L7.1801 601.027 Z" fill="#000000" fill-rule="evenodd" fill-opacity="1" /><path clip-path="url(#clip570)" d="M37.2262 544.129 Q31.4855 540.935 28.7541 536.491 Q26.0226 532.046 26.0226 526.028 Q26.0226 517.926 31.717 513.528 Q37.3651 509.13 47.828 509.13 L79.1242 509.13 L79.1242 517.694 L48.1058 517.694 Q40.6521 517.694 37.041 520.333 Q33.43 522.972 33.43 528.389 Q33.43 535.009 37.8281 538.852 Q42.2262 542.694 49.8188 542.694 L79.1242 542.694 L79.1242 551.259 L48.1058 551.259 Q40.6058 551.259 37.041 553.898 Q33.43 556.537 33.43 562.046 Q33.43 568.574 37.8744 572.416 Q42.2725 576.259 49.8188 576.259 L79.1242 576.259 L79.1242 584.824 L27.2726 584.824 L27.2726 576.259 L35.3281 576.259 Q30.5596 573.342 28.2911 569.268 Q26.0226 565.194 26.0226 559.592 Q26.0226 553.944 28.8929 550.009 Q31.7633 546.028 37.2262 544.129 Z" fill="#000000" fill-rule="evenodd" fill-opacity="1" /><path clip-path="url(#clip570)" d="M37.2262 451.769 Q31.4855 448.574 28.7541 444.13 Q26.0226 439.685 26.0226 433.667 Q26.0226 425.565 31.717 421.167 Q37.3651 416.769 47.828 416.769 L79.1242 416.769 L79.1242 425.334 L48.1058 425.334 Q40.6521 425.334 37.041 427.973 Q33.43 430.611 33.43 436.028 Q33.43 442.648 37.8281 446.491 Q42.2262 450.334 49.8188 450.334 L79.1242 450.334 L79.1242 458.898 L48.1058 458.898 Q40.6058 458.898 37.041 461.537 Q33.43 464.176 33.43 469.685 Q33.43 476.213 37.8744 480.056 Q42.2725 483.898 49.8188 483.898 L79.1242 483.898 L79.1242 492.463 L27.2726 492.463 L27.2726 483.898 L35.3281 483.898 Q30.5596 480.982 28.2911 476.908 Q26.0226 472.833 26.0226 467.232 Q26.0226 461.584 28.8929 457.648 Q31.7633 453.667 37.2262 451.769 Z" fill="#000000" fill-rule="evenodd" fill-opacity="1" /><path clip-path="url(#clip570)" d="M7.1801 401.121 L7.1801 393.714 Q18.106 386.769 28.5689 383.343 Q39.0318 379.871 49.3558 379.871 Q59.7261 379.871 70.2353 383.343 Q80.7445 386.769 91.6241 393.714 L91.6241 401.121 Q81.0223 394.964 70.5594 391.954 Q60.0502 388.899 49.3558 388.899 Q38.6614 388.899 28.2448 391.954 Q17.8282 394.964 7.1801 401.121 Z" fill="#000000" fill-rule="evenodd" fill-opacity="1" /><polyline clip-path="url(#clip572)" style="stroke:#009af9; stroke-linecap:round; stroke-linejoin:round; stroke-width:4; stroke-opacity:1; fill:none" points="
  367.495,918.277 381.987,756.091 396.479,1346.46 410.971,1195.19 425.463,520.53 439.955,598.427 454.447,706.964 468.939,923.37 483.431,881.651 497.923,857.141 
  512.415,819.621 526.907,906.759 541.399,829.788 555.891,702.872 570.383,1059.89 584.875,695.418 599.367,982.766 613.859,840.745 628.351,558.12 642.843,339.713 
  657.335,554.874 671.827,602.57 686.319,482.8 700.811,249.288 715.303,630.662 729.795,851.286 744.287,659.329 758.779,743.127 773.271,864.281 787.763,750.815 
  802.255,792.226 816.747,552.007 831.239,694.991 845.731,673.867 860.223,502.066 874.716,276.962 889.208,381.337 903.7,573.434 918.192,668.578 932.684,656.695 
  947.176,655.306 961.668,627.476 976.16,700.799 990.652,704.03 1005.14,993.09 1019.64,970.301 1034.13,796.835 1048.62,878.978 1063.11,1055.56 1077.6,1054.6 
  1092.1,966.76 1106.59,1027.08 1121.08,883.004 1135.57,786.354 1150.06,1015.83 1164.56,876.367 1179.05,1056.31 1193.54,914.34 1208.03,876.877 1222.52,752.533 
  1237.02,981.172 1251.51,622.628 1266,674.149 1280.49,726.091 1294.98,993.349 1309.48,952.116 1323.97,753.49 1338.46,703.026 1352.95,595.901 1367.44,694.018 
  1381.94,675.036 1396.43,411.36 1410.92,554.391 1425.41,462.801 1439.9,616.747 1454.4,643.52 1468.89,872.178 1483.38,480.076 1497.87,491.322 1512.36,539.925 
  1526.86,474.786 1541.35,326.124 1555.84,560.665 1570.33,674.748 1584.82,1000.79 1599.32,685.924 1613.81,928.864 1628.3,943.899 1642.79,979.501 1657.28,814.06 
  1671.78,941.163 1686.27,830.287 1700.76,588.88 1715.25,854.913 1729.74,520.331 1744.24,639.465 1758.73,738.874 1773.22,862.207 1787.71,713.985 1802.2,945.608 
  1816.7,811.658 1831.19,463.234 1845.68,726.339 1860.17,513.066 1874.66,612.484 1889.16,1027.95 1903.65,1077.84 1918.14,1128.16 1932.63,1041.23 1947.12,961.43 
  1961.62,955.925 1976.11,944.126 1990.6,993.187 2005.09,1126.61 2019.58,1025.42 2034.08,1001.87 2048.57,938.452 2063.06,778.08 2077.55,1185.59 2092.04,975.69 
  2106.54,1007.97 2121.03,899.649 2135.52,895.837 2150.01,664.12 2164.5,755.167 2179,829.846 2193.49,763.921 2207.98,779.002 2222.47,566.178 2236.96,451.15 
  2251.46,272.745 2265.95,299.583 2280.44,85.0853 2294.93,448.539 
  "/>
<circle clip-path="url(#clip572)" cx="367.495" cy="918.277" r="14.4" fill="#009af9" fill-rule="evenodd" fill-opacity="1" stroke="#000000" stroke-opacity="1" stroke-width="3.2"/>
<circle clip-path="url(#clip572)" cx="381.987" cy="756.091" r="14.4" fill="#009af9" fill-rule="evenodd" fill-opacity="1" stroke="#000000" stroke-opacity="1" stroke-width="3.2"/>
<circle clip-path="url(#clip572)" cx="396.479" cy="1346.46" r="14.4" fill="#009af9" fill-rule="evenodd" fill-opacity="1" stroke="#000000" stroke-opacity="1" stroke-width="3.2"/>
<circle clip-path="url(#clip572)" cx="410.971" cy="1195.19" r="14.4" fill="#009af9" fill-rule="evenodd" fill-opacity="1" stroke="#000000" stroke-opacity="1" stroke-width="3.2"/>
<circle clip-path="url(#clip572)" cx="425.463" cy="520.53" r="14.4" fill="#009af9" fill-rule="evenodd" fill-opacity="1" stroke="#000000" stroke-opacity="1" stroke-width="3.2"/>
<circle clip-path="url(#clip572)" cx="439.955" cy="598.427" r="14.4" fill="#009af9" fill-rule="evenodd" fill-opacity="1" stroke="#000000" stroke-opacity="1" stroke-width="3.2"/>
<circle clip-path="url(#clip572)" cx="454.447" cy="706.964" r="14.4" fill="#009af9" fill-rule="evenodd" fill-opacity="1" stroke="#000000" stroke-opacity="1" stroke-width="3.2"/>
<circle clip-path="url(#clip572)" cx="468.939" cy="923.37" r="14.4" fill="#009af9" fill-rule="evenodd" fill-opacity="1" stroke="#000000" stroke-opacity="1" stroke-width="3.2"/>
<circle clip-path="url(#clip572)" cx="483.431" cy="881.651" r="14.4" fill="#009af9" fill-rule="evenodd" fill-opacity="1" stroke="#000000" stroke-opacity="1" stroke-width="3.2"/>
<circle clip-path="url(#clip572)" cx="497.923" cy="857.141" r="14.4" fill="#009af9" fill-rule="evenodd" fill-opacity="1" stroke="#000000" stroke-opacity="1" stroke-width="3.2"/>
<circle clip-path="url(#clip572)" cx="512.415" cy="819.621" r="14.4" fill="#009af9" fill-rule="evenodd" fill-opacity="1" stroke="#000000" stroke-opacity="1" stroke-width="3.2"/>
<circle clip-path="url(#clip572)" cx="526.907" cy="906.759" r="14.4" fill="#009af9" fill-rule="evenodd" fill-opacity="1" stroke="#000000" stroke-opacity="1" stroke-width="3.2"/>
<circle clip-path="url(#clip572)" cx="541.399" cy="829.788" r="14.4" fill="#009af9" fill-rule="evenodd" fill-opacity="1" stroke="#000000" stroke-opacity="1" stroke-width="3.2"/>
<circle clip-path="url(#clip572)" cx="555.891" cy="702.872" r="14.4" fill="#009af9" fill-rule="evenodd" fill-opacity="1" stroke="#000000" stroke-opacity="1" stroke-width="3.2"/>
<circle clip-path="url(#clip572)" cx="570.383" cy="1059.89" r="14.4" fill="#009af9" fill-rule="evenodd" fill-opacity="1" stroke="#000000" stroke-opacity="1" stroke-width="3.2"/>
<circle clip-path="url(#clip572)" cx="584.875" cy="695.418" r="14.4" fill="#009af9" fill-rule="evenodd" fill-opacity="1" stroke="#000000" stroke-opacity="1" stroke-width="3.2"/>
<circle clip-path="url(#clip572)" cx="599.367" cy="982.766" r="14.4" fill="#009af9" fill-rule="evenodd" fill-opacity="1" stroke="#000000" stroke-opacity="1" stroke-width="3.2"/>
<circle clip-path="url(#clip572)" cx="613.859" cy="840.745" r="14.4" fill="#009af9" fill-rule="evenodd" fill-opacity="1" stroke="#000000" stroke-opacity="1" stroke-width="3.2"/>
<circle clip-path="url(#clip572)" cx="628.351" cy="558.12" r="14.4" fill="#009af9" fill-rule="evenodd" fill-opacity="1" stroke="#000000" stroke-opacity="1" stroke-width="3.2"/>
<circle clip-path="url(#clip572)" cx="642.843" cy="339.713" r="14.4" fill="#009af9" fill-rule="evenodd" fill-opacity="1" stroke="#000000" stroke-opacity="1" stroke-width="3.2"/>
<circle clip-path="url(#clip572)" cx="657.335" cy="554.874" r="14.4" fill="#009af9" fill-rule="evenodd" fill-opacity="1" stroke="#000000" stroke-opacity="1" stroke-width="3.2"/>
<circle clip-path="url(#clip572)" cx="671.827" cy="602.57" r="14.4" fill="#009af9" fill-rule="evenodd" fill-opacity="1" stroke="#000000" stroke-opacity="1" stroke-width="3.2"/>
<circle clip-path="url(#clip572)" cx="686.319" cy="482.8" r="14.4" fill="#009af9" fill-rule="evenodd" fill-opacity="1" stroke="#000000" stroke-opacity="1" stroke-width="3.2"/>
<circle clip-path="url(#clip572)" cx="700.811" cy="249.288" r="14.4" fill="#009af9" fill-rule="evenodd" fill-opacity="1" stroke="#000000" stroke-opacity="1" stroke-width="3.2"/>
<circle clip-path="url(#clip572)" cx="715.303" cy="630.662" r="14.4" fill="#009af9" fill-rule="evenodd" fill-opacity="1" stroke="#000000" stroke-opacity="1" stroke-width="3.2"/>
<circle clip-path="url(#clip572)" cx="729.795" cy="851.286" r="14.4" fill="#009af9" fill-rule="evenodd" fill-opacity="1" stroke="#000000" stroke-opacity="1" stroke-width="3.2"/>
<circle clip-path="url(#clip572)" cx="744.287" cy="659.329" r="14.4" fill="#009af9" fill-rule="evenodd" fill-opacity="1" stroke="#000000" stroke-opacity="1" stroke-width="3.2"/>
<circle clip-path="url(#clip572)" cx="758.779" cy="743.127" r="14.4" fill="#009af9" fill-rule="evenodd" fill-opacity="1" stroke="#000000" stroke-opacity="1" stroke-width="3.2"/>
<circle clip-path="url(#clip572)" cx="773.271" cy="864.281" r="14.4" fill="#009af9" fill-rule="evenodd" fill-opacity="1" stroke="#000000" stroke-opacity="1" stroke-width="3.2"/>
<circle clip-path="url(#clip572)" cx="787.763" cy="750.815" r="14.4" fill="#009af9" fill-rule="evenodd" fill-opacity="1" stroke="#000000" stroke-opacity="1" stroke-width="3.2"/>
<circle clip-path="url(#clip572)" cx="802.255" cy="792.226" r="14.4" fill="#009af9" fill-rule="evenodd" fill-opacity="1" stroke="#000000" stroke-opacity="1" stroke-width="3.2"/>
<circle clip-path="url(#clip572)" cx="816.747" cy="552.007" r="14.4" fill="#009af9" fill-rule="evenodd" fill-opacity="1" stroke="#000000" stroke-opacity="1" stroke-width="3.2"/>
<circle clip-path="url(#clip572)" cx="831.239" cy="694.991" r="14.4" fill="#009af9" fill-rule="evenodd" fill-opacity="1" stroke="#000000" stroke-opacity="1" stroke-width="3.2"/>
<circle clip-path="url(#clip572)" cx="845.731" cy="673.867" r="14.4" fill="#009af9" fill-rule="evenodd" fill-opacity="1" stroke="#000000" stroke-opacity="1" stroke-width="3.2"/>
<circle clip-path="url(#clip572)" cx="860.223" cy="502.066" r="14.4" fill="#009af9" fill-rule="evenodd" fill-opacity="1" stroke="#000000" stroke-opacity="1" stroke-width="3.2"/>
<circle clip-path="url(#clip572)" cx="874.716" cy="276.962" r="14.4" fill="#009af9" fill-rule="evenodd" fill-opacity="1" stroke="#000000" stroke-opacity="1" stroke-width="3.2"/>
<circle clip-path="url(#clip572)" cx="889.208" cy="381.337" r="14.4" fill="#009af9" fill-rule="evenodd" fill-opacity="1" stroke="#000000" stroke-opacity="1" stroke-width="3.2"/>
<circle clip-path="url(#clip572)" cx="903.7" cy="573.434" r="14.4" fill="#009af9" fill-rule="evenodd" fill-opacity="1" stroke="#000000" stroke-opacity="1" stroke-width="3.2"/>
<circle clip-path="url(#clip572)" cx="918.192" cy="668.578" r="14.4" fill="#009af9" fill-rule="evenodd" fill-opacity="1" stroke="#000000" stroke-opacity="1" stroke-width="3.2"/>
<circle clip-path="url(#clip572)" cx="932.684" cy="656.695" r="14.4" fill="#009af9" fill-rule="evenodd" fill-opacity="1" stroke="#000000" stroke-opacity="1" stroke-width="3.2"/>
<circle clip-path="url(#clip572)" cx="947.176" cy="655.306" r="14.4" fill="#009af9" fill-rule="evenodd" fill-opacity="1" stroke="#000000" stroke-opacity="1" stroke-width="3.2"/>
<circle clip-path="url(#clip572)" cx="961.668" cy="627.476" r="14.4" fill="#009af9" fill-rule="evenodd" fill-opacity="1" stroke="#000000" stroke-opacity="1" stroke-width="3.2"/>
<circle clip-path="url(#clip572)" cx="976.16" cy="700.799" r="14.4" fill="#009af9" fill-rule="evenodd" fill-opacity="1" stroke="#000000" stroke-opacity="1" stroke-width="3.2"/>
<circle clip-path="url(#clip572)" cx="990.652" cy="704.03" r="14.4" fill="#009af9" fill-rule="evenodd" fill-opacity="1" stroke="#000000" stroke-opacity="1" stroke-width="3.2"/>
<circle clip-path="url(#clip572)" cx="1005.14" cy="993.09" r="14.4" fill="#009af9" fill-rule="evenodd" fill-opacity="1" stroke="#000000" stroke-opacity="1" stroke-width="3.2"/>
<circle clip-path="url(#clip572)" cx="1019.64" cy="970.301" r="14.4" fill="#009af9" fill-rule="evenodd" fill-opacity="1" stroke="#000000" stroke-opacity="1" stroke-width="3.2"/>
<circle clip-path="url(#clip572)" cx="1034.13" cy="796.835" r="14.4" fill="#009af9" fill-rule="evenodd" fill-opacity="1" stroke="#000000" stroke-opacity="1" stroke-width="3.2"/>
<circle clip-path="url(#clip572)" cx="1048.62" cy="878.978" r="14.4" fill="#009af9" fill-rule="evenodd" fill-opacity="1" stroke="#000000" stroke-opacity="1" stroke-width="3.2"/>
<circle clip-path="url(#clip572)" cx="1063.11" cy="1055.56" r="14.4" fill="#009af9" fill-rule="evenodd" fill-opacity="1" stroke="#000000" stroke-opacity="1" stroke-width="3.2"/>
<circle clip-path="url(#clip572)" cx="1077.6" cy="1054.6" r="14.4" fill="#009af9" fill-rule="evenodd" fill-opacity="1" stroke="#000000" stroke-opacity="1" stroke-width="3.2"/>
<circle clip-path="url(#clip572)" cx="1092.1" cy="966.76" r="14.4" fill="#009af9" fill-rule="evenodd" fill-opacity="1" stroke="#000000" stroke-opacity="1" stroke-width="3.2"/>
<circle clip-path="url(#clip572)" cx="1106.59" cy="1027.08" r="14.4" fill="#009af9" fill-rule="evenodd" fill-opacity="1" stroke="#000000" stroke-opacity="1" stroke-width="3.2"/>
<circle clip-path="url(#clip572)" cx="1121.08" cy="883.004" r="14.4" fill="#009af9" fill-rule="evenodd" fill-opacity="1" stroke="#000000" stroke-opacity="1" stroke-width="3.2"/>
<circle clip-path="url(#clip572)" cx="1135.57" cy="786.354" r="14.4" fill="#009af9" fill-rule="evenodd" fill-opacity="1" stroke="#000000" stroke-opacity="1" stroke-width="3.2"/>
<circle clip-path="url(#clip572)" cx="1150.06" cy="1015.83" r="14.4" fill="#009af9" fill-rule="evenodd" fill-opacity="1" stroke="#000000" stroke-opacity="1" stroke-width="3.2"/>
<circle clip-path="url(#clip572)" cx="1164.56" cy="876.367" r="14.4" fill="#009af9" fill-rule="evenodd" fill-opacity="1" stroke="#000000" stroke-opacity="1" stroke-width="3.2"/>
<circle clip-path="url(#clip572)" cx="1179.05" cy="1056.31" r="14.4" fill="#009af9" fill-rule="evenodd" fill-opacity="1" stroke="#000000" stroke-opacity="1" stroke-width="3.2"/>
<circle clip-path="url(#clip572)" cx="1193.54" cy="914.34" r="14.4" fill="#009af9" fill-rule="evenodd" fill-opacity="1" stroke="#000000" stroke-opacity="1" stroke-width="3.2"/>
<circle clip-path="url(#clip572)" cx="1208.03" cy="876.877" r="14.4" fill="#009af9" fill-rule="evenodd" fill-opacity="1" stroke="#000000" stroke-opacity="1" stroke-width="3.2"/>
<circle clip-path="url(#clip572)" cx="1222.52" cy="752.533" r="14.4" fill="#009af9" fill-rule="evenodd" fill-opacity="1" stroke="#000000" stroke-opacity="1" stroke-width="3.2"/>
<circle clip-path="url(#clip572)" cx="1237.02" cy="981.172" r="14.4" fill="#009af9" fill-rule="evenodd" fill-opacity="1" stroke="#000000" stroke-opacity="1" stroke-width="3.2"/>
<circle clip-path="url(#clip572)" cx="1251.51" cy="622.628" r="14.4" fill="#009af9" fill-rule="evenodd" fill-opacity="1" stroke="#000000" stroke-opacity="1" stroke-width="3.2"/>
<circle clip-path="url(#clip572)" cx="1266" cy="674.149" r="14.4" fill="#009af9" fill-rule="evenodd" fill-opacity="1" stroke="#000000" stroke-opacity="1" stroke-width="3.2"/>
<circle clip-path="url(#clip572)" cx="1280.49" cy="726.091" r="14.4" fill="#009af9" fill-rule="evenodd" fill-opacity="1" stroke="#000000" stroke-opacity="1" stroke-width="3.2"/>
<circle clip-path="url(#clip572)" cx="1294.98" cy="993.349" r="14.4" fill="#009af9" fill-rule="evenodd" fill-opacity="1" stroke="#000000" stroke-opacity="1" stroke-width="3.2"/>
<circle clip-path="url(#clip572)" cx="1309.48" cy="952.116" r="14.4" fill="#009af9" fill-rule="evenodd" fill-opacity="1" stroke="#000000" stroke-opacity="1" stroke-width="3.2"/>
<circle clip-path="url(#clip572)" cx="1323.97" cy="753.49" r="14.4" fill="#009af9" fill-rule="evenodd" fill-opacity="1" stroke="#000000" stroke-opacity="1" stroke-width="3.2"/>
<circle clip-path="url(#clip572)" cx="1338.46" cy="703.026" r="14.4" fill="#009af9" fill-rule="evenodd" fill-opacity="1" stroke="#000000" stroke-opacity="1" stroke-width="3.2"/>
<circle clip-path="url(#clip572)" cx="1352.95" cy="595.901" r="14.4" fill="#009af9" fill-rule="evenodd" fill-opacity="1" stroke="#000000" stroke-opacity="1" stroke-width="3.2"/>
<circle clip-path="url(#clip572)" cx="1367.44" cy="694.018" r="14.4" fill="#009af9" fill-rule="evenodd" fill-opacity="1" stroke="#000000" stroke-opacity="1" stroke-width="3.2"/>
<circle clip-path="url(#clip572)" cx="1381.94" cy="675.036" r="14.4" fill="#009af9" fill-rule="evenodd" fill-opacity="1" stroke="#000000" stroke-opacity="1" stroke-width="3.2"/>
<circle clip-path="url(#clip572)" cx="1396.43" cy="411.36" r="14.4" fill="#009af9" fill-rule="evenodd" fill-opacity="1" stroke="#000000" stroke-opacity="1" stroke-width="3.2"/>
<circle clip-path="url(#clip572)" cx="1410.92" cy="554.391" r="14.4" fill="#009af9" fill-rule="evenodd" fill-opacity="1" stroke="#000000" stroke-opacity="1" stroke-width="3.2"/>
<circle clip-path="url(#clip572)" cx="1425.41" cy="462.801" r="14.4" fill="#009af9" fill-rule="evenodd" fill-opacity="1" stroke="#000000" stroke-opacity="1" stroke-width="3.2"/>
<circle clip-path="url(#clip572)" cx="1439.9" cy="616.747" r="14.4" fill="#009af9" fill-rule="evenodd" fill-opacity="1" stroke="#000000" stroke-opacity="1" stroke-width="3.2"/>
<circle clip-path="url(#clip572)" cx="1454.4" cy="643.52" r="14.4" fill="#009af9" fill-rule="evenodd" fill-opacity="1" stroke="#000000" stroke-opacity="1" stroke-width="3.2"/>
<circle clip-path="url(#clip572)" cx="1468.89" cy="872.178" r="14.4" fill="#009af9" fill-rule="evenodd" fill-opacity="1" stroke="#000000" stroke-opacity="1" stroke-width="3.2"/>
<circle clip-path="url(#clip572)" cx="1483.38" cy="480.076" r="14.4" fill="#009af9" fill-rule="evenodd" fill-opacity="1" stroke="#000000" stroke-opacity="1" stroke-width="3.2"/>
<circle clip-path="url(#clip572)" cx="1497.87" cy="491.322" r="14.4" fill="#009af9" fill-rule="evenodd" fill-opacity="1" stroke="#000000" stroke-opacity="1" stroke-width="3.2"/>
<circle clip-path="url(#clip572)" cx="1512.36" cy="539.925" r="14.4" fill="#009af9" fill-rule="evenodd" fill-opacity="1" stroke="#000000" stroke-opacity="1" stroke-width="3.2"/>
<circle clip-path="url(#clip572)" cx="1526.86" cy="474.786" r="14.4" fill="#009af9" fill-rule="evenodd" fill-opacity="1" stroke="#000000" stroke-opacity="1" stroke-width="3.2"/>
<circle clip-path="url(#clip572)" cx="1541.35" cy="326.124" r="14.4" fill="#009af9" fill-rule="evenodd" fill-opacity="1" stroke="#000000" stroke-opacity="1" stroke-width="3.2"/>
<circle clip-path="url(#clip572)" cx="1555.84" cy="560.665" r="14.4" fill="#009af9" fill-rule="evenodd" fill-opacity="1" stroke="#000000" stroke-opacity="1" stroke-width="3.2"/>
<circle clip-path="url(#clip572)" cx="1570.33" cy="674.748" r="14.4" fill="#009af9" fill-rule="evenodd" fill-opacity="1" stroke="#000000" stroke-opacity="1" stroke-width="3.2"/>
<circle clip-path="url(#clip572)" cx="1584.82" cy="1000.79" r="14.4" fill="#009af9" fill-rule="evenodd" fill-opacity="1" stroke="#000000" stroke-opacity="1" stroke-width="3.2"/>
<circle clip-path="url(#clip572)" cx="1599.32" cy="685.924" r="14.4" fill="#009af9" fill-rule="evenodd" fill-opacity="1" stroke="#000000" stroke-opacity="1" stroke-width="3.2"/>
<circle clip-path="url(#clip572)" cx="1613.81" cy="928.864" r="14.4" fill="#009af9" fill-rule="evenodd" fill-opacity="1" stroke="#000000" stroke-opacity="1" stroke-width="3.2"/>
<circle clip-path="url(#clip572)" cx="1628.3" cy="943.899" r="14.4" fill="#009af9" fill-rule="evenodd" fill-opacity="1" stroke="#000000" stroke-opacity="1" stroke-width="3.2"/>
<circle clip-path="url(#clip572)" cx="1642.79" cy="979.501" r="14.4" fill="#009af9" fill-rule="evenodd" fill-opacity="1" stroke="#000000" stroke-opacity="1" stroke-width="3.2"/>
<circle clip-path="url(#clip572)" cx="1657.28" cy="814.06" r="14.4" fill="#009af9" fill-rule="evenodd" fill-opacity="1" stroke="#000000" stroke-opacity="1" stroke-width="3.2"/>
<circle clip-path="url(#clip572)" cx="1671.78" cy="941.163" r="14.4" fill="#009af9" fill-rule="evenodd" fill-opacity="1" stroke="#000000" stroke-opacity="1" stroke-width="3.2"/>
<circle clip-path="url(#clip572)" cx="1686.27" cy="830.287" r="14.4" fill="#009af9" fill-rule="evenodd" fill-opacity="1" stroke="#000000" stroke-opacity="1" stroke-width="3.2"/>
<circle clip-path="url(#clip572)" cx="1700.76" cy="588.88" r="14.4" fill="#009af9" fill-rule="evenodd" fill-opacity="1" stroke="#000000" stroke-opacity="1" stroke-width="3.2"/>
<circle clip-path="url(#clip572)" cx="1715.25" cy="854.913" r="14.4" fill="#009af9" fill-rule="evenodd" fill-opacity="1" stroke="#000000" stroke-opacity="1" stroke-width="3.2"/>
<circle clip-path="url(#clip572)" cx="1729.74" cy="520.331" r="14.4" fill="#009af9" fill-rule="evenodd" fill-opacity="1" stroke="#000000" stroke-opacity="1" stroke-width="3.2"/>
<circle clip-path="url(#clip572)" cx="1744.24" cy="639.465" r="14.4" fill="#009af9" fill-rule="evenodd" fill-opacity="1" stroke="#000000" stroke-opacity="1" stroke-width="3.2"/>
<circle clip-path="url(#clip572)" cx="1758.73" cy="738.874" r="14.4" fill="#009af9" fill-rule="evenodd" fill-opacity="1" stroke="#000000" stroke-opacity="1" stroke-width="3.2"/>
<circle clip-path="url(#clip572)" cx="1773.22" cy="862.207" r="14.4" fill="#009af9" fill-rule="evenodd" fill-opacity="1" stroke="#000000" stroke-opacity="1" stroke-width="3.2"/>
<circle clip-path="url(#clip572)" cx="1787.71" cy="713.985" r="14.4" fill="#009af9" fill-rule="evenodd" fill-opacity="1" stroke="#000000" stroke-opacity="1" stroke-width="3.2"/>
<circle clip-path="url(#clip572)" cx="1802.2" cy="945.608" r="14.4" fill="#009af9" fill-rule="evenodd" fill-opacity="1" stroke="#000000" stroke-opacity="1" stroke-width="3.2"/>
<circle clip-path="url(#clip572)" cx="1816.7" cy="811.658" r="14.4" fill="#009af9" fill-rule="evenodd" fill-opacity="1" stroke="#000000" stroke-opacity="1" stroke-width="3.2"/>
<circle clip-path="url(#clip572)" cx="1831.19" cy="463.234" r="14.4" fill="#009af9" fill-rule="evenodd" fill-opacity="1" stroke="#000000" stroke-opacity="1" stroke-width="3.2"/>
<circle clip-path="url(#clip572)" cx="1845.68" cy="726.339" r="14.4" fill="#009af9" fill-rule="evenodd" fill-opacity="1" stroke="#000000" stroke-opacity="1" stroke-width="3.2"/>
<circle clip-path="url(#clip572)" cx="1860.17" cy="513.066" r="14.4" fill="#009af9" fill-rule="evenodd" fill-opacity="1" stroke="#000000" stroke-opacity="1" stroke-width="3.2"/>
<circle clip-path="url(#clip572)" cx="1874.66" cy="612.484" r="14.4" fill="#009af9" fill-rule="evenodd" fill-opacity="1" stroke="#000000" stroke-opacity="1" stroke-width="3.2"/>
<circle clip-path="url(#clip572)" cx="1889.16" cy="1027.95" r="14.4" fill="#009af9" fill-rule="evenodd" fill-opacity="1" stroke="#000000" stroke-opacity="1" stroke-width="3.2"/>
<circle clip-path="url(#clip572)" cx="1903.65" cy="1077.84" r="14.4" fill="#009af9" fill-rule="evenodd" fill-opacity="1" stroke="#000000" stroke-opacity="1" stroke-width="3.2"/>
<circle clip-path="url(#clip572)" cx="1918.14" cy="1128.16" r="14.4" fill="#009af9" fill-rule="evenodd" fill-opacity="1" stroke="#000000" stroke-opacity="1" stroke-width="3.2"/>
<circle clip-path="url(#clip572)" cx="1932.63" cy="1041.23" r="14.4" fill="#009af9" fill-rule="evenodd" fill-opacity="1" stroke="#000000" stroke-opacity="1" stroke-width="3.2"/>
<circle clip-path="url(#clip572)" cx="1947.12" cy="961.43" r="14.4" fill="#009af9" fill-rule="evenodd" fill-opacity="1" stroke="#000000" stroke-opacity="1" stroke-width="3.2"/>
<circle clip-path="url(#clip572)" cx="1961.62" cy="955.925" r="14.4" fill="#009af9" fill-rule="evenodd" fill-opacity="1" stroke="#000000" stroke-opacity="1" stroke-width="3.2"/>
<circle clip-path="url(#clip572)" cx="1976.11" cy="944.126" r="14.4" fill="#009af9" fill-rule="evenodd" fill-opacity="1" stroke="#000000" stroke-opacity="1" stroke-width="3.2"/>
<circle clip-path="url(#clip572)" cx="1990.6" cy="993.187" r="14.4" fill="#009af9" fill-rule="evenodd" fill-opacity="1" stroke="#000000" stroke-opacity="1" stroke-width="3.2"/>
<circle clip-path="url(#clip572)" cx="2005.09" cy="1126.61" r="14.4" fill="#009af9" fill-rule="evenodd" fill-opacity="1" stroke="#000000" stroke-opacity="1" stroke-width="3.2"/>
<circle clip-path="url(#clip572)" cx="2019.58" cy="1025.42" r="14.4" fill="#009af9" fill-rule="evenodd" fill-opacity="1" stroke="#000000" stroke-opacity="1" stroke-width="3.2"/>
<circle clip-path="url(#clip572)" cx="2034.08" cy="1001.87" r="14.4" fill="#009af9" fill-rule="evenodd" fill-opacity="1" stroke="#000000" stroke-opacity="1" stroke-width="3.2"/>
<circle clip-path="url(#clip572)" cx="2048.57" cy="938.452" r="14.4" fill="#009af9" fill-rule="evenodd" fill-opacity="1" stroke="#000000" stroke-opacity="1" stroke-width="3.2"/>
<circle clip-path="url(#clip572)" cx="2063.06" cy="778.08" r="14.4" fill="#009af9" fill-rule="evenodd" fill-opacity="1" stroke="#000000" stroke-opacity="1" stroke-width="3.2"/>
<circle clip-path="url(#clip572)" cx="2077.55" cy="1185.59" r="14.4" fill="#009af9" fill-rule="evenodd" fill-opacity="1" stroke="#000000" stroke-opacity="1" stroke-width="3.2"/>
<circle clip-path="url(#clip572)" cx="2092.04" cy="975.69" r="14.4" fill="#009af9" fill-rule="evenodd" fill-opacity="1" stroke="#000000" stroke-opacity="1" stroke-width="3.2"/>
<circle clip-path="url(#clip572)" cx="2106.54" cy="1007.97" r="14.4" fill="#009af9" fill-rule="evenodd" fill-opacity="1" stroke="#000000" stroke-opacity="1" stroke-width="3.2"/>
<circle clip-path="url(#clip572)" cx="2121.03" cy="899.649" r="14.4" fill="#009af9" fill-rule="evenodd" fill-opacity="1" stroke="#000000" stroke-opacity="1" stroke-width="3.2"/>
<circle clip-path="url(#clip572)" cx="2135.52" cy="895.837" r="14.4" fill="#009af9" fill-rule="evenodd" fill-opacity="1" stroke="#000000" stroke-opacity="1" stroke-width="3.2"/>
<circle clip-path="url(#clip572)" cx="2150.01" cy="664.12" r="14.4" fill="#009af9" fill-rule="evenodd" fill-opacity="1" stroke="#000000" stroke-opacity="1" stroke-width="3.2"/>
<circle clip-path="url(#clip572)" cx="2164.5" cy="755.167" r="14.4" fill="#009af9" fill-rule="evenodd" fill-opacity="1" stroke="#000000" stroke-opacity="1" stroke-width="3.2"/>
<circle clip-path="url(#clip572)" cx="2179" cy="829.846" r="14.4" fill="#009af9" fill-rule="evenodd" fill-opacity="1" stroke="#000000" stroke-opacity="1" stroke-width="3.2"/>
<circle clip-path="url(#clip572)" cx="2193.49" cy="763.921" r="14.4" fill="#009af9" fill-rule="evenodd" fill-opacity="1" stroke="#000000" stroke-opacity="1" stroke-width="3.2"/>
<circle clip-path="url(#clip572)" cx="2207.98" cy="779.002" r="14.4" fill="#009af9" fill-rule="evenodd" fill-opacity="1" stroke="#000000" stroke-opacity="1" stroke-width="3.2"/>
<circle clip-path="url(#clip572)" cx="2222.47" cy="566.178" r="14.4" fill="#009af9" fill-rule="evenodd" fill-opacity="1" stroke="#000000" stroke-opacity="1" stroke-width="3.2"/>
<circle clip-path="url(#clip572)" cx="2236.96" cy="451.15" r="14.4" fill="#009af9" fill-rule="evenodd" fill-opacity="1" stroke="#000000" stroke-opacity="1" stroke-width="3.2"/>
<circle clip-path="url(#clip572)" cx="2251.46" cy="272.745" r="14.4" fill="#009af9" fill-rule="evenodd" fill-opacity="1" stroke="#000000" stroke-opacity="1" stroke-width="3.2"/>
<circle clip-path="url(#clip572)" cx="2265.95" cy="299.583" r="14.4" fill="#009af9" fill-rule="evenodd" fill-opacity="1" stroke="#000000" stroke-opacity="1" stroke-width="3.2"/>
<circle clip-path="url(#clip572)" cx="2280.44" cy="85.0853" r="14.4" fill="#009af9" fill-rule="evenodd" fill-opacity="1" stroke="#000000" stroke-opacity="1" stroke-width="3.2"/>
<circle clip-path="url(#clip572)" cx="2294.93" cy="448.539" r="14.4" fill="#009af9" fill-rule="evenodd" fill-opacity="1" stroke="#000000" stroke-opacity="1" stroke-width="3.2"/>
</svg>
