<?xml version="1.0" encoding="utf-8"?>
<svg xmlns="http://www.w3.org/2000/svg" xmlns:xlink="http://www.w3.org/1999/xlink" width="600" height="400" viewBox="0 0 2400 1600">
<defs>
  <clipPath id="clip590">
    <rect x="0" y="0" width="2400" height="1600"/>
  </clipPath>
</defs>
<path clip-path="url(#clip590)" d="
M0 1600 L2400 1600 L2400 0 L0 0  Z
  " fill="#ffffff" fill-rule="evenodd" fill-opacity="1"/>
<defs>
  <clipPath id="clip591">
    <rect x="480" y="0" width="1681" height="1600"/>
  </clipPath>
</defs>
<defs>
  <clipPath id="clip592">
    <rect x="555" y="47" width="1798" height="1316"/>
  </clipPath>
</defs>
<path clip-path="url(#clip590)" d="
M555.698 1362.7 L2352.76 1362.7 L2352.76 47.2441 L555.698 47.2441  Z
  " fill="#ffffff" fill-rule="evenodd" fill-opacity="1"/>
<polyline clip-path="url(#clip590)" style="stroke:#000000; stroke-linecap:round; stroke-linejoin:round; stroke-width:4; stroke-opacity:1; fill:none" points="
  555.698,1362.7 2352.76,1362.7 
  "/>
<polyline clip-path="url(#clip590)" style="stroke:#000000; stroke-linecap:round; stroke-linejoin:round; stroke-width:4; stroke-opacity:1; fill:none" points="
  735.404,1362.7 735.404,1343.8 
  "/>
<polyline clip-path="url(#clip590)" style="stroke:#000000; stroke-linecap:round; stroke-linejoin:round; stroke-width:4; stroke-opacity:1; fill:none" points="
  1454.23,1362.7 1454.23,1343.8 
  "/>
<polyline clip-path="url(#clip590)" style="stroke:#000000; stroke-linecap:round; stroke-linejoin:round; stroke-width:4; stroke-opacity:1; fill:none" points="
  2173.05,1362.7 2173.05,1343.8 
  "/>
<polyline clip-path="url(#clip590)" style="stroke:#000000; stroke-linecap:round; stroke-linejoin:round; stroke-width:4; stroke-opacity:1; fill:none" points="
  1715.48,1362.7 1715.48,1343.8 
  "/>
<path clip-path="url(#clip590)" d="M689.935 1400.48 Q689.935 1401.27 689.628 1401.71 Q689.364 1402.1 689.057 1402.19 Q688.749 1402.23 687.959 1402.28 Q681.679 1402.58 676.54 1406.84 Q675.267 1407.94 672.061 1411.37 Q668.899 1414.79 664.683 1419.36 Q660.511 1423.93 658.095 1426.39 L669.689 1454.14 Q670.172 1455.24 670.348 1455.72 Q670.568 1456.16 671.007 1456.73 Q671.49 1457.3 671.841 1457.48 Q672.236 1457.66 673.071 1457.88 Q673.949 1458.05 674.828 1458.1 Q675.75 1458.1 677.419 1458.14 Q677.946 1458.14 678.165 1458.18 Q678.429 1458.18 678.736 1458.45 Q679.044 1458.67 679.044 1459.19 Q679.044 1459.98 678.692 1460.42 Q678.385 1460.82 678.077 1460.86 Q677.814 1460.91 677.331 1460.91 Q676.189 1460.91 672.324 1460.77 Q668.46 1460.64 667.362 1460.64 L656.031 1460.91 Q654.67 1460.91 654.67 1459.81 Q654.67 1459.24 654.757 1458.93 Q654.889 1458.58 655.197 1458.45 Q655.504 1458.27 655.724 1458.23 Q655.943 1458.18 656.47 1458.14 Q658.095 1457.96 659.325 1457.48 Q660.598 1456.95 661.125 1456.43 Q661.696 1455.9 661.696 1455.5 L661.257 1454.23 L652.166 1432.76 L644.042 1441.58 L634.863 1451.29 Q632.448 1453.88 632.448 1455.33 Q632.448 1457.74 636.049 1458.14 Q637.147 1458.23 637.147 1459.11 Q637.147 1459.94 636.795 1460.38 Q636.488 1460.77 636.181 1460.86 Q635.917 1460.91 635.522 1460.91 Q633.897 1460.91 630.471 1460.77 Q627.09 1460.64 625.421 1460.64 Q624.016 1460.64 621.161 1460.77 Q618.306 1460.91 616.989 1460.91 Q616.462 1460.91 616.154 1460.64 Q615.847 1460.38 615.847 1460.12 L615.803 1459.9 Q615.803 1459.28 615.891 1458.93 Q616.023 1458.58 616.374 1458.4 Q616.769 1458.23 616.945 1458.23 Q617.121 1458.18 617.779 1458.14 Q621.512 1457.92 624.674 1456.47 Q627.88 1455.02 630.998 1451.64 Q631.262 1451.42 631.569 1451.16 Q631.921 1450.89 632.184 1450.67 L651.156 1430.25 L640.528 1405.13 Q640.045 1403.99 639.606 1403.51 Q639.167 1402.98 637.806 1402.63 Q636.444 1402.28 633.809 1402.28 Q633.062 1402.28 632.711 1402.23 Q632.36 1402.19 632.052 1401.97 Q631.745 1401.75 631.745 1401.27 Q631.745 1400.43 632.052 1400.04 Q632.404 1399.6 632.667 1399.55 Q632.975 1399.47 633.37 1399.47 Q634.468 1399.47 638.376 1399.6 Q642.285 1399.73 643.427 1399.73 Q645.315 1399.73 649.092 1399.6 Q652.913 1399.47 654.757 1399.47 Q656.119 1399.47 656.119 1400.56 Q656.119 1401.27 655.812 1401.66 Q655.504 1402.06 655.197 1402.15 Q654.889 1402.23 654.318 1402.28 Q652.606 1402.45 651.288 1403.02 Q650.014 1403.55 649.487 1404.08 Q649.004 1404.56 649.004 1404.87 L649.444 1406.05 L656.997 1423.93 L671.578 1408.29 Q673.291 1406.36 673.291 1405.04 Q673.291 1402.67 669.689 1402.28 Q668.591 1402.1 668.591 1401.27 Q668.591 1400.43 668.943 1400.04 Q669.294 1399.6 669.558 1399.55 Q669.865 1399.47 670.304 1399.47 Q671.929 1399.47 675.267 1399.6 Q678.648 1399.73 680.317 1399.73 Q681.723 1399.73 684.577 1399.6 Q687.432 1399.47 688.749 1399.47 Q689.276 1399.47 689.584 1399.73 Q689.891 1399.95 689.891 1400.21 L689.935 1400.48 Z" fill="#000000" fill-rule="evenodd" fill-opacity="1" /><path clip-path="url(#clip590)" d="M773.858 1437.15 Q774.385 1437.67 774.385 1438.42 Q774.385 1439.17 773.858 1439.69 Q773.331 1440.22 772.585 1440.22 L716.283 1440.22 Q715.536 1440.22 715.009 1439.69 Q714.482 1439.17 714.482 1438.42 Q714.482 1437.67 715.009 1437.15 Q715.536 1436.62 716.283 1436.62 L772.585 1436.62 Q773.331 1436.62 773.858 1437.15 Z" fill="#000000" fill-rule="evenodd" fill-opacity="1" /><path clip-path="url(#clip590)" d="M851.544 1399.47 L838.589 1451.46 Q838.062 1453.79 838.062 1455.77 Q838.062 1459.9 840.741 1459.9 Q842.058 1459.9 843.112 1459.06 Q844.166 1458.23 845.001 1456.47 Q845.835 1454.71 846.362 1453.09 Q846.889 1451.42 847.592 1448.78 Q847.811 1447.73 847.987 1447.47 Q848.207 1447.16 848.821 1447.16 Q849.919 1447.16 849.919 1448.04 Q848.734 1453.7 847.196 1456.95 Q844.737 1461.92 840.565 1461.92 Q837.403 1461.92 835.163 1459.98 Q832.923 1458.05 832.396 1455.15 Q826.643 1461.92 820.671 1461.92 Q815.401 1461.92 812.063 1457.92 Q808.725 1453.88 808.725 1447.51 Q808.725 1441.1 811.887 1434.95 Q815.093 1428.8 820.144 1424.98 Q825.194 1421.16 830.376 1421.16 Q835.866 1421.16 838.677 1426.91 L844.078 1405.57 L844.342 1403.81 Q844.342 1403.29 844.122 1403.02 Q843.947 1402.72 842.893 1402.5 Q841.883 1402.28 839.862 1402.28 Q839.028 1402.28 838.633 1402.23 Q838.281 1402.19 837.974 1401.97 Q837.666 1401.71 837.666 1401.18 Q837.666 1399.64 838.94 1399.47 Q847.372 1398.5 850.358 1398.5 Q850.886 1398.5 851.193 1398.76 Q851.5 1398.98 851.5 1399.25 L851.544 1399.47 M837.579 1431.04 Q837.579 1430.65 837.271 1429.55 Q836.964 1428.45 836.261 1426.91 Q835.558 1425.38 834.021 1424.28 Q832.528 1423.14 830.508 1423.14 Q827.785 1423.14 824.931 1425.47 Q822.12 1427.79 820.056 1431.75 Q818.475 1434.91 816.762 1441.54 Q815.093 1448.17 815.093 1451.46 Q815.093 1453.48 815.532 1455.28 Q816.015 1457.04 817.377 1458.49 Q818.738 1459.9 820.846 1459.9 Q825.985 1459.9 831.035 1453.53 Q832.001 1452.43 832.221 1451.99 Q832.484 1451.51 832.836 1450.19 L837.315 1432.58 Q837.579 1431.26 837.579 1431.04 Z" fill="#000000" fill-rule="evenodd" fill-opacity="1" /><path clip-path="url(#clip590)" d="M1491.5 1400.49 Q1491.5 1401.28 1491.19 1401.72 Q1490.93 1402.12 1490.62 1402.2 Q1490.31 1402.25 1489.52 1402.29 Q1483.24 1402.6 1478.1 1406.86 Q1476.83 1407.96 1473.62 1411.38 Q1470.46 1414.81 1466.24 1419.38 Q1462.07 1423.94 1459.66 1426.4 L1471.25 1454.16 Q1471.73 1455.26 1471.91 1455.74 Q1472.13 1456.18 1472.57 1456.75 Q1473.05 1457.32 1473.4 1457.5 Q1473.8 1457.67 1474.63 1457.89 Q1475.51 1458.07 1476.39 1458.11 Q1477.31 1458.11 1478.98 1458.15 Q1479.51 1458.15 1479.73 1458.2 Q1479.99 1458.2 1480.3 1458.46 Q1480.61 1458.68 1480.61 1459.21 Q1480.61 1460 1480.25 1460.44 Q1479.95 1460.83 1479.64 1460.88 Q1479.38 1460.92 1478.89 1460.92 Q1477.75 1460.92 1473.89 1460.79 Q1470.02 1460.66 1468.92 1460.66 L1457.59 1460.92 Q1456.23 1460.92 1456.23 1459.82 Q1456.23 1459.25 1456.32 1458.95 Q1456.45 1458.59 1456.76 1458.46 Q1457.07 1458.29 1457.29 1458.24 Q1457.5 1458.2 1458.03 1458.15 Q1459.66 1457.98 1460.89 1457.5 Q1462.16 1456.97 1462.69 1456.44 Q1463.26 1455.92 1463.26 1455.52 L1462.82 1454.25 L1453.73 1432.77 L1445.6 1441.6 L1436.42 1451.3 Q1434.01 1453.89 1434.01 1455.34 Q1434.01 1457.76 1437.61 1458.15 Q1438.71 1458.24 1438.71 1459.12 Q1438.71 1459.96 1438.36 1460.39 Q1438.05 1460.79 1437.74 1460.88 Q1437.48 1460.92 1437.08 1460.92 Q1435.46 1460.92 1432.03 1460.79 Q1428.65 1460.66 1426.98 1460.66 Q1425.58 1460.66 1422.72 1460.79 Q1419.87 1460.92 1418.55 1460.92 Q1418.02 1460.92 1417.72 1460.66 Q1417.41 1460.39 1417.41 1460.13 L1417.36 1459.91 Q1417.36 1459.3 1417.45 1458.95 Q1417.58 1458.59 1417.94 1458.42 Q1418.33 1458.24 1418.51 1458.24 Q1418.68 1458.2 1419.34 1458.15 Q1423.07 1457.94 1426.24 1456.49 Q1429.44 1455.04 1432.56 1451.66 Q1432.82 1451.44 1433.13 1451.17 Q1433.48 1450.91 1433.75 1450.69 L1452.72 1430.27 L1442.09 1405.15 Q1441.61 1404.01 1441.17 1403.52 Q1440.73 1403 1439.37 1402.64 Q1438.01 1402.29 1435.37 1402.29 Q1434.62 1402.29 1434.27 1402.25 Q1433.92 1402.2 1433.61 1401.98 Q1433.31 1401.77 1433.31 1401.28 Q1433.31 1400.45 1433.61 1400.05 Q1433.97 1399.61 1434.23 1399.57 Q1434.54 1399.48 1434.93 1399.48 Q1436.03 1399.48 1439.94 1399.61 Q1443.85 1399.75 1444.99 1399.75 Q1446.88 1399.75 1450.65 1399.61 Q1454.47 1399.48 1456.32 1399.48 Q1457.68 1399.48 1457.68 1400.58 Q1457.68 1401.28 1457.37 1401.68 Q1457.07 1402.07 1456.76 1402.16 Q1456.45 1402.25 1455.88 1402.29 Q1454.17 1402.47 1452.85 1403.04 Q1451.58 1403.57 1451.05 1404.09 Q1450.57 1404.58 1450.57 1404.88 L1451.01 1406.07 L1458.56 1423.94 L1473.14 1408.31 Q1474.85 1406.38 1474.85 1405.06 Q1474.85 1402.69 1471.25 1402.29 Q1470.15 1402.12 1470.15 1401.28 Q1470.15 1400.45 1470.5 1400.05 Q1470.86 1399.61 1471.12 1399.57 Q1471.43 1399.48 1471.87 1399.48 Q1473.49 1399.48 1476.83 1399.61 Q1480.21 1399.75 1481.88 1399.75 Q1483.28 1399.75 1486.14 1399.61 Q1488.99 1399.48 1490.31 1399.48 Q1490.84 1399.48 1491.15 1399.75 Q1491.45 1399.96 1491.45 1400.23 L1491.5 1400.49 Z" fill="#000000" fill-rule="evenodd" fill-opacity="1" /><path clip-path="url(#clip590)" d="M2127.58 1397.37 Q2127.58 1398.16 2127.27 1398.6 Q2127.01 1398.99 2126.7 1399.08 Q2126.4 1399.12 2125.61 1399.17 Q2119.33 1399.47 2114.19 1403.73 Q2112.91 1404.83 2109.71 1408.26 Q2106.55 1411.68 2102.33 1416.25 Q2098.16 1420.82 2095.74 1423.28 L2107.34 1451.03 Q2107.82 1452.13 2107.99 1452.61 Q2108.21 1453.05 2108.65 1453.62 Q2109.14 1454.2 2109.49 1454.37 Q2109.88 1454.55 2110.72 1454.77 Q2111.6 1454.94 2112.47 1454.99 Q2113.4 1454.99 2115.07 1455.03 Q2115.59 1455.03 2115.81 1455.07 Q2116.08 1455.07 2116.38 1455.34 Q2116.69 1455.56 2116.69 1456.08 Q2116.69 1456.87 2116.34 1457.31 Q2116.03 1457.71 2115.72 1457.75 Q2115.46 1457.8 2114.98 1457.8 Q2113.84 1457.8 2109.97 1457.66 Q2106.11 1457.53 2105.01 1457.53 L2093.68 1457.8 Q2092.32 1457.8 2092.32 1456.7 Q2092.32 1456.13 2092.4 1455.82 Q2092.54 1455.47 2092.84 1455.34 Q2093.15 1455.16 2093.37 1455.12 Q2093.59 1455.07 2094.12 1455.03 Q2095.74 1454.85 2096.97 1454.37 Q2098.25 1453.84 2098.77 1453.32 Q2099.34 1452.79 2099.34 1452.39 L2098.9 1451.12 L2089.81 1429.65 L2081.69 1438.47 L2072.51 1448.18 Q2070.09 1450.77 2070.09 1452.22 Q2070.09 1454.63 2073.7 1455.03 Q2074.79 1455.12 2074.79 1456 Q2074.79 1456.83 2074.44 1457.27 Q2074.13 1457.66 2073.83 1457.75 Q2073.56 1457.8 2073.17 1457.8 Q2071.54 1457.8 2068.12 1457.66 Q2064.74 1457.53 2063.07 1457.53 Q2061.66 1457.53 2058.81 1457.66 Q2055.95 1457.8 2054.64 1457.8 Q2054.11 1457.8 2053.8 1457.53 Q2053.49 1457.27 2053.49 1457.01 L2053.45 1456.79 Q2053.45 1456.17 2053.54 1455.82 Q2053.67 1455.47 2054.02 1455.29 Q2054.42 1455.12 2054.59 1455.12 Q2054.77 1455.07 2055.43 1455.03 Q2059.16 1454.81 2062.32 1453.36 Q2065.53 1451.91 2068.64 1448.53 Q2068.91 1448.31 2069.22 1448.05 Q2069.57 1447.78 2069.83 1447.56 L2088.8 1427.14 L2078.17 1402.02 Q2077.69 1400.88 2077.25 1400.4 Q2076.81 1399.87 2075.45 1399.52 Q2074.09 1399.17 2071.46 1399.17 Q2070.71 1399.17 2070.36 1399.12 Q2070.01 1399.08 2069.7 1398.86 Q2069.39 1398.64 2069.39 1398.16 Q2069.39 1397.32 2069.7 1396.93 Q2070.05 1396.49 2070.31 1396.44 Q2070.62 1396.36 2071.02 1396.36 Q2072.11 1396.36 2076.02 1396.49 Q2079.93 1396.62 2081.07 1396.62 Q2082.96 1396.62 2086.74 1396.49 Q2090.56 1396.36 2092.4 1396.36 Q2093.77 1396.36 2093.77 1397.45 Q2093.77 1398.16 2093.46 1398.55 Q2093.15 1398.95 2092.84 1399.04 Q2092.54 1399.12 2091.96 1399.17 Q2090.25 1399.34 2088.93 1399.91 Q2087.66 1400.44 2087.13 1400.97 Q2086.65 1401.45 2086.65 1401.76 L2087.09 1402.94 L2094.64 1420.82 L2109.22 1405.18 Q2110.94 1403.25 2110.94 1401.93 Q2110.94 1399.56 2107.34 1399.17 Q2106.24 1398.99 2106.24 1398.16 Q2106.24 1397.32 2106.59 1396.93 Q2106.94 1396.49 2107.2 1396.44 Q2107.51 1396.36 2107.95 1396.36 Q2109.58 1396.36 2112.91 1396.49 Q2116.29 1396.62 2117.96 1396.62 Q2119.37 1396.62 2122.22 1396.49 Q2125.08 1396.36 2126.4 1396.36 Q2126.92 1396.36 2127.23 1396.62 Q2127.54 1396.84 2127.54 1397.1 L2127.58 1397.37 Z" fill="#000000" fill-rule="evenodd" fill-opacity="1" /><path clip-path="url(#clip590)" d="M2154.19 1436.41 Q2152.13 1436.41 2152.13 1435.31 Q2152.13 1434.21 2154.28 1434.21 Q2154.54 1434.21 2154.98 1434.26 Q2155.47 1434.3 2155.55 1434.3 L2180.89 1434.3 L2180.89 1408.87 Q2180.89 1408.79 2180.85 1408.39 Q2180.81 1407.95 2180.81 1407.69 Q2180.81 1405.54 2181.86 1405.54 Q2182.96 1405.54 2182.96 1407.69 L2182.96 1434.3 L2208.34 1434.3 Q2208.43 1434.3 2208.87 1434.26 Q2209.31 1434.21 2209.57 1434.21 Q2211.64 1434.21 2211.64 1435.31 Q2211.68 1436.41 2209.48 1436.41 Q2209.22 1436.41 2208.83 1436.37 Q2208.43 1436.32 2208.34 1436.32 L2182.96 1436.32 L2182.96 1463.02 Q2182.96 1465.09 2181.86 1465.09 Q2180.81 1465.09 2180.81 1462.94 Q2180.81 1462.67 2180.85 1462.23 Q2180.89 1461.84 2180.89 1461.75 L2180.89 1436.32 L2155.55 1436.32 Q2155.47 1436.32 2154.94 1436.37 Q2154.46 1436.41 2154.19 1436.41 Z" fill="#000000" fill-rule="evenodd" fill-opacity="1" /><path clip-path="url(#clip590)" d="M2289.19 1396.36 L2276.24 1448.35 Q2275.71 1450.68 2275.71 1452.66 Q2275.71 1456.79 2278.39 1456.79 Q2279.7 1456.79 2280.76 1455.95 Q2281.81 1455.12 2282.65 1453.36 Q2283.48 1451.6 2284.01 1449.98 Q2284.54 1448.31 2285.24 1445.68 Q2285.46 1444.62 2285.63 1444.36 Q2285.85 1444.05 2286.47 1444.05 Q2287.57 1444.05 2287.57 1444.93 Q2286.38 1450.59 2284.84 1453.84 Q2282.38 1458.81 2278.21 1458.81 Q2275.05 1458.81 2272.81 1456.87 Q2270.57 1454.94 2270.04 1452.04 Q2264.29 1458.81 2258.32 1458.81 Q2253.05 1458.81 2249.71 1454.81 Q2246.37 1450.77 2246.37 1444.4 Q2246.37 1437.99 2249.53 1431.84 Q2252.74 1425.69 2257.79 1421.87 Q2262.84 1418.05 2268.02 1418.05 Q2273.51 1418.05 2276.32 1423.8 L2281.72 1402.46 L2281.99 1400.7 Q2281.99 1400.18 2281.77 1399.91 Q2281.59 1399.61 2280.54 1399.39 Q2279.53 1399.17 2277.51 1399.17 Q2276.67 1399.17 2276.28 1399.12 Q2275.93 1399.08 2275.62 1398.86 Q2275.31 1398.6 2275.31 1398.07 Q2275.31 1396.53 2276.59 1396.36 Q2285.02 1395.39 2288.01 1395.39 Q2288.53 1395.39 2288.84 1395.65 Q2289.15 1395.87 2289.15 1396.14 L2289.19 1396.36 M2275.23 1427.93 Q2275.23 1427.54 2274.92 1426.44 Q2274.61 1425.34 2273.91 1423.8 Q2273.21 1422.27 2271.67 1421.17 Q2270.17 1420.03 2268.15 1420.03 Q2265.43 1420.03 2262.58 1422.36 Q2259.77 1424.68 2257.7 1428.64 Q2256.12 1431.8 2254.41 1438.43 Q2252.74 1445.06 2252.74 1448.35 Q2252.74 1450.37 2253.18 1452.18 Q2253.66 1453.93 2255.02 1455.38 Q2256.38 1456.79 2258.49 1456.79 Q2263.63 1456.79 2268.68 1450.42 Q2269.65 1449.32 2269.87 1448.88 Q2270.13 1448.4 2270.48 1447.08 L2274.96 1429.47 Q2275.23 1428.15 2275.23 1427.93 Z" fill="#000000" fill-rule="evenodd" fill-opacity="1" /><path clip-path="url(#clip590)" d="M1711.03 1398.44 L1705.37 1421.36 Q1704.97 1422.81 1704.71 1422.99 Q1704.49 1423.16 1703.79 1423.16 Q1702.43 1423.16 1702.43 1422.24 Q1702.43 1422.15 1702.56 1421.01 Q1702.69 1419.82 1702.69 1417.67 Q1702.69 1409.72 1698.82 1405.02 Q1695 1400.32 1688.2 1400.32 Q1682.31 1400.32 1676.38 1403.31 Q1670.5 1406.3 1666.28 1411.17 Q1663.12 1414.86 1660.79 1419.52 Q1658.51 1424.17 1657.41 1428.43 Q1656.36 1432.69 1655.87 1435.9 Q1655.39 1439.1 1655.39 1441.43 Q1655.39 1444.81 1656.09 1447.67 Q1656.84 1450.52 1658.16 1452.54 Q1659.48 1454.52 1661.14 1456.05 Q1662.86 1457.55 1664.83 1458.43 Q1666.85 1459.3 1668.87 1459.74 Q1670.89 1460.14 1673 1460.14 Q1681.48 1460.14 1689.56 1453.55 Q1695.97 1448.15 1698.65 1439.32 Q1698.87 1438.44 1699.79 1438.44 Q1700.89 1438.44 1700.89 1439.32 Q1700.89 1439.5 1700.67 1440.38 Q1700.45 1441.21 1699.79 1442.92 Q1699.13 1444.59 1698.12 1446.48 Q1697.11 1448.37 1695.22 1450.74 Q1693.34 1453.11 1691.01 1455.18 Q1687.05 1458.6 1682.05 1460.75 Q1677.04 1462.91 1671.55 1462.91 Q1664.7 1462.91 1659.17 1459.88 Q1653.63 1456.85 1650.38 1451.18 Q1647.18 1445.51 1647.18 1438.27 Q1647.18 1430.63 1650.69 1423.12 Q1654.2 1415.61 1659.78 1410.03 Q1665.36 1404.45 1672.74 1400.98 Q1680.12 1397.51 1687.49 1397.51 Q1690.3 1397.51 1692.81 1398.26 Q1695.31 1399.01 1696.8 1399.93 Q1698.34 1400.85 1699.7 1402.21 Q1701.06 1403.53 1701.5 1404.14 Q1701.99 1404.76 1702.43 1405.51 L1708.71 1398.61 Q1709.8 1397.51 1710.07 1397.51 Q1710.59 1397.51 1710.81 1397.82 Q1711.03 1398.13 1711.03 1398.44 Z" fill="#000000" fill-rule="evenodd" fill-opacity="1" /><path clip-path="url(#clip590)" d="M1783.27 1402.21 L1781.47 1417.76 Q1781.34 1419.16 1781.12 1419.6 Q1780.9 1420 1780.2 1420 Q1779.67 1420 1779.36 1419.69 Q1779.1 1419.34 1779.1 1418.94 Q1779.1 1418.73 1779.14 1418.15 Q1779.19 1417.58 1779.19 1417.32 Q1779.58 1414.6 1779.58 1412.53 Q1779.58 1408.71 1778.44 1406.65 Q1777.3 1404.54 1774.36 1403.57 Q1771.41 1402.56 1765.88 1402.56 L1753.23 1402.56 Q1750.33 1402.56 1749.63 1403.09 Q1748.97 1403.62 1748.36 1406.08 L1742.96 1427.73 L1751.43 1427.73 Q1754.59 1427.73 1756.48 1427.33 Q1758.42 1426.94 1759.69 1425.84 Q1761.01 1424.7 1761.71 1423.16 Q1762.46 1421.62 1763.2 1418.86 Q1763.42 1417.93 1763.64 1417.58 Q1763.9 1417.23 1764.48 1417.23 Q1764.91 1417.23 1765.22 1417.54 Q1765.53 1417.8 1765.53 1418.2 L1760.39 1439.23 Q1760.13 1440.29 1759.86 1440.68 Q1759.6 1441.04 1759.07 1441.04 Q1758.5 1441.04 1758.2 1440.73 Q1757.89 1440.42 1757.89 1440.07 Q1757.89 1439.72 1758.15 1439.06 Q1758.81 1436.2 1758.81 1434.67 Q1758.81 1433.79 1758.72 1433.35 Q1758.68 1432.91 1758.28 1432.3 Q1757.93 1431.64 1757.14 1431.33 Q1756.35 1431.02 1754.86 1430.8 Q1753.36 1430.54 1751.12 1430.54 L1742.25 1430.54 L1736.11 1455.09 Q1735.67 1456.71 1735.67 1457.15 Q1735.67 1457.64 1735.89 1457.81 Q1736.15 1457.94 1736.85 1458.03 Q1737.64 1458.16 1738.83 1458.16 L1751.96 1458.16 Q1754.86 1458.16 1757.19 1457.9 Q1759.51 1457.64 1761.45 1456.98 Q1763.42 1456.32 1764.91 1455.57 Q1766.41 1454.83 1767.81 1453.46 Q1769.22 1452.06 1770.18 1450.83 Q1771.19 1449.56 1772.38 1447.4 Q1773.57 1445.25 1774.4 1443.49 Q1775.24 1441.69 1776.51 1438.8 Q1776.86 1437.74 1777.69 1437.74 Q1778.18 1437.74 1778.44 1438 Q1778.7 1438.22 1778.75 1438.44 L1778.75 1438.71 Q1778.49 1439.54 1778.31 1439.98 L1770.05 1459.39 Q1769.57 1460.49 1769.17 1460.71 Q1768.78 1460.93 1767.24 1460.93 L1720.56 1460.93 Q1719.5 1460.93 1719.07 1460.89 Q1718.67 1460.84 1718.36 1460.62 Q1718.06 1460.36 1718.06 1459.83 Q1718.06 1459 1718.41 1458.65 Q1718.76 1458.25 1719.15 1458.21 Q1719.55 1458.16 1720.56 1458.16 Q1722.75 1458.16 1724.07 1458.03 Q1725.39 1457.9 1726.22 1457.72 Q1727.1 1457.5 1727.54 1456.89 Q1728.02 1456.27 1728.24 1455.75 Q1728.46 1455.18 1728.77 1453.9 L1740.63 1406.34 Q1741.07 1404.72 1741.07 1404.19 Q1741.07 1403.62 1740.67 1403.27 Q1740.32 1402.92 1739.35 1402.78 Q1738.39 1402.61 1737.6 1402.61 Q1736.85 1402.56 1735.23 1402.56 Q1734.17 1402.56 1733.73 1402.52 Q1733.34 1402.48 1733.03 1402.26 Q1732.72 1402.04 1732.72 1401.55 Q1732.72 1400.32 1733.25 1400.06 Q1733.82 1399.75 1735.4 1399.75 L1780.81 1399.75 Q1782.61 1399.75 1783.01 1400.15 Q1783.45 1400.5 1783.27 1402.21 Z" fill="#000000" fill-rule="evenodd" fill-opacity="1" /><path clip-path="url(#clip590)" d="M1122.15 1552.08 L1122.15 1580.57 L1139.02 1580.57 Q1147.51 1580.57 1151.57 1577.08 Q1155.69 1573.53 1155.69 1566.3 Q1155.69 1559 1151.57 1555.57 Q1147.51 1552.08 1139.02 1552.08 L1122.15 1552.08 M1122.15 1520.1 L1122.15 1543.54 L1137.72 1543.54 Q1145.43 1543.54 1149.18 1540.67 Q1152.98 1537.75 1152.98 1531.82 Q1152.98 1525.93 1149.18 1523.01 Q1145.43 1520.1 1137.72 1520.1 L1122.15 1520.1 M1111.62 1511.45 L1138.5 1511.45 Q1150.53 1511.45 1157.04 1516.45 Q1163.55 1521.45 1163.55 1530.67 Q1163.55 1537.81 1160.22 1542.02 Q1156.88 1546.24 1150.43 1547.28 Q1158.19 1548.95 1162.46 1554.26 Q1166.78 1559.52 1166.78 1567.44 Q1166.78 1577.86 1159.7 1583.53 Q1152.61 1589.21 1139.54 1589.21 L1111.62 1589.21 L1111.62 1511.45 Z" fill="#000000" fill-rule="evenodd" fill-opacity="1" /><path clip-path="url(#clip590)" d="M1234.28 1557.65 L1234.28 1562.34 L1190.22 1562.34 Q1190.84 1572.23 1196.16 1577.44 Q1201.52 1582.6 1211.05 1582.6 Q1216.57 1582.6 1221.73 1581.24 Q1226.94 1579.89 1232.04 1577.18 L1232.04 1586.24 Q1226.88 1588.43 1221.47 1589.58 Q1216.05 1590.72 1210.48 1590.72 Q1196.52 1590.72 1188.34 1582.6 Q1180.22 1574.47 1180.22 1560.62 Q1180.22 1546.3 1187.93 1537.91 Q1195.69 1529.47 1208.81 1529.47 Q1220.58 1529.47 1227.41 1537.08 Q1234.28 1544.63 1234.28 1557.65 M1224.7 1554.84 Q1224.59 1546.97 1220.27 1542.29 Q1216 1537.6 1208.92 1537.6 Q1200.89 1537.6 1196.05 1542.13 Q1191.26 1546.66 1190.53 1554.89 L1224.7 1554.84 Z" fill="#000000" fill-rule="evenodd" fill-opacity="1" /><path clip-path="url(#clip590)" d="M1259.49 1514.32 L1259.49 1530.88 L1279.23 1530.88 L1279.23 1538.33 L1259.49 1538.33 L1259.49 1569.99 Q1259.49 1577.13 1261.42 1579.16 Q1263.39 1581.19 1269.38 1581.19 L1279.23 1581.19 L1279.23 1589.21 L1269.38 1589.21 Q1258.29 1589.21 1254.07 1585.1 Q1249.85 1580.93 1249.85 1569.99 L1249.85 1538.33 L1242.82 1538.33 L1242.82 1530.88 L1249.85 1530.88 L1249.85 1514.32 L1259.49 1514.32 Z" fill="#000000" fill-rule="evenodd" fill-opacity="1" /><path clip-path="url(#clip590)" d="M1357.72 1518.59 Q1346.26 1518.59 1339.49 1527.13 Q1332.77 1535.67 1332.77 1550.41 Q1332.77 1565.1 1339.49 1573.64 Q1346.26 1582.18 1357.72 1582.18 Q1369.18 1582.18 1375.84 1573.64 Q1382.56 1565.1 1382.56 1550.41 Q1382.56 1535.67 1375.84 1527.13 Q1369.18 1518.59 1357.72 1518.59 M1357.72 1510.05 Q1374.07 1510.05 1383.86 1521.04 Q1393.65 1531.97 1393.65 1550.41 Q1393.65 1568.8 1383.86 1579.78 Q1374.07 1590.72 1357.72 1590.72 Q1341.31 1590.72 1331.47 1579.78 Q1321.68 1568.85 1321.68 1550.41 Q1321.68 1531.97 1331.47 1521.04 Q1341.31 1510.05 1357.72 1510.05 Z" fill="#000000" fill-rule="evenodd" fill-opacity="1" /><path clip-path="url(#clip590)" d="M1408.71 1566.19 L1408.71 1530.88 L1418.29 1530.88 L1418.29 1565.83 Q1418.29 1574.11 1421.52 1578.27 Q1424.75 1582.39 1431.21 1582.39 Q1438.97 1582.39 1443.45 1577.44 Q1447.98 1572.49 1447.98 1563.95 L1447.98 1530.88 L1457.56 1530.88 L1457.56 1589.21 L1447.98 1589.21 L1447.98 1580.25 Q1444.49 1585.57 1439.85 1588.17 Q1435.27 1590.72 1429.17 1590.72 Q1419.12 1590.72 1413.91 1584.47 Q1408.71 1578.22 1408.71 1566.19 M1432.82 1529.47 L1432.82 1529.47 Z" fill="#000000" fill-rule="evenodd" fill-opacity="1" /><path clip-path="url(#clip590)" d="M1486.78 1514.32 L1486.78 1530.88 L1506.52 1530.88 L1506.52 1538.33 L1486.78 1538.33 L1486.78 1569.99 Q1486.78 1577.13 1488.71 1579.16 Q1490.68 1581.19 1496.67 1581.19 L1506.52 1581.19 L1506.52 1589.21 L1496.67 1589.21 Q1485.58 1589.21 1481.36 1585.1 Q1477.14 1580.93 1477.14 1569.99 L1477.14 1538.33 L1470.11 1538.33 L1470.11 1530.88 L1477.14 1530.88 L1477.14 1514.32 L1486.78 1514.32 Z" fill="#000000" fill-rule="evenodd" fill-opacity="1" /><path clip-path="url(#clip590)" d="M1561.1 1533.12 L1561.1 1542.08 Q1557.04 1539.84 1552.92 1538.74 Q1548.86 1537.6 1544.7 1537.6 Q1535.37 1537.6 1530.22 1543.54 Q1525.06 1549.42 1525.06 1560.1 Q1525.06 1570.77 1530.22 1576.71 Q1535.37 1582.6 1544.7 1582.6 Q1548.86 1582.6 1552.92 1581.5 Q1557.04 1580.36 1561.1 1578.12 L1561.1 1586.97 Q1557.09 1588.85 1552.77 1589.78 Q1548.5 1590.72 1543.65 1590.72 Q1530.48 1590.72 1522.72 1582.44 Q1514.96 1574.16 1514.96 1560.1 Q1514.96 1545.83 1522.77 1537.65 Q1530.63 1529.47 1544.28 1529.47 Q1548.71 1529.47 1552.92 1530.41 Q1557.14 1531.3 1561.1 1533.12 Z" fill="#000000" fill-rule="evenodd" fill-opacity="1" /><path clip-path="url(#clip590)" d="M1600.37 1537.6 Q1592.66 1537.6 1588.18 1543.64 Q1583.71 1549.63 1583.71 1560.1 Q1583.71 1570.57 1588.13 1576.61 Q1592.61 1582.6 1600.37 1582.6 Q1608.03 1582.6 1612.51 1576.56 Q1616.99 1570.51 1616.99 1560.1 Q1616.99 1549.73 1612.51 1543.69 Q1608.03 1537.6 1600.37 1537.6 M1600.37 1529.47 Q1612.87 1529.47 1620.01 1537.6 Q1627.14 1545.72 1627.14 1560.1 Q1627.14 1574.42 1620.01 1582.6 Q1612.87 1590.72 1600.37 1590.72 Q1587.82 1590.72 1580.68 1582.6 Q1573.6 1574.42 1573.6 1560.1 Q1573.6 1545.72 1580.68 1537.6 Q1587.82 1529.47 1600.37 1529.47 Z" fill="#000000" fill-rule="evenodd" fill-opacity="1" /><path clip-path="url(#clip590)" d="M1688.44 1542.08 Q1692.04 1535.62 1697.04 1532.55 Q1702.04 1529.47 1708.81 1529.47 Q1717.92 1529.47 1722.87 1535.88 Q1727.82 1542.23 1727.82 1554 L1727.82 1589.21 L1718.18 1589.21 L1718.18 1554.32 Q1718.18 1545.93 1715.21 1541.87 Q1712.25 1537.81 1706.15 1537.81 Q1698.7 1537.81 1694.38 1542.75 Q1690.06 1547.7 1690.06 1556.24 L1690.06 1589.21 L1680.42 1589.21 L1680.42 1554.32 Q1680.42 1545.88 1677.45 1541.87 Q1674.49 1537.81 1668.29 1537.81 Q1660.94 1537.81 1656.62 1542.81 Q1652.3 1547.75 1652.3 1556.24 L1652.3 1589.21 L1642.66 1589.21 L1642.66 1530.88 L1652.3 1530.88 L1652.3 1539.94 Q1655.58 1534.58 1660.16 1532.02 Q1664.75 1529.47 1671.05 1529.47 Q1677.4 1529.47 1681.83 1532.7 Q1686.31 1535.93 1688.44 1542.08 Z" fill="#000000" fill-rule="evenodd" fill-opacity="1" /><path clip-path="url(#clip590)" d="M1796.83 1557.65 L1796.83 1562.34 L1752.77 1562.34 Q1753.39 1572.23 1758.7 1577.44 Q1764.07 1582.6 1773.6 1582.6 Q1779.12 1582.6 1784.28 1581.24 Q1789.49 1579.89 1794.59 1577.18 L1794.59 1586.24 Q1789.43 1588.43 1784.02 1589.58 Q1778.6 1590.72 1773.03 1590.72 Q1759.07 1590.72 1750.89 1582.6 Q1742.77 1574.47 1742.77 1560.62 Q1742.77 1546.3 1750.48 1537.91 Q1758.24 1529.47 1771.36 1529.47 Q1783.13 1529.47 1789.95 1537.08 Q1796.83 1544.63 1796.83 1557.65 M1787.25 1554.84 Q1787.14 1546.97 1782.82 1542.29 Q1778.55 1537.6 1771.46 1537.6 Q1763.44 1537.6 1758.6 1542.13 Q1753.81 1546.66 1753.08 1554.89 L1787.25 1554.84 Z" fill="#000000" fill-rule="evenodd" fill-opacity="1" /><polyline clip-path="url(#clip590)" style="stroke:#000000; stroke-linecap:round; stroke-linejoin:round; stroke-width:4; stroke-opacity:1; fill:none" points="
  555.698,1362.7 555.698,47.2441 
  "/>
<polyline clip-path="url(#clip590)" style="stroke:#000000; stroke-linecap:round; stroke-linejoin:round; stroke-width:4; stroke-opacity:1; fill:none" points="
  555.698,1308.36 574.595,1308.36 
  "/>
<polyline clip-path="url(#clip590)" style="stroke:#000000; stroke-linecap:round; stroke-linejoin:round; stroke-width:4; stroke-opacity:1; fill:none" points="
  555.698,940.983 574.595,940.983 
  "/>
<polyline clip-path="url(#clip590)" style="stroke:#000000; stroke-linecap:round; stroke-linejoin:round; stroke-width:4; stroke-opacity:1; fill:none" points="
  555.698,123.369 574.595,123.369 
  "/>
<polyline clip-path="url(#clip590)" style="stroke:#000000; stroke-linecap:round; stroke-linejoin:round; stroke-width:4; stroke-opacity:1; fill:none" points="
  555.698,715.865 574.595,715.865 
  "/>
<path clip-path="url(#clip590)" d="M206.818 1270.2 Q206.818 1272.01 205.325 1272.01 Q202.69 1272.09 200.89 1272.62 Q199.089 1273.1 198.035 1274.07 Q197.025 1275.04 196.454 1276.09 Q195.927 1277.1 195.576 1278.64 L187.583 1310.56 Q185.299 1319.57 177.921 1326.11 Q170.543 1332.61 162.155 1332.61 Q157.368 1332.61 153.371 1330.63 Q149.419 1328.66 146.96 1324.66 Q144.5 1320.67 144.5 1315.35 Q144.5 1312.8 145.159 1310.13 L150.605 1287.9 L152.625 1280 Q154.118 1274.16 154.118 1273.63 Q154.118 1272.8 153.591 1272.58 Q153.108 1272.31 151.703 1272.18 L148.277 1272.01 Q147.223 1272.01 146.784 1271.96 Q146.389 1271.92 146.081 1271.7 Q145.774 1271.48 145.774 1271 Q145.774 1270.38 145.906 1269.99 Q146.081 1269.55 146.389 1269.41 Q146.696 1269.28 146.916 1269.24 Q147.135 1269.19 147.487 1269.19 L159.081 1269.46 L170.587 1269.19 Q171.861 1269.19 171.861 1270.2 Q171.861 1271.48 171.29 1271.74 Q170.719 1272.01 168.786 1272.01 Q165.493 1272.01 163.999 1272.44 Q162.55 1272.84 162.111 1273.54 Q161.716 1274.2 161.233 1276.13 L152.493 1311.14 Q152.054 1312.89 151.79 1314.65 Q151.571 1316.36 151.571 1317.24 L151.527 1318.12 Q151.527 1323.7 154.601 1326.77 Q157.719 1329.84 162.506 1329.84 Q169.533 1329.84 176.077 1324.27 Q182.664 1318.69 184.904 1309.95 L192.985 1277.85 Q193.248 1277.06 193.248 1275.96 Q193.248 1274.2 191.931 1273.15 Q190.657 1272.05 187.144 1272.01 Q185.519 1272.01 185.519 1271 Q185.519 1270.16 185.826 1269.77 Q186.177 1269.33 186.441 1269.28 Q186.748 1269.19 187.144 1269.19 Q188.637 1269.19 191.799 1269.33 Q194.961 1269.46 196.498 1269.46 Q198.035 1269.46 201.109 1269.33 Q204.183 1269.19 205.677 1269.19 Q206.204 1269.19 206.467 1269.46 Q206.775 1269.68 206.818 1269.94 L206.818 1270.2 Z" fill="#000000" fill-rule="evenodd" fill-opacity="1" /><path clip-path="url(#clip590)" d="M216.826 1308.15 Q216.826 1292.95 222.492 1280.7 Q224.907 1275.56 228.289 1271.26 Q231.67 1266.95 233.91 1265.07 Q236.15 1263.18 236.765 1263.18 Q237.643 1263.18 237.687 1264.06 Q237.687 1264.5 236.501 1265.59 Q222.009 1280.35 222.053 1308.15 Q222.053 1336.04 236.15 1350.22 Q237.687 1351.76 237.687 1352.24 Q237.687 1353.12 236.765 1353.12 Q236.15 1353.12 233.998 1351.32 Q231.846 1349.52 228.508 1345.39 Q225.171 1341.26 222.755 1336.21 Q216.826 1323.96 216.826 1308.15 Z" fill="#000000" fill-rule="evenodd" fill-opacity="1" /><path clip-path="url(#clip590)" d="M318.294 1270.2 Q318.294 1271 317.986 1271.43 Q317.723 1271.83 317.415 1271.92 Q317.108 1271.96 316.317 1272.01 Q310.037 1272.31 304.899 1276.57 Q303.625 1277.67 300.419 1281.1 Q297.257 1284.52 293.041 1289.09 Q288.869 1293.66 286.454 1296.12 L298.048 1323.87 Q298.531 1324.97 298.707 1325.45 Q298.926 1325.89 299.365 1326.46 Q299.848 1327.03 300.2 1327.21 Q300.595 1327.38 301.429 1327.6 Q302.308 1327.78 303.186 1327.82 Q304.108 1327.82 305.777 1327.87 Q306.304 1327.87 306.524 1327.91 Q306.787 1327.91 307.095 1328.18 Q307.402 1328.39 307.402 1328.92 Q307.402 1329.71 307.051 1330.15 Q306.743 1330.55 306.436 1330.59 Q306.173 1330.63 305.689 1330.63 Q304.548 1330.63 300.683 1330.5 Q296.818 1330.37 295.72 1330.37 L284.39 1330.63 Q283.028 1330.63 283.028 1329.54 Q283.028 1328.97 283.116 1328.66 Q283.248 1328.31 283.555 1328.18 Q283.863 1328 284.082 1327.96 Q284.302 1327.91 284.829 1327.87 Q286.454 1327.69 287.683 1327.21 Q288.957 1326.68 289.484 1326.16 Q290.055 1325.63 290.055 1325.23 L289.616 1323.96 L280.525 1302.48 L272.4 1311.31 L263.222 1321.02 Q260.806 1323.61 260.806 1325.06 Q260.806 1327.47 264.407 1327.87 Q265.505 1327.96 265.505 1328.83 Q265.505 1329.67 265.154 1330.11 Q264.847 1330.5 264.539 1330.59 Q264.276 1330.63 263.88 1330.63 Q262.255 1330.63 258.83 1330.5 Q255.448 1330.37 253.779 1330.37 Q252.374 1330.37 249.519 1330.5 Q246.665 1330.63 245.347 1330.63 Q244.82 1330.63 244.513 1330.37 Q244.206 1330.11 244.206 1329.84 L244.162 1329.62 Q244.162 1329.01 244.249 1328.66 Q244.381 1328.31 244.733 1328.13 Q245.128 1327.96 245.303 1327.96 Q245.479 1327.91 246.138 1327.87 Q249.871 1327.65 253.033 1326.2 Q256.239 1324.75 259.357 1321.37 Q259.62 1321.15 259.928 1320.89 Q260.279 1320.62 260.543 1320.4 L279.515 1299.98 L268.887 1274.86 Q268.404 1273.72 267.965 1273.23 Q267.525 1272.71 266.164 1272.36 Q264.803 1272.01 262.168 1272.01 Q261.421 1272.01 261.07 1271.96 Q260.718 1271.92 260.411 1271.7 Q260.103 1271.48 260.103 1271 Q260.103 1270.16 260.411 1269.77 Q260.762 1269.33 261.026 1269.28 Q261.333 1269.19 261.728 1269.19 Q262.826 1269.19 266.735 1269.33 Q270.644 1269.46 271.785 1269.46 Q273.674 1269.46 277.451 1269.33 Q281.272 1269.19 283.116 1269.19 Q284.477 1269.19 284.477 1270.29 Q284.477 1271 284.17 1271.39 Q283.863 1271.79 283.555 1271.87 Q283.248 1271.96 282.677 1272.01 Q280.964 1272.18 279.647 1272.75 Q278.373 1273.28 277.846 1273.81 Q277.363 1274.29 277.363 1274.6 L277.802 1275.78 L285.356 1293.66 L299.936 1278.02 Q301.649 1276.09 301.649 1274.77 Q301.649 1272.4 298.048 1272.01 Q296.95 1271.83 296.95 1271 Q296.95 1270.16 297.301 1269.77 Q297.653 1269.33 297.916 1269.28 Q298.224 1269.19 298.663 1269.19 Q300.288 1269.19 303.625 1269.33 Q307.007 1269.46 308.676 1269.46 Q310.081 1269.46 312.936 1269.33 Q315.79 1269.19 317.108 1269.19 Q317.635 1269.19 317.942 1269.46 Q318.25 1269.68 318.25 1269.94 L318.294 1270.2 Z" fill="#000000" fill-rule="evenodd" fill-opacity="1" /><path clip-path="url(#clip590)" d="M402.217 1306.88 Q402.744 1307.4 402.744 1308.15 Q402.744 1308.9 402.217 1309.42 Q401.69 1309.95 400.943 1309.95 L344.641 1309.95 Q343.895 1309.95 343.368 1309.42 Q342.841 1308.9 342.841 1308.15 Q342.841 1307.4 343.368 1306.88 Q343.895 1306.35 344.641 1306.35 L400.943 1306.35 Q401.69 1306.35 402.217 1306.88 Z" fill="#000000" fill-rule="evenodd" fill-opacity="1" /><path clip-path="url(#clip590)" d="M479.903 1269.19 L466.947 1321.19 Q466.42 1323.52 466.42 1325.5 Q466.42 1329.62 469.099 1329.62 Q470.417 1329.62 471.471 1328.79 Q472.525 1327.96 473.359 1326.2 Q474.194 1324.44 474.721 1322.82 Q475.248 1321.15 475.95 1318.51 Q476.17 1317.46 476.346 1317.2 Q476.565 1316.89 477.18 1316.89 Q478.278 1316.89 478.278 1317.77 Q477.092 1323.43 475.555 1326.68 Q473.096 1331.64 468.924 1331.64 Q465.762 1331.64 463.522 1329.71 Q461.282 1327.78 460.755 1324.88 Q455.002 1331.64 449.029 1331.64 Q443.759 1331.64 440.421 1327.65 Q437.084 1323.61 437.084 1317.24 Q437.084 1310.83 440.246 1304.68 Q443.452 1298.53 448.502 1294.71 Q453.553 1290.89 458.735 1290.89 Q464.224 1290.89 467.035 1296.64 L472.437 1275.3 L472.7 1273.54 Q472.7 1273.02 472.481 1272.75 Q472.305 1272.44 471.251 1272.22 Q470.241 1272.01 468.221 1272.01 Q467.386 1272.01 466.991 1271.96 Q466.64 1271.92 466.332 1271.7 Q466.025 1271.43 466.025 1270.91 Q466.025 1269.37 467.299 1269.19 Q475.731 1268.23 478.717 1268.23 Q479.244 1268.23 479.551 1268.49 Q479.859 1268.71 479.859 1268.98 L479.903 1269.19 M465.937 1300.77 Q465.937 1300.38 465.63 1299.28 Q465.322 1298.18 464.62 1296.64 Q463.917 1295.11 462.38 1294.01 Q460.887 1292.87 458.867 1292.87 Q456.144 1292.87 453.289 1295.19 Q450.478 1297.52 448.414 1301.47 Q446.833 1304.64 445.12 1311.27 Q443.452 1317.9 443.452 1321.19 Q443.452 1323.21 443.891 1325.01 Q444.374 1326.77 445.735 1328.22 Q447.097 1329.62 449.205 1329.62 Q454.343 1329.62 459.394 1323.26 Q460.36 1322.16 460.579 1321.72 Q460.843 1321.24 461.194 1319.92 L465.674 1302.31 Q465.937 1300.99 465.937 1300.77 Z" fill="#000000" fill-rule="evenodd" fill-opacity="1" /><path clip-path="url(#clip590)" d="M485.163 1352.24 Q485.163 1351.8 486.304 1350.7 Q500.797 1335.95 500.797 1308.15 Q500.797 1280.26 486.875 1266.16 Q485.163 1264.54 485.163 1264.06 Q485.163 1263.18 486.041 1263.18 Q486.656 1263.18 488.808 1264.98 Q491.003 1266.78 494.297 1270.91 Q497.635 1275.04 500.094 1280.09 Q506.023 1292.34 506.023 1308.15 Q506.023 1323.34 500.358 1335.6 Q497.942 1340.74 494.561 1345.04 Q491.179 1349.34 488.939 1351.23 Q486.7 1353.12 486.041 1353.12 Q485.163 1353.12 485.163 1352.24 Z" fill="#000000" fill-rule="evenodd" fill-opacity="1" /><path clip-path="url(#clip590)" d="M364.735 902.827 Q364.735 904.628 363.242 904.628 Q360.607 904.715 358.806 905.242 Q357.006 905.726 355.952 906.692 Q354.942 907.658 354.371 908.712 Q353.844 909.722 353.492 911.259 L345.499 943.187 Q343.216 952.19 335.838 958.733 Q328.46 965.233 320.071 965.233 Q315.284 965.233 311.288 963.257 Q307.335 961.281 304.876 957.284 Q302.417 953.288 302.417 947.974 Q302.417 945.427 303.076 942.748 L308.521 920.526 L310.541 912.62 Q312.035 906.78 312.035 906.253 Q312.035 905.418 311.508 905.199 Q311.025 904.935 309.619 904.803 L306.194 904.628 Q305.14 904.628 304.7 904.584 Q304.305 904.54 303.998 904.32 Q303.69 904.101 303.69 903.617 Q303.69 903.003 303.822 902.607 Q303.998 902.168 304.305 902.036 Q304.613 901.905 304.832 901.861 Q305.052 901.817 305.403 901.817 L316.997 902.08 L328.504 901.817 Q329.777 901.817 329.777 902.827 Q329.777 904.101 329.206 904.364 Q328.635 904.628 326.703 904.628 Q323.409 904.628 321.916 905.067 Q320.467 905.462 320.028 906.165 Q319.632 906.823 319.149 908.756 L310.41 943.758 Q309.971 945.514 309.707 947.271 Q309.487 948.984 309.487 949.862 L309.443 950.741 Q309.443 956.318 312.518 959.392 Q315.636 962.466 320.423 962.466 Q327.45 962.466 333.993 956.889 Q340.581 951.311 342.82 942.572 L350.901 910.469 Q351.165 909.678 351.165 908.58 Q351.165 906.823 349.847 905.769 Q348.574 904.672 345.06 904.628 Q343.435 904.628 343.435 903.617 Q343.435 902.783 343.743 902.388 Q344.094 901.949 344.358 901.905 Q344.665 901.817 345.06 901.817 Q346.553 901.817 349.715 901.949 Q352.877 902.08 354.415 902.08 Q355.952 902.08 359.026 901.949 Q362.1 901.817 363.593 901.817 Q364.12 901.817 364.384 902.08 Q364.691 902.3 364.735 902.563 L364.735 902.827 Z" fill="#000000" fill-rule="evenodd" fill-opacity="1" /><path clip-path="url(#clip590)" d="M374.743 940.771 Q374.743 925.576 380.408 913.323 Q382.824 908.185 386.205 903.881 Q389.587 899.577 391.827 897.689 Q394.067 895.8 394.681 895.8 Q395.56 895.8 395.604 896.679 Q395.604 897.118 394.418 898.216 Q379.925 912.972 379.969 940.771 Q379.969 968.659 394.067 982.844 Q395.604 984.381 395.604 984.864 Q395.604 985.742 394.681 985.742 Q394.067 985.742 391.915 983.942 Q389.763 982.141 386.425 978.013 Q383.087 973.885 380.672 968.834 Q374.743 956.581 374.743 940.771 Z" fill="#000000" fill-rule="evenodd" fill-opacity="1" /><path clip-path="url(#clip590)" d="M476.21 902.827 Q476.21 903.617 475.903 904.057 Q475.639 904.452 475.332 904.54 Q475.024 904.584 474.234 904.628 Q467.954 904.935 462.816 909.195 Q461.542 910.293 458.336 913.718 Q455.174 917.144 450.958 921.711 Q446.786 926.279 444.37 928.738 L455.964 956.494 Q456.448 957.592 456.623 958.075 Q456.843 958.514 457.282 959.085 Q457.765 959.656 458.116 959.831 Q458.512 960.007 459.346 960.227 Q460.224 960.402 461.103 960.446 Q462.025 960.446 463.694 960.49 Q464.221 960.49 464.44 960.534 Q464.704 960.534 465.011 960.798 Q465.319 961.017 465.319 961.544 Q465.319 962.335 464.967 962.774 Q464.66 963.169 464.353 963.213 Q464.089 963.257 463.606 963.257 Q462.464 963.257 458.599 963.125 Q454.735 962.993 453.637 962.993 L442.306 963.257 Q440.945 963.257 440.945 962.159 Q440.945 961.588 441.033 961.281 Q441.164 960.929 441.472 960.798 Q441.779 960.622 441.999 960.578 Q442.218 960.534 442.745 960.49 Q444.37 960.314 445.6 959.831 Q446.874 959.304 447.401 958.777 Q447.972 958.25 447.972 957.855 L447.532 956.581 L438.442 935.106 L430.317 943.933 L421.138 953.639 Q418.723 956.23 418.723 957.679 Q418.723 960.095 422.324 960.49 Q423.422 960.578 423.422 961.456 Q423.422 962.291 423.071 962.73 Q422.763 963.125 422.456 963.213 Q422.192 963.257 421.797 963.257 Q420.172 963.257 416.747 963.125 Q413.365 962.993 411.696 962.993 Q410.291 962.993 407.436 963.125 Q404.581 963.257 403.264 963.257 Q402.737 963.257 402.43 962.993 Q402.122 962.73 402.122 962.466 L402.078 962.247 Q402.078 961.632 402.166 961.281 Q402.298 960.929 402.649 960.754 Q403.044 960.578 403.22 960.578 Q403.396 960.534 404.054 960.49 Q407.787 960.271 410.949 958.821 Q414.155 957.372 417.274 953.99 Q417.537 953.771 417.844 953.507 Q418.196 953.244 418.459 953.024 L437.431 932.603 L426.804 907.482 Q426.32 906.34 425.881 905.857 Q425.442 905.33 424.081 904.979 Q422.719 904.628 420.084 904.628 Q419.338 904.628 418.986 904.584 Q418.635 904.54 418.328 904.32 Q418.02 904.101 418.02 903.617 Q418.02 902.783 418.328 902.388 Q418.679 901.949 418.942 901.905 Q419.25 901.817 419.645 901.817 Q420.743 901.817 424.652 901.949 Q428.56 902.08 429.702 902.08 Q431.59 902.08 435.367 901.949 Q439.188 901.817 441.033 901.817 Q442.394 901.817 442.394 902.915 Q442.394 903.617 442.087 904.013 Q441.779 904.408 441.472 904.496 Q441.164 904.584 440.593 904.628 Q438.881 904.803 437.563 905.374 Q436.29 905.901 435.763 906.428 Q435.28 906.911 435.28 907.219 L435.719 908.404 L443.272 926.279 L457.853 910.644 Q459.566 908.712 459.566 907.394 Q459.566 905.023 455.964 904.628 Q454.867 904.452 454.867 903.617 Q454.867 902.783 455.218 902.388 Q455.569 901.949 455.833 901.905 Q456.14 901.817 456.579 901.817 Q458.204 901.817 461.542 901.949 Q464.924 902.08 466.592 902.08 Q467.998 902.08 470.852 901.949 Q473.707 901.817 475.024 901.817 Q475.551 901.817 475.859 902.08 Q476.166 902.3 476.166 902.563 L476.21 902.827 Z" fill="#000000" fill-rule="evenodd" fill-opacity="1" /><path clip-path="url(#clip590)" d="M485.163 984.864 Q485.163 984.425 486.304 983.327 Q500.797 968.571 500.797 940.771 Q500.797 912.884 486.875 898.787 Q485.163 897.162 485.163 896.679 Q485.163 895.8 486.041 895.8 Q486.656 895.8 488.808 897.601 Q491.003 899.401 494.297 903.53 Q497.635 907.658 500.094 912.708 Q506.023 924.961 506.023 940.771 Q506.023 955.967 500.358 968.22 Q497.942 973.358 494.561 977.662 Q491.179 981.966 488.939 983.854 Q486.7 985.742 486.041 985.742 Q485.163 985.742 485.163 984.864 Z" fill="#000000" fill-rule="evenodd" fill-opacity="1" /><path clip-path="url(#clip590)" d="M206.818 85.2129 Q206.818 87.0135 205.325 87.0135 Q202.69 87.1013 200.89 87.6283 Q199.089 88.1114 198.035 89.0776 Q197.025 90.0438 196.454 91.0978 Q195.927 92.1079 195.576 93.645 L187.583 125.573 Q185.299 134.576 177.921 141.119 Q170.543 147.619 162.155 147.619 Q157.368 147.619 153.371 145.643 Q149.419 143.667 146.96 139.67 Q144.5 135.674 144.5 130.36 Q144.5 127.812 145.159 125.134 L150.605 102.911 L152.625 95.0064 Q154.118 89.1654 154.118 88.6384 Q154.118 87.804 153.591 87.5844 Q153.108 87.3209 151.703 87.1891 L148.277 87.0135 Q147.223 87.0135 146.784 86.9696 Q146.389 86.9256 146.081 86.7061 Q145.774 86.4865 145.774 86.0034 Q145.774 85.3885 145.906 84.9933 Q146.081 84.5541 146.389 84.4224 Q146.696 84.2906 146.916 84.2467 Q147.135 84.2028 147.487 84.2028 L159.081 84.4663 L170.587 84.2028 Q171.861 84.2028 171.861 85.2129 Q171.861 86.4865 171.29 86.75 Q170.719 87.0135 168.786 87.0135 Q165.493 87.0135 163.999 87.4526 Q162.55 87.8479 162.111 88.5506 Q161.716 89.2093 161.233 91.1417 L152.493 126.144 Q152.054 127.9 151.79 129.657 Q151.571 131.37 151.571 132.248 L151.527 133.126 Q151.527 138.704 154.601 141.778 Q157.719 144.852 162.506 144.852 Q169.533 144.852 176.077 139.275 Q182.664 133.697 184.904 124.958 L192.985 92.8545 Q193.248 92.0639 193.248 90.966 Q193.248 89.2093 191.931 88.1553 Q190.657 87.0574 187.144 87.0135 Q185.519 87.0135 185.519 86.0034 Q185.519 85.169 185.826 84.7737 Q186.177 84.3345 186.441 84.2906 Q186.748 84.2028 187.144 84.2028 Q188.637 84.2028 191.799 84.3345 Q194.961 84.4663 196.498 84.4663 Q198.035 84.4663 201.109 84.3345 Q204.183 84.2028 205.677 84.2028 Q206.204 84.2028 206.467 84.4663 Q206.775 84.6859 206.818 84.9494 L206.818 85.2129 Z" fill="#000000" fill-rule="evenodd" fill-opacity="1" /><path clip-path="url(#clip590)" d="M216.826 123.157 Q216.826 107.962 222.492 95.7091 Q224.907 90.5708 228.289 86.2669 Q231.67 81.963 233.91 80.0746 Q236.15 78.1861 236.765 78.1861 Q237.643 78.1861 237.687 79.0645 Q237.687 79.5037 236.501 80.6016 Q222.009 95.3577 222.053 123.157 Q222.053 151.045 236.15 165.23 Q237.687 166.767 237.687 167.25 Q237.687 168.128 236.765 168.128 Q236.15 168.128 233.998 166.328 Q231.846 164.527 228.508 160.399 Q225.171 156.271 222.755 151.22 Q216.826 138.967 216.826 123.157 Z" fill="#000000" fill-rule="evenodd" fill-opacity="1" /><path clip-path="url(#clip590)" d="M318.294 85.2129 Q318.294 86.0034 317.986 86.4426 Q317.723 86.8378 317.415 86.9256 Q317.108 86.9696 316.317 87.0135 Q310.037 87.3209 304.899 91.5809 Q303.625 92.6788 300.419 96.1043 Q297.257 99.5298 293.041 104.097 Q288.869 108.665 286.454 111.124 L298.048 138.88 Q298.531 139.977 298.707 140.461 Q298.926 140.9 299.365 141.471 Q299.848 142.042 300.2 142.217 Q300.595 142.393 301.429 142.613 Q302.308 142.788 303.186 142.832 Q304.108 142.832 305.777 142.876 Q306.304 142.876 306.524 142.92 Q306.787 142.92 307.095 143.183 Q307.402 143.403 307.402 143.93 Q307.402 144.721 307.051 145.16 Q306.743 145.555 306.436 145.599 Q306.173 145.643 305.689 145.643 Q304.548 145.643 300.683 145.511 Q296.818 145.379 295.72 145.379 L284.39 145.643 Q283.028 145.643 283.028 144.545 Q283.028 143.974 283.116 143.667 Q283.248 143.315 283.555 143.183 Q283.863 143.008 284.082 142.964 Q284.302 142.92 284.829 142.876 Q286.454 142.7 287.683 142.217 Q288.957 141.69 289.484 141.163 Q290.055 140.636 290.055 140.241 L289.616 138.967 L280.525 117.492 L272.4 126.319 L263.222 136.025 Q260.806 138.616 260.806 140.065 Q260.806 142.481 264.407 142.876 Q265.505 142.964 265.505 143.842 Q265.505 144.677 265.154 145.116 Q264.847 145.511 264.539 145.599 Q264.276 145.643 263.88 145.643 Q262.255 145.643 258.83 145.511 Q255.448 145.379 253.779 145.379 Q252.374 145.379 249.519 145.511 Q246.665 145.643 245.347 145.643 Q244.82 145.643 244.513 145.379 Q244.206 145.116 244.206 144.852 L244.162 144.633 Q244.162 144.018 244.249 143.667 Q244.381 143.315 244.733 143.14 Q245.128 142.964 245.303 142.964 Q245.479 142.92 246.138 142.876 Q249.871 142.656 253.033 141.207 Q256.239 139.758 259.357 136.376 Q259.62 136.157 259.928 135.893 Q260.279 135.63 260.543 135.41 L279.515 114.989 L268.887 89.8681 Q268.404 88.7262 267.965 88.2432 Q267.525 87.7162 266.164 87.3648 Q264.803 87.0135 262.168 87.0135 Q261.421 87.0135 261.07 86.9696 Q260.718 86.9256 260.411 86.7061 Q260.103 86.4865 260.103 86.0034 Q260.103 85.169 260.411 84.7737 Q260.762 84.3345 261.026 84.2906 Q261.333 84.2028 261.728 84.2028 Q262.826 84.2028 266.735 84.3345 Q270.644 84.4663 271.785 84.4663 Q273.674 84.4663 277.451 84.3345 Q281.272 84.2028 283.116 84.2028 Q284.477 84.2028 284.477 85.3007 Q284.477 86.0034 284.17 86.3986 Q283.863 86.7939 283.555 86.8817 Q283.248 86.9696 282.677 87.0135 Q280.964 87.1891 279.647 87.7601 Q278.373 88.2871 277.846 88.8141 Q277.363 89.2972 277.363 89.6046 L277.802 90.7903 L285.356 108.665 L299.936 93.0301 Q301.649 91.0978 301.649 89.7803 Q301.649 87.4087 298.048 87.0135 Q296.95 86.8378 296.95 86.0034 Q296.95 85.169 297.301 84.7737 Q297.653 84.3345 297.916 84.2906 Q298.224 84.2028 298.663 84.2028 Q300.288 84.2028 303.625 84.3345 Q307.007 84.4663 308.676 84.4663 Q310.081 84.4663 312.936 84.3345 Q315.79 84.2028 317.108 84.2028 Q317.635 84.2028 317.942 84.4663 Q318.25 84.6859 318.25 84.9494 L318.294 85.2129 Z" fill="#000000" fill-rule="evenodd" fill-opacity="1" /><path clip-path="url(#clip590)" d="M344.905 124.255 Q342.841 124.255 342.841 123.157 Q342.841 122.059 344.993 122.059 Q345.256 122.059 345.695 122.103 Q346.179 122.147 346.266 122.147 L371.607 122.147 L371.607 96.7192 Q371.607 96.6313 371.563 96.2361 Q371.519 95.7969 371.519 95.5334 Q371.519 93.3815 372.573 93.3815 Q373.671 93.3815 373.671 95.5334 L373.671 122.147 L399.055 122.147 Q399.143 122.147 399.582 122.103 Q400.021 122.059 400.284 122.059 Q402.349 122.059 402.349 123.157 Q402.392 124.255 400.197 124.255 Q399.933 124.255 399.538 124.211 Q399.143 124.167 399.055 124.167 L373.671 124.167 L373.671 150.869 Q373.671 152.933 372.573 152.933 Q371.519 152.933 371.519 150.781 Q371.519 150.518 371.563 150.078 Q371.607 149.683 371.607 149.595 L371.607 124.167 L346.266 124.167 Q346.179 124.167 345.652 124.211 Q345.168 124.255 344.905 124.255 Z" fill="#000000" fill-rule="evenodd" fill-opacity="1" /><path clip-path="url(#clip590)" d="M479.903 84.2028 L466.947 136.201 Q466.42 138.528 466.42 140.504 Q466.42 144.633 469.099 144.633 Q470.417 144.633 471.471 143.798 Q472.525 142.964 473.359 141.207 Q474.194 139.45 474.721 137.826 Q475.248 136.157 475.95 133.522 Q476.17 132.468 476.346 132.204 Q476.565 131.897 477.18 131.897 Q478.278 131.897 478.278 132.775 Q477.092 138.44 475.555 141.69 Q473.096 146.653 468.924 146.653 Q465.762 146.653 463.522 144.721 Q461.282 142.788 460.755 139.89 Q455.002 146.653 449.029 146.653 Q443.759 146.653 440.421 142.656 Q437.084 138.616 437.084 132.248 Q437.084 125.836 440.246 119.688 Q443.452 113.539 448.502 109.719 Q453.553 105.898 458.735 105.898 Q464.224 105.898 467.035 111.651 L472.437 90.3073 L472.7 88.5506 Q472.7 88.0236 472.481 87.7601 Q472.305 87.4526 471.251 87.2331 Q470.241 87.0135 468.221 87.0135 Q467.386 87.0135 466.991 86.9696 Q466.64 86.9256 466.332 86.7061 Q466.025 86.4426 466.025 85.9156 Q466.025 84.3785 467.299 84.2028 Q475.731 83.2366 478.717 83.2366 Q479.244 83.2366 479.551 83.5001 Q479.859 83.7197 479.859 83.9832 L479.903 84.2028 M465.937 115.779 Q465.937 115.384 465.63 114.286 Q465.322 113.188 464.62 111.651 Q463.917 110.114 462.38 109.016 Q460.887 107.874 458.867 107.874 Q456.144 107.874 453.289 110.202 Q450.478 112.529 448.414 116.482 Q446.833 119.644 445.12 126.275 Q443.452 132.907 443.452 136.201 Q443.452 138.221 443.891 140.021 Q444.374 141.778 445.735 143.227 Q447.097 144.633 449.205 144.633 Q454.343 144.633 459.394 138.265 Q460.36 137.167 460.579 136.728 Q460.843 136.245 461.194 134.927 L465.674 117.316 Q465.937 115.999 465.937 115.779 Z" fill="#000000" fill-rule="evenodd" fill-opacity="1" /><path clip-path="url(#clip590)" d="M485.163 167.25 Q485.163 166.811 486.304 165.713 Q500.797 150.957 500.797 123.157 Q500.797 95.2699 486.875 81.1725 Q485.163 79.5476 485.163 79.0645 Q485.163 78.1861 486.041 78.1861 Q486.656 78.1861 488.808 79.9867 Q491.003 81.7873 494.297 85.9156 Q497.635 90.0438 500.094 95.0942 Q506.023 107.347 506.023 123.157 Q506.023 138.353 500.358 150.605 Q497.942 155.744 494.561 160.048 Q491.179 164.351 488.939 166.24 Q486.7 168.128 486.041 168.128 Q485.163 168.128 485.163 167.25 Z" fill="#000000" fill-rule="evenodd" fill-opacity="1" /><path clip-path="url(#clip590)" d="M375.997 679.422 L374.196 694.968 Q374.064 696.374 373.845 696.813 Q373.625 697.208 372.923 697.208 Q372.396 697.208 372.088 696.901 Q371.825 696.549 371.825 696.154 Q371.825 695.934 371.869 695.363 Q371.912 694.793 371.912 694.529 Q372.308 691.806 372.308 689.742 Q372.308 685.921 371.166 683.857 Q370.024 681.749 367.082 680.783 Q364.139 679.773 358.606 679.773 L345.957 679.773 Q343.059 679.773 342.356 680.3 Q341.698 680.827 341.083 683.286 L335.681 704.937 L344.157 704.937 Q347.319 704.937 349.207 704.542 Q351.14 704.147 352.413 703.049 Q353.731 701.907 354.433 700.37 Q355.18 698.833 355.927 696.066 Q356.146 695.144 356.366 694.793 Q356.629 694.441 357.2 694.441 Q357.639 694.441 357.947 694.749 Q358.254 695.012 358.254 695.407 L353.116 716.444 Q352.852 717.498 352.589 717.893 Q352.325 718.244 351.798 718.244 Q351.228 718.244 350.92 717.937 Q350.613 717.629 350.613 717.278 Q350.613 716.927 350.876 716.268 Q351.535 713.413 351.535 711.876 Q351.535 710.998 351.447 710.559 Q351.403 710.12 351.008 709.505 Q350.657 708.846 349.866 708.539 Q349.076 708.231 347.582 708.012 Q346.089 707.748 343.849 707.748 L334.978 707.748 L328.83 732.298 Q328.391 733.923 328.391 734.362 Q328.391 734.845 328.61 735.021 Q328.874 735.152 329.576 735.24 Q330.367 735.372 331.553 735.372 L344.684 735.372 Q347.582 735.372 349.91 735.108 Q352.238 734.845 354.17 734.186 Q356.146 733.527 357.639 732.781 Q359.133 732.034 360.538 730.673 Q361.943 729.267 362.909 728.038 Q363.92 726.764 365.105 724.612 Q366.291 722.46 367.125 720.704 Q367.96 718.903 369.234 716.004 Q369.585 714.95 370.419 714.95 Q370.902 714.95 371.166 715.214 Q371.429 715.434 371.473 715.653 L371.473 715.917 Q371.21 716.751 371.034 717.19 L362.778 736.602 Q362.295 737.7 361.899 737.919 Q361.504 738.139 359.967 738.139 L313.283 738.139 Q312.229 738.139 311.79 738.095 Q311.395 738.051 311.087 737.831 Q310.78 737.568 310.78 737.041 Q310.78 736.206 311.131 735.855 Q311.483 735.46 311.878 735.416 Q312.273 735.372 313.283 735.372 Q315.479 735.372 316.797 735.24 Q318.114 735.108 318.948 734.933 Q319.827 734.713 320.266 734.098 Q320.749 733.483 320.969 732.956 Q321.188 732.386 321.496 731.112 L333.353 683.55 Q333.792 681.925 333.792 681.398 Q333.792 680.827 333.397 680.476 Q333.046 680.124 332.08 679.992 Q331.113 679.817 330.323 679.817 Q329.576 679.773 327.951 679.773 Q326.897 679.773 326.458 679.729 Q326.063 679.685 325.756 679.465 Q325.448 679.246 325.448 678.763 Q325.448 677.533 325.975 677.27 Q326.546 676.962 328.127 676.962 L373.537 676.962 Q375.338 676.962 375.733 677.357 Q376.172 677.709 375.997 679.422 Z" fill="#000000" fill-rule="evenodd" fill-opacity="1" /><path clip-path="url(#clip590)" d="M385.141 715.653 Q385.141 700.458 390.806 688.205 Q393.222 683.067 396.603 678.763 Q399.985 674.459 402.225 672.57 Q404.465 670.682 405.079 670.682 Q405.958 670.682 406.002 671.56 Q406.002 672 404.816 673.097 Q390.323 687.854 390.367 715.653 Q390.367 743.54 404.465 757.726 Q406.002 759.263 406.002 759.746 Q406.002 760.624 405.079 760.624 Q404.465 760.624 402.313 758.824 Q400.161 757.023 396.823 752.895 Q393.485 748.767 391.07 743.716 Q385.141 731.463 385.141 715.653 Z" fill="#000000" fill-rule="evenodd" fill-opacity="1" /><path clip-path="url(#clip590)" d="M478.395 677.709 Q478.395 679.509 476.901 679.509 Q474.266 679.597 472.466 680.124 Q470.665 680.607 469.611 681.573 Q468.601 682.54 468.03 683.594 Q467.503 684.604 467.152 686.141 L459.159 718.069 Q456.875 727.072 449.497 733.615 Q442.119 740.115 433.731 740.115 Q428.944 740.115 424.948 738.139 Q420.995 736.162 418.536 732.166 Q416.076 728.17 416.076 722.856 Q416.076 720.308 416.735 717.629 L422.181 695.407 L424.201 687.502 Q425.694 681.661 425.694 681.134 Q425.694 680.3 425.167 680.08 Q424.684 679.817 423.279 679.685 L419.853 679.509 Q418.799 679.509 418.36 679.465 Q417.965 679.422 417.657 679.202 Q417.35 678.982 417.35 678.499 Q417.35 677.884 417.482 677.489 Q417.657 677.05 417.965 676.918 Q418.272 676.787 418.492 676.743 Q418.711 676.699 419.063 676.699 L430.657 676.962 L442.163 676.699 Q443.437 676.699 443.437 677.709 Q443.437 678.982 442.866 679.246 Q442.295 679.509 440.362 679.509 Q437.069 679.509 435.575 679.949 Q434.126 680.344 433.687 681.046 Q433.292 681.705 432.809 683.638 L424.069 718.64 Q423.63 720.396 423.366 722.153 Q423.147 723.866 423.147 724.744 L423.103 725.622 Q423.103 731.2 426.177 734.274 Q429.295 737.348 434.082 737.348 Q441.109 737.348 447.653 731.771 Q454.24 726.193 456.48 717.454 L464.561 685.35 Q464.824 684.56 464.824 683.462 Q464.824 681.705 463.507 680.651 Q462.233 679.553 458.72 679.509 Q457.095 679.509 457.095 678.499 Q457.095 677.665 457.402 677.27 Q457.754 676.83 458.017 676.787 Q458.324 676.699 458.72 676.699 Q460.213 676.699 463.375 676.83 Q466.537 676.962 468.074 676.962 Q469.611 676.962 472.685 676.83 Q475.76 676.699 477.253 676.699 Q477.78 676.699 478.043 676.962 Q478.351 677.182 478.395 677.445 L478.395 677.709 Z" fill="#000000" fill-rule="evenodd" fill-opacity="1" /><path clip-path="url(#clip590)" d="M485.163 759.746 Q485.163 759.307 486.304 758.209 Q500.797 743.453 500.797 715.653 Q500.797 687.766 486.875 673.668 Q485.163 672.043 485.163 671.56 Q485.163 670.682 486.041 670.682 Q486.656 670.682 488.808 672.483 Q491.003 674.283 494.297 678.411 Q497.635 682.54 500.094 687.59 Q506.023 699.843 506.023 715.653 Q506.023 730.848 500.358 743.101 Q497.942 748.24 494.561 752.543 Q491.179 756.847 488.939 758.736 Q486.7 760.624 486.041 760.624 Q485.163 760.624 485.163 759.746 Z" fill="#000000" fill-rule="evenodd" fill-opacity="1" /><path clip-path="url(#clip590)" d="M7.41216 855.622 L7.41216 845.049 L54.6515 845.049 Q67.1514 845.049 72.6722 840.518 Q78.1409 835.987 78.1409 825.831 Q78.1409 815.727 72.6722 811.195 Q67.1514 806.664 54.6515 806.664 L7.41216 806.664 L7.41216 796.091 L55.9536 796.091 Q71.1618 796.091 78.9222 803.643 Q86.6826 811.143 86.6826 825.831 Q86.6826 840.57 78.9222 848.122 Q71.1618 855.622 55.9536 855.622 L7.41216 855.622 Z" fill="#000000" fill-rule="evenodd" fill-opacity="1" /><path clip-path="url(#clip590)" d="M10.2767 767.289 L26.8391 767.289 L26.8391 747.55 L34.287 747.55 L34.287 767.289 L65.9535 767.289 Q73.0889 767.289 75.1201 765.362 Q77.1514 763.383 77.1514 757.394 L77.1514 747.55 L85.1722 747.55 L85.1722 757.394 Q85.1722 768.487 81.0576 772.706 Q76.891 776.925 65.9535 776.925 L34.287 776.925 L34.287 783.956 L26.8391 783.956 L26.8391 776.925 L10.2767 776.925 L10.2767 767.289 Z" fill="#000000" fill-rule="evenodd" fill-opacity="1" /><path clip-path="url(#clip590)" d="M26.8391 734.946 L26.8391 725.362 L85.1722 725.362 L85.1722 734.946 L26.8391 734.946 M4.13093 734.946 L4.13093 725.362 L16.2663 725.362 L16.2663 734.946 L4.13093 734.946 Z" fill="#000000" fill-rule="evenodd" fill-opacity="1" /><path clip-path="url(#clip590)" d="M4.13093 705.311 L4.13093 695.727 L85.1722 695.727 L85.1722 705.311 L4.13093 705.311 Z" fill="#000000" fill-rule="evenodd" fill-opacity="1" /><path clip-path="url(#clip590)" d="M26.8391 675.675 L26.8391 666.092 L85.1722 666.092 L85.1722 675.675 L26.8391 675.675 M4.13093 675.675 L4.13093 666.092 L16.2663 666.092 L16.2663 675.675 L4.13093 675.675 Z" fill="#000000" fill-rule="evenodd" fill-opacity="1" /><path clip-path="url(#clip590)" d="M10.2767 636.561 L26.8391 636.561 L26.8391 616.821 L34.287 616.821 L34.287 636.561 L65.9535 636.561 Q73.0889 636.561 75.1201 634.634 Q77.1514 632.655 77.1514 626.665 L77.1514 616.821 L85.1722 616.821 L85.1722 626.665 Q85.1722 637.759 81.0576 641.978 Q76.891 646.196 65.9535 646.196 L34.287 646.196 L34.287 653.227 L26.8391 653.227 L26.8391 646.196 L10.2767 646.196 L10.2767 636.561 Z" fill="#000000" fill-rule="evenodd" fill-opacity="1" /><path clip-path="url(#clip590)" d="M90.5888 579.947 Q101.005 584.009 104.182 587.863 Q107.36 591.717 107.36 598.176 L107.36 605.832 L99.3387 605.832 L99.3387 600.207 Q99.3387 596.249 97.4638 594.061 Q95.5888 591.874 88.6096 589.217 L84.2347 587.499 L26.8391 611.092 L26.8391 600.936 L72.4639 582.707 L26.8391 564.478 L26.8391 554.322 L90.5888 579.947 Z" fill="#000000" fill-rule="evenodd" fill-opacity="1" /><polyline clip-path="url(#clip592)" style="stroke:#000000; stroke-linecap:round; stroke-linejoin:round; stroke-width:12; stroke-opacity:1; fill:none" points="
  735.404,1308.36 753.374,1302.31 771.345,1296.13 789.315,1289.82 807.286,1283.39 825.256,1276.83 843.227,1270.14 861.198,1263.31 879.168,1256.35 897.139,1249.24 
  915.109,1241.99 933.08,1234.6 951.05,1227.05 969.021,1219.35 986.992,1211.5 1004.96,1203.48 1022.93,1195.31 1040.9,1186.97 1058.87,1178.46 1076.84,1169.78 
  1094.82,1160.93 1112.79,1151.89 1130.76,1142.68 1148.73,1133.27 1166.7,1123.68 1184.67,1113.9 1202.64,1103.91 1220.61,1093.73 1238.58,1083.33 1256.55,1072.73 
  1274.52,1061.92 1292.49,1050.88 1310.46,1039.63 1328.43,1028.14 1346.4,1016.42 1364.37,1004.47 1382.34,992.276 1400.32,979.835 1418.29,967.143 1436.26,954.194 
  1454.23,940.983 1472.2,927.506 1490.17,913.757 1508.14,899.729 1526.11,885.419 1544.08,870.819 1562.05,855.925 1580.02,840.729 1597.99,825.226 1615.96,809.411 
  1633.93,793.276 1651.9,776.814 1669.87,760.021 1687.84,742.888 1705.81,725.409 1723.79,707.577 1741.76,689.384 1759.73,670.824 1777.7,651.89 1795.67,632.572 
  1813.64,612.865 1831.61,592.759 1849.58,572.247 1867.55,551.321 1885.52,529.972 1903.49,508.192 1921.46,485.972 1939.43,463.303 1957.4,440.176 1975.37,416.581 
  1993.34,392.511 2011.31,367.953 2029.29,342.9 2047.26,317.341 2065.23,291.265 2083.2,264.663 2101.17,237.523 2119.14,209.835 2137.11,181.588 2155.08,152.77 
  2173.05,123.369 
  "/>
<polyline clip-path="url(#clip592)" style="stroke:#e1562c; stroke-linecap:round; stroke-linejoin:round; stroke-width:8; stroke-opacity:1; fill:none" stroke-dasharray="32, 20" points="
  1715.48,1608.13 1715.48,715.865 
  "/>
<polyline clip-path="url(#clip592)" style="stroke:#e1562c; stroke-linecap:round; stroke-linejoin:round; stroke-width:8; stroke-opacity:1; fill:none" stroke-dasharray="32, 20" points="
  375.992,715.865 1715.48,715.865 
  "/>
<circle clip-path="url(#clip592)" cx="1715.48" cy="715.865" r="14.4" fill="#e1562c" fill-rule="evenodd" fill-opacity="1" stroke="#000000" stroke-opacity="1" stroke-width="3.2"/>
<polyline clip-path="url(#clip592)" style="stroke:#537eff; stroke-linecap:round; stroke-linejoin:round; stroke-width:8; stroke-opacity:1; fill:none" stroke-dasharray="32, 20" points="
  1454.23,1608.13 1454.23,940.983 
  "/>
<polyline clip-path="url(#clip592)" style="stroke:#537eff; stroke-linecap:round; stroke-linejoin:round; stroke-width:8; stroke-opacity:1; fill:none" stroke-dasharray="32, 20" points="
  375.992,940.983 1454.23,940.983 
  "/>
<circle clip-path="url(#clip592)" cx="1454.23" cy="940.983" r="14.4" fill="#537eff" fill-rule="evenodd" fill-opacity="1" stroke="#000000" stroke-opacity="1" stroke-width="3.2"/>
<polyline clip-path="url(#clip592)" style="stroke:#000000; stroke-linecap:round; stroke-linejoin:round; stroke-width:8; stroke-opacity:1; fill:none" points="
  1454.23,1228.92 1715.48,1228.92 
  "/>
<path clip-path="url(#clip590)" d="M1567.99 1194.42 Q1570.25 1195.18 1572.37 1197.68 Q1574.52 1200.18 1576.68 1204.56 L1583.79 1218.72 L1576.26 1218.72 L1569.63 1205.42 Q1567.06 1200.22 1564.63 1198.51 Q1562.23 1196.81 1558.06 1196.81 L1550.43 1196.81 L1550.43 1218.72 L1543.41 1218.72 L1543.41 1166.88 L1559.24 1166.88 Q1568.13 1166.88 1572.51 1170.6 Q1576.88 1174.31 1576.88 1181.81 Q1576.88 1186.71 1574.59 1189.94 Q1572.33 1193.17 1567.99 1194.42 M1550.43 1172.65 L1550.43 1191.05 L1559.24 1191.05 Q1564.31 1191.05 1566.88 1188.72 Q1569.49 1186.36 1569.49 1181.81 Q1569.49 1177.26 1566.88 1174.97 Q1564.31 1172.65 1559.24 1172.65 L1550.43 1172.65 Z" fill="#000000" fill-rule="evenodd" fill-opacity="1" /><path clip-path="url(#clip590)" d="M1599.83 1172.65 L1599.83 1192.13 L1608.65 1192.13 Q1613.55 1192.13 1616.22 1189.59 Q1618.9 1187.06 1618.9 1182.37 Q1618.9 1177.72 1616.22 1175.18 Q1613.55 1172.65 1608.65 1172.65 L1599.83 1172.65 M1592.82 1166.88 L1608.65 1166.88 Q1617.37 1166.88 1621.81 1170.84 Q1626.29 1174.76 1626.29 1182.37 Q1626.29 1190.04 1621.81 1193.97 Q1617.37 1197.89 1608.65 1197.89 L1599.83 1197.89 L1599.83 1218.72 L1592.82 1218.72 L1592.82 1166.88 Z" fill="#000000" fill-rule="evenodd" fill-opacity="1" /></svg>
