<?xml version="1.0" encoding="utf-8"?>
<svg xmlns="http://www.w3.org/2000/svg" xmlns:xlink="http://www.w3.org/1999/xlink" width="600" height="400" viewBox="0 0 2400 1600">
<defs>
  <clipPath id="clip360">
    <rect x="0" y="0" width="2400" height="1600"/>
  </clipPath>
</defs>
<path clip-path="url(#clip360)" d="
M0 1600 L2400 1600 L2400 0 L0 0  Z
  " fill="#ffffff" fill-rule="evenodd" fill-opacity="1"/>
<defs>
  <clipPath id="clip361">
    <rect x="480" y="0" width="1681" height="1600"/>
  </clipPath>
</defs>
<path clip-path="url(#clip360)" d="
M47.2441 1476.53 L2352.76 1476.53 L2352.76 47.2441 L47.2441 47.2441  Z
  " fill="#ffffff" fill-rule="evenodd" fill-opacity="1"/>
<defs>
  <clipPath id="clip362">
    <rect x="47" y="47" width="2307" height="1430"/>
  </clipPath>
</defs>
<polyline clip-path="url(#clip360)" style="stroke:#000000; stroke-linecap:round; stroke-linejoin:round; stroke-width:4; stroke-opacity:1; fill:none" points="
  47.2441,1476.53 2352.76,1476.53 
  "/>
<path clip-path="url(#clip360)" d="M1057.67 1585.1 L1034.58 1524.62 L1043.13 1524.62 L1062.29 1575.54 L1081.49 1524.62 L1090 1524.62 L1066.95 1585.1 L1057.67 1585.1 Z" fill="#000000" fill-rule="evenodd" fill-opacity="1" /><path clip-path="url(#clip360)" d="M1112.68 1562.3 Q1103.65 1562.3 1100.17 1564.36 Q1096.68 1566.43 1096.68 1571.41 Q1096.68 1575.38 1099.27 1577.73 Q1101.91 1580.04 1106.4 1580.04 Q1112.6 1580.04 1116.33 1575.67 Q1120.1 1571.25 1120.1 1563.96 L1120.1 1562.3 L1112.68 1562.3 M1127.55 1559.22 L1127.55 1585.1 L1120.1 1585.1 L1120.1 1578.22 Q1117.54 1582.35 1113.74 1584.33 Q1109.93 1586.28 1104.42 1586.28 Q1097.45 1586.28 1093.32 1582.39 Q1089.23 1578.46 1089.23 1571.9 Q1089.23 1564.24 1094.33 1560.35 Q1099.48 1556.46 1109.64 1556.46 L1120.1 1556.46 L1120.1 1555.73 Q1120.1 1550.59 1116.69 1547.8 Q1113.33 1544.96 1107.21 1544.96 Q1103.33 1544.96 1099.64 1545.89 Q1095.95 1546.82 1092.55 1548.69 L1092.55 1541.8 Q1096.64 1540.22 1100.49 1539.45 Q1104.34 1538.64 1107.98 1538.64 Q1117.83 1538.64 1122.69 1543.74 Q1127.55 1548.85 1127.55 1559.22 Z" fill="#000000" fill-rule="evenodd" fill-opacity="1" /><path clip-path="url(#clip360)" d="M1169.19 1546.7 Q1167.94 1545.97 1166.44 1545.65 Q1164.98 1545.28 1163.2 1545.28 Q1156.88 1545.28 1153.48 1549.42 Q1150.11 1553.51 1150.11 1561.2 L1150.11 1585.1 L1142.62 1585.1 L1142.62 1539.73 L1150.11 1539.73 L1150.11 1546.78 Q1152.46 1542.65 1156.23 1540.67 Q1160 1538.64 1165.39 1538.64 Q1166.15 1538.64 1167.09 1538.76 Q1168.02 1538.84 1169.15 1539.05 L1169.19 1546.7 Z" fill="#000000" fill-rule="evenodd" fill-opacity="1" /><path clip-path="url(#clip360)" d="M1177.01 1539.73 L1184.46 1539.73 L1184.46 1585.1 L1177.01 1585.1 L1177.01 1539.73 M1177.01 1522.07 L1184.46 1522.07 L1184.46 1531.51 L1177.01 1531.51 L1177.01 1522.07 Z" fill="#000000" fill-rule="evenodd" fill-opacity="1" /><path clip-path="url(#clip360)" d="M1220.68 1562.3 Q1211.65 1562.3 1208.16 1564.36 Q1204.68 1566.43 1204.68 1571.41 Q1204.68 1575.38 1207.27 1577.73 Q1209.9 1580.04 1214.4 1580.04 Q1220.6 1580.04 1224.33 1575.67 Q1228.09 1571.25 1228.09 1563.96 L1228.09 1562.3 L1220.68 1562.3 M1235.55 1559.22 L1235.55 1585.1 L1228.09 1585.1 L1228.09 1578.22 Q1225.54 1582.35 1221.73 1584.33 Q1217.93 1586.28 1212.42 1586.28 Q1205.45 1586.28 1201.32 1582.39 Q1197.23 1578.46 1197.23 1571.9 Q1197.23 1564.24 1202.33 1560.35 Q1207.47 1556.46 1217.64 1556.46 L1228.09 1556.46 L1228.09 1555.73 Q1228.09 1550.59 1224.69 1547.8 Q1221.33 1544.96 1215.21 1544.96 Q1211.32 1544.96 1207.64 1545.89 Q1203.95 1546.82 1200.55 1548.69 L1200.55 1541.8 Q1204.64 1540.22 1208.49 1539.45 Q1212.34 1538.64 1215.98 1538.64 Q1225.82 1538.64 1230.69 1543.74 Q1235.55 1548.85 1235.55 1559.22 Z" fill="#000000" fill-rule="evenodd" fill-opacity="1" /><path clip-path="url(#clip360)" d="M1283.47 1562.46 Q1283.47 1554.24 1280.07 1549.58 Q1276.7 1544.88 1270.79 1544.88 Q1264.88 1544.88 1261.47 1549.58 Q1258.11 1554.24 1258.11 1562.46 Q1258.11 1570.68 1261.47 1575.38 Q1264.88 1580.04 1270.79 1580.04 Q1276.7 1580.04 1280.07 1575.38 Q1283.47 1570.68 1283.47 1562.46 M1258.11 1546.62 Q1260.46 1542.57 1264.02 1540.62 Q1267.63 1538.64 1272.61 1538.64 Q1280.88 1538.64 1286.02 1545.2 Q1291.21 1551.76 1291.21 1562.46 Q1291.21 1573.15 1286.02 1579.72 Q1280.88 1586.28 1272.61 1586.28 Q1267.63 1586.28 1264.02 1584.33 Q1260.46 1582.35 1258.11 1578.3 L1258.11 1585.1 L1250.62 1585.1 L1250.62 1522.07 L1258.11 1522.07 L1258.11 1546.62 Z" fill="#000000" fill-rule="evenodd" fill-opacity="1" /><path clip-path="url(#clip360)" d="M1303.56 1522.07 L1311.02 1522.07 L1311.02 1585.1 L1303.56 1585.1 L1303.56 1522.07 Z" fill="#000000" fill-rule="evenodd" fill-opacity="1" /><path clip-path="url(#clip360)" d="M1365.42 1560.56 L1365.42 1564.2 L1331.15 1564.2 Q1331.63 1571.9 1335.77 1575.95 Q1339.94 1579.96 1347.35 1579.96 Q1351.65 1579.96 1355.66 1578.91 Q1359.71 1577.85 1363.68 1575.75 L1363.68 1582.79 Q1359.67 1584.5 1355.45 1585.39 Q1351.24 1586.28 1346.91 1586.28 Q1336.05 1586.28 1329.69 1579.96 Q1323.37 1573.64 1323.37 1562.86 Q1323.37 1551.72 1329.37 1545.2 Q1335.4 1538.64 1345.61 1538.64 Q1354.76 1538.64 1360.07 1544.55 Q1365.42 1550.43 1365.42 1560.56 M1357.97 1558.37 Q1357.88 1552.25 1354.52 1548.61 Q1351.2 1544.96 1345.69 1544.96 Q1339.45 1544.96 1335.69 1548.48 Q1331.96 1552.01 1331.39 1558.41 L1357.97 1558.37 Z" fill="#000000" fill-rule="evenodd" fill-opacity="1" /><polyline clip-path="url(#clip360)" style="stroke:#000000; stroke-linecap:round; stroke-linejoin:round; stroke-width:4; stroke-opacity:1; fill:none" points="
  47.2441,1476.53 47.2441,47.2441 
  "/>
<polyline clip-path="url(#clip362)" style="stroke:#000000; stroke-linecap:round; stroke-linejoin:round; stroke-width:8; stroke-opacity:1; fill:none" points="
  322.158,1434.74 327.618,1434.61 333.078,1434.48 383.564,1432.53 434.05,1428.59 464.391,1424.63 494.731,1418.88 520.383,1412.17 546.035,1403.27 559.968,1397.33 
  573.901,1390.48 587.834,1382.62 601.766,1373.66 614.611,1364.31 627.456,1353.82 640.301,1342.12 653.146,1329.09 666.917,1313.55 680.688,1296.27 694.458,1277.16 
  708.229,1256.1 724.184,1229.16 740.139,1199.37 756.095,1166.65 772.05,1130.94 786.228,1096.67 800.407,1060.05 814.586,1021.12 828.765,979.97 841.199,942.147 
  853.633,902.811 866.066,862.09 878.5,820.134 905.612,725.241 932.724,627.501 959.997,528.944 987.27,433.152 994.809,407.591 1002.35,382.556 1009.89,358.117 
  1017.42,334.343 1024.96,311.303 1032.5,289.063 1040.04,267.69 1047.58,247.248 1054.75,228.719 1061.92,211.141 1069.1,194.564 1076.27,179.035 1083.44,164.599 
  1090.61,151.298 1097.79,139.17 1104.96,128.252 1112.42,118.216 1119.88,109.556 1127.33,102.298 1134.79,96.466 1142.25,92.0796 1149.71,89.1529 1157.17,87.6955 
  1164.62,87.7121 1170.9,88.8689 1177.18,91.0675 1183.46,94.3029 1189.73,98.5676 1196.01,103.852 1202.29,110.143 1208.57,117.427 1214.85,125.687 1222.51,137.067 
  1230.18,149.835 1237.84,163.948 1245.51,179.359 1253.17,196.016 1260.84,213.866 1268.5,232.849 1276.16,252.906 1290.21,292.222 1304.25,334.511 1311.27,356.637 
  1318.29,379.343 1325.31,402.574 1332.34,426.274 1358.27,516.971 1384.21,610.517 1410.49,705.497 1436.76,798.267 1451.49,848.499 1466.21,897.078 1480.94,943.743 
  1495.66,988.282 1509,1026.66 1522.34,1063.06 1535.69,1097.41 1549.03,1129.67 1564.3,1164.02 1579.58,1195.63 1594.85,1224.54 1610.13,1250.82 1624.27,1272.91 
  1638.42,1292.92 1652.56,1310.98 1666.71,1327.18 1680.65,1341.47 1694.6,1354.2 1708.54,1365.48 1722.48,1375.44 1736.02,1383.96 1749.56,1391.44 1763.1,1397.98 
  1776.64,1403.69 1804.4,1413.11 1832.15,1420.03 1862.57,1425.44 1892.98,1429.15 1937.16,1432.48 1981.34,1434.28 1990.4,1434.52 1999.46,1434.74 
  "/>
<polyline clip-path="url(#clip362)" style="stroke:#000000; stroke-linecap:round; stroke-linejoin:round; stroke-width:8; stroke-opacity:1; fill:none" stroke-dasharray="32, 20" points="
  112.494,1435.01 119.32,1434.91 126.145,1434.8 189.253,1433.24 252.361,1430.08 290.286,1426.92 328.211,1422.32 360.276,1416.95 392.342,1409.83 409.758,1405.08 
  427.174,1399.6 444.59,1393.32 462.006,1386.14 478.062,1378.66 494.118,1370.27 510.174,1360.91 526.23,1350.48 543.443,1338.05 560.657,1324.23 577.871,1308.94 
  595.084,1292.1 615.028,1270.54 634.972,1246.71 654.916,1220.54 674.859,1191.97 692.583,1164.55 710.307,1135.26 728.03,1104.11 745.754,1071.19 761.296,1040.93 
  776.838,1009.46 792.38,976.887 807.922,943.323 841.812,867.408 875.702,789.216 909.794,710.371 943.885,633.737 953.308,613.288 962.731,593.26 972.155,573.709 
  981.578,554.69 991.001,536.257 1000.42,518.465 1009.85,501.367 1019.27,485.013 1028.24,470.19 1037.2,456.128 1046.17,442.867 1055.13,430.444 1064.1,418.895 
  1073.07,408.254 1082.03,398.552 1091,389.817 1100.32,381.788 1109.64,374.86 1118.96,369.053 1128.29,364.388 1137.61,360.879 1146.93,358.538 1156.25,357.372 
  1165.58,357.385 1173.42,358.31 1181.27,360.069 1189.12,362.658 1196.97,366.069 1204.81,370.297 1212.66,375.33 1220.51,381.157 1228.36,387.765 1237.94,396.869 
  1247.52,407.083 1257.1,418.374 1266.68,430.702 1276.26,444.028 1285.84,458.308 1295.42,473.495 1305,489.54 1322.56,520.993 1340.11,554.824 1348.89,572.525 
  1357.66,590.69 1366.44,609.275 1375.22,628.235 1407.64,700.792 1440.06,775.629 1472.91,851.613 1505.75,925.829 1524.16,966.014 1542.56,1004.88 1560.97,1042.21 
  1579.37,1077.84 1596.05,1108.54 1612.73,1137.66 1629.4,1165.14 1646.08,1190.95 1665.18,1218.43 1684.27,1243.72 1703.37,1266.85 1722.46,1287.87 1740.14,1305.54 
  1757.82,1321.55 1775.5,1336 1793.18,1348.96 1810.61,1360.39 1828.04,1370.57 1845.47,1379.6 1862.9,1387.57 1879.83,1394.38 1896.75,1400.37 1913.67,1405.6 
  1930.6,1410.16 1965.29,1417.7 1999.99,1423.24 2038.01,1427.56 2076.02,1430.53 2131.24,1433.2 2186.47,1434.64 2197.8,1434.83 2209.13,1435.01 
  "/>
<path clip-path="url(#clip362)" d="
M1685.41 1345.98 L1686.54 1347.03 L1687.67 1348.06 L1688.79 1349.08 L1689.92 1350.1 L1691.05 1351.1 L1692.18 1352.09 L1693.3 1353.08 L1694.43 1354.05 L1695.56 1355.02 
  L1696.69 1355.98 L1697.81 1356.92 L1698.94 1357.86 L1700.07 1358.79 L1701.2 1359.71 L1702.32 1360.62 L1703.45 1361.52 L1704.58 1362.41 L1705.71 1363.3 L1706.83 1364.17 
  L1707.96 1365.04 L1709.09 1365.9 L1710.22 1366.75 L1711.34 1367.59 L1712.47 1368.42 L1713.6 1369.24 L1714.73 1370.06 L1715.85 1370.86 L1716.98 1371.66 L1718.11 1372.45 
  L1719.24 1373.23 L1720.36 1374.01 L1721.49 1374.77 L1722.62 1375.53 L1723.75 1376.28 L1724.87 1377.02 L1726 1377.76 L1727.13 1378.49 L1728.26 1379.21 L1729.38 1379.92 
  L1730.51 1380.62 L1731.64 1381.32 L1732.77 1382.01 L1733.89 1382.69 L1735.02 1383.36 L1736.15 1384.03 L1737.28 1384.69 L1738.4 1385.35 L1739.53 1385.99 L1740.66 1386.63 
  L1741.79 1387.26 L1742.91 1387.89 L1744.04 1388.51 L1745.17 1389.12 L1746.3 1389.72 L1747.42 1390.32 L1748.55 1390.91 L1749.68 1391.5 L1750.81 1392.08 L1751.93 1392.65 
  L1753.06 1393.22 L1754.19 1393.78 L1755.32 1394.33 L1756.44 1394.88 L1757.57 1395.42 L1758.7 1395.95 L1759.83 1396.48 L1760.95 1397 L1762.08 1397.52 L1763.21 1398.03 
  L1764.34 1398.54 L1765.46 1399.04 L1766.59 1399.53 L1767.72 1400.02 L1768.85 1400.5 L1769.97 1400.98 L1771.1 1401.45 L1772.23 1401.92 L1773.36 1402.38 L1774.48 1402.83 
  L1775.61 1403.28 L1776.74 1403.72 L1777.87 1404.16 L1778.99 1404.6 L1780.12 1405.03 L1781.25 1405.45 L1782.38 1405.87 L1783.5 1406.28 L1784.63 1406.69 L1785.76 1407.1 
  L1786.89 1407.5 L1788.01 1407.89 L1789.14 1408.28 L1790.27 1408.66 L1791.4 1409.04 L1792.52 1409.42 L1793.65 1409.79 L1794.78 1410.16 L1795.91 1410.52 L1797.03 1410.88 
  L1798.16 1411.23 L1799.29 1411.58 L1800.42 1411.92 L1801.54 1412.27 L1802.67 1412.6 L1803.8 1412.93 L1804.93 1413.26 L1806.05 1413.59 L1807.18 1413.9 L1808.31 1414.22 
  L1809.44 1414.53 L1810.56 1414.84 L1811.69 1415.14 L1812.82 1415.44 L1813.95 1415.74 L1815.08 1416.03 L1816.2 1416.32 L1817.33 1416.61 L1818.46 1416.89 L1819.59 1417.17 
  L1820.71 1417.44 L1821.84 1417.71 L1822.97 1417.98 L1824.1 1418.24 L1825.22 1418.5 L1826.35 1418.76 L1827.48 1419.02 L1828.61 1419.27 L1829.73 1419.51 L1830.86 1419.76 
  L1831.99 1420 L1833.12 1420.24 L1834.24 1420.47 L1835.37 1420.7 L1836.5 1420.93 L1837.63 1421.16 L1838.75 1421.38 L1839.88 1421.6 L1841.01 1421.81 L1842.14 1422.03 
  L1843.26 1422.24 L1844.39 1422.45 L1845.52 1422.65 L1846.65 1422.85 L1847.77 1423.05 L1848.9 1423.25 L1850.03 1423.45 L1851.16 1423.64 L1852.28 1423.83 L1853.41 1424.01 
  L1854.54 1424.2 L1855.67 1424.38 L1856.79 1424.56 L1857.92 1424.73 L1859.05 1424.91 L1860.18 1425.08 L1861.3 1425.25 L1862.43 1425.42 L1863.56 1425.58 L1864.69 1425.74 
  L1865.81 1425.9 L1866.94 1426.06 L1868.07 1426.22 L1869.2 1426.37 L1870.32 1426.52 L1871.45 1426.67 L1872.58 1426.82 L1873.71 1426.96 L1874.83 1427.11 L1875.96 1427.25 
  L1877.09 1427.39 L1878.22 1427.52 L1879.34 1427.66 L1880.47 1427.79 L1881.6 1427.92 L1882.73 1428.05 L1883.85 1428.18 L1884.98 1428.31 L1886.11 1428.43 L1887.24 1428.55 
  L1888.36 1428.67 L1889.49 1428.79 L1890.62 1428.91 L1891.75 1429.02 L1892.87 1429.14 L1894 1429.25 L1895.13 1429.36 L1896.26 1429.47 L1897.38 1429.57 L1898.51 1429.68 
  L1899.64 1429.78 L1900.77 1429.89 L1901.89 1429.99 L1903.02 1430.09 L1904.15 1430.18 L1905.28 1430.28 L1906.4 1430.37 L1907.53 1430.47 L1908.66 1430.56 L1909.79 1430.65 
  L1910.91 1430.74 L1912.04 1430.83 L1913.17 1430.92 L1914.3 1431 L1915.42 1431.08 L1916.55 1431.17 L1917.68 1431.25 L1918.81 1431.33 L1919.93 1431.41 L1921.06 1431.49 
  L1922.19 1431.56 L1923.32 1431.64 L1924.44 1431.71 L1925.57 1431.79 L1926.7 1431.86 L1927.83 1431.93 L1928.95 1432 L1930.08 1432.07 L1931.21 1432.14 L1932.34 1432.2 
  L1933.46 1432.27 L1934.59 1432.33 L1935.72 1432.4 L1936.85 1432.46 L1937.97 1432.52 L1939.1 1432.58 L1940.23 1432.64 L1941.36 1432.7 L1942.48 1432.76 L1943.61 1432.82 
  L1944.74 1432.87 L1945.87 1432.93 L1946.99 1432.98 L1948.12 1433.04 L1949.25 1433.09 L1950.38 1433.14 L1951.5 1433.19 L1952.63 1433.24 L1953.76 1433.29 L1954.89 1433.34 
  L1956.01 1433.39 L1957.14 1433.43 L1958.27 1433.48 L1959.4 1433.53 L1960.53 1433.57 L1961.65 1433.61 L1962.78 1433.66 L1963.91 1433.7 L1965.04 1433.74 L1966.16 1433.78 
  L1967.29 1433.82 L1968.42 1433.86 L1969.55 1433.9 L1970.67 1433.94 L1971.8 1433.98 L1972.93 1434.02 L1974.06 1434.05 L1975.18 1434.09 L1976.31 1434.13 L1977.44 1434.16 
  L1978.57 1434.2 L1979.69 1434.23 L1980.82 1434.26 L1981.95 1434.3 L1983.08 1434.33 L1984.2 1434.36 L1985.33 1434.39 L1986.46 1434.42 L1987.59 1434.45 L1988.71 1434.48 
  L1989.84 1434.51 L1990.97 1434.54 L1992.1 1434.57 L1993.22 1434.59 L1994.35 1434.62 L1995.48 1434.65 L1996.61 1434.67 L1997.73 1434.7 L1998.86 1434.73 L1999.99 1434.75 
  L2001.12 1434.77 L2002.24 1434.8 L2003.37 1434.82 L2004.5 1434.85 L2005.63 1434.87 L2006.75 1434.89 L2007.88 1434.91 L2009.01 1434.93 L2010.14 1434.96 L2011.26 1434.98 
  L2012.39 1435 L2013.52 1435.02 L2014.65 1435.04 L2015.77 1435.06 L2016.9 1435.08 L2018.03 1435.09 L2019.16 1435.11 L2020.28 1435.13 L2021.41 1435.15 L2022.54 1435.17 
  L2023.67 1435.18 L2024.79 1435.2 L2025.92 1435.22 L2027.05 1435.23 L2028.18 1435.25 L2029.3 1435.27 L2030.43 1435.28 L2031.56 1435.3 L2032.69 1435.31 L2033.81 1435.33 
  L2034.94 1435.34 L2036.07 1435.35 L2037.2 1435.37 L2038.32 1435.38 L2039.45 1435.4 L2040.58 1435.41 L2041.71 1435.42 L2042.83 1435.43 L2043.96 1435.45 L2045.09 1435.46 
  L2046.22 1435.47 L2047.34 1435.48 L2048.47 1435.49 L2049.6 1435.51 L2050.73 1435.52 L2051.85 1435.53 L2052.98 1435.54 L2054.11 1435.55 L2055.24 1435.56 L2056.36 1435.57 
  L2057.49 1435.58 L2058.62 1435.59 L2059.75 1435.6 L2060.87 1435.61 L2062 1435.62 L2063.13 1435.63 L2064.26 1435.64 L2065.38 1435.64 L2066.51 1435.65 L2067.64 1435.66 
  L2068.77 1435.67 L2069.89 1435.68 L2071.02 1435.69 L2072.15 1435.69 L2073.28 1435.7 L2074.4 1435.71 L2075.53 1435.72 L2076.66 1435.72 L2077.79 1435.73 L2078.91 1435.74 
  L2080.04 1435.74 L2081.17 1435.75 L2082.3 1435.76 L2083.42 1435.76 L2084.55 1435.77 L2085.68 1435.78 L2086.81 1435.78 L2087.93 1435.79 L2089.06 1435.79 L2090.19 1435.8 
  L2091.32 1435.81 L2092.44 1435.81 L2093.57 1435.82 L2094.7 1435.82 L2095.83 1435.83 L2096.95 1435.83 L2098.08 1435.84 L2099.21 1435.84 L2100.34 1435.85 L2101.46 1435.85 
  L2102.59 1435.86 L2103.72 1435.86 L2104.85 1435.87 L2105.97 1435.87 L2107.1 1435.87 L2108.23 1435.88 L2109.36 1435.88 L2110.49 1435.89 L2111.61 1435.89 L2112.74 1435.89 
  L2113.87 1435.9 L2115 1435.9 L2116.12 1435.91 L2117.25 1435.91 L2118.38 1435.91 L2119.51 1435.92 L2120.63 1435.92 L2121.76 1435.92 L2122.89 1435.93 L2124.02 1435.93 
  L2125.14 1435.93 L2126.27 1435.94 L2127.4 1435.94 L2128.53 1435.94 L2129.65 1435.94 L2130.78 1435.95 L2131.91 1435.95 L2133.04 1435.95 L2134.16 1435.96 L2135.29 1435.96 
  L2136.42 1435.96 L2137.55 1435.96 L2138.67 1435.97 L2139.8 1435.97 L2140.93 1435.97 L2142.06 1435.97 L2143.18 1435.97 L2144.31 1435.98 L2145.44 1435.98 L2146.57 1435.98 
  L2147.69 1435.98 L2148.82 1435.98 L2149.95 1435.99 L2151.08 1435.99 L2152.2 1435.99 L2153.33 1435.99 L2154.46 1435.99 L2155.59 1436 L2156.71 1436 L2157.84 1436 
  L2158.97 1436 L2160.1 1436 L2161.22 1436 L2162.35 1436.01 L2163.48 1436.01 L2164.61 1436.01 L2165.73 1436.01 L2166.86 1436.01 L2167.99 1436.01 L2169.12 1436.02 
  L2170.24 1436.02 L2171.37 1436.02 L2172.5 1436.02 L2173.63 1436.02 L2174.75 1436.02 L2175.88 1436.02 L2177.01 1436.02 L2178.14 1436.03 L2179.26 1436.03 L2180.39 1436.03 
  L2181.52 1436.03 L2182.65 1436.03 L2183.77 1436.03 L2184.9 1436.03 L2186.03 1436.03 L2187.16 1436.03 L2188.28 1436.03 L2189.41 1436.04 L2190.54 1436.04 L2191.67 1436.04 
  L2192.79 1436.04 L2193.92 1436.04 L2195.05 1436.04 L2196.18 1436.04 L2197.3 1436.04 L2198.43 1436.04 L2199.56 1436.04 L2200.69 1436.04 L2201.81 1436.04 L2202.94 1436.05 
  L2204.07 1436.05 L2205.2 1436.05 L2206.32 1436.05 L2207.45 1436.05 L2208.58 1436.05 L2209.71 1436.05 L2210.83 1436.05 L2211.96 1436.05 L2213.09 1436.05 L2214.22 1436.05 
  L2215.34 1436.05 L2216.47 1436.05 L2217.6 1436.05 L2218.73 1436.05 L2219.85 1436.05 L2220.98 1436.06 L2222.11 1436.06 L2223.24 1436.06 L2224.36 1436.06 L2225.49 1436.06 
  L2226.62 1436.06 L2227.75 1436.06 L2228.87 1436.06 L2230 1436.06 L2231.13 1436.06 L2232.26 1436.06 L2233.38 1436.06 L2234.51 1436.06 L2235.64 1436.06 L2236.77 1436.06 
  L2237.89 1436.06 L2239.02 1436.06 L2240.15 1436.06 L2241.28 1436.06 L2242.4 1436.06 L2243.53 1436.06 L2244.66 1436.06 L2245.79 1436.06 L2246.91 1436.06 L2248.04 1436.06 
  L2249.17 1436.06 L2250.3 1436.06 L2251.42 1436.07 L2252.55 1436.07 L2253.68 1436.07 L2254.81 1436.07 L2255.94 1436.07 L2257.06 1436.07 L2258.19 1436.07 L2259.32 1436.07 
  L2260.45 1436.07 L2261.57 1436.07 L2262.7 1436.07 L2263.83 1436.07 L2264.96 1436.07 L2266.08 1436.07 L2267.21 1436.07 L2268.34 1436.07 L2269.47 1436.07 L2270.59 1436.07 
  L2271.72 1436.07 L2272.85 1436.07 L2273.98 1436.07 L2275.1 1436.07 L2276.23 1436.07 L2277.36 1436.07 L2278.49 1436.07 L2279.61 1436.07 L2280.74 1436.07 L2281.87 1436.07 
  L2283 1436.07 L2284.12 1436.07 L2285.25 1436.07 L2286.38 1436.07 L2287.51 1436.07 L2287.51 1436.08 L2286.38 1436.08 L2285.25 1436.08 L2284.12 1436.08 L2283 1436.08 
  L2281.87 1436.08 L2280.74 1436.08 L2279.61 1436.08 L2278.49 1436.08 L2277.36 1436.08 L2276.23 1436.08 L2275.1 1436.08 L2273.98 1436.08 L2272.85 1436.08 L2271.72 1436.08 
  L2270.59 1436.08 L2269.47 1436.08 L2268.34 1436.08 L2267.21 1436.08 L2266.08 1436.08 L2264.96 1436.08 L2263.83 1436.08 L2262.7 1436.08 L2261.57 1436.08 L2260.45 1436.08 
  L2259.32 1436.08 L2258.19 1436.08 L2257.06 1436.08 L2255.94 1436.08 L2254.81 1436.08 L2253.68 1436.08 L2252.55 1436.08 L2251.42 1436.08 L2250.3 1436.08 L2249.17 1436.08 
  L2248.04 1436.08 L2246.91 1436.08 L2245.79 1436.08 L2244.66 1436.08 L2243.53 1436.08 L2242.4 1436.08 L2241.28 1436.08 L2240.15 1436.08 L2239.02 1436.08 L2237.89 1436.08 
  L2236.77 1436.08 L2235.64 1436.08 L2234.51 1436.08 L2233.38 1436.08 L2232.26 1436.08 L2231.13 1436.08 L2230 1436.08 L2228.87 1436.08 L2227.75 1436.08 L2226.62 1436.08 
  L2225.49 1436.08 L2224.36 1436.08 L2223.24 1436.08 L2222.11 1436.08 L2220.98 1436.08 L2219.85 1436.08 L2218.73 1436.08 L2217.6 1436.08 L2216.47 1436.08 L2215.34 1436.08 
  L2214.22 1436.08 L2213.09 1436.08 L2211.96 1436.08 L2210.83 1436.08 L2209.71 1436.08 L2208.58 1436.08 L2207.45 1436.08 L2206.32 1436.08 L2205.2 1436.08 L2204.07 1436.08 
  L2202.94 1436.08 L2201.81 1436.08 L2200.69 1436.08 L2199.56 1436.08 L2198.43 1436.08 L2197.3 1436.08 L2196.18 1436.08 L2195.05 1436.08 L2193.92 1436.08 L2192.79 1436.08 
  L2191.67 1436.08 L2190.54 1436.08 L2189.41 1436.08 L2188.28 1436.08 L2187.16 1436.08 L2186.03 1436.08 L2184.9 1436.08 L2183.77 1436.08 L2182.65 1436.08 L2181.52 1436.08 
  L2180.39 1436.08 L2179.26 1436.08 L2178.14 1436.08 L2177.01 1436.08 L2175.88 1436.08 L2174.75 1436.08 L2173.63 1436.08 L2172.5 1436.08 L2171.37 1436.08 L2170.24 1436.08 
  L2169.12 1436.08 L2167.99 1436.08 L2166.86 1436.08 L2165.73 1436.08 L2164.61 1436.08 L2163.48 1436.08 L2162.35 1436.08 L2161.22 1436.08 L2160.1 1436.08 L2158.97 1436.08 
  L2157.84 1436.08 L2156.71 1436.08 L2155.59 1436.08 L2154.46 1436.08 L2153.33 1436.08 L2152.2 1436.08 L2151.08 1436.08 L2149.95 1436.08 L2148.82 1436.08 L2147.69 1436.08 
  L2146.57 1436.08 L2145.44 1436.08 L2144.31 1436.08 L2143.18 1436.08 L2142.06 1436.08 L2140.93 1436.08 L2139.8 1436.08 L2138.67 1436.08 L2137.55 1436.08 L2136.42 1436.08 
  L2135.29 1436.08 L2134.16 1436.08 L2133.04 1436.08 L2131.91 1436.08 L2130.78 1436.08 L2129.65 1436.08 L2128.53 1436.08 L2127.4 1436.08 L2126.27 1436.08 L2125.14 1436.08 
  L2124.02 1436.08 L2122.89 1436.08 L2121.76 1436.08 L2120.63 1436.08 L2119.51 1436.08 L2118.38 1436.08 L2117.25 1436.08 L2116.12 1436.08 L2115 1436.08 L2113.87 1436.08 
  L2112.74 1436.08 L2111.61 1436.08 L2110.49 1436.08 L2109.36 1436.08 L2108.23 1436.08 L2107.1 1436.08 L2105.97 1436.08 L2104.85 1436.08 L2103.72 1436.08 L2102.59 1436.08 
  L2101.46 1436.08 L2100.34 1436.08 L2099.21 1436.08 L2098.08 1436.08 L2096.95 1436.08 L2095.83 1436.08 L2094.7 1436.08 L2093.57 1436.08 L2092.44 1436.08 L2091.32 1436.08 
  L2090.19 1436.08 L2089.06 1436.08 L2087.93 1436.08 L2086.81 1436.08 L2085.68 1436.08 L2084.55 1436.08 L2083.42 1436.08 L2082.3 1436.08 L2081.17 1436.08 L2080.04 1436.08 
  L2078.91 1436.08 L2077.79 1436.08 L2076.66 1436.08 L2075.53 1436.08 L2074.4 1436.08 L2073.28 1436.08 L2072.15 1436.08 L2071.02 1436.08 L2069.89 1436.08 L2068.77 1436.08 
  L2067.64 1436.08 L2066.51 1436.08 L2065.38 1436.08 L2064.26 1436.08 L2063.13 1436.08 L2062 1436.08 L2060.87 1436.08 L2059.75 1436.08 L2058.62 1436.08 L2057.49 1436.08 
  L2056.36 1436.08 L2055.24 1436.08 L2054.11 1436.08 L2052.98 1436.08 L2051.85 1436.08 L2050.73 1436.08 L2049.6 1436.08 L2048.47 1436.08 L2047.34 1436.08 L2046.22 1436.08 
  L2045.09 1436.08 L2043.96 1436.08 L2042.83 1436.08 L2041.71 1436.08 L2040.58 1436.08 L2039.45 1436.08 L2038.32 1436.08 L2037.2 1436.08 L2036.07 1436.08 L2034.94 1436.08 
  L2033.81 1436.08 L2032.69 1436.08 L2031.56 1436.08 L2030.43 1436.08 L2029.3 1436.08 L2028.18 1436.08 L2027.05 1436.08 L2025.92 1436.08 L2024.79 1436.08 L2023.67 1436.08 
  L2022.54 1436.08 L2021.41 1436.08 L2020.28 1436.08 L2019.16 1436.08 L2018.03 1436.08 L2016.9 1436.08 L2015.77 1436.08 L2014.65 1436.08 L2013.52 1436.08 L2012.39 1436.08 
  L2011.26 1436.08 L2010.14 1436.08 L2009.01 1436.08 L2007.88 1436.08 L2006.75 1436.08 L2005.63 1436.08 L2004.5 1436.08 L2003.37 1436.08 L2002.24 1436.08 L2001.12 1436.08 
  L1999.99 1436.08 L1998.86 1436.08 L1997.73 1436.08 L1996.61 1436.08 L1995.48 1436.08 L1994.35 1436.08 L1993.22 1436.08 L1992.1 1436.08 L1990.97 1436.08 L1989.84 1436.08 
  L1988.71 1436.08 L1987.59 1436.08 L1986.46 1436.08 L1985.33 1436.08 L1984.2 1436.08 L1983.08 1436.08 L1981.95 1436.08 L1980.82 1436.08 L1979.69 1436.08 L1978.57 1436.08 
  L1977.44 1436.08 L1976.31 1436.08 L1975.18 1436.08 L1974.06 1436.08 L1972.93 1436.08 L1971.8 1436.08 L1970.67 1436.08 L1969.55 1436.08 L1968.42 1436.08 L1967.29 1436.08 
  L1966.16 1436.08 L1965.04 1436.08 L1963.91 1436.08 L1962.78 1436.08 L1961.65 1436.08 L1960.53 1436.08 L1959.4 1436.08 L1958.27 1436.08 L1957.14 1436.08 L1956.01 1436.08 
  L1954.89 1436.08 L1953.76 1436.08 L1952.63 1436.08 L1951.5 1436.08 L1950.38 1436.08 L1949.25 1436.08 L1948.12 1436.08 L1946.99 1436.08 L1945.87 1436.08 L1944.74 1436.08 
  L1943.61 1436.08 L1942.48 1436.08 L1941.36 1436.08 L1940.23 1436.08 L1939.1 1436.08 L1937.97 1436.08 L1936.85 1436.08 L1935.72 1436.08 L1934.59 1436.08 L1933.46 1436.08 
  L1932.34 1436.08 L1931.21 1436.08 L1930.08 1436.08 L1928.95 1436.08 L1927.83 1436.08 L1926.7 1436.08 L1925.57 1436.08 L1924.44 1436.08 L1923.32 1436.08 L1922.19 1436.08 
  L1921.06 1436.08 L1919.93 1436.08 L1918.81 1436.08 L1917.68 1436.08 L1916.55 1436.08 L1915.42 1436.08 L1914.3 1436.08 L1913.17 1436.08 L1912.04 1436.08 L1910.91 1436.08 
  L1909.79 1436.08 L1908.66 1436.08 L1907.53 1436.08 L1906.4 1436.08 L1905.28 1436.08 L1904.15 1436.08 L1903.02 1436.08 L1901.89 1436.08 L1900.77 1436.08 L1899.64 1436.08 
  L1898.51 1436.08 L1897.38 1436.08 L1896.26 1436.08 L1895.13 1436.08 L1894 1436.08 L1892.87 1436.08 L1891.75 1436.08 L1890.62 1436.08 L1889.49 1436.08 L1888.36 1436.08 
  L1887.24 1436.08 L1886.11 1436.08 L1884.98 1436.08 L1883.85 1436.08 L1882.73 1436.08 L1881.6 1436.08 L1880.47 1436.08 L1879.34 1436.08 L1878.22 1436.08 L1877.09 1436.08 
  L1875.96 1436.08 L1874.83 1436.08 L1873.71 1436.08 L1872.58 1436.08 L1871.45 1436.08 L1870.32 1436.08 L1869.2 1436.08 L1868.07 1436.08 L1866.94 1436.08 L1865.81 1436.08 
  L1864.69 1436.08 L1863.56 1436.08 L1862.43 1436.08 L1861.3 1436.08 L1860.18 1436.08 L1859.05 1436.08 L1857.92 1436.08 L1856.79 1436.08 L1855.67 1436.08 L1854.54 1436.08 
  L1853.41 1436.08 L1852.28 1436.08 L1851.16 1436.08 L1850.03 1436.08 L1848.9 1436.08 L1847.77 1436.08 L1846.65 1436.08 L1845.52 1436.08 L1844.39 1436.08 L1843.26 1436.08 
  L1842.14 1436.08 L1841.01 1436.08 L1839.88 1436.08 L1838.75 1436.08 L1837.63 1436.08 L1836.5 1436.08 L1835.37 1436.08 L1834.24 1436.08 L1833.12 1436.08 L1831.99 1436.08 
  L1830.86 1436.08 L1829.73 1436.08 L1828.61 1436.08 L1827.48 1436.08 L1826.35 1436.08 L1825.22 1436.08 L1824.1 1436.08 L1822.97 1436.08 L1821.84 1436.08 L1820.71 1436.08 
  L1819.59 1436.08 L1818.46 1436.08 L1817.33 1436.08 L1816.2 1436.08 L1815.08 1436.08 L1813.95 1436.08 L1812.82 1436.08 L1811.69 1436.08 L1810.56 1436.08 L1809.44 1436.08 
  L1808.31 1436.08 L1807.18 1436.08 L1806.05 1436.08 L1804.93 1436.08 L1803.8 1436.08 L1802.67 1436.08 L1801.54 1436.08 L1800.42 1436.08 L1799.29 1436.08 L1798.16 1436.08 
  L1797.03 1436.08 L1795.91 1436.08 L1794.78 1436.08 L1793.65 1436.08 L1792.52 1436.08 L1791.4 1436.08 L1790.27 1436.08 L1789.14 1436.08 L1788.01 1436.08 L1786.89 1436.08 
  L1785.76 1436.08 L1784.63 1436.08 L1783.5 1436.08 L1782.38 1436.08 L1781.25 1436.08 L1780.12 1436.08 L1778.99 1436.08 L1777.87 1436.08 L1776.74 1436.08 L1775.61 1436.08 
  L1774.48 1436.08 L1773.36 1436.08 L1772.23 1436.08 L1771.1 1436.08 L1769.97 1436.08 L1768.85 1436.08 L1767.72 1436.08 L1766.59 1436.08 L1765.46 1436.08 L1764.34 1436.08 
  L1763.21 1436.08 L1762.08 1436.08 L1760.95 1436.08 L1759.83 1436.08 L1758.7 1436.08 L1757.57 1436.08 L1756.44 1436.08 L1755.32 1436.08 L1754.19 1436.08 L1753.06 1436.08 
  L1751.93 1436.08 L1750.81 1436.08 L1749.68 1436.08 L1748.55 1436.08 L1747.42 1436.08 L1746.3 1436.08 L1745.17 1436.08 L1744.04 1436.08 L1742.91 1436.08 L1741.79 1436.08 
  L1740.66 1436.08 L1739.53 1436.08 L1738.4 1436.08 L1737.28 1436.08 L1736.15 1436.08 L1735.02 1436.08 L1733.89 1436.08 L1732.77 1436.08 L1731.64 1436.08 L1730.51 1436.08 
  L1729.38 1436.08 L1728.26 1436.08 L1727.13 1436.08 L1726 1436.08 L1724.87 1436.08 L1723.75 1436.08 L1722.62 1436.08 L1721.49 1436.08 L1720.36 1436.08 L1719.24 1436.08 
  L1718.11 1436.08 L1716.98 1436.08 L1715.85 1436.08 L1714.73 1436.08 L1713.6 1436.08 L1712.47 1436.08 L1711.34 1436.08 L1710.22 1436.08 L1709.09 1436.08 L1707.96 1436.08 
  L1706.83 1436.08 L1705.71 1436.08 L1704.58 1436.08 L1703.45 1436.08 L1702.32 1436.08 L1701.2 1436.08 L1700.07 1436.08 L1698.94 1436.08 L1697.81 1436.08 L1696.69 1436.08 
  L1695.56 1436.08 L1694.43 1436.08 L1693.3 1436.08 L1692.18 1436.08 L1691.05 1436.08 L1689.92 1436.08 L1688.79 1436.08 L1687.67 1436.08 L1686.54 1436.08 L1685.41 1436.08 
   Z
  " fill="#ff0000" fill-rule="evenodd" fill-opacity="0.5"/>
<polyline clip-path="url(#clip362)" style="stroke:#ff0000; stroke-linecap:round; stroke-linejoin:round; stroke-width:0; stroke-opacity:1; fill:none" points="
  1685.41,1345.98 1686.54,1347.03 1687.67,1348.06 1688.79,1349.08 1689.92,1350.1 1691.05,1351.1 1692.18,1352.09 1693.3,1353.08 1694.43,1354.05 1695.56,1355.02 
  1696.69,1355.98 1697.81,1356.92 1698.94,1357.86 1700.07,1358.79 1701.2,1359.71 1702.32,1360.62 1703.45,1361.52 1704.58,1362.41 1705.71,1363.3 1706.83,1364.17 
  1707.96,1365.04 1709.09,1365.9 1710.22,1366.75 1711.34,1367.59 1712.47,1368.42 1713.6,1369.24 1714.73,1370.06 1715.85,1370.86 1716.98,1371.66 1718.11,1372.45 
  1719.24,1373.23 1720.36,1374.01 1721.49,1374.77 1722.62,1375.53 1723.75,1376.28 1724.87,1377.02 1726,1377.76 1727.13,1378.49 1728.26,1379.21 1729.38,1379.92 
  1730.51,1380.62 1731.64,1381.32 1732.77,1382.01 1733.89,1382.69 1735.02,1383.36 1736.15,1384.03 1737.28,1384.69 1738.4,1385.35 1739.53,1385.99 1740.66,1386.63 
  1741.79,1387.26 1742.91,1387.89 1744.04,1388.51 1745.17,1389.12 1746.3,1389.72 1747.42,1390.32 1748.55,1390.91 1749.68,1391.5 1750.81,1392.08 1751.93,1392.65 
  1753.06,1393.22 1754.19,1393.78 1755.32,1394.33 1756.44,1394.88 1757.57,1395.42 1758.7,1395.95 1759.83,1396.48 1760.95,1397 1762.08,1397.52 1763.21,1398.03 
  1764.34,1398.54 1765.46,1399.04 1766.59,1399.53 1767.72,1400.02 1768.85,1400.5 1769.97,1400.98 1771.1,1401.45 1772.23,1401.92 1773.36,1402.38 1774.48,1402.83 
  1775.61,1403.28 1776.74,1403.72 1777.87,1404.16 1778.99,1404.6 1780.12,1405.03 1781.25,1405.45 1782.38,1405.87 1783.5,1406.28 1784.63,1406.69 1785.76,1407.1 
  1786.89,1407.5 1788.01,1407.89 1789.14,1408.28 1790.27,1408.66 1791.4,1409.04 1792.52,1409.42 1793.65,1409.79 1794.78,1410.16 1795.91,1410.52 1797.03,1410.88 
  1798.16,1411.23 1799.29,1411.58 1800.42,1411.92 1801.54,1412.27 1802.67,1412.6 1803.8,1412.93 1804.93,1413.26 1806.05,1413.59 1807.18,1413.9 1808.31,1414.22 
  1809.44,1414.53 1810.56,1414.84 1811.69,1415.14 1812.82,1415.44 1813.95,1415.74 1815.08,1416.03 1816.2,1416.32 1817.33,1416.61 1818.46,1416.89 1819.59,1417.17 
  1820.71,1417.44 1821.84,1417.71 1822.97,1417.98 1824.1,1418.24 1825.22,1418.5 1826.35,1418.76 1827.48,1419.02 1828.61,1419.27 1829.73,1419.51 1830.86,1419.76 
  1831.99,1420 1833.12,1420.24 1834.24,1420.47 1835.37,1420.7 1836.5,1420.93 1837.63,1421.16 1838.75,1421.38 1839.88,1421.6 1841.01,1421.81 1842.14,1422.03 
  1843.26,1422.24 1844.39,1422.45 1845.52,1422.65 1846.65,1422.85 1847.77,1423.05 1848.9,1423.25 1850.03,1423.45 1851.16,1423.64 1852.28,1423.83 1853.41,1424.01 
  1854.54,1424.2 1855.67,1424.38 1856.79,1424.56 1857.92,1424.73 1859.05,1424.91 1860.18,1425.08 1861.3,1425.25 1862.43,1425.42 1863.56,1425.58 1864.69,1425.74 
  1865.81,1425.9 1866.94,1426.06 1868.07,1426.22 1869.2,1426.37 1870.32,1426.52 1871.45,1426.67 1872.58,1426.82 1873.71,1426.96 1874.83,1427.11 1875.96,1427.25 
  1877.09,1427.39 1878.22,1427.52 1879.34,1427.66 1880.47,1427.79 1881.6,1427.92 1882.73,1428.05 1883.85,1428.18 1884.98,1428.31 1886.11,1428.43 1887.24,1428.55 
  1888.36,1428.67 1889.49,1428.79 1890.62,1428.91 1891.75,1429.02 1892.87,1429.14 1894,1429.25 1895.13,1429.36 1896.26,1429.47 1897.38,1429.57 1898.51,1429.68 
  1899.64,1429.78 1900.77,1429.89 1901.89,1429.99 1903.02,1430.09 1904.15,1430.18 1905.28,1430.28 1906.4,1430.37 1907.53,1430.47 1908.66,1430.56 1909.79,1430.65 
  1910.91,1430.74 1912.04,1430.83 1913.17,1430.92 1914.3,1431 1915.42,1431.08 1916.55,1431.17 1917.68,1431.25 1918.81,1431.33 1919.93,1431.41 1921.06,1431.49 
  1922.19,1431.56 1923.32,1431.64 1924.44,1431.71 1925.57,1431.79 1926.7,1431.86 1927.83,1431.93 1928.95,1432 1930.08,1432.07 1931.21,1432.14 1932.34,1432.2 
  1933.46,1432.27 1934.59,1432.33 1935.72,1432.4 1936.85,1432.46 1937.97,1432.52 1939.1,1432.58 1940.23,1432.64 1941.36,1432.7 1942.48,1432.76 1943.61,1432.82 
  1944.74,1432.87 1945.87,1432.93 1946.99,1432.98 1948.12,1433.04 1949.25,1433.09 1950.38,1433.14 1951.5,1433.19 1952.63,1433.24 1953.76,1433.29 1954.89,1433.34 
  1956.01,1433.39 1957.14,1433.43 1958.27,1433.48 1959.4,1433.53 1960.53,1433.57 1961.65,1433.61 1962.78,1433.66 1963.91,1433.7 1965.04,1433.74 1966.16,1433.78 
  1967.29,1433.82 1968.42,1433.86 1969.55,1433.9 1970.67,1433.94 1971.8,1433.98 1972.93,1434.02 1974.06,1434.05 1975.18,1434.09 1976.31,1434.13 1977.44,1434.16 
  1978.57,1434.2 1979.69,1434.23 1980.82,1434.26 1981.95,1434.3 1983.08,1434.33 1984.2,1434.36 1985.33,1434.39 1986.46,1434.42 1987.59,1434.45 1988.71,1434.48 
  1989.84,1434.51 1990.97,1434.54 1992.1,1434.57 1993.22,1434.59 1994.35,1434.62 1995.48,1434.65 1996.61,1434.67 1997.73,1434.7 1998.86,1434.73 1999.99,1434.75 
  2001.12,1434.77 2002.24,1434.8 2003.37,1434.82 2004.5,1434.85 2005.63,1434.87 2006.75,1434.89 2007.88,1434.91 2009.01,1434.93 2010.14,1434.96 2011.26,1434.98 
  2012.39,1435 2013.52,1435.02 2014.65,1435.04 2015.77,1435.06 2016.9,1435.08 2018.03,1435.09 2019.16,1435.11 2020.28,1435.13 2021.41,1435.15 2022.54,1435.17 
  2023.67,1435.18 2024.79,1435.2 2025.92,1435.22 2027.05,1435.23 2028.18,1435.25 2029.3,1435.27 2030.43,1435.28 2031.56,1435.3 2032.69,1435.31 2033.81,1435.33 
  2034.94,1435.34 2036.07,1435.35 2037.2,1435.37 2038.32,1435.38 2039.45,1435.4 2040.58,1435.41 2041.71,1435.42 2042.83,1435.43 2043.96,1435.45 2045.09,1435.46 
  2046.22,1435.47 2047.34,1435.48 2048.47,1435.49 2049.6,1435.51 2050.73,1435.52 2051.85,1435.53 2052.98,1435.54 2054.11,1435.55 2055.24,1435.56 2056.36,1435.57 
  2057.49,1435.58 2058.62,1435.59 2059.75,1435.6 2060.87,1435.61 2062,1435.62 2063.13,1435.63 2064.26,1435.64 2065.38,1435.64 2066.51,1435.65 2067.64,1435.66 
  2068.77,1435.67 2069.89,1435.68 2071.02,1435.69 2072.15,1435.69 2073.28,1435.7 2074.4,1435.71 2075.53,1435.72 2076.66,1435.72 2077.79,1435.73 2078.91,1435.74 
  2080.04,1435.74 2081.17,1435.75 2082.3,1435.76 2083.42,1435.76 2084.55,1435.77 2085.68,1435.78 2086.81,1435.78 2087.93,1435.79 2089.06,1435.79 2090.19,1435.8 
  2091.32,1435.81 2092.44,1435.81 2093.57,1435.82 2094.7,1435.82 2095.83,1435.83 2096.95,1435.83 2098.08,1435.84 2099.21,1435.84 2100.34,1435.85 2101.46,1435.85 
  2102.59,1435.86 2103.72,1435.86 2104.85,1435.87 2105.97,1435.87 2107.1,1435.87 2108.23,1435.88 2109.36,1435.88 2110.49,1435.89 2111.61,1435.89 2112.74,1435.89 
  2113.87,1435.9 2115,1435.9 2116.12,1435.91 2117.25,1435.91 2118.38,1435.91 2119.51,1435.92 2120.63,1435.92 2121.76,1435.92 2122.89,1435.93 2124.02,1435.93 
  2125.14,1435.93 2126.27,1435.94 2127.4,1435.94 2128.53,1435.94 2129.65,1435.94 2130.78,1435.95 2131.91,1435.95 2133.04,1435.95 2134.16,1435.96 2135.29,1435.96 
  2136.42,1435.96 2137.55,1435.96 2138.67,1435.97 2139.8,1435.97 2140.93,1435.97 2142.06,1435.97 2143.18,1435.97 2144.31,1435.98 2145.44,1435.98 2146.57,1435.98 
  2147.69,1435.98 2148.82,1435.98 2149.95,1435.99 2151.08,1435.99 2152.2,1435.99 2153.33,1435.99 2154.46,1435.99 2155.59,1436 2156.71,1436 2157.84,1436 
  2158.97,1436 2160.1,1436 2161.22,1436 2162.35,1436.01 2163.48,1436.01 2164.61,1436.01 2165.73,1436.01 2166.86,1436.01 2167.99,1436.01 2169.12,1436.02 
  2170.24,1436.02 2171.37,1436.02 2172.5,1436.02 2173.63,1436.02 2174.75,1436.02 2175.88,1436.02 2177.01,1436.02 2178.14,1436.03 2179.26,1436.03 2180.39,1436.03 
  2181.52,1436.03 2182.65,1436.03 2183.77,1436.03 2184.9,1436.03 2186.03,1436.03 2187.16,1436.03 2188.28,1436.03 2189.41,1436.04 2190.54,1436.04 2191.67,1436.04 
  2192.79,1436.04 2193.92,1436.04 2195.05,1436.04 2196.18,1436.04 2197.3,1436.04 2198.43,1436.04 2199.56,1436.04 2200.69,1436.04 2201.81,1436.04 2202.94,1436.05 
  2204.07,1436.05 2205.2,1436.05 2206.32,1436.05 2207.45,1436.05 2208.58,1436.05 2209.71,1436.05 2210.83,1436.05 2211.96,1436.05 2213.09,1436.05 2214.22,1436.05 
  2215.34,1436.05 2216.47,1436.05 2217.6,1436.05 2218.73,1436.05 2219.85,1436.05 2220.98,1436.06 2222.11,1436.06 2223.24,1436.06 2224.36,1436.06 2225.49,1436.06 
  2226.62,1436.06 2227.75,1436.06 2228.87,1436.06 2230,1436.06 2231.13,1436.06 2232.26,1436.06 2233.38,1436.06 2234.51,1436.06 2235.64,1436.06 2236.77,1436.06 
  2237.89,1436.06 2239.02,1436.06 2240.15,1436.06 2241.28,1436.06 2242.4,1436.06 2243.53,1436.06 2244.66,1436.06 2245.79,1436.06 2246.91,1436.06 2248.04,1436.06 
  2249.17,1436.06 2250.3,1436.06 2251.42,1436.07 2252.55,1436.07 2253.68,1436.07 2254.81,1436.07 2255.94,1436.07 2257.06,1436.07 2258.19,1436.07 2259.32,1436.07 
  2260.45,1436.07 2261.57,1436.07 2262.7,1436.07 2263.83,1436.07 2264.96,1436.07 2266.08,1436.07 2267.21,1436.07 2268.34,1436.07 2269.47,1436.07 2270.59,1436.07 
  2271.72,1436.07 2272.85,1436.07 2273.98,1436.07 2275.1,1436.07 2276.23,1436.07 2277.36,1436.07 2278.49,1436.07 2279.61,1436.07 2280.74,1436.07 2281.87,1436.07 
  2283,1436.07 2284.12,1436.07 2285.25,1436.07 2286.38,1436.07 2287.51,1436.07 
  "/>
<path clip-path="url(#clip362)" d="
M1685.41 1245.16 L1686.54 1246.58 L1687.67 1247.99 L1688.79 1249.39 L1689.92 1250.78 L1691.05 1252.17 L1692.18 1253.55 L1693.3 1254.92 L1694.43 1256.29 L1695.56 1257.65 
  L1696.69 1259 L1697.81 1260.34 L1698.94 1261.68 L1700.07 1263 L1701.2 1264.32 L1702.32 1265.64 L1703.45 1266.94 L1704.58 1268.24 L1705.71 1269.53 L1706.83 1270.82 
  L1707.96 1272.09 L1709.09 1273.36 L1710.22 1274.63 L1711.34 1275.88 L1712.47 1277.13 L1713.6 1278.37 L1714.73 1279.6 L1715.85 1280.83 L1716.98 1282.05 L1718.11 1283.26 
  L1719.24 1284.47 L1720.36 1285.66 L1721.49 1286.86 L1722.62 1288.04 L1723.75 1289.22 L1724.87 1290.39 L1726 1291.55 L1727.13 1292.7 L1728.26 1293.85 L1729.38 1294.99 
  L1730.51 1296.13 L1731.64 1297.26 L1732.77 1298.38 L1733.89 1299.49 L1735.02 1300.6 L1736.15 1301.7 L1737.28 1302.79 L1738.4 1303.88 L1739.53 1304.96 L1740.66 1306.03 
  L1741.79 1307.1 L1742.91 1308.16 L1744.04 1309.21 L1745.17 1310.26 L1746.3 1311.3 L1747.42 1312.33 L1748.55 1313.36 L1749.68 1314.38 L1750.81 1315.39 L1751.93 1316.4 
  L1753.06 1317.4 L1754.19 1318.4 L1755.32 1319.38 L1756.44 1320.37 L1757.57 1321.34 L1758.7 1322.31 L1759.83 1323.27 L1760.95 1324.23 L1762.08 1325.18 L1763.21 1326.12 
  L1764.34 1327.06 L1765.46 1327.99 L1766.59 1328.91 L1767.72 1329.83 L1768.85 1330.74 L1769.97 1331.65 L1771.1 1332.55 L1772.23 1333.44 L1773.36 1334.33 L1774.48 1335.21 
  L1775.61 1336.08 L1776.74 1336.95 L1777.87 1337.82 L1778.99 1338.67 L1780.12 1339.53 L1781.25 1340.37 L1782.38 1341.21 L1783.5 1342.04 L1784.63 1342.87 L1785.76 1343.69 
  L1786.89 1344.51 L1788.01 1345.32 L1789.14 1346.13 L1790.27 1346.93 L1791.4 1347.72 L1792.52 1348.51 L1793.65 1349.29 L1794.78 1350.07 L1795.91 1350.84 L1797.03 1351.6 
  L1798.16 1352.36 L1799.29 1353.12 L1800.42 1353.87 L1801.54 1354.61 L1802.67 1355.35 L1803.8 1356.08 L1804.93 1356.81 L1806.05 1357.53 L1807.18 1358.25 L1808.31 1358.96 
  L1809.44 1359.66 L1810.56 1360.36 L1811.69 1361.06 L1812.82 1361.75 L1813.95 1362.43 L1815.08 1363.11 L1816.2 1363.79 L1817.33 1364.46 L1818.46 1365.12 L1819.59 1365.78 
  L1820.71 1366.44 L1821.84 1367.09 L1822.97 1367.73 L1824.1 1368.37 L1825.22 1369.01 L1826.35 1369.64 L1827.48 1370.26 L1828.61 1370.88 L1829.73 1371.5 L1830.86 1372.11 
  L1831.99 1372.71 L1833.12 1373.31 L1834.24 1373.91 L1835.37 1374.5 L1836.5 1375.09 L1837.63 1375.67 L1838.75 1376.25 L1839.88 1376.82 L1841.01 1377.39 L1842.14 1377.96 
  L1843.26 1378.52 L1844.39 1379.07 L1845.52 1379.62 L1846.65 1380.17 L1847.77 1380.71 L1848.9 1381.25 L1850.03 1381.78 L1851.16 1382.31 L1852.28 1382.83 L1853.41 1383.35 
  L1854.54 1383.87 L1855.67 1384.38 L1856.79 1384.89 L1857.92 1385.39 L1859.05 1385.89 L1860.18 1386.39 L1861.3 1386.88 L1862.43 1387.37 L1863.56 1387.85 L1864.69 1388.33 
  L1865.81 1388.8 L1866.94 1389.27 L1868.07 1389.74 L1869.2 1390.2 L1870.32 1390.66 L1871.45 1391.12 L1872.58 1391.57 L1873.71 1392.02 L1874.83 1392.46 L1875.96 1392.9 
  L1877.09 1393.34 L1878.22 1393.77 L1879.34 1394.2 L1880.47 1394.62 L1881.6 1395.05 L1882.73 1395.46 L1883.85 1395.88 L1884.98 1396.29 L1886.11 1396.7 L1887.24 1397.1 
  L1888.36 1397.5 L1889.49 1397.9 L1890.62 1398.29 L1891.75 1398.68 L1892.87 1399.06 L1894 1399.45 L1895.13 1399.83 L1896.26 1400.2 L1897.38 1400.58 L1898.51 1400.94 
  L1899.64 1401.31 L1900.77 1401.67 L1901.89 1402.03 L1903.02 1402.39 L1904.15 1402.74 L1905.28 1403.09 L1906.4 1403.44 L1907.53 1403.78 L1908.66 1404.12 L1909.79 1404.46 
  L1910.91 1404.8 L1912.04 1405.13 L1913.17 1405.46 L1914.3 1405.78 L1915.42 1406.1 L1916.55 1406.42 L1917.68 1406.74 L1918.81 1407.05 L1919.93 1407.36 L1921.06 1407.67 
  L1922.19 1407.98 L1923.32 1408.28 L1924.44 1408.58 L1925.57 1408.88 L1926.7 1409.17 L1927.83 1409.46 L1928.95 1409.75 L1930.08 1410.03 L1931.21 1410.32 L1932.34 1410.6 
  L1933.46 1410.88 L1934.59 1411.15 L1935.72 1411.42 L1936.85 1411.69 L1937.97 1411.96 L1939.1 1412.22 L1940.23 1412.49 L1941.36 1412.75 L1942.48 1413 L1943.61 1413.26 
  L1944.74 1413.51 L1945.87 1413.76 L1946.99 1414.01 L1948.12 1414.25 L1949.25 1414.5 L1950.38 1414.74 L1951.5 1414.97 L1952.63 1415.21 L1953.76 1415.44 L1954.89 1415.67 
  L1956.01 1415.9 L1957.14 1416.13 L1958.27 1416.35 L1959.4 1416.58 L1960.53 1416.8 L1961.65 1417.01 L1962.78 1417.23 L1963.91 1417.44 L1965.04 1417.65 L1966.16 1417.86 
  L1967.29 1418.07 L1968.42 1418.27 L1969.55 1418.48 L1970.67 1418.68 L1971.8 1418.88 L1972.93 1419.07 L1974.06 1419.27 L1975.18 1419.46 L1976.31 1419.65 L1977.44 1419.84 
  L1978.57 1420.03 L1979.69 1420.21 L1980.82 1420.4 L1981.95 1420.58 L1983.08 1420.76 L1984.2 1420.94 L1985.33 1421.11 L1986.46 1421.29 L1987.59 1421.46 L1988.71 1421.63 
  L1989.84 1421.8 L1990.97 1421.97 L1992.1 1422.13 L1993.22 1422.3 L1994.35 1422.46 L1995.48 1422.62 L1996.61 1422.78 L1997.73 1422.93 L1998.86 1423.09 L1999.99 1423.24 
  L2001.12 1423.39 L2002.24 1423.54 L2003.37 1423.69 L2004.5 1423.84 L2005.63 1423.99 L2006.75 1424.13 L2007.88 1424.27 L2009.01 1424.41 L2010.14 1424.55 L2011.26 1424.69 
  L2012.39 1424.83 L2013.52 1424.96 L2014.65 1425.1 L2015.77 1425.23 L2016.9 1425.36 L2018.03 1425.49 L2019.16 1425.62 L2020.28 1425.74 L2021.41 1425.87 L2022.54 1425.99 
  L2023.67 1426.12 L2024.79 1426.24 L2025.92 1426.36 L2027.05 1426.48 L2028.18 1426.59 L2029.3 1426.71 L2030.43 1426.82 L2031.56 1426.94 L2032.69 1427.05 L2033.81 1427.16 
  L2034.94 1427.27 L2036.07 1427.38 L2037.2 1427.49 L2038.32 1427.59 L2039.45 1427.7 L2040.58 1427.8 L2041.71 1427.91 L2042.83 1428.01 L2043.96 1428.11 L2045.09 1428.21 
  L2046.22 1428.3 L2047.34 1428.4 L2048.47 1428.5 L2049.6 1428.59 L2050.73 1428.69 L2051.85 1428.78 L2052.98 1428.87 L2054.11 1428.96 L2055.24 1429.05 L2056.36 1429.14 
  L2057.49 1429.23 L2058.62 1429.31 L2059.75 1429.4 L2060.87 1429.49 L2062 1429.57 L2063.13 1429.65 L2064.26 1429.73 L2065.38 1429.81 L2066.51 1429.89 L2067.64 1429.97 
  L2068.77 1430.05 L2069.89 1430.13 L2071.02 1430.2 L2072.15 1430.28 L2073.28 1430.35 L2074.4 1430.43 L2075.53 1430.5 L2076.66 1430.57 L2077.79 1430.64 L2078.91 1430.71 
  L2080.04 1430.78 L2081.17 1430.85 L2082.3 1430.92 L2083.42 1430.99 L2084.55 1431.05 L2085.68 1431.12 L2086.81 1431.18 L2087.93 1431.25 L2089.06 1431.31 L2090.19 1431.37 
  L2091.32 1431.43 L2092.44 1431.5 L2093.57 1431.56 L2094.7 1431.62 L2095.83 1431.67 L2096.95 1431.73 L2098.08 1431.79 L2099.21 1431.85 L2100.34 1431.9 L2101.46 1431.96 
  L2102.59 1432.01 L2103.72 1432.07 L2104.85 1432.12 L2105.97 1432.17 L2107.1 1432.22 L2108.23 1432.28 L2109.36 1432.33 L2110.49 1432.38 L2111.61 1432.43 L2112.74 1432.48 
  L2113.87 1432.52 L2115 1432.57 L2116.12 1432.62 L2117.25 1432.66 L2118.38 1432.71 L2119.51 1432.76 L2120.63 1432.8 L2121.76 1432.85 L2122.89 1432.89 L2124.02 1432.93 
  L2125.14 1432.98 L2126.27 1433.02 L2127.4 1433.06 L2128.53 1433.1 L2129.65 1433.14 L2130.78 1433.18 L2131.91 1433.22 L2133.04 1433.26 L2134.16 1433.3 L2135.29 1433.34 
  L2136.42 1433.37 L2137.55 1433.41 L2138.67 1433.45 L2139.8 1433.48 L2140.93 1433.52 L2142.06 1433.56 L2143.18 1433.59 L2144.31 1433.62 L2145.44 1433.66 L2146.57 1433.69 
  L2147.69 1433.73 L2148.82 1433.76 L2149.95 1433.79 L2151.08 1433.82 L2152.2 1433.85 L2153.33 1433.88 L2154.46 1433.92 L2155.59 1433.95 L2156.71 1433.98 L2157.84 1434.01 
  L2158.97 1434.03 L2160.1 1434.06 L2161.22 1434.09 L2162.35 1434.12 L2163.48 1434.15 L2164.61 1434.17 L2165.73 1434.2 L2166.86 1434.23 L2167.99 1434.25 L2169.12 1434.28 
  L2170.24 1434.31 L2171.37 1434.33 L2172.5 1434.36 L2173.63 1434.38 L2174.75 1434.4 L2175.88 1434.43 L2177.01 1434.45 L2178.14 1434.47 L2179.26 1434.5 L2180.39 1434.52 
  L2181.52 1434.54 L2182.65 1434.57 L2183.77 1434.59 L2184.9 1434.61 L2186.03 1434.63 L2187.16 1434.65 L2188.28 1434.67 L2189.41 1434.69 L2190.54 1434.71 L2191.67 1434.73 
  L2192.79 1434.75 L2193.92 1434.77 L2195.05 1434.79 L2196.18 1434.81 L2197.3 1434.83 L2198.43 1434.84 L2199.56 1434.86 L2200.69 1434.88 L2201.81 1434.9 L2202.94 1434.92 
  L2204.07 1434.93 L2205.2 1434.95 L2206.32 1434.97 L2207.45 1434.98 L2208.58 1435 L2209.71 1435.01 L2210.83 1435.03 L2211.96 1435.05 L2213.09 1435.06 L2214.22 1435.08 
  L2215.34 1435.09 L2216.47 1435.11 L2217.6 1435.12 L2218.73 1435.13 L2219.85 1435.15 L2220.98 1435.16 L2222.11 1435.18 L2223.24 1435.19 L2224.36 1435.2 L2225.49 1435.22 
  L2226.62 1435.23 L2227.75 1435.24 L2228.87 1435.25 L2230 1435.27 L2231.13 1435.28 L2232.26 1435.29 L2233.38 1435.3 L2234.51 1435.31 L2235.64 1435.33 L2236.77 1435.34 
  L2237.89 1435.35 L2239.02 1435.36 L2240.15 1435.37 L2241.28 1435.38 L2242.4 1435.39 L2243.53 1435.4 L2244.66 1435.41 L2245.79 1435.42 L2246.91 1435.43 L2248.04 1435.44 
  L2249.17 1435.45 L2250.3 1435.46 L2251.42 1435.47 L2252.55 1435.48 L2253.68 1435.49 L2254.81 1435.5 L2255.94 1435.51 L2257.06 1435.52 L2258.19 1435.52 L2259.32 1435.53 
  L2260.45 1435.54 L2261.57 1435.55 L2262.7 1435.56 L2263.83 1435.57 L2264.96 1435.57 L2266.08 1435.58 L2267.21 1435.59 L2268.34 1435.6 L2269.47 1435.6 L2270.59 1435.61 
  L2271.72 1435.62 L2272.85 1435.63 L2273.98 1435.63 L2275.1 1435.64 L2276.23 1435.65 L2277.36 1435.65 L2278.49 1435.66 L2279.61 1435.67 L2280.74 1435.67 L2281.87 1435.68 
  L2283 1435.69 L2284.12 1435.69 L2285.25 1435.7 L2286.38 1435.7 L2287.51 1435.71 L2287.51 1436.08 L2286.38 1436.08 L2285.25 1436.08 L2284.12 1436.08 L2283 1436.08 
  L2281.87 1436.08 L2280.74 1436.08 L2279.61 1436.08 L2278.49 1436.08 L2277.36 1436.08 L2276.23 1436.08 L2275.1 1436.08 L2273.98 1436.08 L2272.85 1436.08 L2271.72 1436.08 
  L2270.59 1436.08 L2269.47 1436.08 L2268.34 1436.08 L2267.21 1436.08 L2266.08 1436.08 L2264.96 1436.08 L2263.83 1436.08 L2262.7 1436.08 L2261.57 1436.08 L2260.45 1436.08 
  L2259.32 1436.08 L2258.19 1436.08 L2257.06 1436.08 L2255.94 1436.08 L2254.81 1436.08 L2253.68 1436.08 L2252.55 1436.08 L2251.42 1436.08 L2250.3 1436.08 L2249.17 1436.08 
  L2248.04 1436.08 L2246.91 1436.08 L2245.79 1436.08 L2244.66 1436.08 L2243.53 1436.08 L2242.4 1436.08 L2241.28 1436.08 L2240.15 1436.08 L2239.02 1436.08 L2237.89 1436.08 
  L2236.77 1436.08 L2235.64 1436.08 L2234.51 1436.08 L2233.38 1436.08 L2232.26 1436.08 L2231.13 1436.08 L2230 1436.08 L2228.87 1436.08 L2227.75 1436.08 L2226.62 1436.08 
  L2225.49 1436.08 L2224.36 1436.08 L2223.24 1436.08 L2222.11 1436.08 L2220.98 1436.08 L2219.85 1436.08 L2218.73 1436.08 L2217.6 1436.08 L2216.47 1436.08 L2215.34 1436.08 
  L2214.22 1436.08 L2213.09 1436.08 L2211.96 1436.08 L2210.83 1436.08 L2209.71 1436.08 L2208.58 1436.08 L2207.45 1436.08 L2206.32 1436.08 L2205.2 1436.08 L2204.07 1436.08 
  L2202.94 1436.08 L2201.81 1436.08 L2200.69 1436.08 L2199.56 1436.08 L2198.43 1436.08 L2197.3 1436.08 L2196.18 1436.08 L2195.05 1436.08 L2193.92 1436.08 L2192.79 1436.08 
  L2191.67 1436.08 L2190.54 1436.08 L2189.41 1436.08 L2188.28 1436.08 L2187.16 1436.08 L2186.03 1436.08 L2184.9 1436.08 L2183.77 1436.08 L2182.65 1436.08 L2181.52 1436.08 
  L2180.39 1436.08 L2179.26 1436.08 L2178.14 1436.08 L2177.01 1436.08 L2175.88 1436.08 L2174.75 1436.08 L2173.63 1436.08 L2172.5 1436.08 L2171.37 1436.08 L2170.24 1436.08 
  L2169.12 1436.08 L2167.99 1436.08 L2166.86 1436.08 L2165.73 1436.08 L2164.61 1436.08 L2163.48 1436.08 L2162.35 1436.08 L2161.22 1436.08 L2160.1 1436.08 L2158.97 1436.08 
  L2157.84 1436.08 L2156.71 1436.08 L2155.59 1436.08 L2154.46 1436.08 L2153.33 1436.08 L2152.2 1436.08 L2151.08 1436.08 L2149.95 1436.08 L2148.82 1436.08 L2147.69 1436.08 
  L2146.57 1436.08 L2145.44 1436.08 L2144.31 1436.08 L2143.18 1436.08 L2142.06 1436.08 L2140.93 1436.08 L2139.8 1436.08 L2138.67 1436.08 L2137.55 1436.08 L2136.42 1436.08 
  L2135.29 1436.08 L2134.16 1436.08 L2133.04 1436.08 L2131.91 1436.08 L2130.78 1436.08 L2129.65 1436.08 L2128.53 1436.08 L2127.4 1436.08 L2126.27 1436.08 L2125.14 1436.08 
  L2124.02 1436.08 L2122.89 1436.08 L2121.76 1436.08 L2120.63 1436.08 L2119.51 1436.08 L2118.38 1436.08 L2117.25 1436.08 L2116.12 1436.08 L2115 1436.08 L2113.87 1436.08 
  L2112.74 1436.08 L2111.61 1436.08 L2110.49 1436.08 L2109.36 1436.08 L2108.23 1436.08 L2107.1 1436.08 L2105.97 1436.08 L2104.85 1436.08 L2103.72 1436.08 L2102.59 1436.08 
  L2101.46 1436.08 L2100.34 1436.08 L2099.21 1436.08 L2098.08 1436.08 L2096.95 1436.08 L2095.83 1436.08 L2094.7 1436.08 L2093.57 1436.08 L2092.44 1436.08 L2091.32 1436.08 
  L2090.19 1436.08 L2089.06 1436.08 L2087.93 1436.08 L2086.81 1436.08 L2085.68 1436.08 L2084.55 1436.08 L2083.42 1436.08 L2082.3 1436.08 L2081.17 1436.08 L2080.04 1436.08 
  L2078.91 1436.08 L2077.79 1436.08 L2076.66 1436.08 L2075.53 1436.08 L2074.4 1436.08 L2073.28 1436.08 L2072.15 1436.08 L2071.02 1436.08 L2069.89 1436.08 L2068.77 1436.08 
  L2067.64 1436.08 L2066.51 1436.08 L2065.38 1436.08 L2064.26 1436.08 L2063.13 1436.08 L2062 1436.08 L2060.87 1436.08 L2059.75 1436.08 L2058.62 1436.08 L2057.49 1436.08 
  L2056.36 1436.08 L2055.24 1436.08 L2054.11 1436.08 L2052.98 1436.08 L2051.85 1436.08 L2050.73 1436.08 L2049.6 1436.08 L2048.47 1436.08 L2047.34 1436.08 L2046.22 1436.08 
  L2045.09 1436.08 L2043.96 1436.08 L2042.83 1436.08 L2041.71 1436.08 L2040.58 1436.08 L2039.45 1436.08 L2038.32 1436.08 L2037.2 1436.08 L2036.07 1436.08 L2034.94 1436.08 
  L2033.81 1436.08 L2032.69 1436.08 L2031.56 1436.08 L2030.43 1436.08 L2029.3 1436.08 L2028.18 1436.08 L2027.05 1436.08 L2025.92 1436.08 L2024.79 1436.08 L2023.67 1436.08 
  L2022.54 1436.08 L2021.41 1436.08 L2020.28 1436.08 L2019.16 1436.08 L2018.03 1436.08 L2016.9 1436.08 L2015.77 1436.08 L2014.65 1436.08 L2013.52 1436.08 L2012.39 1436.08 
  L2011.26 1436.08 L2010.14 1436.08 L2009.01 1436.08 L2007.88 1436.08 L2006.75 1436.08 L2005.63 1436.08 L2004.5 1436.08 L2003.37 1436.08 L2002.24 1436.08 L2001.12 1436.08 
  L1999.99 1436.08 L1998.86 1436.08 L1997.73 1436.08 L1996.61 1436.08 L1995.48 1436.08 L1994.35 1436.08 L1993.22 1436.08 L1992.1 1436.08 L1990.97 1436.08 L1989.84 1436.08 
  L1988.71 1436.08 L1987.59 1436.08 L1986.46 1436.08 L1985.33 1436.08 L1984.2 1436.08 L1983.08 1436.08 L1981.95 1436.08 L1980.82 1436.08 L1979.69 1436.08 L1978.57 1436.08 
  L1977.44 1436.08 L1976.31 1436.08 L1975.18 1436.08 L1974.06 1436.08 L1972.93 1436.08 L1971.8 1436.08 L1970.67 1436.08 L1969.55 1436.08 L1968.42 1436.08 L1967.29 1436.08 
  L1966.16 1436.08 L1965.04 1436.08 L1963.91 1436.08 L1962.78 1436.08 L1961.65 1436.08 L1960.53 1436.08 L1959.4 1436.08 L1958.27 1436.08 L1957.14 1436.08 L1956.01 1436.08 
  L1954.89 1436.08 L1953.76 1436.08 L1952.63 1436.08 L1951.5 1436.08 L1950.38 1436.08 L1949.25 1436.08 L1948.12 1436.08 L1946.99 1436.08 L1945.87 1436.08 L1944.74 1436.08 
  L1943.61 1436.08 L1942.48 1436.08 L1941.36 1436.08 L1940.23 1436.08 L1939.1 1436.08 L1937.97 1436.08 L1936.85 1436.08 L1935.72 1436.08 L1934.59 1436.08 L1933.46 1436.08 
  L1932.34 1436.08 L1931.21 1436.08 L1930.08 1436.08 L1928.95 1436.08 L1927.83 1436.08 L1926.7 1436.08 L1925.57 1436.08 L1924.44 1436.08 L1923.32 1436.08 L1922.19 1436.08 
  L1921.06 1436.08 L1919.93 1436.08 L1918.81 1436.08 L1917.68 1436.08 L1916.55 1436.08 L1915.42 1436.08 L1914.3 1436.08 L1913.17 1436.08 L1912.04 1436.08 L1910.91 1436.08 
  L1909.79 1436.08 L1908.66 1436.08 L1907.53 1436.08 L1906.4 1436.08 L1905.28 1436.08 L1904.15 1436.08 L1903.02 1436.08 L1901.89 1436.08 L1900.77 1436.08 L1899.64 1436.08 
  L1898.51 1436.08 L1897.38 1436.08 L1896.26 1436.08 L1895.13 1436.08 L1894 1436.08 L1892.87 1436.08 L1891.75 1436.08 L1890.62 1436.08 L1889.49 1436.08 L1888.36 1436.08 
  L1887.24 1436.08 L1886.11 1436.08 L1884.98 1436.08 L1883.85 1436.08 L1882.73 1436.08 L1881.6 1436.08 L1880.47 1436.08 L1879.34 1436.08 L1878.22 1436.08 L1877.09 1436.08 
  L1875.96 1436.08 L1874.83 1436.08 L1873.71 1436.08 L1872.58 1436.08 L1871.45 1436.08 L1870.32 1436.08 L1869.2 1436.08 L1868.07 1436.08 L1866.94 1436.08 L1865.81 1436.08 
  L1864.69 1436.08 L1863.56 1436.08 L1862.43 1436.08 L1861.3 1436.08 L1860.18 1436.08 L1859.05 1436.08 L1857.92 1436.08 L1856.79 1436.08 L1855.67 1436.08 L1854.54 1436.08 
  L1853.41 1436.08 L1852.28 1436.08 L1851.16 1436.08 L1850.03 1436.08 L1848.9 1436.08 L1847.77 1436.08 L1846.65 1436.08 L1845.52 1436.08 L1844.39 1436.08 L1843.26 1436.08 
  L1842.14 1436.08 L1841.01 1436.08 L1839.88 1436.08 L1838.75 1436.08 L1837.63 1436.08 L1836.5 1436.08 L1835.37 1436.08 L1834.24 1436.08 L1833.12 1436.08 L1831.99 1436.08 
  L1830.86 1436.08 L1829.73 1436.08 L1828.61 1436.08 L1827.48 1436.08 L1826.35 1436.08 L1825.22 1436.08 L1824.1 1436.08 L1822.97 1436.08 L1821.84 1436.08 L1820.71 1436.08 
  L1819.59 1436.08 L1818.46 1436.08 L1817.33 1436.08 L1816.2 1436.08 L1815.08 1436.08 L1813.95 1436.08 L1812.82 1436.08 L1811.69 1436.08 L1810.56 1436.08 L1809.44 1436.08 
  L1808.31 1436.08 L1807.18 1436.08 L1806.05 1436.08 L1804.93 1436.08 L1803.8 1436.08 L1802.67 1436.08 L1801.54 1436.08 L1800.42 1436.08 L1799.29 1436.08 L1798.16 1436.08 
  L1797.03 1436.08 L1795.91 1436.08 L1794.78 1436.08 L1793.65 1436.08 L1792.52 1436.08 L1791.4 1436.08 L1790.27 1436.08 L1789.14 1436.08 L1788.01 1436.08 L1786.89 1436.08 
  L1785.76 1436.08 L1784.63 1436.08 L1783.5 1436.08 L1782.38 1436.08 L1781.25 1436.08 L1780.12 1436.08 L1778.99 1436.08 L1777.87 1436.08 L1776.74 1436.08 L1775.61 1436.08 
  L1774.48 1436.08 L1773.36 1436.08 L1772.23 1436.08 L1771.1 1436.08 L1769.97 1436.08 L1768.85 1436.08 L1767.72 1436.08 L1766.59 1436.08 L1765.46 1436.08 L1764.34 1436.08 
  L1763.21 1436.08 L1762.08 1436.08 L1760.95 1436.08 L1759.83 1436.08 L1758.7 1436.08 L1757.57 1436.08 L1756.44 1436.08 L1755.32 1436.08 L1754.19 1436.08 L1753.06 1436.08 
  L1751.93 1436.08 L1750.81 1436.08 L1749.68 1436.08 L1748.55 1436.08 L1747.42 1436.08 L1746.3 1436.08 L1745.17 1436.08 L1744.04 1436.08 L1742.91 1436.08 L1741.79 1436.08 
  L1740.66 1436.08 L1739.53 1436.08 L1738.4 1436.08 L1737.28 1436.08 L1736.15 1436.08 L1735.02 1436.08 L1733.89 1436.08 L1732.77 1436.08 L1731.64 1436.08 L1730.51 1436.08 
  L1729.38 1436.08 L1728.26 1436.08 L1727.13 1436.08 L1726 1436.08 L1724.87 1436.08 L1723.75 1436.08 L1722.62 1436.08 L1721.49 1436.08 L1720.36 1436.08 L1719.24 1436.08 
  L1718.11 1436.08 L1716.98 1436.08 L1715.85 1436.08 L1714.73 1436.08 L1713.6 1436.08 L1712.47 1436.08 L1711.34 1436.08 L1710.22 1436.08 L1709.09 1436.08 L1707.96 1436.08 
  L1706.83 1436.08 L1705.71 1436.08 L1704.58 1436.08 L1703.45 1436.08 L1702.32 1436.08 L1701.2 1436.08 L1700.07 1436.08 L1698.94 1436.08 L1697.81 1436.08 L1696.69 1436.08 
  L1695.56 1436.08 L1694.43 1436.08 L1693.3 1436.08 L1692.18 1436.08 L1691.05 1436.08 L1689.92 1436.08 L1688.79 1436.08 L1687.67 1436.08 L1686.54 1436.08 L1685.41 1436.08 
   Z
  " fill="#ff0000" fill-rule="evenodd" fill-opacity="0.5"/>
<polyline clip-path="url(#clip362)" style="stroke:#ff0000; stroke-linecap:round; stroke-linejoin:round; stroke-width:0; stroke-opacity:1; fill:none" points="
  1685.41,1245.16 1686.54,1246.58 1687.67,1247.99 1688.79,1249.39 1689.92,1250.78 1691.05,1252.17 1692.18,1253.55 1693.3,1254.92 1694.43,1256.29 1695.56,1257.65 
  1696.69,1259 1697.81,1260.34 1698.94,1261.68 1700.07,1263 1701.2,1264.32 1702.32,1265.64 1703.45,1266.94 1704.58,1268.24 1705.71,1269.53 1706.83,1270.82 
  1707.96,1272.09 1709.09,1273.36 1710.22,1274.63 1711.34,1275.88 1712.47,1277.13 1713.6,1278.37 1714.73,1279.6 1715.85,1280.83 1716.98,1282.05 1718.11,1283.26 
  1719.24,1284.47 1720.36,1285.66 1721.49,1286.86 1722.62,1288.04 1723.75,1289.22 1724.87,1290.39 1726,1291.55 1727.13,1292.7 1728.26,1293.85 1729.38,1294.99 
  1730.51,1296.13 1731.64,1297.26 1732.77,1298.38 1733.89,1299.49 1735.02,1300.6 1736.15,1301.7 1737.28,1302.79 1738.4,1303.88 1739.53,1304.96 1740.66,1306.03 
  1741.79,1307.1 1742.91,1308.16 1744.04,1309.21 1745.17,1310.26 1746.3,1311.3 1747.42,1312.33 1748.55,1313.36 1749.68,1314.38 1750.81,1315.39 1751.93,1316.4 
  1753.06,1317.4 1754.19,1318.4 1755.32,1319.38 1756.44,1320.37 1757.57,1321.34 1758.7,1322.31 1759.83,1323.27 1760.95,1324.23 1762.08,1325.18 1763.21,1326.12 
  1764.34,1327.06 1765.46,1327.99 1766.59,1328.91 1767.72,1329.83 1768.85,1330.74 1769.97,1331.65 1771.1,1332.55 1772.23,1333.44 1773.36,1334.33 1774.48,1335.21 
  1775.61,1336.08 1776.74,1336.95 1777.87,1337.82 1778.99,1338.67 1780.12,1339.53 1781.25,1340.37 1782.38,1341.21 1783.5,1342.04 1784.63,1342.87 1785.76,1343.69 
  1786.89,1344.51 1788.01,1345.32 1789.14,1346.13 1790.27,1346.93 1791.4,1347.72 1792.52,1348.51 1793.65,1349.29 1794.78,1350.07 1795.91,1350.84 1797.03,1351.6 
  1798.16,1352.36 1799.29,1353.12 1800.42,1353.87 1801.54,1354.61 1802.67,1355.35 1803.8,1356.08 1804.93,1356.81 1806.05,1357.53 1807.18,1358.25 1808.31,1358.96 
  1809.44,1359.66 1810.56,1360.36 1811.69,1361.06 1812.82,1361.75 1813.95,1362.43 1815.08,1363.11 1816.2,1363.79 1817.33,1364.46 1818.46,1365.12 1819.59,1365.78 
  1820.71,1366.44 1821.84,1367.09 1822.97,1367.73 1824.1,1368.37 1825.22,1369.01 1826.35,1369.64 1827.48,1370.26 1828.61,1370.88 1829.73,1371.5 1830.86,1372.11 
  1831.99,1372.71 1833.12,1373.31 1834.24,1373.91 1835.37,1374.5 1836.5,1375.09 1837.63,1375.67 1838.75,1376.25 1839.88,1376.82 1841.01,1377.39 1842.14,1377.96 
  1843.26,1378.52 1844.39,1379.07 1845.52,1379.62 1846.65,1380.17 1847.77,1380.71 1848.9,1381.25 1850.03,1381.78 1851.16,1382.31 1852.28,1382.83 1853.41,1383.35 
  1854.54,1383.87 1855.67,1384.38 1856.79,1384.89 1857.92,1385.39 1859.05,1385.89 1860.18,1386.39 1861.3,1386.88 1862.43,1387.37 1863.56,1387.85 1864.69,1388.33 
  1865.81,1388.8 1866.94,1389.27 1868.07,1389.74 1869.2,1390.2 1870.32,1390.66 1871.45,1391.12 1872.58,1391.57 1873.71,1392.02 1874.83,1392.46 1875.96,1392.9 
  1877.09,1393.34 1878.22,1393.77 1879.34,1394.2 1880.47,1394.62 1881.6,1395.05 1882.73,1395.46 1883.85,1395.88 1884.98,1396.29 1886.11,1396.7 1887.24,1397.1 
  1888.36,1397.5 1889.49,1397.9 1890.62,1398.29 1891.75,1398.68 1892.87,1399.06 1894,1399.45 1895.13,1399.83 1896.26,1400.2 1897.38,1400.58 1898.51,1400.94 
  1899.64,1401.31 1900.77,1401.67 1901.89,1402.03 1903.02,1402.39 1904.15,1402.74 1905.28,1403.09 1906.4,1403.44 1907.53,1403.78 1908.66,1404.12 1909.79,1404.46 
  1910.91,1404.8 1912.04,1405.13 1913.17,1405.46 1914.3,1405.78 1915.42,1406.1 1916.55,1406.42 1917.68,1406.74 1918.81,1407.05 1919.93,1407.36 1921.06,1407.67 
  1922.19,1407.98 1923.32,1408.28 1924.44,1408.58 1925.57,1408.88 1926.7,1409.17 1927.83,1409.46 1928.95,1409.75 1930.08,1410.03 1931.21,1410.32 1932.34,1410.6 
  1933.46,1410.88 1934.59,1411.15 1935.72,1411.42 1936.85,1411.69 1937.97,1411.96 1939.1,1412.22 1940.23,1412.49 1941.36,1412.75 1942.48,1413 1943.61,1413.26 
  1944.74,1413.51 1945.87,1413.76 1946.99,1414.01 1948.12,1414.25 1949.25,1414.5 1950.38,1414.74 1951.5,1414.97 1952.63,1415.21 1953.76,1415.44 1954.89,1415.67 
  1956.01,1415.9 1957.14,1416.13 1958.27,1416.35 1959.4,1416.58 1960.53,1416.8 1961.65,1417.01 1962.78,1417.23 1963.91,1417.44 1965.04,1417.65 1966.16,1417.86 
  1967.29,1418.07 1968.42,1418.27 1969.55,1418.48 1970.67,1418.68 1971.8,1418.88 1972.93,1419.07 1974.06,1419.27 1975.18,1419.46 1976.31,1419.65 1977.44,1419.84 
  1978.57,1420.03 1979.69,1420.21 1980.82,1420.4 1981.95,1420.58 1983.08,1420.76 1984.2,1420.94 1985.33,1421.11 1986.46,1421.29 1987.59,1421.46 1988.71,1421.63 
  1989.84,1421.8 1990.97,1421.97 1992.1,1422.13 1993.22,1422.3 1994.35,1422.46 1995.48,1422.62 1996.61,1422.78 1997.73,1422.93 1998.86,1423.09 1999.99,1423.24 
  2001.12,1423.39 2002.24,1423.54 2003.37,1423.69 2004.5,1423.84 2005.63,1423.99 2006.75,1424.13 2007.88,1424.27 2009.01,1424.41 2010.14,1424.55 2011.26,1424.69 
  2012.39,1424.83 2013.52,1424.96 2014.65,1425.1 2015.77,1425.23 2016.9,1425.36 2018.03,1425.49 2019.16,1425.62 2020.28,1425.74 2021.41,1425.87 2022.54,1425.99 
  2023.67,1426.12 2024.79,1426.24 2025.92,1426.36 2027.05,1426.48 2028.18,1426.59 2029.3,1426.71 2030.43,1426.82 2031.56,1426.94 2032.69,1427.05 2033.81,1427.16 
  2034.94,1427.27 2036.07,1427.38 2037.2,1427.49 2038.32,1427.59 2039.45,1427.7 2040.58,1427.8 2041.71,1427.91 2042.83,1428.01 2043.96,1428.11 2045.09,1428.21 
  2046.22,1428.3 2047.34,1428.4 2048.47,1428.5 2049.6,1428.59 2050.73,1428.69 2051.85,1428.78 2052.98,1428.87 2054.11,1428.96 2055.24,1429.05 2056.36,1429.14 
  2057.49,1429.23 2058.62,1429.31 2059.75,1429.4 2060.87,1429.49 2062,1429.57 2063.13,1429.65 2064.26,1429.73 2065.38,1429.81 2066.51,1429.89 2067.64,1429.97 
  2068.77,1430.05 2069.89,1430.13 2071.02,1430.2 2072.15,1430.28 2073.28,1430.35 2074.4,1430.43 2075.53,1430.5 2076.66,1430.57 2077.79,1430.64 2078.91,1430.71 
  2080.04,1430.78 2081.17,1430.85 2082.3,1430.92 2083.42,1430.99 2084.55,1431.05 2085.68,1431.12 2086.81,1431.18 2087.93,1431.25 2089.06,1431.31 2090.19,1431.37 
  2091.32,1431.43 2092.44,1431.5 2093.57,1431.56 2094.7,1431.62 2095.83,1431.67 2096.95,1431.73 2098.08,1431.79 2099.21,1431.85 2100.34,1431.9 2101.46,1431.96 
  2102.59,1432.01 2103.72,1432.07 2104.85,1432.12 2105.97,1432.17 2107.1,1432.22 2108.23,1432.28 2109.36,1432.33 2110.49,1432.38 2111.61,1432.43 2112.74,1432.48 
  2113.87,1432.52 2115,1432.57 2116.12,1432.62 2117.25,1432.66 2118.38,1432.71 2119.51,1432.76 2120.63,1432.8 2121.76,1432.85 2122.89,1432.89 2124.02,1432.93 
  2125.14,1432.98 2126.27,1433.02 2127.4,1433.06 2128.53,1433.1 2129.65,1433.14 2130.78,1433.18 2131.91,1433.22 2133.04,1433.26 2134.16,1433.3 2135.29,1433.34 
  2136.42,1433.37 2137.55,1433.41 2138.67,1433.45 2139.8,1433.48 2140.93,1433.52 2142.06,1433.56 2143.18,1433.59 2144.31,1433.62 2145.44,1433.66 2146.57,1433.69 
  2147.69,1433.73 2148.82,1433.76 2149.95,1433.79 2151.08,1433.82 2152.2,1433.85 2153.33,1433.88 2154.46,1433.92 2155.59,1433.95 2156.71,1433.98 2157.84,1434.01 
  2158.97,1434.03 2160.1,1434.06 2161.22,1434.09 2162.35,1434.12 2163.48,1434.15 2164.61,1434.17 2165.73,1434.2 2166.86,1434.23 2167.99,1434.25 2169.12,1434.28 
  2170.24,1434.31 2171.37,1434.33 2172.5,1434.36 2173.63,1434.38 2174.75,1434.4 2175.88,1434.43 2177.01,1434.45 2178.14,1434.47 2179.26,1434.5 2180.39,1434.52 
  2181.52,1434.54 2182.65,1434.57 2183.77,1434.59 2184.9,1434.61 2186.03,1434.63 2187.16,1434.65 2188.28,1434.67 2189.41,1434.69 2190.54,1434.71 2191.67,1434.73 
  2192.79,1434.75 2193.92,1434.77 2195.05,1434.79 2196.18,1434.81 2197.3,1434.83 2198.43,1434.84 2199.56,1434.86 2200.69,1434.88 2201.81,1434.9 2202.94,1434.92 
  2204.07,1434.93 2205.2,1434.95 2206.32,1434.97 2207.45,1434.98 2208.58,1435 2209.71,1435.01 2210.83,1435.03 2211.96,1435.05 2213.09,1435.06 2214.22,1435.08 
  2215.34,1435.09 2216.47,1435.11 2217.6,1435.12 2218.73,1435.13 2219.85,1435.15 2220.98,1435.16 2222.11,1435.18 2223.24,1435.19 2224.36,1435.2 2225.49,1435.22 
  2226.62,1435.23 2227.75,1435.24 2228.87,1435.25 2230,1435.27 2231.13,1435.28 2232.26,1435.29 2233.38,1435.3 2234.51,1435.31 2235.64,1435.33 2236.77,1435.34 
  2237.89,1435.35 2239.02,1435.36 2240.15,1435.37 2241.28,1435.38 2242.4,1435.39 2243.53,1435.4 2244.66,1435.41 2245.79,1435.42 2246.91,1435.43 2248.04,1435.44 
  2249.17,1435.45 2250.3,1435.46 2251.42,1435.47 2252.55,1435.48 2253.68,1435.49 2254.81,1435.5 2255.94,1435.51 2257.06,1435.52 2258.19,1435.52 2259.32,1435.53 
  2260.45,1435.54 2261.57,1435.55 2262.7,1435.56 2263.83,1435.57 2264.96,1435.57 2266.08,1435.58 2267.21,1435.59 2268.34,1435.6 2269.47,1435.6 2270.59,1435.61 
  2271.72,1435.62 2272.85,1435.63 2273.98,1435.63 2275.1,1435.64 2276.23,1435.65 2277.36,1435.65 2278.49,1435.66 2279.61,1435.67 2280.74,1435.67 2281.87,1435.68 
  2283,1435.69 2284.12,1435.69 2285.25,1435.7 2286.38,1435.7 2287.51,1435.71 
  "/>
<path clip-path="url(#clip360)" d="
M124.094 328.167 L1019.75 328.167 L1019.75 94.8869 L124.094 94.8869  Z
  " fill="#ffffff" fill-rule="evenodd" fill-opacity="1"/>
<polyline clip-path="url(#clip360)" style="stroke:#000000; stroke-linecap:round; stroke-linejoin:round; stroke-width:4; stroke-opacity:1; fill:none" points="
  124.094,328.167 1019.75,328.167 1019.75,94.8869 124.094,94.8869 124.094,328.167 
  "/>
<polyline clip-path="url(#clip360)" style="stroke:#000000; stroke-linecap:round; stroke-linejoin:round; stroke-width:12; stroke-opacity:1; fill:none" points="
  149.711,172.647 303.412,172.647 
  "/>
<path clip-path="url(#clip360)" d="M336.043 173.81 L336.043 192.803 L347.293 192.803 Q352.952 192.803 355.661 190.477 Q358.404 188.116 358.404 183.289 Q358.404 178.428 355.661 176.136 Q352.952 173.81 347.293 173.81 L336.043 173.81 M336.043 152.491 L336.043 168.116 L346.425 168.116 Q351.563 168.116 354.063 166.206 Q356.598 164.262 356.598 160.303 Q356.598 156.38 354.063 154.435 Q351.563 152.491 346.425 152.491 L336.043 152.491 M329.029 146.727 L346.945 146.727 Q354.966 146.727 359.306 150.06 Q363.647 153.394 363.647 159.539 Q363.647 164.296 361.425 167.109 Q359.202 169.921 354.897 170.616 Q360.07 171.727 362.918 175.268 Q365.8 178.775 365.8 184.053 Q365.8 190.997 361.077 194.782 Q356.355 198.567 347.64 198.567 L329.029 198.567 L329.029 146.727 Z" fill="#000000" fill-rule="evenodd" fill-opacity="1" /><path clip-path="url(#clip360)" d="M395.209 179.018 Q387.466 179.018 384.48 180.789 Q381.494 182.56 381.494 186.831 Q381.494 190.234 383.716 192.247 Q385.973 194.227 389.827 194.227 Q395.14 194.227 398.334 190.477 Q401.563 186.692 401.563 180.442 L401.563 179.018 L395.209 179.018 M407.952 176.38 L407.952 198.567 L401.563 198.567 L401.563 192.664 Q399.376 196.206 396.112 197.907 Q392.848 199.574 388.126 199.574 Q382.154 199.574 378.612 196.241 Q375.105 192.872 375.105 187.248 Q375.105 180.685 379.48 177.352 Q383.89 174.018 392.605 174.018 L401.563 174.018 L401.563 173.393 Q401.563 168.984 398.647 166.588 Q395.765 164.157 390.522 164.157 Q387.188 164.157 384.029 164.956 Q380.869 165.755 377.952 167.352 L377.952 161.449 Q381.459 160.095 384.758 159.435 Q388.056 158.741 391.181 158.741 Q399.619 158.741 403.785 163.116 Q407.952 167.491 407.952 176.38 Z" fill="#000000" fill-rule="evenodd" fill-opacity="1" /><path clip-path="url(#clip360)" d="M445.903 160.824 L445.903 166.866 Q443.195 165.477 440.278 164.782 Q437.362 164.088 434.237 164.088 Q429.48 164.088 427.084 165.546 Q424.723 167.005 424.723 169.921 Q424.723 172.143 426.424 173.428 Q428.126 174.678 433.264 175.824 L435.452 176.31 Q442.257 177.768 445.105 180.442 Q447.987 183.081 447.987 187.838 Q447.987 193.254 443.681 196.414 Q439.41 199.574 431.91 199.574 Q428.785 199.574 425.383 198.949 Q422.014 198.359 418.265 197.143 L418.265 190.546 Q421.806 192.386 425.244 193.324 Q428.681 194.227 432.049 194.227 Q436.563 194.227 438.994 192.699 Q441.424 191.136 441.424 188.324 Q441.424 185.72 439.653 184.331 Q437.917 182.942 431.98 181.657 L429.757 181.136 Q423.82 179.886 421.181 177.317 Q418.542 174.713 418.542 170.199 Q418.542 164.713 422.431 161.727 Q426.32 158.741 433.473 158.741 Q437.014 158.741 440.139 159.262 Q443.264 159.782 445.903 160.824 Z" fill="#000000" fill-rule="evenodd" fill-opacity="1" /><path clip-path="url(#clip360)" d="M491.424 177.525 L491.424 180.65 L462.049 180.65 Q462.466 187.248 466.007 190.72 Q469.584 194.157 475.938 194.157 Q479.618 194.157 483.056 193.254 Q486.528 192.352 489.931 190.546 L489.931 196.588 Q486.493 198.046 482.882 198.81 Q479.271 199.574 475.556 199.574 Q466.25 199.574 460.799 194.157 Q455.382 188.741 455.382 179.504 Q455.382 169.956 460.521 164.366 Q465.695 158.741 474.445 158.741 Q482.292 158.741 486.841 163.81 Q491.424 168.845 491.424 177.525 M485.035 175.65 Q484.966 170.407 482.084 167.282 Q479.236 164.157 474.514 164.157 Q469.167 164.157 465.938 167.178 Q462.743 170.199 462.257 175.685 L485.035 175.65 Z" fill="#000000" fill-rule="evenodd" fill-opacity="1" /><polyline clip-path="url(#clip360)" style="stroke:#000000; stroke-linecap:round; stroke-linejoin:round; stroke-width:12; stroke-opacity:1; fill:none" stroke-dasharray="48, 30" points="
  149.711,250.407 303.412,250.407 
  "/>
<path clip-path="url(#clip360)" d="M329.029 224.487 L336.043 224.487 L336.043 276.327 L329.029 276.327 L329.029 224.487 Z" fill="#000000" fill-rule="evenodd" fill-opacity="1" /><path clip-path="url(#clip360)" d="M382.049 252.855 L382.049 276.327 L375.661 276.327 L375.661 253.063 Q375.661 247.542 373.508 244.799 Q371.355 242.056 367.05 242.056 Q361.876 242.056 358.89 245.355 Q355.904 248.653 355.904 254.348 L355.904 276.327 L349.48 276.327 L349.48 237.438 L355.904 237.438 L355.904 243.48 Q358.195 239.973 361.286 238.237 Q364.411 236.501 368.473 236.501 Q375.174 236.501 378.612 240.667 Q382.049 244.799 382.049 252.855 Z" fill="#000000" fill-rule="evenodd" fill-opacity="1" /><path clip-path="url(#clip360)" d="M422.778 238.931 L422.778 244.903 Q420.07 243.41 417.327 242.681 Q414.619 241.917 411.841 241.917 Q405.626 241.917 402.188 245.876 Q398.751 249.799 398.751 256.917 Q398.751 264.035 402.188 267.994 Q405.626 271.917 411.841 271.917 Q414.619 271.917 417.327 271.188 Q420.07 270.424 422.778 268.931 L422.778 274.834 Q420.105 276.084 417.223 276.709 Q414.376 277.334 411.146 277.334 Q402.362 277.334 397.188 271.813 Q392.015 266.292 392.015 256.917 Q392.015 247.403 397.223 241.952 Q402.466 236.501 411.563 236.501 Q414.515 236.501 417.327 237.126 Q420.139 237.716 422.778 238.931 Z" fill="#000000" fill-rule="evenodd" fill-opacity="1" /><path clip-path="url(#clip360)" d="M456.424 243.41 Q455.348 242.785 454.063 242.508 Q452.813 242.195 451.285 242.195 Q445.869 242.195 442.952 245.737 Q440.07 249.244 440.07 255.841 L440.07 276.327 L433.646 276.327 L433.646 237.438 L440.07 237.438 L440.07 243.48 Q442.084 239.938 445.313 238.237 Q448.542 236.501 453.16 236.501 Q453.82 236.501 454.618 236.605 Q455.417 236.674 456.389 236.848 L456.424 243.41 Z" fill="#000000" fill-rule="evenodd" fill-opacity="1" /><path clip-path="url(#clip360)" d="M494.827 255.285 L494.827 258.41 L465.452 258.41 Q465.868 265.008 469.41 268.48 Q472.986 271.917 479.341 271.917 Q483.021 271.917 486.459 271.014 Q489.931 270.112 493.334 268.306 L493.334 274.348 Q489.896 275.806 486.285 276.57 Q482.674 277.334 478.959 277.334 Q469.653 277.334 464.202 271.917 Q458.785 266.501 458.785 257.264 Q458.785 247.716 463.924 242.126 Q469.098 236.501 477.848 236.501 Q485.695 236.501 490.243 241.57 Q494.827 246.605 494.827 255.285 M488.438 253.41 Q488.368 248.167 485.486 245.042 Q482.639 241.917 477.917 241.917 Q472.57 241.917 469.341 244.938 Q466.146 247.959 465.66 253.445 L488.438 253.41 Z" fill="#000000" fill-rule="evenodd" fill-opacity="1" /><path clip-path="url(#clip360)" d="M522.986 256.778 Q515.243 256.778 512.257 258.549 Q509.271 260.32 509.271 264.591 Q509.271 267.994 511.493 270.007 Q513.75 271.987 517.604 271.987 Q522.917 271.987 526.111 268.237 Q529.34 264.452 529.34 258.202 L529.34 256.778 L522.986 256.778 M535.729 254.14 L535.729 276.327 L529.34 276.327 L529.34 270.424 Q527.153 273.966 523.889 275.667 Q520.625 277.334 515.903 277.334 Q509.931 277.334 506.389 274.001 Q502.882 270.632 502.882 265.008 Q502.882 258.445 507.257 255.112 Q511.667 251.778 520.382 251.778 L529.34 251.778 L529.34 251.153 Q529.34 246.744 526.424 244.348 Q523.542 241.917 518.299 241.917 Q514.965 241.917 511.806 242.716 Q508.646 243.515 505.729 245.112 L505.729 239.209 Q509.236 237.855 512.535 237.195 Q515.833 236.501 518.958 236.501 Q527.396 236.501 531.563 240.876 Q535.729 245.251 535.729 254.14 Z" fill="#000000" fill-rule="evenodd" fill-opacity="1" /><path clip-path="url(#clip360)" d="M573.68 238.584 L573.68 244.626 Q570.972 243.237 568.055 242.542 Q565.139 241.848 562.014 241.848 Q557.257 241.848 554.861 243.306 Q552.5 244.765 552.5 247.681 Q552.5 249.903 554.201 251.188 Q555.903 252.438 561.042 253.584 L563.229 254.07 Q570.035 255.528 572.882 258.202 Q575.764 260.841 575.764 265.598 Q575.764 271.014 571.458 274.174 Q567.187 277.334 559.687 277.334 Q556.562 277.334 553.16 276.709 Q549.792 276.119 546.042 274.903 L546.042 268.306 Q549.583 270.146 553.021 271.084 Q556.458 271.987 559.826 271.987 Q564.34 271.987 566.771 270.459 Q569.201 268.896 569.201 266.084 Q569.201 263.48 567.43 262.091 Q565.694 260.702 559.757 259.417 L557.535 258.896 Q551.597 257.646 548.958 255.077 Q546.319 252.473 546.319 247.959 Q546.319 242.473 550.208 239.487 Q554.097 236.501 561.25 236.501 Q564.791 236.501 567.916 237.022 Q571.041 237.542 573.68 238.584 Z" fill="#000000" fill-rule="evenodd" fill-opacity="1" /><path clip-path="url(#clip360)" d="M619.201 255.285 L619.201 258.41 L589.826 258.41 Q590.243 265.008 593.784 268.48 Q597.361 271.917 603.715 271.917 Q607.395 271.917 610.833 271.014 Q614.305 270.112 617.708 268.306 L617.708 274.348 Q614.27 275.806 610.659 276.57 Q607.048 277.334 603.333 277.334 Q594.027 277.334 588.576 271.917 Q583.159 266.501 583.159 257.264 Q583.159 247.716 588.298 242.126 Q593.472 236.501 602.222 236.501 Q610.069 236.501 614.618 241.57 Q619.201 246.605 619.201 255.285 M612.812 253.41 Q612.743 248.167 609.861 245.042 Q607.013 241.917 602.291 241.917 Q596.944 241.917 593.715 244.938 Q590.521 247.959 590.034 253.445 L612.812 253.41 Z" fill="#000000" fill-rule="evenodd" fill-opacity="1" /><path clip-path="url(#clip360)" d="M655.277 243.341 L655.277 222.299 L661.666 222.299 L661.666 276.327 L655.277 276.327 L655.277 270.494 Q653.263 273.966 650.173 275.667 Q647.117 277.334 642.812 277.334 Q635.763 277.334 631.319 271.709 Q626.909 266.084 626.909 256.917 Q626.909 247.751 631.319 242.126 Q635.763 236.501 642.812 236.501 Q647.117 236.501 650.173 238.202 Q653.263 239.869 655.277 243.341 M633.506 256.917 Q633.506 263.966 636.388 267.994 Q639.305 271.987 644.374 271.987 Q649.444 271.987 652.36 267.994 Q655.277 263.966 655.277 256.917 Q655.277 249.869 652.36 245.876 Q649.444 241.848 644.374 241.848 Q639.305 241.848 636.388 245.876 Q633.506 249.869 633.506 256.917 Z" fill="#000000" fill-rule="evenodd" fill-opacity="1" /><path clip-path="url(#clip360)" d="M711.075 276.327 L691.284 224.487 L698.61 224.487 L715.034 268.132 L731.492 224.487 L738.784 224.487 L719.027 276.327 L711.075 276.327 Z" fill="#000000" fill-rule="evenodd" fill-opacity="1" /><path clip-path="url(#clip360)" d="M758.228 256.778 Q750.485 256.778 747.499 258.549 Q744.513 260.32 744.513 264.591 Q744.513 267.994 746.735 270.007 Q748.992 271.987 752.846 271.987 Q758.159 271.987 761.353 268.237 Q764.582 264.452 764.582 258.202 L764.582 256.778 L758.228 256.778 M770.971 254.14 L770.971 276.327 L764.582 276.327 L764.582 270.424 Q762.395 273.966 759.131 275.667 Q755.867 277.334 751.145 277.334 Q745.172 277.334 741.631 274.001 Q738.124 270.632 738.124 265.008 Q738.124 258.445 742.499 255.112 Q746.909 251.778 755.624 251.778 L764.582 251.778 L764.582 251.153 Q764.582 246.744 761.665 244.348 Q758.784 241.917 753.54 241.917 Q750.207 241.917 747.047 242.716 Q743.888 243.515 740.971 245.112 L740.971 239.209 Q744.478 237.855 747.777 237.195 Q751.075 236.501 754.2 236.501 Q762.638 236.501 766.804 240.876 Q770.971 245.251 770.971 254.14 Z" fill="#000000" fill-rule="evenodd" fill-opacity="1" /><path clip-path="url(#clip360)" d="M806.665 243.41 Q805.589 242.785 804.304 242.508 Q803.054 242.195 801.526 242.195 Q796.11 242.195 793.193 245.737 Q790.311 249.244 790.311 255.841 L790.311 276.327 L783.888 276.327 L783.888 237.438 L790.311 237.438 L790.311 243.48 Q792.325 239.938 795.554 238.237 Q798.783 236.501 803.401 236.501 Q804.061 236.501 804.86 236.605 Q805.658 236.674 806.63 236.848 L806.665 243.41 Z" fill="#000000" fill-rule="evenodd" fill-opacity="1" /><path clip-path="url(#clip360)" d="M813.367 237.438 L819.755 237.438 L819.755 276.327 L813.367 276.327 L813.367 237.438 M813.367 222.299 L819.755 222.299 L819.755 230.39 L813.367 230.39 L813.367 222.299 Z" fill="#000000" fill-rule="evenodd" fill-opacity="1" /><path clip-path="url(#clip360)" d="M850.797 256.778 Q843.054 256.778 840.068 258.549 Q837.082 260.32 837.082 264.591 Q837.082 267.994 839.304 270.007 Q841.561 271.987 845.415 271.987 Q850.727 271.987 853.922 268.237 Q857.151 264.452 857.151 258.202 L857.151 256.778 L850.797 256.778 M863.54 254.14 L863.54 276.327 L857.151 276.327 L857.151 270.424 Q854.964 273.966 851.7 275.667 Q848.436 277.334 843.714 277.334 Q837.741 277.334 834.2 274.001 Q830.693 270.632 830.693 265.008 Q830.693 258.445 835.068 255.112 Q839.478 251.778 848.193 251.778 L857.151 251.778 L857.151 251.153 Q857.151 246.744 854.234 244.348 Q851.352 241.917 846.109 241.917 Q842.776 241.917 839.616 242.716 Q836.457 243.515 833.54 245.112 L833.54 239.209 Q837.047 237.855 840.346 237.195 Q843.644 236.501 846.769 236.501 Q855.207 236.501 859.373 240.876 Q863.54 245.251 863.54 254.14 Z" fill="#000000" fill-rule="evenodd" fill-opacity="1" /><path clip-path="url(#clip360)" d="M909.026 252.855 L909.026 276.327 L902.637 276.327 L902.637 253.063 Q902.637 247.542 900.484 244.799 Q898.331 242.056 894.026 242.056 Q888.852 242.056 885.866 245.355 Q882.88 248.653 882.88 254.348 L882.88 276.327 L876.456 276.327 L876.456 237.438 L882.88 237.438 L882.88 243.48 Q885.172 239.973 888.262 238.237 Q891.387 236.501 895.449 236.501 Q902.151 236.501 905.588 240.667 Q909.026 244.799 909.026 252.855 Z" fill="#000000" fill-rule="evenodd" fill-opacity="1" /><path clip-path="url(#clip360)" d="M949.755 238.931 L949.755 244.903 Q947.046 243.41 944.303 242.681 Q941.595 241.917 938.817 241.917 Q932.602 241.917 929.165 245.876 Q925.727 249.799 925.727 256.917 Q925.727 264.035 929.165 267.994 Q932.602 271.917 938.817 271.917 Q941.595 271.917 944.303 271.188 Q947.046 270.424 949.755 268.931 L949.755 274.834 Q947.081 276.084 944.199 276.709 Q941.352 277.334 938.123 277.334 Q929.338 277.334 924.165 271.813 Q918.991 266.292 918.991 256.917 Q918.991 247.403 924.199 241.952 Q929.442 236.501 938.539 236.501 Q941.491 236.501 944.303 237.126 Q947.116 237.716 949.755 238.931 Z" fill="#000000" fill-rule="evenodd" fill-opacity="1" /><path clip-path="url(#clip360)" d="M994.129 255.285 L994.129 258.41 L964.755 258.41 Q965.171 265.008 968.713 268.48 Q972.289 271.917 978.643 271.917 Q982.324 271.917 985.761 271.014 Q989.234 270.112 992.636 268.306 L992.636 274.348 Q989.199 275.806 985.588 276.57 Q981.977 277.334 978.262 277.334 Q968.956 277.334 963.505 271.917 Q958.088 266.501 958.088 257.264 Q958.088 247.716 963.227 242.126 Q968.4 236.501 977.15 236.501 Q984.998 236.501 989.546 241.57 Q994.129 246.605 994.129 255.285 M987.741 253.41 Q987.671 248.167 984.789 245.042 Q981.942 241.917 977.22 241.917 Q971.873 241.917 968.643 244.938 Q965.449 247.959 964.963 253.445 L987.741 253.41 Z" fill="#000000" fill-rule="evenodd" fill-opacity="1" /></svg>
