<?xml version="1.0" encoding="utf-8"?>
<svg xmlns="http://www.w3.org/2000/svg" xmlns:xlink="http://www.w3.org/1999/xlink" width="600" height="400" viewBox="0 0 2400 1600">
<defs>
  <clipPath id="clip680">
    <rect x="0" y="0" width="2400" height="1600"/>
  </clipPath>
</defs>
<path clip-path="url(#clip680)" d="M0 1600 L2400 1600 L2400 0 L0 0  Z" fill="#ffffff" fill-rule="evenodd" fill-opacity="1"/>
<defs>
  <clipPath id="clip681">
    <rect x="480" y="0" width="1681" height="1600"/>
  </clipPath>
</defs>
<path clip-path="url(#clip680)" d="M284.18 1384.3 L2352.76 1384.3 L2352.76 47.2441 L284.18 47.2441  Z" fill="#ffffff" fill-rule="evenodd" fill-opacity="1"/>
<defs>
  <clipPath id="clip682">
    <rect x="284" y="47" width="2070" height="1338"/>
  </clipPath>
</defs>
<polyline clip-path="url(#clip682)" style="stroke:#000000; stroke-linecap:round; stroke-linejoin:round; stroke-width:2; stroke-opacity:0.1; fill:none" points="396.098,1384.3 396.098,47.2441 "/>
<polyline clip-path="url(#clip682)" style="stroke:#000000; stroke-linecap:round; stroke-linejoin:round; stroke-width:2; stroke-opacity:0.1; fill:none" points="840.878,1384.3 840.878,47.2441 "/>
<polyline clip-path="url(#clip682)" style="stroke:#000000; stroke-linecap:round; stroke-linejoin:round; stroke-width:2; stroke-opacity:0.1; fill:none" points="1285.66,1384.3 1285.66,47.2441 "/>
<polyline clip-path="url(#clip682)" style="stroke:#000000; stroke-linecap:round; stroke-linejoin:round; stroke-width:2; stroke-opacity:0.1; fill:none" points="1730.44,1384.3 1730.44,47.2441 "/>
<polyline clip-path="url(#clip682)" style="stroke:#000000; stroke-linecap:round; stroke-linejoin:round; stroke-width:2; stroke-opacity:0.1; fill:none" points="2175.22,1384.3 2175.22,47.2441 "/>
<polyline clip-path="url(#clip680)" style="stroke:#000000; stroke-linecap:round; stroke-linejoin:round; stroke-width:4; stroke-opacity:1; fill:none" points="284.18,1384.3 2352.76,1384.3 "/>
<polyline clip-path="url(#clip680)" style="stroke:#000000; stroke-linecap:round; stroke-linejoin:round; stroke-width:4; stroke-opacity:1; fill:none" points="396.098,1384.3 396.098,1365.4 "/>
<polyline clip-path="url(#clip680)" style="stroke:#000000; stroke-linecap:round; stroke-linejoin:round; stroke-width:4; stroke-opacity:1; fill:none" points="840.878,1384.3 840.878,1365.4 "/>
<polyline clip-path="url(#clip680)" style="stroke:#000000; stroke-linecap:round; stroke-linejoin:round; stroke-width:4; stroke-opacity:1; fill:none" points="1285.66,1384.3 1285.66,1365.4 "/>
<polyline clip-path="url(#clip680)" style="stroke:#000000; stroke-linecap:round; stroke-linejoin:round; stroke-width:4; stroke-opacity:1; fill:none" points="1730.44,1384.3 1730.44,1365.4 "/>
<polyline clip-path="url(#clip680)" style="stroke:#000000; stroke-linecap:round; stroke-linejoin:round; stroke-width:4; stroke-opacity:1; fill:none" points="2175.22,1384.3 2175.22,1365.4 "/>
<path clip-path="url(#clip680)" d="M356.521 1424.01 Q350.202 1424.01 347.001 1430.25 Q343.842 1436.44 343.842 1448.92 Q343.842 1461.36 347.001 1467.6 Q350.202 1473.79 356.521 1473.79 Q362.881 1473.79 366.041 1467.6 Q369.241 1461.36 369.241 1448.92 Q369.241 1436.44 366.041 1430.25 Q362.881 1424.01 356.521 1424.01 M356.521 1417.53 Q366.689 1417.53 372.036 1425.59 Q377.424 1433.61 377.424 1448.92 Q377.424 1464.19 372.036 1472.25 Q366.689 1480.27 356.521 1480.27 Q346.353 1480.27 340.966 1472.25 Q335.618 1464.19 335.618 1448.92 Q335.618 1433.61 340.966 1425.59 Q346.353 1417.53 356.521 1417.53 Z" fill="#000000" fill-rule="nonzero" fill-opacity="1" /><path clip-path="url(#clip680)" d="M391.804 1468.81 L400.352 1468.81 L400.352 1479.1 L391.804 1479.1 L391.804 1468.81 Z" fill="#000000" fill-rule="nonzero" fill-opacity="1" /><path clip-path="url(#clip680)" d="M435.676 1424.01 Q429.356 1424.01 426.156 1430.25 Q422.996 1436.44 422.996 1448.92 Q422.996 1461.36 426.156 1467.6 Q429.356 1473.79 435.676 1473.79 Q442.036 1473.79 445.195 1467.6 Q448.396 1461.36 448.396 1448.92 Q448.396 1436.44 445.195 1430.25 Q442.036 1424.01 435.676 1424.01 M435.676 1417.53 Q445.843 1417.53 451.191 1425.59 Q456.578 1433.61 456.578 1448.92 Q456.578 1464.19 451.191 1472.25 Q445.843 1480.27 435.676 1480.27 Q425.508 1480.27 420.12 1472.25 Q414.773 1464.19 414.773 1448.92 Q414.773 1433.61 420.12 1425.59 Q425.508 1417.53 435.676 1417.53 Z" fill="#000000" fill-rule="nonzero" fill-opacity="1" /><path clip-path="url(#clip680)" d="M802.698 1424.01 Q796.379 1424.01 793.179 1430.25 Q790.019 1436.44 790.019 1448.92 Q790.019 1461.36 793.179 1467.6 Q796.379 1473.79 802.698 1473.79 Q809.058 1473.79 812.218 1467.6 Q815.418 1461.36 815.418 1448.92 Q815.418 1436.44 812.218 1430.25 Q809.058 1424.01 802.698 1424.01 M802.698 1417.53 Q812.866 1417.53 818.213 1425.59 Q823.601 1433.61 823.601 1448.92 Q823.601 1464.19 818.213 1472.25 Q812.866 1480.27 802.698 1480.27 Q792.531 1480.27 787.143 1472.25 Q781.796 1464.19 781.796 1448.92 Q781.796 1433.61 787.143 1425.59 Q792.531 1417.53 802.698 1417.53 Z" fill="#000000" fill-rule="nonzero" fill-opacity="1" /><path clip-path="url(#clip680)" d="M837.982 1468.81 L846.529 1468.81 L846.529 1479.1 L837.982 1479.1 L837.982 1468.81 Z" fill="#000000" fill-rule="nonzero" fill-opacity="1" /><path clip-path="url(#clip680)" d="M871.402 1472.21 L899.961 1472.21 L899.961 1479.1 L861.558 1479.1 L861.558 1472.21 Q866.217 1467.39 874.237 1459.29 Q882.299 1451.15 884.365 1448.8 Q888.294 1444.38 889.833 1441.35 Q891.413 1438.27 891.413 1435.31 Q891.413 1430.49 888.01 1427.45 Q884.648 1424.41 879.22 1424.41 Q875.372 1424.41 871.078 1425.75 Q866.824 1427.09 861.963 1429.8 L861.963 1421.54 Q866.905 1419.55 871.199 1418.54 Q875.493 1417.53 879.058 1417.53 Q888.456 1417.53 894.046 1422.23 Q899.637 1426.92 899.637 1434.78 Q899.637 1438.51 898.219 1441.87 Q896.841 1445.19 893.155 1449.73 Q892.142 1450.91 886.714 1456.54 Q881.286 1462.13 871.402 1472.21 Z" fill="#000000" fill-rule="nonzero" fill-opacity="1" /><path clip-path="url(#clip680)" d="M1245.66 1424.01 Q1239.34 1424.01 1236.14 1430.25 Q1232.98 1436.44 1232.98 1448.92 Q1232.98 1461.36 1236.14 1467.6 Q1239.34 1473.79 1245.66 1473.79 Q1252.02 1473.79 1255.18 1467.6 Q1258.38 1461.36 1258.38 1448.92 Q1258.38 1436.44 1255.18 1430.25 Q1252.02 1424.01 1245.66 1424.01 M1245.66 1417.53 Q1255.82 1417.53 1261.17 1425.59 Q1266.56 1433.61 1266.56 1448.92 Q1266.56 1464.19 1261.17 1472.25 Q1255.82 1480.27 1245.66 1480.27 Q1235.49 1480.27 1230.1 1472.25 Q1224.75 1464.19 1224.75 1448.92 Q1224.75 1433.61 1230.1 1425.59 Q1235.49 1417.53 1245.66 1417.53 Z" fill="#000000" fill-rule="nonzero" fill-opacity="1" /><path clip-path="url(#clip680)" d="M1280.94 1468.81 L1289.49 1468.81 L1289.49 1479.1 L1280.94 1479.1 L1280.94 1468.81 Z" fill="#000000" fill-rule="nonzero" fill-opacity="1" /><path clip-path="url(#clip680)" d="M1329.79 1425.75 L1309.13 1458.04 L1329.79 1458.04 L1329.79 1425.75 M1327.65 1418.62 L1337.93 1418.62 L1337.93 1458.04 L1346.56 1458.04 L1346.56 1464.84 L1337.93 1464.84 L1337.93 1479.1 L1329.79 1479.1 L1329.79 1464.84 L1302.49 1464.84 L1302.49 1456.94 L1327.65 1418.62 Z" fill="#000000" fill-rule="nonzero" fill-opacity="1" /><path clip-path="url(#clip680)" d="M1690.72 1424.01 Q1684.4 1424.01 1681.2 1430.25 Q1678.04 1436.44 1678.04 1448.92 Q1678.04 1461.36 1681.2 1467.6 Q1684.4 1473.79 1690.72 1473.79 Q1697.08 1473.79 1700.24 1467.6 Q1703.44 1461.36 1703.44 1448.92 Q1703.44 1436.44 1700.24 1430.25 Q1697.08 1424.01 1690.72 1424.01 M1690.72 1417.53 Q1700.89 1417.53 1706.23 1425.59 Q1711.62 1433.61 1711.62 1448.92 Q1711.62 1464.19 1706.23 1472.25 Q1700.89 1480.27 1690.72 1480.27 Q1680.55 1480.27 1675.16 1472.25 Q1669.82 1464.19 1669.82 1448.92 Q1669.82 1433.61 1675.16 1425.59 Q1680.55 1417.53 1690.72 1417.53 Z" fill="#000000" fill-rule="nonzero" fill-opacity="1" /><path clip-path="url(#clip680)" d="M1726 1468.81 L1734.55 1468.81 L1734.55 1479.1 L1726 1479.1 L1726 1468.81 Z" fill="#000000" fill-rule="nonzero" fill-opacity="1" /><path clip-path="url(#clip680)" d="M1770.89 1445.6 Q1765.38 1445.6 1762.14 1449.37 Q1758.94 1453.13 1758.94 1459.7 Q1758.94 1466.22 1762.14 1470.03 Q1765.38 1473.79 1770.89 1473.79 Q1776.4 1473.79 1779.6 1470.03 Q1782.84 1466.22 1782.84 1459.7 Q1782.84 1453.13 1779.6 1449.37 Q1776.4 1445.6 1770.89 1445.6 M1787.13 1419.96 L1787.13 1427.41 Q1784.05 1425.95 1780.89 1425.18 Q1777.77 1424.41 1774.69 1424.41 Q1766.59 1424.41 1762.3 1429.88 Q1758.04 1435.35 1757.44 1446.41 Q1759.83 1442.88 1763.43 1441.02 Q1767.04 1439.12 1771.37 1439.12 Q1780.49 1439.12 1785.75 1444.67 Q1791.06 1450.18 1791.06 1459.7 Q1791.06 1469.01 1785.55 1474.64 Q1780.04 1480.27 1770.89 1480.27 Q1760.39 1480.27 1754.84 1472.25 Q1749.29 1464.19 1749.29 1448.92 Q1749.29 1434.58 1756.1 1426.07 Q1762.91 1417.53 1774.37 1417.53 Q1777.45 1417.53 1780.57 1418.13 Q1783.73 1418.74 1787.13 1419.96 Z" fill="#000000" fill-rule="nonzero" fill-opacity="1" /><path clip-path="url(#clip680)" d="M2135.72 1424.01 Q2129.4 1424.01 2126.2 1430.25 Q2123.04 1436.44 2123.04 1448.92 Q2123.04 1461.36 2126.2 1467.6 Q2129.4 1473.79 2135.72 1473.79 Q2142.08 1473.79 2145.24 1467.6 Q2148.44 1461.36 2148.44 1448.92 Q2148.44 1436.44 2145.24 1430.25 Q2142.08 1424.01 2135.72 1424.01 M2135.72 1417.53 Q2145.89 1417.53 2151.24 1425.59 Q2156.62 1433.61 2156.62 1448.92 Q2156.62 1464.19 2151.24 1472.25 Q2145.89 1480.27 2135.72 1480.27 Q2125.55 1480.27 2120.17 1472.25 Q2114.82 1464.19 2114.82 1448.92 Q2114.82 1433.61 2120.17 1425.59 Q2125.55 1417.53 2135.72 1417.53 Z" fill="#000000" fill-rule="nonzero" fill-opacity="1" /><path clip-path="url(#clip680)" d="M2171 1468.81 L2179.55 1468.81 L2179.55 1479.1 L2171 1479.1 L2171 1468.81 Z" fill="#000000" fill-rule="nonzero" fill-opacity="1" /><path clip-path="url(#clip680)" d="M2214.88 1450.38 Q2209.04 1450.38 2205.68 1453.5 Q2202.36 1456.62 2202.36 1462.09 Q2202.36 1467.55 2205.68 1470.67 Q2209.04 1473.79 2214.88 1473.79 Q2220.71 1473.79 2224.07 1470.67 Q2227.43 1467.51 2227.43 1462.09 Q2227.43 1456.62 2224.07 1453.5 Q2220.75 1450.38 2214.88 1450.38 M2206.69 1446.9 Q2201.43 1445.6 2198.47 1441.99 Q2195.55 1438.39 2195.55 1433.2 Q2195.55 1425.95 2200.7 1421.74 Q2205.88 1417.53 2214.88 1417.53 Q2223.91 1417.53 2229.05 1421.74 Q2234.2 1425.95 2234.2 1433.2 Q2234.2 1438.39 2231.24 1441.99 Q2228.33 1445.6 2223.1 1446.9 Q2229.01 1448.27 2232.3 1452.28 Q2235.62 1456.29 2235.62 1462.09 Q2235.62 1470.88 2230.23 1475.58 Q2224.88 1480.27 2214.88 1480.27 Q2204.87 1480.27 2199.48 1475.58 Q2194.14 1470.88 2194.14 1462.09 Q2194.14 1456.29 2197.46 1452.28 Q2200.78 1448.27 2206.69 1446.9 M2203.7 1433.97 Q2203.7 1438.67 2206.61 1441.3 Q2209.57 1443.94 2214.88 1443.94 Q2220.14 1443.94 2223.1 1441.3 Q2226.1 1438.67 2226.1 1433.97 Q2226.1 1429.27 2223.1 1426.64 Q2220.14 1424.01 2214.88 1424.01 Q2209.57 1424.01 2206.61 1426.64 Q2203.7 1429.27 2203.7 1433.97 Z" fill="#000000" fill-rule="nonzero" fill-opacity="1" /><path clip-path="url(#clip680)" d="M989.899 1523.12 L1028.14 1523.12 L1028.14 1530 L998.082 1530 L998.082 1547.91 L1026.88 1547.91 L1026.88 1554.79 L998.082 1554.79 L998.082 1576.71 L1028.87 1576.71 L1028.87 1583.6 L989.899 1583.6 L989.899 1523.12 Z" fill="#000000" fill-rule="nonzero" fill-opacity="1" /><path clip-path="url(#clip680)" d="M1079.71 1538.23 L1063.3 1560.3 L1080.56 1583.6 L1071.77 1583.6 L1058.56 1565.77 L1045.36 1583.6 L1036.57 1583.6 L1054.19 1559.86 L1038.06 1538.23 L1046.85 1538.23 L1058.89 1554.39 L1070.92 1538.23 L1079.71 1538.23 Z" fill="#000000" fill-rule="nonzero" fill-opacity="1" /><path clip-path="url(#clip680)" d="M1122.28 1539.97 L1122.28 1546.94 Q1119.12 1545.19 1115.92 1544.34 Q1112.76 1543.45 1109.52 1543.45 Q1102.27 1543.45 1098.26 1548.07 Q1094.25 1552.65 1094.25 1560.95 Q1094.25 1569.26 1098.26 1573.87 Q1102.27 1578.45 1109.52 1578.45 Q1112.76 1578.45 1115.92 1577.6 Q1119.12 1576.71 1122.28 1574.97 L1122.28 1581.85 Q1119.16 1583.31 1115.8 1584.04 Q1112.48 1584.77 1108.71 1584.77 Q1098.46 1584.77 1092.43 1578.33 Q1086.39 1571.89 1086.39 1560.95 Q1086.39 1549.85 1092.47 1543.49 Q1098.58 1537.13 1109.2 1537.13 Q1112.64 1537.13 1115.92 1537.86 Q1119.2 1538.55 1122.28 1539.97 Z" fill="#000000" fill-rule="nonzero" fill-opacity="1" /><path clip-path="url(#clip680)" d="M1174.05 1559.05 L1174.05 1562.69 L1139.78 1562.69 Q1140.27 1570.39 1144.4 1574.44 Q1148.57 1578.45 1155.99 1578.45 Q1160.28 1578.45 1164.29 1577.4 Q1168.34 1576.34 1172.31 1574.24 L1172.31 1581.29 Q1168.3 1582.99 1164.09 1583.88 Q1159.88 1584.77 1155.54 1584.77 Q1144.68 1584.77 1138.32 1578.45 Q1132 1572.13 1132 1561.36 Q1132 1550.22 1138 1543.69 Q1144.04 1537.13 1154.24 1537.13 Q1163.4 1537.13 1168.71 1543.05 Q1174.05 1548.92 1174.05 1559.05 M1166.6 1556.86 Q1166.52 1550.74 1163.16 1547.1 Q1159.83 1543.45 1154.33 1543.45 Q1148.09 1543.45 1144.32 1546.98 Q1140.59 1550.5 1140.03 1556.9 L1166.6 1556.86 Z" fill="#000000" fill-rule="nonzero" fill-opacity="1" /><path clip-path="url(#clip680)" d="M1225.09 1559.05 L1225.09 1562.69 L1190.82 1562.69 Q1191.31 1570.39 1195.44 1574.44 Q1199.61 1578.45 1207.03 1578.45 Q1211.32 1578.45 1215.33 1577.4 Q1219.38 1576.34 1223.35 1574.24 L1223.35 1581.29 Q1219.34 1582.99 1215.13 1583.88 Q1210.92 1584.77 1206.58 1584.77 Q1195.73 1584.77 1189.37 1578.45 Q1183.05 1572.13 1183.05 1561.36 Q1183.05 1550.22 1189.04 1543.69 Q1195.08 1537.13 1205.29 1537.13 Q1214.44 1537.13 1219.75 1543.05 Q1225.09 1548.92 1225.09 1559.05 M1217.64 1556.86 Q1217.56 1550.74 1214.2 1547.1 Q1210.88 1543.45 1205.37 1543.45 Q1199.13 1543.45 1195.36 1546.98 Q1191.63 1550.5 1191.07 1556.9 L1217.64 1556.86 Z" fill="#000000" fill-rule="nonzero" fill-opacity="1" /><path clip-path="url(#clip680)" d="M1267.18 1545.11 L1267.18 1520.56 L1274.64 1520.56 L1274.64 1583.6 L1267.18 1583.6 L1267.18 1576.79 Q1264.83 1580.84 1261.23 1582.83 Q1257.66 1584.77 1252.64 1584.77 Q1244.42 1584.77 1239.23 1578.21 Q1234.09 1571.65 1234.09 1560.95 Q1234.09 1550.26 1239.23 1543.69 Q1244.42 1537.13 1252.64 1537.13 Q1257.66 1537.13 1261.23 1539.12 Q1264.83 1541.06 1267.18 1545.11 M1241.78 1560.95 Q1241.78 1569.17 1245.15 1573.87 Q1248.55 1578.53 1254.46 1578.53 Q1260.38 1578.53 1263.78 1573.87 Q1267.18 1569.17 1267.18 1560.95 Q1267.18 1552.73 1263.78 1548.07 Q1260.38 1543.37 1254.46 1543.37 Q1248.55 1543.37 1245.15 1548.07 Q1241.78 1552.73 1241.78 1560.95 Z" fill="#000000" fill-rule="nonzero" fill-opacity="1" /><path clip-path="url(#clip680)" d="M1310.61 1560.79 Q1301.58 1560.79 1298.09 1562.86 Q1294.61 1564.92 1294.61 1569.9 Q1294.61 1573.87 1297.2 1576.22 Q1299.83 1578.53 1304.33 1578.53 Q1310.53 1578.53 1314.26 1574.16 Q1318.02 1569.74 1318.02 1562.45 L1318.02 1560.79 L1310.61 1560.79 M1325.48 1557.71 L1325.48 1583.6 L1318.02 1583.6 L1318.02 1576.71 Q1315.47 1580.84 1311.66 1582.83 Q1307.85 1584.77 1302.35 1584.77 Q1295.38 1584.77 1291.25 1580.88 Q1287.15 1576.95 1287.15 1570.39 Q1287.15 1562.73 1292.26 1558.84 Q1297.4 1554.96 1307.57 1554.96 L1318.02 1554.96 L1318.02 1554.23 Q1318.02 1549.08 1314.62 1546.29 Q1311.26 1543.45 1305.14 1543.45 Q1301.25 1543.45 1297.57 1544.38 Q1293.88 1545.31 1290.48 1547.18 L1290.48 1540.29 Q1294.57 1538.71 1298.42 1537.94 Q1302.26 1537.13 1305.91 1537.13 Q1315.75 1537.13 1320.62 1542.24 Q1325.48 1547.34 1325.48 1557.71 Z" fill="#000000" fill-rule="nonzero" fill-opacity="1" /><path clip-path="url(#clip680)" d="M1378.54 1556.21 L1378.54 1583.6 L1371.09 1583.6 L1371.09 1556.45 Q1371.09 1550.01 1368.58 1546.81 Q1366.07 1543.61 1361.04 1543.61 Q1355.01 1543.61 1351.52 1547.46 Q1348.04 1551.31 1348.04 1557.95 L1348.04 1583.6 L1340.55 1583.6 L1340.55 1538.23 L1348.04 1538.23 L1348.04 1545.27 Q1350.71 1541.18 1354.32 1539.16 Q1357.96 1537.13 1362.7 1537.13 Q1370.52 1537.13 1374.53 1541.99 Q1378.54 1546.81 1378.54 1556.21 Z" fill="#000000" fill-rule="nonzero" fill-opacity="1" /><path clip-path="url(#clip680)" d="M1426.06 1539.97 L1426.06 1546.94 Q1422.9 1545.19 1419.7 1544.34 Q1416.54 1543.45 1413.3 1543.45 Q1406.05 1543.45 1402.04 1548.07 Q1398.03 1552.65 1398.03 1560.95 Q1398.03 1569.26 1402.04 1573.87 Q1406.05 1578.45 1413.3 1578.45 Q1416.54 1578.45 1419.7 1577.6 Q1422.9 1576.71 1426.06 1574.97 L1426.06 1581.85 Q1422.94 1583.31 1419.58 1584.04 Q1416.26 1584.77 1412.49 1584.77 Q1402.24 1584.77 1396.2 1578.33 Q1390.17 1571.89 1390.17 1560.95 Q1390.17 1549.85 1396.25 1543.49 Q1402.36 1537.13 1412.98 1537.13 Q1416.42 1537.13 1419.7 1537.86 Q1422.98 1538.55 1426.06 1539.97 Z" fill="#000000" fill-rule="nonzero" fill-opacity="1" /><path clip-path="url(#clip680)" d="M1477.83 1559.05 L1477.83 1562.69 L1443.56 1562.69 Q1444.05 1570.39 1448.18 1574.44 Q1452.35 1578.45 1459.76 1578.45 Q1464.06 1578.45 1468.07 1577.4 Q1472.12 1576.34 1476.09 1574.24 L1476.09 1581.29 Q1472.08 1582.99 1467.87 1583.88 Q1463.65 1584.77 1459.32 1584.77 Q1448.46 1584.77 1442.1 1578.45 Q1435.78 1572.13 1435.78 1561.36 Q1435.78 1550.22 1441.78 1543.69 Q1447.81 1537.13 1458.02 1537.13 Q1467.18 1537.13 1472.48 1543.05 Q1477.83 1548.92 1477.83 1559.05 M1470.38 1556.86 Q1470.3 1550.74 1466.93 1547.1 Q1463.61 1543.45 1458.1 1543.45 Q1451.86 1543.45 1448.1 1546.98 Q1444.37 1550.5 1443.8 1556.9 L1470.38 1556.86 Z" fill="#000000" fill-rule="nonzero" fill-opacity="1" /><path clip-path="url(#clip680)" d="M1534.34 1520.64 Q1528.91 1529.96 1526.28 1539.08 Q1523.65 1548.19 1523.65 1557.55 Q1523.65 1566.91 1526.28 1576.1 Q1528.95 1585.26 1534.34 1594.53 L1527.86 1594.53 Q1521.78 1585.01 1518.74 1575.82 Q1515.75 1566.62 1515.75 1557.55 Q1515.75 1548.52 1518.74 1539.36 Q1521.74 1530.2 1527.86 1520.64 L1534.34 1520.64 Z" fill="#000000" fill-rule="nonzero" fill-opacity="1" /><path clip-path="url(#clip680)" d="M1584.13 1546.94 Q1586.92 1541.91 1590.81 1539.52 Q1594.7 1537.13 1599.97 1537.13 Q1607.05 1537.13 1610.9 1542.11 Q1614.75 1547.06 1614.75 1556.21 L1614.75 1583.6 L1607.26 1583.6 L1607.26 1556.45 Q1607.26 1549.93 1604.95 1546.77 Q1602.64 1543.61 1597.9 1543.61 Q1592.11 1543.61 1588.74 1547.46 Q1585.38 1551.31 1585.38 1557.95 L1585.38 1583.6 L1577.89 1583.6 L1577.89 1556.45 Q1577.89 1549.89 1575.58 1546.77 Q1573.27 1543.61 1568.45 1543.61 Q1562.74 1543.61 1559.38 1547.5 Q1556.01 1551.35 1556.01 1557.95 L1556.01 1583.6 L1548.52 1583.6 L1548.52 1538.23 L1556.01 1538.23 L1556.01 1545.27 Q1558.57 1541.1 1562.13 1539.12 Q1565.69 1537.13 1570.6 1537.13 Q1575.54 1537.13 1578.98 1539.64 Q1582.47 1542.16 1584.13 1546.94 Z" fill="#000000" fill-rule="nonzero" fill-opacity="1" /><path clip-path="url(#clip680)" d="M1628.44 1520.64 L1634.92 1520.64 Q1641 1530.2 1644 1539.36 Q1647.04 1548.52 1647.04 1557.55 Q1647.04 1566.62 1644 1575.82 Q1641 1585.01 1634.92 1594.53 L1628.44 1594.53 Q1633.83 1585.26 1636.46 1576.1 Q1639.14 1566.91 1639.14 1557.55 Q1639.14 1548.19 1636.46 1539.08 Q1633.83 1529.96 1628.44 1520.64 Z" fill="#000000" fill-rule="nonzero" fill-opacity="1" /><polyline clip-path="url(#clip682)" style="stroke:#000000; stroke-linecap:round; stroke-linejoin:round; stroke-width:2; stroke-opacity:0.1; fill:none" points="284.18,1346.46 2352.76,1346.46 "/>
<polyline clip-path="url(#clip682)" style="stroke:#000000; stroke-linecap:round; stroke-linejoin:round; stroke-width:2; stroke-opacity:0.1; fill:none" points="284.18,1125.76 2352.76,1125.76 "/>
<polyline clip-path="url(#clip682)" style="stroke:#000000; stroke-linecap:round; stroke-linejoin:round; stroke-width:2; stroke-opacity:0.1; fill:none" points="284.18,905.056 2352.76,905.056 "/>
<polyline clip-path="url(#clip682)" style="stroke:#000000; stroke-linecap:round; stroke-linejoin:round; stroke-width:2; stroke-opacity:0.1; fill:none" points="284.18,684.355 2352.76,684.355 "/>
<polyline clip-path="url(#clip682)" style="stroke:#000000; stroke-linecap:round; stroke-linejoin:round; stroke-width:2; stroke-opacity:0.1; fill:none" points="284.18,463.654 2352.76,463.654 "/>
<polyline clip-path="url(#clip682)" style="stroke:#000000; stroke-linecap:round; stroke-linejoin:round; stroke-width:2; stroke-opacity:0.1; fill:none" points="284.18,242.953 2352.76,242.953 "/>
<polyline clip-path="url(#clip680)" style="stroke:#000000; stroke-linecap:round; stroke-linejoin:round; stroke-width:4; stroke-opacity:1; fill:none" points="284.18,1384.3 284.18,47.2441 "/>
<polyline clip-path="url(#clip680)" style="stroke:#000000; stroke-linecap:round; stroke-linejoin:round; stroke-width:4; stroke-opacity:1; fill:none" points="284.18,1346.46 303.078,1346.46 "/>
<polyline clip-path="url(#clip680)" style="stroke:#000000; stroke-linecap:round; stroke-linejoin:round; stroke-width:4; stroke-opacity:1; fill:none" points="284.18,1125.76 303.078,1125.76 "/>
<polyline clip-path="url(#clip680)" style="stroke:#000000; stroke-linecap:round; stroke-linejoin:round; stroke-width:4; stroke-opacity:1; fill:none" points="284.18,905.056 303.078,905.056 "/>
<polyline clip-path="url(#clip680)" style="stroke:#000000; stroke-linecap:round; stroke-linejoin:round; stroke-width:4; stroke-opacity:1; fill:none" points="284.18,684.355 303.078,684.355 "/>
<polyline clip-path="url(#clip680)" style="stroke:#000000; stroke-linecap:round; stroke-linejoin:round; stroke-width:4; stroke-opacity:1; fill:none" points="284.18,463.654 303.078,463.654 "/>
<polyline clip-path="url(#clip680)" style="stroke:#000000; stroke-linecap:round; stroke-linejoin:round; stroke-width:4; stroke-opacity:1; fill:none" points="284.18,242.953 303.078,242.953 "/>
<path clip-path="url(#clip680)" d="M148.123 1321.61 Q141.803 1321.61 138.603 1327.84 Q135.443 1334.04 135.443 1346.52 Q135.443 1358.96 138.603 1365.19 Q141.803 1371.39 148.123 1371.39 Q154.483 1371.39 157.642 1365.19 Q160.843 1358.96 160.843 1346.52 Q160.843 1334.04 157.642 1327.84 Q154.483 1321.61 148.123 1321.61 M148.123 1315.12 Q158.291 1315.12 163.638 1323.19 Q169.025 1331.21 169.025 1346.52 Q169.025 1361.79 163.638 1369.85 Q158.291 1377.87 148.123 1377.87 Q137.955 1377.87 132.567 1369.85 Q127.22 1361.79 127.22 1346.52 Q127.22 1331.21 132.567 1323.19 Q137.955 1315.12 148.123 1315.12 Z" fill="#000000" fill-rule="nonzero" fill-opacity="1" /><path clip-path="url(#clip680)" d="M183.406 1366.41 L191.954 1366.41 L191.954 1376.7 L183.406 1376.7 L183.406 1366.41 Z" fill="#000000" fill-rule="nonzero" fill-opacity="1" /><path clip-path="url(#clip680)" d="M227.277 1321.61 Q220.958 1321.61 217.758 1327.84 Q214.598 1334.04 214.598 1346.52 Q214.598 1358.96 217.758 1365.19 Q220.958 1371.39 227.277 1371.39 Q233.637 1371.39 236.797 1365.19 Q239.997 1358.96 239.997 1346.52 Q239.997 1334.04 236.797 1327.84 Q233.637 1321.61 227.277 1321.61 M227.277 1315.12 Q237.445 1315.12 242.792 1323.19 Q248.18 1331.21 248.18 1346.52 Q248.18 1361.79 242.792 1369.85 Q237.445 1377.87 227.277 1377.87 Q217.11 1377.87 211.722 1369.85 Q206.375 1361.79 206.375 1346.52 Q206.375 1331.21 211.722 1323.19 Q217.11 1315.12 227.277 1315.12 Z" fill="#000000" fill-rule="nonzero" fill-opacity="1" /><path clip-path="url(#clip680)" d="M149.865 1100.91 Q143.545 1100.91 140.345 1107.14 Q137.185 1113.34 137.185 1125.82 Q137.185 1138.25 140.345 1144.49 Q143.545 1150.69 149.865 1150.69 Q156.225 1150.69 159.384 1144.49 Q162.585 1138.25 162.585 1125.82 Q162.585 1113.34 159.384 1107.14 Q156.225 1100.91 149.865 1100.91 M149.865 1094.42 Q160.032 1094.42 165.38 1102.49 Q170.767 1110.51 170.767 1125.82 Q170.767 1141.09 165.38 1149.15 Q160.032 1157.17 149.865 1157.17 Q139.697 1157.17 134.309 1149.15 Q128.962 1141.09 128.962 1125.82 Q128.962 1110.51 134.309 1102.49 Q139.697 1094.42 149.865 1094.42 Z" fill="#000000" fill-rule="nonzero" fill-opacity="1" /><path clip-path="url(#clip680)" d="M185.148 1145.71 L193.695 1145.71 L193.695 1156 L185.148 1156 L185.148 1145.71 Z" fill="#000000" fill-rule="nonzero" fill-opacity="1" /><path clip-path="url(#clip680)" d="M211.6 1095.52 L243.724 1095.52 L243.724 1102.4 L219.095 1102.4 L219.095 1117.23 Q220.877 1116.62 222.659 1116.34 Q224.442 1116.02 226.224 1116.02 Q236.352 1116.02 242.266 1121.56 Q248.18 1127.11 248.18 1136.59 Q248.18 1146.36 242.104 1151.78 Q236.027 1157.17 224.968 1157.17 Q221.161 1157.17 217.191 1156.52 Q213.261 1155.88 209.048 1154.58 L209.048 1146.36 Q212.694 1148.34 216.583 1149.31 Q220.472 1150.29 224.806 1150.29 Q231.815 1150.29 235.906 1146.6 Q239.997 1142.91 239.997 1136.59 Q239.997 1130.27 235.906 1126.59 Q231.815 1122.9 224.806 1122.9 Q221.525 1122.9 218.244 1123.63 Q215.003 1124.36 211.6 1125.9 L211.6 1095.52 Z" fill="#000000" fill-rule="nonzero" fill-opacity="1" /><path clip-path="url(#clip680)" d="M132.041 928.41 L145.409 928.41 L145.409 882.27 L130.866 885.187 L130.866 877.733 L145.328 874.816 L153.511 874.816 L153.511 928.41 L166.879 928.41 L166.879 935.296 L132.041 935.296 L132.041 928.41 Z" fill="#000000" fill-rule="nonzero" fill-opacity="1" /><path clip-path="url(#clip680)" d="M183.406 925.007 L191.954 925.007 L191.954 935.296 L183.406 935.296 L183.406 925.007 Z" fill="#000000" fill-rule="nonzero" fill-opacity="1" /><path clip-path="url(#clip680)" d="M227.277 880.204 Q220.958 880.204 217.758 886.443 Q214.598 892.64 214.598 905.117 Q214.598 917.554 217.758 923.792 Q220.958 929.99 227.277 929.99 Q233.637 929.99 236.797 923.792 Q239.997 917.554 239.997 905.117 Q239.997 892.64 236.797 886.443 Q233.637 880.204 227.277 880.204 M227.277 873.723 Q237.445 873.723 242.792 881.784 Q248.18 889.805 248.18 905.117 Q248.18 920.389 242.792 928.45 Q237.445 936.471 227.277 936.471 Q217.11 936.471 211.722 928.45 Q206.375 920.389 206.375 905.117 Q206.375 889.805 211.722 881.784 Q217.11 873.723 227.277 873.723 Z" fill="#000000" fill-rule="nonzero" fill-opacity="1" /><path clip-path="url(#clip680)" d="M133.783 707.709 L147.151 707.709 L147.151 661.569 L132.608 664.486 L132.608 657.032 L147.07 654.115 L155.252 654.115 L155.252 707.709 L168.62 707.709 L168.62 714.595 L133.783 714.595 L133.783 707.709 Z" fill="#000000" fill-rule="nonzero" fill-opacity="1" /><path clip-path="url(#clip680)" d="M185.148 704.306 L193.695 704.306 L193.695 714.595 L185.148 714.595 L185.148 704.306 Z" fill="#000000" fill-rule="nonzero" fill-opacity="1" /><path clip-path="url(#clip680)" d="M211.6 654.115 L243.724 654.115 L243.724 661.002 L219.095 661.002 L219.095 675.828 Q220.877 675.221 222.659 674.937 Q224.442 674.613 226.224 674.613 Q236.352 674.613 242.266 680.163 Q248.18 685.712 248.18 695.192 Q248.18 704.954 242.104 710.382 Q236.027 715.77 224.968 715.77 Q221.161 715.77 217.191 715.122 Q213.261 714.474 209.048 713.178 L209.048 704.954 Q212.694 706.939 216.583 707.911 Q220.472 708.884 224.806 708.884 Q231.815 708.884 235.906 705.197 Q239.997 701.511 239.997 695.192 Q239.997 688.872 235.906 685.186 Q231.815 681.5 224.806 681.5 Q221.525 681.5 218.244 682.229 Q215.003 682.958 211.6 684.497 L211.6 654.115 Z" fill="#000000" fill-rule="nonzero" fill-opacity="1" /><path clip-path="url(#clip680)" d="M137.671 487.008 L166.23 487.008 L166.23 493.894 L127.828 493.894 L127.828 487.008 Q132.486 482.187 140.507 474.085 Q148.568 465.943 150.634 463.594 Q154.564 459.178 156.103 456.14 Q157.683 453.061 157.683 450.104 Q157.683 445.283 154.28 442.245 Q150.918 439.207 145.49 439.207 Q141.641 439.207 137.347 440.544 Q133.094 441.881 128.233 444.595 L128.233 436.331 Q133.175 434.346 137.469 433.333 Q141.763 432.321 145.328 432.321 Q154.726 432.321 160.316 437.02 Q165.906 441.719 165.906 449.577 Q165.906 453.304 164.488 456.667 Q163.111 459.988 159.425 464.525 Q158.412 465.7 152.984 471.331 Q147.556 476.921 137.671 487.008 Z" fill="#000000" fill-rule="nonzero" fill-opacity="1" /><path clip-path="url(#clip680)" d="M183.406 483.605 L191.954 483.605 L191.954 493.894 L183.406 493.894 L183.406 483.605 Z" fill="#000000" fill-rule="nonzero" fill-opacity="1" /><path clip-path="url(#clip680)" d="M227.277 438.802 Q220.958 438.802 217.758 445.04 Q214.598 451.238 214.598 463.715 Q214.598 476.151 217.758 482.39 Q220.958 488.588 227.277 488.588 Q233.637 488.588 236.797 482.39 Q239.997 476.151 239.997 463.715 Q239.997 451.238 236.797 445.04 Q233.637 438.802 227.277 438.802 M227.277 432.321 Q237.445 432.321 242.792 440.382 Q248.18 448.403 248.18 463.715 Q248.18 478.987 242.792 487.048 Q237.445 495.069 227.277 495.069 Q217.11 495.069 211.722 487.048 Q206.375 478.987 206.375 463.715 Q206.375 448.403 211.722 440.382 Q217.11 432.321 227.277 432.321 Z" fill="#000000" fill-rule="nonzero" fill-opacity="1" /><path clip-path="url(#clip680)" d="M139.413 266.307 L167.972 266.307 L167.972 273.193 L129.57 273.193 L129.57 266.307 Q134.228 261.486 142.249 253.384 Q150.31 245.242 152.376 242.893 Q156.306 238.477 157.845 235.439 Q159.425 232.36 159.425 229.403 Q159.425 224.582 156.022 221.544 Q152.66 218.506 147.232 218.506 Q143.383 218.506 139.089 219.843 Q134.836 221.18 129.975 223.894 L129.975 215.63 Q134.917 213.645 139.211 212.632 Q143.505 211.62 147.07 211.62 Q156.468 211.62 162.058 216.319 Q167.648 221.018 167.648 228.876 Q167.648 232.603 166.23 235.965 Q164.853 239.287 161.167 243.824 Q160.154 244.999 154.726 250.63 Q149.298 256.22 139.413 266.307 Z" fill="#000000" fill-rule="nonzero" fill-opacity="1" /><path clip-path="url(#clip680)" d="M185.148 262.904 L193.695 262.904 L193.695 273.193 L185.148 273.193 L185.148 262.904 Z" fill="#000000" fill-rule="nonzero" fill-opacity="1" /><path clip-path="url(#clip680)" d="M211.6 212.713 L243.724 212.713 L243.724 219.6 L219.095 219.6 L219.095 234.426 Q220.877 233.818 222.659 233.535 Q224.442 233.211 226.224 233.211 Q236.352 233.211 242.266 238.761 Q248.18 244.31 248.18 253.789 Q248.18 263.552 242.104 268.98 Q236.027 274.368 224.968 274.368 Q221.161 274.368 217.191 273.72 Q213.261 273.072 209.048 271.775 L209.048 263.552 Q212.694 265.537 216.583 266.509 Q220.472 267.481 224.806 267.481 Q231.815 267.481 235.906 263.795 Q239.997 260.109 239.997 253.789 Q239.997 247.47 235.906 243.784 Q231.815 240.097 224.806 240.097 Q221.525 240.097 218.244 240.827 Q215.003 241.556 211.6 243.095 L211.6 212.713 Z" fill="#000000" fill-rule="nonzero" fill-opacity="1" /><path clip-path="url(#clip680)" d="M19.3207 859.984 L66.3517 859.984 L66.3517 850.1 Q66.3517 837.583 60.6804 831.79 Q55.0091 825.957 42.7754 825.957 Q30.6227 825.957 24.9919 831.79 Q19.3207 837.583 19.3207 850.1 L19.3207 859.984 M12.5962 868.167 L12.5962 851.356 Q12.5962 833.775 19.9283 825.551 Q27.2199 817.328 42.7754 817.328 Q58.4119 817.328 65.744 825.592 Q73.0762 833.856 73.0762 851.356 L73.0762 868.167 L12.5962 868.167 Z" fill="#000000" fill-rule="nonzero" fill-opacity="1" /><path clip-path="url(#clip680)" d="M48.5277 765.801 L52.1735 765.801 L52.1735 800.071 Q59.8702 799.585 63.9211 795.453 Q67.9315 791.281 67.9315 783.868 Q67.9315 779.574 66.8783 775.563 Q65.825 771.512 63.7186 767.543 L70.7671 767.543 Q72.4685 771.553 73.3597 775.766 Q74.2509 779.979 74.2509 784.313 Q74.2509 795.17 67.9315 801.53 Q61.6121 807.849 50.8367 807.849 Q39.6967 807.849 33.1748 801.854 Q26.6123 795.818 26.6123 785.61 Q26.6123 776.455 32.5266 771.148 Q38.4004 765.801 48.5277 765.801 M46.3402 773.254 Q40.2233 773.335 36.5775 776.698 Q32.9317 780.019 32.9317 785.529 Q32.9317 791.767 36.456 795.534 Q39.9803 799.261 46.3807 799.828 L46.3402 773.254 Z" fill="#000000" fill-rule="nonzero" fill-opacity="1" /><path clip-path="url(#clip680)" d="M45.692 715.853 L73.0762 715.853 L73.0762 723.307 L45.9351 723.307 Q39.4942 723.307 36.2939 725.818 Q33.0937 728.33 33.0937 733.353 Q33.0937 739.389 36.9421 742.873 Q40.7905 746.356 47.4339 746.356 L73.0762 746.356 L73.0762 753.85 L27.706 753.85 L27.706 746.356 L34.7546 746.356 Q30.6632 743.683 28.6377 740.077 Q26.6123 736.432 26.6123 731.692 Q26.6123 723.874 31.4734 719.863 Q36.2939 715.853 45.692 715.853 Z" fill="#000000" fill-rule="nonzero" fill-opacity="1" /><path clip-path="url(#clip680)" d="M29.0428 672.063 L36.0914 672.063 Q34.471 675.222 33.6609 678.625 Q32.8507 682.028 32.8507 685.674 Q32.8507 691.223 34.5521 694.019 Q36.2534 696.773 39.6562 696.773 Q42.2488 696.773 43.7476 694.788 Q45.2059 692.803 46.5427 686.808 L47.1099 684.256 Q48.8112 676.316 51.9304 672.994 Q55.0091 669.632 60.5589 669.632 Q66.8783 669.632 70.5646 674.655 Q74.2509 679.638 74.2509 688.388 Q74.2509 692.034 73.5218 696.004 Q72.8331 699.933 71.4153 704.308 L63.7186 704.308 Q65.8655 700.176 66.9593 696.166 Q68.0125 692.155 68.0125 688.226 Q68.0125 682.96 66.2301 680.124 Q64.4072 677.288 61.126 677.288 Q58.0878 677.288 56.4675 679.354 Q54.8471 681.38 53.3483 688.307 L52.7406 690.899 Q51.2823 697.826 48.2846 700.905 Q45.2464 703.984 39.9803 703.984 Q33.5798 703.984 30.0961 699.447 Q26.6123 694.91 26.6123 686.565 Q26.6123 682.433 27.2199 678.787 Q27.8276 675.141 29.0428 672.063 Z" fill="#000000" fill-rule="nonzero" fill-opacity="1" /><path clip-path="url(#clip680)" d="M27.706 657.763 L27.706 650.309 L73.0762 650.309 L73.0762 657.763 L27.706 657.763 M10.0441 657.763 L10.0441 650.309 L19.4827 650.309 L19.4827 657.763 L10.0441 657.763 Z" fill="#000000" fill-rule="nonzero" fill-opacity="1" /><path clip-path="url(#clip680)" d="M14.8242 627.341 L27.706 627.341 L27.706 611.988 L33.4988 611.988 L33.4988 627.341 L58.1283 627.341 Q63.6781 627.341 65.2579 625.842 Q66.8378 624.303 66.8378 619.644 L66.8378 611.988 L73.0762 611.988 L73.0762 619.644 Q73.0762 628.272 69.8759 631.554 Q66.6352 634.835 58.1283 634.835 L33.4988 634.835 L33.4988 640.304 L27.706 640.304 L27.706 634.835 L14.8242 634.835 L14.8242 627.341 Z" fill="#000000" fill-rule="nonzero" fill-opacity="1" /><path clip-path="url(#clip680)" d="M77.2891 583.307 Q85.3909 586.467 87.862 589.465 Q90.333 592.462 90.333 597.486 L90.333 603.44 L84.0946 603.44 L84.0946 599.065 Q84.0946 595.987 82.6363 594.285 Q81.178 592.584 75.7498 590.518 L72.347 589.181 L27.706 607.532 L27.706 599.633 L63.192 585.454 L27.706 571.276 L27.706 563.377 L77.2891 583.307 Z" fill="#000000" fill-rule="nonzero" fill-opacity="1" /><path clip-path="url(#clip682)" d="M396.098 242.953 L396.098 1346.46 L840.878 1346.46 L840.878 242.953 L396.098 242.953 L396.098 242.953  Z" fill="#009af9" fill-rule="evenodd" fill-opacity="1"/>
<polyline clip-path="url(#clip682)" style="stroke:#000000; stroke-linecap:round; stroke-linejoin:round; stroke-width:4; stroke-opacity:1; fill:none" points="396.098,242.953 396.098,1346.46 840.878,1346.46 840.878,242.953 396.098,242.953 "/>
<path clip-path="url(#clip682)" d="M840.878 684.355 L840.878 1346.46 L1285.66 1346.46 L1285.66 684.355 L840.878 684.355 L840.878 684.355  Z" fill="#009af9" fill-rule="evenodd" fill-opacity="1"/>
<polyline clip-path="url(#clip682)" style="stroke:#000000; stroke-linecap:round; stroke-linejoin:round; stroke-width:4; stroke-opacity:1; fill:none" points="840.878,684.355 840.878,1346.46 1285.66,1346.46 1285.66,684.355 840.878,684.355 "/>
<path clip-path="url(#clip682)" d="M1285.66 1125.76 L1285.66 1346.46 L1730.44 1346.46 L1730.44 1125.76 L1285.66 1125.76 L1285.66 1125.76  Z" fill="#009af9" fill-rule="evenodd" fill-opacity="1"/>
<polyline clip-path="url(#clip682)" style="stroke:#000000; stroke-linecap:round; stroke-linejoin:round; stroke-width:4; stroke-opacity:1; fill:none" points="1285.66,1125.76 1285.66,1346.46 1730.44,1346.46 1730.44,1125.76 1285.66,1125.76 "/>
<path clip-path="url(#clip682)" d="M1730.44 1125.76 L1730.44 1346.46 L2175.22 1346.46 L2175.22 1125.76 L1730.44 1125.76 L1730.44 1125.76  Z" fill="#009af9" fill-rule="evenodd" fill-opacity="1"/>
<polyline clip-path="url(#clip682)" style="stroke:#000000; stroke-linecap:round; stroke-linejoin:round; stroke-width:4; stroke-opacity:1; fill:none" points="1730.44,1125.76 1730.44,1346.46 2175.22,1346.46 2175.22,1125.76 1730.44,1125.76 "/>
<circle clip-path="url(#clip682)" style="fill:#009af9; stroke:none; fill-opacity:0" cx="618.488" cy="242.953" r="2"/>
<circle clip-path="url(#clip682)" style="fill:#009af9; stroke:none; fill-opacity:0" cx="1063.27" cy="684.355" r="2"/>
<circle clip-path="url(#clip682)" style="fill:#009af9; stroke:none; fill-opacity:0" cx="1508.05" cy="1125.76" r="2"/>
<circle clip-path="url(#clip682)" style="fill:#009af9; stroke:none; fill-opacity:0" cx="1952.83" cy="1125.76" r="2"/>
<polyline clip-path="url(#clip682)" style="stroke:#e26f46; stroke-linecap:round; stroke-linejoin:round; stroke-width:8; stroke-opacity:1; fill:none" points="396.098,85.0853 408.456,96.886 522.721,204.378 591.39,267.538 649.448,320.076 712.516,376.23 770.659,427.137 832.995,480.774 905.216,541.671 969.398,594.637 1025.68,640.167 1087.04,688.804 1148.77,736.648 1217.02,788.241 1281.95,836.017 1349.47,884.284 1406.31,923.761 1475.7,970.469 1539.26,1011.76 1597.97,1048.57 1657.44,1084.48 1724.09,1123.02 1784.48,1156.27 1853.63,1192.26 1917.65,1223.45 1980.77,1251.99 2042.05,1277.38 2073.47,1289.42 2104.88,1300.72 2139.29,1312.19 2173.71,1322.59 2223.7,1335.42 2273.7,1344.59 2283.95,1345.77 2294.21,1346.46 "/>
<path clip-path="url(#clip680)" d="M645.078 325.093 L2283.8 325.093 L2283.8 91.8126 L645.078 91.8126  Z" fill="#ffffff" fill-rule="evenodd" fill-opacity="1"/>
<polyline clip-path="url(#clip680)" style="stroke:#000000; stroke-linecap:round; stroke-linejoin:round; stroke-width:4; stroke-opacity:1; fill:none" points="645.078,325.093 2283.8,325.093 2283.8,91.8126 645.078,91.8126 645.078,325.093 "/>
<path clip-path="url(#clip680)" d="M668.063 200.677 L805.968 200.677 L805.968 138.469 L668.063 138.469 L668.063 200.677  Z" fill="#009af9" fill-rule="evenodd" fill-opacity="1"/>
<polyline clip-path="url(#clip680)" style="stroke:#000000; stroke-linecap:round; stroke-linejoin:round; stroke-width:6; stroke-opacity:1; fill:none" points="668.063,200.677 805.968,200.677 805.968,138.469 668.063,138.469 668.063,200.677 "/>
<path clip-path="url(#clip680)" d="M867.285 188.097 L867.285 174.173 L855.827 174.173 L855.827 168.409 L874.229 168.409 L874.229 190.666 Q870.167 193.548 865.271 195.041 Q860.375 196.5 854.82 196.5 Q842.667 196.5 835.792 189.416 Q828.952 182.298 828.952 169.625 Q828.952 156.916 835.792 149.833 Q842.667 142.715 854.82 142.715 Q859.889 142.715 864.438 143.965 Q869.021 145.215 872.875 147.646 L872.875 155.111 Q868.986 151.812 864.611 150.146 Q860.236 148.479 855.41 148.479 Q845.896 148.479 841.105 153.791 Q836.348 159.104 836.348 169.625 Q836.348 180.111 841.105 185.423 Q845.896 190.736 855.41 190.736 Q859.125 190.736 862.042 190.111 Q864.959 189.451 867.285 188.097 Z" fill="#000000" fill-rule="nonzero" fill-opacity="1" /><path clip-path="url(#clip680)" d="M904.438 175.944 Q896.695 175.944 893.708 177.715 Q890.722 179.486 890.722 183.757 Q890.722 187.159 892.945 189.173 Q895.202 191.152 899.056 191.152 Q904.368 191.152 907.563 187.402 Q910.792 183.618 910.792 177.368 L910.792 175.944 L904.438 175.944 M917.181 173.305 L917.181 195.493 L910.792 195.493 L910.792 189.59 Q908.604 193.132 905.34 194.833 Q902.076 196.5 897.354 196.5 Q891.382 196.5 887.84 193.166 Q884.334 189.798 884.334 184.173 Q884.334 177.611 888.709 174.277 Q893.118 170.944 901.833 170.944 L910.792 170.944 L910.792 170.319 Q910.792 165.909 907.875 163.514 Q904.993 161.083 899.75 161.083 Q896.417 161.083 893.257 161.882 Q890.097 162.68 887.181 164.278 L887.181 158.375 Q890.688 157.021 893.986 156.361 Q897.285 155.666 900.41 155.666 Q908.847 155.666 913.014 160.041 Q917.181 164.416 917.181 173.305 Z" fill="#000000" fill-rule="nonzero" fill-opacity="1" /><path clip-path="url(#clip680)" d="M929.681 180.145 L929.681 156.604 L936.069 156.604 L936.069 179.902 Q936.069 185.423 938.222 188.201 Q940.375 190.944 944.68 190.944 Q949.854 190.944 952.84 187.645 Q955.861 184.347 955.861 178.652 L955.861 156.604 L962.25 156.604 L962.25 195.493 L955.861 195.493 L955.861 189.52 Q953.535 193.062 950.444 194.798 Q947.389 196.5 943.326 196.5 Q936.625 196.5 933.153 192.333 Q929.681 188.166 929.681 180.145 M945.757 155.666 L945.757 155.666 Z" fill="#000000" fill-rule="nonzero" fill-opacity="1" /><path clip-path="url(#clip680)" d="M1001 175.597 Q1001 168.652 998.118 164.833 Q995.27 161.014 990.097 161.014 Q984.958 161.014 982.076 164.833 Q979.229 168.652 979.229 175.597 Q979.229 182.507 982.076 186.326 Q984.958 190.145 990.097 190.145 Q995.27 190.145 998.118 186.326 Q1001 182.507 1001 175.597 M1007.39 190.666 Q1007.39 200.597 1002.98 205.423 Q998.569 210.284 989.472 210.284 Q986.104 210.284 983.118 209.763 Q980.132 209.277 977.319 208.236 L977.319 202.02 Q980.132 203.548 982.875 204.277 Q985.618 205.006 988.465 205.006 Q994.75 205.006 997.875 201.708 Q1001 198.444 1001 191.812 L1001 188.652 Q999.02 192.09 995.93 193.791 Q992.84 195.493 988.534 195.493 Q981.382 195.493 977.007 190.041 Q972.632 184.59 972.632 175.597 Q972.632 166.569 977.007 161.118 Q981.382 155.666 988.534 155.666 Q992.84 155.666 995.93 157.368 Q999.02 159.069 1001 162.507 L1001 156.604 L1007.39 156.604 L1007.39 190.666 Z" fill="#000000" fill-rule="nonzero" fill-opacity="1" /><path clip-path="url(#clip680)" d="M1053.81 174.451 L1053.81 177.576 L1024.44 177.576 Q1024.85 184.173 1028.4 187.645 Q1031.97 191.083 1038.33 191.083 Q1042.01 191.083 1045.44 190.18 Q1048.92 189.277 1052.32 187.472 L1052.32 193.513 Q1048.88 194.972 1045.27 195.736 Q1041.66 196.5 1037.94 196.5 Q1028.64 196.5 1023.19 191.083 Q1017.77 185.666 1017.77 176.43 Q1017.77 166.882 1022.91 161.291 Q1028.08 155.666 1036.83 155.666 Q1044.68 155.666 1049.23 160.736 Q1053.81 165.771 1053.81 174.451 M1047.42 172.576 Q1047.35 167.333 1044.47 164.208 Q1041.62 161.083 1036.9 161.083 Q1031.55 161.083 1028.33 164.104 Q1025.13 167.125 1024.65 172.611 L1047.42 172.576 Z" fill="#000000" fill-rule="nonzero" fill-opacity="1" /><path clip-path="url(#clip680)" d="M1082.56 143.653 L1089.64 143.653 L1100.55 187.472 L1111.42 143.653 L1119.3 143.653 L1130.2 187.472 L1141.07 143.653 L1148.19 143.653 L1135.17 195.493 L1126.35 195.493 L1115.41 150.493 L1104.37 195.493 L1095.55 195.493 L1082.56 143.653 Z" fill="#000000" fill-rule="nonzero" fill-opacity="1" /><path clip-path="url(#clip680)" d="M1186.31 174.451 L1186.31 177.576 L1156.94 177.576 Q1157.35 184.173 1160.89 187.645 Q1164.47 191.083 1170.83 191.083 Q1174.51 191.083 1177.94 190.18 Q1181.42 189.277 1184.82 187.472 L1184.82 193.513 Q1181.38 194.972 1177.77 195.736 Q1174.16 196.5 1170.44 196.5 Q1161.14 196.5 1155.69 191.083 Q1150.27 185.666 1150.27 176.43 Q1150.27 166.882 1155.41 161.291 Q1160.58 155.666 1169.33 155.666 Q1177.18 155.666 1181.73 160.736 Q1186.31 165.771 1186.31 174.451 M1179.92 172.576 Q1179.85 167.333 1176.97 164.208 Q1174.12 161.083 1169.4 161.083 Q1164.05 161.083 1160.83 164.104 Q1157.63 167.125 1157.14 172.611 L1179.92 172.576 Z" fill="#000000" fill-rule="nonzero" fill-opacity="1" /><path clip-path="url(#clip680)" d="M1214.47 175.944 Q1206.73 175.944 1203.74 177.715 Q1200.76 179.486 1200.76 183.757 Q1200.76 187.159 1202.98 189.173 Q1205.23 191.152 1209.09 191.152 Q1214.4 191.152 1217.6 187.402 Q1220.82 183.618 1220.82 177.368 L1220.82 175.944 L1214.47 175.944 M1227.21 173.305 L1227.21 195.493 L1220.82 195.493 L1220.82 189.59 Q1218.64 193.132 1215.37 194.833 Q1212.11 196.5 1207.39 196.5 Q1201.42 196.5 1197.87 193.166 Q1194.37 189.798 1194.37 184.173 Q1194.37 177.611 1198.74 174.277 Q1203.15 170.944 1211.87 170.944 L1220.82 170.944 L1220.82 170.319 Q1220.82 165.909 1217.91 163.514 Q1215.03 161.083 1209.78 161.083 Q1206.45 161.083 1203.29 161.882 Q1200.13 162.68 1197.21 164.278 L1197.21 158.375 Q1200.72 157.021 1204.02 156.361 Q1207.32 155.666 1210.44 155.666 Q1218.88 155.666 1223.05 160.041 Q1227.21 164.416 1227.21 173.305 Z" fill="#000000" fill-rule="nonzero" fill-opacity="1" /><path clip-path="url(#clip680)" d="M1246.69 145.562 L1246.69 156.604 L1259.85 156.604 L1259.85 161.569 L1246.69 161.569 L1246.69 182.68 Q1246.69 187.437 1247.98 188.791 Q1249.3 190.145 1253.29 190.145 L1259.85 190.145 L1259.85 195.493 L1253.29 195.493 Q1245.89 195.493 1243.08 192.75 Q1240.27 189.972 1240.27 182.68 L1240.27 161.569 L1235.58 161.569 L1235.58 156.604 L1240.27 156.604 L1240.27 145.562 L1246.69 145.562 Z" fill="#000000" fill-rule="nonzero" fill-opacity="1" /><path clip-path="url(#clip680)" d="M1300.58 172.021 L1300.58 195.493 L1294.19 195.493 L1294.19 172.229 Q1294.19 166.708 1292.04 163.965 Q1289.89 161.222 1285.58 161.222 Q1280.41 161.222 1277.42 164.521 Q1274.44 167.819 1274.44 173.514 L1274.44 195.493 L1268.01 195.493 L1268.01 141.465 L1274.44 141.465 L1274.44 162.646 Q1276.73 159.139 1279.82 157.403 Q1282.94 155.666 1287 155.666 Q1293.71 155.666 1297.14 159.833 Q1300.58 163.965 1300.58 172.021 Z" fill="#000000" fill-rule="nonzero" fill-opacity="1" /><path clip-path="url(#clip680)" d="M1346.59 174.451 L1346.59 177.576 L1317.21 177.576 Q1317.63 184.173 1321.17 187.645 Q1324.75 191.083 1331.1 191.083 Q1334.78 191.083 1338.22 190.18 Q1341.69 189.277 1345.09 187.472 L1345.09 193.513 Q1341.66 194.972 1338.05 195.736 Q1334.44 196.5 1330.72 196.5 Q1321.41 196.5 1315.96 191.083 Q1310.55 185.666 1310.55 176.43 Q1310.55 166.882 1315.69 161.291 Q1320.86 155.666 1329.61 155.666 Q1337.46 155.666 1342 160.736 Q1346.59 165.771 1346.59 174.451 M1340.2 172.576 Q1340.13 167.333 1337.25 164.208 Q1334.4 161.083 1329.68 161.083 Q1324.33 161.083 1321.1 164.104 Q1317.91 167.125 1317.42 172.611 L1340.2 172.576 Z" fill="#000000" fill-rule="nonzero" fill-opacity="1" /><path clip-path="url(#clip680)" d="M1379.61 162.576 Q1378.53 161.951 1377.25 161.673 Q1376 161.361 1374.47 161.361 Q1369.05 161.361 1366.14 164.903 Q1363.25 168.409 1363.25 175.007 L1363.25 195.493 L1356.83 195.493 L1356.83 156.604 L1363.25 156.604 L1363.25 162.646 Q1365.27 159.104 1368.5 157.403 Q1371.73 155.666 1376.34 155.666 Q1377 155.666 1377.8 155.771 Q1378.6 155.84 1379.57 156.014 L1379.61 162.576 Z" fill="#000000" fill-rule="nonzero" fill-opacity="1" /><path clip-path="url(#clip680)" d="M1409.19 143.653 L1441.97 143.653 L1441.97 149.555 L1416.21 149.555 L1416.21 164.903 L1440.89 164.903 L1440.89 170.805 L1416.21 170.805 L1416.21 189.59 L1442.59 189.59 L1442.59 195.493 L1409.19 195.493 L1409.19 143.653 Z" fill="#000000" fill-rule="nonzero" fill-opacity="1" /><path clip-path="url(#clip680)" d="M1486.17 156.604 L1472.11 175.527 L1486.9 195.493 L1479.37 195.493 L1468.05 180.215 L1456.73 195.493 L1449.19 195.493 L1464.3 175.146 L1450.48 156.604 L1458.01 156.604 L1468.32 170.458 L1478.64 156.604 L1486.17 156.604 Z" fill="#000000" fill-rule="nonzero" fill-opacity="1" /><path clip-path="url(#clip680)" d="M1522.66 158.097 L1522.66 164.069 Q1519.96 162.576 1517.21 161.847 Q1514.5 161.083 1511.73 161.083 Q1505.51 161.083 1502.07 165.041 Q1498.64 168.965 1498.64 176.083 Q1498.64 183.201 1502.07 187.159 Q1505.51 191.083 1511.73 191.083 Q1514.5 191.083 1517.21 190.354 Q1519.96 189.59 1522.66 188.097 L1522.66 194 Q1519.99 195.25 1517.11 195.875 Q1514.26 196.5 1511.03 196.5 Q1502.25 196.5 1497.07 190.979 Q1491.9 185.458 1491.9 176.083 Q1491.9 166.569 1497.11 161.118 Q1502.35 155.666 1511.45 155.666 Q1514.4 155.666 1517.21 156.291 Q1520.02 156.882 1522.66 158.097 Z" fill="#000000" fill-rule="nonzero" fill-opacity="1" /><path clip-path="url(#clip680)" d="M1567.04 174.451 L1567.04 177.576 L1537.66 177.576 Q1538.08 184.173 1541.62 187.645 Q1545.2 191.083 1551.55 191.083 Q1555.23 191.083 1558.67 190.18 Q1562.14 189.277 1565.55 187.472 L1565.55 193.513 Q1562.11 194.972 1558.5 195.736 Q1554.89 196.5 1551.17 196.5 Q1541.86 196.5 1536.41 191.083 Q1531 185.666 1531 176.43 Q1531 166.882 1536.14 161.291 Q1541.31 155.666 1550.06 155.666 Q1557.91 155.666 1562.45 160.736 Q1567.04 165.771 1567.04 174.451 M1560.65 172.576 Q1560.58 167.333 1557.7 164.208 Q1554.85 161.083 1550.13 161.083 Q1544.78 161.083 1541.55 164.104 Q1538.36 167.125 1537.87 172.611 L1560.65 172.576 Z" fill="#000000" fill-rule="nonzero" fill-opacity="1" /><path clip-path="url(#clip680)" d="M1610.79 174.451 L1610.79 177.576 L1581.41 177.576 Q1581.83 184.173 1585.37 187.645 Q1588.95 191.083 1595.3 191.083 Q1598.98 191.083 1602.42 190.18 Q1605.89 189.277 1609.29 187.472 L1609.29 193.513 Q1605.86 194.972 1602.25 195.736 Q1598.64 196.5 1594.92 196.5 Q1585.61 196.5 1580.16 191.083 Q1574.75 185.666 1574.75 176.43 Q1574.75 166.882 1579.89 161.291 Q1585.06 155.666 1593.81 155.666 Q1601.66 155.666 1606.2 160.736 Q1610.79 165.771 1610.79 174.451 M1604.4 172.576 Q1604.33 167.333 1601.45 164.208 Q1598.6 161.083 1593.88 161.083 Q1588.53 161.083 1585.3 164.104 Q1582.11 167.125 1581.62 172.611 L1604.4 172.576 Z" fill="#000000" fill-rule="nonzero" fill-opacity="1" /><path clip-path="url(#clip680)" d="M1646.86 162.507 L1646.86 141.465 L1653.25 141.465 L1653.25 195.493 L1646.86 195.493 L1646.86 189.659 Q1644.85 193.132 1641.76 194.833 Q1638.7 196.5 1634.4 196.5 Q1627.35 196.5 1622.91 190.875 Q1618.5 185.25 1618.5 176.083 Q1618.5 166.916 1622.91 161.291 Q1627.35 155.666 1634.4 155.666 Q1638.7 155.666 1641.76 157.368 Q1644.85 159.034 1646.86 162.507 M1625.09 176.083 Q1625.09 183.132 1627.98 187.159 Q1630.89 191.152 1635.96 191.152 Q1641.03 191.152 1643.95 187.159 Q1646.86 183.132 1646.86 176.083 Q1646.86 169.034 1643.95 165.041 Q1641.03 161.014 1635.96 161.014 Q1630.89 161.014 1627.98 165.041 Q1625.09 169.034 1625.09 176.083 Z" fill="#000000" fill-rule="nonzero" fill-opacity="1" /><path clip-path="url(#clip680)" d="M1684.09 175.944 Q1676.34 175.944 1673.36 177.715 Q1670.37 179.486 1670.37 183.757 Q1670.37 187.159 1672.59 189.173 Q1674.85 191.152 1678.7 191.152 Q1684.02 191.152 1687.21 187.402 Q1690.44 183.618 1690.44 177.368 L1690.44 175.944 L1684.09 175.944 M1696.83 173.305 L1696.83 195.493 L1690.44 195.493 L1690.44 189.59 Q1688.25 193.132 1684.99 194.833 Q1681.73 196.5 1677 196.5 Q1671.03 196.5 1667.49 193.166 Q1663.98 189.798 1663.98 184.173 Q1663.98 177.611 1668.36 174.277 Q1672.77 170.944 1681.48 170.944 L1690.44 170.944 L1690.44 170.319 Q1690.44 165.909 1687.52 163.514 Q1684.64 161.083 1679.4 161.083 Q1676.07 161.083 1672.91 161.882 Q1669.75 162.68 1666.83 164.278 L1666.83 158.375 Q1670.34 157.021 1673.63 156.361 Q1676.93 155.666 1680.06 155.666 Q1688.5 155.666 1692.66 160.041 Q1696.83 164.416 1696.83 173.305 Z" fill="#000000" fill-rule="nonzero" fill-opacity="1" /><path clip-path="url(#clip680)" d="M1742.32 172.021 L1742.32 195.493 L1735.93 195.493 L1735.93 172.229 Q1735.93 166.708 1733.77 163.965 Q1731.62 161.222 1727.32 161.222 Q1722.14 161.222 1719.16 164.521 Q1716.17 167.819 1716.17 173.514 L1716.17 195.493 L1709.75 195.493 L1709.75 156.604 L1716.17 156.604 L1716.17 162.646 Q1718.46 159.139 1721.55 157.403 Q1724.68 155.666 1728.74 155.666 Q1735.44 155.666 1738.88 159.833 Q1742.32 163.965 1742.32 172.021 Z" fill="#000000" fill-rule="nonzero" fill-opacity="1" /><path clip-path="url(#clip680)" d="M1783.04 158.097 L1783.04 164.069 Q1780.34 162.576 1777.59 161.847 Q1774.88 161.083 1772.11 161.083 Q1765.89 161.083 1762.45 165.041 Q1759.02 168.965 1759.02 176.083 Q1759.02 183.201 1762.45 187.159 Q1765.89 191.083 1772.11 191.083 Q1774.88 191.083 1777.59 190.354 Q1780.34 189.59 1783.04 188.097 L1783.04 194 Q1780.37 195.25 1777.49 195.875 Q1774.64 196.5 1771.41 196.5 Q1762.63 196.5 1757.45 190.979 Q1752.28 185.458 1752.28 176.083 Q1752.28 166.569 1757.49 161.118 Q1762.73 155.666 1771.83 155.666 Q1774.78 155.666 1777.59 156.291 Q1780.41 156.882 1783.04 158.097 Z" fill="#000000" fill-rule="nonzero" fill-opacity="1" /><path clip-path="url(#clip680)" d="M1827.42 174.451 L1827.42 177.576 L1798.04 177.576 Q1798.46 184.173 1802 187.645 Q1805.58 191.083 1811.93 191.083 Q1815.61 191.083 1819.05 190.18 Q1822.52 189.277 1825.93 187.472 L1825.93 193.513 Q1822.49 194.972 1818.88 195.736 Q1815.27 196.5 1811.55 196.5 Q1802.25 196.5 1796.79 191.083 Q1791.38 185.666 1791.38 176.43 Q1791.38 166.882 1796.52 161.291 Q1801.69 155.666 1810.44 155.666 Q1818.29 155.666 1822.84 160.736 Q1827.42 165.771 1827.42 174.451 M1821.03 172.576 Q1820.96 167.333 1818.08 164.208 Q1815.23 161.083 1810.51 161.083 Q1805.16 161.083 1801.93 164.104 Q1798.74 167.125 1798.25 172.611 L1821.03 172.576 Z" fill="#000000" fill-rule="nonzero" fill-opacity="1" /><path clip-path="url(#clip680)" d="M1862.7 157.75 L1862.7 163.791 Q1859.99 162.403 1857.07 161.708 Q1854.15 161.014 1851.03 161.014 Q1846.27 161.014 1843.88 162.472 Q1841.52 163.93 1841.52 166.847 Q1841.52 169.069 1843.22 170.354 Q1844.92 171.604 1850.06 172.75 L1852.25 173.236 Q1859.05 174.694 1861.9 177.368 Q1864.78 180.007 1864.78 184.764 Q1864.78 190.18 1860.47 193.34 Q1856.2 196.5 1848.7 196.5 Q1845.58 196.5 1842.18 195.875 Q1838.81 195.284 1835.06 194.069 L1835.06 187.472 Q1838.6 189.312 1842.04 190.25 Q1845.47 191.152 1848.84 191.152 Q1853.36 191.152 1855.79 189.625 Q1858.22 188.062 1858.22 185.25 Q1858.22 182.645 1856.45 181.257 Q1854.71 179.868 1848.77 178.583 L1846.55 178.062 Q1840.61 176.812 1837.97 174.243 Q1835.34 171.639 1835.34 167.125 Q1835.34 161.639 1839.22 158.653 Q1843.11 155.666 1850.27 155.666 Q1853.81 155.666 1856.93 156.187 Q1860.06 156.708 1862.7 157.75 Z" fill="#000000" fill-rule="nonzero" fill-opacity="1" /><path clip-path="url(#clip680)" d="M1918.88 148.41 Q1911.24 148.41 1906.72 154.104 Q1902.24 159.798 1902.24 169.625 Q1902.24 179.416 1906.72 185.111 Q1911.24 190.805 1918.88 190.805 Q1926.52 190.805 1930.96 185.111 Q1935.44 179.416 1935.44 169.625 Q1935.44 159.798 1930.96 154.104 Q1926.52 148.41 1918.88 148.41 M1918.88 142.715 Q1929.78 142.715 1936.31 150.041 Q1942.83 157.333 1942.83 169.625 Q1942.83 181.882 1936.31 189.208 Q1929.78 196.5 1918.88 196.5 Q1907.94 196.5 1901.38 189.208 Q1894.85 181.916 1894.85 169.625 Q1894.85 157.333 1901.38 150.041 Q1907.94 142.715 1918.88 142.715 Z" fill="#000000" fill-rule="nonzero" fill-opacity="1" /><path clip-path="url(#clip680)" d="M1948.95 156.604 L1955.72 156.604 L1967.87 189.243 L1980.02 156.604 L1986.79 156.604 L1972.21 195.493 L1963.53 195.493 L1948.95 156.604 Z" fill="#000000" fill-rule="nonzero" fill-opacity="1" /><path clip-path="url(#clip680)" d="M2028.88 174.451 L2028.88 177.576 L1999.5 177.576 Q1999.92 184.173 2003.46 187.645 Q2007.04 191.083 2013.39 191.083 Q2017.07 191.083 2020.51 190.18 Q2023.98 189.277 2027.38 187.472 L2027.38 193.513 Q2023.95 194.972 2020.33 195.736 Q2016.72 196.5 2013.01 196.5 Q2003.7 196.5 1998.25 191.083 Q1992.83 185.666 1992.83 176.43 Q1992.83 166.882 1997.97 161.291 Q2003.15 155.666 2011.9 155.666 Q2019.74 155.666 2024.29 160.736 Q2028.88 165.771 2028.88 174.451 M2022.49 172.576 Q2022.42 167.333 2019.54 164.208 Q2016.69 161.083 2011.97 161.083 Q2006.62 161.083 2003.39 164.104 Q2000.2 167.125 1999.71 172.611 L2022.49 172.576 Z" fill="#000000" fill-rule="nonzero" fill-opacity="1" /><path clip-path="url(#clip680)" d="M2061.9 162.576 Q2060.82 161.951 2059.54 161.673 Q2058.29 161.361 2056.76 161.361 Q2051.34 161.361 2048.42 164.903 Q2045.54 168.409 2045.54 175.007 L2045.54 195.493 L2039.12 195.493 L2039.12 156.604 L2045.54 156.604 L2045.54 162.646 Q2047.56 159.104 2050.79 157.403 Q2054.01 155.666 2058.63 155.666 Q2059.29 155.666 2060.09 155.771 Q2060.89 155.84 2061.86 156.014 L2061.9 162.576 Z" fill="#000000" fill-rule="nonzero" fill-opacity="1" /><path clip-path="url(#clip680)" d="M2107.1 148.271 Q2101.69 148.271 2098.95 153.618 Q2096.24 158.93 2096.24 169.625 Q2096.24 180.284 2098.95 185.632 Q2101.69 190.944 2107.1 190.944 Q2112.56 190.944 2115.26 185.632 Q2118.01 180.284 2118.01 169.625 Q2118.01 158.93 2115.26 153.618 Q2112.56 148.271 2107.1 148.271 M2107.1 142.715 Q2115.82 142.715 2120.4 149.625 Q2125.02 156.5 2125.02 169.625 Q2125.02 182.715 2120.4 189.625 Q2115.82 196.5 2107.1 196.5 Q2098.39 196.5 2093.77 189.625 Q2089.19 182.715 2089.19 169.625 Q2089.19 156.5 2093.77 149.625 Q2098.39 142.715 2107.1 142.715 Z" fill="#000000" fill-rule="nonzero" fill-opacity="1" /><path clip-path="url(#clip680)" d="M2137.35 186.673 L2144.67 186.673 L2144.67 195.493 L2137.35 195.493 L2137.35 186.673 Z" fill="#000000" fill-rule="nonzero" fill-opacity="1" /><path clip-path="url(#clip680)" d="M2160.02 143.653 L2187.56 143.653 L2187.56 149.555 L2166.44 149.555 L2166.44 162.264 Q2167.97 161.743 2169.5 161.5 Q2171.03 161.222 2172.56 161.222 Q2181.24 161.222 2186.31 165.979 Q2191.38 170.736 2191.38 178.861 Q2191.38 187.229 2186.17 191.882 Q2180.96 196.5 2171.48 196.5 Q2168.22 196.5 2164.81 195.944 Q2161.44 195.388 2157.83 194.277 L2157.83 187.229 Q2160.96 188.93 2164.29 189.763 Q2167.63 190.597 2171.34 190.597 Q2177.35 190.597 2180.85 187.437 Q2184.36 184.277 2184.36 178.861 Q2184.36 173.444 2180.85 170.284 Q2177.35 167.125 2171.34 167.125 Q2168.53 167.125 2165.72 167.75 Q2162.94 168.375 2160.02 169.694 L2160.02 143.653 Z" fill="#000000" fill-rule="nonzero" fill-opacity="1" /><path clip-path="url(#clip680)" d="M2234.57 164.069 Q2236.97 159.764 2240.3 157.715 Q2243.63 155.666 2248.15 155.666 Q2254.22 155.666 2257.52 159.937 Q2260.82 164.173 2260.82 172.021 L2260.82 195.493 L2254.4 195.493 L2254.4 172.229 Q2254.4 166.639 2252.42 163.93 Q2250.44 161.222 2246.37 161.222 Q2241.41 161.222 2238.53 164.521 Q2235.65 167.819 2235.65 173.514 L2235.65 195.493 L2229.22 195.493 L2229.22 172.229 Q2229.22 166.604 2227.24 163.93 Q2225.26 161.222 2221.13 161.222 Q2216.24 161.222 2213.35 164.555 Q2210.47 167.854 2210.47 173.514 L2210.47 195.493 L2204.05 195.493 L2204.05 156.604 L2210.47 156.604 L2210.47 162.646 Q2212.66 159.069 2215.72 157.368 Q2218.77 155.666 2222.97 155.666 Q2227.21 155.666 2230.16 157.819 Q2233.15 159.972 2234.57 164.069 Z" fill="#000000" fill-rule="nonzero" fill-opacity="1" /><polyline clip-path="url(#clip680)" style="stroke:#e26f46; stroke-linecap:round; stroke-linejoin:round; stroke-width:12; stroke-opacity:1; fill:none" points="668.063,247.333 805.968,247.333 "/>
<path clip-path="url(#clip680)" d="M867.285 265.857 L867.285 251.933 L855.827 251.933 L855.827 246.169 L874.229 246.169 L874.229 268.426 Q870.167 271.308 865.271 272.801 Q860.375 274.26 854.82 274.26 Q842.667 274.26 835.792 267.176 Q828.952 260.058 828.952 247.385 Q828.952 234.676 835.792 227.593 Q842.667 220.475 854.82 220.475 Q859.889 220.475 864.438 221.725 Q869.021 222.975 872.875 225.406 L872.875 232.871 Q868.986 229.572 864.611 227.906 Q860.236 226.239 855.41 226.239 Q845.896 226.239 841.105 231.551 Q836.348 236.864 836.348 247.385 Q836.348 257.871 841.105 263.183 Q845.896 268.496 855.41 268.496 Q859.125 268.496 862.042 267.871 Q864.959 267.211 867.285 265.857 Z" fill="#000000" fill-rule="nonzero" fill-opacity="1" /><path clip-path="url(#clip680)" d="M894.056 227.176 L894.056 246.656 L902.875 246.656 Q907.771 246.656 910.444 244.121 Q913.118 241.586 913.118 236.899 Q913.118 232.246 910.444 229.711 Q907.771 227.176 902.875 227.176 L894.056 227.176 M887.042 221.413 L902.875 221.413 Q911.59 221.413 916.035 225.371 Q920.514 229.295 920.514 236.899 Q920.514 244.572 916.035 248.496 Q911.59 252.419 902.875 252.419 L894.056 252.419 L894.056 273.253 L887.042 273.253 L887.042 221.413 Z" fill="#000000" fill-rule="nonzero" fill-opacity="1" /><path clip-path="url(#clip680)" d="M952.528 221.413 L982.319 221.413 L982.319 227.315 L959.541 227.315 L959.541 242.593 L980.097 242.593 L980.097 248.496 L959.541 248.496 L959.541 273.253 L952.528 273.253 L952.528 221.413 Z" fill="#000000" fill-rule="nonzero" fill-opacity="1" /><path clip-path="url(#clip680)" d="M987.979 234.364 L994.368 234.364 L994.368 273.253 L987.979 273.253 L987.979 234.364 M987.979 219.225 L994.368 219.225 L994.368 227.315 L987.979 227.315 L987.979 219.225 Z" fill="#000000" fill-rule="nonzero" fill-opacity="1" /><path clip-path="url(#clip680)" d="M1014.06 223.322 L1014.06 234.364 L1027.21 234.364 L1027.21 239.329 L1014.06 239.329 L1014.06 260.44 Q1014.06 265.197 1015.34 266.551 Q1016.66 267.905 1020.65 267.905 L1027.21 267.905 L1027.21 273.253 L1020.65 273.253 Q1013.26 273.253 1010.44 270.51 Q1007.63 267.732 1007.63 260.44 L1007.63 239.329 L1002.94 239.329 L1002.94 234.364 L1007.63 234.364 L1007.63 223.322 L1014.06 223.322 Z" fill="#000000" fill-rule="nonzero" fill-opacity="1" /></svg>
