<?xml version="1.0" encoding="utf-8"?>
<svg xmlns="http://www.w3.org/2000/svg" xmlns:xlink="http://www.w3.org/1999/xlink" width="600" height="400" viewBox="0 0 2400 1600">
<defs>
  <clipPath id="clip830">
    <rect x="0" y="0" width="2400" height="1600"/>
  </clipPath>
</defs>
<path clip-path="url(#clip830)" d="
M0 1600 L2400 1600 L2400 0 L0 0  Z
  " fill="#ffffff" fill-rule="evenodd" fill-opacity="1"/>
<defs>
  <clipPath id="clip831">
    <rect x="480" y="0" width="1681" height="1600"/>
  </clipPath>
</defs>
<path clip-path="url(#clip830)" d="
M155.765 1486.45 L2352.76 1486.45 L2352.76 47.2441 L155.765 47.2441  Z
  " fill="#ffffff" fill-rule="evenodd" fill-opacity="1"/>
<defs>
  <clipPath id="clip832">
    <rect x="155" y="47" width="2198" height="1440"/>
  </clipPath>
</defs>
<polyline clip-path="url(#clip832)" style="stroke:#000000; stroke-linecap:round; stroke-linejoin:round; stroke-width:2; stroke-opacity:0.1; fill:none" points="
  217.944,1486.45 217.944,47.2441 
  "/>
<polyline clip-path="url(#clip832)" style="stroke:#000000; stroke-linecap:round; stroke-linejoin:round; stroke-width:2; stroke-opacity:0.1; fill:none" points="
  736.102,1486.45 736.102,47.2441 
  "/>
<polyline clip-path="url(#clip832)" style="stroke:#000000; stroke-linecap:round; stroke-linejoin:round; stroke-width:2; stroke-opacity:0.1; fill:none" points="
  1254.26,1486.45 1254.26,47.2441 
  "/>
<polyline clip-path="url(#clip832)" style="stroke:#000000; stroke-linecap:round; stroke-linejoin:round; stroke-width:2; stroke-opacity:0.1; fill:none" points="
  1772.42,1486.45 1772.42,47.2441 
  "/>
<polyline clip-path="url(#clip832)" style="stroke:#000000; stroke-linecap:round; stroke-linejoin:round; stroke-width:2; stroke-opacity:0.1; fill:none" points="
  2290.58,1486.45 2290.58,47.2441 
  "/>
<polyline clip-path="url(#clip830)" style="stroke:#000000; stroke-linecap:round; stroke-linejoin:round; stroke-width:4; stroke-opacity:1; fill:none" points="
  155.765,1486.45 2352.76,1486.45 
  "/>
<polyline clip-path="url(#clip830)" style="stroke:#000000; stroke-linecap:round; stroke-linejoin:round; stroke-width:4; stroke-opacity:1; fill:none" points="
  217.944,1486.45 217.944,1467.55 
  "/>
<polyline clip-path="url(#clip830)" style="stroke:#000000; stroke-linecap:round; stroke-linejoin:round; stroke-width:4; stroke-opacity:1; fill:none" points="
  736.102,1486.45 736.102,1467.55 
  "/>
<polyline clip-path="url(#clip830)" style="stroke:#000000; stroke-linecap:round; stroke-linejoin:round; stroke-width:4; stroke-opacity:1; fill:none" points="
  1254.26,1486.45 1254.26,1467.55 
  "/>
<polyline clip-path="url(#clip830)" style="stroke:#000000; stroke-linecap:round; stroke-linejoin:round; stroke-width:4; stroke-opacity:1; fill:none" points="
  1772.42,1486.45 1772.42,1467.55 
  "/>
<polyline clip-path="url(#clip830)" style="stroke:#000000; stroke-linecap:round; stroke-linejoin:round; stroke-width:4; stroke-opacity:1; fill:none" points="
  2290.58,1486.45 2290.58,1467.55 
  "/>
<path clip-path="url(#clip830)" d="M180.247 1517.37 Q176.636 1517.37 174.808 1520.93 Q173.002 1524.47 173.002 1531.6 Q173.002 1538.71 174.808 1542.27 Q176.636 1545.82 180.247 1545.82 Q183.882 1545.82 185.687 1542.27 Q187.516 1538.71 187.516 1531.6 Q187.516 1524.47 185.687 1520.93 Q183.882 1517.37 180.247 1517.37 M180.247 1513.66 Q186.057 1513.66 189.113 1518.27 Q192.192 1522.85 192.192 1531.6 Q192.192 1540.33 189.113 1544.94 Q186.057 1549.52 180.247 1549.52 Q174.437 1549.52 171.358 1544.94 Q168.303 1540.33 168.303 1531.6 Q168.303 1522.85 171.358 1518.27 Q174.437 1513.66 180.247 1513.66 Z" fill="#000000" fill-rule="evenodd" fill-opacity="1" /><path clip-path="url(#clip830)" d="M200.409 1542.97 L205.294 1542.97 L205.294 1548.85 L200.409 1548.85 L200.409 1542.97 Z" fill="#000000" fill-rule="evenodd" fill-opacity="1" /><path clip-path="url(#clip830)" d="M225.479 1517.37 Q221.867 1517.37 220.039 1520.93 Q218.233 1524.47 218.233 1531.6 Q218.233 1538.71 220.039 1542.27 Q221.867 1545.82 225.479 1545.82 Q229.113 1545.82 230.918 1542.27 Q232.747 1538.71 232.747 1531.6 Q232.747 1524.47 230.918 1520.93 Q229.113 1517.37 225.479 1517.37 M225.479 1513.66 Q231.289 1513.66 234.344 1518.27 Q237.423 1522.85 237.423 1531.6 Q237.423 1540.33 234.344 1544.94 Q231.289 1549.52 225.479 1549.52 Q219.668 1549.52 216.59 1544.94 Q213.534 1540.33 213.534 1531.6 Q213.534 1522.85 216.59 1518.27 Q219.668 1513.66 225.479 1513.66 Z" fill="#000000" fill-rule="evenodd" fill-opacity="1" /><path clip-path="url(#clip830)" d="M255.64 1517.37 Q252.029 1517.37 250.201 1520.93 Q248.395 1524.47 248.395 1531.6 Q248.395 1538.71 250.201 1542.27 Q252.029 1545.82 255.64 1545.82 Q259.275 1545.82 261.08 1542.27 Q262.909 1538.71 262.909 1531.6 Q262.909 1524.47 261.08 1520.93 Q259.275 1517.37 255.64 1517.37 M255.64 1513.66 Q261.451 1513.66 264.506 1518.27 Q267.585 1522.85 267.585 1531.6 Q267.585 1540.33 264.506 1544.94 Q261.451 1549.52 255.64 1549.52 Q249.83 1549.52 246.752 1544.94 Q243.696 1540.33 243.696 1531.6 Q243.696 1522.85 246.752 1518.27 Q249.83 1513.66 255.64 1513.66 Z" fill="#000000" fill-rule="evenodd" fill-opacity="1" /><path clip-path="url(#clip830)" d="M698.903 1517.37 Q695.292 1517.37 693.463 1520.93 Q691.658 1524.47 691.658 1531.6 Q691.658 1538.71 693.463 1542.27 Q695.292 1545.82 698.903 1545.82 Q702.538 1545.82 704.343 1542.27 Q706.172 1538.71 706.172 1531.6 Q706.172 1524.47 704.343 1520.93 Q702.538 1517.37 698.903 1517.37 M698.903 1513.66 Q704.713 1513.66 707.769 1518.27 Q710.848 1522.85 710.848 1531.6 Q710.848 1540.33 707.769 1544.94 Q704.713 1549.52 698.903 1549.52 Q693.093 1549.52 690.014 1544.94 Q686.959 1540.33 686.959 1531.6 Q686.959 1522.85 690.014 1518.27 Q693.093 1513.66 698.903 1513.66 Z" fill="#000000" fill-rule="evenodd" fill-opacity="1" /><path clip-path="url(#clip830)" d="M719.065 1542.97 L723.949 1542.97 L723.949 1548.85 L719.065 1548.85 L719.065 1542.97 Z" fill="#000000" fill-rule="evenodd" fill-opacity="1" /><path clip-path="url(#clip830)" d="M738.162 1544.91 L754.482 1544.91 L754.482 1548.85 L732.537 1548.85 L732.537 1544.91 Q735.199 1542.16 739.783 1537.53 Q744.389 1532.88 745.57 1531.53 Q747.815 1529.01 748.695 1527.27 Q749.597 1525.51 749.597 1523.82 Q749.597 1521.07 747.653 1519.33 Q745.732 1517.6 742.63 1517.6 Q740.431 1517.6 737.977 1518.36 Q735.547 1519.13 732.769 1520.68 L732.769 1515.95 Q735.593 1514.82 738.047 1514.24 Q740.5 1513.66 742.537 1513.66 Q747.908 1513.66 751.102 1516.35 Q754.296 1519.03 754.296 1523.52 Q754.296 1525.65 753.486 1527.57 Q752.699 1529.47 750.593 1532.07 Q750.014 1532.74 746.912 1535.95 Q743.81 1539.15 738.162 1544.91 Z" fill="#000000" fill-rule="evenodd" fill-opacity="1" /><path clip-path="url(#clip830)" d="M764.343 1514.29 L782.699 1514.29 L782.699 1518.22 L768.625 1518.22 L768.625 1526.7 Q769.644 1526.35 770.662 1526.19 Q771.681 1526 772.699 1526 Q778.486 1526 781.866 1529.17 Q785.245 1532.34 785.245 1537.76 Q785.245 1543.34 781.773 1546.44 Q778.301 1549.52 771.982 1549.52 Q769.806 1549.52 767.537 1549.15 Q765.292 1548.78 762.884 1548.04 L762.884 1543.34 Q764.968 1544.47 767.19 1545.03 Q769.412 1545.58 771.889 1545.58 Q775.894 1545.58 778.232 1543.48 Q780.57 1541.37 780.57 1537.76 Q780.57 1534.15 778.232 1532.04 Q775.894 1529.94 771.889 1529.94 Q770.014 1529.94 768.139 1530.35 Q766.287 1530.77 764.343 1531.65 L764.343 1514.29 Z" fill="#000000" fill-rule="evenodd" fill-opacity="1" /><path clip-path="url(#clip830)" d="M1216.56 1517.37 Q1212.95 1517.37 1211.12 1520.93 Q1209.32 1524.47 1209.32 1531.6 Q1209.32 1538.71 1211.12 1542.27 Q1212.95 1545.82 1216.56 1545.82 Q1220.2 1545.82 1222 1542.27 Q1223.83 1538.71 1223.83 1531.6 Q1223.83 1524.47 1222 1520.93 Q1220.2 1517.37 1216.56 1517.37 M1216.56 1513.66 Q1222.37 1513.66 1225.43 1518.27 Q1228.51 1522.85 1228.51 1531.6 Q1228.51 1540.33 1225.43 1544.94 Q1222.37 1549.52 1216.56 1549.52 Q1210.75 1549.52 1207.68 1544.94 Q1204.62 1540.33 1204.62 1531.6 Q1204.62 1522.85 1207.68 1518.27 Q1210.75 1513.66 1216.56 1513.66 Z" fill="#000000" fill-rule="evenodd" fill-opacity="1" /><path clip-path="url(#clip830)" d="M1236.73 1542.97 L1241.61 1542.97 L1241.61 1548.85 L1236.73 1548.85 L1236.73 1542.97 Z" fill="#000000" fill-rule="evenodd" fill-opacity="1" /><path clip-path="url(#clip830)" d="M1251.84 1514.29 L1270.2 1514.29 L1270.2 1518.22 L1256.12 1518.22 L1256.12 1526.7 Q1257.14 1526.35 1258.16 1526.19 Q1259.18 1526 1260.2 1526 Q1265.98 1526 1269.36 1529.17 Q1272.74 1532.34 1272.74 1537.76 Q1272.74 1543.34 1269.27 1546.44 Q1265.8 1549.52 1259.48 1549.52 Q1257.3 1549.52 1255.04 1549.15 Q1252.79 1548.78 1250.38 1548.04 L1250.38 1543.34 Q1252.47 1544.47 1254.69 1545.03 Q1256.91 1545.58 1259.39 1545.58 Q1263.39 1545.58 1265.73 1543.48 Q1268.07 1541.37 1268.07 1537.76 Q1268.07 1534.15 1265.73 1532.04 Q1263.39 1529.94 1259.39 1529.94 Q1257.51 1529.94 1255.64 1530.35 Q1253.79 1530.77 1251.84 1531.65 L1251.84 1514.29 Z" fill="#000000" fill-rule="evenodd" fill-opacity="1" /><path clip-path="url(#clip830)" d="M1291.96 1517.37 Q1288.35 1517.37 1286.52 1520.93 Q1284.71 1524.47 1284.71 1531.6 Q1284.71 1538.71 1286.52 1542.27 Q1288.35 1545.82 1291.96 1545.82 Q1295.59 1545.82 1297.4 1542.27 Q1299.23 1538.71 1299.23 1531.6 Q1299.23 1524.47 1297.4 1520.93 Q1295.59 1517.37 1291.96 1517.37 M1291.96 1513.66 Q1297.77 1513.66 1300.82 1518.27 Q1303.9 1522.85 1303.9 1531.6 Q1303.9 1540.33 1300.82 1544.94 Q1297.77 1549.52 1291.96 1549.52 Q1286.15 1549.52 1283.07 1544.94 Q1280.01 1540.33 1280.01 1531.6 Q1280.01 1522.85 1283.07 1518.27 Q1286.15 1513.66 1291.96 1513.66 Z" fill="#000000" fill-rule="evenodd" fill-opacity="1" /><path clip-path="url(#clip830)" d="M1735.22 1517.37 Q1731.61 1517.37 1729.78 1520.93 Q1727.97 1524.47 1727.97 1531.6 Q1727.97 1538.71 1729.78 1542.27 Q1731.61 1545.82 1735.22 1545.82 Q1738.85 1545.82 1740.66 1542.27 Q1742.49 1538.71 1742.49 1531.6 Q1742.49 1524.47 1740.66 1520.93 Q1738.85 1517.37 1735.22 1517.37 M1735.22 1513.66 Q1741.03 1513.66 1744.09 1518.27 Q1747.16 1522.85 1747.16 1531.6 Q1747.16 1540.33 1744.09 1544.94 Q1741.03 1549.52 1735.22 1549.52 Q1729.41 1549.52 1726.33 1544.94 Q1723.28 1540.33 1723.28 1531.6 Q1723.28 1522.85 1726.33 1518.27 Q1729.41 1513.66 1735.22 1513.66 Z" fill="#000000" fill-rule="evenodd" fill-opacity="1" /><path clip-path="url(#clip830)" d="M1755.38 1542.97 L1760.27 1542.97 L1760.27 1548.85 L1755.38 1548.85 L1755.38 1542.97 Z" fill="#000000" fill-rule="evenodd" fill-opacity="1" /><path clip-path="url(#clip830)" d="M1769.27 1514.29 L1791.49 1514.29 L1791.49 1516.28 L1778.95 1548.85 L1774.06 1548.85 L1785.87 1518.22 L1769.27 1518.22 L1769.27 1514.29 Z" fill="#000000" fill-rule="evenodd" fill-opacity="1" /><path clip-path="url(#clip830)" d="M1800.66 1514.29 L1819.02 1514.29 L1819.02 1518.22 L1804.94 1518.22 L1804.94 1526.7 Q1805.96 1526.35 1806.98 1526.19 Q1808 1526 1809.02 1526 Q1814.8 1526 1818.18 1529.17 Q1821.56 1532.34 1821.56 1537.76 Q1821.56 1543.34 1818.09 1546.44 Q1814.62 1549.52 1808.3 1549.52 Q1806.12 1549.52 1803.85 1549.15 Q1801.61 1548.78 1799.2 1548.04 L1799.2 1543.34 Q1801.28 1544.47 1803.51 1545.03 Q1805.73 1545.58 1808.21 1545.58 Q1812.21 1545.58 1814.55 1543.48 Q1816.89 1541.37 1816.89 1537.76 Q1816.89 1534.15 1814.55 1532.04 Q1812.21 1529.94 1808.21 1529.94 Q1806.33 1529.94 1804.46 1530.35 Q1802.6 1530.77 1800.66 1531.65 L1800.66 1514.29 Z" fill="#000000" fill-rule="evenodd" fill-opacity="1" /><path clip-path="url(#clip830)" d="M2242.65 1544.91 L2250.29 1544.91 L2250.29 1518.55 L2241.98 1520.21 L2241.98 1515.95 L2250.24 1514.29 L2254.92 1514.29 L2254.92 1544.91 L2262.56 1544.91 L2262.56 1548.85 L2242.65 1548.85 L2242.65 1544.91 Z" fill="#000000" fill-rule="evenodd" fill-opacity="1" /><path clip-path="url(#clip830)" d="M2272 1542.97 L2276.88 1542.97 L2276.88 1548.85 L2272 1548.85 L2272 1542.97 Z" fill="#000000" fill-rule="evenodd" fill-opacity="1" /><path clip-path="url(#clip830)" d="M2297.07 1517.37 Q2293.46 1517.37 2291.63 1520.93 Q2289.82 1524.47 2289.82 1531.6 Q2289.82 1538.71 2291.63 1542.27 Q2293.46 1545.82 2297.07 1545.82 Q2300.7 1545.82 2302.51 1542.27 Q2304.34 1538.71 2304.34 1531.6 Q2304.34 1524.47 2302.51 1520.93 Q2300.7 1517.37 2297.07 1517.37 M2297.07 1513.66 Q2302.88 1513.66 2305.94 1518.27 Q2309.01 1522.85 2309.01 1531.6 Q2309.01 1540.33 2305.94 1544.94 Q2302.88 1549.52 2297.07 1549.52 Q2291.26 1549.52 2288.18 1544.94 Q2285.13 1540.33 2285.13 1531.6 Q2285.13 1522.85 2288.18 1518.27 Q2291.26 1513.66 2297.07 1513.66 Z" fill="#000000" fill-rule="evenodd" fill-opacity="1" /><path clip-path="url(#clip830)" d="M2327.23 1517.37 Q2323.62 1517.37 2321.79 1520.93 Q2319.99 1524.47 2319.99 1531.6 Q2319.99 1538.71 2321.79 1542.27 Q2323.62 1545.82 2327.23 1545.82 Q2330.87 1545.82 2332.67 1542.27 Q2334.5 1538.71 2334.5 1531.6 Q2334.5 1524.47 2332.67 1520.93 Q2330.87 1517.37 2327.23 1517.37 M2327.23 1513.66 Q2333.04 1513.66 2336.1 1518.27 Q2339.18 1522.85 2339.18 1531.6 Q2339.18 1540.33 2336.1 1544.94 Q2333.04 1549.52 2327.23 1549.52 Q2321.42 1549.52 2318.34 1544.94 Q2315.29 1540.33 2315.29 1531.6 Q2315.29 1522.85 2318.34 1518.27 Q2321.42 1513.66 2327.23 1513.66 Z" fill="#000000" fill-rule="evenodd" fill-opacity="1" /><polyline clip-path="url(#clip832)" style="stroke:#000000; stroke-linecap:round; stroke-linejoin:round; stroke-width:2; stroke-opacity:0.1; fill:none" points="
  155.765,1289.05 2352.76,1289.05 
  "/>
<polyline clip-path="url(#clip832)" style="stroke:#000000; stroke-linecap:round; stroke-linejoin:round; stroke-width:2; stroke-opacity:0.1; fill:none" points="
  155.765,1080.17 2352.76,1080.17 
  "/>
<polyline clip-path="url(#clip832)" style="stroke:#000000; stroke-linecap:round; stroke-linejoin:round; stroke-width:2; stroke-opacity:0.1; fill:none" points="
  155.765,871.287 2352.76,871.287 
  "/>
<polyline clip-path="url(#clip832)" style="stroke:#000000; stroke-linecap:round; stroke-linejoin:round; stroke-width:2; stroke-opacity:0.1; fill:none" points="
  155.765,662.404 2352.76,662.404 
  "/>
<polyline clip-path="url(#clip832)" style="stroke:#000000; stroke-linecap:round; stroke-linejoin:round; stroke-width:2; stroke-opacity:0.1; fill:none" points="
  155.765,453.522 2352.76,453.522 
  "/>
<polyline clip-path="url(#clip832)" style="stroke:#000000; stroke-linecap:round; stroke-linejoin:round; stroke-width:2; stroke-opacity:0.1; fill:none" points="
  155.765,244.639 2352.76,244.639 
  "/>
<polyline clip-path="url(#clip830)" style="stroke:#000000; stroke-linecap:round; stroke-linejoin:round; stroke-width:4; stroke-opacity:1; fill:none" points="
  155.765,1486.45 155.765,47.2441 
  "/>
<polyline clip-path="url(#clip830)" style="stroke:#000000; stroke-linecap:round; stroke-linejoin:round; stroke-width:4; stroke-opacity:1; fill:none" points="
  155.765,1289.05 174.663,1289.05 
  "/>
<polyline clip-path="url(#clip830)" style="stroke:#000000; stroke-linecap:round; stroke-linejoin:round; stroke-width:4; stroke-opacity:1; fill:none" points="
  155.765,1080.17 174.663,1080.17 
  "/>
<polyline clip-path="url(#clip830)" style="stroke:#000000; stroke-linecap:round; stroke-linejoin:round; stroke-width:4; stroke-opacity:1; fill:none" points="
  155.765,871.287 174.663,871.287 
  "/>
<polyline clip-path="url(#clip830)" style="stroke:#000000; stroke-linecap:round; stroke-linejoin:round; stroke-width:4; stroke-opacity:1; fill:none" points="
  155.765,662.404 174.663,662.404 
  "/>
<polyline clip-path="url(#clip830)" style="stroke:#000000; stroke-linecap:round; stroke-linejoin:round; stroke-width:4; stroke-opacity:1; fill:none" points="
  155.765,453.522 174.663,453.522 
  "/>
<polyline clip-path="url(#clip830)" style="stroke:#000000; stroke-linecap:round; stroke-linejoin:round; stroke-width:4; stroke-opacity:1; fill:none" points="
  155.765,244.639 174.663,244.639 
  "/>
<path clip-path="url(#clip830)" d="M63.5847 1274.85 Q59.9736 1274.85 58.1449 1278.42 Q56.3393 1281.96 56.3393 1289.09 Q56.3393 1296.19 58.1449 1299.76 Q59.9736 1303.3 63.5847 1303.3 Q67.2189 1303.3 69.0244 1299.76 Q70.8531 1296.19 70.8531 1289.09 Q70.8531 1281.96 69.0244 1278.42 Q67.2189 1274.85 63.5847 1274.85 M63.5847 1271.15 Q69.3948 1271.15 72.4503 1275.75 Q75.529 1280.34 75.529 1289.09 Q75.529 1297.81 72.4503 1302.42 Q69.3948 1307 63.5847 1307 Q57.7745 1307 54.6958 1302.42 Q51.6403 1297.81 51.6403 1289.09 Q51.6403 1280.34 54.6958 1275.75 Q57.7745 1271.15 63.5847 1271.15 Z" fill="#000000" fill-rule="evenodd" fill-opacity="1" /><path clip-path="url(#clip830)" d="M83.7466 1300.45 L88.6308 1300.45 L88.6308 1306.33 L83.7466 1306.33 L83.7466 1300.45 Z" fill="#000000" fill-rule="evenodd" fill-opacity="1" /><path clip-path="url(#clip830)" d="M98.8622 1271.77 L117.219 1271.77 L117.219 1275.71 L103.145 1275.71 L103.145 1284.18 Q104.163 1283.83 105.182 1283.67 Q106.2 1283.49 107.219 1283.49 Q113.006 1283.49 116.385 1286.66 Q119.765 1289.83 119.765 1295.25 Q119.765 1300.82 116.293 1303.93 Q112.82 1307 106.501 1307 Q104.325 1307 102.057 1306.63 Q99.8113 1306.26 97.4039 1305.52 L97.4039 1300.82 Q99.4872 1301.96 101.709 1302.51 Q103.932 1303.07 106.408 1303.07 Q110.413 1303.07 112.751 1300.96 Q115.089 1298.86 115.089 1295.25 Q115.089 1291.63 112.751 1289.53 Q110.413 1287.42 106.408 1287.42 Q104.534 1287.42 102.659 1287.84 Q100.807 1288.25 98.8622 1289.13 L98.8622 1271.77 Z" fill="#000000" fill-rule="evenodd" fill-opacity="1" /><path clip-path="url(#clip830)" d="M53.3995 1093.52 L61.0384 1093.52 L61.0384 1067.15 L52.7282 1068.82 L52.7282 1064.56 L60.9921 1062.89 L65.668 1062.89 L65.668 1093.52 L73.3068 1093.52 L73.3068 1097.45 L53.3995 1097.45 L53.3995 1093.52 Z" fill="#000000" fill-rule="evenodd" fill-opacity="1" /><path clip-path="url(#clip830)" d="M82.7512 1091.57 L87.6354 1091.57 L87.6354 1097.45 L82.7512 1097.45 L82.7512 1091.57 Z" fill="#000000" fill-rule="evenodd" fill-opacity="1" /><path clip-path="url(#clip830)" d="M107.821 1065.97 Q104.209 1065.97 102.381 1069.53 Q100.575 1073.08 100.575 1080.21 Q100.575 1087.31 102.381 1090.88 Q104.209 1094.42 107.821 1094.42 Q111.455 1094.42 113.26 1090.88 Q115.089 1087.31 115.089 1080.21 Q115.089 1073.08 113.26 1069.53 Q111.455 1065.97 107.821 1065.97 M107.821 1062.27 Q113.631 1062.27 116.686 1066.87 Q119.765 1071.46 119.765 1080.21 Q119.765 1088.93 116.686 1093.54 Q113.631 1098.12 107.821 1098.12 Q102.01 1098.12 98.9317 1093.54 Q95.8761 1088.93 95.8761 1080.21 Q95.8761 1071.46 98.9317 1066.87 Q102.01 1062.27 107.821 1062.27 Z" fill="#000000" fill-rule="evenodd" fill-opacity="1" /><path clip-path="url(#clip830)" d="M54.3949 884.632 L62.0337 884.632 L62.0337 858.267 L53.7236 859.933 L53.7236 855.674 L61.9874 854.007 L66.6633 854.007 L66.6633 884.632 L74.3022 884.632 L74.3022 888.567 L54.3949 888.567 L54.3949 884.632 Z" fill="#000000" fill-rule="evenodd" fill-opacity="1" /><path clip-path="url(#clip830)" d="M83.7466 882.688 L88.6308 882.688 L88.6308 888.567 L83.7466 888.567 L83.7466 882.688 Z" fill="#000000" fill-rule="evenodd" fill-opacity="1" /><path clip-path="url(#clip830)" d="M98.8622 854.007 L117.219 854.007 L117.219 857.943 L103.145 857.943 L103.145 866.415 Q104.163 866.068 105.182 865.906 Q106.2 865.72 107.219 865.72 Q113.006 865.72 116.385 868.892 Q119.765 872.063 119.765 877.48 Q119.765 883.058 116.293 886.16 Q112.82 889.239 106.501 889.239 Q104.325 889.239 102.057 888.868 Q99.8113 888.498 97.4039 887.757 L97.4039 883.058 Q99.4872 884.193 101.709 884.748 Q103.932 885.304 106.408 885.304 Q110.413 885.304 112.751 883.197 Q115.089 881.091 115.089 877.48 Q115.089 873.868 112.751 871.762 Q110.413 869.656 106.408 869.656 Q104.534 869.656 102.659 870.072 Q100.807 870.489 98.8622 871.368 L98.8622 854.007 Z" fill="#000000" fill-rule="evenodd" fill-opacity="1" /><path clip-path="url(#clip830)" d="M56.6171 675.749 L72.9365 675.749 L72.9365 679.684 L50.9921 679.684 L50.9921 675.749 Q53.6541 672.995 58.2375 668.365 Q62.8439 663.712 64.0245 662.37 Q66.2698 659.847 67.1494 658.111 Q68.0522 656.351 68.0522 654.661 Q68.0522 651.907 66.1078 650.171 Q64.1865 648.435 61.0847 648.435 Q58.8856 648.435 56.4319 649.199 Q54.0014 649.962 51.2236 651.513 L51.2236 646.791 Q54.0477 645.657 56.5014 645.078 Q58.955 644.499 60.9921 644.499 Q66.3624 644.499 69.5568 647.185 Q72.7513 649.87 72.7513 654.361 Q72.7513 656.49 71.9411 658.411 Q71.1541 660.31 69.0476 662.902 Q68.4689 663.573 65.367 666.791 Q62.2652 669.985 56.6171 675.749 Z" fill="#000000" fill-rule="evenodd" fill-opacity="1" /><path clip-path="url(#clip830)" d="M82.7512 673.805 L87.6354 673.805 L87.6354 679.684 L82.7512 679.684 L82.7512 673.805 Z" fill="#000000" fill-rule="evenodd" fill-opacity="1" /><path clip-path="url(#clip830)" d="M107.821 648.203 Q104.209 648.203 102.381 651.768 Q100.575 655.31 100.575 662.439 Q100.575 669.546 102.381 673.11 Q104.209 676.652 107.821 676.652 Q111.455 676.652 113.26 673.11 Q115.089 669.546 115.089 662.439 Q115.089 655.31 113.26 651.768 Q111.455 648.203 107.821 648.203 M107.821 644.499 Q113.631 644.499 116.686 649.106 Q119.765 653.689 119.765 662.439 Q119.765 671.166 116.686 675.772 Q113.631 680.356 107.821 680.356 Q102.01 680.356 98.9317 675.772 Q95.8761 671.166 95.8761 662.439 Q95.8761 653.689 98.9317 649.106 Q102.01 644.499 107.821 644.499 Z" fill="#000000" fill-rule="evenodd" fill-opacity="1" /><path clip-path="url(#clip830)" d="M57.6125 466.866 L73.9318 466.866 L73.9318 470.802 L51.9875 470.802 L51.9875 466.866 Q54.6495 464.112 59.2328 459.482 Q63.8393 454.829 65.0198 453.487 Q67.2652 450.964 68.1448 449.228 Q69.0476 447.468 69.0476 445.778 Q69.0476 443.024 67.1032 441.288 Q65.1819 439.552 62.08 439.552 Q59.881 439.552 57.4273 440.316 Q54.9967 441.079 52.219 442.63 L52.219 437.908 Q55.043 436.774 57.4967 436.195 Q59.9504 435.617 61.9874 435.617 Q67.3578 435.617 70.5522 438.302 Q73.7466 440.987 73.7466 445.478 Q73.7466 447.607 72.9365 449.528 Q72.1494 451.427 70.0429 454.019 Q69.4642 454.69 66.3624 457.908 Q63.2606 461.102 57.6125 466.866 Z" fill="#000000" fill-rule="evenodd" fill-opacity="1" /><path clip-path="url(#clip830)" d="M83.7466 464.922 L88.6308 464.922 L88.6308 470.802 L83.7466 470.802 L83.7466 464.922 Z" fill="#000000" fill-rule="evenodd" fill-opacity="1" /><path clip-path="url(#clip830)" d="M98.8622 436.242 L117.219 436.242 L117.219 440.177 L103.145 440.177 L103.145 448.649 Q104.163 448.302 105.182 448.14 Q106.2 447.954 107.219 447.954 Q113.006 447.954 116.385 451.126 Q119.765 454.297 119.765 459.714 Q119.765 465.292 116.293 468.394 Q112.82 471.473 106.501 471.473 Q104.325 471.473 102.057 471.102 Q99.8113 470.732 97.4039 469.991 L97.4039 465.292 Q99.4872 466.427 101.709 466.982 Q103.932 467.538 106.408 467.538 Q110.413 467.538 112.751 465.431 Q115.089 463.325 115.089 459.714 Q115.089 456.103 112.751 453.996 Q110.413 451.89 106.408 451.89 Q104.534 451.89 102.659 452.306 Q100.807 452.723 98.8622 453.603 L98.8622 436.242 Z" fill="#000000" fill-rule="evenodd" fill-opacity="1" /><path clip-path="url(#clip830)" d="M66.7559 243.284 Q70.1124 244.002 71.9874 246.27 Q73.8855 248.539 73.8855 251.872 Q73.8855 256.988 70.367 259.789 Q66.8485 262.59 60.3671 262.59 Q58.1912 262.59 55.8764 262.15 Q53.5847 261.733 51.131 260.877 L51.131 256.363 Q53.0754 257.497 55.3903 258.076 Q57.7051 258.655 60.2282 258.655 Q64.6263 258.655 66.918 256.919 Q69.2328 255.182 69.2328 251.872 Q69.2328 248.817 67.08 247.104 Q64.9504 245.368 61.131 245.368 L57.1032 245.368 L57.1032 241.525 L61.3161 241.525 Q64.7652 241.525 66.5939 240.159 Q68.4226 238.77 68.4226 236.178 Q68.4226 233.516 66.5245 232.104 Q64.6495 230.669 61.131 230.669 Q59.2097 230.669 57.0106 231.085 Q54.8115 231.502 52.1727 232.382 L52.1727 228.215 Q54.8347 227.474 57.1495 227.104 Q59.4875 226.734 61.5476 226.734 Q66.8717 226.734 69.9735 229.164 Q73.0753 231.571 73.0753 235.692 Q73.0753 238.562 71.4318 240.553 Q69.7883 242.52 66.7559 243.284 Z" fill="#000000" fill-rule="evenodd" fill-opacity="1" /><path clip-path="url(#clip830)" d="M82.7512 256.039 L87.6354 256.039 L87.6354 261.919 L82.7512 261.919 L82.7512 256.039 Z" fill="#000000" fill-rule="evenodd" fill-opacity="1" /><path clip-path="url(#clip830)" d="M107.821 230.437 Q104.209 230.437 102.381 234.002 Q100.575 237.544 100.575 244.673 Q100.575 251.78 102.381 255.344 Q104.209 258.886 107.821 258.886 Q111.455 258.886 113.26 255.344 Q115.089 251.78 115.089 244.673 Q115.089 237.544 113.26 234.002 Q111.455 230.437 107.821 230.437 M107.821 226.734 Q113.631 226.734 116.686 231.34 Q119.765 235.923 119.765 244.673 Q119.765 253.4 116.686 258.007 Q113.631 262.59 107.821 262.59 Q102.01 262.59 98.9317 258.007 Q95.8761 253.4 95.8761 244.673 Q95.8761 235.923 98.9317 231.34 Q102.01 226.734 107.821 226.734 Z" fill="#000000" fill-rule="evenodd" fill-opacity="1" /><polyline clip-path="url(#clip832)" style="stroke:#000000; stroke-linecap:round; stroke-linejoin:round; stroke-width:4; stroke-opacity:1; fill:none" points="
  217.944,1445.72 238.67,1440.87 259.397,1432.63 280.123,1421.07 300.849,1406.32 321.576,1388.54 342.302,1367.96 363.028,1344.83 383.755,1319.47 404.481,1292.19 
  425.207,1263.36 445.934,1233.37 466.66,1202.6 487.386,1171.48 508.113,1140.4 528.839,1109.78 549.565,1080.01 570.292,1051.48 591.018,1024.55 611.744,999.544 
  632.47,976.77 653.197,956.485 673.923,938.909 694.649,924.215 715.376,912.529 736.102,903.925 756.828,898.428 777.555,896.009 798.281,896.587 819.007,900.033 
  839.734,906.167 860.46,914.766 881.186,925.564 901.913,938.255 922.639,952.504 943.365,967.945 964.092,984.19 984.818,1000.84 1005.54,1017.47 1026.27,1033.68 
  1047,1049.05 1067.72,1063.18 1088.45,1075.67 1109.18,1086.17 1129.9,1094.33 1150.63,1099.86 1171.36,1102.49 1192.08,1101.98 1212.81,1098.18 1233.53,1090.93 
  1254.26,1080.17 1274.99,1065.86 1295.71,1048.04 1316.44,1026.76 1337.17,1002.17 1357.89,974.427 1378.62,943.757 1399.34,910.419 1420.07,874.714 1440.8,836.972 
  1461.52,797.555 1482.25,756.845 1502.98,715.238 1523.7,673.144 1544.43,630.974 1565.16,589.135 1585.88,548.026 1606.61,508.029 1627.33,469.504 1648.06,432.782 
  1668.79,398.164 1689.51,365.91 1710.24,336.239 1730.97,309.326 1751.69,285.295 1772.42,264.221 1793.14,246.129 1813.87,230.988 1834.6,218.72 1855.32,209.194 
  1876.05,202.232 1896.78,197.608 1917.5,195.058 1938.23,194.277 1958.96,194.927 1979.68,196.644 2000.41,199.041 2021.13,201.714 2041.86,204.25 2062.59,206.234 
  2083.31,207.252 2104.04,206.901 2124.77,204.794 2145.49,200.566 2166.22,193.88 2186.95,184.432 2207.67,171.954 2228.4,156.225 2249.12,137.064 2269.85,114.341 
  2290.58,87.9763 
  "/>
<circle clip-path="url(#clip832)" cx="425.207" cy="1263.36" r="14.4" fill="#000000" fill-rule="evenodd" fill-opacity="1" stroke="none"/>
<circle clip-path="url(#clip832)" cx="839.734" cy="906.167" r="14.4" fill="#000000" fill-rule="evenodd" fill-opacity="1" stroke="none"/>
<circle clip-path="url(#clip832)" cx="1047" cy="1049.05" r="14.4" fill="#000000" fill-rule="evenodd" fill-opacity="1" stroke="none"/>
<circle clip-path="url(#clip832)" cx="1461.52" cy="797.555" r="14.4" fill="#000000" fill-rule="evenodd" fill-opacity="1" stroke="none"/>
<circle clip-path="url(#clip832)" cx="1876.05" cy="202.232" r="14.4" fill="#000000" fill-rule="evenodd" fill-opacity="1" stroke="none"/>
<circle clip-path="url(#clip832)" cx="2186.95" cy="184.432" r="14.4" fill="#000000" fill-rule="evenodd" fill-opacity="1" stroke="none"/>
<path clip-path="url(#clip830)" d="
M1634.55 1438.47 L2279.52 1438.47 L2279.52 1282.95 L1634.55 1282.95  Z
  " fill="#ffffff" fill-rule="evenodd" fill-opacity="1"/>
<polyline clip-path="url(#clip830)" style="stroke:#000000; stroke-linecap:round; stroke-linejoin:round; stroke-width:4; stroke-opacity:1; fill:none" points="
  1634.55,1438.47 2279.52,1438.47 2279.52,1282.95 1634.55,1282.95 1634.55,1438.47 
  "/>
<polyline clip-path="url(#clip830)" style="stroke:#000000; stroke-linecap:round; stroke-linejoin:round; stroke-width:4; stroke-opacity:1; fill:none" points="
  1658.96,1334.79 1805.43,1334.79 
  "/>
<path clip-path="url(#clip830)" d="M1829.84 1317.51 L1859.07 1317.51 L1859.07 1321.45 L1846.8 1321.45 L1846.8 1352.07 L1842.1 1352.07 L1842.1 1321.45 L1829.84 1321.45 L1829.84 1317.51 Z" fill="#000000" fill-rule="evenodd" fill-opacity="1" /><path clip-path="url(#clip830)" d="M1865.39 1329.13 Q1861.97 1329.13 1859.98 1331.82 Q1857.98 1334.48 1857.98 1339.13 Q1857.98 1343.79 1859.95 1346.47 Q1861.94 1349.13 1865.39 1349.13 Q1868.79 1349.13 1870.79 1346.45 Q1872.78 1343.76 1872.78 1339.13 Q1872.78 1334.53 1870.79 1331.84 Q1868.79 1329.13 1865.39 1329.13 M1865.39 1325.52 Q1870.95 1325.52 1874.12 1329.13 Q1877.29 1332.75 1877.29 1339.13 Q1877.29 1345.5 1874.12 1349.13 Q1870.95 1352.75 1865.39 1352.75 Q1859.81 1352.75 1856.64 1349.13 Q1853.49 1345.5 1853.49 1339.13 Q1853.49 1332.75 1856.64 1329.13 Q1859.81 1325.52 1865.39 1325.52 Z" fill="#000000" fill-rule="evenodd" fill-opacity="1" /><path clip-path="url(#clip830)" d="M1895.14 1354.48 Q1893.33 1359.11 1891.62 1360.52 Q1889.91 1361.94 1887.04 1361.94 L1883.63 1361.94 L1883.63 1358.37 L1886.13 1358.37 Q1887.89 1358.37 1888.86 1357.54 Q1889.84 1356.7 1891.02 1353.6 L1891.78 1351.66 L1881.29 1326.15 L1885.81 1326.15 L1893.91 1346.43 L1902.01 1326.15 L1906.53 1326.15 L1895.14 1354.48 Z" fill="#000000" fill-rule="evenodd" fill-opacity="1" /><path clip-path="url(#clip830)" d="M1927.66 1317.51 L1934.63 1317.51 L1943.45 1341.03 L1952.31 1317.51 L1959.28 1317.51 L1959.28 1352.07 L1954.72 1352.07 L1954.72 1321.73 L1945.81 1345.43 L1941.11 1345.43 L1932.2 1321.73 L1932.2 1352.07 L1927.66 1352.07 L1927.66 1317.51 Z" fill="#000000" fill-rule="evenodd" fill-opacity="1" /><path clip-path="url(#clip830)" d="M1978.42 1329.13 Q1975 1329.13 1973.01 1331.82 Q1971.02 1334.48 1971.02 1339.13 Q1971.02 1343.79 1972.98 1346.47 Q1974.97 1349.13 1978.42 1349.13 Q1981.83 1349.13 1983.82 1346.45 Q1985.81 1343.76 1985.81 1339.13 Q1985.81 1334.53 1983.82 1331.84 Q1981.83 1329.13 1978.42 1329.13 M1978.42 1325.52 Q1983.98 1325.52 1987.15 1329.13 Q1990.32 1332.75 1990.32 1339.13 Q1990.32 1345.5 1987.15 1349.13 Q1983.98 1352.75 1978.42 1352.75 Q1972.84 1352.75 1969.67 1349.13 Q1966.53 1345.5 1966.53 1339.13 Q1966.53 1332.75 1969.67 1329.13 Q1972.84 1325.52 1978.42 1325.52 Z" fill="#000000" fill-rule="evenodd" fill-opacity="1" /><path clip-path="url(#clip830)" d="M2014.44 1330.08 L2014.44 1316.06 L2018.7 1316.06 L2018.7 1352.07 L2014.44 1352.07 L2014.44 1348.19 Q2013.1 1350.5 2011.04 1351.63 Q2009 1352.75 2006.13 1352.75 Q2001.43 1352.75 1998.47 1349 Q1995.53 1345.25 1995.53 1339.13 Q1995.53 1333.02 1998.47 1329.27 Q2001.43 1325.52 2006.13 1325.52 Q2009 1325.52 2011.04 1326.66 Q2013.1 1327.77 2014.44 1330.08 M1999.93 1339.13 Q1999.93 1343.83 2001.85 1346.52 Q2003.79 1349.18 2007.17 1349.18 Q2010.55 1349.18 2012.5 1346.52 Q2014.44 1343.83 2014.44 1339.13 Q2014.44 1334.44 2012.5 1331.77 Q2010.55 1329.09 2007.17 1329.09 Q2003.79 1329.09 2001.85 1331.77 Q1999.93 1334.44 1999.93 1339.13 Z" fill="#000000" fill-rule="evenodd" fill-opacity="1" /><path clip-path="url(#clip830)" d="M2049.65 1338.05 L2049.65 1340.13 L2030.07 1340.13 Q2030.34 1344.53 2032.71 1346.84 Q2035.09 1349.13 2039.33 1349.13 Q2041.78 1349.13 2044.07 1348.53 Q2046.39 1347.93 2048.65 1346.73 L2048.65 1350.75 Q2046.36 1351.73 2043.96 1352.24 Q2041.55 1352.75 2039.07 1352.75 Q2032.87 1352.75 2029.23 1349.13 Q2025.62 1345.52 2025.62 1339.37 Q2025.62 1333 2029.05 1329.27 Q2032.5 1325.52 2038.33 1325.52 Q2043.56 1325.52 2046.59 1328.9 Q2049.65 1332.26 2049.65 1338.05 M2045.39 1336.8 Q2045.34 1333.3 2043.42 1331.22 Q2041.53 1329.13 2038.38 1329.13 Q2034.81 1329.13 2032.66 1331.15 Q2030.53 1333.16 2030.21 1336.82 L2045.39 1336.8 Z" fill="#000000" fill-rule="evenodd" fill-opacity="1" /><path clip-path="url(#clip830)" d="M2056.64 1316.06 L2060.9 1316.06 L2060.9 1352.07 L2056.64 1352.07 L2056.64 1316.06 Z" fill="#000000" fill-rule="evenodd" fill-opacity="1" /><circle clip-path="url(#clip830)" cx="1732.19" cy="1386.63" r="23.04" fill="#000000" fill-rule="evenodd" fill-opacity="1" stroke="none"/>
<path clip-path="url(#clip830)" d="M1829.84 1369.35 L1836.8 1369.35 L1845.62 1392.87 L1854.49 1369.35 L1861.46 1369.35 L1861.46 1403.91 L1856.9 1403.91 L1856.9 1373.57 L1847.98 1397.27 L1843.29 1397.27 L1834.37 1373.57 L1834.37 1403.91 L1829.84 1403.91 L1829.84 1369.35 Z" fill="#000000" fill-rule="evenodd" fill-opacity="1" /><path clip-path="url(#clip830)" d="M1880.6 1380.97 Q1877.17 1380.97 1875.18 1383.66 Q1873.19 1386.32 1873.19 1390.97 Q1873.19 1395.63 1875.16 1398.31 Q1877.15 1400.97 1880.6 1400.97 Q1884 1400.97 1885.99 1398.29 Q1887.98 1395.6 1887.98 1390.97 Q1887.98 1386.37 1885.99 1383.68 Q1884 1380.97 1880.6 1380.97 M1880.6 1377.36 Q1886.16 1377.36 1889.33 1380.97 Q1892.5 1384.59 1892.5 1390.97 Q1892.5 1397.34 1889.33 1400.97 Q1886.16 1404.59 1880.6 1404.59 Q1875.02 1404.59 1871.85 1400.97 Q1868.7 1397.34 1868.7 1390.97 Q1868.7 1384.59 1871.85 1380.97 Q1875.02 1377.36 1880.6 1377.36 Z" fill="#000000" fill-rule="evenodd" fill-opacity="1" /><path clip-path="url(#clip830)" d="M1916.62 1381.92 L1916.62 1367.9 L1920.88 1367.9 L1920.88 1403.91 L1916.62 1403.91 L1916.62 1400.03 Q1915.28 1402.34 1913.22 1403.47 Q1911.18 1404.59 1908.31 1404.59 Q1903.61 1404.59 1900.65 1400.84 Q1897.71 1397.09 1897.71 1390.97 Q1897.71 1384.86 1900.65 1381.11 Q1903.61 1377.36 1908.31 1377.36 Q1911.18 1377.36 1913.22 1378.5 Q1915.28 1379.61 1916.62 1381.92 M1902.1 1390.97 Q1902.1 1395.67 1904.03 1398.36 Q1905.97 1401.02 1909.35 1401.02 Q1912.73 1401.02 1914.67 1398.36 Q1916.62 1395.67 1916.62 1390.97 Q1916.62 1386.28 1914.67 1383.61 Q1912.73 1380.93 1909.35 1380.93 Q1905.97 1380.93 1904.03 1383.61 Q1902.1 1386.28 1902.1 1390.97 Z" fill="#000000" fill-rule="evenodd" fill-opacity="1" /><path clip-path="url(#clip830)" d="M1951.83 1389.89 L1951.83 1391.97 L1932.24 1391.97 Q1932.52 1396.37 1934.88 1398.68 Q1937.27 1400.97 1941.5 1400.97 Q1943.96 1400.97 1946.25 1400.37 Q1948.56 1399.77 1950.83 1398.57 L1950.83 1402.59 Q1948.54 1403.57 1946.13 1404.08 Q1943.72 1404.59 1941.25 1404.59 Q1935.04 1404.59 1931.41 1400.97 Q1927.8 1397.36 1927.8 1391.21 Q1927.8 1384.84 1931.22 1381.11 Q1934.67 1377.36 1940.51 1377.36 Q1945.74 1377.36 1948.77 1380.74 Q1951.83 1384.1 1951.83 1389.89 M1947.57 1388.64 Q1947.52 1385.14 1945.6 1383.06 Q1943.7 1380.97 1940.55 1380.97 Q1936.99 1380.97 1934.84 1382.99 Q1932.71 1385 1932.38 1388.66 L1947.57 1388.64 Z" fill="#000000" fill-rule="evenodd" fill-opacity="1" /><path clip-path="url(#clip830)" d="M1958.82 1367.9 L1963.08 1367.9 L1963.08 1403.91 L1958.82 1403.91 L1958.82 1367.9 Z" fill="#000000" fill-rule="evenodd" fill-opacity="1" /><path clip-path="url(#clip830)" d="M1987.24 1369.35 L2009.09 1369.35 L2009.09 1373.29 L1991.92 1373.29 L1991.92 1383.52 L2008.38 1383.52 L2008.38 1387.46 L1991.92 1387.46 L1991.92 1399.98 L2009.51 1399.98 L2009.51 1403.91 L1987.24 1403.91 L1987.24 1369.35 Z" fill="#000000" fill-rule="evenodd" fill-opacity="1" /><path clip-path="url(#clip830)" d="M2013.96 1377.99 L2018.47 1377.99 L2026.57 1399.75 L2034.67 1377.99 L2039.19 1377.99 L2029.46 1403.91 L2023.68 1403.91 L2013.96 1377.99 Z" fill="#000000" fill-rule="evenodd" fill-opacity="1" /><path clip-path="url(#clip830)" d="M2056.85 1390.88 Q2051.69 1390.88 2049.7 1392.06 Q2047.71 1393.24 2047.71 1396.09 Q2047.71 1398.36 2049.19 1399.7 Q2050.69 1401.02 2053.26 1401.02 Q2056.8 1401.02 2058.93 1398.52 Q2061.09 1396 2061.09 1391.83 L2061.09 1390.88 L2056.85 1390.88 M2065.34 1389.12 L2065.34 1403.91 L2061.09 1403.91 L2061.09 1399.98 Q2059.63 1402.34 2057.45 1403.47 Q2055.27 1404.59 2052.13 1404.59 Q2048.15 1404.59 2045.78 1402.36 Q2043.45 1400.12 2043.45 1396.37 Q2043.45 1391.99 2046.36 1389.77 Q2049.3 1387.55 2055.11 1387.55 L2061.09 1387.55 L2061.09 1387.13 Q2061.09 1384.19 2059.14 1382.6 Q2057.22 1380.97 2053.72 1380.97 Q2051.5 1380.97 2049.4 1381.51 Q2047.29 1382.04 2045.34 1383.1 L2045.34 1379.17 Q2047.68 1378.27 2049.88 1377.83 Q2052.08 1377.36 2054.16 1377.36 Q2059.79 1377.36 2062.57 1380.28 Q2065.34 1383.2 2065.34 1389.12 Z" fill="#000000" fill-rule="evenodd" fill-opacity="1" /><path clip-path="url(#clip830)" d="M2074.12 1367.9 L2078.38 1367.9 L2078.38 1403.91 L2074.12 1403.91 L2074.12 1367.9 Z" fill="#000000" fill-rule="evenodd" fill-opacity="1" /><path clip-path="url(#clip830)" d="M2086.85 1393.68 L2086.85 1377.99 L2091.11 1377.99 L2091.11 1393.52 Q2091.11 1397.2 2092.54 1399.05 Q2093.98 1400.88 2096.85 1400.88 Q2100.3 1400.88 2102.29 1398.68 Q2104.3 1396.48 2104.3 1392.69 L2104.3 1377.99 L2108.56 1377.99 L2108.56 1403.91 L2104.3 1403.91 L2104.3 1399.93 Q2102.75 1402.29 2100.69 1403.45 Q2098.65 1404.59 2095.95 1404.59 Q2091.48 1404.59 2089.16 1401.81 Q2086.85 1399.03 2086.85 1393.68 M2097.57 1377.36 L2097.57 1377.36 Z" fill="#000000" fill-rule="evenodd" fill-opacity="1" /><path clip-path="url(#clip830)" d="M2129.12 1390.88 Q2123.96 1390.88 2121.96 1392.06 Q2119.97 1393.24 2119.97 1396.09 Q2119.97 1398.36 2121.46 1399.7 Q2122.96 1401.02 2125.53 1401.02 Q2129.07 1401.02 2131.2 1398.52 Q2133.35 1396 2133.35 1391.83 L2133.35 1390.88 L2129.12 1390.88 M2137.61 1389.12 L2137.61 1403.91 L2133.35 1403.91 L2133.35 1399.98 Q2131.89 1402.34 2129.72 1403.47 Q2127.54 1404.59 2124.39 1404.59 Q2120.41 1404.59 2118.05 1402.36 Q2115.71 1400.12 2115.71 1396.37 Q2115.71 1391.99 2118.63 1389.77 Q2121.57 1387.55 2127.38 1387.55 L2133.35 1387.55 L2133.35 1387.13 Q2133.35 1384.19 2131.41 1382.6 Q2129.49 1380.97 2125.99 1380.97 Q2123.77 1380.97 2121.66 1381.51 Q2119.56 1382.04 2117.61 1383.1 L2117.61 1379.17 Q2119.95 1378.27 2122.15 1377.83 Q2124.35 1377.36 2126.43 1377.36 Q2132.06 1377.36 2134.83 1380.28 Q2137.61 1383.2 2137.61 1389.12 Z" fill="#000000" fill-rule="evenodd" fill-opacity="1" /><path clip-path="url(#clip830)" d="M2150.6 1370.63 L2150.6 1377.99 L2159.37 1377.99 L2159.37 1381.3 L2150.6 1381.3 L2150.6 1395.37 Q2150.6 1398.54 2151.46 1399.45 Q2152.33 1400.35 2155 1400.35 L2159.37 1400.35 L2159.37 1403.91 L2155 1403.91 Q2150.07 1403.91 2148.19 1402.09 Q2146.32 1400.23 2146.32 1395.37 L2146.32 1381.3 L2143.19 1381.3 L2143.19 1377.99 L2146.32 1377.99 L2146.32 1370.63 L2150.6 1370.63 Z" fill="#000000" fill-rule="evenodd" fill-opacity="1" /><path clip-path="url(#clip830)" d="M2164.97 1377.99 L2169.23 1377.99 L2169.23 1403.91 L2164.97 1403.91 L2164.97 1377.99 M2164.97 1367.9 L2169.23 1367.9 L2169.23 1373.29 L2164.97 1373.29 L2164.97 1367.9 Z" fill="#000000" fill-rule="evenodd" fill-opacity="1" /><path clip-path="url(#clip830)" d="M2188.19 1380.97 Q2184.77 1380.97 2182.77 1383.66 Q2180.78 1386.32 2180.78 1390.97 Q2180.78 1395.63 2182.75 1398.31 Q2184.74 1400.97 2188.19 1400.97 Q2191.59 1400.97 2193.58 1398.29 Q2195.58 1395.6 2195.58 1390.97 Q2195.58 1386.37 2193.58 1383.68 Q2191.59 1380.97 2188.19 1380.97 M2188.19 1377.36 Q2193.75 1377.36 2196.92 1380.97 Q2200.09 1384.59 2200.09 1390.97 Q2200.09 1397.34 2196.92 1400.97 Q2193.75 1404.59 2188.19 1404.59 Q2182.61 1404.59 2179.44 1400.97 Q2176.29 1397.34 2176.29 1390.97 Q2176.29 1384.59 2179.44 1380.97 Q2182.61 1377.36 2188.19 1377.36 Z" fill="#000000" fill-rule="evenodd" fill-opacity="1" /><path clip-path="url(#clip830)" d="M2228.7 1388.27 L2228.7 1403.91 L2224.44 1403.91 L2224.44 1388.41 Q2224.44 1384.72 2223.01 1382.9 Q2221.57 1381.07 2218.7 1381.07 Q2215.25 1381.07 2213.26 1383.27 Q2211.27 1385.47 2211.27 1389.26 L2211.27 1403.91 L2206.99 1403.91 L2206.99 1377.99 L2211.27 1377.99 L2211.27 1382.02 Q2212.8 1379.68 2214.86 1378.52 Q2216.94 1377.36 2219.65 1377.36 Q2224.12 1377.36 2226.41 1380.14 Q2228.7 1382.9 2228.7 1388.27 Z" fill="#000000" fill-rule="evenodd" fill-opacity="1" /><path clip-path="url(#clip830)" d="M2253.72 1378.75 L2253.72 1382.78 Q2251.92 1381.85 2249.97 1381.39 Q2248.03 1380.93 2245.95 1380.93 Q2242.77 1380.93 2241.18 1381.9 Q2239.6 1382.87 2239.6 1384.82 Q2239.6 1386.3 2240.74 1387.16 Q2241.87 1387.99 2245.3 1388.75 L2246.76 1389.08 Q2251.29 1390.05 2253.19 1391.83 Q2255.11 1393.59 2255.11 1396.76 Q2255.11 1400.37 2252.24 1402.48 Q2249.39 1404.59 2244.39 1404.59 Q2242.31 1404.59 2240.04 1404.17 Q2237.8 1403.78 2235.3 1402.97 L2235.3 1398.57 Q2237.66 1399.79 2239.95 1400.42 Q2242.24 1401.02 2244.49 1401.02 Q2247.5 1401.02 2249.12 1400 Q2250.74 1398.96 2250.74 1397.09 Q2250.74 1395.35 2249.56 1394.42 Q2248.4 1393.5 2244.44 1392.64 L2242.96 1392.29 Q2239 1391.46 2237.24 1389.75 Q2235.48 1388.01 2235.48 1385 Q2235.48 1381.35 2238.07 1379.35 Q2240.67 1377.36 2245.44 1377.36 Q2247.8 1377.36 2249.88 1377.71 Q2251.96 1378.06 2253.72 1378.75 Z" fill="#000000" fill-rule="evenodd" fill-opacity="1" /></svg>
