<?xml version="1.0" encoding="utf-8"?>
<svg xmlns="http://www.w3.org/2000/svg" xmlns:xlink="http://www.w3.org/1999/xlink" width="600" height="400" viewBox="0 0 2400 1600">
<defs>
  <clipPath id="clip460">
    <rect x="0" y="0" width="2400" height="1600"/>
  </clipPath>
</defs>
<path clip-path="url(#clip460)" d="
M0 1600 L2400 1600 L2400 0 L0 0  Z
  " fill="#ffffff" fill-rule="evenodd" fill-opacity="1"/>
<defs>
  <clipPath id="clip461">
    <rect x="480" y="0" width="1681" height="1600"/>
  </clipPath>
</defs>
<defs>
  <clipPath id="clip462">
    <rect x="451" y="47" width="1903" height="1329"/>
  </clipPath>
</defs>
<path clip-path="url(#clip460)" d="
M451.17 1375.66 L2352.76 1375.66 L2352.76 47.2441 L451.17 47.2441  Z
  " fill="#ffffff" fill-rule="evenodd" fill-opacity="1"/>
<polyline clip-path="url(#clip462)" style="stroke:#000000; stroke-linecap:round; stroke-linejoin:round; stroke-width:2; stroke-opacity:0.1; fill:none" points="
  504.988,1375.66 504.988,47.2441 
  "/>
<polyline clip-path="url(#clip462)" style="stroke:#000000; stroke-linecap:round; stroke-linejoin:round; stroke-width:2; stroke-opacity:0.1; fill:none" points="
  953.476,1375.66 953.476,47.2441 
  "/>
<polyline clip-path="url(#clip462)" style="stroke:#000000; stroke-linecap:round; stroke-linejoin:round; stroke-width:2; stroke-opacity:0.1; fill:none" points="
  1401.96,1375.66 1401.96,47.2441 
  "/>
<polyline clip-path="url(#clip462)" style="stroke:#000000; stroke-linecap:round; stroke-linejoin:round; stroke-width:2; stroke-opacity:0.1; fill:none" points="
  1850.45,1375.66 1850.45,47.2441 
  "/>
<polyline clip-path="url(#clip462)" style="stroke:#000000; stroke-linecap:round; stroke-linejoin:round; stroke-width:2; stroke-opacity:0.1; fill:none" points="
  2298.94,1375.66 2298.94,47.2441 
  "/>
<polyline clip-path="url(#clip460)" style="stroke:#000000; stroke-linecap:round; stroke-linejoin:round; stroke-width:4; stroke-opacity:1; fill:none" points="
  451.17,1375.66 2352.76,1375.66 
  "/>
<polyline clip-path="url(#clip460)" style="stroke:#000000; stroke-linecap:round; stroke-linejoin:round; stroke-width:4; stroke-opacity:1; fill:none" points="
  504.988,1375.66 504.988,1356.76 
  "/>
<polyline clip-path="url(#clip460)" style="stroke:#000000; stroke-linecap:round; stroke-linejoin:round; stroke-width:4; stroke-opacity:1; fill:none" points="
  953.476,1375.66 953.476,1356.76 
  "/>
<polyline clip-path="url(#clip460)" style="stroke:#000000; stroke-linecap:round; stroke-linejoin:round; stroke-width:4; stroke-opacity:1; fill:none" points="
  1401.96,1375.66 1401.96,1356.76 
  "/>
<polyline clip-path="url(#clip460)" style="stroke:#000000; stroke-linecap:round; stroke-linejoin:round; stroke-width:4; stroke-opacity:1; fill:none" points="
  1850.45,1375.66 1850.45,1356.76 
  "/>
<polyline clip-path="url(#clip460)" style="stroke:#000000; stroke-linecap:round; stroke-linejoin:round; stroke-width:4; stroke-opacity:1; fill:none" points="
  2298.94,1375.66 2298.94,1356.76 
  "/>
<path clip-path="url(#clip460)" d="M439.019 1415.37 Q432.7 1415.37 429.5 1421.61 Q426.34 1427.8 426.34 1440.28 Q426.34 1452.72 429.5 1458.96 Q432.7 1465.15 439.019 1465.15 Q445.379 1465.15 448.539 1458.96 Q451.739 1452.72 451.739 1440.28 Q451.739 1427.8 448.539 1421.61 Q445.379 1415.37 439.019 1415.37 M439.019 1408.89 Q449.187 1408.89 454.534 1416.95 Q459.922 1424.97 459.922 1440.28 Q459.922 1455.55 454.534 1463.61 Q449.187 1471.63 439.019 1471.63 Q428.852 1471.63 423.464 1463.61 Q418.117 1455.55 418.117 1440.28 Q418.117 1424.97 423.464 1416.95 Q428.852 1408.89 439.019 1408.89 Z" fill="#000000" fill-rule="evenodd" fill-opacity="1" /><path clip-path="url(#clip460)" d="M474.303 1460.17 L482.85 1460.17 L482.85 1470.46 L474.303 1470.46 L474.303 1460.17 Z" fill="#000000" fill-rule="evenodd" fill-opacity="1" /><path clip-path="url(#clip460)" d="M518.174 1415.37 Q511.855 1415.37 508.655 1421.61 Q505.495 1427.8 505.495 1440.28 Q505.495 1452.72 508.655 1458.96 Q511.855 1465.15 518.174 1465.15 Q524.534 1465.15 527.694 1458.96 Q530.894 1452.72 530.894 1440.28 Q530.894 1427.8 527.694 1421.61 Q524.534 1415.37 518.174 1415.37 M518.174 1408.89 Q528.342 1408.89 533.689 1416.95 Q539.077 1424.97 539.077 1440.28 Q539.077 1455.55 533.689 1463.61 Q528.342 1471.63 518.174 1471.63 Q508.006 1471.63 502.619 1463.61 Q497.271 1455.55 497.271 1440.28 Q497.271 1424.97 502.619 1416.95 Q508.006 1408.89 518.174 1408.89 Z" fill="#000000" fill-rule="evenodd" fill-opacity="1" /><path clip-path="url(#clip460)" d="M570.957 1415.37 Q564.638 1415.37 561.438 1421.61 Q558.278 1427.8 558.278 1440.28 Q558.278 1452.72 561.438 1458.96 Q564.638 1465.15 570.957 1465.15 Q577.317 1465.15 580.477 1458.96 Q583.677 1452.72 583.677 1440.28 Q583.677 1427.8 580.477 1421.61 Q577.317 1415.37 570.957 1415.37 M570.957 1408.89 Q581.125 1408.89 586.472 1416.95 Q591.86 1424.97 591.86 1440.28 Q591.86 1455.55 586.472 1463.61 Q581.125 1471.63 570.957 1471.63 Q560.79 1471.63 555.402 1463.61 Q550.055 1455.55 550.055 1440.28 Q550.055 1424.97 555.402 1416.95 Q560.79 1408.89 570.957 1408.89 Z" fill="#000000" fill-rule="evenodd" fill-opacity="1" /><path clip-path="url(#clip460)" d="M888.378 1415.37 Q882.058 1415.37 878.858 1421.61 Q875.698 1427.8 875.698 1440.28 Q875.698 1452.72 878.858 1458.96 Q882.058 1465.15 888.378 1465.15 Q894.738 1465.15 897.897 1458.96 Q901.098 1452.72 901.098 1440.28 Q901.098 1427.8 897.897 1421.61 Q894.738 1415.37 888.378 1415.37 M888.378 1408.89 Q898.545 1408.89 903.893 1416.95 Q909.28 1424.97 909.28 1440.28 Q909.28 1455.55 903.893 1463.61 Q898.545 1471.63 888.378 1471.63 Q878.21 1471.63 872.822 1463.61 Q867.475 1455.55 867.475 1440.28 Q867.475 1424.97 872.822 1416.95 Q878.21 1408.89 888.378 1408.89 Z" fill="#000000" fill-rule="evenodd" fill-opacity="1" /><path clip-path="url(#clip460)" d="M923.661 1460.17 L932.208 1460.17 L932.208 1470.46 L923.661 1470.46 L923.661 1460.17 Z" fill="#000000" fill-rule="evenodd" fill-opacity="1" /><path clip-path="url(#clip460)" d="M957.081 1463.57 L985.64 1463.57 L985.64 1470.46 L947.237 1470.46 L947.237 1463.57 Q951.896 1458.75 959.917 1450.65 Q967.978 1442.51 970.044 1440.16 Q973.973 1435.74 975.513 1432.71 Q977.092 1429.63 977.092 1426.67 Q977.092 1421.85 973.69 1418.81 Q970.327 1415.77 964.899 1415.77 Q961.051 1415.77 956.757 1417.11 Q952.503 1418.45 947.642 1421.16 L947.642 1412.9 Q952.585 1410.91 956.878 1409.9 Q961.172 1408.89 964.737 1408.89 Q974.135 1408.89 979.726 1413.59 Q985.316 1418.28 985.316 1426.14 Q985.316 1429.87 983.898 1433.23 Q982.521 1436.55 978.834 1441.09 Q977.822 1442.27 972.393 1447.9 Q966.965 1453.49 957.081 1463.57 Z" fill="#000000" fill-rule="evenodd" fill-opacity="1" /><path clip-path="url(#clip460)" d="M1002.9 1409.98 L1035.02 1409.98 L1035.02 1416.87 L1010.39 1416.87 L1010.39 1431.69 Q1012.17 1431.09 1013.96 1430.8 Q1015.74 1430.48 1017.52 1430.48 Q1027.65 1430.48 1033.56 1436.03 Q1039.48 1441.58 1039.48 1451.06 Q1039.48 1460.82 1033.4 1466.25 Q1027.32 1471.63 1016.26 1471.63 Q1012.46 1471.63 1008.49 1470.99 Q1004.56 1470.34 1000.34 1469.04 L1000.34 1460.82 Q1003.99 1462.8 1007.88 1463.78 Q1011.77 1464.75 1016.1 1464.75 Q1023.11 1464.75 1027.2 1461.06 Q1031.29 1457.38 1031.29 1451.06 Q1031.29 1444.74 1027.2 1441.05 Q1023.11 1437.36 1016.1 1437.36 Q1012.82 1437.36 1009.54 1438.09 Q1006.3 1438.82 1002.9 1440.36 L1002.9 1409.98 Z" fill="#000000" fill-rule="evenodd" fill-opacity="1" /><path clip-path="url(#clip460)" d="M1335.99 1415.37 Q1329.67 1415.37 1326.47 1421.61 Q1323.31 1427.8 1323.31 1440.28 Q1323.31 1452.72 1326.47 1458.96 Q1329.67 1465.15 1335.99 1465.15 Q1342.35 1465.15 1345.51 1458.96 Q1348.71 1452.72 1348.71 1440.28 Q1348.71 1427.8 1345.51 1421.61 Q1342.35 1415.37 1335.99 1415.37 M1335.99 1408.89 Q1346.16 1408.89 1351.51 1416.95 Q1356.9 1424.97 1356.9 1440.28 Q1356.9 1455.55 1351.51 1463.61 Q1346.16 1471.63 1335.99 1471.63 Q1325.83 1471.63 1320.44 1463.61 Q1315.09 1455.55 1315.09 1440.28 Q1315.09 1424.97 1320.44 1416.95 Q1325.83 1408.89 1335.99 1408.89 Z" fill="#000000" fill-rule="evenodd" fill-opacity="1" /><path clip-path="url(#clip460)" d="M1371.28 1460.17 L1379.82 1460.17 L1379.82 1470.46 L1371.28 1470.46 L1371.28 1460.17 Z" fill="#000000" fill-rule="evenodd" fill-opacity="1" /><path clip-path="url(#clip460)" d="M1397.73 1409.98 L1429.85 1409.98 L1429.85 1416.87 L1405.22 1416.87 L1405.22 1431.69 Q1407.01 1431.09 1408.79 1430.8 Q1410.57 1430.48 1412.35 1430.48 Q1422.48 1430.48 1428.4 1436.03 Q1434.31 1441.58 1434.31 1451.06 Q1434.31 1460.82 1428.23 1466.25 Q1422.16 1471.63 1411.1 1471.63 Q1407.29 1471.63 1403.32 1470.99 Q1399.39 1470.34 1395.18 1469.04 L1395.18 1460.82 Q1398.82 1462.8 1402.71 1463.78 Q1406.6 1464.75 1410.94 1464.75 Q1417.94 1464.75 1422.04 1461.06 Q1426.13 1457.38 1426.13 1451.06 Q1426.13 1444.74 1422.04 1441.05 Q1417.94 1437.36 1410.94 1437.36 Q1407.65 1437.36 1404.37 1438.09 Q1401.13 1438.82 1397.73 1440.36 L1397.73 1409.98 Z" fill="#000000" fill-rule="evenodd" fill-opacity="1" /><path clip-path="url(#clip460)" d="M1467.93 1415.37 Q1461.61 1415.37 1458.41 1421.61 Q1455.25 1427.8 1455.25 1440.28 Q1455.25 1452.72 1458.41 1458.96 Q1461.61 1465.15 1467.93 1465.15 Q1474.29 1465.15 1477.45 1458.96 Q1480.65 1452.72 1480.65 1440.28 Q1480.65 1427.8 1477.45 1421.61 Q1474.29 1415.37 1467.93 1415.37 M1467.93 1408.89 Q1478.1 1408.89 1483.45 1416.95 Q1488.83 1424.97 1488.83 1440.28 Q1488.83 1455.55 1483.45 1463.61 Q1478.1 1471.63 1467.93 1471.63 Q1457.76 1471.63 1452.38 1463.61 Q1447.03 1455.55 1447.03 1440.28 Q1447.03 1424.97 1452.38 1416.95 Q1457.76 1408.89 1467.93 1408.89 Z" fill="#000000" fill-rule="evenodd" fill-opacity="1" /><path clip-path="url(#clip460)" d="M1785.35 1415.37 Q1779.03 1415.37 1775.83 1421.61 Q1772.67 1427.8 1772.67 1440.28 Q1772.67 1452.72 1775.83 1458.96 Q1779.03 1465.15 1785.35 1465.15 Q1791.71 1465.15 1794.87 1458.96 Q1798.07 1452.72 1798.07 1440.28 Q1798.07 1427.8 1794.87 1421.61 Q1791.71 1415.37 1785.35 1415.37 M1785.35 1408.89 Q1795.52 1408.89 1800.87 1416.95 Q1806.25 1424.97 1806.25 1440.28 Q1806.25 1455.55 1800.87 1463.61 Q1795.52 1471.63 1785.35 1471.63 Q1775.18 1471.63 1769.8 1463.61 Q1764.45 1455.55 1764.45 1440.28 Q1764.45 1424.97 1769.8 1416.95 Q1775.18 1408.89 1785.35 1408.89 Z" fill="#000000" fill-rule="evenodd" fill-opacity="1" /><path clip-path="url(#clip460)" d="M1820.64 1460.17 L1829.18 1460.17 L1829.18 1470.46 L1820.64 1470.46 L1820.64 1460.17 Z" fill="#000000" fill-rule="evenodd" fill-opacity="1" /><path clip-path="url(#clip460)" d="M1844.94 1409.98 L1883.83 1409.98 L1883.83 1413.46 L1861.87 1470.46 L1853.33 1470.46 L1873.99 1416.87 L1844.94 1416.87 L1844.94 1409.98 Z" fill="#000000" fill-rule="evenodd" fill-opacity="1" /><path clip-path="url(#clip460)" d="M1899.87 1409.98 L1931.99 1409.98 L1931.99 1416.87 L1907.37 1416.87 L1907.37 1431.69 Q1909.15 1431.09 1910.93 1430.8 Q1912.71 1430.48 1914.49 1430.48 Q1924.62 1430.48 1930.54 1436.03 Q1936.45 1441.58 1936.45 1451.06 Q1936.45 1460.82 1930.37 1466.25 Q1924.3 1471.63 1913.24 1471.63 Q1909.43 1471.63 1905.46 1470.99 Q1901.53 1470.34 1897.32 1469.04 L1897.32 1460.82 Q1900.96 1462.8 1904.85 1463.78 Q1908.74 1464.75 1913.08 1464.75 Q1920.09 1464.75 1924.18 1461.06 Q1928.27 1457.38 1928.27 1451.06 Q1928.27 1444.74 1924.18 1441.05 Q1920.09 1437.36 1913.08 1437.36 Q1909.8 1437.36 1906.51 1438.09 Q1903.27 1438.82 1899.87 1440.36 L1899.87 1409.98 Z" fill="#000000" fill-rule="evenodd" fill-opacity="1" /><path clip-path="url(#clip460)" d="M2215.06 1463.57 L2228.43 1463.57 L2228.43 1417.43 L2213.89 1420.35 L2213.89 1412.9 L2228.35 1409.98 L2236.53 1409.98 L2236.53 1463.57 L2249.9 1463.57 L2249.9 1470.46 L2215.06 1470.46 L2215.06 1463.57 Z" fill="#000000" fill-rule="evenodd" fill-opacity="1" /><path clip-path="url(#clip460)" d="M2266.43 1460.17 L2274.98 1460.17 L2274.98 1470.46 L2266.43 1470.46 L2266.43 1460.17 Z" fill="#000000" fill-rule="evenodd" fill-opacity="1" /><path clip-path="url(#clip460)" d="M2310.3 1415.37 Q2303.98 1415.37 2300.78 1421.61 Q2297.62 1427.8 2297.62 1440.28 Q2297.62 1452.72 2300.78 1458.96 Q2303.98 1465.15 2310.3 1465.15 Q2316.66 1465.15 2319.82 1458.96 Q2323.02 1452.72 2323.02 1440.28 Q2323.02 1427.8 2319.82 1421.61 Q2316.66 1415.37 2310.3 1415.37 M2310.3 1408.89 Q2320.47 1408.89 2325.82 1416.95 Q2331.2 1424.97 2331.2 1440.28 Q2331.2 1455.55 2325.82 1463.61 Q2320.47 1471.63 2310.3 1471.63 Q2300.13 1471.63 2294.74 1463.61 Q2289.4 1455.55 2289.4 1440.28 Q2289.4 1424.97 2294.74 1416.95 Q2300.13 1408.89 2310.3 1408.89 Z" fill="#000000" fill-rule="evenodd" fill-opacity="1" /><path clip-path="url(#clip460)" d="M2363.08 1415.37 Q2356.76 1415.37 2353.56 1421.61 Q2350.4 1427.8 2350.4 1440.28 Q2350.4 1452.72 2353.56 1458.96 Q2356.76 1465.15 2363.08 1465.15 Q2369.44 1465.15 2372.6 1458.96 Q2375.8 1452.72 2375.8 1440.28 Q2375.8 1427.8 2372.6 1421.61 Q2369.44 1415.37 2363.08 1415.37 M2363.08 1408.89 Q2373.25 1408.89 2378.6 1416.95 Q2383.99 1424.97 2383.99 1440.28 Q2383.99 1455.55 2378.6 1463.61 Q2373.25 1471.63 2363.08 1471.63 Q2352.92 1471.63 2347.53 1463.61 Q2342.18 1455.55 2342.18 1440.28 Q2342.18 1424.97 2347.53 1416.95 Q2352.92 1408.89 2363.08 1408.89 Z" fill="#000000" fill-rule="evenodd" fill-opacity="1" /><path clip-path="url(#clip460)" d="M1419.32 1528.85 Q1419.32 1536.72 1416.79 1545.58 Q1414.31 1554.38 1410.38 1561.5 Q1406.44 1568.58 1401.29 1573.26 Q1396.14 1577.9 1391.22 1577.9 Q1388.08 1577.9 1385.74 1576.16 Q1383.44 1574.38 1382.18 1571.43 Q1380.91 1568.44 1380.3 1565.16 Q1379.69 1561.83 1379.69 1558.22 Q1379.69 1552.84 1380.86 1546.98 Q1382.04 1541.08 1384 1535.74 Q1385.97 1530.35 1388.73 1525.48 Q1391.5 1520.56 1394.54 1517 Q1397.64 1513.39 1401.1 1511.28 Q1404.57 1509.18 1407.8 1509.18 Q1410.14 1509.18 1412.02 1510.21 Q1413.94 1511.19 1415.16 1512.92 Q1416.37 1514.61 1417.22 1516.62 Q1418.11 1518.64 1418.53 1520.98 Q1418.95 1523.28 1419.14 1525.2 Q1419.32 1527.07 1419.32 1528.85 M1413 1522.9 Q1413 1520.51 1412.81 1518.73 Q1412.63 1516.91 1412.11 1515.08 Q1411.6 1513.25 1410.47 1512.27 Q1409.39 1511.28 1407.71 1511.28 Q1402.79 1511.28 1397.26 1521.36 Q1395.48 1524.49 1393.89 1528.76 Q1392.29 1533.02 1391.73 1535.03 Q1391.17 1537.05 1389.86 1542.01 L1409.91 1542.01 Q1413 1529.23 1413 1522.9 M1409.07 1545.06 L1389.11 1545.06 Q1386.02 1556.77 1386.02 1564.08 Q1386.02 1570.45 1387.33 1573.12 Q1388.69 1575.74 1391.22 1575.74 Q1394.12 1575.74 1396.84 1572.84 Q1399.56 1569.89 1402.32 1564.55 Q1405.97 1557.61 1409.07 1545.06 Z" fill="#000000" fill-rule="evenodd" fill-opacity="1" /><polyline clip-path="url(#clip462)" style="stroke:#000000; stroke-linecap:round; stroke-linejoin:round; stroke-width:2; stroke-opacity:0.1; fill:none" points="
  451.17,1338.06 2352.76,1338.06 
  "/>
<polyline clip-path="url(#clip462)" style="stroke:#000000; stroke-linecap:round; stroke-linejoin:round; stroke-width:2; stroke-opacity:0.1; fill:none" points="
  451.17,1051.61 2352.76,1051.61 
  "/>
<polyline clip-path="url(#clip462)" style="stroke:#000000; stroke-linecap:round; stroke-linejoin:round; stroke-width:2; stroke-opacity:0.1; fill:none" points="
  451.17,765.161 2352.76,765.161 
  "/>
<polyline clip-path="url(#clip462)" style="stroke:#000000; stroke-linecap:round; stroke-linejoin:round; stroke-width:2; stroke-opacity:0.1; fill:none" points="
  451.17,478.711 2352.76,478.711 
  "/>
<polyline clip-path="url(#clip462)" style="stroke:#000000; stroke-linecap:round; stroke-linejoin:round; stroke-width:2; stroke-opacity:0.1; fill:none" points="
  451.17,192.26 2352.76,192.26 
  "/>
<polyline clip-path="url(#clip460)" style="stroke:#000000; stroke-linecap:round; stroke-linejoin:round; stroke-width:4; stroke-opacity:1; fill:none" points="
  451.17,1375.66 451.17,47.2441 
  "/>
<polyline clip-path="url(#clip460)" style="stroke:#000000; stroke-linecap:round; stroke-linejoin:round; stroke-width:4; stroke-opacity:1; fill:none" points="
  451.17,1338.06 470.068,1338.06 
  "/>
<polyline clip-path="url(#clip460)" style="stroke:#000000; stroke-linecap:round; stroke-linejoin:round; stroke-width:4; stroke-opacity:1; fill:none" points="
  451.17,1051.61 470.068,1051.61 
  "/>
<polyline clip-path="url(#clip460)" style="stroke:#000000; stroke-linecap:round; stroke-linejoin:round; stroke-width:4; stroke-opacity:1; fill:none" points="
  451.17,765.161 470.068,765.161 
  "/>
<polyline clip-path="url(#clip460)" style="stroke:#000000; stroke-linecap:round; stroke-linejoin:round; stroke-width:4; stroke-opacity:1; fill:none" points="
  451.17,478.711 470.068,478.711 
  "/>
<polyline clip-path="url(#clip460)" style="stroke:#000000; stroke-linecap:round; stroke-linejoin:round; stroke-width:4; stroke-opacity:1; fill:none" points="
  451.17,192.26 470.068,192.26 
  "/>
<path clip-path="url(#clip460)" d="M156.763 1313.21 Q150.443 1313.21 147.243 1319.45 Q144.083 1325.65 144.083 1338.12 Q144.083 1350.56 147.243 1356.8 Q150.443 1363 156.763 1363 Q163.123 1363 166.282 1356.8 Q169.483 1350.56 169.483 1338.12 Q169.483 1325.65 166.282 1319.45 Q163.123 1313.21 156.763 1313.21 M156.763 1306.73 Q166.931 1306.73 172.278 1314.79 Q177.665 1322.81 177.665 1338.12 Q177.665 1353.4 172.278 1361.46 Q166.931 1369.48 156.763 1369.48 Q146.595 1369.48 141.207 1361.46 Q135.86 1353.4 135.86 1338.12 Q135.86 1322.81 141.207 1314.79 Q146.595 1306.73 156.763 1306.73 Z" fill="#000000" fill-rule="evenodd" fill-opacity="1" /><path clip-path="url(#clip460)" d="M192.046 1358.01 L200.594 1358.01 L200.594 1368.3 L192.046 1368.3 L192.046 1358.01 Z" fill="#000000" fill-rule="evenodd" fill-opacity="1" /><path clip-path="url(#clip460)" d="M235.917 1313.21 Q229.598 1313.21 226.398 1319.45 Q223.238 1325.65 223.238 1338.12 Q223.238 1350.56 226.398 1356.8 Q229.598 1363 235.917 1363 Q242.277 1363 245.437 1356.8 Q248.637 1350.56 248.637 1338.12 Q248.637 1325.65 245.437 1319.45 Q242.277 1313.21 235.917 1313.21 M235.917 1306.73 Q246.085 1306.73 251.432 1314.79 Q256.82 1322.81 256.82 1338.12 Q256.82 1353.4 251.432 1361.46 Q246.085 1369.48 235.917 1369.48 Q225.75 1369.48 220.362 1361.46 Q215.015 1353.4 215.015 1338.12 Q215.015 1322.81 220.362 1314.79 Q225.75 1306.73 235.917 1306.73 Z" fill="#000000" fill-rule="evenodd" fill-opacity="1" /><path clip-path="url(#clip460)" d="M288.701 1313.21 Q282.381 1313.21 279.181 1319.45 Q276.021 1325.65 276.021 1338.12 Q276.021 1350.56 279.181 1356.8 Q282.381 1363 288.701 1363 Q295.061 1363 298.22 1356.8 Q301.421 1350.56 301.421 1338.12 Q301.421 1325.65 298.22 1319.45 Q295.061 1313.21 288.701 1313.21 M288.701 1306.73 Q298.869 1306.73 304.216 1314.79 Q309.603 1322.81 309.603 1338.12 Q309.603 1353.4 304.216 1361.46 Q298.869 1369.48 288.701 1369.48 Q278.533 1369.48 273.145 1361.46 Q267.798 1353.4 267.798 1338.12 Q267.798 1322.81 273.145 1314.79 Q278.533 1306.73 288.701 1306.73 Z" fill="#000000" fill-rule="evenodd" fill-opacity="1" /><path clip-path="url(#clip460)" d="M341.484 1313.21 Q335.165 1313.21 331.964 1319.45 Q328.805 1325.65 328.805 1338.12 Q328.805 1350.56 331.964 1356.8 Q335.165 1363 341.484 1363 Q347.844 1363 351.004 1356.8 Q354.204 1350.56 354.204 1338.12 Q354.204 1325.65 351.004 1319.45 Q347.844 1313.21 341.484 1313.21 M341.484 1306.73 Q351.652 1306.73 356.999 1314.79 Q362.387 1322.81 362.387 1338.12 Q362.387 1353.4 356.999 1361.46 Q351.652 1369.48 341.484 1369.48 Q331.316 1369.48 325.929 1361.46 Q320.581 1353.4 320.581 1338.12 Q320.581 1322.81 325.929 1314.79 Q331.316 1306.73 341.484 1306.73 Z" fill="#000000" fill-rule="evenodd" fill-opacity="1" /><path clip-path="url(#clip460)" d="M394.267 1313.21 Q387.948 1313.21 384.748 1319.45 Q381.588 1325.65 381.588 1338.12 Q381.588 1350.56 384.748 1356.8 Q387.948 1363 394.267 1363 Q400.627 1363 403.787 1356.8 Q406.987 1350.56 406.987 1338.12 Q406.987 1325.65 403.787 1319.45 Q400.627 1313.21 394.267 1313.21 M394.267 1306.73 Q404.435 1306.73 409.782 1314.79 Q415.17 1322.81 415.17 1338.12 Q415.17 1353.4 409.782 1361.46 Q404.435 1369.48 394.267 1369.48 Q384.1 1369.48 378.712 1361.46 Q373.365 1353.4 373.365 1338.12 Q373.365 1322.81 378.712 1314.79 Q384.1 1306.73 394.267 1306.73 Z" fill="#000000" fill-rule="evenodd" fill-opacity="1" /><path clip-path="url(#clip460)" d="M158.505 1026.76 Q152.185 1026.76 148.985 1033 Q145.825 1039.2 145.825 1051.67 Q145.825 1064.11 148.985 1070.35 Q152.185 1076.55 158.505 1076.55 Q164.865 1076.55 168.024 1070.35 Q171.225 1064.11 171.225 1051.67 Q171.225 1039.2 168.024 1033 Q164.865 1026.76 158.505 1026.76 M158.505 1020.28 Q168.672 1020.28 174.02 1028.34 Q179.407 1036.36 179.407 1051.67 Q179.407 1066.95 174.02 1075.01 Q168.672 1083.03 158.505 1083.03 Q148.337 1083.03 142.949 1075.01 Q137.602 1066.95 137.602 1051.67 Q137.602 1036.36 142.949 1028.34 Q148.337 1020.28 158.505 1020.28 Z" fill="#000000" fill-rule="evenodd" fill-opacity="1" /><path clip-path="url(#clip460)" d="M193.788 1071.56 L202.335 1071.56 L202.335 1081.85 L193.788 1081.85 L193.788 1071.56 Z" fill="#000000" fill-rule="evenodd" fill-opacity="1" /><path clip-path="url(#clip460)" d="M237.659 1026.76 Q231.34 1026.76 228.14 1033 Q224.98 1039.2 224.98 1051.67 Q224.98 1064.11 228.14 1070.35 Q231.34 1076.55 237.659 1076.55 Q244.019 1076.55 247.179 1070.35 Q250.379 1064.11 250.379 1051.67 Q250.379 1039.2 247.179 1033 Q244.019 1026.76 237.659 1026.76 M237.659 1020.28 Q247.827 1020.28 253.174 1028.34 Q258.562 1036.36 258.562 1051.67 Q258.562 1066.95 253.174 1075.01 Q247.827 1083.03 237.659 1083.03 Q227.492 1083.03 222.104 1075.01 Q216.757 1066.95 216.757 1051.67 Q216.757 1036.36 222.104 1028.34 Q227.492 1020.28 237.659 1020.28 Z" fill="#000000" fill-rule="evenodd" fill-opacity="1" /><path clip-path="url(#clip460)" d="M290.443 1026.76 Q284.123 1026.76 280.923 1033 Q277.763 1039.2 277.763 1051.67 Q277.763 1064.11 280.923 1070.35 Q284.123 1076.55 290.443 1076.55 Q296.803 1076.55 299.962 1070.35 Q303.163 1064.11 303.163 1051.67 Q303.163 1039.2 299.962 1033 Q296.803 1026.76 290.443 1026.76 M290.443 1020.28 Q300.61 1020.28 305.958 1028.34 Q311.345 1036.36 311.345 1051.67 Q311.345 1066.95 305.958 1075.01 Q300.61 1083.03 290.443 1083.03 Q280.275 1083.03 274.887 1075.01 Q269.54 1066.95 269.54 1051.67 Q269.54 1036.36 274.887 1028.34 Q280.275 1020.28 290.443 1020.28 Z" fill="#000000" fill-rule="evenodd" fill-opacity="1" /><path clip-path="url(#clip460)" d="M332.775 1074.97 L361.333 1074.97 L361.333 1081.85 L322.931 1081.85 L322.931 1074.97 Q327.589 1070.15 335.61 1062.04 Q343.672 1053.9 345.738 1051.55 Q349.667 1047.14 351.206 1044.1 Q352.786 1041.02 352.786 1038.06 Q352.786 1033.24 349.383 1030.2 Q346.021 1027.17 340.593 1027.17 Q336.744 1027.17 332.451 1028.5 Q328.197 1029.84 323.336 1032.55 L323.336 1024.29 Q328.278 1022.3 332.572 1021.29 Q336.866 1020.28 340.431 1020.28 Q349.829 1020.28 355.419 1024.98 Q361.009 1029.68 361.009 1037.54 Q361.009 1041.26 359.592 1044.62 Q358.214 1047.95 354.528 1052.48 Q353.515 1053.66 348.087 1059.29 Q342.659 1064.88 332.775 1074.97 Z" fill="#000000" fill-rule="evenodd" fill-opacity="1" /><path clip-path="url(#clip460)" d="M378.59 1021.37 L410.714 1021.37 L410.714 1028.26 L386.085 1028.26 L386.085 1043.09 Q387.867 1042.48 389.649 1042.19 Q391.432 1041.87 393.214 1041.87 Q403.341 1041.87 409.256 1047.42 Q415.17 1052.97 415.17 1062.45 Q415.17 1072.21 409.094 1077.64 Q403.017 1083.03 391.958 1083.03 Q388.15 1083.03 384.181 1082.38 Q380.251 1081.73 376.038 1080.43 L376.038 1072.21 Q379.684 1074.2 383.573 1075.17 Q387.462 1076.14 391.796 1076.14 Q398.804 1076.14 402.896 1072.45 Q406.987 1068.77 406.987 1062.45 Q406.987 1056.13 402.896 1052.44 Q398.804 1048.76 391.796 1048.76 Q388.515 1048.76 385.234 1049.49 Q381.993 1050.21 378.59 1051.75 L378.59 1021.37 Z" fill="#000000" fill-rule="evenodd" fill-opacity="1" /><path clip-path="url(#clip460)" d="M156.763 740.309 Q150.443 740.309 147.243 746.548 Q144.083 752.745 144.083 765.222 Q144.083 777.659 147.243 783.897 Q150.443 790.095 156.763 790.095 Q163.123 790.095 166.282 783.897 Q169.483 777.659 169.483 765.222 Q169.483 752.745 166.282 746.548 Q163.123 740.309 156.763 740.309 M156.763 733.828 Q166.931 733.828 172.278 741.889 Q177.665 749.91 177.665 765.222 Q177.665 780.494 172.278 788.555 Q166.931 796.576 156.763 796.576 Q146.595 796.576 141.207 788.555 Q135.86 780.494 135.86 765.222 Q135.86 749.91 141.207 741.889 Q146.595 733.828 156.763 733.828 Z" fill="#000000" fill-rule="evenodd" fill-opacity="1" /><path clip-path="url(#clip460)" d="M192.046 785.112 L200.594 785.112 L200.594 795.401 L192.046 795.401 L192.046 785.112 Z" fill="#000000" fill-rule="evenodd" fill-opacity="1" /><path clip-path="url(#clip460)" d="M235.917 740.309 Q229.598 740.309 226.398 746.548 Q223.238 752.745 223.238 765.222 Q223.238 777.659 226.398 783.897 Q229.598 790.095 235.917 790.095 Q242.277 790.095 245.437 783.897 Q248.637 777.659 248.637 765.222 Q248.637 752.745 245.437 746.548 Q242.277 740.309 235.917 740.309 M235.917 733.828 Q246.085 733.828 251.432 741.889 Q256.82 749.91 256.82 765.222 Q256.82 780.494 251.432 788.555 Q246.085 796.576 235.917 796.576 Q225.75 796.576 220.362 788.555 Q215.015 780.494 215.015 765.222 Q215.015 749.91 220.362 741.889 Q225.75 733.828 235.917 733.828 Z" fill="#000000" fill-rule="evenodd" fill-opacity="1" /><path clip-path="url(#clip460)" d="M288.701 740.309 Q282.381 740.309 279.181 746.548 Q276.021 752.745 276.021 765.222 Q276.021 777.659 279.181 783.897 Q282.381 790.095 288.701 790.095 Q295.061 790.095 298.22 783.897 Q301.421 777.659 301.421 765.222 Q301.421 752.745 298.22 746.548 Q295.061 740.309 288.701 740.309 M288.701 733.828 Q298.869 733.828 304.216 741.889 Q309.603 749.91 309.603 765.222 Q309.603 780.494 304.216 788.555 Q298.869 796.576 288.701 796.576 Q278.533 796.576 273.145 788.555 Q267.798 780.494 267.798 765.222 Q267.798 749.91 273.145 741.889 Q278.533 733.828 288.701 733.828 Z" fill="#000000" fill-rule="evenodd" fill-opacity="1" /><path clip-path="url(#clip460)" d="M324.065 734.921 L356.189 734.921 L356.189 741.808 L331.559 741.808 L331.559 756.634 Q333.342 756.027 335.124 755.743 Q336.907 755.419 338.689 755.419 Q348.816 755.419 354.731 760.969 Q360.645 766.519 360.645 775.998 Q360.645 785.76 354.568 791.189 Q348.492 796.576 337.433 796.576 Q333.625 796.576 329.655 795.928 Q325.726 795.28 321.513 793.984 L321.513 785.76 Q325.159 787.745 329.048 788.718 Q332.937 789.69 337.271 789.69 Q344.279 789.69 348.371 786.003 Q352.462 782.317 352.462 775.998 Q352.462 769.678 348.371 765.992 Q344.279 762.306 337.271 762.306 Q333.99 762.306 330.709 763.035 Q327.468 763.764 324.065 765.303 L324.065 734.921 Z" fill="#000000" fill-rule="evenodd" fill-opacity="1" /><path clip-path="url(#clip460)" d="M394.267 740.309 Q387.948 740.309 384.748 746.548 Q381.588 752.745 381.588 765.222 Q381.588 777.659 384.748 783.897 Q387.948 790.095 394.267 790.095 Q400.627 790.095 403.787 783.897 Q406.987 777.659 406.987 765.222 Q406.987 752.745 403.787 746.548 Q400.627 740.309 394.267 740.309 M394.267 733.828 Q404.435 733.828 409.782 741.889 Q415.17 749.91 415.17 765.222 Q415.17 780.494 409.782 788.555 Q404.435 796.576 394.267 796.576 Q384.1 796.576 378.712 788.555 Q373.365 780.494 373.365 765.222 Q373.365 749.91 378.712 741.889 Q384.1 733.828 394.267 733.828 Z" fill="#000000" fill-rule="evenodd" fill-opacity="1" /><path clip-path="url(#clip460)" d="M158.505 453.858 Q152.185 453.858 148.985 460.097 Q145.825 466.295 145.825 478.771 Q145.825 491.208 148.985 497.446 Q152.185 503.644 158.505 503.644 Q164.865 503.644 168.024 497.446 Q171.225 491.208 171.225 478.771 Q171.225 466.295 168.024 460.097 Q164.865 453.858 158.505 453.858 M158.505 447.377 Q168.672 447.377 174.02 455.438 Q179.407 463.459 179.407 478.771 Q179.407 494.043 174.02 502.105 Q168.672 510.125 158.505 510.125 Q148.337 510.125 142.949 502.105 Q137.602 494.043 137.602 478.771 Q137.602 463.459 142.949 455.438 Q148.337 447.377 158.505 447.377 Z" fill="#000000" fill-rule="evenodd" fill-opacity="1" /><path clip-path="url(#clip460)" d="M193.788 498.661 L202.335 498.661 L202.335 508.951 L193.788 508.951 L193.788 498.661 Z" fill="#000000" fill-rule="evenodd" fill-opacity="1" /><path clip-path="url(#clip460)" d="M237.659 453.858 Q231.34 453.858 228.14 460.097 Q224.98 466.295 224.98 478.771 Q224.98 491.208 228.14 497.446 Q231.34 503.644 237.659 503.644 Q244.019 503.644 247.179 497.446 Q250.379 491.208 250.379 478.771 Q250.379 466.295 247.179 460.097 Q244.019 453.858 237.659 453.858 M237.659 447.377 Q247.827 447.377 253.174 455.438 Q258.562 463.459 258.562 478.771 Q258.562 494.043 253.174 502.105 Q247.827 510.125 237.659 510.125 Q227.492 510.125 222.104 502.105 Q216.757 494.043 216.757 478.771 Q216.757 463.459 222.104 455.438 Q227.492 447.377 237.659 447.377 Z" fill="#000000" fill-rule="evenodd" fill-opacity="1" /><path clip-path="url(#clip460)" d="M290.443 453.858 Q284.123 453.858 280.923 460.097 Q277.763 466.295 277.763 478.771 Q277.763 491.208 280.923 497.446 Q284.123 503.644 290.443 503.644 Q296.803 503.644 299.962 497.446 Q303.163 491.208 303.163 478.771 Q303.163 466.295 299.962 460.097 Q296.803 453.858 290.443 453.858 M290.443 447.377 Q300.61 447.377 305.958 455.438 Q311.345 463.459 311.345 478.771 Q311.345 494.043 305.958 502.105 Q300.61 510.125 290.443 510.125 Q280.275 510.125 274.887 502.105 Q269.54 494.043 269.54 478.771 Q269.54 463.459 274.887 455.438 Q280.275 447.377 290.443 447.377 Z" fill="#000000" fill-rule="evenodd" fill-opacity="1" /><path clip-path="url(#clip460)" d="M323.66 448.471 L362.549 448.471 L362.549 451.954 L340.593 508.951 L332.045 508.951 L352.705 455.357 L323.66 455.357 L323.66 448.471 Z" fill="#000000" fill-rule="evenodd" fill-opacity="1" /><path clip-path="url(#clip460)" d="M378.59 448.471 L410.714 448.471 L410.714 455.357 L386.085 455.357 L386.085 470.184 Q387.867 469.576 389.649 469.292 Q391.432 468.968 393.214 468.968 Q403.341 468.968 409.256 474.518 Q415.17 480.068 415.17 489.547 Q415.17 499.31 409.094 504.738 Q403.017 510.125 391.958 510.125 Q388.15 510.125 384.181 509.477 Q380.251 508.829 376.038 507.533 L376.038 499.31 Q379.684 501.294 383.573 502.267 Q387.462 503.239 391.796 503.239 Q398.804 503.239 402.896 499.553 Q406.987 495.866 406.987 489.547 Q406.987 483.227 402.896 479.541 Q398.804 475.855 391.796 475.855 Q388.515 475.855 385.234 476.584 Q381.993 477.313 378.59 478.852 L378.59 448.471 Z" fill="#000000" fill-rule="evenodd" fill-opacity="1" /><path clip-path="url(#clip460)" d="M156.763 167.408 Q150.443 167.408 147.243 173.646 Q144.083 179.844 144.083 192.321 Q144.083 204.757 147.243 210.995 Q150.443 217.193 156.763 217.193 Q163.123 217.193 166.282 210.995 Q169.483 204.757 169.483 192.321 Q169.483 179.844 166.282 173.646 Q163.123 167.408 156.763 167.408 M156.763 160.926 Q166.931 160.926 172.278 168.987 Q177.665 177.008 177.665 192.321 Q177.665 207.593 172.278 215.654 Q166.931 223.675 156.763 223.675 Q146.595 223.675 141.207 215.654 Q135.86 207.593 135.86 192.321 Q135.86 177.008 141.207 168.987 Q146.595 160.926 156.763 160.926 Z" fill="#000000" fill-rule="evenodd" fill-opacity="1" /><path clip-path="url(#clip460)" d="M192.046 212.211 L200.594 212.211 L200.594 222.5 L192.046 222.5 L192.046 212.211 Z" fill="#000000" fill-rule="evenodd" fill-opacity="1" /><path clip-path="url(#clip460)" d="M235.917 167.408 Q229.598 167.408 226.398 173.646 Q223.238 179.844 223.238 192.321 Q223.238 204.757 226.398 210.995 Q229.598 217.193 235.917 217.193 Q242.277 217.193 245.437 210.995 Q248.637 204.757 248.637 192.321 Q248.637 179.844 245.437 173.646 Q242.277 167.408 235.917 167.408 M235.917 160.926 Q246.085 160.926 251.432 168.987 Q256.82 177.008 256.82 192.321 Q256.82 207.593 251.432 215.654 Q246.085 223.675 235.917 223.675 Q225.75 223.675 220.362 215.654 Q215.015 207.593 215.015 192.321 Q215.015 177.008 220.362 168.987 Q225.75 160.926 235.917 160.926 Z" fill="#000000" fill-rule="evenodd" fill-opacity="1" /><path clip-path="url(#clip460)" d="M272.619 215.613 L285.987 215.613 L285.987 169.473 L271.444 172.39 L271.444 164.936 L285.906 162.02 L294.088 162.02 L294.088 215.613 L307.456 215.613 L307.456 222.5 L272.619 222.5 L272.619 215.613 Z" fill="#000000" fill-rule="evenodd" fill-opacity="1" /><path clip-path="url(#clip460)" d="M341.484 167.408 Q335.165 167.408 331.964 173.646 Q328.805 179.844 328.805 192.321 Q328.805 204.757 331.964 210.995 Q335.165 217.193 341.484 217.193 Q347.844 217.193 351.004 210.995 Q354.204 204.757 354.204 192.321 Q354.204 179.844 351.004 173.646 Q347.844 167.408 341.484 167.408 M341.484 160.926 Q351.652 160.926 356.999 168.987 Q362.387 177.008 362.387 192.321 Q362.387 207.593 356.999 215.654 Q351.652 223.675 341.484 223.675 Q331.316 223.675 325.929 215.654 Q320.581 207.593 320.581 192.321 Q320.581 177.008 325.929 168.987 Q331.316 160.926 341.484 160.926 Z" fill="#000000" fill-rule="evenodd" fill-opacity="1" /><path clip-path="url(#clip460)" d="M394.267 167.408 Q387.948 167.408 384.748 173.646 Q381.588 179.844 381.588 192.321 Q381.588 204.757 384.748 210.995 Q387.948 217.193 394.267 217.193 Q400.627 217.193 403.787 210.995 Q406.987 204.757 406.987 192.321 Q406.987 179.844 403.787 173.646 Q400.627 167.408 394.267 167.408 M394.267 160.926 Q404.435 160.926 409.782 168.987 Q415.17 177.008 415.17 192.321 Q415.17 207.593 409.782 215.654 Q404.435 223.675 394.267 223.675 Q384.1 223.675 378.712 215.654 Q373.365 207.593 373.365 192.321 Q373.365 177.008 378.712 168.987 Q384.1 160.926 394.267 160.926 Z" fill="#000000" fill-rule="evenodd" fill-opacity="1" /><path clip-path="url(#clip460)" d="M17.6893 876.266 L71.439 876.266 L71.439 864.97 Q71.439 850.664 64.9576 844.044 Q58.4761 837.377 44.4947 837.377 Q30.6059 837.377 24.1707 844.044 Q17.6893 850.664 17.6893 864.97 L17.6893 876.266 M10.0042 885.618 L10.0042 866.405 Q10.0042 846.312 18.3837 836.914 Q26.717 827.516 44.4947 827.516 Q62.365 827.516 70.7446 836.961 Q79.1242 846.405 79.1242 866.405 L79.1242 885.618 L10.0042 885.618 Z" fill="#000000" fill-rule="evenodd" fill-opacity="1" /><path clip-path="url(#clip460)" d="M51.0688 768.628 L55.2354 768.628 L55.2354 807.794 Q64.0316 807.238 68.6613 802.516 Q73.2446 797.748 73.2446 789.276 Q73.2446 784.368 72.0409 779.785 Q70.8372 775.155 68.4298 770.618 L76.4853 770.618 Q78.4297 775.202 79.4482 780.016 Q80.4667 784.831 80.4667 789.785 Q80.4667 802.192 73.2446 809.461 Q66.0224 816.683 53.7076 816.683 Q40.9762 816.683 33.5225 809.831 Q26.0226 802.933 26.0226 791.266 Q26.0226 780.803 32.7818 774.739 Q39.4947 768.628 51.0688 768.628 M48.5688 777.146 Q41.5781 777.239 37.4114 781.081 Q33.2448 784.878 33.2448 791.174 Q33.2448 798.303 37.2725 802.609 Q41.3003 806.868 48.6151 807.516 L48.5688 777.146 Z" fill="#000000" fill-rule="evenodd" fill-opacity="1" /><path clip-path="url(#clip460)" d="M47.828 711.545 L79.1242 711.545 L79.1242 720.063 L48.1058 720.063 Q40.7447 720.063 37.0873 722.933 Q33.43 725.804 33.43 731.544 Q33.43 738.443 37.8281 742.424 Q42.2262 746.405 49.8188 746.405 L79.1242 746.405 L79.1242 754.97 L27.2726 754.97 L27.2726 746.405 L35.3281 746.405 Q30.6522 743.35 28.3374 739.23 Q26.0226 735.063 26.0226 729.646 Q26.0226 720.711 31.5781 716.128 Q37.0873 711.545 47.828 711.545 Z" fill="#000000" fill-rule="evenodd" fill-opacity="1" /><path clip-path="url(#clip460)" d="M28.8004 661.499 L36.8559 661.499 Q35.004 665.11 34.0781 668.998 Q33.1522 672.887 33.1522 677.054 Q33.1522 683.397 35.0966 686.591 Q37.041 689.739 40.9299 689.739 Q43.8929 689.739 45.6058 687.471 Q47.2725 685.202 48.8002 678.35 L49.4484 675.434 Q51.3928 666.36 54.9576 662.563 Q58.4761 658.721 64.8187 658.721 Q72.0409 658.721 76.2538 664.461 Q80.4667 670.156 80.4667 680.156 Q80.4667 684.322 79.6334 688.859 Q78.8464 693.35 77.226 698.35 L68.4298 698.35 Q70.8835 693.628 72.1335 689.045 Q73.3372 684.461 73.3372 679.971 Q73.3372 673.952 71.3001 670.711 Q69.2168 667.471 65.4668 667.471 Q61.9946 667.471 60.1428 669.832 Q58.2909 672.147 56.578 680.063 L55.8835 683.026 Q54.2169 690.943 50.791 694.461 Q47.3188 697.98 41.3003 697.98 Q33.9855 697.98 30.0041 692.795 Q26.0226 687.61 26.0226 678.073 Q26.0226 673.35 26.717 669.184 Q27.4115 665.017 28.8004 661.499 Z" fill="#000000" fill-rule="evenodd" fill-opacity="1" /><path clip-path="url(#clip460)" d="M27.2726 645.156 L27.2726 636.638 L79.1242 636.638 L79.1242 645.156 L27.2726 645.156 M7.08751 645.156 L7.08751 636.638 L17.8745 636.638 L17.8745 645.156 L7.08751 645.156 Z" fill="#000000" fill-rule="evenodd" fill-opacity="1" /><path clip-path="url(#clip460)" d="M12.5504 610.388 L27.2726 610.388 L27.2726 592.841 L33.8929 592.841 L33.8929 610.388 L62.0409 610.388 Q68.3835 610.388 70.189 608.675 Q71.9946 606.915 71.9946 601.591 L71.9946 592.841 L79.1242 592.841 L79.1242 601.591 Q79.1242 611.453 75.4668 615.202 Q71.7631 618.952 62.0409 618.952 L33.8929 618.952 L33.8929 625.202 L27.2726 625.202 L27.2726 618.952 L12.5504 618.952 L12.5504 610.388 Z" fill="#000000" fill-rule="evenodd" fill-opacity="1" /><path clip-path="url(#clip460)" d="M83.9389 560.064 Q93.1982 563.675 96.0222 567.101 Q98.8463 570.527 98.8463 576.268 L98.8463 583.073 L91.7167 583.073 L91.7167 578.073 Q91.7167 574.555 90.05 572.61 Q88.3834 570.666 82.1797 568.305 L78.2908 566.777 L27.2726 587.749 L27.2726 578.721 L67.8279 562.518 L27.2726 546.314 L27.2726 537.286 L83.9389 560.064 Z" fill="#000000" fill-rule="evenodd" fill-opacity="1" /><polyline clip-path="url(#clip462)" style="stroke:#009af9; stroke-linecap:round; stroke-linejoin:round; stroke-width:8; stroke-opacity:1; fill:none" points="
  504.988,1338.06 513.958,1338.05 522.928,1337.99 531.898,1337.8 540.867,1337.46 549.837,1336.9 558.807,1336.09 567.777,1334.97 576.746,1333.52 585.716,1331.7 
  594.686,1329.47 603.656,1326.8 612.625,1323.67 621.595,1320.06 630.565,1315.93 639.535,1311.28 648.504,1306.09 657.474,1300.33 666.444,1294 675.414,1287.09 
  684.383,1279.59 693.353,1271.5 702.323,1262.8 711.293,1253.51 720.262,1243.61 729.232,1233.12 738.202,1222.03 747.172,1210.34 756.141,1198.08 765.111,1185.23 
  774.081,1171.82 783.051,1157.86 792.02,1143.35 800.99,1128.3 809.96,1112.75 818.93,1096.69 827.899,1080.15 836.869,1063.15 845.839,1045.7 854.809,1027.82 
  863.778,1009.54 872.748,990.87 881.718,971.839 890.687,952.467 899.657,932.779 908.627,912.797 917.597,892.547 926.566,872.052 935.536,851.339 944.506,830.433 
  953.476,809.36 962.445,788.146 971.415,766.817 980.385,745.4 989.355,723.922 998.324,702.41 1007.29,680.89 1016.26,659.39 1025.23,637.936 1034.2,616.555 
  1043.17,595.273 1052.14,574.118 1061.11,553.116 1070.08,532.292 1079.05,511.674 1088.02,491.285 1096.99,471.152 1105.96,451.3 1114.93,431.753 1123.9,412.536 
  1132.87,393.671 1141.84,375.183 1150.81,357.094 1159.78,339.426 1168.75,322.201 1177.72,305.44 1186.69,289.163 1195.66,273.392 1204.63,258.144 1213.6,243.438 
  1222.57,229.292 1231.54,215.724 1240.51,202.75 1249.48,190.385 1258.45,178.645 1267.42,167.544 1276.39,157.095 1285.36,147.311 1294.33,138.204 1303.3,129.785 
  1312.27,122.063 1321.24,115.048 1330.2,108.749 1339.17,103.173 1348.14,98.3269 1357.11,94.2165 1366.08,90.8466 1375.05,88.2214 1384.02,86.344 1392.99,85.2167 
  1401.96,84.8408 1410.93,85.2167 1419.9,86.344 1428.87,88.2214 1437.84,90.8466 1446.81,94.2165 1455.78,98.3269 1464.75,103.173 1473.72,108.749 1482.69,115.048 
  1491.66,122.063 1500.63,129.785 1509.6,138.204 1518.57,147.311 1527.54,157.095 1536.51,167.544 1545.48,178.645 1554.45,190.385 1563.42,202.75 1572.39,215.724 
  1581.36,229.292 1590.33,243.438 1599.3,258.144 1608.27,273.392 1617.24,289.163 1626.21,305.44 1635.18,322.201 1644.15,339.426 1653.12,357.094 1662.09,375.183 
  1671.06,393.671 1680.03,412.536 1688.99,431.753 1697.96,451.3 1706.93,471.152 1715.9,491.285 1724.87,511.674 1733.84,532.292 1742.81,553.116 1751.78,574.118 
  1760.75,595.273 1769.72,616.555 1778.69,637.936 1787.66,659.39 1796.63,680.89 1805.6,702.41 1814.57,723.922 1823.54,745.4 1832.51,766.817 1841.48,788.146 
  1850.45,809.36 1859.42,830.433 1868.39,851.339 1877.36,872.052 1886.33,892.547 1895.3,912.797 1904.27,932.779 1913.24,952.467 1922.21,971.839 1931.18,990.87 
  1940.15,1009.54 1949.12,1027.82 1958.09,1045.7 1967.06,1063.15 1976.03,1080.15 1985,1096.69 1993.97,1112.75 2002.94,1128.3 2011.91,1143.35 2020.88,1157.86 
  2029.85,1171.82 2038.81,1185.23 2047.78,1198.08 2056.75,1210.34 2065.72,1222.03 2074.69,1233.12 2083.66,1243.61 2092.63,1253.51 2101.6,1262.8 2110.57,1271.5 
  2119.54,1279.59 2128.51,1287.09 2137.48,1294 2146.45,1300.33 2155.42,1306.09 2164.39,1311.28 2173.36,1315.93 2182.33,1320.06 2191.3,1323.67 2200.27,1326.8 
  2209.24,1329.47 2218.21,1331.7 2227.18,1333.52 2236.15,1334.97 2245.12,1336.09 2254.09,1336.9 2263.06,1337.46 2272.03,1337.8 2281,1337.99 2289.97,1338.05 
  2298.94,1338.06 
  "/>
<path clip-path="url(#clip460)" d="
M1916.76 272.965 L2289.37 272.965 L2289.37 91.5246 L1916.76 91.5246  Z
  " fill="#ffffff" fill-rule="evenodd" fill-opacity="1"/>
<polyline clip-path="url(#clip460)" style="stroke:#000000; stroke-linecap:round; stroke-linejoin:round; stroke-width:4; stroke-opacity:1; fill:none" points="
  1916.76,272.965 2289.37,272.965 2289.37,91.5246 1916.76,91.5246 1916.76,272.965 
  "/>
<polyline clip-path="url(#clip460)" style="stroke:#009af9; stroke-linecap:round; stroke-linejoin:round; stroke-width:14; stroke-opacity:1; fill:none" points="
  1937.89,182.245 2064.66,182.245 
  "/>
<path clip-path="url(#clip460)" d="M2093.97 158.729 L2093.97 181.455 L2104.26 181.455 Q2109.97 181.455 2113.09 178.498 Q2116.21 175.54 2116.21 170.072 Q2116.21 164.643 2113.09 161.686 Q2109.97 158.729 2104.26 158.729 L2093.97 158.729 M2085.79 152.005 L2104.26 152.005 Q2114.43 152.005 2119.61 156.623 Q2124.84 161.2 2124.84 170.072 Q2124.84 179.024 2119.61 183.602 Q2114.43 188.179 2104.26 188.179 L2093.97 188.179 L2093.97 212.485 L2085.79 212.485 L2085.79 152.005 Z" fill="#000000" fill-rule="evenodd" fill-opacity="1" /><path clip-path="url(#clip460)" d="M2160.32 174.082 Q2159.07 173.353 2157.57 173.029 Q2156.11 172.664 2154.33 172.664 Q2148.01 172.664 2144.61 176.796 Q2141.25 180.888 2141.25 188.584 L2141.25 212.485 L2133.75 212.485 L2133.75 167.114 L2141.25 167.114 L2141.25 174.163 Q2143.59 170.031 2147.36 168.046 Q2151.13 166.021 2156.52 166.021 Q2157.29 166.021 2158.22 166.142 Q2159.15 166.223 2160.28 166.426 L2160.32 174.082 Z" fill="#000000" fill-rule="evenodd" fill-opacity="1" /><path clip-path="url(#clip460)" d="M2168.14 167.114 L2175.6 167.114 L2175.6 212.485 L2168.14 212.485 L2168.14 167.114 M2168.14 149.453 L2175.6 149.453 L2175.6 158.891 L2168.14 158.891 L2168.14 149.453 Z" fill="#000000" fill-rule="evenodd" fill-opacity="1" /><path clip-path="url(#clip460)" d="M2208.77 172.34 Q2202.78 172.34 2199.29 177.039 Q2195.81 181.698 2195.81 189.84 Q2195.81 197.982 2199.25 202.681 Q2202.74 207.34 2208.77 207.34 Q2214.73 207.34 2218.21 202.641 Q2221.7 197.942 2221.7 189.84 Q2221.7 181.779 2218.21 177.08 Q2214.73 172.34 2208.77 172.34 M2208.77 166.021 Q2218.5 166.021 2224.05 172.34 Q2229.6 178.66 2229.6 189.84 Q2229.6 200.98 2224.05 207.34 Q2218.5 213.659 2208.77 213.659 Q2199.01 213.659 2193.46 207.34 Q2187.95 200.98 2187.95 189.84 Q2187.95 178.66 2193.46 172.34 Q2199.01 166.021 2208.77 166.021 Z" fill="#000000" fill-rule="evenodd" fill-opacity="1" /><path clip-path="url(#clip460)" d="M2268.24 174.082 Q2266.99 173.353 2265.49 173.029 Q2264.03 172.664 2262.25 172.664 Q2255.93 172.664 2252.52 176.796 Q2249.16 180.888 2249.16 188.584 L2249.16 212.485 L2241.67 212.485 L2241.67 167.114 L2249.16 167.114 L2249.16 174.163 Q2251.51 170.031 2255.28 168.046 Q2259.05 166.021 2264.43 166.021 Q2265.2 166.021 2266.13 166.142 Q2267.07 166.223 2268.2 166.426 L2268.24 174.082 Z" fill="#000000" fill-rule="evenodd" fill-opacity="1" /></svg>
