<?xml version="1.0" encoding="utf-8"?>
<svg xmlns="http://www.w3.org/2000/svg" xmlns:xlink="http://www.w3.org/1999/xlink" width="600" height="400" viewBox="0 0 2400 1600">
<defs>
  <clipPath id="clip900">
    <rect x="0" y="0" width="2400" height="1600"/>
  </clipPath>
</defs>
<path clip-path="url(#clip900)" d="
M0 1600 L2400 1600 L2400 0 L0 0  Z
  " fill="#ffffff" fill-rule="evenodd" fill-opacity="1"/>
<defs>
  <clipPath id="clip901">
    <rect x="480" y="0" width="1681" height="1600"/>
  </clipPath>
</defs>
<defs>
  <clipPath id="clip902">
    <rect x="276" y="47" width="2077" height="1338"/>
  </clipPath>
</defs>
<path clip-path="url(#clip900)" d="
M276.269 1384.3 L2352.76 1384.3 L2352.76 47.2441 L276.269 47.2441  Z
  " fill="#ffffff" fill-rule="evenodd" fill-opacity="1"/>
<polyline clip-path="url(#clip902)" style="stroke:#000000; stroke-linecap:round; stroke-linejoin:round; stroke-width:2; stroke-opacity:0.1; fill:none" points="
  335.038,1384.3 335.038,47.2441 
  "/>
<polyline clip-path="url(#clip902)" style="stroke:#000000; stroke-linecap:round; stroke-linejoin:round; stroke-width:2; stroke-opacity:0.1; fill:none" points="
  824.775,1384.3 824.775,47.2441 
  "/>
<polyline clip-path="url(#clip902)" style="stroke:#000000; stroke-linecap:round; stroke-linejoin:round; stroke-width:2; stroke-opacity:0.1; fill:none" points="
  1314.51,1384.3 1314.51,47.2441 
  "/>
<polyline clip-path="url(#clip902)" style="stroke:#000000; stroke-linecap:round; stroke-linejoin:round; stroke-width:2; stroke-opacity:0.1; fill:none" points="
  1804.25,1384.3 1804.25,47.2441 
  "/>
<polyline clip-path="url(#clip902)" style="stroke:#000000; stroke-linecap:round; stroke-linejoin:round; stroke-width:2; stroke-opacity:0.1; fill:none" points="
  2293.99,1384.3 2293.99,47.2441 
  "/>
<polyline clip-path="url(#clip900)" style="stroke:#000000; stroke-linecap:round; stroke-linejoin:round; stroke-width:4; stroke-opacity:1; fill:none" points="
  276.269,1384.3 2352.76,1384.3 
  "/>
<polyline clip-path="url(#clip900)" style="stroke:#000000; stroke-linecap:round; stroke-linejoin:round; stroke-width:4; stroke-opacity:1; fill:none" points="
  335.038,1384.3 335.038,1365.4 
  "/>
<polyline clip-path="url(#clip900)" style="stroke:#000000; stroke-linecap:round; stroke-linejoin:round; stroke-width:4; stroke-opacity:1; fill:none" points="
  824.775,1384.3 824.775,1365.4 
  "/>
<polyline clip-path="url(#clip900)" style="stroke:#000000; stroke-linecap:round; stroke-linejoin:round; stroke-width:4; stroke-opacity:1; fill:none" points="
  1314.51,1384.3 1314.51,1365.4 
  "/>
<polyline clip-path="url(#clip900)" style="stroke:#000000; stroke-linecap:round; stroke-linejoin:round; stroke-width:4; stroke-opacity:1; fill:none" points="
  1804.25,1384.3 1804.25,1365.4 
  "/>
<polyline clip-path="url(#clip900)" style="stroke:#000000; stroke-linecap:round; stroke-linejoin:round; stroke-width:4; stroke-opacity:1; fill:none" points="
  2293.99,1384.3 2293.99,1365.4 
  "/>
<path clip-path="url(#clip900)" d="M278.493 1421.08 Q273.076 1421.08 270.333 1426.43 Q267.625 1431.74 267.625 1442.43 Q267.625 1453.09 270.333 1458.44 Q273.076 1463.75 278.493 1463.75 Q283.944 1463.75 286.653 1458.44 Q289.396 1453.09 289.396 1442.43 Q289.396 1431.74 286.653 1426.43 Q283.944 1421.08 278.493 1421.08 M278.493 1415.52 Q287.208 1415.52 291.792 1422.43 Q296.41 1429.31 296.41 1442.43 Q296.41 1455.52 291.792 1462.43 Q287.208 1469.31 278.493 1469.31 Q269.778 1469.31 265.16 1462.43 Q260.576 1455.52 260.576 1442.43 Q260.576 1429.31 265.16 1422.43 Q269.778 1415.52 278.493 1415.52 Z" fill="#000000" fill-rule="evenodd" fill-opacity="1" /><path clip-path="url(#clip900)" d="M308.736 1459.48 L316.062 1459.48 L316.062 1468.3 L308.736 1468.3 L308.736 1459.48 Z" fill="#000000" fill-rule="evenodd" fill-opacity="1" /><path clip-path="url(#clip900)" d="M346.34 1421.08 Q340.923 1421.08 338.18 1426.43 Q335.472 1431.74 335.472 1442.43 Q335.472 1453.09 338.18 1458.44 Q340.923 1463.75 346.34 1463.75 Q351.791 1463.75 354.5 1458.44 Q357.243 1453.09 357.243 1442.43 Q357.243 1431.74 354.5 1426.43 Q351.791 1421.08 346.34 1421.08 M346.34 1415.52 Q355.055 1415.52 359.638 1422.43 Q364.256 1429.31 364.256 1442.43 Q364.256 1455.52 359.638 1462.43 Q355.055 1469.31 346.34 1469.31 Q337.625 1469.31 333.007 1462.43 Q328.423 1455.52 328.423 1442.43 Q328.423 1429.31 333.007 1422.43 Q337.625 1415.52 346.34 1415.52 Z" fill="#000000" fill-rule="evenodd" fill-opacity="1" /><path clip-path="url(#clip900)" d="M391.583 1421.08 Q386.166 1421.08 383.423 1426.43 Q380.715 1431.74 380.715 1442.43 Q380.715 1453.09 383.423 1458.44 Q386.166 1463.75 391.583 1463.75 Q397.034 1463.75 399.742 1458.44 Q402.485 1453.09 402.485 1442.43 Q402.485 1431.74 399.742 1426.43 Q397.034 1421.08 391.583 1421.08 M391.583 1415.52 Q400.298 1415.52 404.881 1422.43 Q409.499 1429.31 409.499 1442.43 Q409.499 1455.52 404.881 1462.43 Q400.298 1469.31 391.583 1469.31 Q382.867 1469.31 378.249 1462.43 Q373.666 1455.52 373.666 1442.43 Q373.666 1429.31 378.249 1422.43 Q382.867 1415.52 391.583 1415.52 Z" fill="#000000" fill-rule="evenodd" fill-opacity="1" /><path clip-path="url(#clip900)" d="M768.977 1421.08 Q763.56 1421.08 760.817 1426.43 Q758.109 1431.74 758.109 1442.43 Q758.109 1453.09 760.817 1458.44 Q763.56 1463.75 768.977 1463.75 Q774.428 1463.75 777.137 1458.44 Q779.88 1453.09 779.88 1442.43 Q779.88 1431.74 777.137 1426.43 Q774.428 1421.08 768.977 1421.08 M768.977 1415.52 Q777.692 1415.52 782.275 1422.43 Q786.893 1429.31 786.893 1442.43 Q786.893 1455.52 782.275 1462.43 Q777.692 1469.31 768.977 1469.31 Q760.262 1469.31 755.644 1462.43 Q751.06 1455.52 751.06 1442.43 Q751.06 1429.31 755.644 1422.43 Q760.262 1415.52 768.977 1415.52 Z" fill="#000000" fill-rule="evenodd" fill-opacity="1" /><path clip-path="url(#clip900)" d="M799.22 1459.48 L806.546 1459.48 L806.546 1468.3 L799.22 1468.3 L799.22 1459.48 Z" fill="#000000" fill-rule="evenodd" fill-opacity="1" /><path clip-path="url(#clip900)" d="M827.865 1462.4 L852.345 1462.4 L852.345 1468.3 L819.428 1468.3 L819.428 1462.4 Q823.421 1458.27 830.296 1451.32 Q837.206 1444.34 838.977 1442.33 Q842.345 1438.54 843.664 1435.94 Q845.018 1433.3 845.018 1430.77 Q845.018 1426.63 842.102 1424.03 Q839.22 1421.43 834.567 1421.43 Q831.268 1421.43 827.588 1422.57 Q823.942 1423.72 819.775 1426.04 L819.775 1418.96 Q824.011 1417.26 827.692 1416.39 Q831.372 1415.52 834.428 1415.52 Q842.483 1415.52 847.275 1419.55 Q852.067 1423.58 852.067 1430.31 Q852.067 1433.51 850.851 1436.39 Q849.671 1439.24 846.511 1443.13 Q845.643 1444.13 840.99 1448.96 Q836.338 1453.75 827.865 1462.4 Z" fill="#000000" fill-rule="evenodd" fill-opacity="1" /><path clip-path="url(#clip900)" d="M867.136 1416.46 L894.671 1416.46 L894.671 1422.36 L873.56 1422.36 L873.56 1435.07 Q875.087 1434.55 876.615 1434.31 Q878.143 1434.03 879.671 1434.03 Q888.351 1434.03 893.421 1438.79 Q898.49 1443.54 898.49 1451.67 Q898.49 1460.04 893.282 1464.69 Q888.073 1469.31 878.594 1469.31 Q875.33 1469.31 871.928 1468.75 Q868.56 1468.2 864.949 1467.08 L864.949 1460.04 Q868.074 1461.74 871.407 1462.57 Q874.74 1463.4 878.455 1463.4 Q884.462 1463.4 887.969 1460.24 Q891.476 1457.08 891.476 1451.67 Q891.476 1446.25 887.969 1443.09 Q884.462 1439.93 878.455 1439.93 Q875.643 1439.93 872.831 1440.56 Q870.053 1441.18 867.136 1442.5 L867.136 1416.46 Z" fill="#000000" fill-rule="evenodd" fill-opacity="1" /><path clip-path="url(#clip900)" d="M1257.97 1421.08 Q1252.55 1421.08 1249.81 1426.43 Q1247.1 1431.74 1247.1 1442.43 Q1247.1 1453.09 1249.81 1458.44 Q1252.55 1463.75 1257.97 1463.75 Q1263.42 1463.75 1266.13 1458.44 Q1268.87 1453.09 1268.87 1442.43 Q1268.87 1431.74 1266.13 1426.43 Q1263.42 1421.08 1257.97 1421.08 M1257.97 1415.52 Q1266.68 1415.52 1271.27 1422.43 Q1275.88 1429.31 1275.88 1442.43 Q1275.88 1455.52 1271.27 1462.43 Q1266.68 1469.31 1257.97 1469.31 Q1249.25 1469.31 1244.63 1462.43 Q1240.05 1455.52 1240.05 1442.43 Q1240.05 1429.31 1244.63 1422.43 Q1249.25 1415.52 1257.97 1415.52 Z" fill="#000000" fill-rule="evenodd" fill-opacity="1" /><path clip-path="url(#clip900)" d="M1288.21 1459.48 L1295.54 1459.48 L1295.54 1468.3 L1288.21 1468.3 L1288.21 1459.48 Z" fill="#000000" fill-rule="evenodd" fill-opacity="1" /><path clip-path="url(#clip900)" d="M1310.88 1416.46 L1338.42 1416.46 L1338.42 1422.36 L1317.31 1422.36 L1317.31 1435.07 Q1318.84 1434.55 1320.36 1434.31 Q1321.89 1434.03 1323.42 1434.03 Q1332.1 1434.03 1337.17 1438.79 Q1342.24 1443.54 1342.24 1451.67 Q1342.24 1460.04 1337.03 1464.69 Q1331.82 1469.31 1322.34 1469.31 Q1319.08 1469.31 1315.68 1468.75 Q1312.31 1468.2 1308.7 1467.08 L1308.7 1460.04 Q1311.82 1461.74 1315.15 1462.57 Q1318.49 1463.4 1322.2 1463.4 Q1328.21 1463.4 1331.72 1460.24 Q1335.22 1457.08 1335.22 1451.67 Q1335.22 1446.25 1331.72 1443.09 Q1328.21 1439.93 1322.2 1439.93 Q1319.39 1439.93 1316.58 1440.56 Q1313.8 1441.18 1310.88 1442.5 L1310.88 1416.46 Z" fill="#000000" fill-rule="evenodd" fill-opacity="1" /><path clip-path="url(#clip900)" d="M1371.06 1421.08 Q1365.64 1421.08 1362.9 1426.43 Q1360.19 1431.74 1360.19 1442.43 Q1360.19 1453.09 1362.9 1458.44 Q1365.64 1463.75 1371.06 1463.75 Q1376.51 1463.75 1379.22 1458.44 Q1381.96 1453.09 1381.96 1442.43 Q1381.96 1431.74 1379.22 1426.43 Q1376.51 1421.08 1371.06 1421.08 M1371.06 1415.52 Q1379.77 1415.52 1384.36 1422.43 Q1388.97 1429.31 1388.97 1442.43 Q1388.97 1455.52 1384.36 1462.43 Q1379.77 1469.31 1371.06 1469.31 Q1362.34 1469.31 1357.72 1462.43 Q1353.14 1455.52 1353.14 1442.43 Q1353.14 1429.31 1357.72 1422.43 Q1362.34 1415.52 1371.06 1415.52 Z" fill="#000000" fill-rule="evenodd" fill-opacity="1" /><path clip-path="url(#clip900)" d="M1748.45 1421.08 Q1743.04 1421.08 1740.29 1426.43 Q1737.58 1431.74 1737.58 1442.43 Q1737.58 1453.09 1740.29 1458.44 Q1743.04 1463.75 1748.45 1463.75 Q1753.9 1463.75 1756.61 1458.44 Q1759.35 1453.09 1759.35 1442.43 Q1759.35 1431.74 1756.61 1426.43 Q1753.9 1421.08 1748.45 1421.08 M1748.45 1415.52 Q1757.17 1415.52 1761.75 1422.43 Q1766.37 1429.31 1766.37 1442.43 Q1766.37 1455.52 1761.75 1462.43 Q1757.17 1469.31 1748.45 1469.31 Q1739.74 1469.31 1735.12 1462.43 Q1730.54 1455.52 1730.54 1442.43 Q1730.54 1429.31 1735.12 1422.43 Q1739.74 1415.52 1748.45 1415.52 Z" fill="#000000" fill-rule="evenodd" fill-opacity="1" /><path clip-path="url(#clip900)" d="M1778.69 1459.48 L1786.02 1459.48 L1786.02 1468.3 L1778.69 1468.3 L1778.69 1459.48 Z" fill="#000000" fill-rule="evenodd" fill-opacity="1" /><path clip-path="url(#clip900)" d="M1799.53 1416.46 L1832.86 1416.46 L1832.86 1419.45 L1814.04 1468.3 L1806.72 1468.3 L1824.42 1422.36 L1799.53 1422.36 L1799.53 1416.46 Z" fill="#000000" fill-rule="evenodd" fill-opacity="1" /><path clip-path="url(#clip900)" d="M1846.61 1416.46 L1874.15 1416.46 L1874.15 1422.36 L1853.03 1422.36 L1853.03 1435.07 Q1854.56 1434.55 1856.09 1434.31 Q1857.62 1434.03 1859.15 1434.03 Q1867.83 1434.03 1872.9 1438.79 Q1877.96 1443.54 1877.96 1451.67 Q1877.96 1460.04 1872.76 1464.69 Q1867.55 1469.31 1858.07 1469.31 Q1854.81 1469.31 1851.4 1468.75 Q1848.03 1468.2 1844.42 1467.08 L1844.42 1460.04 Q1847.55 1461.74 1850.88 1462.57 Q1854.22 1463.4 1857.93 1463.4 Q1863.94 1463.4 1867.44 1460.24 Q1870.95 1457.08 1870.95 1451.67 Q1870.95 1446.25 1867.44 1443.09 Q1863.94 1439.93 1857.93 1439.93 Q1855.12 1439.93 1852.31 1440.56 Q1849.53 1441.18 1846.61 1442.5 L1846.61 1416.46 Z" fill="#000000" fill-rule="evenodd" fill-opacity="1" /><path clip-path="url(#clip900)" d="M2222.1 1462.4 L2233.55 1462.4 L2233.55 1422.85 L2221.09 1425.35 L2221.09 1418.96 L2233.48 1416.46 L2240.5 1416.46 L2240.5 1462.4 L2251.96 1462.4 L2251.96 1468.3 L2222.1 1468.3 L2222.1 1462.4 Z" fill="#000000" fill-rule="evenodd" fill-opacity="1" /><path clip-path="url(#clip900)" d="M2266.12 1459.48 L2273.45 1459.48 L2273.45 1468.3 L2266.12 1468.3 L2266.12 1459.48 Z" fill="#000000" fill-rule="evenodd" fill-opacity="1" /><path clip-path="url(#clip900)" d="M2303.73 1421.08 Q2298.31 1421.08 2295.57 1426.43 Q2292.86 1431.74 2292.86 1442.43 Q2292.86 1453.09 2295.57 1458.44 Q2298.31 1463.75 2303.73 1463.75 Q2309.18 1463.75 2311.89 1458.44 Q2314.63 1453.09 2314.63 1442.43 Q2314.63 1431.74 2311.89 1426.43 Q2309.18 1421.08 2303.73 1421.08 M2303.73 1415.52 Q2312.44 1415.52 2317.03 1422.43 Q2321.64 1429.31 2321.64 1442.43 Q2321.64 1455.52 2317.03 1462.43 Q2312.44 1469.31 2303.73 1469.31 Q2295.01 1469.31 2290.39 1462.43 Q2285.81 1455.52 2285.81 1442.43 Q2285.81 1429.31 2290.39 1422.43 Q2295.01 1415.52 2303.73 1415.52 Z" fill="#000000" fill-rule="evenodd" fill-opacity="1" /><path clip-path="url(#clip900)" d="M2348.97 1421.08 Q2343.55 1421.08 2340.81 1426.43 Q2338.1 1431.74 2338.1 1442.43 Q2338.1 1453.09 2340.81 1458.44 Q2343.55 1463.75 2348.97 1463.75 Q2354.42 1463.75 2357.13 1458.44 Q2359.87 1453.09 2359.87 1442.43 Q2359.87 1431.74 2357.13 1426.43 Q2354.42 1421.08 2348.97 1421.08 M2348.97 1415.52 Q2357.68 1415.52 2362.27 1422.43 Q2366.89 1429.31 2366.89 1442.43 Q2366.89 1455.52 2362.27 1462.43 Q2357.68 1469.31 2348.97 1469.31 Q2340.25 1469.31 2335.64 1462.43 Q2331.05 1455.52 2331.05 1442.43 Q2331.05 1429.31 2335.64 1422.43 Q2340.25 1415.52 2348.97 1415.52 Z" fill="#000000" fill-rule="evenodd" fill-opacity="1" /><path clip-path="url(#clip900)" d="M1331.87 1524.53 Q1331.87 1532.4 1329.34 1541.26 Q1326.86 1550.06 1322.93 1557.18 Q1318.99 1564.26 1313.84 1568.94 Q1308.69 1573.58 1303.77 1573.58 Q1300.63 1573.58 1298.29 1571.84 Q1295.99 1570.06 1294.73 1567.11 Q1293.46 1564.12 1292.85 1560.84 Q1292.24 1557.51 1292.24 1553.9 Q1292.24 1548.52 1293.41 1542.66 Q1294.59 1536.76 1296.55 1531.42 Q1298.52 1526.03 1301.28 1521.16 Q1304.05 1516.24 1307.09 1512.68 Q1310.18 1509.07 1313.65 1506.96 Q1317.12 1504.86 1320.35 1504.86 Q1322.69 1504.86 1324.57 1505.89 Q1326.49 1506.87 1327.7 1508.6 Q1328.92 1510.29 1329.77 1512.3 Q1330.66 1514.32 1331.08 1516.66 Q1331.5 1518.96 1331.69 1520.88 Q1331.87 1522.75 1331.87 1524.53 M1325.55 1518.58 Q1325.55 1516.19 1325.36 1514.41 Q1325.18 1512.59 1324.66 1510.76 Q1324.14 1508.93 1323.02 1507.95 Q1321.94 1506.96 1320.26 1506.96 Q1315.34 1506.96 1309.81 1517.04 Q1308.03 1520.17 1306.44 1524.44 Q1304.84 1528.7 1304.28 1530.71 Q1303.72 1532.73 1302.41 1537.69 L1322.46 1537.69 Q1325.55 1524.91 1325.55 1518.58 M1321.62 1540.74 L1301.66 1540.74 Q1298.57 1552.45 1298.57 1559.76 Q1298.57 1566.13 1299.88 1568.8 Q1301.24 1571.42 1303.77 1571.42 Q1306.67 1571.42 1309.39 1568.52 Q1312.11 1565.57 1314.87 1560.23 Q1318.52 1553.29 1321.62 1540.74 Z" fill="#000000" fill-rule="evenodd" fill-opacity="1" /><polyline clip-path="url(#clip902)" style="stroke:#000000; stroke-linecap:round; stroke-linejoin:round; stroke-width:2; stroke-opacity:0.1; fill:none" points="
  276.269,1346.46 2352.76,1346.46 
  "/>
<polyline clip-path="url(#clip902)" style="stroke:#000000; stroke-linecap:round; stroke-linejoin:round; stroke-width:2; stroke-opacity:0.1; fill:none" points="
  276.269,1022.8 2352.76,1022.8 
  "/>
<polyline clip-path="url(#clip902)" style="stroke:#000000; stroke-linecap:round; stroke-linejoin:round; stroke-width:2; stroke-opacity:0.1; fill:none" points="
  276.269,699.14 2352.76,699.14 
  "/>
<polyline clip-path="url(#clip902)" style="stroke:#000000; stroke-linecap:round; stroke-linejoin:round; stroke-width:2; stroke-opacity:0.1; fill:none" points="
  276.269,375.48 2352.76,375.48 
  "/>
<polyline clip-path="url(#clip902)" style="stroke:#000000; stroke-linecap:round; stroke-linejoin:round; stroke-width:2; stroke-opacity:0.1; fill:none" points="
  276.269,51.8205 2352.76,51.8205 
  "/>
<polyline clip-path="url(#clip900)" style="stroke:#000000; stroke-linecap:round; stroke-linejoin:round; stroke-width:4; stroke-opacity:1; fill:none" points="
  276.269,1384.3 276.269,47.2441 
  "/>
<polyline clip-path="url(#clip900)" style="stroke:#000000; stroke-linecap:round; stroke-linejoin:round; stroke-width:4; stroke-opacity:1; fill:none" points="
  276.269,1346.46 295.167,1346.46 
  "/>
<polyline clip-path="url(#clip900)" style="stroke:#000000; stroke-linecap:round; stroke-linejoin:round; stroke-width:4; stroke-opacity:1; fill:none" points="
  276.269,1022.8 295.167,1022.8 
  "/>
<polyline clip-path="url(#clip900)" style="stroke:#000000; stroke-linecap:round; stroke-linejoin:round; stroke-width:4; stroke-opacity:1; fill:none" points="
  276.269,699.14 295.167,699.14 
  "/>
<polyline clip-path="url(#clip900)" style="stroke:#000000; stroke-linecap:round; stroke-linejoin:round; stroke-width:4; stroke-opacity:1; fill:none" points="
  276.269,375.48 295.167,375.48 
  "/>
<polyline clip-path="url(#clip900)" style="stroke:#000000; stroke-linecap:round; stroke-linejoin:round; stroke-width:4; stroke-opacity:1; fill:none" points="
  276.269,51.8205 295.167,51.8205 
  "/>
<path clip-path="url(#clip900)" d="M154.506 1325.16 Q149.089 1325.16 146.346 1330.5 Q143.638 1335.82 143.638 1346.51 Q143.638 1357.17 146.346 1362.52 Q149.089 1367.83 154.506 1367.83 Q159.957 1367.83 162.666 1362.52 Q165.409 1357.17 165.409 1346.51 Q165.409 1335.82 162.666 1330.5 Q159.957 1325.16 154.506 1325.16 M154.506 1319.6 Q163.221 1319.6 167.804 1326.51 Q172.422 1333.39 172.422 1346.51 Q172.422 1359.6 167.804 1366.51 Q163.221 1373.39 154.506 1373.39 Q145.791 1373.39 141.173 1366.51 Q136.589 1359.6 136.589 1346.51 Q136.589 1333.39 141.173 1326.51 Q145.791 1319.6 154.506 1319.6 Z" fill="#000000" fill-rule="evenodd" fill-opacity="1" /><path clip-path="url(#clip900)" d="M184.749 1363.56 L192.075 1363.56 L192.075 1372.38 L184.749 1372.38 L184.749 1363.56 Z" fill="#000000" fill-rule="evenodd" fill-opacity="1" /><path clip-path="url(#clip900)" d="M222.353 1325.16 Q216.936 1325.16 214.193 1330.5 Q211.485 1335.82 211.485 1346.51 Q211.485 1357.17 214.193 1362.52 Q216.936 1367.83 222.353 1367.83 Q227.804 1367.83 230.512 1362.52 Q233.255 1357.17 233.255 1346.51 Q233.255 1335.82 230.512 1330.5 Q227.804 1325.16 222.353 1325.16 M222.353 1319.6 Q231.068 1319.6 235.651 1326.51 Q240.269 1333.39 240.269 1346.51 Q240.269 1359.6 235.651 1366.51 Q231.068 1373.39 222.353 1373.39 Q213.638 1373.39 209.019 1366.51 Q204.436 1359.6 204.436 1346.51 Q204.436 1333.39 209.019 1326.51 Q213.638 1319.6 222.353 1319.6 Z" fill="#000000" fill-rule="evenodd" fill-opacity="1" /><path clip-path="url(#clip900)" d="M156.346 1001.5 Q150.93 1001.5 148.186 1006.84 Q145.478 1012.16 145.478 1022.85 Q145.478 1033.51 148.186 1038.86 Q150.93 1044.17 156.346 1044.17 Q161.798 1044.17 164.506 1038.86 Q167.249 1033.51 167.249 1022.85 Q167.249 1012.16 164.506 1006.84 Q161.798 1001.5 156.346 1001.5 M156.346 995.942 Q165.061 995.942 169.645 1002.85 Q174.263 1009.73 174.263 1022.85 Q174.263 1035.94 169.645 1042.85 Q165.061 1049.73 156.346 1049.73 Q147.631 1049.73 143.013 1042.85 Q138.43 1035.94 138.43 1022.85 Q138.43 1009.73 143.013 1002.85 Q147.631 995.942 156.346 995.942 Z" fill="#000000" fill-rule="evenodd" fill-opacity="1" /><path clip-path="url(#clip900)" d="M186.589 1039.9 L193.915 1039.9 L193.915 1048.72 L186.589 1048.72 L186.589 1039.9 Z" fill="#000000" fill-rule="evenodd" fill-opacity="1" /><path clip-path="url(#clip900)" d="M210.408 1042.82 L221.867 1042.82 L221.867 1003.27 L209.401 1005.77 L209.401 999.379 L221.797 996.879 L228.811 996.879 L228.811 1042.82 L240.269 1042.82 L240.269 1048.72 L210.408 1048.72 L210.408 1042.82 Z" fill="#000000" fill-rule="evenodd" fill-opacity="1" /><path clip-path="url(#clip900)" d="M156.902 677.838 Q151.485 677.838 148.742 683.185 Q146.034 688.497 146.034 699.192 Q146.034 709.851 148.742 715.199 Q151.485 720.511 156.902 720.511 Q162.353 720.511 165.061 715.199 Q167.804 709.851 167.804 699.192 Q167.804 688.497 165.061 683.185 Q162.353 677.838 156.902 677.838 M156.902 672.282 Q165.617 672.282 170.2 679.192 Q174.818 686.067 174.818 699.192 Q174.818 712.282 170.2 719.192 Q165.617 726.067 156.902 726.067 Q148.186 726.067 143.568 719.192 Q138.985 712.282 138.985 699.192 Q138.985 686.067 143.568 679.192 Q148.186 672.282 156.902 672.282 Z" fill="#000000" fill-rule="evenodd" fill-opacity="1" /><path clip-path="url(#clip900)" d="M187.145 716.24 L194.471 716.24 L194.471 725.06 L187.145 725.06 L187.145 716.24 Z" fill="#000000" fill-rule="evenodd" fill-opacity="1" /><path clip-path="url(#clip900)" d="M215.79 719.157 L240.269 719.157 L240.269 725.06 L207.353 725.06 L207.353 719.157 Q211.346 715.025 218.221 708.081 Q225.131 701.101 226.901 699.087 Q230.269 695.303 231.589 692.699 Q232.943 690.06 232.943 687.525 Q232.943 683.393 230.026 680.789 Q227.144 678.185 222.492 678.185 Q219.193 678.185 215.513 679.331 Q211.867 680.476 207.7 682.803 L207.7 675.72 Q211.936 674.018 215.617 673.15 Q219.297 672.282 222.353 672.282 Q230.408 672.282 235.2 676.31 Q239.992 680.338 239.992 687.074 Q239.992 690.268 238.776 693.15 Q237.596 695.997 234.436 699.886 Q233.568 700.893 228.915 705.719 Q224.262 710.511 215.79 719.157 Z" fill="#000000" fill-rule="evenodd" fill-opacity="1" /><path clip-path="url(#clip900)" d="M155.478 354.178 Q150.061 354.178 147.318 359.525 Q144.61 364.838 144.61 375.532 Q144.61 386.192 147.318 391.539 Q150.061 396.851 155.478 396.851 Q160.929 396.851 163.638 391.539 Q166.381 386.192 166.381 375.532 Q166.381 364.838 163.638 359.525 Q160.929 354.178 155.478 354.178 M155.478 348.623 Q164.193 348.623 168.777 355.532 Q173.395 362.407 173.395 375.532 Q173.395 388.622 168.777 395.532 Q164.193 402.407 155.478 402.407 Q146.763 402.407 142.145 395.532 Q137.562 388.622 137.562 375.532 Q137.562 362.407 142.145 355.532 Q146.763 348.623 155.478 348.623 Z" fill="#000000" fill-rule="evenodd" fill-opacity="1" /><path clip-path="url(#clip900)" d="M185.721 392.581 L193.047 392.581 L193.047 401.4 L185.721 401.4 L185.721 392.581 Z" fill="#000000" fill-rule="evenodd" fill-opacity="1" /><path clip-path="url(#clip900)" d="M229.575 373.449 Q234.61 374.525 237.422 377.928 Q240.269 381.331 240.269 386.331 Q240.269 394.004 234.992 398.206 Q229.714 402.407 219.992 402.407 Q216.728 402.407 213.256 401.747 Q209.818 401.122 206.138 399.838 L206.138 393.067 Q209.054 394.768 212.526 395.636 Q215.999 396.504 219.783 396.504 Q226.381 396.504 229.818 393.9 Q233.29 391.296 233.29 386.331 Q233.29 381.747 230.061 379.178 Q226.867 376.574 221.137 376.574 L215.096 376.574 L215.096 370.81 L221.415 370.81 Q226.589 370.81 229.332 368.761 Q232.075 366.678 232.075 362.789 Q232.075 358.796 229.228 356.678 Q226.415 354.525 221.137 354.525 Q218.256 354.525 214.957 355.15 Q211.658 355.775 207.7 357.095 L207.7 350.845 Q211.693 349.734 215.165 349.178 Q218.672 348.623 221.762 348.623 Q229.749 348.623 234.401 352.268 Q239.054 355.879 239.054 362.06 Q239.054 366.366 236.589 369.352 Q234.124 372.303 229.575 373.449 Z" fill="#000000" fill-rule="evenodd" fill-opacity="1" /><path clip-path="url(#clip900)" d="M153.777 30.5185 Q148.36 30.5185 145.617 35.8657 Q142.909 41.1782 142.909 51.8726 Q142.909 62.5323 145.617 67.8795 Q148.36 73.1919 153.777 73.1919 Q159.228 73.1919 161.936 67.8795 Q164.679 62.5323 164.679 51.8726 Q164.679 41.1782 161.936 35.8657 Q159.228 30.5185 153.777 30.5185 M153.777 24.963 Q162.492 24.963 167.075 31.8727 Q171.693 38.7477 171.693 51.8726 Q171.693 64.9628 167.075 71.8725 Q162.492 78.7475 153.777 78.7475 Q145.061 78.7475 140.443 71.8725 Q135.86 64.9628 135.86 51.8726 Q135.86 38.7477 140.443 31.8727 Q145.061 24.963 153.777 24.963 Z" fill="#000000" fill-rule="evenodd" fill-opacity="1" /><path clip-path="url(#clip900)" d="M184.02 68.9211 L191.346 68.9211 L191.346 77.7405 L184.02 77.7405 L184.02 68.9211 Z" fill="#000000" fill-rule="evenodd" fill-opacity="1" /><path clip-path="url(#clip900)" d="M225.894 32.0116 L208.186 59.6851 L225.894 59.6851 L225.894 32.0116 M224.054 25.9005 L232.874 25.9005 L232.874 59.6851 L240.269 59.6851 L240.269 65.5184 L232.874 65.5184 L232.874 77.7405 L225.894 77.7405 L225.894 65.5184 L202.492 65.5184 L202.492 58.7476 L224.054 25.9005 Z" fill="#000000" fill-rule="evenodd" fill-opacity="1" /><path clip-path="url(#clip900)" d="M82.146 1084.35 L79.1947 1084.35 L79.1947 1082.06 Q79.1947 1076.86 78.3515 1075.69 Q77.4615 1074.47 74.6508 1074.47 L24.1052 1074.47 Q21.3413 1074.47 20.4981 1075.69 Q19.608 1076.91 19.608 1082.06 L19.608 1084.35 L16.61 1084.35 Q16.891 1080.98 16.891 1069.79 Q16.891 1057.14 16.61 1053.67 L19.608 1053.67 L19.608 1056.86 Q19.608 1061.26 20.1702 1063.27 Q20.7323 1065.29 21.5287 1065.62 Q22.2782 1065.94 24.1988 1065.94 L75.3535 1065.94 Q77.8362 1065.94 78.5389 1065.24 Q79.1947 1064.49 79.1947 1061.26 L79.1947 1053.39 Q79.1947 1048.52 77.7426 1045 Q76.2904 1041.49 74.4634 1039.62 Q72.6365 1037.74 69.2168 1036.53 Q65.7503 1035.26 63.5485 1034.89 Q61.3468 1034.46 57.4119 1034.09 L57.4119 1031.7 L82.146 1034.37 L82.146 1084.35 Z" fill="#000000" fill-rule="evenodd" fill-opacity="1" /><path clip-path="url(#clip900)" d="M82.146 1026.89 L79.1947 1026.89 Q79.1947 1021.78 78.5858 1020.61 Q77.9299 1019.44 74.8382 1019.44 L49.0266 1019.44 Q45.4664 1019.44 44.6232 1020.66 Q43.78 1021.83 43.78 1026.51 L40.7819 1026.51 L39.7513 1013.12 L74.9319 1013.12 Q77.7894 1013.12 78.4921 1012.09 Q79.1947 1011.06 79.1947 1006.37 L82.146 1006.37 Q81.8649 1016.16 81.8649 1016.35 Q81.8649 1017.66 82.146 1026.89 M23.0277 1022.86 Q21.1071 1022.86 19.5612 1021.41 Q17.9685 1019.91 17.9685 1017.8 Q17.9685 1015.69 19.4207 1014.19 Q20.826 1012.7 23.0746 1012.7 Q25.2763 1012.7 26.7285 1014.19 Q28.1338 1015.69 28.1338 1017.8 Q28.1338 1020 26.5879 1021.46 Q25.0421 1022.86 23.0277 1022.86 Z" fill="#000000" fill-rule="evenodd" fill-opacity="1" /><path clip-path="url(#clip900)" d="M82.146 998.28 L79.1947 998.28 Q79.1947 993.174 78.5858 992.003 Q77.9299 990.785 74.8382 990.785 L24.9484 990.785 Q21.3881 990.785 20.4981 992.05 Q19.608 993.268 19.608 998.28 L16.61 998.28 L15.5794 984.461 L61.6279 984.461 L49.9167 970.923 Q48.0897 968.815 46.1691 968.815 Q43.9674 968.815 43.78 971.578 L40.7819 971.578 Q41.063 967.55 41.063 960.851 Q41.063 956.916 40.7819 954.152 L43.78 954.152 Q44.0611 960.195 48.9329 966.238 Q50.0104 967.597 52.8211 970.829 Q55.5849 974.014 55.866 974.014 Q55.9597 974.014 56.1939 973.921 Q56.4281 973.78 56.6155 973.593 Q56.8029 973.405 56.8966 973.405 L74.0886 961.226 Q77.5552 958.743 78.3984 956.916 Q79.1947 955.089 79.1947 951.904 L82.146 951.904 Q81.8649 956.026 81.8649 960.289 Q81.8649 962.584 82.146 970.642 L79.1947 970.642 Q79.1947 967.175 76.9462 967.175 Q75.4003 967.175 64.6728 974.951 Q63.9233 975.513 62.2837 976.778 Q60.5505 977.949 59.7073 978.605 L64.9539 984.742 L74.8382 984.742 Q77.9299 984.742 78.5858 983.571 Q79.1947 982.353 79.1947 977.247 L82.146 977.247 Q81.8649 983.009 81.8649 987.787 Q81.8649 988.771 82.146 998.28 Z" fill="#000000" fill-rule="evenodd" fill-opacity="1" /><path clip-path="url(#clip900)" d="M61.0189 948.292 Q51.9779 948.292 45.5601 942.483 Q39.1424 936.674 39.1424 928.336 Q39.1424 919.904 44.6232 915.547 Q50.1041 911.144 57.974 911.144 Q59.4262 911.144 59.7073 911.518 Q59.9883 911.893 59.9883 913.533 L59.9883 940.328 Q69.7789 940.328 74.3697 937.424 Q80.7875 933.395 80.7875 926.602 Q80.7875 925.665 80.6001 924.541 Q80.4127 923.417 79.6163 921.122 Q78.7731 918.826 76.5714 916.812 Q74.3697 914.797 70.9032 913.626 Q69.5447 913.345 69.5915 912.408 Q69.5915 911.144 70.7158 911.144 Q71.559 911.144 73.4797 912.08 Q75.3535 912.971 77.602 914.704 Q79.8506 916.437 81.537 919.81 Q83.2234 923.136 83.2234 927.165 Q83.2234 935.597 76.8525 941.967 Q70.4347 948.292 61.0189 948.292 M57.974 940.234 L57.974 917.468 Q55.9597 917.468 53.7111 917.842 Q51.4626 918.17 48.3708 919.201 Q45.2322 920.185 43.2647 922.527 Q41.2972 924.869 41.2972 928.336 Q41.2972 929.882 41.9531 931.568 Q42.6089 933.207 44.2016 935.222 Q45.7943 937.236 49.4014 938.642 Q53.0084 940.047 57.974 940.234 Z" fill="#000000" fill-rule="evenodd" fill-opacity="1" /><path clip-path="url(#clip900)" d="M82.146 906.119 L79.1947 906.119 Q79.1947 901.013 78.5858 899.842 Q77.9299 898.671 74.8382 898.671 L24.9484 898.671 Q21.3881 898.671 20.4981 899.936 Q19.608 901.154 19.608 906.119 L16.61 906.119 L15.5794 892.347 L74.8382 892.347 Q77.9299 892.347 78.5858 891.129 Q79.1947 889.911 79.1947 884.852 L82.146 884.852 Q82.146 886.023 82.0523 888.459 Q81.9586 890.895 81.9117 892.675 Q81.8649 894.455 81.8649 895.485 Q81.8649 896.61 82.146 906.119 Z" fill="#000000" fill-rule="evenodd" fill-opacity="1" /><path clip-path="url(#clip900)" d="M82.146 880.582 L79.1947 880.582 Q79.1947 875.475 78.5858 874.304 Q77.9299 873.133 74.8382 873.133 L49.0266 873.133 Q45.4664 873.133 44.6232 874.351 Q43.78 875.522 43.78 880.207 L40.7819 880.207 L39.7513 866.809 L74.9319 866.809 Q77.7894 866.809 78.4921 865.779 Q79.1947 864.748 79.1947 860.063 L82.146 860.063 Q81.8649 869.854 81.8649 870.041 Q81.8649 871.353 82.146 880.582 M23.0277 876.553 Q21.1071 876.553 19.5612 875.101 Q17.9685 873.602 17.9685 871.494 Q17.9685 869.386 19.4207 867.887 Q20.826 866.388 23.0746 866.388 Q25.2763 866.388 26.7285 867.887 Q28.1338 869.386 28.1338 871.494 Q28.1338 873.695 26.5879 875.148 Q25.0421 876.553 23.0277 876.553 Z" fill="#000000" fill-rule="evenodd" fill-opacity="1" /><path clip-path="url(#clip900)" d="M82.146 851.588 L79.1947 851.588 Q79.1947 846.482 78.5858 845.311 Q77.9299 844.14 74.8382 844.14 L24.9484 844.14 Q21.3881 844.14 20.4981 845.404 Q19.608 846.622 19.608 851.588 L16.61 851.588 L15.5794 837.816 L48.9329 837.816 L48.9329 837.722 Q45.4664 836.176 42.6089 832.709 Q39.7513 829.243 39.7513 823.903 Q39.7513 816.688 43.3116 813.831 Q45.7006 811.723 48.3708 811.301 Q51.041 810.833 57.974 810.833 L76.2904 810.833 Q78.3047 810.739 78.7731 809.193 Q79.1947 807.647 79.1947 803.338 L82.146 803.338 Q81.8649 813.128 81.8649 814.112 Q81.8649 814.862 82.146 824.933 L79.1947 824.933 Q79.1947 819.827 78.5858 818.656 Q77.9299 817.438 74.8382 817.438 L52.4932 817.438 Q47.6213 817.438 44.7637 818.937 Q41.8594 820.436 41.8594 824.558 Q41.8594 829.524 46.0286 833.506 Q50.1978 837.488 57.2245 837.488 L74.8382 837.488 Q77.9299 837.488 78.5858 836.316 Q79.1947 835.099 79.1947 830.039 L82.146 830.039 Q81.8649 839.83 81.8649 840.767 Q81.8649 841.516 82.146 851.588 Z" fill="#000000" fill-rule="evenodd" fill-opacity="1" /><path clip-path="url(#clip900)" d="M76.993 794.096 Q70.7158 800.42 61.6279 800.42 Q52.4932 800.42 45.8412 794.236 Q39.1424 788.006 39.1424 779.106 Q39.1424 770.392 45.7943 764.162 Q52.3995 757.885 61.6279 757.885 Q70.669 757.885 76.9462 764.209 Q83.2234 770.486 83.2234 779.199 Q83.2234 787.725 76.993 794.096 M60.8315 792.456 Q70.1537 792.456 74.3697 790.02 Q80.7875 786.273 80.7875 779.106 Q80.7875 775.545 78.8668 772.594 Q76.9462 769.596 73.7139 767.956 Q69.4978 765.848 60.8315 765.848 Q51.6031 765.848 47.5276 768.378 Q41.2972 772.126 41.2972 779.199 Q41.2972 782.291 42.9368 785.336 Q44.5295 788.334 47.715 790.161 Q51.931 792.456 60.8315 792.456 Z" fill="#000000" fill-rule="evenodd" fill-opacity="1" /><path clip-path="url(#clip900)" d="M76.993 746.588 Q70.7158 752.912 61.6279 752.912 Q52.4932 752.912 45.8412 746.729 Q39.1424 740.498 39.1424 731.598 Q39.1424 722.885 45.7943 716.654 Q52.3995 710.377 61.6279 710.377 Q70.669 710.377 76.9462 716.701 Q83.2234 722.978 83.2234 731.691 Q83.2234 740.217 76.993 746.588 M60.8315 744.948 Q70.1537 744.948 74.3697 742.513 Q80.7875 738.765 80.7875 731.598 Q80.7875 728.037 78.8668 725.086 Q76.9462 722.088 73.7139 720.449 Q69.4978 718.341 60.8315 718.341 Q51.6031 718.341 47.5276 720.87 Q41.2972 724.618 41.2972 731.691 Q41.2972 734.783 42.9368 737.828 Q44.5295 740.826 47.715 742.653 Q51.931 744.948 60.8315 744.948 Z" fill="#000000" fill-rule="evenodd" fill-opacity="1" /><path clip-path="url(#clip900)" d="M61.5342 705.404 Q52.3995 705.404 46.0754 699.033 Q39.7513 692.663 39.7513 684.043 Q39.7513 676.735 45.7006 671.957 L24.9484 671.957 Q21.3881 671.957 20.4981 673.222 Q19.608 674.44 19.608 679.405 L16.61 679.405 L15.5794 665.586 L73.8076 665.586 Q77.3678 665.586 78.3047 664.368 Q79.1947 663.103 79.1947 658.138 L82.146 658.138 L83.2234 672.238 L76.8525 672.238 Q83.1766 677.204 83.2234 685.074 Q83.2234 693.318 76.8993 699.361 Q70.5753 705.404 61.5342 705.404 M61.6279 697.441 Q70.5284 697.441 74.9319 694.677 Q81.0685 690.836 81.0685 684.605 Q81.0685 677.485 74.3697 673.269 Q72.7301 672.191 70.8095 672.238 L51.1347 672.238 Q49.214 672.238 47.6213 673.269 Q41.8594 677.204 41.8594 683.621 Q41.8594 690.32 47.996 694.489 Q52.5868 697.441 61.6279 697.441 Z" fill="#000000" fill-rule="evenodd" fill-opacity="1" /><path clip-path="url(#clip900)" d="M55.0696 551.884 Q61.909 551.884 68.5141 555.35 Q75.1192 558.77 79.1947 564.157 Q83.2234 569.544 83.2234 575.025 Q83.2234 578.304 81.4433 580.506 Q79.6163 582.661 77.0399 583.832 Q80.2253 584.722 87.861 586.642 Q95.4968 588.563 96.2463 588.563 Q96.6679 588.563 96.8553 588.469 Q97.0426 588.376 97.2769 587.954 Q97.5579 587.533 97.6516 586.502 Q97.7922 585.471 97.7922 583.738 Q97.7922 582.848 97.7922 582.52 Q97.839 582.145 98.0732 581.817 Q98.3075 581.443 98.8228 581.443 Q100.743 581.443 100.743 583.176 Q100.743 584.722 100.603 587.907 Q100.462 591.093 100.462 592.685 Q100.462 594.044 100.603 596.761 Q100.743 599.478 100.743 600.743 Q100.743 602.008 99.6191 602.008 Q98.9633 602.008 98.5417 601.82 Q98.1669 601.68 97.9795 601.305 Q97.839 600.93 97.7922 600.602 Q97.7922 600.321 97.7922 599.759 Q97.7922 597.604 97.4174 596.667 Q97.0895 595.73 96.3868 595.402 Q95.731 595.028 93.8572 594.606 L51.1347 583.832 Q48.2771 583.176 46.2628 583.176 Q43.7332 583.176 42.7963 583.972 Q41.8594 584.769 41.8594 586.174 Q41.8594 588.61 44.7637 590.203 Q47.6681 591.795 53.2895 593.154 Q54.8354 593.576 55.1633 593.857 Q55.4912 594.091 55.4912 594.793 Q55.4444 595.965 54.5075 595.965 Q54.2733 595.965 52.7742 595.59 Q51.2283 595.215 48.9798 594.512 Q46.6844 593.763 45.2322 592.967 Q44.2485 592.498 43.5926 592.076 Q42.9368 591.655 41.9062 590.812 Q40.8756 589.922 40.3135 588.657 Q39.7513 587.392 39.7513 585.846 Q39.7513 582.848 41.5315 580.365 Q43.3116 577.882 46.9186 577.227 Q43.78 574.557 41.7657 571.277 Q39.7513 567.998 39.7513 564.672 Q39.7513 559.145 44.0611 555.537 Q48.324 551.884 55.0696 551.884 M50.8536 558.817 Q46.5907 558.817 44.2485 560.456 Q41.8594 562.049 41.8594 564.953 Q41.8594 568.56 45.5133 572.73 Q48.9798 576.852 52.2121 577.695 L70.9969 582.426 L72.5428 582.708 Q72.8238 582.708 73.667 582.567 Q74.4634 582.38 75.7751 581.864 Q77.0867 581.302 78.2578 580.553 Q79.3821 579.756 80.2253 578.351 Q81.0685 576.899 81.0685 575.119 Q81.0685 572.261 78.5389 569.169 Q76.0093 566.031 71.2311 563.688 Q68.1393 562.236 61.4874 560.55 Q54.7886 558.817 50.8536 558.817 Z" fill="#000000" fill-rule="evenodd" fill-opacity="1" /><path clip-path="url(#clip900)" d="M58.1614 541.165 Q41.9531 541.165 28.8833 535.122 Q23.4025 532.546 18.8117 528.939 Q14.2209 525.332 12.2066 522.943 Q10.1922 520.554 10.1922 519.898 Q10.1922 518.961 11.1291 518.914 Q11.5976 518.914 12.7687 520.179 Q28.5086 535.638 58.1614 535.591 Q87.9079 535.591 103.039 520.554 Q104.678 518.914 105.194 518.914 Q106.131 518.914 106.131 519.898 Q106.131 520.554 104.21 522.849 Q102.289 525.144 97.8859 528.705 Q93.4824 532.265 88.0953 534.841 Q75.0255 541.165 58.1614 541.165 Z" fill="#000000" fill-rule="evenodd" fill-opacity="1" /><path clip-path="url(#clip900)" d="M34.1768 470.074 Q42.0467 470.074 50.9004 472.603 Q59.7073 475.086 66.8277 479.021 Q73.9013 482.956 78.5858 488.109 Q83.2234 493.262 83.2234 498.18 Q83.2234 501.319 81.4901 503.661 Q79.71 505.957 76.7588 507.222 Q73.7607 508.486 70.4816 509.095 Q67.1556 509.704 63.5485 509.704 Q58.1614 509.704 52.3058 508.533 Q46.4033 507.362 41.063 505.395 Q35.6758 503.427 30.804 500.663 Q25.8853 497.899 22.325 494.854 Q18.718 491.763 16.61 488.296 Q14.5019 484.83 14.5019 481.597 Q14.5019 479.255 15.5325 477.381 Q16.5163 475.461 18.2495 474.243 Q19.936 473.025 21.9503 472.182 Q23.9646 471.292 26.3069 470.87 Q28.6023 470.448 30.5229 470.261 Q32.3967 470.074 34.1768 470.074 M28.2275 476.398 Q25.8384 476.398 24.0583 476.585 Q22.2314 476.772 20.4044 477.288 Q18.5775 477.803 17.5937 478.927 Q16.61 480.005 16.61 481.691 Q16.61 486.61 26.6816 492.137 Q29.8202 493.918 34.0831 495.51 Q38.346 497.103 40.3603 497.665 Q42.3747 498.227 47.3402 499.539 L47.3402 479.489 Q34.5516 476.398 28.2275 476.398 M50.3851 480.333 L50.3851 500.288 Q62.0964 503.38 69.4042 503.38 Q75.7751 503.38 78.4452 502.069 Q81.0685 500.71 81.0685 498.18 Q81.0685 495.276 78.1642 492.559 Q75.2129 489.842 69.8726 487.078 Q62.9396 483.424 50.3851 480.333 Z" fill="#000000" fill-rule="evenodd" fill-opacity="1" /><path clip-path="url(#clip900)" d="M103.179 454.414 L13.8461 454.414 Q10.2859 454.414 10.2859 452.493 Q10.2859 450.572 13.1434 450.572 L102.477 450.572 Q106.037 450.572 106.037 452.493 Q106.037 454.414 103.179 454.414 Z" fill="#000000" fill-rule="evenodd" fill-opacity="1" /><path clip-path="url(#clip900)" d="M43.4052 393.204 Q44.0611 393.204 45.607 393.625 L82.2397 402.807 Q90.3907 404.821 96.1057 411.38 Q101.821 417.891 101.821 425.293 Q101.821 429.743 99.4317 432.6 Q97.0895 435.458 93.4824 435.458 Q90.297 435.458 88.7511 433.771 Q87.2521 432.085 87.2521 430.071 Q87.2521 429.415 87.4394 428.712 Q87.6268 428.01 88.4232 427.26 Q89.2195 426.51 90.5781 426.51 Q92.7798 426.51 94.513 428.431 Q95.3094 429.368 95.4968 430.258 Q95.6841 431.101 95.6841 432.553 Q96.9958 431.991 97.8859 430.961 Q98.7759 429.93 99.1038 428.759 Q99.4786 427.588 99.5723 426.838 Q99.7128 426.042 99.7128 425.293 Q99.7128 419.296 93.6698 414.706 Q91.8429 413.347 90.0159 412.363 Q88.2358 411.333 86.0341 410.583 Q83.8792 409.834 82.7081 409.506 Q81.537 409.131 78.8668 408.475 Q83.2234 412.832 83.2234 418.172 Q83.2234 420.421 82.6144 422.435 Q82.0054 424.402 80.7406 426.136 Q79.429 427.869 77.1336 428.9 Q74.8382 429.883 71.7932 429.883 Q68.561 429.883 64.1575 428.618 Q59.7541 427.354 51.6499 424.309 Q47.106 422.669 44.9043 422.669 Q43.8269 422.669 43.171 422.903 Q42.4683 423.138 42.2341 423.606 Q41.9531 424.075 41.9062 424.356 Q41.8594 424.59 41.8594 425.058 Q41.8594 427.822 44.6701 430.399 Q47.4808 432.975 53.758 434.755 Q54.9291 435.13 55.2102 435.364 Q55.4912 435.598 55.4912 436.301 Q55.4444 437.472 54.5075 437.472 Q54.1327 437.472 52.6805 437.051 Q51.1815 436.629 48.9798 435.645 Q46.7312 434.615 44.7169 433.209 Q42.6557 431.804 41.2035 429.602 Q39.7513 427.354 39.7513 424.777 Q39.7513 421.264 42.0467 419.109 Q44.2953 416.907 47.6213 416.907 Q48.9798 416.907 50.1978 417.282 Q51.3689 417.61 54.5075 418.828 Q67.1556 423.747 73.3391 423.747 Q74.8382 423.747 76.103 423.512 Q77.3209 423.231 78.5389 422.622 Q79.71 422.013 80.4127 420.795 Q81.0685 419.531 81.0685 417.797 Q81.0685 415.596 80.0379 413.534 Q78.9605 411.426 77.5083 410.115 Q76.0561 408.756 74.8382 407.96 Q73.5734 407.117 72.9175 406.929 L55.6786 402.62 L47.996 400.699 Q43.8269 399.809 42.7963 399.387 Q41.8125 398.825 41.2972 397.841 Q40.7819 396.858 40.7819 396.014 Q40.7819 394.843 41.4846 394.047 Q42.1873 393.204 43.4052 393.204 Z" fill="#000000" fill-rule="evenodd" fill-opacity="1" /><path clip-path="url(#clip900)" d="M105.194 384.027 Q104.725 384.027 103.554 382.809 Q87.8142 367.35 58.1614 367.35 Q28.4149 367.35 13.3777 382.2 Q11.6444 384.027 11.1291 384.027 Q10.1922 384.027 10.1922 383.09 Q10.1922 382.434 12.1129 380.139 Q14.0335 377.796 18.4369 374.283 Q22.8403 370.723 28.2275 368.099 Q41.2972 361.775 58.1614 361.775 Q74.3697 361.775 87.4394 367.818 Q92.9203 370.395 97.5111 374.002 Q102.102 377.609 104.116 379.998 Q106.131 382.387 106.131 383.09 Q106.131 384.027 105.194 384.027 Z" fill="#000000" fill-rule="evenodd" fill-opacity="1" /><polyline clip-path="url(#clip902)" style="stroke:#009af9; stroke-linecap:round; stroke-linejoin:round; stroke-width:8; stroke-opacity:1; fill:none" points="
  335.038,1346.46 344.833,1346.46 354.627,1346.46 364.422,1346.46 374.217,1346.46 384.012,1346.46 393.806,1346.46 403.601,1346.46 413.396,1346.46 423.191,1346.46 
  432.985,1346.46 442.78,1346.46 452.575,1346.46 462.37,1346.46 472.164,1346.46 481.959,1346.46 491.754,1346.46 501.549,1346.46 511.343,1346.46 521.138,1346.46 
  530.933,1346.46 540.728,1346.46 550.522,1346.46 560.317,1346.46 570.112,1346.46 579.907,1346.46 589.701,1346.46 599.496,1346.46 609.291,1346.45 619.086,1346.45 
  628.88,1346.45 638.675,1346.45 648.47,1346.45 658.264,1346.45 668.059,1346.44 677.854,1346.44 687.649,1346.43 697.443,1346.43 707.238,1346.42 717.033,1346.41 
  726.828,1346.4 736.622,1346.39 746.417,1346.37 756.212,1346.35 766.007,1346.33 775.801,1346.31 785.596,1346.28 795.391,1346.25 805.186,1346.21 814.98,1346.17 
  824.775,1346.13 834.57,1346.07 844.365,1346.01 854.159,1345.94 863.954,1345.86 873.749,1345.77 883.544,1345.67 893.338,1345.55 903.133,1345.42 912.928,1345.28 
  922.723,1345.12 932.517,1344.94 942.312,1344.74 952.107,1344.52 961.902,1344.28 971.696,1344.01 981.491,1343.71 991.286,1343.39 1001.08,1343.03 1010.88,1342.63 
  1020.67,1342.19 1030.46,1341.72 1040.26,1341.2 1050.05,1340.63 1059.85,1340.01 1069.64,1339.34 1079.44,1338.61 1089.23,1337.81 1099.03,1336.95 1108.82,1336.01 
  1118.62,1335 1128.41,1333.91 1138.21,1332.74 1148,1331.47 1157.8,1330.1 1167.59,1328.63 1177.39,1327.05 1187.18,1325.36 1196.98,1323.54 1206.77,1321.6 
  1216.57,1319.52 1226.36,1317.3 1236.15,1314.92 1245.95,1312.39 1255.74,1309.7 1265.54,1306.83 1275.33,1303.77 1285.13,1300.53 1294.92,1297.09 1304.72,1293.44 
  1314.51,1289.57 1324.31,1285.47 1334.1,1281.13 1343.9,1276.55 1353.69,1271.71 1363.49,1266.6 1373.28,1261.22 1383.08,1255.55 1392.87,1249.58 1402.67,1243.3 
  1412.46,1236.7 1422.25,1229.77 1432.05,1222.5 1441.84,1214.87 1451.64,1206.89 1461.43,1198.53 1471.23,1189.78 1481.02,1180.64 1490.82,1171.1 1500.61,1161.14 
  1510.41,1150.75 1520.2,1139.93 1530,1128.67 1539.79,1116.95 1549.59,1104.77 1559.38,1092.13 1569.18,1079 1578.97,1065.39 1588.77,1051.29 1598.56,1036.69 
  1608.36,1021.59 1618.15,1005.99 1627.94,989.875 1637.74,973.252 1647.53,956.118 1657.33,938.473 1667.12,920.319 1676.92,901.657 1686.71,882.494 1696.51,862.833 
  1706.3,842.684 1716.1,822.055 1725.89,800.957 1735.69,779.405 1745.48,757.413 1755.28,734.999 1765.07,712.184 1774.87,688.989 1784.66,665.442 1794.46,641.569 
  1804.25,617.402 1814.04,592.977 1823.84,568.331 1833.63,543.505 1843.43,518.546 1853.22,493.502 1863.02,468.427 1872.81,443.378 1882.61,418.418 1892.4,393.615 
  1902.2,369.04 1911.99,344.77 1921.79,320.89 1931.58,297.488 1941.38,274.657 1951.17,252.501 1960.97,231.126 1970.76,210.646 1980.56,191.184 1990.35,172.869 
  2000.14,155.838 2009.94,140.235 2019.73,126.215 2029.53,113.94 2039.32,103.581 2049.12,95.3203 2058.91,89.3479 2068.71,85.8656 2078.5,85.0853 2088.3,87.2303 
  2098.09,92.5353 2107.89,101.247 2117.68,113.625 2127.48,129.94 2137.27,150.48 2147.07,175.542 2156.86,205.441 2166.66,240.504 2176.45,281.078 2186.25,327.52 
  2196.04,380.208 2205.83,439.536 2215.63,505.914 2225.42,579.773 2235.22,661.56 2245.01,751.745 2254.81,850.815 2264.6,959.279 2274.4,1077.67 2284.19,1206.54 
  2293.99,1346.46 
  "/>
<path clip-path="url(#clip900)" d="
M345.486 273.253 L953.323 273.253 L953.323 91.8126 L345.486 91.8126  Z
  " fill="#ffffff" fill-rule="evenodd" fill-opacity="1"/>
<polyline clip-path="url(#clip900)" style="stroke:#000000; stroke-linecap:round; stroke-linejoin:round; stroke-width:4; stroke-opacity:1; fill:none" points="
  345.486,273.253 953.323,273.253 953.323,91.8126 345.486,91.8126 345.486,273.253 
  "/>
<polyline clip-path="url(#clip900)" style="stroke:#009af9; stroke-linecap:round; stroke-linejoin:round; stroke-width:14; stroke-opacity:1; fill:none" points="
  368.558,182.533 506.99,182.533 
  "/>
<path clip-path="url(#clip900)" d="M554.287 216.986 Q551.127 225.087 548.129 227.558 Q545.131 230.029 540.108 230.029 L534.154 230.029 L534.154 223.791 L538.529 223.791 Q541.607 223.791 543.309 222.333 Q545.01 220.874 547.076 215.446 L548.413 212.043 L530.062 167.402 L537.961 167.402 L552.14 202.888 L566.318 167.402 L574.217 167.402 L554.287 216.986 Z" fill="#000000" fill-rule="evenodd" fill-opacity="1" /><path clip-path="url(#clip900)" d="M585.478 175.099 L637.411 175.099 L637.411 181.905 L585.478 181.905 L585.478 175.099 M585.478 191.627 L637.411 191.627 L637.411 198.513 L585.478 198.513 L585.478 191.627 Z" fill="#000000" fill-rule="evenodd" fill-opacity="1" /><path clip-path="url(#clip900)" d="M672.573 184.052 Q666.74 184.052 663.377 187.171 Q660.056 190.29 660.056 195.759 Q660.056 201.228 663.377 204.347 Q666.74 207.466 672.573 207.466 Q678.406 207.466 681.768 204.347 Q685.131 201.187 685.131 195.759 Q685.131 190.29 681.768 187.171 Q678.447 184.052 672.573 184.052 M664.39 180.568 Q659.124 179.272 656.167 175.666 Q653.25 172.061 653.25 166.876 Q653.25 159.625 658.395 155.412 Q663.58 151.199 672.573 151.199 Q681.606 151.199 686.751 155.412 Q691.896 159.625 691.896 166.876 Q691.896 172.061 688.939 175.666 Q686.022 179.272 680.796 180.568 Q686.711 181.945 689.992 185.956 Q693.314 189.966 693.314 195.759 Q693.314 204.549 687.926 209.248 Q682.579 213.947 672.573 213.947 Q662.567 213.947 657.179 209.248 Q651.832 204.549 651.832 195.759 Q651.832 189.966 655.154 185.956 Q658.476 181.945 664.39 180.568 M661.392 167.646 Q661.392 172.345 664.309 174.978 Q667.266 177.611 672.573 177.611 Q677.839 177.611 680.796 174.978 Q683.794 172.345 683.794 167.646 Q683.794 162.946 680.796 160.313 Q677.839 157.68 672.573 157.68 Q667.266 157.68 664.309 160.313 Q661.392 162.946 661.392 167.646 Z" fill="#000000" fill-rule="evenodd" fill-opacity="1" /><path clip-path="url(#clip900)" d="M708.707 202.483 L717.254 202.483 L717.254 209.451 L710.611 222.414 L705.385 222.414 L708.707 209.451 L708.707 202.483 Z" fill="#000000" fill-rule="evenodd" fill-opacity="1" /><path clip-path="url(#clip900)" d="M759.87 152.293 L770.888 152.293 L797.705 202.888 L797.705 152.293 L805.645 152.293 L805.645 212.773 L794.627 212.773 L767.81 162.177 L767.81 212.773 L759.87 212.773 L759.87 152.293 Z" fill="#000000" fill-rule="evenodd" fill-opacity="1" /><path clip-path="url(#clip900)" d="M822.578 175.099 L874.511 175.099 L874.511 181.905 L822.578 181.905 L822.578 175.099 M822.578 191.627 L874.511 191.627 L874.511 198.513 L822.578 198.513 L822.578 191.627 Z" fill="#000000" fill-rule="evenodd" fill-opacity="1" /><path clip-path="url(#clip900)" d="M892.416 211.517 L892.416 204.063 Q895.494 205.522 898.654 206.291 Q901.814 207.061 904.852 207.061 Q912.954 207.061 917.207 201.633 Q921.501 196.164 922.109 185.064 Q919.759 188.548 916.154 190.412 Q912.549 192.275 908.174 192.275 Q899.099 192.275 893.793 186.806 Q888.527 181.297 888.527 171.777 Q888.527 162.46 894.036 156.83 Q899.545 151.199 908.7 151.199 Q919.192 151.199 924.701 159.26 Q930.251 167.281 930.251 182.593 Q930.251 196.893 923.445 205.44 Q916.68 213.947 905.216 213.947 Q902.138 213.947 898.978 213.34 Q895.818 212.732 892.416 211.517 M908.7 185.875 Q914.209 185.875 917.41 182.107 Q920.65 178.34 920.65 171.777 Q920.65 165.256 917.41 161.488 Q914.209 157.68 908.7 157.68 Q903.191 157.68 899.95 161.488 Q896.75 165.256 896.75 171.777 Q896.75 178.34 899.95 182.107 Q903.191 185.875 908.7 185.875 Z" fill="#000000" fill-rule="evenodd" fill-opacity="1" /></svg>
