<?xml version="1.0" encoding="utf-8"?>
<svg xmlns="http://www.w3.org/2000/svg" xmlns:xlink="http://www.w3.org/1999/xlink" width="500" height="200" viewBox="0 0 2000 800">
<defs>
  <clipPath id="clip930">
    <rect x="0" y="0" width="2000" height="800"/>
  </clipPath>
</defs>
<path clip-path="url(#clip930)" d="
M0 800 L2000 800 L2000 0 L0 0  Z
  " fill="#ffffff" fill-rule="evenodd" fill-opacity="1"/>
<defs>
  <clipPath id="clip931">
    <rect x="400" y="0" width="1401" height="800"/>
  </clipPath>
</defs>
<path clip-path="url(#clip930)" d="
M212.436 708.272 L1952.76 708.272 L1952.76 47.2441 L212.436 47.2441  Z
  " fill="#ffffff" fill-rule="evenodd" fill-opacity="1"/>
<defs>
  <clipPath id="clip932">
    <rect x="212" y="47" width="1741" height="662"/>
  </clipPath>
</defs>
<polyline clip-path="url(#clip932)" style="stroke:#000000; stroke-linecap:round; stroke-linejoin:round; stroke-width:2; stroke-opacity:0.1; fill:none" points="
  475.583,708.272 475.583,47.2441 
  "/>
<polyline clip-path="url(#clip932)" style="stroke:#000000; stroke-linecap:round; stroke-linejoin:round; stroke-width:2; stroke-opacity:0.1; fill:none" points="
  751.498,708.272 751.498,47.2441 
  "/>
<polyline clip-path="url(#clip932)" style="stroke:#000000; stroke-linecap:round; stroke-linejoin:round; stroke-width:2; stroke-opacity:0.1; fill:none" points="
  1027.41,708.272 1027.41,47.2441 
  "/>
<polyline clip-path="url(#clip932)" style="stroke:#000000; stroke-linecap:round; stroke-linejoin:round; stroke-width:2; stroke-opacity:0.1; fill:none" points="
  1303.33,708.272 1303.33,47.2441 
  "/>
<polyline clip-path="url(#clip932)" style="stroke:#000000; stroke-linecap:round; stroke-linejoin:round; stroke-width:2; stroke-opacity:0.1; fill:none" points="
  1579.24,708.272 1579.24,47.2441 
  "/>
<polyline clip-path="url(#clip932)" style="stroke:#000000; stroke-linecap:round; stroke-linejoin:round; stroke-width:2; stroke-opacity:0.1; fill:none" points="
  1855.16,708.272 1855.16,47.2441 
  "/>
<polyline clip-path="url(#clip930)" style="stroke:#000000; stroke-linecap:round; stroke-linejoin:round; stroke-width:4; stroke-opacity:1; fill:none" points="
  212.436,708.272 1952.76,708.272 
  "/>
<polyline clip-path="url(#clip930)" style="stroke:#000000; stroke-linecap:round; stroke-linejoin:round; stroke-width:4; stroke-opacity:1; fill:none" points="
  475.583,708.272 475.583,689.374 
  "/>
<polyline clip-path="url(#clip930)" style="stroke:#000000; stroke-linecap:round; stroke-linejoin:round; stroke-width:4; stroke-opacity:1; fill:none" points="
  751.498,708.272 751.498,689.374 
  "/>
<polyline clip-path="url(#clip930)" style="stroke:#000000; stroke-linecap:round; stroke-linejoin:round; stroke-width:4; stroke-opacity:1; fill:none" points="
  1027.41,708.272 1027.41,689.374 
  "/>
<polyline clip-path="url(#clip930)" style="stroke:#000000; stroke-linecap:round; stroke-linejoin:round; stroke-width:4; stroke-opacity:1; fill:none" points="
  1303.33,708.272 1303.33,689.374 
  "/>
<polyline clip-path="url(#clip930)" style="stroke:#000000; stroke-linecap:round; stroke-linejoin:round; stroke-width:4; stroke-opacity:1; fill:none" points="
  1579.24,708.272 1579.24,689.374 
  "/>
<polyline clip-path="url(#clip930)" style="stroke:#000000; stroke-linecap:round; stroke-linejoin:round; stroke-width:4; stroke-opacity:1; fill:none" points="
  1855.16,708.272 1855.16,689.374 
  "/>
<path clip-path="url(#clip930)" d="M429.646 750.643 L459.322 750.643 L459.322 754.578 L429.646 754.578 L429.646 750.643 Z" fill="#000000" fill-rule="evenodd" fill-opacity="1" /><path clip-path="url(#clip930)" d="M470.224 763.537 L477.863 763.537 L477.863 737.171 L469.553 738.838 L469.553 734.579 L477.817 732.912 L482.493 732.912 L482.493 763.537 L490.132 763.537 L490.132 767.472 L470.224 767.472 L470.224 763.537 Z" fill="#000000" fill-rule="evenodd" fill-opacity="1" /><path clip-path="url(#clip930)" d="M509.576 735.991 Q505.965 735.991 504.136 739.555 Q502.331 743.097 502.331 750.227 Q502.331 757.333 504.136 760.898 Q505.965 764.439 509.576 764.439 Q513.21 764.439 515.016 760.898 Q516.844 757.333 516.844 750.227 Q516.844 743.097 515.016 739.555 Q513.21 735.991 509.576 735.991 M509.576 732.287 Q515.386 732.287 518.442 736.893 Q521.52 741.477 521.52 750.227 Q521.52 758.953 518.442 763.56 Q515.386 768.143 509.576 768.143 Q503.766 768.143 500.687 763.56 Q497.632 758.953 497.632 750.227 Q497.632 741.477 500.687 736.893 Q503.766 732.287 509.576 732.287 Z" fill="#000000" fill-rule="evenodd" fill-opacity="1" /><path clip-path="url(#clip930)" d="M721.139 750.643 L750.815 750.643 L750.815 754.578 L721.139 754.578 L721.139 750.643 Z" fill="#000000" fill-rule="evenodd" fill-opacity="1" /><path clip-path="url(#clip930)" d="M760.954 732.912 L779.31 732.912 L779.31 736.847 L765.236 736.847 L765.236 745.319 Q766.255 744.972 767.273 744.81 Q768.292 744.625 769.31 744.625 Q775.097 744.625 778.477 747.796 Q781.857 750.967 781.857 756.384 Q781.857 761.963 778.384 765.064 Q774.912 768.143 768.593 768.143 Q766.417 768.143 764.148 767.773 Q761.903 767.402 759.496 766.662 L759.496 761.963 Q761.579 763.097 763.801 763.652 Q766.023 764.208 768.5 764.208 Q772.505 764.208 774.843 762.102 Q777.181 759.995 777.181 756.384 Q777.181 752.773 774.843 750.666 Q772.505 748.56 768.5 748.56 Q766.625 748.56 764.75 748.977 Q762.898 749.393 760.954 750.273 L760.954 732.912 Z" fill="#000000" fill-rule="evenodd" fill-opacity="1" /><path clip-path="url(#clip930)" d="M1027.41 735.991 Q1023.8 735.991 1021.97 739.555 Q1020.17 743.097 1020.17 750.227 Q1020.17 757.333 1021.97 760.898 Q1023.8 764.439 1027.41 764.439 Q1031.05 764.439 1032.85 760.898 Q1034.68 757.333 1034.68 750.227 Q1034.68 743.097 1032.85 739.555 Q1031.05 735.991 1027.41 735.991 M1027.41 732.287 Q1033.22 732.287 1036.28 736.893 Q1039.36 741.477 1039.36 750.227 Q1039.36 758.953 1036.28 763.56 Q1033.22 768.143 1027.41 768.143 Q1021.6 768.143 1018.52 763.56 Q1015.47 758.953 1015.47 750.227 Q1015.47 741.477 1018.52 736.893 Q1021.6 732.287 1027.41 732.287 Z" fill="#000000" fill-rule="evenodd" fill-opacity="1" /><path clip-path="url(#clip930)" d="M1293.61 732.912 L1311.96 732.912 L1311.96 736.847 L1297.89 736.847 L1297.89 745.319 Q1298.91 744.972 1299.93 744.81 Q1300.94 744.625 1301.96 744.625 Q1307.75 744.625 1311.13 747.796 Q1314.51 750.967 1314.51 756.384 Q1314.51 761.963 1311.04 765.064 Q1307.56 768.143 1301.24 768.143 Q1299.07 768.143 1296.8 767.773 Q1294.55 767.402 1292.15 766.662 L1292.15 761.963 Q1294.23 763.097 1296.45 763.652 Q1298.68 764.208 1301.15 764.208 Q1305.16 764.208 1307.49 762.102 Q1309.83 759.995 1309.83 756.384 Q1309.83 752.773 1307.49 750.666 Q1305.16 748.56 1301.15 748.56 Q1299.28 748.56 1297.4 748.977 Q1295.55 749.393 1293.61 750.273 L1293.61 732.912 Z" fill="#000000" fill-rule="evenodd" fill-opacity="1" /><path clip-path="url(#clip930)" d="M1553.93 763.537 L1561.57 763.537 L1561.57 737.171 L1553.26 738.838 L1553.26 734.579 L1561.52 732.912 L1566.2 732.912 L1566.2 763.537 L1573.84 763.537 L1573.84 767.472 L1553.93 767.472 L1553.93 763.537 Z" fill="#000000" fill-rule="evenodd" fill-opacity="1" /><path clip-path="url(#clip930)" d="M1593.28 735.991 Q1589.67 735.991 1587.84 739.555 Q1586.04 743.097 1586.04 750.227 Q1586.04 757.333 1587.84 760.898 Q1589.67 764.439 1593.28 764.439 Q1596.92 764.439 1598.72 760.898 Q1600.55 757.333 1600.55 750.227 Q1600.55 743.097 1598.72 739.555 Q1596.92 735.991 1593.28 735.991 M1593.28 732.287 Q1599.09 732.287 1602.15 736.893 Q1605.23 741.477 1605.23 750.227 Q1605.23 758.953 1602.15 763.56 Q1599.09 768.143 1593.28 768.143 Q1587.47 768.143 1584.39 763.56 Q1581.34 758.953 1581.34 750.227 Q1581.34 741.477 1584.39 736.893 Q1587.47 732.287 1593.28 732.287 Z" fill="#000000" fill-rule="evenodd" fill-opacity="1" /><path clip-path="url(#clip930)" d="M1830.34 763.537 L1837.98 763.537 L1837.98 737.171 L1829.67 738.838 L1829.67 734.579 L1837.94 732.912 L1842.61 732.912 L1842.61 763.537 L1850.25 763.537 L1850.25 767.472 L1830.34 767.472 L1830.34 763.537 Z" fill="#000000" fill-rule="evenodd" fill-opacity="1" /><path clip-path="url(#clip930)" d="M1859.74 732.912 L1878.1 732.912 L1878.1 736.847 L1864.02 736.847 L1864.02 745.319 Q1865.04 744.972 1866.06 744.81 Q1867.08 744.625 1868.1 744.625 Q1873.88 744.625 1877.26 747.796 Q1880.64 750.967 1880.64 756.384 Q1880.64 761.963 1877.17 765.064 Q1873.7 768.143 1867.38 768.143 Q1865.2 768.143 1862.94 767.773 Q1860.69 767.402 1858.28 766.662 L1858.28 761.963 Q1860.37 763.097 1862.59 763.652 Q1864.81 764.208 1867.29 764.208 Q1871.29 764.208 1873.63 762.102 Q1875.97 759.995 1875.97 756.384 Q1875.97 752.773 1873.63 750.666 Q1871.29 748.56 1867.29 748.56 Q1865.41 748.56 1863.54 748.977 Q1861.69 749.393 1859.74 750.273 L1859.74 732.912 Z" fill="#000000" fill-rule="evenodd" fill-opacity="1" /><polyline clip-path="url(#clip932)" style="stroke:#000000; stroke-linecap:round; stroke-linejoin:round; stroke-width:2; stroke-opacity:0.1; fill:none" points="
  212.436,690.183 1952.76,690.183 
  "/>
<polyline clip-path="url(#clip932)" style="stroke:#000000; stroke-linecap:round; stroke-linejoin:round; stroke-width:2; stroke-opacity:0.1; fill:none" points="
  212.436,533.691 1952.76,533.691 
  "/>
<polyline clip-path="url(#clip932)" style="stroke:#000000; stroke-linecap:round; stroke-linejoin:round; stroke-width:2; stroke-opacity:0.1; fill:none" points="
  212.436,377.199 1952.76,377.199 
  "/>
<polyline clip-path="url(#clip932)" style="stroke:#000000; stroke-linecap:round; stroke-linejoin:round; stroke-width:2; stroke-opacity:0.1; fill:none" points="
  212.436,220.707 1952.76,220.707 
  "/>
<polyline clip-path="url(#clip932)" style="stroke:#000000; stroke-linecap:round; stroke-linejoin:round; stroke-width:2; stroke-opacity:0.1; fill:none" points="
  212.436,64.2156 1952.76,64.2156 
  "/>
<polyline clip-path="url(#clip932)" style="stroke:#009af9; stroke-linecap:round; stroke-linejoin:round; stroke-width:8; stroke-opacity:1; fill:none" points="
  261.69,689.564 267.035,689.505 272.379,689.442 321.797,688.54 371.215,686.716 400.914,684.882 430.612,682.223 455.721,679.117 480.831,674.995 494.469,672.243 
  508.106,669.073 521.744,665.438 535.382,661.287 547.955,656.958 560.528,652.105 573.101,646.684 585.674,640.652 599.154,633.458 612.633,625.461 626.113,616.612 
  639.592,606.864 655.21,594.392 670.827,580.602 686.445,565.454 702.062,548.92 715.941,533.058 729.82,516.104 743.699,498.081 757.578,479.03 769.748,461.519 
  781.919,443.309 794.089,424.457 806.26,405.034 832.798,361.103 859.336,315.855 886.032,270.228 912.728,225.881 920.107,214.047 927.486,202.457 934.865,191.144 
  942.244,180.137 949.623,169.471 957.002,159.175 964.381,149.28 971.76,139.817 978.781,131.239 985.802,123.101 992.823,115.427 999.844,108.238 1006.86,101.555 
  1013.89,95.3971 1020.91,89.7826 1027.93,84.7279 1035.23,80.082 1042.53,76.0726 1049.83,72.7125 1057.13,70.0127 1064.43,67.982 1071.73,66.6271 1079.03,65.9524 
  1086.33,65.9601 1092.47,66.4956 1098.62,67.5135 1104.76,69.0113 1110.91,70.9856 1117.05,73.4319 1123.2,76.3444 1129.34,79.7165 1135.49,83.5404 1142.99,88.8088 
  1150.49,94.7197 1158,101.253 1165.5,108.388 1173,116.099 1180.5,124.363 1188.01,133.151 1195.51,142.436 1209.25,160.638 1223,180.215 1229.87,190.458 
  1236.75,200.97 1243.62,211.725 1250.49,222.697 1275.88,264.685 1301.27,307.992 1326.99,351.962 1352.71,394.91 1367.12,418.165 1381.54,440.654 1395.95,462.258 
  1410.36,482.877 1423.42,500.645 1436.48,517.495 1449.54,533.398 1462.6,548.333 1477.55,564.236 1492.5,578.869 1507.46,592.252 1522.41,604.42 1536.25,614.644 
  1550.1,623.911 1563.94,632.269 1577.79,639.772 1591.44,646.385 1605.09,652.277 1618.73,657.501 1632.38,662.112 1645.64,666.055 1658.89,669.518 1672.14,672.548 
  1685.39,675.188 1712.56,679.55 1739.73,682.756 1769.5,685.257 1799.27,686.975 1842.51,688.517 1885.76,689.35 1894.63,689.464 1903.5,689.564 
  "/>
</svg>
