<?xml version="1.0" encoding="UTF-8"?>
<svg id="Layer_1" data-name="Layer 1" xmlns="http://www.w3.org/2000/svg" viewBox="0 0 607 110.91">
  <defs>
    <style>
      .cls-1 {
        fill: red;
      }

      .cls-1, .cls-2 {
        font-family: MinionVariableConcept-Roman, 'Minion Variable Concept';
        font-size: 36px;
        font-variation-settings: 'wght' 400, 'opsz' 11;
      }

      .cls-1, .cls-3 {
        stroke: #ff1d25;
      }

      .cls-4 {
        letter-spacing: 0em;
      }

      .cls-5 {
        fill: #fff;
      }

      .cls-6 {
        fill: #231f20;
      }

      .cls-7 {
        letter-spacing: 0em;
      }

      .cls-3, .cls-8 {
        fill: none;
        stroke-miterlimit: 10;
        stroke-width: 4px;
      }

      .cls-8 {
        stroke: #231f20;
      }

      .cls-9 {
        letter-spacing: 0em;
      }

      .cls-10 {
        letter-spacing: 0em;
      }

      .cls-11 {
        letter-spacing: .02em;
      }

      .cls-12 {
        letter-spacing: -.01em;
      }

      .cls-13 {
        letter-spacing: 0em;
      }
    </style>
  </defs>
  <g>
    <rect class="cls-5" x="2.5" y="4.41" width="181" height="104" rx="34.33" ry="34.33"/>
    <path d="m149.17,6.91c17.55,0,31.83,14.28,31.83,31.83v35.34c0,17.55-14.28,31.83-31.83,31.83H36.83c-17.55,0-31.83-14.28-31.83-31.83v-35.34c0-17.55,14.28-31.83,31.83-31.83h112.34m0-5H36.83C16.49,1.91,0,18.4,0,38.74v35.34c0,20.34,16.49,36.83,36.83,36.83h112.34c20.34,0,36.83-16.49,36.83-36.83v-35.34c0-20.34-16.49-36.83-36.83-36.83h0Z"/>
  </g>
  <text class="cls-2" transform="translate(15.22 44.79)"><tspan x="0" y="0">Ec</tspan><tspan class="cls-7" x="36.61" y="0">o</tspan><tspan class="cls-10" x="54.97" y="0">n</tspan><tspan class="cls-7" x="74.73" y="0">o</tspan><tspan x="93.09" y="0">m</tspan><tspan class="cls-10" x="122.51" y="0">i</tspan><tspan x="132.12" y="0">c </tspan><tspan class="cls-11" x="24.5" y="43.2">O</tspan><tspan class="cls-4" x="52.22" y="43.2">u</tspan><tspan class="cls-9" x="71.44" y="43.2">t</tspan><tspan x="82.1" y="43.2">put</tspan></text>
  <g>
    <rect class="cls-5" x="423.5" y="4.41" width="181" height="104" rx="34.33" ry="34.33"/>
    <path d="m570.17,6.91c17.55,0,31.83,14.28,31.83,31.83v35.34c0,17.55-14.28,31.83-31.83,31.83h-112.34c-17.55,0-31.83-14.28-31.83-31.83v-35.34c0-17.55,14.28-31.83,31.83-31.83h112.34m0-5h-112.34c-20.34,0-36.83,16.49-36.83,36.83v35.34c0,20.34,16.49,36.83,36.83,36.83h112.34c20.34,0,36.83-16.49,36.83-36.83v-35.34c0-20.34-16.49-36.83-36.83-36.83h0Z"/>
  </g>
  <text class="cls-2" transform="translate(473.57 44.79)"><tspan class="cls-10" x="0" y="0">G</tspan><tspan class="cls-13" x="26.32" y="0">H</tspan><tspan x="54.75" y="0">G</tspan><tspan x="-33.35" y="43.2">Em</tspan><tspan class="cls-7" x="17.26" y="43.2">i</tspan><tspan x="26.8" y="43.2">ss</tspan><tspan class="cls-10" x="53.66" y="43.2">i</tspan><tspan class="cls-7" x="63.27" y="43.2">o</tspan><tspan class="cls-12" x="81.63" y="43.2">n</tspan><tspan class="cls-4" x="101.14" y="43.2">s</tspan></text>
  <g>
    <line class="cls-8" x1="186" y1="56.41" x2="389.76" y2="56.41"/>
    <polygon class="cls-6" points="418 56.41 378.2 72.67 387.65 56.41 378.2 40.15 418 56.41"/>
  </g>
  <circle class="cls-3" cx="304" cy="20.91" r="14"/>
  <text class="cls-1" transform="translate(293.42 30.2)"><tspan x="0" y="0">+</tspan></text>
</svg>