<?xml version="1.0" encoding="UTF-8"?>
<svg id="Layer_1" data-name="Layer 1" xmlns="http://www.w3.org/2000/svg" viewBox="0 0 607 461">
  <defs>
    <style>
      .cls-1 {
        fill: red;
      }

      .cls-1, .cls-2 {
        font-size: 36px;
      }

      .cls-1, .cls-2, .cls-3 {
        font-family: MinionVariableConcept-Roman, 'Minion Variable Concept';
        font-variation-settings: 'wght' 400, 'opsz' 11;
      }

      .cls-1, .cls-4 {
        stroke: #ff1d25;
      }

      .cls-5 {
        letter-spacing: 0em;
      }

      .cls-6 {
        fill: #fff;
      }

      .cls-7 {
        fill: #231f20;
      }

      .cls-8 {
        letter-spacing: 0em;
      }

      .cls-9 {
        letter-spacing: 0em;
      }

      .cls-4, .cls-10, .cls-11 {
        fill: none;
        stroke-miterlimit: 10;
        stroke-width: 4px;
      }

      .cls-10 {
        stroke: #231f20;
      }

      .cls-11, .cls-3 {
        stroke: blue;
      }

      .cls-12 {
        font-family: MinionConceptRoman-Bold, 'Minion Variable Concept';
        font-size: 60px;
        font-variation-settings: 'wght' 700, 'opsz' 11;
        font-weight: 700;
      }

      .cls-13 {
        letter-spacing: 0em;
      }

      .cls-14 {
        letter-spacing: 0em;
      }

      .cls-15 {
        letter-spacing: .02em;
      }

      .cls-16 {
        letter-spacing: 0em;
      }

      .cls-17 {
        letter-spacing: 0em;
      }

      .cls-3 {
        fill: blue;
        font-size: 48px;
      }

      .cls-18 {
        letter-spacing: .01em;
      }

      .cls-19 {
        letter-spacing: -.02em;
      }

      .cls-20 {
        letter-spacing: 0em;
      }

      .cls-21 {
        letter-spacing: 0em;
      }

      .cls-22 {
        letter-spacing: -.03em;
      }
    </style>
  </defs>
  <g>
    <rect class="cls-6" x="2.5" y="2.5" width="181" height="104" rx="34.33" ry="34.33"/>
    <path d="m149.17,5c17.55,0,31.83,14.28,31.83,31.83v35.34c0,17.55-14.28,31.83-31.83,31.83H36.83c-17.55,0-31.83-14.28-31.83-31.83v-35.34c0-17.55,14.28-31.83,31.83-31.83h112.34m0-5H36.83C16.49,0,0,16.49,0,36.83v35.34c0,20.34,16.49,36.83,36.83,36.83h112.34c20.34,0,36.83-16.49,36.83-36.83v-35.34c0-20.34-16.49-36.83-36.83-36.83h0Z"/>
  </g>
  <text class="cls-2" transform="translate(15.22 42.88)"><tspan x="0" y="0">Ec</tspan><tspan class="cls-9" x="36.61" y="0">o</tspan><tspan class="cls-14" x="54.97" y="0">n</tspan><tspan class="cls-9" x="74.73" y="0">o</tspan><tspan x="93.09" y="0">m</tspan><tspan class="cls-14" x="122.51" y="0">i</tspan><tspan x="132.12" y="0">c </tspan><tspan class="cls-15" x="24.5" y="43.2">O</tspan><tspan class="cls-5" x="52.22" y="43.2">u</tspan><tspan class="cls-13" x="71.44" y="43.2">t</tspan><tspan x="82.1" y="43.2">put</tspan></text>
  <g>
    <rect class="cls-6" x="423.5" y="354.5" width="181" height="104" rx="34.33" ry="34.33"/>
    <path d="m570.17,357c17.55,0,31.83,14.28,31.83,31.83v35.34c0,17.55-14.28,31.83-31.83,31.83h-112.34c-17.55,0-31.83-14.28-31.83-31.83v-35.34c0-17.55,14.28-31.83,31.83-31.83h112.34m0-5h-112.34c-20.34,0-36.83,16.49-36.83,36.83v35.34c0,20.34,16.49,36.83,36.83,36.83h112.34c20.34,0,36.83-16.49,36.83-36.83v-35.34c0-20.34-16.49-36.83-36.83-36.83h0Z"/>
  </g>
  <text class="cls-2" transform="translate(456.54 394.88)"><tspan class="cls-16" x="0" y="0">C</tspan><tspan class="cls-5" x="25.09" y="0">lim</tspan><tspan class="cls-17" x="73.62" y="0">a</tspan><tspan class="cls-19" x="89.39" y="0">t</tspan><tspan x="99.72" y="0">e</tspan><tspan class="cls-16" x="1.4" y="43.2">C</tspan><tspan x="26.49" y="43.2">ha</tspan><tspan class="cls-8" x="62.17" y="43.2">ng</tspan><tspan x="98.31" y="43.2">e</tspan></text>
  <g>
    <rect class="cls-6" x="2.5" y="354.5" width="181" height="104" rx="34.33" ry="34.33"/>
    <path d="m149.17,357c17.55,0,31.83,14.28,31.83,31.83v35.34c0,17.55-14.28,31.83-31.83,31.83H36.83c-17.55,0-31.83-14.28-31.83-31.83v-35.34c0-17.55,14.28-31.83,31.83-31.83h112.34m0-5H36.83c-20.34,0-36.83,16.49-36.83,36.83v35.34c0,20.34,16.49,36.83,36.83,36.83h112.34c20.34,0,36.83-16.49,36.83-36.83v-35.34c0-20.34-16.49-36.83-36.83-36.83h0Z"/>
  </g>
  <text class="cls-2" transform="translate(35.54 394.88)"><tspan class="cls-16" x="0" y="0">C</tspan><tspan class="cls-5" x="25.09" y="0">lim</tspan><tspan class="cls-17" x="73.62" y="0">a</tspan><tspan class="cls-19" x="89.39" y="0">t</tspan><tspan x="99.72" y="0">e</tspan><tspan class="cls-22" x="-.52" y="43.2">I</tspan><tspan class="cls-14" x="11.36" y="43.2">m</tspan><tspan class="cls-21" x="40.62" y="43.2">pa</tspan><tspan class="cls-18" x="75.55" y="43.2">c</tspan><tspan class="cls-20" x="91.42" y="43.2">ts</tspan></text>
  <g>
    <polyline class="cls-10" points="420.82 406.5 389.29 406.5 214.24 406.5"/>
    <polygon class="cls-7" points="186 406.5 225.8 390.24 216.35 406.5 225.8 422.76 186 406.5"/>
  </g>
  <circle class="cls-4" cx="304" cy="438" r="14"/>
  <text class="cls-1" transform="translate(293.42 447.29)"><tspan x="0" y="0">+</tspan></text>
  <circle class="cls-4" cx="27" cy="227" r="14"/>
  <text class="cls-1" transform="translate(16.42 236.29)"><tspan x="0" y="0">+</tspan></text>
  <g>
    <line class="cls-10" x1="93" y1="352" x2="93" y2="137.24"/>
    <polygon class="cls-7" points="93 109 109.26 148.8 93 139.35 76.74 148.8 93 109"/>
  </g>
  <circle class="cls-11" cx="71" cy="236" r="14"/>
  <text class="cls-3" transform="translate(62.84 247.29)"><tspan x="0" y="0">-</tspan></text>
  <text class="cls-12" transform="translate(38.73 245.26)"><tspan x="0" y="0">/</tspan></text>
</svg>