<?xml version="1.0" encoding="utf-8"?>
<svg xmlns="http://www.w3.org/2000/svg" xmlns:xlink="http://www.w3.org/1999/xlink" width="600" height="400" viewBox="0 0 2400 1600">
<defs>
  <clipPath id="clip750">
    <rect x="0" y="0" width="2400" height="1600"/>
  </clipPath>
</defs>
<path clip-path="url(#clip750)" d="
M0 1600 L2400 1600 L2400 0 L0 0  Z
  " fill="#ffffff" fill-rule="evenodd" fill-opacity="1"/>
<defs>
  <clipPath id="clip751">
    <rect x="480" y="0" width="1681" height="1600"/>
  </clipPath>
</defs>
<path clip-path="url(#clip750)" d="
M186.274 1486.45 L2352.76 1486.45 L2352.76 47.2441 L186.274 47.2441  Z
  " fill="#ffffff" fill-rule="evenodd" fill-opacity="1"/>
<defs>
  <clipPath id="clip752">
    <rect x="186" y="47" width="2167" height="1440"/>
  </clipPath>
</defs>
<polyline clip-path="url(#clip752)" style="stroke:#000000; stroke-linecap:round; stroke-linejoin:round; stroke-width:4; stroke-opacity:1; fill:none" points="
  247.59,1444.37 253.824,1444.24 260.058,1444.1 317.702,1442.14 375.347,1438.17 409.988,1434.19 444.63,1428.4 473.92,1421.65 503.209,1412.68 519.117,1406.7 
  535.025,1399.8 550.933,1391.89 566.841,1382.86 581.507,1373.45 596.173,1362.89 610.839,1351.1 625.505,1337.98 641.228,1322.34 656.952,1304.94 672.675,1285.69 
  688.399,1264.49 706.616,1237.36 724.833,1207.37 743.05,1174.42 761.267,1138.46 777.456,1103.96 793.646,1067.08 809.835,1027.88 826.024,986.444 840.22,948.358 
  854.417,908.749 868.613,867.745 882.81,825.499 913.766,729.947 944.722,631.529 975.862,532.287 1007,435.83 1015.61,410.092 1024.22,384.883 1032.82,360.275 
  1041.43,336.336 1050.04,313.135 1058.65,290.741 1067.25,269.22 1075.86,248.636 1084.05,229.978 1092.24,212.279 1100.43,195.587 1108.62,179.95 1116.81,165.414 
  1125,152.02 1133.19,139.808 1141.38,128.814 1149.89,118.709 1158.41,109.988 1166.92,102.68 1175.44,96.8076 1183.95,92.3908 1192.47,89.4438 1200.98,87.9763 
  1209.5,87.993 1216.67,89.1578 1223.84,91.3717 1231,94.6295 1238.17,98.9238 1245.34,104.245 1252.51,110.579 1259.68,117.914 1266.84,126.231 1275.6,137.69 
  1284.35,150.547 1293.1,164.758 1301.85,180.276 1310.6,197.049 1319.35,215.022 1328.1,234.138 1336.86,254.333 1352.89,293.922 1368.92,336.505 1376.94,358.784 
  1384.96,381.648 1392.97,405.04 1400.99,428.905 1430.61,520.231 1460.22,614.427 1490.22,710.065 1520.23,803.479 1537.04,854.06 1553.85,902.976 1570.66,949.965 
  1587.47,994.813 1602.7,1033.46 1617.94,1070.11 1633.17,1104.7 1648.41,1137.18 1665.85,1171.77 1683.29,1203.6 1700.73,1232.71 1718.17,1259.18 1734.32,1281.41 
  1750.47,1301.57 1766.62,1319.75 1782.77,1336.07 1798.69,1350.45 1814.61,1363.27 1830.53,1374.63 1846.45,1384.66 1861.91,1393.23 1877.37,1400.77 1892.83,1407.36 
  1908.29,1413.1 1939.98,1422.59 1971.67,1429.56 2006.4,1435 2041.12,1438.74 2091.56,1442.09 2142.01,1443.9 2152.35,1444.15 2162.7,1444.37 
  "/>
<polyline clip-path="url(#clip752)" style="stroke:#ff0000; stroke-linecap:round; stroke-linejoin:round; stroke-width:4; stroke-opacity:1; fill:none" points="
  376.327,1444.37 382.562,1444.24 388.796,1444.1 446.44,1442.14 504.084,1438.17 538.726,1434.19 573.368,1428.4 602.657,1421.65 631.947,1412.68 647.855,1406.7 
  663.763,1399.8 679.671,1391.89 695.579,1382.86 710.245,1373.45 724.911,1362.89 739.577,1351.1 754.243,1337.98 769.966,1322.34 785.69,1304.94 801.413,1285.69 
  817.137,1264.49 835.354,1237.36 853.571,1207.37 871.788,1174.42 890.005,1138.46 906.194,1103.96 922.383,1067.08 938.573,1027.88 954.762,986.444 968.958,948.358 
  983.155,908.749 997.351,867.745 1011.55,825.499 1042.5,729.947 1073.46,631.529 1104.6,532.287 1135.74,435.83 1144.35,410.092 1152.95,384.883 1161.56,360.275 
  1170.17,336.336 1178.78,313.135 1187.38,290.741 1195.99,269.22 1204.6,248.636 1212.79,229.978 1220.98,212.279 1229.17,195.587 1237.36,179.95 1245.55,165.414 
  1253.74,152.02 1261.93,139.808 1270.12,128.814 1278.63,118.709 1287.15,109.988 1295.66,102.68 1304.18,96.8076 1312.69,92.3908 1321.21,89.4438 1329.72,87.9763 
  1338.24,87.993 1345.41,89.1578 1352.57,91.3717 1359.74,94.6295 1366.91,98.9238 1374.08,104.245 1381.25,110.579 1388.41,117.914 1395.58,126.231 1404.33,137.69 
  1413.08,150.547 1421.84,164.758 1430.59,180.276 1439.34,197.049 1448.09,215.022 1456.84,234.138 1465.59,254.333 1481.63,293.922 1497.66,336.505 1505.68,358.784 
  1513.69,381.648 1521.71,405.04 1529.73,428.905 1559.34,520.231 1588.96,614.427 1618.96,710.065 1648.96,803.479 1665.77,854.06 1682.59,902.976 1699.4,949.965 
  1716.21,994.813 1731.44,1033.46 1746.68,1070.11 1761.91,1104.7 1777.14,1137.18 1794.58,1171.77 1812.03,1203.6 1829.47,1232.71 1846.91,1259.18 1863.06,1281.41 
  1879.21,1301.57 1895.36,1319.75 1911.51,1336.07 1927.43,1350.45 1943.35,1363.27 1959.27,1374.63 1975.19,1384.66 1990.65,1393.23 2006.11,1400.77 2021.57,1407.36 
  2037.02,1413.1 2068.72,1422.59 2100.41,1429.56 2135.14,1435 2169.86,1438.74 2220.3,1442.09 2270.74,1443.9 2281.09,1444.15 2291.44,1444.37 
  "/>
<path clip-path="url(#clip752)" d="
M1784.47 1445.72 L1785.75 1445.72 L1787.04 1445.72 L1788.33 1445.72 L1789.62 1445.72 L1790.9 1445.72 L1792.19 1445.72 L1793.48 1445.72 L1794.77 1445.72 L1796.05 1445.72 
  L1797.34 1445.72 L1798.63 1445.72 L1799.91 1445.72 L1801.2 1445.72 L1802.49 1445.72 L1803.78 1445.72 L1805.06 1445.72 L1806.35 1445.72 L1807.64 1445.72 L1808.93 1445.72 
  L1810.21 1445.72 L1811.5 1445.72 L1812.79 1445.72 L1814.08 1445.72 L1815.36 1445.72 L1816.65 1445.72 L1817.94 1445.72 L1819.23 1445.72 L1820.51 1445.72 L1821.8 1445.72 
  L1823.09 1445.72 L1824.38 1445.72 L1825.66 1445.72 L1826.95 1445.72 L1828.24 1445.72 L1829.52 1445.72 L1830.81 1445.72 L1832.1 1445.72 L1833.39 1445.72 L1834.67 1445.72 
  L1835.96 1445.72 L1837.25 1445.72 L1838.54 1445.72 L1839.82 1445.72 L1841.11 1445.72 L1842.4 1445.72 L1843.69 1445.72 L1844.97 1445.72 L1846.26 1445.72 L1847.55 1445.72 
  L1848.84 1445.72 L1850.12 1445.72 L1851.41 1445.72 L1852.7 1445.72 L1853.98 1445.72 L1855.27 1445.72 L1856.56 1445.72 L1857.85 1445.72 L1859.13 1445.72 L1860.42 1445.72 
  L1861.71 1445.72 L1863 1445.72 L1864.28 1445.72 L1865.57 1445.72 L1866.86 1445.72 L1868.15 1445.72 L1869.43 1445.72 L1870.72 1445.72 L1872.01 1445.72 L1873.3 1445.72 
  L1874.58 1445.72 L1875.87 1445.72 L1877.16 1445.72 L1878.45 1445.72 L1879.73 1445.72 L1881.02 1445.72 L1882.31 1445.72 L1883.59 1445.72 L1884.88 1445.72 L1886.17 1445.72 
  L1887.46 1445.72 L1888.74 1445.72 L1890.03 1445.72 L1891.32 1445.72 L1892.61 1445.72 L1893.89 1445.72 L1895.18 1445.72 L1896.47 1445.72 L1897.76 1445.72 L1899.04 1445.72 
  L1900.33 1445.72 L1901.62 1445.72 L1902.91 1445.72 L1904.19 1445.72 L1905.48 1445.72 L1906.77 1445.72 L1908.05 1445.72 L1909.34 1445.72 L1910.63 1445.72 L1911.92 1445.72 
  L1913.2 1445.72 L1914.49 1445.72 L1915.78 1445.72 L1917.07 1445.72 L1918.35 1445.72 L1919.64 1445.72 L1920.93 1445.72 L1922.22 1445.72 L1923.5 1445.72 L1924.79 1445.72 
  L1926.08 1445.72 L1927.37 1445.72 L1928.65 1445.72 L1929.94 1445.72 L1931.23 1445.72 L1932.51 1445.72 L1933.8 1445.72 L1935.09 1445.72 L1936.38 1445.72 L1937.66 1445.72 
  L1938.95 1445.72 L1940.24 1445.72 L1941.53 1445.72 L1942.81 1445.72 L1944.1 1445.72 L1945.39 1445.72 L1946.68 1445.72 L1947.96 1445.72 L1949.25 1445.72 L1950.54 1445.72 
  L1951.83 1445.72 L1953.11 1445.72 L1954.4 1445.72 L1955.69 1445.72 L1956.98 1445.72 L1958.26 1445.72 L1959.55 1445.72 L1960.84 1445.72 L1962.12 1445.72 L1963.41 1445.72 
  L1964.7 1445.72 L1965.99 1445.72 L1967.27 1445.72 L1968.56 1445.72 L1969.85 1445.72 L1971.14 1445.72 L1972.42 1445.72 L1973.71 1445.72 L1975 1445.72 L1976.29 1445.72 
  L1977.57 1445.72 L1978.86 1445.72 L1980.15 1445.72 L1981.44 1445.72 L1982.72 1445.72 L1984.01 1445.72 L1985.3 1445.72 L1986.58 1445.72 L1987.87 1445.72 L1989.16 1445.72 
  L1990.45 1445.72 L1991.73 1445.72 L1993.02 1445.72 L1994.31 1445.72 L1995.6 1445.72 L1996.88 1445.72 L1998.17 1445.72 L1999.46 1445.72 L2000.75 1445.72 L2002.03 1445.72 
  L2003.32 1445.72 L2004.61 1445.72 L2005.9 1445.72 L2007.18 1445.72 L2008.47 1445.72 L2009.76 1445.72 L2011.05 1445.72 L2012.33 1445.72 L2013.62 1445.72 L2014.91 1445.72 
  L2016.19 1445.72 L2017.48 1445.72 L2018.77 1445.72 L2020.06 1445.72 L2021.34 1445.72 L2022.63 1445.72 L2023.92 1445.72 L2025.21 1445.72 L2026.49 1445.72 L2027.78 1445.72 
  L2029.07 1445.72 L2030.36 1445.72 L2031.64 1445.72 L2032.93 1445.72 L2034.22 1445.72 L2035.51 1445.72 L2036.79 1445.72 L2038.08 1445.72 L2039.37 1445.72 L2040.65 1445.72 
  L2041.94 1445.72 L2043.23 1445.72 L2044.52 1445.72 L2045.8 1445.72 L2047.09 1445.72 L2048.38 1445.72 L2049.67 1445.72 L2050.95 1445.72 L2052.24 1445.72 L2053.53 1445.72 
  L2054.82 1445.72 L2056.1 1445.72 L2057.39 1445.72 L2058.68 1445.72 L2059.97 1445.72 L2061.25 1445.72 L2062.54 1445.72 L2063.83 1445.72 L2065.11 1445.72 L2066.4 1445.72 
  L2067.69 1445.72 L2068.98 1445.72 L2070.26 1445.72 L2071.55 1445.72 L2072.84 1445.72 L2074.13 1445.72 L2075.41 1445.72 L2076.7 1445.72 L2077.99 1445.72 L2079.28 1445.72 
  L2080.56 1445.72 L2081.85 1445.72 L2083.14 1445.72 L2084.43 1445.72 L2085.71 1445.72 L2087 1445.72 L2088.29 1445.72 L2089.58 1445.72 L2090.86 1445.72 L2092.15 1445.72 
  L2093.44 1445.72 L2094.72 1445.72 L2096.01 1445.72 L2097.3 1445.72 L2098.59 1445.72 L2099.87 1445.72 L2101.16 1445.72 L2102.45 1445.72 L2103.74 1445.72 L2105.02 1445.72 
  L2106.31 1445.72 L2107.6 1445.72 L2108.89 1445.72 L2108.89 1442.85 L2107.6 1442.8 L2106.31 1442.75 L2105.02 1442.69 L2103.74 1442.64 L2102.45 1442.59 L2101.16 1442.53 
  L2099.87 1442.47 L2098.59 1442.42 L2097.3 1442.36 L2096.01 1442.3 L2094.72 1442.24 L2093.44 1442.18 L2092.15 1442.12 L2090.86 1442.06 L2089.58 1441.99 L2088.29 1441.93 
  L2087 1441.86 L2085.71 1441.8 L2084.43 1441.73 L2083.14 1441.66 L2081.85 1441.59 L2080.56 1441.52 L2079.28 1441.45 L2077.99 1441.38 L2076.7 1441.3 L2075.41 1441.23 
  L2074.13 1441.15 L2072.84 1441.07 L2071.55 1440.99 L2070.26 1440.91 L2068.98 1440.83 L2067.69 1440.75 L2066.4 1440.67 L2065.11 1440.58 L2063.83 1440.5 L2062.54 1440.41 
  L2061.25 1440.32 L2059.97 1440.23 L2058.68 1440.14 L2057.39 1440.04 L2056.1 1439.95 L2054.82 1439.85 L2053.53 1439.75 L2052.24 1439.66 L2050.95 1439.56 L2049.67 1439.45 
  L2048.38 1439.35 L2047.09 1439.25 L2045.8 1439.14 L2044.52 1439.03 L2043.23 1438.92 L2041.94 1438.81 L2040.65 1438.7 L2039.37 1438.58 L2038.08 1438.47 L2036.79 1438.35 
  L2035.51 1438.23 L2034.22 1438.11 L2032.93 1437.98 L2031.64 1437.86 L2030.36 1437.73 L2029.07 1437.6 L2027.78 1437.47 L2026.49 1437.34 L2025.21 1437.2 L2023.92 1437.07 
  L2022.63 1436.93 L2021.34 1436.79 L2020.06 1436.64 L2018.77 1436.5 L2017.48 1436.35 L2016.19 1436.2 L2014.91 1436.05 L2013.62 1435.9 L2012.33 1435.75 L2011.05 1435.59 
  L2009.76 1435.43 L2008.47 1435.27 L2007.18 1435.1 L2005.9 1434.94 L2004.61 1434.77 L2003.32 1434.6 L2002.03 1434.42 L2000.75 1434.25 L1999.46 1434.07 L1998.17 1433.89 
  L1996.88 1433.7 L1995.6 1433.52 L1994.31 1433.33 L1993.02 1433.14 L1991.73 1432.94 L1990.45 1432.75 L1989.16 1432.55 L1987.87 1432.35 L1986.58 1432.14 L1985.3 1431.94 
  L1984.01 1431.72 L1982.72 1431.51 L1981.44 1431.3 L1980.15 1431.08 L1978.86 1430.86 L1977.57 1430.63 L1976.29 1430.4 L1975 1430.17 L1973.71 1429.94 L1972.42 1429.7 
  L1971.14 1429.46 L1969.85 1429.22 L1968.56 1428.97 L1967.27 1428.72 L1965.99 1428.47 L1964.7 1428.21 L1963.41 1427.95 L1962.12 1427.69 L1960.84 1427.42 L1959.55 1427.15 
  L1958.26 1426.88 L1956.98 1426.6 L1955.69 1426.32 L1954.4 1426.03 L1953.11 1425.75 L1951.83 1425.45 L1950.54 1425.16 L1949.25 1424.86 L1947.96 1424.56 L1946.68 1424.25 
  L1945.39 1423.94 L1944.1 1423.62 L1942.81 1423.3 L1941.53 1422.98 L1940.24 1422.65 L1938.95 1422.32 L1937.66 1421.99 L1936.38 1421.65 L1935.09 1421.3 L1933.8 1420.96 
  L1932.51 1420.6 L1931.23 1420.25 L1929.94 1419.88 L1928.65 1419.52 L1927.37 1419.15 L1926.08 1418.77 L1924.79 1418.39 L1923.5 1418.01 L1922.22 1417.62 L1920.93 1417.23 
  L1919.64 1416.83 L1918.35 1416.43 L1917.07 1416.02 L1915.78 1415.6 L1914.49 1415.19 L1913.2 1414.76 L1911.92 1414.33 L1910.63 1413.9 L1909.34 1413.46 L1908.05 1413.02 
  L1906.77 1412.57 L1905.48 1412.12 L1904.19 1411.66 L1902.91 1411.19 L1901.62 1410.72 L1900.33 1410.24 L1899.04 1409.76 L1897.76 1409.28 L1896.47 1408.78 L1895.18 1408.28 
  L1893.89 1407.78 L1892.61 1407.27 L1891.32 1406.75 L1890.03 1406.23 L1888.74 1405.7 L1887.46 1405.17 L1886.17 1404.63 L1884.88 1404.08 L1883.59 1403.53 L1882.31 1402.97 
  L1881.02 1402.41 L1879.73 1401.83 L1878.45 1401.26 L1877.16 1400.67 L1875.87 1400.08 L1874.58 1399.48 L1873.3 1398.88 L1872.01 1398.27 L1870.72 1397.65 L1869.43 1397.02 
  L1868.15 1396.39 L1866.86 1395.75 L1865.57 1395.11 L1864.28 1394.46 L1863 1393.8 L1861.71 1393.13 L1860.42 1392.46 L1859.13 1391.77 L1857.85 1391.09 L1856.56 1390.39 
  L1855.27 1389.69 L1853.98 1388.97 L1852.7 1388.26 L1851.41 1387.53 L1850.12 1386.79 L1848.84 1386.05 L1847.55 1385.3 L1846.26 1384.55 L1844.97 1383.78 L1843.69 1383.01 
  L1842.4 1382.22 L1841.11 1381.44 L1839.82 1380.64 L1838.54 1379.83 L1837.25 1379.02 L1835.96 1378.19 L1834.67 1377.36 L1833.39 1376.52 L1832.1 1375.67 L1830.81 1374.82 
  L1829.52 1373.95 L1828.24 1373.08 L1826.95 1372.19 L1825.66 1371.3 L1824.38 1370.4 L1823.09 1369.49 L1821.8 1368.57 L1820.51 1367.64 L1819.23 1366.7 L1817.94 1365.76 
  L1816.65 1364.8 L1815.36 1363.84 L1814.08 1362.86 L1812.79 1361.88 L1811.5 1360.88 L1810.21 1359.88 L1808.93 1358.86 L1807.64 1357.84 L1806.35 1356.81 L1805.06 1355.77 
  L1803.78 1354.71 L1802.49 1353.65 L1801.2 1352.58 L1799.91 1351.49 L1798.63 1350.4 L1797.34 1349.3 L1796.05 1348.18 L1794.77 1347.06 L1793.48 1345.92 L1792.19 1344.78 
  L1790.9 1343.62 L1789.62 1342.45 L1788.33 1341.28 L1787.04 1340.09 L1785.75 1338.89 L1784.47 1337.68  Z
  " fill="#000000" fill-rule="evenodd" fill-opacity="0.3"/>
<polyline clip-path="url(#clip752)" style="stroke:#3da44d; stroke-linecap:round; stroke-linejoin:round; stroke-width:4; stroke-opacity:0.3; fill:none" points="
  1784.47,1445.72 1785.75,1445.72 1787.04,1445.72 1788.33,1445.72 1789.62,1445.72 1790.9,1445.72 1792.19,1445.72 1793.48,1445.72 1794.77,1445.72 1796.05,1445.72 
  1797.34,1445.72 1798.63,1445.72 1799.91,1445.72 1801.2,1445.72 1802.49,1445.72 1803.78,1445.72 1805.06,1445.72 1806.35,1445.72 1807.64,1445.72 1808.93,1445.72 
  1810.21,1445.72 1811.5,1445.72 1812.79,1445.72 1814.08,1445.72 1815.36,1445.72 1816.65,1445.72 1817.94,1445.72 1819.23,1445.72 1820.51,1445.72 1821.8,1445.72 
  1823.09,1445.72 1824.38,1445.72 1825.66,1445.72 1826.95,1445.72 1828.24,1445.72 1829.52,1445.72 1830.81,1445.72 1832.1,1445.72 1833.39,1445.72 1834.67,1445.72 
  1835.96,1445.72 1837.25,1445.72 1838.54,1445.72 1839.82,1445.72 1841.11,1445.72 1842.4,1445.72 1843.69,1445.72 1844.97,1445.72 1846.26,1445.72 1847.55,1445.72 
  1848.84,1445.72 1850.12,1445.72 1851.41,1445.72 1852.7,1445.72 1853.98,1445.72 1855.27,1445.72 1856.56,1445.72 1857.85,1445.72 1859.13,1445.72 1860.42,1445.72 
  1861.71,1445.72 1863,1445.72 1864.28,1445.72 1865.57,1445.72 1866.86,1445.72 1868.15,1445.72 1869.43,1445.72 1870.72,1445.72 1872.01,1445.72 1873.3,1445.72 
  1874.58,1445.72 1875.87,1445.72 1877.16,1445.72 1878.45,1445.72 1879.73,1445.72 1881.02,1445.72 1882.31,1445.72 1883.59,1445.72 1884.88,1445.72 1886.17,1445.72 
  1887.46,1445.72 1888.74,1445.72 1890.03,1445.72 1891.32,1445.72 1892.61,1445.72 1893.89,1445.72 1895.18,1445.72 1896.47,1445.72 1897.76,1445.72 1899.04,1445.72 
  1900.33,1445.72 1901.62,1445.72 1902.91,1445.72 1904.19,1445.72 1905.48,1445.72 1906.77,1445.72 1908.05,1445.72 1909.34,1445.72 1910.63,1445.72 1911.92,1445.72 
  1913.2,1445.72 1914.49,1445.72 1915.78,1445.72 1917.07,1445.72 1918.35,1445.72 1919.64,1445.72 1920.93,1445.72 1922.22,1445.72 1923.5,1445.72 1924.79,1445.72 
  1926.08,1445.72 1927.37,1445.72 1928.65,1445.72 1929.94,1445.72 1931.23,1445.72 1932.51,1445.72 1933.8,1445.72 1935.09,1445.72 1936.38,1445.72 1937.66,1445.72 
  1938.95,1445.72 1940.24,1445.72 1941.53,1445.72 1942.81,1445.72 1944.1,1445.72 1945.39,1445.72 1946.68,1445.72 1947.96,1445.72 1949.25,1445.72 1950.54,1445.72 
  1951.83,1445.72 1953.11,1445.72 1954.4,1445.72 1955.69,1445.72 1956.98,1445.72 1958.26,1445.72 1959.55,1445.72 1960.84,1445.72 1962.12,1445.72 1963.41,1445.72 
  1964.7,1445.72 1965.99,1445.72 1967.27,1445.72 1968.56,1445.72 1969.85,1445.72 1971.14,1445.72 1972.42,1445.72 1973.71,1445.72 1975,1445.72 1976.29,1445.72 
  1977.57,1445.72 1978.86,1445.72 1980.15,1445.72 1981.44,1445.72 1982.72,1445.72 1984.01,1445.72 1985.3,1445.72 1986.58,1445.72 1987.87,1445.72 1989.16,1445.72 
  1990.45,1445.72 1991.73,1445.72 1993.02,1445.72 1994.31,1445.72 1995.6,1445.72 1996.88,1445.72 1998.17,1445.72 1999.46,1445.72 2000.75,1445.72 2002.03,1445.72 
  2003.32,1445.72 2004.61,1445.72 2005.9,1445.72 2007.18,1445.72 2008.47,1445.72 2009.76,1445.72 2011.05,1445.72 2012.33,1445.72 2013.62,1445.72 2014.91,1445.72 
  2016.19,1445.72 2017.48,1445.72 2018.77,1445.72 2020.06,1445.72 2021.34,1445.72 2022.63,1445.72 2023.92,1445.72 2025.21,1445.72 2026.49,1445.72 2027.78,1445.72 
  2029.07,1445.72 2030.36,1445.72 2031.64,1445.72 2032.93,1445.72 2034.22,1445.72 2035.51,1445.72 2036.79,1445.72 2038.08,1445.72 2039.37,1445.72 2040.65,1445.72 
  2041.94,1445.72 2043.23,1445.72 2044.52,1445.72 2045.8,1445.72 2047.09,1445.72 2048.38,1445.72 2049.67,1445.72 2050.95,1445.72 2052.24,1445.72 2053.53,1445.72 
  2054.82,1445.72 2056.1,1445.72 2057.39,1445.72 2058.68,1445.72 2059.97,1445.72 2061.25,1445.72 2062.54,1445.72 2063.83,1445.72 2065.11,1445.72 2066.4,1445.72 
  2067.69,1445.72 2068.98,1445.72 2070.26,1445.72 2071.55,1445.72 2072.84,1445.72 2074.13,1445.72 2075.41,1445.72 2076.7,1445.72 2077.99,1445.72 2079.28,1445.72 
  2080.56,1445.72 2081.85,1445.72 2083.14,1445.72 2084.43,1445.72 2085.71,1445.72 2087,1445.72 2088.29,1445.72 2089.58,1445.72 2090.86,1445.72 2092.15,1445.72 
  2093.44,1445.72 2094.72,1445.72 2096.01,1445.72 2097.3,1445.72 2098.59,1445.72 2099.87,1445.72 2101.16,1445.72 2102.45,1445.72 2103.74,1445.72 2105.02,1445.72 
  2106.31,1445.72 2107.6,1445.72 2108.89,1445.72 
  "/>
<path clip-path="url(#clip752)" d="
M1784.47 1445.72 L1785.75 1445.72 L1787.04 1445.72 L1788.33 1445.72 L1789.62 1445.72 L1790.9 1445.72 L1792.19 1445.72 L1793.48 1445.72 L1794.77 1445.72 L1796.05 1445.72 
  L1797.34 1445.72 L1798.63 1445.72 L1799.91 1445.72 L1801.2 1445.72 L1802.49 1445.72 L1803.78 1445.72 L1805.06 1445.72 L1806.35 1445.72 L1807.64 1445.72 L1808.93 1445.72 
  L1810.21 1445.72 L1811.5 1445.72 L1812.79 1445.72 L1814.08 1445.72 L1815.36 1445.72 L1816.65 1445.72 L1817.94 1445.72 L1819.23 1445.72 L1820.51 1445.72 L1821.8 1445.72 
  L1823.09 1445.72 L1824.38 1445.72 L1825.66 1445.72 L1826.95 1445.72 L1828.24 1445.72 L1829.52 1445.72 L1830.81 1445.72 L1832.1 1445.72 L1833.39 1445.72 L1834.67 1445.72 
  L1835.96 1445.72 L1837.25 1445.72 L1838.54 1445.72 L1839.82 1445.72 L1841.11 1445.72 L1842.4 1445.72 L1843.69 1445.72 L1844.97 1445.72 L1846.26 1445.72 L1847.55 1445.72 
  L1848.84 1445.72 L1850.12 1445.72 L1851.41 1445.72 L1852.7 1445.72 L1853.98 1445.72 L1855.27 1445.72 L1856.56 1445.72 L1857.85 1445.72 L1859.13 1445.72 L1860.42 1445.72 
  L1861.71 1445.72 L1863 1445.72 L1864.28 1445.72 L1865.57 1445.72 L1866.86 1445.72 L1868.15 1445.72 L1869.43 1445.72 L1870.72 1445.72 L1872.01 1445.72 L1873.3 1445.72 
  L1874.58 1445.72 L1875.87 1445.72 L1877.16 1445.72 L1878.45 1445.72 L1879.73 1445.72 L1881.02 1445.72 L1882.31 1445.72 L1883.59 1445.72 L1884.88 1445.72 L1886.17 1445.72 
  L1887.46 1445.72 L1888.74 1445.72 L1890.03 1445.72 L1891.32 1445.72 L1892.61 1445.72 L1893.89 1445.72 L1895.18 1445.72 L1896.47 1445.72 L1897.76 1445.72 L1899.04 1445.72 
  L1900.33 1445.72 L1901.62 1445.72 L1902.91 1445.72 L1904.19 1445.72 L1905.48 1445.72 L1906.77 1445.72 L1908.05 1445.72 L1909.34 1445.72 L1910.63 1445.72 L1911.92 1445.72 
  L1913.2 1445.72 L1914.49 1445.72 L1915.78 1445.72 L1917.07 1445.72 L1918.35 1445.72 L1919.64 1445.72 L1920.93 1445.72 L1922.22 1445.72 L1923.5 1445.72 L1924.79 1445.72 
  L1926.08 1445.72 L1927.37 1445.72 L1928.65 1445.72 L1929.94 1445.72 L1931.23 1445.72 L1932.51 1445.72 L1933.8 1445.72 L1935.09 1445.72 L1936.38 1445.72 L1937.66 1445.72 
  L1938.95 1445.72 L1940.24 1445.72 L1941.53 1445.72 L1942.81 1445.72 L1944.1 1445.72 L1945.39 1445.72 L1946.68 1445.72 L1947.96 1445.72 L1949.25 1445.72 L1950.54 1445.72 
  L1951.83 1445.72 L1953.11 1445.72 L1954.4 1445.72 L1955.69 1445.72 L1956.98 1445.72 L1958.26 1445.72 L1959.55 1445.72 L1960.84 1445.72 L1962.12 1445.72 L1963.41 1445.72 
  L1964.7 1445.72 L1965.99 1445.72 L1967.27 1445.72 L1968.56 1445.72 L1969.85 1445.72 L1971.14 1445.72 L1972.42 1445.72 L1973.71 1445.72 L1975 1445.72 L1976.29 1445.72 
  L1977.57 1445.72 L1978.86 1445.72 L1980.15 1445.72 L1981.44 1445.72 L1982.72 1445.72 L1984.01 1445.72 L1985.3 1445.72 L1986.58 1445.72 L1987.87 1445.72 L1989.16 1445.72 
  L1990.45 1445.72 L1991.73 1445.72 L1993.02 1445.72 L1994.31 1445.72 L1995.6 1445.72 L1996.88 1445.72 L1998.17 1445.72 L1999.46 1445.72 L2000.75 1445.72 L2002.03 1445.72 
  L2003.32 1445.72 L2004.61 1445.72 L2005.9 1445.72 L2007.18 1445.72 L2008.47 1445.72 L2009.76 1445.72 L2011.05 1445.72 L2012.33 1445.72 L2013.62 1445.72 L2014.91 1445.72 
  L2016.19 1445.72 L2017.48 1445.72 L2018.77 1445.72 L2020.06 1445.72 L2021.34 1445.72 L2022.63 1445.72 L2023.92 1445.72 L2025.21 1445.72 L2026.49 1445.72 L2027.78 1445.72 
  L2029.07 1445.72 L2030.36 1445.72 L2031.64 1445.72 L2032.93 1445.72 L2034.22 1445.72 L2035.51 1445.72 L2036.79 1445.72 L2038.08 1445.72 L2039.37 1445.72 L2040.65 1445.72 
  L2041.94 1445.72 L2043.23 1445.72 L2044.52 1445.72 L2045.8 1445.72 L2047.09 1445.72 L2048.38 1445.72 L2049.67 1445.72 L2050.95 1445.72 L2052.24 1445.72 L2053.53 1445.72 
  L2054.82 1445.72 L2056.1 1445.72 L2057.39 1445.72 L2058.68 1445.72 L2059.97 1445.72 L2061.25 1445.72 L2062.54 1445.72 L2063.83 1445.72 L2065.11 1445.72 L2066.4 1445.72 
  L2067.69 1445.72 L2068.98 1445.72 L2070.26 1445.72 L2071.55 1445.72 L2072.84 1445.72 L2074.13 1445.72 L2075.41 1445.72 L2076.7 1445.72 L2077.99 1445.72 L2079.28 1445.72 
  L2080.56 1445.72 L2081.85 1445.72 L2083.14 1445.72 L2084.43 1445.72 L2085.71 1445.72 L2087 1445.72 L2088.29 1445.72 L2089.58 1445.72 L2090.86 1445.72 L2092.15 1445.72 
  L2093.44 1445.72 L2094.72 1445.72 L2096.01 1445.72 L2097.3 1445.72 L2098.59 1445.72 L2099.87 1445.72 L2101.16 1445.72 L2102.45 1445.72 L2103.74 1445.72 L2105.02 1445.72 
  L2106.31 1445.72 L2107.6 1445.72 L2108.89 1445.72 L2110.17 1445.72 L2111.46 1445.72 L2112.75 1445.72 L2114.04 1445.72 L2115.32 1445.72 L2116.61 1445.72 L2117.9 1445.72 
  L2119.18 1445.72 L2120.47 1445.72 L2121.76 1445.72 L2123.05 1445.72 L2124.33 1445.72 L2125.62 1445.72 L2126.91 1445.72 L2128.2 1445.72 L2129.48 1445.72 L2130.77 1445.72 
  L2132.06 1445.72 L2133.35 1445.72 L2134.63 1445.72 L2135.92 1445.72 L2137.21 1445.72 L2138.5 1445.72 L2139.78 1445.72 L2141.07 1445.72 L2142.36 1445.72 L2143.65 1445.72 
  L2144.93 1445.72 L2146.22 1445.72 L2147.51 1445.72 L2148.79 1445.72 L2150.08 1445.72 L2151.37 1445.72 L2152.66 1445.72 L2153.94 1445.72 L2155.23 1445.72 L2156.52 1445.72 
  L2157.81 1445.72 L2159.09 1445.72 L2160.38 1445.72 L2161.67 1445.72 L2162.96 1445.72 L2164.24 1445.72 L2165.53 1445.72 L2166.82 1445.72 L2168.11 1445.72 L2169.39 1445.72 
  L2170.68 1445.72 L2171.97 1445.72 L2173.25 1445.72 L2174.54 1445.72 L2175.83 1445.72 L2177.12 1445.72 L2178.4 1445.72 L2179.69 1445.72 L2180.98 1445.72 L2182.27 1445.72 
  L2183.55 1445.72 L2184.84 1445.72 L2186.13 1445.72 L2187.42 1445.72 L2188.7 1445.72 L2189.99 1445.72 L2191.28 1445.72 L2192.57 1445.72 L2193.85 1445.72 L2195.14 1445.72 
  L2196.43 1445.72 L2197.71 1445.72 L2199 1445.72 L2200.29 1445.72 L2201.58 1445.72 L2202.86 1445.72 L2204.15 1445.72 L2205.44 1445.72 L2206.73 1445.72 L2208.01 1445.72 
  L2209.3 1445.72 L2210.59 1445.72 L2211.88 1445.72 L2213.16 1445.72 L2214.45 1445.72 L2215.74 1445.72 L2217.03 1445.72 L2218.31 1445.72 L2219.6 1445.72 L2220.89 1445.72 
  L2222.18 1445.72 L2223.46 1445.72 L2224.75 1445.72 L2226.04 1445.72 L2227.32 1445.72 L2228.61 1445.72 L2229.9 1445.72 L2231.19 1445.72 L2232.47 1445.72 L2233.76 1445.72 
  L2235.05 1445.72 L2236.34 1445.72 L2237.62 1445.72 L2237.62 1442.85 L2236.34 1442.8 L2235.05 1442.75 L2233.76 1442.69 L2232.47 1442.64 L2231.19 1442.59 L2229.9 1442.53 
  L2228.61 1442.47 L2227.32 1442.42 L2226.04 1442.36 L2224.75 1442.3 L2223.46 1442.24 L2222.18 1442.18 L2220.89 1442.12 L2219.6 1442.06 L2218.31 1441.99 L2217.03 1441.93 
  L2215.74 1441.86 L2214.45 1441.8 L2213.16 1441.73 L2211.88 1441.66 L2210.59 1441.59 L2209.3 1441.52 L2208.01 1441.45 L2206.73 1441.38 L2205.44 1441.3 L2204.15 1441.23 
  L2202.86 1441.15 L2201.58 1441.07 L2200.29 1440.99 L2199 1440.91 L2197.71 1440.83 L2196.43 1440.75 L2195.14 1440.67 L2193.85 1440.58 L2192.57 1440.5 L2191.28 1440.41 
  L2189.99 1440.32 L2188.7 1440.23 L2187.42 1440.14 L2186.13 1440.04 L2184.84 1439.95 L2183.55 1439.85 L2182.27 1439.75 L2180.98 1439.66 L2179.69 1439.56 L2178.4 1439.45 
  L2177.12 1439.35 L2175.83 1439.25 L2174.54 1439.14 L2173.25 1439.03 L2171.97 1438.92 L2170.68 1438.81 L2169.39 1438.7 L2168.11 1438.58 L2166.82 1438.47 L2165.53 1438.35 
  L2164.24 1438.23 L2162.96 1438.11 L2161.67 1437.98 L2160.38 1437.86 L2159.09 1437.73 L2157.81 1437.6 L2156.52 1437.47 L2155.23 1437.34 L2153.94 1437.2 L2152.66 1437.07 
  L2151.37 1436.93 L2150.08 1436.79 L2148.79 1436.64 L2147.51 1436.5 L2146.22 1436.35 L2144.93 1436.2 L2143.65 1436.05 L2142.36 1435.9 L2141.07 1435.75 L2139.78 1435.59 
  L2138.5 1435.43 L2137.21 1435.27 L2135.92 1435.1 L2134.63 1434.94 L2133.35 1434.77 L2132.06 1434.6 L2130.77 1434.42 L2129.48 1434.25 L2128.2 1434.07 L2126.91 1433.89 
  L2125.62 1433.7 L2124.33 1433.52 L2123.05 1433.33 L2121.76 1433.14 L2120.47 1432.94 L2119.18 1432.75 L2117.9 1432.55 L2116.61 1432.35 L2115.32 1432.14 L2114.04 1431.94 
  L2112.75 1431.72 L2111.46 1431.51 L2110.17 1431.3 L2108.89 1431.08 L2107.6 1430.86 L2106.31 1430.63 L2105.02 1430.4 L2103.74 1430.17 L2102.45 1429.94 L2101.16 1429.7 
  L2099.87 1429.46 L2098.59 1429.22 L2097.3 1428.97 L2096.01 1428.72 L2094.72 1428.47 L2093.44 1428.21 L2092.15 1427.95 L2090.86 1427.69 L2089.58 1427.42 L2088.29 1427.15 
  L2087 1426.88 L2085.71 1426.6 L2084.43 1426.32 L2083.14 1426.03 L2081.85 1425.75 L2080.56 1425.45 L2079.28 1425.16 L2077.99 1424.86 L2076.7 1424.56 L2075.41 1424.25 
  L2074.13 1423.94 L2072.84 1423.62 L2071.55 1423.3 L2070.26 1422.98 L2068.98 1422.65 L2067.69 1422.32 L2066.4 1421.99 L2065.11 1421.65 L2063.83 1421.3 L2062.54 1420.96 
  L2061.25 1420.6 L2059.97 1420.25 L2058.68 1419.88 L2057.39 1419.52 L2056.1 1419.15 L2054.82 1418.77 L2053.53 1418.39 L2052.24 1418.01 L2050.95 1417.62 L2049.67 1417.23 
  L2048.38 1416.83 L2047.09 1416.43 L2045.8 1416.02 L2044.52 1415.6 L2043.23 1415.19 L2041.94 1414.76 L2040.65 1414.33 L2039.37 1413.9 L2038.08 1413.46 L2036.79 1413.02 
  L2035.51 1412.57 L2034.22 1412.12 L2032.93 1411.66 L2031.64 1411.19 L2030.36 1410.72 L2029.07 1410.24 L2027.78 1409.76 L2026.49 1409.28 L2025.21 1408.78 L2023.92 1408.28 
  L2022.63 1407.78 L2021.34 1407.27 L2020.06 1406.75 L2018.77 1406.23 L2017.48 1405.7 L2016.19 1405.17 L2014.91 1404.63 L2013.62 1404.08 L2012.33 1403.53 L2011.05 1402.97 
  L2009.76 1402.41 L2008.47 1401.83 L2007.18 1401.26 L2005.9 1400.67 L2004.61 1400.08 L2003.32 1399.48 L2002.03 1398.88 L2000.75 1398.27 L1999.46 1397.65 L1998.17 1397.02 
  L1996.88 1396.39 L1995.6 1395.75 L1994.31 1395.11 L1993.02 1394.46 L1991.73 1393.8 L1990.45 1393.13 L1989.16 1392.46 L1987.87 1391.77 L1986.58 1391.09 L1985.3 1390.39 
  L1984.01 1389.69 L1982.72 1388.97 L1981.44 1388.26 L1980.15 1387.53 L1978.86 1386.79 L1977.57 1386.05 L1976.29 1385.3 L1975 1384.55 L1973.71 1383.78 L1972.42 1383.01 
  L1971.14 1382.22 L1969.85 1381.44 L1968.56 1380.64 L1967.27 1379.83 L1965.99 1379.02 L1964.7 1378.19 L1963.41 1377.36 L1962.12 1376.52 L1960.84 1375.67 L1959.55 1374.82 
  L1958.26 1373.95 L1956.98 1373.08 L1955.69 1372.19 L1954.4 1371.3 L1953.11 1370.4 L1951.83 1369.49 L1950.54 1368.57 L1949.25 1367.64 L1947.96 1366.7 L1946.68 1365.76 
  L1945.39 1364.8 L1944.1 1363.84 L1942.81 1362.86 L1941.53 1361.88 L1940.24 1360.88 L1938.95 1359.88 L1937.66 1358.86 L1936.38 1357.84 L1935.09 1356.81 L1933.8 1355.77 
  L1932.51 1354.71 L1931.23 1353.65 L1929.94 1352.58 L1928.65 1351.49 L1927.37 1350.4 L1926.08 1349.3 L1924.79 1348.18 L1923.5 1347.06 L1922.22 1345.92 L1920.93 1344.78 
  L1919.64 1343.62 L1918.35 1342.45 L1917.07 1341.28 L1915.78 1340.09 L1914.49 1338.89 L1913.2 1337.68 L1911.92 1336.46 L1910.63 1335.23 L1909.34 1333.98 L1908.05 1332.73 
  L1906.77 1331.47 L1905.48 1330.19 L1904.19 1328.9 L1902.91 1327.6 L1901.62 1326.29 L1900.33 1324.97 L1899.04 1323.63 L1897.76 1322.29 L1896.47 1320.93 L1895.18 1319.56 
  L1893.89 1318.18 L1892.61 1316.79 L1891.32 1315.38 L1890.03 1313.97 L1888.74 1312.54 L1887.46 1311.1 L1886.17 1309.64 L1884.88 1308.18 L1883.59 1306.7 L1882.31 1305.21 
  L1881.02 1303.71 L1879.73 1302.19 L1878.45 1300.66 L1877.16 1299.12 L1875.87 1297.57 L1874.58 1296 L1873.3 1294.43 L1872.01 1292.84 L1870.72 1291.23 L1869.43 1289.61 
  L1868.15 1287.98 L1866.86 1286.34 L1865.57 1284.69 L1864.28 1283.02 L1863 1281.33 L1861.71 1279.64 L1860.42 1277.93 L1859.13 1276.21 L1857.85 1274.47 L1856.56 1272.72 
  L1855.27 1270.96 L1853.98 1269.18 L1852.7 1267.39 L1851.41 1265.59 L1850.12 1263.77 L1848.84 1261.94 L1847.55 1260.1 L1846.26 1258.24 L1844.97 1256.37 L1843.69 1254.48 
  L1842.4 1252.58 L1841.11 1250.67 L1839.82 1248.74 L1838.54 1246.79 L1837.25 1244.84 L1835.96 1242.87 L1834.67 1240.88 L1833.39 1238.88 L1832.1 1236.87 L1830.81 1234.84 
  L1829.52 1232.8 L1828.24 1230.74 L1826.95 1228.67 L1825.66 1226.59 L1824.38 1224.49 L1823.09 1222.37 L1821.8 1220.24 L1820.51 1218.1 L1819.23 1215.94 L1817.94 1213.77 
  L1816.65 1211.58 L1815.36 1209.38 L1814.08 1207.16 L1812.79 1204.93 L1811.5 1202.68 L1810.21 1200.42 L1808.93 1198.15 L1807.64 1195.85 L1806.35 1193.55 L1805.06 1191.23 
  L1803.78 1188.89 L1802.49 1186.54 L1801.2 1184.17 L1799.91 1181.79 L1798.63 1179.4 L1797.34 1176.99 L1796.05 1174.56 L1794.77 1172.12 L1793.48 1169.66 L1792.19 1167.19 
  L1790.9 1164.7 L1789.62 1162.2 L1788.33 1159.69 L1787.04 1157.15 L1785.75 1154.61 L1784.47 1152.05  Z
  " fill="#ff0000" fill-rule="evenodd" fill-opacity="0.3"/>
<polyline clip-path="url(#clip752)" style="stroke:#c271d2; stroke-linecap:round; stroke-linejoin:round; stroke-width:4; stroke-opacity:0.3; fill:none" points="
  1784.47,1445.72 1785.75,1445.72 1787.04,1445.72 1788.33,1445.72 1789.62,1445.72 1790.9,1445.72 1792.19,1445.72 1793.48,1445.72 1794.77,1445.72 1796.05,1445.72 
  1797.34,1445.72 1798.63,1445.72 1799.91,1445.72 1801.2,1445.72 1802.49,1445.72 1803.78,1445.72 1805.06,1445.72 1806.35,1445.72 1807.64,1445.72 1808.93,1445.72 
  1810.21,1445.72 1811.5,1445.72 1812.79,1445.72 1814.08,1445.72 1815.36,1445.72 1816.65,1445.72 1817.94,1445.72 1819.23,1445.72 1820.51,1445.72 1821.8,1445.72 
  1823.09,1445.72 1824.38,1445.72 1825.66,1445.72 1826.95,1445.72 1828.24,1445.72 1829.52,1445.72 1830.81,1445.72 1832.1,1445.72 1833.39,1445.72 1834.67,1445.72 
  1835.96,1445.72 1837.25,1445.72 1838.54,1445.72 1839.82,1445.72 1841.11,1445.72 1842.4,1445.72 1843.69,1445.72 1844.97,1445.72 1846.26,1445.72 1847.55,1445.72 
  1848.84,1445.72 1850.12,1445.72 1851.41,1445.72 1852.7,1445.72 1853.98,1445.72 1855.27,1445.72 1856.56,1445.72 1857.85,1445.72 1859.13,1445.72 1860.42,1445.72 
  1861.71,1445.72 1863,1445.72 1864.28,1445.72 1865.57,1445.72 1866.86,1445.72 1868.15,1445.72 1869.43,1445.72 1870.72,1445.72 1872.01,1445.72 1873.3,1445.72 
  1874.58,1445.72 1875.87,1445.72 1877.16,1445.72 1878.45,1445.72 1879.73,1445.72 1881.02,1445.72 1882.31,1445.72 1883.59,1445.72 1884.88,1445.72 1886.17,1445.72 
  1887.46,1445.72 1888.74,1445.72 1890.03,1445.72 1891.32,1445.72 1892.61,1445.72 1893.89,1445.72 1895.18,1445.72 1896.47,1445.72 1897.76,1445.72 1899.04,1445.72 
  1900.33,1445.72 1901.62,1445.72 1902.91,1445.72 1904.19,1445.72 1905.48,1445.72 1906.77,1445.72 1908.05,1445.72 1909.34,1445.72 1910.63,1445.72 1911.92,1445.72 
  1913.2,1445.72 1914.49,1445.72 1915.78,1445.72 1917.07,1445.72 1918.35,1445.72 1919.64,1445.72 1920.93,1445.72 1922.22,1445.72 1923.5,1445.72 1924.79,1445.72 
  1926.08,1445.72 1927.37,1445.72 1928.65,1445.72 1929.94,1445.72 1931.23,1445.72 1932.51,1445.72 1933.8,1445.72 1935.09,1445.72 1936.38,1445.72 1937.66,1445.72 
  1938.95,1445.72 1940.24,1445.72 1941.53,1445.72 1942.81,1445.72 1944.1,1445.72 1945.39,1445.72 1946.68,1445.72 1947.96,1445.72 1949.25,1445.72 1950.54,1445.72 
  1951.83,1445.72 1953.11,1445.72 1954.4,1445.72 1955.69,1445.72 1956.98,1445.72 1958.26,1445.72 1959.55,1445.72 1960.84,1445.72 1962.12,1445.72 1963.41,1445.72 
  1964.7,1445.72 1965.99,1445.72 1967.27,1445.72 1968.56,1445.72 1969.85,1445.72 1971.14,1445.72 1972.42,1445.72 1973.71,1445.72 1975,1445.72 1976.29,1445.72 
  1977.57,1445.72 1978.86,1445.72 1980.15,1445.72 1981.44,1445.72 1982.72,1445.72 1984.01,1445.72 1985.3,1445.72 1986.58,1445.72 1987.87,1445.72 1989.16,1445.72 
  1990.45,1445.72 1991.73,1445.72 1993.02,1445.72 1994.31,1445.72 1995.6,1445.72 1996.88,1445.72 1998.17,1445.72 1999.46,1445.72 2000.75,1445.72 2002.03,1445.72 
  2003.32,1445.72 2004.61,1445.72 2005.9,1445.72 2007.18,1445.72 2008.47,1445.72 2009.76,1445.72 2011.05,1445.72 2012.33,1445.72 2013.62,1445.72 2014.91,1445.72 
  2016.19,1445.72 2017.48,1445.72 2018.77,1445.72 2020.06,1445.72 2021.34,1445.72 2022.63,1445.72 2023.92,1445.72 2025.21,1445.72 2026.49,1445.72 2027.78,1445.72 
  2029.07,1445.72 2030.36,1445.72 2031.64,1445.72 2032.93,1445.72 2034.22,1445.72 2035.51,1445.72 2036.79,1445.72 2038.08,1445.72 2039.37,1445.72 2040.65,1445.72 
  2041.94,1445.72 2043.23,1445.72 2044.52,1445.72 2045.8,1445.72 2047.09,1445.72 2048.38,1445.72 2049.67,1445.72 2050.95,1445.72 2052.24,1445.72 2053.53,1445.72 
  2054.82,1445.72 2056.1,1445.72 2057.39,1445.72 2058.68,1445.72 2059.97,1445.72 2061.25,1445.72 2062.54,1445.72 2063.83,1445.72 2065.11,1445.72 2066.4,1445.72 
  2067.69,1445.72 2068.98,1445.72 2070.26,1445.72 2071.55,1445.72 2072.84,1445.72 2074.13,1445.72 2075.41,1445.72 2076.7,1445.72 2077.99,1445.72 2079.28,1445.72 
  2080.56,1445.72 2081.85,1445.72 2083.14,1445.72 2084.43,1445.72 2085.71,1445.72 2087,1445.72 2088.29,1445.72 2089.58,1445.72 2090.86,1445.72 2092.15,1445.72 
  2093.44,1445.72 2094.72,1445.72 2096.01,1445.72 2097.3,1445.72 2098.59,1445.72 2099.87,1445.72 2101.16,1445.72 2102.45,1445.72 2103.74,1445.72 2105.02,1445.72 
  2106.31,1445.72 2107.6,1445.72 2108.89,1445.72 2110.17,1445.72 2111.46,1445.72 2112.75,1445.72 2114.04,1445.72 2115.32,1445.72 2116.61,1445.72 2117.9,1445.72 
  2119.18,1445.72 2120.47,1445.72 2121.76,1445.72 2123.05,1445.72 2124.33,1445.72 2125.62,1445.72 2126.91,1445.72 2128.2,1445.72 2129.48,1445.72 2130.77,1445.72 
  2132.06,1445.72 2133.35,1445.72 2134.63,1445.72 2135.92,1445.72 2137.21,1445.72 2138.5,1445.72 2139.78,1445.72 2141.07,1445.72 2142.36,1445.72 2143.65,1445.72 
  2144.93,1445.72 2146.22,1445.72 2147.51,1445.72 2148.79,1445.72 2150.08,1445.72 2151.37,1445.72 2152.66,1445.72 2153.94,1445.72 2155.23,1445.72 2156.52,1445.72 
  2157.81,1445.72 2159.09,1445.72 2160.38,1445.72 2161.67,1445.72 2162.96,1445.72 2164.24,1445.72 2165.53,1445.72 2166.82,1445.72 2168.11,1445.72 2169.39,1445.72 
  2170.68,1445.72 2171.97,1445.72 2173.25,1445.72 2174.54,1445.72 2175.83,1445.72 2177.12,1445.72 2178.4,1445.72 2179.69,1445.72 2180.98,1445.72 2182.27,1445.72 
  2183.55,1445.72 2184.84,1445.72 2186.13,1445.72 2187.42,1445.72 2188.7,1445.72 2189.99,1445.72 2191.28,1445.72 2192.57,1445.72 2193.85,1445.72 2195.14,1445.72 
  2196.43,1445.72 2197.71,1445.72 2199,1445.72 2200.29,1445.72 2201.58,1445.72 2202.86,1445.72 2204.15,1445.72 2205.44,1445.72 2206.73,1445.72 2208.01,1445.72 
  2209.3,1445.72 2210.59,1445.72 2211.88,1445.72 2213.16,1445.72 2214.45,1445.72 2215.74,1445.72 2217.03,1445.72 2218.31,1445.72 2219.6,1445.72 2220.89,1445.72 
  2222.18,1445.72 2223.46,1445.72 2224.75,1445.72 2226.04,1445.72 2227.32,1445.72 2228.61,1445.72 2229.9,1445.72 2231.19,1445.72 2232.47,1445.72 2233.76,1445.72 
  2235.05,1445.72 2236.34,1445.72 2237.62,1445.72 
  "/>
<polyline clip-path="url(#clip752)" style="stroke:#0000ff; stroke-linecap:round; stroke-linejoin:round; stroke-width:4; stroke-opacity:1; fill:none" points="
  1784.47,2925.65 1784.47,-1391.96 
  "/>
<path clip-path="url(#clip750)" d="
M258.49 354.418 L1217.13 354.418 L1217.13 95.2176 L258.49 95.2176  Z
  " fill="#ffffff" fill-rule="evenodd" fill-opacity="1"/>
<polyline clip-path="url(#clip750)" style="stroke:#000000; stroke-linecap:round; stroke-linejoin:round; stroke-width:4; stroke-opacity:1; fill:none" points="
  258.49,354.418 1217.13,354.418 1217.13,95.2176 258.49,95.2176 258.49,354.418 
  "/>
<polyline clip-path="url(#clip750)" style="stroke:#000000; stroke-linecap:round; stroke-linejoin:round; stroke-width:4; stroke-opacity:1; fill:none" points="
  282.562,147.058 426.994,147.058 
  "/>
<path clip-path="url(#clip750)" d="M451.066 129.778 L472.918 129.778 L472.918 133.713 L455.742 133.713 L455.742 143.944 L472.2 143.944 L472.2 147.879 L455.742 147.879 L455.742 160.402 L473.335 160.402 L473.335 164.338 L451.066 164.338 L451.066 129.778 Z" fill="#000000" fill-rule="evenodd" fill-opacity="1" /><path clip-path="url(#clip750)" d="M502.385 138.412 L493.01 151.027 L502.872 164.338 L497.848 164.338 L490.302 154.152 L482.756 164.338 L477.733 164.338 L487.802 150.773 L478.589 138.412 L483.612 138.412 L490.487 147.648 L497.362 138.412 L502.385 138.412 Z" fill="#000000" fill-rule="evenodd" fill-opacity="1" /><path clip-path="url(#clip750)" d="M513.103 131.051 L513.103 138.412 L521.876 138.412 L521.876 141.722 L513.103 141.722 L513.103 155.796 Q513.103 158.967 513.959 159.87 Q514.839 160.773 517.501 160.773 L521.876 160.773 L521.876 164.338 L517.501 164.338 Q512.571 164.338 510.696 162.509 Q508.821 160.657 508.821 155.796 L508.821 141.722 L505.696 141.722 L505.696 138.412 L508.821 138.412 L508.821 131.051 L513.103 131.051 Z" fill="#000000" fill-rule="evenodd" fill-opacity="1" /><path clip-path="url(#clip750)" d="M542.501 142.393 Q541.783 141.977 540.927 141.791 Q540.094 141.583 539.075 141.583 Q535.464 141.583 533.519 143.944 Q531.598 146.282 531.598 150.68 L531.598 164.338 L527.316 164.338 L527.316 138.412 L531.598 138.412 L531.598 142.44 Q532.941 140.078 535.094 138.944 Q537.246 137.787 540.325 137.787 Q540.765 137.787 541.297 137.856 Q541.83 137.903 542.478 138.018 L542.501 142.393 Z" fill="#000000" fill-rule="evenodd" fill-opacity="1" /><path clip-path="url(#clip750)" d="M568.103 150.31 L568.103 152.393 L548.519 152.393 Q548.797 156.791 551.158 159.106 Q553.543 161.398 557.779 161.398 Q560.232 161.398 562.524 160.796 Q564.839 160.194 567.107 158.99 L567.107 163.018 Q564.816 163.99 562.408 164.5 Q560.001 165.009 557.524 165.009 Q551.32 165.009 547.686 161.398 Q544.075 157.787 544.075 151.629 Q544.075 145.264 547.501 141.537 Q550.95 137.787 556.783 137.787 Q562.015 137.787 565.047 141.166 Q568.103 144.523 568.103 150.31 M563.843 149.06 Q563.797 145.565 561.876 143.481 Q559.978 141.398 556.83 141.398 Q553.265 141.398 551.112 143.412 Q548.982 145.426 548.658 149.083 L563.843 149.06 Z" fill="#000000" fill-rule="evenodd" fill-opacity="1" /><path clip-path="url(#clip750)" d="M595.278 143.389 Q596.876 140.518 599.098 139.153 Q601.32 137.787 604.329 137.787 Q608.38 137.787 610.579 140.634 Q612.778 143.458 612.778 148.689 L612.778 164.338 L608.496 164.338 L608.496 148.828 Q608.496 145.102 607.177 143.296 Q605.857 141.49 603.149 141.49 Q599.839 141.49 597.917 143.69 Q595.996 145.889 595.996 149.685 L595.996 164.338 L591.714 164.338 L591.714 148.828 Q591.714 145.078 590.394 143.296 Q589.075 141.49 586.32 141.49 Q583.056 141.49 581.135 143.713 Q579.214 145.912 579.214 149.685 L579.214 164.338 L574.931 164.338 L574.931 138.412 L579.214 138.412 L579.214 142.44 Q580.672 140.055 582.709 138.921 Q584.746 137.787 587.547 137.787 Q590.371 137.787 592.339 139.222 Q594.329 140.657 595.278 143.389 Z" fill="#000000" fill-rule="evenodd" fill-opacity="1" /><path clip-path="url(#clip750)" d="M643.449 150.31 L643.449 152.393 L623.866 152.393 Q624.144 156.791 626.505 159.106 Q628.889 161.398 633.125 161.398 Q635.579 161.398 637.871 160.796 Q640.186 160.194 642.454 158.99 L642.454 163.018 Q640.162 163.99 637.755 164.5 Q635.348 165.009 632.871 165.009 Q626.667 165.009 623.033 161.398 Q619.422 157.787 619.422 151.629 Q619.422 145.264 622.848 141.537 Q626.297 137.787 632.13 137.787 Q637.362 137.787 640.394 141.166 Q643.449 144.523 643.449 150.31 M639.19 149.06 Q639.144 145.565 637.223 143.481 Q635.325 141.398 632.176 141.398 Q628.612 141.398 626.459 143.412 Q624.329 145.426 624.005 149.083 L639.19 149.06 Z" fill="#000000" fill-rule="evenodd" fill-opacity="1" /><path clip-path="url(#clip750)" d="M686.412 130.912 L686.412 135.472 Q683.75 134.199 681.389 133.574 Q679.028 132.949 676.829 132.949 Q673.009 132.949 670.926 134.43 Q668.866 135.912 668.866 138.643 Q668.866 140.935 670.232 142.115 Q671.621 143.273 675.463 143.99 L678.287 144.569 Q683.519 145.565 685.996 148.088 Q688.496 150.588 688.496 154.801 Q688.496 159.824 685.116 162.416 Q681.759 165.009 675.255 165.009 Q672.801 165.009 670.023 164.453 Q667.269 163.898 664.306 162.81 L664.306 157.995 Q667.153 159.592 669.885 160.402 Q672.616 161.213 675.255 161.213 Q679.259 161.213 681.435 159.639 Q683.611 158.064 683.611 155.148 Q683.611 152.602 682.037 151.166 Q680.486 149.731 676.922 149.014 L674.074 148.458 Q668.843 147.416 666.505 145.194 Q664.167 142.972 664.167 139.014 Q664.167 134.43 667.385 131.791 Q670.625 129.153 676.297 129.153 Q678.727 129.153 681.25 129.592 Q683.773 130.032 686.412 130.912 Z" fill="#000000" fill-rule="evenodd" fill-opacity="1" /><path clip-path="url(#clip750)" d="M717.778 150.31 L717.778 152.393 L698.195 152.393 Q698.472 156.791 700.833 159.106 Q703.218 161.398 707.454 161.398 Q709.907 161.398 712.199 160.796 Q714.514 160.194 716.782 158.99 L716.782 163.018 Q714.491 163.99 712.083 164.5 Q709.676 165.009 707.199 165.009 Q700.995 165.009 697.361 161.398 Q693.75 157.787 693.75 151.629 Q693.75 145.264 697.176 141.537 Q700.625 137.787 706.458 137.787 Q711.69 137.787 714.722 141.166 Q717.778 144.523 717.778 150.31 M713.519 149.06 Q713.472 145.565 711.551 143.481 Q709.653 141.398 706.505 141.398 Q702.94 141.398 700.787 143.412 Q698.658 145.426 698.333 149.083 L713.519 149.06 Z" fill="#000000" fill-rule="evenodd" fill-opacity="1" /><path clip-path="url(#clip750)" d="M736.551 151.305 Q731.389 151.305 729.398 152.486 Q727.407 153.666 727.407 156.514 Q727.407 158.782 728.889 160.125 Q730.393 161.444 732.963 161.444 Q736.505 161.444 738.634 158.944 Q740.787 156.421 740.787 152.254 L740.787 151.305 L736.551 151.305 M745.046 149.546 L745.046 164.338 L740.787 164.338 L740.787 160.402 Q739.329 162.763 737.153 163.898 Q734.977 165.009 731.829 165.009 Q727.847 165.009 725.486 162.787 Q723.148 160.541 723.148 156.791 Q723.148 152.416 726.065 150.194 Q729.005 147.972 734.815 147.972 L740.787 147.972 L740.787 147.555 Q740.787 144.615 738.842 143.018 Q736.921 141.398 733.426 141.398 Q731.204 141.398 729.097 141.93 Q726.991 142.463 725.046 143.527 L725.046 139.592 Q727.384 138.69 729.583 138.25 Q731.782 137.787 733.866 137.787 Q739.491 137.787 742.268 140.703 Q745.046 143.62 745.046 149.546 Z" fill="#000000" fill-rule="evenodd" fill-opacity="1" /><path clip-path="url(#clip750)" d="M769.074 129.778 L773.75 129.778 L773.75 160.402 L790.578 160.402 L790.578 164.338 L769.074 164.338 L769.074 129.778 Z" fill="#000000" fill-rule="evenodd" fill-opacity="1" /><path clip-path="url(#clip750)" d="M816.643 150.31 L816.643 152.393 L797.06 152.393 Q797.338 156.791 799.699 159.106 Q802.083 161.398 806.319 161.398 Q808.773 161.398 811.064 160.796 Q813.379 160.194 815.648 158.99 L815.648 163.018 Q813.356 163.99 810.949 164.5 Q808.541 165.009 806.064 165.009 Q799.861 165.009 796.226 161.398 Q792.615 157.787 792.615 151.629 Q792.615 145.264 796.041 141.537 Q799.49 137.787 805.324 137.787 Q810.555 137.787 813.587 141.166 Q816.643 144.523 816.643 150.31 M812.384 149.06 Q812.337 145.565 810.416 143.481 Q808.518 141.398 805.37 141.398 Q801.805 141.398 799.652 143.412 Q797.523 145.426 797.199 149.083 L812.384 149.06 Z" fill="#000000" fill-rule="evenodd" fill-opacity="1" /><path clip-path="url(#clip750)" d="M820.578 138.412 L825.092 138.412 L833.194 160.171 L841.296 138.412 L845.809 138.412 L836.087 164.338 L830.3 164.338 L820.578 138.412 Z" fill="#000000" fill-rule="evenodd" fill-opacity="1" /><path clip-path="url(#clip750)" d="M873.865 150.31 L873.865 152.393 L854.282 152.393 Q854.559 156.791 856.921 159.106 Q859.305 161.398 863.541 161.398 Q865.995 161.398 868.286 160.796 Q870.601 160.194 872.87 158.99 L872.87 163.018 Q870.578 163.99 868.17 164.5 Q865.763 165.009 863.286 165.009 Q857.083 165.009 853.448 161.398 Q849.837 157.787 849.837 151.629 Q849.837 145.264 853.263 141.537 Q856.712 137.787 862.546 137.787 Q867.777 137.787 870.809 141.166 Q873.865 144.523 873.865 150.31 M869.606 149.06 Q869.559 145.565 867.638 143.481 Q865.74 141.398 862.592 141.398 Q859.027 141.398 856.874 143.412 Q854.745 145.426 854.421 149.083 L869.606 149.06 Z" fill="#000000" fill-rule="evenodd" fill-opacity="1" /><path clip-path="url(#clip750)" d="M880.856 128.319 L885.115 128.319 L885.115 164.338 L880.856 164.338 L880.856 128.319 Z" fill="#000000" fill-rule="evenodd" fill-opacity="1" /><path clip-path="url(#clip750)" d="M906.203 129.778 L910.925 129.778 L918.193 158.99 L925.439 129.778 L930.693 129.778 L937.962 158.99 L945.207 129.778 L949.952 129.778 L941.272 164.338 L935.392 164.338 L928.101 134.338 L920.74 164.338 L914.86 164.338 L906.203 129.778 Z" fill="#000000" fill-rule="evenodd" fill-opacity="1" /><path clip-path="url(#clip750)" d="M954.929 138.412 L959.189 138.412 L959.189 164.338 L954.929 164.338 L954.929 138.412 M954.929 128.319 L959.189 128.319 L959.189 133.713 L954.929 133.713 L954.929 128.319 Z" fill="#000000" fill-rule="evenodd" fill-opacity="1" /><path clip-path="url(#clip750)" d="M972.313 131.051 L972.313 138.412 L981.087 138.412 L981.087 141.722 L972.313 141.722 L972.313 155.796 Q972.313 158.967 973.17 159.87 Q974.05 160.773 976.712 160.773 L981.087 160.773 L981.087 164.338 L976.712 164.338 Q971.781 164.338 969.906 162.509 Q968.031 160.657 968.031 155.796 L968.031 141.722 L964.906 141.722 L964.906 138.412 L968.031 138.412 L968.031 131.051 L972.313 131.051 Z" fill="#000000" fill-rule="evenodd" fill-opacity="1" /><path clip-path="url(#clip750)" d="M1008.24 148.689 L1008.24 164.338 L1003.98 164.338 L1003.98 148.828 Q1003.98 145.148 1002.54 143.319 Q1001.11 141.49 998.239 141.49 Q994.79 141.49 992.799 143.69 Q990.809 145.889 990.809 149.685 L990.809 164.338 L986.526 164.338 L986.526 128.319 L990.809 128.319 L990.809 142.44 Q992.336 140.102 994.397 138.944 Q996.48 137.787 999.188 137.787 Q1003.66 137.787 1005.95 140.565 Q1008.24 143.319 1008.24 148.689 Z" fill="#000000" fill-rule="evenodd" fill-opacity="1" /><path clip-path="url(#clip750)" d="M1026.78 141.398 Q1023.35 141.398 1021.36 144.083 Q1019.37 146.745 1019.37 151.398 Q1019.37 156.051 1021.34 158.736 Q1023.33 161.398 1026.78 161.398 Q1030.18 161.398 1032.17 158.713 Q1034.16 156.027 1034.16 151.398 Q1034.16 146.791 1032.17 144.106 Q1030.18 141.398 1026.78 141.398 M1026.78 137.787 Q1032.34 137.787 1035.51 141.398 Q1038.68 145.009 1038.68 151.398 Q1038.68 157.764 1035.51 161.398 Q1032.34 165.009 1026.78 165.009 Q1021.2 165.009 1018.03 161.398 Q1014.88 157.764 1014.88 151.398 Q1014.88 145.009 1018.03 141.398 Q1021.2 137.787 1026.78 137.787 Z" fill="#000000" fill-rule="evenodd" fill-opacity="1" /><path clip-path="url(#clip750)" d="M1045.3 154.106 L1045.3 138.412 L1049.56 138.412 L1049.56 153.944 Q1049.56 157.625 1050.99 159.476 Q1052.43 161.305 1055.3 161.305 Q1058.75 161.305 1060.74 159.106 Q1062.75 156.907 1062.75 153.111 L1062.75 138.412 L1067.01 138.412 L1067.01 164.338 L1062.75 164.338 L1062.75 160.356 Q1061.2 162.717 1059.14 163.875 Q1057.1 165.009 1054.4 165.009 Q1049.93 165.009 1047.61 162.231 Q1045.3 159.453 1045.3 154.106 M1056.02 137.787 L1056.02 137.787 Z" fill="#000000" fill-rule="evenodd" fill-opacity="1" /><path clip-path="url(#clip750)" d="M1080 131.051 L1080 138.412 L1088.77 138.412 L1088.77 141.722 L1080 141.722 L1080 155.796 Q1080 158.967 1080.85 159.87 Q1081.73 160.773 1084.4 160.773 L1088.77 160.773 L1088.77 164.338 L1084.4 164.338 Q1079.47 164.338 1077.59 162.509 Q1075.72 160.657 1075.72 155.796 L1075.72 141.722 L1072.59 141.722 L1072.59 138.412 L1075.72 138.412 L1075.72 131.051 L1080 131.051 Z" fill="#000000" fill-rule="evenodd" fill-opacity="1" /><path clip-path="url(#clip750)" d="M1130.35 130.912 L1130.35 135.472 Q1127.68 134.199 1125.32 133.574 Q1122.96 132.949 1120.76 132.949 Q1116.94 132.949 1114.86 134.43 Q1112.8 135.912 1112.8 138.643 Q1112.8 140.935 1114.16 142.115 Q1115.55 143.273 1119.4 143.99 L1122.22 144.569 Q1127.45 145.565 1129.93 148.088 Q1132.43 150.588 1132.43 154.801 Q1132.43 159.824 1129.05 162.416 Q1125.69 165.009 1119.19 165.009 Q1116.73 165.009 1113.96 164.453 Q1111.2 163.898 1108.24 162.81 L1108.24 157.995 Q1111.09 159.592 1113.82 160.402 Q1116.55 161.213 1119.19 161.213 Q1123.19 161.213 1125.37 159.639 Q1127.54 158.064 1127.54 155.148 Q1127.54 152.602 1125.97 151.166 Q1124.42 149.731 1120.85 149.014 L1118.01 148.458 Q1112.78 147.416 1110.44 145.194 Q1108.1 142.972 1108.1 139.014 Q1108.1 134.43 1111.32 131.791 Q1114.56 129.153 1120.23 129.153 Q1122.66 129.153 1125.18 129.592 Q1127.71 130.032 1130.35 130.912 Z" fill="#000000" fill-rule="evenodd" fill-opacity="1" /><path clip-path="url(#clip750)" d="M1139.72 129.778 L1144.4 129.778 L1144.4 160.402 L1161.22 160.402 L1161.22 164.338 L1139.72 164.338 L1139.72 129.778 Z" fill="#000000" fill-rule="evenodd" fill-opacity="1" /><path clip-path="url(#clip750)" d="M1182.52 148.134 Q1184.03 148.643 1185.44 150.31 Q1186.87 151.977 1188.31 154.893 L1193.05 164.338 L1188.03 164.338 L1183.61 155.472 Q1181.9 152 1180.28 150.865 Q1178.68 149.731 1175.9 149.731 L1170.81 149.731 L1170.81 164.338 L1166.13 164.338 L1166.13 129.778 L1176.69 129.778 Q1182.61 129.778 1185.53 132.254 Q1188.45 134.731 1188.45 139.731 Q1188.45 142.995 1186.92 145.148 Q1185.41 147.301 1182.52 148.134 M1170.81 133.62 L1170.81 145.889 L1176.69 145.889 Q1180.07 145.889 1181.78 144.338 Q1183.52 142.764 1183.52 139.731 Q1183.52 136.699 1181.78 135.171 Q1180.07 133.62 1176.69 133.62 L1170.81 133.62 Z" fill="#000000" fill-rule="evenodd" fill-opacity="1" /><polyline clip-path="url(#clip750)" style="stroke:#ff0000; stroke-linecap:round; stroke-linejoin:round; stroke-width:4; stroke-opacity:1; fill:none" points="
  282.562,198.898 426.994,198.898 
  "/>
<path clip-path="url(#clip750)" d="M451.066 181.618 L472.918 181.618 L472.918 185.553 L455.742 185.553 L455.742 195.784 L472.2 195.784 L472.2 199.719 L455.742 199.719 L455.742 212.242 L473.335 212.242 L473.335 216.178 L451.066 216.178 L451.066 181.618 Z" fill="#000000" fill-rule="evenodd" fill-opacity="1" /><path clip-path="url(#clip750)" d="M502.385 190.252 L493.01 202.867 L502.872 216.178 L497.848 216.178 L490.302 205.992 L482.756 216.178 L477.733 216.178 L487.802 202.613 L478.589 190.252 L483.612 190.252 L490.487 199.488 L497.362 190.252 L502.385 190.252 Z" fill="#000000" fill-rule="evenodd" fill-opacity="1" /><path clip-path="url(#clip750)" d="M513.103 182.891 L513.103 190.252 L521.876 190.252 L521.876 193.562 L513.103 193.562 L513.103 207.636 Q513.103 210.807 513.959 211.71 Q514.839 212.613 517.501 212.613 L521.876 212.613 L521.876 216.178 L517.501 216.178 Q512.571 216.178 510.696 214.349 Q508.821 212.497 508.821 207.636 L508.821 193.562 L505.696 193.562 L505.696 190.252 L508.821 190.252 L508.821 182.891 L513.103 182.891 Z" fill="#000000" fill-rule="evenodd" fill-opacity="1" /><path clip-path="url(#clip750)" d="M542.501 194.233 Q541.783 193.817 540.927 193.631 Q540.094 193.423 539.075 193.423 Q535.464 193.423 533.519 195.784 Q531.598 198.122 531.598 202.52 L531.598 216.178 L527.316 216.178 L527.316 190.252 L531.598 190.252 L531.598 194.28 Q532.941 191.918 535.094 190.784 Q537.246 189.627 540.325 189.627 Q540.765 189.627 541.297 189.696 Q541.83 189.743 542.478 189.858 L542.501 194.233 Z" fill="#000000" fill-rule="evenodd" fill-opacity="1" /><path clip-path="url(#clip750)" d="M568.103 202.15 L568.103 204.233 L548.519 204.233 Q548.797 208.631 551.158 210.946 Q553.543 213.238 557.779 213.238 Q560.232 213.238 562.524 212.636 Q564.839 212.034 567.107 210.83 L567.107 214.858 Q564.816 215.83 562.408 216.34 Q560.001 216.849 557.524 216.849 Q551.32 216.849 547.686 213.238 Q544.075 209.627 544.075 203.469 Q544.075 197.104 547.501 193.377 Q550.95 189.627 556.783 189.627 Q562.015 189.627 565.047 193.006 Q568.103 196.363 568.103 202.15 M563.843 200.9 Q563.797 197.405 561.876 195.321 Q559.978 193.238 556.83 193.238 Q553.265 193.238 551.112 195.252 Q548.982 197.266 548.658 200.923 L563.843 200.9 Z" fill="#000000" fill-rule="evenodd" fill-opacity="1" /><path clip-path="url(#clip750)" d="M595.278 195.229 Q596.876 192.358 599.098 190.993 Q601.32 189.627 604.329 189.627 Q608.38 189.627 610.579 192.474 Q612.778 195.298 612.778 200.529 L612.778 216.178 L608.496 216.178 L608.496 200.668 Q608.496 196.942 607.177 195.136 Q605.857 193.33 603.149 193.33 Q599.839 193.33 597.917 195.53 Q595.996 197.729 595.996 201.525 L595.996 216.178 L591.714 216.178 L591.714 200.668 Q591.714 196.918 590.394 195.136 Q589.075 193.33 586.32 193.33 Q583.056 193.33 581.135 195.553 Q579.214 197.752 579.214 201.525 L579.214 216.178 L574.931 216.178 L574.931 190.252 L579.214 190.252 L579.214 194.28 Q580.672 191.895 582.709 190.761 Q584.746 189.627 587.547 189.627 Q590.371 189.627 592.339 191.062 Q594.329 192.497 595.278 195.229 Z" fill="#000000" fill-rule="evenodd" fill-opacity="1" /><path clip-path="url(#clip750)" d="M643.449 202.15 L643.449 204.233 L623.866 204.233 Q624.144 208.631 626.505 210.946 Q628.889 213.238 633.125 213.238 Q635.579 213.238 637.871 212.636 Q640.186 212.034 642.454 210.83 L642.454 214.858 Q640.162 215.83 637.755 216.34 Q635.348 216.849 632.871 216.849 Q626.667 216.849 623.033 213.238 Q619.422 209.627 619.422 203.469 Q619.422 197.104 622.848 193.377 Q626.297 189.627 632.13 189.627 Q637.362 189.627 640.394 193.006 Q643.449 196.363 643.449 202.15 M639.19 200.9 Q639.144 197.405 637.223 195.321 Q635.325 193.238 632.176 193.238 Q628.612 193.238 626.459 195.252 Q624.329 197.266 624.005 200.923 L639.19 200.9 Z" fill="#000000" fill-rule="evenodd" fill-opacity="1" /><path clip-path="url(#clip750)" d="M686.412 182.752 L686.412 187.312 Q683.75 186.039 681.389 185.414 Q679.028 184.789 676.829 184.789 Q673.009 184.789 670.926 186.27 Q668.866 187.752 668.866 190.483 Q668.866 192.775 670.232 193.955 Q671.621 195.113 675.463 195.83 L678.287 196.409 Q683.519 197.405 685.996 199.928 Q688.496 202.428 688.496 206.641 Q688.496 211.664 685.116 214.256 Q681.759 216.849 675.255 216.849 Q672.801 216.849 670.023 216.293 Q667.269 215.738 664.306 214.65 L664.306 209.835 Q667.153 211.432 669.885 212.242 Q672.616 213.053 675.255 213.053 Q679.259 213.053 681.435 211.479 Q683.611 209.904 683.611 206.988 Q683.611 204.442 682.037 203.006 Q680.486 201.571 676.922 200.854 L674.074 200.298 Q668.843 199.256 666.505 197.034 Q664.167 194.812 664.167 190.854 Q664.167 186.27 667.385 183.631 Q670.625 180.993 676.297 180.993 Q678.727 180.993 681.25 181.432 Q683.773 181.872 686.412 182.752 Z" fill="#000000" fill-rule="evenodd" fill-opacity="1" /><path clip-path="url(#clip750)" d="M717.778 202.15 L717.778 204.233 L698.195 204.233 Q698.472 208.631 700.833 210.946 Q703.218 213.238 707.454 213.238 Q709.907 213.238 712.199 212.636 Q714.514 212.034 716.782 210.83 L716.782 214.858 Q714.491 215.83 712.083 216.34 Q709.676 216.849 707.199 216.849 Q700.995 216.849 697.361 213.238 Q693.75 209.627 693.75 203.469 Q693.75 197.104 697.176 193.377 Q700.625 189.627 706.458 189.627 Q711.69 189.627 714.722 193.006 Q717.778 196.363 717.778 202.15 M713.519 200.9 Q713.472 197.405 711.551 195.321 Q709.653 193.238 706.505 193.238 Q702.94 193.238 700.787 195.252 Q698.658 197.266 698.333 200.923 L713.519 200.9 Z" fill="#000000" fill-rule="evenodd" fill-opacity="1" /><path clip-path="url(#clip750)" d="M736.551 203.145 Q731.389 203.145 729.398 204.326 Q727.407 205.506 727.407 208.354 Q727.407 210.622 728.889 211.965 Q730.393 213.284 732.963 213.284 Q736.505 213.284 738.634 210.784 Q740.787 208.261 740.787 204.094 L740.787 203.145 L736.551 203.145 M745.046 201.386 L745.046 216.178 L740.787 216.178 L740.787 212.242 Q739.329 214.603 737.153 215.738 Q734.977 216.849 731.829 216.849 Q727.847 216.849 725.486 214.627 Q723.148 212.381 723.148 208.631 Q723.148 204.256 726.065 202.034 Q729.005 199.812 734.815 199.812 L740.787 199.812 L740.787 199.395 Q740.787 196.455 738.842 194.858 Q736.921 193.238 733.426 193.238 Q731.204 193.238 729.097 193.77 Q726.991 194.303 725.046 195.367 L725.046 191.432 Q727.384 190.53 729.583 190.09 Q731.782 189.627 733.866 189.627 Q739.491 189.627 742.268 192.543 Q745.046 195.46 745.046 201.386 Z" fill="#000000" fill-rule="evenodd" fill-opacity="1" /><path clip-path="url(#clip750)" d="M769.074 181.618 L773.75 181.618 L773.75 212.242 L790.578 212.242 L790.578 216.178 L769.074 216.178 L769.074 181.618 Z" fill="#000000" fill-rule="evenodd" fill-opacity="1" /><path clip-path="url(#clip750)" d="M816.643 202.15 L816.643 204.233 L797.06 204.233 Q797.338 208.631 799.699 210.946 Q802.083 213.238 806.319 213.238 Q808.773 213.238 811.064 212.636 Q813.379 212.034 815.648 210.83 L815.648 214.858 Q813.356 215.83 810.949 216.34 Q808.541 216.849 806.064 216.849 Q799.861 216.849 796.226 213.238 Q792.615 209.627 792.615 203.469 Q792.615 197.104 796.041 193.377 Q799.49 189.627 805.324 189.627 Q810.555 189.627 813.587 193.006 Q816.643 196.363 816.643 202.15 M812.384 200.9 Q812.337 197.405 810.416 195.321 Q808.518 193.238 805.37 193.238 Q801.805 193.238 799.652 195.252 Q797.523 197.266 797.199 200.923 L812.384 200.9 Z" fill="#000000" fill-rule="evenodd" fill-opacity="1" /><path clip-path="url(#clip750)" d="M820.578 190.252 L825.092 190.252 L833.194 212.011 L841.296 190.252 L845.809 190.252 L836.087 216.178 L830.3 216.178 L820.578 190.252 Z" fill="#000000" fill-rule="evenodd" fill-opacity="1" /><path clip-path="url(#clip750)" d="M873.865 202.15 L873.865 204.233 L854.282 204.233 Q854.559 208.631 856.921 210.946 Q859.305 213.238 863.541 213.238 Q865.995 213.238 868.286 212.636 Q870.601 212.034 872.87 210.83 L872.87 214.858 Q870.578 215.83 868.17 216.34 Q865.763 216.849 863.286 216.849 Q857.083 216.849 853.448 213.238 Q849.837 209.627 849.837 203.469 Q849.837 197.104 853.263 193.377 Q856.712 189.627 862.546 189.627 Q867.777 189.627 870.809 193.006 Q873.865 196.363 873.865 202.15 M869.606 200.9 Q869.559 197.405 867.638 195.321 Q865.74 193.238 862.592 193.238 Q859.027 193.238 856.874 195.252 Q854.745 197.266 854.421 200.923 L869.606 200.9 Z" fill="#000000" fill-rule="evenodd" fill-opacity="1" /><path clip-path="url(#clip750)" d="M880.856 180.159 L885.115 180.159 L885.115 216.178 L880.856 216.178 L880.856 180.159 Z" fill="#000000" fill-rule="evenodd" fill-opacity="1" /><path clip-path="url(#clip750)" d="M910.555 191.016 L910.555 195.043 Q908.749 194.117 906.805 193.655 Q904.86 193.192 902.777 193.192 Q899.605 193.192 898.008 194.164 Q896.434 195.136 896.434 197.08 Q896.434 198.562 897.568 199.418 Q898.703 200.252 902.129 201.016 L903.587 201.34 Q908.124 202.312 910.022 204.094 Q911.943 205.854 911.943 209.025 Q911.943 212.636 909.073 214.742 Q906.226 216.849 901.226 216.849 Q899.143 216.849 896.874 216.432 Q894.629 216.039 892.129 215.228 L892.129 210.83 Q894.49 212.057 896.781 212.682 Q899.073 213.284 901.318 213.284 Q904.328 213.284 905.948 212.266 Q907.568 211.224 907.568 209.349 Q907.568 207.613 906.388 206.687 Q905.23 205.761 901.272 204.904 L899.791 204.557 Q895.832 203.724 894.073 202.011 Q892.314 200.275 892.314 197.266 Q892.314 193.608 894.906 191.618 Q897.499 189.627 902.268 189.627 Q904.629 189.627 906.712 189.974 Q908.795 190.321 910.555 191.016 Z" fill="#000000" fill-rule="evenodd" fill-opacity="1" /><path clip-path="url(#clip750)" d="M930.902 181.618 L935.624 181.618 L942.892 210.83 L950.138 181.618 L955.392 181.618 L962.661 210.83 L969.906 181.618 L974.651 181.618 L965.971 216.178 L960.091 216.178 L952.8 186.178 L945.439 216.178 L939.559 216.178 L930.902 181.618 Z" fill="#000000" fill-rule="evenodd" fill-opacity="1" /><path clip-path="url(#clip750)" d="M979.628 190.252 L983.887 190.252 L983.887 216.178 L979.628 216.178 L979.628 190.252 M979.628 180.159 L983.887 180.159 L983.887 185.553 L979.628 185.553 L979.628 180.159 Z" fill="#000000" fill-rule="evenodd" fill-opacity="1" /><path clip-path="url(#clip750)" d="M997.012 182.891 L997.012 190.252 L1005.79 190.252 L1005.79 193.562 L997.012 193.562 L997.012 207.636 Q997.012 210.807 997.869 211.71 Q998.748 212.613 1001.41 212.613 L1005.79 212.613 L1005.79 216.178 L1001.41 216.178 Q996.48 216.178 994.605 214.349 Q992.73 212.497 992.73 207.636 L992.73 193.562 L989.605 193.562 L989.605 190.252 L992.73 190.252 L992.73 182.891 L997.012 182.891 Z" fill="#000000" fill-rule="evenodd" fill-opacity="1" /><path clip-path="url(#clip750)" d="M1032.94 200.529 L1032.94 216.178 L1028.68 216.178 L1028.68 200.668 Q1028.68 196.988 1027.24 195.159 Q1025.81 193.33 1022.94 193.33 Q1019.49 193.33 1017.5 195.53 Q1015.51 197.729 1015.51 201.525 L1015.51 216.178 L1011.23 216.178 L1011.23 180.159 L1015.51 180.159 L1015.51 194.28 Q1017.04 191.942 1019.1 190.784 Q1021.18 189.627 1023.89 189.627 Q1028.35 189.627 1030.65 192.405 Q1032.94 195.159 1032.94 200.529 Z" fill="#000000" fill-rule="evenodd" fill-opacity="1" /><path clip-path="url(#clip750)" d="M1077.41 182.752 L1077.41 187.312 Q1074.74 186.039 1072.38 185.414 Q1070.02 184.789 1067.82 184.789 Q1064 184.789 1061.92 186.27 Q1059.86 187.752 1059.86 190.483 Q1059.86 192.775 1061.23 193.955 Q1062.61 195.113 1066.46 195.83 L1069.28 196.409 Q1074.51 197.405 1076.99 199.928 Q1079.49 202.428 1079.49 206.641 Q1079.49 211.664 1076.11 214.256 Q1072.75 216.849 1066.25 216.849 Q1063.79 216.849 1061.02 216.293 Q1058.26 215.738 1055.3 214.65 L1055.3 209.835 Q1058.15 211.432 1060.88 212.242 Q1063.61 213.053 1066.25 213.053 Q1070.25 213.053 1072.43 211.479 Q1074.6 209.904 1074.6 206.988 Q1074.6 204.442 1073.03 203.006 Q1071.48 201.571 1067.91 200.854 L1065.07 200.298 Q1059.84 199.256 1057.5 197.034 Q1055.16 194.812 1055.16 190.854 Q1055.16 186.27 1058.38 183.631 Q1061.62 180.993 1067.29 180.993 Q1069.72 180.993 1072.24 181.432 Q1074.77 181.872 1077.41 182.752 Z" fill="#000000" fill-rule="evenodd" fill-opacity="1" /><path clip-path="url(#clip750)" d="M1086.78 181.618 L1091.46 181.618 L1091.46 212.242 L1108.28 212.242 L1108.28 216.178 L1086.78 216.178 L1086.78 181.618 Z" fill="#000000" fill-rule="evenodd" fill-opacity="1" /><path clip-path="url(#clip750)" d="M1129.58 199.974 Q1131.09 200.483 1132.5 202.15 Q1133.93 203.817 1135.37 206.733 L1140.11 216.178 L1135.09 216.178 L1130.67 207.312 Q1128.96 203.84 1127.34 202.705 Q1125.74 201.571 1122.96 201.571 L1117.87 201.571 L1117.87 216.178 L1113.19 216.178 L1113.19 181.618 L1123.75 181.618 Q1129.67 181.618 1132.59 184.094 Q1135.51 186.571 1135.51 191.571 Q1135.51 194.835 1133.98 196.988 Q1132.47 199.141 1129.58 199.974 M1117.87 185.46 L1117.87 197.729 L1123.75 197.729 Q1127.13 197.729 1128.84 196.178 Q1130.58 194.604 1130.58 191.571 Q1130.58 188.539 1128.84 187.011 Q1127.13 185.46 1123.75 185.46 L1117.87 185.46 Z" fill="#000000" fill-rule="evenodd" fill-opacity="1" /><path clip-path="url(#clip750)" d="
M282.562 271.474 L426.994 271.474 L426.994 230.002 L282.562 230.002 L282.562 271.474  Z
  " fill="#000000" fill-rule="evenodd" fill-opacity="0.3"/>
<polyline clip-path="url(#clip750)" style="stroke:#3da44d; stroke-linecap:round; stroke-linejoin:round; stroke-width:4; stroke-opacity:0.3; fill:none" points="
  282.562,230.002 426.994,230.002 
  "/>
<path clip-path="url(#clip750)" d="M451.066 233.458 L472.918 233.458 L472.918 237.393 L455.742 237.393 L455.742 247.624 L472.2 247.624 L472.2 251.559 L455.742 251.559 L455.742 264.082 L473.335 264.082 L473.335 268.018 L451.066 268.018 L451.066 233.458 Z" fill="#000000" fill-rule="evenodd" fill-opacity="1" /><path clip-path="url(#clip750)" d="M502.385 242.092 L493.01 254.707 L502.872 268.018 L497.848 268.018 L490.302 257.832 L482.756 268.018 L477.733 268.018 L487.802 254.453 L478.589 242.092 L483.612 242.092 L490.487 251.328 L497.362 242.092 L502.385 242.092 Z" fill="#000000" fill-rule="evenodd" fill-opacity="1" /><path clip-path="url(#clip750)" d="M526.714 243.087 L526.714 247.069 Q524.908 246.073 523.08 245.587 Q521.274 245.078 519.422 245.078 Q515.279 245.078 512.987 247.717 Q510.696 250.332 510.696 255.078 Q510.696 259.823 512.987 262.462 Q515.279 265.078 519.422 265.078 Q521.274 265.078 523.08 264.592 Q524.908 264.082 526.714 263.087 L526.714 267.022 Q524.932 267.856 523.01 268.272 Q521.112 268.689 518.959 268.689 Q513.103 268.689 509.654 265.008 Q506.205 261.328 506.205 255.078 Q506.205 248.735 509.677 245.101 Q513.172 241.467 519.237 241.467 Q521.205 241.467 523.08 241.883 Q524.955 242.277 526.714 243.087 Z" fill="#000000" fill-rule="evenodd" fill-opacity="1" /><path clip-path="url(#clip750)" d="M556.297 253.99 L556.297 256.073 L536.714 256.073 Q536.992 260.471 539.353 262.786 Q541.737 265.078 545.973 265.078 Q548.427 265.078 550.718 264.476 Q553.033 263.874 555.302 262.67 L555.302 266.698 Q553.01 267.67 550.603 268.18 Q548.195 268.689 545.719 268.689 Q539.515 268.689 535.881 265.078 Q532.27 261.467 532.27 255.309 Q532.27 248.944 535.695 245.217 Q539.144 241.467 544.978 241.467 Q550.209 241.467 553.242 244.846 Q556.297 248.203 556.297 253.99 M552.038 252.74 Q551.992 249.245 550.07 247.161 Q548.172 245.078 545.024 245.078 Q541.459 245.078 539.307 247.092 Q537.177 249.106 536.853 252.763 L552.038 252.74 Z" fill="#000000" fill-rule="evenodd" fill-opacity="1" /><path clip-path="url(#clip750)" d="M585.464 253.99 L585.464 256.073 L565.88 256.073 Q566.158 260.471 568.519 262.786 Q570.904 265.078 575.14 265.078 Q577.593 265.078 579.885 264.476 Q582.2 263.874 584.468 262.67 L584.468 266.698 Q582.177 267.67 579.769 268.18 Q577.362 268.689 574.885 268.689 Q568.681 268.689 565.047 265.078 Q561.436 261.467 561.436 255.309 Q561.436 248.944 564.862 245.217 Q568.311 241.467 574.144 241.467 Q579.376 241.467 582.408 244.846 Q585.464 248.203 585.464 253.99 M581.204 252.74 Q581.158 249.245 579.237 247.161 Q577.339 245.078 574.191 245.078 Q570.626 245.078 568.473 247.092 Q566.343 249.106 566.019 252.763 L581.204 252.74 Z" fill="#000000" fill-rule="evenodd" fill-opacity="1" /><path clip-path="url(#clip750)" d="M609.514 246.027 L609.514 231.999 L613.774 231.999 L613.774 268.018 L609.514 268.018 L609.514 264.129 Q608.172 266.443 606.112 267.578 Q604.075 268.689 601.204 268.689 Q596.505 268.689 593.542 264.939 Q590.603 261.189 590.603 255.078 Q590.603 248.967 593.542 245.217 Q596.505 241.467 601.204 241.467 Q604.075 241.467 606.112 242.601 Q608.172 243.712 609.514 246.027 M595.001 255.078 Q595.001 259.777 596.922 262.462 Q598.866 265.124 602.246 265.124 Q605.626 265.124 607.57 262.462 Q609.514 259.777 609.514 255.078 Q609.514 250.379 607.57 247.717 Q605.626 245.032 602.246 245.032 Q598.866 245.032 596.922 247.717 Q595.001 250.379 595.001 255.078 Z" fill="#000000" fill-rule="evenodd" fill-opacity="1" /><path clip-path="url(#clip750)" d="M634.329 254.985 Q629.167 254.985 627.176 256.166 Q625.186 257.346 625.186 260.194 Q625.186 262.462 626.667 263.805 Q628.172 265.124 630.741 265.124 Q634.283 265.124 636.412 262.624 Q638.565 260.101 638.565 255.934 L638.565 254.985 L634.329 254.985 M642.824 253.226 L642.824 268.018 L638.565 268.018 L638.565 264.082 Q637.107 266.443 634.931 267.578 Q632.755 268.689 629.607 268.689 Q625.625 268.689 623.264 266.467 Q620.926 264.221 620.926 260.471 Q620.926 256.096 623.843 253.874 Q626.783 251.652 632.593 251.652 L638.565 251.652 L638.565 251.235 Q638.565 248.295 636.621 246.698 Q634.7 245.078 631.204 245.078 Q628.982 245.078 626.875 245.61 Q624.769 246.143 622.825 247.207 L622.825 243.272 Q625.163 242.37 627.362 241.93 Q629.561 241.467 631.644 241.467 Q637.269 241.467 640.047 244.383 Q642.824 247.3 642.824 253.226 Z" fill="#000000" fill-rule="evenodd" fill-opacity="1" /><path clip-path="url(#clip750)" d="M673.148 252.369 L673.148 268.018 L668.889 268.018 L668.889 252.508 Q668.889 248.828 667.454 246.999 Q666.019 245.17 663.148 245.17 Q659.699 245.17 657.709 247.37 Q655.718 249.569 655.718 253.365 L655.718 268.018 L651.436 268.018 L651.436 242.092 L655.718 242.092 L655.718 246.12 Q657.246 243.782 659.306 242.624 Q661.389 241.467 664.098 241.467 Q668.565 241.467 670.857 244.245 Q673.148 246.999 673.148 252.369 Z" fill="#000000" fill-rule="evenodd" fill-opacity="1" /><path clip-path="url(#clip750)" d="M700.301 243.087 L700.301 247.069 Q698.495 246.073 696.667 245.587 Q694.861 245.078 693.009 245.078 Q688.866 245.078 686.574 247.717 Q684.283 250.332 684.283 255.078 Q684.283 259.823 686.574 262.462 Q688.866 265.078 693.009 265.078 Q694.861 265.078 696.667 264.592 Q698.495 264.082 700.301 263.087 L700.301 267.022 Q698.519 267.856 696.597 268.272 Q694.699 268.689 692.546 268.689 Q686.69 268.689 683.241 265.008 Q679.792 261.328 679.792 255.078 Q679.792 248.735 683.264 245.101 Q686.759 241.467 692.824 241.467 Q694.792 241.467 696.667 241.883 Q698.542 242.277 700.301 243.087 Z" fill="#000000" fill-rule="evenodd" fill-opacity="1" /><path clip-path="url(#clip750)" d="M729.884 253.99 L729.884 256.073 L710.301 256.073 Q710.579 260.471 712.94 262.786 Q715.324 265.078 719.56 265.078 Q722.014 265.078 724.306 264.476 Q726.62 263.874 728.889 262.67 L728.889 266.698 Q726.597 267.67 724.19 268.18 Q721.782 268.689 719.306 268.689 Q713.102 268.689 709.468 265.078 Q705.857 261.467 705.857 255.309 Q705.857 248.944 709.282 245.217 Q712.731 241.467 718.565 241.467 Q723.796 241.467 726.829 244.846 Q729.884 248.203 729.884 253.99 M725.625 252.74 Q725.579 249.245 723.657 247.161 Q721.759 245.078 718.611 245.078 Q715.046 245.078 712.894 247.092 Q710.764 249.106 710.44 252.763 L725.625 252.74 Z" fill="#000000" fill-rule="evenodd" fill-opacity="1" /><path clip-path="url(#clip750)" d="M749.051 233.458 L753.773 233.458 L761.041 262.67 L768.287 233.458 L773.541 233.458 L780.81 262.67 L788.055 233.458 L792.801 233.458 L784.12 268.018 L778.24 268.018 L770.949 238.018 L763.588 268.018 L757.708 268.018 L749.051 233.458 Z" fill="#000000" fill-rule="evenodd" fill-opacity="1" /><path clip-path="url(#clip750)" d="M797.777 242.092 L802.037 242.092 L802.037 268.018 L797.777 268.018 L797.777 242.092 M797.777 231.999 L802.037 231.999 L802.037 237.393 L797.777 237.393 L797.777 231.999 Z" fill="#000000" fill-rule="evenodd" fill-opacity="1" /><path clip-path="url(#clip750)" d="M815.162 234.731 L815.162 242.092 L823.935 242.092 L823.935 245.402 L815.162 245.402 L815.162 259.476 Q815.162 262.647 816.018 263.55 Q816.898 264.453 819.56 264.453 L823.935 264.453 L823.935 268.018 L819.56 268.018 Q814.629 268.018 812.754 266.189 Q810.879 264.337 810.879 259.476 L810.879 245.402 L807.754 245.402 L807.754 242.092 L810.879 242.092 L810.879 234.731 L815.162 234.731 Z" fill="#000000" fill-rule="evenodd" fill-opacity="1" /><path clip-path="url(#clip750)" d="M851.087 252.369 L851.087 268.018 L846.828 268.018 L846.828 252.508 Q846.828 248.828 845.393 246.999 Q843.958 245.17 841.087 245.17 Q837.638 245.17 835.648 247.37 Q833.657 249.569 833.657 253.365 L833.657 268.018 L829.374 268.018 L829.374 231.999 L833.657 231.999 L833.657 246.12 Q835.185 243.782 837.245 242.624 Q839.328 241.467 842.036 241.467 Q846.504 241.467 848.796 244.245 Q851.087 246.999 851.087 252.369 Z" fill="#000000" fill-rule="evenodd" fill-opacity="1" /><path clip-path="url(#clip750)" d="M869.629 245.078 Q866.203 245.078 864.212 247.763 Q862.221 250.425 862.221 255.078 Q862.221 259.731 864.189 262.416 Q866.18 265.078 869.629 265.078 Q873.032 265.078 875.022 262.393 Q877.013 259.707 877.013 255.078 Q877.013 250.471 875.022 247.786 Q873.032 245.078 869.629 245.078 M869.629 241.467 Q875.184 241.467 878.356 245.078 Q881.527 248.689 881.527 255.078 Q881.527 261.444 878.356 265.078 Q875.184 268.689 869.629 268.689 Q864.05 268.689 860.879 265.078 Q857.731 261.444 857.731 255.078 Q857.731 248.689 860.879 245.078 Q864.05 241.467 869.629 241.467 Z" fill="#000000" fill-rule="evenodd" fill-opacity="1" /><path clip-path="url(#clip750)" d="M888.147 257.786 L888.147 242.092 L892.406 242.092 L892.406 257.624 Q892.406 261.305 893.842 263.156 Q895.277 264.985 898.147 264.985 Q901.596 264.985 903.587 262.786 Q905.601 260.587 905.601 256.791 L905.601 242.092 L909.86 242.092 L909.86 268.018 L905.601 268.018 L905.601 264.036 Q904.05 266.397 901.99 267.555 Q899.953 268.689 897.244 268.689 Q892.777 268.689 890.462 265.911 Q888.147 263.133 888.147 257.786 M898.865 241.467 L898.865 241.467 Z" fill="#000000" fill-rule="evenodd" fill-opacity="1" /><path clip-path="url(#clip750)" d="M922.846 234.731 L922.846 242.092 L931.619 242.092 L931.619 245.402 L922.846 245.402 L922.846 259.476 Q922.846 262.647 923.703 263.55 Q924.582 264.453 927.244 264.453 L931.619 264.453 L931.619 268.018 L927.244 268.018 Q922.314 268.018 920.439 266.189 Q918.564 264.337 918.564 259.476 L918.564 245.402 L915.439 245.402 L915.439 242.092 L918.564 242.092 L918.564 234.731 L922.846 234.731 Z" fill="#000000" fill-rule="evenodd" fill-opacity="1" /><path clip-path="url(#clip750)" d="M973.193 234.592 L973.193 239.152 Q970.531 237.879 968.17 237.254 Q965.809 236.629 963.61 236.629 Q959.79 236.629 957.707 238.11 Q955.647 239.592 955.647 242.323 Q955.647 244.615 957.013 245.795 Q958.401 246.953 962.244 247.67 L965.068 248.249 Q970.3 249.245 972.776 251.768 Q975.276 254.268 975.276 258.481 Q975.276 263.504 971.897 266.096 Q968.54 268.689 962.036 268.689 Q959.582 268.689 956.804 268.133 Q954.05 267.578 951.087 266.49 L951.087 261.675 Q953.934 263.272 956.665 264.082 Q959.397 264.893 962.036 264.893 Q966.04 264.893 968.216 263.319 Q970.392 261.744 970.392 258.828 Q970.392 256.282 968.818 254.846 Q967.267 253.411 963.702 252.694 L960.855 252.138 Q955.624 251.096 953.286 248.874 Q950.948 246.652 950.948 242.694 Q950.948 238.11 954.165 235.471 Q957.406 232.833 963.077 232.833 Q965.508 232.833 968.031 233.272 Q970.554 233.712 973.193 234.592 Z" fill="#000000" fill-rule="evenodd" fill-opacity="1" /><path clip-path="url(#clip750)" d="M982.568 233.458 L987.244 233.458 L987.244 264.082 L1004.07 264.082 L1004.07 268.018 L982.568 268.018 L982.568 233.458 Z" fill="#000000" fill-rule="evenodd" fill-opacity="1" /><path clip-path="url(#clip750)" d="M1025.37 251.814 Q1026.87 252.323 1028.29 253.99 Q1029.72 255.657 1031.16 258.573 L1035.9 268.018 L1030.88 268.018 L1026.46 259.152 Q1024.74 255.68 1023.12 254.545 Q1021.53 253.411 1018.75 253.411 L1013.66 253.411 L1013.66 268.018 L1008.98 268.018 L1008.98 233.458 L1019.54 233.458 Q1025.46 233.458 1028.38 235.934 Q1031.29 238.411 1031.29 243.411 Q1031.29 246.675 1029.77 248.828 Q1028.26 250.981 1025.37 251.814 M1013.66 237.3 L1013.66 249.569 L1019.54 249.569 Q1022.92 249.569 1024.63 248.018 Q1026.36 246.444 1026.36 243.411 Q1026.36 240.379 1024.63 238.851 Q1022.92 237.3 1019.54 237.3 L1013.66 237.3 Z" fill="#000000" fill-rule="evenodd" fill-opacity="1" /><path clip-path="url(#clip750)" d="
M282.562 323.314 L426.994 323.314 L426.994 281.842 L282.562 281.842 L282.562 323.314  Z
  " fill="#ff0000" fill-rule="evenodd" fill-opacity="0.3"/>
<polyline clip-path="url(#clip750)" style="stroke:#c271d2; stroke-linecap:round; stroke-linejoin:round; stroke-width:4; stroke-opacity:0.3; fill:none" points="
  282.562,281.842 426.994,281.842 
  "/>
<path clip-path="url(#clip750)" d="M451.066 285.298 L472.918 285.298 L472.918 289.233 L455.742 289.233 L455.742 299.464 L472.2 299.464 L472.2 303.399 L455.742 303.399 L455.742 315.922 L473.335 315.922 L473.335 319.858 L451.066 319.858 L451.066 285.298 Z" fill="#000000" fill-rule="evenodd" fill-opacity="1" /><path clip-path="url(#clip750)" d="M502.385 293.932 L493.01 306.547 L502.872 319.858 L497.848 319.858 L490.302 309.672 L482.756 319.858 L477.733 319.858 L487.802 306.293 L478.589 293.932 L483.612 293.932 L490.487 303.168 L497.362 293.932 L502.385 293.932 Z" fill="#000000" fill-rule="evenodd" fill-opacity="1" /><path clip-path="url(#clip750)" d="M526.714 294.927 L526.714 298.909 Q524.908 297.913 523.08 297.427 Q521.274 296.918 519.422 296.918 Q515.279 296.918 512.987 299.557 Q510.696 302.172 510.696 306.918 Q510.696 311.663 512.987 314.302 Q515.279 316.918 519.422 316.918 Q521.274 316.918 523.08 316.432 Q524.908 315.922 526.714 314.927 L526.714 318.862 Q524.932 319.696 523.01 320.112 Q521.112 320.529 518.959 320.529 Q513.103 320.529 509.654 316.848 Q506.205 313.168 506.205 306.918 Q506.205 300.575 509.677 296.941 Q513.172 293.307 519.237 293.307 Q521.205 293.307 523.08 293.723 Q524.955 294.117 526.714 294.927 Z" fill="#000000" fill-rule="evenodd" fill-opacity="1" /><path clip-path="url(#clip750)" d="M556.297 305.83 L556.297 307.913 L536.714 307.913 Q536.992 312.311 539.353 314.626 Q541.737 316.918 545.973 316.918 Q548.427 316.918 550.718 316.316 Q553.033 315.714 555.302 314.51 L555.302 318.538 Q553.01 319.51 550.603 320.02 Q548.195 320.529 545.719 320.529 Q539.515 320.529 535.881 316.918 Q532.27 313.307 532.27 307.149 Q532.27 300.784 535.695 297.057 Q539.144 293.307 544.978 293.307 Q550.209 293.307 553.242 296.686 Q556.297 300.043 556.297 305.83 M552.038 304.58 Q551.992 301.085 550.07 299.001 Q548.172 296.918 545.024 296.918 Q541.459 296.918 539.307 298.932 Q537.177 300.946 536.853 304.603 L552.038 304.58 Z" fill="#000000" fill-rule="evenodd" fill-opacity="1" /><path clip-path="url(#clip750)" d="M585.464 305.83 L585.464 307.913 L565.88 307.913 Q566.158 312.311 568.519 314.626 Q570.904 316.918 575.14 316.918 Q577.593 316.918 579.885 316.316 Q582.2 315.714 584.468 314.51 L584.468 318.538 Q582.177 319.51 579.769 320.02 Q577.362 320.529 574.885 320.529 Q568.681 320.529 565.047 316.918 Q561.436 313.307 561.436 307.149 Q561.436 300.784 564.862 297.057 Q568.311 293.307 574.144 293.307 Q579.376 293.307 582.408 296.686 Q585.464 300.043 585.464 305.83 M581.204 304.58 Q581.158 301.085 579.237 299.001 Q577.339 296.918 574.191 296.918 Q570.626 296.918 568.473 298.932 Q566.343 300.946 566.019 304.603 L581.204 304.58 Z" fill="#000000" fill-rule="evenodd" fill-opacity="1" /><path clip-path="url(#clip750)" d="M609.514 297.867 L609.514 283.839 L613.774 283.839 L613.774 319.858 L609.514 319.858 L609.514 315.969 Q608.172 318.283 606.112 319.418 Q604.075 320.529 601.204 320.529 Q596.505 320.529 593.542 316.779 Q590.603 313.029 590.603 306.918 Q590.603 300.807 593.542 297.057 Q596.505 293.307 601.204 293.307 Q604.075 293.307 606.112 294.441 Q608.172 295.552 609.514 297.867 M595.001 306.918 Q595.001 311.617 596.922 314.302 Q598.866 316.964 602.246 316.964 Q605.626 316.964 607.57 314.302 Q609.514 311.617 609.514 306.918 Q609.514 302.219 607.57 299.557 Q605.626 296.872 602.246 296.872 Q598.866 296.872 596.922 299.557 Q595.001 302.219 595.001 306.918 Z" fill="#000000" fill-rule="evenodd" fill-opacity="1" /><path clip-path="url(#clip750)" d="M634.329 306.825 Q629.167 306.825 627.176 308.006 Q625.186 309.186 625.186 312.034 Q625.186 314.302 626.667 315.645 Q628.172 316.964 630.741 316.964 Q634.283 316.964 636.412 314.464 Q638.565 311.941 638.565 307.774 L638.565 306.825 L634.329 306.825 M642.824 305.066 L642.824 319.858 L638.565 319.858 L638.565 315.922 Q637.107 318.283 634.931 319.418 Q632.755 320.529 629.607 320.529 Q625.625 320.529 623.264 318.307 Q620.926 316.061 620.926 312.311 Q620.926 307.936 623.843 305.714 Q626.783 303.492 632.593 303.492 L638.565 303.492 L638.565 303.075 Q638.565 300.135 636.621 298.538 Q634.7 296.918 631.204 296.918 Q628.982 296.918 626.875 297.45 Q624.769 297.983 622.825 299.047 L622.825 295.112 Q625.163 294.21 627.362 293.77 Q629.561 293.307 631.644 293.307 Q637.269 293.307 640.047 296.223 Q642.824 299.14 642.824 305.066 Z" fill="#000000" fill-rule="evenodd" fill-opacity="1" /><path clip-path="url(#clip750)" d="M673.148 304.209 L673.148 319.858 L668.889 319.858 L668.889 304.348 Q668.889 300.668 667.454 298.839 Q666.019 297.01 663.148 297.01 Q659.699 297.01 657.709 299.21 Q655.718 301.409 655.718 305.205 L655.718 319.858 L651.436 319.858 L651.436 293.932 L655.718 293.932 L655.718 297.96 Q657.246 295.622 659.306 294.464 Q661.389 293.307 664.098 293.307 Q668.565 293.307 670.857 296.085 Q673.148 298.839 673.148 304.209 Z" fill="#000000" fill-rule="evenodd" fill-opacity="1" /><path clip-path="url(#clip750)" d="M700.301 294.927 L700.301 298.909 Q698.495 297.913 696.667 297.427 Q694.861 296.918 693.009 296.918 Q688.866 296.918 686.574 299.557 Q684.283 302.172 684.283 306.918 Q684.283 311.663 686.574 314.302 Q688.866 316.918 693.009 316.918 Q694.861 316.918 696.667 316.432 Q698.495 315.922 700.301 314.927 L700.301 318.862 Q698.519 319.696 696.597 320.112 Q694.699 320.529 692.546 320.529 Q686.69 320.529 683.241 316.848 Q679.792 313.168 679.792 306.918 Q679.792 300.575 683.264 296.941 Q686.759 293.307 692.824 293.307 Q694.792 293.307 696.667 293.723 Q698.542 294.117 700.301 294.927 Z" fill="#000000" fill-rule="evenodd" fill-opacity="1" /><path clip-path="url(#clip750)" d="M729.884 305.83 L729.884 307.913 L710.301 307.913 Q710.579 312.311 712.94 314.626 Q715.324 316.918 719.56 316.918 Q722.014 316.918 724.306 316.316 Q726.62 315.714 728.889 314.51 L728.889 318.538 Q726.597 319.51 724.19 320.02 Q721.782 320.529 719.306 320.529 Q713.102 320.529 709.468 316.918 Q705.857 313.307 705.857 307.149 Q705.857 300.784 709.282 297.057 Q712.731 293.307 718.565 293.307 Q723.796 293.307 726.829 296.686 Q729.884 300.043 729.884 305.83 M725.625 304.58 Q725.579 301.085 723.657 299.001 Q721.759 296.918 718.611 296.918 Q715.046 296.918 712.894 298.932 Q710.764 300.946 710.44 304.603 L725.625 304.58 Z" fill="#000000" fill-rule="evenodd" fill-opacity="1" /><path clip-path="url(#clip750)" d="M749.051 285.298 L753.773 285.298 L761.041 314.51 L768.287 285.298 L773.541 285.298 L780.81 314.51 L788.055 285.298 L792.801 285.298 L784.12 319.858 L778.24 319.858 L770.949 289.858 L763.588 319.858 L757.708 319.858 L749.051 285.298 Z" fill="#000000" fill-rule="evenodd" fill-opacity="1" /><path clip-path="url(#clip750)" d="M797.777 293.932 L802.037 293.932 L802.037 319.858 L797.777 319.858 L797.777 293.932 M797.777 283.839 L802.037 283.839 L802.037 289.233 L797.777 289.233 L797.777 283.839 Z" fill="#000000" fill-rule="evenodd" fill-opacity="1" /><path clip-path="url(#clip750)" d="M815.162 286.571 L815.162 293.932 L823.935 293.932 L823.935 297.242 L815.162 297.242 L815.162 311.316 Q815.162 314.487 816.018 315.39 Q816.898 316.293 819.56 316.293 L823.935 316.293 L823.935 319.858 L819.56 319.858 Q814.629 319.858 812.754 318.029 Q810.879 316.177 810.879 311.316 L810.879 297.242 L807.754 297.242 L807.754 293.932 L810.879 293.932 L810.879 286.571 L815.162 286.571 Z" fill="#000000" fill-rule="evenodd" fill-opacity="1" /><path clip-path="url(#clip750)" d="M851.087 304.209 L851.087 319.858 L846.828 319.858 L846.828 304.348 Q846.828 300.668 845.393 298.839 Q843.958 297.01 841.087 297.01 Q837.638 297.01 835.648 299.21 Q833.657 301.409 833.657 305.205 L833.657 319.858 L829.374 319.858 L829.374 283.839 L833.657 283.839 L833.657 297.96 Q835.185 295.622 837.245 294.464 Q839.328 293.307 842.036 293.307 Q846.504 293.307 848.796 296.085 Q851.087 298.839 851.087 304.209 Z" fill="#000000" fill-rule="evenodd" fill-opacity="1" /><path clip-path="url(#clip750)" d="M895.555 286.432 L895.555 290.992 Q892.893 289.719 890.531 289.094 Q888.17 288.469 885.971 288.469 Q882.152 288.469 880.069 289.95 Q878.008 291.432 878.008 294.163 Q878.008 296.455 879.374 297.635 Q880.763 298.793 884.606 299.51 L887.43 300.089 Q892.661 301.085 895.138 303.608 Q897.638 306.108 897.638 310.321 Q897.638 315.344 894.258 317.936 Q890.902 320.529 884.397 320.529 Q881.944 320.529 879.166 319.973 Q876.411 319.418 873.448 318.33 L873.448 313.515 Q876.295 315.112 879.027 315.922 Q881.758 316.733 884.397 316.733 Q888.402 316.733 890.578 315.159 Q892.754 313.584 892.754 310.668 Q892.754 308.122 891.18 306.686 Q889.629 305.251 886.064 304.534 L883.217 303.978 Q877.985 302.936 875.647 300.714 Q873.309 298.492 873.309 294.534 Q873.309 289.95 876.527 287.311 Q879.768 284.673 885.439 284.673 Q887.869 284.673 890.393 285.112 Q892.916 285.552 895.555 286.432 Z" fill="#000000" fill-rule="evenodd" fill-opacity="1" /><path clip-path="url(#clip750)" d="M904.93 285.298 L909.605 285.298 L909.605 315.922 L926.434 315.922 L926.434 319.858 L904.93 319.858 L904.93 285.298 Z" fill="#000000" fill-rule="evenodd" fill-opacity="1" /><path clip-path="url(#clip750)" d="M947.73 303.654 Q949.235 304.163 950.647 305.83 Q952.082 307.497 953.517 310.413 L958.263 319.858 L953.239 319.858 L948.818 310.992 Q947.105 307.52 945.485 306.385 Q943.888 305.251 941.11 305.251 L936.017 305.251 L936.017 319.858 L931.341 319.858 L931.341 285.298 L941.897 285.298 Q947.823 285.298 950.739 287.774 Q953.656 290.251 953.656 295.251 Q953.656 298.515 952.128 300.668 Q950.624 302.821 947.73 303.654 M936.017 289.14 L936.017 301.409 L941.897 301.409 Q945.277 301.409 946.99 299.858 Q948.726 298.284 948.726 295.251 Q948.726 292.219 946.99 290.691 Q945.277 289.14 941.897 289.14 L936.017 289.14 Z" fill="#000000" fill-rule="evenodd" fill-opacity="1" /><path clip-path="url(#clip750)" d="M1844.69 171.541 L1844.69 177.386 L1801.49 177.386 L1801.49 171.541 L1844.69 171.541 Z" fill="#0000ff" fill-rule="evenodd" fill-opacity="1" /><path clip-path="url(#clip750)" d="M1821.05 215.725 L1801.49 215.725 L1801.49 210.401 L1820.87 210.401 Q1825.47 210.401 1827.76 208.607 Q1830.05 206.813 1830.05 203.225 Q1830.05 198.914 1827.3 196.425 Q1824.55 193.937 1819.8 193.937 L1801.49 193.937 L1801.49 188.584 L1833.9 188.584 L1833.9 193.937 L1828.86 193.937 Q1831.78 195.846 1833.23 198.422 Q1834.68 201.026 1834.68 204.411 Q1834.68 209.996 1831.2 212.86 Q1827.76 215.725 1821.05 215.725 Z" fill="#0000ff" fill-rule="evenodd" fill-opacity="1" /><path clip-path="url(#clip750)" d="M1814.28 225.794 L1833.9 225.794 L1833.9 231.118 L1814.48 231.118 Q1809.88 231.118 1807.56 232.912 Q1805.28 234.706 1805.28 238.294 Q1805.28 242.606 1808.03 245.094 Q1810.78 247.611 1815.52 247.611 L1833.9 247.611 L1833.9 252.935 L1801.49 252.935 L1801.49 247.611 L1806.46 247.611 Q1803.51 245.673 1802.07 243.097 Q1800.65 240.551 1800.65 237.166 Q1800.65 231.581 1804.12 228.688 Q1807.59 225.794 1814.28 225.794 M1834.68 239.191 L1834.68 239.191 Z" fill="#0000ff" fill-rule="evenodd" fill-opacity="1" /><path clip-path="url(#clip750)" d="M1821.05 290.84 L1801.49 290.84 L1801.49 285.516 L1820.87 285.516 Q1825.47 285.516 1827.76 283.722 Q1830.05 281.928 1830.05 278.34 Q1830.05 274.029 1827.3 271.541 Q1824.55 269.052 1819.8 269.052 L1801.49 269.052 L1801.49 263.699 L1833.9 263.699 L1833.9 269.052 L1828.86 269.052 Q1831.78 270.962 1833.23 273.537 Q1834.68 276.141 1834.68 279.527 Q1834.68 285.111 1831.2 287.976 Q1827.76 290.84 1821.05 290.84 Z" fill="#0000ff" fill-rule="evenodd" fill-opacity="1" /><path clip-path="url(#clip750)" d="M1828.98 322.784 L1846.51 322.784 L1846.51 328.109 L1801.49 328.109 L1801.49 322.784 L1806.35 322.784 Q1803.46 321.106 1802.04 318.531 Q1800.65 315.985 1800.65 312.397 Q1800.65 306.523 1805.34 302.819 Q1810.02 299.145 1817.66 299.145 Q1825.3 299.145 1829.99 302.819 Q1834.68 306.523 1834.68 312.397 Q1834.68 315.985 1833.26 318.531 Q1831.87 321.106 1828.98 322.784 M1817.66 304.642 Q1811.79 304.642 1808.43 307.044 Q1805.1 309.474 1805.1 313.699 Q1805.1 317.923 1808.43 320.354 Q1811.79 322.784 1817.66 322.784 Q1823.54 322.784 1826.86 320.354 Q1830.22 317.923 1830.22 313.699 Q1830.22 309.474 1826.86 307.044 Q1823.54 304.642 1817.66 304.642 Z" fill="#0000ff" fill-rule="evenodd" fill-opacity="1" /><path clip-path="url(#clip750)" d="M1817.78 353.803 Q1817.78 347.35 1816.3 344.862 Q1814.83 342.373 1811.27 342.373 Q1808.43 342.373 1806.75 344.225 Q1805.1 346.106 1805.1 349.318 Q1805.1 353.745 1808.23 356.407 Q1811.38 359.098 1816.59 359.098 L1817.78 359.098 L1817.78 353.803 M1819.98 364.422 L1801.49 364.422 L1801.49 359.098 L1806.41 359.098 Q1803.46 357.275 1802.04 354.555 Q1800.65 351.835 1800.65 347.9 Q1800.65 342.923 1803.43 339.972 Q1806.23 337.049 1810.92 337.049 Q1816.39 337.049 1819.17 340.695 Q1821.94 344.37 1821.94 351.633 L1821.94 359.098 L1822.47 359.098 Q1826.14 359.098 1828.14 356.667 Q1830.16 354.266 1830.16 349.897 Q1830.16 347.119 1829.5 344.486 Q1828.83 341.853 1827.5 339.422 L1832.42 339.422 Q1833.55 342.345 1834.1 345.093 Q1834.68 347.842 1834.68 350.446 Q1834.68 357.478 1831.03 360.95 Q1827.38 364.422 1819.98 364.422 Z" fill="#0000ff" fill-rule="evenodd" fill-opacity="1" /><path clip-path="url(#clip750)" d="M1843.1 380.655 L1833.9 380.655 L1833.9 391.621 L1829.76 391.621 L1829.76 380.655 L1812.16 380.655 Q1808.2 380.655 1807.07 381.725 Q1805.94 382.825 1805.94 386.152 L1805.94 391.621 L1801.49 391.621 L1801.49 386.152 Q1801.49 379.989 1803.77 377.645 Q1806.09 375.302 1812.16 375.302 L1829.76 375.302 L1829.76 371.395 L1833.9 371.395 L1833.9 375.302 L1843.1 375.302 L1843.1 380.655 Z" fill="#0000ff" fill-rule="evenodd" fill-opacity="1" /><path clip-path="url(#clip750)" d="M1833.9 398.623 L1833.9 403.947 L1801.49 403.947 L1801.49 398.623 L1833.9 398.623 M1846.51 398.623 L1846.51 403.947 L1839.77 403.947 L1839.77 398.623 L1846.51 398.623 Z" fill="#0000ff" fill-rule="evenodd" fill-opacity="1" /><path clip-path="url(#clip750)" d="M1830.16 427.645 Q1830.16 423.363 1826.81 420.874 Q1823.48 418.386 1817.66 418.386 Q1811.85 418.386 1808.49 420.845 Q1805.16 423.334 1805.16 427.645 Q1805.16 431.898 1808.52 434.387 Q1811.88 436.875 1817.66 436.875 Q1823.42 436.875 1826.78 434.387 Q1830.16 431.898 1830.16 427.645 M1834.68 427.645 Q1834.68 434.589 1830.16 438.554 Q1825.65 442.518 1817.66 442.518 Q1809.71 442.518 1805.16 438.554 Q1800.65 434.589 1800.65 427.645 Q1800.65 420.672 1805.16 416.708 Q1809.71 412.772 1817.66 412.772 Q1825.65 412.772 1830.16 416.708 Q1834.68 420.672 1834.68 427.645 Z" fill="#0000ff" fill-rule="evenodd" fill-opacity="1" /><path clip-path="url(#clip750)" d="M1821.05 478.281 L1801.49 478.281 L1801.49 472.957 L1820.87 472.957 Q1825.47 472.957 1827.76 471.163 Q1830.05 469.369 1830.05 465.781 Q1830.05 461.47 1827.3 458.982 Q1824.55 456.493 1819.8 456.493 L1801.49 456.493 L1801.49 451.14 L1833.9 451.14 L1833.9 456.493 L1828.86 456.493 Q1831.78 458.403 1833.23 460.978 Q1834.68 463.582 1834.68 466.968 Q1834.68 472.552 1831.2 475.417 Q1827.76 478.281 1821.05 478.281 Z" fill="#0000ff" fill-rule="evenodd" fill-opacity="1" /><path clip-path="url(#clip750)" d="M1839.88 513.814 L1806.29 513.814 L1806.29 520.874 Q1806.29 529.815 1810.34 533.952 Q1814.39 538.119 1823.13 538.119 Q1831.81 538.119 1835.83 533.952 Q1839.88 529.815 1839.88 520.874 L1839.88 513.814 M1844.69 507.969 L1844.69 519.977 Q1844.69 532.535 1839.45 538.408 Q1834.24 544.282 1823.13 544.282 Q1811.96 544.282 1806.73 538.379 Q1801.49 532.477 1801.49 519.977 L1801.49 507.969 L1844.69 507.969 Z" fill="#0000ff" fill-rule="evenodd" fill-opacity="1" /><path clip-path="url(#clip750)" d="M1819.02 581.087 L1816.42 581.087 L1816.42 556.608 Q1810.92 556.956 1808.03 559.907 Q1805.16 562.887 1805.16 568.182 Q1805.16 571.25 1805.91 574.114 Q1806.67 577.008 1808.17 579.843 L1803.14 579.843 Q1801.92 576.979 1801.29 573.969 Q1800.65 570.96 1800.65 567.864 Q1800.65 560.11 1805.16 555.567 Q1809.68 551.053 1817.37 551.053 Q1825.33 551.053 1829.99 555.335 Q1834.68 559.647 1834.68 566.938 Q1834.68 573.478 1830.45 577.268 Q1826.26 581.087 1819.02 581.087 M1820.58 575.763 Q1824.95 575.706 1827.56 573.304 Q1830.16 570.931 1830.16 566.996 Q1830.16 562.54 1827.65 559.849 Q1825.13 557.187 1820.56 556.782 L1820.58 575.763 Z" fill="#0000ff" fill-rule="evenodd" fill-opacity="1" /><path clip-path="url(#clip750)" d="M1806.35 594.976 L1789.16 594.976 L1789.16 589.623 L1833.9 589.623 L1833.9 594.976 L1828.98 594.976 Q1831.87 596.655 1833.26 599.201 Q1834.68 601.776 1834.68 605.335 Q1834.68 611.238 1829.99 614.913 Q1825.3 618.616 1817.66 618.616 Q1810.02 618.616 1805.34 614.913 Q1800.65 611.238 1800.65 605.335 Q1800.65 601.776 1802.04 599.201 Q1803.46 596.655 1806.35 594.976 M1817.66 613.09 Q1823.54 613.09 1826.86 610.659 Q1830.22 608.257 1830.22 604.033 Q1830.22 599.808 1826.86 597.378 Q1823.54 594.976 1817.66 594.976 Q1811.79 594.976 1808.43 597.378 Q1805.1 599.808 1805.1 604.033 Q1805.1 608.257 1808.43 610.659 Q1811.79 613.09 1817.66 613.09 Z" fill="#0000ff" fill-rule="evenodd" fill-opacity="1" /><path clip-path="url(#clip750)" d="M1843.1 632.708 L1833.9 632.708 L1833.9 643.674 L1829.76 643.674 L1829.76 632.708 L1812.16 632.708 Q1808.2 632.708 1807.07 633.778 Q1805.94 634.878 1805.94 638.205 L1805.94 643.674 L1801.49 643.674 L1801.49 638.205 Q1801.49 632.042 1803.77 629.698 Q1806.09 627.355 1812.16 627.355 L1829.76 627.355 L1829.76 623.448 L1833.9 623.448 L1833.9 627.355 L1843.1 627.355 L1843.1 632.708 Z" fill="#0000ff" fill-rule="evenodd" fill-opacity="1" /><path clip-path="url(#clip750)" d="M1821.05 677.615 L1801.49 677.615 L1801.49 672.291 L1820.87 672.291 Q1825.47 672.291 1827.76 670.497 Q1830.05 668.703 1830.05 665.115 Q1830.05 660.803 1827.3 658.315 Q1824.55 655.827 1819.8 655.827 L1801.49 655.827 L1801.49 650.474 L1846.51 650.474 L1846.51 655.827 L1828.86 655.827 Q1831.78 657.736 1833.23 660.312 Q1834.68 662.916 1834.68 666.301 Q1834.68 671.886 1831.2 674.75 Q1827.76 677.615 1821.05 677.615 Z" fill="#0000ff" fill-rule="evenodd" fill-opacity="1" /></svg>
