<?xml version="1.0" encoding="utf-8"?>
<svg xmlns="http://www.w3.org/2000/svg" xmlns:xlink="http://www.w3.org/1999/xlink" width="600" height="400" viewBox="0 0 2400 1600">
<defs>
  <clipPath id="clip440">
    <rect x="0" y="0" width="2400" height="1600"/>
  </clipPath>
</defs>
<path clip-path="url(#clip440)" d="
M0 1600 L2400 1600 L2400 0 L0 0  Z
  " fill="#ffffff" fill-rule="evenodd" fill-opacity="1"/>
<defs>
  <clipPath id="clip441">
    <rect x="480" y="0" width="1681" height="1600"/>
  </clipPath>
</defs>
<defs>
  <clipPath id="clip442">
    <rect x="398" y="47" width="1955" height="1329"/>
  </clipPath>
</defs>
<path clip-path="url(#clip440)" d="
M398.387 1375.66 L2352.76 1375.66 L2352.76 47.2441 L398.387 47.2441  Z
  " fill="#ffffff" fill-rule="evenodd" fill-opacity="1"/>
<polyline clip-path="url(#clip442)" style="stroke:#000000; stroke-linecap:round; stroke-linejoin:round; stroke-width:2; stroke-opacity:0.1; fill:none" points="
  453.699,1375.66 453.699,47.2441 
  "/>
<polyline clip-path="url(#clip442)" style="stroke:#000000; stroke-linecap:round; stroke-linejoin:round; stroke-width:2; stroke-opacity:0.1; fill:none" points="
  914.635,1375.66 914.635,47.2441 
  "/>
<polyline clip-path="url(#clip442)" style="stroke:#000000; stroke-linecap:round; stroke-linejoin:round; stroke-width:2; stroke-opacity:0.1; fill:none" points="
  1375.57,1375.66 1375.57,47.2441 
  "/>
<polyline clip-path="url(#clip442)" style="stroke:#000000; stroke-linecap:round; stroke-linejoin:round; stroke-width:2; stroke-opacity:0.1; fill:none" points="
  1836.51,1375.66 1836.51,47.2441 
  "/>
<polyline clip-path="url(#clip442)" style="stroke:#000000; stroke-linecap:round; stroke-linejoin:round; stroke-width:2; stroke-opacity:0.1; fill:none" points="
  2297.44,1375.66 2297.44,47.2441 
  "/>
<polyline clip-path="url(#clip440)" style="stroke:#000000; stroke-linecap:round; stroke-linejoin:round; stroke-width:4; stroke-opacity:1; fill:none" points="
  398.387,1375.66 2352.76,1375.66 
  "/>
<polyline clip-path="url(#clip440)" style="stroke:#000000; stroke-linecap:round; stroke-linejoin:round; stroke-width:4; stroke-opacity:1; fill:none" points="
  453.699,1375.66 453.699,1356.76 
  "/>
<polyline clip-path="url(#clip440)" style="stroke:#000000; stroke-linecap:round; stroke-linejoin:round; stroke-width:4; stroke-opacity:1; fill:none" points="
  914.635,1375.66 914.635,1356.76 
  "/>
<polyline clip-path="url(#clip440)" style="stroke:#000000; stroke-linecap:round; stroke-linejoin:round; stroke-width:4; stroke-opacity:1; fill:none" points="
  1375.57,1375.66 1375.57,1356.76 
  "/>
<polyline clip-path="url(#clip440)" style="stroke:#000000; stroke-linecap:round; stroke-linejoin:round; stroke-width:4; stroke-opacity:1; fill:none" points="
  1836.51,1375.66 1836.51,1356.76 
  "/>
<polyline clip-path="url(#clip440)" style="stroke:#000000; stroke-linecap:round; stroke-linejoin:round; stroke-width:4; stroke-opacity:1; fill:none" points="
  2297.44,1375.66 2297.44,1356.76 
  "/>
<path clip-path="url(#clip440)" d="M387.73 1415.37 Q381.411 1415.37 378.21 1421.61 Q375.051 1427.8 375.051 1440.28 Q375.051 1452.72 378.21 1458.96 Q381.411 1465.15 387.73 1465.15 Q394.09 1465.15 397.25 1458.96 Q400.45 1452.72 400.45 1440.28 Q400.45 1427.8 397.25 1421.61 Q394.09 1415.37 387.73 1415.37 M387.73 1408.89 Q397.898 1408.89 403.245 1416.95 Q408.633 1424.97 408.633 1440.28 Q408.633 1455.55 403.245 1463.61 Q397.898 1471.63 387.73 1471.63 Q377.562 1471.63 372.175 1463.61 Q366.827 1455.55 366.827 1440.28 Q366.827 1424.97 372.175 1416.95 Q377.562 1408.89 387.73 1408.89 Z" fill="#000000" fill-rule="evenodd" fill-opacity="1" /><path clip-path="url(#clip440)" d="M423.013 1460.17 L431.561 1460.17 L431.561 1470.46 L423.013 1470.46 L423.013 1460.17 Z" fill="#000000" fill-rule="evenodd" fill-opacity="1" /><path clip-path="url(#clip440)" d="M466.885 1415.37 Q460.565 1415.37 457.365 1421.61 Q454.205 1427.8 454.205 1440.28 Q454.205 1452.72 457.365 1458.96 Q460.565 1465.15 466.885 1465.15 Q473.245 1465.15 476.404 1458.96 Q479.605 1452.72 479.605 1440.28 Q479.605 1427.8 476.404 1421.61 Q473.245 1415.37 466.885 1415.37 M466.885 1408.89 Q477.053 1408.89 482.4 1416.95 Q487.787 1424.97 487.787 1440.28 Q487.787 1455.55 482.4 1463.61 Q477.053 1471.63 466.885 1471.63 Q456.717 1471.63 451.329 1463.61 Q445.982 1455.55 445.982 1440.28 Q445.982 1424.97 451.329 1416.95 Q456.717 1408.89 466.885 1408.89 Z" fill="#000000" fill-rule="evenodd" fill-opacity="1" /><path clip-path="url(#clip440)" d="M519.668 1415.37 Q513.349 1415.37 510.148 1421.61 Q506.989 1427.8 506.989 1440.28 Q506.989 1452.72 510.148 1458.96 Q513.349 1465.15 519.668 1465.15 Q526.028 1465.15 529.188 1458.96 Q532.388 1452.72 532.388 1440.28 Q532.388 1427.8 529.188 1421.61 Q526.028 1415.37 519.668 1415.37 M519.668 1408.89 Q529.836 1408.89 535.183 1416.95 Q540.571 1424.97 540.571 1440.28 Q540.571 1455.55 535.183 1463.61 Q529.836 1471.63 519.668 1471.63 Q509.5 1471.63 504.113 1463.61 Q498.765 1455.55 498.765 1440.28 Q498.765 1424.97 504.113 1416.95 Q509.5 1408.89 519.668 1408.89 Z" fill="#000000" fill-rule="evenodd" fill-opacity="1" /><path clip-path="url(#clip440)" d="M849.537 1415.37 Q843.218 1415.37 840.018 1421.61 Q836.858 1427.8 836.858 1440.28 Q836.858 1452.72 840.018 1458.96 Q843.218 1465.15 849.537 1465.15 Q855.897 1465.15 859.057 1458.96 Q862.257 1452.72 862.257 1440.28 Q862.257 1427.8 859.057 1421.61 Q855.897 1415.37 849.537 1415.37 M849.537 1408.89 Q859.705 1408.89 865.052 1416.95 Q870.44 1424.97 870.44 1440.28 Q870.44 1455.55 865.052 1463.61 Q859.705 1471.63 849.537 1471.63 Q839.369 1471.63 833.982 1463.61 Q828.634 1455.55 828.634 1440.28 Q828.634 1424.97 833.982 1416.95 Q839.369 1408.89 849.537 1408.89 Z" fill="#000000" fill-rule="evenodd" fill-opacity="1" /><path clip-path="url(#clip440)" d="M884.821 1460.17 L893.368 1460.17 L893.368 1470.46 L884.821 1470.46 L884.821 1460.17 Z" fill="#000000" fill-rule="evenodd" fill-opacity="1" /><path clip-path="url(#clip440)" d="M918.24 1463.57 L946.799 1463.57 L946.799 1470.46 L908.397 1470.46 L908.397 1463.57 Q913.055 1458.75 921.076 1450.65 Q929.137 1442.51 931.203 1440.16 Q935.133 1435.74 936.672 1432.71 Q938.252 1429.63 938.252 1426.67 Q938.252 1421.85 934.849 1418.81 Q931.487 1415.77 926.059 1415.77 Q922.21 1415.77 917.916 1417.11 Q913.663 1418.45 908.802 1421.16 L908.802 1412.9 Q913.744 1410.91 918.038 1409.9 Q922.332 1408.89 925.897 1408.89 Q935.295 1408.89 940.885 1413.59 Q946.475 1418.28 946.475 1426.14 Q946.475 1429.87 945.057 1433.23 Q943.68 1436.55 939.994 1441.09 Q938.981 1442.27 933.553 1447.9 Q928.125 1453.49 918.24 1463.57 Z" fill="#000000" fill-rule="evenodd" fill-opacity="1" /><path clip-path="url(#clip440)" d="M964.056 1409.98 L996.18 1409.98 L996.18 1416.87 L971.55 1416.87 L971.55 1431.69 Q973.333 1431.09 975.115 1430.8 Q976.898 1430.48 978.68 1430.48 Q988.807 1430.48 994.722 1436.03 Q1000.64 1441.58 1000.64 1451.06 Q1000.64 1460.82 994.56 1466.25 Q988.483 1471.63 977.424 1471.63 Q973.616 1471.63 969.646 1470.99 Q965.717 1470.34 961.504 1469.04 L961.504 1460.82 Q965.15 1462.8 969.039 1463.78 Q972.928 1464.75 977.262 1464.75 Q984.27 1464.75 988.362 1461.06 Q992.453 1457.38 992.453 1451.06 Q992.453 1444.74 988.362 1441.05 Q984.27 1437.36 977.262 1437.36 Q973.981 1437.36 970.7 1438.09 Q967.459 1438.82 964.056 1440.36 L964.056 1409.98 Z" fill="#000000" fill-rule="evenodd" fill-opacity="1" /><path clip-path="url(#clip440)" d="M1309.6 1415.37 Q1303.28 1415.37 1300.08 1421.61 Q1296.92 1427.8 1296.92 1440.28 Q1296.92 1452.72 1300.08 1458.96 Q1303.28 1465.15 1309.6 1465.15 Q1315.96 1465.15 1319.12 1458.96 Q1322.32 1452.72 1322.32 1440.28 Q1322.32 1427.8 1319.12 1421.61 Q1315.96 1415.37 1309.6 1415.37 M1309.6 1408.89 Q1319.77 1408.89 1325.12 1416.95 Q1330.51 1424.97 1330.51 1440.28 Q1330.51 1455.55 1325.12 1463.61 Q1319.77 1471.63 1309.6 1471.63 Q1299.43 1471.63 1294.05 1463.61 Q1288.7 1455.55 1288.7 1440.28 Q1288.7 1424.97 1294.05 1416.95 Q1299.43 1408.89 1309.6 1408.89 Z" fill="#000000" fill-rule="evenodd" fill-opacity="1" /><path clip-path="url(#clip440)" d="M1344.89 1460.17 L1353.43 1460.17 L1353.43 1470.46 L1344.89 1470.46 L1344.89 1460.17 Z" fill="#000000" fill-rule="evenodd" fill-opacity="1" /><path clip-path="url(#clip440)" d="M1371.34 1409.98 L1403.46 1409.98 L1403.46 1416.87 L1378.83 1416.87 L1378.83 1431.69 Q1380.61 1431.09 1382.4 1430.8 Q1384.18 1430.48 1385.96 1430.48 Q1396.09 1430.48 1402 1436.03 Q1407.92 1441.58 1407.92 1451.06 Q1407.92 1460.82 1401.84 1466.25 Q1395.77 1471.63 1384.71 1471.63 Q1380.9 1471.63 1376.93 1470.99 Q1373 1470.34 1368.79 1469.04 L1368.79 1460.82 Q1372.43 1462.8 1376.32 1463.78 Q1380.21 1464.75 1384.54 1464.75 Q1391.55 1464.75 1395.64 1461.06 Q1399.73 1457.38 1399.73 1451.06 Q1399.73 1444.74 1395.64 1441.05 Q1391.55 1437.36 1384.54 1437.36 Q1381.26 1437.36 1377.98 1438.09 Q1374.74 1438.82 1371.34 1440.36 L1371.34 1409.98 Z" fill="#000000" fill-rule="evenodd" fill-opacity="1" /><path clip-path="url(#clip440)" d="M1441.54 1415.37 Q1435.22 1415.37 1432.02 1421.61 Q1428.86 1427.8 1428.86 1440.28 Q1428.86 1452.72 1432.02 1458.96 Q1435.22 1465.15 1441.54 1465.15 Q1447.9 1465.15 1451.06 1458.96 Q1454.26 1452.72 1454.26 1440.28 Q1454.26 1427.8 1451.06 1421.61 Q1447.9 1415.37 1441.54 1415.37 M1441.54 1408.89 Q1451.71 1408.89 1457.06 1416.95 Q1462.44 1424.97 1462.44 1440.28 Q1462.44 1455.55 1457.06 1463.61 Q1451.71 1471.63 1441.54 1471.63 Q1431.37 1471.63 1425.98 1463.61 Q1420.64 1455.55 1420.64 1440.28 Q1420.64 1424.97 1425.98 1416.95 Q1431.37 1408.89 1441.54 1408.89 Z" fill="#000000" fill-rule="evenodd" fill-opacity="1" /><path clip-path="url(#clip440)" d="M1771.41 1415.37 Q1765.09 1415.37 1761.89 1421.61 Q1758.73 1427.8 1758.73 1440.28 Q1758.73 1452.72 1761.89 1458.96 Q1765.09 1465.15 1771.41 1465.15 Q1777.77 1465.15 1780.93 1458.96 Q1784.13 1452.72 1784.13 1440.28 Q1784.13 1427.8 1780.93 1421.61 Q1777.77 1415.37 1771.41 1415.37 M1771.41 1408.89 Q1781.58 1408.89 1786.92 1416.95 Q1792.31 1424.97 1792.31 1440.28 Q1792.31 1455.55 1786.92 1463.61 Q1781.58 1471.63 1771.41 1471.63 Q1761.24 1471.63 1755.85 1463.61 Q1750.51 1455.55 1750.51 1440.28 Q1750.51 1424.97 1755.85 1416.95 Q1761.24 1408.89 1771.41 1408.89 Z" fill="#000000" fill-rule="evenodd" fill-opacity="1" /><path clip-path="url(#clip440)" d="M1806.69 1460.17 L1815.24 1460.17 L1815.24 1470.46 L1806.69 1470.46 L1806.69 1460.17 Z" fill="#000000" fill-rule="evenodd" fill-opacity="1" /><path clip-path="url(#clip440)" d="M1831 1409.98 L1869.89 1409.98 L1869.89 1413.46 L1847.93 1470.46 L1839.38 1470.46 L1860.04 1416.87 L1831 1416.87 L1831 1409.98 Z" fill="#000000" fill-rule="evenodd" fill-opacity="1" /><path clip-path="url(#clip440)" d="M1885.93 1409.98 L1918.05 1409.98 L1918.05 1416.87 L1893.42 1416.87 L1893.42 1431.69 Q1895.21 1431.09 1896.99 1430.8 Q1898.77 1430.48 1900.55 1430.48 Q1910.68 1430.48 1916.59 1436.03 Q1922.51 1441.58 1922.51 1451.06 Q1922.51 1460.82 1916.43 1466.25 Q1910.36 1471.63 1899.3 1471.63 Q1895.49 1471.63 1891.52 1470.99 Q1887.59 1470.34 1883.38 1469.04 L1883.38 1460.82 Q1887.02 1462.8 1890.91 1463.78 Q1894.8 1464.75 1899.13 1464.75 Q1906.14 1464.75 1910.23 1461.06 Q1914.33 1457.38 1914.33 1451.06 Q1914.33 1444.74 1910.23 1441.05 Q1906.14 1437.36 1899.13 1437.36 Q1895.85 1437.36 1892.57 1438.09 Q1889.33 1438.82 1885.93 1440.36 L1885.93 1409.98 Z" fill="#000000" fill-rule="evenodd" fill-opacity="1" /><path clip-path="url(#clip440)" d="M2213.57 1463.57 L2226.94 1463.57 L2226.94 1417.43 L2212.39 1420.35 L2212.39 1412.9 L2226.86 1409.98 L2235.04 1409.98 L2235.04 1463.57 L2248.41 1463.57 L2248.41 1470.46 L2213.57 1470.46 L2213.57 1463.57 Z" fill="#000000" fill-rule="evenodd" fill-opacity="1" /><path clip-path="url(#clip440)" d="M2264.94 1460.17 L2273.48 1460.17 L2273.48 1470.46 L2264.94 1470.46 L2264.94 1460.17 Z" fill="#000000" fill-rule="evenodd" fill-opacity="1" /><path clip-path="url(#clip440)" d="M2308.81 1415.37 Q2302.49 1415.37 2299.29 1421.61 Q2296.13 1427.8 2296.13 1440.28 Q2296.13 1452.72 2299.29 1458.96 Q2302.49 1465.15 2308.81 1465.15 Q2315.17 1465.15 2318.33 1458.96 Q2321.53 1452.72 2321.53 1440.28 Q2321.53 1427.8 2318.33 1421.61 Q2315.17 1415.37 2308.81 1415.37 M2308.81 1408.89 Q2318.97 1408.89 2324.32 1416.95 Q2329.71 1424.97 2329.71 1440.28 Q2329.71 1455.55 2324.32 1463.61 Q2318.97 1471.63 2308.81 1471.63 Q2298.64 1471.63 2293.25 1463.61 Q2287.9 1455.55 2287.9 1440.28 Q2287.9 1424.97 2293.25 1416.95 Q2298.64 1408.89 2308.81 1408.89 Z" fill="#000000" fill-rule="evenodd" fill-opacity="1" /><path clip-path="url(#clip440)" d="M2361.59 1415.37 Q2355.27 1415.37 2352.07 1421.61 Q2348.91 1427.8 2348.91 1440.28 Q2348.91 1452.72 2352.07 1458.96 Q2355.27 1465.15 2361.59 1465.15 Q2367.95 1465.15 2371.11 1458.96 Q2374.31 1452.72 2374.31 1440.28 Q2374.31 1427.8 2371.11 1421.61 Q2367.95 1415.37 2361.59 1415.37 M2361.59 1408.89 Q2371.76 1408.89 2377.1 1416.95 Q2382.49 1424.97 2382.49 1440.28 Q2382.49 1455.55 2377.1 1463.61 Q2371.76 1471.63 2361.59 1471.63 Q2351.42 1471.63 2346.03 1463.61 Q2340.69 1455.55 2340.69 1440.28 Q2340.69 1424.97 2346.03 1416.95 Q2351.42 1408.89 2361.59 1408.89 Z" fill="#000000" fill-rule="evenodd" fill-opacity="1" /><path clip-path="url(#clip440)" d="M1392.93 1528.85 Q1392.93 1536.72 1390.4 1545.58 Q1387.92 1554.38 1383.99 1561.5 Q1380.05 1568.58 1374.9 1573.26 Q1369.74 1577.9 1364.83 1577.9 Q1361.69 1577.9 1359.35 1576.16 Q1357.05 1574.38 1355.78 1571.43 Q1354.52 1568.44 1353.91 1565.16 Q1353.3 1561.83 1353.3 1558.22 Q1353.3 1552.84 1354.47 1546.98 Q1355.64 1541.08 1357.61 1535.74 Q1359.58 1530.35 1362.34 1525.48 Q1365.11 1520.56 1368.15 1517 Q1371.24 1513.39 1374.71 1511.28 Q1378.18 1509.18 1381.41 1509.18 Q1383.75 1509.18 1385.62 1510.21 Q1387.55 1511.19 1388.76 1512.92 Q1389.98 1514.61 1390.82 1516.62 Q1391.71 1518.64 1392.14 1520.98 Q1392.56 1523.28 1392.75 1525.2 Q1392.93 1527.07 1392.93 1528.85 M1386.61 1522.9 Q1386.61 1520.51 1386.42 1518.73 Q1386.23 1516.91 1385.72 1515.08 Q1385.2 1513.25 1384.08 1512.27 Q1383 1511.28 1381.32 1511.28 Q1376.4 1511.28 1370.87 1521.36 Q1369.09 1524.49 1367.5 1528.76 Q1365.9 1533.02 1365.34 1535.03 Q1364.78 1537.05 1363.47 1542.01 L1383.52 1542.01 Q1386.61 1529.23 1386.61 1522.9 M1382.67 1545.06 L1362.72 1545.06 Q1359.63 1556.77 1359.63 1564.08 Q1359.63 1570.45 1360.94 1573.12 Q1362.3 1575.74 1364.83 1575.74 Q1367.73 1575.74 1370.45 1572.84 Q1373.16 1569.89 1375.93 1564.55 Q1379.58 1557.61 1382.67 1545.06 Z" fill="#000000" fill-rule="evenodd" fill-opacity="1" /><polyline clip-path="url(#clip442)" style="stroke:#000000; stroke-linecap:round; stroke-linejoin:round; stroke-width:2; stroke-opacity:0.1; fill:none" points="
  398.387,1338.06 2352.76,1338.06 
  "/>
<polyline clip-path="url(#clip442)" style="stroke:#000000; stroke-linecap:round; stroke-linejoin:round; stroke-width:2; stroke-opacity:0.1; fill:none" points="
  398.387,994.005 2352.76,994.005 
  "/>
<polyline clip-path="url(#clip442)" style="stroke:#000000; stroke-linecap:round; stroke-linejoin:round; stroke-width:2; stroke-opacity:0.1; fill:none" points="
  398.387,649.948 2352.76,649.948 
  "/>
<polyline clip-path="url(#clip442)" style="stroke:#000000; stroke-linecap:round; stroke-linejoin:round; stroke-width:2; stroke-opacity:0.1; fill:none" points="
  398.387,305.89 2352.76,305.89 
  "/>
<polyline clip-path="url(#clip440)" style="stroke:#000000; stroke-linecap:round; stroke-linejoin:round; stroke-width:4; stroke-opacity:1; fill:none" points="
  398.387,1375.66 398.387,47.2441 
  "/>
<polyline clip-path="url(#clip440)" style="stroke:#000000; stroke-linecap:round; stroke-linejoin:round; stroke-width:4; stroke-opacity:1; fill:none" points="
  398.387,1338.06 417.284,1338.06 
  "/>
<polyline clip-path="url(#clip440)" style="stroke:#000000; stroke-linecap:round; stroke-linejoin:round; stroke-width:4; stroke-opacity:1; fill:none" points="
  398.387,994.005 417.284,994.005 
  "/>
<polyline clip-path="url(#clip440)" style="stroke:#000000; stroke-linecap:round; stroke-linejoin:round; stroke-width:4; stroke-opacity:1; fill:none" points="
  398.387,649.948 417.284,649.948 
  "/>
<polyline clip-path="url(#clip440)" style="stroke:#000000; stroke-linecap:round; stroke-linejoin:round; stroke-width:4; stroke-opacity:1; fill:none" points="
  398.387,305.89 417.284,305.89 
  "/>
<path clip-path="url(#clip440)" d="M156.763 1313.21 Q150.443 1313.21 147.243 1319.45 Q144.083 1325.65 144.083 1338.12 Q144.083 1350.56 147.243 1356.8 Q150.443 1363 156.763 1363 Q163.123 1363 166.282 1356.8 Q169.483 1350.56 169.483 1338.12 Q169.483 1325.65 166.282 1319.45 Q163.123 1313.21 156.763 1313.21 M156.763 1306.73 Q166.931 1306.73 172.278 1314.79 Q177.665 1322.81 177.665 1338.12 Q177.665 1353.4 172.278 1361.46 Q166.931 1369.48 156.763 1369.48 Q146.595 1369.48 141.207 1361.46 Q135.86 1353.4 135.86 1338.12 Q135.86 1322.81 141.207 1314.79 Q146.595 1306.73 156.763 1306.73 Z" fill="#000000" fill-rule="evenodd" fill-opacity="1" /><path clip-path="url(#clip440)" d="M192.046 1358.01 L200.594 1358.01 L200.594 1368.3 L192.046 1368.3 L192.046 1358.01 Z" fill="#000000" fill-rule="evenodd" fill-opacity="1" /><path clip-path="url(#clip440)" d="M235.917 1313.21 Q229.598 1313.21 226.398 1319.45 Q223.238 1325.65 223.238 1338.12 Q223.238 1350.56 226.398 1356.8 Q229.598 1363 235.917 1363 Q242.277 1363 245.437 1356.8 Q248.637 1350.56 248.637 1338.12 Q248.637 1325.65 245.437 1319.45 Q242.277 1313.21 235.917 1313.21 M235.917 1306.73 Q246.085 1306.73 251.432 1314.79 Q256.82 1322.81 256.82 1338.12 Q256.82 1353.4 251.432 1361.46 Q246.085 1369.48 235.917 1369.48 Q225.75 1369.48 220.362 1361.46 Q215.015 1353.4 215.015 1338.12 Q215.015 1322.81 220.362 1314.79 Q225.75 1306.73 235.917 1306.73 Z" fill="#000000" fill-rule="evenodd" fill-opacity="1" /><path clip-path="url(#clip440)" d="M288.701 1313.21 Q282.381 1313.21 279.181 1319.45 Q276.021 1325.65 276.021 1338.12 Q276.021 1350.56 279.181 1356.8 Q282.381 1363 288.701 1363 Q295.061 1363 298.22 1356.8 Q301.421 1350.56 301.421 1338.12 Q301.421 1325.65 298.22 1319.45 Q295.061 1313.21 288.701 1313.21 M288.701 1306.73 Q298.869 1306.73 304.216 1314.79 Q309.603 1322.81 309.603 1338.12 Q309.603 1353.4 304.216 1361.46 Q298.869 1369.48 288.701 1369.48 Q278.533 1369.48 273.145 1361.46 Q267.798 1353.4 267.798 1338.12 Q267.798 1322.81 273.145 1314.79 Q278.533 1306.73 288.701 1306.73 Z" fill="#000000" fill-rule="evenodd" fill-opacity="1" /><path clip-path="url(#clip440)" d="M341.484 1313.21 Q335.165 1313.21 331.964 1319.45 Q328.805 1325.65 328.805 1338.12 Q328.805 1350.56 331.964 1356.8 Q335.165 1363 341.484 1363 Q347.844 1363 351.004 1356.8 Q354.204 1350.56 354.204 1338.12 Q354.204 1325.65 351.004 1319.45 Q347.844 1313.21 341.484 1313.21 M341.484 1306.73 Q351.652 1306.73 356.999 1314.79 Q362.387 1322.81 362.387 1338.12 Q362.387 1353.4 356.999 1361.46 Q351.652 1369.48 341.484 1369.48 Q331.316 1369.48 325.929 1361.46 Q320.581 1353.4 320.581 1338.12 Q320.581 1322.81 325.929 1314.79 Q331.316 1306.73 341.484 1306.73 Z" fill="#000000" fill-rule="evenodd" fill-opacity="1" /><path clip-path="url(#clip440)" d="M158.505 969.153 Q152.185 969.153 148.985 975.392 Q145.825 981.589 145.825 994.066 Q145.825 1006.5 148.985 1012.74 Q152.185 1018.94 158.505 1018.94 Q164.865 1018.94 168.024 1012.74 Q171.225 1006.5 171.225 994.066 Q171.225 981.589 168.024 975.392 Q164.865 969.153 158.505 969.153 M158.505 962.672 Q168.672 962.672 174.02 970.733 Q179.407 978.754 179.407 994.066 Q179.407 1009.34 174.02 1017.4 Q168.672 1025.42 158.505 1025.42 Q148.337 1025.42 142.949 1017.4 Q137.602 1009.34 137.602 994.066 Q137.602 978.754 142.949 970.733 Q148.337 962.672 158.505 962.672 Z" fill="#000000" fill-rule="evenodd" fill-opacity="1" /><path clip-path="url(#clip440)" d="M193.788 1013.96 L202.335 1013.96 L202.335 1024.25 L193.788 1024.25 L193.788 1013.96 Z" fill="#000000" fill-rule="evenodd" fill-opacity="1" /><path clip-path="url(#clip440)" d="M237.659 969.153 Q231.34 969.153 228.14 975.392 Q224.98 981.589 224.98 994.066 Q224.98 1006.5 228.14 1012.74 Q231.34 1018.94 237.659 1018.94 Q244.019 1018.94 247.179 1012.74 Q250.379 1006.5 250.379 994.066 Q250.379 981.589 247.179 975.392 Q244.019 969.153 237.659 969.153 M237.659 962.672 Q247.827 962.672 253.174 970.733 Q258.562 978.754 258.562 994.066 Q258.562 1009.34 253.174 1017.4 Q247.827 1025.42 237.659 1025.42 Q227.492 1025.42 222.104 1017.4 Q216.757 1009.34 216.757 994.066 Q216.757 978.754 222.104 970.733 Q227.492 962.672 237.659 962.672 Z" fill="#000000" fill-rule="evenodd" fill-opacity="1" /><path clip-path="url(#clip440)" d="M290.443 969.153 Q284.123 969.153 280.923 975.392 Q277.763 981.589 277.763 994.066 Q277.763 1006.5 280.923 1012.74 Q284.123 1018.94 290.443 1018.94 Q296.803 1018.94 299.962 1012.74 Q303.163 1006.5 303.163 994.066 Q303.163 981.589 299.962 975.392 Q296.803 969.153 290.443 969.153 M290.443 962.672 Q300.61 962.672 305.958 970.733 Q311.345 978.754 311.345 994.066 Q311.345 1009.34 305.958 1017.4 Q300.61 1025.42 290.443 1025.42 Q280.275 1025.42 274.887 1017.4 Q269.54 1009.34 269.54 994.066 Q269.54 978.754 274.887 970.733 Q280.275 962.672 290.443 962.672 Z" fill="#000000" fill-rule="evenodd" fill-opacity="1" /><path clip-path="url(#clip440)" d="M325.807 963.765 L357.931 963.765 L357.931 970.652 L333.301 970.652 L333.301 985.478 Q335.084 984.871 336.866 984.587 Q338.648 984.263 340.431 984.263 Q350.558 984.263 356.472 989.813 Q362.387 995.363 362.387 1004.84 Q362.387 1014.6 356.31 1020.03 Q350.234 1025.42 339.175 1025.42 Q335.367 1025.42 331.397 1024.77 Q327.468 1024.12 323.255 1022.83 L323.255 1014.6 Q326.901 1016.59 330.79 1017.56 Q334.679 1018.53 339.013 1018.53 Q346.021 1018.53 350.112 1014.85 Q354.204 1011.16 354.204 1004.84 Q354.204 998.522 350.112 994.836 Q346.021 991.15 339.013 991.15 Q335.732 991.15 332.451 991.879 Q329.21 992.608 325.807 994.147 L325.807 963.765 Z" fill="#000000" fill-rule="evenodd" fill-opacity="1" /><path clip-path="url(#clip440)" d="M156.763 625.095 Q150.443 625.095 147.243 631.334 Q144.083 637.532 144.083 650.009 Q144.083 662.445 147.243 668.683 Q150.443 674.881 156.763 674.881 Q163.123 674.881 166.282 668.683 Q169.483 662.445 169.483 650.009 Q169.483 637.532 166.282 631.334 Q163.123 625.095 156.763 625.095 M156.763 618.614 Q166.931 618.614 172.278 626.675 Q177.665 634.696 177.665 650.009 Q177.665 665.28 172.278 673.342 Q166.931 681.363 156.763 681.363 Q146.595 681.363 141.207 673.342 Q135.86 665.28 135.86 650.009 Q135.86 634.696 141.207 626.675 Q146.595 618.614 156.763 618.614 Z" fill="#000000" fill-rule="evenodd" fill-opacity="1" /><path clip-path="url(#clip440)" d="M192.046 669.898 L200.594 669.898 L200.594 680.188 L192.046 680.188 L192.046 669.898 Z" fill="#000000" fill-rule="evenodd" fill-opacity="1" /><path clip-path="url(#clip440)" d="M235.917 625.095 Q229.598 625.095 226.398 631.334 Q223.238 637.532 223.238 650.009 Q223.238 662.445 226.398 668.683 Q229.598 674.881 235.917 674.881 Q242.277 674.881 245.437 668.683 Q248.637 662.445 248.637 650.009 Q248.637 637.532 245.437 631.334 Q242.277 625.095 235.917 625.095 M235.917 618.614 Q246.085 618.614 251.432 626.675 Q256.82 634.696 256.82 650.009 Q256.82 665.28 251.432 673.342 Q246.085 681.363 235.917 681.363 Q225.75 681.363 220.362 673.342 Q215.015 665.28 215.015 650.009 Q215.015 634.696 220.362 626.675 Q225.75 618.614 235.917 618.614 Z" fill="#000000" fill-rule="evenodd" fill-opacity="1" /><path clip-path="url(#clip440)" d="M272.619 673.301 L285.987 673.301 L285.987 627.161 L271.444 630.078 L271.444 622.624 L285.906 619.708 L294.088 619.708 L294.088 673.301 L307.456 673.301 L307.456 680.188 L272.619 680.188 L272.619 673.301 Z" fill="#000000" fill-rule="evenodd" fill-opacity="1" /><path clip-path="url(#clip440)" d="M341.484 625.095 Q335.165 625.095 331.964 631.334 Q328.805 637.532 328.805 650.009 Q328.805 662.445 331.964 668.683 Q335.165 674.881 341.484 674.881 Q347.844 674.881 351.004 668.683 Q354.204 662.445 354.204 650.009 Q354.204 637.532 351.004 631.334 Q347.844 625.095 341.484 625.095 M341.484 618.614 Q351.652 618.614 356.999 626.675 Q362.387 634.696 362.387 650.009 Q362.387 665.28 356.999 673.342 Q351.652 681.363 341.484 681.363 Q331.316 681.363 325.929 673.342 Q320.581 665.28 320.581 650.009 Q320.581 634.696 325.929 626.675 Q331.316 618.614 341.484 618.614 Z" fill="#000000" fill-rule="evenodd" fill-opacity="1" /><path clip-path="url(#clip440)" d="M158.505 281.038 Q152.185 281.038 148.985 287.276 Q145.825 293.474 145.825 305.951 Q145.825 318.387 148.985 324.625 Q152.185 330.823 158.505 330.823 Q164.865 330.823 168.024 324.625 Q171.225 318.387 171.225 305.951 Q171.225 293.474 168.024 287.276 Q164.865 281.038 158.505 281.038 M158.505 274.556 Q168.672 274.556 174.02 282.618 Q179.407 290.638 179.407 305.951 Q179.407 321.223 174.02 329.284 Q168.672 337.305 158.505 337.305 Q148.337 337.305 142.949 329.284 Q137.602 321.223 137.602 305.951 Q137.602 290.638 142.949 282.618 Q148.337 274.556 158.505 274.556 Z" fill="#000000" fill-rule="evenodd" fill-opacity="1" /><path clip-path="url(#clip440)" d="M193.788 325.841 L202.335 325.841 L202.335 336.13 L193.788 336.13 L193.788 325.841 Z" fill="#000000" fill-rule="evenodd" fill-opacity="1" /><path clip-path="url(#clip440)" d="M237.659 281.038 Q231.34 281.038 228.14 287.276 Q224.98 293.474 224.98 305.951 Q224.98 318.387 228.14 324.625 Q231.34 330.823 237.659 330.823 Q244.019 330.823 247.179 324.625 Q250.379 318.387 250.379 305.951 Q250.379 293.474 247.179 287.276 Q244.019 281.038 237.659 281.038 M237.659 274.556 Q247.827 274.556 253.174 282.618 Q258.562 290.638 258.562 305.951 Q258.562 321.223 253.174 329.284 Q247.827 337.305 237.659 337.305 Q227.492 337.305 222.104 329.284 Q216.757 321.223 216.757 305.951 Q216.757 290.638 222.104 282.618 Q227.492 274.556 237.659 274.556 Z" fill="#000000" fill-rule="evenodd" fill-opacity="1" /><path clip-path="url(#clip440)" d="M274.361 329.244 L287.729 329.244 L287.729 283.104 L273.186 286.02 L273.186 278.567 L287.648 275.65 L295.83 275.65 L295.83 329.244 L309.198 329.244 L309.198 336.13 L274.361 336.13 L274.361 329.244 Z" fill="#000000" fill-rule="evenodd" fill-opacity="1" /><path clip-path="url(#clip440)" d="M325.807 275.65 L357.931 275.65 L357.931 282.537 L333.301 282.537 L333.301 297.363 Q335.084 296.755 336.866 296.472 Q338.648 296.148 340.431 296.148 Q350.558 296.148 356.472 301.697 Q362.387 307.247 362.387 316.726 Q362.387 326.489 356.31 331.917 Q350.234 337.305 339.175 337.305 Q335.367 337.305 331.397 336.657 Q327.468 336.009 323.255 334.712 L323.255 326.489 Q326.901 328.474 330.79 329.446 Q334.679 330.418 339.013 330.418 Q346.021 330.418 350.112 326.732 Q354.204 323.046 354.204 316.726 Q354.204 310.407 350.112 306.72 Q346.021 303.034 339.013 303.034 Q335.732 303.034 332.451 303.763 Q329.21 304.492 325.807 306.032 L325.807 275.65 Z" fill="#000000" fill-rule="evenodd" fill-opacity="1" /><path clip-path="url(#clip440)" d="M17.6893 876.266 L71.439 876.266 L71.439 864.97 Q71.439 850.664 64.9576 844.044 Q58.4761 837.377 44.4947 837.377 Q30.6059 837.377 24.1707 844.044 Q17.6893 850.664 17.6893 864.97 L17.6893 876.266 M10.0042 885.618 L10.0042 866.405 Q10.0042 846.312 18.3837 836.914 Q26.717 827.516 44.4947 827.516 Q62.365 827.516 70.7446 836.961 Q79.1242 846.405 79.1242 866.405 L79.1242 885.618 L10.0042 885.618 Z" fill="#000000" fill-rule="evenodd" fill-opacity="1" /><path clip-path="url(#clip440)" d="M51.0688 768.628 L55.2354 768.628 L55.2354 807.794 Q64.0316 807.238 68.6613 802.516 Q73.2446 797.748 73.2446 789.276 Q73.2446 784.368 72.0409 779.785 Q70.8372 775.155 68.4298 770.618 L76.4853 770.618 Q78.4297 775.202 79.4482 780.016 Q80.4667 784.831 80.4667 789.785 Q80.4667 802.192 73.2446 809.461 Q66.0224 816.683 53.7076 816.683 Q40.9762 816.683 33.5225 809.831 Q26.0226 802.933 26.0226 791.266 Q26.0226 780.803 32.7818 774.739 Q39.4947 768.628 51.0688 768.628 M48.5688 777.146 Q41.5781 777.239 37.4114 781.081 Q33.2448 784.878 33.2448 791.174 Q33.2448 798.303 37.2725 802.609 Q41.3003 806.868 48.6151 807.516 L48.5688 777.146 Z" fill="#000000" fill-rule="evenodd" fill-opacity="1" /><path clip-path="url(#clip440)" d="M47.828 711.545 L79.1242 711.545 L79.1242 720.063 L48.1058 720.063 Q40.7447 720.063 37.0873 722.933 Q33.43 725.804 33.43 731.544 Q33.43 738.443 37.8281 742.424 Q42.2262 746.405 49.8188 746.405 L79.1242 746.405 L79.1242 754.97 L27.2726 754.97 L27.2726 746.405 L35.3281 746.405 Q30.6522 743.35 28.3374 739.23 Q26.0226 735.063 26.0226 729.646 Q26.0226 720.711 31.5781 716.128 Q37.0873 711.545 47.828 711.545 Z" fill="#000000" fill-rule="evenodd" fill-opacity="1" /><path clip-path="url(#clip440)" d="M28.8004 661.499 L36.8559 661.499 Q35.004 665.11 34.0781 668.998 Q33.1522 672.887 33.1522 677.054 Q33.1522 683.397 35.0966 686.591 Q37.041 689.739 40.9299 689.739 Q43.8929 689.739 45.6058 687.471 Q47.2725 685.202 48.8002 678.35 L49.4484 675.434 Q51.3928 666.36 54.9576 662.563 Q58.4761 658.721 64.8187 658.721 Q72.0409 658.721 76.2538 664.461 Q80.4667 670.156 80.4667 680.156 Q80.4667 684.322 79.6334 688.859 Q78.8464 693.35 77.226 698.35 L68.4298 698.35 Q70.8835 693.628 72.1335 689.045 Q73.3372 684.461 73.3372 679.971 Q73.3372 673.952 71.3001 670.711 Q69.2168 667.471 65.4668 667.471 Q61.9946 667.471 60.1428 669.832 Q58.2909 672.147 56.578 680.063 L55.8835 683.026 Q54.2169 690.943 50.791 694.461 Q47.3188 697.98 41.3003 697.98 Q33.9855 697.98 30.0041 692.795 Q26.0226 687.61 26.0226 678.073 Q26.0226 673.35 26.717 669.184 Q27.4115 665.017 28.8004 661.499 Z" fill="#000000" fill-rule="evenodd" fill-opacity="1" /><path clip-path="url(#clip440)" d="M27.2726 645.156 L27.2726 636.638 L79.1242 636.638 L79.1242 645.156 L27.2726 645.156 M7.08751 645.156 L7.08751 636.638 L17.8745 636.638 L17.8745 645.156 L7.08751 645.156 Z" fill="#000000" fill-rule="evenodd" fill-opacity="1" /><path clip-path="url(#clip440)" d="M12.5504 610.388 L27.2726 610.388 L27.2726 592.841 L33.8929 592.841 L33.8929 610.388 L62.0409 610.388 Q68.3835 610.388 70.189 608.675 Q71.9946 606.915 71.9946 601.591 L71.9946 592.841 L79.1242 592.841 L79.1242 601.591 Q79.1242 611.453 75.4668 615.202 Q71.7631 618.952 62.0409 618.952 L33.8929 618.952 L33.8929 625.202 L27.2726 625.202 L27.2726 618.952 L12.5504 618.952 L12.5504 610.388 Z" fill="#000000" fill-rule="evenodd" fill-opacity="1" /><path clip-path="url(#clip440)" d="M83.9389 560.064 Q93.1982 563.675 96.0222 567.101 Q98.8463 570.527 98.8463 576.268 L98.8463 583.073 L91.7167 583.073 L91.7167 578.073 Q91.7167 574.555 90.05 572.61 Q88.3834 570.666 82.1797 568.305 L78.2908 566.777 L27.2726 587.749 L27.2726 578.721 L67.8279 562.518 L27.2726 546.314 L27.2726 537.286 L83.9389 560.064 Z" fill="#000000" fill-rule="evenodd" fill-opacity="1" /><polyline clip-path="url(#clip442)" style="stroke:#009af9; stroke-linecap:round; stroke-linejoin:round; stroke-width:8; stroke-opacity:1; fill:none" points="
  453.699,1338.06 462.918,1338.06 472.137,1338.06 481.355,1338.06 490.574,1338.06 499.793,1338.06 509.011,1338.06 518.23,1338.06 527.449,1338.06 536.668,1338.06 
  545.886,1338.06 555.105,1338.06 564.324,1338.06 573.542,1338.06 582.761,1338.06 591.98,1338.06 601.199,1338.06 610.417,1338.06 619.636,1338.06 628.855,1338.06 
  638.074,1338.06 647.292,1338.06 656.511,1338.06 665.73,1338.06 674.948,1338.06 684.167,1338.06 693.386,1338.06 702.605,1338.06 711.823,1338.06 721.042,1338.06 
  730.261,1338.06 739.479,1338.06 748.698,1338.06 757.917,1338.05 767.136,1338.05 776.354,1338.05 785.573,1338.04 794.792,1338.03 804.011,1338.03 813.229,1338.01 
  822.448,1338 831.667,1337.98 840.885,1337.96 850.104,1337.93 859.323,1337.9 868.542,1337.86 877.76,1337.81 886.979,1337.75 896.198,1337.68 905.416,1337.6 
  914.635,1337.5 923.854,1337.38 933.073,1337.24 942.291,1337.07 951.51,1336.88 960.729,1336.65 969.948,1336.39 979.166,1336.08 988.385,1335.73 997.604,1335.33 
  1006.82,1334.87 1016.04,1334.34 1025.26,1333.74 1034.48,1333.05 1043.7,1332.27 1052.92,1331.4 1062.13,1330.41 1071.35,1329.3 1080.57,1328.06 1089.79,1326.66 
  1099.01,1325.11 1108.23,1323.39 1117.45,1321.47 1126.67,1319.35 1135.88,1317 1145.1,1314.42 1154.32,1311.57 1163.54,1308.45 1172.76,1305.03 1181.98,1301.29 
  1191.2,1297.22 1200.42,1292.78 1209.63,1287.95 1218.85,1282.72 1228.07,1277.06 1237.29,1270.95 1246.51,1264.35 1255.73,1257.25 1264.95,1249.63 1274.17,1241.45 
  1283.38,1232.7 1292.6,1223.35 1301.82,1213.38 1311.04,1202.77 1320.26,1191.49 1329.48,1179.52 1338.7,1166.84 1347.92,1153.45 1357.13,1139.31 1366.35,1124.41 
  1375.57,1108.75 1384.79,1092.3 1394.01,1075.07 1403.23,1057.05 1412.45,1038.23 1421.66,1018.61 1430.88,998.195 1440.1,976.997 1449.32,955.021 1458.54,932.283 
  1467.76,908.8 1476.98,884.595 1486.2,859.694 1495.41,834.129 1504.63,807.935 1513.85,781.152 1523.07,753.826 1532.29,726.008 1541.51,697.751 1550.73,669.118 
  1559.95,640.172 1569.16,610.984 1578.38,581.63 1587.6,552.189 1596.82,522.745 1606.04,493.389 1615.26,464.213 1624.48,435.316 1633.7,406.797 1642.91,378.764 
  1652.13,351.323 1661.35,324.585 1670.57,298.663 1679.79,273.672 1689.01,249.728 1698.23,226.949 1707.45,205.449 1716.66,185.347 1725.88,166.756 1735.1,149.79 
  1744.32,134.56 1753.54,121.17 1762.76,109.726 1771.98,100.322 1781.2,93.0512 1790.41,87.9977 1799.63,85.2381 1808.85,84.8408 1818.07,86.8646 1827.29,91.3583 
  1836.51,98.3596 1845.73,107.894 1854.94,119.976 1864.16,134.605 1873.38,151.767 1882.6,171.434 1891.82,193.565 1901.04,218.099 1910.26,244.965 1919.48,274.073 
  1928.69,305.317 1937.91,338.576 1947.13,373.716 1956.35,410.583 1965.57,449.013 1974.79,488.825 1984.01,529.826 1993.23,571.812 2002.44,614.567 2011.66,657.866 
  2020.88,701.477 2030.1,745.161 2039.32,788.675 2048.54,831.777 2057.76,874.222 2066.98,915.771 2076.19,956.191 2085.41,995.255 2094.63,1032.75 2103.85,1068.48 
  2113.07,1102.26 2122.29,1133.93 2131.51,1163.36 2140.73,1190.43 2149.94,1215.06 2159.16,1237.21 2168.38,1256.86 2177.6,1274.02 2186.82,1288.76 2196.04,1301.16 
  2205.26,1311.35 2214.48,1319.49 2223.69,1325.79 2232.91,1330.44 2242.13,1333.71 2251.35,1335.84 2260.57,1337.1 2269.79,1337.74 2279.01,1338 2288.22,1338.06 
  2297.44,1338.06 
  "/>
<path clip-path="url(#clip442)" d="
M1329.48 1338.06 L1338.7 1338.06 L1347.92 1338.06 L1357.13 1338.06 L1366.35 1338.06 L1375.57 1338.06 L1384.79 1338.06 L1394.01 1338.06 L1403.23 1338.06 L1412.45 1338.06 
  L1421.66 1338.06 L1430.88 1338.06 L1440.1 1338.06 L1449.32 1338.06 L1458.54 1338.06 L1467.76 1338.06 L1476.98 1338.06 L1486.2 1338.06 L1495.41 1338.06 L1504.63 1338.06 
  L1513.85 1338.06 L1523.07 1338.06 L1532.29 1338.06 L1541.51 1338.06 L1550.73 1338.06 L1559.95 1338.06 L1569.16 1338.06 L1578.38 1338.06 L1587.6 1338.06 L1596.82 1338.06 
  L1606.04 1338.06 L1615.26 1338.06 L1624.48 1338.06 L1633.7 1338.06 L1642.91 1338.06 L1652.13 1338.06 L1661.35 1338.06 L1670.57 1338.06 L1679.79 1338.06 L1689.01 1338.06 
  L1698.23 1338.06 L1707.45 1338.06 L1716.66 1338.06 L1725.88 1338.06 L1735.1 1338.06 L1744.32 1338.06 L1753.54 1338.06 L1762.76 1338.06 L1771.98 1338.06 L1781.2 1338.06 
  L1790.41 1338.06 L1799.63 1338.06 L1808.85 1338.06 L1818.07 1338.06 L1827.29 1338.06 L1836.51 1338.06 L1845.73 1338.06 L1854.94 1338.06 L1864.16 1338.06 L1873.38 1338.06 
  L1882.6 1338.06 L1891.82 1338.06 L1901.04 1338.06 L1910.26 1338.06 L1919.48 1338.06 L1928.69 1338.06 L1937.91 1338.06 L1947.13 1338.06 L1956.35 1338.06 L1965.57 1338.06 
  L1974.79 1338.06 L1984.01 1338.06 L1993.23 1338.06 L2002.44 1338.06 L2011.66 1338.06 L2020.88 1338.06 L2030.1 1338.06 L2039.32 1338.06 L2048.54 1338.06 L2057.76 1338.06 
  L2066.98 1338.06 L2076.19 1338.06 L2085.41 1338.06 L2085.41 995.255 L2076.19 956.191 L2066.98 915.771 L2057.76 874.222 L2048.54 831.777 L2039.32 788.675 L2030.1 745.161 
  L2020.88 701.477 L2011.66 657.866 L2002.44 614.567 L1993.23 571.812 L1984.01 529.826 L1974.79 488.825 L1965.57 449.013 L1956.35 410.583 L1947.13 373.716 L1937.91 338.576 
  L1928.69 305.317 L1919.48 274.073 L1910.26 244.965 L1901.04 218.099 L1891.82 193.565 L1882.6 171.434 L1873.38 151.767 L1864.16 134.605 L1854.94 119.976 L1845.73 107.894 
  L1836.51 98.3596 L1827.29 91.3583 L1818.07 86.8646 L1808.85 84.8408 L1799.63 85.2381 L1790.41 87.9977 L1781.2 93.0512 L1771.98 100.322 L1762.76 109.726 L1753.54 121.17 
  L1744.32 134.56 L1735.1 149.79 L1725.88 166.756 L1716.66 185.347 L1707.45 205.449 L1698.23 226.949 L1689.01 249.728 L1679.79 273.672 L1670.57 298.663 L1661.35 324.585 
  L1652.13 351.323 L1642.91 378.764 L1633.7 406.797 L1624.48 435.316 L1615.26 464.213 L1606.04 493.389 L1596.82 522.745 L1587.6 552.189 L1578.38 581.63 L1569.16 610.984 
  L1559.95 640.172 L1550.73 669.118 L1541.51 697.751 L1532.29 726.008 L1523.07 753.826 L1513.85 781.152 L1504.63 807.935 L1495.41 834.129 L1486.2 859.694 L1476.98 884.595 
  L1467.76 908.8 L1458.54 932.283 L1449.32 955.021 L1440.1 976.997 L1430.88 998.195 L1421.66 1018.61 L1412.45 1038.23 L1403.23 1057.05 L1394.01 1075.07 L1384.79 1092.3 
  L1375.57 1108.75 L1366.35 1124.41 L1357.13 1139.31 L1347.92 1153.45 L1338.7 1166.84 L1329.48 1179.52  Z
  " fill="#ff0000" fill-rule="evenodd" fill-opacity="0.2"/>
<polyline clip-path="url(#clip442)" style="stroke:#ff0000; stroke-linecap:round; stroke-linejoin:round; stroke-width:4; stroke-opacity:0.2; fill:none" points="
  1329.48,1338.06 1338.7,1338.06 1347.92,1338.06 1357.13,1338.06 1366.35,1338.06 1375.57,1338.06 1384.79,1338.06 1394.01,1338.06 1403.23,1338.06 1412.45,1338.06 
  1421.66,1338.06 1430.88,1338.06 1440.1,1338.06 1449.32,1338.06 1458.54,1338.06 1467.76,1338.06 1476.98,1338.06 1486.2,1338.06 1495.41,1338.06 1504.63,1338.06 
  1513.85,1338.06 1523.07,1338.06 1532.29,1338.06 1541.51,1338.06 1550.73,1338.06 1559.95,1338.06 1569.16,1338.06 1578.38,1338.06 1587.6,1338.06 1596.82,1338.06 
  1606.04,1338.06 1615.26,1338.06 1624.48,1338.06 1633.7,1338.06 1642.91,1338.06 1652.13,1338.06 1661.35,1338.06 1670.57,1338.06 1679.79,1338.06 1689.01,1338.06 
  1698.23,1338.06 1707.45,1338.06 1716.66,1338.06 1725.88,1338.06 1735.1,1338.06 1744.32,1338.06 1753.54,1338.06 1762.76,1338.06 1771.98,1338.06 1781.2,1338.06 
  1790.41,1338.06 1799.63,1338.06 1808.85,1338.06 1818.07,1338.06 1827.29,1338.06 1836.51,1338.06 1845.73,1338.06 1854.94,1338.06 1864.16,1338.06 1873.38,1338.06 
  1882.6,1338.06 1891.82,1338.06 1901.04,1338.06 1910.26,1338.06 1919.48,1338.06 1928.69,1338.06 1937.91,1338.06 1947.13,1338.06 1956.35,1338.06 1965.57,1338.06 
  1974.79,1338.06 1984.01,1338.06 1993.23,1338.06 2002.44,1338.06 2011.66,1338.06 2020.88,1338.06 2030.1,1338.06 2039.32,1338.06 2048.54,1338.06 2057.76,1338.06 
  2066.98,1338.06 2076.19,1338.06 2085.41,1338.06 
  "/>
<polyline clip-path="url(#clip442)" style="stroke:#ff0000; stroke-linecap:round; stroke-linejoin:round; stroke-width:8; stroke-opacity:1; fill:none" points="
  1808.85,2704.08 1808.85,-1281.17 
  "/>
<path clip-path="url(#clip440)" d="
M463.532 454.405 L1544.54 454.405 L1544.54 91.5246 L463.532 91.5246  Z
  " fill="#ffffff" fill-rule="evenodd" fill-opacity="1"/>
<polyline clip-path="url(#clip440)" style="stroke:#000000; stroke-linecap:round; stroke-linejoin:round; stroke-width:4; stroke-opacity:1; fill:none" points="
  463.532,454.405 1544.54,454.405 1544.54,91.5246 463.532,91.5246 463.532,454.405 
  "/>
<polyline clip-path="url(#clip440)" style="stroke:#009af9; stroke-linecap:round; stroke-linejoin:round; stroke-width:14; stroke-opacity:1; fill:none" points="
  485.248,182.245 615.539,182.245 
  "/>
<path clip-path="url(#clip440)" d="M645.437 158.729 L645.437 181.455 L655.726 181.455 Q661.438 181.455 664.557 178.498 Q667.676 175.54 667.676 170.072 Q667.676 164.643 664.557 161.686 Q661.438 158.729 655.726 158.729 L645.437 158.729 M637.254 152.005 L655.726 152.005 Q665.894 152.005 671.079 156.623 Q676.305 161.2 676.305 170.072 Q676.305 179.024 671.079 183.602 Q665.894 188.179 655.726 188.179 L645.437 188.179 L645.437 212.485 L637.254 212.485 L637.254 152.005 Z" fill="#000000" fill-rule="evenodd" fill-opacity="1" /><path clip-path="url(#clip440)" d="M701.582 172.34 Q695.587 172.34 692.103 177.039 Q688.62 181.698 688.62 189.84 Q688.62 197.982 692.063 202.681 Q695.547 207.34 701.582 207.34 Q707.537 207.34 711.021 202.641 Q714.505 197.942 714.505 189.84 Q714.505 181.779 711.021 177.08 Q707.537 172.34 701.582 172.34 M701.582 166.021 Q711.305 166.021 716.854 172.34 Q722.404 178.66 722.404 189.84 Q722.404 200.98 716.854 207.34 Q711.305 213.659 701.582 213.659 Q691.82 213.659 686.27 207.34 Q680.761 200.98 680.761 189.84 Q680.761 178.66 686.27 172.34 Q691.82 166.021 701.582 166.021 Z" fill="#000000" fill-rule="evenodd" fill-opacity="1" /><path clip-path="url(#clip440)" d="M763.683 168.451 L763.683 175.5 Q760.523 173.88 757.12 173.069 Q753.718 172.259 750.072 172.259 Q744.522 172.259 741.727 173.961 Q738.972 175.662 738.972 179.065 Q738.972 181.657 740.957 183.156 Q742.942 184.614 748.937 185.951 L751.49 186.518 Q759.429 188.22 762.751 191.339 Q766.113 194.418 766.113 199.967 Q766.113 206.287 761.09 209.973 Q756.108 213.659 747.358 213.659 Q743.712 213.659 739.742 212.93 Q735.813 212.242 731.438 210.824 L731.438 203.127 Q735.57 205.274 739.58 206.368 Q743.59 207.421 747.52 207.421 Q752.786 207.421 755.621 205.639 Q758.457 203.816 758.457 200.534 Q758.457 197.496 756.391 195.876 Q754.366 194.256 747.439 192.757 L744.846 192.149 Q737.919 190.691 734.84 187.693 Q731.762 184.655 731.762 179.389 Q731.762 172.988 736.299 169.505 Q740.836 166.021 749.181 166.021 Q753.312 166.021 756.958 166.628 Q760.604 167.236 763.683 168.451 Z" fill="#000000" fill-rule="evenodd" fill-opacity="1" /><path clip-path="url(#clip440)" d="M785.355 154.233 L785.355 167.114 L800.708 167.114 L800.708 172.907 L785.355 172.907 L785.355 197.537 Q785.355 203.087 786.854 204.666 Q788.393 206.246 793.052 206.246 L800.708 206.246 L800.708 212.485 L793.052 212.485 Q784.423 212.485 781.142 209.284 Q777.861 206.044 777.861 197.537 L777.861 172.907 L772.392 172.907 L772.392 167.114 L777.861 167.114 L777.861 154.233 L785.355 154.233 Z" fill="#000000" fill-rule="evenodd" fill-opacity="1" /><path clip-path="url(#clip440)" d="M849.319 187.936 L849.319 191.582 L815.048 191.582 Q815.534 199.279 819.666 203.33 Q823.839 207.34 831.252 207.34 Q835.546 207.34 839.556 206.287 Q843.607 205.234 847.577 203.127 L847.577 210.176 Q843.567 211.877 839.354 212.768 Q835.141 213.659 830.806 213.659 Q819.95 213.659 813.59 207.34 Q807.271 201.021 807.271 190.245 Q807.271 179.105 813.266 172.583 Q819.302 166.021 829.51 166.021 Q838.665 166.021 843.972 171.935 Q849.319 177.809 849.319 187.936 M841.865 185.749 Q841.784 179.632 838.422 175.986 Q835.1 172.34 829.591 172.34 Q823.353 172.34 819.585 175.864 Q815.858 179.389 815.291 185.789 L841.865 185.749 Z" fill="#000000" fill-rule="evenodd" fill-opacity="1" /><path clip-path="url(#clip440)" d="M887.843 174.082 Q886.587 173.353 885.088 173.029 Q883.63 172.664 881.848 172.664 Q875.528 172.664 872.125 176.796 Q868.763 180.888 868.763 188.584 L868.763 212.485 L861.269 212.485 L861.269 167.114 L868.763 167.114 L868.763 174.163 Q871.113 170.031 874.88 168.046 Q878.647 166.021 884.035 166.021 Q884.805 166.021 885.737 166.142 Q886.668 166.223 887.802 166.426 L887.843 174.082 Z" fill="#000000" fill-rule="evenodd" fill-opacity="1" /><path clip-path="url(#clip440)" d="M895.661 167.114 L903.115 167.114 L903.115 212.485 L895.661 212.485 L895.661 167.114 M895.661 149.453 L903.115 149.453 L903.115 158.891 L895.661 158.891 L895.661 149.453 Z" fill="#000000" fill-rule="evenodd" fill-opacity="1" /><path clip-path="url(#clip440)" d="M936.292 172.34 Q930.296 172.34 926.813 177.039 Q923.329 181.698 923.329 189.84 Q923.329 197.982 926.772 202.681 Q930.256 207.34 936.292 207.34 Q942.247 207.34 945.73 202.641 Q949.214 197.942 949.214 189.84 Q949.214 181.779 945.73 177.08 Q942.247 172.34 936.292 172.34 M936.292 166.021 Q946.014 166.021 951.564 172.34 Q957.113 178.66 957.113 189.84 Q957.113 200.98 951.564 207.34 Q946.014 213.659 936.292 213.659 Q926.529 213.659 920.979 207.34 Q915.47 200.98 915.47 189.84 Q915.47 178.66 920.979 172.34 Q926.529 166.021 936.292 166.021 Z" fill="#000000" fill-rule="evenodd" fill-opacity="1" /><path clip-path="url(#clip440)" d="M995.759 174.082 Q994.503 173.353 993.004 173.029 Q991.546 172.664 989.764 172.664 Q983.444 172.664 980.042 176.796 Q976.679 180.888 976.679 188.584 L976.679 212.485 L969.185 212.485 L969.185 167.114 L976.679 167.114 L976.679 174.163 Q979.029 170.031 982.796 168.046 Q986.564 166.021 991.951 166.021 Q992.721 166.021 993.653 166.142 Q994.584 166.223 995.719 166.426 L995.759 174.082 Z" fill="#000000" fill-rule="evenodd" fill-opacity="1" /><path clip-path="url(#clip440)" d="
M485.248 309.253 L615.539 309.253 L615.539 236.677 L485.248 236.677 L485.248 309.253  Z
  " fill="#ff0000" fill-rule="evenodd" fill-opacity="0.2"/>
<polyline clip-path="url(#clip440)" style="stroke:#ff0000; stroke-linecap:round; stroke-linejoin:round; stroke-width:7; stroke-opacity:0.2; fill:none" points="
  485.248,236.677 615.539,236.677 
  "/>
<path clip-path="url(#clip440)" d="M641.143 301.949 L641.143 294.495 Q644.222 295.954 647.381 296.723 Q650.541 297.493 653.579 297.493 Q661.681 297.493 665.934 292.065 Q670.228 286.596 670.836 275.496 Q668.487 278.98 664.881 280.844 Q661.276 282.707 656.901 282.707 Q647.827 282.707 642.52 277.238 Q637.254 271.729 637.254 262.209 Q637.254 252.892 642.763 247.262 Q648.273 241.631 657.428 241.631 Q667.919 241.631 673.429 249.692 Q678.978 257.713 678.978 273.025 Q678.978 287.325 672.173 295.872 Q665.408 304.379 653.944 304.379 Q650.865 304.379 647.705 303.772 Q644.546 303.164 641.143 301.949 M657.428 276.307 Q662.937 276.307 666.137 272.539 Q669.378 268.772 669.378 262.209 Q669.378 255.688 666.137 251.92 Q662.937 248.112 657.428 248.112 Q651.918 248.112 648.678 251.92 Q645.477 255.688 645.477 262.209 Q645.477 268.772 648.678 272.539 Q651.918 276.307 657.428 276.307 Z" fill="#000000" fill-rule="evenodd" fill-opacity="1" /><path clip-path="url(#clip440)" d="M693.764 242.725 L725.888 242.725 L725.888 249.611 L701.258 249.611 L701.258 264.437 Q703.041 263.83 704.823 263.546 Q706.606 263.222 708.388 263.222 Q718.515 263.222 724.43 268.772 Q730.344 274.322 730.344 283.801 Q730.344 293.563 724.267 298.992 Q718.191 304.379 707.132 304.379 Q703.324 304.379 699.354 303.731 Q695.425 303.083 691.212 301.787 L691.212 293.563 Q694.858 295.548 698.747 296.521 Q702.636 297.493 706.97 297.493 Q713.978 297.493 718.07 293.807 Q722.161 290.12 722.161 283.801 Q722.161 277.481 718.07 273.795 Q713.978 270.109 706.97 270.109 Q703.689 270.109 700.408 270.838 Q697.167 271.567 693.764 273.106 L693.764 242.725 Z" fill="#000000" fill-rule="evenodd" fill-opacity="1" /><path clip-path="url(#clip440)" d="M797.913 276.59 Q794.389 276.59 792.363 279.588 Q790.378 282.586 790.378 287.933 Q790.378 293.199 792.363 296.237 Q794.389 299.235 797.913 299.235 Q801.356 299.235 803.341 296.237 Q805.367 293.199 805.367 287.933 Q805.367 282.626 803.341 279.628 Q801.356 276.59 797.913 276.59 M797.913 271.446 Q804.313 271.446 808.081 275.902 Q811.848 280.358 811.848 287.933 Q811.848 295.508 808.04 299.964 Q804.273 304.379 797.913 304.379 Q791.431 304.379 787.664 299.964 Q783.897 295.508 783.897 287.933 Q783.897 280.317 787.664 275.902 Q791.472 271.446 797.913 271.446 M756.108 246.776 Q752.624 246.776 750.598 249.814 Q748.613 252.811 748.613 258.078 Q748.613 263.425 750.598 266.422 Q752.583 269.42 756.108 269.42 Q759.632 269.42 761.617 266.422 Q763.642 263.425 763.642 258.078 Q763.642 252.852 761.617 249.814 Q759.591 246.776 756.108 246.776 M792.687 241.631 L799.169 241.631 L761.333 304.379 L754.852 304.379 L792.687 241.631 M756.108 241.631 Q762.508 241.631 766.316 246.087 Q770.124 250.502 770.124 258.078 Q770.124 265.734 766.316 270.149 Q762.549 274.565 756.108 274.565 Q749.667 274.565 745.899 270.149 Q742.172 265.693 742.172 258.078 Q742.172 250.543 745.94 246.087 Q749.707 241.631 756.108 241.631 Z" fill="#000000" fill-rule="evenodd" fill-opacity="1" /><path clip-path="url(#clip440)" d="M896.228 247.383 L896.228 256.012 Q892.096 252.163 887.397 250.259 Q882.739 248.355 877.473 248.355 Q867.102 248.355 861.593 254.715 Q856.084 261.035 856.084 273.025 Q856.084 284.976 861.593 291.335 Q867.102 297.655 877.473 297.655 Q882.739 297.655 887.397 295.751 Q892.096 293.847 896.228 289.999 L896.228 298.546 Q891.934 301.463 887.114 302.921 Q882.334 304.379 876.987 304.379 Q863.254 304.379 855.355 295.994 Q847.455 287.568 847.455 273.025 Q847.455 258.442 855.355 250.057 Q863.254 241.631 876.987 241.631 Q882.415 241.631 887.195 243.089 Q892.015 244.507 896.228 247.383 Z" fill="#000000" fill-rule="evenodd" fill-opacity="1" /><path clip-path="url(#clip440)" d="M934.833 264.802 Q933.578 264.073 932.079 263.749 Q930.621 263.384 928.838 263.384 Q922.519 263.384 919.116 267.516 Q915.754 271.608 915.754 279.304 L915.754 303.205 L908.26 303.205 L908.26 257.834 L915.754 257.834 L915.754 264.883 Q918.103 260.751 921.871 258.766 Q925.638 256.741 931.026 256.741 Q931.795 256.741 932.727 256.862 Q933.659 256.943 934.793 257.146 L934.833 264.802 Z" fill="#000000" fill-rule="evenodd" fill-opacity="1" /><path clip-path="url(#clip440)" d="M979.636 278.656 L979.636 282.302 L945.366 282.302 Q945.852 289.999 949.984 294.05 Q954.156 298.06 961.569 298.06 Q965.863 298.06 969.874 297.007 Q973.925 295.954 977.895 293.847 L977.895 300.896 Q973.884 302.597 969.671 303.488 Q965.458 304.379 961.124 304.379 Q950.267 304.379 943.908 298.06 Q937.588 291.741 937.588 280.965 Q937.588 269.825 943.583 263.303 Q949.619 256.741 959.828 256.741 Q968.983 256.741 974.289 262.655 Q979.636 268.529 979.636 278.656 M972.183 276.469 Q972.102 270.352 968.74 266.706 Q965.418 263.06 959.909 263.06 Q953.67 263.06 949.903 266.584 Q946.176 270.109 945.609 276.509 L972.183 276.469 Z" fill="#000000" fill-rule="evenodd" fill-opacity="1" /><path clip-path="url(#clip440)" d="M1021.73 264.721 L1021.73 240.173 L1029.18 240.173 L1029.18 303.205 L1021.73 303.205 L1021.73 296.399 Q1019.38 300.45 1015.77 302.435 Q1012.21 304.379 1007.18 304.379 Q998.959 304.379 993.774 297.817 Q988.629 291.254 988.629 280.56 Q988.629 269.866 993.774 263.303 Q998.959 256.741 1007.18 256.741 Q1012.21 256.741 1015.77 258.726 Q1019.38 260.67 1021.73 264.721 M996.326 280.56 Q996.326 288.783 999.688 293.482 Q1003.09 298.141 1009.01 298.141 Q1014.92 298.141 1018.32 293.482 Q1021.73 288.783 1021.73 280.56 Q1021.73 272.337 1018.32 267.678 Q1014.92 262.979 1009.01 262.979 Q1003.09 262.979 999.688 267.678 Q996.326 272.337 996.326 280.56 Z" fill="#000000" fill-rule="evenodd" fill-opacity="1" /><path clip-path="url(#clip440)" d="M1044.53 257.834 L1051.99 257.834 L1051.99 303.205 L1044.53 303.205 L1044.53 257.834 M1044.53 240.173 L1051.99 240.173 L1051.99 249.611 L1044.53 249.611 L1044.53 240.173 Z" fill="#000000" fill-rule="evenodd" fill-opacity="1" /><path clip-path="url(#clip440)" d="M1100.15 280.56 Q1100.15 272.337 1096.75 267.678 Q1093.39 262.979 1087.47 262.979 Q1081.56 262.979 1078.15 267.678 Q1074.79 272.337 1074.79 280.56 Q1074.79 288.783 1078.15 293.482 Q1081.56 298.141 1087.47 298.141 Q1093.39 298.141 1096.75 293.482 Q1100.15 288.783 1100.15 280.56 M1074.79 264.721 Q1077.14 260.67 1080.71 258.726 Q1084.31 256.741 1089.29 256.741 Q1097.56 256.741 1102.7 263.303 Q1107.89 269.866 1107.89 280.56 Q1107.89 291.254 1102.7 297.817 Q1097.56 304.379 1089.29 304.379 Q1084.31 304.379 1080.71 302.435 Q1077.14 300.45 1074.79 296.399 L1074.79 303.205 L1067.3 303.205 L1067.3 240.173 L1074.79 240.173 L1074.79 264.721 Z" fill="#000000" fill-rule="evenodd" fill-opacity="1" /><path clip-path="url(#clip440)" d="M1120.24 240.173 L1127.7 240.173 L1127.7 303.205 L1120.24 303.205 L1120.24 240.173 Z" fill="#000000" fill-rule="evenodd" fill-opacity="1" /><path clip-path="url(#clip440)" d="M1182.1 278.656 L1182.1 282.302 L1147.83 282.302 Q1148.32 289.999 1152.45 294.05 Q1156.62 298.06 1164.03 298.06 Q1168.33 298.06 1172.34 297.007 Q1176.39 295.954 1180.36 293.847 L1180.36 300.896 Q1176.35 302.597 1172.14 303.488 Q1167.92 304.379 1163.59 304.379 Q1152.73 304.379 1146.37 298.06 Q1140.05 291.741 1140.05 280.965 Q1140.05 269.825 1146.05 263.303 Q1152.08 256.741 1162.29 256.741 Q1171.45 256.741 1176.75 262.655 Q1182.1 268.529 1182.1 278.656 M1174.65 276.469 Q1174.57 270.352 1171.2 266.706 Q1167.88 263.06 1162.37 263.06 Q1156.13 263.06 1152.37 266.584 Q1148.64 270.109 1148.07 276.509 L1174.65 276.469 Z" fill="#000000" fill-rule="evenodd" fill-opacity="1" /><path clip-path="url(#clip440)" d="M1221.03 242.725 L1229.21 242.725 L1229.21 303.205 L1221.03 303.205 L1221.03 242.725 Z" fill="#000000" fill-rule="evenodd" fill-opacity="1" /><path clip-path="url(#clip440)" d="M1282.89 275.821 L1282.89 303.205 L1275.43 303.205 L1275.43 276.064 Q1275.43 269.623 1272.92 266.422 Q1270.41 263.222 1265.39 263.222 Q1259.35 263.222 1255.87 267.071 Q1252.38 270.919 1252.38 277.562 L1252.38 303.205 L1244.89 303.205 L1244.89 257.834 L1252.38 257.834 L1252.38 264.883 Q1255.06 260.792 1258.66 258.766 Q1262.31 256.741 1267.05 256.741 Q1274.87 256.741 1278.88 261.602 Q1282.89 266.422 1282.89 275.821 Z" fill="#000000" fill-rule="evenodd" fill-opacity="1" /><path clip-path="url(#clip440)" d="M1305.13 244.953 L1305.13 257.834 L1320.48 257.834 L1320.48 263.627 L1305.13 263.627 L1305.13 288.257 Q1305.13 293.807 1306.63 295.386 Q1308.16 296.966 1312.82 296.966 L1320.48 296.966 L1320.48 303.205 L1312.82 303.205 Q1304.19 303.205 1300.91 300.004 Q1297.63 296.764 1297.63 288.257 L1297.63 263.627 L1292.16 263.627 L1292.16 257.834 L1297.63 257.834 L1297.63 244.953 L1305.13 244.953 Z" fill="#000000" fill-rule="evenodd" fill-opacity="1" /><path clip-path="url(#clip440)" d="M1369.09 278.656 L1369.09 282.302 L1334.82 282.302 Q1335.31 289.999 1339.44 294.05 Q1343.61 298.06 1351.02 298.06 Q1355.32 298.06 1359.33 297.007 Q1363.38 295.954 1367.35 293.847 L1367.35 300.896 Q1363.34 302.597 1359.13 303.488 Q1354.91 304.379 1350.58 304.379 Q1339.72 304.379 1333.36 298.06 Q1327.04 291.741 1327.04 280.965 Q1327.04 269.825 1333.04 263.303 Q1339.07 256.741 1349.28 256.741 Q1358.44 256.741 1363.74 262.655 Q1369.09 268.529 1369.09 278.656 M1361.64 276.469 Q1361.56 270.352 1358.19 266.706 Q1354.87 263.06 1349.36 263.06 Q1343.12 263.06 1339.36 266.584 Q1335.63 270.109 1335.06 276.509 L1361.64 276.469 Z" fill="#000000" fill-rule="evenodd" fill-opacity="1" /><path clip-path="url(#clip440)" d="M1407.61 264.802 Q1406.36 264.073 1404.86 263.749 Q1403.4 263.384 1401.62 263.384 Q1395.3 263.384 1391.9 267.516 Q1388.53 271.608 1388.53 279.304 L1388.53 303.205 L1381.04 303.205 L1381.04 257.834 L1388.53 257.834 L1388.53 264.883 Q1390.88 260.751 1394.65 258.766 Q1398.42 256.741 1403.81 256.741 Q1404.58 256.741 1405.51 256.862 Q1406.44 256.943 1407.57 257.146 L1407.61 264.802 Z" fill="#000000" fill-rule="evenodd" fill-opacity="1" /><path clip-path="url(#clip440)" d="M1410.09 257.834 L1417.98 257.834 L1432.16 295.913 L1446.34 257.834 L1454.24 257.834 L1437.23 303.205 L1427.1 303.205 L1410.09 257.834 Z" fill="#000000" fill-rule="evenodd" fill-opacity="1" /><path clip-path="url(#clip440)" d="M1485.15 280.398 Q1476.12 280.398 1472.63 282.464 Q1469.15 284.53 1469.15 289.513 Q1469.15 293.482 1471.74 295.832 Q1474.37 298.141 1478.87 298.141 Q1485.07 298.141 1488.79 293.766 Q1492.56 289.351 1492.56 282.059 L1492.56 280.398 L1485.15 280.398 M1500.02 277.319 L1500.02 303.205 L1492.56 303.205 L1492.56 296.318 Q1490.01 300.45 1486.2 302.435 Q1482.39 304.379 1476.88 304.379 Q1469.92 304.379 1465.79 300.491 Q1461.69 296.561 1461.69 289.999 Q1461.69 282.342 1466.8 278.454 Q1471.94 274.565 1482.11 274.565 L1492.56 274.565 L1492.56 273.836 Q1492.56 268.691 1489.16 265.896 Q1485.8 263.06 1479.68 263.06 Q1475.79 263.06 1472.1 263.992 Q1468.42 264.924 1465.02 266.787 L1465.02 259.9 Q1469.11 258.321 1472.96 257.551 Q1476.8 256.741 1480.45 256.741 Q1490.29 256.741 1495.15 261.845 Q1500.02 266.949 1500.02 277.319 Z" fill="#000000" fill-rule="evenodd" fill-opacity="1" /><path clip-path="url(#clip440)" d="M1515.37 240.173 L1522.82 240.173 L1522.82 303.205 L1515.37 303.205 L1515.37 240.173 Z" fill="#000000" fill-rule="evenodd" fill-opacity="1" /><polyline clip-path="url(#clip440)" style="stroke:#ff0000; stroke-linecap:round; stroke-linejoin:round; stroke-width:14; stroke-opacity:1; fill:none" points="
  485.248,363.685 615.539,363.685 
  "/>
<path clip-path="url(#clip440)" d="M637.254 333.445 L649.447 333.445 L664.881 374.602 L680.396 333.445 L692.589 333.445 L692.589 393.925 L684.609 393.925 L684.609 340.817 L669.013 382.299 L660.79 382.299 L645.194 340.817 L645.194 393.925 L637.254 393.925 L637.254 333.445 Z" fill="#000000" fill-rule="evenodd" fill-opacity="1" /><path clip-path="url(#clip440)" d="M729.048 341.506 L717.948 371.604 L740.188 371.604 L729.048 341.506 M724.43 333.445 L733.706 333.445 L756.756 393.925 L748.249 393.925 L742.74 378.41 L715.477 378.41 L709.968 393.925 L701.339 393.925 L724.43 333.445 Z" fill="#000000" fill-rule="evenodd" fill-opacity="1" /><path clip-path="url(#clip440)" d="M773.77 340.169 L773.77 362.895 L784.059 362.895 Q789.771 362.895 792.89 359.938 Q796.009 356.98 796.009 351.512 Q796.009 346.083 792.89 343.126 Q789.771 340.169 784.059 340.169 L773.77 340.169 M765.587 333.445 L784.059 333.445 Q794.227 333.445 799.412 338.063 Q804.637 342.64 804.637 351.512 Q804.637 360.464 799.412 365.042 Q794.227 369.619 784.059 369.619 L773.77 369.619 L773.77 393.925 L765.587 393.925 L765.587 333.445 Z" fill="#000000" fill-rule="evenodd" fill-opacity="1" /><path clip-path="url(#clip440)" d="M841.987 333.445 L880.227 333.445 L880.227 340.331 L850.17 340.331 L850.17 358.236 L878.972 358.236 L878.972 365.123 L850.17 365.123 L850.17 387.038 L880.956 387.038 L880.956 393.925 L841.987 393.925 L841.987 333.445 Z" fill="#000000" fill-rule="evenodd" fill-opacity="1" /><path clip-path="url(#clip440)" d="M923.005 349.891 L923.005 356.94 Q919.845 355.32 916.442 354.509 Q913.04 353.699 909.394 353.699 Q903.844 353.699 901.049 355.401 Q898.294 357.102 898.294 360.505 Q898.294 363.097 900.279 364.596 Q902.264 366.054 908.26 367.391 L910.812 367.958 Q918.751 369.66 922.073 372.779 Q925.435 375.858 925.435 381.407 Q925.435 387.727 920.412 391.413 Q915.43 395.099 906.68 395.099 Q903.034 395.099 899.064 394.37 Q895.135 393.682 890.76 392.264 L890.76 384.567 Q894.892 386.714 898.902 387.808 Q902.912 388.861 906.842 388.861 Q912.108 388.861 914.944 387.079 Q917.779 385.256 917.779 381.974 Q917.779 378.936 915.713 377.316 Q913.688 375.696 906.761 374.197 L904.168 373.589 Q897.241 372.131 894.162 369.133 Q891.084 366.095 891.084 360.829 Q891.084 354.428 895.621 350.945 Q900.158 347.461 908.503 347.461 Q912.635 347.461 916.28 348.068 Q919.926 348.676 923.005 349.891 Z" fill="#000000" fill-rule="evenodd" fill-opacity="1" /><path clip-path="url(#clip440)" d="M944.677 335.673 L944.677 348.554 L960.03 348.554 L960.03 354.347 L944.677 354.347 L944.677 378.977 Q944.677 384.527 946.176 386.106 Q947.715 387.686 952.374 387.686 L960.03 387.686 L960.03 393.925 L952.374 393.925 Q943.745 393.925 940.464 390.724 Q937.183 387.484 937.183 378.977 L937.183 354.347 L931.714 354.347 L931.714 348.554 L937.183 348.554 L937.183 335.673 L944.677 335.673 Z" fill="#000000" fill-rule="evenodd" fill-opacity="1" /><path clip-path="url(#clip440)" d="M969.833 348.554 L977.287 348.554 L977.287 393.925 L969.833 393.925 L969.833 348.554 M969.833 330.893 L977.287 330.893 L977.287 340.331 L969.833 340.331 L969.833 330.893 Z" fill="#000000" fill-rule="evenodd" fill-opacity="1" /><path clip-path="url(#clip440)" d="M1028.21 357.264 Q1031 352.241 1034.89 349.851 Q1038.78 347.461 1044.05 347.461 Q1051.13 347.461 1054.98 352.443 Q1058.83 357.385 1058.83 366.541 L1058.83 393.925 L1051.34 393.925 L1051.34 366.784 Q1051.34 360.262 1049.03 357.102 Q1046.72 353.942 1041.98 353.942 Q1036.19 353.942 1032.82 357.791 Q1029.46 361.639 1029.46 368.282 L1029.46 393.925 L1021.97 393.925 L1021.97 366.784 Q1021.97 360.221 1019.66 357.102 Q1017.35 353.942 1012.53 353.942 Q1006.82 353.942 1003.46 357.831 Q1000.09 361.679 1000.09 368.282 L1000.09 393.925 L992.599 393.925 L992.599 348.554 L1000.09 348.554 L1000.09 355.603 Q1002.65 351.431 1006.21 349.446 Q1009.78 347.461 1014.68 347.461 Q1019.62 347.461 1023.06 349.972 Q1026.55 352.484 1028.21 357.264 Z" fill="#000000" fill-rule="evenodd" fill-opacity="1" /><path clip-path="url(#clip440)" d="M1094.32 371.118 Q1085.28 371.118 1081.8 373.184 Q1078.32 375.25 1078.32 380.233 Q1078.32 384.202 1080.91 386.552 Q1083.54 388.861 1088.04 388.861 Q1094.24 388.861 1097.96 384.486 Q1101.73 380.071 1101.73 372.779 L1101.73 371.118 L1094.32 371.118 M1109.18 368.039 L1109.18 393.925 L1101.73 393.925 L1101.73 387.038 Q1099.18 391.17 1095.37 393.155 Q1091.56 395.099 1086.05 395.099 Q1079.09 395.099 1074.95 391.211 Q1070.86 387.281 1070.86 380.719 Q1070.86 373.062 1075.97 369.174 Q1081.11 365.285 1091.28 365.285 L1101.73 365.285 L1101.73 364.556 Q1101.73 359.411 1098.33 356.616 Q1094.97 353.78 1088.85 353.78 Q1084.96 353.78 1081.27 354.712 Q1077.59 355.644 1074.18 357.507 L1074.18 350.62 Q1078.28 349.041 1082.12 348.271 Q1085.97 347.461 1089.62 347.461 Q1099.46 347.461 1104.32 352.565 Q1109.18 357.669 1109.18 368.039 Z" fill="#000000" fill-rule="evenodd" fill-opacity="1" /><path clip-path="url(#clip440)" d="M1131.91 335.673 L1131.91 348.554 L1147.26 348.554 L1147.26 354.347 L1131.91 354.347 L1131.91 378.977 Q1131.91 384.527 1133.41 386.106 Q1134.95 387.686 1139.61 387.686 L1147.26 387.686 L1147.26 393.925 L1139.61 393.925 Q1130.98 393.925 1127.7 390.724 Q1124.42 387.484 1124.42 378.977 L1124.42 354.347 L1118.95 354.347 L1118.95 348.554 L1124.42 348.554 L1124.42 335.673 L1131.91 335.673 Z" fill="#000000" fill-rule="evenodd" fill-opacity="1" /><path clip-path="url(#clip440)" d="M1195.87 369.376 L1195.87 373.022 L1161.6 373.022 Q1162.09 380.719 1166.22 384.77 Q1170.39 388.78 1177.81 388.78 Q1182.1 388.78 1186.11 387.727 Q1190.16 386.674 1194.13 384.567 L1194.13 391.616 Q1190.12 393.317 1185.91 394.208 Q1181.7 395.099 1177.36 395.099 Q1166.5 395.099 1160.14 388.78 Q1153.83 382.461 1153.83 371.685 Q1153.83 360.545 1159.82 354.023 Q1165.86 347.461 1176.06 347.461 Q1185.22 347.461 1190.53 353.375 Q1195.87 359.249 1195.87 369.376 M1188.42 367.189 Q1188.34 361.072 1184.98 357.426 Q1181.66 353.78 1176.15 353.78 Q1169.91 353.78 1166.14 357.304 Q1162.41 360.829 1161.85 367.229 L1188.42 367.189 Z" fill="#000000" fill-rule="evenodd" fill-opacity="1" /></svg>
