<?xml version="1.0" encoding="utf-8"?>
<svg xmlns="http://www.w3.org/2000/svg" xmlns:xlink="http://www.w3.org/1999/xlink" width="600" height="400" viewBox="0 0 2400 1600">
<defs>
  <clipPath id="clip340">
    <rect x="0" y="0" width="2400" height="1600"/>
  </clipPath>
</defs>
<path clip-path="url(#clip340)" d="
M0 1600 L2400 1600 L2400 0 L0 0  Z
  " fill="#ffffff" fill-rule="evenodd" fill-opacity="1"/>
<defs>
  <clipPath id="clip341">
    <rect x="480" y="0" width="1681" height="1600"/>
  </clipPath>
</defs>
<defs>
  <clipPath id="clip342">
    <rect x="398" y="47" width="1955" height="1329"/>
  </clipPath>
</defs>
<path clip-path="url(#clip340)" d="
M398.387 1375.66 L2352.76 1375.66 L2352.76 47.2441 L398.387 47.2441  Z
  " fill="#ffffff" fill-rule="evenodd" fill-opacity="1"/>
<polyline clip-path="url(#clip342)" style="stroke:#000000; stroke-linecap:round; stroke-linejoin:round; stroke-width:2; stroke-opacity:0.1; fill:none" points="
  453.699,1375.66 453.699,47.2441 
  "/>
<polyline clip-path="url(#clip342)" style="stroke:#000000; stroke-linecap:round; stroke-linejoin:round; stroke-width:2; stroke-opacity:0.1; fill:none" points="
  914.635,1375.66 914.635,47.2441 
  "/>
<polyline clip-path="url(#clip342)" style="stroke:#000000; stroke-linecap:round; stroke-linejoin:round; stroke-width:2; stroke-opacity:0.1; fill:none" points="
  1375.57,1375.66 1375.57,47.2441 
  "/>
<polyline clip-path="url(#clip342)" style="stroke:#000000; stroke-linecap:round; stroke-linejoin:round; stroke-width:2; stroke-opacity:0.1; fill:none" points="
  1836.51,1375.66 1836.51,47.2441 
  "/>
<polyline clip-path="url(#clip342)" style="stroke:#000000; stroke-linecap:round; stroke-linejoin:round; stroke-width:2; stroke-opacity:0.1; fill:none" points="
  2297.44,1375.66 2297.44,47.2441 
  "/>
<polyline clip-path="url(#clip340)" style="stroke:#000000; stroke-linecap:round; stroke-linejoin:round; stroke-width:4; stroke-opacity:1; fill:none" points="
  398.387,1375.66 2352.76,1375.66 
  "/>
<polyline clip-path="url(#clip340)" style="stroke:#000000; stroke-linecap:round; stroke-linejoin:round; stroke-width:4; stroke-opacity:1; fill:none" points="
  453.699,1375.66 453.699,1356.76 
  "/>
<polyline clip-path="url(#clip340)" style="stroke:#000000; stroke-linecap:round; stroke-linejoin:round; stroke-width:4; stroke-opacity:1; fill:none" points="
  914.635,1375.66 914.635,1356.76 
  "/>
<polyline clip-path="url(#clip340)" style="stroke:#000000; stroke-linecap:round; stroke-linejoin:round; stroke-width:4; stroke-opacity:1; fill:none" points="
  1375.57,1375.66 1375.57,1356.76 
  "/>
<polyline clip-path="url(#clip340)" style="stroke:#000000; stroke-linecap:round; stroke-linejoin:round; stroke-width:4; stroke-opacity:1; fill:none" points="
  1836.51,1375.66 1836.51,1356.76 
  "/>
<polyline clip-path="url(#clip340)" style="stroke:#000000; stroke-linecap:round; stroke-linejoin:round; stroke-width:4; stroke-opacity:1; fill:none" points="
  2297.44,1375.66 2297.44,1356.76 
  "/>
<path clip-path="url(#clip340)" d="M387.73 1415.37 Q381.411 1415.37 378.21 1421.61 Q375.051 1427.8 375.051 1440.28 Q375.051 1452.72 378.21 1458.96 Q381.411 1465.15 387.73 1465.15 Q394.09 1465.15 397.25 1458.96 Q400.45 1452.72 400.45 1440.28 Q400.45 1427.8 397.25 1421.61 Q394.09 1415.37 387.73 1415.37 M387.73 1408.89 Q397.898 1408.89 403.245 1416.95 Q408.633 1424.97 408.633 1440.28 Q408.633 1455.55 403.245 1463.61 Q397.898 1471.63 387.73 1471.63 Q377.562 1471.63 372.175 1463.61 Q366.827 1455.55 366.827 1440.28 Q366.827 1424.97 372.175 1416.95 Q377.562 1408.89 387.73 1408.89 Z" fill="#000000" fill-rule="evenodd" fill-opacity="1" /><path clip-path="url(#clip340)" d="M423.013 1460.17 L431.561 1460.17 L431.561 1470.46 L423.013 1470.46 L423.013 1460.17 Z" fill="#000000" fill-rule="evenodd" fill-opacity="1" /><path clip-path="url(#clip340)" d="M466.885 1415.37 Q460.565 1415.37 457.365 1421.61 Q454.205 1427.8 454.205 1440.28 Q454.205 1452.72 457.365 1458.96 Q460.565 1465.15 466.885 1465.15 Q473.245 1465.15 476.404 1458.96 Q479.605 1452.72 479.605 1440.28 Q479.605 1427.8 476.404 1421.61 Q473.245 1415.37 466.885 1415.37 M466.885 1408.89 Q477.053 1408.89 482.4 1416.95 Q487.787 1424.97 487.787 1440.28 Q487.787 1455.55 482.4 1463.61 Q477.053 1471.63 466.885 1471.63 Q456.717 1471.63 451.329 1463.61 Q445.982 1455.55 445.982 1440.28 Q445.982 1424.97 451.329 1416.95 Q456.717 1408.89 466.885 1408.89 Z" fill="#000000" fill-rule="evenodd" fill-opacity="1" /><path clip-path="url(#clip340)" d="M519.668 1415.37 Q513.349 1415.37 510.148 1421.61 Q506.989 1427.8 506.989 1440.28 Q506.989 1452.72 510.148 1458.96 Q513.349 1465.15 519.668 1465.15 Q526.028 1465.15 529.188 1458.96 Q532.388 1452.72 532.388 1440.28 Q532.388 1427.8 529.188 1421.61 Q526.028 1415.37 519.668 1415.37 M519.668 1408.89 Q529.836 1408.89 535.183 1416.95 Q540.571 1424.97 540.571 1440.28 Q540.571 1455.55 535.183 1463.61 Q529.836 1471.63 519.668 1471.63 Q509.5 1471.63 504.113 1463.61 Q498.765 1455.55 498.765 1440.28 Q498.765 1424.97 504.113 1416.95 Q509.5 1408.89 519.668 1408.89 Z" fill="#000000" fill-rule="evenodd" fill-opacity="1" /><path clip-path="url(#clip340)" d="M849.537 1415.37 Q843.218 1415.37 840.018 1421.61 Q836.858 1427.8 836.858 1440.28 Q836.858 1452.72 840.018 1458.96 Q843.218 1465.15 849.537 1465.15 Q855.897 1465.15 859.057 1458.96 Q862.257 1452.72 862.257 1440.28 Q862.257 1427.8 859.057 1421.61 Q855.897 1415.37 849.537 1415.37 M849.537 1408.89 Q859.705 1408.89 865.052 1416.95 Q870.44 1424.97 870.44 1440.28 Q870.44 1455.55 865.052 1463.61 Q859.705 1471.63 849.537 1471.63 Q839.369 1471.63 833.982 1463.61 Q828.634 1455.55 828.634 1440.28 Q828.634 1424.97 833.982 1416.95 Q839.369 1408.89 849.537 1408.89 Z" fill="#000000" fill-rule="evenodd" fill-opacity="1" /><path clip-path="url(#clip340)" d="M884.821 1460.17 L893.368 1460.17 L893.368 1470.46 L884.821 1470.46 L884.821 1460.17 Z" fill="#000000" fill-rule="evenodd" fill-opacity="1" /><path clip-path="url(#clip340)" d="M918.24 1463.57 L946.799 1463.57 L946.799 1470.46 L908.397 1470.46 L908.397 1463.57 Q913.055 1458.75 921.076 1450.65 Q929.137 1442.51 931.203 1440.16 Q935.133 1435.74 936.672 1432.71 Q938.252 1429.63 938.252 1426.67 Q938.252 1421.85 934.849 1418.81 Q931.487 1415.77 926.059 1415.77 Q922.21 1415.77 917.916 1417.11 Q913.663 1418.45 908.802 1421.16 L908.802 1412.9 Q913.744 1410.91 918.038 1409.9 Q922.332 1408.89 925.897 1408.89 Q935.295 1408.89 940.885 1413.59 Q946.475 1418.28 946.475 1426.14 Q946.475 1429.87 945.057 1433.23 Q943.68 1436.55 939.994 1441.09 Q938.981 1442.27 933.553 1447.9 Q928.125 1453.49 918.24 1463.57 Z" fill="#000000" fill-rule="evenodd" fill-opacity="1" /><path clip-path="url(#clip340)" d="M964.056 1409.98 L996.18 1409.98 L996.18 1416.87 L971.55 1416.87 L971.55 1431.69 Q973.333 1431.09 975.115 1430.8 Q976.898 1430.48 978.68 1430.48 Q988.807 1430.48 994.722 1436.03 Q1000.64 1441.58 1000.64 1451.06 Q1000.64 1460.82 994.56 1466.25 Q988.483 1471.63 977.424 1471.63 Q973.616 1471.63 969.646 1470.99 Q965.717 1470.34 961.504 1469.04 L961.504 1460.82 Q965.15 1462.8 969.039 1463.78 Q972.928 1464.75 977.262 1464.75 Q984.27 1464.75 988.362 1461.06 Q992.453 1457.38 992.453 1451.06 Q992.453 1444.74 988.362 1441.05 Q984.27 1437.36 977.262 1437.36 Q973.981 1437.36 970.7 1438.09 Q967.459 1438.82 964.056 1440.36 L964.056 1409.98 Z" fill="#000000" fill-rule="evenodd" fill-opacity="1" /><path clip-path="url(#clip340)" d="M1309.6 1415.37 Q1303.28 1415.37 1300.08 1421.61 Q1296.92 1427.8 1296.92 1440.28 Q1296.92 1452.72 1300.08 1458.96 Q1303.28 1465.15 1309.6 1465.15 Q1315.96 1465.15 1319.12 1458.96 Q1322.32 1452.72 1322.32 1440.28 Q1322.32 1427.8 1319.12 1421.61 Q1315.96 1415.37 1309.6 1415.37 M1309.6 1408.89 Q1319.77 1408.89 1325.12 1416.95 Q1330.51 1424.97 1330.51 1440.28 Q1330.51 1455.55 1325.12 1463.61 Q1319.77 1471.63 1309.6 1471.63 Q1299.43 1471.63 1294.05 1463.61 Q1288.7 1455.55 1288.7 1440.28 Q1288.7 1424.97 1294.05 1416.95 Q1299.43 1408.89 1309.6 1408.89 Z" fill="#000000" fill-rule="evenodd" fill-opacity="1" /><path clip-path="url(#clip340)" d="M1344.89 1460.17 L1353.43 1460.17 L1353.43 1470.46 L1344.89 1470.46 L1344.89 1460.17 Z" fill="#000000" fill-rule="evenodd" fill-opacity="1" /><path clip-path="url(#clip340)" d="M1371.34 1409.98 L1403.46 1409.98 L1403.46 1416.87 L1378.83 1416.87 L1378.83 1431.69 Q1380.61 1431.09 1382.4 1430.8 Q1384.18 1430.48 1385.96 1430.48 Q1396.09 1430.48 1402 1436.03 Q1407.92 1441.58 1407.92 1451.06 Q1407.92 1460.82 1401.84 1466.25 Q1395.77 1471.63 1384.71 1471.63 Q1380.9 1471.63 1376.93 1470.99 Q1373 1470.34 1368.79 1469.04 L1368.79 1460.82 Q1372.43 1462.8 1376.32 1463.78 Q1380.21 1464.75 1384.54 1464.75 Q1391.55 1464.75 1395.64 1461.06 Q1399.73 1457.38 1399.73 1451.06 Q1399.73 1444.74 1395.64 1441.05 Q1391.55 1437.36 1384.54 1437.36 Q1381.26 1437.36 1377.98 1438.09 Q1374.74 1438.82 1371.34 1440.36 L1371.34 1409.98 Z" fill="#000000" fill-rule="evenodd" fill-opacity="1" /><path clip-path="url(#clip340)" d="M1441.54 1415.37 Q1435.22 1415.37 1432.02 1421.61 Q1428.86 1427.8 1428.86 1440.28 Q1428.86 1452.72 1432.02 1458.96 Q1435.22 1465.15 1441.54 1465.15 Q1447.9 1465.15 1451.06 1458.96 Q1454.26 1452.72 1454.26 1440.28 Q1454.26 1427.8 1451.06 1421.61 Q1447.9 1415.37 1441.54 1415.37 M1441.54 1408.89 Q1451.71 1408.89 1457.06 1416.95 Q1462.44 1424.97 1462.44 1440.28 Q1462.44 1455.55 1457.06 1463.61 Q1451.71 1471.63 1441.54 1471.63 Q1431.37 1471.63 1425.98 1463.61 Q1420.64 1455.55 1420.64 1440.28 Q1420.64 1424.97 1425.98 1416.95 Q1431.37 1408.89 1441.54 1408.89 Z" fill="#000000" fill-rule="evenodd" fill-opacity="1" /><path clip-path="url(#clip340)" d="M1771.41 1415.37 Q1765.09 1415.37 1761.89 1421.61 Q1758.73 1427.8 1758.73 1440.28 Q1758.73 1452.72 1761.89 1458.96 Q1765.09 1465.15 1771.41 1465.15 Q1777.77 1465.15 1780.93 1458.96 Q1784.13 1452.72 1784.13 1440.28 Q1784.13 1427.8 1780.93 1421.61 Q1777.77 1415.37 1771.41 1415.37 M1771.41 1408.89 Q1781.58 1408.89 1786.92 1416.95 Q1792.31 1424.97 1792.31 1440.28 Q1792.31 1455.55 1786.92 1463.61 Q1781.58 1471.63 1771.41 1471.63 Q1761.24 1471.63 1755.85 1463.61 Q1750.51 1455.55 1750.51 1440.28 Q1750.51 1424.97 1755.85 1416.95 Q1761.24 1408.89 1771.41 1408.89 Z" fill="#000000" fill-rule="evenodd" fill-opacity="1" /><path clip-path="url(#clip340)" d="M1806.69 1460.17 L1815.24 1460.17 L1815.24 1470.46 L1806.69 1470.46 L1806.69 1460.17 Z" fill="#000000" fill-rule="evenodd" fill-opacity="1" /><path clip-path="url(#clip340)" d="M1831 1409.98 L1869.89 1409.98 L1869.89 1413.46 L1847.93 1470.46 L1839.38 1470.46 L1860.04 1416.87 L1831 1416.87 L1831 1409.98 Z" fill="#000000" fill-rule="evenodd" fill-opacity="1" /><path clip-path="url(#clip340)" d="M1885.93 1409.98 L1918.05 1409.98 L1918.05 1416.87 L1893.42 1416.87 L1893.42 1431.69 Q1895.21 1431.09 1896.99 1430.8 Q1898.77 1430.48 1900.55 1430.48 Q1910.68 1430.48 1916.59 1436.03 Q1922.51 1441.58 1922.51 1451.06 Q1922.51 1460.82 1916.43 1466.25 Q1910.36 1471.63 1899.3 1471.63 Q1895.49 1471.63 1891.52 1470.99 Q1887.59 1470.34 1883.38 1469.04 L1883.38 1460.82 Q1887.02 1462.8 1890.91 1463.78 Q1894.8 1464.75 1899.13 1464.75 Q1906.14 1464.75 1910.23 1461.06 Q1914.33 1457.38 1914.33 1451.06 Q1914.33 1444.74 1910.23 1441.05 Q1906.14 1437.36 1899.13 1437.36 Q1895.85 1437.36 1892.57 1438.09 Q1889.33 1438.82 1885.93 1440.36 L1885.93 1409.98 Z" fill="#000000" fill-rule="evenodd" fill-opacity="1" /><path clip-path="url(#clip340)" d="M2213.57 1463.57 L2226.94 1463.57 L2226.94 1417.43 L2212.39 1420.35 L2212.39 1412.9 L2226.86 1409.98 L2235.04 1409.98 L2235.04 1463.57 L2248.41 1463.57 L2248.41 1470.46 L2213.57 1470.46 L2213.57 1463.57 Z" fill="#000000" fill-rule="evenodd" fill-opacity="1" /><path clip-path="url(#clip340)" d="M2264.94 1460.17 L2273.48 1460.17 L2273.48 1470.46 L2264.94 1470.46 L2264.94 1460.17 Z" fill="#000000" fill-rule="evenodd" fill-opacity="1" /><path clip-path="url(#clip340)" d="M2308.81 1415.37 Q2302.49 1415.37 2299.29 1421.61 Q2296.13 1427.8 2296.13 1440.28 Q2296.13 1452.72 2299.29 1458.96 Q2302.49 1465.15 2308.81 1465.15 Q2315.17 1465.15 2318.33 1458.96 Q2321.53 1452.72 2321.53 1440.28 Q2321.53 1427.8 2318.33 1421.61 Q2315.17 1415.37 2308.81 1415.37 M2308.81 1408.89 Q2318.97 1408.89 2324.32 1416.95 Q2329.71 1424.97 2329.71 1440.28 Q2329.71 1455.55 2324.32 1463.61 Q2318.97 1471.63 2308.81 1471.63 Q2298.64 1471.63 2293.25 1463.61 Q2287.9 1455.55 2287.9 1440.28 Q2287.9 1424.97 2293.25 1416.95 Q2298.64 1408.89 2308.81 1408.89 Z" fill="#000000" fill-rule="evenodd" fill-opacity="1" /><path clip-path="url(#clip340)" d="M2361.59 1415.37 Q2355.27 1415.37 2352.07 1421.61 Q2348.91 1427.8 2348.91 1440.28 Q2348.91 1452.72 2352.07 1458.96 Q2355.27 1465.15 2361.59 1465.15 Q2367.95 1465.15 2371.11 1458.96 Q2374.31 1452.72 2374.31 1440.28 Q2374.31 1427.8 2371.11 1421.61 Q2367.95 1415.37 2361.59 1415.37 M2361.59 1408.89 Q2371.76 1408.89 2377.1 1416.95 Q2382.49 1424.97 2382.49 1440.28 Q2382.49 1455.55 2377.1 1463.61 Q2371.76 1471.63 2361.59 1471.63 Q2351.42 1471.63 2346.03 1463.61 Q2340.69 1455.55 2340.69 1440.28 Q2340.69 1424.97 2346.03 1416.95 Q2351.42 1408.89 2361.59 1408.89 Z" fill="#000000" fill-rule="evenodd" fill-opacity="1" /><path clip-path="url(#clip340)" d="M1392.93 1528.85 Q1392.93 1536.72 1390.4 1545.58 Q1387.92 1554.38 1383.99 1561.5 Q1380.05 1568.58 1374.9 1573.26 Q1369.74 1577.9 1364.83 1577.9 Q1361.69 1577.9 1359.35 1576.16 Q1357.05 1574.38 1355.78 1571.43 Q1354.52 1568.44 1353.91 1565.16 Q1353.3 1561.83 1353.3 1558.22 Q1353.3 1552.84 1354.47 1546.98 Q1355.64 1541.08 1357.61 1535.74 Q1359.58 1530.35 1362.34 1525.48 Q1365.11 1520.56 1368.15 1517 Q1371.24 1513.39 1374.71 1511.28 Q1378.18 1509.18 1381.41 1509.18 Q1383.75 1509.18 1385.62 1510.21 Q1387.55 1511.19 1388.76 1512.92 Q1389.98 1514.61 1390.82 1516.62 Q1391.71 1518.64 1392.14 1520.98 Q1392.56 1523.28 1392.75 1525.2 Q1392.93 1527.07 1392.93 1528.85 M1386.61 1522.9 Q1386.61 1520.51 1386.42 1518.73 Q1386.23 1516.91 1385.72 1515.08 Q1385.2 1513.25 1384.08 1512.27 Q1383 1511.28 1381.32 1511.28 Q1376.4 1511.28 1370.87 1521.36 Q1369.09 1524.49 1367.5 1528.76 Q1365.9 1533.02 1365.34 1535.03 Q1364.78 1537.05 1363.47 1542.01 L1383.52 1542.01 Q1386.61 1529.23 1386.61 1522.9 M1382.67 1545.06 L1362.72 1545.06 Q1359.63 1556.77 1359.63 1564.08 Q1359.63 1570.45 1360.94 1573.12 Q1362.3 1575.74 1364.83 1575.74 Q1367.73 1575.74 1370.45 1572.84 Q1373.16 1569.89 1375.93 1564.55 Q1379.58 1557.61 1382.67 1545.06 Z" fill="#000000" fill-rule="evenodd" fill-opacity="1" /><polyline clip-path="url(#clip342)" style="stroke:#000000; stroke-linecap:round; stroke-linejoin:round; stroke-width:2; stroke-opacity:0.1; fill:none" points="
  398.387,1338.06 2352.76,1338.06 
  "/>
<polyline clip-path="url(#clip342)" style="stroke:#000000; stroke-linecap:round; stroke-linejoin:round; stroke-width:2; stroke-opacity:0.1; fill:none" points="
  398.387,1016.56 2352.76,1016.56 
  "/>
<polyline clip-path="url(#clip342)" style="stroke:#000000; stroke-linecap:round; stroke-linejoin:round; stroke-width:2; stroke-opacity:0.1; fill:none" points="
  398.387,695.048 2352.76,695.048 
  "/>
<polyline clip-path="url(#clip342)" style="stroke:#000000; stroke-linecap:round; stroke-linejoin:round; stroke-width:2; stroke-opacity:0.1; fill:none" points="
  398.387,373.54 2352.76,373.54 
  "/>
<polyline clip-path="url(#clip342)" style="stroke:#000000; stroke-linecap:round; stroke-linejoin:round; stroke-width:2; stroke-opacity:0.1; fill:none" points="
  398.387,52.0321 2352.76,52.0321 
  "/>
<polyline clip-path="url(#clip340)" style="stroke:#000000; stroke-linecap:round; stroke-linejoin:round; stroke-width:4; stroke-opacity:1; fill:none" points="
  398.387,1375.66 398.387,47.2441 
  "/>
<polyline clip-path="url(#clip340)" style="stroke:#000000; stroke-linecap:round; stroke-linejoin:round; stroke-width:4; stroke-opacity:1; fill:none" points="
  398.387,1338.06 417.284,1338.06 
  "/>
<polyline clip-path="url(#clip340)" style="stroke:#000000; stroke-linecap:round; stroke-linejoin:round; stroke-width:4; stroke-opacity:1; fill:none" points="
  398.387,1016.56 417.284,1016.56 
  "/>
<polyline clip-path="url(#clip340)" style="stroke:#000000; stroke-linecap:round; stroke-linejoin:round; stroke-width:4; stroke-opacity:1; fill:none" points="
  398.387,695.048 417.284,695.048 
  "/>
<polyline clip-path="url(#clip340)" style="stroke:#000000; stroke-linecap:round; stroke-linejoin:round; stroke-width:4; stroke-opacity:1; fill:none" points="
  398.387,373.54 417.284,373.54 
  "/>
<polyline clip-path="url(#clip340)" style="stroke:#000000; stroke-linecap:round; stroke-linejoin:round; stroke-width:4; stroke-opacity:1; fill:none" points="
  398.387,52.0321 417.284,52.0321 
  "/>
<path clip-path="url(#clip340)" d="M156.763 1313.21 Q150.443 1313.21 147.243 1319.45 Q144.083 1325.65 144.083 1338.12 Q144.083 1350.56 147.243 1356.8 Q150.443 1363 156.763 1363 Q163.123 1363 166.282 1356.8 Q169.483 1350.56 169.483 1338.12 Q169.483 1325.65 166.282 1319.45 Q163.123 1313.21 156.763 1313.21 M156.763 1306.73 Q166.931 1306.73 172.278 1314.79 Q177.665 1322.81 177.665 1338.12 Q177.665 1353.4 172.278 1361.46 Q166.931 1369.48 156.763 1369.48 Q146.595 1369.48 141.207 1361.46 Q135.86 1353.4 135.86 1338.12 Q135.86 1322.81 141.207 1314.79 Q146.595 1306.73 156.763 1306.73 Z" fill="#000000" fill-rule="evenodd" fill-opacity="1" /><path clip-path="url(#clip340)" d="M192.046 1358.01 L200.594 1358.01 L200.594 1368.3 L192.046 1368.3 L192.046 1358.01 Z" fill="#000000" fill-rule="evenodd" fill-opacity="1" /><path clip-path="url(#clip340)" d="M235.917 1313.21 Q229.598 1313.21 226.398 1319.45 Q223.238 1325.65 223.238 1338.12 Q223.238 1350.56 226.398 1356.8 Q229.598 1363 235.917 1363 Q242.277 1363 245.437 1356.8 Q248.637 1350.56 248.637 1338.12 Q248.637 1325.65 245.437 1319.45 Q242.277 1313.21 235.917 1313.21 M235.917 1306.73 Q246.085 1306.73 251.432 1314.79 Q256.82 1322.81 256.82 1338.12 Q256.82 1353.4 251.432 1361.46 Q246.085 1369.48 235.917 1369.48 Q225.75 1369.48 220.362 1361.46 Q215.015 1353.4 215.015 1338.12 Q215.015 1322.81 220.362 1314.79 Q225.75 1306.73 235.917 1306.73 Z" fill="#000000" fill-rule="evenodd" fill-opacity="1" /><path clip-path="url(#clip340)" d="M288.701 1313.21 Q282.381 1313.21 279.181 1319.45 Q276.021 1325.65 276.021 1338.12 Q276.021 1350.56 279.181 1356.8 Q282.381 1363 288.701 1363 Q295.061 1363 298.22 1356.8 Q301.421 1350.56 301.421 1338.12 Q301.421 1325.65 298.22 1319.45 Q295.061 1313.21 288.701 1313.21 M288.701 1306.73 Q298.869 1306.73 304.216 1314.79 Q309.603 1322.81 309.603 1338.12 Q309.603 1353.4 304.216 1361.46 Q298.869 1369.48 288.701 1369.48 Q278.533 1369.48 273.145 1361.46 Q267.798 1353.4 267.798 1338.12 Q267.798 1322.81 273.145 1314.79 Q278.533 1306.73 288.701 1306.73 Z" fill="#000000" fill-rule="evenodd" fill-opacity="1" /><path clip-path="url(#clip340)" d="M341.484 1313.21 Q335.165 1313.21 331.964 1319.45 Q328.805 1325.65 328.805 1338.12 Q328.805 1350.56 331.964 1356.8 Q335.165 1363 341.484 1363 Q347.844 1363 351.004 1356.8 Q354.204 1350.56 354.204 1338.12 Q354.204 1325.65 351.004 1319.45 Q347.844 1313.21 341.484 1313.21 M341.484 1306.73 Q351.652 1306.73 356.999 1314.79 Q362.387 1322.81 362.387 1338.12 Q362.387 1353.4 356.999 1361.46 Q351.652 1369.48 341.484 1369.48 Q331.316 1369.48 325.929 1361.46 Q320.581 1353.4 320.581 1338.12 Q320.581 1322.81 325.929 1314.79 Q331.316 1306.73 341.484 1306.73 Z" fill="#000000" fill-rule="evenodd" fill-opacity="1" /><path clip-path="url(#clip340)" d="M158.505 991.703 Q152.185 991.703 148.985 997.941 Q145.825 1004.14 145.825 1016.62 Q145.825 1029.05 148.985 1035.29 Q152.185 1041.49 158.505 1041.49 Q164.865 1041.49 168.024 1035.29 Q171.225 1029.05 171.225 1016.62 Q171.225 1004.14 168.024 997.941 Q164.865 991.703 158.505 991.703 M158.505 985.222 Q168.672 985.222 174.02 993.283 Q179.407 1001.3 179.407 1016.62 Q179.407 1031.89 174.02 1039.95 Q168.672 1047.97 158.505 1047.97 Q148.337 1047.97 142.949 1039.95 Q137.602 1031.89 137.602 1016.62 Q137.602 1001.3 142.949 993.283 Q148.337 985.222 158.505 985.222 Z" fill="#000000" fill-rule="evenodd" fill-opacity="1" /><path clip-path="url(#clip340)" d="M193.788 1036.51 L202.335 1036.51 L202.335 1046.8 L193.788 1046.8 L193.788 1036.51 Z" fill="#000000" fill-rule="evenodd" fill-opacity="1" /><path clip-path="url(#clip340)" d="M237.659 991.703 Q231.34 991.703 228.14 997.941 Q224.98 1004.14 224.98 1016.62 Q224.98 1029.05 228.14 1035.29 Q231.34 1041.49 237.659 1041.49 Q244.019 1041.49 247.179 1035.29 Q250.379 1029.05 250.379 1016.62 Q250.379 1004.14 247.179 997.941 Q244.019 991.703 237.659 991.703 M237.659 985.222 Q247.827 985.222 253.174 993.283 Q258.562 1001.3 258.562 1016.62 Q258.562 1031.89 253.174 1039.95 Q247.827 1047.97 237.659 1047.97 Q227.492 1047.97 222.104 1039.95 Q216.757 1031.89 216.757 1016.62 Q216.757 1001.3 222.104 993.283 Q227.492 985.222 237.659 985.222 Z" fill="#000000" fill-rule="evenodd" fill-opacity="1" /><path clip-path="url(#clip340)" d="M290.443 991.703 Q284.123 991.703 280.923 997.941 Q277.763 1004.14 277.763 1016.62 Q277.763 1029.05 280.923 1035.29 Q284.123 1041.49 290.443 1041.49 Q296.803 1041.49 299.962 1035.29 Q303.163 1029.05 303.163 1016.62 Q303.163 1004.14 299.962 997.941 Q296.803 991.703 290.443 991.703 M290.443 985.222 Q300.61 985.222 305.958 993.283 Q311.345 1001.3 311.345 1016.62 Q311.345 1031.89 305.958 1039.95 Q300.61 1047.97 290.443 1047.97 Q280.275 1047.97 274.887 1039.95 Q269.54 1031.89 269.54 1016.62 Q269.54 1001.3 274.887 993.283 Q280.275 985.222 290.443 985.222 Z" fill="#000000" fill-rule="evenodd" fill-opacity="1" /><path clip-path="url(#clip340)" d="M325.807 986.315 L357.931 986.315 L357.931 993.202 L333.301 993.202 L333.301 1008.03 Q335.084 1007.42 336.866 1007.14 Q338.648 1006.81 340.431 1006.81 Q350.558 1006.81 356.472 1012.36 Q362.387 1017.91 362.387 1027.39 Q362.387 1037.15 356.31 1042.58 Q350.234 1047.97 339.175 1047.97 Q335.367 1047.97 331.397 1047.32 Q327.468 1046.67 323.255 1045.38 L323.255 1037.15 Q326.901 1039.14 330.79 1040.11 Q334.679 1041.08 339.013 1041.08 Q346.021 1041.08 350.112 1037.4 Q354.204 1033.71 354.204 1027.39 Q354.204 1021.07 350.112 1017.39 Q346.021 1013.7 339.013 1013.7 Q335.732 1013.7 332.451 1014.43 Q329.21 1015.16 325.807 1016.7 L325.807 986.315 Z" fill="#000000" fill-rule="evenodd" fill-opacity="1" /><path clip-path="url(#clip340)" d="M156.763 670.195 Q150.443 670.195 147.243 676.434 Q144.083 682.632 144.083 695.108 Q144.083 707.545 147.243 713.783 Q150.443 719.981 156.763 719.981 Q163.123 719.981 166.282 713.783 Q169.483 707.545 169.483 695.108 Q169.483 682.632 166.282 676.434 Q163.123 670.195 156.763 670.195 M156.763 663.714 Q166.931 663.714 172.278 671.775 Q177.665 679.796 177.665 695.108 Q177.665 710.38 172.278 718.442 Q166.931 726.462 156.763 726.462 Q146.595 726.462 141.207 718.442 Q135.86 710.38 135.86 695.108 Q135.86 679.796 141.207 671.775 Q146.595 663.714 156.763 663.714 Z" fill="#000000" fill-rule="evenodd" fill-opacity="1" /><path clip-path="url(#clip340)" d="M192.046 714.998 L200.594 714.998 L200.594 725.288 L192.046 725.288 L192.046 714.998 Z" fill="#000000" fill-rule="evenodd" fill-opacity="1" /><path clip-path="url(#clip340)" d="M235.917 670.195 Q229.598 670.195 226.398 676.434 Q223.238 682.632 223.238 695.108 Q223.238 707.545 226.398 713.783 Q229.598 719.981 235.917 719.981 Q242.277 719.981 245.437 713.783 Q248.637 707.545 248.637 695.108 Q248.637 682.632 245.437 676.434 Q242.277 670.195 235.917 670.195 M235.917 663.714 Q246.085 663.714 251.432 671.775 Q256.82 679.796 256.82 695.108 Q256.82 710.38 251.432 718.442 Q246.085 726.462 235.917 726.462 Q225.75 726.462 220.362 718.442 Q215.015 710.38 215.015 695.108 Q215.015 679.796 220.362 671.775 Q225.75 663.714 235.917 663.714 Z" fill="#000000" fill-rule="evenodd" fill-opacity="1" /><path clip-path="url(#clip340)" d="M272.619 718.401 L285.987 718.401 L285.987 672.261 L271.444 675.178 L271.444 667.724 L285.906 664.808 L294.088 664.808 L294.088 718.401 L307.456 718.401 L307.456 725.288 L272.619 725.288 L272.619 718.401 Z" fill="#000000" fill-rule="evenodd" fill-opacity="1" /><path clip-path="url(#clip340)" d="M341.484 670.195 Q335.165 670.195 331.964 676.434 Q328.805 682.632 328.805 695.108 Q328.805 707.545 331.964 713.783 Q335.165 719.981 341.484 719.981 Q347.844 719.981 351.004 713.783 Q354.204 707.545 354.204 695.108 Q354.204 682.632 351.004 676.434 Q347.844 670.195 341.484 670.195 M341.484 663.714 Q351.652 663.714 356.999 671.775 Q362.387 679.796 362.387 695.108 Q362.387 710.38 356.999 718.442 Q351.652 726.462 341.484 726.462 Q331.316 726.462 325.929 718.442 Q320.581 710.38 320.581 695.108 Q320.581 679.796 325.929 671.775 Q331.316 663.714 341.484 663.714 Z" fill="#000000" fill-rule="evenodd" fill-opacity="1" /><path clip-path="url(#clip340)" d="M158.505 348.688 Q152.185 348.688 148.985 354.926 Q145.825 361.124 145.825 373.601 Q145.825 386.037 148.985 392.275 Q152.185 398.473 158.505 398.473 Q164.865 398.473 168.024 392.275 Q171.225 386.037 171.225 373.601 Q171.225 361.124 168.024 354.926 Q164.865 348.688 158.505 348.688 M158.505 342.206 Q168.672 342.206 174.02 350.267 Q179.407 358.288 179.407 373.601 Q179.407 388.873 174.02 396.934 Q168.672 404.955 158.505 404.955 Q148.337 404.955 142.949 396.934 Q137.602 388.873 137.602 373.601 Q137.602 358.288 142.949 350.267 Q148.337 342.206 158.505 342.206 Z" fill="#000000" fill-rule="evenodd" fill-opacity="1" /><path clip-path="url(#clip340)" d="M193.788 393.491 L202.335 393.491 L202.335 403.78 L193.788 403.78 L193.788 393.491 Z" fill="#000000" fill-rule="evenodd" fill-opacity="1" /><path clip-path="url(#clip340)" d="M237.659 348.688 Q231.34 348.688 228.14 354.926 Q224.98 361.124 224.98 373.601 Q224.98 386.037 228.14 392.275 Q231.34 398.473 237.659 398.473 Q244.019 398.473 247.179 392.275 Q250.379 386.037 250.379 373.601 Q250.379 361.124 247.179 354.926 Q244.019 348.688 237.659 348.688 M237.659 342.206 Q247.827 342.206 253.174 350.267 Q258.562 358.288 258.562 373.601 Q258.562 388.873 253.174 396.934 Q247.827 404.955 237.659 404.955 Q227.492 404.955 222.104 396.934 Q216.757 388.873 216.757 373.601 Q216.757 358.288 222.104 350.267 Q227.492 342.206 237.659 342.206 Z" fill="#000000" fill-rule="evenodd" fill-opacity="1" /><path clip-path="url(#clip340)" d="M274.361 396.893 L287.729 396.893 L287.729 350.754 L273.186 353.67 L273.186 346.217 L287.648 343.3 L295.83 343.3 L295.83 396.893 L309.198 396.893 L309.198 403.78 L274.361 403.78 L274.361 396.893 Z" fill="#000000" fill-rule="evenodd" fill-opacity="1" /><path clip-path="url(#clip340)" d="M325.807 343.3 L357.931 343.3 L357.931 350.186 L333.301 350.186 L333.301 365.013 Q335.084 364.405 336.866 364.122 Q338.648 363.797 340.431 363.797 Q350.558 363.797 356.472 369.347 Q362.387 374.897 362.387 384.376 Q362.387 394.139 356.31 399.567 Q350.234 404.955 339.175 404.955 Q335.367 404.955 331.397 404.306 Q327.468 403.658 323.255 402.362 L323.255 394.139 Q326.901 396.124 330.79 397.096 Q334.679 398.068 339.013 398.068 Q346.021 398.068 350.112 394.382 Q354.204 390.695 354.204 384.376 Q354.204 378.057 350.112 374.37 Q346.021 370.684 339.013 370.684 Q335.732 370.684 332.451 371.413 Q329.21 372.142 325.807 373.682 L325.807 343.3 Z" fill="#000000" fill-rule="evenodd" fill-opacity="1" /><path clip-path="url(#clip340)" d="M156.763 27.1798 Q150.443 27.1798 147.243 33.4182 Q144.083 39.6161 144.083 52.0929 Q144.083 64.5291 147.243 70.7675 Q150.443 76.9654 156.763 76.9654 Q163.123 76.9654 166.282 70.7675 Q169.483 64.5291 169.483 52.0929 Q169.483 39.6161 166.282 33.4182 Q163.123 27.1798 156.763 27.1798 M156.763 20.6984 Q166.931 20.6984 172.278 28.7597 Q177.665 36.7804 177.665 52.0929 Q177.665 67.3648 172.278 75.4261 Q166.931 83.4469 156.763 83.4469 Q146.595 83.4469 141.207 75.4261 Q135.86 67.3648 135.86 52.0929 Q135.86 36.7804 141.207 28.7597 Q146.595 20.6984 156.763 20.6984 Z" fill="#000000" fill-rule="evenodd" fill-opacity="1" /><path clip-path="url(#clip340)" d="M192.046 71.9828 L200.594 71.9828 L200.594 82.2721 L192.046 82.2721 L192.046 71.9828 Z" fill="#000000" fill-rule="evenodd" fill-opacity="1" /><path clip-path="url(#clip340)" d="M235.917 27.1798 Q229.598 27.1798 226.398 33.4182 Q223.238 39.6161 223.238 52.0929 Q223.238 64.5291 226.398 70.7675 Q229.598 76.9654 235.917 76.9654 Q242.277 76.9654 245.437 70.7675 Q248.637 64.5291 248.637 52.0929 Q248.637 39.6161 245.437 33.4182 Q242.277 27.1798 235.917 27.1798 M235.917 20.6984 Q246.085 20.6984 251.432 28.7597 Q256.82 36.7804 256.82 52.0929 Q256.82 67.3648 251.432 75.4261 Q246.085 83.4469 235.917 83.4469 Q225.75 83.4469 220.362 75.4261 Q215.015 67.3648 215.015 52.0929 Q215.015 36.7804 220.362 28.7597 Q225.75 20.6984 235.917 20.6984 Z" fill="#000000" fill-rule="evenodd" fill-opacity="1" /><path clip-path="url(#clip340)" d="M278.249 75.3856 L306.808 75.3856 L306.808 82.2721 L268.406 82.2721 L268.406 75.3856 Q273.064 70.565 281.085 62.4632 Q289.146 54.3209 291.212 51.9713 Q295.142 47.5558 296.681 44.5177 Q298.261 41.439 298.261 38.4818 Q298.261 33.6612 294.858 30.6231 Q291.496 27.5849 286.068 27.5849 Q282.219 27.5849 277.925 28.9217 Q273.672 30.2585 268.811 32.9726 L268.811 24.7088 Q273.753 22.7238 278.047 21.7111 Q282.341 20.6984 285.906 20.6984 Q295.304 20.6984 300.894 25.3974 Q306.484 30.0965 306.484 37.9552 Q306.484 41.682 305.066 45.0443 Q303.689 48.366 300.003 52.903 Q298.99 54.0778 293.562 59.7086 Q288.134 65.2988 278.249 75.3856 Z" fill="#000000" fill-rule="evenodd" fill-opacity="1" /><path clip-path="url(#clip340)" d="M341.484 27.1798 Q335.165 27.1798 331.964 33.4182 Q328.805 39.6161 328.805 52.0929 Q328.805 64.5291 331.964 70.7675 Q335.165 76.9654 341.484 76.9654 Q347.844 76.9654 351.004 70.7675 Q354.204 64.5291 354.204 52.0929 Q354.204 39.6161 351.004 33.4182 Q347.844 27.1798 341.484 27.1798 M341.484 20.6984 Q351.652 20.6984 356.999 28.7597 Q362.387 36.7804 362.387 52.0929 Q362.387 67.3648 356.999 75.4261 Q351.652 83.4469 341.484 83.4469 Q331.316 83.4469 325.929 75.4261 Q320.581 67.3648 320.581 52.0929 Q320.581 36.7804 325.929 28.7597 Q331.316 20.6984 341.484 20.6984 Z" fill="#000000" fill-rule="evenodd" fill-opacity="1" /><path clip-path="url(#clip340)" d="M81.0991 870.806 L78.1479 870.806 L78.1479 868.511 Q78.1479 863.311 77.3047 862.14 Q76.4146 860.922 73.6039 860.922 L23.0583 860.922 Q20.2944 860.922 19.4512 862.14 Q18.5612 863.358 18.5612 868.511 L18.5612 870.806 L15.5631 870.806 L15.5631 835.719 Q15.5631 823.446 25.3537 814.92 Q35.1443 806.348 48.8698 806.348 Q62.3143 806.348 71.7301 814.967 Q81.0991 823.54 81.0991 835.719 L81.0991 870.806 M74.3066 852.677 Q76.7894 852.677 77.492 851.975 Q78.1479 851.272 78.1479 847.993 L78.1479 838.296 Q78.1479 831.972 75.5714 827.709 Q72.9481 823.446 69.95 821.244 Q62.7359 815.951 48.8698 815.951 Q34.3011 815.951 27.4617 820.916 Q18.5612 827.334 18.5612 838.39 L18.5612 847.993 Q18.5612 851.272 19.217 851.975 Q19.8728 852.677 22.4024 852.677 L74.3066 852.677 Z" fill="#000000" fill-rule="evenodd" fill-opacity="1" /><path clip-path="url(#clip340)" d="M59.972 796.034 Q50.931 796.034 44.5132 790.225 Q38.0955 784.417 38.0955 776.078 Q38.0955 767.646 43.5763 763.29 Q49.0572 758.886 56.9271 758.886 Q58.3793 758.886 58.6604 759.261 Q58.9415 759.636 58.9415 761.275 L58.9415 788.071 Q68.732 788.071 73.3228 785.166 Q79.7406 781.138 79.7406 774.345 Q79.7406 773.408 79.5532 772.284 Q79.3658 771.16 78.5695 768.864 Q77.7263 766.569 75.5246 764.554 Q73.3228 762.54 69.8563 761.369 Q68.4978 761.088 68.5447 760.151 Q68.5447 758.886 69.6689 758.886 Q70.5122 758.886 72.4328 759.823 Q74.3066 760.713 76.5551 762.446 Q78.8037 764.18 80.4901 767.553 Q82.1765 770.879 82.1765 774.907 Q82.1765 783.339 75.8056 789.71 Q69.3879 796.034 59.972 796.034 M56.9271 787.977 L56.9271 765.21 Q54.9128 765.21 52.6642 765.585 Q50.4157 765.913 47.3239 766.944 Q44.1853 767.927 42.2178 770.27 Q40.2504 772.612 40.2504 776.078 Q40.2504 777.624 40.9062 779.311 Q41.562 780.95 43.1547 782.964 Q44.7475 784.979 48.3545 786.384 Q51.9616 787.79 56.9271 787.977 Z" fill="#000000" fill-rule="evenodd" fill-opacity="1" /><path clip-path="url(#clip340)" d="M81.0991 755.782 L78.1479 755.782 Q78.1479 750.676 77.5389 749.505 Q76.8831 748.333 73.7913 748.333 L48.0734 748.333 Q44.5132 748.333 43.6232 749.598 Q42.7331 750.816 42.7331 755.782 L39.7351 755.782 L38.7045 742.29 L48.7761 742.29 Q38.7045 737.793 38.7045 728.096 Q38.7045 720.882 42.2647 718.025 Q44.6538 715.917 47.3239 715.495 Q49.9941 715.027 56.9271 715.027 L75.2435 715.027 Q77.2578 714.933 77.7263 713.387 Q78.1479 711.841 78.1479 707.532 L81.0991 707.532 Q80.818 717.322 80.818 718.306 Q80.818 719.055 81.0991 729.127 L78.1479 729.127 Q78.1479 724.021 77.5389 722.85 Q76.8831 721.632 73.7913 721.632 L51.4463 721.632 Q46.5744 721.632 43.7169 723.131 Q40.8125 724.63 40.8125 728.752 Q40.8125 733.718 44.9817 737.7 Q49.1509 741.681 56.1776 741.681 L73.7913 741.681 Q76.8831 741.681 77.5389 740.51 Q78.1479 739.292 78.1479 734.233 L81.0991 734.233 Q80.818 744.024 80.818 744.961 Q80.818 745.71 81.0991 755.782 Z" fill="#000000" fill-rule="evenodd" fill-opacity="1" /><path clip-path="url(#clip340)" d="M79.8343 700.39 L67.1862 700.39 Q66.1087 700.39 65.734 700.343 Q65.3592 700.296 65.0781 700.015 Q64.7971 699.734 64.7971 699.172 Q64.7971 698.516 65.0781 698.282 Q65.3592 698.001 66.4366 697.813 Q73.0418 696.361 76.5551 693.269 Q80.0217 690.131 80.0217 684.463 Q80.0217 679.075 77.6326 676.358 Q75.2435 673.641 71.3085 673.641 Q64.2818 673.641 62.5017 683.619 Q61.3306 689.381 60.581 691.77 Q59.7847 694.159 58.0514 696.267 Q54.6786 700.39 49.9004 700.39 Q45.1222 700.39 41.6089 696.783 Q38.0955 693.129 38.0955 685.072 Q38.0955 679.684 40.8125 676.03 Q39.9693 674.953 39.2666 674.391 Q38.0955 673.126 38.0955 672.47 Q38.0955 671.721 38.6108 671.58 Q39.0792 671.44 40.4377 671.44 L50.0878 671.44 Q51.1652 671.44 51.54 671.486 Q51.9147 671.533 52.1958 671.814 Q52.43 672.095 52.43 672.704 Q52.43 673.782 51.54 673.829 Q39.9224 674.578 39.9224 685.072 Q39.9224 690.74 42.1241 693.269 Q44.279 695.799 47.2302 695.799 Q48.8698 695.799 50.1346 695.049 Q51.3526 694.253 52.1021 693.269 Q52.8048 692.239 53.5075 690.365 Q54.1633 688.491 54.3975 687.367 Q54.6317 686.196 55.1002 683.994 Q56.5524 676.312 59.691 673.079 Q63.7196 669.051 68.8257 669.051 Q74.494 669.051 78.3352 672.892 Q82.1765 676.733 82.1765 684.463 Q82.1765 690.693 78.0073 695.049 Q78.5695 695.612 79.0848 696.033 Q79.5532 696.455 79.7406 696.642 Q79.928 696.783 80.0685 696.83 Q80.1622 696.876 80.2559 696.97 Q82.1765 698.891 82.1765 699.359 Q82.1765 700.109 81.6612 700.249 Q81.1928 700.39 79.8343 700.39 Z" fill="#000000" fill-rule="evenodd" fill-opacity="1" /><path clip-path="url(#clip340)" d="M81.0991 665.3 L78.1479 665.3 Q78.1479 660.194 77.5389 659.023 Q76.8831 657.852 73.7913 657.852 L47.9798 657.852 Q44.4195 657.852 43.5763 659.07 Q42.7331 660.241 42.7331 664.925 L39.7351 664.925 L38.7045 651.528 L73.885 651.528 Q76.7425 651.528 77.4452 650.497 Q78.1479 649.466 78.1479 644.782 L81.0991 644.782 Q80.818 654.572 80.818 654.76 Q80.818 656.071 81.0991 665.3 M21.9808 661.271 Q20.0602 661.271 18.5143 659.819 Q16.9216 658.32 16.9216 656.212 Q16.9216 654.104 18.3738 652.605 Q19.7791 651.106 22.0277 651.106 Q24.2294 651.106 25.6816 652.605 Q27.0869 654.104 27.0869 656.212 Q27.0869 658.414 25.5411 659.866 Q23.9952 661.271 21.9808 661.271 Z" fill="#000000" fill-rule="evenodd" fill-opacity="1" /><path clip-path="url(#clip340)" d="M42.7331 638.226 L40.6251 638.226 Q40.4377 633.823 37.346 630.919 Q34.2074 627.967 30.3661 626.984 Q26.5248 625.953 22.0745 625.859 L22.0745 623.47 L39.7351 623.47 L39.7351 609.745 L42.7331 609.745 L42.7331 623.47 L69.3879 623.47 Q79.7406 623.47 79.7406 617.006 Q79.7406 614.242 76.9299 612.415 Q74.0724 610.588 69.0131 610.588 L63.7196 610.588 L63.7196 608.199 L69.2005 608.199 Q74.4003 608.199 78.2884 610.588 Q82.1765 612.977 82.1765 617.708 Q82.1765 619.442 81.7081 621.175 Q81.2865 622.861 80.1622 625.11 Q78.9911 627.311 76.1804 628.717 Q73.3228 630.075 69.2005 630.075 L42.7331 630.075 L42.7331 638.226 Z" fill="#000000" fill-rule="evenodd" fill-opacity="1" /><path clip-path="url(#clip340)" d="M92.9977 602.157 Q90.9834 602.157 89.9059 600.986 Q88.8753 599.768 88.8753 598.129 Q88.8753 596.395 89.9528 595.271 Q91.0771 594.1 92.904 594.1 Q96.4642 594.1 96.9327 597.848 Q98.6659 596.021 98.6659 593.35 Q98.6659 590.493 96.5579 588.197 Q94.4499 585.855 92.4356 584.871 Q90.4212 583.841 86.7673 582.389 Q83.9098 581.03 81.0991 580 L46.0591 594.381 Q43.7637 595.318 43.2484 596.77 Q42.7331 598.222 42.7331 602.157 L39.7351 602.157 Q40.0161 597.848 40.0161 592.835 Q40.0161 589.884 39.7351 582.389 L42.7331 582.389 Q42.7331 587.776 45.2159 587.776 Q45.497 587.776 46.9492 587.214 L72.7607 576.533 L49.1509 566.836 Q47.7924 566.274 46.8555 566.274 Q42.9205 566.274 42.7331 570.771 L39.7351 570.771 Q40.0161 564.447 40.0161 562.433 Q40.0161 558.498 39.7351 555.266 L42.7331 555.266 Q42.7331 561.683 48.8698 564.166 L89.8122 581.077 Q100.727 585.668 100.774 593.35 Q100.774 597.004 98.5254 599.581 Q96.2768 602.157 92.9977 602.157 Z" fill="#000000" fill-rule="evenodd" fill-opacity="1" /><polyline clip-path="url(#clip342)" style="stroke:#009af9; stroke-linecap:round; stroke-linejoin:round; stroke-width:8; stroke-opacity:1; fill:none" points="
  453.699,1338.06 462.918,1338.06 472.137,1338.06 481.355,1338.06 490.574,1338.06 499.793,1338.06 509.011,1338.06 518.23,1338.06 527.449,1338.06 536.668,1338.06 
  545.886,1338.06 555.105,1338.06 564.324,1338.06 573.542,1338.06 582.761,1338.06 591.98,1338.06 601.199,1338.06 610.417,1338.06 619.636,1338.06 628.855,1338.06 
  638.074,1338.06 647.292,1338.06 656.511,1338.06 665.73,1338.06 674.948,1338.06 684.167,1338.06 693.386,1338.06 702.605,1338.06 711.823,1338.06 721.042,1338.06 
  730.261,1338.06 739.479,1338.06 748.698,1338.05 757.917,1338.05 767.136,1338.05 776.354,1338.04 785.573,1338.04 794.792,1338.03 804.011,1338.02 813.229,1338.01 
  822.448,1338 831.667,1337.99 840.885,1337.98 850.104,1337.96 859.323,1337.94 868.542,1337.92 877.76,1337.89 886.979,1337.86 896.198,1337.82 905.416,1337.78 
  914.635,1337.73 923.854,1337.68 933.073,1337.62 942.291,1337.55 951.51,1337.47 960.729,1337.38 969.948,1337.28 979.166,1337.16 988.385,1337.04 997.604,1336.89 
  1006.82,1336.73 1016.04,1336.56 1025.26,1336.36 1034.48,1336.14 1043.7,1335.9 1052.92,1335.63 1062.13,1335.34 1071.35,1335.01 1080.57,1334.65 1089.79,1334.26 
  1099.01,1333.83 1108.23,1333.35 1117.45,1332.84 1126.67,1332.27 1135.88,1331.66 1145.1,1330.99 1154.32,1330.26 1163.54,1329.47 1172.76,1328.61 1181.98,1327.69 
  1191.2,1326.68 1200.42,1325.6 1209.63,1324.43 1218.85,1323.17 1228.07,1321.81 1237.29,1320.35 1246.51,1318.78 1255.73,1317.1 1264.95,1315.3 1274.17,1313.36 
  1283.38,1311.3 1292.6,1309.09 1301.82,1306.73 1311.04,1304.22 1320.26,1301.54 1329.48,1298.69 1338.7,1295.66 1347.92,1292.43 1357.13,1289.01 1366.35,1285.38 
  1375.57,1281.54 1384.79,1277.47 1394.01,1273.16 1403.23,1268.61 1412.45,1263.8 1421.66,1258.72 1430.88,1253.38 1440.1,1247.74 1449.32,1241.81 1458.54,1235.57 
  1467.76,1229.01 1476.98,1222.13 1486.2,1214.9 1495.41,1207.33 1504.63,1199.39 1513.85,1191.09 1523.07,1182.4 1532.29,1173.32 1541.51,1163.84 1550.73,1153.94 
  1559.95,1143.62 1569.16,1132.87 1578.38,1121.68 1587.6,1110.04 1596.82,1097.94 1606.04,1085.37 1615.26,1072.33 1624.48,1058.81 1633.7,1044.8 1642.91,1030.3 
  1652.13,1015.3 1661.35,999.792 1670.57,983.784 1679.79,967.269 1689.01,950.245 1698.23,932.714 1707.45,914.677 1716.66,896.136 1725.88,877.096 1735.1,857.563 
  1744.32,837.544 1753.54,817.048 1762.76,796.087 1771.98,774.674 1781.2,752.824 1790.41,730.555 1799.63,707.887 1808.85,684.842 1818.07,661.447 1827.29,637.728 
  1836.51,613.718 1845.73,589.451 1854.94,564.964 1864.16,540.299 1873.38,515.5 1882.6,490.618 1891.82,465.705 1901.04,440.818 1910.26,416.02 1919.48,391.376 
  1928.69,366.96 1937.91,342.848 1947.13,319.122 1956.35,295.871 1965.57,273.188 1974.79,251.175 1984.01,229.937 1993.23,209.59 2002.44,190.254 2011.66,172.057 
  2020.88,155.136 2030.1,139.634 2039.32,125.705 2048.54,113.509 2057.76,103.217 2066.98,95.0096 2076.19,89.0758 2085.41,85.616 2094.63,84.8408 2103.85,86.9719 
  2113.07,92.2426 2122.29,100.898 2131.51,113.196 2140.73,129.406 2149.94,149.813 2159.16,174.713 2168.38,204.418 2177.6,239.256 2186.82,279.567 2196.04,325.709 
  2205.26,378.056 2214.48,437.001 2223.69,502.95 2232.91,576.332 2242.13,657.591 2251.35,747.193 2260.57,845.622 2269.79,953.386 2279.01,1071.01 2288.22,1199.05 
  2297.44,1338.06 
  "/>
<polyline clip-path="url(#clip342)" style="stroke:#e26f46; stroke-linecap:round; stroke-linejoin:round; stroke-width:8; stroke-opacity:1; fill:none" points="
  453.699,1338.06 462.918,1338.06 472.137,1338.02 481.355,1337.92 490.574,1337.72 499.793,1337.41 509.011,1336.95 518.23,1336.33 527.449,1335.51 536.668,1334.49 
  545.886,1333.24 555.105,1331.74 564.324,1329.99 573.542,1327.96 582.761,1325.64 591.98,1323.03 601.199,1320.12 610.417,1316.89 619.636,1313.34 628.855,1309.46 
  638.074,1305.25 647.292,1300.71 656.511,1295.83 665.73,1290.61 674.948,1285.06 684.167,1279.17 693.386,1272.94 702.605,1266.39 711.823,1259.5 721.042,1252.3 
  730.261,1244.77 739.479,1236.93 748.698,1228.79 757.917,1220.35 767.136,1211.62 776.354,1202.61 785.573,1193.33 794.792,1183.78 804.011,1173.99 813.229,1163.96 
  822.448,1153.7 831.667,1143.22 840.885,1132.54 850.104,1121.67 859.323,1110.62 868.542,1099.41 877.76,1088.04 886.979,1076.54 896.198,1064.92 905.416,1053.19 
  914.635,1041.36 923.854,1029.45 933.073,1017.48 942.291,1005.47 951.51,993.412 960.729,981.34 969.948,969.263 979.166,957.197 988.385,945.157 997.604,933.158 
  1006.82,921.215 1016.04,909.343 1025.26,897.557 1034.48,885.871 1043.7,874.3 1052.92,862.858 1062.13,851.56 1071.35,840.419 1080.57,829.449 1089.79,818.665 
  1099.01,808.078 1108.23,797.703 1117.45,787.551 1126.67,777.636 1135.88,767.969 1145.1,758.563 1154.32,749.429 1163.54,740.578 1172.76,732.021 1181.98,723.768 
  1191.2,715.83 1200.42,708.216 1209.63,700.935 1218.85,693.996 1228.07,687.407 1237.29,681.177 1246.51,675.314 1255.73,669.823 1264.95,664.712 1274.17,659.987 
  1283.38,655.654 1292.6,651.717 1301.82,648.182 1311.04,645.053 1320.26,642.333 1329.48,640.026 1338.7,638.135 1347.92,636.662 1357.13,635.609 1366.35,634.976 
  1375.57,634.765 1384.79,634.976 1394.01,635.609 1403.23,636.662 1412.45,638.135 1421.66,640.026 1430.88,642.333 1440.1,645.053 1449.32,648.182 1458.54,651.717 
  1467.76,655.654 1476.98,659.987 1486.2,664.712 1495.41,669.823 1504.63,675.314 1513.85,681.177 1523.07,687.407 1532.29,693.996 1541.51,700.935 1550.73,708.216 
  1559.95,715.83 1569.16,723.768 1578.38,732.021 1587.6,740.578 1596.82,749.429 1606.04,758.563 1615.26,767.969 1624.48,777.636 1633.7,787.551 1642.91,797.703 
  1652.13,808.078 1661.35,818.665 1670.57,829.449 1679.79,840.419 1689.01,851.56 1698.23,862.858 1707.45,874.3 1716.66,885.871 1725.88,897.557 1735.1,909.343 
  1744.32,921.215 1753.54,933.158 1762.76,945.157 1771.98,957.197 1781.2,969.263 1790.41,981.34 1799.63,993.412 1808.85,1005.47 1818.07,1017.48 1827.29,1029.45 
  1836.51,1041.36 1845.73,1053.19 1854.94,1064.92 1864.16,1076.54 1873.38,1088.04 1882.6,1099.41 1891.82,1110.62 1901.04,1121.67 1910.26,1132.54 1919.48,1143.22 
  1928.69,1153.7 1937.91,1163.96 1947.13,1173.99 1956.35,1183.78 1965.57,1193.33 1974.79,1202.61 1984.01,1211.62 1993.23,1220.35 2002.44,1228.79 2011.66,1236.93 
  2020.88,1244.77 2030.1,1252.3 2039.32,1259.5 2048.54,1266.39 2057.76,1272.94 2066.98,1279.17 2076.19,1285.06 2085.41,1290.61 2094.63,1295.83 2103.85,1300.71 
  2113.07,1305.25 2122.29,1309.46 2131.51,1313.34 2140.73,1316.89 2149.94,1320.12 2159.16,1323.03 2168.38,1325.64 2177.6,1327.96 2186.82,1329.99 2196.04,1331.74 
  2205.26,1333.24 2214.48,1334.49 2223.69,1335.51 2232.91,1336.33 2242.13,1336.95 2251.35,1337.41 2260.57,1337.72 2269.79,1337.92 2279.01,1338.02 2288.22,1338.06 
  2297.44,1338.06 
  "/>
<polyline clip-path="url(#clip342)" style="stroke:#3da44d; stroke-linecap:round; stroke-linejoin:round; stroke-width:16; stroke-opacity:1; fill:none" points="
  453.699,1338.06 462.918,1338.06 472.137,1338.06 481.355,1338.06 490.574,1338.06 499.793,1338.06 509.011,1338.06 518.23,1338.06 527.449,1338.06 536.668,1338.06 
  545.886,1338.06 555.105,1338.06 564.324,1338.06 573.542,1338.06 582.761,1338.06 591.98,1338.06 601.199,1338.06 610.417,1338.06 619.636,1338.06 628.855,1338.06 
  638.074,1338.06 647.292,1338.06 656.511,1338.06 665.73,1338.06 674.948,1338.06 684.167,1338.06 693.386,1338.06 702.605,1338.06 711.823,1338.06 721.042,1338.06 
  730.261,1338.06 739.479,1338.06 748.698,1338.06 757.917,1338.05 767.136,1338.05 776.354,1338.05 785.573,1338.04 794.792,1338.04 804.011,1338.03 813.229,1338.02 
  822.448,1338 831.667,1337.99 840.885,1337.97 850.104,1337.94 859.323,1337.91 868.542,1337.87 877.76,1337.83 886.979,1337.77 896.198,1337.71 905.416,1337.63 
  914.635,1337.53 923.854,1337.42 933.073,1337.29 942.291,1337.14 951.51,1336.95 960.729,1336.74 969.948,1336.5 979.166,1336.21 988.385,1335.89 997.604,1335.51 
  1006.82,1335.08 1016.04,1334.58 1025.26,1334.02 1034.48,1333.38 1043.7,1332.65 1052.92,1331.83 1062.13,1330.91 1071.35,1329.87 1080.57,1328.71 1089.79,1327.41 
  1099.01,1325.96 1108.23,1324.35 1117.45,1322.56 1126.67,1320.57 1135.88,1318.38 1145.1,1315.97 1154.32,1313.31 1163.54,1310.39 1172.76,1307.2 1181.98,1303.7 
  1191.2,1299.89 1200.42,1295.75 1209.63,1291.24 1218.85,1286.35 1228.07,1281.06 1237.29,1275.34 1246.51,1269.18 1255.73,1262.55 1264.95,1255.43 1274.17,1247.79 
  1283.38,1239.61 1292.6,1230.87 1301.82,1221.56 1311.04,1211.64 1320.26,1201.09 1329.48,1189.91 1338.7,1178.07 1347.92,1165.55 1357.13,1152.33 1366.35,1138.41 
  1375.57,1123.78 1384.79,1108.41 1394.01,1092.31 1403.23,1075.47 1412.45,1057.88 1421.66,1039.54 1430.88,1020.47 1440.1,1000.66 1449.32,980.126 1458.54,958.878 
  1467.76,936.934 1476.98,914.316 1486.2,891.047 1495.41,867.157 1504.63,842.68 1513.85,817.653 1523.07,792.118 1532.29,766.122 1541.51,739.718 1550.73,712.961 
  1559.95,685.913 1569.16,658.638 1578.38,631.208 1587.6,603.696 1596.82,576.182 1606.04,548.75 1615.26,521.486 1624.48,494.483 1633.7,467.834 1642.91,441.637 
  1652.13,415.995 1661.35,391.009 1670.57,366.786 1679.79,343.433 1689.01,321.059 1698.23,299.772 1707.45,279.682 1716.66,260.897 1725.88,243.525 1735.1,227.671 
  1744.32,213.439 1753.54,200.927 1762.76,190.232 1771.98,181.445 1781.2,174.651 1790.41,169.928 1799.63,167.35 1808.85,166.978 1818.07,168.87 1827.29,173.069 
  1836.51,179.611 1845.73,188.521 1854.94,199.811 1864.16,213.481 1873.38,229.518 1882.6,247.896 1891.82,268.576 1901.04,291.503 1910.26,316.608 1919.48,343.808 
  1928.69,373.004 1937.91,404.084 1947.13,436.92 1956.35,471.371 1965.57,507.282 1974.79,544.485 1984.01,582.799 1993.23,622.033 2002.44,661.986 2011.66,702.447 
  2020.88,743.2 2030.1,784.02 2039.32,824.683 2048.54,864.959 2057.76,904.623 2066.98,943.449 2076.19,981.219 2085.41,1017.72 2094.63,1052.76 2103.85,1086.15 
  2113.07,1117.71 2122.29,1147.31 2131.51,1174.81 2140.73,1200.1 2149.94,1223.12 2159.16,1243.82 2168.38,1262.18 2177.6,1278.22 2186.82,1291.99 2196.04,1303.58 
  2205.26,1313.1 2214.48,1320.71 2223.69,1326.59 2232.91,1330.94 2242.13,1333.99 2251.35,1335.99 2260.57,1337.16 2269.79,1337.76 2279.01,1338 2288.22,1338.06 
  2297.44,1338.06 
  "/>
<path clip-path="url(#clip340)" d="
M463.532 454.405 L1061.55 454.405 L1061.55 91.5246 L463.532 91.5246  Z
  " fill="#ffffff" fill-rule="evenodd" fill-opacity="1"/>
<polyline clip-path="url(#clip340)" style="stroke:#000000; stroke-linecap:round; stroke-linejoin:round; stroke-width:4; stroke-opacity:1; fill:none" points="
  463.532,454.405 1061.55,454.405 1061.55,91.5246 463.532,91.5246 463.532,454.405 
  "/>
<polyline clip-path="url(#clip340)" style="stroke:#009af9; stroke-linecap:round; stroke-linejoin:round; stroke-width:14; stroke-opacity:1; fill:none" points="
  485.248,182.245 615.539,182.245 
  "/>
<path clip-path="url(#clip340)" d="M637.254 152.005 L645.437 152.005 L645.437 205.598 L674.887 205.598 L674.887 212.485 L637.254 212.485 L637.254 152.005 Z" fill="#000000" fill-rule="evenodd" fill-opacity="1" /><path clip-path="url(#clip340)" d="M683.151 167.114 L690.604 167.114 L690.604 212.485 L683.151 212.485 L683.151 167.114 M683.151 149.453 L690.604 149.453 L690.604 158.891 L683.151 158.891 L683.151 149.453 Z" fill="#000000" fill-rule="evenodd" fill-opacity="1" /><path clip-path="url(#clip340)" d="M705.917 149.453 L713.411 149.453 L713.411 186.68 L735.651 167.114 L745.17 167.114 L721.108 188.341 L746.183 212.485 L736.461 212.485 L713.411 190.326 L713.411 212.485 L705.917 212.485 L705.917 149.453 Z" fill="#000000" fill-rule="evenodd" fill-opacity="1" /><path clip-path="url(#clip340)" d="M790.095 187.936 L790.095 191.582 L755.824 191.582 Q756.31 199.279 760.442 203.33 Q764.614 207.34 772.028 207.34 Q776.322 207.34 780.332 206.287 Q784.383 205.234 788.353 203.127 L788.353 210.176 Q784.342 211.877 780.129 212.768 Q775.917 213.659 771.582 213.659 Q760.726 213.659 754.366 207.34 Q748.046 201.021 748.046 190.245 Q748.046 179.105 754.042 172.583 Q760.077 166.021 770.286 166.021 Q779.441 166.021 784.747 171.935 Q790.095 177.809 790.095 187.936 M782.641 185.749 Q782.56 179.632 779.198 175.986 Q775.876 172.34 770.367 172.34 Q764.128 172.34 760.361 175.864 Q756.634 179.389 756.067 185.789 L782.641 185.749 Z" fill="#000000" fill-rule="evenodd" fill-opacity="1" /><path clip-path="url(#clip340)" d="M802.328 149.453 L809.782 149.453 L809.782 212.485 L802.328 212.485 L802.328 149.453 Z" fill="#000000" fill-rule="evenodd" fill-opacity="1" /><path clip-path="url(#clip340)" d="M825.378 167.114 L832.832 167.114 L832.832 212.485 L825.378 212.485 L825.378 167.114 M825.378 149.453 L832.832 149.453 L832.832 158.891 L825.378 158.891 L825.378 149.453 Z" fill="#000000" fill-rule="evenodd" fill-opacity="1" /><path clip-path="url(#clip340)" d="M886.142 185.101 L886.142 212.485 L878.688 212.485 L878.688 185.344 Q878.688 178.903 876.176 175.702 Q873.665 172.502 868.642 172.502 Q862.606 172.502 859.122 176.351 Q855.638 180.199 855.638 186.842 L855.638 212.485 L848.144 212.485 L848.144 149.453 L855.638 149.453 L855.638 174.163 Q858.312 170.072 861.917 168.046 Q865.563 166.021 870.303 166.021 Q878.121 166.021 882.131 170.882 Q886.142 175.702 886.142 185.101 Z" fill="#000000" fill-rule="evenodd" fill-opacity="1" /><path clip-path="url(#clip340)" d="M918.589 172.34 Q912.594 172.34 909.11 177.039 Q905.626 181.698 905.626 189.84 Q905.626 197.982 909.07 202.681 Q912.554 207.34 918.589 207.34 Q924.544 207.34 928.028 202.641 Q931.512 197.942 931.512 189.84 Q931.512 181.779 928.028 177.08 Q924.544 172.34 918.589 172.34 M918.589 166.021 Q928.312 166.021 933.861 172.34 Q939.411 178.66 939.411 189.84 Q939.411 200.98 933.861 207.34 Q928.312 213.659 918.589 213.659 Q908.827 213.659 903.277 207.34 Q897.768 200.98 897.768 189.84 Q897.768 178.66 903.277 172.34 Q908.827 166.021 918.589 166.021 Z" fill="#000000" fill-rule="evenodd" fill-opacity="1" /><path clip-path="url(#clip340)" d="M969.347 172.34 Q963.352 172.34 959.868 177.039 Q956.384 181.698 956.384 189.84 Q956.384 197.982 959.828 202.681 Q963.311 207.34 969.347 207.34 Q975.302 207.34 978.786 202.641 Q982.27 197.942 982.27 189.84 Q982.27 181.779 978.786 177.08 Q975.302 172.34 969.347 172.34 M969.347 166.021 Q979.069 166.021 984.619 172.34 Q990.169 178.66 990.169 189.84 Q990.169 200.98 984.619 207.34 Q979.069 213.659 969.347 213.659 Q959.585 213.659 954.035 207.34 Q948.526 200.98 948.526 189.84 Q948.526 178.66 954.035 172.34 Q959.585 166.021 969.347 166.021 Z" fill="#000000" fill-rule="evenodd" fill-opacity="1" /><path clip-path="url(#clip340)" d="M1032.38 174.001 L1032.38 149.453 L1039.83 149.453 L1039.83 212.485 L1032.38 212.485 L1032.38 205.679 Q1030.03 209.73 1026.42 211.715 Q1022.86 213.659 1017.84 213.659 Q1009.61 213.659 1004.43 207.097 Q999.283 200.534 999.283 189.84 Q999.283 179.146 1004.43 172.583 Q1009.61 166.021 1017.84 166.021 Q1022.86 166.021 1026.42 168.006 Q1030.03 169.95 1032.38 174.001 M1006.98 189.84 Q1006.98 198.063 1010.34 202.762 Q1013.75 207.421 1019.66 207.421 Q1025.57 207.421 1028.98 202.762 Q1032.38 198.063 1032.38 189.84 Q1032.38 181.617 1028.98 176.958 Q1025.57 172.259 1019.66 172.259 Q1013.75 172.259 1010.34 176.958 Q1006.98 181.617 1006.98 189.84 Z" fill="#000000" fill-rule="evenodd" fill-opacity="1" /><polyline clip-path="url(#clip340)" style="stroke:#e26f46; stroke-linecap:round; stroke-linejoin:round; stroke-width:14; stroke-opacity:1; fill:none" points="
  485.248,272.965 615.539,272.965 
  "/>
<path clip-path="url(#clip340)" d="M645.437 249.449 L645.437 272.175 L655.726 272.175 Q661.438 272.175 664.557 269.218 Q667.676 266.26 667.676 260.792 Q667.676 255.363 664.557 252.406 Q661.438 249.449 655.726 249.449 L645.437 249.449 M637.254 242.725 L655.726 242.725 Q665.894 242.725 671.079 247.343 Q676.305 251.92 676.305 260.792 Q676.305 269.744 671.079 274.322 Q665.894 278.899 655.726 278.899 L645.437 278.899 L645.437 303.205 L637.254 303.205 L637.254 242.725 Z" fill="#000000" fill-rule="evenodd" fill-opacity="1" /><path clip-path="url(#clip340)" d="M711.791 264.802 Q710.535 264.073 709.036 263.749 Q707.578 263.384 705.795 263.384 Q699.476 263.384 696.073 267.516 Q692.711 271.608 692.711 279.304 L692.711 303.205 L685.217 303.205 L685.217 257.834 L692.711 257.834 L692.711 264.883 Q695.06 260.751 698.828 258.766 Q702.595 256.741 707.983 256.741 Q708.753 256.741 709.684 256.862 Q710.616 256.943 711.75 257.146 L711.791 264.802 Z" fill="#000000" fill-rule="evenodd" fill-opacity="1" /><path clip-path="url(#clip340)" d="M719.609 257.834 L727.063 257.834 L727.063 303.205 L719.609 303.205 L719.609 257.834 M719.609 240.173 L727.063 240.173 L727.063 249.611 L719.609 249.611 L719.609 240.173 Z" fill="#000000" fill-rule="evenodd" fill-opacity="1" /><path clip-path="url(#clip340)" d="M760.24 263.06 Q754.244 263.06 750.76 267.759 Q747.277 272.418 747.277 280.56 Q747.277 288.702 750.72 293.401 Q754.204 298.06 760.24 298.06 Q766.194 298.06 769.678 293.361 Q773.162 288.662 773.162 280.56 Q773.162 272.499 769.678 267.8 Q766.194 263.06 760.24 263.06 M760.24 256.741 Q769.962 256.741 775.511 263.06 Q781.061 269.38 781.061 280.56 Q781.061 291.7 775.511 298.06 Q769.962 304.379 760.24 304.379 Q750.477 304.379 744.927 298.06 Q739.418 291.7 739.418 280.56 Q739.418 269.38 744.927 263.06 Q750.477 256.741 760.24 256.741 Z" fill="#000000" fill-rule="evenodd" fill-opacity="1" /><path clip-path="url(#clip340)" d="M819.707 264.802 Q818.451 264.073 816.952 263.749 Q815.494 263.384 813.711 263.384 Q807.392 263.384 803.989 267.516 Q800.627 271.608 800.627 279.304 L800.627 303.205 L793.133 303.205 L793.133 257.834 L800.627 257.834 L800.627 264.883 Q802.977 260.751 806.744 258.766 Q810.511 256.741 815.899 256.741 Q816.669 256.741 817.6 256.862 Q818.532 256.943 819.666 257.146 L819.707 264.802 Z" fill="#000000" fill-rule="evenodd" fill-opacity="1" /><polyline clip-path="url(#clip340)" style="stroke:#3da44d; stroke-linecap:round; stroke-linejoin:round; stroke-width:28; stroke-opacity:1; fill:none" points="
  485.248,363.685 615.539,363.685 
  "/>
<path clip-path="url(#clip340)" d="M645.437 340.169 L645.437 362.895 L655.726 362.895 Q661.438 362.895 664.557 359.938 Q667.676 356.98 667.676 351.512 Q667.676 346.083 664.557 343.126 Q661.438 340.169 655.726 340.169 L645.437 340.169 M637.254 333.445 L655.726 333.445 Q665.894 333.445 671.079 338.063 Q676.305 342.64 676.305 351.512 Q676.305 360.464 671.079 365.042 Q665.894 369.619 655.726 369.619 L645.437 369.619 L645.437 393.925 L637.254 393.925 L637.254 333.445 Z" fill="#000000" fill-rule="evenodd" fill-opacity="1" /><path clip-path="url(#clip340)" d="M701.582 353.78 Q695.587 353.78 692.103 358.479 Q688.62 363.138 688.62 371.28 Q688.62 379.422 692.063 384.121 Q695.547 388.78 701.582 388.78 Q707.537 388.78 711.021 384.081 Q714.505 379.382 714.505 371.28 Q714.505 363.219 711.021 358.52 Q707.537 353.78 701.582 353.78 M701.582 347.461 Q711.305 347.461 716.854 353.78 Q722.404 360.1 722.404 371.28 Q722.404 382.42 716.854 388.78 Q711.305 395.099 701.582 395.099 Q691.82 395.099 686.27 388.78 Q680.761 382.42 680.761 371.28 Q680.761 360.1 686.27 353.78 Q691.82 347.461 701.582 347.461 Z" fill="#000000" fill-rule="evenodd" fill-opacity="1" /><path clip-path="url(#clip340)" d="M763.683 349.891 L763.683 356.94 Q760.523 355.32 757.12 354.509 Q753.718 353.699 750.072 353.699 Q744.522 353.699 741.727 355.401 Q738.972 357.102 738.972 360.505 Q738.972 363.097 740.957 364.596 Q742.942 366.054 748.937 367.391 L751.49 367.958 Q759.429 369.66 762.751 372.779 Q766.113 375.858 766.113 381.407 Q766.113 387.727 761.09 391.413 Q756.108 395.099 747.358 395.099 Q743.712 395.099 739.742 394.37 Q735.813 393.682 731.438 392.264 L731.438 384.567 Q735.57 386.714 739.58 387.808 Q743.59 388.861 747.52 388.861 Q752.786 388.861 755.621 387.079 Q758.457 385.256 758.457 381.974 Q758.457 378.936 756.391 377.316 Q754.366 375.696 747.439 374.197 L744.846 373.589 Q737.919 372.131 734.84 369.133 Q731.762 366.095 731.762 360.829 Q731.762 354.428 736.299 350.945 Q740.836 347.461 749.181 347.461 Q753.312 347.461 756.958 348.068 Q760.604 348.676 763.683 349.891 Z" fill="#000000" fill-rule="evenodd" fill-opacity="1" /><path clip-path="url(#clip340)" d="M785.355 335.673 L785.355 348.554 L800.708 348.554 L800.708 354.347 L785.355 354.347 L785.355 378.977 Q785.355 384.527 786.854 386.106 Q788.393 387.686 793.052 387.686 L800.708 387.686 L800.708 393.925 L793.052 393.925 Q784.423 393.925 781.142 390.724 Q777.861 387.484 777.861 378.977 L777.861 354.347 L772.392 354.347 L772.392 348.554 L777.861 348.554 L777.861 335.673 L785.355 335.673 Z" fill="#000000" fill-rule="evenodd" fill-opacity="1" /><path clip-path="url(#clip340)" d="M849.319 369.376 L849.319 373.022 L815.048 373.022 Q815.534 380.719 819.666 384.77 Q823.839 388.78 831.252 388.78 Q835.546 388.78 839.556 387.727 Q843.607 386.674 847.577 384.567 L847.577 391.616 Q843.567 393.317 839.354 394.208 Q835.141 395.099 830.806 395.099 Q819.95 395.099 813.59 388.78 Q807.271 382.461 807.271 371.685 Q807.271 360.545 813.266 354.023 Q819.302 347.461 829.51 347.461 Q838.665 347.461 843.972 353.375 Q849.319 359.249 849.319 369.376 M841.865 367.189 Q841.784 361.072 838.422 357.426 Q835.1 353.78 829.591 353.78 Q823.353 353.78 819.585 357.304 Q815.858 360.829 815.291 367.229 L841.865 367.189 Z" fill="#000000" fill-rule="evenodd" fill-opacity="1" /><path clip-path="url(#clip340)" d="M887.843 355.522 Q886.587 354.793 885.088 354.469 Q883.63 354.104 881.848 354.104 Q875.528 354.104 872.125 358.236 Q868.763 362.328 868.763 370.024 L868.763 393.925 L861.269 393.925 L861.269 348.554 L868.763 348.554 L868.763 355.603 Q871.113 351.471 874.88 349.486 Q878.647 347.461 884.035 347.461 Q884.805 347.461 885.737 347.582 Q886.668 347.663 887.802 347.866 L887.843 355.522 Z" fill="#000000" fill-rule="evenodd" fill-opacity="1" /><path clip-path="url(#clip340)" d="M895.661 348.554 L903.115 348.554 L903.115 393.925 L895.661 393.925 L895.661 348.554 M895.661 330.893 L903.115 330.893 L903.115 340.331 L895.661 340.331 L895.661 330.893 Z" fill="#000000" fill-rule="evenodd" fill-opacity="1" /><path clip-path="url(#clip340)" d="M936.292 353.78 Q930.296 353.78 926.813 358.479 Q923.329 363.138 923.329 371.28 Q923.329 379.422 926.772 384.121 Q930.256 388.78 936.292 388.78 Q942.247 388.78 945.73 384.081 Q949.214 379.382 949.214 371.28 Q949.214 363.219 945.73 358.52 Q942.247 353.78 936.292 353.78 M936.292 347.461 Q946.014 347.461 951.564 353.78 Q957.113 360.1 957.113 371.28 Q957.113 382.42 951.564 388.78 Q946.014 395.099 936.292 395.099 Q926.529 395.099 920.979 388.78 Q915.47 382.42 915.47 371.28 Q915.47 360.1 920.979 353.78 Q926.529 347.461 936.292 347.461 Z" fill="#000000" fill-rule="evenodd" fill-opacity="1" /><path clip-path="url(#clip340)" d="M995.759 355.522 Q994.503 354.793 993.004 354.469 Q991.546 354.104 989.764 354.104 Q983.444 354.104 980.042 358.236 Q976.679 362.328 976.679 370.024 L976.679 393.925 L969.185 393.925 L969.185 348.554 L976.679 348.554 L976.679 355.603 Q979.029 351.471 982.796 349.486 Q986.564 347.461 991.951 347.461 Q992.721 347.461 993.653 347.582 Q994.584 347.663 995.719 347.866 L995.759 355.522 Z" fill="#000000" fill-rule="evenodd" fill-opacity="1" /></svg>
