<?xml version="1.0" encoding="utf-8"?>
<svg xmlns="http://www.w3.org/2000/svg" xmlns:xlink="http://www.w3.org/1999/xlink" width="800" height="500" viewBox="0 0 3200 2000">
<defs>
  <clipPath id="clip620">
    <rect x="0" y="0" width="3200" height="2000"/>
  </clipPath>
</defs>
<path clip-path="url(#clip620)" d="
M0 2000 L3200 2000 L3200 0 L0 0  Z
  " fill="#ffffff" fill-rule="evenodd" fill-opacity="1"/>
<defs>
  <clipPath id="clip621">
    <rect x="640" y="0" width="2241" height="2000"/>
  </clipPath>
</defs>
<path clip-path="url(#clip620)" d="
M326.464 1756.36 L3152.76 1756.36 L3152.76 47.2441 L326.464 47.2441  Z
  " fill="#ffffff" fill-rule="evenodd" fill-opacity="1"/>
<defs>
  <clipPath id="clip622">
    <rect x="326" y="47" width="2827" height="1710"/>
  </clipPath>
</defs>
<polyline clip-path="url(#clip622)" style="stroke:#000000; stroke-linecap:round; stroke-linejoin:round; stroke-width:2; stroke-opacity:0.1; fill:none" points="
  406.454,1756.36 406.454,47.2441 
  "/>
<polyline clip-path="url(#clip622)" style="stroke:#000000; stroke-linecap:round; stroke-linejoin:round; stroke-width:2; stroke-opacity:0.1; fill:none" points="
  998.968,1756.36 998.968,47.2441 
  "/>
<polyline clip-path="url(#clip622)" style="stroke:#000000; stroke-linecap:round; stroke-linejoin:round; stroke-width:2; stroke-opacity:0.1; fill:none" points="
  1591.48,1756.36 1591.48,47.2441 
  "/>
<polyline clip-path="url(#clip622)" style="stroke:#000000; stroke-linecap:round; stroke-linejoin:round; stroke-width:2; stroke-opacity:0.1; fill:none" points="
  2184,1756.36 2184,47.2441 
  "/>
<polyline clip-path="url(#clip622)" style="stroke:#000000; stroke-linecap:round; stroke-linejoin:round; stroke-width:2; stroke-opacity:0.1; fill:none" points="
  2776.51,1756.36 2776.51,47.2441 
  "/>
<polyline clip-path="url(#clip620)" style="stroke:#000000; stroke-linecap:round; stroke-linejoin:round; stroke-width:4; stroke-opacity:1; fill:none" points="
  326.464,1756.36 3152.76,1756.36 
  "/>
<polyline clip-path="url(#clip620)" style="stroke:#000000; stroke-linecap:round; stroke-linejoin:round; stroke-width:4; stroke-opacity:1; fill:none" points="
  406.454,1756.36 406.454,1737.47 
  "/>
<polyline clip-path="url(#clip620)" style="stroke:#000000; stroke-linecap:round; stroke-linejoin:round; stroke-width:4; stroke-opacity:1; fill:none" points="
  998.968,1756.36 998.968,1737.47 
  "/>
<polyline clip-path="url(#clip620)" style="stroke:#000000; stroke-linecap:round; stroke-linejoin:round; stroke-width:4; stroke-opacity:1; fill:none" points="
  1591.48,1756.36 1591.48,1737.47 
  "/>
<polyline clip-path="url(#clip620)" style="stroke:#000000; stroke-linecap:round; stroke-linejoin:round; stroke-width:4; stroke-opacity:1; fill:none" points="
  2184,1756.36 2184,1737.47 
  "/>
<polyline clip-path="url(#clip620)" style="stroke:#000000; stroke-linecap:round; stroke-linejoin:round; stroke-width:4; stroke-opacity:1; fill:none" points="
  2776.51,1756.36 2776.51,1737.47 
  "/>
<path clip-path="url(#clip620)" d="M406.454 1799.54 Q401.037 1799.54 398.294 1804.89 Q395.586 1810.2 395.586 1820.9 Q395.586 1831.56 398.294 1836.9 Q401.037 1842.22 406.454 1842.22 Q411.905 1842.22 414.613 1836.9 Q417.356 1831.56 417.356 1820.9 Q417.356 1810.2 414.613 1804.89 Q411.905 1799.54 406.454 1799.54 M406.454 1793.99 Q415.169 1793.99 419.752 1800.9 Q424.37 1807.77 424.37 1820.9 Q424.37 1833.99 419.752 1840.9 Q415.169 1847.77 406.454 1847.77 Q397.738 1847.77 393.12 1840.9 Q388.537 1833.99 388.537 1820.9 Q388.537 1807.77 393.12 1800.9 Q397.738 1793.99 406.454 1793.99 Z" fill="#000000" fill-rule="evenodd" fill-opacity="1" /><path clip-path="url(#clip620)" d="M990.947 1840.86 L1015.43 1840.86 L1015.43 1846.76 L982.509 1846.76 L982.509 1840.86 Q986.502 1836.73 993.377 1829.78 Q1000.29 1822.81 1002.06 1820.79 Q1005.43 1817.01 1006.75 1814.4 Q1008.1 1811.76 1008.1 1809.23 Q1008.1 1805.1 1005.18 1802.49 Q1002.3 1799.89 997.648 1799.89 Q994.35 1799.89 990.669 1801.03 Q987.023 1802.18 982.857 1804.51 L982.857 1797.42 Q987.093 1795.72 990.773 1794.85 Q994.454 1793.99 997.509 1793.99 Q1005.56 1793.99 1010.36 1798.01 Q1015.15 1802.04 1015.15 1808.78 Q1015.15 1811.97 1013.93 1814.85 Q1012.75 1817.7 1009.59 1821.59 Q1008.72 1822.6 1004.07 1827.42 Q999.419 1832.22 990.947 1840.86 Z" fill="#000000" fill-rule="evenodd" fill-opacity="1" /><path clip-path="url(#clip620)" d="M1596 1801.03 L1578.29 1828.71 L1596 1828.71 L1596 1801.03 M1594.16 1794.92 L1602.97 1794.92 L1602.97 1828.71 L1610.37 1828.71 L1610.37 1834.54 L1602.97 1834.54 L1602.97 1846.76 L1596 1846.76 L1596 1834.54 L1572.59 1834.54 L1572.59 1827.77 L1594.16 1794.92 Z" fill="#000000" fill-rule="evenodd" fill-opacity="1" /><path clip-path="url(#clip620)" d="M2184.6 1818.05 Q2179.88 1818.05 2177.1 1821.28 Q2174.36 1824.51 2174.36 1830.13 Q2174.36 1835.72 2177.1 1838.99 Q2179.88 1842.22 2184.6 1842.22 Q2189.33 1842.22 2192.07 1838.99 Q2194.85 1835.72 2194.85 1830.13 Q2194.85 1824.51 2192.07 1821.28 Q2189.33 1818.05 2184.6 1818.05 M2198.53 1796.07 L2198.53 1802.46 Q2195.89 1801.21 2193.18 1800.55 Q2190.51 1799.89 2187.87 1799.89 Q2180.92 1799.89 2177.24 1804.58 Q2173.6 1809.26 2173.08 1818.74 Q2175.12 1815.72 2178.21 1814.13 Q2181.3 1812.49 2185.02 1812.49 Q2192.83 1812.49 2197.35 1817.25 Q2201.89 1821.97 2201.89 1830.13 Q2201.89 1838.12 2197.17 1842.94 Q2192.45 1847.77 2184.6 1847.77 Q2175.61 1847.77 2170.85 1840.9 Q2166.1 1833.99 2166.1 1820.9 Q2166.1 1808.6 2171.93 1801.31 Q2177.76 1793.99 2187.59 1793.99 Q2190.23 1793.99 2192.9 1794.51 Q2195.61 1795.03 2198.53 1796.07 Z" fill="#000000" fill-rule="evenodd" fill-opacity="1" /><path clip-path="url(#clip620)" d="M2776.51 1822.15 Q2771.51 1822.15 2768.63 1824.82 Q2765.78 1827.49 2765.78 1832.18 Q2765.78 1836.87 2768.63 1839.54 Q2771.51 1842.22 2776.51 1842.22 Q2781.51 1842.22 2784.39 1839.54 Q2787.27 1836.83 2787.27 1832.18 Q2787.27 1827.49 2784.39 1824.82 Q2781.54 1822.15 2776.51 1822.15 M2769.5 1819.16 Q2764.98 1818.05 2762.45 1814.96 Q2759.95 1811.87 2759.95 1807.42 Q2759.95 1801.21 2764.36 1797.6 Q2768.8 1793.99 2776.51 1793.99 Q2784.25 1793.99 2788.66 1797.6 Q2793.07 1801.21 2793.07 1807.42 Q2793.07 1811.87 2790.54 1814.96 Q2788.04 1818.05 2783.56 1819.16 Q2788.63 1820.34 2791.44 1823.78 Q2794.29 1827.22 2794.29 1832.18 Q2794.29 1839.72 2789.67 1843.74 Q2785.09 1847.77 2776.51 1847.77 Q2767.93 1847.77 2763.32 1843.74 Q2758.73 1839.72 2758.73 1832.18 Q2758.73 1827.22 2761.58 1823.78 Q2764.43 1820.34 2769.5 1819.16 M2766.93 1808.08 Q2766.93 1812.11 2769.43 1814.37 Q2771.96 1816.63 2776.51 1816.63 Q2781.02 1816.63 2783.56 1814.37 Q2786.13 1812.11 2786.13 1808.08 Q2786.13 1804.06 2783.56 1801.8 Q2781.02 1799.54 2776.51 1799.54 Q2771.96 1799.54 2769.43 1801.8 Q2766.93 1804.06 2766.93 1808.08 Z" fill="#000000" fill-rule="evenodd" fill-opacity="1" /><path clip-path="url(#clip620)" d="M955.656 1895.95 L968.248 1895.95 L998.896 1953.77 L998.896 1895.95 L1007.97 1895.95 L1007.97 1965.07 L995.378 1965.07 L964.73 1907.24 L964.73 1965.07 L955.656 1965.07 L955.656 1895.95 Z" fill="#000000" fill-rule="evenodd" fill-opacity="1" /><path clip-path="url(#clip620)" d="M1025.33 1944.6 L1025.33 1913.22 L1033.85 1913.22 L1033.85 1944.28 Q1033.85 1951.64 1036.72 1955.35 Q1039.59 1959 1045.33 1959 Q1052.23 1959 1056.21 1954.6 Q1060.24 1950.21 1060.24 1942.61 L1060.24 1913.22 L1068.76 1913.22 L1068.76 1965.07 L1060.24 1965.07 L1060.24 1957.1 Q1057.14 1961.83 1053.02 1964.14 Q1048.94 1966.41 1043.53 1966.41 Q1034.59 1966.41 1029.96 1960.85 Q1025.33 1955.3 1025.33 1944.6 M1046.77 1911.97 L1046.77 1911.97 Z" fill="#000000" fill-rule="evenodd" fill-opacity="1" /><path clip-path="url(#clip620)" d="M1126.67 1923.17 Q1129.87 1917.43 1134.31 1914.7 Q1138.76 1911.97 1144.78 1911.97 Q1152.88 1911.97 1157.28 1917.66 Q1161.67 1923.31 1161.67 1933.77 L1161.67 1965.07 L1153.11 1965.07 L1153.11 1934.05 Q1153.11 1926.6 1150.47 1922.98 Q1147.83 1919.37 1142.41 1919.37 Q1135.79 1919.37 1131.95 1923.77 Q1128.11 1928.17 1128.11 1935.76 L1128.11 1965.07 L1119.54 1965.07 L1119.54 1934.05 Q1119.54 1926.55 1116.91 1922.98 Q1114.27 1919.37 1108.76 1919.37 Q1102.23 1919.37 1098.39 1923.82 Q1094.54 1928.22 1094.54 1935.76 L1094.54 1965.07 L1085.98 1965.07 L1085.98 1913.22 L1094.54 1913.22 L1094.54 1921.27 Q1097.46 1916.5 1101.53 1914.23 Q1105.61 1911.97 1111.21 1911.97 Q1116.86 1911.97 1120.79 1914.84 Q1124.78 1917.71 1126.67 1923.17 Z" fill="#000000" fill-rule="evenodd" fill-opacity="1" /><path clip-path="url(#clip620)" d="M1215.89 1939.19 Q1215.89 1929.79 1212 1924.47 Q1208.15 1919.1 1201.4 1919.1 Q1194.64 1919.1 1190.75 1924.47 Q1186.9 1929.79 1186.9 1939.19 Q1186.9 1948.59 1190.75 1953.96 Q1194.64 1959.28 1201.4 1959.28 Q1208.15 1959.28 1212 1953.96 Q1215.89 1948.59 1215.89 1939.19 M1186.9 1921.09 Q1189.59 1916.46 1193.66 1914.23 Q1197.78 1911.97 1203.48 1911.97 Q1212.92 1911.97 1218.8 1919.47 Q1224.73 1926.97 1224.73 1939.19 Q1224.73 1951.41 1218.8 1958.91 Q1212.92 1966.41 1203.48 1966.41 Q1197.78 1966.41 1193.66 1964.19 Q1189.59 1961.92 1186.9 1957.29 L1186.9 1965.07 L1178.34 1965.07 L1178.34 1893.03 L1186.9 1893.03 L1186.9 1921.09 Z" fill="#000000" fill-rule="evenodd" fill-opacity="1" /><path clip-path="url(#clip620)" d="M1283.2 1937.01 L1283.2 1941.18 L1244.03 1941.18 Q1244.59 1949.98 1249.31 1954.6 Q1254.08 1959.19 1262.55 1959.19 Q1267.46 1959.19 1272.04 1957.98 Q1276.67 1956.78 1281.21 1954.37 L1281.21 1962.43 Q1276.63 1964.37 1271.81 1965.39 Q1267 1966.41 1262.04 1966.41 Q1249.64 1966.41 1242.37 1959.19 Q1235.15 1951.97 1235.15 1939.65 Q1235.15 1926.92 1242 1919.47 Q1248.9 1911.97 1260.56 1911.97 Q1271.02 1911.97 1277.09 1918.73 Q1283.2 1925.44 1283.2 1937.01 M1274.68 1934.51 Q1274.59 1927.52 1270.75 1923.36 Q1266.95 1919.19 1260.65 1919.19 Q1253.52 1919.19 1249.22 1923.22 Q1244.96 1927.24 1244.31 1934.56 L1274.68 1934.51 Z" fill="#000000" fill-rule="evenodd" fill-opacity="1" /><path clip-path="url(#clip620)" d="M1327.23 1921.18 Q1325.79 1920.35 1324.08 1919.98 Q1322.41 1919.56 1320.38 1919.56 Q1313.15 1919.56 1309.27 1924.28 Q1305.42 1928.96 1305.42 1937.75 L1305.42 1965.07 L1296.86 1965.07 L1296.86 1913.22 L1305.42 1913.22 L1305.42 1921.27 Q1308.11 1916.55 1312.41 1914.28 Q1316.72 1911.97 1322.88 1911.97 Q1323.76 1911.97 1324.82 1912.11 Q1325.89 1912.2 1327.18 1912.43 L1327.23 1921.18 Z" fill="#000000" fill-rule="evenodd" fill-opacity="1" /><path clip-path="url(#clip620)" d="M1386.39 1919.19 Q1379.54 1919.19 1375.56 1924.56 Q1371.58 1929.88 1371.58 1939.19 Q1371.58 1948.49 1375.51 1953.86 Q1379.5 1959.19 1386.39 1959.19 Q1393.2 1959.19 1397.18 1953.82 Q1401.16 1948.45 1401.16 1939.19 Q1401.16 1929.98 1397.18 1924.61 Q1393.2 1919.19 1386.39 1919.19 M1386.39 1911.97 Q1397.51 1911.97 1403.85 1919.19 Q1410.19 1926.41 1410.19 1939.19 Q1410.19 1951.92 1403.85 1959.19 Q1397.51 1966.41 1386.39 1966.41 Q1375.24 1966.41 1368.89 1959.19 Q1362.6 1951.92 1362.6 1939.19 Q1362.6 1926.41 1368.89 1919.19 Q1375.24 1911.97 1386.39 1911.97 Z" fill="#000000" fill-rule="evenodd" fill-opacity="1" /><path clip-path="url(#clip620)" d="M1450.56 1893.03 L1450.56 1900.11 L1442.41 1900.11 Q1437.83 1900.11 1436.02 1901.97 Q1434.26 1903.82 1434.26 1908.63 L1434.26 1913.22 L1448.29 1913.22 L1448.29 1919.84 L1434.26 1919.84 L1434.26 1965.07 L1425.7 1965.07 L1425.7 1919.84 L1417.55 1919.84 L1417.55 1913.22 L1425.7 1913.22 L1425.7 1909.61 Q1425.7 1900.95 1429.73 1897.01 Q1433.76 1893.03 1442.51 1893.03 L1450.56 1893.03 Z" fill="#000000" fill-rule="evenodd" fill-opacity="1" /><path clip-path="url(#clip620)" d="M1520.88 1914.74 L1520.88 1922.8 Q1517.27 1920.95 1513.38 1920.02 Q1509.5 1919.1 1505.33 1919.1 Q1498.99 1919.1 1495.79 1921.04 Q1492.64 1922.98 1492.64 1926.87 Q1492.64 1929.84 1494.91 1931.55 Q1497.18 1933.22 1504.03 1934.74 L1506.95 1935.39 Q1516.02 1937.34 1519.82 1940.9 Q1523.66 1944.42 1523.66 1950.76 Q1523.66 1957.98 1517.92 1962.2 Q1512.23 1966.41 1502.23 1966.41 Q1498.06 1966.41 1493.52 1965.58 Q1489.03 1964.79 1484.03 1963.17 L1484.03 1954.37 Q1488.75 1956.83 1493.34 1958.08 Q1497.92 1959.28 1502.41 1959.28 Q1508.43 1959.28 1511.67 1957.24 Q1514.91 1955.16 1514.91 1951.41 Q1514.91 1947.94 1512.55 1946.09 Q1510.24 1944.23 1502.32 1942.52 L1499.36 1941.83 Q1491.44 1940.16 1487.92 1936.73 Q1484.4 1933.26 1484.4 1927.24 Q1484.4 1919.93 1489.59 1915.95 Q1494.77 1911.97 1504.31 1911.97 Q1509.03 1911.97 1513.2 1912.66 Q1517.37 1913.36 1520.88 1914.74 Z" fill="#000000" fill-rule="evenodd" fill-opacity="1" /><path clip-path="url(#clip620)" d="M1536.35 1944.6 L1536.35 1913.22 L1544.87 1913.22 L1544.87 1944.28 Q1544.87 1951.64 1547.74 1955.35 Q1550.61 1959 1556.35 1959 Q1563.25 1959 1567.23 1954.6 Q1571.25 1950.21 1571.25 1942.61 L1571.25 1913.22 L1579.77 1913.22 L1579.77 1965.07 L1571.25 1965.07 L1571.25 1957.1 Q1568.15 1961.83 1564.03 1964.14 Q1559.96 1966.41 1554.54 1966.41 Q1545.61 1966.41 1540.98 1960.85 Q1536.35 1955.3 1536.35 1944.6 M1557.78 1911.97 L1557.78 1911.97 Z" fill="#000000" fill-rule="evenodd" fill-opacity="1" /><path clip-path="url(#clip620)" d="M1634.63 1915.21 L1634.63 1923.17 Q1631.02 1921.18 1627.37 1920.21 Q1623.75 1919.19 1620.05 1919.19 Q1611.76 1919.19 1607.18 1924.47 Q1602.6 1929.7 1602.6 1939.19 Q1602.6 1948.68 1607.18 1953.96 Q1611.76 1959.19 1620.05 1959.19 Q1623.75 1959.19 1627.37 1958.22 Q1631.02 1957.2 1634.63 1955.21 L1634.63 1963.08 Q1631.07 1964.74 1627.23 1965.58 Q1623.43 1966.41 1619.12 1966.41 Q1607.41 1966.41 1600.51 1959.05 Q1593.62 1951.69 1593.62 1939.19 Q1593.62 1926.5 1600.56 1919.23 Q1607.55 1911.97 1619.68 1911.97 Q1623.62 1911.97 1627.37 1912.8 Q1631.12 1913.59 1634.63 1915.21 Z" fill="#000000" fill-rule="evenodd" fill-opacity="1" /><path clip-path="url(#clip620)" d="M1686.76 1915.21 L1686.76 1923.17 Q1683.15 1921.18 1679.49 1920.21 Q1675.88 1919.19 1672.18 1919.19 Q1663.89 1919.19 1659.31 1924.47 Q1654.73 1929.7 1654.73 1939.19 Q1654.73 1948.68 1659.31 1953.96 Q1663.89 1959.19 1672.18 1959.19 Q1675.88 1959.19 1679.49 1958.22 Q1683.15 1957.2 1686.76 1955.21 L1686.76 1963.08 Q1683.2 1964.74 1679.36 1965.58 Q1675.56 1966.41 1671.25 1966.41 Q1659.54 1966.41 1652.64 1959.05 Q1645.74 1951.69 1645.74 1939.19 Q1645.74 1926.5 1652.69 1919.23 Q1659.68 1911.97 1671.81 1911.97 Q1675.74 1911.97 1679.49 1912.8 Q1683.24 1913.59 1686.76 1915.21 Z" fill="#000000" fill-rule="evenodd" fill-opacity="1" /><path clip-path="url(#clip620)" d="M1745.93 1937.01 L1745.93 1941.18 L1706.76 1941.18 Q1707.32 1949.98 1712.04 1954.6 Q1716.81 1959.19 1725.28 1959.19 Q1730.19 1959.19 1734.77 1957.98 Q1739.4 1956.78 1743.94 1954.37 L1743.94 1962.43 Q1739.36 1964.37 1734.54 1965.39 Q1729.73 1966.41 1724.77 1966.41 Q1712.36 1966.41 1705.1 1959.19 Q1697.87 1951.97 1697.87 1939.65 Q1697.87 1926.92 1704.73 1919.47 Q1711.62 1911.97 1723.29 1911.97 Q1733.75 1911.97 1739.82 1918.73 Q1745.93 1925.44 1745.93 1937.01 M1737.41 1934.51 Q1737.32 1927.52 1733.48 1923.36 Q1729.68 1919.19 1723.38 1919.19 Q1716.25 1919.19 1711.95 1923.22 Q1707.69 1927.24 1707.04 1934.56 L1737.41 1934.51 Z" fill="#000000" fill-rule="evenodd" fill-opacity="1" /><path clip-path="url(#clip620)" d="M1792.97 1914.74 L1792.97 1922.8 Q1789.36 1920.95 1785.47 1920.02 Q1781.58 1919.1 1777.41 1919.1 Q1771.07 1919.1 1767.87 1921.04 Q1764.73 1922.98 1764.73 1926.87 Q1764.73 1929.84 1766.99 1931.55 Q1769.26 1933.22 1776.11 1934.74 L1779.03 1935.39 Q1788.11 1937.34 1791.9 1940.9 Q1795.74 1944.42 1795.74 1950.76 Q1795.74 1957.98 1790 1962.2 Q1784.31 1966.41 1774.31 1966.41 Q1770.14 1966.41 1765.61 1965.58 Q1761.11 1964.79 1756.11 1963.17 L1756.11 1954.37 Q1760.84 1956.83 1765.42 1958.08 Q1770 1959.28 1774.49 1959.28 Q1780.51 1959.28 1783.75 1957.24 Q1786.99 1955.16 1786.99 1951.41 Q1786.99 1947.94 1784.63 1946.09 Q1782.32 1944.23 1774.4 1942.52 L1771.44 1941.83 Q1763.52 1940.16 1760 1936.73 Q1756.48 1933.26 1756.48 1927.24 Q1756.48 1919.93 1761.67 1915.95 Q1766.86 1911.97 1776.39 1911.97 Q1781.11 1911.97 1785.28 1912.66 Q1789.45 1913.36 1792.97 1914.74 Z" fill="#000000" fill-rule="evenodd" fill-opacity="1" /><path clip-path="url(#clip620)" d="M1842.36 1914.74 L1842.36 1922.8 Q1838.75 1920.95 1834.86 1920.02 Q1830.98 1919.1 1826.81 1919.1 Q1820.47 1919.1 1817.27 1921.04 Q1814.12 1922.98 1814.12 1926.87 Q1814.12 1929.84 1816.39 1931.55 Q1818.66 1933.22 1825.51 1934.74 L1828.43 1935.39 Q1837.5 1937.34 1841.3 1940.9 Q1845.14 1944.42 1845.14 1950.76 Q1845.14 1957.98 1839.4 1962.2 Q1833.71 1966.41 1823.71 1966.41 Q1819.54 1966.41 1815 1965.58 Q1810.51 1964.79 1805.51 1963.17 L1805.51 1954.37 Q1810.23 1956.83 1814.82 1958.08 Q1819.4 1959.28 1823.89 1959.28 Q1829.91 1959.28 1833.15 1957.24 Q1836.39 1955.16 1836.39 1951.41 Q1836.39 1947.94 1834.03 1946.09 Q1831.72 1944.23 1823.8 1942.52 L1820.84 1941.83 Q1812.92 1940.16 1809.4 1936.73 Q1805.88 1933.26 1805.88 1927.24 Q1805.88 1919.93 1811.07 1915.95 Q1816.25 1911.97 1825.79 1911.97 Q1830.51 1911.97 1834.68 1912.66 Q1838.85 1913.36 1842.36 1914.74 Z" fill="#000000" fill-rule="evenodd" fill-opacity="1" /><path clip-path="url(#clip620)" d="M1903.06 1937.01 L1903.06 1941.18 L1863.89 1941.18 Q1864.45 1949.98 1869.17 1954.6 Q1873.94 1959.19 1882.41 1959.19 Q1887.32 1959.19 1891.9 1957.98 Q1896.53 1956.78 1901.07 1954.37 L1901.07 1962.43 Q1896.48 1964.37 1891.67 1965.39 Q1886.85 1966.41 1881.9 1966.41 Q1869.49 1966.41 1862.23 1959.19 Q1855 1951.97 1855 1939.65 Q1855 1926.92 1861.85 1919.47 Q1868.75 1911.97 1880.42 1911.97 Q1890.88 1911.97 1896.95 1918.73 Q1903.06 1925.44 1903.06 1937.01 M1894.54 1934.51 Q1894.45 1927.52 1890.6 1923.36 Q1886.81 1919.19 1880.51 1919.19 Q1873.38 1919.19 1869.08 1923.22 Q1864.82 1927.24 1864.17 1934.56 L1894.54 1934.51 Z" fill="#000000" fill-rule="evenodd" fill-opacity="1" /><path clip-path="url(#clip620)" d="M1950.1 1914.74 L1950.1 1922.8 Q1946.48 1920.95 1942.6 1920.02 Q1938.71 1919.1 1934.54 1919.1 Q1928.2 1919.1 1925 1921.04 Q1921.85 1922.98 1921.85 1926.87 Q1921.85 1929.84 1924.12 1931.55 Q1926.39 1933.22 1933.24 1934.74 L1936.16 1935.39 Q1945.23 1937.34 1949.03 1940.9 Q1952.87 1944.42 1952.87 1950.76 Q1952.87 1957.98 1947.13 1962.2 Q1941.44 1966.41 1931.44 1966.41 Q1927.27 1966.41 1922.73 1965.58 Q1918.24 1964.79 1913.24 1963.17 L1913.24 1954.37 Q1917.97 1956.83 1922.55 1958.08 Q1927.13 1959.28 1931.62 1959.28 Q1937.64 1959.28 1940.88 1957.24 Q1944.12 1955.16 1944.12 1951.41 Q1944.12 1947.94 1941.76 1946.09 Q1939.45 1944.23 1931.53 1942.52 L1928.57 1941.83 Q1920.65 1940.16 1917.13 1936.73 Q1913.61 1933.26 1913.61 1927.24 Q1913.61 1919.93 1918.8 1915.95 Q1923.98 1911.97 1933.52 1911.97 Q1938.24 1911.97 1942.41 1912.66 Q1946.58 1913.36 1950.1 1914.74 Z" fill="#000000" fill-rule="evenodd" fill-opacity="1" /><path clip-path="url(#clip620)" d="M2020.14 1939 Q2009.82 1939 2005.84 1941.36 Q2001.85 1943.73 2001.85 1949.42 Q2001.85 1953.96 2004.82 1956.64 Q2007.83 1959.28 2012.97 1959.28 Q2020.05 1959.28 2024.31 1954.28 Q2028.61 1949.23 2028.61 1940.9 L2028.61 1939 L2020.14 1939 M2037.13 1935.48 L2037.13 1965.07 L2028.61 1965.07 L2028.61 1957.2 Q2025.7 1961.92 2021.34 1964.19 Q2016.99 1966.41 2010.7 1966.41 Q2002.73 1966.41 1998.01 1961.97 Q1993.34 1957.48 1993.34 1949.98 Q1993.34 1941.23 1999.17 1936.78 Q2005.05 1932.34 2016.67 1932.34 L2028.61 1932.34 L2028.61 1931.5 Q2028.61 1925.62 2024.72 1922.43 Q2020.88 1919.19 2013.89 1919.19 Q2009.45 1919.19 2005.23 1920.25 Q2001.02 1921.32 1997.13 1923.45 L1997.13 1915.58 Q2001.81 1913.77 2006.21 1912.89 Q2010.6 1911.97 2014.77 1911.97 Q2026.02 1911.97 2031.58 1917.8 Q2037.13 1923.63 2037.13 1935.48 Z" fill="#000000" fill-rule="evenodd" fill-opacity="1" /><path clip-path="url(#clip620)" d="M2080.93 1893.03 L2080.93 1900.11 L2072.78 1900.11 Q2068.2 1900.11 2066.39 1901.97 Q2064.63 1903.82 2064.63 1908.63 L2064.63 1913.22 L2078.66 1913.22 L2078.66 1919.84 L2064.63 1919.84 L2064.63 1965.07 L2056.07 1965.07 L2056.07 1919.84 L2047.92 1919.84 L2047.92 1913.22 L2056.07 1913.22 L2056.07 1909.61 Q2056.07 1900.95 2060.09 1897.01 Q2064.12 1893.03 2072.87 1893.03 L2080.93 1893.03 Z" fill="#000000" fill-rule="evenodd" fill-opacity="1" /><path clip-path="url(#clip620)" d="M2094.82 1898.49 L2094.82 1913.22 L2112.36 1913.22 L2112.36 1919.84 L2094.82 1919.84 L2094.82 1947.98 Q2094.82 1954.33 2096.53 1956.13 Q2098.29 1957.94 2103.61 1957.94 L2112.36 1957.94 L2112.36 1965.07 L2103.61 1965.07 Q2093.75 1965.07 2090 1961.41 Q2086.25 1957.71 2086.25 1947.98 L2086.25 1919.84 L2080 1919.84 L2080 1913.22 L2086.25 1913.22 L2086.25 1898.49 L2094.82 1898.49 Z" fill="#000000" fill-rule="evenodd" fill-opacity="1" /><path clip-path="url(#clip620)" d="M2167.92 1937.01 L2167.92 1941.18 L2128.75 1941.18 Q2129.31 1949.98 2134.03 1954.6 Q2138.8 1959.19 2147.27 1959.19 Q2152.18 1959.19 2156.76 1957.98 Q2161.39 1956.78 2165.93 1954.37 L2165.93 1962.43 Q2161.34 1964.37 2156.53 1965.39 Q2151.71 1966.41 2146.76 1966.41 Q2134.35 1966.41 2127.08 1959.19 Q2119.86 1951.97 2119.86 1939.65 Q2119.86 1926.92 2126.71 1919.47 Q2133.61 1911.97 2145.28 1911.97 Q2155.74 1911.97 2161.81 1918.73 Q2167.92 1925.44 2167.92 1937.01 M2159.4 1934.51 Q2159.31 1927.52 2155.46 1923.36 Q2151.67 1919.19 2145.37 1919.19 Q2138.24 1919.19 2133.94 1923.22 Q2129.68 1927.24 2129.03 1934.56 L2159.4 1934.51 Z" fill="#000000" fill-rule="evenodd" fill-opacity="1" /><path clip-path="url(#clip620)" d="M2211.95 1921.18 Q2210.51 1920.35 2208.8 1919.98 Q2207.13 1919.56 2205.09 1919.56 Q2197.87 1919.56 2193.98 1924.28 Q2190.14 1928.96 2190.14 1937.75 L2190.14 1965.07 L2181.58 1965.07 L2181.58 1913.22 L2190.14 1913.22 L2190.14 1921.27 Q2192.83 1916.55 2197.13 1914.28 Q2201.44 1911.97 2207.59 1911.97 Q2208.47 1911.97 2209.54 1912.11 Q2210.6 1912.2 2211.9 1912.43 L2211.95 1921.18 Z" fill="#000000" fill-rule="evenodd" fill-opacity="1" /><path clip-path="url(#clip620)" d="M2252.5 1963.63 L2252.5 1955.11 Q2256.02 1956.78 2259.63 1957.66 Q2263.24 1958.54 2266.71 1958.54 Q2275.97 1958.54 2280.83 1952.34 Q2285.74 1946.09 2286.44 1933.4 Q2283.75 1937.38 2279.63 1939.51 Q2275.51 1941.64 2270.51 1941.64 Q2260.14 1941.64 2254.07 1935.39 Q2248.06 1929.1 2248.06 1918.22 Q2248.06 1907.57 2254.35 1901.13 Q2260.65 1894.7 2271.11 1894.7 Q2283.1 1894.7 2289.4 1903.91 Q2295.74 1913.08 2295.74 1930.58 Q2295.74 1946.92 2287.96 1956.69 Q2280.23 1966.41 2267.13 1966.41 Q2263.61 1966.41 2260 1965.72 Q2256.39 1965.02 2252.5 1963.63 M2271.11 1934.33 Q2277.41 1934.33 2281.07 1930.02 Q2284.77 1925.72 2284.77 1918.22 Q2284.77 1910.76 2281.07 1906.46 Q2277.41 1902.11 2271.11 1902.11 Q2264.82 1902.11 2261.11 1906.46 Q2257.45 1910.76 2257.45 1918.22 Q2257.45 1925.72 2261.11 1930.02 Q2264.82 1934.33 2271.11 1934.33 Z" fill="#000000" fill-rule="evenodd" fill-opacity="1" /><path clip-path="url(#clip620)" d="M2367.73 1893.03 L2367.73 1900.11 L2359.58 1900.11 Q2355 1900.11 2353.19 1901.97 Q2351.44 1903.82 2351.44 1908.63 L2351.44 1913.22 L2365.46 1913.22 L2365.46 1919.84 L2351.44 1919.84 L2351.44 1965.07 L2342.87 1965.07 L2342.87 1919.84 L2334.72 1919.84 L2334.72 1913.22 L2342.87 1913.22 L2342.87 1909.61 Q2342.87 1900.95 2346.9 1897.01 Q2350.93 1893.03 2359.68 1893.03 L2367.73 1893.03 Z" fill="#000000" fill-rule="evenodd" fill-opacity="1" /><path clip-path="url(#clip620)" d="M2374.86 1893.03 L2383.38 1893.03 L2383.38 1965.07 L2374.86 1965.07 L2374.86 1893.03 Z" fill="#000000" fill-rule="evenodd" fill-opacity="1" /><path clip-path="url(#clip620)" d="M2401.2 1913.22 L2409.72 1913.22 L2409.72 1965.07 L2401.2 1965.07 L2401.2 1913.22 M2401.2 1893.03 L2409.72 1893.03 L2409.72 1903.82 L2401.2 1903.82 L2401.2 1893.03 Z" fill="#000000" fill-rule="evenodd" fill-opacity="1" /><path clip-path="url(#clip620)" d="M2435.79 1957.29 L2435.79 1984.79 L2427.22 1984.79 L2427.22 1913.22 L2435.79 1913.22 L2435.79 1921.09 Q2438.47 1916.46 2442.55 1914.23 Q2446.67 1911.97 2452.36 1911.97 Q2461.81 1911.97 2467.68 1919.47 Q2473.61 1926.97 2473.61 1939.19 Q2473.61 1951.41 2467.68 1958.91 Q2461.81 1966.41 2452.36 1966.41 Q2446.67 1966.41 2442.55 1964.19 Q2438.47 1961.92 2435.79 1957.29 M2464.77 1939.19 Q2464.77 1929.79 2460.88 1924.47 Q2457.04 1919.1 2450.28 1919.1 Q2443.52 1919.1 2439.63 1924.47 Q2435.79 1929.79 2435.79 1939.19 Q2435.79 1948.59 2439.63 1953.96 Q2443.52 1959.28 2450.28 1959.28 Q2457.04 1959.28 2460.88 1953.96 Q2464.77 1948.59 2464.77 1939.19 Z" fill="#000000" fill-rule="evenodd" fill-opacity="1" /><path clip-path="url(#clip620)" d="M2520.79 1914.74 L2520.79 1922.8 Q2517.18 1920.95 2513.29 1920.02 Q2509.4 1919.1 2505.23 1919.1 Q2498.89 1919.1 2495.69 1921.04 Q2492.55 1922.98 2492.55 1926.87 Q2492.55 1929.84 2494.81 1931.55 Q2497.08 1933.22 2503.93 1934.74 L2506.85 1935.39 Q2515.93 1937.34 2519.72 1940.9 Q2523.56 1944.42 2523.56 1950.76 Q2523.56 1957.98 2517.82 1962.2 Q2512.13 1966.41 2502.13 1966.41 Q2497.96 1966.41 2493.43 1965.58 Q2488.93 1964.79 2483.93 1963.17 L2483.93 1954.37 Q2488.66 1956.83 2493.24 1958.08 Q2497.82 1959.28 2502.31 1959.28 Q2508.33 1959.28 2511.57 1957.24 Q2514.81 1955.16 2514.81 1951.41 Q2514.81 1947.94 2512.45 1946.09 Q2510.14 1944.23 2502.22 1942.52 L2499.26 1941.83 Q2491.34 1940.16 2487.82 1936.73 Q2484.31 1933.26 2484.31 1927.24 Q2484.31 1919.93 2489.49 1915.95 Q2494.68 1911.97 2504.21 1911.97 Q2508.93 1911.97 2513.1 1912.66 Q2517.27 1913.36 2520.79 1914.74 Z" fill="#000000" fill-rule="evenodd" fill-opacity="1" /><polyline clip-path="url(#clip622)" style="stroke:#000000; stroke-linecap:round; stroke-linejoin:round; stroke-width:2; stroke-opacity:0.1; fill:none" points="
  326.464,1707.99 3152.76,1707.99 
  "/>
<polyline clip-path="url(#clip622)" style="stroke:#000000; stroke-linecap:round; stroke-linejoin:round; stroke-width:2; stroke-opacity:0.1; fill:none" points="
  326.464,1174.07 3152.76,1174.07 
  "/>
<polyline clip-path="url(#clip622)" style="stroke:#000000; stroke-linecap:round; stroke-linejoin:round; stroke-width:2; stroke-opacity:0.1; fill:none" points="
  326.464,640.157 3152.76,640.157 
  "/>
<polyline clip-path="url(#clip622)" style="stroke:#000000; stroke-linecap:round; stroke-linejoin:round; stroke-width:2; stroke-opacity:0.1; fill:none" points="
  326.464,106.24 3152.76,106.24 
  "/>
<polyline clip-path="url(#clip620)" style="stroke:#000000; stroke-linecap:round; stroke-linejoin:round; stroke-width:4; stroke-opacity:1; fill:none" points="
  326.464,1756.36 326.464,47.2441 
  "/>
<polyline clip-path="url(#clip620)" style="stroke:#000000; stroke-linecap:round; stroke-linejoin:round; stroke-width:4; stroke-opacity:1; fill:none" points="
  326.464,1707.99 345.362,1707.99 
  "/>
<polyline clip-path="url(#clip620)" style="stroke:#000000; stroke-linecap:round; stroke-linejoin:round; stroke-width:4; stroke-opacity:1; fill:none" points="
  326.464,1174.07 345.362,1174.07 
  "/>
<polyline clip-path="url(#clip620)" style="stroke:#000000; stroke-linecap:round; stroke-linejoin:round; stroke-width:4; stroke-opacity:1; fill:none" points="
  326.464,640.157 345.362,640.157 
  "/>
<polyline clip-path="url(#clip620)" style="stroke:#000000; stroke-linecap:round; stroke-linejoin:round; stroke-width:4; stroke-opacity:1; fill:none" points="
  326.464,106.24 345.362,106.24 
  "/>
<path clip-path="url(#clip620)" d="M192.701 1686.69 Q187.284 1686.69 184.541 1692.04 Q181.833 1697.35 181.833 1708.04 Q181.833 1718.7 184.541 1724.05 Q187.284 1729.36 192.701 1729.36 Q198.152 1729.36 200.861 1724.05 Q203.604 1718.7 203.604 1708.04 Q203.604 1697.35 200.861 1692.04 Q198.152 1686.69 192.701 1686.69 M192.701 1681.13 Q201.416 1681.13 205.999 1688.04 Q210.617 1694.92 210.617 1708.04 Q210.617 1721.13 205.999 1728.04 Q201.416 1734.92 192.701 1734.92 Q183.986 1734.92 179.368 1728.04 Q174.784 1721.13 174.784 1708.04 Q174.784 1694.92 179.368 1688.04 Q183.986 1681.13 192.701 1681.13 Z" fill="#000000" fill-rule="evenodd" fill-opacity="1" /><path clip-path="url(#clip620)" d="M222.944 1725.09 L230.27 1725.09 L230.27 1733.91 L222.944 1733.91 L222.944 1725.09 Z" fill="#000000" fill-rule="evenodd" fill-opacity="1" /><path clip-path="url(#clip620)" d="M260.548 1686.69 Q255.131 1686.69 252.388 1692.04 Q249.68 1697.35 249.68 1708.04 Q249.68 1718.7 252.388 1724.05 Q255.131 1729.36 260.548 1729.36 Q265.999 1729.36 268.707 1724.05 Q271.45 1718.7 271.45 1708.04 Q271.45 1697.35 268.707 1692.04 Q265.999 1686.69 260.548 1686.69 M260.548 1681.13 Q269.263 1681.13 273.846 1688.04 Q278.464 1694.92 278.464 1708.04 Q278.464 1721.13 273.846 1728.04 Q269.263 1734.92 260.548 1734.92 Q251.832 1734.92 247.214 1728.04 Q242.631 1721.13 242.631 1708.04 Q242.631 1694.92 247.214 1688.04 Q251.832 1681.13 260.548 1681.13 Z" fill="#000000" fill-rule="evenodd" fill-opacity="1" /><path clip-path="url(#clip620)" d="M194.541 1152.77 Q189.124 1152.77 186.381 1158.12 Q183.673 1163.43 183.673 1174.13 Q183.673 1184.79 186.381 1190.13 Q189.124 1195.45 194.541 1195.45 Q199.992 1195.45 202.701 1190.13 Q205.444 1184.79 205.444 1174.13 Q205.444 1163.43 202.701 1158.12 Q199.992 1152.77 194.541 1152.77 M194.541 1147.22 Q203.256 1147.22 207.84 1154.13 Q212.458 1161 212.458 1174.13 Q212.458 1187.22 207.84 1194.13 Q203.256 1201 194.541 1201 Q185.826 1201 181.208 1194.13 Q176.625 1187.22 176.625 1174.13 Q176.625 1161 181.208 1154.13 Q185.826 1147.22 194.541 1147.22 Z" fill="#000000" fill-rule="evenodd" fill-opacity="1" /><path clip-path="url(#clip620)" d="M224.784 1191.18 L232.11 1191.18 L232.11 1199.99 L224.784 1199.99 L224.784 1191.18 Z" fill="#000000" fill-rule="evenodd" fill-opacity="1" /><path clip-path="url(#clip620)" d="M248.603 1194.09 L260.062 1194.09 L260.062 1154.54 L247.596 1157.04 L247.596 1150.65 L259.992 1148.15 L267.006 1148.15 L267.006 1194.09 L278.464 1194.09 L278.464 1199.99 L248.603 1199.99 L248.603 1194.09 Z" fill="#000000" fill-rule="evenodd" fill-opacity="1" /><path clip-path="url(#clip620)" d="M195.097 618.855 Q189.68 618.855 186.937 624.203 Q184.229 629.515 184.229 640.209 Q184.229 650.869 186.937 656.216 Q189.68 661.529 195.097 661.529 Q200.548 661.529 203.256 656.216 Q205.999 650.869 205.999 640.209 Q205.999 629.515 203.256 624.203 Q200.548 618.855 195.097 618.855 M195.097 613.3 Q203.812 613.3 208.395 620.21 Q213.013 627.084 213.013 640.209 Q213.013 653.3 208.395 660.209 Q203.812 667.084 195.097 667.084 Q186.381 667.084 181.763 660.209 Q177.18 653.3 177.18 640.209 Q177.18 627.084 181.763 620.21 Q186.381 613.3 195.097 613.3 Z" fill="#000000" fill-rule="evenodd" fill-opacity="1" /><path clip-path="url(#clip620)" d="M225.34 657.258 L232.666 657.258 L232.666 666.077 L225.34 666.077 L225.34 657.258 Z" fill="#000000" fill-rule="evenodd" fill-opacity="1" /><path clip-path="url(#clip620)" d="M253.985 660.175 L278.464 660.175 L278.464 666.077 L245.548 666.077 L245.548 660.175 Q249.541 656.043 256.416 649.098 Q263.325 642.119 265.096 640.105 Q268.464 636.321 269.784 633.716 Q271.138 631.078 271.138 628.543 Q271.138 624.411 268.221 621.807 Q265.339 619.203 260.687 619.203 Q257.388 619.203 253.707 620.348 Q250.062 621.494 245.895 623.821 L245.895 616.737 Q250.131 615.036 253.812 614.168 Q257.492 613.3 260.548 613.3 Q268.603 613.3 273.395 617.328 Q278.186 621.355 278.186 628.091 Q278.186 631.286 276.971 634.168 Q275.791 637.015 272.631 640.904 Q271.763 641.911 267.11 646.737 Q262.457 651.529 253.985 660.175 Z" fill="#000000" fill-rule="evenodd" fill-opacity="1" /><path clip-path="url(#clip620)" d="M193.673 84.9378 Q188.256 84.9378 185.513 90.285 Q182.805 95.5975 182.805 106.292 Q182.805 116.952 185.513 122.299 Q188.256 127.611 193.673 127.611 Q199.124 127.611 201.833 122.299 Q204.576 116.952 204.576 106.292 Q204.576 95.5975 201.833 90.285 Q199.124 84.9378 193.673 84.9378 M193.673 79.3823 Q202.388 79.3823 206.972 86.292 Q211.59 93.1669 211.59 106.292 Q211.59 119.382 206.972 126.292 Q202.388 133.167 193.673 133.167 Q184.958 133.167 180.34 126.292 Q175.756 119.382 175.756 106.292 Q175.756 93.1669 180.34 86.292 Q184.958 79.3823 193.673 79.3823 Z" fill="#000000" fill-rule="evenodd" fill-opacity="1" /><path clip-path="url(#clip620)" d="M223.916 123.34 L231.242 123.34 L231.242 132.16 L223.916 132.16 L223.916 123.34 Z" fill="#000000" fill-rule="evenodd" fill-opacity="1" /><path clip-path="url(#clip620)" d="M267.77 104.209 Q272.805 105.285 275.617 108.688 Q278.464 112.09 278.464 117.09 Q278.464 124.764 273.187 128.965 Q267.909 133.167 258.187 133.167 Q254.923 133.167 251.451 132.507 Q248.013 131.882 244.332 130.597 L244.332 123.826 Q247.249 125.528 250.721 126.396 Q254.194 127.264 257.978 127.264 Q264.575 127.264 268.013 124.66 Q271.485 122.056 271.485 117.09 Q271.485 112.507 268.256 109.938 Q265.062 107.334 259.332 107.334 L253.291 107.334 L253.291 101.57 L259.61 101.57 Q264.784 101.57 267.527 99.5211 Q270.27 97.4377 270.27 93.5489 Q270.27 89.5558 267.423 87.4378 Q264.61 85.285 259.332 85.285 Q256.45 85.285 253.152 85.91 Q249.853 86.535 245.895 87.8544 L245.895 81.6045 Q249.888 80.4934 253.36 79.9378 Q256.867 79.3823 259.957 79.3823 Q267.943 79.3823 272.596 83.0281 Q277.249 86.6392 277.249 92.8197 Q277.249 97.1252 274.784 100.111 Q272.318 103.063 267.77 104.209 Z" fill="#000000" fill-rule="evenodd" fill-opacity="1" /><path clip-path="url(#clip620)" d="M44.6134 1270.51 L70.5855 1270.51 L70.5855 1258.75 Q70.5855 1252.22 67.2059 1248.65 Q63.8263 1245.09 57.5763 1245.09 Q51.3726 1245.09 47.993 1248.65 Q44.6134 1252.22 44.6134 1258.75 L44.6134 1270.51 M36.9283 1279.86 L36.9283 1258.75 Q36.9283 1247.13 42.206 1241.2 Q47.4375 1235.23 57.5763 1235.23 Q67.8077 1235.23 73.0392 1241.2 Q78.2706 1247.13 78.2706 1258.75 L78.2706 1270.51 L106.048 1270.51 L106.048 1279.86 L36.9283 1279.86 Z" fill="#000000" fill-rule="evenodd" fill-opacity="1" /><path clip-path="url(#clip620)" d="M62.1596 1194.67 Q61.3263 1196.11 60.9559 1197.82 Q60.5392 1199.49 60.5392 1201.52 Q60.5392 1208.75 65.2614 1212.64 Q69.9373 1216.48 78.7336 1216.48 L106.048 1216.48 L106.048 1225.04 L54.1967 1225.04 L54.1967 1216.48 L62.2522 1216.48 Q57.53 1213.79 55.2615 1209.49 Q52.9467 1205.18 52.9467 1199.02 Q52.9467 1198.14 53.0856 1197.08 Q53.1782 1196.02 53.4096 1194.72 L62.1596 1194.67 Z" fill="#000000" fill-rule="evenodd" fill-opacity="1" /><path clip-path="url(#clip620)" d="M60.1689 1167.73 Q60.1689 1174.58 65.5392 1178.56 Q70.8633 1182.54 80.1688 1182.54 Q89.4743 1182.54 94.8446 1178.61 Q100.169 1174.63 100.169 1167.73 Q100.169 1160.92 94.7983 1156.94 Q89.428 1152.96 80.1688 1152.96 Q70.9558 1152.96 65.5855 1156.94 Q60.1689 1160.92 60.1689 1167.73 M52.9467 1167.73 Q52.9467 1156.62 60.1689 1150.27 Q67.3911 1143.93 80.1688 1143.93 Q92.9002 1143.93 100.169 1150.27 Q107.391 1156.62 107.391 1167.73 Q107.391 1178.89 100.169 1185.23 Q92.9002 1191.52 80.1688 1191.52 Q67.3911 1191.52 60.1689 1185.23 Q52.9467 1178.89 52.9467 1167.73 Z" fill="#000000" fill-rule="evenodd" fill-opacity="1" /><path clip-path="url(#clip620)" d="M80.1688 1092.59 Q70.7707 1092.59 65.4466 1096.48 Q60.0763 1100.32 60.0763 1107.08 Q60.0763 1113.84 65.4466 1117.73 Q70.7707 1121.57 80.1688 1121.57 Q89.5669 1121.57 94.9372 1117.73 Q100.261 1113.84 100.261 1107.08 Q100.261 1100.32 94.9372 1096.48 Q89.5669 1092.59 80.1688 1092.59 M62.067 1121.57 Q57.4374 1118.89 55.2152 1114.81 Q52.9467 1110.69 52.9467 1105 Q52.9467 1095.55 60.4466 1089.67 Q67.9466 1083.75 80.1688 1083.75 Q92.3909 1083.75 99.8909 1089.67 Q107.391 1095.55 107.391 1105 Q107.391 1110.69 105.169 1114.81 Q102.9 1118.89 98.2705 1121.57 L106.048 1121.57 L106.048 1130.14 L34.0116 1130.14 L34.0116 1121.57 L62.067 1121.57 Z" fill="#000000" fill-rule="evenodd" fill-opacity="1" /><path clip-path="url(#clip620)" d="M79.9836 1046.06 Q79.9836 1056.39 82.3447 1060.37 Q84.7058 1064.35 90.4002 1064.35 Q94.9372 1064.35 97.6224 1061.39 Q100.261 1058.38 100.261 1053.24 Q100.261 1046.16 95.2613 1041.9 Q90.215 1037.59 81.8817 1037.59 L79.9836 1037.59 L79.9836 1046.06 M76.4651 1029.07 L106.048 1029.07 L106.048 1037.59 L98.1779 1037.59 Q102.9 1040.51 105.169 1044.86 Q107.391 1049.21 107.391 1055.51 Q107.391 1063.47 102.946 1068.19 Q98.4557 1072.87 90.9557 1072.87 Q82.2058 1072.87 77.7614 1067.03 Q73.3169 1061.15 73.3169 1049.53 L73.3169 1037.59 L72.4836 1037.59 Q66.604 1037.59 63.4096 1041.48 Q60.1689 1045.32 60.1689 1052.31 Q60.1689 1056.76 61.2337 1060.97 Q62.2985 1065.18 64.4281 1069.07 L56.5578 1069.07 Q54.7522 1064.4 53.8726 1060 Q52.9467 1055.6 52.9467 1051.43 Q52.9467 1040.18 58.78 1034.63 Q64.6133 1029.07 76.4651 1029.07 Z" fill="#000000" fill-rule="evenodd" fill-opacity="1" /><path clip-path="url(#clip620)" d="M80.1688 974.304 Q70.7707 974.304 65.4466 978.192 Q60.0763 982.035 60.0763 988.794 Q60.0763 995.553 65.4466 999.442 Q70.7707 1003.28 80.1688 1003.28 Q89.5669 1003.28 94.9372 999.442 Q100.261 995.553 100.261 988.794 Q100.261 982.035 94.9372 978.192 Q89.5669 974.304 80.1688 974.304 M62.067 1003.28 Q57.4374 1000.6 55.2152 996.526 Q52.9467 992.405 52.9467 986.711 Q52.9467 977.266 60.4466 971.387 Q67.9466 965.461 80.1688 965.461 Q92.3909 965.461 99.8909 971.387 Q107.391 977.266 107.391 986.711 Q107.391 992.405 105.169 996.526 Q102.9 1000.6 98.2705 1003.28 L106.048 1003.28 L106.048 1011.85 L34.0116 1011.85 L34.0116 1003.28 L62.067 1003.28 Z" fill="#000000" fill-rule="evenodd" fill-opacity="1" /><path clip-path="url(#clip620)" d="M54.1967 951.341 L54.1967 942.822 L106.048 942.822 L106.048 951.341 L54.1967 951.341 M34.0116 951.341 L34.0116 942.822 L44.7986 942.822 L44.7986 951.341 L34.0116 951.341 Z" fill="#000000" fill-rule="evenodd" fill-opacity="1" /><path clip-path="url(#clip620)" d="M34.0116 924.998 L34.0116 916.48 L106.048 916.48 L106.048 924.998 L34.0116 924.998 Z" fill="#000000" fill-rule="evenodd" fill-opacity="1" /><path clip-path="url(#clip620)" d="M54.1967 898.656 L54.1967 890.137 L106.048 890.137 L106.048 898.656 L54.1967 898.656 M34.0116 898.656 L34.0116 890.137 L44.7986 890.137 L44.7986 898.656 L34.0116 898.656 Z" fill="#000000" fill-rule="evenodd" fill-opacity="1" /><path clip-path="url(#clip620)" d="M39.4745 863.887 L54.1967 863.887 L54.1967 846.341 L60.817 846.341 L60.817 863.887 L88.965 863.887 Q95.3076 863.887 97.1131 862.175 Q98.9187 860.415 98.9187 855.091 L98.9187 846.341 L106.048 846.341 L106.048 855.091 Q106.048 864.952 102.391 868.702 Q98.6872 872.452 88.965 872.452 L60.817 872.452 L60.817 878.702 L54.1967 878.702 L54.1967 872.452 L39.4745 872.452 L39.4745 863.887 Z" fill="#000000" fill-rule="evenodd" fill-opacity="1" /><path clip-path="url(#clip620)" d="M110.863 813.564 Q120.122 817.175 122.946 820.601 Q125.77 824.027 125.77 829.767 L125.77 836.573 L118.641 836.573 L118.641 831.573 Q118.641 828.054 116.974 826.11 Q115.307 824.165 109.104 821.804 L105.215 820.277 L54.1967 841.249 L54.1967 832.221 L94.752 816.017 L54.1967 799.814 L54.1967 790.786 L110.863 813.564 Z" fill="#000000" fill-rule="evenodd" fill-opacity="1" /><path clip-path="url(#clip620)" d="M36.9283 748.518 L36.9283 734.583 L83.965 716.944 L36.9283 699.212 L36.9283 685.277 L106.048 685.277 L106.048 694.398 L45.3541 694.398 L92.7613 712.222 L92.7613 721.62 L45.3541 739.444 L106.048 739.444 L106.048 748.518 L36.9283 748.518 Z" fill="#000000" fill-rule="evenodd" fill-opacity="1" /><path clip-path="url(#clip620)" d="M79.9836 643.518 Q79.9836 653.842 82.3447 657.824 Q84.7058 661.805 90.4002 661.805 Q94.9372 661.805 97.6224 658.842 Q100.261 655.833 100.261 650.694 Q100.261 643.611 95.2613 639.352 Q90.215 635.046 81.8817 635.046 L79.9836 635.046 L79.9836 643.518 M76.4651 626.528 L106.048 626.528 L106.048 635.046 L98.1779 635.046 Q102.9 637.963 105.169 642.315 Q107.391 646.666 107.391 652.963 Q107.391 660.926 102.946 665.648 Q98.4557 670.324 90.9557 670.324 Q82.2058 670.324 77.7614 664.49 Q73.3169 658.611 73.3169 646.99 L73.3169 635.046 L72.4836 635.046 Q66.604 635.046 63.4096 638.935 Q60.1689 642.778 60.1689 649.768 Q60.1689 654.213 61.2337 658.426 Q62.2985 662.639 64.4281 666.527 L56.5578 666.527 Q54.7522 661.852 53.8726 657.453 Q52.9467 653.055 52.9467 648.889 Q52.9467 637.639 58.78 632.083 Q64.6133 626.528 76.4651 626.528 Z" fill="#000000" fill-rule="evenodd" fill-opacity="1" /><path clip-path="url(#clip620)" d="M55.7244 575.926 L63.78 575.926 Q61.9281 579.537 61.0022 583.426 Q60.0763 587.315 60.0763 591.482 Q60.0763 597.824 62.0207 601.019 Q63.9651 604.167 67.854 604.167 Q70.817 604.167 72.5299 601.898 Q74.1966 599.63 75.7243 592.778 L76.3725 589.861 Q78.3169 580.787 81.8817 576.991 Q85.4002 573.148 91.7428 573.148 Q98.965 573.148 103.178 578.889 Q107.391 584.583 107.391 594.583 Q107.391 598.75 106.558 603.287 Q105.77 607.778 104.15 612.778 L95.3539 612.778 Q97.8076 608.056 99.0575 603.472 Q100.261 598.889 100.261 594.398 Q100.261 588.38 98.2242 585.139 Q96.1409 581.898 92.3909 581.898 Q88.9187 581.898 87.0669 584.259 Q85.215 586.574 83.5021 594.491 L82.8076 597.454 Q81.141 605.37 77.7151 608.889 Q74.2429 612.407 68.2244 612.407 Q60.9096 612.407 56.9281 607.222 Q52.9467 602.037 52.9467 592.5 Q52.9467 587.778 53.6411 583.611 Q54.3356 579.445 55.7244 575.926 Z" fill="#000000" fill-rule="evenodd" fill-opacity="1" /><path clip-path="url(#clip620)" d="M55.7244 526.528 L63.78 526.528 Q61.9281 530.139 61.0022 534.028 Q60.0763 537.917 60.0763 542.084 Q60.0763 548.426 62.0207 551.621 Q63.9651 554.769 67.854 554.769 Q70.817 554.769 72.5299 552.5 Q74.1966 550.232 75.7243 543.38 L76.3725 540.463 Q78.3169 531.389 81.8817 527.593 Q85.4002 523.75 91.7428 523.75 Q98.965 523.75 103.178 529.491 Q107.391 535.186 107.391 545.185 Q107.391 549.352 106.558 553.889 Q105.77 558.38 104.15 563.38 L95.3539 563.38 Q97.8076 558.658 99.0575 554.074 Q100.261 549.491 100.261 545 Q100.261 538.982 98.2242 535.741 Q96.1409 532.5 92.3909 532.5 Q88.9187 532.5 87.0669 534.861 Q85.215 537.176 83.5021 545.093 L82.8076 548.056 Q81.141 555.972 77.7151 559.491 Q74.2429 563.009 68.2244 563.009 Q60.9096 563.009 56.9281 557.824 Q52.9467 552.639 52.9467 543.102 Q52.9467 538.38 53.6411 534.213 Q54.3356 530.047 55.7244 526.528 Z" fill="#000000" fill-rule="evenodd" fill-opacity="1" /><path clip-path="url(#clip622)" d="M406.454 1713.56 L395.142 1708.88 L390.454 1697.56 L395.142 1686.25 L406.454 1681.56 L417.766 1686.25 L422.454 1697.56 L417.766 1708.88 Z" fill="#009af9" fill-rule="evenodd" fill-opacity="1" stroke="#000000" stroke-opacity="1" stroke-width="4"/>
<path clip-path="url(#clip622)" d="M702.711 1630.14 L691.399 1625.45 L686.711 1614.14 L691.399 1602.83 L702.711 1598.14 L714.023 1602.83 L718.711 1614.14 L714.023 1625.45 Z" fill="#009af9" fill-rule="evenodd" fill-opacity="1" stroke="#000000" stroke-opacity="1" stroke-width="4"/>
<path clip-path="url(#clip622)" d="M998.968 1348.58 L987.656 1343.89 L982.968 1332.58 L987.656 1321.27 L998.968 1316.58 L1010.28 1321.27 L1014.97 1332.58 L1010.28 1343.89 Z" fill="#009af9" fill-rule="evenodd" fill-opacity="1" stroke="#000000" stroke-opacity="1" stroke-width="4"/>
<path clip-path="url(#clip622)" d="M1295.22 848.034 L1283.91 843.346 L1279.22 832.034 L1283.91 820.722 L1295.22 816.034 L1306.54 820.722 L1311.22 832.034 L1306.54 843.346 Z" fill="#009af9" fill-rule="evenodd" fill-opacity="1" stroke="#000000" stroke-opacity="1" stroke-width="4"/>
<path clip-path="url(#clip622)" d="M1591.48 410.055 L1580.17 405.367 L1575.48 394.055 L1580.17 382.743 L1591.48 378.055 L1602.79 382.743 L1607.48 394.055 L1602.79 405.367 Z" fill="#009af9" fill-rule="evenodd" fill-opacity="1" stroke="#000000" stroke-opacity="1" stroke-width="4"/>
<path clip-path="url(#clip622)" d="M1887.74 410.055 L1876.43 405.367 L1871.74 394.055 L1876.43 382.743 L1887.74 378.055 L1899.05 382.743 L1903.74 394.055 L1899.05 405.367 Z" fill="#009af9" fill-rule="evenodd" fill-opacity="1" stroke="#000000" stroke-opacity="1" stroke-width="4"/>
<path clip-path="url(#clip622)" d="M2184 848.034 L2172.68 843.346 L2168 832.034 L2172.68 820.722 L2184 816.034 L2195.31 820.722 L2200 832.034 L2195.31 843.346 Z" fill="#009af9" fill-rule="evenodd" fill-opacity="1" stroke="#000000" stroke-opacity="1" stroke-width="4"/>
<path clip-path="url(#clip622)" d="M2480.25 1348.58 L2468.94 1343.89 L2464.25 1332.58 L2468.94 1321.27 L2480.25 1316.58 L2491.56 1321.27 L2496.25 1332.58 L2491.56 1343.89 Z" fill="#009af9" fill-rule="evenodd" fill-opacity="1" stroke="#000000" stroke-opacity="1" stroke-width="4"/>
<path clip-path="url(#clip622)" d="M2776.51 1630.14 L2765.2 1625.45 L2760.51 1614.14 L2765.2 1602.83 L2776.51 1598.14 L2787.82 1602.83 L2792.51 1614.14 L2787.82 1625.45 Z" fill="#009af9" fill-rule="evenodd" fill-opacity="1" stroke="#000000" stroke-opacity="1" stroke-width="4"/>
<path clip-path="url(#clip622)" d="M3072.77 1713.56 L3061.45 1708.88 L3056.77 1697.56 L3061.45 1686.25 L3072.77 1681.56 L3084.08 1686.25 L3088.77 1697.56 L3084.08 1708.88 Z" fill="#009af9" fill-rule="evenodd" fill-opacity="1" stroke="#000000" stroke-opacity="1" stroke-width="4"/>
<polyline clip-path="url(#clip622)" style="stroke:#009af9; stroke-linecap:round; stroke-linejoin:round; stroke-width:4; stroke-opacity:1; fill:none" points="
  406.454,1707.99 406.454,1697.56 
  "/>
<polyline clip-path="url(#clip622)" style="stroke:#009af9; stroke-linecap:round; stroke-linejoin:round; stroke-width:4; stroke-opacity:1; fill:none" points="
  702.711,1707.99 702.711,1614.14 
  "/>
<polyline clip-path="url(#clip622)" style="stroke:#009af9; stroke-linecap:round; stroke-linejoin:round; stroke-width:4; stroke-opacity:1; fill:none" points="
  998.968,1707.99 998.968,1332.58 
  "/>
<polyline clip-path="url(#clip622)" style="stroke:#009af9; stroke-linecap:round; stroke-linejoin:round; stroke-width:4; stroke-opacity:1; fill:none" points="
  1295.22,1707.99 1295.22,832.034 
  "/>
<polyline clip-path="url(#clip622)" style="stroke:#009af9; stroke-linecap:round; stroke-linejoin:round; stroke-width:4; stroke-opacity:1; fill:none" points="
  1591.48,1707.99 1591.48,394.055 
  "/>
<polyline clip-path="url(#clip622)" style="stroke:#009af9; stroke-linecap:round; stroke-linejoin:round; stroke-width:4; stroke-opacity:1; fill:none" points="
  1887.74,1707.99 1887.74,394.055 
  "/>
<polyline clip-path="url(#clip622)" style="stroke:#009af9; stroke-linecap:round; stroke-linejoin:round; stroke-width:4; stroke-opacity:1; fill:none" points="
  2184,1707.99 2184,832.034 
  "/>
<polyline clip-path="url(#clip622)" style="stroke:#009af9; stroke-linecap:round; stroke-linejoin:round; stroke-width:4; stroke-opacity:1; fill:none" points="
  2480.25,1707.99 2480.25,1332.58 
  "/>
<polyline clip-path="url(#clip622)" style="stroke:#009af9; stroke-linecap:round; stroke-linejoin:round; stroke-width:4; stroke-opacity:1; fill:none" points="
  2776.51,1707.99 2776.51,1614.14 
  "/>
<polyline clip-path="url(#clip622)" style="stroke:#009af9; stroke-linecap:round; stroke-linejoin:round; stroke-width:4; stroke-opacity:1; fill:none" points="
  3072.77,1707.99 3072.77,1697.56 
  "/>
<path clip-path="url(#clip622)" d="M406.454 1723.99 L395.142 1719.3 L390.454 1707.99 L395.142 1696.68 L406.454 1691.99 L417.766 1696.68 L422.454 1707.99 L417.766 1719.3 Z" fill="#ff0000" fill-rule="evenodd" fill-opacity="1" stroke="#000000" stroke-opacity="1" stroke-width="4"/>
<path clip-path="url(#clip622)" d="M702.711 1723.89 L691.399 1719.21 L686.711 1707.89 L691.399 1696.58 L702.711 1691.89 L714.023 1696.58 L718.711 1707.89 L714.023 1719.21 Z" fill="#ff0000" fill-rule="evenodd" fill-opacity="1" stroke="#000000" stroke-opacity="1" stroke-width="4"/>
<path clip-path="url(#clip622)" d="M998.968 1722.42 L987.656 1717.73 L982.968 1706.42 L987.656 1695.11 L998.968 1690.42 L1010.28 1695.11 L1014.97 1706.42 L1010.28 1717.73 Z" fill="#ff0000" fill-rule="evenodd" fill-opacity="1" stroke="#000000" stroke-opacity="1" stroke-width="4"/>
<path clip-path="url(#clip622)" d="M1295.22 1709.3 L1283.91 1704.61 L1279.22 1693.3 L1283.91 1681.98 L1295.22 1677.3 L1306.54 1681.98 L1311.22 1693.3 L1306.54 1704.61 Z" fill="#ff0000" fill-rule="evenodd" fill-opacity="1" stroke="#000000" stroke-opacity="1" stroke-width="4"/>
<path clip-path="url(#clip622)" d="M1591.48 1635.82 L1580.17 1631.13 L1575.48 1619.82 L1580.17 1608.5 L1591.48 1603.82 L1602.79 1608.5 L1607.48 1619.82 L1602.79 1631.13 Z" fill="#ff0000" fill-rule="evenodd" fill-opacity="1" stroke="#000000" stroke-opacity="1" stroke-width="4"/>
<path clip-path="url(#clip622)" d="M1887.74 1371.28 L1876.43 1366.6 L1871.74 1355.28 L1876.43 1343.97 L1887.74 1339.28 L1899.05 1343.97 L1903.74 1355.28 L1899.05 1366.6 Z" fill="#ff0000" fill-rule="evenodd" fill-opacity="1" stroke="#000000" stroke-opacity="1" stroke-width="4"/>
<path clip-path="url(#clip622)" d="M2184 783.439 L2172.68 778.751 L2168 767.439 L2172.68 756.127 L2184 751.439 L2195.31 756.127 L2200 767.439 L2195.31 778.751 Z" fill="#ff0000" fill-rule="evenodd" fill-opacity="1" stroke="#000000" stroke-opacity="1" stroke-width="4"/>
<path clip-path="url(#clip622)" d="M2480.25 111.615 L2468.94 106.927 L2464.25 95.6154 L2468.94 84.3034 L2480.25 79.6154 L2491.56 84.3034 L2496.25 95.6154 L2491.56 106.927 Z" fill="#ff0000" fill-rule="evenodd" fill-opacity="1" stroke="#000000" stroke-opacity="1" stroke-width="4"/>
<path clip-path="url(#clip622)" d="M2776.51 111.615 L2765.2 106.927 L2760.51 95.6154 L2765.2 84.3034 L2776.51 79.6154 L2787.82 84.3034 L2792.51 95.6154 L2787.82 106.927 Z" fill="#ff0000" fill-rule="evenodd" fill-opacity="1" stroke="#000000" stroke-opacity="1" stroke-width="4"/>
<path clip-path="url(#clip622)" d="M3072.77 1007.38 L3061.45 1002.69 L3056.77 991.38 L3061.45 980.068 L3072.77 975.38 L3084.08 980.068 L3088.77 991.38 L3084.08 1002.69 Z" fill="#ff0000" fill-rule="evenodd" fill-opacity="1" stroke="#000000" stroke-opacity="1" stroke-width="4"/>
<polyline clip-path="url(#clip622)" style="stroke:#ff0000; stroke-linecap:round; stroke-linejoin:round; stroke-width:4; stroke-opacity:1; fill:none" points="
  406.454,1707.99 406.454,1707.99 
  "/>
<polyline clip-path="url(#clip622)" style="stroke:#ff0000; stroke-linecap:round; stroke-linejoin:round; stroke-width:4; stroke-opacity:1; fill:none" points="
  702.711,1707.99 702.711,1707.89 
  "/>
<polyline clip-path="url(#clip622)" style="stroke:#ff0000; stroke-linecap:round; stroke-linejoin:round; stroke-width:4; stroke-opacity:1; fill:none" points="
  998.968,1707.99 998.968,1706.42 
  "/>
<polyline clip-path="url(#clip622)" style="stroke:#ff0000; stroke-linecap:round; stroke-linejoin:round; stroke-width:4; stroke-opacity:1; fill:none" points="
  1295.22,1707.99 1295.22,1693.3 
  "/>
<polyline clip-path="url(#clip622)" style="stroke:#ff0000; stroke-linecap:round; stroke-linejoin:round; stroke-width:4; stroke-opacity:1; fill:none" points="
  1591.48,1707.99 1591.48,1619.82 
  "/>
<polyline clip-path="url(#clip622)" style="stroke:#ff0000; stroke-linecap:round; stroke-linejoin:round; stroke-width:4; stroke-opacity:1; fill:none" points="
  1887.74,1707.99 1887.74,1355.28 
  "/>
<polyline clip-path="url(#clip622)" style="stroke:#ff0000; stroke-linecap:round; stroke-linejoin:round; stroke-width:4; stroke-opacity:1; fill:none" points="
  2184,1707.99 2184,767.439 
  "/>
<polyline clip-path="url(#clip622)" style="stroke:#ff0000; stroke-linecap:round; stroke-linejoin:round; stroke-width:4; stroke-opacity:1; fill:none" points="
  2480.25,1707.99 2480.25,95.6154 
  "/>
<polyline clip-path="url(#clip622)" style="stroke:#ff0000; stroke-linecap:round; stroke-linejoin:round; stroke-width:4; stroke-opacity:1; fill:none" points="
  2776.51,1707.99 2776.51,95.6154 
  "/>
<polyline clip-path="url(#clip622)" style="stroke:#ff0000; stroke-linecap:round; stroke-linejoin:round; stroke-width:4; stroke-opacity:1; fill:none" points="
  3072.77,1707.99 3072.77,991.38 
  "/>
<path clip-path="url(#clip620)" d="
M420.674 376.375 L1443.77 376.375 L1443.77 104.215 L420.674 104.215  Z
  " fill="#ffffff" fill-rule="evenodd" fill-opacity="1"/>
<polyline clip-path="url(#clip620)" style="stroke:#000000; stroke-linecap:round; stroke-linejoin:round; stroke-width:4; stroke-opacity:1; fill:none" points="
  420.674,376.375 1443.77,376.375 1443.77,104.215 420.674,104.215 420.674,376.375 
  "/>
<path clip-path="url(#clip620)" d="M546.287 239.735 L514.613 226.608 L501.487 194.935 L514.613 163.261 L546.287 150.135 L577.961 163.261 L591.087 194.935 L577.961 226.608 Z" fill="#009af9" fill-rule="evenodd" fill-opacity="1" stroke="#000000" stroke-opacity="1" stroke-width="11.2"/>
<path clip-path="url(#clip620)" d="M680.083 196.292 L680.083 218.45 L693.208 218.45 Q699.811 218.45 702.97 215.736 Q706.171 212.982 706.171 207.351 Q706.171 201.68 702.97 199.006 Q699.811 196.292 693.208 196.292 L680.083 196.292 M680.083 171.419 L680.083 189.648 L692.195 189.648 Q698.19 189.648 701.107 187.42 Q704.064 185.152 704.064 180.534 Q704.064 175.956 701.107 173.688 Q698.19 171.419 692.195 171.419 L680.083 171.419 M671.9 164.695 L692.803 164.695 Q702.16 164.695 707.224 168.584 Q712.287 172.472 712.287 179.643 Q712.287 185.192 709.695 188.474 Q707.102 191.755 702.079 192.565 Q708.115 193.861 711.437 197.993 Q714.799 202.085 714.799 208.242 Q714.799 216.344 709.29 220.759 Q703.781 225.175 693.613 225.175 L671.9 225.175 L671.9 164.695 Z" fill="#000000" fill-rule="evenodd" fill-opacity="1" /><path clip-path="url(#clip620)" d="M728.491 179.805 L735.945 179.805 L735.945 225.175 L728.491 225.175 L728.491 179.805 M728.491 162.143 L735.945 162.143 L735.945 171.581 L728.491 171.581 L728.491 162.143 Z" fill="#000000" fill-rule="evenodd" fill-opacity="1" /><path clip-path="url(#clip620)" d="M789.255 197.791 L789.255 225.175 L781.801 225.175 L781.801 198.034 Q781.801 191.593 779.289 188.393 Q776.778 185.192 771.755 185.192 Q765.719 185.192 762.235 189.041 Q758.751 192.889 758.751 199.533 L758.751 225.175 L751.257 225.175 L751.257 179.805 L758.751 179.805 L758.751 186.853 Q761.425 182.762 765.03 180.736 Q768.676 178.711 773.416 178.711 Q781.234 178.711 785.244 183.572 Q789.255 188.393 789.255 197.791 Z" fill="#000000" fill-rule="evenodd" fill-opacity="1" /><path clip-path="url(#clip620)" d="M821.702 185.03 Q815.707 185.03 812.223 189.729 Q808.739 194.388 808.739 202.53 Q808.739 210.673 812.183 215.372 Q815.666 220.03 821.702 220.03 Q827.657 220.03 831.141 215.331 Q834.625 210.632 834.625 202.53 Q834.625 194.469 831.141 189.77 Q827.657 185.03 821.702 185.03 M821.702 178.711 Q831.425 178.711 836.974 185.03 Q842.524 191.35 842.524 202.53 Q842.524 213.67 836.974 220.03 Q831.425 226.35 821.702 226.35 Q811.94 226.35 806.39 220.03 Q800.881 213.67 800.881 202.53 Q800.881 191.35 806.39 185.03 Q811.94 178.711 821.702 178.711 Z" fill="#000000" fill-rule="evenodd" fill-opacity="1" /><path clip-path="url(#clip620)" d="M890.203 188.514 Q892.998 183.491 896.887 181.101 Q900.776 178.711 906.042 178.711 Q913.131 178.711 916.98 183.693 Q920.828 188.636 920.828 197.791 L920.828 225.175 L913.334 225.175 L913.334 198.034 Q913.334 191.512 911.025 188.352 Q908.716 185.192 903.976 185.192 Q898.183 185.192 894.821 189.041 Q891.459 192.889 891.459 199.533 L891.459 225.175 L883.965 225.175 L883.965 198.034 Q883.965 191.471 881.656 188.352 Q879.347 185.192 874.526 185.192 Q868.814 185.192 865.452 189.081 Q862.09 192.93 862.09 199.533 L862.09 225.175 L854.596 225.175 L854.596 179.805 L862.09 179.805 L862.09 186.853 Q864.642 182.681 868.207 180.696 Q871.772 178.711 876.673 178.711 Q881.615 178.711 885.058 181.222 Q888.542 183.734 890.203 188.514 Z" fill="#000000" fill-rule="evenodd" fill-opacity="1" /><path clip-path="url(#clip620)" d="M935.695 179.805 L943.148 179.805 L943.148 225.175 L935.695 225.175 L935.695 179.805 M935.695 162.143 L943.148 162.143 L943.148 171.581 L935.695 171.581 L935.695 162.143 Z" fill="#000000" fill-rule="evenodd" fill-opacity="1" /><path clip-path="url(#clip620)" d="M979.364 202.368 Q970.33 202.368 966.846 204.434 Q963.362 206.5 963.362 211.483 Q963.362 215.453 965.955 217.802 Q968.588 220.111 973.085 220.111 Q979.283 220.111 983.009 215.736 Q986.777 211.321 986.777 204.029 L986.777 202.368 L979.364 202.368 M994.23 199.289 L994.23 225.175 L986.777 225.175 L986.777 218.288 Q984.225 222.42 980.417 224.405 Q976.609 226.35 971.1 226.35 Q964.132 226.35 960 222.461 Q955.909 218.531 955.909 211.969 Q955.909 204.313 961.013 200.424 Q966.158 196.535 976.325 196.535 L986.777 196.535 L986.777 195.806 Q986.777 190.661 983.374 187.866 Q980.012 185.03 973.895 185.03 Q970.006 185.03 966.32 185.962 Q962.633 186.894 959.231 188.757 L959.231 181.871 Q963.322 180.291 967.17 179.521 Q971.019 178.711 974.664 178.711 Q984.508 178.711 989.369 183.815 Q994.23 188.919 994.23 199.289 Z" fill="#000000" fill-rule="evenodd" fill-opacity="1" /><path clip-path="url(#clip620)" d="M1009.58 162.143 L1017.04 162.143 L1017.04 225.175 L1009.58 225.175 L1009.58 162.143 Z" fill="#000000" fill-rule="evenodd" fill-opacity="1" /><path clip-path="url(#clip620)" d="M1050.54 162.224 Q1045.11 171.541 1042.48 180.655 Q1039.84 189.77 1039.84 199.127 Q1039.84 208.485 1042.48 217.681 Q1045.15 226.836 1050.54 236.112 L1044.06 236.112 Q1037.98 226.593 1034.94 217.397 Q1031.94 208.201 1031.94 199.127 Q1031.94 190.094 1034.94 180.939 Q1037.94 171.784 1044.06 162.224 L1050.54 162.224 Z" fill="#000000" fill-rule="evenodd" fill-opacity="1" /><path clip-path="url(#clip620)" d="M1083.55 170.082 Q1077.23 170.082 1074.03 176.321 Q1070.87 182.519 1070.87 194.996 Q1070.87 207.432 1074.03 213.67 Q1077.23 219.868 1083.55 219.868 Q1089.91 219.868 1093.07 213.67 Q1096.27 207.432 1096.27 194.996 Q1096.27 182.519 1093.07 176.321 Q1089.91 170.082 1083.55 170.082 M1083.55 163.601 Q1093.72 163.601 1099.07 171.662 Q1104.46 179.683 1104.46 194.996 Q1104.46 210.267 1099.07 218.329 Q1093.72 226.35 1083.55 226.35 Q1073.39 226.35 1068 218.329 Q1062.65 210.267 1062.65 194.996 Q1062.65 179.683 1068 171.662 Q1073.39 163.601 1083.55 163.601 Z" fill="#000000" fill-rule="evenodd" fill-opacity="1" /><path clip-path="url(#clip620)" d="M1118.84 214.885 L1127.38 214.885 L1127.38 225.175 L1118.84 225.175 L1118.84 214.885 Z" fill="#000000" fill-rule="evenodd" fill-opacity="1" /><path clip-path="url(#clip620)" d="M1145.29 164.695 L1177.41 164.695 L1177.41 171.581 L1152.78 171.581 L1152.78 186.408 Q1154.57 185.8 1156.35 185.516 Q1158.13 185.192 1159.91 185.192 Q1170.04 185.192 1175.95 190.742 Q1181.87 196.292 1181.87 205.771 Q1181.87 215.534 1175.79 220.962 Q1169.72 226.35 1158.66 226.35 Q1154.85 226.35 1150.88 225.701 Q1146.95 225.053 1142.74 223.757 L1142.74 215.534 Q1146.38 217.519 1150.27 218.491 Q1154.16 219.463 1158.49 219.463 Q1165.5 219.463 1169.59 215.777 Q1173.69 212.09 1173.69 205.771 Q1173.69 199.452 1169.59 195.765 Q1165.5 192.079 1158.49 192.079 Q1155.21 192.079 1151.93 192.808 Q1148.69 193.537 1145.29 195.077 L1145.29 164.695 Z" fill="#000000" fill-rule="evenodd" fill-opacity="1" /><path clip-path="url(#clip620)" d="M1195.76 162.224 L1202.24 162.224 Q1208.32 171.784 1211.32 180.939 Q1214.36 190.094 1214.36 199.127 Q1214.36 208.201 1211.32 217.397 Q1208.32 226.593 1202.24 236.112 L1195.76 236.112 Q1201.15 226.836 1203.78 217.681 Q1206.46 208.485 1206.46 199.127 Q1206.46 189.77 1203.78 180.655 Q1201.15 171.541 1195.76 162.224 Z" fill="#000000" fill-rule="evenodd" fill-opacity="1" /><path clip-path="url(#clip620)" d="M1264.18 171.419 L1264.18 194.145 L1274.47 194.145 Q1280.18 194.145 1283.3 191.188 Q1286.42 188.231 1286.42 182.762 Q1286.42 177.334 1283.3 174.376 Q1280.18 171.419 1274.47 171.419 L1264.18 171.419 M1256 164.695 L1274.47 164.695 Q1284.64 164.695 1289.82 169.313 Q1295.05 173.89 1295.05 182.762 Q1295.05 191.714 1289.82 196.292 Q1284.64 200.869 1274.47 200.869 L1264.18 200.869 L1264.18 225.175 L1256 225.175 L1256 164.695 Z" fill="#000000" fill-rule="evenodd" fill-opacity="1" /><path clip-path="url(#clip620)" d="M1306.03 164.695 L1318.22 164.695 L1333.66 205.852 L1349.17 164.695 L1361.36 164.695 L1361.36 225.175 L1353.38 225.175 L1353.38 172.067 L1337.79 213.549 L1329.56 213.549 L1313.97 172.067 L1313.97 225.175 L1306.03 225.175 L1306.03 164.695 Z" fill="#000000" fill-rule="evenodd" fill-opacity="1" /><path clip-path="url(#clip620)" d="M1377.61 164.695 L1412.36 164.695 L1412.36 171.581 L1385.79 171.581 L1385.79 189.405 L1409.77 189.405 L1409.77 196.292 L1385.79 196.292 L1385.79 225.175 L1377.61 225.175 L1377.61 164.695 Z" fill="#000000" fill-rule="evenodd" fill-opacity="1" /><path clip-path="url(#clip620)" d="M546.287 330.455 L514.613 317.328 L501.487 285.655 L514.613 253.981 L546.287 240.855 L577.961 253.981 L591.087 285.655 L577.961 317.328 Z" fill="#ff0000" fill-rule="evenodd" fill-opacity="1" stroke="#000000" stroke-opacity="1" stroke-width="11.2"/>
<path clip-path="url(#clip620)" d="M680.083 287.012 L680.083 309.17 L693.208 309.17 Q699.811 309.17 702.97 306.456 Q706.171 303.702 706.171 298.071 Q706.171 292.4 702.97 289.726 Q699.811 287.012 693.208 287.012 L680.083 287.012 M680.083 262.139 L680.083 280.368 L692.195 280.368 Q698.19 280.368 701.107 278.14 Q704.064 275.872 704.064 271.254 Q704.064 266.676 701.107 264.408 Q698.19 262.139 692.195 262.139 L680.083 262.139 M671.9 255.415 L692.803 255.415 Q702.16 255.415 707.224 259.304 Q712.287 263.192 712.287 270.363 Q712.287 275.912 709.695 279.194 Q707.102 282.475 702.079 283.285 Q708.115 284.581 711.437 288.713 Q714.799 292.805 714.799 298.962 Q714.799 307.064 709.29 311.479 Q703.781 315.895 693.613 315.895 L671.9 315.895 L671.9 255.415 Z" fill="#000000" fill-rule="evenodd" fill-opacity="1" /><path clip-path="url(#clip620)" d="M728.491 270.525 L735.945 270.525 L735.945 315.895 L728.491 315.895 L728.491 270.525 M728.491 252.863 L735.945 252.863 L735.945 262.301 L728.491 262.301 L728.491 252.863 Z" fill="#000000" fill-rule="evenodd" fill-opacity="1" /><path clip-path="url(#clip620)" d="M789.255 288.511 L789.255 315.895 L781.801 315.895 L781.801 288.754 Q781.801 282.313 779.289 279.113 Q776.778 275.912 771.755 275.912 Q765.719 275.912 762.235 279.761 Q758.751 283.609 758.751 290.253 L758.751 315.895 L751.257 315.895 L751.257 270.525 L758.751 270.525 L758.751 277.573 Q761.425 273.482 765.03 271.456 Q768.676 269.431 773.416 269.431 Q781.234 269.431 785.244 274.292 Q789.255 279.113 789.255 288.511 Z" fill="#000000" fill-rule="evenodd" fill-opacity="1" /><path clip-path="url(#clip620)" d="M821.702 275.75 Q815.707 275.75 812.223 280.449 Q808.739 285.108 808.739 293.25 Q808.739 301.393 812.183 306.092 Q815.666 310.75 821.702 310.75 Q827.657 310.75 831.141 306.051 Q834.625 301.352 834.625 293.25 Q834.625 285.189 831.141 280.49 Q827.657 275.75 821.702 275.75 M821.702 269.431 Q831.425 269.431 836.974 275.75 Q842.524 282.07 842.524 293.25 Q842.524 304.39 836.974 310.75 Q831.425 317.07 821.702 317.07 Q811.94 317.07 806.39 310.75 Q800.881 304.39 800.881 293.25 Q800.881 282.07 806.39 275.75 Q811.94 269.431 821.702 269.431 Z" fill="#000000" fill-rule="evenodd" fill-opacity="1" /><path clip-path="url(#clip620)" d="M890.203 279.234 Q892.998 274.211 896.887 271.821 Q900.776 269.431 906.042 269.431 Q913.131 269.431 916.98 274.413 Q920.828 279.356 920.828 288.511 L920.828 315.895 L913.334 315.895 L913.334 288.754 Q913.334 282.232 911.025 279.072 Q908.716 275.912 903.976 275.912 Q898.183 275.912 894.821 279.761 Q891.459 283.609 891.459 290.253 L891.459 315.895 L883.965 315.895 L883.965 288.754 Q883.965 282.191 881.656 279.072 Q879.347 275.912 874.526 275.912 Q868.814 275.912 865.452 279.801 Q862.09 283.65 862.09 290.253 L862.09 315.895 L854.596 315.895 L854.596 270.525 L862.09 270.525 L862.09 277.573 Q864.642 273.401 868.207 271.416 Q871.772 269.431 876.673 269.431 Q881.615 269.431 885.058 271.942 Q888.542 274.454 890.203 279.234 Z" fill="#000000" fill-rule="evenodd" fill-opacity="1" /><path clip-path="url(#clip620)" d="M935.695 270.525 L943.148 270.525 L943.148 315.895 L935.695 315.895 L935.695 270.525 M935.695 252.863 L943.148 252.863 L943.148 262.301 L935.695 262.301 L935.695 252.863 Z" fill="#000000" fill-rule="evenodd" fill-opacity="1" /><path clip-path="url(#clip620)" d="M979.364 293.088 Q970.33 293.088 966.846 295.154 Q963.362 297.22 963.362 302.203 Q963.362 306.173 965.955 308.522 Q968.588 310.831 973.085 310.831 Q979.283 310.831 983.009 306.456 Q986.777 302.041 986.777 294.749 L986.777 293.088 L979.364 293.088 M994.23 290.009 L994.23 315.895 L986.777 315.895 L986.777 309.008 Q984.225 313.14 980.417 315.125 Q976.609 317.07 971.1 317.07 Q964.132 317.07 960 313.181 Q955.909 309.251 955.909 302.689 Q955.909 295.033 961.013 291.144 Q966.158 287.255 976.325 287.255 L986.777 287.255 L986.777 286.526 Q986.777 281.381 983.374 278.586 Q980.012 275.75 973.895 275.75 Q970.006 275.75 966.32 276.682 Q962.633 277.614 959.231 279.477 L959.231 272.591 Q963.322 271.011 967.17 270.241 Q971.019 269.431 974.664 269.431 Q984.508 269.431 989.369 274.535 Q994.23 279.639 994.23 290.009 Z" fill="#000000" fill-rule="evenodd" fill-opacity="1" /><path clip-path="url(#clip620)" d="M1009.58 252.863 L1017.04 252.863 L1017.04 315.895 L1009.58 315.895 L1009.58 252.863 Z" fill="#000000" fill-rule="evenodd" fill-opacity="1" /><path clip-path="url(#clip620)" d="M1050.54 252.944 Q1045.11 262.261 1042.48 271.375 Q1039.84 280.49 1039.84 289.847 Q1039.84 299.205 1042.48 308.401 Q1045.15 317.556 1050.54 326.832 L1044.06 326.832 Q1037.98 317.313 1034.94 308.117 Q1031.94 298.921 1031.94 289.847 Q1031.94 280.814 1034.94 271.659 Q1037.94 262.504 1044.06 252.944 L1050.54 252.944 Z" fill="#000000" fill-rule="evenodd" fill-opacity="1" /><path clip-path="url(#clip620)" d="M1083.55 260.802 Q1077.23 260.802 1074.03 267.041 Q1070.87 273.239 1070.87 285.716 Q1070.87 298.152 1074.03 304.39 Q1077.23 310.588 1083.55 310.588 Q1089.91 310.588 1093.07 304.39 Q1096.27 298.152 1096.27 285.716 Q1096.27 273.239 1093.07 267.041 Q1089.91 260.802 1083.55 260.802 M1083.55 254.321 Q1093.72 254.321 1099.07 262.382 Q1104.46 270.403 1104.46 285.716 Q1104.46 300.987 1099.07 309.049 Q1093.72 317.07 1083.55 317.07 Q1073.39 317.07 1068 309.049 Q1062.65 300.987 1062.65 285.716 Q1062.65 270.403 1068 262.382 Q1073.39 254.321 1083.55 254.321 Z" fill="#000000" fill-rule="evenodd" fill-opacity="1" /><path clip-path="url(#clip620)" d="M1118.84 305.605 L1127.38 305.605 L1127.38 315.895 L1118.84 315.895 L1118.84 305.605 Z" fill="#000000" fill-rule="evenodd" fill-opacity="1" /><path clip-path="url(#clip620)" d="M1145.45 314.639 L1145.45 307.185 Q1148.53 308.644 1151.69 309.413 Q1154.85 310.183 1157.89 310.183 Q1165.99 310.183 1170.24 304.755 Q1174.54 299.286 1175.14 288.187 Q1172.79 291.67 1169.19 293.534 Q1165.58 295.397 1161.21 295.397 Q1152.13 295.397 1146.83 289.928 Q1141.56 284.419 1141.56 274.9 Q1141.56 265.583 1147.07 259.952 Q1152.58 254.321 1161.74 254.321 Q1172.23 254.321 1177.74 262.382 Q1183.29 270.403 1183.29 285.716 Q1183.29 300.015 1176.48 308.563 Q1169.72 317.07 1158.25 317.07 Q1155.17 317.07 1152.01 316.462 Q1148.85 315.854 1145.45 314.639 M1161.74 288.997 Q1167.24 288.997 1170.44 285.229 Q1173.69 281.462 1173.69 274.9 Q1173.69 268.378 1170.44 264.61 Q1167.24 260.802 1161.74 260.802 Q1156.23 260.802 1152.99 264.61 Q1149.79 268.378 1149.79 274.9 Q1149.79 281.462 1152.99 285.229 Q1156.23 288.997 1161.74 288.997 Z" fill="#000000" fill-rule="evenodd" fill-opacity="1" /><path clip-path="url(#clip620)" d="M1195.76 252.944 L1202.24 252.944 Q1208.32 262.504 1211.32 271.659 Q1214.36 280.814 1214.36 289.847 Q1214.36 298.921 1211.32 308.117 Q1208.32 317.313 1202.24 326.832 L1195.76 326.832 Q1201.15 317.556 1203.78 308.401 Q1206.46 299.205 1206.46 289.847 Q1206.46 280.49 1203.78 271.375 Q1201.15 262.261 1195.76 252.944 Z" fill="#000000" fill-rule="evenodd" fill-opacity="1" /><path clip-path="url(#clip620)" d="M1264.18 262.139 L1264.18 284.865 L1274.47 284.865 Q1280.18 284.865 1283.3 281.908 Q1286.42 278.951 1286.42 273.482 Q1286.42 268.054 1283.3 265.096 Q1280.18 262.139 1274.47 262.139 L1264.18 262.139 M1256 255.415 L1274.47 255.415 Q1284.64 255.415 1289.82 260.033 Q1295.05 264.61 1295.05 273.482 Q1295.05 282.434 1289.82 287.012 Q1284.64 291.589 1274.47 291.589 L1264.18 291.589 L1264.18 315.895 L1256 315.895 L1256 255.415 Z" fill="#000000" fill-rule="evenodd" fill-opacity="1" /><path clip-path="url(#clip620)" d="M1306.03 255.415 L1318.22 255.415 L1333.66 296.572 L1349.17 255.415 L1361.36 255.415 L1361.36 315.895 L1353.38 315.895 L1353.38 262.787 L1337.79 304.269 L1329.56 304.269 L1313.97 262.787 L1313.97 315.895 L1306.03 315.895 L1306.03 255.415 Z" fill="#000000" fill-rule="evenodd" fill-opacity="1" /><path clip-path="url(#clip620)" d="M1377.61 255.415 L1412.36 255.415 L1412.36 262.301 L1385.79 262.301 L1385.79 280.125 L1409.77 280.125 L1409.77 287.012 L1385.79 287.012 L1385.79 315.895 L1377.61 315.895 L1377.61 255.415 Z" fill="#000000" fill-rule="evenodd" fill-opacity="1" /></svg>
