<?xml version="1.0" encoding="utf-8"?>
<svg xmlns="http://www.w3.org/2000/svg" xmlns:xlink="http://www.w3.org/1999/xlink" width="600" height="400" viewBox="0 0 2400 1600">
<defs>
  <clipPath id="clip170">
    <rect x="0" y="0" width="2400" height="1600"/>
  </clipPath>
</defs>
<path clip-path="url(#clip170)" d="
M0 1600 L2400 1600 L2400 0 L0 0  Z
  " fill="#ffffff" fill-rule="evenodd" fill-opacity="1"/>
<defs>
  <clipPath id="clip171">
    <rect x="480" y="0" width="1681" height="1600"/>
  </clipPath>
</defs>
<defs>
  <clipPath id="clip172">
    <rect x="309" y="47" width="2045" height="1347"/>
  </clipPath>
</defs>
<path clip-path="url(#clip170)" d="
M309.018 1392.94 L2352.76 1392.94 L2352.76 47.2441 L309.018 47.2441  Z
  " fill="#ffffff" fill-rule="evenodd" fill-opacity="1"/>
<polyline clip-path="url(#clip172)" style="stroke:#000000; stroke-linecap:round; stroke-linejoin:round; stroke-width:2; stroke-opacity:0.1; fill:none" points="
  408.738,1392.94 408.738,47.2441 
  "/>
<polyline clip-path="url(#clip172)" style="stroke:#000000; stroke-linecap:round; stroke-linejoin:round; stroke-width:2; stroke-opacity:0.1; fill:none" points="
  817.003,1392.94 817.003,47.2441 
  "/>
<polyline clip-path="url(#clip172)" style="stroke:#000000; stroke-linecap:round; stroke-linejoin:round; stroke-width:2; stroke-opacity:0.1; fill:none" points="
  1225.27,1392.94 1225.27,47.2441 
  "/>
<polyline clip-path="url(#clip172)" style="stroke:#000000; stroke-linecap:round; stroke-linejoin:round; stroke-width:2; stroke-opacity:0.1; fill:none" points="
  1633.53,1392.94 1633.53,47.2441 
  "/>
<polyline clip-path="url(#clip172)" style="stroke:#000000; stroke-linecap:round; stroke-linejoin:round; stroke-width:2; stroke-opacity:0.1; fill:none" points="
  2041.8,1392.94 2041.8,47.2441 
  "/>
<polyline clip-path="url(#clip170)" style="stroke:#000000; stroke-linecap:round; stroke-linejoin:round; stroke-width:4; stroke-opacity:1; fill:none" points="
  309.018,1392.94 2352.76,1392.94 
  "/>
<polyline clip-path="url(#clip170)" style="stroke:#000000; stroke-linecap:round; stroke-linejoin:round; stroke-width:4; stroke-opacity:1; fill:none" points="
  408.738,1392.94 408.738,1374.04 
  "/>
<polyline clip-path="url(#clip170)" style="stroke:#000000; stroke-linecap:round; stroke-linejoin:round; stroke-width:4; stroke-opacity:1; fill:none" points="
  817.003,1392.94 817.003,1374.04 
  "/>
<polyline clip-path="url(#clip170)" style="stroke:#000000; stroke-linecap:round; stroke-linejoin:round; stroke-width:4; stroke-opacity:1; fill:none" points="
  1225.27,1392.94 1225.27,1374.04 
  "/>
<polyline clip-path="url(#clip170)" style="stroke:#000000; stroke-linecap:round; stroke-linejoin:round; stroke-width:4; stroke-opacity:1; fill:none" points="
  1633.53,1392.94 1633.53,1374.04 
  "/>
<polyline clip-path="url(#clip170)" style="stroke:#000000; stroke-linecap:round; stroke-linejoin:round; stroke-width:4; stroke-opacity:1; fill:none" points="
  2041.8,1392.94 2041.8,1374.04 
  "/>
<path clip-path="url(#clip170)" d="M360.665 1471.04 L372.123 1471.04 L372.123 1431.49 L359.658 1433.99 L359.658 1427.6 L372.054 1425.1 L379.068 1425.1 L379.068 1471.04 L390.526 1471.04 L390.526 1476.94 L360.665 1476.94 L360.665 1471.04 Z" fill="#000000" fill-rule="evenodd" fill-opacity="1" /><path clip-path="url(#clip170)" d="M404.693 1468.12 L412.019 1468.12 L412.019 1476.94 L404.693 1476.94 L404.693 1468.12 Z" fill="#000000" fill-rule="evenodd" fill-opacity="1" /><path clip-path="url(#clip170)" d="M433.338 1471.04 L457.817 1471.04 L457.817 1476.94 L424.901 1476.94 L424.901 1471.04 Q428.894 1466.91 435.769 1459.96 Q442.679 1452.98 444.449 1450.97 Q447.818 1447.18 449.137 1444.58 Q450.491 1441.94 450.491 1439.41 Q450.491 1435.27 447.574 1432.67 Q444.693 1430.07 440.04 1430.07 Q436.741 1430.07 433.061 1431.21 Q429.415 1432.36 425.248 1434.68 L425.248 1427.6 Q429.484 1425.9 433.165 1425.03 Q436.845 1424.16 439.901 1424.16 Q447.956 1424.16 452.748 1428.19 Q457.54 1432.22 457.54 1438.95 Q457.54 1442.15 456.324 1445.03 Q455.144 1447.88 451.984 1451.77 Q451.116 1452.77 446.463 1457.6 Q441.811 1462.39 433.338 1471.04 Z" fill="#000000" fill-rule="evenodd" fill-opacity="1" /><path clip-path="url(#clip170)" d="M768.478 1471.04 L779.937 1471.04 L779.937 1431.49 L767.472 1433.99 L767.472 1427.6 L779.867 1425.1 L786.881 1425.1 L786.881 1471.04 L798.339 1471.04 L798.339 1476.94 L768.478 1476.94 L768.478 1471.04 Z" fill="#000000" fill-rule="evenodd" fill-opacity="1" /><path clip-path="url(#clip170)" d="M812.506 1468.12 L819.832 1468.12 L819.832 1476.94 L812.506 1476.94 L812.506 1468.12 Z" fill="#000000" fill-rule="evenodd" fill-opacity="1" /><path clip-path="url(#clip170)" d="M835.18 1425.1 L862.714 1425.1 L862.714 1431 L841.603 1431 L841.603 1443.71 Q843.131 1443.19 844.659 1442.95 Q846.186 1442.67 847.714 1442.67 Q856.395 1442.67 861.464 1447.43 Q866.534 1452.18 866.534 1460.31 Q866.534 1468.68 861.325 1473.33 Q856.117 1477.95 846.638 1477.95 Q843.374 1477.95 839.971 1477.39 Q836.603 1476.84 832.992 1475.72 L832.992 1468.68 Q836.117 1470.38 839.45 1471.21 Q842.784 1472.04 846.499 1472.04 Q852.506 1472.04 856.013 1468.88 Q859.52 1465.72 859.52 1460.31 Q859.52 1454.89 856.013 1451.73 Q852.506 1448.57 846.499 1448.57 Q843.686 1448.57 840.874 1449.2 Q838.096 1449.82 835.18 1451.14 L835.18 1425.1 Z" fill="#000000" fill-rule="evenodd" fill-opacity="1" /><path clip-path="url(#clip170)" d="M1176.07 1471.04 L1187.52 1471.04 L1187.52 1431.49 L1175.06 1433.99 L1175.06 1427.6 L1187.45 1425.1 L1194.47 1425.1 L1194.47 1471.04 L1205.93 1471.04 L1205.93 1476.94 L1176.07 1476.94 L1176.07 1471.04 Z" fill="#000000" fill-rule="evenodd" fill-opacity="1" /><path clip-path="url(#clip170)" d="M1220.09 1468.12 L1227.42 1468.12 L1227.42 1476.94 L1220.09 1476.94 L1220.09 1468.12 Z" fill="#000000" fill-rule="evenodd" fill-opacity="1" /><path clip-path="url(#clip170)" d="M1257.7 1452.32 Q1252.7 1452.32 1249.82 1455 Q1246.97 1457.67 1246.97 1462.36 Q1246.97 1467.04 1249.82 1469.72 Q1252.7 1472.39 1257.7 1472.39 Q1262.7 1472.39 1265.58 1469.72 Q1268.46 1467.01 1268.46 1462.36 Q1268.46 1457.67 1265.58 1455 Q1262.73 1452.32 1257.7 1452.32 M1250.68 1449.34 Q1246.17 1448.22 1243.64 1445.13 Q1241.14 1442.04 1241.14 1437.6 Q1241.14 1431.38 1245.54 1427.77 Q1249.99 1424.16 1257.7 1424.16 Q1265.44 1424.16 1269.85 1427.77 Q1274.26 1431.38 1274.26 1437.6 Q1274.26 1442.04 1271.73 1445.13 Q1269.23 1448.22 1264.75 1449.34 Q1269.82 1450.52 1272.63 1453.95 Q1275.48 1457.39 1275.48 1462.36 Q1275.48 1469.89 1270.86 1473.92 Q1266.27 1477.95 1257.7 1477.95 Q1249.12 1477.95 1244.5 1473.92 Q1239.92 1469.89 1239.92 1462.36 Q1239.92 1457.39 1242.77 1453.95 Q1245.61 1450.52 1250.68 1449.34 M1248.11 1438.26 Q1248.11 1442.29 1250.61 1444.54 Q1253.15 1446.8 1257.7 1446.8 Q1262.21 1446.8 1264.75 1444.54 Q1267.32 1442.29 1267.32 1438.26 Q1267.32 1434.23 1264.75 1431.97 Q1262.21 1429.72 1257.7 1429.72 Q1253.15 1429.72 1250.61 1431.97 Q1248.11 1434.23 1248.11 1438.26 Z" fill="#000000" fill-rule="evenodd" fill-opacity="1" /><path clip-path="url(#clip170)" d="M1591.31 1471.04 L1615.79 1471.04 L1615.79 1476.94 L1582.87 1476.94 L1582.87 1471.04 Q1586.87 1466.91 1593.74 1459.96 Q1600.65 1452.98 1602.42 1450.97 Q1605.79 1447.18 1607.11 1444.58 Q1608.46 1441.94 1608.46 1439.41 Q1608.46 1435.27 1605.55 1432.67 Q1602.66 1430.07 1598.01 1430.07 Q1594.71 1430.07 1591.03 1431.21 Q1587.39 1432.36 1583.22 1434.68 L1583.22 1427.6 Q1587.46 1425.9 1591.14 1425.03 Q1594.82 1424.16 1597.87 1424.16 Q1605.93 1424.16 1610.72 1428.19 Q1615.51 1432.22 1615.51 1438.95 Q1615.51 1442.15 1614.3 1445.03 Q1613.12 1447.88 1609.96 1451.77 Q1609.09 1452.77 1604.43 1457.6 Q1599.78 1462.39 1591.31 1471.04 Z" fill="#000000" fill-rule="evenodd" fill-opacity="1" /><path clip-path="url(#clip170)" d="M1630.51 1468.12 L1637.84 1468.12 L1637.84 1476.94 L1630.51 1476.94 L1630.51 1468.12 Z" fill="#000000" fill-rule="evenodd" fill-opacity="1" /><path clip-path="url(#clip170)" d="M1654.33 1471.04 L1665.79 1471.04 L1665.79 1431.49 L1653.32 1433.99 L1653.32 1427.6 L1665.72 1425.1 L1672.73 1425.1 L1672.73 1471.04 L1684.19 1471.04 L1684.19 1476.94 L1654.33 1476.94 L1654.33 1471.04 Z" fill="#000000" fill-rule="evenodd" fill-opacity="1" /><path clip-path="url(#clip170)" d="M1998.29 1471.04 L2022.77 1471.04 L2022.77 1476.94 L1989.85 1476.94 L1989.85 1471.04 Q1993.85 1466.91 2000.72 1459.96 Q2007.63 1452.98 2009.4 1450.97 Q2012.77 1447.18 2014.09 1444.58 Q2015.44 1441.94 2015.44 1439.41 Q2015.44 1435.27 2012.53 1432.67 Q2009.64 1430.07 2004.99 1430.07 Q2001.69 1430.07 1998.01 1431.21 Q1994.37 1432.36 1990.2 1434.68 L1990.2 1427.6 Q1994.44 1425.9 1998.12 1425.03 Q2001.8 1424.16 2004.85 1424.16 Q2012.91 1424.16 2017.7 1428.19 Q2022.49 1432.22 2022.49 1438.95 Q2022.49 1442.15 2021.28 1445.03 Q2020.1 1447.88 2016.94 1451.77 Q2016.07 1452.77 2011.41 1457.6 Q2006.76 1462.39 1998.29 1471.04 Z" fill="#000000" fill-rule="evenodd" fill-opacity="1" /><path clip-path="url(#clip170)" d="M2037.49 1468.12 L2044.82 1468.12 L2044.82 1476.94 L2037.49 1476.94 L2037.49 1468.12 Z" fill="#000000" fill-rule="evenodd" fill-opacity="1" /><path clip-path="url(#clip170)" d="M2079.37 1431.21 L2061.66 1458.88 L2079.37 1458.88 L2079.37 1431.21 M2077.53 1425.1 L2086.34 1425.1 L2086.34 1458.88 L2093.74 1458.88 L2093.74 1464.72 L2086.34 1464.72 L2086.34 1476.94 L2079.37 1476.94 L2079.37 1464.72 L2055.96 1464.72 L2055.96 1457.95 L2077.53 1425.1 Z" fill="#000000" fill-rule="evenodd" fill-opacity="1" /><path clip-path="url(#clip170)" d="M1346.08 1529.86 Q1346.08 1536.74 1343.86 1544.49 Q1341.69 1552.2 1338.25 1558.43 Q1334.81 1564.62 1330.3 1568.72 Q1325.79 1572.77 1321.48 1572.77 Q1318.74 1572.77 1316.69 1571.26 Q1314.68 1569.7 1313.57 1567.12 Q1312.47 1564.49 1311.93 1561.63 Q1311.4 1558.72 1311.4 1555.56 Q1311.4 1550.85 1312.43 1545.72 Q1313.45 1540.56 1315.17 1535.88 Q1316.89 1531.17 1319.31 1526.91 Q1321.73 1522.6 1324.39 1519.49 Q1327.1 1516.33 1330.13 1514.49 Q1333.17 1512.64 1335.99 1512.64 Q1338.04 1512.64 1339.68 1513.54 Q1341.36 1514.41 1342.43 1515.92 Q1343.5 1517.4 1344.23 1519.16 Q1345.01 1520.92 1345.38 1522.97 Q1345.75 1524.98 1345.91 1526.66 Q1346.08 1528.3 1346.08 1529.86 M1340.54 1524.65 Q1340.54 1522.56 1340.38 1521 Q1340.22 1519.41 1339.77 1517.81 Q1339.31 1516.21 1338.33 1515.35 Q1337.39 1514.49 1335.91 1514.49 Q1331.61 1514.49 1326.77 1523.3 Q1325.21 1526.05 1323.82 1529.78 Q1322.43 1533.51 1321.94 1535.27 Q1321.44 1537.03 1320.3 1541.38 L1337.84 1541.38 Q1340.54 1530.19 1340.54 1524.65 M1337.1 1544.04 L1319.64 1544.04 Q1316.93 1554.29 1316.93 1560.68 Q1316.93 1566.26 1318.08 1568.59 Q1319.27 1570.89 1321.48 1570.89 Q1324.03 1570.89 1326.4 1568.35 Q1328.78 1565.77 1331.2 1561.09 Q1334.4 1555.03 1337.1 1544.04 Z" fill="#000000" fill-rule="evenodd" fill-opacity="1" /><polyline clip-path="url(#clip172)" style="stroke:#000000; stroke-linecap:round; stroke-linejoin:round; stroke-width:2; stroke-opacity:0.1; fill:none" points="
  309.018,1355.12 2352.76,1355.12 
  "/>
<polyline clip-path="url(#clip172)" style="stroke:#000000; stroke-linecap:round; stroke-linejoin:round; stroke-width:2; stroke-opacity:0.1; fill:none" points="
  309.018,1039.94 2352.76,1039.94 
  "/>
<polyline clip-path="url(#clip172)" style="stroke:#000000; stroke-linecap:round; stroke-linejoin:round; stroke-width:2; stroke-opacity:0.1; fill:none" points="
  309.018,724.76 2352.76,724.76 
  "/>
<polyline clip-path="url(#clip172)" style="stroke:#000000; stroke-linecap:round; stroke-linejoin:round; stroke-width:2; stroke-opacity:0.1; fill:none" points="
  309.018,409.582 2352.76,409.582 
  "/>
<polyline clip-path="url(#clip172)" style="stroke:#000000; stroke-linecap:round; stroke-linejoin:round; stroke-width:2; stroke-opacity:0.1; fill:none" points="
  309.018,94.404 2352.76,94.404 
  "/>
<polyline clip-path="url(#clip170)" style="stroke:#000000; stroke-linecap:round; stroke-linejoin:round; stroke-width:4; stroke-opacity:1; fill:none" points="
  309.018,1392.94 309.018,47.2441 
  "/>
<polyline clip-path="url(#clip170)" style="stroke:#000000; stroke-linecap:round; stroke-linejoin:round; stroke-width:4; stroke-opacity:1; fill:none" points="
  309.018,1355.12 327.916,1355.12 
  "/>
<polyline clip-path="url(#clip170)" style="stroke:#000000; stroke-linecap:round; stroke-linejoin:round; stroke-width:4; stroke-opacity:1; fill:none" points="
  309.018,1039.94 327.916,1039.94 
  "/>
<polyline clip-path="url(#clip170)" style="stroke:#000000; stroke-linecap:round; stroke-linejoin:round; stroke-width:4; stroke-opacity:1; fill:none" points="
  309.018,724.76 327.916,724.76 
  "/>
<polyline clip-path="url(#clip170)" style="stroke:#000000; stroke-linecap:round; stroke-linejoin:round; stroke-width:4; stroke-opacity:1; fill:none" points="
  309.018,409.582 327.916,409.582 
  "/>
<polyline clip-path="url(#clip170)" style="stroke:#000000; stroke-linecap:round; stroke-linejoin:round; stroke-width:4; stroke-opacity:1; fill:none" points="
  309.018,94.404 327.916,94.404 
  "/>
<path clip-path="url(#clip170)" d="M187.255 1333.81 Q181.838 1333.81 179.095 1339.16 Q176.387 1344.47 176.387 1355.17 Q176.387 1365.83 179.095 1371.18 Q181.838 1376.49 187.255 1376.49 Q192.706 1376.49 195.414 1371.18 Q198.157 1365.83 198.157 1355.17 Q198.157 1344.47 195.414 1339.16 Q192.706 1333.81 187.255 1333.81 M187.255 1328.26 Q195.97 1328.26 200.553 1335.17 Q205.171 1342.04 205.171 1355.17 Q205.171 1368.26 200.553 1375.17 Q195.97 1382.04 187.255 1382.04 Q178.539 1382.04 173.921 1375.17 Q169.338 1368.26 169.338 1355.17 Q169.338 1342.04 173.921 1335.17 Q178.539 1328.26 187.255 1328.26 Z" fill="#000000" fill-rule="evenodd" fill-opacity="1" /><path clip-path="url(#clip170)" d="M217.497 1372.22 L224.824 1372.22 L224.824 1381.04 L217.497 1381.04 L217.497 1372.22 Z" fill="#000000" fill-rule="evenodd" fill-opacity="1" /><path clip-path="url(#clip170)" d="M255.101 1333.81 Q249.685 1333.81 246.942 1339.16 Q244.233 1344.47 244.233 1355.17 Q244.233 1365.83 246.942 1371.18 Q249.685 1376.49 255.101 1376.49 Q260.553 1376.49 263.261 1371.18 Q266.004 1365.83 266.004 1355.17 Q266.004 1344.47 263.261 1339.16 Q260.553 1333.81 255.101 1333.81 M255.101 1328.26 Q263.817 1328.26 268.4 1335.17 Q273.018 1342.04 273.018 1355.17 Q273.018 1368.26 268.4 1375.17 Q263.817 1382.04 255.101 1382.04 Q246.386 1382.04 241.768 1375.17 Q237.185 1368.26 237.185 1355.17 Q237.185 1342.04 241.768 1335.17 Q246.386 1328.26 255.101 1328.26 Z" fill="#000000" fill-rule="evenodd" fill-opacity="1" /><path clip-path="url(#clip170)" d="M179.789 1059.96 L204.268 1059.96 L204.268 1065.86 L171.352 1065.86 L171.352 1059.96 Q175.345 1055.82 182.22 1048.88 Q189.13 1041.9 190.9 1039.89 Q194.268 1036.1 195.588 1033.5 Q196.942 1030.86 196.942 1028.32 Q196.942 1024.19 194.025 1021.59 Q191.143 1018.98 186.491 1018.98 Q183.192 1018.98 179.512 1020.13 Q175.866 1021.27 171.699 1023.6 L171.699 1016.52 Q175.935 1014.82 179.616 1013.95 Q183.296 1013.08 186.352 1013.08 Q194.407 1013.08 199.199 1017.11 Q203.991 1021.14 203.991 1027.87 Q203.991 1031.07 202.775 1033.95 Q201.595 1036.8 198.435 1040.68 Q197.567 1041.69 192.914 1046.52 Q188.261 1051.31 179.789 1059.96 Z" fill="#000000" fill-rule="evenodd" fill-opacity="1" /><path clip-path="url(#clip170)" d="M218.99 1057.04 L226.317 1057.04 L226.317 1065.86 L218.99 1065.86 L218.99 1057.04 Z" fill="#000000" fill-rule="evenodd" fill-opacity="1" /><path clip-path="url(#clip170)" d="M241.664 1014.02 L269.199 1014.02 L269.199 1019.92 L248.088 1019.92 L248.088 1032.63 Q249.615 1032.11 251.143 1031.87 Q252.671 1031.59 254.199 1031.59 Q262.879 1031.59 267.949 1036.34 Q273.018 1041.1 273.018 1049.23 Q273.018 1057.59 267.81 1062.25 Q262.601 1066.87 253.122 1066.87 Q249.858 1066.87 246.456 1066.31 Q243.088 1065.75 239.477 1064.64 L239.477 1057.59 Q242.601 1059.3 245.935 1060.13 Q249.268 1060.96 252.983 1060.96 Q258.99 1060.96 262.497 1057.8 Q266.004 1054.64 266.004 1049.23 Q266.004 1043.81 262.497 1040.65 Q258.99 1037.49 252.983 1037.49 Q250.171 1037.49 247.358 1038.12 Q244.581 1038.74 241.664 1040.06 L241.664 1014.02 Z" fill="#000000" fill-rule="evenodd" fill-opacity="1" /><path clip-path="url(#clip170)" d="M172.324 698.84 L199.859 698.84 L199.859 704.743 L178.748 704.743 L178.748 717.451 Q180.275 716.93 181.803 716.687 Q183.331 716.409 184.859 716.409 Q193.539 716.409 198.609 721.166 Q203.678 725.923 203.678 734.048 Q203.678 742.416 198.47 747.069 Q193.261 751.687 183.782 751.687 Q180.518 751.687 177.116 751.131 Q173.748 750.576 170.137 749.465 L170.137 742.416 Q173.262 744.118 176.595 744.951 Q179.928 745.784 183.643 745.784 Q189.65 745.784 193.157 742.625 Q196.664 739.465 196.664 734.048 Q196.664 728.632 193.157 725.472 Q189.65 722.312 183.643 722.312 Q180.831 722.312 178.018 722.937 Q175.241 723.562 172.324 724.882 L172.324 698.84 Z" fill="#000000" fill-rule="evenodd" fill-opacity="1" /><path clip-path="url(#clip170)" d="M217.497 741.861 L224.824 741.861 L224.824 750.68 L217.497 750.68 L217.497 741.861 Z" fill="#000000" fill-rule="evenodd" fill-opacity="1" /><path clip-path="url(#clip170)" d="M255.101 703.458 Q249.685 703.458 246.942 708.805 Q244.233 714.118 244.233 724.812 Q244.233 735.472 246.942 740.819 Q249.685 746.131 255.101 746.131 Q260.553 746.131 263.261 740.819 Q266.004 735.472 266.004 724.812 Q266.004 714.118 263.261 708.805 Q260.553 703.458 255.101 703.458 M255.101 697.903 Q263.817 697.903 268.4 704.812 Q273.018 711.687 273.018 724.812 Q273.018 737.902 268.4 744.812 Q263.817 751.687 255.101 751.687 Q246.386 751.687 241.768 744.812 Q237.185 737.902 237.185 724.812 Q237.185 711.687 241.768 704.812 Q246.386 697.903 255.101 697.903 Z" fill="#000000" fill-rule="evenodd" fill-opacity="1" /><path clip-path="url(#clip170)" d="M171.977 383.662 L205.31 383.662 L205.31 386.648 L186.491 435.502 L179.164 435.502 L196.873 389.565 L171.977 389.565 L171.977 383.662 Z" fill="#000000" fill-rule="evenodd" fill-opacity="1" /><path clip-path="url(#clip170)" d="M218.99 426.683 L226.317 426.683 L226.317 435.502 L218.99 435.502 L218.99 426.683 Z" fill="#000000" fill-rule="evenodd" fill-opacity="1" /><path clip-path="url(#clip170)" d="M241.664 383.662 L269.199 383.662 L269.199 389.565 L248.088 389.565 L248.088 402.273 Q249.615 401.752 251.143 401.509 Q252.671 401.231 254.199 401.231 Q262.879 401.231 267.949 405.988 Q273.018 410.745 273.018 418.87 Q273.018 427.238 267.81 431.891 Q262.601 436.509 253.122 436.509 Q249.858 436.509 246.456 435.953 Q243.088 435.398 239.477 434.287 L239.477 427.238 Q242.601 428.94 245.935 429.773 Q249.268 430.606 252.983 430.606 Q258.99 430.606 262.497 427.447 Q266.004 424.287 266.004 418.87 Q266.004 413.454 262.497 410.294 Q258.99 407.134 252.983 407.134 Q250.171 407.134 247.358 407.759 Q244.581 408.384 241.664 409.704 L241.664 383.662 Z" fill="#000000" fill-rule="evenodd" fill-opacity="1" /><path clip-path="url(#clip170)" d="M128.227 114.421 L139.685 114.421 L139.685 74.8729 L127.22 77.3729 L127.22 70.984 L139.616 68.484 L146.63 68.484 L146.63 114.421 L158.088 114.421 L158.088 120.324 L128.227 120.324 L128.227 114.421 Z" fill="#000000" fill-rule="evenodd" fill-opacity="1" /><path clip-path="url(#clip170)" d="M187.255 73.1021 Q181.838 73.1021 179.095 78.4493 Q176.387 83.7617 176.387 94.4561 Q176.387 105.116 179.095 110.463 Q181.838 115.775 187.255 115.775 Q192.706 115.775 195.414 110.463 Q198.157 105.116 198.157 94.4561 Q198.157 83.7617 195.414 78.4493 Q192.706 73.1021 187.255 73.1021 M187.255 67.5465 Q195.97 67.5465 200.553 74.4562 Q205.171 81.3312 205.171 94.4561 Q205.171 107.546 200.553 114.456 Q195.97 121.331 187.255 121.331 Q178.539 121.331 173.921 114.456 Q169.338 107.546 169.338 94.4561 Q169.338 81.3312 173.921 74.4562 Q178.539 67.5465 187.255 67.5465 Z" fill="#000000" fill-rule="evenodd" fill-opacity="1" /><path clip-path="url(#clip170)" d="M217.497 111.505 L224.824 111.505 L224.824 120.324 L217.497 120.324 L217.497 111.505 Z" fill="#000000" fill-rule="evenodd" fill-opacity="1" /><path clip-path="url(#clip170)" d="M255.101 73.1021 Q249.685 73.1021 246.942 78.4493 Q244.233 83.7617 244.233 94.4561 Q244.233 105.116 246.942 110.463 Q249.685 115.775 255.101 115.775 Q260.553 115.775 263.261 110.463 Q266.004 105.116 266.004 94.4561 Q266.004 83.7617 263.261 78.4493 Q260.553 73.1021 255.101 73.1021 M255.101 67.5465 Q263.817 67.5465 268.4 74.4562 Q273.018 81.3312 273.018 94.4561 Q273.018 107.546 268.4 114.456 Q263.817 121.331 255.101 121.331 Q246.386 121.331 241.768 114.456 Q237.185 107.546 237.185 94.4561 Q237.185 81.3312 241.768 74.4562 Q246.386 67.5465 255.101 67.5465 Z" fill="#000000" fill-rule="evenodd" fill-opacity="1" /><path clip-path="url(#clip170)" d="M19.3207 864.304 L66.3517 864.304 L66.3517 854.42 Q66.3517 841.903 60.6804 836.11 Q55.0091 830.277 42.7754 830.277 Q30.6227 830.277 24.9919 836.11 Q19.3207 841.903 19.3207 854.42 L19.3207 864.304 M12.5962 872.487 L12.5962 855.676 Q12.5962 838.095 19.9283 829.871 Q27.2199 821.648 42.7754 821.648 Q58.4119 821.648 65.744 829.912 Q73.0762 838.176 73.0762 855.676 L73.0762 872.487 L12.5962 872.487 Z" fill="#000000" fill-rule="evenodd" fill-opacity="1" /><path clip-path="url(#clip170)" d="M48.5277 770.121 L52.1735 770.121 L52.1735 804.391 Q59.8702 803.905 63.9211 799.773 Q67.9315 795.601 67.9315 788.188 Q67.9315 783.894 66.8783 779.883 Q65.825 775.832 63.7186 771.863 L70.7671 771.863 Q72.4685 775.873 73.3597 780.086 Q74.2509 784.299 74.2509 788.633 Q74.2509 799.49 67.9315 805.85 Q61.6121 812.169 50.8367 812.169 Q39.6967 812.169 33.1748 806.174 Q26.6123 800.138 26.6123 789.93 Q26.6123 780.775 32.5266 775.468 Q38.4004 770.121 48.5277 770.121 M46.3402 777.574 Q40.2233 777.655 36.5775 781.018 Q32.9317 784.339 32.9317 789.849 Q32.9317 796.087 36.456 799.854 Q39.9803 803.581 46.3807 804.148 L46.3402 777.574 Z" fill="#000000" fill-rule="evenodd" fill-opacity="1" /><path clip-path="url(#clip170)" d="M45.692 720.173 L73.0762 720.173 L73.0762 727.627 L45.9351 727.627 Q39.4942 727.627 36.2939 730.138 Q33.0937 732.65 33.0937 737.673 Q33.0937 743.709 36.9421 747.193 Q40.7905 750.676 47.4339 750.676 L73.0762 750.676 L73.0762 758.17 L27.706 758.17 L27.706 750.676 L34.7546 750.676 Q30.6632 748.003 28.6377 744.397 Q26.6123 740.752 26.6123 736.012 Q26.6123 728.194 31.4734 724.183 Q36.2939 720.173 45.692 720.173 Z" fill="#000000" fill-rule="evenodd" fill-opacity="1" /><path clip-path="url(#clip170)" d="M29.0428 676.383 L36.0914 676.383 Q34.471 679.542 33.6609 682.945 Q32.8507 686.348 32.8507 689.994 Q32.8507 695.543 34.5521 698.339 Q36.2534 701.093 39.6562 701.093 Q42.2488 701.093 43.7476 699.108 Q45.2059 697.123 46.5427 691.128 L47.1099 688.576 Q48.8112 680.636 51.9304 677.314 Q55.0091 673.952 60.5589 673.952 Q66.8783 673.952 70.5646 678.975 Q74.2509 683.958 74.2509 692.708 Q74.2509 696.354 73.5218 700.324 Q72.8331 704.253 71.4153 708.628 L63.7186 708.628 Q65.8655 704.496 66.9593 700.486 Q68.0125 696.475 68.0125 692.546 Q68.0125 687.28 66.2301 684.444 Q64.4072 681.608 61.126 681.608 Q58.0878 681.608 56.4675 683.674 Q54.8471 685.7 53.3483 692.627 L52.7406 695.219 Q51.2823 702.146 48.2846 705.225 Q45.2464 708.304 39.9803 708.304 Q33.5798 708.304 30.0961 703.767 Q26.6123 699.23 26.6123 690.885 Q26.6123 686.753 27.2199 683.107 Q27.8276 679.461 29.0428 676.383 Z" fill="#000000" fill-rule="evenodd" fill-opacity="1" /><path clip-path="url(#clip170)" d="M27.706 662.083 L27.706 654.629 L73.0762 654.629 L73.0762 662.083 L27.706 662.083 M10.0441 662.083 L10.0441 654.629 L19.4827 654.629 L19.4827 662.083 L10.0441 662.083 Z" fill="#000000" fill-rule="evenodd" fill-opacity="1" /><path clip-path="url(#clip170)" d="M14.8242 631.661 L27.706 631.661 L27.706 616.308 L33.4988 616.308 L33.4988 631.661 L58.1283 631.661 Q63.6781 631.661 65.2579 630.162 Q66.8378 628.623 66.8378 623.964 L66.8378 616.308 L73.0762 616.308 L73.0762 623.964 Q73.0762 632.592 69.8759 635.874 Q66.6352 639.155 58.1283 639.155 L33.4988 639.155 L33.4988 644.624 L27.706 644.624 L27.706 639.155 L14.8242 639.155 L14.8242 631.661 Z" fill="#000000" fill-rule="evenodd" fill-opacity="1" /><path clip-path="url(#clip170)" d="M77.2891 587.627 Q85.3909 590.787 87.862 593.785 Q90.333 596.782 90.333 601.806 L90.333 607.76 L84.0946 607.76 L84.0946 603.385 Q84.0946 600.307 82.6363 598.605 Q81.178 596.904 75.7498 594.838 L72.347 593.501 L27.706 611.852 L27.706 603.953 L63.192 589.774 L27.706 575.596 L27.706 567.697 L77.2891 587.627 Z" fill="#000000" fill-rule="evenodd" fill-opacity="1" /><polyline clip-path="url(#clip172)" style="stroke:#009af9; stroke-linecap:round; stroke-linejoin:round; stroke-width:8; stroke-opacity:1; fill:none" points="
  366.86,1354.85 373.136,1354.83 379.412,1354.8 437.446,1354.42 495.48,1353.65 530.356,1352.87 565.232,1351.75 594.719,1350.44 624.206,1348.69 640.222,1347.53 
  656.238,1346.19 672.253,1344.65 688.269,1342.89 703.034,1341.06 717.799,1339.01 732.564,1336.72 747.329,1334.17 763.159,1331.12 778.988,1327.74 794.818,1324 
  810.648,1319.88 828.988,1314.6 847.328,1308.77 865.668,1302.36 884.008,1295.37 900.307,1288.66 916.606,1281.49 932.904,1273.87 949.203,1265.81 963.495,1258.4 
  977.788,1250.7 992.08,1242.73 1006.37,1234.51 1037.54,1215.93 1068.7,1196.8 1100.05,1177.5 1131.4,1158.74 1140.07,1153.74 1148.73,1148.84 1157.4,1144.05 
  1166.07,1139.4 1174.73,1134.88 1183.4,1130.53 1192.06,1126.34 1200.73,1122.34 1208.97,1118.71 1217.22,1115.27 1225.46,1112.03 1233.71,1108.99 1241.95,1106.16 
  1250.2,1103.55 1258.44,1101.18 1266.69,1099.04 1275.26,1097.08 1283.83,1095.38 1292.41,1093.96 1300.98,1092.82 1309.55,1091.96 1318.12,1091.39 1326.7,1091.1 
  1335.27,1091.1 1342.49,1091.33 1349.7,1091.76 1356.92,1092.39 1364.14,1093.23 1371.35,1094.26 1378.57,1095.5 1385.79,1096.92 1393,1098.54 1401.81,1100.77 
  1410.62,1103.27 1419.43,1106.03 1428.24,1109.05 1437.05,1112.31 1445.87,1115.81 1454.68,1119.52 1463.49,1123.45 1479.63,1131.15 1495.77,1139.43 1503.84,1143.76 
  1511.91,1148.21 1519.98,1152.75 1528.05,1157.4 1557.87,1175.15 1587.69,1193.47 1617.89,1212.07 1648.1,1230.23 1665.02,1240.07 1681.95,1249.58 1698.87,1258.72 
  1715.79,1267.44 1731.13,1274.95 1746.47,1282.08 1761.8,1288.8 1777.14,1295.12 1794.7,1301.85 1812.26,1308.04 1829.82,1313.7 1847.38,1318.84 1863.64,1323.17 
  1879.9,1327.09 1896.15,1330.62 1912.41,1333.79 1928.44,1336.59 1944.47,1339.08 1960.5,1341.29 1976.53,1343.24 1992.09,1344.91 2007.65,1346.38 2023.22,1347.66 
  2038.78,1348.77 2070.69,1350.62 2102.59,1351.97 2137.55,1353.03 2172.51,1353.76 2223.29,1354.41 2274.08,1354.76 2284.5,1354.81 2294.91,1354.85 
  "/>
<polyline clip-path="url(#clip172)" style="stroke:#800080; stroke-linecap:round; stroke-linejoin:round; stroke-width:8; stroke-opacity:1; fill:none" points="
  1272.31,1354.6 1275.52,1354.56 1278.74,1354.5 1308.46,1353.76 1338.18,1352.25 1356.05,1350.74 1373.91,1348.54 1389.01,1345.98 1404.12,1342.57 1412.32,1340.3 
  1420.52,1337.68 1428.73,1334.68 1436.93,1331.25 1444.49,1327.68 1452.06,1323.67 1459.62,1319.2 1467.18,1314.22 1475.29,1308.28 1483.4,1301.67 1491.5,1294.36 
  1499.61,1286.32 1509.01,1276.02 1518.4,1264.63 1527.79,1252.12 1537.19,1238.47 1545.54,1225.37 1553.88,1211.37 1562.23,1196.49 1570.58,1180.76 1577.9,1166.3 
  1585.22,1151.26 1592.54,1135.69 1599.86,1119.65 1615.82,1083.38 1631.79,1046.01 1647.84,1008.34 1663.9,971.719 1668.34,961.948 1672.78,952.377 1677.22,943.035 
  1681.66,933.947 1686.09,925.139 1690.53,916.637 1694.97,908.466 1699.41,900.652 1703.63,893.569 1707.86,886.849 1712.08,880.512 1716.3,874.576 1720.52,869.057 
  1724.75,863.972 1728.97,859.336 1733.19,855.162 1737.58,851.326 1741.98,848.015 1746.37,845.24 1750.76,843.011 1755.15,841.334 1759.54,840.215 1763.93,839.658 
  1768.32,839.665 1772.02,840.107 1775.71,840.947 1779.41,842.184 1783.11,843.814 1786.8,845.834 1790.5,848.239 1794.2,851.024 1797.89,854.182 1802.4,858.532 
  1806.92,863.413 1811.43,868.808 1815.94,874.699 1820.45,881.067 1824.97,887.891 1829.48,895.148 1833.99,902.815 1842.26,917.844 1850.53,934.011 1854.66,942.469 
  1858.8,951.149 1862.93,960.03 1867.06,969.09 1882.34,1003.76 1897.61,1039.52 1913.08,1075.83 1928.55,1111.29 1937.22,1130.5 1945.89,1149.07 1954.56,1166.91 
  1963.22,1183.93 1971.08,1198.61 1978.93,1212.52 1986.79,1225.65 1994.65,1237.98 2003.64,1251.12 2012.63,1263.2 2021.63,1274.25 2030.62,1284.3 2038.95,1292.74 
  2047.28,1300.39 2055.6,1307.29 2063.93,1313.49 2072.14,1318.95 2080.35,1323.81 2088.56,1328.13 2096.77,1331.94 2104.74,1335.19 2112.71,1338.05 2120.68,1340.55 
  2128.66,1342.73 2145,1346.34 2161.34,1348.98 2179.25,1351.05 2197.15,1352.47 2223.16,1353.74 2249.17,1354.43 2254.51,1354.52 2259.85,1354.6 
  "/>
<polyline clip-path="url(#clip172)" style="stroke:#008000; stroke-linecap:round; stroke-linejoin:round; stroke-width:8; stroke-opacity:1; fill:none" points="
  1638.9,1353.86 1640.2,1353.74 1641.51,1353.61 1653.57,1351.77 1665.64,1348.06 1672.89,1344.33 1680.14,1338.93 1686.27,1332.61 1692.4,1324.22 1695.73,1318.62 
  1699.06,1312.18 1702.39,1304.78 1705.72,1296.34 1708.79,1287.53 1711.86,1277.66 1714.93,1266.63 1718,1254.36 1721.3,1239.73 1724.59,1223.46 1727.88,1205.46 
  1731.17,1185.63 1734.98,1160.26 1738.8,1132.21 1742.61,1101.4 1746.42,1067.76 1749.81,1035.5 1753.2,1001.01 1756.59,964.35 1759.98,925.596 1762.95,889.977 
  1765.92,852.934 1768.89,814.586 1771.87,775.076 1778.35,685.714 1784.83,593.671 1791.34,500.859 1797.86,410.65 1799.66,386.579 1801.47,363.003 1803.27,339.989 
  1805.07,317.601 1806.87,295.903 1808.67,274.96 1810.47,254.832 1812.28,235.582 1813.99,218.133 1815.7,201.58 1817.42,185.969 1819.13,171.346 1820.85,157.751 
  1822.56,145.225 1824.28,133.804 1825.99,123.522 1827.77,114.072 1829.56,105.916 1831.34,99.0808 1833.12,93.5891 1834.9,89.4584 1836.68,86.7023 1838.47,85.3298 
  1840.25,85.3455 1841.75,86.4348 1843.25,88.5053 1844.75,91.5521 1846.25,95.5682 1847.75,100.544 1849.25,106.469 1850.75,113.328 1852.25,121.107 1854.09,131.823 
  1855.92,143.847 1857.75,157.138 1859.58,171.65 1861.41,187.337 1863.24,204.146 1865.08,222.023 1866.91,240.91 1870.27,277.935 1873.62,317.759 1875.3,338.595 
  1876.98,359.978 1878.66,381.855 1880.33,404.173 1886.53,489.584 1892.73,577.677 1899.01,667.12 1905.29,754.483 1908.81,801.787 1912.33,847.534 1915.85,891.48 
  1919.37,933.423 1922.56,969.565 1925.75,1003.84 1928.94,1036.19 1932.12,1066.57 1935.78,1098.92 1939.43,1128.69 1943.08,1155.91 1946.73,1180.66 1950.11,1201.46 
  1953.49,1220.31 1956.87,1237.31 1960.25,1252.57 1963.58,1266.02 1966.92,1278.01 1970.25,1288.63 1973.58,1298.02 1976.82,1306.04 1980.05,1313.08 1983.29,1319.24 
  1986.52,1324.61 1993.16,1333.49 1999.79,1340.01 2007.06,1345.1 2014.33,1348.59 2024.89,1351.73 2035.45,1353.42 2037.61,1353.65 2039.78,1353.86 
  "/>
<polyline clip-path="url(#clip172)" style="stroke:#ff0000; stroke-linecap:round; stroke-linejoin:round; stroke-width:4; stroke-opacity:1; fill:none" points="
  1856.37,2738.64 1856.37,-1298.45 
  "/>
<path clip-path="url(#clip170)" d="
M377.143 545.701 L1237.34 545.701 L1237.34 92.1006 L377.143 92.1006  Z
  " fill="#ffffff" fill-rule="evenodd" fill-opacity="1"/>
<polyline clip-path="url(#clip170)" style="stroke:#000000; stroke-linecap:round; stroke-linejoin:round; stroke-width:4; stroke-opacity:1; fill:none" points="
  377.143,545.701 1237.34,545.701 1237.34,92.1006 377.143,92.1006 377.143,545.701 
  "/>
<polyline clip-path="url(#clip170)" style="stroke:#009af9; stroke-linecap:round; stroke-linejoin:round; stroke-width:14; stroke-opacity:1; fill:none" points="
  399.851,182.821 536.1,182.821 
  "/>
<path clip-path="url(#clip170)" d="M566.991 155.839 L566.991 178.564 L577.28 178.564 Q582.992 178.564 586.111 175.607 Q589.23 172.65 589.23 167.181 Q589.23 161.753 586.111 158.796 Q582.992 155.839 577.28 155.839 L566.991 155.839 M558.808 149.114 L577.28 149.114 Q587.448 149.114 592.633 153.732 Q597.859 158.31 597.859 167.181 Q597.859 176.134 592.633 180.711 Q587.448 185.289 577.28 185.289 L566.991 185.289 L566.991 209.594 L558.808 209.594 L558.808 149.114 Z" fill="#000000" fill-rule="evenodd" fill-opacity="1" /><path clip-path="url(#clip170)" d="M623.137 169.45 Q617.141 169.45 613.657 174.149 Q610.174 178.807 610.174 186.95 Q610.174 195.092 613.617 199.791 Q617.101 204.449 623.137 204.449 Q629.091 204.449 632.575 199.75 Q636.059 195.051 636.059 186.95 Q636.059 178.888 632.575 174.189 Q629.091 169.45 623.137 169.45 M623.137 163.13 Q632.859 163.13 638.408 169.45 Q643.958 175.769 643.958 186.95 Q643.958 198.089 638.408 204.449 Q632.859 210.769 623.137 210.769 Q613.374 210.769 607.824 204.449 Q602.315 198.089 602.315 186.95 Q602.315 175.769 607.824 169.45 Q613.374 163.13 623.137 163.13 Z" fill="#000000" fill-rule="evenodd" fill-opacity="1" /><path clip-path="url(#clip170)" d="M685.237 165.561 L685.237 172.609 Q682.077 170.989 678.674 170.179 Q675.272 169.369 671.626 169.369 Q666.076 169.369 663.281 171.07 Q660.526 172.771 660.526 176.174 Q660.526 178.767 662.511 180.266 Q664.496 181.724 670.492 183.061 L673.044 183.628 Q680.983 185.329 684.305 188.448 Q687.667 191.527 687.667 197.077 Q687.667 203.396 682.644 207.082 Q677.662 210.769 668.912 210.769 Q665.266 210.769 661.296 210.04 Q657.367 209.351 652.992 207.933 L652.992 200.236 Q657.124 202.383 661.134 203.477 Q665.144 204.53 669.074 204.53 Q674.34 204.53 677.176 202.748 Q680.011 200.925 680.011 197.644 Q680.011 194.606 677.945 192.985 Q675.92 191.365 668.993 189.866 L666.4 189.259 Q659.473 187.8 656.394 184.803 Q653.316 181.764 653.316 176.498 Q653.316 170.098 657.853 166.614 Q662.39 163.13 670.735 163.13 Q674.867 163.13 678.512 163.738 Q682.158 164.345 685.237 165.561 Z" fill="#000000" fill-rule="evenodd" fill-opacity="1" /><path clip-path="url(#clip170)" d="M706.909 151.342 L706.909 164.224 L722.262 164.224 L722.262 170.017 L706.909 170.017 L706.909 194.646 Q706.909 200.196 708.408 201.776 Q709.947 203.356 714.606 203.356 L722.262 203.356 L722.262 209.594 L714.606 209.594 Q705.978 209.594 702.696 206.394 Q699.415 203.153 699.415 194.646 L699.415 170.017 L693.946 170.017 L693.946 164.224 L699.415 164.224 L699.415 151.342 L706.909 151.342 Z" fill="#000000" fill-rule="evenodd" fill-opacity="1" /><path clip-path="url(#clip170)" d="M770.873 185.046 L770.873 188.691 L736.602 188.691 Q737.088 196.388 741.22 200.439 Q745.393 204.449 752.806 204.449 Q757.1 204.449 761.11 203.396 Q765.161 202.343 769.131 200.236 L769.131 207.285 Q765.121 208.986 760.908 209.878 Q756.695 210.769 752.36 210.769 Q741.504 210.769 735.144 204.449 Q728.825 198.13 728.825 187.355 Q728.825 176.215 734.82 169.693 Q740.856 163.13 751.064 163.13 Q760.219 163.13 765.526 169.045 Q770.873 174.918 770.873 185.046 M763.419 182.858 Q763.338 176.741 759.976 173.095 Q756.654 169.45 751.145 169.45 Q744.907 169.45 741.139 172.974 Q737.413 176.498 736.845 182.899 L763.419 182.858 Z" fill="#000000" fill-rule="evenodd" fill-opacity="1" /><path clip-path="url(#clip170)" d="M809.397 171.191 Q808.141 170.462 806.642 170.138 Q805.184 169.774 803.402 169.774 Q797.082 169.774 793.68 173.906 Q790.317 177.997 790.317 185.694 L790.317 209.594 L782.823 209.594 L782.823 164.224 L790.317 164.224 L790.317 171.273 Q792.667 167.141 796.434 165.156 Q800.202 163.13 805.589 163.13 Q806.359 163.13 807.291 163.252 Q808.222 163.333 809.357 163.535 L809.397 171.191 Z" fill="#000000" fill-rule="evenodd" fill-opacity="1" /><path clip-path="url(#clip170)" d="M817.215 164.224 L824.669 164.224 L824.669 209.594 L817.215 209.594 L817.215 164.224 M817.215 146.562 L824.669 146.562 L824.669 156.001 L817.215 156.001 L817.215 146.562 Z" fill="#000000" fill-rule="evenodd" fill-opacity="1" /><path clip-path="url(#clip170)" d="M857.846 169.45 Q851.851 169.45 848.367 174.149 Q844.883 178.807 844.883 186.95 Q844.883 195.092 848.326 199.791 Q851.81 204.449 857.846 204.449 Q863.801 204.449 867.285 199.75 Q870.768 195.051 870.768 186.95 Q870.768 178.888 867.285 174.189 Q863.801 169.45 857.846 169.45 M857.846 163.13 Q867.568 163.13 873.118 169.45 Q878.668 175.769 878.668 186.95 Q878.668 198.089 873.118 204.449 Q867.568 210.769 857.846 210.769 Q848.083 210.769 842.534 204.449 Q837.024 198.089 837.024 186.95 Q837.024 175.769 842.534 169.45 Q848.083 163.13 857.846 163.13 Z" fill="#000000" fill-rule="evenodd" fill-opacity="1" /><path clip-path="url(#clip170)" d="M917.313 171.191 Q916.057 170.462 914.559 170.138 Q913.1 169.774 911.318 169.774 Q904.998 169.774 901.596 173.906 Q898.233 177.997 898.233 185.694 L898.233 209.594 L890.739 209.594 L890.739 164.224 L898.233 164.224 L898.233 171.273 Q900.583 167.141 904.35 165.156 Q908.118 163.13 913.505 163.13 Q914.275 163.13 915.207 163.252 Q916.138 163.333 917.273 163.535 L917.313 171.191 Z" fill="#000000" fill-rule="evenodd" fill-opacity="1" /><path clip-path="url(#clip170)" d="M927.035 199.305 L935.583 199.305 L935.583 206.272 L928.939 219.235 L923.714 219.235 L927.035 206.272 L927.035 199.305 Z" fill="#000000" fill-rule="evenodd" fill-opacity="1" /><path clip-path="url(#clip170)" d="M1015.55 197.584 Q1015.55 197.912 1015.19 199.183 Q1014.82 200.453 1013.91 202.421 Q1013.05 204.388 1011.87 206.192 Q1010.68 207.954 1008.71 209.266 Q1006.78 210.537 1004.57 210.537 Q1001.62 210.537 999.65 208.569 Q997.683 206.602 997.683 203.651 Q997.683 202.011 998.544 199.757 Q1004 185.205 1004 180.205 Q1004 174.343 999.445 174.343 Q997.191 174.343 995.059 175.204 Q992.969 176.024 991.534 177.172 Q990.1 178.319 988.788 179.918 Q987.517 181.475 986.862 182.541 Q986.247 183.566 985.755 184.591 L984.689 188.772 Q984.443 189.919 983.255 194.387 L981.41 201.97 Q980.098 207.627 979.811 208.159 Q979.402 209.307 978.5 209.922 Q977.598 210.537 976.696 210.537 Q975.672 210.537 974.975 209.922 Q974.278 209.307 974.278 208.241 Q974.278 208.077 974.401 207.463 Q974.524 206.848 974.729 205.987 Q974.934 205.126 975.016 204.634 L979.893 185.246 Q980.795 181.721 981 180.615 Q981.246 179.467 981.246 178.196 Q981.246 174.343 978.623 174.343 Q976.491 174.343 975.098 176.885 Q973.704 179.426 972.515 184.345 Q972.146 185.697 971.9 185.984 Q971.696 186.271 971.081 186.271 Q970.056 186.23 970.056 185.41 Q970.056 185.205 970.384 183.853 Q970.712 182.5 971.327 180.574 Q971.982 178.606 972.597 177.295 Q973.13 176.311 973.417 175.86 Q973.745 175.368 974.524 174.425 Q975.344 173.442 976.409 172.991 Q977.516 172.499 978.869 172.499 Q981.902 172.499 984.115 174.466 Q986.329 176.393 986.616 179.795 Q992.067 172.499 999.691 172.499 Q1004.2 172.499 1006.78 174.876 Q1009.36 177.254 1009.36 181.475 Q1009.36 182.459 1009.16 183.73 Q1009 184.96 1008.59 186.517 Q1008.22 188.075 1007.89 189.263 Q1007.56 190.452 1006.91 192.379 Q1006.25 194.264 1005.96 195.084 Q1005.68 195.904 1004.98 197.83 Q1004.32 199.716 1004.24 199.921 Q1002.72 203.733 1002.72 205.905 Q1002.72 207.34 1003.18 207.995 Q1003.67 208.651 1004.73 208.651 Q1007.6 208.651 1009.73 205.823 Q1011.91 202.954 1013.3 198.281 Q1013.63 197.256 1013.79 197.01 Q1014 196.764 1014.57 196.764 Q1015.55 196.764 1015.55 197.584 Z" fill="#000000" fill-rule="evenodd" fill-opacity="1" /><path clip-path="url(#clip170)" d="M1043.2 196.846 Q1043.28 195.822 1044.88 195.822 L1096.32 195.822 Q1098.74 195.822 1098.78 196.764 Q1098.78 197.789 1096.48 197.748 L1045.45 197.748 Q1043.2 197.789 1043.2 196.846 M1043.2 180.451 Q1043.2 179.426 1044.96 179.467 L1096.24 179.467 Q1098.74 179.467 1098.78 180.451 Q1098.78 181.393 1096.65 181.393 L1044.88 181.393 Q1043.2 181.393 1043.2 180.451 Z" fill="#000000" fill-rule="evenodd" fill-opacity="1" /><path clip-path="url(#clip170)" d="M1131.16 161.678 L1131.16 159.054 Q1141.24 159.054 1146.45 153.685 Q1147.88 153.685 1148.13 154.013 Q1148.37 154.341 1148.37 155.857 L1148.37 202.954 Q1148.37 205.454 1149.6 206.233 Q1150.83 207.012 1156.2 207.012 L1158.87 207.012 L1158.87 209.594 Q1155.92 209.348 1145.26 209.348 Q1134.6 209.348 1131.69 209.594 L1131.69 207.012 L1134.36 207.012 Q1139.64 207.012 1140.91 206.274 Q1142.18 205.495 1142.18 202.954 L1142.18 159.464 Q1137.8 161.678 1131.16 161.678 Z" fill="#000000" fill-rule="evenodd" fill-opacity="1" /><path clip-path="url(#clip170)" d="M1162.95 182.746 Q1162.95 170.408 1166.07 163.686 Q1170.41 153.685 1180.66 153.685 Q1182.83 153.685 1185.09 154.3 Q1187.38 154.873 1190.25 157.128 Q1193.16 159.382 1194.93 163.071 Q1198.29 170.203 1198.29 182.746 Q1198.29 195.002 1195.17 201.683 Q1190.62 211.439 1180.58 211.439 Q1176.81 211.439 1172.96 209.512 Q1169.14 207.586 1166.73 202.954 Q1162.95 196.027 1162.95 182.746 M1169.92 181.721 Q1169.92 194.387 1170.82 199.429 Q1171.85 204.88 1174.64 207.258 Q1177.46 209.594 1180.58 209.594 Q1183.94 209.594 1186.73 207.094 Q1189.56 204.552 1190.42 199.101 Q1191.36 193.731 1191.32 181.721 Q1191.32 170.039 1190.5 165.367 Q1189.39 159.915 1186.44 157.743 Q1183.53 155.529 1180.58 155.529 Q1179.47 155.529 1178.28 155.857 Q1177.14 156.185 1175.46 157.128 Q1173.78 158.071 1172.46 160.407 Q1171.19 162.743 1170.58 166.268 Q1169.92 170.818 1169.92 181.721 Z" fill="#000000" fill-rule="evenodd" fill-opacity="1" /><polyline clip-path="url(#clip170)" style="stroke:#800080; stroke-linecap:round; stroke-linejoin:round; stroke-width:14; stroke-opacity:1; fill:none" points="
  399.851,273.541 536.1,273.541 
  "/>
<path clip-path="url(#clip170)" d="M566.991 246.559 L566.991 269.284 L577.28 269.284 Q582.992 269.284 586.111 266.327 Q589.23 263.37 589.23 257.901 Q589.23 252.473 586.111 249.516 Q582.992 246.559 577.28 246.559 L566.991 246.559 M558.808 239.834 L577.28 239.834 Q587.448 239.834 592.633 244.452 Q597.859 249.03 597.859 257.901 Q597.859 266.854 592.633 271.431 Q587.448 276.009 577.28 276.009 L566.991 276.009 L566.991 300.314 L558.808 300.314 L558.808 239.834 Z" fill="#000000" fill-rule="evenodd" fill-opacity="1" /><path clip-path="url(#clip170)" d="M623.137 260.17 Q617.141 260.17 613.657 264.869 Q610.174 269.527 610.174 277.67 Q610.174 285.812 613.617 290.511 Q617.101 295.169 623.137 295.169 Q629.091 295.169 632.575 290.47 Q636.059 285.771 636.059 277.67 Q636.059 269.608 632.575 264.909 Q629.091 260.17 623.137 260.17 M623.137 253.85 Q632.859 253.85 638.408 260.17 Q643.958 266.489 643.958 277.67 Q643.958 288.809 638.408 295.169 Q632.859 301.489 623.137 301.489 Q613.374 301.489 607.824 295.169 Q602.315 288.809 602.315 277.67 Q602.315 266.489 607.824 260.17 Q613.374 253.85 623.137 253.85 Z" fill="#000000" fill-rule="evenodd" fill-opacity="1" /><path clip-path="url(#clip170)" d="M685.237 256.281 L685.237 263.329 Q682.077 261.709 678.674 260.899 Q675.272 260.089 671.626 260.089 Q666.076 260.089 663.281 261.79 Q660.526 263.491 660.526 266.894 Q660.526 269.487 662.511 270.986 Q664.496 272.444 670.492 273.781 L673.044 274.348 Q680.983 276.049 684.305 279.168 Q687.667 282.247 687.667 287.797 Q687.667 294.116 682.644 297.802 Q677.662 301.489 668.912 301.489 Q665.266 301.489 661.296 300.76 Q657.367 300.071 652.992 298.653 L652.992 290.956 Q657.124 293.103 661.134 294.197 Q665.144 295.25 669.074 295.25 Q674.34 295.25 677.176 293.468 Q680.011 291.645 680.011 288.364 Q680.011 285.326 677.945 283.705 Q675.92 282.085 668.993 280.586 L666.4 279.979 Q659.473 278.52 656.394 275.523 Q653.316 272.484 653.316 267.218 Q653.316 260.818 657.853 257.334 Q662.39 253.85 670.735 253.85 Q674.867 253.85 678.512 254.458 Q682.158 255.065 685.237 256.281 Z" fill="#000000" fill-rule="evenodd" fill-opacity="1" /><path clip-path="url(#clip170)" d="M706.909 242.062 L706.909 254.944 L722.262 254.944 L722.262 260.737 L706.909 260.737 L706.909 285.366 Q706.909 290.916 708.408 292.496 Q709.947 294.076 714.606 294.076 L722.262 294.076 L722.262 300.314 L714.606 300.314 Q705.978 300.314 702.696 297.114 Q699.415 293.873 699.415 285.366 L699.415 260.737 L693.946 260.737 L693.946 254.944 L699.415 254.944 L699.415 242.062 L706.909 242.062 Z" fill="#000000" fill-rule="evenodd" fill-opacity="1" /><path clip-path="url(#clip170)" d="M770.873 275.766 L770.873 279.411 L736.602 279.411 Q737.088 287.108 741.22 291.159 Q745.393 295.169 752.806 295.169 Q757.1 295.169 761.11 294.116 Q765.161 293.063 769.131 290.956 L769.131 298.005 Q765.121 299.706 760.908 300.598 Q756.695 301.489 752.36 301.489 Q741.504 301.489 735.144 295.169 Q728.825 288.85 728.825 278.075 Q728.825 266.935 734.82 260.413 Q740.856 253.85 751.064 253.85 Q760.219 253.85 765.526 259.765 Q770.873 265.638 770.873 275.766 M763.419 273.578 Q763.338 267.461 759.976 263.815 Q756.654 260.17 751.145 260.17 Q744.907 260.17 741.139 263.694 Q737.413 267.218 736.845 273.619 L763.419 273.578 Z" fill="#000000" fill-rule="evenodd" fill-opacity="1" /><path clip-path="url(#clip170)" d="M809.397 261.911 Q808.141 261.182 806.642 260.858 Q805.184 260.494 803.402 260.494 Q797.082 260.494 793.68 264.626 Q790.317 268.717 790.317 276.414 L790.317 300.314 L782.823 300.314 L782.823 254.944 L790.317 254.944 L790.317 261.993 Q792.667 257.861 796.434 255.876 Q800.202 253.85 805.589 253.85 Q806.359 253.85 807.291 253.972 Q808.222 254.053 809.357 254.255 L809.397 261.911 Z" fill="#000000" fill-rule="evenodd" fill-opacity="1" /><path clip-path="url(#clip170)" d="M817.215 254.944 L824.669 254.944 L824.669 300.314 L817.215 300.314 L817.215 254.944 M817.215 237.282 L824.669 237.282 L824.669 246.721 L817.215 246.721 L817.215 237.282 Z" fill="#000000" fill-rule="evenodd" fill-opacity="1" /><path clip-path="url(#clip170)" d="M857.846 260.17 Q851.851 260.17 848.367 264.869 Q844.883 269.527 844.883 277.67 Q844.883 285.812 848.326 290.511 Q851.81 295.169 857.846 295.169 Q863.801 295.169 867.285 290.47 Q870.768 285.771 870.768 277.67 Q870.768 269.608 867.285 264.909 Q863.801 260.17 857.846 260.17 M857.846 253.85 Q867.568 253.85 873.118 260.17 Q878.668 266.489 878.668 277.67 Q878.668 288.809 873.118 295.169 Q867.568 301.489 857.846 301.489 Q848.083 301.489 842.534 295.169 Q837.024 288.809 837.024 277.67 Q837.024 266.489 842.534 260.17 Q848.083 253.85 857.846 253.85 Z" fill="#000000" fill-rule="evenodd" fill-opacity="1" /><path clip-path="url(#clip170)" d="M917.313 261.911 Q916.057 261.182 914.559 260.858 Q913.1 260.494 911.318 260.494 Q904.998 260.494 901.596 264.626 Q898.233 268.717 898.233 276.414 L898.233 300.314 L890.739 300.314 L890.739 254.944 L898.233 254.944 L898.233 261.993 Q900.583 257.861 904.35 255.876 Q908.118 253.85 913.505 253.85 Q914.275 253.85 915.207 253.972 Q916.138 254.053 917.273 254.255 L917.313 261.911 Z" fill="#000000" fill-rule="evenodd" fill-opacity="1" /><path clip-path="url(#clip170)" d="M927.035 290.025 L935.583 290.025 L935.583 296.992 L928.939 309.955 L923.714 309.955 L927.035 296.992 L927.035 290.025 Z" fill="#000000" fill-rule="evenodd" fill-opacity="1" /><path clip-path="url(#clip170)" d="M1015.55 288.304 Q1015.55 288.632 1015.19 289.903 Q1014.82 291.173 1013.91 293.141 Q1013.05 295.108 1011.87 296.912 Q1010.68 298.674 1008.71 299.986 Q1006.78 301.257 1004.57 301.257 Q1001.62 301.257 999.65 299.289 Q997.683 297.322 997.683 294.371 Q997.683 292.731 998.544 290.477 Q1004 275.925 1004 270.925 Q1004 265.063 999.445 265.063 Q997.191 265.063 995.059 265.924 Q992.969 266.744 991.534 267.892 Q990.1 269.039 988.788 270.638 Q987.517 272.195 986.862 273.261 Q986.247 274.286 985.755 275.311 L984.689 279.492 Q984.443 280.639 983.255 285.107 L981.41 292.69 Q980.098 298.347 979.811 298.879 Q979.402 300.027 978.5 300.642 Q977.598 301.257 976.696 301.257 Q975.672 301.257 974.975 300.642 Q974.278 300.027 974.278 298.961 Q974.278 298.797 974.401 298.183 Q974.524 297.568 974.729 296.707 Q974.934 295.846 975.016 295.354 L979.893 275.966 Q980.795 272.441 981 271.335 Q981.246 270.187 981.246 268.916 Q981.246 265.063 978.623 265.063 Q976.491 265.063 975.098 267.605 Q973.704 270.146 972.515 275.065 Q972.146 276.417 971.9 276.704 Q971.696 276.991 971.081 276.991 Q970.056 276.95 970.056 276.13 Q970.056 275.925 970.384 274.573 Q970.712 273.22 971.327 271.294 Q971.982 269.326 972.597 268.015 Q973.13 267.031 973.417 266.58 Q973.745 266.088 974.524 265.145 Q975.344 264.162 976.409 263.711 Q977.516 263.219 978.869 263.219 Q981.902 263.219 984.115 265.186 Q986.329 267.113 986.616 270.515 Q992.067 263.219 999.691 263.219 Q1004.2 263.219 1006.78 265.596 Q1009.36 267.974 1009.36 272.195 Q1009.36 273.179 1009.16 274.45 Q1009 275.68 1008.59 277.237 Q1008.22 278.795 1007.89 279.983 Q1007.56 281.172 1006.91 283.099 Q1006.25 284.984 1005.96 285.804 Q1005.68 286.624 1004.98 288.55 Q1004.32 290.436 1004.24 290.641 Q1002.72 294.453 1002.72 296.625 Q1002.72 298.06 1003.18 298.715 Q1003.67 299.371 1004.73 299.371 Q1007.6 299.371 1009.73 296.543 Q1011.91 293.674 1013.3 289.001 Q1013.63 287.976 1013.79 287.73 Q1014 287.484 1014.57 287.484 Q1015.55 287.484 1015.55 288.304 Z" fill="#000000" fill-rule="evenodd" fill-opacity="1" /><path clip-path="url(#clip170)" d="M1043.2 287.566 Q1043.28 286.542 1044.88 286.542 L1096.32 286.542 Q1098.74 286.542 1098.78 287.484 Q1098.78 288.509 1096.48 288.468 L1045.45 288.468 Q1043.2 288.509 1043.2 287.566 M1043.2 271.171 Q1043.2 270.146 1044.96 270.187 L1096.24 270.187 Q1098.74 270.187 1098.78 271.171 Q1098.78 272.113 1096.65 272.113 L1044.88 272.113 Q1043.2 272.113 1043.2 271.171 Z" fill="#000000" fill-rule="evenodd" fill-opacity="1" /><path clip-path="url(#clip170)" d="M1131.16 300.314 Q1131.16 298.797 1131.28 298.347 Q1131.45 297.896 1132.1 297.199 L1148.21 279.246 Q1157.02 269.326 1157.02 260.677 Q1157.02 255.062 1154.07 251.045 Q1151.16 247.028 1145.79 247.028 Q1142.1 247.028 1138.99 249.282 Q1135.87 251.537 1134.44 255.554 Q1134.68 255.472 1135.54 255.472 Q1137.63 255.472 1138.78 256.783 Q1139.97 258.095 1139.97 259.858 Q1139.97 262.112 1138.5 263.219 Q1137.06 264.284 1135.63 264.284 Q1135.05 264.284 1134.27 264.162 Q1133.54 264.039 1132.35 262.891 Q1131.16 261.702 1131.16 259.612 Q1131.16 253.75 1135.59 249.077 Q1140.05 244.405 1146.86 244.405 Q1154.56 244.405 1159.6 248.995 Q1164.69 253.545 1164.69 260.677 Q1164.69 263.178 1163.91 265.473 Q1163.17 267.728 1162.15 269.49 Q1161.16 271.253 1158.46 274.081 Q1155.75 276.909 1153.58 278.918 Q1151.41 280.926 1146.53 285.189 L1137.63 293.838 L1152.76 293.838 Q1160.14 293.838 1160.71 293.182 Q1161.53 291.993 1162.56 285.722 L1164.69 285.722 L1162.31 300.314 L1131.16 300.314 Z" fill="#000000" fill-rule="evenodd" fill-opacity="1" /><path clip-path="url(#clip170)" d="M1173.06 273.466 Q1173.06 261.128 1176.18 254.406 Q1180.52 244.405 1190.77 244.405 Q1192.94 244.405 1195.2 245.02 Q1197.49 245.593 1200.36 247.848 Q1203.27 250.102 1205.04 253.791 Q1208.4 260.923 1208.4 273.466 Q1208.4 285.722 1205.28 292.403 Q1200.73 302.159 1190.69 302.159 Q1186.92 302.159 1183.07 300.232 Q1179.25 298.306 1176.84 293.674 Q1173.06 286.747 1173.06 273.466 M1180.03 272.441 Q1180.03 285.107 1180.93 290.149 Q1181.96 295.6 1184.75 297.978 Q1187.57 300.314 1190.69 300.314 Q1194.05 300.314 1196.84 297.814 Q1199.67 295.272 1200.53 289.821 Q1201.47 284.451 1201.43 272.441 Q1201.43 260.759 1200.61 256.087 Q1199.5 250.635 1196.55 248.463 Q1193.64 246.249 1190.69 246.249 Q1189.58 246.249 1188.39 246.577 Q1187.25 246.905 1185.57 247.848 Q1183.89 248.791 1182.57 251.127 Q1181.3 253.463 1180.69 256.988 Q1180.03 261.538 1180.03 272.441 Z" fill="#000000" fill-rule="evenodd" fill-opacity="1" /><polyline clip-path="url(#clip170)" style="stroke:#008000; stroke-linecap:round; stroke-linejoin:round; stroke-width:14; stroke-opacity:1; fill:none" points="
  399.851,364.261 536.1,364.261 
  "/>
<path clip-path="url(#clip170)" d="M566.991 337.279 L566.991 360.004 L577.28 360.004 Q582.992 360.004 586.111 357.047 Q589.23 354.09 589.23 348.621 Q589.23 343.193 586.111 340.236 Q582.992 337.279 577.28 337.279 L566.991 337.279 M558.808 330.554 L577.28 330.554 Q587.448 330.554 592.633 335.172 Q597.859 339.75 597.859 348.621 Q597.859 357.574 592.633 362.151 Q587.448 366.729 577.28 366.729 L566.991 366.729 L566.991 391.034 L558.808 391.034 L558.808 330.554 Z" fill="#000000" fill-rule="evenodd" fill-opacity="1" /><path clip-path="url(#clip170)" d="M623.137 350.89 Q617.141 350.89 613.657 355.589 Q610.174 360.247 610.174 368.39 Q610.174 376.532 613.617 381.231 Q617.101 385.889 623.137 385.889 Q629.091 385.889 632.575 381.19 Q636.059 376.491 636.059 368.39 Q636.059 360.328 632.575 355.629 Q629.091 350.89 623.137 350.89 M623.137 344.57 Q632.859 344.57 638.408 350.89 Q643.958 357.209 643.958 368.39 Q643.958 379.529 638.408 385.889 Q632.859 392.209 623.137 392.209 Q613.374 392.209 607.824 385.889 Q602.315 379.529 602.315 368.39 Q602.315 357.209 607.824 350.89 Q613.374 344.57 623.137 344.57 Z" fill="#000000" fill-rule="evenodd" fill-opacity="1" /><path clip-path="url(#clip170)" d="M685.237 347.001 L685.237 354.049 Q682.077 352.429 678.674 351.619 Q675.272 350.809 671.626 350.809 Q666.076 350.809 663.281 352.51 Q660.526 354.211 660.526 357.614 Q660.526 360.207 662.511 361.706 Q664.496 363.164 670.492 364.501 L673.044 365.068 Q680.983 366.769 684.305 369.888 Q687.667 372.967 687.667 378.517 Q687.667 384.836 682.644 388.522 Q677.662 392.209 668.912 392.209 Q665.266 392.209 661.296 391.48 Q657.367 390.791 652.992 389.373 L652.992 381.676 Q657.124 383.823 661.134 384.917 Q665.144 385.97 669.074 385.97 Q674.34 385.97 677.176 384.188 Q680.011 382.365 680.011 379.084 Q680.011 376.046 677.945 374.425 Q675.92 372.805 668.993 371.306 L666.4 370.699 Q659.473 369.24 656.394 366.243 Q653.316 363.204 653.316 357.938 Q653.316 351.538 657.853 348.054 Q662.39 344.57 670.735 344.57 Q674.867 344.57 678.512 345.178 Q682.158 345.785 685.237 347.001 Z" fill="#000000" fill-rule="evenodd" fill-opacity="1" /><path clip-path="url(#clip170)" d="M706.909 332.782 L706.909 345.664 L722.262 345.664 L722.262 351.457 L706.909 351.457 L706.909 376.086 Q706.909 381.636 708.408 383.216 Q709.947 384.796 714.606 384.796 L722.262 384.796 L722.262 391.034 L714.606 391.034 Q705.978 391.034 702.696 387.834 Q699.415 384.593 699.415 376.086 L699.415 351.457 L693.946 351.457 L693.946 345.664 L699.415 345.664 L699.415 332.782 L706.909 332.782 Z" fill="#000000" fill-rule="evenodd" fill-opacity="1" /><path clip-path="url(#clip170)" d="M770.873 366.486 L770.873 370.131 L736.602 370.131 Q737.088 377.828 741.22 381.879 Q745.393 385.889 752.806 385.889 Q757.1 385.889 761.11 384.836 Q765.161 383.783 769.131 381.676 L769.131 388.725 Q765.121 390.426 760.908 391.318 Q756.695 392.209 752.36 392.209 Q741.504 392.209 735.144 385.889 Q728.825 379.57 728.825 368.795 Q728.825 357.655 734.82 351.133 Q740.856 344.57 751.064 344.57 Q760.219 344.57 765.526 350.485 Q770.873 356.358 770.873 366.486 M763.419 364.298 Q763.338 358.181 759.976 354.535 Q756.654 350.89 751.145 350.89 Q744.907 350.89 741.139 354.414 Q737.413 357.938 736.845 364.339 L763.419 364.298 Z" fill="#000000" fill-rule="evenodd" fill-opacity="1" /><path clip-path="url(#clip170)" d="M809.397 352.631 Q808.141 351.902 806.642 351.578 Q805.184 351.214 803.402 351.214 Q797.082 351.214 793.68 355.346 Q790.317 359.437 790.317 367.134 L790.317 391.034 L782.823 391.034 L782.823 345.664 L790.317 345.664 L790.317 352.713 Q792.667 348.581 796.434 346.596 Q800.202 344.57 805.589 344.57 Q806.359 344.57 807.291 344.692 Q808.222 344.773 809.357 344.975 L809.397 352.631 Z" fill="#000000" fill-rule="evenodd" fill-opacity="1" /><path clip-path="url(#clip170)" d="M817.215 345.664 L824.669 345.664 L824.669 391.034 L817.215 391.034 L817.215 345.664 M817.215 328.002 L824.669 328.002 L824.669 337.441 L817.215 337.441 L817.215 328.002 Z" fill="#000000" fill-rule="evenodd" fill-opacity="1" /><path clip-path="url(#clip170)" d="M857.846 350.89 Q851.851 350.89 848.367 355.589 Q844.883 360.247 844.883 368.39 Q844.883 376.532 848.326 381.231 Q851.81 385.889 857.846 385.889 Q863.801 385.889 867.285 381.19 Q870.768 376.491 870.768 368.39 Q870.768 360.328 867.285 355.629 Q863.801 350.89 857.846 350.89 M857.846 344.57 Q867.568 344.57 873.118 350.89 Q878.668 357.209 878.668 368.39 Q878.668 379.529 873.118 385.889 Q867.568 392.209 857.846 392.209 Q848.083 392.209 842.534 385.889 Q837.024 379.529 837.024 368.39 Q837.024 357.209 842.534 350.89 Q848.083 344.57 857.846 344.57 Z" fill="#000000" fill-rule="evenodd" fill-opacity="1" /><path clip-path="url(#clip170)" d="M917.313 352.631 Q916.057 351.902 914.559 351.578 Q913.1 351.214 911.318 351.214 Q904.998 351.214 901.596 355.346 Q898.233 359.437 898.233 367.134 L898.233 391.034 L890.739 391.034 L890.739 345.664 L898.233 345.664 L898.233 352.713 Q900.583 348.581 904.35 346.596 Q908.118 344.57 913.505 344.57 Q914.275 344.57 915.207 344.692 Q916.138 344.773 917.273 344.975 L917.313 352.631 Z" fill="#000000" fill-rule="evenodd" fill-opacity="1" /><path clip-path="url(#clip170)" d="M927.035 380.745 L935.583 380.745 L935.583 387.712 L928.939 400.675 L923.714 400.675 L927.035 387.712 L927.035 380.745 Z" fill="#000000" fill-rule="evenodd" fill-opacity="1" /><path clip-path="url(#clip170)" d="M1015.55 379.024 Q1015.55 379.352 1015.19 380.623 Q1014.82 381.893 1013.91 383.861 Q1013.05 385.828 1011.87 387.632 Q1010.68 389.394 1008.71 390.706 Q1006.78 391.977 1004.57 391.977 Q1001.62 391.977 999.65 390.009 Q997.683 388.042 997.683 385.091 Q997.683 383.451 998.544 381.197 Q1004 366.645 1004 361.645 Q1004 355.783 999.445 355.783 Q997.191 355.783 995.059 356.644 Q992.969 357.464 991.534 358.612 Q990.1 359.759 988.788 361.358 Q987.517 362.915 986.862 363.981 Q986.247 365.006 985.755 366.031 L984.689 370.212 Q984.443 371.359 983.255 375.827 L981.41 383.41 Q980.098 389.067 979.811 389.599 Q979.402 390.747 978.5 391.362 Q977.598 391.977 976.696 391.977 Q975.672 391.977 974.975 391.362 Q974.278 390.747 974.278 389.681 Q974.278 389.517 974.401 388.903 Q974.524 388.288 974.729 387.427 Q974.934 386.566 975.016 386.074 L979.893 366.686 Q980.795 363.161 981 362.055 Q981.246 360.907 981.246 359.636 Q981.246 355.783 978.623 355.783 Q976.491 355.783 975.098 358.325 Q973.704 360.866 972.515 365.785 Q972.146 367.137 971.9 367.424 Q971.696 367.711 971.081 367.711 Q970.056 367.67 970.056 366.85 Q970.056 366.645 970.384 365.293 Q970.712 363.94 971.327 362.014 Q971.982 360.046 972.597 358.735 Q973.13 357.751 973.417 357.3 Q973.745 356.808 974.524 355.865 Q975.344 354.882 976.409 354.431 Q977.516 353.939 978.869 353.939 Q981.902 353.939 984.115 355.906 Q986.329 357.833 986.616 361.235 Q992.067 353.939 999.691 353.939 Q1004.2 353.939 1006.78 356.316 Q1009.36 358.694 1009.36 362.915 Q1009.36 363.899 1009.16 365.17 Q1009 366.4 1008.59 367.957 Q1008.22 369.515 1007.89 370.703 Q1007.56 371.892 1006.91 373.819 Q1006.25 375.704 1005.96 376.524 Q1005.68 377.344 1004.98 379.27 Q1004.32 381.156 1004.24 381.361 Q1002.72 385.173 1002.72 387.345 Q1002.72 388.78 1003.18 389.435 Q1003.67 390.091 1004.73 390.091 Q1007.6 390.091 1009.73 387.263 Q1011.91 384.394 1013.3 379.721 Q1013.63 378.696 1013.79 378.45 Q1014 378.204 1014.57 378.204 Q1015.55 378.204 1015.55 379.024 Z" fill="#000000" fill-rule="evenodd" fill-opacity="1" /><path clip-path="url(#clip170)" d="M1043.2 378.286 Q1043.28 377.262 1044.88 377.262 L1096.32 377.262 Q1098.74 377.262 1098.78 378.204 Q1098.78 379.229 1096.48 379.188 L1045.45 379.188 Q1043.2 379.229 1043.2 378.286 M1043.2 361.891 Q1043.2 360.866 1044.96 360.907 L1096.24 360.907 Q1098.74 360.907 1098.78 361.891 Q1098.78 362.833 1096.65 362.833 L1044.88 362.833 Q1043.2 362.833 1043.2 361.891 Z" fill="#000000" fill-rule="evenodd" fill-opacity="1" /><path clip-path="url(#clip170)" d="M1131.16 377.508 Q1131.16 375.007 1132.51 374.064 Q1133.86 373.081 1135.3 373.081 Q1137.22 373.081 1138.33 374.31 Q1139.48 375.499 1139.48 377.18 Q1139.48 378.86 1138.33 380.09 Q1137.22 381.279 1135.3 381.279 Q1134.36 381.279 1133.86 381.115 Q1134.97 384.968 1138.33 387.755 Q1141.73 390.542 1146.2 390.542 Q1151.82 390.542 1155.18 385.091 Q1157.19 381.566 1157.19 373.573 Q1157.19 366.522 1155.67 362.997 Q1153.33 357.628 1148.54 357.628 Q1141.73 357.628 1137.72 363.489 Q1137.22 364.227 1136.65 364.268 Q1135.83 364.268 1135.63 363.817 Q1135.46 363.325 1135.46 362.055 L1135.46 337.215 Q1135.46 335.207 1136.28 335.207 Q1136.61 335.207 1137.31 335.453 Q1142.59 337.789 1148.46 337.83 Q1154.48 337.83 1159.89 335.371 Q1160.3 335.125 1160.55 335.125 Q1161.37 335.125 1161.41 336.067 Q1161.41 336.395 1160.71 337.379 Q1160.06 338.322 1158.62 339.593 Q1157.19 340.822 1155.34 342.011 Q1153.5 343.2 1150.79 344.019 Q1148.13 344.798 1145.18 344.798 Q1141.65 344.798 1138.04 343.691 L1138.04 360.046 Q1142.39 355.783 1148.7 355.783 Q1155.42 355.783 1160.06 361.194 Q1164.69 366.604 1164.69 374.146 Q1164.69 382.057 1159.19 387.468 Q1153.74 392.879 1146.37 392.879 Q1139.64 392.879 1135.38 388.083 Q1131.16 383.287 1131.16 377.508 Z" fill="#000000" fill-rule="evenodd" fill-opacity="1" /><path clip-path="url(#clip170)" d="M1173.06 364.186 Q1173.06 351.848 1176.18 345.126 Q1180.52 335.125 1190.77 335.125 Q1192.94 335.125 1195.2 335.74 Q1197.49 336.313 1200.36 338.568 Q1203.27 340.822 1205.04 344.511 Q1208.4 351.643 1208.4 364.186 Q1208.4 376.442 1205.28 383.123 Q1200.73 392.879 1190.69 392.879 Q1186.92 392.879 1183.07 390.952 Q1179.25 389.026 1176.84 384.394 Q1173.06 377.467 1173.06 364.186 M1180.03 363.161 Q1180.03 375.827 1180.93 380.869 Q1181.96 386.32 1184.75 388.698 Q1187.57 391.034 1190.69 391.034 Q1194.05 391.034 1196.84 388.534 Q1199.67 385.992 1200.53 380.541 Q1201.47 375.171 1201.43 363.161 Q1201.43 351.479 1200.61 346.807 Q1199.5 341.355 1196.55 339.183 Q1193.64 336.969 1190.69 336.969 Q1189.58 336.969 1188.39 337.297 Q1187.25 337.625 1185.57 338.568 Q1183.89 339.511 1182.57 341.847 Q1181.3 344.183 1180.69 347.708 Q1180.03 352.258 1180.03 363.161 Z" fill="#000000" fill-rule="evenodd" fill-opacity="1" /><polyline clip-path="url(#clip170)" style="stroke:#ff0000; stroke-linecap:round; stroke-linejoin:round; stroke-width:7; stroke-opacity:1; fill:none" points="
  399.851,454.981 536.1,454.981 
  "/>
<path clip-path="url(#clip170)" d="M558.808 404.344 L571.001 404.344 L586.435 445.502 L601.95 404.344 L614.144 404.344 L614.144 464.824 L606.163 464.824 L606.163 411.717 L590.567 453.198 L582.344 453.198 L566.748 411.717 L566.748 464.824 L558.808 464.824 L558.808 404.344 Z" fill="#000000" fill-rule="evenodd" fill-opacity="1" /><path clip-path="url(#clip170)" d="M668.871 440.276 L668.871 443.922 L634.601 443.922 Q635.087 451.618 639.219 455.669 Q643.391 459.68 650.804 459.68 Q655.098 459.68 659.109 458.626 Q663.159 457.573 667.129 455.467 L667.129 462.515 Q663.119 464.217 658.906 465.108 Q654.693 465.999 650.359 465.999 Q639.502 465.999 633.142 459.68 Q626.823 453.36 626.823 442.585 Q626.823 431.445 632.818 424.923 Q638.854 418.36 649.062 418.36 Q658.217 418.36 663.524 424.275 Q668.871 430.149 668.871 440.276 M661.418 438.088 Q661.337 431.972 657.974 428.326 Q654.653 424.68 649.143 424.68 Q642.905 424.68 639.138 428.204 Q635.411 431.728 634.844 438.129 L661.418 438.088 Z" fill="#000000" fill-rule="evenodd" fill-opacity="1" /><path clip-path="url(#clip170)" d="M701.724 442.018 Q692.691 442.018 689.207 444.084 Q685.723 446.15 685.723 451.132 Q685.723 455.102 688.316 457.452 Q690.949 459.761 695.445 459.761 Q701.643 459.761 705.37 455.386 Q709.137 450.97 709.137 443.679 L709.137 442.018 L701.724 442.018 M716.591 438.939 L716.591 464.824 L709.137 464.824 L709.137 457.938 Q706.585 462.07 702.777 464.055 Q698.969 465.999 693.46 465.999 Q686.493 465.999 682.361 462.11 Q678.269 458.181 678.269 451.618 Q678.269 443.962 683.373 440.073 Q688.518 436.184 698.686 436.184 L709.137 436.184 L709.137 435.455 Q709.137 430.311 705.734 427.516 Q702.372 424.68 696.255 424.68 Q692.366 424.68 688.68 425.612 Q684.994 426.543 681.591 428.407 L681.591 421.52 Q685.682 419.94 689.531 419.171 Q693.379 418.36 697.025 418.36 Q706.869 418.36 711.73 423.465 Q716.591 428.569 716.591 438.939 Z" fill="#000000" fill-rule="evenodd" fill-opacity="1" /><path clip-path="url(#clip170)" d="M769.658 437.44 L769.658 464.824 L762.204 464.824 L762.204 437.683 Q762.204 431.242 759.693 428.042 Q757.181 424.842 752.158 424.842 Q746.122 424.842 742.638 428.69 Q739.154 432.539 739.154 439.182 L739.154 464.824 L731.66 464.824 L731.66 419.454 L739.154 419.454 L739.154 426.503 Q741.828 422.411 745.433 420.386 Q749.079 418.36 753.819 418.36 Q761.637 418.36 765.647 423.222 Q769.658 428.042 769.658 437.44 Z" fill="#000000" fill-rule="evenodd" fill-opacity="1" /><path clip-path="url(#clip170)" d="M828.477 424.68 Q822.482 424.68 818.998 429.379 Q815.514 434.037 815.514 442.18 Q815.514 450.322 818.957 455.021 Q822.441 459.68 828.477 459.68 Q834.432 459.68 837.915 454.981 Q841.399 450.282 841.399 442.18 Q841.399 434.119 837.915 429.419 Q834.432 424.68 828.477 424.68 M828.477 418.36 Q838.199 418.36 843.749 424.68 Q849.299 430.999 849.299 442.18 Q849.299 453.32 843.749 459.68 Q838.199 465.999 828.477 465.999 Q818.714 465.999 813.164 459.68 Q807.655 453.32 807.655 442.18 Q807.655 430.999 813.164 424.68 Q818.714 418.36 828.477 418.36 Z" fill="#000000" fill-rule="evenodd" fill-opacity="1" /><path clip-path="url(#clip170)" d="M884.622 401.792 L884.622 407.99 L877.493 407.99 Q873.482 407.99 871.903 409.611 Q870.363 411.231 870.363 415.444 L870.363 419.454 L882.637 419.454 L882.637 425.247 L870.363 425.247 L870.363 464.824 L862.869 464.824 L862.869 425.247 L855.739 425.247 L855.739 419.454 L862.869 419.454 L862.869 416.295 Q862.869 408.719 866.393 405.276 Q869.918 401.792 877.574 401.792 L884.622 401.792 Z" fill="#000000" fill-rule="evenodd" fill-opacity="1" /><path clip-path="url(#clip170)" d="M948.149 430.926 Q948.149 431.5 947.78 432.853 L939.746 464.906 Q937.983 472.038 932.245 477.039 Q926.547 482.04 920.071 482.04 Q916.177 482.04 913.677 479.949 Q911.176 477.9 911.176 474.744 Q911.176 471.957 912.652 470.604 Q914.128 469.292 915.89 469.292 Q916.464 469.292 917.079 469.456 Q917.694 469.62 918.35 470.317 Q919.005 471.014 919.005 472.202 Q919.005 474.129 917.325 475.646 Q916.505 476.342 915.726 476.506 Q914.988 476.67 913.718 476.67 Q914.21 477.818 915.111 478.597 Q916.013 479.376 917.038 479.662 Q918.063 479.99 918.719 480.072 Q919.415 480.195 920.071 480.195 Q925.318 480.195 929.335 474.908 Q930.523 473.309 931.384 471.711 Q932.286 470.153 932.942 468.226 Q933.598 466.341 933.885 465.316 Q934.212 464.292 934.786 461.955 Q930.974 465.767 926.302 465.767 Q924.334 465.767 922.571 465.234 Q920.85 464.701 919.333 463.595 Q917.817 462.447 916.915 460.439 Q916.054 458.43 916.054 455.766 Q916.054 452.937 917.161 449.084 Q918.268 445.231 920.932 438.14 Q922.367 434.164 922.367 432.238 Q922.367 431.295 922.162 430.721 Q921.957 430.106 921.547 429.902 Q921.137 429.656 920.891 429.615 Q920.686 429.574 920.276 429.574 Q917.858 429.574 915.603 432.033 Q913.349 434.492 911.791 439.985 Q911.463 441.01 911.258 441.256 Q911.054 441.501 910.439 441.501 Q909.414 441.46 909.414 440.641 Q909.414 440.313 909.783 439.042 Q910.152 437.73 911.013 435.804 Q911.914 433.836 913.144 432.074 Q914.374 430.27 916.3 429 Q918.268 427.729 920.522 427.729 Q923.596 427.729 925.482 429.738 Q927.408 431.705 927.408 434.615 Q927.408 435.804 927.08 436.87 Q926.793 437.894 925.728 440.641 Q921.424 451.708 921.424 457.118 Q921.424 458.43 921.629 459.537 Q921.875 460.602 922.408 461.668 Q922.94 462.693 924.006 463.308 Q925.113 463.882 926.629 463.882 Q928.556 463.882 930.359 462.98 Q932.204 462.037 933.352 460.766 Q934.54 459.496 935.237 458.43 Q935.975 457.323 936.139 456.749 L939.91 441.665 L941.591 434.943 Q942.369 431.295 942.738 430.393 Q943.23 429.533 944.091 429.082 Q944.952 428.631 945.689 428.631 Q946.714 428.631 947.411 429.246 Q948.149 429.861 948.149 430.926 Z" fill="#000000" fill-rule="evenodd" fill-opacity="1" /></svg>
