<?xml version="1.0" encoding="utf-8"?>
<svg xmlns="http://www.w3.org/2000/svg" xmlns:xlink="http://www.w3.org/1999/xlink" width="600" height="400" viewBox="0 0 2400 1600">
<defs>
  <clipPath id="clip170">
    <rect x="0" y="0" width="2400" height="1600"/>
  </clipPath>
</defs>
<path clip-path="url(#clip170)" d="
M0 1600 L2400 1600 L2400 0 L0 0  Z
  " fill="#ffffff" fill-rule="evenodd" fill-opacity="1"/>
<defs>
  <clipPath id="clip171">
    <rect x="480" y="0" width="1681" height="1600"/>
  </clipPath>
</defs>
<path clip-path="url(#clip170)" d="
M182.999 1384.3 L2352.76 1384.3 L2352.76 47.2441 L182.999 47.2441  Z
  " fill="#ffffff" fill-rule="evenodd" fill-opacity="1"/>
<defs>
  <clipPath id="clip172">
    <rect x="182" y="47" width="2171" height="1338"/>
  </clipPath>
</defs>
<polyline clip-path="url(#clip172)" style="stroke:#000000; stroke-linecap:round; stroke-linejoin:round; stroke-width:2; stroke-opacity:0.1; fill:none" points="
  578.207,1384.3 578.207,47.2441 
  "/>
<polyline clip-path="url(#clip172)" style="stroke:#000000; stroke-linecap:round; stroke-linejoin:round; stroke-width:2; stroke-opacity:0.1; fill:none" points="
  1129.94,1384.3 1129.94,47.2441 
  "/>
<polyline clip-path="url(#clip172)" style="stroke:#000000; stroke-linecap:round; stroke-linejoin:round; stroke-width:2; stroke-opacity:0.1; fill:none" points="
  1681.68,1384.3 1681.68,47.2441 
  "/>
<polyline clip-path="url(#clip172)" style="stroke:#000000; stroke-linecap:round; stroke-linejoin:round; stroke-width:2; stroke-opacity:0.1; fill:none" points="
  2233.42,1384.3 2233.42,47.2441 
  "/>
<polyline clip-path="url(#clip170)" style="stroke:#000000; stroke-linecap:round; stroke-linejoin:round; stroke-width:4; stroke-opacity:1; fill:none" points="
  182.999,1384.3 2352.76,1384.3 
  "/>
<polyline clip-path="url(#clip170)" style="stroke:#000000; stroke-linecap:round; stroke-linejoin:round; stroke-width:4; stroke-opacity:1; fill:none" points="
  578.207,1384.3 578.207,1365.4 
  "/>
<polyline clip-path="url(#clip170)" style="stroke:#000000; stroke-linecap:round; stroke-linejoin:round; stroke-width:4; stroke-opacity:1; fill:none" points="
  1129.94,1384.3 1129.94,1365.4 
  "/>
<polyline clip-path="url(#clip170)" style="stroke:#000000; stroke-linecap:round; stroke-linejoin:round; stroke-width:4; stroke-opacity:1; fill:none" points="
  1681.68,1384.3 1681.68,1365.4 
  "/>
<polyline clip-path="url(#clip170)" style="stroke:#000000; stroke-linecap:round; stroke-linejoin:round; stroke-width:4; stroke-opacity:1; fill:none" points="
  2233.42,1384.3 2233.42,1365.4 
  "/>
<path clip-path="url(#clip170)" d="M497.817 1449.65 L549.75 1449.65 L549.75 1456.54 L497.817 1456.54 L497.817 1449.65 Z" fill="#000000" fill-rule="evenodd" fill-opacity="1" /><path clip-path="url(#clip170)" d="M568.829 1472.21 L582.197 1472.21 L582.197 1426.07 L567.655 1428.99 L567.655 1421.54 L582.116 1418.62 L590.299 1418.62 L590.299 1472.21 L603.667 1472.21 L603.667 1479.1 L568.829 1479.1 L568.829 1472.21 Z" fill="#000000" fill-rule="evenodd" fill-opacity="1" /><path clip-path="url(#clip170)" d="M637.695 1424.01 Q631.375 1424.01 628.175 1430.25 Q625.015 1436.44 625.015 1448.92 Q625.015 1461.36 628.175 1467.6 Q631.375 1473.79 637.695 1473.79 Q644.055 1473.79 647.214 1467.6 Q650.414 1461.36 650.414 1448.92 Q650.414 1436.44 647.214 1430.25 Q644.055 1424.01 637.695 1424.01 M637.695 1417.53 Q647.862 1417.53 653.21 1425.59 Q658.597 1433.61 658.597 1448.92 Q658.597 1464.19 653.21 1472.25 Q647.862 1480.27 637.695 1480.27 Q627.527 1480.27 622.139 1472.25 Q616.792 1464.19 616.792 1448.92 Q616.792 1433.61 622.139 1425.59 Q627.527 1417.53 637.695 1417.53 Z" fill="#000000" fill-rule="evenodd" fill-opacity="1" /><path clip-path="url(#clip170)" d="M1129.94 1424.01 Q1123.62 1424.01 1120.42 1430.25 Q1117.26 1436.44 1117.26 1448.92 Q1117.26 1461.36 1120.42 1467.6 Q1123.62 1473.79 1129.94 1473.79 Q1136.3 1473.79 1139.46 1467.6 Q1142.66 1461.36 1142.66 1448.92 Q1142.66 1436.44 1139.46 1430.25 Q1136.3 1424.01 1129.94 1424.01 M1129.94 1417.53 Q1140.11 1417.53 1145.46 1425.59 Q1150.85 1433.61 1150.85 1448.92 Q1150.85 1464.19 1145.46 1472.25 Q1140.11 1480.27 1129.94 1480.27 Q1119.78 1480.27 1114.39 1472.25 Q1109.04 1464.19 1109.04 1448.92 Q1109.04 1433.61 1114.39 1425.59 Q1119.78 1417.53 1129.94 1417.53 Z" fill="#000000" fill-rule="evenodd" fill-opacity="1" /><path clip-path="url(#clip170)" d="M1637.38 1472.21 L1650.75 1472.21 L1650.75 1426.07 L1636.21 1428.99 L1636.21 1421.54 L1650.67 1418.62 L1658.85 1418.62 L1658.85 1472.21 L1672.22 1472.21 L1672.22 1479.1 L1637.38 1479.1 L1637.38 1472.21 Z" fill="#000000" fill-rule="evenodd" fill-opacity="1" /><path clip-path="url(#clip170)" d="M1706.25 1424.01 Q1699.93 1424.01 1696.73 1430.25 Q1693.57 1436.44 1693.57 1448.92 Q1693.57 1461.36 1696.73 1467.6 Q1699.93 1473.79 1706.25 1473.79 Q1712.61 1473.79 1715.77 1467.6 Q1718.97 1461.36 1718.97 1448.92 Q1718.97 1436.44 1715.77 1430.25 Q1712.61 1424.01 1706.25 1424.01 M1706.25 1417.53 Q1716.42 1417.53 1721.76 1425.59 Q1727.15 1433.61 1727.15 1448.92 Q1727.15 1464.19 1721.76 1472.25 Q1716.42 1480.27 1706.25 1480.27 Q1696.08 1480.27 1690.69 1472.25 Q1685.35 1464.19 1685.35 1448.92 Q1685.35 1433.61 1690.69 1425.59 Q1696.08 1417.53 1706.25 1417.53 Z" fill="#000000" fill-rule="evenodd" fill-opacity="1" /><path clip-path="url(#clip170)" d="M2196.27 1472.21 L2224.83 1472.21 L2224.83 1479.1 L2186.42 1479.1 L2186.42 1472.21 Q2191.08 1467.39 2199.1 1459.29 Q2207.17 1451.15 2209.23 1448.8 Q2213.16 1444.38 2214.7 1441.35 Q2216.28 1438.27 2216.28 1435.31 Q2216.28 1430.49 2212.88 1427.45 Q2209.52 1424.41 2204.09 1424.41 Q2200.24 1424.41 2195.94 1425.75 Q2191.69 1427.09 2186.83 1429.8 L2186.83 1421.54 Q2191.77 1419.55 2196.07 1418.54 Q2200.36 1417.53 2203.92 1417.53 Q2213.32 1417.53 2218.91 1422.23 Q2224.5 1426.92 2224.5 1434.78 Q2224.5 1438.51 2223.09 1441.87 Q2221.71 1445.19 2218.02 1449.73 Q2217.01 1450.91 2211.58 1456.54 Q2206.15 1462.13 2196.27 1472.21 Z" fill="#000000" fill-rule="evenodd" fill-opacity="1" /><path clip-path="url(#clip170)" d="M2259.5 1424.01 Q2253.18 1424.01 2249.98 1430.25 Q2246.82 1436.44 2246.82 1448.92 Q2246.82 1461.36 2249.98 1467.6 Q2253.18 1473.79 2259.5 1473.79 Q2265.86 1473.79 2269.02 1467.6 Q2272.22 1461.36 2272.22 1448.92 Q2272.22 1436.44 2269.02 1430.25 Q2265.86 1424.01 2259.5 1424.01 M2259.5 1417.53 Q2269.67 1417.53 2275.02 1425.59 Q2280.41 1433.61 2280.41 1448.92 Q2280.41 1464.19 2275.02 1472.25 Q2269.67 1480.27 2259.5 1480.27 Q2249.34 1480.27 2243.95 1472.25 Q2238.6 1464.19 2238.6 1448.92 Q2238.6 1433.61 2243.95 1425.59 Q2249.34 1417.53 2259.5 1417.53 Z" fill="#000000" fill-rule="evenodd" fill-opacity="1" /><path clip-path="url(#clip170)" d="M768.948 1555.24 Q771.581 1556.13 774.052 1559.05 Q776.563 1561.96 779.075 1567.07 L787.379 1583.6 L778.589 1583.6 L770.852 1568.08 Q767.854 1562 765.018 1560.02 Q762.223 1558.03 757.362 1558.03 L748.45 1558.03 L748.45 1583.6 L740.267 1583.6 L740.267 1523.12 L758.739 1523.12 Q769.11 1523.12 774.214 1527.45 Q779.318 1531.78 779.318 1540.53 Q779.318 1546.25 776.644 1550.01 Q774.011 1553.78 768.948 1555.24 M748.45 1529.84 L748.45 1551.31 L758.739 1551.31 Q764.654 1551.31 767.651 1548.6 Q770.69 1545.84 770.69 1540.53 Q770.69 1535.23 767.651 1532.55 Q764.654 1529.84 758.739 1529.84 L748.45 1529.84 Z" fill="#000000" fill-rule="evenodd" fill-opacity="1" /><path clip-path="url(#clip170)" d="M832.668 1559.05 L832.668 1562.69 L798.398 1562.69 Q798.884 1570.39 803.016 1574.44 Q807.188 1578.45 814.601 1578.45 Q818.895 1578.45 822.906 1577.4 Q826.957 1576.34 830.926 1574.24 L830.926 1581.29 Q826.916 1582.99 822.703 1583.88 Q818.49 1584.77 814.156 1584.77 Q803.299 1584.77 796.939 1578.45 Q790.62 1572.13 790.62 1561.36 Q790.62 1550.22 796.615 1543.69 Q802.651 1537.13 812.859 1537.13 Q822.014 1537.13 827.321 1543.05 Q832.668 1548.92 832.668 1559.05 M825.215 1556.86 Q825.134 1550.74 821.771 1547.1 Q818.45 1543.45 812.94 1543.45 Q806.702 1543.45 802.935 1546.98 Q799.208 1550.5 798.641 1556.9 L825.215 1556.86 Z" fill="#000000" fill-rule="evenodd" fill-opacity="1" /><path clip-path="url(#clip170)" d="M873.826 1539.56 L873.826 1546.61 Q870.666 1544.99 867.263 1544.18 Q863.86 1543.37 860.214 1543.37 Q854.665 1543.37 851.87 1545.07 Q849.115 1546.77 849.115 1550.18 Q849.115 1552.77 851.1 1554.27 Q853.085 1555.73 859.08 1557.06 L861.632 1557.63 Q869.572 1559.33 872.894 1562.45 Q876.256 1565.53 876.256 1571.08 Q876.256 1577.4 871.233 1581.08 Q866.25 1584.77 857.5 1584.77 Q853.855 1584.77 849.885 1584.04 Q845.955 1583.35 841.58 1581.93 L841.58 1574.24 Q845.712 1576.39 849.723 1577.48 Q853.733 1578.53 857.662 1578.53 Q862.929 1578.53 865.764 1576.75 Q868.6 1574.93 868.6 1571.65 Q868.6 1568.61 866.534 1566.99 Q864.508 1565.37 857.581 1563.87 L854.989 1563.26 Q848.062 1561.8 844.983 1558.8 Q841.904 1555.77 841.904 1550.5 Q841.904 1544.1 846.441 1540.62 Q850.978 1537.13 859.323 1537.13 Q863.455 1537.13 867.101 1537.74 Q870.747 1538.35 873.826 1539.56 Z" fill="#000000" fill-rule="evenodd" fill-opacity="1" /><path clip-path="url(#clip170)" d="M888.125 1538.23 L895.579 1538.23 L895.579 1583.6 L888.125 1583.6 L888.125 1538.23 M888.125 1520.56 L895.579 1520.56 L895.579 1530 L888.125 1530 L888.125 1520.56 Z" fill="#000000" fill-rule="evenodd" fill-opacity="1" /><path clip-path="url(#clip170)" d="M941.03 1545.11 L941.03 1520.56 L948.484 1520.56 L948.484 1583.6 L941.03 1583.6 L941.03 1576.79 Q938.68 1580.84 935.075 1582.83 Q931.51 1584.77 926.487 1584.77 Q918.264 1584.77 913.079 1578.21 Q907.934 1571.65 907.934 1560.95 Q907.934 1550.26 913.079 1543.69 Q918.264 1537.13 926.487 1537.13 Q931.51 1537.13 935.075 1539.12 Q938.68 1541.06 941.03 1545.11 M915.631 1560.95 Q915.631 1569.17 918.993 1573.87 Q922.396 1578.53 928.31 1578.53 Q934.225 1578.53 937.627 1573.87 Q941.03 1569.17 941.03 1560.95 Q941.03 1552.73 937.627 1548.07 Q934.225 1543.37 928.31 1543.37 Q922.396 1543.37 918.993 1548.07 Q915.631 1552.73 915.631 1560.95 Z" fill="#000000" fill-rule="evenodd" fill-opacity="1" /><path clip-path="url(#clip170)" d="M963.067 1565.69 L963.067 1538.23 L970.521 1538.23 L970.521 1565.41 Q970.521 1571.85 973.032 1575.09 Q975.544 1578.29 980.567 1578.29 Q986.603 1578.29 990.086 1574.44 Q993.611 1570.59 993.611 1563.95 L993.611 1538.23 L1001.06 1538.23 L1001.06 1583.6 L993.611 1583.6 L993.611 1576.63 Q990.897 1580.76 987.291 1582.79 Q983.727 1584.77 978.987 1584.77 Q971.169 1584.77 967.118 1579.91 Q963.067 1575.05 963.067 1565.69 M981.823 1537.13 L981.823 1537.13 Z" fill="#000000" fill-rule="evenodd" fill-opacity="1" /><path clip-path="url(#clip170)" d="M1037.04 1560.79 Q1028 1560.79 1024.52 1562.86 Q1021.04 1564.92 1021.04 1569.9 Q1021.04 1573.87 1023.63 1576.22 Q1026.26 1578.53 1030.76 1578.53 Q1036.96 1578.53 1040.68 1574.16 Q1044.45 1569.74 1044.45 1562.45 L1044.45 1560.79 L1037.04 1560.79 M1051.9 1557.71 L1051.9 1583.6 L1044.45 1583.6 L1044.45 1576.71 Q1041.9 1580.84 1038.09 1582.83 Q1034.28 1584.77 1028.77 1584.77 Q1021.81 1584.77 1017.67 1580.88 Q1013.58 1576.95 1013.58 1570.39 Q1013.58 1562.73 1018.69 1558.84 Q1023.83 1554.96 1034 1554.96 L1044.45 1554.96 L1044.45 1554.23 Q1044.45 1549.08 1041.05 1546.29 Q1037.68 1543.45 1031.57 1543.45 Q1027.68 1543.45 1023.99 1544.38 Q1020.31 1545.31 1016.9 1547.18 L1016.9 1540.29 Q1020.99 1538.71 1024.84 1537.94 Q1028.69 1537.13 1032.34 1537.13 Q1042.18 1537.13 1047.04 1542.24 Q1051.9 1547.34 1051.9 1557.71 Z" fill="#000000" fill-rule="evenodd" fill-opacity="1" /><path clip-path="url(#clip170)" d="M1067.26 1520.56 L1074.71 1520.56 L1074.71 1583.6 L1067.26 1583.6 L1067.26 1520.56 Z" fill="#000000" fill-rule="evenodd" fill-opacity="1" /><path clip-path="url(#clip170)" d="M1119.23 1539.56 L1119.23 1546.61 Q1116.07 1544.99 1112.67 1544.18 Q1109.26 1543.37 1105.62 1543.37 Q1100.07 1543.37 1097.27 1545.07 Q1094.52 1546.77 1094.52 1550.18 Q1094.52 1552.77 1096.5 1554.27 Q1098.49 1555.73 1104.48 1557.06 L1107.04 1557.63 Q1114.98 1559.33 1118.3 1562.45 Q1121.66 1565.53 1121.66 1571.08 Q1121.66 1577.4 1116.64 1581.08 Q1111.65 1584.77 1102.9 1584.77 Q1099.26 1584.77 1095.29 1584.04 Q1091.36 1583.35 1086.98 1581.93 L1086.98 1574.24 Q1091.12 1576.39 1095.13 1577.48 Q1099.14 1578.53 1103.07 1578.53 Q1108.33 1578.53 1111.17 1576.75 Q1114 1574.93 1114 1571.65 Q1114 1568.61 1111.94 1566.99 Q1109.91 1565.37 1102.99 1563.87 L1100.39 1563.26 Q1093.47 1561.8 1090.39 1558.8 Q1087.31 1555.77 1087.31 1550.5 Q1087.31 1544.1 1091.85 1540.62 Q1096.38 1537.13 1104.73 1537.13 Q1108.86 1537.13 1112.5 1537.74 Q1116.15 1538.35 1119.23 1539.56 Z" fill="#000000" fill-rule="evenodd" fill-opacity="1" /><path clip-path="url(#clip170)" d="M1182.87 1520.56 L1182.87 1526.76 L1175.74 1526.76 Q1171.73 1526.76 1170.15 1528.38 Q1168.61 1530 1168.61 1534.22 L1168.61 1538.23 L1180.88 1538.23 L1180.88 1544.02 L1168.61 1544.02 L1168.61 1583.6 L1161.12 1583.6 L1161.12 1544.02 L1153.99 1544.02 L1153.99 1538.23 L1161.12 1538.23 L1161.12 1535.07 Q1161.12 1527.49 1164.64 1524.05 Q1168.16 1520.56 1175.82 1520.56 L1182.87 1520.56 Z" fill="#000000" fill-rule="evenodd" fill-opacity="1" /><path clip-path="url(#clip170)" d="M1215.4 1545.19 Q1214.14 1544.46 1212.64 1544.14 Q1211.18 1543.78 1209.4 1543.78 Q1203.08 1543.78 1199.68 1547.91 Q1196.32 1552 1196.32 1559.7 L1196.32 1583.6 L1188.82 1583.6 L1188.82 1538.23 L1196.32 1538.23 L1196.32 1545.27 Q1198.67 1541.14 1202.43 1539.16 Q1206.2 1537.13 1211.59 1537.13 Q1212.36 1537.13 1213.29 1537.25 Q1214.22 1537.33 1215.36 1537.54 L1215.4 1545.19 Z" fill="#000000" fill-rule="evenodd" fill-opacity="1" /><path clip-path="url(#clip170)" d="M1238.97 1543.45 Q1232.98 1543.45 1229.49 1548.15 Q1226.01 1552.81 1226.01 1560.95 Q1226.01 1569.09 1229.45 1573.79 Q1232.94 1578.45 1238.97 1578.45 Q1244.93 1578.45 1248.41 1573.75 Q1251.9 1569.05 1251.9 1560.95 Q1251.9 1552.89 1248.41 1548.19 Q1244.93 1543.45 1238.97 1543.45 M1238.97 1537.13 Q1248.7 1537.13 1254.25 1543.45 Q1259.8 1549.77 1259.8 1560.95 Q1259.8 1572.09 1254.25 1578.45 Q1248.7 1584.77 1238.97 1584.77 Q1229.21 1584.77 1223.66 1578.45 Q1218.15 1572.09 1218.15 1560.95 Q1218.15 1549.77 1223.66 1543.45 Q1229.21 1537.13 1238.97 1537.13 Z" fill="#000000" fill-rule="evenodd" fill-opacity="1" /><path clip-path="url(#clip170)" d="M1307.47 1546.94 Q1310.27 1541.91 1314.16 1539.52 Q1318.05 1537.13 1323.31 1537.13 Q1330.4 1537.13 1334.25 1542.11 Q1338.1 1547.06 1338.1 1556.21 L1338.1 1583.6 L1330.61 1583.6 L1330.61 1556.45 Q1330.61 1549.93 1328.3 1546.77 Q1325.99 1543.61 1321.25 1543.61 Q1315.46 1543.61 1312.09 1547.46 Q1308.73 1551.31 1308.73 1557.95 L1308.73 1583.6 L1301.24 1583.6 L1301.24 1556.45 Q1301.24 1549.89 1298.93 1546.77 Q1296.62 1543.61 1291.8 1543.61 Q1286.09 1543.61 1282.72 1547.5 Q1279.36 1551.35 1279.36 1557.95 L1279.36 1583.6 L1271.87 1583.6 L1271.87 1538.23 L1279.36 1538.23 L1279.36 1545.27 Q1281.91 1541.1 1285.48 1539.12 Q1289.04 1537.13 1293.94 1537.13 Q1298.89 1537.13 1302.33 1539.64 Q1305.81 1542.16 1307.47 1546.94 Z" fill="#000000" fill-rule="evenodd" fill-opacity="1" /><path clip-path="url(#clip170)" d="M1379.66 1523.12 L1391.86 1523.12 L1407.29 1564.27 L1422.8 1523.12 L1435 1523.12 L1435 1583.6 L1427.02 1583.6 L1427.02 1530.49 L1411.42 1571.97 L1403.2 1571.97 L1387.6 1530.49 L1387.6 1583.6 L1379.66 1583.6 L1379.66 1523.12 Z" fill="#000000" fill-rule="evenodd" fill-opacity="1" /><path clip-path="url(#clip170)" d="M1471.46 1531.18 L1460.36 1561.28 L1482.6 1561.28 L1471.46 1531.18 M1466.84 1523.12 L1476.11 1523.12 L1499.16 1583.6 L1490.66 1583.6 L1485.15 1568.08 L1457.88 1568.08 L1452.38 1583.6 L1443.75 1583.6 L1466.84 1523.12 Z" fill="#000000" fill-rule="evenodd" fill-opacity="1" /><path clip-path="url(#clip170)" d="M1516.18 1529.84 L1516.18 1552.57 L1526.47 1552.57 Q1532.18 1552.57 1535.3 1549.61 Q1538.42 1546.65 1538.42 1541.18 Q1538.42 1535.75 1535.3 1532.8 Q1532.18 1529.84 1526.47 1529.84 L1516.18 1529.84 M1507.99 1523.12 L1526.47 1523.12 Q1536.63 1523.12 1541.82 1527.73 Q1547.05 1532.31 1547.05 1541.18 Q1547.05 1550.14 1541.82 1554.71 Q1536.63 1559.29 1526.47 1559.29 L1516.18 1559.29 L1516.18 1583.6 L1507.99 1583.6 L1507.99 1523.12 Z" fill="#000000" fill-rule="evenodd" fill-opacity="1" /><path clip-path="url(#clip170)" d="M1601.98 1520.64 Q1596.55 1529.96 1593.91 1539.08 Q1591.28 1548.19 1591.28 1557.55 Q1591.28 1566.91 1593.91 1576.1 Q1596.59 1585.26 1601.98 1594.53 L1595.49 1594.53 Q1589.42 1585.01 1586.38 1575.82 Q1583.38 1566.62 1583.38 1557.55 Q1583.38 1548.52 1586.38 1539.36 Q1589.38 1530.2 1595.49 1520.64 L1601.98 1520.64 Z" fill="#000000" fill-rule="evenodd" fill-opacity="1" /><path clip-path="url(#clip170)" d="M1651.76 1546.94 Q1654.56 1541.91 1658.45 1539.52 Q1662.33 1537.13 1667.6 1537.13 Q1674.69 1537.13 1678.54 1542.11 Q1682.39 1547.06 1682.39 1556.21 L1682.39 1583.6 L1674.89 1583.6 L1674.89 1556.45 Q1674.89 1549.93 1672.58 1546.77 Q1670.27 1543.61 1665.53 1543.61 Q1659.74 1543.61 1656.38 1547.46 Q1653.02 1551.31 1653.02 1557.95 L1653.02 1583.6 L1645.52 1583.6 L1645.52 1556.45 Q1645.52 1549.89 1643.21 1546.77 Q1640.9 1543.61 1636.08 1543.61 Q1630.37 1543.61 1627.01 1547.5 Q1623.65 1551.35 1623.65 1557.95 L1623.65 1583.6 L1616.15 1583.6 L1616.15 1538.23 L1623.65 1538.23 L1623.65 1545.27 Q1626.2 1541.1 1629.76 1539.12 Q1633.33 1537.13 1638.23 1537.13 Q1643.17 1537.13 1646.62 1539.64 Q1650.1 1542.16 1651.76 1546.94 Z" fill="#000000" fill-rule="evenodd" fill-opacity="1" /><path clip-path="url(#clip170)" d="M1732.58 1546.94 Q1735.37 1541.91 1739.26 1539.52 Q1743.15 1537.13 1748.42 1537.13 Q1755.5 1537.13 1759.35 1542.11 Q1763.2 1547.06 1763.2 1556.21 L1763.2 1583.6 L1755.71 1583.6 L1755.71 1556.45 Q1755.71 1549.93 1753.4 1546.77 Q1751.09 1543.61 1746.35 1543.61 Q1740.56 1543.61 1737.19 1547.46 Q1733.83 1551.31 1733.83 1557.95 L1733.83 1583.6 L1726.34 1583.6 L1726.34 1556.45 Q1726.34 1549.89 1724.03 1546.77 Q1721.72 1543.61 1716.9 1543.61 Q1711.19 1543.61 1707.83 1547.5 Q1704.46 1551.35 1704.46 1557.95 L1704.46 1583.6 L1696.97 1583.6 L1696.97 1538.23 L1704.46 1538.23 L1704.46 1545.27 Q1707.02 1541.1 1710.58 1539.12 Q1714.15 1537.13 1719.05 1537.13 Q1723.99 1537.13 1727.43 1539.64 Q1730.92 1542.16 1732.58 1546.94 Z" fill="#000000" fill-rule="evenodd" fill-opacity="1" /><path clip-path="url(#clip170)" d="M1776.89 1520.64 L1783.38 1520.64 Q1789.45 1530.2 1792.45 1539.36 Q1795.49 1548.52 1795.49 1557.55 Q1795.49 1566.62 1792.45 1575.82 Q1789.45 1585.01 1783.38 1594.53 L1776.89 1594.53 Q1782.28 1585.26 1784.91 1576.1 Q1787.59 1566.91 1787.59 1557.55 Q1787.59 1548.19 1784.91 1539.08 Q1782.28 1529.96 1776.89 1520.64 Z" fill="#000000" fill-rule="evenodd" fill-opacity="1" /><polyline clip-path="url(#clip172)" style="stroke:#000000; stroke-linecap:round; stroke-linejoin:round; stroke-width:2; stroke-opacity:0.1; fill:none" points="
  182.999,1346.46 2352.76,1346.46 
  "/>
<polyline clip-path="url(#clip172)" style="stroke:#000000; stroke-linecap:round; stroke-linejoin:round; stroke-width:2; stroke-opacity:0.1; fill:none" points="
  182.999,1038.81 2352.76,1038.81 
  "/>
<polyline clip-path="url(#clip172)" style="stroke:#000000; stroke-linecap:round; stroke-linejoin:round; stroke-width:2; stroke-opacity:0.1; fill:none" points="
  182.999,731.155 2352.76,731.155 
  "/>
<polyline clip-path="url(#clip172)" style="stroke:#000000; stroke-linecap:round; stroke-linejoin:round; stroke-width:2; stroke-opacity:0.1; fill:none" points="
  182.999,423.503 2352.76,423.503 
  "/>
<polyline clip-path="url(#clip172)" style="stroke:#000000; stroke-linecap:round; stroke-linejoin:round; stroke-width:2; stroke-opacity:0.1; fill:none" points="
  182.999,115.85 2352.76,115.85 
  "/>
<polyline clip-path="url(#clip170)" style="stroke:#000000; stroke-linecap:round; stroke-linejoin:round; stroke-width:4; stroke-opacity:1; fill:none" points="
  182.999,1384.3 182.999,47.2441 
  "/>
<polyline clip-path="url(#clip170)" style="stroke:#000000; stroke-linecap:round; stroke-linejoin:round; stroke-width:4; stroke-opacity:1; fill:none" points="
  182.999,1346.46 201.896,1346.46 
  "/>
<polyline clip-path="url(#clip170)" style="stroke:#000000; stroke-linecap:round; stroke-linejoin:round; stroke-width:4; stroke-opacity:1; fill:none" points="
  182.999,1038.81 201.896,1038.81 
  "/>
<polyline clip-path="url(#clip170)" style="stroke:#000000; stroke-linecap:round; stroke-linejoin:round; stroke-width:4; stroke-opacity:1; fill:none" points="
  182.999,731.155 201.896,731.155 
  "/>
<polyline clip-path="url(#clip170)" style="stroke:#000000; stroke-linecap:round; stroke-linejoin:round; stroke-width:4; stroke-opacity:1; fill:none" points="
  182.999,423.503 201.896,423.503 
  "/>
<polyline clip-path="url(#clip170)" style="stroke:#000000; stroke-linecap:round; stroke-linejoin:round; stroke-width:4; stroke-opacity:1; fill:none" points="
  182.999,115.85 201.896,115.85 
  "/>
<path clip-path="url(#clip170)" d="M126.096 1321.61 Q119.776 1321.61 116.576 1327.84 Q113.417 1334.04 113.417 1346.52 Q113.417 1358.96 116.576 1365.19 Q119.776 1371.39 126.096 1371.39 Q132.456 1371.39 135.616 1365.19 Q138.816 1358.96 138.816 1346.52 Q138.816 1334.04 135.616 1327.84 Q132.456 1321.61 126.096 1321.61 M126.096 1315.12 Q136.264 1315.12 141.611 1323.19 Q146.999 1331.21 146.999 1346.52 Q146.999 1361.79 141.611 1369.85 Q136.264 1377.87 126.096 1377.87 Q115.928 1377.87 110.54 1369.85 Q105.193 1361.79 105.193 1346.52 Q105.193 1331.21 110.54 1323.19 Q115.928 1315.12 126.096 1315.12 Z" fill="#000000" fill-rule="evenodd" fill-opacity="1" /><path clip-path="url(#clip170)" d="M57.2305 1062.16 L70.5985 1062.16 L70.5985 1016.02 L56.0558 1018.94 L56.0558 1011.48 L70.5175 1008.57 L78.7003 1008.57 L78.7003 1062.16 L92.0683 1062.16 L92.0683 1069.05 L57.2305 1069.05 L57.2305 1062.16 Z" fill="#000000" fill-rule="evenodd" fill-opacity="1" /><path clip-path="url(#clip170)" d="M126.096 1013.95 Q119.776 1013.95 116.576 1020.19 Q113.417 1026.39 113.417 1038.87 Q113.417 1051.3 116.576 1057.54 Q119.776 1063.74 126.096 1063.74 Q132.456 1063.74 135.616 1057.54 Q138.816 1051.3 138.816 1038.87 Q138.816 1026.39 135.616 1020.19 Q132.456 1013.95 126.096 1013.95 M126.096 1007.47 Q136.264 1007.47 141.611 1015.53 Q146.999 1023.55 146.999 1038.87 Q146.999 1054.14 141.611 1062.2 Q136.264 1070.22 126.096 1070.22 Q115.928 1070.22 110.54 1062.2 Q105.193 1054.14 105.193 1038.87 Q105.193 1023.55 110.54 1015.53 Q115.928 1007.47 126.096 1007.47 Z" fill="#000000" fill-rule="evenodd" fill-opacity="1" /><path clip-path="url(#clip170)" d="M62.8613 754.508 L91.4202 754.508 L91.4202 761.395 L53.0176 761.395 L53.0176 754.508 Q57.6761 749.687 65.6969 741.586 Q73.7582 733.443 75.8242 731.094 Q79.7535 726.678 81.2929 723.64 Q82.8727 720.561 82.8727 717.604 Q82.8727 712.784 79.47 709.746 Q76.1077 706.707 70.6795 706.707 Q66.8312 706.707 62.5372 708.044 Q58.2838 709.381 53.4227 712.095 L53.4227 703.831 Q58.3648 701.846 62.6587 700.834 Q66.9527 699.821 70.5175 699.821 Q79.9156 699.821 85.5058 704.52 Q91.0961 709.219 91.0961 717.078 Q91.0961 720.805 89.6783 724.167 Q88.301 727.489 84.6146 732.026 Q83.6019 733.2 78.1737 738.831 Q72.7455 744.421 62.8613 754.508 Z" fill="#000000" fill-rule="evenodd" fill-opacity="1" /><path clip-path="url(#clip170)" d="M126.096 706.302 Q119.776 706.302 116.576 712.541 Q113.417 718.739 113.417 731.215 Q113.417 743.652 116.576 749.89 Q119.776 756.088 126.096 756.088 Q132.456 756.088 135.616 749.89 Q138.816 743.652 138.816 731.215 Q138.816 718.739 135.616 712.541 Q132.456 706.302 126.096 706.302 M126.096 699.821 Q136.264 699.821 141.611 707.882 Q146.999 715.903 146.999 731.215 Q146.999 746.487 141.611 754.549 Q136.264 762.569 126.096 762.569 Q115.928 762.569 110.54 754.549 Q105.193 746.487 105.193 731.215 Q105.193 715.903 110.54 707.882 Q115.928 699.821 126.096 699.821 Z" fill="#000000" fill-rule="evenodd" fill-opacity="1" /><path clip-path="url(#clip170)" d="M80.6042 421.133 Q86.478 422.389 89.7593 426.358 Q93.081 430.328 93.081 436.162 Q93.081 445.114 86.9236 450.016 Q80.7663 454.917 69.4237 454.917 Q65.6159 454.917 61.565 454.148 Q57.5546 453.418 53.2606 451.92 L53.2606 444.02 Q56.6634 446.005 60.7143 447.018 Q64.7652 448.031 69.1807 448.031 Q76.8774 448.031 80.8878 444.993 Q84.9387 441.954 84.9387 436.162 Q84.9387 430.814 81.1714 427.817 Q77.4445 424.779 70.7605 424.779 L63.712 424.779 L63.712 418.054 L71.0846 418.054 Q77.1205 418.054 80.3207 415.664 Q83.5209 413.233 83.5209 408.696 Q83.5209 404.038 80.1991 401.567 Q76.9179 399.055 70.7605 399.055 Q67.3983 399.055 63.5499 399.784 Q59.7016 400.514 55.0835 402.053 L55.0835 394.761 Q59.7421 393.465 63.793 392.817 Q67.8844 392.169 71.4897 392.169 Q80.8068 392.169 86.235 396.422 Q91.6632 400.635 91.6632 407.846 Q91.6632 412.869 88.7871 416.353 Q85.9109 419.796 80.6042 421.133 Z" fill="#000000" fill-rule="evenodd" fill-opacity="1" /><path clip-path="url(#clip170)" d="M126.096 398.65 Q119.776 398.65 116.576 404.889 Q113.417 411.087 113.417 423.563 Q113.417 436 116.576 442.238 Q119.776 448.436 126.096 448.436 Q132.456 448.436 135.616 442.238 Q138.816 436 138.816 423.563 Q138.816 411.087 135.616 404.889 Q132.456 398.65 126.096 398.65 M126.096 392.169 Q136.264 392.169 141.611 400.23 Q146.999 408.251 146.999 423.563 Q146.999 438.835 141.611 446.897 Q136.264 454.917 126.096 454.917 Q115.928 454.917 110.54 446.897 Q105.193 438.835 105.193 423.563 Q105.193 408.251 110.54 400.23 Q115.928 392.169 126.096 392.169 Z" fill="#000000" fill-rule="evenodd" fill-opacity="1" /><path clip-path="url(#clip170)" d="M78.2952 92.7401 L57.6356 125.026 L78.2952 125.026 L78.2952 92.7401 M76.1482 85.6105 L86.4375 85.6105 L86.4375 125.026 L95.066 125.026 L95.066 131.831 L86.4375 131.831 L86.4375 146.09 L78.2952 146.09 L78.2952 131.831 L50.9921 131.831 L50.9921 123.932 L76.1482 85.6105 Z" fill="#000000" fill-rule="evenodd" fill-opacity="1" /><path clip-path="url(#clip170)" d="M126.096 90.9982 Q119.776 90.9982 116.576 97.2366 Q113.417 103.434 113.417 115.911 Q113.417 128.348 116.576 134.586 Q119.776 140.784 126.096 140.784 Q132.456 140.784 135.616 134.586 Q138.816 128.348 138.816 115.911 Q138.816 103.434 135.616 97.2366 Q132.456 90.9982 126.096 90.9982 M126.096 84.5168 Q136.264 84.5168 141.611 92.5781 Q146.999 100.599 146.999 115.911 Q146.999 131.183 141.611 139.244 Q136.264 147.265 126.096 147.265 Q115.928 147.265 110.54 139.244 Q105.193 131.183 105.193 115.911 Q105.193 100.599 110.54 92.5781 Q115.928 84.5168 126.096 84.5168 Z" fill="#000000" fill-rule="evenodd" fill-opacity="1" /><path clip-path="url(#clip172)" d="
M302.339 1100.34 L302.339 1346.46 L578.207 1346.46 L578.207 1100.34 L302.339 1100.34 L302.339 1100.34  Z
  " fill="#009af9" fill-rule="evenodd" fill-opacity="1"/>
<polyline clip-path="url(#clip172)" style="stroke:#000000; stroke-linecap:round; stroke-linejoin:round; stroke-width:4; stroke-opacity:1; fill:none" points="
  302.339,1100.34 302.339,1346.46 578.207,1346.46 578.207,1100.34 302.339,1100.34 
  "/>
<path clip-path="url(#clip172)" d="
M578.207 792.685 L578.207 1346.46 L854.075 1346.46 L854.075 792.685 L578.207 792.685 L578.207 792.685  Z
  " fill="#009af9" fill-rule="evenodd" fill-opacity="1"/>
<polyline clip-path="url(#clip172)" style="stroke:#000000; stroke-linecap:round; stroke-linejoin:round; stroke-width:4; stroke-opacity:1; fill:none" points="
  578.207,792.685 578.207,1346.46 854.075,1346.46 854.075,792.685 578.207,792.685 
  "/>
<path clip-path="url(#clip172)" d="
M854.075 177.381 L854.075 1346.46 L1129.94 1346.46 L1129.94 177.381 L854.075 177.381 L854.075 177.381  Z
  " fill="#009af9" fill-rule="evenodd" fill-opacity="1"/>
<polyline clip-path="url(#clip172)" style="stroke:#000000; stroke-linecap:round; stroke-linejoin:round; stroke-width:4; stroke-opacity:1; fill:none" points="
  854.075,177.381 854.075,1346.46 1129.94,1346.46 1129.94,177.381 854.075,177.381 
  "/>
<path clip-path="url(#clip172)" d="
M1129.94 85.0853 L1129.94 1346.46 L1405.81 1346.46 L1405.81 85.0853 L1129.94 85.0853 L1129.94 85.0853  Z
  " fill="#009af9" fill-rule="evenodd" fill-opacity="1"/>
<polyline clip-path="url(#clip172)" style="stroke:#000000; stroke-linecap:round; stroke-linejoin:round; stroke-width:4; stroke-opacity:1; fill:none" points="
  1129.94,85.0853 1129.94,1346.46 1405.81,1346.46 1405.81,85.0853 1129.94,85.0853 
  "/>
<path clip-path="url(#clip172)" d="
M1405.81 546.563 L1405.81 1346.46 L1681.68 1346.46 L1681.68 546.563 L1405.81 546.563 L1405.81 546.563  Z
  " fill="#009af9" fill-rule="evenodd" fill-opacity="1"/>
<polyline clip-path="url(#clip172)" style="stroke:#000000; stroke-linecap:round; stroke-linejoin:round; stroke-width:4; stroke-opacity:1; fill:none" points="
  1405.81,546.563 1405.81,1346.46 1681.68,1346.46 1681.68,546.563 1405.81,546.563 
  "/>
<path clip-path="url(#clip172)" d="
M1681.68 1284.93 L1681.68 1346.46 L1957.55 1346.46 L1957.55 1284.93 L1681.68 1284.93 L1681.68 1284.93  Z
  " fill="#009af9" fill-rule="evenodd" fill-opacity="1"/>
<polyline clip-path="url(#clip172)" style="stroke:#000000; stroke-linecap:round; stroke-linejoin:round; stroke-width:4; stroke-opacity:1; fill:none" points="
  1681.68,1284.93 1681.68,1346.46 1957.55,1346.46 1957.55,1284.93 1681.68,1284.93 
  "/>
<path clip-path="url(#clip172)" d="
M1957.55 1315.69 L1957.55 1346.46 L2233.42 1346.46 L2233.42 1315.69 L1957.55 1315.69 L1957.55 1315.69  Z
  " fill="#009af9" fill-rule="evenodd" fill-opacity="1"/>
<polyline clip-path="url(#clip172)" style="stroke:#000000; stroke-linecap:round; stroke-linejoin:round; stroke-width:4; stroke-opacity:1; fill:none" points="
  1957.55,1315.69 1957.55,1346.46 2233.42,1346.46 2233.42,1315.69 1957.55,1315.69 
  "/>
<circle clip-path="url(#clip172)" style="fill:#009af9; stroke:none; fill-opacity:0" cx="440.273" cy="1100.34" r="2"/>
<circle clip-path="url(#clip172)" style="fill:#009af9; stroke:none; fill-opacity:0" cx="716.141" cy="792.685" r="2"/>
<circle clip-path="url(#clip172)" style="fill:#009af9; stroke:none; fill-opacity:0" cx="992.009" cy="177.381" r="2"/>
<circle clip-path="url(#clip172)" style="fill:#009af9; stroke:none; fill-opacity:0" cx="1267.88" cy="85.0853" r="2"/>
<circle clip-path="url(#clip172)" style="fill:#009af9; stroke:none; fill-opacity:0" cx="1543.75" cy="546.563" r="2"/>
<circle clip-path="url(#clip172)" style="fill:#009af9; stroke:none; fill-opacity:0" cx="1819.61" cy="1284.93" r="2"/>
<circle clip-path="url(#clip172)" style="fill:#009af9; stroke:none; fill-opacity:0" cx="2095.48" cy="1315.69" r="2"/>
</svg>
