<?xml version="1.0" encoding="utf-8"?>
<svg xmlns="http://www.w3.org/2000/svg" xmlns:xlink="http://www.w3.org/1999/xlink" width="600" height="400" viewBox="0 0 2400 1600">
<defs>
  <clipPath id="clip460">
    <rect x="0" y="0" width="2400" height="1600"/>
  </clipPath>
</defs>
<path clip-path="url(#clip460)" d="M0 1600 L2400 1600 L2400 0 L0 0  Z" fill="#ffffff" fill-rule="evenodd" fill-opacity="1"/>
<defs>
  <clipPath id="clip461">
    <rect x="480" y="0" width="1681" height="1600"/>
  </clipPath>
</defs>
<path clip-path="url(#clip460)" d="M376.784 1384.3 L2352.76 1384.3 L2352.76 47.2441 L376.784 47.2441  Z" fill="#ffffff" fill-rule="evenodd" fill-opacity="1"/>
<defs>
  <clipPath id="clip462">
    <rect x="376" y="47" width="1977" height="1338"/>
  </clipPath>
</defs>
<polyline clip-path="url(#clip460)" style="stroke:#000000; stroke-linecap:round; stroke-linejoin:round; stroke-width:4; stroke-opacity:1; fill:none" points="376.784,1384.3 2352.76,1384.3 "/>
<polyline clip-path="url(#clip460)" style="stroke:#000000; stroke-linecap:round; stroke-linejoin:round; stroke-width:4; stroke-opacity:1; fill:none" points="713.027,1384.3 713.027,1365.4 "/>
<polyline clip-path="url(#clip460)" style="stroke:#000000; stroke-linecap:round; stroke-linejoin:round; stroke-width:4; stroke-opacity:1; fill:none" points="1063.43,1384.3 1063.43,1365.4 "/>
<polyline clip-path="url(#clip460)" style="stroke:#000000; stroke-linecap:round; stroke-linejoin:round; stroke-width:4; stroke-opacity:1; fill:none" points="1413.83,1384.3 1413.83,1365.4 "/>
<polyline clip-path="url(#clip460)" style="stroke:#000000; stroke-linecap:round; stroke-linejoin:round; stroke-width:4; stroke-opacity:1; fill:none" points="1764.23,1384.3 1764.23,1365.4 "/>
<polyline clip-path="url(#clip460)" style="stroke:#000000; stroke-linecap:round; stroke-linejoin:round; stroke-width:4; stroke-opacity:1; fill:none" points="2114.62,1384.3 2114.62,1365.4 "/>
<path clip-path="url(#clip460)" d="M615.947 1472.21 L629.315 1472.21 L629.315 1426.07 L614.772 1428.99 L614.772 1421.54 L629.234 1418.62 L637.417 1418.62 L637.417 1472.21 L650.785 1472.21 L650.785 1479.1 L615.947 1479.1 L615.947 1472.21 Z" fill="#000000" fill-rule="nonzero" fill-opacity="1" /><path clip-path="url(#clip460)" d="M667.556 1477.84 L667.556 1470.39 Q670.634 1471.85 673.794 1472.62 Q676.954 1473.39 679.992 1473.39 Q688.094 1473.39 692.347 1467.96 Q696.641 1462.49 697.249 1451.39 Q694.899 1454.88 691.294 1456.74 Q687.689 1458.6 683.314 1458.6 Q674.24 1458.6 668.933 1453.13 Q663.667 1447.62 663.667 1438.1 Q663.667 1428.79 669.176 1423.16 Q674.685 1417.53 683.84 1417.53 Q694.332 1417.53 699.841 1425.59 Q705.391 1433.61 705.391 1448.92 Q705.391 1463.22 698.586 1471.77 Q691.821 1480.27 680.357 1480.27 Q677.278 1480.27 674.118 1479.67 Q670.958 1479.06 667.556 1477.84 M683.84 1452.2 Q689.35 1452.2 692.55 1448.43 Q695.79 1444.67 695.79 1438.1 Q695.79 1431.58 692.55 1427.82 Q689.35 1424.01 683.84 1424.01 Q678.331 1424.01 675.09 1427.82 Q671.89 1431.58 671.89 1438.1 Q671.89 1444.67 675.09 1448.43 Q678.331 1452.2 683.84 1452.2 Z" fill="#000000" fill-rule="nonzero" fill-opacity="1" /><path clip-path="url(#clip460)" d="M737.596 1424.01 Q731.276 1424.01 728.076 1430.25 Q724.916 1436.44 724.916 1448.92 Q724.916 1461.36 728.076 1467.6 Q731.276 1473.79 737.596 1473.79 Q743.956 1473.79 747.115 1467.6 Q750.316 1461.36 750.316 1448.92 Q750.316 1436.44 747.115 1430.25 Q743.956 1424.01 737.596 1424.01 M737.596 1417.53 Q747.764 1417.53 753.111 1425.59 Q758.498 1433.61 758.498 1448.92 Q758.498 1464.19 753.111 1472.25 Q747.764 1480.27 737.596 1480.27 Q727.428 1480.27 722.04 1472.25 Q716.693 1464.19 716.693 1448.92 Q716.693 1433.61 722.04 1425.59 Q727.428 1417.53 737.596 1417.53 Z" fill="#000000" fill-rule="nonzero" fill-opacity="1" /><path clip-path="url(#clip460)" d="M790.379 1424.01 Q784.06 1424.01 780.859 1430.25 Q777.7 1436.44 777.7 1448.92 Q777.7 1461.36 780.859 1467.6 Q784.06 1473.79 790.379 1473.79 Q796.739 1473.79 799.899 1467.6 Q803.099 1461.36 803.099 1448.92 Q803.099 1436.44 799.899 1430.25 Q796.739 1424.01 790.379 1424.01 M790.379 1417.53 Q800.547 1417.53 805.894 1425.59 Q811.282 1433.61 811.282 1448.92 Q811.282 1464.19 805.894 1472.25 Q800.547 1480.27 790.379 1480.27 Q780.211 1480.27 774.824 1472.25 Q769.476 1464.19 769.476 1448.92 Q769.476 1433.61 774.824 1425.59 Q780.211 1417.53 790.379 1417.53 Z" fill="#000000" fill-rule="nonzero" fill-opacity="1" /><path clip-path="url(#clip460)" d="M967.217 1472.21 L980.585 1472.21 L980.585 1426.07 L966.043 1428.99 L966.043 1421.54 L980.504 1418.62 L988.687 1418.62 L988.687 1472.21 L1002.06 1472.21 L1002.06 1479.1 L967.217 1479.1 L967.217 1472.21 Z" fill="#000000" fill-rule="nonzero" fill-opacity="1" /><path clip-path="url(#clip460)" d="M1018.83 1477.84 L1018.83 1470.39 Q1021.9 1471.85 1025.06 1472.62 Q1028.22 1473.39 1031.26 1473.39 Q1039.36 1473.39 1043.62 1467.96 Q1047.91 1462.49 1048.52 1451.39 Q1046.17 1454.88 1042.56 1456.74 Q1038.96 1458.6 1034.58 1458.6 Q1025.51 1458.6 1020.2 1453.13 Q1014.94 1447.62 1014.94 1438.1 Q1014.94 1428.79 1020.45 1423.16 Q1025.96 1417.53 1035.11 1417.53 Q1045.6 1417.53 1051.11 1425.59 Q1056.66 1433.61 1056.66 1448.92 Q1056.66 1463.22 1049.86 1471.77 Q1043.09 1480.27 1031.63 1480.27 Q1028.55 1480.27 1025.39 1479.67 Q1022.23 1479.06 1018.83 1477.84 M1035.11 1452.2 Q1040.62 1452.2 1043.82 1448.43 Q1047.06 1444.67 1047.06 1438.1 Q1047.06 1431.58 1043.82 1427.82 Q1040.62 1424.01 1035.11 1424.01 Q1029.6 1424.01 1026.36 1427.82 Q1023.16 1431.58 1023.16 1438.1 Q1023.16 1444.67 1026.36 1448.43 Q1029.6 1452.2 1035.11 1452.2 Z" fill="#000000" fill-rule="nonzero" fill-opacity="1" /><path clip-path="url(#clip460)" d="M1078.41 1472.21 L1106.97 1472.21 L1106.97 1479.1 L1068.57 1479.1 L1068.57 1472.21 Q1073.23 1467.39 1081.25 1459.29 Q1089.31 1451.15 1091.38 1448.8 Q1095.31 1444.38 1096.85 1441.35 Q1098.43 1438.27 1098.43 1435.31 Q1098.43 1430.49 1095.02 1427.45 Q1091.66 1424.41 1086.23 1424.41 Q1082.38 1424.41 1078.09 1425.75 Q1073.84 1427.09 1068.98 1429.8 L1068.98 1421.54 Q1073.92 1419.55 1078.21 1418.54 Q1082.51 1417.53 1086.07 1417.53 Q1095.47 1417.53 1101.06 1422.23 Q1106.65 1426.92 1106.65 1434.78 Q1106.65 1438.51 1105.23 1441.87 Q1103.85 1445.19 1100.17 1449.73 Q1099.16 1450.91 1093.73 1456.54 Q1088.3 1462.13 1078.41 1472.21 Z" fill="#000000" fill-rule="nonzero" fill-opacity="1" /><path clip-path="url(#clip460)" d="M1124.23 1418.62 L1156.35 1418.62 L1156.35 1425.51 L1131.72 1425.51 L1131.72 1440.33 Q1133.51 1439.73 1135.29 1439.44 Q1137.07 1439.12 1138.85 1439.12 Q1148.98 1439.12 1154.9 1444.67 Q1160.81 1450.22 1160.81 1459.7 Q1160.81 1469.46 1154.73 1474.89 Q1148.66 1480.27 1137.6 1480.27 Q1133.79 1480.27 1129.82 1479.63 Q1125.89 1478.98 1121.68 1477.68 L1121.68 1469.46 Q1125.32 1471.44 1129.21 1472.42 Q1133.1 1473.39 1137.44 1473.39 Q1144.44 1473.39 1148.54 1469.7 Q1152.63 1466.02 1152.63 1459.7 Q1152.63 1453.38 1148.54 1449.69 Q1144.44 1446 1137.44 1446 Q1134.16 1446 1130.87 1446.73 Q1127.63 1447.46 1124.23 1449 L1124.23 1418.62 Z" fill="#000000" fill-rule="nonzero" fill-opacity="1" /><path clip-path="url(#clip460)" d="M1316.75 1472.21 L1330.11 1472.21 L1330.11 1426.07 L1315.57 1428.99 L1315.57 1421.54 L1330.03 1418.62 L1338.22 1418.62 L1338.22 1472.21 L1351.58 1472.21 L1351.58 1479.1 L1316.75 1479.1 L1316.75 1472.21 Z" fill="#000000" fill-rule="nonzero" fill-opacity="1" /><path clip-path="url(#clip460)" d="M1368.35 1477.84 L1368.35 1470.39 Q1371.43 1471.85 1374.59 1472.62 Q1377.75 1473.39 1380.79 1473.39 Q1388.89 1473.39 1393.15 1467.96 Q1397.44 1462.49 1398.05 1451.39 Q1395.7 1454.88 1392.09 1456.74 Q1388.49 1458.6 1384.11 1458.6 Q1375.04 1458.6 1369.73 1453.13 Q1364.47 1447.62 1364.47 1438.1 Q1364.47 1428.79 1369.97 1423.16 Q1375.48 1417.53 1384.64 1417.53 Q1395.13 1417.53 1400.64 1425.59 Q1406.19 1433.61 1406.19 1448.92 Q1406.19 1463.22 1399.38 1471.77 Q1392.62 1480.27 1381.16 1480.27 Q1378.08 1480.27 1374.92 1479.67 Q1371.76 1479.06 1368.35 1477.84 M1384.64 1452.2 Q1390.15 1452.2 1393.35 1448.43 Q1396.59 1444.67 1396.59 1438.1 Q1396.59 1431.58 1393.35 1427.82 Q1390.15 1424.01 1384.64 1424.01 Q1379.13 1424.01 1375.89 1427.82 Q1372.69 1431.58 1372.69 1438.1 Q1372.69 1444.67 1375.89 1448.43 Q1379.13 1452.2 1384.64 1452.2 Z" fill="#000000" fill-rule="nonzero" fill-opacity="1" /><path clip-path="url(#clip460)" d="M1420.98 1418.62 L1453.1 1418.62 L1453.1 1425.51 L1428.47 1425.51 L1428.47 1440.33 Q1430.25 1439.73 1432.03 1439.44 Q1433.82 1439.12 1435.6 1439.12 Q1445.73 1439.12 1451.64 1444.67 Q1457.56 1450.22 1457.56 1459.7 Q1457.56 1469.46 1451.48 1474.89 Q1445.4 1480.27 1434.34 1480.27 Q1430.54 1480.27 1426.57 1479.63 Q1422.64 1478.98 1418.42 1477.68 L1418.42 1469.46 Q1422.07 1471.44 1425.96 1472.42 Q1429.85 1473.39 1434.18 1473.39 Q1441.19 1473.39 1445.28 1469.7 Q1449.37 1466.02 1449.37 1459.7 Q1449.37 1453.38 1445.28 1449.69 Q1441.19 1446 1434.18 1446 Q1430.9 1446 1427.62 1446.73 Q1424.38 1447.46 1420.98 1449 L1420.98 1418.62 Z" fill="#000000" fill-rule="nonzero" fill-opacity="1" /><path clip-path="url(#clip460)" d="M1491.18 1424.01 Q1484.86 1424.01 1481.66 1430.25 Q1478.5 1436.44 1478.5 1448.92 Q1478.5 1461.36 1481.66 1467.6 Q1484.86 1473.79 1491.18 1473.79 Q1497.54 1473.79 1500.7 1467.6 Q1503.9 1461.36 1503.9 1448.92 Q1503.9 1436.44 1500.7 1430.25 Q1497.54 1424.01 1491.18 1424.01 M1491.18 1417.53 Q1501.35 1417.53 1506.69 1425.59 Q1512.08 1433.61 1512.08 1448.92 Q1512.08 1464.19 1506.69 1472.25 Q1501.35 1480.27 1491.18 1480.27 Q1481.01 1480.27 1475.62 1472.25 Q1470.28 1464.19 1470.28 1448.92 Q1470.28 1433.61 1475.62 1425.59 Q1481.01 1417.53 1491.18 1417.53 Z" fill="#000000" fill-rule="nonzero" fill-opacity="1" /><path clip-path="url(#clip460)" d="M1668.02 1472.21 L1681.38 1472.21 L1681.38 1426.07 L1666.84 1428.99 L1666.84 1421.54 L1681.3 1418.62 L1689.49 1418.62 L1689.49 1472.21 L1702.85 1472.21 L1702.85 1479.1 L1668.02 1479.1 L1668.02 1472.21 Z" fill="#000000" fill-rule="nonzero" fill-opacity="1" /><path clip-path="url(#clip460)" d="M1719.62 1477.84 L1719.62 1470.39 Q1722.7 1471.85 1725.86 1472.62 Q1729.02 1473.39 1732.06 1473.39 Q1740.16 1473.39 1744.42 1467.96 Q1748.71 1462.49 1749.32 1451.39 Q1746.97 1454.88 1743.36 1456.74 Q1739.76 1458.6 1735.38 1458.6 Q1726.31 1458.6 1721 1453.13 Q1715.74 1447.62 1715.74 1438.1 Q1715.74 1428.79 1721.25 1423.16 Q1726.75 1417.53 1735.91 1417.53 Q1746.4 1417.53 1751.91 1425.59 Q1757.46 1433.61 1757.46 1448.92 Q1757.46 1463.22 1750.65 1471.77 Q1743.89 1480.27 1732.43 1480.27 Q1729.35 1480.27 1726.19 1479.67 Q1723.03 1479.06 1719.62 1477.84 M1735.91 1452.2 Q1741.42 1452.2 1744.62 1448.43 Q1747.86 1444.67 1747.86 1438.1 Q1747.86 1431.58 1744.62 1427.82 Q1741.42 1424.01 1735.91 1424.01 Q1730.4 1424.01 1727.16 1427.82 Q1723.96 1431.58 1723.96 1438.1 Q1723.96 1444.67 1727.16 1448.43 Q1730.4 1452.2 1735.91 1452.2 Z" fill="#000000" fill-rule="nonzero" fill-opacity="1" /><path clip-path="url(#clip460)" d="M1770.1 1418.62 L1808.99 1418.62 L1808.99 1422.1 L1787.03 1479.1 L1778.48 1479.1 L1799.14 1425.51 L1770.1 1425.51 L1770.1 1418.62 Z" fill="#000000" fill-rule="nonzero" fill-opacity="1" /><path clip-path="url(#clip460)" d="M1825.03 1418.62 L1857.15 1418.62 L1857.15 1425.51 L1832.52 1425.51 L1832.52 1440.33 Q1834.31 1439.73 1836.09 1439.44 Q1837.87 1439.12 1839.65 1439.12 Q1849.78 1439.12 1855.69 1444.67 Q1861.61 1450.22 1861.61 1459.7 Q1861.61 1469.46 1855.53 1474.89 Q1849.46 1480.27 1838.4 1480.27 Q1834.59 1480.27 1830.62 1479.63 Q1826.69 1478.98 1822.48 1477.68 L1822.48 1469.46 Q1826.12 1471.44 1830.01 1472.42 Q1833.9 1473.39 1838.24 1473.39 Q1845.24 1473.39 1849.33 1469.7 Q1853.43 1466.02 1853.43 1459.7 Q1853.43 1453.38 1849.33 1449.69 Q1845.24 1446 1838.24 1446 Q1834.95 1446 1831.67 1446.73 Q1828.43 1447.46 1825.03 1449 L1825.03 1418.62 Z" fill="#000000" fill-rule="nonzero" fill-opacity="1" /><path clip-path="url(#clip460)" d="M2024.69 1472.21 L2053.25 1472.21 L2053.25 1479.1 L2014.85 1479.1 L2014.85 1472.21 Q2019.51 1467.39 2027.53 1459.29 Q2035.59 1451.15 2037.66 1448.8 Q2041.59 1444.38 2043.13 1441.35 Q2044.71 1438.27 2044.71 1435.31 Q2044.71 1430.49 2041.3 1427.45 Q2037.94 1424.41 2032.51 1424.41 Q2028.66 1424.41 2024.37 1425.75 Q2020.12 1427.09 2015.26 1429.8 L2015.26 1421.54 Q2020.2 1419.55 2024.49 1418.54 Q2028.79 1417.53 2032.35 1417.53 Q2041.75 1417.53 2047.34 1422.23 Q2052.93 1426.92 2052.93 1434.78 Q2052.93 1438.51 2051.51 1441.87 Q2050.13 1445.19 2046.45 1449.73 Q2045.44 1450.91 2040.01 1456.54 Q2034.58 1462.13 2024.69 1472.21 Z" fill="#000000" fill-rule="nonzero" fill-opacity="1" /><path clip-path="url(#clip460)" d="M2087.93 1424.01 Q2081.61 1424.01 2078.41 1430.25 Q2075.25 1436.44 2075.25 1448.92 Q2075.25 1461.36 2078.41 1467.6 Q2081.61 1473.79 2087.93 1473.79 Q2094.29 1473.79 2097.45 1467.6 Q2100.65 1461.36 2100.65 1448.92 Q2100.65 1436.44 2097.45 1430.25 Q2094.29 1424.01 2087.93 1424.01 M2087.93 1417.53 Q2098.1 1417.53 2103.44 1425.59 Q2108.83 1433.61 2108.83 1448.92 Q2108.83 1464.19 2103.44 1472.25 Q2098.1 1480.27 2087.93 1480.27 Q2077.76 1480.27 2072.37 1472.25 Q2067.03 1464.19 2067.03 1448.92 Q2067.03 1433.61 2072.37 1425.59 Q2077.76 1417.53 2087.93 1417.53 Z" fill="#000000" fill-rule="nonzero" fill-opacity="1" /><path clip-path="url(#clip460)" d="M2140.71 1424.01 Q2134.39 1424.01 2131.19 1430.25 Q2128.03 1436.44 2128.03 1448.92 Q2128.03 1461.36 2131.19 1467.6 Q2134.39 1473.79 2140.71 1473.79 Q2147.07 1473.79 2150.23 1467.6 Q2153.43 1461.36 2153.43 1448.92 Q2153.43 1436.44 2150.23 1430.25 Q2147.07 1424.01 2140.71 1424.01 M2140.71 1417.53 Q2150.88 1417.53 2156.23 1425.59 Q2161.61 1433.61 2161.61 1448.92 Q2161.61 1464.19 2156.23 1472.25 Q2150.88 1480.27 2140.71 1480.27 Q2130.54 1480.27 2125.16 1472.25 Q2119.81 1464.19 2119.81 1448.92 Q2119.81 1433.61 2125.16 1425.59 Q2130.54 1417.53 2140.71 1417.53 Z" fill="#000000" fill-rule="nonzero" fill-opacity="1" /><path clip-path="url(#clip460)" d="M2193.5 1424.01 Q2187.18 1424.01 2183.98 1430.25 Q2180.82 1436.44 2180.82 1448.92 Q2180.82 1461.36 2183.98 1467.6 Q2187.18 1473.79 2193.5 1473.79 Q2199.86 1473.79 2203.02 1467.6 Q2206.22 1461.36 2206.22 1448.92 Q2206.22 1436.44 2203.02 1430.25 Q2199.86 1424.01 2193.5 1424.01 M2193.5 1417.53 Q2203.66 1417.53 2209.01 1425.59 Q2214.4 1433.61 2214.4 1448.92 Q2214.4 1464.19 2209.01 1472.25 Q2203.66 1480.27 2193.5 1480.27 Q2183.33 1480.27 2177.94 1472.25 Q2172.59 1464.19 2172.59 1448.92 Q2172.59 1433.61 2177.94 1425.59 Q2183.33 1417.53 2193.5 1417.53 Z" fill="#000000" fill-rule="nonzero" fill-opacity="1" /><path clip-path="url(#clip460)" d="M1276.87 1523.12 L1285.66 1523.12 L1302.43 1547.99 L1319.08 1523.12 L1327.87 1523.12 L1306.48 1554.79 L1306.48 1583.6 L1298.25 1583.6 L1298.25 1554.79 L1276.87 1523.12 Z" fill="#000000" fill-rule="nonzero" fill-opacity="1" /><path clip-path="url(#clip460)" d="M1363.31 1559.05 L1363.31 1562.69 L1329.04 1562.69 Q1329.53 1570.39 1333.66 1574.44 Q1337.83 1578.45 1345.24 1578.45 Q1349.54 1578.45 1353.55 1577.4 Q1357.6 1576.34 1361.57 1574.24 L1361.57 1581.29 Q1357.56 1582.99 1353.35 1583.88 Q1349.13 1584.77 1344.8 1584.77 Q1333.94 1584.77 1327.58 1578.45 Q1321.26 1572.13 1321.26 1561.36 Q1321.26 1550.22 1327.26 1543.69 Q1333.29 1537.13 1343.5 1537.13 Q1352.66 1537.13 1357.96 1543.05 Q1363.31 1548.92 1363.31 1559.05 M1355.86 1556.86 Q1355.78 1550.74 1352.41 1547.1 Q1349.09 1543.45 1343.58 1543.45 Q1337.35 1543.45 1333.58 1546.98 Q1329.85 1550.5 1329.28 1556.9 L1355.86 1556.86 Z" fill="#000000" fill-rule="nonzero" fill-opacity="1" /><path clip-path="url(#clip460)" d="M1396.16 1560.79 Q1387.13 1560.79 1383.65 1562.86 Q1380.16 1564.92 1380.16 1569.9 Q1380.16 1573.87 1382.76 1576.22 Q1385.39 1578.53 1389.89 1578.53 Q1396.08 1578.53 1399.81 1574.16 Q1403.58 1569.74 1403.58 1562.45 L1403.58 1560.79 L1396.16 1560.79 M1411.03 1557.71 L1411.03 1583.6 L1403.58 1583.6 L1403.58 1576.71 Q1401.03 1580.84 1397.22 1582.83 Q1393.41 1584.77 1387.9 1584.77 Q1380.93 1584.77 1376.8 1580.88 Q1372.71 1576.95 1372.71 1570.39 Q1372.71 1562.73 1377.81 1558.84 Q1382.96 1554.96 1393.13 1554.96 L1403.58 1554.96 L1403.58 1554.23 Q1403.58 1549.08 1400.17 1546.29 Q1396.81 1543.45 1390.7 1543.45 Q1386.81 1543.45 1383.12 1544.38 Q1379.43 1545.31 1376.03 1547.18 L1376.03 1540.29 Q1380.12 1538.71 1383.97 1537.94 Q1387.82 1537.13 1391.47 1537.13 Q1401.31 1537.13 1406.17 1542.24 Q1411.03 1547.34 1411.03 1557.71 Z" fill="#000000" fill-rule="nonzero" fill-opacity="1" /><path clip-path="url(#clip460)" d="M1452.67 1545.19 Q1451.42 1544.46 1449.92 1544.14 Q1448.46 1543.78 1446.68 1543.78 Q1440.36 1543.78 1436.96 1547.91 Q1433.59 1552 1433.59 1559.7 L1433.59 1583.6 L1426.1 1583.6 L1426.1 1538.23 L1433.59 1538.23 L1433.59 1545.27 Q1435.94 1541.14 1439.71 1539.16 Q1443.48 1537.13 1448.87 1537.13 Q1449.64 1537.13 1450.57 1537.25 Q1451.5 1537.33 1452.63 1537.54 L1452.67 1545.19 Z" fill="#000000" fill-rule="nonzero" fill-opacity="1" /><polyline clip-path="url(#clip460)" style="stroke:#000000; stroke-linecap:round; stroke-linejoin:round; stroke-width:4; stroke-opacity:1; fill:none" points="376.784,1384.3 376.784,47.2441 "/>
<polyline clip-path="url(#clip460)" style="stroke:#000000; stroke-linecap:round; stroke-linejoin:round; stroke-width:4; stroke-opacity:1; fill:none" points="376.784,1245.43 395.681,1245.43 "/>
<polyline clip-path="url(#clip460)" style="stroke:#000000; stroke-linecap:round; stroke-linejoin:round; stroke-width:4; stroke-opacity:1; fill:none" points="376.784,991.601 395.681,991.601 "/>
<polyline clip-path="url(#clip460)" style="stroke:#000000; stroke-linecap:round; stroke-linejoin:round; stroke-width:4; stroke-opacity:1; fill:none" points="376.784,737.775 395.681,737.775 "/>
<polyline clip-path="url(#clip460)" style="stroke:#000000; stroke-linecap:round; stroke-linejoin:round; stroke-width:4; stroke-opacity:1; fill:none" points="376.784,483.949 395.681,483.949 "/>
<polyline clip-path="url(#clip460)" style="stroke:#000000; stroke-linecap:round; stroke-linejoin:round; stroke-width:4; stroke-opacity:1; fill:none" points="376.784,230.123 395.681,230.123 "/>
<path clip-path="url(#clip460)" d="M127.22 1246.22 L179.153 1246.22 L179.153 1253.1 L127.22 1253.1 L127.22 1246.22 Z" fill="#000000" fill-rule="nonzero" fill-opacity="1" /><path clip-path="url(#clip460)" d="M198.233 1268.78 L211.6 1268.78 L211.6 1222.64 L197.058 1225.56 L197.058 1218.1 L211.519 1215.19 L219.702 1215.19 L219.702 1268.78 L233.07 1268.78 L233.07 1275.67 L198.233 1275.67 L198.233 1268.78 Z" fill="#000000" fill-rule="nonzero" fill-opacity="1" /><path clip-path="url(#clip460)" d="M249.679 1215.19 L281.803 1215.19 L281.803 1222.07 L257.173 1222.07 L257.173 1236.9 Q258.956 1236.29 260.738 1236.01 Q262.52 1235.68 264.303 1235.68 Q274.43 1235.68 280.344 1241.23 Q286.259 1246.78 286.259 1256.26 Q286.259 1266.03 280.182 1271.45 Q274.106 1276.84 263.047 1276.84 Q259.239 1276.84 255.269 1276.19 Q251.34 1275.54 247.127 1274.25 L247.127 1266.03 Q250.773 1268.01 254.662 1268.98 Q258.55 1269.95 262.885 1269.95 Q269.893 1269.95 273.984 1266.27 Q278.076 1262.58 278.076 1256.26 Q278.076 1249.94 273.984 1246.26 Q269.893 1242.57 262.885 1242.57 Q259.604 1242.57 256.322 1243.3 Q253.082 1244.03 249.679 1245.57 L249.679 1215.19 Z" fill="#000000" fill-rule="nonzero" fill-opacity="1" /><path clip-path="url(#clip460)" d="M319.881 1220.57 Q313.562 1220.57 310.362 1226.81 Q307.202 1233.01 307.202 1245.49 Q307.202 1257.92 310.362 1264.16 Q313.562 1270.36 319.881 1270.36 Q326.241 1270.36 329.401 1264.16 Q332.601 1257.92 332.601 1245.49 Q332.601 1233.01 329.401 1226.81 Q326.241 1220.57 319.881 1220.57 M319.881 1214.09 Q330.049 1214.09 335.396 1222.15 Q340.784 1230.17 340.784 1245.49 Q340.784 1260.76 335.396 1268.82 Q330.049 1276.84 319.881 1276.84 Q309.713 1276.84 304.326 1268.82 Q298.978 1260.76 298.978 1245.49 Q298.978 1230.17 304.326 1222.15 Q309.713 1214.09 319.881 1214.09 Z" fill="#000000" fill-rule="nonzero" fill-opacity="1" /><path clip-path="url(#clip460)" d="M127.22 992.39 L179.153 992.39 L179.153 999.277 L127.22 999.277 L127.22 992.39 Z" fill="#000000" fill-rule="nonzero" fill-opacity="1" /><path clip-path="url(#clip460)" d="M198.233 1014.95 L211.6 1014.95 L211.6 968.814 L197.058 971.731 L197.058 964.277 L211.519 961.361 L219.702 961.361 L219.702 1014.95 L233.07 1014.95 L233.07 1021.84 L198.233 1021.84 L198.233 1014.95 Z" fill="#000000" fill-rule="nonzero" fill-opacity="1" /><path clip-path="url(#clip460)" d="M267.098 966.748 Q260.778 966.748 257.578 972.987 Q254.419 979.184 254.419 991.661 Q254.419 1004.1 257.578 1010.34 Q260.778 1016.53 267.098 1016.53 Q273.458 1016.53 276.618 1010.34 Q279.818 1004.1 279.818 991.661 Q279.818 979.184 276.618 972.987 Q273.458 966.748 267.098 966.748 M267.098 960.267 Q277.266 960.267 282.613 968.328 Q288.001 976.349 288.001 991.661 Q288.001 1006.93 282.613 1014.99 Q277.266 1023.02 267.098 1023.02 Q256.93 1023.02 251.542 1014.99 Q246.195 1006.93 246.195 991.661 Q246.195 976.349 251.542 968.328 Q256.93 960.267 267.098 960.267 Z" fill="#000000" fill-rule="nonzero" fill-opacity="1" /><path clip-path="url(#clip460)" d="M319.881 966.748 Q313.562 966.748 310.362 972.987 Q307.202 979.184 307.202 991.661 Q307.202 1004.1 310.362 1010.34 Q313.562 1016.53 319.881 1016.53 Q326.241 1016.53 329.401 1010.34 Q332.601 1004.1 332.601 991.661 Q332.601 979.184 329.401 972.987 Q326.241 966.748 319.881 966.748 M319.881 960.267 Q330.049 960.267 335.396 968.328 Q340.784 976.349 340.784 991.661 Q340.784 1006.93 335.396 1014.99 Q330.049 1023.02 319.881 1023.02 Q309.713 1023.02 304.326 1014.99 Q298.978 1006.93 298.978 991.661 Q298.978 976.349 304.326 968.328 Q309.713 960.267 319.881 960.267 Z" fill="#000000" fill-rule="nonzero" fill-opacity="1" /><path clip-path="url(#clip460)" d="M180.003 738.565 L231.936 738.565 L231.936 745.451 L180.003 745.451 L180.003 738.565 Z" fill="#000000" fill-rule="nonzero" fill-opacity="1" /><path clip-path="url(#clip460)" d="M249.679 707.535 L281.803 707.535 L281.803 714.421 L257.173 714.421 L257.173 729.247 Q258.956 728.64 260.738 728.356 Q262.52 728.032 264.303 728.032 Q274.43 728.032 280.344 733.582 Q286.259 739.132 286.259 748.611 Q286.259 758.373 280.182 763.802 Q274.106 769.189 263.047 769.189 Q259.239 769.189 255.269 768.541 Q251.34 767.893 247.127 766.597 L247.127 758.373 Q250.773 760.358 254.662 761.331 Q258.55 762.303 262.885 762.303 Q269.893 762.303 273.984 758.617 Q278.076 754.93 278.076 748.611 Q278.076 742.291 273.984 738.605 Q269.893 734.919 262.885 734.919 Q259.604 734.919 256.322 735.648 Q253.082 736.377 249.679 737.916 L249.679 707.535 Z" fill="#000000" fill-rule="nonzero" fill-opacity="1" /><path clip-path="url(#clip460)" d="M319.881 712.922 Q313.562 712.922 310.362 719.161 Q307.202 725.359 307.202 737.835 Q307.202 750.272 310.362 756.51 Q313.562 762.708 319.881 762.708 Q326.241 762.708 329.401 756.51 Q332.601 750.272 332.601 737.835 Q332.601 725.359 329.401 719.161 Q326.241 712.922 319.881 712.922 M319.881 706.441 Q330.049 706.441 335.396 714.502 Q340.784 722.523 340.784 737.835 Q340.784 753.107 335.396 761.169 Q330.049 769.189 319.881 769.189 Q309.713 769.189 304.326 761.169 Q298.978 753.107 298.978 737.835 Q298.978 722.523 304.326 714.502 Q309.713 706.441 319.881 706.441 Z" fill="#000000" fill-rule="nonzero" fill-opacity="1" /><path clip-path="url(#clip460)" d="M319.881 459.096 Q313.562 459.096 310.362 465.335 Q307.202 471.533 307.202 484.01 Q307.202 496.446 310.362 502.684 Q313.562 508.882 319.881 508.882 Q326.241 508.882 329.401 502.684 Q332.601 496.446 332.601 484.01 Q332.601 471.533 329.401 465.335 Q326.241 459.096 319.881 459.096 M319.881 452.615 Q330.049 452.615 335.396 460.676 Q340.784 468.697 340.784 484.01 Q340.784 499.281 335.396 507.343 Q330.049 515.364 319.881 515.364 Q309.713 515.364 304.326 507.343 Q298.978 499.281 298.978 484.01 Q298.978 468.697 304.326 460.676 Q309.713 452.615 319.881 452.615 Z" fill="#000000" fill-rule="nonzero" fill-opacity="1" /><path clip-path="url(#clip460)" d="M249.679 199.883 L281.803 199.883 L281.803 206.769 L257.173 206.769 L257.173 221.596 Q258.956 220.988 260.738 220.705 Q262.52 220.381 264.303 220.381 Q274.43 220.381 280.344 225.93 Q286.259 231.48 286.259 240.959 Q286.259 250.722 280.182 256.15 Q274.106 261.538 263.047 261.538 Q259.239 261.538 255.269 260.89 Q251.34 260.241 247.127 258.945 L247.127 250.722 Q250.773 252.707 254.662 253.679 Q258.55 254.651 262.885 254.651 Q269.893 254.651 273.984 250.965 Q278.076 247.279 278.076 240.959 Q278.076 234.64 273.984 230.953 Q269.893 227.267 262.885 227.267 Q259.604 227.267 256.322 227.996 Q253.082 228.725 249.679 230.265 L249.679 199.883 Z" fill="#000000" fill-rule="nonzero" fill-opacity="1" /><path clip-path="url(#clip460)" d="M319.881 205.271 Q313.562 205.271 310.362 211.509 Q307.202 217.707 307.202 230.184 Q307.202 242.62 310.362 248.858 Q313.562 255.056 319.881 255.056 Q326.241 255.056 329.401 248.858 Q332.601 242.62 332.601 230.184 Q332.601 217.707 329.401 211.509 Q326.241 205.271 319.881 205.271 M319.881 198.789 Q330.049 198.789 335.396 206.85 Q340.784 214.871 340.784 230.184 Q340.784 245.456 335.396 253.517 Q330.049 261.538 319.881 261.538 Q309.713 261.538 304.326 253.517 Q298.978 245.456 298.978 230.184 Q298.978 214.871 304.326 206.85 Q309.713 198.789 319.881 198.789 Z" fill="#000000" fill-rule="nonzero" fill-opacity="1" /><path clip-path="url(#clip460)" d="M14.5811 1192 L22.5614 1192 Q20.3334 1196.65 19.2396 1200.79 Q18.1459 1204.92 18.1459 1208.77 Q18.1459 1215.45 20.7385 1219.1 Q23.3311 1222.7 28.1111 1222.7 Q32.1215 1222.7 34.1875 1220.31 Q36.2129 1217.88 37.4687 1211.16 L38.4814 1206.21 Q40.2233 1197.06 44.6388 1192.73 Q49.0138 1188.35 56.3864 1188.35 Q65.1769 1188.35 69.7139 1194.26 Q74.2509 1200.14 74.2509 1211.52 Q74.2509 1215.82 73.2787 1220.68 Q72.3065 1225.5 70.4026 1230.68 L61.9767 1230.68 Q64.7718 1225.7 66.1896 1220.92 Q67.6074 1216.14 67.6074 1211.52 Q67.6074 1204.51 64.8528 1200.71 Q62.0982 1196.9 56.9941 1196.9 Q52.5381 1196.9 50.0265 1199.65 Q47.515 1202.37 46.2592 1208.6 L45.287 1213.59 Q43.464 1222.74 39.5752 1226.83 Q35.6863 1230.93 28.7593 1230.93 Q20.7385 1230.93 16.1204 1225.29 Q11.5024 1219.62 11.5024 1209.7 Q11.5024 1205.45 12.2721 1201.03 Q13.0418 1196.61 14.5811 1192 Z" fill="#000000" fill-rule="nonzero" fill-opacity="1" /><path clip-path="url(#clip460)" d="M48.5277 1137.11 L52.1735 1137.11 L52.1735 1171.38 Q59.8702 1170.89 63.9211 1166.76 Q67.9315 1162.59 67.9315 1155.17 Q67.9315 1150.88 66.8783 1146.87 Q65.825 1142.82 63.7186 1138.85 L70.7671 1138.85 Q72.4685 1142.86 73.3597 1147.07 Q74.2509 1151.28 74.2509 1155.62 Q74.2509 1166.48 67.9315 1172.84 Q61.6121 1179.15 50.8367 1179.15 Q39.6967 1179.15 33.1748 1173.16 Q26.6123 1167.12 26.6123 1156.92 Q26.6123 1147.76 32.5266 1142.45 Q38.4004 1137.11 48.5277 1137.11 M46.3402 1144.56 Q40.2233 1144.64 36.5775 1148 Q32.9317 1151.33 32.9317 1156.83 Q32.9317 1163.07 36.456 1166.84 Q39.9803 1170.57 46.3807 1171.13 L46.3402 1144.56 Z" fill="#000000" fill-rule="nonzero" fill-opacity="1" /><path clip-path="url(#clip460)" d="M50.2696 1104.25 Q50.2696 1113.29 52.3355 1116.77 Q54.4015 1120.25 59.3841 1120.25 Q63.354 1120.25 65.7035 1117.66 Q68.0125 1115.03 68.0125 1110.53 Q68.0125 1104.33 63.6376 1100.61 Q59.2221 1096.84 51.9304 1096.84 L50.2696 1096.84 L50.2696 1104.25 M47.1909 1089.39 L73.0762 1089.39 L73.0762 1096.84 L66.1896 1096.84 Q70.3215 1099.39 72.3065 1103.2 Q74.2509 1107.01 74.2509 1112.52 Q74.2509 1119.49 70.3621 1123.62 Q66.4327 1127.71 59.8702 1127.71 Q52.214 1127.71 48.3251 1122.6 Q44.4363 1117.46 44.4363 1107.29 L44.4363 1096.84 L43.7071 1096.84 Q38.5625 1096.84 35.7673 1100.24 Q32.9317 1103.61 32.9317 1109.72 Q32.9317 1113.61 33.8634 1117.3 Q34.7951 1120.98 36.6585 1124.39 L29.772 1124.39 Q28.1921 1120.3 27.4225 1116.45 Q26.6123 1112.6 26.6123 1108.95 Q26.6123 1099.11 31.7164 1094.25 Q36.8206 1089.39 47.1909 1089.39 Z" fill="#000000" fill-rule="nonzero" fill-opacity="1" /><path clip-path="url(#clip460)" d="M12.5962 1047.34 L12.5962 1039.16 L66.1896 1039.16 L66.1896 1009.71 L73.0762 1009.71 L73.0762 1047.34 L12.5962 1047.34 Z" fill="#000000" fill-rule="nonzero" fill-opacity="1" /><path clip-path="url(#clip460)" d="M48.5277 964.092 L52.1735 964.092 L52.1735 998.363 Q59.8702 997.877 63.9211 993.745 Q67.9315 989.573 67.9315 982.159 Q67.9315 977.865 66.8783 973.855 Q65.825 969.804 63.7186 965.834 L70.7671 965.834 Q72.4685 969.845 73.3597 974.058 Q74.2509 978.271 74.2509 982.605 Q74.2509 993.461 67.9315 999.821 Q61.6121 1006.14 50.8367 1006.14 Q39.6967 1006.14 33.1748 1000.15 Q26.6123 994.11 26.6123 983.901 Q26.6123 974.746 32.5266 969.44 Q38.4004 964.092 48.5277 964.092 M46.3402 971.546 Q40.2233 971.627 36.5775 974.989 Q32.9317 978.311 32.9317 983.82 Q32.9317 990.059 36.456 993.826 Q39.9803 997.553 46.3807 998.12 L46.3402 971.546 Z" fill="#000000" fill-rule="nonzero" fill-opacity="1" /><path clip-path="url(#clip460)" d="M27.706 957.206 L27.706 949.307 L65.7845 935.128 L27.706 920.95 L27.706 913.051 L73.0762 930.065 L73.0762 940.192 L27.706 957.206 Z" fill="#000000" fill-rule="nonzero" fill-opacity="1" /><path clip-path="url(#clip460)" d="M48.5277 863.954 L52.1735 863.954 L52.1735 898.225 Q59.8702 897.739 63.9211 893.607 Q67.9315 889.434 67.9315 882.021 Q67.9315 877.727 66.8783 873.717 Q65.825 869.666 63.7186 865.696 L70.7671 865.696 Q72.4685 869.706 73.3597 873.919 Q74.2509 878.132 74.2509 882.467 Q74.2509 893.323 67.9315 899.683 Q61.6121 906.002 50.8367 906.002 Q39.6967 906.002 33.1748 900.007 Q26.6123 893.971 26.6123 883.763 Q26.6123 874.608 32.5266 869.301 Q38.4004 863.954 48.5277 863.954 M46.3402 871.408 Q40.2233 871.489 36.5775 874.851 Q32.9317 878.173 32.9317 883.682 Q32.9317 889.92 36.456 893.688 Q39.9803 897.415 46.3807 897.982 L46.3402 871.408 Z" fill="#000000" fill-rule="nonzero" fill-opacity="1" /><path clip-path="url(#clip460)" d="M10.0441 851.72 L10.0441 844.267 L73.0762 844.267 L73.0762 851.72 L10.0441 851.72 Z" fill="#000000" fill-rule="nonzero" fill-opacity="1" /><path clip-path="url(#clip460)" d="M20.6575 781.761 L50.7557 792.861 L50.7557 770.621 L20.6575 781.761 M12.5962 786.379 L12.5962 777.103 L73.0762 754.053 L73.0762 762.56 L57.5612 768.069 L57.5612 795.332 L73.0762 800.841 L73.0762 809.469 L12.5962 786.379 Z" fill="#000000" fill-rule="nonzero" fill-opacity="1" /><path clip-path="url(#clip460)" d="M45.692 707.832 L73.0762 707.832 L73.0762 715.286 L45.9351 715.286 Q39.4942 715.286 36.2939 717.797 Q33.0937 720.309 33.0937 725.332 Q33.0937 731.368 36.9421 734.852 Q40.7905 738.336 47.4339 738.336 L73.0762 738.336 L73.0762 745.83 L27.706 745.83 L27.706 738.336 L34.7546 738.336 Q30.6632 735.662 28.6377 732.057 Q26.6123 728.411 26.6123 723.671 Q26.6123 715.853 31.4734 711.843 Q36.2939 707.832 45.692 707.832 Z" fill="#000000" fill-rule="nonzero" fill-opacity="1" /><path clip-path="url(#clip460)" d="M32.9317 675.384 Q32.9317 681.38 37.6307 684.864 Q42.2893 688.347 50.4316 688.347 Q58.5739 688.347 63.273 684.904 Q67.9315 681.42 67.9315 675.384 Q67.9315 669.43 63.2325 665.946 Q58.5334 662.462 50.4316 662.462 Q42.3703 662.462 37.6713 665.946 Q32.9317 669.43 32.9317 675.384 M26.6123 675.384 Q26.6123 665.662 32.9317 660.113 Q39.2511 654.563 50.4316 654.563 Q61.5716 654.563 67.9315 660.113 Q74.2509 665.662 74.2509 675.384 Q74.2509 685.147 67.9315 690.697 Q61.5716 696.206 50.4316 696.206 Q39.2511 696.206 32.9317 690.697 Q26.6123 685.147 26.6123 675.384 Z" fill="#000000" fill-rule="nonzero" fill-opacity="1" /><path clip-path="url(#clip460)" d="M36.4155 606.884 Q31.3924 604.089 29.0023 600.2 Q26.6123 596.311 26.6123 591.045 Q26.6123 583.956 31.5949 580.107 Q36.537 576.259 45.692 576.259 L73.0762 576.259 L73.0762 583.753 L45.9351 583.753 Q39.4131 583.753 36.2534 586.062 Q33.0937 588.371 33.0937 593.111 Q33.0937 598.903 36.9421 602.266 Q40.7905 605.628 47.4339 605.628 L73.0762 605.628 L73.0762 613.122 L45.9351 613.122 Q39.3726 613.122 36.2534 615.431 Q33.0937 617.74 33.0937 622.561 Q33.0937 628.272 36.9826 631.635 Q40.831 634.997 47.4339 634.997 L73.0762 634.997 L73.0762 642.491 L27.706 642.491 L27.706 634.997 L34.7546 634.997 Q30.5822 632.445 28.5972 628.88 Q26.6123 625.315 26.6123 620.414 Q26.6123 615.472 29.1238 612.028 Q31.6354 608.545 36.4155 606.884 Z" fill="#000000" fill-rule="nonzero" fill-opacity="1" /><path clip-path="url(#clip460)" d="M50.2696 540.773 Q50.2696 549.806 52.3355 553.29 Q54.4015 556.774 59.3841 556.774 Q63.354 556.774 65.7035 554.181 Q68.0125 551.548 68.0125 547.052 Q68.0125 540.854 63.6376 537.127 Q59.2221 533.36 51.9304 533.36 L50.2696 533.36 L50.2696 540.773 M47.1909 525.906 L73.0762 525.906 L73.0762 533.36 L66.1896 533.36 Q70.3215 535.912 72.3065 539.72 Q74.2509 543.528 74.2509 549.037 Q74.2509 556.004 70.3621 560.136 Q66.4327 564.228 59.8702 564.228 Q52.214 564.228 48.3251 559.124 Q44.4363 553.979 44.4363 543.811 L44.4363 533.36 L43.7071 533.36 Q38.5625 533.36 35.7673 536.763 Q32.9317 540.125 32.9317 546.242 Q32.9317 550.13 33.8634 553.817 Q34.7951 557.503 36.6585 560.906 L29.772 560.906 Q28.1921 556.814 27.4225 552.966 Q26.6123 549.118 26.6123 545.472 Q26.6123 535.628 31.7164 530.767 Q36.8206 525.906 47.1909 525.906 Z" fill="#000000" fill-rule="nonzero" fill-opacity="1" /><path clip-path="url(#clip460)" d="M10.0441 510.553 L10.0441 503.099 L73.0762 503.099 L73.0762 510.553 L10.0441 510.553 Z" fill="#000000" fill-rule="nonzero" fill-opacity="1" /><path clip-path="url(#clip460)" d="M77.2891 468.626 Q85.3909 471.786 87.862 474.784 Q90.333 477.781 90.333 482.804 L90.333 488.759 L84.0946 488.759 L84.0946 484.384 Q84.0946 481.306 82.6363 479.604 Q81.178 477.903 75.7498 475.837 L72.347 474.5 L27.706 492.851 L27.706 484.951 L63.192 470.773 L27.706 456.595 L27.706 448.696 L77.2891 468.626 Z" fill="#000000" fill-rule="nonzero" fill-opacity="1" /><path clip-path="url(#clip460)" d="M10.1251 394.13 Q19.4422 399.558 28.5567 402.191 Q37.6713 404.825 47.0288 404.825 Q56.3864 404.825 65.582 402.191 Q74.737 399.518 84.0136 394.13 L84.0136 400.612 Q74.494 406.688 65.2984 409.726 Q56.1029 412.724 47.0288 412.724 Q37.9953 412.724 28.8403 409.726 Q19.6852 406.728 10.1251 400.612 L10.1251 394.13 Z" fill="#000000" fill-rule="nonzero" fill-opacity="1" /><path clip-path="url(#clip460)" d="M36.4155 344.345 Q31.3924 341.549 29.0023 337.661 Q26.6123 333.772 26.6123 328.506 Q26.6123 321.416 31.5949 317.568 Q36.537 313.72 45.692 313.72 L73.0762 313.72 L73.0762 321.214 L45.9351 321.214 Q39.4131 321.214 36.2534 323.523 Q33.0937 325.832 33.0937 330.571 Q33.0937 336.364 36.9421 339.727 Q40.7905 343.089 47.4339 343.089 L73.0762 343.089 L73.0762 350.583 L45.9351 350.583 Q39.3726 350.583 36.2534 352.892 Q33.0937 355.201 33.0937 360.022 Q33.0937 365.733 36.9826 369.096 Q40.831 372.458 47.4339 372.458 L73.0762 372.458 L73.0762 379.952 L27.706 379.952 L27.706 372.458 L34.7546 372.458 Q30.5822 369.906 28.5972 366.341 Q26.6123 362.776 26.6123 357.875 Q26.6123 352.932 29.1238 349.489 Q31.6354 346.005 36.4155 344.345 Z" fill="#000000" fill-rule="nonzero" fill-opacity="1" /><path clip-path="url(#clip460)" d="M36.4155 263.529 Q31.3924 260.734 29.0023 256.845 Q26.6123 252.956 26.6123 247.69 Q26.6123 240.601 31.5949 236.753 Q36.537 232.904 45.692 232.904 L73.0762 232.904 L73.0762 240.398 L45.9351 240.398 Q39.4131 240.398 36.2534 242.707 Q33.0937 245.016 33.0937 249.756 Q33.0937 255.549 36.9421 258.911 Q40.7905 262.273 47.4339 262.273 L73.0762 262.273 L73.0762 269.767 L45.9351 269.767 Q39.3726 269.767 36.2534 272.076 Q33.0937 274.385 33.0937 279.206 Q33.0937 284.918 36.9826 288.28 Q40.831 291.642 47.4339 291.642 L73.0762 291.642 L73.0762 299.136 L27.706 299.136 L27.706 291.642 L34.7546 291.642 Q30.5822 289.09 28.5972 285.525 Q26.6123 281.961 26.6123 277.059 Q26.6123 272.117 29.1238 268.674 Q31.6354 265.19 36.4155 263.529 Z" fill="#000000" fill-rule="nonzero" fill-opacity="1" /><path clip-path="url(#clip460)" d="M10.1251 219.212 L10.1251 212.731 Q19.6852 206.654 28.8403 203.657 Q37.9953 200.618 47.0288 200.618 Q56.1029 200.618 65.2984 203.657 Q74.494 206.654 84.0136 212.731 L84.0136 219.212 Q74.737 213.824 65.582 211.191 Q56.3864 208.518 47.0288 208.518 Q37.6713 208.518 28.5567 211.191 Q19.4422 213.824 10.1251 219.212 Z" fill="#000000" fill-rule="nonzero" fill-opacity="1" /><polyline clip-path="url(#clip462)" style="stroke:#ff0000; stroke-linecap:round; stroke-linejoin:round; stroke-width:12; stroke-opacity:1; fill:none" points="432.708,1276.9 446.724,1270.26 460.74,1263.78 474.755,1257.83 488.771,1253.67 502.787,1248.26 516.803,1243.63 530.819,1238.9 544.835,1233.94 558.851,1226.95 572.867,1221.97 586.883,1216.21 600.899,1211.72 614.915,1207.07 628.931,1203.11 642.947,1197.98 656.963,1191.65 670.979,1184.45 684.995,1179.93 699.011,1174.67 713.027,1167.86 727.043,1160.82 741.059,1156.59 755.075,1150.99 769.091,1147.82 783.107,1142.91 797.123,1136.39 811.139,1131.48 825.155,1127.09 839.171,1123.28 853.187,1119.23 867.203,1115.03 881.219,1110.51 895.235,1106.45 909.251,1099.44 923.267,1091.58 937.283,1086.14 951.299,1082.13 965.315,1077.82 979.331,1071.83 993.347,1065.51 1007.36,1057.8 1021.38,1051.66 1035.39,1045.55 1049.41,1039.1 1063.43,1032.51 1077.44,1024.12 1091.46,1018.44 1105.47,1009.86 1119.49,1004.76 1133.51,996.994 1147.52,988.408 1161.54,980.824 1175.55,974.527 1189.57,967.244 1203.59,959.425 1217.6,952.264 1231.62,943.402 1245.63,934.603 1259.65,926.255 1273.67,916.347 1287.68,906.454 1301.7,897.304 1315.71,888.017 1329.73,877.353 1343.75,867.616 1357.76,859.757 1371.78,852.105 1385.79,843.14 1399.81,834.779 1413.83,828.385 1427.84,819.518 1441.86,810.189 1455.87,801.131 1469.89,793.142 1483.91,785.417 1497.92,779.297 1511.94,770.453 1525.95,761.058 1539.97,751.478 1553.99,743.744 1568,734.876 1582.02,725.916 1596.03,717.818 1610.05,711.566 1624.07,704.483 1638.08,696.143 1652.1,687.883 1666.11,680.448 1680.13,671.68 1694.15,663.003 1708.16,655.18 1722.18,646.97 1736.19,637.72 1750.21,630.059 1764.23,622.229 1778.24,614.601 1792.26,604.763 1806.27,595.054 1820.29,584.945 1834.31,573.819 1848.32,562.573 1862.34,553.302 1876.35,542.365 1890.37,532.538 1904.38,522.99 1918.4,512.463 1932.42,500.952 1946.43,489.105 1960.45,478.06 1974.46,465.94 1988.48,454.125 2002.5,443.147 2016.51,432.933 2030.53,420.874 2044.54,408.626 2058.56,397.171 2072.58,383.432 2086.59,368.625 2100.61,357.335 2114.62,344.387 2128.64,330.327 2142.66,316.167 2156.67,302.419 2170.69,288.572 2184.7,273.897 2198.72,259.527 2212.74,244.642 2226.75,231.411 2240.77,216.034 2254.78,201.222 2268.8,186.037 2282.82,172.022 2296.83,156.539 "/>
<path clip-path="url(#clip462)" d="M432.708 1346.46 L446.724 1339.23 L460.74 1333.43 L474.755 1327.45 L488.771 1322.41 L502.787 1317.27 L516.803 1312.18 L530.819 1308.15 L544.835 1301.49 L558.851 1293.26 L572.867 1287.99 L586.883 1283.3 L600.899 1278.06 L614.915 1274.13 L628.931 1270.45 L642.947 1265.37 L656.963 1257.96 L670.979 1250.25 L684.995 1245.55 L699.011 1240.45 L713.027 1233.79 L727.043 1226.98 L741.059 1222.08 L755.075 1215.11 L769.091 1212.36 L783.107 1208.01 L797.123 1199.77 L811.139 1197.34 L825.155 1192.47 L839.171 1189.54 L853.187 1185.55 L867.203 1179.92 L881.219 1175.32 L895.235 1170.43 L909.251 1163.13 L923.267 1155 L937.283 1152.32 L951.299 1146.6 L965.315 1141.31 L979.331 1135.45 L993.347 1128.71 L1007.36 1122.35 L1021.38 1117.25 L1035.39 1110.94 L1049.41 1103.48 L1063.43 1099.12 L1077.44 1087.96 L1091.46 1081.8 L1105.47 1076.49 L1119.49 1069.84 L1133.51 1062.28 L1147.52 1053.51 L1161.54 1047.36 L1175.55 1041.55 L1189.57 1032.04 L1203.59 1025.97 L1217.6 1017.28 L1231.62 1009.52 L1245.63 1000.39 L1259.65 990.375 L1273.67 980.933 L1287.68 970.242 L1301.7 962.032 L1315.71 951.989 L1329.73 942.376 L1343.75 932.668 L1357.76 923.542 L1371.78 915.043 L1385.79 907.539 L1399.81 899.421 L1413.83 893.603 L1427.84 885.462 L1441.86 874.652 L1455.87 864.759 L1469.89 857.342 L1483.91 848.885 L1497.92 842.481 L1511.94 833.009 L1525.95 821.856 L1539.97 814.869 L1553.99 808.221 L1568 799.777 L1582.02 790.526 L1596.03 781.976 L1610.05 776.681 L1624.07 768.145 L1638.08 760.726 L1652.1 753.177 L1666.11 745.402 L1680.13 736.912 L1694.15 727.03 L1708.16 719.672 L1722.18 712.459 L1736.19 702.907 L1750.21 695.592 L1764.23 687.343 L1778.24 680.66 L1792.26 669.654 L1806.27 660.207 L1820.29 649.905 L1834.31 639.437 L1848.32 627.316 L1862.34 619.341 L1876.35 607.955 L1890.37 597.765 L1904.38 586.493 L1918.4 575.749 L1932.42 565.775 L1946.43 554.027 L1960.45 543.99 L1974.46 530.968 L1988.48 517.457 L2002.5 508.948 L2016.51 496.541 L2030.53 486.711 L2044.54 474.112 L2058.56 461.38 L2072.58 449.258 L2086.59 436.199 L2100.61 423.152 L2114.62 410.995 L2128.64 398.211 L2142.66 383.722 L2156.67 370.376 L2170.69 357.636 L2184.7 340.693 L2198.72 327.298 L2212.74 313.453 L2226.75 299.812 L2240.77 285.788 L2254.78 270.716 L2268.8 257.456 L2282.82 244.655 L2296.83 228.891 L2296.83 85.0853 L2282.82 100.317 L2268.8 117.163 L2254.78 130.686 L2240.77 146.274 L2226.75 162.055 L2212.74 176.596 L2198.72 190.634 L2184.7 205.824 L2170.69 221.811 L2156.67 235.164 L2142.66 250.025 L2128.64 265.069 L2114.62 277.464 L2100.61 291.691 L2086.59 303.312 L2072.58 315.594 L2058.56 330.677 L2044.54 341.847 L2030.53 355.275 L2016.51 366.218 L2002.5 377.316 L1988.48 388.662 L1974.46 400.41 L1960.45 413.921 L1946.43 424.021 L1932.42 434.444 L1918.4 447.309 L1904.38 456.789 L1890.37 467.454 L1876.35 476.51 L1862.34 488.168 L1848.32 498.077 L1834.31 509.52 L1820.29 520.638 L1806.27 529.113 L1792.26 538.662 L1778.24 548.405 L1764.23 557.515 L1750.21 565.223 L1736.19 573.144 L1722.18 582.466 L1708.16 590.653 L1694.15 598.229 L1680.13 604.838 L1666.11 615.505 L1652.1 624.071 L1638.08 632.018 L1624.07 637.636 L1610.05 645.273 L1596.03 652.568 L1582.02 660.463 L1568 667.933 L1553.99 677.496 L1539.97 687.561 L1525.95 696.144 L1511.94 705.526 L1497.92 713.979 L1483.91 720.183 L1469.89 727.347 L1455.87 736.846 L1441.86 744.75 L1427.84 757.305 L1413.83 764.417 L1399.81 769.976 L1385.79 779.952 L1371.78 785.897 L1357.76 795.123 L1343.75 804.294 L1329.73 813.866 L1315.71 823.536 L1301.7 833.004 L1287.68 840.688 L1273.67 850.937 L1259.65 861.072 L1245.63 869.773 L1231.62 878.912 L1217.6 886.6 L1203.59 894.287 L1189.57 902.876 L1175.55 910.075 L1161.54 915.589 L1147.52 923.762 L1133.51 931.735 L1119.49 938.789 L1105.47 946.745 L1091.46 953.63 L1077.44 959.6 L1063.43 967.389 L1049.41 973.779 L1035.39 979.595 L1021.38 986.514 L1007.36 991.952 L993.347 999.172 L979.331 1005.71 L965.315 1011.91 L951.299 1018.96 L937.283 1019.79 L923.267 1026.87 L909.251 1034.59 L895.235 1042.32 L881.219 1047.38 L867.203 1051.41 L853.187 1054.8 L839.171 1058.25 L825.155 1062.32 L811.139 1065.3 L797.123 1071.89 L783.107 1078.39 L769.091 1082.64 L755.075 1087.08 L741.059 1088.47 L727.043 1094.93 L713.027 1101.82 L699.011 1110.53 L684.995 1114.26 L670.979 1119.59 L656.963 1126.09 L642.947 1131.58 L628.931 1136.28 L614.915 1140.67 L600.899 1145.41 L586.883 1150.79 L572.867 1155.31 L558.851 1158.8 L544.835 1165.93 L530.819 1171.81 L516.803 1175.82 L502.787 1180 L488.771 1185.5 L474.755 1191.03 L460.74 1194 L446.724 1200.81 L432.708 1207.08  Z" fill="#ff0000" fill-rule="evenodd" fill-opacity="0.2"/>
<polyline clip-path="url(#clip462)" style="stroke:#ff0000; stroke-linecap:round; stroke-linejoin:round; stroke-width:4; stroke-opacity:0.2; fill:none" points="432.708,1346.46 446.724,1339.23 460.74,1333.43 474.755,1327.45 488.771,1322.41 502.787,1317.27 516.803,1312.18 530.819,1308.15 544.835,1301.49 558.851,1293.26 572.867,1287.99 586.883,1283.3 600.899,1278.06 614.915,1274.13 628.931,1270.45 642.947,1265.37 656.963,1257.96 670.979,1250.25 684.995,1245.55 699.011,1240.45 713.027,1233.79 727.043,1226.98 741.059,1222.08 755.075,1215.11 769.091,1212.36 783.107,1208.01 797.123,1199.77 811.139,1197.34 825.155,1192.47 839.171,1189.54 853.187,1185.55 867.203,1179.92 881.219,1175.32 895.235,1170.43 909.251,1163.13 923.267,1155 937.283,1152.32 951.299,1146.6 965.315,1141.31 979.331,1135.45 993.347,1128.71 1007.36,1122.35 1021.38,1117.25 1035.39,1110.94 1049.41,1103.48 1063.43,1099.12 1077.44,1087.96 1091.46,1081.8 1105.47,1076.49 1119.49,1069.84 1133.51,1062.28 1147.52,1053.51 1161.54,1047.36 1175.55,1041.55 1189.57,1032.04 1203.59,1025.97 1217.6,1017.28 1231.62,1009.52 1245.63,1000.39 1259.65,990.375 1273.67,980.933 1287.68,970.242 1301.7,962.032 1315.71,951.989 1329.73,942.376 1343.75,932.668 1357.76,923.542 1371.78,915.043 1385.79,907.539 1399.81,899.421 1413.83,893.603 1427.84,885.462 1441.86,874.652 1455.87,864.759 1469.89,857.342 1483.91,848.885 1497.92,842.481 1511.94,833.009 1525.95,821.856 1539.97,814.869 1553.99,808.221 1568,799.777 1582.02,790.526 1596.03,781.976 1610.05,776.681 1624.07,768.145 1638.08,760.726 1652.1,753.177 1666.11,745.402 1680.13,736.912 1694.15,727.03 1708.16,719.672 1722.18,712.459 1736.19,702.907 1750.21,695.592 1764.23,687.343 1778.24,680.66 1792.26,669.654 1806.27,660.207 1820.29,649.905 1834.31,639.437 1848.32,627.316 1862.34,619.341 1876.35,607.955 1890.37,597.765 1904.38,586.493 1918.4,575.749 1932.42,565.775 1946.43,554.027 1960.45,543.99 1974.46,530.968 1988.48,517.457 2002.5,508.948 2016.51,496.541 2030.53,486.711 2044.54,474.112 2058.56,461.38 2072.58,449.258 2086.59,436.199 2100.61,423.152 2114.62,410.995 2128.64,398.211 2142.66,383.722 2156.67,370.376 2170.69,357.636 2184.7,340.693 2198.72,327.298 2212.74,313.453 2226.75,299.812 2240.77,285.788 2254.78,270.716 2268.8,257.456 2282.82,244.655 2296.83,228.891 "/>
<circle clip-path="url(#clip462)" cx="432.708" cy="1289.59" r="14.4" fill="#000000" fill-rule="evenodd" fill-opacity="1" stroke="none"/>
<circle clip-path="url(#clip462)" cx="446.724" cy="1261.16" r="14.4" fill="#000000" fill-rule="evenodd" fill-opacity="1" stroke="none"/>
<circle clip-path="url(#clip462)" cx="460.74" cy="1346.45" r="14.4" fill="#000000" fill-rule="evenodd" fill-opacity="1" stroke="none"/>
<circle clip-path="url(#clip462)" cx="474.755" cy="1319.54" r="14.4" fill="#000000" fill-rule="evenodd" fill-opacity="1" stroke="none"/>
<circle clip-path="url(#clip462)" cx="488.771" cy="1213.44" r="14.4" fill="#000000" fill-rule="evenodd" fill-opacity="1" stroke="none"/>
<circle clip-path="url(#clip462)" cx="502.787" cy="1221.06" r="14.4" fill="#000000" fill-rule="evenodd" fill-opacity="1" stroke="none"/>
<circle clip-path="url(#clip462)" cx="516.803" cy="1233.24" r="14.4" fill="#000000" fill-rule="evenodd" fill-opacity="1" stroke="none"/>
<circle clip-path="url(#clip462)" cx="530.819" cy="1261.67" r="14.4" fill="#000000" fill-rule="evenodd" fill-opacity="1" stroke="none"/>
<circle clip-path="url(#clip462)" cx="544.835" cy="1251.01" r="14.4" fill="#000000" fill-rule="evenodd" fill-opacity="1" stroke="none"/>
<circle clip-path="url(#clip462)" cx="558.851" cy="1242.89" r="14.4" fill="#000000" fill-rule="evenodd" fill-opacity="1" stroke="none"/>
<circle clip-path="url(#clip462)" cx="572.867" cy="1232.74" r="14.4" fill="#000000" fill-rule="evenodd" fill-opacity="1" stroke="none"/>
<circle clip-path="url(#clip462)" cx="586.883" cy="1241.37" r="14.4" fill="#000000" fill-rule="evenodd" fill-opacity="1" stroke="none"/>
<circle clip-path="url(#clip462)" cx="600.899" cy="1225.12" r="14.4" fill="#000000" fill-rule="evenodd" fill-opacity="1" stroke="none"/>
<circle clip-path="url(#clip462)" cx="614.915" cy="1201.26" r="14.4" fill="#000000" fill-rule="evenodd" fill-opacity="1" stroke="none"/>
<circle clip-path="url(#clip462)" cx="628.931" cy="1250.5" r="14.4" fill="#000000" fill-rule="evenodd" fill-opacity="1" stroke="none"/>
<circle clip-path="url(#clip462)" cx="642.947" cy="1190.6" r="14.4" fill="#000000" fill-rule="evenodd" fill-opacity="1" stroke="none"/>
<circle clip-path="url(#clip462)" cx="656.963" cy="1229.18" r="14.4" fill="#000000" fill-rule="evenodd" fill-opacity="1" stroke="none"/>
<circle clip-path="url(#clip462)" cx="670.979" cy="1202.78" r="14.4" fill="#000000" fill-rule="evenodd" fill-opacity="1" stroke="none"/>
<circle clip-path="url(#clip462)" cx="684.995" cy="1155.06" r="14.4" fill="#000000" fill-rule="evenodd" fill-opacity="1" stroke="none"/>
<circle clip-path="url(#clip462)" cx="699.011" cy="1116.99" r="14.4" fill="#000000" fill-rule="evenodd" fill-opacity="1" stroke="none"/>
<circle clip-path="url(#clip462)" cx="713.027" cy="1144.4" r="14.4" fill="#000000" fill-rule="evenodd" fill-opacity="1" stroke="none"/>
<circle clip-path="url(#clip462)" cx="727.043" cy="1146.43" r="14.4" fill="#000000" fill-rule="evenodd" fill-opacity="1" stroke="none"/>
<circle clip-path="url(#clip462)" cx="741.059" cy="1123.08" r="14.4" fill="#000000" fill-rule="evenodd" fill-opacity="1" stroke="none"/>
<circle clip-path="url(#clip462)" cx="755.075" cy="1082.47" r="14.4" fill="#000000" fill-rule="evenodd" fill-opacity="1" stroke="none"/>
<circle clip-path="url(#clip462)" cx="769.091" cy="1134.76" r="14.4" fill="#000000" fill-rule="evenodd" fill-opacity="1" stroke="none"/>
<circle clip-path="url(#clip462)" cx="783.107" cy="1162.68" r="14.4" fill="#000000" fill-rule="evenodd" fill-opacity="1" stroke="none"/>
<circle clip-path="url(#clip462)" cx="797.123" cy="1128.16" r="14.4" fill="#000000" fill-rule="evenodd" fill-opacity="1" stroke="none"/>
<circle clip-path="url(#clip462)" cx="811.139" cy="1135.27" r="14.4" fill="#000000" fill-rule="evenodd" fill-opacity="1" stroke="none"/>
<circle clip-path="url(#clip462)" cx="825.155" cy="1147.96" r="14.4" fill="#000000" fill-rule="evenodd" fill-opacity="1" stroke="none"/>
<circle clip-path="url(#clip462)" cx="839.171" cy="1125.11" r="14.4" fill="#000000" fill-rule="evenodd" fill-opacity="1" stroke="none"/>
<circle clip-path="url(#clip462)" cx="853.187" cy="1125.62" r="14.4" fill="#000000" fill-rule="evenodd" fill-opacity="1" stroke="none"/>
<circle clip-path="url(#clip462)" cx="867.203" cy="1083.49" r="14.4" fill="#000000" fill-rule="evenodd" fill-opacity="1" stroke="none"/>
<circle clip-path="url(#clip462)" cx="881.219" cy="1099.22" r="14.4" fill="#000000" fill-rule="evenodd" fill-opacity="1" stroke="none"/>
<circle clip-path="url(#clip462)" cx="895.235" cy="1090.08" r="14.4" fill="#000000" fill-rule="evenodd" fill-opacity="1" stroke="none"/>
<circle clip-path="url(#clip462)" cx="909.251" cy="1058.1" r="14.4" fill="#000000" fill-rule="evenodd" fill-opacity="1" stroke="none"/>
<circle clip-path="url(#clip462)" cx="923.267" cy="1018" r="14.4" fill="#000000" fill-rule="evenodd" fill-opacity="1" stroke="none"/>
<circle clip-path="url(#clip462)" cx="937.283" cy="1027.64" r="14.4" fill="#000000" fill-rule="evenodd" fill-opacity="1" stroke="none"/>
<circle clip-path="url(#clip462)" cx="951.299" cy="1050.49" r="14.4" fill="#000000" fill-rule="evenodd" fill-opacity="1" stroke="none"/>
<circle clip-path="url(#clip462)" cx="965.315" cy="1058.61" r="14.4" fill="#000000" fill-rule="evenodd" fill-opacity="1" stroke="none"/>
<circle clip-path="url(#clip462)" cx="979.331" cy="1050.49" r="14.4" fill="#000000" fill-rule="evenodd" fill-opacity="1" stroke="none"/>
<circle clip-path="url(#clip462)" cx="993.347" cy="1043.89" r="14.4" fill="#000000" fill-rule="evenodd" fill-opacity="1" stroke="none"/>
<circle clip-path="url(#clip462)" cx="1007.36" cy="1033.23" r="14.4" fill="#000000" fill-rule="evenodd" fill-opacity="1" stroke="none"/>
<circle clip-path="url(#clip462)" cx="1021.38" cy="1037.8" r="14.4" fill="#000000" fill-rule="evenodd" fill-opacity="1" stroke="none"/>
<circle clip-path="url(#clip462)" cx="1035.39" cy="1031.7" r="14.4" fill="#000000" fill-rule="evenodd" fill-opacity="1" stroke="none"/>
<circle clip-path="url(#clip462)" cx="1049.41" cy="1068.76" r="14.4" fill="#000000" fill-rule="evenodd" fill-opacity="1" stroke="none"/>
<circle clip-path="url(#clip462)" cx="1063.43" cy="1058.61" r="14.4" fill="#000000" fill-rule="evenodd" fill-opacity="1" stroke="none"/>
<circle clip-path="url(#clip462)" cx="1077.44" cy="1025.61" r="14.4" fill="#000000" fill-rule="evenodd" fill-opacity="1" stroke="none"/>
<circle clip-path="url(#clip462)" cx="1091.46" cy="1031.2" r="14.4" fill="#000000" fill-rule="evenodd" fill-opacity="1" stroke="none"/>
<circle clip-path="url(#clip462)" cx="1105.47" cy="1051" r="14.4" fill="#000000" fill-rule="evenodd" fill-opacity="1" stroke="none"/>
<circle clip-path="url(#clip462)" cx="1119.49" cy="1043.89" r="14.4" fill="#000000" fill-rule="evenodd" fill-opacity="1" stroke="none"/>
<circle clip-path="url(#clip462)" cx="1133.51" cy="1023.58" r="14.4" fill="#000000" fill-rule="evenodd" fill-opacity="1" stroke="none"/>
<circle clip-path="url(#clip462)" cx="1147.52" cy="1025.61" r="14.4" fill="#000000" fill-rule="evenodd" fill-opacity="1" stroke="none"/>
<circle clip-path="url(#clip462)" cx="1161.54" cy="996.677" r="14.4" fill="#000000" fill-rule="evenodd" fill-opacity="1" stroke="none"/>
<circle clip-path="url(#clip462)" cx="1175.55" cy="974.848" r="14.4" fill="#000000" fill-rule="evenodd" fill-opacity="1" stroke="none"/>
<circle clip-path="url(#clip462)" cx="1189.57" cy="1002.26" r="14.4" fill="#000000" fill-rule="evenodd" fill-opacity="1" stroke="none"/>
<circle clip-path="url(#clip462)" cx="1203.59" cy="973.833" r="14.4" fill="#000000" fill-rule="evenodd" fill-opacity="1" stroke="none"/>
<circle clip-path="url(#clip462)" cx="1217.6" cy="993.631" r="14.4" fill="#000000" fill-rule="evenodd" fill-opacity="1" stroke="none"/>
<circle clip-path="url(#clip462)" cx="1231.62" cy="964.695" r="14.4" fill="#000000" fill-rule="evenodd" fill-opacity="1" stroke="none"/>
<circle clip-path="url(#clip462)" cx="1245.63" cy="951.496" r="14.4" fill="#000000" fill-rule="evenodd" fill-opacity="1" stroke="none"/>
<circle clip-path="url(#clip462)" cx="1259.65" cy="925.098" r="14.4" fill="#000000" fill-rule="evenodd" fill-opacity="1" stroke="none"/>
<circle clip-path="url(#clip462)" cx="1273.67" cy="952.004" r="14.4" fill="#000000" fill-rule="evenodd" fill-opacity="1" stroke="none"/>
<circle clip-path="url(#clip462)" cx="1287.68" cy="890.07" r="14.4" fill="#000000" fill-rule="evenodd" fill-opacity="1" stroke="none"/>
<circle clip-path="url(#clip462)" cx="1301.7" cy="890.07" r="14.4" fill="#000000" fill-rule="evenodd" fill-opacity="1" stroke="none"/>
<circle clip-path="url(#clip462)" cx="1315.71" cy="890.07" r="14.4" fill="#000000" fill-rule="evenodd" fill-opacity="1" stroke="none"/>
<circle clip-path="url(#clip462)" cx="1329.73" cy="922.56" r="14.4" fill="#000000" fill-rule="evenodd" fill-opacity="1" stroke="none"/>
<circle clip-path="url(#clip462)" cx="1343.75" cy="908.346" r="14.4" fill="#000000" fill-rule="evenodd" fill-opacity="1" stroke="none"/>
<circle clip-path="url(#clip462)" cx="1357.76" cy="870.272" r="14.4" fill="#000000" fill-rule="evenodd" fill-opacity="1" stroke="none"/>
<circle clip-path="url(#clip462)" cx="1371.78" cy="854.535" r="14.4" fill="#000000" fill-rule="evenodd" fill-opacity="1" stroke="none"/>
<circle clip-path="url(#clip462)" cx="1385.79" cy="830.167" r="14.4" fill="#000000" fill-rule="evenodd" fill-opacity="1" stroke="none"/>
<circle clip-path="url(#clip462)" cx="1399.81" cy="836.767" r="14.4" fill="#000000" fill-rule="evenodd" fill-opacity="1" stroke="none"/>
<circle clip-path="url(#clip462)" cx="1413.83" cy="825.598" r="14.4" fill="#000000" fill-rule="evenodd" fill-opacity="1" stroke="none"/>
<circle clip-path="url(#clip462)" cx="1427.84" cy="777.371" r="14.4" fill="#000000" fill-rule="evenodd" fill-opacity="1" stroke="none"/>
<circle clip-path="url(#clip462)" cx="1441.86" cy="790.57" r="14.4" fill="#000000" fill-rule="evenodd" fill-opacity="1" stroke="none"/>
<circle clip-path="url(#clip462)" cx="1455.87" cy="768.234" r="14.4" fill="#000000" fill-rule="evenodd" fill-opacity="1" stroke="none"/>
<circle clip-path="url(#clip462)" cx="1469.89" cy="782.956" r="14.4" fill="#000000" fill-rule="evenodd" fill-opacity="1" stroke="none"/>
<circle clip-path="url(#clip462)" cx="1483.91" cy="778.387" r="14.4" fill="#000000" fill-rule="evenodd" fill-opacity="1" stroke="none"/>
<circle clip-path="url(#clip462)" cx="1497.92" cy="804.277" r="14.4" fill="#000000" fill-rule="evenodd" fill-opacity="1" stroke="none"/>
<circle clip-path="url(#clip462)" cx="1511.94" cy="736.252" r="14.4" fill="#000000" fill-rule="evenodd" fill-opacity="1" stroke="none"/>
<circle clip-path="url(#clip462)" cx="1525.95" cy="729.145" r="14.4" fill="#000000" fill-rule="evenodd" fill-opacity="1" stroke="none"/>
<circle clip-path="url(#clip462)" cx="1539.97" cy="727.622" r="14.4" fill="#000000" fill-rule="evenodd" fill-opacity="1" stroke="none"/>
<circle clip-path="url(#clip462)" cx="1553.99" cy="708.838" r="14.4" fill="#000000" fill-rule="evenodd" fill-opacity="1" stroke="none"/>
<circle clip-path="url(#clip462)" cx="1568" cy="677.364" r="14.4" fill="#000000" fill-rule="evenodd" fill-opacity="1" stroke="none"/>
<circle clip-path="url(#clip462)" cx="1582.02" cy="703.762" r="14.4" fill="#000000" fill-rule="evenodd" fill-opacity="1" stroke="none"/>
<circle clip-path="url(#clip462)" cx="1596.03" cy="711.884" r="14.4" fill="#000000" fill-rule="evenodd" fill-opacity="1" stroke="none"/>
<circle clip-path="url(#clip462)" cx="1610.05" cy="751.989" r="14.4" fill="#000000" fill-rule="evenodd" fill-opacity="1" stroke="none"/>
<circle clip-path="url(#clip462)" cx="1624.07" cy="695.132" r="14.4" fill="#000000" fill-rule="evenodd" fill-opacity="1" stroke="none"/>
<circle clip-path="url(#clip462)" cx="1638.08" cy="722.545" r="14.4" fill="#000000" fill-rule="evenodd" fill-opacity="1" stroke="none"/>
<circle clip-path="url(#clip462)" cx="1652.1" cy="715.438" r="14.4" fill="#000000" fill-rule="evenodd" fill-opacity="1" stroke="none"/>
<circle clip-path="url(#clip462)" cx="1666.11" cy="711.377" r="14.4" fill="#000000" fill-rule="evenodd" fill-opacity="1" stroke="none"/>
<circle clip-path="url(#clip462)" cx="1680.13" cy="676.856" r="14.4" fill="#000000" fill-rule="evenodd" fill-opacity="1" stroke="none"/>
<circle clip-path="url(#clip462)" cx="1694.15" cy="686.502" r="14.4" fill="#000000" fill-rule="evenodd" fill-opacity="1" stroke="none"/>
<circle clip-path="url(#clip462)" cx="1708.16" cy="660.104" r="14.4" fill="#000000" fill-rule="evenodd" fill-opacity="1" stroke="none"/>
<circle clip-path="url(#clip462)" cx="1722.18" cy="613.908" r="14.4" fill="#000000" fill-rule="evenodd" fill-opacity="1" stroke="none"/>
<circle clip-path="url(#clip462)" cx="1736.19" cy="644.367" r="14.4" fill="#000000" fill-rule="evenodd" fill-opacity="1" stroke="none"/>
<circle clip-path="url(#clip462)" cx="1750.21" cy="583.956" r="14.4" fill="#000000" fill-rule="evenodd" fill-opacity="1" stroke="none"/>
<circle clip-path="url(#clip462)" cx="1764.23" cy="592.079" r="14.4" fill="#000000" fill-rule="evenodd" fill-opacity="1" stroke="none"/>
<circle clip-path="url(#clip462)" cx="1778.24" cy="597.155" r="14.4" fill="#000000" fill-rule="evenodd" fill-opacity="1" stroke="none"/>
<circle clip-path="url(#clip462)" cx="1792.26" cy="605.785" r="14.4" fill="#000000" fill-rule="evenodd" fill-opacity="1" stroke="none"/>
<circle clip-path="url(#clip462)" cx="1806.27" cy="573.295" r="14.4" fill="#000000" fill-rule="evenodd" fill-opacity="1" stroke="none"/>
<circle clip-path="url(#clip462)" cx="1820.29" cy="598.17" r="14.4" fill="#000000" fill-rule="evenodd" fill-opacity="1" stroke="none"/>
<circle clip-path="url(#clip462)" cx="1834.31" cy="567.711" r="14.4" fill="#000000" fill-rule="evenodd" fill-opacity="1" stroke="none"/>
<circle clip-path="url(#clip462)" cx="1848.32" cy="504.763" r="14.4" fill="#000000" fill-rule="evenodd" fill-opacity="1" stroke="none"/>
<circle clip-path="url(#clip462)" cx="1862.34" cy="534.206" r="14.4" fill="#000000" fill-rule="evenodd" fill-opacity="1" stroke="none"/>
<circle clip-path="url(#clip462)" cx="1876.35" cy="491.564" r="14.4" fill="#000000" fill-rule="evenodd" fill-opacity="1" stroke="none"/>
<circle clip-path="url(#clip462)" cx="1890.37" cy="496.132" r="14.4" fill="#000000" fill-rule="evenodd" fill-opacity="1" stroke="none"/>
<circle clip-path="url(#clip462)" cx="1904.38" cy="548.421" r="14.4" fill="#000000" fill-rule="evenodd" fill-opacity="1" stroke="none"/>
<circle clip-path="url(#clip462)" cx="1918.4" cy="545.375" r="14.4" fill="#000000" fill-rule="evenodd" fill-opacity="1" stroke="none"/>
<circle clip-path="url(#clip462)" cx="1932.42" cy="542.329" r="14.4" fill="#000000" fill-rule="evenodd" fill-opacity="1" stroke="none"/>
<circle clip-path="url(#clip462)" cx="1946.43" cy="518.469" r="14.4" fill="#000000" fill-rule="evenodd" fill-opacity="1" stroke="none"/>
<circle clip-path="url(#clip462)" cx="1960.45" cy="495.625" r="14.4" fill="#000000" fill-rule="evenodd" fill-opacity="1" stroke="none"/>
<circle clip-path="url(#clip462)" cx="1974.46" cy="483.949" r="14.4" fill="#000000" fill-rule="evenodd" fill-opacity="1" stroke="none"/>
<circle clip-path="url(#clip462)" cx="1988.48" cy="471.257" r="14.4" fill="#000000" fill-rule="evenodd" fill-opacity="1" stroke="none"/>
<circle clip-path="url(#clip462)" cx="2002.5" cy="467.704" r="14.4" fill="#000000" fill-rule="evenodd" fill-opacity="1" stroke="none"/>
<circle clip-path="url(#clip462)" cx="2016.51" cy="476.842" r="14.4" fill="#000000" fill-rule="evenodd" fill-opacity="1" stroke="none"/>
<circle clip-path="url(#clip462)" cx="2030.53" cy="450.444" r="14.4" fill="#000000" fill-rule="evenodd" fill-opacity="1" stroke="none"/>
<circle clip-path="url(#clip462)" cx="2044.54" cy="435.722" r="14.4" fill="#000000" fill-rule="evenodd" fill-opacity="1" stroke="none"/>
<circle clip-path="url(#clip462)" cx="2058.56" cy="414.908" r="14.4" fill="#000000" fill-rule="evenodd" fill-opacity="1" stroke="none"/>
<circle clip-path="url(#clip462)" cx="2072.58" cy="379.373" r="14.4" fill="#000000" fill-rule="evenodd" fill-opacity="1" stroke="none"/>
<circle clip-path="url(#clip462)" cx="2086.59" cy="429.63" r="14.4" fill="#000000" fill-rule="evenodd" fill-opacity="1" stroke="none"/>
<circle clip-path="url(#clip462)" cx="2100.61" cy="386.48" r="14.4" fill="#000000" fill-rule="evenodd" fill-opacity="1" stroke="none"/>
<circle clip-path="url(#clip462)" cx="2114.62" cy="379.88" r="14.4" fill="#000000" fill-rule="evenodd" fill-opacity="1" stroke="none"/>
<circle clip-path="url(#clip462)" cx="2128.64" cy="351.959" r="14.4" fill="#000000" fill-rule="evenodd" fill-opacity="1" stroke="none"/>
<circle clip-path="url(#clip462)" cx="2142.66" cy="339.776" r="14.4" fill="#000000" fill-rule="evenodd" fill-opacity="1" stroke="none"/>
<circle clip-path="url(#clip462)" cx="2156.67" cy="293.072" r="14.4" fill="#000000" fill-rule="evenodd" fill-opacity="1" stroke="none"/>
<circle clip-path="url(#clip462)" cx="2170.69" cy="295.102" r="14.4" fill="#000000" fill-rule="evenodd" fill-opacity="1" stroke="none"/>
<circle clip-path="url(#clip462)" cx="2184.7" cy="294.595" r="14.4" fill="#000000" fill-rule="evenodd" fill-opacity="1" stroke="none"/>
<circle clip-path="url(#clip462)" cx="2198.72" cy="272.766" r="14.4" fill="#000000" fill-rule="evenodd" fill-opacity="1" stroke="none"/>
<circle clip-path="url(#clip462)" cx="2212.74" cy="263.12" r="14.4" fill="#000000" fill-rule="evenodd" fill-opacity="1" stroke="none"/>
<circle clip-path="url(#clip462)" cx="2226.75" cy="218.955" r="14.4" fill="#000000" fill-rule="evenodd" fill-opacity="1" stroke="none"/>
<circle clip-path="url(#clip462)" cx="2240.77" cy="189.511" r="14.4" fill="#000000" fill-rule="evenodd" fill-opacity="1" stroke="none"/>
<circle clip-path="url(#clip462)" cx="2254.78" cy="150.422" r="14.4" fill="#000000" fill-rule="evenodd" fill-opacity="1" stroke="none"/>
<circle clip-path="url(#clip462)" cx="2268.8" cy="142.299" r="14.4" fill="#000000" fill-rule="evenodd" fill-opacity="1" stroke="none"/>
<circle clip-path="url(#clip462)" cx="2282.82" cy="97.6258" r="14.4" fill="#000000" fill-rule="evenodd" fill-opacity="1" stroke="none"/>
<circle clip-path="url(#clip462)" cx="2296.83" cy="140.269" r="14.4" fill="#000000" fill-rule="evenodd" fill-opacity="1" stroke="none"/>
<path clip-path="url(#clip460)" d="M442.65 402.853 L1513.05 402.853 L1513.05 91.8126 L442.65 91.8126  Z" fill="#ffffff" fill-rule="evenodd" fill-opacity="1"/>
<polyline clip-path="url(#clip460)" style="stroke:#000000; stroke-linecap:round; stroke-linejoin:round; stroke-width:4; stroke-opacity:1; fill:none" points="442.65,402.853 1513.05,402.853 1513.05,91.8126 442.65,91.8126 442.65,402.853 "/>
<polyline clip-path="url(#clip460)" style="stroke:#ff0000; stroke-linecap:round; stroke-linejoin:round; stroke-width:18; stroke-opacity:1; fill:none" points="464.605,169.573 596.336,169.573 "/>
<path clip-path="url(#clip460)" d="M642.875 171.187 Q645.132 171.951 647.25 174.451 Q649.402 176.951 651.555 181.326 L658.673 195.493 L651.139 195.493 L644.507 182.194 Q641.937 176.986 639.507 175.284 Q637.111 173.583 632.944 173.583 L625.305 173.583 L625.305 195.493 L618.292 195.493 L618.292 143.653 L634.125 143.653 Q643.014 143.653 647.389 147.368 Q651.764 151.083 651.764 158.583 Q651.764 163.479 649.472 166.708 Q647.215 169.937 642.875 171.187 M625.305 149.416 L625.305 167.819 L634.125 167.819 Q639.194 167.819 641.764 165.493 Q644.368 163.132 644.368 158.583 Q644.368 154.035 641.764 151.743 Q639.194 149.416 634.125 149.416 L625.305 149.416 Z" fill="#000000" fill-rule="nonzero" fill-opacity="1" /><path clip-path="url(#clip460)" d="M683.534 175.944 Q675.791 175.944 672.805 177.715 Q669.819 179.486 669.819 183.757 Q669.819 187.159 672.041 189.173 Q674.298 191.152 678.152 191.152 Q683.465 191.152 686.659 187.402 Q689.888 183.618 689.888 177.368 L689.888 175.944 L683.534 175.944 M696.277 173.305 L696.277 195.493 L689.888 195.493 L689.888 189.59 Q687.701 193.132 684.437 194.833 Q681.173 196.5 676.451 196.5 Q670.479 196.5 666.937 193.166 Q663.43 189.798 663.43 184.173 Q663.43 177.611 667.805 174.277 Q672.215 170.944 680.93 170.944 L689.888 170.944 L689.888 170.319 Q689.888 165.909 686.972 163.514 Q684.09 161.083 678.847 161.083 Q675.513 161.083 672.354 161.882 Q669.194 162.68 666.277 164.278 L666.277 158.375 Q669.784 157.021 673.083 156.361 Q676.381 155.666 679.506 155.666 Q687.944 155.666 692.111 160.041 Q696.277 164.416 696.277 173.305 Z" fill="#000000" fill-rule="nonzero" fill-opacity="1" /><path clip-path="url(#clip460)" d="M741.763 172.021 L741.763 195.493 L735.374 195.493 L735.374 172.229 Q735.374 166.708 733.221 163.965 Q731.069 161.222 726.763 161.222 Q721.59 161.222 718.603 164.521 Q715.617 167.819 715.617 173.514 L715.617 195.493 L709.194 195.493 L709.194 141.465 L715.617 141.465 L715.617 162.646 Q717.909 159.139 720.999 157.403 Q724.124 155.666 728.187 155.666 Q734.888 155.666 738.326 159.833 Q741.763 163.965 741.763 172.021 Z" fill="#000000" fill-rule="nonzero" fill-opacity="1" /><path clip-path="url(#clip460)" d="M784.784 164.069 Q787.18 159.764 790.513 157.715 Q793.846 155.666 798.36 155.666 Q804.436 155.666 807.735 159.937 Q811.034 164.173 811.034 172.021 L811.034 195.493 L804.61 195.493 L804.61 172.229 Q804.61 166.639 802.631 163.93 Q800.652 161.222 796.589 161.222 Q791.624 161.222 788.742 164.521 Q785.86 167.819 785.86 173.514 L785.86 195.493 L779.436 195.493 L779.436 172.229 Q779.436 166.604 777.457 163.93 Q775.478 161.222 771.346 161.222 Q766.45 161.222 763.569 164.555 Q760.687 167.854 760.687 173.514 L760.687 195.493 L754.263 195.493 L754.263 156.604 L760.687 156.604 L760.687 162.646 Q762.874 159.069 765.93 157.368 Q768.985 155.666 773.187 155.666 Q777.423 155.666 780.374 157.819 Q783.36 159.972 784.784 164.069 Z" fill="#000000" fill-rule="nonzero" fill-opacity="1" /><path clip-path="url(#clip460)" d="M848.568 157.75 L848.568 163.791 Q845.86 162.403 842.943 161.708 Q840.026 161.014 836.901 161.014 Q832.145 161.014 829.749 162.472 Q827.388 163.93 827.388 166.847 Q827.388 169.069 829.089 170.354 Q830.79 171.604 835.929 172.75 L838.117 173.236 Q844.922 174.694 847.769 177.368 Q850.651 180.007 850.651 184.764 Q850.651 190.18 846.346 193.34 Q842.075 196.5 834.575 196.5 Q831.45 196.5 828.047 195.875 Q824.679 195.284 820.929 194.069 L820.929 187.472 Q824.471 189.312 827.908 190.25 Q831.346 191.152 834.714 191.152 Q839.228 191.152 841.658 189.625 Q844.089 188.062 844.089 185.25 Q844.089 182.645 842.318 181.257 Q840.582 179.868 834.645 178.583 L832.422 178.062 Q826.485 176.812 823.846 174.243 Q821.207 171.639 821.207 167.125 Q821.207 161.639 825.096 158.653 Q828.985 155.666 836.138 155.666 Q839.679 155.666 842.804 156.187 Q845.929 156.708 848.568 157.75 Z" fill="#000000" fill-rule="nonzero" fill-opacity="1" /><path clip-path="url(#clip460)" d="M867.144 145.562 L867.144 156.604 L880.304 156.604 L880.304 161.569 L867.144 161.569 L867.144 182.68 Q867.144 187.437 868.429 188.791 Q869.749 190.145 873.742 190.145 L880.304 190.145 L880.304 195.493 L873.742 195.493 Q866.346 195.493 863.533 192.75 Q860.721 189.972 860.721 182.68 L860.721 161.569 L856.033 161.569 L856.033 156.604 L860.721 156.604 L860.721 145.562 L867.144 145.562 Z" fill="#000000" fill-rule="nonzero" fill-opacity="1" /><path clip-path="url(#clip460)" d="M903.776 161.083 Q898.637 161.083 895.651 165.111 Q892.665 169.104 892.665 176.083 Q892.665 183.062 895.616 187.09 Q898.603 191.083 903.776 191.083 Q908.88 191.083 911.866 187.055 Q914.852 183.027 914.852 176.083 Q914.852 169.173 911.866 165.146 Q908.88 161.083 903.776 161.083 M903.776 155.666 Q912.109 155.666 916.866 161.083 Q921.623 166.5 921.623 176.083 Q921.623 185.632 916.866 191.083 Q912.109 196.5 903.776 196.5 Q895.408 196.5 890.651 191.083 Q885.929 185.632 885.929 176.083 Q885.929 166.5 890.651 161.083 Q895.408 155.666 903.776 155.666 Z" fill="#000000" fill-rule="nonzero" fill-opacity="1" /><path clip-path="url(#clip460)" d="M954.748 162.576 Q953.672 161.951 952.387 161.673 Q951.137 161.361 949.609 161.361 Q944.193 161.361 941.276 164.903 Q938.394 168.409 938.394 175.007 L938.394 195.493 L931.97 195.493 L931.97 156.604 L938.394 156.604 L938.394 162.646 Q940.408 159.104 943.637 157.403 Q946.866 155.666 951.484 155.666 Q952.144 155.666 952.943 155.771 Q953.741 155.84 954.713 156.014 L954.748 162.576 Z" fill="#000000" fill-rule="nonzero" fill-opacity="1" /><path clip-path="url(#clip460)" d="M981.137 141.465 L981.137 146.778 L975.026 146.778 Q971.588 146.778 970.234 148.166 Q968.915 149.555 968.915 153.166 L968.915 156.604 L979.435 156.604 L979.435 161.569 L968.915 161.569 L968.915 195.493 L962.491 195.493 L962.491 161.569 L956.38 161.569 L956.38 156.604 L962.491 156.604 L962.491 153.896 Q962.491 147.403 965.512 144.451 Q968.533 141.465 975.095 141.465 L981.137 141.465 Z" fill="#000000" fill-rule="nonzero" fill-opacity="1" /><path clip-path="url(#clip460)" d="M1009.37 143.653 L1019.82 143.653 L1033.05 178.93 L1046.34 143.653 L1056.8 143.653 L1056.8 195.493 L1049.96 195.493 L1049.96 149.972 L1036.59 185.527 L1029.54 185.527 L1016.17 149.972 L1016.17 195.493 L1009.37 195.493 L1009.37 143.653 Z" fill="#000000" fill-rule="nonzero" fill-opacity="1" /><path clip-path="url(#clip460)" d="M1085.51 161.083 Q1080.37 161.083 1077.39 165.111 Q1074.4 169.104 1074.4 176.083 Q1074.4 183.062 1077.35 187.09 Q1080.34 191.083 1085.51 191.083 Q1090.62 191.083 1093.6 187.055 Q1096.59 183.027 1096.59 176.083 Q1096.59 169.173 1093.6 165.146 Q1090.62 161.083 1085.51 161.083 M1085.51 155.666 Q1093.84 155.666 1098.6 161.083 Q1103.36 166.5 1103.36 176.083 Q1103.36 185.632 1098.6 191.083 Q1093.84 196.5 1085.51 196.5 Q1077.14 196.5 1072.39 191.083 Q1067.66 185.632 1067.66 176.083 Q1067.66 166.5 1072.39 161.083 Q1077.14 155.666 1085.51 155.666 Z" fill="#000000" fill-rule="nonzero" fill-opacity="1" /><path clip-path="url(#clip460)" d="M1139.54 162.507 L1139.54 141.465 L1145.93 141.465 L1145.93 195.493 L1139.54 195.493 L1139.54 189.659 Q1137.52 193.132 1134.43 194.833 Q1131.38 196.5 1127.07 196.5 Q1120.02 196.5 1115.58 190.875 Q1111.17 185.25 1111.17 176.083 Q1111.17 166.916 1115.58 161.291 Q1120.02 155.666 1127.07 155.666 Q1131.38 155.666 1134.43 157.368 Q1137.52 159.034 1139.54 162.507 M1117.77 176.083 Q1117.77 183.132 1120.65 187.159 Q1123.57 191.152 1128.64 191.152 Q1133.71 191.152 1136.62 187.159 Q1139.54 183.132 1139.54 176.083 Q1139.54 169.034 1136.62 165.041 Q1133.71 161.014 1128.64 161.014 Q1123.57 161.014 1120.65 165.041 Q1117.77 169.034 1117.77 176.083 Z" fill="#000000" fill-rule="nonzero" fill-opacity="1" /><path clip-path="url(#clip460)" d="M1192.35 174.451 L1192.35 177.576 L1162.98 177.576 Q1163.39 184.173 1166.93 187.645 Q1170.51 191.083 1176.86 191.083 Q1180.55 191.083 1183.98 190.18 Q1187.46 189.277 1190.86 187.472 L1190.86 193.513 Q1187.42 194.972 1183.81 195.736 Q1180.2 196.5 1176.48 196.5 Q1167.18 196.5 1161.73 191.083 Q1156.31 185.666 1156.31 176.43 Q1156.31 166.882 1161.45 161.291 Q1166.62 155.666 1175.37 155.666 Q1183.22 155.666 1187.77 160.736 Q1192.35 165.771 1192.35 174.451 M1185.96 172.576 Q1185.89 167.333 1183.01 164.208 Q1180.16 161.083 1175.44 161.083 Q1170.09 161.083 1166.86 164.104 Q1163.67 167.125 1163.18 172.611 L1185.96 172.576 Z" fill="#000000" fill-rule="nonzero" fill-opacity="1" /><path clip-path="url(#clip460)" d="M1202.84 141.465 L1209.23 141.465 L1209.23 195.493 L1202.84 195.493 L1202.84 141.465 Z" fill="#000000" fill-rule="nonzero" fill-opacity="1" /><path clip-path="url(#clip460)" d="M1245.48 143.653 L1255.93 143.653 L1269.16 178.93 L1282.45 143.653 L1292.91 143.653 L1292.91 195.493 L1286.07 195.493 L1286.07 149.972 L1272.7 185.527 L1265.65 185.527 L1252.28 149.972 L1252.28 195.493 L1245.48 195.493 L1245.48 143.653 Z" fill="#000000" fill-rule="nonzero" fill-opacity="1" /><path clip-path="url(#clip460)" d="M1339.82 174.451 L1339.82 177.576 L1310.44 177.576 Q1310.86 184.173 1314.4 187.645 Q1317.98 191.083 1324.33 191.083 Q1328.01 191.083 1331.45 190.18 Q1334.92 189.277 1338.32 187.472 L1338.32 193.513 Q1334.88 194.972 1331.27 195.736 Q1327.66 196.5 1323.95 196.5 Q1314.64 196.5 1309.19 191.083 Q1303.77 185.666 1303.77 176.43 Q1303.77 166.882 1308.91 161.291 Q1314.09 155.666 1322.84 155.666 Q1330.68 155.666 1335.23 160.736 Q1339.82 165.771 1339.82 174.451 M1333.43 172.576 Q1333.36 167.333 1330.48 164.208 Q1327.63 161.083 1322.91 161.083 Q1317.56 161.083 1314.33 164.104 Q1311.14 167.125 1310.65 172.611 L1333.43 172.576 Z" fill="#000000" fill-rule="nonzero" fill-opacity="1" /><path clip-path="url(#clip460)" d="M1375.89 162.507 L1375.89 141.465 L1382.28 141.465 L1382.28 195.493 L1375.89 195.493 L1375.89 189.659 Q1373.88 193.132 1370.79 194.833 Q1367.73 196.5 1363.43 196.5 Q1356.38 196.5 1351.93 190.875 Q1347.52 185.25 1347.52 176.083 Q1347.52 166.916 1351.93 161.291 Q1356.38 155.666 1363.43 155.666 Q1367.73 155.666 1370.79 157.368 Q1373.88 159.034 1375.89 162.507 M1354.12 176.083 Q1354.12 183.132 1357 187.159 Q1359.92 191.152 1364.99 191.152 Q1370.06 191.152 1372.97 187.159 Q1375.89 183.132 1375.89 176.083 Q1375.89 169.034 1372.97 165.041 Q1370.06 161.014 1364.99 161.014 Q1359.92 161.014 1357 165.041 Q1354.12 169.034 1354.12 176.083 Z" fill="#000000" fill-rule="nonzero" fill-opacity="1" /><path clip-path="url(#clip460)" d="M1395.44 156.604 L1401.83 156.604 L1401.83 195.493 L1395.44 195.493 L1395.44 156.604 M1395.44 141.465 L1401.83 141.465 L1401.83 149.555 L1395.44 149.555 L1395.44 141.465 Z" fill="#000000" fill-rule="nonzero" fill-opacity="1" /><path clip-path="url(#clip460)" d="M1432.87 175.944 Q1425.13 175.944 1422.14 177.715 Q1419.16 179.486 1419.16 183.757 Q1419.16 187.159 1421.38 189.173 Q1423.63 191.152 1427.49 191.152 Q1432.8 191.152 1436 187.402 Q1439.22 183.618 1439.22 177.368 L1439.22 175.944 L1432.87 175.944 M1445.61 173.305 L1445.61 195.493 L1439.22 195.493 L1439.22 189.59 Q1437.04 193.132 1433.77 194.833 Q1430.51 196.5 1425.79 196.5 Q1419.82 196.5 1416.27 193.166 Q1412.77 189.798 1412.77 184.173 Q1412.77 177.611 1417.14 174.277 Q1421.55 170.944 1430.27 170.944 L1439.22 170.944 L1439.22 170.319 Q1439.22 165.909 1436.31 163.514 Q1433.43 161.083 1428.18 161.083 Q1424.85 161.083 1421.69 161.882 Q1418.53 162.68 1415.61 164.278 L1415.61 158.375 Q1419.12 157.021 1422.42 156.361 Q1425.72 155.666 1428.84 155.666 Q1437.28 155.666 1441.45 160.041 Q1445.61 164.416 1445.61 173.305 Z" fill="#000000" fill-rule="nonzero" fill-opacity="1" /><path clip-path="url(#clip460)" d="M1491.1 172.021 L1491.1 195.493 L1484.71 195.493 L1484.71 172.229 Q1484.71 166.708 1482.56 163.965 Q1480.4 161.222 1476.1 161.222 Q1470.93 161.222 1467.94 164.521 Q1464.95 167.819 1464.95 173.514 L1464.95 195.493 L1458.53 195.493 L1458.53 156.604 L1464.95 156.604 L1464.95 162.646 Q1467.25 159.139 1470.34 157.403 Q1473.46 155.666 1477.52 155.666 Q1484.22 155.666 1487.66 159.833 Q1491.1 163.965 1491.1 172.021 Z" fill="#000000" fill-rule="nonzero" fill-opacity="1" /><path clip-path="url(#clip460)" d="M464.605 278.437 L596.336 278.437 L596.336 216.229 L464.605 216.229 L464.605 278.437  Z" fill="#ff0000" fill-rule="evenodd" fill-opacity="0.2"/>
<polyline clip-path="url(#clip460)" style="stroke:#ff0000; stroke-linecap:round; stroke-linejoin:round; stroke-width:6; stroke-opacity:0.2; fill:none" points="464.605,216.229 596.336,216.229 "/>
<path clip-path="url(#clip460)" d="M642.875 248.947 Q645.132 249.711 647.25 252.211 Q649.402 254.711 651.555 259.086 L658.673 273.253 L651.139 273.253 L644.507 259.954 Q641.937 254.746 639.507 253.044 Q637.111 251.343 632.944 251.343 L625.305 251.343 L625.305 273.253 L618.292 273.253 L618.292 221.413 L634.125 221.413 Q643.014 221.413 647.389 225.128 Q651.764 228.843 651.764 236.343 Q651.764 241.239 649.472 244.468 Q647.215 247.697 642.875 248.947 M625.305 227.176 L625.305 245.579 L634.125 245.579 Q639.194 245.579 641.764 243.253 Q644.368 240.892 644.368 236.343 Q644.368 231.795 641.764 229.503 Q639.194 227.176 634.125 227.176 L625.305 227.176 Z" fill="#000000" fill-rule="nonzero" fill-opacity="1" /><path clip-path="url(#clip460)" d="M683.534 253.704 Q675.791 253.704 672.805 255.475 Q669.819 257.246 669.819 261.517 Q669.819 264.919 672.041 266.933 Q674.298 268.912 678.152 268.912 Q683.465 268.912 686.659 265.162 Q689.888 261.378 689.888 255.128 L689.888 253.704 L683.534 253.704 M696.277 251.065 L696.277 273.253 L689.888 273.253 L689.888 267.35 Q687.701 270.892 684.437 272.593 Q681.173 274.26 676.451 274.26 Q670.479 274.26 666.937 270.926 Q663.43 267.558 663.43 261.933 Q663.43 255.371 667.805 252.037 Q672.215 248.704 680.93 248.704 L689.888 248.704 L689.888 248.079 Q689.888 243.669 686.972 241.274 Q684.09 238.843 678.847 238.843 Q675.513 238.843 672.354 239.642 Q669.194 240.44 666.277 242.038 L666.277 236.135 Q669.784 234.781 673.083 234.121 Q676.381 233.426 679.506 233.426 Q687.944 233.426 692.111 237.801 Q696.277 242.176 696.277 251.065 Z" fill="#000000" fill-rule="nonzero" fill-opacity="1" /><path clip-path="url(#clip460)" d="M741.763 249.781 L741.763 273.253 L735.374 273.253 L735.374 249.989 Q735.374 244.468 733.221 241.725 Q731.069 238.982 726.763 238.982 Q721.59 238.982 718.603 242.281 Q715.617 245.579 715.617 251.274 L715.617 273.253 L709.194 273.253 L709.194 219.225 L715.617 219.225 L715.617 240.406 Q717.909 236.899 720.999 235.163 Q724.124 233.426 728.187 233.426 Q734.888 233.426 738.326 237.593 Q741.763 241.725 741.763 249.781 Z" fill="#000000" fill-rule="nonzero" fill-opacity="1" /><path clip-path="url(#clip460)" d="M784.784 241.829 Q787.18 237.524 790.513 235.475 Q793.846 233.426 798.36 233.426 Q804.436 233.426 807.735 237.697 Q811.034 241.933 811.034 249.781 L811.034 273.253 L804.61 273.253 L804.61 249.989 Q804.61 244.399 802.631 241.69 Q800.652 238.982 796.589 238.982 Q791.624 238.982 788.742 242.281 Q785.86 245.579 785.86 251.274 L785.86 273.253 L779.436 273.253 L779.436 249.989 Q779.436 244.364 777.457 241.69 Q775.478 238.982 771.346 238.982 Q766.45 238.982 763.569 242.315 Q760.687 245.614 760.687 251.274 L760.687 273.253 L754.263 273.253 L754.263 234.364 L760.687 234.364 L760.687 240.406 Q762.874 236.829 765.93 235.128 Q768.985 233.426 773.187 233.426 Q777.423 233.426 780.374 235.579 Q783.36 237.732 784.784 241.829 Z" fill="#000000" fill-rule="nonzero" fill-opacity="1" /><path clip-path="url(#clip460)" d="M848.568 235.51 L848.568 241.551 Q845.86 240.163 842.943 239.468 Q840.026 238.774 836.901 238.774 Q832.145 238.774 829.749 240.232 Q827.388 241.69 827.388 244.607 Q827.388 246.829 829.089 248.114 Q830.79 249.364 835.929 250.51 L838.117 250.996 Q844.922 252.454 847.769 255.128 Q850.651 257.767 850.651 262.524 Q850.651 267.94 846.346 271.1 Q842.075 274.26 834.575 274.26 Q831.45 274.26 828.047 273.635 Q824.679 273.044 820.929 271.829 L820.929 265.232 Q824.471 267.072 827.908 268.01 Q831.346 268.912 834.714 268.912 Q839.228 268.912 841.658 267.385 Q844.089 265.822 844.089 263.01 Q844.089 260.405 842.318 259.017 Q840.582 257.628 834.645 256.343 L832.422 255.822 Q826.485 254.572 823.846 252.003 Q821.207 249.399 821.207 244.885 Q821.207 239.399 825.096 236.413 Q828.985 233.426 836.138 233.426 Q839.679 233.426 842.804 233.947 Q845.929 234.468 848.568 235.51 Z" fill="#000000" fill-rule="nonzero" fill-opacity="1" /><path clip-path="url(#clip460)" d="M867.144 223.322 L867.144 234.364 L880.304 234.364 L880.304 239.329 L867.144 239.329 L867.144 260.44 Q867.144 265.197 868.429 266.551 Q869.749 267.905 873.742 267.905 L880.304 267.905 L880.304 273.253 L873.742 273.253 Q866.346 273.253 863.533 270.51 Q860.721 267.732 860.721 260.44 L860.721 239.329 L856.033 239.329 L856.033 234.364 L860.721 234.364 L860.721 223.322 L867.144 223.322 Z" fill="#000000" fill-rule="nonzero" fill-opacity="1" /><path clip-path="url(#clip460)" d="M903.776 238.843 Q898.637 238.843 895.651 242.871 Q892.665 246.864 892.665 253.843 Q892.665 260.822 895.616 264.85 Q898.603 268.843 903.776 268.843 Q908.88 268.843 911.866 264.815 Q914.852 260.787 914.852 253.843 Q914.852 246.933 911.866 242.906 Q908.88 238.843 903.776 238.843 M903.776 233.426 Q912.109 233.426 916.866 238.843 Q921.623 244.26 921.623 253.843 Q921.623 263.392 916.866 268.843 Q912.109 274.26 903.776 274.26 Q895.408 274.26 890.651 268.843 Q885.929 263.392 885.929 253.843 Q885.929 244.26 890.651 238.843 Q895.408 233.426 903.776 233.426 Z" fill="#000000" fill-rule="nonzero" fill-opacity="1" /><path clip-path="url(#clip460)" d="M954.748 240.336 Q953.672 239.711 952.387 239.433 Q951.137 239.121 949.609 239.121 Q944.193 239.121 941.276 242.663 Q938.394 246.169 938.394 252.767 L938.394 273.253 L931.97 273.253 L931.97 234.364 L938.394 234.364 L938.394 240.406 Q940.408 236.864 943.637 235.163 Q946.866 233.426 951.484 233.426 Q952.144 233.426 952.943 233.531 Q953.741 233.6 954.713 233.774 L954.748 240.336 Z" fill="#000000" fill-rule="nonzero" fill-opacity="1" /><path clip-path="url(#clip460)" d="M981.137 219.225 L981.137 224.538 L975.026 224.538 Q971.588 224.538 970.234 225.926 Q968.915 227.315 968.915 230.926 L968.915 234.364 L979.435 234.364 L979.435 239.329 L968.915 239.329 L968.915 273.253 L962.491 273.253 L962.491 239.329 L956.38 239.329 L956.38 234.364 L962.491 234.364 L962.491 231.656 Q962.491 225.163 965.512 222.211 Q968.533 219.225 975.095 219.225 L981.137 219.225 Z" fill="#000000" fill-rule="nonzero" fill-opacity="1" /><path clip-path="url(#clip460)" d="M1009.37 221.413 L1019.82 221.413 L1033.05 256.69 L1046.34 221.413 L1056.8 221.413 L1056.8 273.253 L1049.96 273.253 L1049.96 227.732 L1036.59 263.287 L1029.54 263.287 L1016.17 227.732 L1016.17 273.253 L1009.37 273.253 L1009.37 221.413 Z" fill="#000000" fill-rule="nonzero" fill-opacity="1" /><path clip-path="url(#clip460)" d="M1085.51 238.843 Q1080.37 238.843 1077.39 242.871 Q1074.4 246.864 1074.4 253.843 Q1074.4 260.822 1077.35 264.85 Q1080.34 268.843 1085.51 268.843 Q1090.62 268.843 1093.6 264.815 Q1096.59 260.787 1096.59 253.843 Q1096.59 246.933 1093.6 242.906 Q1090.62 238.843 1085.51 238.843 M1085.51 233.426 Q1093.84 233.426 1098.6 238.843 Q1103.36 244.26 1103.36 253.843 Q1103.36 263.392 1098.6 268.843 Q1093.84 274.26 1085.51 274.26 Q1077.14 274.26 1072.39 268.843 Q1067.66 263.392 1067.66 253.843 Q1067.66 244.26 1072.39 238.843 Q1077.14 233.426 1085.51 233.426 Z" fill="#000000" fill-rule="nonzero" fill-opacity="1" /><path clip-path="url(#clip460)" d="M1139.54 240.267 L1139.54 219.225 L1145.93 219.225 L1145.93 273.253 L1139.54 273.253 L1139.54 267.419 Q1137.52 270.892 1134.43 272.593 Q1131.38 274.26 1127.07 274.26 Q1120.02 274.26 1115.58 268.635 Q1111.17 263.01 1111.17 253.843 Q1111.17 244.676 1115.58 239.051 Q1120.02 233.426 1127.07 233.426 Q1131.38 233.426 1134.43 235.128 Q1137.52 236.794 1139.54 240.267 M1117.77 253.843 Q1117.77 260.892 1120.65 264.919 Q1123.57 268.912 1128.64 268.912 Q1133.71 268.912 1136.62 264.919 Q1139.54 260.892 1139.54 253.843 Q1139.54 246.794 1136.62 242.801 Q1133.71 238.774 1128.64 238.774 Q1123.57 238.774 1120.65 242.801 Q1117.77 246.794 1117.77 253.843 Z" fill="#000000" fill-rule="nonzero" fill-opacity="1" /><path clip-path="url(#clip460)" d="M1192.35 252.211 L1192.35 255.336 L1162.98 255.336 Q1163.39 261.933 1166.93 265.405 Q1170.51 268.843 1176.86 268.843 Q1180.55 268.843 1183.98 267.94 Q1187.46 267.037 1190.86 265.232 L1190.86 271.273 Q1187.42 272.732 1183.81 273.496 Q1180.2 274.26 1176.48 274.26 Q1167.18 274.26 1161.73 268.843 Q1156.31 263.426 1156.31 254.19 Q1156.31 244.642 1161.45 239.051 Q1166.62 233.426 1175.37 233.426 Q1183.22 233.426 1187.77 238.496 Q1192.35 243.531 1192.35 252.211 M1185.96 250.336 Q1185.89 245.093 1183.01 241.968 Q1180.16 238.843 1175.44 238.843 Q1170.09 238.843 1166.86 241.864 Q1163.67 244.885 1163.18 250.371 L1185.96 250.336 Z" fill="#000000" fill-rule="nonzero" fill-opacity="1" /><path clip-path="url(#clip460)" d="M1202.84 219.225 L1209.23 219.225 L1209.23 273.253 L1202.84 273.253 L1202.84 219.225 Z" fill="#000000" fill-rule="nonzero" fill-opacity="1" /><path clip-path="url(#clip460)" d="M1246.31 272.176 L1246.31 265.787 Q1248.95 267.037 1251.66 267.697 Q1254.36 268.357 1256.97 268.357 Q1263.91 268.357 1267.56 263.704 Q1271.24 259.017 1271.76 249.503 Q1269.75 252.489 1266.66 254.086 Q1263.57 255.683 1259.82 255.683 Q1252.04 255.683 1247.49 250.996 Q1242.98 246.274 1242.98 238.114 Q1242.98 230.128 1247.7 225.301 Q1252.42 220.475 1260.27 220.475 Q1269.26 220.475 1273.98 227.385 Q1278.74 234.26 1278.74 247.385 Q1278.74 259.642 1272.91 266.968 Q1267.11 274.26 1257.28 274.26 Q1254.64 274.26 1251.93 273.739 Q1249.23 273.218 1246.31 272.176 M1260.27 250.197 Q1264.99 250.197 1267.73 246.968 Q1270.51 243.739 1270.51 238.114 Q1270.51 232.524 1267.73 229.295 Q1264.99 226.031 1260.27 226.031 Q1255.55 226.031 1252.77 229.295 Q1250.02 232.524 1250.02 238.114 Q1250.02 243.739 1252.77 246.968 Q1255.55 250.197 1260.27 250.197 Z" fill="#000000" fill-rule="nonzero" fill-opacity="1" /><path clip-path="url(#clip460)" d="M1291.41 221.413 L1318.95 221.413 L1318.95 227.315 L1297.84 227.315 L1297.84 240.024 Q1299.36 239.503 1300.89 239.26 Q1302.42 238.982 1303.95 238.982 Q1312.63 238.982 1317.7 243.739 Q1322.77 248.496 1322.77 256.621 Q1322.77 264.989 1317.56 269.642 Q1312.35 274.26 1302.87 274.26 Q1299.61 274.26 1296.2 273.704 Q1292.84 273.148 1289.23 272.037 L1289.23 264.989 Q1292.35 266.69 1295.68 267.523 Q1299.02 268.357 1302.73 268.357 Q1308.74 268.357 1312.25 265.197 Q1315.75 262.037 1315.75 256.621 Q1315.75 251.204 1312.25 248.044 Q1308.74 244.885 1302.73 244.885 Q1299.92 244.885 1297.11 245.51 Q1294.33 246.135 1291.41 247.454 L1291.41 221.413 Z" fill="#000000" fill-rule="nonzero" fill-opacity="1" /><path clip-path="url(#clip460)" d="M1380.68 250.44 Q1377.66 250.44 1375.93 253.01 Q1374.22 255.579 1374.22 260.162 Q1374.22 264.676 1375.93 267.28 Q1377.66 269.85 1380.68 269.85 Q1383.63 269.85 1385.34 267.28 Q1387.07 264.676 1387.07 260.162 Q1387.07 255.614 1385.34 253.044 Q1383.63 250.44 1380.68 250.44 M1380.68 246.031 Q1386.17 246.031 1389.4 249.85 Q1392.63 253.669 1392.63 260.162 Q1392.63 266.655 1389.36 270.475 Q1386.13 274.26 1380.68 274.26 Q1375.13 274.26 1371.9 270.475 Q1368.67 266.655 1368.67 260.162 Q1368.67 253.635 1371.9 249.85 Q1375.16 246.031 1380.68 246.031 M1344.85 224.885 Q1341.86 224.885 1340.13 227.489 Q1338.43 230.058 1338.43 234.572 Q1338.43 239.156 1340.13 241.725 Q1341.83 244.294 1344.85 244.294 Q1347.87 244.294 1349.57 241.725 Q1351.31 239.156 1351.31 234.572 Q1351.31 230.093 1349.57 227.489 Q1347.84 224.885 1344.85 224.885 M1376.2 220.475 L1381.76 220.475 L1349.33 274.26 L1343.77 274.26 L1376.2 220.475 M1344.85 220.475 Q1350.34 220.475 1353.6 224.295 Q1356.86 228.079 1356.86 234.572 Q1356.86 241.135 1353.6 244.919 Q1350.37 248.704 1344.85 248.704 Q1339.33 248.704 1336.1 244.919 Q1332.91 241.1 1332.91 234.572 Q1332.91 228.114 1336.13 224.295 Q1339.36 220.475 1344.85 220.475 Z" fill="#000000" fill-rule="nonzero" fill-opacity="1" /><path clip-path="url(#clip460)" d="M1464.95 225.406 L1464.95 232.801 Q1461.41 229.503 1457.38 227.871 Q1453.39 226.239 1448.88 226.239 Q1439.99 226.239 1435.27 231.69 Q1430.54 237.107 1430.54 247.385 Q1430.54 257.628 1435.27 263.079 Q1439.99 268.496 1448.88 268.496 Q1453.39 268.496 1457.38 266.864 Q1461.41 265.232 1464.95 261.933 L1464.95 269.26 Q1461.27 271.76 1457.14 273.01 Q1453.04 274.26 1448.46 274.26 Q1436.69 274.26 1429.92 267.072 Q1423.15 259.85 1423.15 247.385 Q1423.15 234.885 1429.92 227.697 Q1436.69 220.475 1448.46 220.475 Q1453.11 220.475 1457.21 221.725 Q1461.34 222.94 1464.95 225.406 Z" fill="#000000" fill-rule="nonzero" fill-opacity="1" /><path clip-path="url(#clip460)" d="M1475.79 221.413 L1482.8 221.413 L1482.8 273.253 L1475.79 273.253 L1475.79 221.413 Z" fill="#000000" fill-rule="nonzero" fill-opacity="1" /><circle clip-path="url(#clip460)" cx="530.471" cy="325.093" r="30.72" fill="#000000" fill-rule="evenodd" fill-opacity="1" stroke="none"/>
<path clip-path="url(#clip460)" d="M642.875 326.707 Q645.132 327.471 647.25 329.971 Q649.402 332.471 651.555 336.846 L658.673 351.013 L651.139 351.013 L644.507 337.714 Q641.937 332.506 639.507 330.804 Q637.111 329.103 632.944 329.103 L625.305 329.103 L625.305 351.013 L618.292 351.013 L618.292 299.173 L634.125 299.173 Q643.014 299.173 647.389 302.888 Q651.764 306.603 651.764 314.103 Q651.764 318.999 649.472 322.228 Q647.215 325.457 642.875 326.707 M625.305 304.936 L625.305 323.339 L634.125 323.339 Q639.194 323.339 641.764 321.013 Q644.368 318.652 644.368 314.103 Q644.368 309.555 641.764 307.263 Q639.194 304.936 634.125 304.936 L625.305 304.936 Z" fill="#000000" fill-rule="nonzero" fill-opacity="1" /><path clip-path="url(#clip460)" d="M697.492 329.971 L697.492 333.096 L668.118 333.096 Q668.534 339.693 672.076 343.165 Q675.652 346.603 682.006 346.603 Q685.687 346.603 689.124 345.7 Q692.597 344.797 695.999 342.992 L695.999 349.033 Q692.562 350.492 688.951 351.256 Q685.34 352.02 681.625 352.02 Q672.319 352.02 666.868 346.603 Q661.451 341.186 661.451 331.95 Q661.451 322.402 666.59 316.811 Q671.763 311.186 680.513 311.186 Q688.361 311.186 692.909 316.256 Q697.492 321.291 697.492 329.971 M691.104 328.096 Q691.034 322.853 688.152 319.728 Q685.305 316.603 680.583 316.603 Q675.236 316.603 672.007 319.624 Q668.812 322.645 668.326 328.131 L691.104 328.096 Z" fill="#000000" fill-rule="nonzero" fill-opacity="1" /><path clip-path="url(#clip460)" d="M735.965 313.617 L735.965 319.589 Q733.256 318.096 730.513 317.367 Q727.805 316.603 725.027 316.603 Q718.812 316.603 715.374 320.561 Q711.937 324.485 711.937 331.603 Q711.937 338.721 715.374 342.679 Q718.812 346.603 725.027 346.603 Q727.805 346.603 730.513 345.874 Q733.256 345.11 735.965 343.617 L735.965 349.52 Q733.291 350.77 730.409 351.395 Q727.562 352.02 724.333 352.02 Q715.548 352.02 710.374 346.499 Q705.201 340.978 705.201 331.603 Q705.201 322.089 710.409 316.638 Q715.652 311.186 724.749 311.186 Q727.701 311.186 730.513 311.811 Q733.326 312.402 735.965 313.617 Z" fill="#000000" fill-rule="nonzero" fill-opacity="1" /><path clip-path="url(#clip460)" d="M762.145 316.603 Q757.006 316.603 754.02 320.631 Q751.034 324.624 751.034 331.603 Q751.034 338.582 753.985 342.61 Q756.971 346.603 762.145 346.603 Q767.249 346.603 770.235 342.575 Q773.221 338.547 773.221 331.603 Q773.221 324.693 770.235 320.666 Q767.249 316.603 762.145 316.603 M762.145 311.186 Q770.478 311.186 775.235 316.603 Q779.992 322.02 779.992 331.603 Q779.992 341.152 775.235 346.603 Q770.478 352.02 762.145 352.02 Q753.777 352.02 749.02 346.603 Q744.298 341.152 744.298 331.603 Q744.298 322.02 749.02 316.603 Q753.777 311.186 762.145 311.186 Z" fill="#000000" fill-rule="nonzero" fill-opacity="1" /><path clip-path="url(#clip460)" d="M822.908 327.541 L822.908 351.013 L816.52 351.013 L816.52 327.749 Q816.52 322.228 814.367 319.485 Q812.214 316.742 807.909 316.742 Q802.735 316.742 799.749 320.041 Q796.763 323.339 796.763 329.034 L796.763 351.013 L790.339 351.013 L790.339 312.124 L796.763 312.124 L796.763 318.166 Q799.054 314.659 802.145 312.923 Q805.27 311.186 809.332 311.186 Q816.034 311.186 819.471 315.353 Q822.908 319.485 822.908 327.541 Z" fill="#000000" fill-rule="nonzero" fill-opacity="1" /><path clip-path="url(#clip460)" d="M860.443 313.27 L860.443 319.311 Q857.735 317.923 854.818 317.228 Q851.901 316.534 848.776 316.534 Q844.019 316.534 841.624 317.992 Q839.263 319.45 839.263 322.367 Q839.263 324.589 840.964 325.874 Q842.665 327.124 847.804 328.27 L849.992 328.756 Q856.797 330.214 859.644 332.888 Q862.526 335.527 862.526 340.284 Q862.526 345.7 858.221 348.86 Q853.95 352.02 846.45 352.02 Q843.325 352.02 839.922 351.395 Q836.554 350.804 832.804 349.589 L832.804 342.992 Q836.346 344.832 839.783 345.77 Q843.221 346.672 846.589 346.672 Q851.103 346.672 853.533 345.145 Q855.964 343.582 855.964 340.77 Q855.964 338.165 854.193 336.777 Q852.457 335.388 846.519 334.103 L844.297 333.582 Q838.36 332.332 835.721 329.763 Q833.082 327.159 833.082 322.645 Q833.082 317.159 836.971 314.173 Q840.86 311.186 848.013 311.186 Q851.554 311.186 854.679 311.707 Q857.804 312.228 860.443 313.27 Z" fill="#000000" fill-rule="nonzero" fill-opacity="1" /><path clip-path="url(#clip460)" d="M879.019 301.082 L879.019 312.124 L892.179 312.124 L892.179 317.089 L879.019 317.089 L879.019 338.2 Q879.019 342.957 880.304 344.311 Q881.623 345.665 885.616 345.665 L892.179 345.665 L892.179 351.013 L885.616 351.013 Q878.221 351.013 875.408 348.27 Q872.596 345.492 872.596 338.2 L872.596 317.089 L867.908 317.089 L867.908 312.124 L872.596 312.124 L872.596 301.082 L879.019 301.082 Z" fill="#000000" fill-rule="nonzero" fill-opacity="1" /><path clip-path="url(#clip460)" d="M923.116 318.096 Q922.04 317.471 920.755 317.193 Q919.505 316.881 917.977 316.881 Q912.561 316.881 909.644 320.423 Q906.762 323.929 906.762 330.527 L906.762 351.013 L900.339 351.013 L900.339 312.124 L906.762 312.124 L906.762 318.166 Q908.776 314.624 912.005 312.923 Q915.234 311.186 919.852 311.186 Q920.512 311.186 921.311 311.291 Q922.109 311.36 923.082 311.534 L923.116 318.096 Z" fill="#000000" fill-rule="nonzero" fill-opacity="1" /><path clip-path="url(#clip460)" d="M929.158 335.665 L929.158 312.124 L935.547 312.124 L935.547 335.422 Q935.547 340.943 937.7 343.721 Q939.852 346.464 944.158 346.464 Q949.331 346.464 952.318 343.165 Q955.338 339.867 955.338 334.172 L955.338 312.124 L961.727 312.124 L961.727 351.013 L955.338 351.013 L955.338 345.04 Q953.012 348.582 949.922 350.318 Q946.866 352.02 942.804 352.02 Q936.102 352.02 932.63 347.853 Q929.158 343.686 929.158 335.665 M945.234 311.186 L945.234 311.186 Z" fill="#000000" fill-rule="nonzero" fill-opacity="1" /><path clip-path="url(#clip460)" d="M1002.87 313.617 L1002.87 319.589 Q1000.16 318.096 997.421 317.367 Q994.713 316.603 991.935 316.603 Q985.72 316.603 982.283 320.561 Q978.845 324.485 978.845 331.603 Q978.845 338.721 982.283 342.679 Q985.72 346.603 991.935 346.603 Q994.713 346.603 997.421 345.874 Q1000.16 345.11 1002.87 343.617 L1002.87 349.52 Q1000.2 350.77 997.317 351.395 Q994.47 352.02 991.241 352.02 Q982.456 352.02 977.283 346.499 Q972.109 340.978 972.109 331.603 Q972.109 322.089 977.317 316.638 Q982.56 311.186 991.658 311.186 Q994.609 311.186 997.421 311.811 Q1000.23 312.402 1002.87 313.617 Z" fill="#000000" fill-rule="nonzero" fill-opacity="1" /><path clip-path="url(#clip460)" d="M1020.3 301.082 L1020.3 312.124 L1033.46 312.124 L1033.46 317.089 L1020.3 317.089 L1020.3 338.2 Q1020.3 342.957 1021.59 344.311 Q1022.91 345.665 1026.9 345.665 L1033.46 345.665 L1033.46 351.013 L1026.9 351.013 Q1019.5 351.013 1016.69 348.27 Q1013.88 345.492 1013.88 338.2 L1013.88 317.089 L1009.19 317.089 L1009.19 312.124 L1013.88 312.124 L1013.88 301.082 L1020.3 301.082 Z" fill="#000000" fill-rule="nonzero" fill-opacity="1" /><path clip-path="url(#clip460)" d="M1075.13 329.971 L1075.13 333.096 L1045.75 333.096 Q1046.17 339.693 1049.71 343.165 Q1053.29 346.603 1059.64 346.603 Q1063.32 346.603 1066.76 345.7 Q1070.23 344.797 1073.64 342.992 L1073.64 349.033 Q1070.2 350.492 1066.59 351.256 Q1062.98 352.02 1059.26 352.02 Q1049.96 352.02 1044.5 346.603 Q1039.09 341.186 1039.09 331.95 Q1039.09 322.402 1044.23 316.811 Q1049.4 311.186 1058.15 311.186 Q1066 311.186 1070.55 316.256 Q1075.13 321.291 1075.13 329.971 M1068.74 328.096 Q1068.67 322.853 1065.79 319.728 Q1062.94 316.603 1058.22 316.603 Q1052.87 316.603 1049.64 319.624 Q1046.45 322.645 1045.96 328.131 L1068.74 328.096 Z" fill="#000000" fill-rule="nonzero" fill-opacity="1" /><path clip-path="url(#clip460)" d="M1111.21 318.027 L1111.21 296.985 L1117.59 296.985 L1117.59 351.013 L1111.21 351.013 L1111.21 345.179 Q1109.19 348.652 1106.1 350.353 Q1103.05 352.02 1098.74 352.02 Q1091.69 352.02 1087.25 346.395 Q1082.84 340.77 1082.84 331.603 Q1082.84 322.436 1087.25 316.811 Q1091.69 311.186 1098.74 311.186 Q1103.05 311.186 1106.1 312.888 Q1109.19 314.554 1111.21 318.027 M1089.43 331.603 Q1089.43 338.652 1092.32 342.679 Q1095.23 346.672 1100.3 346.672 Q1105.37 346.672 1108.29 342.679 Q1111.21 338.652 1111.21 331.603 Q1111.21 324.554 1108.29 320.561 Q1105.37 316.534 1100.3 316.534 Q1095.23 316.534 1092.32 320.561 Q1089.43 324.554 1089.43 331.603 Z" fill="#000000" fill-rule="nonzero" fill-opacity="1" /><path clip-path="url(#clip460)" d="M1160.65 304.936 L1160.65 345.249 L1169.12 345.249 Q1179.85 345.249 1184.82 340.388 Q1189.82 335.527 1189.82 325.041 Q1189.82 314.624 1184.82 309.798 Q1179.85 304.936 1169.12 304.936 L1160.65 304.936 M1153.64 299.173 L1168.05 299.173 Q1183.11 299.173 1190.16 305.457 Q1197.21 311.707 1197.21 325.041 Q1197.21 338.443 1190.13 344.728 Q1183.05 351.013 1168.05 351.013 L1153.64 351.013 L1153.64 299.173 Z" fill="#000000" fill-rule="nonzero" fill-opacity="1" /><path clip-path="url(#clip460)" d="M1225.79 331.464 Q1218.05 331.464 1215.06 333.235 Q1212.07 335.006 1212.07 339.277 Q1212.07 342.679 1214.3 344.693 Q1216.55 346.672 1220.41 346.672 Q1225.72 346.672 1228.91 342.922 Q1232.14 339.138 1232.14 332.888 L1232.14 331.464 L1225.79 331.464 M1238.53 328.825 L1238.53 351.013 L1232.14 351.013 L1232.14 345.11 Q1229.95 348.652 1226.69 350.353 Q1223.43 352.02 1218.7 352.02 Q1212.73 352.02 1209.19 348.686 Q1205.68 345.318 1205.68 339.693 Q1205.68 333.131 1210.06 329.797 Q1214.47 326.464 1223.18 326.464 L1232.14 326.464 L1232.14 325.839 Q1232.14 321.429 1229.23 319.034 Q1226.34 316.603 1221.1 316.603 Q1217.77 316.603 1214.61 317.402 Q1211.45 318.2 1208.53 319.798 L1208.53 313.895 Q1212.04 312.541 1215.34 311.881 Q1218.64 311.186 1221.76 311.186 Q1230.2 311.186 1234.36 315.561 Q1238.53 319.936 1238.53 328.825 Z" fill="#000000" fill-rule="nonzero" fill-opacity="1" /><path clip-path="url(#clip460)" d="M1258.01 301.082 L1258.01 312.124 L1271.17 312.124 L1271.17 317.089 L1258.01 317.089 L1258.01 338.2 Q1258.01 342.957 1259.3 344.311 Q1260.61 345.665 1264.61 345.665 L1271.17 345.665 L1271.17 351.013 L1264.61 351.013 Q1257.21 351.013 1254.4 348.27 Q1251.59 345.492 1251.59 338.2 L1251.59 317.089 L1246.9 317.089 L1246.9 312.124 L1251.59 312.124 L1251.59 301.082 L1258.01 301.082 Z" fill="#000000" fill-rule="nonzero" fill-opacity="1" /><path clip-path="url(#clip460)" d="M1297.25 331.464 Q1289.5 331.464 1286.52 333.235 Q1283.53 335.006 1283.53 339.277 Q1283.53 342.679 1285.75 344.693 Q1288.01 346.672 1291.86 346.672 Q1297.18 346.672 1300.37 342.922 Q1303.6 339.138 1303.6 332.888 L1303.6 331.464 L1297.25 331.464 M1309.99 328.825 L1309.99 351.013 L1303.6 351.013 L1303.6 345.11 Q1301.41 348.652 1298.15 350.353 Q1294.89 352.02 1290.16 352.02 Q1284.19 352.02 1280.65 348.686 Q1277.14 345.318 1277.14 339.693 Q1277.14 333.131 1281.52 329.797 Q1285.93 326.464 1294.64 326.464 L1303.6 326.464 L1303.6 325.839 Q1303.6 321.429 1300.68 319.034 Q1297.8 316.603 1292.56 316.603 Q1289.23 316.603 1286.07 317.402 Q1282.91 318.2 1279.99 319.798 L1279.99 313.895 Q1283.5 312.541 1286.79 311.881 Q1290.09 311.186 1293.22 311.186 Q1301.66 311.186 1305.82 315.561 Q1309.99 319.936 1309.99 328.825 Z" fill="#000000" fill-rule="nonzero" fill-opacity="1" /></svg>
