<?xml version="1.0" encoding="utf-8"?>
<svg xmlns="http://www.w3.org/2000/svg" xmlns:xlink="http://www.w3.org/1999/xlink" width="600" height="400" viewBox="0 0 2400 1600">
<defs>
  <clipPath id="clip070">
    <rect x="0" y="0" width="2400" height="1600"/>
  </clipPath>
</defs>
<path clip-path="url(#clip070)" d="
M0 1600 L2400 1600 L2400 0 L0 0  Z
  " fill="#ffffff" fill-rule="evenodd" fill-opacity="1"/>
<defs>
  <clipPath id="clip071">
    <rect x="480" y="0" width="1681" height="1600"/>
  </clipPath>
</defs>
<path clip-path="url(#clip070)" d="
M276.269 1384.3 L2352.76 1384.3 L2352.76 47.2441 L276.269 47.2441  Z
  " fill="#ffffff" fill-rule="evenodd" fill-opacity="1"/>
<defs>
  <clipPath id="clip072">
    <rect x="276" y="47" width="2077" height="1338"/>
  </clipPath>
</defs>
<polyline clip-path="url(#clip072)" style="stroke:#000000; stroke-linecap:round; stroke-linejoin:round; stroke-width:2; stroke-opacity:0.1; fill:none" points="
  335.038,1384.3 335.038,47.2441 
  "/>
<polyline clip-path="url(#clip072)" style="stroke:#000000; stroke-linecap:round; stroke-linejoin:round; stroke-width:2; stroke-opacity:0.1; fill:none" points="
  824.775,1384.3 824.775,47.2441 
  "/>
<polyline clip-path="url(#clip072)" style="stroke:#000000; stroke-linecap:round; stroke-linejoin:round; stroke-width:2; stroke-opacity:0.1; fill:none" points="
  1314.51,1384.3 1314.51,47.2441 
  "/>
<polyline clip-path="url(#clip072)" style="stroke:#000000; stroke-linecap:round; stroke-linejoin:round; stroke-width:2; stroke-opacity:0.1; fill:none" points="
  1804.25,1384.3 1804.25,47.2441 
  "/>
<polyline clip-path="url(#clip072)" style="stroke:#000000; stroke-linecap:round; stroke-linejoin:round; stroke-width:2; stroke-opacity:0.1; fill:none" points="
  2293.99,1384.3 2293.99,47.2441 
  "/>
<polyline clip-path="url(#clip070)" style="stroke:#000000; stroke-linecap:round; stroke-linejoin:round; stroke-width:4; stroke-opacity:1; fill:none" points="
  276.269,1384.3 2352.76,1384.3 
  "/>
<polyline clip-path="url(#clip070)" style="stroke:#000000; stroke-linecap:round; stroke-linejoin:round; stroke-width:4; stroke-opacity:1; fill:none" points="
  335.038,1384.3 335.038,1365.4 
  "/>
<polyline clip-path="url(#clip070)" style="stroke:#000000; stroke-linecap:round; stroke-linejoin:round; stroke-width:4; stroke-opacity:1; fill:none" points="
  824.775,1384.3 824.775,1365.4 
  "/>
<polyline clip-path="url(#clip070)" style="stroke:#000000; stroke-linecap:round; stroke-linejoin:round; stroke-width:4; stroke-opacity:1; fill:none" points="
  1314.51,1384.3 1314.51,1365.4 
  "/>
<polyline clip-path="url(#clip070)" style="stroke:#000000; stroke-linecap:round; stroke-linejoin:round; stroke-width:4; stroke-opacity:1; fill:none" points="
  1804.25,1384.3 1804.25,1365.4 
  "/>
<polyline clip-path="url(#clip070)" style="stroke:#000000; stroke-linecap:round; stroke-linejoin:round; stroke-width:4; stroke-opacity:1; fill:none" points="
  2293.99,1384.3 2293.99,1365.4 
  "/>
<path clip-path="url(#clip070)" d="M320.611 1462.4 L332.069 1462.4 L332.069 1422.85 L319.604 1425.35 L319.604 1418.96 L332 1416.46 L339.013 1416.46 L339.013 1462.4 L350.472 1462.4 L350.472 1468.3 L320.611 1468.3 L320.611 1462.4 Z" fill="#000000" fill-rule="evenodd" fill-opacity="1" /><path clip-path="url(#clip070)" d="M816.754 1462.4 L841.233 1462.4 L841.233 1468.3 L808.317 1468.3 L808.317 1462.4 Q812.31 1458.27 819.185 1451.32 Q826.095 1444.34 827.865 1442.33 Q831.234 1438.54 832.553 1435.94 Q833.907 1433.3 833.907 1430.77 Q833.907 1426.63 830.99 1424.03 Q828.109 1421.43 823.456 1421.43 Q820.157 1421.43 816.477 1422.57 Q812.831 1423.72 808.664 1426.04 L808.664 1418.96 Q812.9 1417.26 816.581 1416.39 Q820.261 1415.52 823.317 1415.52 Q831.372 1415.52 836.164 1419.55 Q840.956 1423.58 840.956 1430.31 Q840.956 1433.51 839.74 1436.39 Q838.56 1439.24 835.4 1443.13 Q834.532 1444.13 829.879 1448.96 Q825.227 1453.75 816.754 1462.4 Z" fill="#000000" fill-rule="evenodd" fill-opacity="1" /><path clip-path="url(#clip070)" d="M1320.88 1440.35 Q1325.92 1441.42 1328.73 1444.83 Q1331.58 1448.23 1331.58 1453.23 Q1331.58 1460.9 1326.3 1465.11 Q1321.02 1469.31 1311.3 1469.31 Q1308.04 1469.31 1304.56 1468.65 Q1301.13 1468.02 1297.45 1466.74 L1297.45 1459.97 Q1300.36 1461.67 1303.84 1462.54 Q1307.31 1463.4 1311.09 1463.4 Q1317.69 1463.4 1321.13 1460.8 Q1324.6 1458.2 1324.6 1453.23 Q1324.6 1448.65 1321.37 1446.08 Q1318.18 1443.47 1312.45 1443.47 L1306.41 1443.47 L1306.41 1437.71 L1312.72 1437.71 Q1317.9 1437.71 1320.64 1435.66 Q1323.38 1433.58 1323.38 1429.69 Q1323.38 1425.7 1320.54 1423.58 Q1317.72 1421.43 1312.45 1421.43 Q1309.56 1421.43 1306.27 1422.05 Q1302.97 1422.68 1299.01 1423.99 L1299.01 1417.74 Q1303 1416.63 1306.47 1416.08 Q1309.98 1415.52 1313.07 1415.52 Q1321.06 1415.52 1325.71 1419.17 Q1330.36 1422.78 1330.36 1428.96 Q1330.36 1433.27 1327.9 1436.25 Q1325.43 1439.2 1320.88 1440.35 Z" fill="#000000" fill-rule="evenodd" fill-opacity="1" /><path clip-path="url(#clip070)" d="M1808.76 1422.57 L1791.06 1450.24 L1808.76 1450.24 L1808.76 1422.57 M1806.92 1416.46 L1815.74 1416.46 L1815.74 1450.24 L1823.14 1450.24 L1823.14 1456.08 L1815.74 1456.08 L1815.74 1468.3 L1808.76 1468.3 L1808.76 1456.08 L1785.36 1456.08 L1785.36 1449.31 L1806.92 1416.46 Z" fill="#000000" fill-rule="evenodd" fill-opacity="1" /><path clip-path="url(#clip070)" d="M2279.4 1416.46 L2306.94 1416.46 L2306.94 1422.36 L2285.83 1422.36 L2285.83 1435.07 Q2287.36 1434.55 2288.88 1434.31 Q2290.41 1434.03 2291.94 1434.03 Q2300.62 1434.03 2305.69 1438.79 Q2310.76 1443.54 2310.76 1451.67 Q2310.76 1460.04 2305.55 1464.69 Q2300.34 1469.31 2290.86 1469.31 Q2287.6 1469.31 2284.2 1468.75 Q2280.83 1468.2 2277.22 1467.08 L2277.22 1460.04 Q2280.34 1461.74 2283.67 1462.57 Q2287.01 1463.4 2290.72 1463.4 Q2296.73 1463.4 2300.24 1460.24 Q2303.74 1457.08 2303.74 1451.67 Q2303.74 1446.25 2300.24 1443.09 Q2296.73 1439.93 2290.72 1439.93 Q2287.91 1439.93 2285.1 1440.56 Q2282.32 1441.18 2279.4 1442.5 L2279.4 1416.46 Z" fill="#000000" fill-rule="evenodd" fill-opacity="1" /><path clip-path="url(#clip070)" d="M1237.92 1511.88 L1247.27 1511.88 L1247.27 1573.13 L1280.92 1573.13 L1280.92 1581 L1237.92 1581 L1237.92 1511.88 Z" fill="#000000" fill-rule="evenodd" fill-opacity="1" /><path clip-path="url(#clip070)" d="M1313.93 1554.94 Q1303.61 1554.94 1299.63 1557.3 Q1295.65 1559.66 1295.65 1565.36 Q1295.65 1569.89 1298.61 1572.58 Q1301.62 1575.22 1306.76 1575.22 Q1313.84 1575.22 1318.1 1570.22 Q1322.41 1565.17 1322.41 1556.84 L1322.41 1554.94 L1313.93 1554.94 M1330.92 1551.42 L1330.92 1581 L1322.41 1581 L1322.41 1573.13 Q1319.49 1577.86 1315.14 1580.12 Q1310.79 1582.35 1304.49 1582.35 Q1296.53 1582.35 1291.8 1577.9 Q1287.13 1573.41 1287.13 1565.91 Q1287.13 1557.16 1292.96 1552.72 Q1298.84 1548.27 1310.46 1548.27 L1322.41 1548.27 L1322.41 1547.44 Q1322.41 1541.56 1318.52 1538.37 Q1314.67 1535.12 1307.68 1535.12 Q1303.24 1535.12 1299.03 1536.19 Q1294.81 1537.25 1290.92 1539.38 L1290.92 1531.51 Q1295.6 1529.71 1300 1528.83 Q1304.4 1527.9 1308.56 1527.9 Q1319.81 1527.9 1325.37 1533.74 Q1330.92 1539.57 1330.92 1551.42 Z" fill="#000000" fill-rule="evenodd" fill-opacity="1" /><path clip-path="url(#clip070)" d="M1382.59 1554.48 Q1382.59 1545.22 1378.75 1540.12 Q1374.95 1535.03 1368.05 1535.03 Q1361.2 1535.03 1357.36 1540.12 Q1353.56 1545.22 1353.56 1554.48 Q1353.56 1563.69 1357.36 1568.78 Q1361.2 1573.87 1368.05 1573.87 Q1374.95 1573.87 1378.75 1568.78 Q1382.59 1563.69 1382.59 1554.48 M1391.11 1574.57 Q1391.11 1587.81 1385.23 1594.24 Q1379.35 1600.73 1367.22 1600.73 Q1362.73 1600.73 1358.75 1600.03 Q1354.77 1599.38 1351.02 1597.99 L1351.02 1589.71 Q1354.77 1591.74 1358.42 1592.72 Q1362.08 1593.69 1365.88 1593.69 Q1374.26 1593.69 1378.42 1589.29 Q1382.59 1584.94 1382.59 1576.1 L1382.59 1571.88 Q1379.95 1576.47 1375.83 1578.74 Q1371.71 1581 1365.97 1581 Q1356.43 1581 1350.6 1573.74 Q1344.77 1566.47 1344.77 1554.48 Q1344.77 1542.44 1350.6 1535.17 Q1356.43 1527.9 1365.97 1527.9 Q1371.71 1527.9 1375.83 1530.17 Q1379.95 1532.44 1382.59 1537.02 L1382.59 1529.15 L1391.11 1529.15 L1391.11 1574.57 Z" fill="#000000" fill-rule="evenodd" fill-opacity="1" /><polyline clip-path="url(#clip072)" style="stroke:#000000; stroke-linecap:round; stroke-linejoin:round; stroke-width:2; stroke-opacity:0.1; fill:none" points="
  276.269,1197.45 2352.76,1197.45 
  "/>
<polyline clip-path="url(#clip072)" style="stroke:#000000; stroke-linecap:round; stroke-linejoin:round; stroke-width:2; stroke-opacity:0.1; fill:none" points="
  276.269,999.776 2352.76,999.776 
  "/>
<polyline clip-path="url(#clip072)" style="stroke:#000000; stroke-linecap:round; stroke-linejoin:round; stroke-width:2; stroke-opacity:0.1; fill:none" points="
  276.269,802.097 2352.76,802.097 
  "/>
<polyline clip-path="url(#clip072)" style="stroke:#000000; stroke-linecap:round; stroke-linejoin:round; stroke-width:2; stroke-opacity:0.1; fill:none" points="
  276.269,604.418 2352.76,604.418 
  "/>
<polyline clip-path="url(#clip072)" style="stroke:#000000; stroke-linecap:round; stroke-linejoin:round; stroke-width:2; stroke-opacity:0.1; fill:none" points="
  276.269,406.739 2352.76,406.739 
  "/>
<polyline clip-path="url(#clip072)" style="stroke:#000000; stroke-linecap:round; stroke-linejoin:round; stroke-width:2; stroke-opacity:0.1; fill:none" points="
  276.269,209.06 2352.76,209.06 
  "/>
<polyline clip-path="url(#clip070)" style="stroke:#000000; stroke-linecap:round; stroke-linejoin:round; stroke-width:4; stroke-opacity:1; fill:none" points="
  276.269,1384.3 276.269,47.2441 
  "/>
<polyline clip-path="url(#clip070)" style="stroke:#000000; stroke-linecap:round; stroke-linejoin:round; stroke-width:4; stroke-opacity:1; fill:none" points="
  276.269,1197.45 295.167,1197.45 
  "/>
<polyline clip-path="url(#clip070)" style="stroke:#000000; stroke-linecap:round; stroke-linejoin:round; stroke-width:4; stroke-opacity:1; fill:none" points="
  276.269,999.776 295.167,999.776 
  "/>
<polyline clip-path="url(#clip070)" style="stroke:#000000; stroke-linecap:round; stroke-linejoin:round; stroke-width:4; stroke-opacity:1; fill:none" points="
  276.269,802.097 295.167,802.097 
  "/>
<polyline clip-path="url(#clip070)" style="stroke:#000000; stroke-linecap:round; stroke-linejoin:round; stroke-width:4; stroke-opacity:1; fill:none" points="
  276.269,604.418 295.167,604.418 
  "/>
<polyline clip-path="url(#clip070)" style="stroke:#000000; stroke-linecap:round; stroke-linejoin:round; stroke-width:4; stroke-opacity:1; fill:none" points="
  276.269,406.739 295.167,406.739 
  "/>
<polyline clip-path="url(#clip070)" style="stroke:#000000; stroke-linecap:round; stroke-linejoin:round; stroke-width:4; stroke-opacity:1; fill:none" points="
  276.269,209.06 295.167,209.06 
  "/>
<path clip-path="url(#clip070)" d="M154.506 1176.15 Q149.089 1176.15 146.346 1181.5 Q143.638 1186.81 143.638 1197.51 Q143.638 1208.17 146.346 1213.51 Q149.089 1218.83 154.506 1218.83 Q159.957 1218.83 162.666 1213.51 Q165.409 1208.17 165.409 1197.51 Q165.409 1186.81 162.666 1181.5 Q159.957 1176.15 154.506 1176.15 M154.506 1170.6 Q163.221 1170.6 167.804 1177.51 Q172.422 1184.38 172.422 1197.51 Q172.422 1210.6 167.804 1217.51 Q163.221 1224.38 154.506 1224.38 Q145.791 1224.38 141.173 1217.51 Q136.589 1210.6 136.589 1197.51 Q136.589 1184.38 141.173 1177.51 Q145.791 1170.6 154.506 1170.6 Z" fill="#000000" fill-rule="evenodd" fill-opacity="1" /><path clip-path="url(#clip070)" d="M184.749 1214.56 L192.075 1214.56 L192.075 1223.37 L184.749 1223.37 L184.749 1214.56 Z" fill="#000000" fill-rule="evenodd" fill-opacity="1" /><path clip-path="url(#clip070)" d="M222.353 1176.15 Q216.936 1176.15 214.193 1181.5 Q211.485 1186.81 211.485 1197.51 Q211.485 1208.17 214.193 1213.51 Q216.936 1218.83 222.353 1218.83 Q227.804 1218.83 230.512 1213.51 Q233.255 1208.17 233.255 1197.51 Q233.255 1186.81 230.512 1181.5 Q227.804 1176.15 222.353 1176.15 M222.353 1170.6 Q231.068 1170.6 235.651 1177.51 Q240.269 1184.38 240.269 1197.51 Q240.269 1210.6 235.651 1217.51 Q231.068 1224.38 222.353 1224.38 Q213.638 1224.38 209.019 1217.51 Q204.436 1210.6 204.436 1197.51 Q204.436 1184.38 209.019 1177.51 Q213.638 1170.6 222.353 1170.6 Z" fill="#000000" fill-rule="evenodd" fill-opacity="1" /><path clip-path="url(#clip070)" d="M156.346 978.474 Q150.93 978.474 148.186 983.821 Q145.478 989.134 145.478 999.828 Q145.478 1010.49 148.186 1015.83 Q150.93 1021.15 156.346 1021.15 Q161.798 1021.15 164.506 1015.83 Q167.249 1010.49 167.249 999.828 Q167.249 989.134 164.506 983.821 Q161.798 978.474 156.346 978.474 M156.346 972.918 Q165.061 972.918 169.645 979.828 Q174.263 986.703 174.263 999.828 Q174.263 1012.92 169.645 1019.83 Q165.061 1026.7 156.346 1026.7 Q147.631 1026.7 143.013 1019.83 Q138.43 1012.92 138.43 999.828 Q138.43 986.703 143.013 979.828 Q147.631 972.918 156.346 972.918 Z" fill="#000000" fill-rule="evenodd" fill-opacity="1" /><path clip-path="url(#clip070)" d="M186.589 1016.88 L193.915 1016.88 L193.915 1025.7 L186.589 1025.7 L186.589 1016.88 Z" fill="#000000" fill-rule="evenodd" fill-opacity="1" /><path clip-path="url(#clip070)" d="M210.408 1019.79 L221.867 1019.79 L221.867 980.245 L209.401 982.745 L209.401 976.356 L221.797 973.856 L228.811 973.856 L228.811 1019.79 L240.269 1019.79 L240.269 1025.7 L210.408 1025.7 L210.408 1019.79 Z" fill="#000000" fill-rule="evenodd" fill-opacity="1" /><path clip-path="url(#clip070)" d="M156.902 780.795 Q151.485 780.795 148.742 786.142 Q146.034 791.455 146.034 802.149 Q146.034 812.809 148.742 818.156 Q151.485 823.468 156.902 823.468 Q162.353 823.468 165.061 818.156 Q167.804 812.809 167.804 802.149 Q167.804 791.455 165.061 786.142 Q162.353 780.795 156.902 780.795 M156.902 775.239 Q165.617 775.239 170.2 782.149 Q174.818 789.024 174.818 802.149 Q174.818 815.239 170.2 822.149 Q165.617 829.024 156.902 829.024 Q148.186 829.024 143.568 822.149 Q138.985 815.239 138.985 802.149 Q138.985 789.024 143.568 782.149 Q148.186 775.239 156.902 775.239 Z" fill="#000000" fill-rule="evenodd" fill-opacity="1" /><path clip-path="url(#clip070)" d="M187.145 819.198 L194.471 819.198 L194.471 828.017 L187.145 828.017 L187.145 819.198 Z" fill="#000000" fill-rule="evenodd" fill-opacity="1" /><path clip-path="url(#clip070)" d="M215.79 822.114 L240.269 822.114 L240.269 828.017 L207.353 828.017 L207.353 822.114 Q211.346 817.982 218.221 811.038 Q225.131 804.059 226.901 802.045 Q230.269 798.26 231.589 795.656 Q232.943 793.017 232.943 790.482 Q232.943 786.351 230.026 783.746 Q227.144 781.142 222.492 781.142 Q219.193 781.142 215.513 782.288 Q211.867 783.434 207.7 785.76 L207.7 778.677 Q211.936 776.976 215.617 776.108 Q219.297 775.239 222.353 775.239 Q230.408 775.239 235.2 779.267 Q239.992 783.295 239.992 790.031 Q239.992 793.225 238.776 796.107 Q237.596 798.955 234.436 802.843 Q233.568 803.85 228.915 808.677 Q224.262 813.468 215.79 822.114 Z" fill="#000000" fill-rule="evenodd" fill-opacity="1" /><path clip-path="url(#clip070)" d="M155.478 583.116 Q150.061 583.116 147.318 588.463 Q144.61 593.776 144.61 604.47 Q144.61 615.13 147.318 620.477 Q150.061 625.789 155.478 625.789 Q160.929 625.789 163.638 620.477 Q166.381 615.13 166.381 604.47 Q166.381 593.776 163.638 588.463 Q160.929 583.116 155.478 583.116 M155.478 577.56 Q164.193 577.56 168.777 584.47 Q173.395 591.345 173.395 604.47 Q173.395 617.56 168.777 624.47 Q164.193 631.345 155.478 631.345 Q146.763 631.345 142.145 624.47 Q137.562 617.56 137.562 604.47 Q137.562 591.345 142.145 584.47 Q146.763 577.56 155.478 577.56 Z" fill="#000000" fill-rule="evenodd" fill-opacity="1" /><path clip-path="url(#clip070)" d="M185.721 621.519 L193.047 621.519 L193.047 630.338 L185.721 630.338 L185.721 621.519 Z" fill="#000000" fill-rule="evenodd" fill-opacity="1" /><path clip-path="url(#clip070)" d="M229.575 602.387 Q234.61 603.463 237.422 606.866 Q240.269 610.269 240.269 615.269 Q240.269 622.942 234.992 627.144 Q229.714 631.345 219.992 631.345 Q216.728 631.345 213.256 630.685 Q209.818 630.06 206.138 628.775 L206.138 622.005 Q209.054 623.706 212.526 624.574 Q215.999 625.442 219.783 625.442 Q226.381 625.442 229.818 622.838 Q233.29 620.234 233.29 615.269 Q233.29 610.685 230.061 608.116 Q226.867 605.512 221.137 605.512 L215.096 605.512 L215.096 599.748 L221.415 599.748 Q226.589 599.748 229.332 597.699 Q232.075 595.616 232.075 591.727 Q232.075 587.734 229.228 585.616 Q226.415 583.463 221.137 583.463 Q218.256 583.463 214.957 584.088 Q211.658 584.713 207.7 586.033 L207.7 579.783 Q211.693 578.672 215.165 578.116 Q218.672 577.56 221.762 577.56 Q229.749 577.56 234.401 581.206 Q239.054 584.817 239.054 590.998 Q239.054 595.303 236.589 598.29 Q234.124 601.241 229.575 602.387 Z" fill="#000000" fill-rule="evenodd" fill-opacity="1" /><path clip-path="url(#clip070)" d="M153.777 385.437 Q148.36 385.437 145.617 390.784 Q142.909 396.097 142.909 406.791 Q142.909 417.451 145.617 422.798 Q148.36 428.11 153.777 428.11 Q159.228 428.11 161.936 422.798 Q164.679 417.451 164.679 406.791 Q164.679 396.097 161.936 390.784 Q159.228 385.437 153.777 385.437 M153.777 379.881 Q162.492 379.881 167.075 386.791 Q171.693 393.666 171.693 406.791 Q171.693 419.881 167.075 426.791 Q162.492 433.666 153.777 433.666 Q145.061 433.666 140.443 426.791 Q135.86 419.881 135.86 406.791 Q135.86 393.666 140.443 386.791 Q145.061 379.881 153.777 379.881 Z" fill="#000000" fill-rule="evenodd" fill-opacity="1" /><path clip-path="url(#clip070)" d="M184.02 423.84 L191.346 423.84 L191.346 432.659 L184.02 432.659 L184.02 423.84 Z" fill="#000000" fill-rule="evenodd" fill-opacity="1" /><path clip-path="url(#clip070)" d="M225.894 386.93 L208.186 414.604 L225.894 414.604 L225.894 386.93 M224.054 380.819 L232.874 380.819 L232.874 414.604 L240.269 414.604 L240.269 420.437 L232.874 420.437 L232.874 432.659 L225.894 432.659 L225.894 420.437 L202.492 420.437 L202.492 413.666 L224.054 380.819 Z" fill="#000000" fill-rule="evenodd" fill-opacity="1" /><path clip-path="url(#clip070)" d="M155.999 187.758 Q150.582 187.758 147.839 193.105 Q145.131 198.418 145.131 209.112 Q145.131 219.772 147.839 225.119 Q150.582 230.431 155.999 230.431 Q161.45 230.431 164.159 225.119 Q166.902 219.772 166.902 209.112 Q166.902 198.418 164.159 193.105 Q161.45 187.758 155.999 187.758 M155.999 182.202 Q164.714 182.202 169.297 189.112 Q173.916 195.987 173.916 209.112 Q173.916 222.202 169.297 229.112 Q164.714 235.987 155.999 235.987 Q147.284 235.987 142.666 229.112 Q138.082 222.202 138.082 209.112 Q138.082 195.987 142.666 189.112 Q147.284 182.202 155.999 182.202 Z" fill="#000000" fill-rule="evenodd" fill-opacity="1" /><path clip-path="url(#clip070)" d="M186.242 226.161 L193.568 226.161 L193.568 234.98 L186.242 234.98 L186.242 226.161 Z" fill="#000000" fill-rule="evenodd" fill-opacity="1" /><path clip-path="url(#clip070)" d="M208.915 183.14 L236.45 183.14 L236.45 189.043 L215.339 189.043 L215.339 201.751 Q216.867 201.23 218.394 200.987 Q219.922 200.709 221.45 200.709 Q230.13 200.709 235.2 205.466 Q240.269 210.223 240.269 218.348 Q240.269 226.716 235.061 231.369 Q229.853 235.987 220.374 235.987 Q217.11 235.987 213.707 235.431 Q210.339 234.876 206.728 233.765 L206.728 226.716 Q209.853 228.417 213.186 229.251 Q216.519 230.084 220.235 230.084 Q226.242 230.084 229.749 226.924 Q233.255 223.765 233.255 218.348 Q233.255 212.931 229.749 209.772 Q226.242 206.612 220.235 206.612 Q217.422 206.612 214.61 207.237 Q211.832 207.862 208.915 209.181 L208.915 183.14 Z" fill="#000000" fill-rule="evenodd" fill-opacity="1" /><path clip-path="url(#clip070)" d="M17.6893 1226.23 L43.6614 1226.23 L43.6614 1214.47 Q43.6614 1207.95 40.2818 1204.38 Q36.9022 1200.82 30.6522 1200.82 Q24.4485 1200.82 21.0689 1204.38 Q17.6893 1207.95 17.6893 1214.47 L17.6893 1226.23 M10.0042 1235.58 L10.0042 1214.47 Q10.0042 1202.85 15.2819 1196.93 Q20.5134 1190.95 30.6522 1190.95 Q40.8836 1190.95 46.1151 1196.93 Q51.3465 1202.85 51.3465 1214.47 L51.3465 1226.23 L79.1242 1226.23 L79.1242 1235.58 L10.0042 1235.58 Z" fill="#000000" fill-rule="evenodd" fill-opacity="1" /><path clip-path="url(#clip070)" d="M53.0595 1159.47 Q53.0595 1169.8 55.4206 1173.78 Q57.7817 1177.76 63.4761 1177.76 Q68.0131 1177.76 70.6983 1174.8 Q73.3372 1171.79 73.3372 1166.65 Q73.3372 1159.57 68.3372 1155.31 Q63.2909 1151 54.9576 1151 L53.0595 1151 L53.0595 1159.47 M49.541 1142.48 L79.1242 1142.48 L79.1242 1151 L71.2538 1151 Q75.976 1153.92 78.2445 1158.27 Q80.4667 1162.62 80.4667 1168.92 Q80.4667 1176.88 76.0223 1181.6 Q71.5316 1186.28 64.0316 1186.28 Q55.2817 1186.28 50.8373 1180.45 Q46.3929 1174.57 46.3929 1162.95 L46.3929 1151 L45.5595 1151 Q39.6799 1151 36.4855 1154.89 Q33.2448 1158.73 33.2448 1165.72 Q33.2448 1170.17 34.3096 1174.38 Q35.3744 1178.59 37.504 1182.48 L29.6337 1182.48 Q27.8281 1177.81 26.9485 1173.41 Q26.0226 1169.01 26.0226 1164.84 Q26.0226 1153.59 31.8559 1148.04 Q37.6892 1142.48 49.541 1142.48 Z" fill="#000000" fill-rule="evenodd" fill-opacity="1" /><path clip-path="url(#clip070)" d="M35.2355 1094.89 Q34.4022 1096.33 34.0318 1098.04 Q33.6151 1099.71 33.6151 1101.74 Q33.6151 1108.96 38.3373 1112.85 Q43.0132 1116.7 51.8095 1116.7 L79.1242 1116.7 L79.1242 1125.26 L27.2726 1125.26 L27.2726 1116.7 L35.3281 1116.7 Q30.6059 1114.01 28.3374 1109.71 Q26.0226 1105.4 26.0226 1099.24 Q26.0226 1098.36 26.1615 1097.3 Q26.2541 1096.23 26.4856 1094.94 L35.2355 1094.89 Z" fill="#000000" fill-rule="evenodd" fill-opacity="1" /><path clip-path="url(#clip070)" d="M12.5504 1077.53 L27.2726 1077.53 L27.2726 1059.98 L33.8929 1059.98 L33.8929 1077.53 L62.0409 1077.53 Q68.3835 1077.53 70.189 1075.82 Q71.9946 1074.06 71.9946 1068.73 L71.9946 1059.98 L79.1242 1059.98 L79.1242 1068.73 Q79.1242 1078.59 75.4668 1082.34 Q71.7631 1086.09 62.0409 1086.09 L33.8929 1086.09 L33.8929 1092.34 L27.2726 1092.34 L27.2726 1086.09 L12.5504 1086.09 L12.5504 1077.53 Z" fill="#000000" fill-rule="evenodd" fill-opacity="1" /><path clip-path="url(#clip070)" d="M27.2726 1048.78 L27.2726 1040.26 L79.1242 1040.26 L79.1242 1048.78 L27.2726 1048.78 M7.08751 1048.78 L7.08751 1040.26 L17.8745 1040.26 L17.8745 1048.78 L7.08751 1048.78 Z" fill="#000000" fill-rule="evenodd" fill-opacity="1" /><path clip-path="url(#clip070)" d="M53.0595 998.872 Q53.0595 1009.2 55.4206 1013.18 Q57.7817 1017.16 63.4761 1017.16 Q68.0131 1017.16 70.6983 1014.2 Q73.3372 1011.19 73.3372 1006.05 Q73.3372 998.965 68.3372 994.706 Q63.2909 990.4 54.9576 990.4 L53.0595 990.4 L53.0595 998.872 M49.541 981.882 L79.1242 981.882 L79.1242 990.4 L71.2538 990.4 Q75.976 993.317 78.2445 997.669 Q80.4667 1002.02 80.4667 1008.32 Q80.4667 1016.28 76.0223 1021 Q71.5316 1025.68 64.0316 1025.68 Q55.2817 1025.68 50.8373 1019.84 Q46.3929 1013.96 46.3929 1002.34 L46.3929 990.4 L45.5595 990.4 Q39.6799 990.4 36.4855 994.289 Q33.2448 998.132 33.2448 1005.12 Q33.2448 1009.57 34.3096 1013.78 Q35.3744 1017.99 37.504 1021.88 L29.6337 1021.88 Q27.8281 1017.21 26.9485 1012.81 Q26.0226 1008.41 26.0226 1004.24 Q26.0226 992.993 31.8559 987.437 Q37.6892 981.882 49.541 981.882 Z" fill="#000000" fill-rule="evenodd" fill-opacity="1" /><path clip-path="url(#clip070)" d="M7.08751 964.335 L7.08751 955.817 L79.1242 955.817 L79.1242 964.335 L7.08751 964.335 Z" fill="#000000" fill-rule="evenodd" fill-opacity="1" /><path clip-path="url(#clip070)" d="M19.2171 884.382 L53.615 897.067 L53.615 871.651 L19.2171 884.382 M10.0042 889.66 L10.0042 879.058 L79.1242 852.716 L79.1242 862.438 L61.3928 868.734 L61.3928 899.891 L79.1242 906.188 L79.1242 916.049 L10.0042 889.66 Z" fill="#000000" fill-rule="evenodd" fill-opacity="1" /><path clip-path="url(#clip070)" d="M58.6613 843.873 L27.2726 843.873 L27.2726 835.355 L58.3372 835.355 Q65.6983 835.355 69.402 832.484 Q73.0594 829.614 73.0594 823.873 Q73.0594 816.975 68.6613 812.994 Q64.2631 808.966 56.6706 808.966 L27.2726 808.966 L27.2726 800.447 L79.1242 800.447 L79.1242 808.966 L71.1612 808.966 Q75.8834 812.068 78.1982 816.188 Q80.4667 820.262 80.4667 825.679 Q80.4667 834.614 74.9112 839.244 Q69.3557 843.873 58.6613 843.873 M26.0226 822.438 L26.0226 822.438 Z" fill="#000000" fill-rule="evenodd" fill-opacity="1" /><path clip-path="url(#clip070)" d="M12.5504 774.475 L27.2726 774.475 L27.2726 756.929 L33.8929 756.929 L33.8929 774.475 L62.0409 774.475 Q68.3835 774.475 70.189 772.762 Q71.9946 771.003 71.9946 765.679 L71.9946 756.929 L79.1242 756.929 L79.1242 765.679 Q79.1242 775.54 75.4668 779.29 Q71.7631 783.04 62.0409 783.04 L33.8929 783.04 L33.8929 789.29 L27.2726 789.29 L27.2726 783.04 L12.5504 783.04 L12.5504 774.475 Z" fill="#000000" fill-rule="evenodd" fill-opacity="1" /><path clip-path="url(#clip070)" d="M33.2448 725.633 Q33.2448 732.485 38.6151 736.466 Q43.9392 740.448 53.2447 740.448 Q62.5502 740.448 67.9205 736.513 Q73.2446 732.531 73.2446 725.633 Q73.2446 718.828 67.8742 714.846 Q62.5039 710.865 53.2447 710.865 Q44.0318 710.865 38.6614 714.846 Q33.2448 718.828 33.2448 725.633 M26.0226 725.633 Q26.0226 714.522 33.2448 708.179 Q40.467 701.837 53.2447 701.837 Q65.9761 701.837 73.2446 708.179 Q80.4667 714.522 80.4667 725.633 Q80.4667 736.79 73.2446 743.133 Q65.9761 749.429 53.2447 749.429 Q40.467 749.429 33.2448 743.133 Q26.0226 736.79 26.0226 725.633 Z" fill="#000000" fill-rule="evenodd" fill-opacity="1" /><path clip-path="url(#clip070)" d="M29.2633 650.402 L37.2262 650.402 Q35.2355 654.013 34.2633 657.67 Q33.2448 661.282 33.2448 664.985 Q33.2448 673.272 38.5225 677.856 Q43.754 682.439 53.2447 682.439 Q62.7354 682.439 68.0131 677.856 Q73.2446 673.272 73.2446 664.985 Q73.2446 661.282 72.2723 657.67 Q71.2538 654.013 69.2631 650.402 L77.1334 650.402 Q78.8001 653.967 79.6334 657.809 Q80.4667 661.606 80.4667 665.911 Q80.4667 677.624 73.1057 684.522 Q65.7446 691.42 53.2447 691.42 Q40.5595 691.42 33.2911 684.476 Q26.0226 677.485 26.0226 665.356 Q26.0226 661.42 26.8559 657.67 Q27.643 653.92 29.2633 650.402 Z" fill="#000000" fill-rule="evenodd" fill-opacity="1" /><path clip-path="url(#clip070)" d="M33.2448 615.495 Q33.2448 622.347 38.6151 626.328 Q43.9392 630.309 53.2447 630.309 Q62.5502 630.309 67.9205 626.374 Q73.2446 622.393 73.2446 615.495 Q73.2446 608.689 67.8742 604.708 Q62.5039 600.726 53.2447 600.726 Q44.0318 600.726 38.6614 604.708 Q33.2448 608.689 33.2448 615.495 M26.0226 615.495 Q26.0226 604.384 33.2448 598.041 Q40.467 591.699 53.2447 591.699 Q65.9761 591.699 73.2446 598.041 Q80.4667 604.384 80.4667 615.495 Q80.4667 626.652 73.2446 632.995 Q65.9761 639.291 53.2447 639.291 Q40.467 639.291 33.2448 632.995 Q26.0226 626.652 26.0226 615.495 Z" fill="#000000" fill-rule="evenodd" fill-opacity="1" /><path clip-path="url(#clip070)" d="M35.2355 547.532 Q34.4022 548.967 34.0318 550.68 Q33.6151 552.347 33.6151 554.384 Q33.6151 561.606 38.3373 565.495 Q43.0132 569.338 51.8095 569.338 L79.1242 569.338 L79.1242 577.902 L27.2726 577.902 L27.2726 569.338 L35.3281 569.338 Q30.6059 566.652 28.3374 562.347 Q26.0226 558.041 26.0226 551.884 Q26.0226 551.004 26.1615 549.94 Q26.2541 548.875 26.4856 547.578 L35.2355 547.532 Z" fill="#000000" fill-rule="evenodd" fill-opacity="1" /><path clip-path="url(#clip070)" d="M35.2355 510.218 Q34.4022 511.653 34.0318 513.366 Q33.6151 515.032 33.6151 517.069 Q33.6151 524.292 38.3373 528.18 Q43.0132 532.023 51.8095 532.023 L79.1242 532.023 L79.1242 540.588 L27.2726 540.588 L27.2726 532.023 L35.3281 532.023 Q30.6059 529.338 28.3374 525.032 Q26.0226 520.727 26.0226 514.569 Q26.0226 513.69 26.1615 512.625 Q26.2541 511.56 26.4856 510.264 L35.2355 510.218 Z" fill="#000000" fill-rule="evenodd" fill-opacity="1" /><path clip-path="url(#clip070)" d="M51.0688 459.014 L55.2354 459.014 L55.2354 498.181 Q64.0316 497.625 68.6613 492.903 Q73.2446 488.134 73.2446 479.662 Q73.2446 474.755 72.0409 470.171 Q70.8372 465.542 68.4298 461.005 L76.4853 461.005 Q78.4297 465.588 79.4482 470.403 Q80.4667 475.218 80.4667 480.171 Q80.4667 492.579 73.2446 499.847 Q66.0224 507.069 53.7076 507.069 Q40.9762 507.069 33.5225 500.218 Q26.0226 493.319 26.0226 481.653 Q26.0226 471.19 32.7818 465.125 Q39.4947 459.014 51.0688 459.014 M48.5688 467.533 Q41.5781 467.625 37.4114 471.468 Q33.2448 475.264 33.2448 481.56 Q33.2448 488.69 37.2725 492.995 Q41.3003 497.255 48.6151 497.903 L48.5688 467.533 Z" fill="#000000" fill-rule="evenodd" fill-opacity="1" /><path clip-path="url(#clip070)" d="M7.08751 445.033 L7.08751 436.514 L79.1242 436.514 L79.1242 445.033 L7.08751 445.033 Z" fill="#000000" fill-rule="evenodd" fill-opacity="1" /><path clip-path="url(#clip070)" d="M53.0595 395.126 Q53.0595 405.45 55.4206 409.431 Q57.7817 413.412 63.4761 413.412 Q68.0131 413.412 70.6983 410.45 Q73.3372 407.44 73.3372 402.301 Q73.3372 395.218 68.3372 390.959 Q63.2909 386.653 54.9576 386.653 L53.0595 386.653 L53.0595 395.126 M49.541 378.135 L79.1242 378.135 L79.1242 386.653 L71.2538 386.653 Q75.976 389.57 78.2445 393.922 Q80.4667 398.274 80.4667 404.57 Q80.4667 412.533 76.0223 417.255 Q71.5316 421.931 64.0316 421.931 Q55.2817 421.931 50.8373 416.098 Q46.3929 410.218 46.3929 398.598 L46.3929 386.653 L45.5595 386.653 Q39.6799 386.653 36.4855 390.542 Q33.2448 394.385 33.2448 401.376 Q33.2448 405.82 34.3096 410.033 Q35.3744 414.246 37.504 418.135 L29.6337 418.135 Q27.8281 413.459 26.9485 409.061 Q26.0226 404.663 26.0226 400.496 Q26.0226 389.246 31.8559 383.69 Q37.6892 378.135 49.541 378.135 Z" fill="#000000" fill-rule="evenodd" fill-opacity="1" /><path clip-path="url(#clip070)" d="M12.5504 352.163 L27.2726 352.163 L27.2726 334.617 L33.8929 334.617 L33.8929 352.163 L62.0409 352.163 Q68.3835 352.163 70.189 350.45 Q71.9946 348.691 71.9946 343.367 L71.9946 334.617 L79.1242 334.617 L79.1242 343.367 Q79.1242 353.228 75.4668 356.978 Q71.7631 360.728 62.0409 360.728 L33.8929 360.728 L33.8929 366.978 L27.2726 366.978 L27.2726 360.728 L12.5504 360.728 L12.5504 352.163 Z" fill="#000000" fill-rule="evenodd" fill-opacity="1" /><path clip-path="url(#clip070)" d="M27.2726 323.413 L27.2726 314.894 L79.1242 314.894 L79.1242 323.413 L27.2726 323.413 M7.08751 323.413 L7.08751 314.894 L17.8745 314.894 L17.8745 323.413 L7.08751 323.413 Z" fill="#000000" fill-rule="evenodd" fill-opacity="1" /><path clip-path="url(#clip070)" d="M33.2448 276.978 Q33.2448 283.83 38.6151 287.811 Q43.9392 291.793 53.2447 291.793 Q62.5502 291.793 67.9205 287.858 Q73.2446 283.876 73.2446 276.978 Q73.2446 270.173 67.8742 266.191 Q62.5039 262.21 53.2447 262.21 Q44.0318 262.21 38.6614 266.191 Q33.2448 270.173 33.2448 276.978 M26.0226 276.978 Q26.0226 265.867 33.2448 259.524 Q40.467 253.182 53.2447 253.182 Q65.9761 253.182 73.2446 259.524 Q80.4667 265.867 80.4667 276.978 Q80.4667 288.135 73.2446 294.478 Q65.9761 300.774 53.2447 300.774 Q40.467 300.774 33.2448 294.478 Q26.0226 288.135 26.0226 276.978 Z" fill="#000000" fill-rule="evenodd" fill-opacity="1" /><path clip-path="url(#clip070)" d="M47.828 195.96 L79.1242 195.96 L79.1242 204.478 L48.1058 204.478 Q40.7447 204.478 37.0873 207.349 Q33.43 210.219 33.43 215.96 Q33.43 222.858 37.8281 226.839 Q42.2262 230.821 49.8188 230.821 L79.1242 230.821 L79.1242 239.386 L27.2726 239.386 L27.2726 230.821 L35.3281 230.821 Q30.6522 227.765 28.3374 223.645 Q26.0226 219.478 26.0226 214.062 Q26.0226 205.127 31.5781 200.543 Q37.0873 195.96 47.828 195.96 Z" fill="#000000" fill-rule="evenodd" fill-opacity="1" /><circle clip-path="url(#clip072)" cx="335.038" cy="132.052" r="14.4" fill="#ff0000" fill-rule="evenodd" fill-opacity="0.6" stroke="#000000" stroke-opacity="0.6" stroke-width="9.6"/>
<circle clip-path="url(#clip072)" cx="824.775" cy="1007.76" r="14.4" fill="#ff0000" fill-rule="evenodd" fill-opacity="0.6" stroke="#000000" stroke-opacity="0.6" stroke-width="9.6"/>
<circle clip-path="url(#clip072)" cx="1314.51" cy="1105.51" r="14.4" fill="#ff0000" fill-rule="evenodd" fill-opacity="0.6" stroke="#000000" stroke-opacity="0.6" stroke-width="9.6"/>
<circle clip-path="url(#clip072)" cx="1804.25" cy="1097.24" r="14.4" fill="#ff0000" fill-rule="evenodd" fill-opacity="0.6" stroke="#000000" stroke-opacity="0.6" stroke-width="9.6"/>
<circle clip-path="url(#clip072)" cx="2293.99" cy="1337.47" r="14.4" fill="#ff0000" fill-rule="evenodd" fill-opacity="0.6" stroke="#000000" stroke-opacity="0.6" stroke-width="9.6"/>
<polyline clip-path="url(#clip072)" style="stroke:#ff0000; stroke-linecap:round; stroke-linejoin:round; stroke-width:4; stroke-opacity:1; fill:none" points="
  335.038,1197.45 335.038,132.052 
  "/>
<polyline clip-path="url(#clip072)" style="stroke:#ff0000; stroke-linecap:round; stroke-linejoin:round; stroke-width:4; stroke-opacity:1; fill:none" points="
  824.775,1197.45 824.775,1007.76 
  "/>
<polyline clip-path="url(#clip072)" style="stroke:#ff0000; stroke-linecap:round; stroke-linejoin:round; stroke-width:4; stroke-opacity:1; fill:none" points="
  1314.51,1197.45 1314.51,1105.51 
  "/>
<polyline clip-path="url(#clip072)" style="stroke:#ff0000; stroke-linecap:round; stroke-linejoin:round; stroke-width:4; stroke-opacity:1; fill:none" points="
  1804.25,1197.45 1804.25,1097.24 
  "/>
<polyline clip-path="url(#clip072)" style="stroke:#ff0000; stroke-linecap:round; stroke-linejoin:round; stroke-width:4; stroke-opacity:1; fill:none" points="
  2293.99,1197.45 2293.99,1337.47 
  "/>
<polyline clip-path="url(#clip072)" style="stroke:#000000; stroke-linecap:round; stroke-linejoin:round; stroke-width:12; stroke-opacity:1; fill:none" points="
  335.038,131.758 335.038,85.0853 
  "/>
<polyline clip-path="url(#clip072)" style="stroke:#000000; stroke-linecap:round; stroke-linejoin:round; stroke-width:12; stroke-opacity:1; fill:none" points="
  824.775,1010.66 824.775,974.001 
  "/>
<polyline clip-path="url(#clip072)" style="stroke:#000000; stroke-linecap:round; stroke-linejoin:round; stroke-width:12; stroke-opacity:1; fill:none" points="
  1314.51,1109.21 1314.51,1075.29 
  "/>
<polyline clip-path="url(#clip072)" style="stroke:#000000; stroke-linecap:round; stroke-linejoin:round; stroke-width:12; stroke-opacity:1; fill:none" points="
  1804.25,1103.29 1804.25,1065.92 
  "/>
<polyline clip-path="url(#clip072)" style="stroke:#000000; stroke-linecap:round; stroke-linejoin:round; stroke-width:12; stroke-opacity:1; fill:none" points="
  2293.99,1346.46 2293.99,1308.08 
  "/>
<line clip-path="url(#clip072)" x1="351.038" y1="131.758" x2="319.038" y2="131.758" style="stroke:#000000; stroke-width:9.6; stroke-opacity:0.6"/>
<line clip-path="url(#clip072)" x1="351.038" y1="85.0853" x2="319.038" y2="85.0853" style="stroke:#000000; stroke-width:9.6; stroke-opacity:0.6"/>
<line clip-path="url(#clip072)" x1="840.775" y1="1010.66" x2="808.775" y2="1010.66" style="stroke:#000000; stroke-width:9.6; stroke-opacity:0.6"/>
<line clip-path="url(#clip072)" x1="840.775" y1="974.001" x2="808.775" y2="974.001" style="stroke:#000000; stroke-width:9.6; stroke-opacity:0.6"/>
<line clip-path="url(#clip072)" x1="1330.51" y1="1109.21" x2="1298.51" y2="1109.21" style="stroke:#000000; stroke-width:9.6; stroke-opacity:0.6"/>
<line clip-path="url(#clip072)" x1="1330.51" y1="1075.29" x2="1298.51" y2="1075.29" style="stroke:#000000; stroke-width:9.6; stroke-opacity:0.6"/>
<line clip-path="url(#clip072)" x1="1820.25" y1="1103.29" x2="1788.25" y2="1103.29" style="stroke:#000000; stroke-width:9.6; stroke-opacity:0.6"/>
<line clip-path="url(#clip072)" x1="1820.25" y1="1065.92" x2="1788.25" y2="1065.92" style="stroke:#000000; stroke-width:9.6; stroke-opacity:0.6"/>
<line clip-path="url(#clip072)" x1="2309.99" y1="1346.46" x2="2277.99" y2="1346.46" style="stroke:#000000; stroke-width:9.6; stroke-opacity:0.6"/>
<line clip-path="url(#clip072)" x1="2309.99" y1="1308.08" x2="2277.99" y2="1308.08" style="stroke:#000000; stroke-width:9.6; stroke-opacity:0.6"/>
</svg>
