<?xml version="1.0" encoding="utf-8"?>
<svg xmlns="http://www.w3.org/2000/svg" xmlns:xlink="http://www.w3.org/1999/xlink" width="600" height="400" viewBox="0 0 2400 1600">
<defs>
  <clipPath id="clip290">
    <rect x="0" y="0" width="2400" height="1600"/>
  </clipPath>
</defs>
<path clip-path="url(#clip290)" d="M0 1600 L2400 1600 L2400 0 L0 0  Z" fill="#ffffff" fill-rule="evenodd" fill-opacity="1"/>
<defs>
  <clipPath id="clip291">
    <rect x="480" y="0" width="1681" height="1600"/>
  </clipPath>
</defs>
<path clip-path="url(#clip290)" d="M366.302 1384.3 L2352.76 1384.3 L2352.76 123.472 L366.302 123.472  Z" fill="#ffffff" fill-rule="evenodd" fill-opacity="1"/>
<defs>
  <clipPath id="clip292">
    <rect x="366" y="123" width="1987" height="1262"/>
  </clipPath>
</defs>
<polyline clip-path="url(#clip292)" style="stroke:#000000; stroke-linecap:round; stroke-linejoin:round; stroke-width:2; stroke-opacity:0.1; fill:none" points="371.297,1384.3 371.297,123.472 "/>
<polyline clip-path="url(#clip292)" style="stroke:#000000; stroke-linecap:round; stroke-linejoin:round; stroke-width:2; stroke-opacity:0.1; fill:none" points="867.627,1384.3 867.627,123.472 "/>
<polyline clip-path="url(#clip292)" style="stroke:#000000; stroke-linecap:round; stroke-linejoin:round; stroke-width:2; stroke-opacity:0.1; fill:none" points="1363.96,1384.3 1363.96,123.472 "/>
<polyline clip-path="url(#clip292)" style="stroke:#000000; stroke-linecap:round; stroke-linejoin:round; stroke-width:2; stroke-opacity:0.1; fill:none" points="1860.29,1384.3 1860.29,123.472 "/>
<polyline clip-path="url(#clip290)" style="stroke:#000000; stroke-linecap:round; stroke-linejoin:round; stroke-width:4; stroke-opacity:1; fill:none" points="366.302,1384.3 2352.76,1384.3 "/>
<polyline clip-path="url(#clip290)" style="stroke:#000000; stroke-linecap:round; stroke-linejoin:round; stroke-width:4; stroke-opacity:1; fill:none" points="371.297,1384.3 371.297,1365.4 "/>
<polyline clip-path="url(#clip290)" style="stroke:#000000; stroke-linecap:round; stroke-linejoin:round; stroke-width:4; stroke-opacity:1; fill:none" points="867.627,1384.3 867.627,1365.4 "/>
<polyline clip-path="url(#clip290)" style="stroke:#000000; stroke-linecap:round; stroke-linejoin:round; stroke-width:4; stroke-opacity:1; fill:none" points="1363.96,1384.3 1363.96,1365.4 "/>
<polyline clip-path="url(#clip290)" style="stroke:#000000; stroke-linecap:round; stroke-linejoin:round; stroke-width:4; stroke-opacity:1; fill:none" points="1860.29,1384.3 1860.29,1365.4 "/>
<path clip-path="url(#clip290)" d="M274.218 1472.21 L287.585 1472.21 L287.585 1426.07 L273.043 1428.99 L273.043 1421.54 L287.504 1418.62 L295.687 1418.62 L295.687 1472.21 L309.055 1472.21 L309.055 1479.1 L274.218 1479.1 L274.218 1472.21 Z" fill="#000000" fill-rule="nonzero" fill-opacity="1" /><path clip-path="url(#clip290)" d="M348.065 1425.75 L327.406 1458.04 L348.065 1458.04 L348.065 1425.75 M345.919 1418.62 L356.208 1418.62 L356.208 1458.04 L364.836 1458.04 L364.836 1464.84 L356.208 1464.84 L356.208 1479.1 L348.065 1479.1 L348.065 1464.84 L320.762 1464.84 L320.762 1456.94 L345.919 1418.62 Z" fill="#000000" fill-rule="nonzero" fill-opacity="1" /><path clip-path="url(#clip290)" d="M395.866 1424.01 Q389.547 1424.01 386.347 1430.25 Q383.187 1436.44 383.187 1448.92 Q383.187 1461.36 386.347 1467.6 Q389.547 1473.79 395.866 1473.79 Q402.226 1473.79 405.386 1467.6 Q408.586 1461.36 408.586 1448.92 Q408.586 1436.44 405.386 1430.25 Q402.226 1424.01 395.866 1424.01 M395.866 1417.53 Q406.034 1417.53 411.381 1425.59 Q416.769 1433.61 416.769 1448.92 Q416.769 1464.19 411.381 1472.25 Q406.034 1480.27 395.866 1480.27 Q385.698 1480.27 380.311 1472.25 Q374.963 1464.19 374.963 1448.92 Q374.963 1433.61 380.311 1425.59 Q385.698 1417.53 395.866 1417.53 Z" fill="#000000" fill-rule="nonzero" fill-opacity="1" /><path clip-path="url(#clip290)" d="M448.649 1424.01 Q442.33 1424.01 439.13 1430.25 Q435.97 1436.44 435.97 1448.92 Q435.97 1461.36 439.13 1467.6 Q442.33 1473.79 448.649 1473.79 Q455.009 1473.79 458.169 1467.6 Q461.369 1461.36 461.369 1448.92 Q461.369 1436.44 458.169 1430.25 Q455.009 1424.01 448.649 1424.01 M448.649 1417.53 Q458.817 1417.53 464.164 1425.59 Q469.552 1433.61 469.552 1448.92 Q469.552 1464.19 464.164 1472.25 Q458.817 1480.27 448.649 1480.27 Q438.482 1480.27 433.094 1472.25 Q427.747 1464.19 427.747 1448.92 Q427.747 1433.61 433.094 1425.59 Q438.482 1417.53 448.649 1417.53 Z" fill="#000000" fill-rule="nonzero" fill-opacity="1" /><path clip-path="url(#clip290)" d="M770.547 1472.21 L783.915 1472.21 L783.915 1426.07 L769.372 1428.99 L769.372 1421.54 L783.834 1418.62 L792.017 1418.62 L792.017 1472.21 L805.385 1472.21 L805.385 1479.1 L770.547 1479.1 L770.547 1472.21 Z" fill="#000000" fill-rule="nonzero" fill-opacity="1" /><path clip-path="url(#clip290)" d="M840.425 1445.6 Q834.916 1445.6 831.675 1449.37 Q828.475 1453.13 828.475 1459.7 Q828.475 1466.22 831.675 1470.03 Q834.916 1473.79 840.425 1473.79 Q845.934 1473.79 849.134 1470.03 Q852.375 1466.22 852.375 1459.7 Q852.375 1453.13 849.134 1449.37 Q845.934 1445.6 840.425 1445.6 M856.669 1419.96 L856.669 1427.41 Q853.59 1425.95 850.431 1425.18 Q847.311 1424.41 844.233 1424.41 Q836.131 1424.41 831.837 1429.88 Q827.583 1435.35 826.976 1446.41 Q829.366 1442.88 832.971 1441.02 Q836.576 1439.12 840.911 1439.12 Q850.025 1439.12 855.292 1444.67 Q860.598 1450.18 860.598 1459.7 Q860.598 1469.01 855.089 1474.64 Q849.58 1480.27 840.425 1480.27 Q829.933 1480.27 824.383 1472.25 Q818.834 1464.19 818.834 1448.92 Q818.834 1434.58 825.639 1426.07 Q832.445 1417.53 843.909 1417.53 Q846.987 1417.53 850.106 1418.13 Q853.266 1418.74 856.669 1419.96 Z" fill="#000000" fill-rule="nonzero" fill-opacity="1" /><path clip-path="url(#clip290)" d="M892.195 1424.01 Q885.876 1424.01 882.676 1430.25 Q879.516 1436.44 879.516 1448.92 Q879.516 1461.36 882.676 1467.6 Q885.876 1473.79 892.195 1473.79 Q898.555 1473.79 901.715 1467.6 Q904.915 1461.36 904.915 1448.92 Q904.915 1436.44 901.715 1430.25 Q898.555 1424.01 892.195 1424.01 M892.195 1417.53 Q902.363 1417.53 907.71 1425.59 Q913.098 1433.61 913.098 1448.92 Q913.098 1464.19 907.71 1472.25 Q902.363 1480.27 892.195 1480.27 Q882.028 1480.27 876.64 1472.25 Q871.293 1464.19 871.293 1448.92 Q871.293 1433.61 876.64 1425.59 Q882.028 1417.53 892.195 1417.53 Z" fill="#000000" fill-rule="nonzero" fill-opacity="1" /><path clip-path="url(#clip290)" d="M944.979 1424.01 Q938.659 1424.01 935.459 1430.25 Q932.299 1436.44 932.299 1448.92 Q932.299 1461.36 935.459 1467.6 Q938.659 1473.79 944.979 1473.79 Q951.339 1473.79 954.498 1467.6 Q957.699 1461.36 957.699 1448.92 Q957.699 1436.44 954.498 1430.25 Q951.339 1424.01 944.979 1424.01 M944.979 1417.53 Q955.146 1417.53 960.494 1425.59 Q965.881 1433.61 965.881 1448.92 Q965.881 1464.19 960.494 1472.25 Q955.146 1480.27 944.979 1480.27 Q934.811 1480.27 929.423 1472.25 Q924.076 1464.19 924.076 1448.92 Q924.076 1433.61 929.423 1425.59 Q934.811 1417.53 944.979 1417.53 Z" fill="#000000" fill-rule="nonzero" fill-opacity="1" /><path clip-path="url(#clip290)" d="M1266.88 1472.21 L1280.24 1472.21 L1280.24 1426.07 L1265.7 1428.99 L1265.7 1421.54 L1280.16 1418.62 L1288.35 1418.62 L1288.35 1472.21 L1301.71 1472.21 L1301.71 1479.1 L1266.88 1479.1 L1266.88 1472.21 Z" fill="#000000" fill-rule="nonzero" fill-opacity="1" /><path clip-path="url(#clip290)" d="M1335.74 1450.38 Q1329.91 1450.38 1326.55 1453.5 Q1323.22 1456.62 1323.22 1462.09 Q1323.22 1467.55 1326.55 1470.67 Q1329.91 1473.79 1335.74 1473.79 Q1341.57 1473.79 1344.94 1470.67 Q1348.3 1467.51 1348.3 1462.09 Q1348.3 1456.62 1344.94 1453.5 Q1341.62 1450.38 1335.74 1450.38 M1327.56 1446.9 Q1322.29 1445.6 1319.34 1441.99 Q1316.42 1438.39 1316.42 1433.2 Q1316.42 1425.95 1321.56 1421.74 Q1326.75 1417.53 1335.74 1417.53 Q1344.77 1417.53 1349.92 1421.74 Q1355.06 1425.95 1355.06 1433.2 Q1355.06 1438.39 1352.11 1441.99 Q1349.19 1445.6 1343.96 1446.9 Q1349.88 1448.27 1353.16 1452.28 Q1356.48 1456.29 1356.48 1462.09 Q1356.48 1470.88 1351.09 1475.58 Q1345.75 1480.27 1335.74 1480.27 Q1325.74 1480.27 1320.35 1475.58 Q1315 1470.88 1315 1462.09 Q1315 1456.29 1318.32 1452.28 Q1321.64 1448.27 1327.56 1446.9 M1324.56 1433.97 Q1324.56 1438.67 1327.48 1441.3 Q1330.43 1443.94 1335.74 1443.94 Q1341.01 1443.94 1343.96 1441.3 Q1346.96 1438.67 1346.96 1433.97 Q1346.96 1429.27 1343.96 1426.64 Q1341.01 1424.01 1335.74 1424.01 Q1330.43 1424.01 1327.48 1426.64 Q1324.56 1429.27 1324.56 1433.97 Z" fill="#000000" fill-rule="nonzero" fill-opacity="1" /><path clip-path="url(#clip290)" d="M1388.52 1424.01 Q1382.21 1424.01 1379.01 1430.25 Q1375.85 1436.44 1375.85 1448.92 Q1375.85 1461.36 1379.01 1467.6 Q1382.21 1473.79 1388.52 1473.79 Q1394.88 1473.79 1398.04 1467.6 Q1401.24 1461.36 1401.24 1448.92 Q1401.24 1436.44 1398.04 1430.25 Q1394.88 1424.01 1388.52 1424.01 M1388.52 1417.53 Q1398.69 1417.53 1404.04 1425.59 Q1409.43 1433.61 1409.43 1448.92 Q1409.43 1464.19 1404.04 1472.25 Q1398.69 1480.27 1388.52 1480.27 Q1378.36 1480.27 1372.97 1472.25 Q1367.62 1464.19 1367.62 1448.92 Q1367.62 1433.61 1372.97 1425.59 Q1378.36 1417.53 1388.52 1417.53 Z" fill="#000000" fill-rule="nonzero" fill-opacity="1" /><path clip-path="url(#clip290)" d="M1441.31 1424.01 Q1434.99 1424.01 1431.79 1430.25 Q1428.63 1436.44 1428.63 1448.92 Q1428.63 1461.36 1431.79 1467.6 Q1434.99 1473.79 1441.31 1473.79 Q1447.67 1473.79 1450.83 1467.6 Q1454.03 1461.36 1454.03 1448.92 Q1454.03 1436.44 1450.83 1430.25 Q1447.67 1424.01 1441.31 1424.01 M1441.31 1417.53 Q1451.48 1417.53 1456.82 1425.59 Q1462.21 1433.61 1462.21 1448.92 Q1462.21 1464.19 1456.82 1472.25 Q1451.48 1480.27 1441.31 1480.27 Q1431.14 1480.27 1425.75 1472.25 Q1420.41 1464.19 1420.41 1448.92 Q1420.41 1433.61 1425.75 1425.59 Q1431.14 1417.53 1441.31 1417.53 Z" fill="#000000" fill-rule="nonzero" fill-opacity="1" /><path clip-path="url(#clip290)" d="M1770.36 1472.21 L1798.91 1472.21 L1798.91 1479.1 L1760.51 1479.1 L1760.51 1472.21 Q1765.17 1467.39 1773.19 1459.29 Q1781.25 1451.15 1783.32 1448.8 Q1787.25 1444.38 1788.79 1441.35 Q1790.37 1438.27 1790.37 1435.31 Q1790.37 1430.49 1786.96 1427.45 Q1783.6 1424.41 1778.17 1424.41 Q1774.32 1424.41 1770.03 1425.75 Q1765.78 1427.09 1760.92 1429.8 L1760.92 1421.54 Q1765.86 1419.55 1770.15 1418.54 Q1774.45 1417.53 1778.01 1417.53 Q1787.41 1417.53 1793 1422.23 Q1798.59 1426.92 1798.59 1434.78 Q1798.59 1438.51 1797.17 1441.87 Q1795.79 1445.19 1792.11 1449.73 Q1791.1 1450.91 1785.67 1456.54 Q1780.24 1462.13 1770.36 1472.21 Z" fill="#000000" fill-rule="nonzero" fill-opacity="1" /><path clip-path="url(#clip290)" d="M1833.59 1424.01 Q1827.27 1424.01 1824.07 1430.25 Q1820.91 1436.44 1820.91 1448.92 Q1820.91 1461.36 1824.07 1467.6 Q1827.27 1473.79 1833.59 1473.79 Q1839.95 1473.79 1843.11 1467.6 Q1846.31 1461.36 1846.31 1448.92 Q1846.31 1436.44 1843.11 1430.25 Q1839.95 1424.01 1833.59 1424.01 M1833.59 1417.53 Q1843.76 1417.53 1849.1 1425.59 Q1854.49 1433.61 1854.49 1448.92 Q1854.49 1464.19 1849.1 1472.25 Q1843.76 1480.27 1833.59 1480.27 Q1823.42 1480.27 1818.03 1472.25 Q1812.69 1464.19 1812.69 1448.92 Q1812.69 1433.61 1818.03 1425.59 Q1823.42 1417.53 1833.59 1417.53 Z" fill="#000000" fill-rule="nonzero" fill-opacity="1" /><path clip-path="url(#clip290)" d="M1886.37 1424.01 Q1880.05 1424.01 1876.85 1430.25 Q1873.69 1436.44 1873.69 1448.92 Q1873.69 1461.36 1876.85 1467.6 Q1880.05 1473.79 1886.37 1473.79 Q1892.73 1473.79 1895.89 1467.6 Q1899.09 1461.36 1899.09 1448.92 Q1899.09 1436.44 1895.89 1430.25 Q1892.73 1424.01 1886.37 1424.01 M1886.37 1417.53 Q1896.54 1417.53 1901.89 1425.59 Q1907.28 1433.61 1907.28 1448.92 Q1907.28 1464.19 1901.89 1472.25 Q1896.54 1480.27 1886.37 1480.27 Q1876.21 1480.27 1870.82 1472.25 Q1865.47 1464.19 1865.47 1448.92 Q1865.47 1433.61 1870.82 1425.59 Q1876.21 1417.53 1886.37 1417.53 Z" fill="#000000" fill-rule="nonzero" fill-opacity="1" /><path clip-path="url(#clip290)" d="M1939.16 1424.01 Q1932.84 1424.01 1929.64 1430.25 Q1926.48 1436.44 1926.48 1448.92 Q1926.48 1461.36 1929.64 1467.6 Q1932.84 1473.79 1939.16 1473.79 Q1945.52 1473.79 1948.68 1467.6 Q1951.88 1461.36 1951.88 1448.92 Q1951.88 1436.44 1948.68 1430.25 Q1945.52 1424.01 1939.16 1424.01 M1939.16 1417.53 Q1949.32 1417.53 1954.67 1425.59 Q1960.06 1433.61 1960.06 1448.92 Q1960.06 1464.19 1954.67 1472.25 Q1949.32 1480.27 1939.16 1480.27 Q1928.99 1480.27 1923.6 1472.25 Q1918.25 1464.19 1918.25 1448.92 Q1918.25 1433.61 1923.6 1425.59 Q1928.99 1417.53 1939.16 1417.53 Z" fill="#000000" fill-rule="nonzero" fill-opacity="1" /><path clip-path="url(#clip290)" d="M770.629 1529.84 L770.629 1576.87 L780.513 1576.87 Q793.03 1576.87 798.823 1571.2 Q804.656 1565.53 804.656 1553.3 Q804.656 1541.14 798.823 1535.51 Q793.03 1529.84 780.513 1529.84 L770.629 1529.84 M762.446 1523.12 L779.257 1523.12 Q796.838 1523.12 805.061 1530.45 Q813.285 1537.74 813.285 1553.3 Q813.285 1568.93 805.021 1576.26 Q796.757 1583.6 779.257 1583.6 L762.446 1583.6 L762.446 1523.12 Z" fill="#000000" fill-rule="nonzero" fill-opacity="1" /><path clip-path="url(#clip290)" d="M864.812 1559.05 L864.812 1562.69 L830.542 1562.69 Q831.028 1570.39 835.16 1574.44 Q839.332 1578.45 846.745 1578.45 Q851.039 1578.45 855.05 1577.4 Q859.1 1576.34 863.07 1574.24 L863.07 1581.29 Q859.06 1582.99 854.847 1583.88 Q850.634 1584.77 846.3 1584.77 Q835.443 1584.77 829.083 1578.45 Q822.764 1572.13 822.764 1561.36 Q822.764 1550.22 828.759 1543.69 Q834.795 1537.13 845.003 1537.13 Q854.158 1537.13 859.465 1543.05 Q864.812 1548.92 864.812 1559.05 M857.359 1556.86 Q857.278 1550.74 853.915 1547.1 Q850.594 1543.45 845.084 1543.45 Q838.846 1543.45 835.079 1546.98 Q831.352 1550.5 830.785 1556.9 L857.359 1556.86 Z" fill="#000000" fill-rule="nonzero" fill-opacity="1" /><path clip-path="url(#clip290)" d="M884.419 1525.34 L884.419 1538.23 L899.772 1538.23 L899.772 1544.02 L884.419 1544.02 L884.419 1568.65 Q884.419 1574.2 885.917 1575.78 Q887.457 1577.36 892.115 1577.36 L899.772 1577.36 L899.772 1583.6 L892.115 1583.6 Q883.487 1583.6 880.206 1580.4 Q876.924 1577.15 876.924 1568.65 L876.924 1544.02 L871.456 1544.02 L871.456 1538.23 L876.924 1538.23 L876.924 1525.34 L884.419 1525.34 Z" fill="#000000" fill-rule="nonzero" fill-opacity="1" /><path clip-path="url(#clip290)" d="M935.865 1545.19 Q934.609 1544.46 933.111 1544.14 Q931.652 1543.78 929.87 1543.78 Q923.55 1543.78 920.148 1547.91 Q916.785 1552 916.785 1559.7 L916.785 1583.6 L909.291 1583.6 L909.291 1538.23 L916.785 1538.23 L916.785 1545.27 Q919.135 1541.14 922.902 1539.16 Q926.67 1537.13 932.057 1537.13 Q932.827 1537.13 933.759 1537.25 Q934.69 1537.33 935.825 1537.54 L935.865 1545.19 Z" fill="#000000" fill-rule="nonzero" fill-opacity="1" /><path clip-path="url(#clip290)" d="M980.668 1559.05 L980.668 1562.69 L946.397 1562.69 Q946.884 1570.39 951.016 1574.44 Q955.188 1578.45 962.601 1578.45 Q966.895 1578.45 970.905 1577.4 Q974.956 1576.34 978.926 1574.24 L978.926 1581.29 Q974.916 1582.99 970.703 1583.88 Q966.49 1584.77 962.155 1584.77 Q951.299 1584.77 944.939 1578.45 Q938.62 1572.13 938.62 1561.36 Q938.62 1550.22 944.615 1543.69 Q950.651 1537.13 960.859 1537.13 Q970.014 1537.13 975.321 1543.05 Q980.668 1548.92 980.668 1559.05 M973.214 1556.86 Q973.133 1550.74 969.771 1547.1 Q966.449 1543.45 960.94 1543.45 Q954.702 1543.45 950.934 1546.98 Q947.208 1550.5 946.641 1556.9 L973.214 1556.86 Z" fill="#000000" fill-rule="nonzero" fill-opacity="1" /><path clip-path="url(#clip290)" d="M1030.62 1556.21 L1030.62 1583.6 L1023.16 1583.6 L1023.16 1556.45 Q1023.16 1550.01 1020.65 1546.81 Q1018.14 1543.61 1013.12 1543.61 Q1007.08 1543.61 1003.6 1547.46 Q1000.11 1551.31 1000.11 1557.95 L1000.11 1583.6 L992.618 1583.6 L992.618 1538.23 L1000.11 1538.23 L1000.11 1545.27 Q1002.79 1541.18 1006.39 1539.16 Q1010.04 1537.13 1014.78 1537.13 Q1022.59 1537.13 1026.61 1541.99 Q1030.62 1546.81 1030.62 1556.21 Z" fill="#000000" fill-rule="nonzero" fill-opacity="1" /><path clip-path="url(#clip290)" d="M1075.34 1545.11 L1075.34 1520.56 L1082.79 1520.56 L1082.79 1583.6 L1075.34 1583.6 L1075.34 1576.79 Q1072.99 1580.84 1069.38 1582.83 Q1065.82 1584.77 1060.8 1584.77 Q1052.57 1584.77 1047.39 1578.21 Q1042.24 1571.65 1042.24 1560.95 Q1042.24 1550.26 1047.39 1543.69 Q1052.57 1537.13 1060.8 1537.13 Q1065.82 1537.13 1069.38 1539.12 Q1072.99 1541.06 1075.34 1545.11 M1049.94 1560.95 Q1049.94 1569.17 1053.3 1573.87 Q1056.7 1578.53 1062.62 1578.53 Q1068.53 1578.53 1071.93 1573.87 Q1075.34 1569.17 1075.34 1560.95 Q1075.34 1552.73 1071.93 1548.07 Q1068.53 1543.37 1062.62 1543.37 Q1056.7 1543.37 1053.3 1548.07 Q1049.94 1552.73 1049.94 1560.95 Z" fill="#000000" fill-rule="nonzero" fill-opacity="1" /><path clip-path="url(#clip290)" d="M1136.95 1559.05 L1136.95 1562.69 L1102.68 1562.69 Q1103.17 1570.39 1107.3 1574.44 Q1111.47 1578.45 1118.88 1578.45 Q1123.18 1578.45 1127.19 1577.4 Q1131.24 1576.34 1135.21 1574.24 L1135.21 1581.29 Q1131.2 1582.99 1126.99 1583.88 Q1122.77 1584.77 1118.44 1584.77 Q1107.58 1584.77 1101.22 1578.45 Q1094.9 1572.13 1094.9 1561.36 Q1094.9 1550.22 1100.9 1543.69 Q1106.93 1537.13 1117.14 1537.13 Q1126.3 1537.13 1131.6 1543.05 Q1136.95 1548.92 1136.95 1559.05 M1129.5 1556.86 Q1129.42 1550.74 1126.06 1547.1 Q1122.73 1543.45 1117.22 1543.45 Q1110.99 1543.45 1107.22 1546.98 Q1103.49 1550.5 1102.92 1556.9 L1129.5 1556.86 Z" fill="#000000" fill-rule="nonzero" fill-opacity="1" /><path clip-path="url(#clip290)" d="M1179.04 1545.11 L1179.04 1520.56 L1186.49 1520.56 L1186.49 1583.6 L1179.04 1583.6 L1179.04 1576.79 Q1176.69 1580.84 1173.09 1582.83 Q1169.52 1584.77 1164.5 1584.77 Q1156.27 1584.77 1151.09 1578.21 Q1145.95 1571.65 1145.95 1560.95 Q1145.95 1550.26 1151.09 1543.69 Q1156.27 1537.13 1164.5 1537.13 Q1169.52 1537.13 1173.09 1539.12 Q1176.69 1541.06 1179.04 1545.11 M1153.64 1560.95 Q1153.64 1569.17 1157 1573.87 Q1160.41 1578.53 1166.32 1578.53 Q1172.24 1578.53 1175.64 1573.87 Q1179.04 1569.17 1179.04 1560.95 Q1179.04 1552.73 1175.64 1548.07 Q1172.24 1543.37 1166.32 1543.37 Q1160.41 1543.37 1157 1548.07 Q1153.64 1552.73 1153.64 1560.95 Z" fill="#000000" fill-rule="nonzero" fill-opacity="1" /><path clip-path="url(#clip290)" d="M1223.16 1523.12 L1231.42 1523.12 L1244.14 1574.24 L1256.82 1523.12 L1266.01 1523.12 L1278.73 1574.24 L1291.41 1523.12 L1299.72 1523.12 L1284.53 1583.6 L1274.24 1583.6 L1261.48 1531.1 L1248.59 1583.6 L1238.31 1583.6 L1223.16 1523.12 Z" fill="#000000" fill-rule="nonzero" fill-opacity="1" /><path clip-path="url(#clip290)" d="M1325.56 1560.79 Q1316.53 1560.79 1313.04 1562.86 Q1309.56 1564.92 1309.56 1569.9 Q1309.56 1573.87 1312.15 1576.22 Q1314.79 1578.53 1319.28 1578.53 Q1325.48 1578.53 1329.21 1574.16 Q1332.98 1569.74 1332.98 1562.45 L1332.98 1560.79 L1325.56 1560.79 M1340.43 1557.71 L1340.43 1583.6 L1332.98 1583.6 L1332.98 1576.71 Q1330.42 1580.84 1326.62 1582.83 Q1322.81 1584.77 1317.3 1584.77 Q1310.33 1584.77 1306.2 1580.88 Q1302.11 1576.95 1302.11 1570.39 Q1302.11 1562.73 1307.21 1558.84 Q1312.36 1554.96 1322.52 1554.96 L1332.98 1554.96 L1332.98 1554.23 Q1332.98 1549.08 1329.57 1546.29 Q1326.21 1543.45 1320.09 1543.45 Q1316.2 1543.45 1312.52 1544.38 Q1308.83 1545.31 1305.43 1547.18 L1305.43 1540.29 Q1309.52 1538.71 1313.37 1537.94 Q1317.22 1537.13 1320.86 1537.13 Q1330.71 1537.13 1335.57 1542.24 Q1340.43 1547.34 1340.43 1557.71 Z" fill="#000000" fill-rule="nonzero" fill-opacity="1" /><path clip-path="url(#clip290)" d="M1363.15 1525.34 L1363.15 1538.23 L1378.51 1538.23 L1378.51 1544.02 L1363.15 1544.02 L1363.15 1568.65 Q1363.15 1574.2 1364.65 1575.78 Q1366.19 1577.36 1370.85 1577.36 L1378.51 1577.36 L1378.51 1583.6 L1370.85 1583.6 Q1362.22 1583.6 1358.94 1580.4 Q1355.66 1577.15 1355.66 1568.65 L1355.66 1544.02 L1350.19 1544.02 L1350.19 1538.23 L1355.66 1538.23 L1355.66 1525.34 L1363.15 1525.34 Z" fill="#000000" fill-rule="nonzero" fill-opacity="1" /><path clip-path="url(#clip290)" d="M1427.12 1559.05 L1427.12 1562.69 L1392.85 1562.69 Q1393.33 1570.39 1397.47 1574.44 Q1401.64 1578.45 1409.05 1578.45 Q1413.35 1578.45 1417.36 1577.4 Q1421.41 1576.34 1425.38 1574.24 L1425.38 1581.29 Q1421.37 1582.99 1417.15 1583.88 Q1412.94 1584.77 1408.61 1584.77 Q1397.75 1584.77 1391.39 1578.45 Q1385.07 1572.13 1385.07 1561.36 Q1385.07 1550.22 1391.07 1543.69 Q1397.1 1537.13 1407.31 1537.13 Q1416.46 1537.13 1421.77 1543.05 Q1427.12 1548.92 1427.12 1559.05 M1419.66 1556.86 Q1419.58 1550.74 1416.22 1547.1 Q1412.9 1543.45 1407.39 1543.45 Q1401.15 1543.45 1397.38 1546.98 Q1393.66 1550.5 1393.09 1556.9 L1419.66 1556.86 Z" fill="#000000" fill-rule="nonzero" fill-opacity="1" /><path clip-path="url(#clip290)" d="M1465.64 1545.19 Q1464.39 1544.46 1462.89 1544.14 Q1461.43 1543.78 1459.65 1543.78 Q1453.33 1543.78 1449.92 1547.91 Q1446.56 1552 1446.56 1559.7 L1446.56 1583.6 L1439.07 1583.6 L1439.07 1538.23 L1446.56 1538.23 L1446.56 1545.27 Q1448.91 1541.14 1452.68 1539.16 Q1456.45 1537.13 1461.83 1537.13 Q1462.6 1537.13 1463.54 1537.25 Q1464.47 1537.33 1465.6 1537.54 L1465.64 1545.19 Z" fill="#000000" fill-rule="nonzero" fill-opacity="1" /><path clip-path="url(#clip290)" d="M1500.16 1523.12 L1508.34 1523.12 L1508.34 1576.71 L1537.79 1576.71 L1537.79 1583.6 L1500.16 1583.6 L1500.16 1523.12 Z" fill="#000000" fill-rule="nonzero" fill-opacity="1" /><path clip-path="url(#clip290)" d="M1583.4 1559.05 L1583.4 1562.69 L1549.13 1562.69 Q1549.62 1570.39 1553.75 1574.44 Q1557.92 1578.45 1565.34 1578.45 Q1569.63 1578.45 1573.64 1577.4 Q1577.69 1576.34 1581.66 1574.24 L1581.66 1581.29 Q1577.65 1582.99 1573.44 1583.88 Q1569.22 1584.77 1564.89 1584.77 Q1554.03 1584.77 1547.67 1578.45 Q1541.35 1572.13 1541.35 1561.36 Q1541.35 1550.22 1547.35 1543.69 Q1553.38 1537.13 1563.59 1537.13 Q1572.75 1537.13 1578.05 1543.05 Q1583.4 1548.92 1583.4 1559.05 M1575.95 1556.86 Q1575.87 1550.74 1572.51 1547.1 Q1569.18 1543.45 1563.67 1543.45 Q1557.44 1543.45 1553.67 1546.98 Q1549.94 1550.5 1549.37 1556.9 L1575.95 1556.86 Z" fill="#000000" fill-rule="nonzero" fill-opacity="1" /><path clip-path="url(#clip290)" d="M1590.29 1538.23 L1598.19 1538.23 L1612.37 1576.3 L1626.54 1538.23 L1634.44 1538.23 L1617.43 1583.6 L1607.3 1583.6 L1590.29 1538.23 Z" fill="#000000" fill-rule="nonzero" fill-opacity="1" /><path clip-path="url(#clip290)" d="M1683.54 1559.05 L1683.54 1562.69 L1649.27 1562.69 Q1649.76 1570.39 1653.89 1574.44 Q1658.06 1578.45 1665.47 1578.45 Q1669.77 1578.45 1673.78 1577.4 Q1677.83 1576.34 1681.8 1574.24 L1681.8 1581.29 Q1677.79 1582.99 1673.58 1583.88 Q1669.36 1584.77 1665.03 1584.77 Q1654.17 1584.77 1647.81 1578.45 Q1641.49 1572.13 1641.49 1561.36 Q1641.49 1550.22 1647.49 1543.69 Q1653.52 1537.13 1663.73 1537.13 Q1672.89 1537.13 1678.19 1543.05 Q1683.54 1548.92 1683.54 1559.05 M1676.09 1556.86 Q1676.01 1550.74 1672.64 1547.1 Q1669.32 1543.45 1663.81 1543.45 Q1657.57 1543.45 1653.81 1546.98 Q1650.08 1550.5 1649.51 1556.9 L1676.09 1556.86 Z" fill="#000000" fill-rule="nonzero" fill-opacity="1" /><path clip-path="url(#clip290)" d="M1695.77 1520.56 L1703.23 1520.56 L1703.23 1583.6 L1695.77 1583.6 L1695.77 1520.56 Z" fill="#000000" fill-rule="nonzero" fill-opacity="1" /><path clip-path="url(#clip290)" d="M1763.1 1520.64 Q1757.67 1529.96 1755.04 1539.08 Q1752.41 1548.19 1752.41 1557.55 Q1752.41 1566.91 1755.04 1576.1 Q1757.71 1585.26 1763.1 1594.53 L1756.62 1594.53 Q1750.54 1585.01 1747.5 1575.82 Q1744.51 1566.62 1744.51 1557.55 Q1744.51 1548.52 1747.5 1539.36 Q1750.5 1530.2 1756.62 1520.64 L1763.1 1520.64 Z" fill="#000000" fill-rule="nonzero" fill-opacity="1" /><path clip-path="url(#clip290)" d="M1812.89 1546.94 Q1815.68 1541.91 1819.57 1539.52 Q1823.46 1537.13 1828.72 1537.13 Q1835.81 1537.13 1839.66 1542.11 Q1843.51 1547.06 1843.51 1556.21 L1843.51 1583.6 L1836.02 1583.6 L1836.02 1556.45 Q1836.02 1549.93 1833.71 1546.77 Q1831.4 1543.61 1826.66 1543.61 Q1820.87 1543.61 1817.5 1547.46 Q1814.14 1551.31 1814.14 1557.95 L1814.14 1583.6 L1806.65 1583.6 L1806.65 1556.45 Q1806.65 1549.89 1804.34 1546.77 Q1802.03 1543.61 1797.21 1543.61 Q1791.5 1543.61 1788.13 1547.5 Q1784.77 1551.35 1784.77 1557.95 L1784.77 1583.6 L1777.28 1583.6 L1777.28 1538.23 L1784.77 1538.23 L1784.77 1545.27 Q1787.32 1541.1 1790.89 1539.12 Q1794.45 1537.13 1799.36 1537.13 Q1804.3 1537.13 1807.74 1539.64 Q1811.23 1542.16 1812.89 1546.94 Z" fill="#000000" fill-rule="nonzero" fill-opacity="1" /><path clip-path="url(#clip290)" d="M1893.7 1546.94 Q1896.5 1541.91 1900.39 1539.52 Q1904.27 1537.13 1909.54 1537.13 Q1916.63 1537.13 1920.48 1542.11 Q1924.33 1547.06 1924.33 1556.21 L1924.33 1583.6 L1916.83 1583.6 L1916.83 1556.45 Q1916.83 1549.93 1914.52 1546.77 Q1912.21 1543.61 1907.47 1543.61 Q1901.68 1543.61 1898.32 1547.46 Q1894.96 1551.31 1894.96 1557.95 L1894.96 1583.6 L1887.46 1583.6 L1887.46 1556.45 Q1887.46 1549.89 1885.15 1546.77 Q1882.85 1543.61 1878.02 1543.61 Q1872.31 1543.61 1868.95 1547.5 Q1865.59 1551.35 1865.59 1557.95 L1865.59 1583.6 L1858.09 1583.6 L1858.09 1538.23 L1865.59 1538.23 L1865.59 1545.27 Q1868.14 1541.1 1871.71 1539.12 Q1875.27 1537.13 1880.17 1537.13 Q1885.11 1537.13 1888.56 1539.64 Q1892.04 1542.16 1893.7 1546.94 Z" fill="#000000" fill-rule="nonzero" fill-opacity="1" /><path clip-path="url(#clip290)" d="M1938.02 1520.64 L1944.5 1520.64 Q1950.58 1530.2 1953.57 1539.36 Q1956.61 1548.52 1956.61 1557.55 Q1956.61 1566.62 1953.57 1575.82 Q1950.58 1585.01 1944.5 1594.53 L1938.02 1594.53 Q1943.41 1585.26 1946.04 1576.1 Q1948.71 1566.91 1948.71 1557.55 Q1948.71 1548.19 1946.04 1539.08 Q1943.41 1529.96 1938.02 1520.64 Z" fill="#000000" fill-rule="nonzero" fill-opacity="1" /><polyline clip-path="url(#clip292)" style="stroke:#000000; stroke-linecap:round; stroke-linejoin:round; stroke-width:2; stroke-opacity:0.1; fill:none" points="366.302,1348.62 2352.76,1348.62 "/>
<polyline clip-path="url(#clip292)" style="stroke:#000000; stroke-linecap:round; stroke-linejoin:round; stroke-width:2; stroke-opacity:0.1; fill:none" points="366.302,1063.72 2352.76,1063.72 "/>
<polyline clip-path="url(#clip292)" style="stroke:#000000; stroke-linecap:round; stroke-linejoin:round; stroke-width:2; stroke-opacity:0.1; fill:none" points="366.302,778.816 2352.76,778.816 "/>
<polyline clip-path="url(#clip292)" style="stroke:#000000; stroke-linecap:round; stroke-linejoin:round; stroke-width:2; stroke-opacity:0.1; fill:none" points="366.302,493.916 2352.76,493.916 "/>
<polyline clip-path="url(#clip292)" style="stroke:#000000; stroke-linecap:round; stroke-linejoin:round; stroke-width:2; stroke-opacity:0.1; fill:none" points="366.302,209.016 2352.76,209.016 "/>
<polyline clip-path="url(#clip290)" style="stroke:#000000; stroke-linecap:round; stroke-linejoin:round; stroke-width:4; stroke-opacity:1; fill:none" points="366.302,1384.3 366.302,123.472 "/>
<polyline clip-path="url(#clip290)" style="stroke:#000000; stroke-linecap:round; stroke-linejoin:round; stroke-width:4; stroke-opacity:1; fill:none" points="366.302,1348.62 385.2,1348.62 "/>
<polyline clip-path="url(#clip290)" style="stroke:#000000; stroke-linecap:round; stroke-linejoin:round; stroke-width:4; stroke-opacity:1; fill:none" points="366.302,1063.72 385.2,1063.72 "/>
<polyline clip-path="url(#clip290)" style="stroke:#000000; stroke-linecap:round; stroke-linejoin:round; stroke-width:4; stroke-opacity:1; fill:none" points="366.302,778.816 385.2,778.816 "/>
<polyline clip-path="url(#clip290)" style="stroke:#000000; stroke-linecap:round; stroke-linejoin:round; stroke-width:4; stroke-opacity:1; fill:none" points="366.302,493.916 385.2,493.916 "/>
<polyline clip-path="url(#clip290)" style="stroke:#000000; stroke-linecap:round; stroke-linejoin:round; stroke-width:4; stroke-opacity:1; fill:none" points="366.302,209.016 385.2,209.016 "/>
<path clip-path="url(#clip290)" d="M71.8948 1323.76 Q65.5754 1323.76 62.3752 1330 Q59.2155 1336.2 59.2155 1348.68 Q59.2155 1361.11 62.3752 1367.35 Q65.5754 1373.55 71.8948 1373.55 Q78.2547 1373.55 81.4144 1367.35 Q84.6146 1361.11 84.6146 1348.68 Q84.6146 1336.2 81.4144 1330 Q78.2547 1323.76 71.8948 1323.76 M71.8948 1317.28 Q82.0626 1317.28 87.4098 1325.34 Q92.7975 1333.36 92.7975 1348.68 Q92.7975 1363.95 87.4098 1372.01 Q82.0626 1380.03 71.8948 1380.03 Q61.727 1380.03 56.3393 1372.01 Q50.9921 1363.95 50.9921 1348.68 Q50.9921 1333.36 56.3393 1325.34 Q61.727 1317.28 71.8948 1317.28 Z" fill="#000000" fill-rule="nonzero" fill-opacity="1" /><path clip-path="url(#clip290)" d="M107.178 1368.57 L115.726 1368.57 L115.726 1378.86 L107.178 1378.86 L107.178 1368.57 Z" fill="#000000" fill-rule="nonzero" fill-opacity="1" /><path clip-path="url(#clip290)" d="M151.049 1323.76 Q144.73 1323.76 141.53 1330 Q138.37 1336.2 138.37 1348.68 Q138.37 1361.11 141.53 1367.35 Q144.73 1373.55 151.049 1373.55 Q157.409 1373.55 160.569 1367.35 Q163.769 1361.11 163.769 1348.68 Q163.769 1336.2 160.569 1330 Q157.409 1323.76 151.049 1323.76 M151.049 1317.28 Q161.217 1317.28 166.564 1325.34 Q171.952 1333.36 171.952 1348.68 Q171.952 1363.95 166.564 1372.01 Q161.217 1380.03 151.049 1380.03 Q140.882 1380.03 135.494 1372.01 Q130.147 1363.95 130.147 1348.68 Q130.147 1333.36 135.494 1325.34 Q140.882 1317.28 151.049 1317.28 Z" fill="#000000" fill-rule="nonzero" fill-opacity="1" /><path clip-path="url(#clip290)" d="M203.833 1323.76 Q197.513 1323.76 194.313 1330 Q191.153 1336.2 191.153 1348.68 Q191.153 1361.11 194.313 1367.35 Q197.513 1373.55 203.833 1373.55 Q210.193 1373.55 213.352 1367.35 Q216.553 1361.11 216.553 1348.68 Q216.553 1336.2 213.352 1330 Q210.193 1323.76 203.833 1323.76 M203.833 1317.28 Q214.001 1317.28 219.348 1325.34 Q224.735 1333.36 224.735 1348.68 Q224.735 1363.95 219.348 1372.01 Q214.001 1380.03 203.833 1380.03 Q193.665 1380.03 188.277 1372.01 Q182.93 1363.95 182.93 1348.68 Q182.93 1333.36 188.277 1325.34 Q193.665 1317.28 203.833 1317.28 Z" fill="#000000" fill-rule="nonzero" fill-opacity="1" /><path clip-path="url(#clip290)" d="M256.616 1323.76 Q250.297 1323.76 247.096 1330 Q243.937 1336.2 243.937 1348.68 Q243.937 1361.11 247.096 1367.35 Q250.297 1373.55 256.616 1373.55 Q262.976 1373.55 266.136 1367.35 Q269.336 1361.11 269.336 1348.68 Q269.336 1336.2 266.136 1330 Q262.976 1323.76 256.616 1323.76 M256.616 1317.28 Q266.784 1317.28 272.131 1325.34 Q277.519 1333.36 277.519 1348.68 Q277.519 1363.95 272.131 1372.01 Q266.784 1380.03 256.616 1380.03 Q246.448 1380.03 241.061 1372.01 Q235.713 1363.95 235.713 1348.68 Q235.713 1333.36 241.061 1325.34 Q246.448 1317.28 256.616 1317.28 Z" fill="#000000" fill-rule="nonzero" fill-opacity="1" /><path clip-path="url(#clip290)" d="M309.399 1323.76 Q303.08 1323.76 299.88 1330 Q296.72 1336.2 296.72 1348.68 Q296.72 1361.11 299.88 1367.35 Q303.08 1373.55 309.399 1373.55 Q315.759 1373.55 318.919 1367.35 Q322.119 1361.11 322.119 1348.68 Q322.119 1336.2 318.919 1330 Q315.759 1323.76 309.399 1323.76 M309.399 1317.28 Q319.567 1317.28 324.914 1325.34 Q330.302 1333.36 330.302 1348.68 Q330.302 1363.95 324.914 1372.01 Q319.567 1380.03 309.399 1380.03 Q299.232 1380.03 293.844 1372.01 Q288.497 1363.95 288.497 1348.68 Q288.497 1333.36 293.844 1325.34 Q299.232 1317.28 309.399 1317.28 Z" fill="#000000" fill-rule="nonzero" fill-opacity="1" /><path clip-path="url(#clip290)" d="M73.6367 1038.86 Q67.3173 1038.86 64.1171 1045.1 Q60.9574 1051.3 60.9574 1063.78 Q60.9574 1076.21 64.1171 1082.45 Q67.3173 1088.65 73.6367 1088.65 Q79.9966 1088.65 83.1563 1082.45 Q86.3565 1076.21 86.3565 1063.78 Q86.3565 1051.3 83.1563 1045.1 Q79.9966 1038.86 73.6367 1038.86 M73.6367 1032.38 Q83.8045 1032.38 89.1516 1040.44 Q94.5393 1048.46 94.5393 1063.78 Q94.5393 1079.05 89.1516 1087.11 Q83.8045 1095.13 73.6367 1095.13 Q63.4689 1095.13 58.0812 1087.11 Q52.734 1079.05 52.734 1063.78 Q52.734 1048.46 58.0812 1040.44 Q63.4689 1032.38 73.6367 1032.38 Z" fill="#000000" fill-rule="nonzero" fill-opacity="1" /><path clip-path="url(#clip290)" d="M108.92 1083.67 L117.467 1083.67 L117.467 1093.96 L108.92 1093.96 L108.92 1083.67 Z" fill="#000000" fill-rule="nonzero" fill-opacity="1" /><path clip-path="url(#clip290)" d="M152.791 1038.86 Q146.472 1038.86 143.272 1045.1 Q140.112 1051.3 140.112 1063.78 Q140.112 1076.21 143.272 1082.45 Q146.472 1088.65 152.791 1088.65 Q159.151 1088.65 162.311 1082.45 Q165.511 1076.21 165.511 1063.78 Q165.511 1051.3 162.311 1045.1 Q159.151 1038.86 152.791 1038.86 M152.791 1032.38 Q162.959 1032.38 168.306 1040.44 Q173.694 1048.46 173.694 1063.78 Q173.694 1079.05 168.306 1087.11 Q162.959 1095.13 152.791 1095.13 Q142.624 1095.13 137.236 1087.11 Q131.889 1079.05 131.889 1063.78 Q131.889 1048.46 137.236 1040.44 Q142.624 1032.38 152.791 1032.38 Z" fill="#000000" fill-rule="nonzero" fill-opacity="1" /><path clip-path="url(#clip290)" d="M205.575 1038.86 Q199.255 1038.86 196.055 1045.1 Q192.895 1051.3 192.895 1063.78 Q192.895 1076.21 196.055 1082.45 Q199.255 1088.65 205.575 1088.65 Q211.935 1088.65 215.094 1082.45 Q218.294 1076.21 218.294 1063.78 Q218.294 1051.3 215.094 1045.1 Q211.935 1038.86 205.575 1038.86 M205.575 1032.38 Q215.742 1032.38 221.09 1040.44 Q226.477 1048.46 226.477 1063.78 Q226.477 1079.05 221.09 1087.11 Q215.742 1095.13 205.575 1095.13 Q195.407 1095.13 190.019 1087.11 Q184.672 1079.05 184.672 1063.78 Q184.672 1048.46 190.019 1040.44 Q195.407 1032.38 205.575 1032.38 Z" fill="#000000" fill-rule="nonzero" fill-opacity="1" /><path clip-path="url(#clip290)" d="M247.907 1087.07 L276.465 1087.07 L276.465 1093.96 L238.063 1093.96 L238.063 1087.07 Q242.721 1082.25 250.742 1074.15 Q258.804 1066 260.869 1063.66 Q264.799 1059.24 266.338 1056.2 Q267.918 1053.12 267.918 1050.17 Q267.918 1045.35 264.515 1042.31 Q261.153 1039.27 255.725 1039.27 Q251.876 1039.27 247.583 1040.61 Q243.329 1041.94 238.468 1044.66 L238.468 1036.39 Q243.41 1034.41 247.704 1033.4 Q251.998 1032.38 255.563 1032.38 Q264.961 1032.38 270.551 1037.08 Q276.141 1041.78 276.141 1049.64 Q276.141 1053.37 274.724 1056.73 Q273.346 1060.05 269.66 1064.59 Q268.647 1065.76 263.219 1071.39 Q257.791 1076.98 247.907 1087.07 Z" fill="#000000" fill-rule="nonzero" fill-opacity="1" /><path clip-path="url(#clip290)" d="M293.722 1033.48 L325.846 1033.48 L325.846 1040.36 L301.216 1040.36 L301.216 1055.19 Q302.999 1054.58 304.781 1054.3 Q306.564 1053.97 308.346 1053.97 Q318.473 1053.97 324.388 1059.52 Q330.302 1065.07 330.302 1074.55 Q330.302 1084.31 324.226 1089.74 Q318.149 1095.13 307.09 1095.13 Q303.282 1095.13 299.313 1094.48 Q295.383 1093.83 291.17 1092.54 L291.17 1084.31 Q294.816 1086.3 298.705 1087.27 Q302.594 1088.24 306.928 1088.24 Q313.936 1088.24 318.028 1084.56 Q322.119 1080.87 322.119 1074.55 Q322.119 1068.23 318.028 1064.55 Q313.936 1060.86 306.928 1060.86 Q303.647 1060.86 300.366 1061.59 Q297.125 1062.32 293.722 1063.86 L293.722 1033.48 Z" fill="#000000" fill-rule="nonzero" fill-opacity="1" /><path clip-path="url(#clip290)" d="M71.8948 753.964 Q65.5754 753.964 62.3752 760.202 Q59.2155 766.4 59.2155 778.877 Q59.2155 791.313 62.3752 797.552 Q65.5754 803.749 71.8948 803.749 Q78.2547 803.749 81.4144 797.552 Q84.6146 791.313 84.6146 778.877 Q84.6146 766.4 81.4144 760.202 Q78.2547 753.964 71.8948 753.964 M71.8948 747.482 Q82.0626 747.482 87.4098 755.544 Q92.7975 763.565 92.7975 778.877 Q92.7975 794.149 87.4098 802.21 Q82.0626 810.231 71.8948 810.231 Q61.727 810.231 56.3393 802.21 Q50.9921 794.149 50.9921 778.877 Q50.9921 763.565 56.3393 755.544 Q61.727 747.482 71.8948 747.482 Z" fill="#000000" fill-rule="nonzero" fill-opacity="1" /><path clip-path="url(#clip290)" d="M107.178 798.767 L115.726 798.767 L115.726 809.056 L107.178 809.056 L107.178 798.767 Z" fill="#000000" fill-rule="nonzero" fill-opacity="1" /><path clip-path="url(#clip290)" d="M151.049 753.964 Q144.73 753.964 141.53 760.202 Q138.37 766.4 138.37 778.877 Q138.37 791.313 141.53 797.552 Q144.73 803.749 151.049 803.749 Q157.409 803.749 160.569 797.552 Q163.769 791.313 163.769 778.877 Q163.769 766.4 160.569 760.202 Q157.409 753.964 151.049 753.964 M151.049 747.482 Q161.217 747.482 166.564 755.544 Q171.952 763.565 171.952 778.877 Q171.952 794.149 166.564 802.21 Q161.217 810.231 151.049 810.231 Q140.882 810.231 135.494 802.21 Q130.147 794.149 130.147 778.877 Q130.147 763.565 135.494 755.544 Q140.882 747.482 151.049 747.482 Z" fill="#000000" fill-rule="nonzero" fill-opacity="1" /><path clip-path="url(#clip290)" d="M203.833 753.964 Q197.513 753.964 194.313 760.202 Q191.153 766.4 191.153 778.877 Q191.153 791.313 194.313 797.552 Q197.513 803.749 203.833 803.749 Q210.193 803.749 213.352 797.552 Q216.553 791.313 216.553 778.877 Q216.553 766.4 213.352 760.202 Q210.193 753.964 203.833 753.964 M203.833 747.482 Q214.001 747.482 219.348 755.544 Q224.735 763.565 224.735 778.877 Q224.735 794.149 219.348 802.21 Q214.001 810.231 203.833 810.231 Q193.665 810.231 188.277 802.21 Q182.93 794.149 182.93 778.877 Q182.93 763.565 188.277 755.544 Q193.665 747.482 203.833 747.482 Z" fill="#000000" fill-rule="nonzero" fill-opacity="1" /><path clip-path="url(#clip290)" d="M239.197 748.576 L271.321 748.576 L271.321 755.463 L246.691 755.463 L246.691 770.289 Q248.474 769.681 250.256 769.398 Q252.039 769.074 253.821 769.074 Q263.948 769.074 269.862 774.623 Q275.777 780.173 275.777 789.652 Q275.777 799.415 269.7 804.843 Q263.624 810.231 252.565 810.231 Q248.757 810.231 244.787 809.583 Q240.858 808.935 236.645 807.638 L236.645 799.415 Q240.291 801.4 244.18 802.372 Q248.069 803.344 252.403 803.344 Q259.411 803.344 263.503 799.658 Q267.594 795.972 267.594 789.652 Q267.594 783.333 263.503 779.647 Q259.411 775.96 252.403 775.96 Q249.122 775.96 245.841 776.689 Q242.6 777.419 239.197 778.958 L239.197 748.576 Z" fill="#000000" fill-rule="nonzero" fill-opacity="1" /><path clip-path="url(#clip290)" d="M309.399 753.964 Q303.08 753.964 299.88 760.202 Q296.72 766.4 296.72 778.877 Q296.72 791.313 299.88 797.552 Q303.08 803.749 309.399 803.749 Q315.759 803.749 318.919 797.552 Q322.119 791.313 322.119 778.877 Q322.119 766.4 318.919 760.202 Q315.759 753.964 309.399 753.964 M309.399 747.482 Q319.567 747.482 324.914 755.544 Q330.302 763.565 330.302 778.877 Q330.302 794.149 324.914 802.21 Q319.567 810.231 309.399 810.231 Q299.232 810.231 293.844 802.21 Q288.497 794.149 288.497 778.877 Q288.497 763.565 293.844 755.544 Q299.232 747.482 309.399 747.482 Z" fill="#000000" fill-rule="nonzero" fill-opacity="1" /><path clip-path="url(#clip290)" d="M73.6367 469.064 Q67.3173 469.064 64.1171 475.302 Q60.9574 481.5 60.9574 493.977 Q60.9574 506.413 64.1171 512.652 Q67.3173 518.85 73.6367 518.85 Q79.9966 518.85 83.1563 512.652 Q86.3565 506.413 86.3565 493.977 Q86.3565 481.5 83.1563 475.302 Q79.9966 469.064 73.6367 469.064 M73.6367 462.582 Q83.8045 462.582 89.1516 470.644 Q94.5393 478.665 94.5393 493.977 Q94.5393 509.249 89.1516 517.31 Q83.8045 525.331 73.6367 525.331 Q63.4689 525.331 58.0812 517.31 Q52.734 509.249 52.734 493.977 Q52.734 478.665 58.0812 470.644 Q63.4689 462.582 73.6367 462.582 Z" fill="#000000" fill-rule="nonzero" fill-opacity="1" /><path clip-path="url(#clip290)" d="M108.92 513.867 L117.467 513.867 L117.467 524.156 L108.92 524.156 L108.92 513.867 Z" fill="#000000" fill-rule="nonzero" fill-opacity="1" /><path clip-path="url(#clip290)" d="M152.791 469.064 Q146.472 469.064 143.272 475.302 Q140.112 481.5 140.112 493.977 Q140.112 506.413 143.272 512.652 Q146.472 518.85 152.791 518.85 Q159.151 518.85 162.311 512.652 Q165.511 506.413 165.511 493.977 Q165.511 481.5 162.311 475.302 Q159.151 469.064 152.791 469.064 M152.791 462.582 Q162.959 462.582 168.306 470.644 Q173.694 478.665 173.694 493.977 Q173.694 509.249 168.306 517.31 Q162.959 525.331 152.791 525.331 Q142.624 525.331 137.236 517.31 Q131.889 509.249 131.889 493.977 Q131.889 478.665 137.236 470.644 Q142.624 462.582 152.791 462.582 Z" fill="#000000" fill-rule="nonzero" fill-opacity="1" /><path clip-path="url(#clip290)" d="M205.575 469.064 Q199.255 469.064 196.055 475.302 Q192.895 481.5 192.895 493.977 Q192.895 506.413 196.055 512.652 Q199.255 518.85 205.575 518.85 Q211.935 518.85 215.094 512.652 Q218.294 506.413 218.294 493.977 Q218.294 481.5 215.094 475.302 Q211.935 469.064 205.575 469.064 M205.575 462.582 Q215.742 462.582 221.09 470.644 Q226.477 478.665 226.477 493.977 Q226.477 509.249 221.09 517.31 Q215.742 525.331 205.575 525.331 Q195.407 525.331 190.019 517.31 Q184.672 509.249 184.672 493.977 Q184.672 478.665 190.019 470.644 Q195.407 462.582 205.575 462.582 Z" fill="#000000" fill-rule="nonzero" fill-opacity="1" /><path clip-path="url(#clip290)" d="M238.792 463.676 L277.681 463.676 L277.681 467.16 L255.725 524.156 L247.177 524.156 L267.837 470.563 L238.792 470.563 L238.792 463.676 Z" fill="#000000" fill-rule="nonzero" fill-opacity="1" /><path clip-path="url(#clip290)" d="M293.722 463.676 L325.846 463.676 L325.846 470.563 L301.216 470.563 L301.216 485.389 Q302.999 484.781 304.781 484.498 Q306.564 484.174 308.346 484.174 Q318.473 484.174 324.388 489.724 Q330.302 495.273 330.302 504.752 Q330.302 514.515 324.226 519.943 Q318.149 525.331 307.09 525.331 Q303.282 525.331 299.313 524.683 Q295.383 524.035 291.17 522.738 L291.17 514.515 Q294.816 516.5 298.705 517.472 Q302.594 518.444 306.928 518.444 Q313.936 518.444 318.028 514.758 Q322.119 511.072 322.119 504.752 Q322.119 498.433 318.028 494.747 Q313.936 491.06 306.928 491.06 Q303.647 491.06 300.366 491.79 Q297.125 492.519 293.722 494.058 L293.722 463.676 Z" fill="#000000" fill-rule="nonzero" fill-opacity="1" /><path clip-path="url(#clip290)" d="M71.8948 184.164 Q65.5754 184.164 62.3752 190.402 Q59.2155 196.6 59.2155 209.077 Q59.2155 221.513 62.3752 227.752 Q65.5754 233.95 71.8948 233.95 Q78.2547 233.95 81.4144 227.752 Q84.6146 221.513 84.6146 209.077 Q84.6146 196.6 81.4144 190.402 Q78.2547 184.164 71.8948 184.164 M71.8948 177.683 Q82.0626 177.683 87.4098 185.744 Q92.7975 193.765 92.7975 209.077 Q92.7975 224.349 87.4098 232.41 Q82.0626 240.431 71.8948 240.431 Q61.727 240.431 56.3393 232.41 Q50.9921 224.349 50.9921 209.077 Q50.9921 193.765 56.3393 185.744 Q61.727 177.683 71.8948 177.683 Z" fill="#000000" fill-rule="nonzero" fill-opacity="1" /><path clip-path="url(#clip290)" d="M107.178 228.967 L115.726 228.967 L115.726 239.256 L107.178 239.256 L107.178 228.967 Z" fill="#000000" fill-rule="nonzero" fill-opacity="1" /><path clip-path="url(#clip290)" d="M151.049 184.164 Q144.73 184.164 141.53 190.402 Q138.37 196.6 138.37 209.077 Q138.37 221.513 141.53 227.752 Q144.73 233.95 151.049 233.95 Q157.409 233.95 160.569 227.752 Q163.769 221.513 163.769 209.077 Q163.769 196.6 160.569 190.402 Q157.409 184.164 151.049 184.164 M151.049 177.683 Q161.217 177.683 166.564 185.744 Q171.952 193.765 171.952 209.077 Q171.952 224.349 166.564 232.41 Q161.217 240.431 151.049 240.431 Q140.882 240.431 135.494 232.41 Q130.147 224.349 130.147 209.077 Q130.147 193.765 135.494 185.744 Q140.882 177.683 151.049 177.683 Z" fill="#000000" fill-rule="nonzero" fill-opacity="1" /><path clip-path="url(#clip290)" d="M187.751 232.37 L201.119 232.37 L201.119 186.23 L186.576 189.147 L186.576 181.693 L201.038 178.776 L209.22 178.776 L209.22 232.37 L222.588 232.37 L222.588 239.256 L187.751 239.256 L187.751 232.37 Z" fill="#000000" fill-rule="nonzero" fill-opacity="1" /><path clip-path="url(#clip290)" d="M256.616 184.164 Q250.297 184.164 247.096 190.402 Q243.937 196.6 243.937 209.077 Q243.937 221.513 247.096 227.752 Q250.297 233.95 256.616 233.95 Q262.976 233.95 266.136 227.752 Q269.336 221.513 269.336 209.077 Q269.336 196.6 266.136 190.402 Q262.976 184.164 256.616 184.164 M256.616 177.683 Q266.784 177.683 272.131 185.744 Q277.519 193.765 277.519 209.077 Q277.519 224.349 272.131 232.41 Q266.784 240.431 256.616 240.431 Q246.448 240.431 241.061 232.41 Q235.713 224.349 235.713 209.077 Q235.713 193.765 241.061 185.744 Q246.448 177.683 256.616 177.683 Z" fill="#000000" fill-rule="nonzero" fill-opacity="1" /><path clip-path="url(#clip290)" d="M309.399 184.164 Q303.08 184.164 299.88 190.402 Q296.72 196.6 296.72 209.077 Q296.72 221.513 299.88 227.752 Q303.08 233.95 309.399 233.95 Q315.759 233.95 318.919 227.752 Q322.119 221.513 322.119 209.077 Q322.119 196.6 318.919 190.402 Q315.759 184.164 309.399 184.164 M309.399 177.683 Q319.567 177.683 324.914 185.744 Q330.302 193.765 330.302 209.077 Q330.302 224.349 324.914 232.41 Q319.567 240.431 309.399 240.431 Q299.232 240.431 293.844 232.41 Q288.497 224.349 288.497 209.077 Q288.497 193.765 293.844 185.744 Q299.232 177.683 309.399 177.683 Z" fill="#000000" fill-rule="nonzero" fill-opacity="1" /><path clip-path="url(#clip290)" d="M748.268 65.6895 L761.636 65.6895 L761.636 19.5497 L747.093 22.4663 L747.093 15.0127 L761.555 12.096 L769.738 12.096 L769.738 65.6895 L783.106 65.6895 L783.106 72.576 L748.268 72.576 L748.268 65.6895 Z" fill="#000000" fill-rule="nonzero" fill-opacity="1" /><path clip-path="url(#clip290)" d="M817.133 17.4837 Q810.814 17.4837 807.613 23.7221 Q804.454 29.92 804.454 42.3968 Q804.454 54.833 807.613 61.0714 Q810.814 67.2693 817.133 67.2693 Q823.493 67.2693 826.653 61.0714 Q829.853 54.833 829.853 42.3968 Q829.853 29.92 826.653 23.7221 Q823.493 17.4837 817.133 17.4837 M817.133 11.0023 Q827.301 11.0023 832.648 19.0636 Q838.036 27.0843 838.036 42.3968 Q838.036 57.6687 832.648 65.73 Q827.301 73.7508 817.133 73.7508 Q806.965 73.7508 801.578 65.73 Q796.23 57.6687 796.23 42.3968 Q796.23 27.0843 801.578 19.0636 Q806.965 11.0023 817.133 11.0023 Z" fill="#000000" fill-rule="nonzero" fill-opacity="1" /><path clip-path="url(#clip290)" d="M869.916 17.4837 Q863.597 17.4837 860.397 23.7221 Q857.237 29.92 857.237 42.3968 Q857.237 54.833 860.397 61.0714 Q863.597 67.2693 869.916 67.2693 Q876.276 67.2693 879.436 61.0714 Q882.636 54.833 882.636 42.3968 Q882.636 29.92 879.436 23.7221 Q876.276 17.4837 869.916 17.4837 M869.916 11.0023 Q880.084 11.0023 885.431 19.0636 Q890.819 27.0843 890.819 42.3968 Q890.819 57.6687 885.431 65.73 Q880.084 73.7508 869.916 73.7508 Q859.749 73.7508 854.361 65.73 Q849.014 57.6687 849.014 42.3968 Q849.014 27.0843 854.361 19.0636 Q859.749 11.0023 869.916 11.0023 Z" fill="#000000" fill-rule="nonzero" fill-opacity="1" /><path clip-path="url(#clip290)" d="M900.379 46.5287 L922.214 46.5287 L922.214 53.1722 L900.379 53.1722 L900.379 46.5287 Z" fill="#000000" fill-rule="nonzero" fill-opacity="1" /><path clip-path="url(#clip290)" d="M916.259 12.096 L925.049 12.096 L941.82 36.9686 L958.469 12.096 L967.26 12.096 L945.871 43.7741 L945.871 72.576 L937.648 72.576 L937.648 43.7741 L916.259 12.096 Z" fill="#000000" fill-rule="nonzero" fill-opacity="1" /><path clip-path="url(#clip290)" d="M1002.71 48.0275 L1002.71 51.6733 L968.434 51.6733 Q968.92 59.3701 973.052 63.421 Q977.225 67.4314 984.638 67.4314 Q988.932 67.4314 992.942 66.3781 Q996.993 65.3249 1000.96 63.2184 L1000.96 70.267 Q996.953 71.9684 992.74 72.8596 Q988.527 73.7508 984.192 73.7508 Q973.336 73.7508 966.976 67.4314 Q960.657 61.1119 960.657 50.3365 Q960.657 39.1965 966.652 32.6746 Q972.688 26.1121 982.896 26.1121 Q992.051 26.1121 997.358 32.0264 Q1002.71 37.9003 1002.71 48.0275 M995.251 45.84 Q995.17 39.7232 991.808 36.0774 Q988.486 32.4315 982.977 32.4315 Q976.739 32.4315 972.971 35.9558 Q969.245 39.4801 968.677 45.8805 L995.251 45.84 Z" fill="#000000" fill-rule="nonzero" fill-opacity="1" /><path clip-path="url(#clip290)" d="M1035.56 49.7694 Q1026.52 49.7694 1023.04 51.8354 Q1019.56 53.9013 1019.56 58.8839 Q1019.56 62.8538 1022.15 65.2034 Q1024.78 67.5124 1029.28 67.5124 Q1035.48 67.5124 1039.2 63.1374 Q1042.97 58.7219 1042.97 51.4303 L1042.97 49.7694 L1035.56 49.7694 M1050.42 46.6907 L1050.42 72.576 L1042.97 72.576 L1042.97 65.6895 Q1040.42 69.8214 1036.61 71.8063 Q1032.8 73.7508 1027.29 73.7508 Q1020.33 73.7508 1016.19 69.8619 Q1012.1 65.9325 1012.1 59.3701 Q1012.1 51.7138 1017.21 47.825 Q1022.35 43.9361 1032.52 43.9361 L1042.97 43.9361 L1042.97 43.2069 Q1042.97 38.0623 1039.57 35.2672 Q1036.21 32.4315 1030.09 32.4315 Q1026.2 32.4315 1022.51 33.3632 Q1018.83 34.295 1015.42 36.1584 L1015.42 29.2718 Q1019.52 27.692 1023.36 26.9223 Q1027.21 26.1121 1030.86 26.1121 Q1040.7 26.1121 1045.56 31.2163 Q1050.42 36.3204 1050.42 46.6907 Z" fill="#000000" fill-rule="nonzero" fill-opacity="1" /><path clip-path="url(#clip290)" d="M1092.07 34.1734 Q1090.81 33.4443 1089.31 33.1202 Q1087.86 32.7556 1086.07 32.7556 Q1079.75 32.7556 1076.35 36.8875 Q1072.99 40.9789 1072.99 48.6757 L1072.99 72.576 L1065.49 72.576 L1065.49 27.2059 L1072.99 27.2059 L1072.99 34.2544 Q1075.34 30.1225 1079.11 28.1376 Q1082.87 26.1121 1088.26 26.1121 Q1089.03 26.1121 1089.96 26.2337 Q1090.89 26.3147 1092.03 26.5172 L1092.07 34.1734 Z" fill="#000000" fill-rule="nonzero" fill-opacity="1" /><path clip-path="url(#clip290)" d="M1155.26 44.2197 Q1157.9 45.1109 1160.37 48.0275 Q1162.88 50.9442 1165.39 56.0483 L1173.69 72.576 L1164.9 72.576 L1157.17 57.061 Q1154.17 50.9847 1151.33 48.9997 Q1148.54 47.0148 1143.68 47.0148 L1134.76 47.0148 L1134.76 72.576 L1126.58 72.576 L1126.58 12.096 L1145.05 12.096 Q1155.42 12.096 1160.53 16.4305 Q1165.63 20.7649 1165.63 29.5149 Q1165.63 35.2267 1162.96 38.994 Q1160.33 42.7613 1155.26 44.2197 M1134.76 18.8205 L1134.76 40.2903 L1145.05 40.2903 Q1150.97 40.2903 1153.97 37.5762 Q1157 34.8216 1157 29.5149 Q1157 24.2082 1153.97 21.5346 Q1150.97 18.8205 1145.05 18.8205 L1134.76 18.8205 Z" fill="#000000" fill-rule="nonzero" fill-opacity="1" /><path clip-path="url(#clip290)" d="M1218.98 48.0275 L1218.98 51.6733 L1184.71 51.6733 Q1185.2 59.3701 1189.33 63.421 Q1193.5 67.4314 1200.92 67.4314 Q1205.21 67.4314 1209.22 66.3781 Q1213.27 65.3249 1217.24 63.2184 L1217.24 70.267 Q1213.23 71.9684 1209.02 72.8596 Q1204.8 73.7508 1200.47 73.7508 Q1189.61 73.7508 1183.25 67.4314 Q1176.93 61.1119 1176.93 50.3365 Q1176.93 39.1965 1182.93 32.6746 Q1188.97 26.1121 1199.17 26.1121 Q1208.33 26.1121 1213.64 32.0264 Q1218.98 37.9003 1218.98 48.0275 M1211.53 45.84 Q1211.45 39.7232 1208.09 36.0774 Q1204.76 32.4315 1199.25 32.4315 Q1193.02 32.4315 1189.25 35.9558 Q1185.52 39.4801 1184.96 45.8805 L1211.53 45.84 Z" fill="#000000" fill-rule="nonzero" fill-opacity="1" /><path clip-path="url(#clip290)" d="M1238.59 14.324 L1238.59 27.2059 L1253.94 27.2059 L1253.94 32.9987 L1238.59 32.9987 L1238.59 57.6282 Q1238.59 63.1779 1240.09 64.7578 Q1241.63 66.3376 1246.29 66.3376 L1253.94 66.3376 L1253.94 72.576 L1246.29 72.576 Q1237.66 72.576 1234.38 69.3758 Q1231.1 66.1351 1231.1 57.6282 L1231.1 32.9987 L1225.63 32.9987 L1225.63 27.2059 L1231.1 27.2059 L1231.1 14.324 L1238.59 14.324 Z" fill="#000000" fill-rule="nonzero" fill-opacity="1" /><path clip-path="url(#clip290)" d="M1262.98 54.671 L1262.98 27.2059 L1270.43 27.2059 L1270.43 54.3874 Q1270.43 60.8284 1272.94 64.0691 Q1275.45 67.2693 1280.48 67.2693 Q1286.51 67.2693 1290 63.421 Q1293.52 59.5726 1293.52 52.9291 L1293.52 27.2059 L1300.97 27.2059 L1300.97 72.576 L1293.52 72.576 L1293.52 65.6084 Q1290.81 69.7404 1287.2 71.7658 Q1283.64 73.7508 1278.9 73.7508 Q1271.08 73.7508 1267.03 68.8897 Q1262.98 64.0286 1262.98 54.671 M1281.73 26.1121 L1281.73 26.1121 Z" fill="#000000" fill-rule="nonzero" fill-opacity="1" /><path clip-path="url(#clip290)" d="M1342.62 34.1734 Q1341.36 33.4443 1339.86 33.1202 Q1338.4 32.7556 1336.62 32.7556 Q1330.3 32.7556 1326.9 36.8875 Q1323.54 40.9789 1323.54 48.6757 L1323.54 72.576 L1316.04 72.576 L1316.04 27.2059 L1323.54 27.2059 L1323.54 34.2544 Q1325.89 30.1225 1329.65 28.1376 Q1333.42 26.1121 1338.81 26.1121 Q1339.58 26.1121 1340.51 26.2337 Q1341.44 26.3147 1342.58 26.5172 L1342.62 34.1734 Z" fill="#000000" fill-rule="nonzero" fill-opacity="1" /><path clip-path="url(#clip290)" d="M1386.69 45.1919 L1386.69 72.576 L1379.24 72.576 L1379.24 45.4349 Q1379.24 38.994 1376.73 35.7938 Q1374.21 32.5936 1369.19 32.5936 Q1363.15 32.5936 1359.67 36.4419 Q1356.19 40.2903 1356.19 46.9338 L1356.19 72.576 L1348.69 72.576 L1348.69 27.2059 L1356.19 27.2059 L1356.19 34.2544 Q1358.86 30.163 1362.47 28.1376 Q1366.11 26.1121 1370.85 26.1121 Q1378.67 26.1121 1382.68 30.9732 Q1386.69 35.7938 1386.69 45.1919 Z" fill="#000000" fill-rule="nonzero" fill-opacity="1" /><path clip-path="url(#clip290)" d="M1428.25 12.096 L1436.44 12.096 L1436.44 65.6895 L1465.89 65.6895 L1465.89 72.576 L1428.25 72.576 L1428.25 12.096 Z" fill="#000000" fill-rule="nonzero" fill-opacity="1" /><path clip-path="url(#clip290)" d="M1511.5 48.0275 L1511.5 51.6733 L1477.23 51.6733 Q1477.71 59.3701 1481.85 63.421 Q1486.02 67.4314 1493.43 67.4314 Q1497.73 67.4314 1501.74 66.3781 Q1505.79 65.3249 1509.76 63.2184 L1509.76 70.267 Q1505.75 71.9684 1501.53 72.8596 Q1497.32 73.7508 1492.99 73.7508 Q1482.13 73.7508 1475.77 67.4314 Q1469.45 61.1119 1469.45 50.3365 Q1469.45 39.1965 1475.45 32.6746 Q1481.48 26.1121 1491.69 26.1121 Q1500.84 26.1121 1506.15 32.0264 Q1511.5 37.9003 1511.5 48.0275 M1504.04 45.84 Q1503.96 39.7232 1500.6 36.0774 Q1497.28 32.4315 1491.77 32.4315 Q1485.53 32.4315 1481.76 35.9558 Q1478.04 39.4801 1477.47 45.8805 L1504.04 45.84 Z" fill="#000000" fill-rule="nonzero" fill-opacity="1" /><path clip-path="url(#clip290)" d="M1518.39 27.2059 L1526.28 27.2059 L1540.46 65.2844 L1554.64 27.2059 L1562.54 27.2059 L1545.53 72.576 L1535.4 72.576 L1518.39 27.2059 Z" fill="#000000" fill-rule="nonzero" fill-opacity="1" /><path clip-path="url(#clip290)" d="M1611.64 48.0275 L1611.64 51.6733 L1577.37 51.6733 Q1577.85 59.3701 1581.98 63.421 Q1586.16 67.4314 1593.57 67.4314 Q1597.86 67.4314 1601.87 66.3781 Q1605.93 65.3249 1609.9 63.2184 L1609.9 70.267 Q1605.88 71.9684 1601.67 72.8596 Q1597.46 73.7508 1593.12 73.7508 Q1582.27 73.7508 1575.91 67.4314 Q1569.59 61.1119 1569.59 50.3365 Q1569.59 39.1965 1575.58 32.6746 Q1581.62 26.1121 1591.83 26.1121 Q1600.98 26.1121 1606.29 32.0264 Q1611.64 37.9003 1611.64 48.0275 M1604.18 45.84 Q1604.1 39.7232 1600.74 36.0774 Q1597.42 32.4315 1591.91 32.4315 Q1585.67 32.4315 1581.9 35.9558 Q1578.18 39.4801 1577.61 45.8805 L1604.18 45.84 Z" fill="#000000" fill-rule="nonzero" fill-opacity="1" /><path clip-path="url(#clip290)" d="M1623.87 9.54393 L1631.32 9.54393 L1631.32 72.576 L1623.87 72.576 L1623.87 9.54393 Z" fill="#000000" fill-rule="nonzero" fill-opacity="1" /><path clip-path="url(#clip290)" d="M1673.29 27.2059 L1680.75 27.2059 L1680.75 72.576 L1673.29 72.576 L1673.29 27.2059 M1673.29 9.54393 L1680.75 9.54393 L1680.75 18.9825 L1673.29 18.9825 L1673.29 9.54393 Z" fill="#000000" fill-rule="nonzero" fill-opacity="1" /><path clip-path="url(#clip290)" d="M1734.06 45.1919 L1734.06 72.576 L1726.6 72.576 L1726.6 45.4349 Q1726.6 38.994 1724.09 35.7938 Q1721.58 32.5936 1716.56 32.5936 Q1710.52 32.5936 1707.04 36.4419 Q1703.55 40.2903 1703.55 46.9338 L1703.55 72.576 L1696.06 72.576 L1696.06 27.2059 L1703.55 27.2059 L1703.55 34.2544 Q1706.23 30.163 1709.83 28.1376 Q1713.48 26.1121 1718.22 26.1121 Q1726.03 26.1121 1730.04 30.9732 Q1734.06 35.7938 1734.06 45.1919 Z" fill="#000000" fill-rule="nonzero" fill-opacity="1" /><path clip-path="url(#clip290)" d="M1783.4 65.6895 L1811.95 65.6895 L1811.95 72.576 L1773.55 72.576 L1773.55 65.6895 Q1778.21 60.8689 1786.23 52.7671 Q1794.29 44.6248 1796.36 42.2752 Q1800.29 37.8598 1801.83 34.8216 Q1803.41 31.7429 1803.41 28.7857 Q1803.41 23.9651 1800 20.927 Q1796.64 17.8888 1791.21 17.8888 Q1787.37 17.8888 1783.07 19.2256 Q1778.82 20.5624 1773.96 23.2765 L1773.96 15.0127 Q1778.9 13.0277 1783.19 12.015 Q1787.49 11.0023 1791.05 11.0023 Q1800.45 11.0023 1806.04 15.7013 Q1811.63 20.4004 1811.63 28.2591 Q1811.63 31.9859 1810.21 35.3482 Q1808.83 38.6699 1805.15 43.2069 Q1804.14 44.3817 1798.71 50.0125 Q1793.28 55.6027 1783.4 65.6895 Z" fill="#000000" fill-rule="nonzero" fill-opacity="1" /><path clip-path="url(#clip290)" d="M1846.63 17.4837 Q1840.31 17.4837 1837.11 23.7221 Q1833.95 29.92 1833.95 42.3968 Q1833.95 54.833 1837.11 61.0714 Q1840.31 67.2693 1846.63 67.2693 Q1852.99 67.2693 1856.15 61.0714 Q1859.35 54.833 1859.35 42.3968 Q1859.35 29.92 1856.15 23.7221 Q1852.99 17.4837 1846.63 17.4837 M1846.63 11.0023 Q1856.8 11.0023 1862.14 19.0636 Q1867.53 27.0843 1867.53 42.3968 Q1867.53 57.6687 1862.14 65.73 Q1856.8 73.7508 1846.63 73.7508 Q1836.46 73.7508 1831.07 65.73 Q1825.73 57.6687 1825.73 42.3968 Q1825.73 27.0843 1831.07 19.0636 Q1836.46 11.0023 1846.63 11.0023 Z" fill="#000000" fill-rule="nonzero" fill-opacity="1" /><path clip-path="url(#clip290)" d="M1888.96 65.6895 L1917.52 65.6895 L1917.52 72.576 L1879.12 72.576 L1879.12 65.6895 Q1883.78 60.8689 1891.8 52.7671 Q1899.86 44.6248 1901.92 42.2752 Q1905.85 37.8598 1907.39 34.8216 Q1908.97 31.7429 1908.97 28.7857 Q1908.97 23.9651 1905.57 20.927 Q1902.21 17.8888 1896.78 17.8888 Q1892.93 17.8888 1888.64 19.2256 Q1884.38 20.5624 1879.52 23.2765 L1879.52 15.0127 Q1884.47 13.0277 1888.76 12.015 Q1893.05 11.0023 1896.62 11.0023 Q1906.02 11.0023 1911.61 15.7013 Q1917.2 20.4004 1917.2 28.2591 Q1917.2 31.9859 1915.78 35.3482 Q1914.4 38.6699 1910.72 43.2069 Q1909.7 44.3817 1904.27 50.0125 Q1898.85 55.6027 1888.96 65.6895 Z" fill="#000000" fill-rule="nonzero" fill-opacity="1" /><path clip-path="url(#clip290)" d="M1959.49 39.9662 Q1965.36 41.222 1968.64 45.1919 Q1971.96 49.1618 1971.96 54.9951 Q1971.96 63.9476 1965.81 68.8492 Q1959.65 73.7508 1948.31 73.7508 Q1944.5 73.7508 1940.45 72.9811 Q1936.44 72.2519 1932.14 70.7531 L1932.14 62.8538 Q1935.55 64.8388 1939.6 65.8515 Q1943.65 66.8642 1948.06 66.8642 Q1955.76 66.8642 1959.77 63.826 Q1963.82 60.7879 1963.82 54.9951 Q1963.82 49.6479 1960.06 46.6502 Q1956.33 43.612 1949.64 43.612 L1942.6 43.612 L1942.6 36.8875 L1949.97 36.8875 Q1956 36.8875 1959.2 34.4975 Q1962.4 32.067 1962.4 27.5299 Q1962.4 22.8714 1959.08 20.4004 Q1955.8 17.8888 1949.64 17.8888 Q1946.28 17.8888 1942.43 18.618 Q1938.59 19.3471 1933.97 20.8865 L1933.97 13.5948 Q1938.63 12.2985 1942.68 11.6504 Q1946.77 11.0023 1950.37 11.0023 Q1959.69 11.0023 1965.12 15.2557 Q1970.55 19.4686 1970.55 26.6793 Q1970.55 31.7024 1967.67 35.1862 Q1964.79 38.6294 1959.49 39.9662 Z" fill="#000000" fill-rule="nonzero" fill-opacity="1" /><polyline clip-path="url(#clip292)" style="stroke:#009af9; stroke-linecap:round; stroke-linejoin:round; stroke-width:12; stroke-opacity:1; fill:none" points="428.201,1348.62 436.461,1348.61 444.722,1348.6 452.982,1348.51 461.242,1348.18 469.503,1347.27 477.763,1345.33 486.024,1342.09 494.284,1337.43 502.545,1330.62 510.805,1319.74 519.065,1302.54 527.326,1277.14 535.586,1241.51 543.847,1193.3 552.107,1131.58 560.368,1058.43 568.628,977.4 576.888,891.347 585.149,802.774 593.409,714.372 601.67,627.396 609.93,540.472 618.191,452.614 626.451,367.727 634.711,293.746 642.972,237.079 651.232,199.594 659.493,179.134 667.753,169.584 676.014,163.368 684.274,159.156 692.534,163.694 700.795,182.72 709.055,214.586 717.316,253.637 725.576,296.912 733.836,344.829 742.097,396.313 750.357,447.417 758.618,494.646 766.878,537.917 775.139,580.678 783.399,626.663 791.659,675.878 799.92,725.936 808.18,775.654 816.441,823.927 824.701,868.37 832.962,907.249 841.222,940.344 849.482,969.145 857.743,996.431 866.003,1023.64 874.264,1050.85 882.524,1078.46 890.785,1105.87 899.045,1130.9 907.305,1151.36 915.566,1166.86 923.826,1179.77 932.087,1193.22 940.347,1207.78 948.608,1221.77 956.868,1233.93 965.128,1243.76 973.389,1250.66 981.649,1255.44 989.91,1260.91 998.17,1268.67 1006.43,1277.68 1014.69,1286.24 1022.95,1293.02 1031.21,1297.26 1039.47,1299.69 1047.73,1302.2 1055.99,1306.05 1064.25,1311.11 1072.51,1316.19 1080.77,1320.13 1089.03,1322.78 1097.3,1324.67 1105.56,1326.13 1113.82,1327.34 1122.08,1328.29 1130.34,1328.9 1138.6,1329.64 1146.86,1331.16 1155.12,1333.23 1163.38,1335.15 1171.64,1336.66 1179.9,1337.97 1188.16,1339.33 1196.42,1340.74 1204.68,1342.11 1212.94,1343.3 1221.2,1343.9 1229.46,1343.71 1237.72,1343.27 1245.98,1343.33 1254.24,1343.93 1262.5,1344.48 1270.76,1344.51 1279.02,1344.06 1287.29,1343.5 1295.55,1343.41 1303.81,1344.1 1312.07,1345.18 1320.33,1346.06 1328.59,1346.57 1336.85,1346.92 1345.11,1347.23 1353.37,1347.49 1361.63,1347.61 1369.89,1347.54 1378.15,1347.36 1386.41,1347.17 1394.67,1346.99 1402.93,1346.95 1411.19,1347.2 1419.45,1347.59 1427.71,1347.86 1435.97,1347.83 1444.23,1347.57 1452.49,1347.36 1460.75,1347.44 1469.01,1347.71 1477.27,1347.94 1485.54,1348.11 1493.8,1348.29 1502.06,1348.45 1510.32,1348.49 1518.58,1348.32 1526.84,1347.91 1535.1,1347.46 1543.36,1347.33 1551.62,1347.67 1559.88,1348.13 1568.14,1348.37 1576.4,1348.3 1584.66,1348.01 1592.92,1347.77 1601.18,1347.83 1609.44,1348.12 1617.7,1348.4 1625.96,1348.55 1634.22,1348.6 1642.48,1348.61 1650.74,1348.58 1659,1348.49 1667.26,1348.35 1675.53,1348.21 1683.79,1348.21 1692.05,1348.33 1700.31,1348.49 1708.57,1348.58 1716.83,1348.61 1725.09,1348.61 1733.35,1348.62 1741.61,1348.62 1749.87,1348.62 1758.13,1348.62 1766.39,1348.62 1774.65,1348.62 1782.91,1348.62 1791.17,1348.62 1799.43,1348.62 1807.69,1348.62 1815.95,1348.62 1824.21,1348.62 1832.47,1348.62 1840.73,1348.62 1848.99,1348.62 1857.25,1348.61 1865.51,1348.58 1873.78,1348.5 1882.04,1348.36 1890.3,1348.22 1898.56,1348.2 1906.82,1348.32 1915.08,1348.48 1923.34,1348.57 1931.6,1348.57 1939.86,1348.5 1948.12,1348.35 1956.38,1348.21 1964.64,1348.2 1972.9,1348.33 1981.16,1348.48 1989.42,1348.56 1997.68,1348.54 2005.94,1348.42 2014.2,1348.25 2022.46,1348.17 2030.72,1348.26 2038.98,1348.43 2047.24,1348.56 2055.5,1348.6 2063.77,1348.61 2072.03,1348.62 "/>
<polyline clip-path="url(#clip292)" style="stroke:#e26f46; stroke-linecap:round; stroke-linejoin:round; stroke-width:12; stroke-opacity:1; fill:none" points="422.522,1348.62 431.94,1348.61 441.357,1348.6 450.774,1348.55 460.191,1348.41 469.608,1348.07 479.025,1347.36 488.442,1345.95 497.86,1343.25 507.277,1338.53 516.694,1331.11 526.111,1319.97 535.528,1303.26 544.945,1278.73 554.362,1244.89 563.78,1201.38 573.197,1148.28 582.614,1085.74 592.031,1015.14 601.448,941.095 610.865,870.369 620.283,806.198 629.7,745.381 639.117,683.275 648.534,620.21 657.951,561.037 667.368,510.323 676.785,470.134 686.203,440.192 695.62,418.321 705.037,402.271 714.454,391.654 723.871,387.951 733.288,392.879 742.706,406.81 752.123,428.92 761.54,457.199 770.957,488.287 780.374,520.263 789.791,554.199 799.208,590.057 808.626,624.162 818.043,653.925 827.46,682.463 836.877,715.546 846.294,755.231 855.711,798.121 865.128,838.876 874.546,874.045 883.963,902.664 893.38,925.704 902.797,946.791 912.214,970.458 921.631,997.47 931.049,1024.49 940.466,1049.04 949.883,1071.61 959.3,1092.52 968.717,1109.91 978.134,1122.86 987.551,1134.45 996.969,1148.68 1006.39,1165.86 1015.8,1183.1 1025.22,1198.08 1034.64,1210.49 1044.05,1221.08 1053.47,1230.59 1062.89,1239.54 1072.31,1248.26 1081.72,1256.77 1091.14,1264.59 1100.56,1271.02 1109.97,1275.86 1119.39,1279.63 1128.81,1283.08 1138.23,1287.15 1147.64,1292.54 1157.06,1298.65 1166.48,1303.92 1175.89,1307.66 1185.31,1310.48 1194.73,1313.1 1204.15,1315.45 1213.56,1317.32 1222.98,1319.03 1232.4,1320.9 1241.81,1322.49 1251.23,1323.31 1260.65,1323.85 1270.07,1325.33 1279.48,1328.31 1288.9,1331.95 1298.32,1334.82 1307.73,1336.1 1317.15,1336.21 1326.57,1336.31 1335.99,1337.1 1345.4,1338.22 1354.82,1339.01 1364.24,1339.35 1373.65,1339.79 1383.07,1340.74 1392.49,1341.92 1401.91,1342.75 1411.32,1343.03 1420.74,1343.12 1430.16,1343.4 1439.57,1343.99 1448.99,1344.75 1458.41,1345.47 1467.83,1345.95 1477.24,1346.15 1486.66,1346.22 1496.08,1346.29 1505.49,1346.17 1514.91,1345.58 1524.33,1344.72 1533.75,1344.22 1543.16,1344.47 1552.58,1345.23 1562,1346.07 1571.41,1346.86 1580.83,1347.57 1590.25,1348.12 1599.67,1348.43 1609.08,1348.55 1618.5,1348.53 1627.92,1348.4 1637.33,1348.14 1646.75,1347.83 1656.17,1347.61 1665.59,1347.56 1675,1347.68 1684.42,1347.92 1693.84,1348.19 1703.25,1348.41 1712.67,1348.54 1722.09,1348.59 1731.51,1348.6 1740.92,1348.57 1750.34,1348.5 1759.76,1348.39 1769.18,1348.29 1778.59,1348.28 1788.01,1348.37 1797.43,1348.48 1806.84,1348.56 1816.26,1348.59 1825.68,1348.58 1835.1,1348.52 1844.51,1348.41 1853.93,1348.3 1863.35,1348.28 1872.76,1348.35 1882.18,1348.47 1891.6,1348.56 1901.02,1348.6 1910.43,1348.61 1919.85,1348.62 1929.27,1348.61 1938.68,1348.6 1948.1,1348.57 1957.52,1348.5 1966.94,1348.38 1976.35,1348.29 1985.77,1348.28 1995.19,1348.35 2004.6,1348.41 2014.02,1348.38 2023.44,1348.3 2032.86,1348.26 2042.27,1348.33 2051.69,1348.45 2061.11,1348.55 2070.52,1348.6 2079.94,1348.61 2089.36,1348.62 2098.78,1348.62 2108.19,1348.62 2117.61,1348.62 2127.03,1348.62 2136.44,1348.62 2145.86,1348.62 2155.28,1348.62 2164.7,1348.62 2174.11,1348.62 2183.53,1348.61 2192.95,1348.6 2202.36,1348.56 2211.78,1348.47 2221.2,1348.35 2230.62,1348.28 2240.03,1348.3 2249.45,1348.41 2258.87,1348.52 2268.28,1348.58 2277.7,1348.61 2287.12,1348.61 2296.54,1348.62 "/>
<path clip-path="url(#clip290)" d="M1595.61 398.78 L2286.54 398.78 L2286.54 165.5 L1595.61 165.5  Z" fill="#ffffff" fill-rule="evenodd" fill-opacity="1"/>
<polyline clip-path="url(#clip290)" style="stroke:#000000; stroke-linecap:round; stroke-linejoin:round; stroke-width:4; stroke-opacity:1; fill:none" points="1595.61,398.78 2286.54,398.78 2286.54,165.5 1595.61,165.5 1595.61,398.78 "/>
<polyline clip-path="url(#clip290)" style="stroke:#009af9; stroke-linecap:round; stroke-linejoin:round; stroke-width:18; stroke-opacity:1; fill:none" points="1617.68,243.26 1750.11,243.26 "/>
<path clip-path="url(#clip290)" d="M1805.55 219.041 L1805.55 225.881 Q1801.55 223.972 1798.01 223.034 Q1794.47 222.097 1791.17 222.097 Q1785.44 222.097 1782.32 224.319 Q1779.23 226.541 1779.23 230.638 Q1779.23 234.076 1781.28 235.847 Q1783.36 237.583 1789.12 238.659 L1793.36 239.527 Q1801.21 241.02 1804.92 244.805 Q1808.67 248.555 1808.67 254.874 Q1808.67 262.409 1803.6 266.298 Q1798.57 270.187 1788.81 270.187 Q1785.13 270.187 1780.96 269.353 Q1776.83 268.52 1772.39 266.888 L1772.39 259.666 Q1776.66 262.062 1780.76 263.277 Q1784.85 264.492 1788.81 264.492 Q1794.82 264.492 1798.08 262.131 Q1801.35 259.77 1801.35 255.395 Q1801.35 251.576 1798.99 249.423 Q1796.66 247.27 1791.31 246.194 L1787.04 245.36 Q1779.19 243.798 1775.69 240.465 Q1772.18 237.131 1772.18 231.194 Q1772.18 224.319 1777.01 220.361 Q1781.87 216.402 1790.37 216.402 Q1794.02 216.402 1797.8 217.062 Q1801.59 217.722 1805.55 219.041 Z" fill="#000000" fill-rule="nonzero" fill-opacity="1" /><path clip-path="url(#clip290)" d="M1825.65 219.249 L1825.65 230.291 L1838.81 230.291 L1838.81 235.256 L1825.65 235.256 L1825.65 256.367 Q1825.65 261.124 1826.94 262.478 Q1828.26 263.833 1832.25 263.833 L1838.81 263.833 L1838.81 269.18 L1832.25 269.18 Q1824.85 269.18 1822.04 266.437 Q1819.23 263.659 1819.23 256.367 L1819.23 235.256 L1814.54 235.256 L1814.54 230.291 L1819.23 230.291 L1819.23 219.249 L1825.65 219.249 Z" fill="#000000" fill-rule="nonzero" fill-opacity="1" /><path clip-path="url(#clip290)" d="M1864.89 249.631 Q1857.14 249.631 1854.16 251.402 Q1851.17 253.173 1851.17 257.444 Q1851.17 260.846 1853.39 262.86 Q1855.65 264.839 1859.51 264.839 Q1864.82 264.839 1868.01 261.089 Q1871.24 257.305 1871.24 251.055 L1871.24 249.631 L1864.89 249.631 M1877.63 246.992 L1877.63 269.18 L1871.24 269.18 L1871.24 263.277 Q1869.05 266.819 1865.79 268.52 Q1862.53 270.187 1857.8 270.187 Q1851.83 270.187 1848.29 266.853 Q1844.78 263.485 1844.78 257.86 Q1844.78 251.298 1849.16 247.965 Q1853.57 244.631 1862.28 244.631 L1871.24 244.631 L1871.24 244.006 Q1871.24 239.597 1868.33 237.201 Q1865.44 234.77 1860.2 234.77 Q1856.87 234.77 1853.71 235.569 Q1850.55 236.367 1847.63 237.965 L1847.63 232.062 Q1851.14 230.708 1854.44 230.048 Q1857.74 229.354 1860.86 229.354 Q1869.3 229.354 1873.46 233.729 Q1877.63 238.103 1877.63 246.992 Z" fill="#000000" fill-rule="nonzero" fill-opacity="1" /><path clip-path="url(#clip290)" d="M1897.11 219.249 L1897.11 230.291 L1910.27 230.291 L1910.27 235.256 L1897.11 235.256 L1897.11 256.367 Q1897.11 261.124 1898.39 262.478 Q1899.71 263.833 1903.71 263.833 L1910.27 263.833 L1910.27 269.18 L1903.71 269.18 Q1896.31 269.18 1893.5 266.437 Q1890.69 263.659 1890.69 256.367 L1890.69 235.256 L1886 235.256 L1886 230.291 L1890.69 230.291 L1890.69 219.249 L1897.11 219.249 Z" fill="#000000" fill-rule="nonzero" fill-opacity="1" /><path clip-path="url(#clip290)" d="M1918.67 230.291 L1925.06 230.291 L1925.06 269.18 L1918.67 269.18 L1918.67 230.291 M1918.67 215.152 L1925.06 215.152 L1925.06 223.242 L1918.67 223.242 L1918.67 215.152 Z" fill="#000000" fill-rule="nonzero" fill-opacity="1" /><path clip-path="url(#clip290)" d="M1953.5 234.77 Q1948.36 234.77 1945.37 238.798 Q1942.39 242.791 1942.39 249.77 Q1942.39 256.749 1945.34 260.777 Q1948.32 264.77 1953.5 264.77 Q1958.6 264.77 1961.59 260.742 Q1964.57 256.715 1964.57 249.77 Q1964.57 242.86 1961.59 238.833 Q1958.6 234.77 1953.5 234.77 M1953.5 229.354 Q1961.83 229.354 1966.59 234.77 Q1971.35 240.187 1971.35 249.77 Q1971.35 259.319 1966.59 264.77 Q1961.83 270.187 1953.5 270.187 Q1945.13 270.187 1940.37 264.77 Q1935.65 259.319 1935.65 249.77 Q1935.65 240.187 1940.37 234.77 Q1945.13 229.354 1953.5 229.354 Z" fill="#000000" fill-rule="nonzero" fill-opacity="1" /><path clip-path="url(#clip290)" d="M2014.26 245.708 L2014.26 269.18 L2007.87 269.18 L2007.87 245.916 Q2007.87 240.395 2005.72 237.652 Q2003.57 234.909 1999.26 234.909 Q1994.09 234.909 1991.1 238.208 Q1988.12 241.506 1988.12 247.201 L1988.12 269.18 L1981.69 269.18 L1981.69 230.291 L1988.12 230.291 L1988.12 236.333 Q1990.41 232.826 1993.5 231.09 Q1996.62 229.354 2000.69 229.354 Q2007.39 229.354 2010.82 233.52 Q2014.26 237.652 2014.26 245.708 Z" fill="#000000" fill-rule="nonzero" fill-opacity="1" /><path clip-path="url(#clip290)" d="M2044.68 249.631 Q2036.94 249.631 2033.95 251.402 Q2030.96 253.173 2030.96 257.444 Q2030.96 260.846 2033.19 262.86 Q2035.44 264.839 2039.3 264.839 Q2044.61 264.839 2047.8 261.089 Q2051.03 257.305 2051.03 251.055 L2051.03 249.631 L2044.68 249.631 M2057.42 246.992 L2057.42 269.18 L2051.03 269.18 L2051.03 263.277 Q2048.85 266.819 2045.58 268.52 Q2042.32 270.187 2037.6 270.187 Q2031.62 270.187 2028.08 266.853 Q2024.57 263.485 2024.57 257.86 Q2024.57 251.298 2028.95 247.965 Q2033.36 244.631 2042.07 244.631 L2051.03 244.631 L2051.03 244.006 Q2051.03 239.597 2048.12 237.201 Q2045.23 234.77 2039.99 234.77 Q2036.66 234.77 2033.5 235.569 Q2030.34 236.367 2027.42 237.965 L2027.42 232.062 Q2030.93 230.708 2034.23 230.048 Q2037.53 229.354 2040.65 229.354 Q2049.09 229.354 2053.25 233.729 Q2057.42 238.103 2057.42 246.992 Z" fill="#000000" fill-rule="nonzero" fill-opacity="1" /><path clip-path="url(#clip290)" d="M2093.12 236.263 Q2092.04 235.638 2090.75 235.36 Q2089.5 235.048 2087.98 235.048 Q2082.56 235.048 2079.64 238.59 Q2076.76 242.097 2076.76 248.694 L2076.76 269.18 L2070.34 269.18 L2070.34 230.291 L2076.76 230.291 L2076.76 236.333 Q2078.78 232.791 2082 231.09 Q2085.23 229.354 2089.85 229.354 Q2090.51 229.354 2091.31 229.458 Q2092.11 229.527 2093.08 229.701 L2093.12 236.263 Z" fill="#000000" fill-rule="nonzero" fill-opacity="1" /><path clip-path="url(#clip290)" d="M2116 272.791 Q2113.29 279.735 2110.72 281.853 Q2108.15 283.971 2103.84 283.971 L2098.74 283.971 L2098.74 278.624 L2102.49 278.624 Q2105.13 278.624 2106.59 277.374 Q2108.05 276.124 2109.82 271.471 L2110.96 268.555 L2095.23 230.291 L2102 230.291 L2114.16 260.708 L2126.31 230.291 L2133.08 230.291 L2116 272.791 Z" fill="#000000" fill-rule="nonzero" fill-opacity="1" /><polyline clip-path="url(#clip290)" style="stroke:#e26f46; stroke-linecap:round; stroke-linejoin:round; stroke-width:18; stroke-opacity:1; fill:none" points="1617.68,321.02 1750.11,321.02 "/>
<path clip-path="url(#clip290)" d="M1772.18 295.1 L1781.62 295.1 L1804.61 338.468 L1804.61 295.1 L1811.42 295.1 L1811.42 346.94 L1801.97 346.94 L1778.99 303.572 L1778.99 346.94 L1772.18 346.94 L1772.18 295.1 Z" fill="#000000" fill-rule="nonzero" fill-opacity="1" /><path clip-path="url(#clip290)" d="M1840.17 312.53 Q1835.03 312.53 1832.04 316.558 Q1829.05 320.551 1829.05 327.53 Q1829.05 334.509 1832.01 338.537 Q1834.99 342.53 1840.17 342.53 Q1845.27 342.53 1848.26 338.502 Q1851.24 334.475 1851.24 327.53 Q1851.24 320.62 1848.26 316.593 Q1845.27 312.53 1840.17 312.53 M1840.17 307.114 Q1848.5 307.114 1853.26 312.53 Q1858.01 317.947 1858.01 327.53 Q1858.01 337.079 1853.26 342.53 Q1848.5 347.947 1840.17 347.947 Q1831.8 347.947 1827.04 342.53 Q1822.32 337.079 1822.32 327.53 Q1822.32 317.947 1827.04 312.53 Q1831.8 307.114 1840.17 307.114 Z" fill="#000000" fill-rule="nonzero" fill-opacity="1" /><path clip-path="url(#clip290)" d="M1900.93 323.468 L1900.93 346.94 L1894.54 346.94 L1894.54 323.676 Q1894.54 318.155 1892.39 315.412 Q1890.23 312.669 1885.93 312.669 Q1880.76 312.669 1877.77 315.968 Q1874.78 319.266 1874.78 324.961 L1874.78 346.94 L1868.36 346.94 L1868.36 308.051 L1874.78 308.051 L1874.78 314.093 Q1877.08 310.586 1880.17 308.85 Q1883.29 307.114 1887.35 307.114 Q1894.05 307.114 1897.49 311.28 Q1900.93 315.412 1900.93 323.468 Z" fill="#000000" fill-rule="nonzero" fill-opacity="1" /><path clip-path="url(#clip290)" d="M1938.46 309.197 L1938.46 315.238 Q1935.76 313.85 1932.84 313.155 Q1929.92 312.461 1926.8 312.461 Q1922.04 312.461 1919.64 313.919 Q1917.28 315.377 1917.28 318.294 Q1917.28 320.516 1918.98 321.801 Q1920.69 323.051 1925.83 324.197 L1928.01 324.683 Q1934.82 326.141 1937.67 328.815 Q1940.55 331.454 1940.55 336.211 Q1940.55 341.627 1936.24 344.787 Q1931.97 347.947 1924.47 347.947 Q1921.35 347.947 1917.94 347.322 Q1914.58 346.731 1910.83 345.516 L1910.83 338.919 Q1914.37 340.759 1917.8 341.697 Q1921.24 342.599 1924.61 342.599 Q1929.12 342.599 1931.55 341.072 Q1933.98 339.509 1933.98 336.697 Q1933.98 334.093 1932.21 332.704 Q1930.48 331.315 1924.54 330.03 L1922.32 329.509 Q1916.38 328.259 1913.74 325.69 Q1911.1 323.086 1911.1 318.572 Q1911.1 313.086 1914.99 310.1 Q1918.88 307.114 1926.03 307.114 Q1929.58 307.114 1932.7 307.634 Q1935.82 308.155 1938.46 309.197 Z" fill="#000000" fill-rule="nonzero" fill-opacity="1" /><path clip-path="url(#clip290)" d="M1957.04 297.009 L1957.04 308.051 L1970.2 308.051 L1970.2 313.016 L1957.04 313.016 L1957.04 334.127 Q1957.04 338.884 1958.32 340.238 Q1959.64 341.593 1963.64 341.593 L1970.2 341.593 L1970.2 346.94 L1963.64 346.94 Q1956.24 346.94 1953.43 344.197 Q1950.62 341.419 1950.62 334.127 L1950.62 313.016 L1945.93 313.016 L1945.93 308.051 L1950.62 308.051 L1950.62 297.009 L1957.04 297.009 Z" fill="#000000" fill-rule="nonzero" fill-opacity="1" /><path clip-path="url(#clip290)" d="M1996.28 327.391 Q1988.53 327.391 1985.55 329.162 Q1982.56 330.933 1982.56 335.204 Q1982.56 338.606 1984.78 340.62 Q1987.04 342.599 1990.89 342.599 Q1996.21 342.599 1999.4 338.849 Q2002.63 335.065 2002.63 328.815 L2002.63 327.391 L1996.28 327.391 M2009.02 324.752 L2009.02 346.94 L2002.63 346.94 L2002.63 341.037 Q2000.44 344.579 1997.18 346.28 Q1993.91 347.947 1989.19 347.947 Q1983.22 347.947 1979.68 344.613 Q1976.17 341.245 1976.17 335.62 Q1976.17 329.058 1980.55 325.725 Q1984.96 322.391 1993.67 322.391 L2002.63 322.391 L2002.63 321.766 Q2002.63 317.357 1999.71 314.961 Q1996.83 312.53 1991.59 312.53 Q1988.26 312.53 1985.1 313.329 Q1981.94 314.127 1979.02 315.725 L1979.02 309.822 Q1982.53 308.468 1985.82 307.808 Q1989.12 307.114 1992.25 307.114 Q2000.69 307.114 2004.85 311.489 Q2009.02 315.863 2009.02 324.752 Z" fill="#000000" fill-rule="nonzero" fill-opacity="1" /><path clip-path="url(#clip290)" d="M2028.5 297.009 L2028.5 308.051 L2041.66 308.051 L2041.66 313.016 L2028.5 313.016 L2028.5 334.127 Q2028.5 338.884 2029.78 340.238 Q2031.1 341.593 2035.1 341.593 L2041.66 341.593 L2041.66 346.94 L2035.1 346.94 Q2027.7 346.94 2024.89 344.197 Q2022.07 341.419 2022.07 334.127 L2022.07 313.016 L2017.39 313.016 L2017.39 308.051 L2022.07 308.051 L2022.07 297.009 L2028.5 297.009 Z" fill="#000000" fill-rule="nonzero" fill-opacity="1" /><path clip-path="url(#clip290)" d="M2050.06 308.051 L2056.45 308.051 L2056.45 346.94 L2050.06 346.94 L2050.06 308.051 M2050.06 292.912 L2056.45 292.912 L2056.45 301.002 L2050.06 301.002 L2050.06 292.912 Z" fill="#000000" fill-rule="nonzero" fill-opacity="1" /><path clip-path="url(#clip290)" d="M2084.89 312.53 Q2079.75 312.53 2076.76 316.558 Q2073.78 320.551 2073.78 327.53 Q2073.78 334.509 2076.73 338.537 Q2079.71 342.53 2084.89 342.53 Q2089.99 342.53 2092.98 338.502 Q2095.96 334.475 2095.96 327.53 Q2095.96 320.62 2092.98 316.593 Q2089.99 312.53 2084.89 312.53 M2084.89 307.114 Q2093.22 307.114 2097.98 312.53 Q2102.73 317.947 2102.73 327.53 Q2102.73 337.079 2097.98 342.53 Q2093.22 347.947 2084.89 347.947 Q2076.52 347.947 2071.76 342.53 Q2067.04 337.079 2067.04 327.53 Q2067.04 317.947 2071.76 312.53 Q2076.52 307.114 2084.89 307.114 Z" fill="#000000" fill-rule="nonzero" fill-opacity="1" /><path clip-path="url(#clip290)" d="M2145.65 323.468 L2145.65 346.94 L2139.26 346.94 L2139.26 323.676 Q2139.26 318.155 2137.11 315.412 Q2134.96 312.669 2130.65 312.669 Q2125.48 312.669 2122.49 315.968 Q2119.5 319.266 2119.5 324.961 L2119.5 346.94 L2113.08 346.94 L2113.08 308.051 L2119.5 308.051 L2119.5 314.093 Q2121.8 310.586 2124.89 308.85 Q2128.01 307.114 2132.07 307.114 Q2138.78 307.114 2142.21 311.28 Q2145.65 315.412 2145.65 323.468 Z" fill="#000000" fill-rule="nonzero" fill-opacity="1" /><path clip-path="url(#clip290)" d="M2176.07 327.391 Q2168.32 327.391 2165.34 329.162 Q2162.35 330.933 2162.35 335.204 Q2162.35 338.606 2164.57 340.62 Q2166.83 342.599 2170.68 342.599 Q2176 342.599 2179.19 338.849 Q2182.42 335.065 2182.42 328.815 L2182.42 327.391 L2176.07 327.391 M2188.81 324.752 L2188.81 346.94 L2182.42 346.94 L2182.42 341.037 Q2180.23 344.579 2176.97 346.28 Q2173.71 347.947 2168.98 347.947 Q2163.01 347.947 2159.47 344.613 Q2155.96 341.245 2155.96 335.62 Q2155.96 329.058 2160.34 325.725 Q2164.75 322.391 2173.46 322.391 L2182.42 322.391 L2182.42 321.766 Q2182.42 317.357 2179.5 314.961 Q2176.62 312.53 2171.38 312.53 Q2168.05 312.53 2164.89 313.329 Q2161.73 314.127 2158.81 315.725 L2158.81 309.822 Q2162.32 308.468 2165.62 307.808 Q2168.91 307.114 2172.04 307.114 Q2180.48 307.114 2184.64 311.489 Q2188.81 315.863 2188.81 324.752 Z" fill="#000000" fill-rule="nonzero" fill-opacity="1" /><path clip-path="url(#clip290)" d="M2224.5 314.023 Q2223.43 313.398 2222.14 313.12 Q2220.89 312.808 2219.37 312.808 Q2213.95 312.808 2211.03 316.35 Q2208.15 319.857 2208.15 326.454 L2208.15 346.94 L2201.73 346.94 L2201.73 308.051 L2208.15 308.051 L2208.15 314.093 Q2210.16 310.551 2213.39 308.85 Q2216.62 307.114 2221.24 307.114 Q2221.9 307.114 2222.7 307.218 Q2223.5 307.287 2224.47 307.461 L2224.5 314.023 Z" fill="#000000" fill-rule="nonzero" fill-opacity="1" /><path clip-path="url(#clip290)" d="M2247.39 350.551 Q2244.68 357.495 2242.11 359.613 Q2239.54 361.731 2235.23 361.731 L2230.13 361.731 L2230.13 356.384 L2233.88 356.384 Q2236.52 356.384 2237.98 355.134 Q2239.43 353.884 2241.21 349.231 L2242.35 346.315 L2226.62 308.051 L2233.39 308.051 L2245.55 338.468 L2257.7 308.051 L2264.47 308.051 L2247.39 350.551 Z" fill="#000000" fill-rule="nonzero" fill-opacity="1" /></svg>
