<?xml version="1.0" encoding="utf-8"?>
<svg xmlns="http://www.w3.org/2000/svg" xmlns:xlink="http://www.w3.org/1999/xlink" width="600" height="400" viewBox="0 0 2400 1600">
<defs>
  <clipPath id="clip630">
    <rect x="0" y="0" width="2400" height="1600"/>
  </clipPath>
</defs>
<path clip-path="url(#clip630)" d="
M0 1600 L2400 1600 L2400 0 L0 0  Z
  " fill="#ffffff" fill-rule="evenodd" fill-opacity="1"/>
<defs>
  <clipPath id="clip631">
    <rect x="480" y="0" width="1681" height="1600"/>
  </clipPath>
</defs>
<path clip-path="url(#clip630)" d="
M312.143 1392.94 L2352.76 1392.94 L2352.76 47.2441 L312.143 47.2441  Z
  " fill="#ffffff" fill-rule="evenodd" fill-opacity="1"/>
<defs>
  <clipPath id="clip632">
    <rect x="312" y="47" width="2042" height="1347"/>
  </clipPath>
</defs>
<polyline clip-path="url(#clip632)" style="stroke:#000000; stroke-linecap:round; stroke-linejoin:round; stroke-width:2; stroke-opacity:0.1; fill:none" points="
  369.896,1392.94 369.896,47.2441 
  "/>
<polyline clip-path="url(#clip632)" style="stroke:#000000; stroke-linecap:round; stroke-linejoin:round; stroke-width:2; stroke-opacity:0.1; fill:none" points="
  851.173,1392.94 851.173,47.2441 
  "/>
<polyline clip-path="url(#clip632)" style="stroke:#000000; stroke-linecap:round; stroke-linejoin:round; stroke-width:2; stroke-opacity:0.1; fill:none" points="
  1332.45,1392.94 1332.45,47.2441 
  "/>
<polyline clip-path="url(#clip632)" style="stroke:#000000; stroke-linecap:round; stroke-linejoin:round; stroke-width:2; stroke-opacity:0.1; fill:none" points="
  1813.73,1392.94 1813.73,47.2441 
  "/>
<polyline clip-path="url(#clip632)" style="stroke:#000000; stroke-linecap:round; stroke-linejoin:round; stroke-width:2; stroke-opacity:0.1; fill:none" points="
  2295,1392.94 2295,47.2441 
  "/>
<polyline clip-path="url(#clip630)" style="stroke:#000000; stroke-linecap:round; stroke-linejoin:round; stroke-width:4; stroke-opacity:1; fill:none" points="
  312.143,1392.94 2352.76,1392.94 
  "/>
<polyline clip-path="url(#clip630)" style="stroke:#000000; stroke-linecap:round; stroke-linejoin:round; stroke-width:4; stroke-opacity:1; fill:none" points="
  369.896,1392.94 369.896,1374.04 
  "/>
<polyline clip-path="url(#clip630)" style="stroke:#000000; stroke-linecap:round; stroke-linejoin:round; stroke-width:4; stroke-opacity:1; fill:none" points="
  851.173,1392.94 851.173,1374.04 
  "/>
<polyline clip-path="url(#clip630)" style="stroke:#000000; stroke-linecap:round; stroke-linejoin:round; stroke-width:4; stroke-opacity:1; fill:none" points="
  1332.45,1392.94 1332.45,1374.04 
  "/>
<polyline clip-path="url(#clip630)" style="stroke:#000000; stroke-linecap:round; stroke-linejoin:round; stroke-width:4; stroke-opacity:1; fill:none" points="
  1813.73,1392.94 1813.73,1374.04 
  "/>
<polyline clip-path="url(#clip630)" style="stroke:#000000; stroke-linecap:round; stroke-linejoin:round; stroke-width:4; stroke-opacity:1; fill:none" points="
  2295,1392.94 2295,1374.04 
  "/>
<path clip-path="url(#clip630)" d="M369.896 1429.72 Q364.48 1429.72 361.736 1435.07 Q359.028 1440.38 359.028 1451.07 Q359.028 1461.73 361.736 1467.08 Q364.48 1472.39 369.896 1472.39 Q375.348 1472.39 378.056 1467.08 Q380.799 1461.73 380.799 1451.07 Q380.799 1440.38 378.056 1435.07 Q375.348 1429.72 369.896 1429.72 M369.896 1424.16 Q378.611 1424.16 383.195 1431.07 Q387.813 1437.95 387.813 1451.07 Q387.813 1464.16 383.195 1471.07 Q378.611 1477.95 369.896 1477.95 Q361.181 1477.95 356.563 1471.07 Q351.98 1464.16 351.98 1451.07 Q351.98 1437.95 356.563 1431.07 Q361.181 1424.16 369.896 1424.16 Z" fill="#000000" fill-rule="evenodd" fill-opacity="1" /><path clip-path="url(#clip630)" d="M836.59 1425.1 L864.124 1425.1 L864.124 1431 L843.013 1431 L843.013 1443.71 Q844.541 1443.19 846.069 1442.95 Q847.596 1442.67 849.124 1442.67 Q857.805 1442.67 862.874 1447.43 Q867.944 1452.18 867.944 1460.31 Q867.944 1468.68 862.735 1473.33 Q857.527 1477.95 848.048 1477.95 Q844.784 1477.95 841.381 1477.39 Q838.013 1476.84 834.402 1475.72 L834.402 1468.68 Q837.527 1470.38 840.86 1471.21 Q844.194 1472.04 847.909 1472.04 Q853.916 1472.04 857.423 1468.88 Q860.93 1465.72 860.93 1460.31 Q860.93 1454.89 857.423 1451.73 Q853.916 1448.57 847.909 1448.57 Q845.096 1448.57 842.284 1449.2 Q839.506 1449.82 836.59 1451.14 L836.59 1425.1 Z" fill="#000000" fill-rule="evenodd" fill-opacity="1" /><path clip-path="url(#clip630)" d="M1294.48 1471.04 L1305.94 1471.04 L1305.94 1431.49 L1293.47 1433.99 L1293.47 1427.6 L1305.87 1425.1 L1312.88 1425.1 L1312.88 1471.04 L1324.34 1471.04 L1324.34 1476.94 L1294.48 1476.94 L1294.48 1471.04 Z" fill="#000000" fill-rule="evenodd" fill-opacity="1" /><path clip-path="url(#clip630)" d="M1353.51 1429.72 Q1348.09 1429.72 1345.35 1435.07 Q1342.64 1440.38 1342.64 1451.07 Q1342.64 1461.73 1345.35 1467.08 Q1348.09 1472.39 1353.51 1472.39 Q1358.96 1472.39 1361.67 1467.08 Q1364.41 1461.73 1364.41 1451.07 Q1364.41 1440.38 1361.67 1435.07 Q1358.96 1429.72 1353.51 1429.72 M1353.51 1424.16 Q1362.22 1424.16 1366.81 1431.07 Q1371.42 1437.95 1371.42 1451.07 Q1371.42 1464.16 1366.81 1471.07 Q1362.22 1477.95 1353.51 1477.95 Q1344.79 1477.95 1340.18 1471.07 Q1335.59 1464.16 1335.59 1451.07 Q1335.59 1437.95 1340.18 1431.07 Q1344.79 1424.16 1353.51 1424.16 Z" fill="#000000" fill-rule="evenodd" fill-opacity="1" /><path clip-path="url(#clip630)" d="M1776.5 1471.04 L1787.96 1471.04 L1787.96 1431.49 L1775.5 1433.99 L1775.5 1427.6 L1787.89 1425.1 L1794.91 1425.1 L1794.91 1471.04 L1806.37 1471.04 L1806.37 1476.94 L1776.5 1476.94 L1776.5 1471.04 Z" fill="#000000" fill-rule="evenodd" fill-opacity="1" /><path clip-path="url(#clip630)" d="M1820.6 1425.1 L1848.14 1425.1 L1848.14 1431 L1827.02 1431 L1827.02 1443.71 Q1828.55 1443.19 1830.08 1442.95 Q1831.61 1442.67 1833.14 1442.67 Q1841.82 1442.67 1846.89 1447.43 Q1851.96 1452.18 1851.96 1460.31 Q1851.96 1468.68 1846.75 1473.33 Q1841.54 1477.95 1832.06 1477.95 Q1828.8 1477.95 1825.39 1477.39 Q1822.02 1476.84 1818.41 1475.72 L1818.41 1468.68 Q1821.54 1470.38 1824.87 1471.21 Q1828.21 1472.04 1831.92 1472.04 Q1837.93 1472.04 1841.43 1468.88 Q1844.94 1465.72 1844.94 1460.31 Q1844.94 1454.89 1841.43 1451.73 Q1837.93 1448.57 1831.92 1448.57 Q1829.11 1448.57 1826.3 1449.2 Q1823.52 1449.82 1820.6 1451.14 L1820.6 1425.1 Z" fill="#000000" fill-rule="evenodd" fill-opacity="1" /><path clip-path="url(#clip630)" d="M2263.16 1471.04 L2287.64 1471.04 L2287.64 1476.94 L2254.73 1476.94 L2254.73 1471.04 Q2258.72 1466.91 2265.59 1459.96 Q2272.5 1452.98 2274.27 1450.97 Q2277.64 1447.18 2278.96 1444.58 Q2280.32 1441.94 2280.32 1439.41 Q2280.32 1435.27 2277.4 1432.67 Q2274.52 1430.07 2269.86 1430.07 Q2266.57 1430.07 2262.88 1431.21 Q2259.24 1432.36 2255.07 1434.68 L2255.07 1427.6 Q2259.31 1425.9 2262.99 1425.03 Q2266.67 1424.16 2269.73 1424.16 Q2277.78 1424.16 2282.57 1428.19 Q2287.36 1432.22 2287.36 1438.95 Q2287.36 1442.15 2286.15 1445.03 Q2284.97 1447.88 2281.81 1451.77 Q2280.94 1452.77 2276.29 1457.6 Q2271.63 1462.39 2263.16 1471.04 Z" fill="#000000" fill-rule="evenodd" fill-opacity="1" /><path clip-path="url(#clip630)" d="M2317.36 1429.72 Q2311.95 1429.72 2309.2 1435.07 Q2306.5 1440.38 2306.5 1451.07 Q2306.5 1461.73 2309.2 1467.08 Q2311.95 1472.39 2317.36 1472.39 Q2322.82 1472.39 2325.52 1467.08 Q2328.27 1461.73 2328.27 1451.07 Q2328.27 1440.38 2325.52 1435.07 Q2322.82 1429.72 2317.36 1429.72 M2317.36 1424.16 Q2326.08 1424.16 2330.66 1431.07 Q2335.28 1437.95 2335.28 1451.07 Q2335.28 1464.16 2330.66 1471.07 Q2326.08 1477.95 2317.36 1477.95 Q2308.65 1477.95 2304.03 1471.07 Q2299.45 1464.16 2299.45 1451.07 Q2299.45 1437.95 2304.03 1431.07 Q2308.65 1424.16 2317.36 1424.16 Z" fill="#000000" fill-rule="evenodd" fill-opacity="1" /><path clip-path="url(#clip630)" d="M1233.02 1518.8 L1284.18 1518.8 L1284.18 1525.68 L1262.71 1525.68 L1262.71 1579.28 L1254.49 1579.28 L1254.49 1525.68 L1233.02 1525.68 L1233.02 1518.8 Z" fill="#000000" fill-rule="evenodd" fill-opacity="1" /><path clip-path="url(#clip630)" d="M1289.21 1533.91 L1296.66 1533.91 L1296.66 1579.28 L1289.21 1579.28 L1289.21 1533.91 M1289.21 1516.24 L1296.66 1516.24 L1296.66 1525.68 L1289.21 1525.68 L1289.21 1516.24 Z" fill="#000000" fill-rule="evenodd" fill-opacity="1" /><path clip-path="url(#clip630)" d="M1347.58 1542.62 Q1350.37 1537.59 1354.26 1535.2 Q1358.15 1532.81 1363.42 1532.81 Q1370.51 1532.81 1374.36 1537.79 Q1378.2 1542.74 1378.2 1551.89 L1378.2 1579.28 L1370.71 1579.28 L1370.71 1552.13 Q1370.71 1545.61 1368.4 1542.45 Q1366.09 1539.29 1361.35 1539.29 Q1355.56 1539.29 1352.2 1543.14 Q1348.84 1546.99 1348.84 1553.63 L1348.84 1579.28 L1341.34 1579.28 L1341.34 1552.13 Q1341.34 1545.57 1339.03 1542.45 Q1336.72 1539.29 1331.9 1539.29 Q1326.19 1539.29 1322.83 1543.18 Q1319.47 1547.03 1319.47 1553.63 L1319.47 1579.28 L1311.97 1579.28 L1311.97 1533.91 L1319.47 1533.91 L1319.47 1540.95 Q1322.02 1536.78 1325.58 1534.8 Q1329.15 1532.81 1334.05 1532.81 Q1338.99 1532.81 1342.43 1535.32 Q1345.92 1537.84 1347.58 1542.62 Z" fill="#000000" fill-rule="evenodd" fill-opacity="1" /><path clip-path="url(#clip630)" d="M1431.88 1554.73 L1431.88 1558.37 L1397.61 1558.37 Q1398.09 1566.07 1402.23 1570.12 Q1406.4 1574.13 1413.81 1574.13 Q1418.11 1574.13 1422.12 1573.08 Q1426.17 1572.02 1430.14 1569.92 L1430.14 1576.97 Q1426.13 1578.67 1421.91 1579.56 Q1417.7 1580.45 1413.37 1580.45 Q1402.51 1580.45 1396.15 1574.13 Q1389.83 1567.81 1389.83 1557.04 Q1389.83 1545.9 1395.83 1539.37 Q1401.86 1532.81 1412.07 1532.81 Q1421.23 1532.81 1426.53 1538.73 Q1431.88 1544.6 1431.88 1554.73 M1424.43 1552.54 Q1424.34 1546.42 1420.98 1542.78 Q1417.66 1539.13 1412.15 1539.13 Q1405.91 1539.13 1402.15 1542.66 Q1398.42 1546.18 1397.85 1552.58 L1424.43 1552.54 Z" fill="#000000" fill-rule="evenodd" fill-opacity="1" /><polyline clip-path="url(#clip632)" style="stroke:#000000; stroke-linecap:round; stroke-linejoin:round; stroke-width:2; stroke-opacity:0.1; fill:none" points="
  312.143,1354.85 2352.76,1354.85 
  "/>
<polyline clip-path="url(#clip632)" style="stroke:#000000; stroke-linecap:round; stroke-linejoin:round; stroke-width:2; stroke-opacity:0.1; fill:none" points="
  312.143,1037.47 2352.76,1037.47 
  "/>
<polyline clip-path="url(#clip632)" style="stroke:#000000; stroke-linecap:round; stroke-linejoin:round; stroke-width:2; stroke-opacity:0.1; fill:none" points="
  312.143,720.092 2352.76,720.092 
  "/>
<polyline clip-path="url(#clip632)" style="stroke:#000000; stroke-linecap:round; stroke-linejoin:round; stroke-width:2; stroke-opacity:0.1; fill:none" points="
  312.143,402.711 2352.76,402.711 
  "/>
<polyline clip-path="url(#clip632)" style="stroke:#000000; stroke-linecap:round; stroke-linejoin:round; stroke-width:2; stroke-opacity:0.1; fill:none" points="
  312.143,85.3298 2352.76,85.3298 
  "/>
<polyline clip-path="url(#clip630)" style="stroke:#000000; stroke-linecap:round; stroke-linejoin:round; stroke-width:4; stroke-opacity:1; fill:none" points="
  312.143,1392.94 312.143,47.2441 
  "/>
<polyline clip-path="url(#clip630)" style="stroke:#000000; stroke-linecap:round; stroke-linejoin:round; stroke-width:4; stroke-opacity:1; fill:none" points="
  312.143,1354.85 331.041,1354.85 
  "/>
<polyline clip-path="url(#clip630)" style="stroke:#000000; stroke-linecap:round; stroke-linejoin:round; stroke-width:4; stroke-opacity:1; fill:none" points="
  312.143,1037.47 331.041,1037.47 
  "/>
<polyline clip-path="url(#clip630)" style="stroke:#000000; stroke-linecap:round; stroke-linejoin:round; stroke-width:4; stroke-opacity:1; fill:none" points="
  312.143,720.092 331.041,720.092 
  "/>
<polyline clip-path="url(#clip630)" style="stroke:#000000; stroke-linecap:round; stroke-linejoin:round; stroke-width:4; stroke-opacity:1; fill:none" points="
  312.143,402.711 331.041,402.711 
  "/>
<polyline clip-path="url(#clip630)" style="stroke:#000000; stroke-linecap:round; stroke-linejoin:round; stroke-width:4; stroke-opacity:1; fill:none" points="
  312.143,85.3298 331.041,85.3298 
  "/>
<path clip-path="url(#clip630)" d="M145.137 1333.55 Q139.72 1333.55 136.977 1338.9 Q134.269 1344.21 134.269 1354.91 Q134.269 1365.57 136.977 1370.91 Q139.72 1376.23 145.137 1376.23 Q150.588 1376.23 153.296 1370.91 Q156.039 1365.57 156.039 1354.91 Q156.039 1344.21 153.296 1338.9 Q150.588 1333.55 145.137 1333.55 M145.137 1328 Q153.852 1328 158.435 1334.91 Q163.053 1341.78 163.053 1354.91 Q163.053 1368 158.435 1374.91 Q153.852 1381.78 145.137 1381.78 Q136.421 1381.78 131.803 1374.91 Q127.22 1368 127.22 1354.91 Q127.22 1341.78 131.803 1334.91 Q136.421 1328 145.137 1328 Z" fill="#000000" fill-rule="evenodd" fill-opacity="1" /><path clip-path="url(#clip630)" d="M175.38 1371.95 L182.706 1371.95 L182.706 1380.77 L175.38 1380.77 L175.38 1371.95 Z" fill="#000000" fill-rule="evenodd" fill-opacity="1" /><path clip-path="url(#clip630)" d="M212.984 1333.55 Q207.567 1333.55 204.824 1338.9 Q202.116 1344.21 202.116 1354.91 Q202.116 1365.57 204.824 1370.91 Q207.567 1376.23 212.984 1376.23 Q218.435 1376.23 221.143 1370.91 Q223.886 1365.57 223.886 1354.91 Q223.886 1344.21 221.143 1338.9 Q218.435 1333.55 212.984 1333.55 M212.984 1328 Q221.699 1328 226.282 1334.91 Q230.9 1341.78 230.9 1354.91 Q230.9 1368 226.282 1374.91 Q221.699 1381.78 212.984 1381.78 Q204.268 1381.78 199.65 1374.91 Q195.067 1368 195.067 1354.91 Q195.067 1341.78 199.65 1334.91 Q204.268 1328 212.984 1328 Z" fill="#000000" fill-rule="evenodd" fill-opacity="1" /><path clip-path="url(#clip630)" d="M258.226 1333.55 Q252.81 1333.55 250.067 1338.9 Q247.358 1344.21 247.358 1354.91 Q247.358 1365.57 250.067 1370.91 Q252.81 1376.23 258.226 1376.23 Q263.678 1376.23 266.386 1370.91 Q269.129 1365.57 269.129 1354.91 Q269.129 1344.21 266.386 1338.9 Q263.678 1333.55 258.226 1333.55 M258.226 1328 Q266.942 1328 271.525 1334.91 Q276.143 1341.78 276.143 1354.91 Q276.143 1368 271.525 1374.91 Q266.942 1381.78 258.226 1381.78 Q249.511 1381.78 244.893 1374.91 Q240.31 1368 240.31 1354.91 Q240.31 1341.78 244.893 1334.91 Q249.511 1328 258.226 1328 Z" fill="#000000" fill-rule="evenodd" fill-opacity="1" /><path clip-path="url(#clip630)" d="M146.63 1016.17 Q141.213 1016.17 138.47 1021.52 Q135.762 1026.83 135.762 1037.53 Q135.762 1048.18 138.47 1053.53 Q141.213 1058.84 146.63 1058.84 Q152.081 1058.84 154.789 1053.53 Q157.532 1048.18 157.532 1037.53 Q157.532 1026.83 154.789 1021.52 Q152.081 1016.17 146.63 1016.17 M146.63 1010.62 Q155.345 1010.62 159.928 1017.53 Q164.546 1024.4 164.546 1037.53 Q164.546 1050.62 159.928 1057.53 Q155.345 1064.4 146.63 1064.4 Q137.915 1064.4 133.297 1057.53 Q128.713 1050.62 128.713 1037.53 Q128.713 1024.4 133.297 1017.53 Q137.915 1010.62 146.63 1010.62 Z" fill="#000000" fill-rule="evenodd" fill-opacity="1" /><path clip-path="url(#clip630)" d="M176.873 1054.57 L184.199 1054.57 L184.199 1063.39 L176.873 1063.39 L176.873 1054.57 Z" fill="#000000" fill-rule="evenodd" fill-opacity="1" /><path clip-path="url(#clip630)" d="M205.518 1057.49 L229.997 1057.49 L229.997 1063.39 L197.081 1063.39 L197.081 1057.49 Q201.074 1053.36 207.949 1046.41 Q214.859 1039.43 216.629 1037.42 Q219.997 1033.64 221.317 1031.03 Q222.671 1028.39 222.671 1025.86 Q222.671 1021.73 219.754 1019.12 Q216.872 1016.52 212.22 1016.52 Q208.921 1016.52 205.241 1017.66 Q201.595 1018.81 197.428 1021.14 L197.428 1014.05 Q201.664 1012.35 205.345 1011.48 Q209.025 1010.62 212.081 1010.62 Q220.136 1010.62 224.928 1014.64 Q229.72 1018.67 229.72 1025.41 Q229.72 1028.6 228.504 1031.48 Q227.324 1034.33 224.164 1038.22 Q223.296 1039.23 218.643 1044.05 Q213.991 1048.84 205.518 1057.49 Z" fill="#000000" fill-rule="evenodd" fill-opacity="1" /><path clip-path="url(#clip630)" d="M244.789 1011.55 L272.324 1011.55 L272.324 1017.46 L251.213 1017.46 L251.213 1030.16 Q252.74 1029.64 254.268 1029.4 Q255.796 1029.12 257.324 1029.12 Q266.004 1029.12 271.074 1033.88 Q276.143 1038.64 276.143 1046.76 Q276.143 1055.13 270.935 1059.78 Q265.726 1064.4 256.247 1064.4 Q252.983 1064.4 249.581 1063.84 Q246.213 1063.29 242.601 1062.18 L242.601 1055.13 Q245.726 1056.83 249.06 1057.66 Q252.393 1058.5 256.108 1058.5 Q262.115 1058.5 265.622 1055.34 Q269.129 1052.18 269.129 1046.76 Q269.129 1041.34 265.622 1038.18 Q262.115 1035.03 256.108 1035.03 Q253.296 1035.03 250.483 1035.65 Q247.706 1036.28 244.789 1037.59 L244.789 1011.55 Z" fill="#000000" fill-rule="evenodd" fill-opacity="1" /><path clip-path="url(#clip630)" d="M145.137 698.79 Q139.72 698.79 136.977 704.137 Q134.269 709.45 134.269 720.144 Q134.269 730.804 136.977 736.151 Q139.72 741.463 145.137 741.463 Q150.588 741.463 153.296 736.151 Q156.039 730.804 156.039 720.144 Q156.039 709.45 153.296 704.137 Q150.588 698.79 145.137 698.79 M145.137 693.234 Q153.852 693.234 158.435 700.144 Q163.053 707.019 163.053 720.144 Q163.053 733.234 158.435 740.144 Q153.852 747.019 145.137 747.019 Q136.421 747.019 131.803 740.144 Q127.22 733.234 127.22 720.144 Q127.22 707.019 131.803 700.144 Q136.421 693.234 145.137 693.234 Z" fill="#000000" fill-rule="evenodd" fill-opacity="1" /><path clip-path="url(#clip630)" d="M175.38 737.193 L182.706 737.193 L182.706 746.012 L175.38 746.012 L175.38 737.193 Z" fill="#000000" fill-rule="evenodd" fill-opacity="1" /><path clip-path="url(#clip630)" d="M198.053 694.172 L225.588 694.172 L225.588 700.075 L204.477 700.075 L204.477 712.783 Q206.004 712.262 207.532 712.019 Q209.06 711.741 210.588 711.741 Q219.268 711.741 224.338 716.498 Q229.407 721.255 229.407 729.38 Q229.407 737.748 224.199 742.401 Q218.99 747.019 209.511 747.019 Q206.248 747.019 202.845 746.463 Q199.477 745.908 195.866 744.797 L195.866 737.748 Q198.991 739.45 202.324 740.283 Q205.657 741.116 209.372 741.116 Q215.379 741.116 218.886 737.956 Q222.393 734.797 222.393 729.38 Q222.393 723.963 218.886 720.804 Q215.379 717.644 209.372 717.644 Q206.56 717.644 203.748 718.269 Q200.97 718.894 198.053 720.213 L198.053 694.172 Z" fill="#000000" fill-rule="evenodd" fill-opacity="1" /><path clip-path="url(#clip630)" d="M258.226 698.79 Q252.81 698.79 250.067 704.137 Q247.358 709.45 247.358 720.144 Q247.358 730.804 250.067 736.151 Q252.81 741.463 258.226 741.463 Q263.678 741.463 266.386 736.151 Q269.129 730.804 269.129 720.144 Q269.129 709.45 266.386 704.137 Q263.678 698.79 258.226 698.79 M258.226 693.234 Q266.942 693.234 271.525 700.144 Q276.143 707.019 276.143 720.144 Q276.143 733.234 271.525 740.144 Q266.942 747.019 258.226 747.019 Q249.511 747.019 244.893 740.144 Q240.31 733.234 240.31 720.144 Q240.31 707.019 244.893 700.144 Q249.511 693.234 258.226 693.234 Z" fill="#000000" fill-rule="evenodd" fill-opacity="1" /><path clip-path="url(#clip630)" d="M146.63 381.409 Q141.213 381.409 138.47 386.756 Q135.762 392.069 135.762 402.763 Q135.762 413.423 138.47 418.77 Q141.213 424.082 146.63 424.082 Q152.081 424.082 154.789 418.77 Q157.532 413.423 157.532 402.763 Q157.532 392.069 154.789 386.756 Q152.081 381.409 146.63 381.409 M146.63 375.853 Q155.345 375.853 159.928 382.763 Q164.546 389.638 164.546 402.763 Q164.546 415.853 159.928 422.763 Q155.345 429.638 146.63 429.638 Q137.915 429.638 133.297 422.763 Q128.713 415.853 128.713 402.763 Q128.713 389.638 133.297 382.763 Q137.915 375.853 146.63 375.853 Z" fill="#000000" fill-rule="evenodd" fill-opacity="1" /><path clip-path="url(#clip630)" d="M176.873 419.811 L184.199 419.811 L184.199 428.631 L176.873 428.631 L176.873 419.811 Z" fill="#000000" fill-rule="evenodd" fill-opacity="1" /><path clip-path="url(#clip630)" d="M197.706 376.791 L231.039 376.791 L231.039 379.777 L212.22 428.631 L204.893 428.631 L222.602 382.694 L197.706 382.694 L197.706 376.791 Z" fill="#000000" fill-rule="evenodd" fill-opacity="1" /><path clip-path="url(#clip630)" d="M244.789 376.791 L272.324 376.791 L272.324 382.694 L251.213 382.694 L251.213 395.402 Q252.74 394.881 254.268 394.638 Q255.796 394.36 257.324 394.36 Q266.004 394.36 271.074 399.117 Q276.143 403.874 276.143 411.999 Q276.143 420.367 270.935 425.02 Q265.726 429.638 256.247 429.638 Q252.983 429.638 249.581 429.082 Q246.213 428.527 242.601 427.416 L242.601 420.367 Q245.726 422.068 249.06 422.902 Q252.393 423.735 256.108 423.735 Q262.115 423.735 265.622 420.575 Q269.129 417.416 269.129 411.999 Q269.129 406.582 265.622 403.423 Q262.115 400.263 256.108 400.263 Q253.296 400.263 250.483 400.888 Q247.706 401.513 244.789 402.832 L244.789 376.791 Z" fill="#000000" fill-rule="evenodd" fill-opacity="1" /><path clip-path="url(#clip630)" d="M131.352 105.347 L142.81 105.347 L142.81 65.7987 L130.345 68.2987 L130.345 61.9098 L142.741 59.4098 L149.755 59.4098 L149.755 105.347 L161.213 105.347 L161.213 111.25 L131.352 111.25 L131.352 105.347 Z" fill="#000000" fill-rule="evenodd" fill-opacity="1" /><path clip-path="url(#clip630)" d="M175.38 102.43 L182.706 102.43 L182.706 111.25 L175.38 111.25 L175.38 102.43 Z" fill="#000000" fill-rule="evenodd" fill-opacity="1" /><path clip-path="url(#clip630)" d="M212.984 64.0279 Q207.567 64.0279 204.824 69.375 Q202.116 74.6875 202.116 85.3819 Q202.116 96.0416 204.824 101.389 Q207.567 106.701 212.984 106.701 Q218.435 106.701 221.143 101.389 Q223.886 96.0416 223.886 85.3819 Q223.886 74.6875 221.143 69.375 Q218.435 64.0279 212.984 64.0279 M212.984 58.4723 Q221.699 58.4723 226.282 65.382 Q230.9 72.257 230.9 85.3819 Q230.9 98.4721 226.282 105.382 Q221.699 112.257 212.984 112.257 Q204.268 112.257 199.65 105.382 Q195.067 98.4721 195.067 85.3819 Q195.067 72.257 199.65 65.382 Q204.268 58.4723 212.984 58.4723 Z" fill="#000000" fill-rule="evenodd" fill-opacity="1" /><path clip-path="url(#clip630)" d="M258.226 64.0279 Q252.81 64.0279 250.067 69.375 Q247.358 74.6875 247.358 85.3819 Q247.358 96.0416 250.067 101.389 Q252.81 106.701 258.226 106.701 Q263.678 106.701 266.386 101.389 Q269.129 96.0416 269.129 85.3819 Q269.129 74.6875 266.386 69.375 Q263.678 64.0279 258.226 64.0279 M258.226 58.4723 Q266.942 58.4723 271.525 65.382 Q276.143 72.257 276.143 85.3819 Q276.143 98.4721 271.525 105.382 Q266.942 112.257 258.226 112.257 Q249.511 112.257 244.893 105.382 Q240.31 98.4721 240.31 85.3819 Q240.31 72.257 244.893 65.382 Q249.511 58.4723 258.226 58.4723 Z" fill="#000000" fill-rule="evenodd" fill-opacity="1" /><path clip-path="url(#clip630)" d="M14.5811 1019.45 L22.5614 1019.45 Q20.3334 1024.11 19.2396 1028.24 Q18.1459 1032.38 18.1459 1036.22 Q18.1459 1042.91 20.7385 1046.55 Q23.3311 1050.16 28.1111 1050.16 Q32.1215 1050.16 34.1875 1047.77 Q36.2129 1045.34 37.4687 1038.61 L38.4814 1033.67 Q40.2233 1024.52 44.6388 1020.18 Q49.0138 1015.81 56.3864 1015.81 Q65.1769 1015.81 69.7139 1021.72 Q74.2509 1027.6 74.2509 1038.98 Q74.2509 1043.27 73.2787 1048.13 Q72.3065 1052.95 70.4026 1058.14 L61.9767 1058.14 Q64.7718 1053.16 66.1896 1048.38 Q67.6074 1043.6 67.6074 1038.98 Q67.6074 1031.97 64.8528 1028.16 Q62.0982 1024.36 56.9941 1024.36 Q52.5381 1024.36 50.0265 1027.11 Q47.515 1029.82 46.2592 1036.06 L45.287 1041.05 Q43.464 1050.2 39.5752 1054.29 Q35.6863 1058.38 28.7593 1058.38 Q20.7385 1058.38 16.1204 1052.75 Q11.5024 1047.08 11.5024 1037.16 Q11.5024 1032.9 12.2721 1028.49 Q13.0418 1024.07 14.5811 1019.45 Z" fill="#000000" fill-rule="evenodd" fill-opacity="1" /><path clip-path="url(#clip630)" d="M14.8242 995.999 L27.706 995.999 L27.706 980.646 L33.4988 980.646 L33.4988 995.999 L58.1283 995.999 Q63.6781 995.999 65.2579 994.5 Q66.8378 992.961 66.8378 988.302 L66.8378 980.646 L73.0762 980.646 L73.0762 988.302 Q73.0762 996.931 69.8759 1000.21 Q66.6352 1003.49 58.1283 1003.49 L33.4988 1003.49 L33.4988 1008.96 L27.706 1008.96 L27.706 1003.49 L14.8242 1003.49 L14.8242 995.999 Z" fill="#000000" fill-rule="evenodd" fill-opacity="1" /><path clip-path="url(#clip630)" d="M50.2696 950.224 Q50.2696 959.257 52.3355 962.741 Q54.4015 966.225 59.3841 966.225 Q63.354 966.225 65.7035 963.632 Q68.0125 960.999 68.0125 956.503 Q68.0125 950.305 63.6376 946.578 Q59.2221 942.811 51.9304 942.811 L50.2696 942.811 L50.2696 950.224 M47.1909 935.357 L73.0762 935.357 L73.0762 942.811 L66.1896 942.811 Q70.3215 945.363 72.3065 949.171 Q74.2509 952.978 74.2509 958.488 Q74.2509 965.455 70.3621 969.587 Q66.4327 973.679 59.8702 973.679 Q52.214 973.679 48.3251 968.574 Q44.4363 963.43 44.4363 953.262 L44.4363 942.811 L43.7071 942.811 Q38.5625 942.811 35.7673 946.213 Q32.9317 949.576 32.9317 955.693 Q32.9317 959.581 33.8634 963.268 Q34.7951 966.954 36.6585 970.357 L29.772 970.357 Q28.1921 966.265 27.4225 962.417 Q26.6123 958.569 26.6123 954.923 Q26.6123 945.079 31.7164 940.218 Q36.8206 935.357 47.1909 935.357 Z" fill="#000000" fill-rule="evenodd" fill-opacity="1" /><path clip-path="url(#clip630)" d="M14.8242 912.631 L27.706 912.631 L27.706 897.279 L33.4988 897.279 L33.4988 912.631 L58.1283 912.631 Q63.6781 912.631 65.2579 911.133 Q66.8378 909.593 66.8378 904.935 L66.8378 897.279 L73.0762 897.279 L73.0762 904.935 Q73.0762 913.563 69.8759 916.844 Q66.6352 920.126 58.1283 920.126 L33.4988 920.126 L33.4988 925.594 L27.706 925.594 L27.706 920.126 L14.8242 920.126 L14.8242 912.631 Z" fill="#000000" fill-rule="evenodd" fill-opacity="1" /><path clip-path="url(#clip630)" d="M48.5277 848.668 L52.1735 848.668 L52.1735 882.938 Q59.8702 882.452 63.9211 878.32 Q67.9315 874.148 67.9315 866.735 Q67.9315 862.441 66.8783 858.43 Q65.825 854.379 63.7186 850.41 L70.7671 850.41 Q72.4685 854.42 73.3597 858.633 Q74.2509 862.846 74.2509 867.18 Q74.2509 878.037 67.9315 884.397 Q61.6121 890.716 50.8367 890.716 Q39.6967 890.716 33.1748 884.721 Q26.6123 878.685 26.6123 868.477 Q26.6123 859.322 32.5266 854.015 Q38.4004 848.668 48.5277 848.668 M46.3402 856.121 Q40.2233 856.202 36.5775 859.565 Q32.9317 862.886 32.9317 868.396 Q32.9317 874.634 36.456 878.401 Q39.9803 882.128 46.3807 882.695 L46.3402 856.121 Z" fill="#000000" fill-rule="evenodd" fill-opacity="1" /><path clip-path="url(#clip630)" d="M19.3207 801.556 L42.0462 801.556 L42.0462 791.266 Q42.0462 785.555 39.0891 782.435 Q36.1319 779.316 30.6632 779.316 Q25.235 779.316 22.2778 782.435 Q19.3207 785.555 19.3207 791.266 L19.3207 801.556 M12.5962 809.738 L12.5962 791.266 Q12.5962 781.099 17.2142 775.913 Q21.7917 770.688 30.6632 770.688 Q39.6157 770.688 44.1932 775.913 Q48.7707 781.099 48.7707 791.266 L48.7707 801.556 L73.0762 801.556 L73.0762 809.738 L12.5962 809.738 Z" fill="#000000" fill-rule="evenodd" fill-opacity="1" /><path clip-path="url(#clip630)" d="M34.6736 735.202 Q33.9444 736.458 33.6204 737.956 Q33.2558 739.415 33.2558 741.197 Q33.2558 747.517 37.3877 750.919 Q41.4791 754.282 49.1758 754.282 L73.0762 754.282 L73.0762 761.776 L27.706 761.776 L27.706 754.282 L34.7546 754.282 Q30.6227 751.932 28.6377 748.165 Q26.6123 744.397 26.6123 739.01 Q26.6123 738.24 26.7338 737.308 Q26.8148 736.377 27.0174 735.242 L34.6736 735.202 Z" fill="#000000" fill-rule="evenodd" fill-opacity="1" /><path clip-path="url(#clip630)" d="M32.9317 711.626 Q32.9317 717.621 37.6307 721.105 Q42.2893 724.588 50.4316 724.588 Q58.5739 724.588 63.273 721.145 Q67.9315 717.661 67.9315 711.626 Q67.9315 705.671 63.2325 702.187 Q58.5334 698.703 50.4316 698.703 Q42.3703 698.703 37.6713 702.187 Q32.9317 705.671 32.9317 711.626 M26.6123 711.626 Q26.6123 701.903 32.9317 696.354 Q39.2511 690.804 50.4316 690.804 Q61.5716 690.804 67.9315 696.354 Q74.2509 701.903 74.2509 711.626 Q74.2509 721.388 67.9315 726.938 Q61.5716 732.447 50.4316 732.447 Q39.2511 732.447 32.9317 726.938 Q26.6123 721.388 26.6123 711.626 Z" fill="#000000" fill-rule="evenodd" fill-opacity="1" /><path clip-path="url(#clip630)" d="M50.4316 645.879 Q42.2083 645.879 37.5497 649.282 Q32.8507 652.644 32.8507 658.559 Q32.8507 664.473 37.5497 667.876 Q42.2083 671.238 50.4316 671.238 Q58.6549 671.238 63.354 667.876 Q68.0125 664.473 68.0125 658.559 Q68.0125 652.644 63.354 649.282 Q58.6549 645.879 50.4316 645.879 M34.5926 671.238 Q30.5417 668.889 28.5972 665.324 Q26.6123 661.718 26.6123 656.736 Q26.6123 648.472 33.1748 643.327 Q39.7372 638.142 50.4316 638.142 Q61.126 638.142 67.6885 643.327 Q74.2509 648.472 74.2509 656.736 Q74.2509 661.718 72.3065 665.324 Q70.3215 668.889 66.2706 671.238 L73.0762 671.238 L73.0762 678.732 L10.0441 678.732 L10.0441 671.238 L34.5926 671.238 Z" fill="#000000" fill-rule="evenodd" fill-opacity="1" /><path clip-path="url(#clip630)" d="M50.2696 605.168 Q50.2696 614.201 52.3355 617.685 Q54.4015 621.169 59.3841 621.169 Q63.354 621.169 65.7035 618.576 Q68.0125 615.943 68.0125 611.447 Q68.0125 605.249 63.6376 601.522 Q59.2221 597.755 51.9304 597.755 L50.2696 597.755 L50.2696 605.168 M47.1909 590.301 L73.0762 590.301 L73.0762 597.755 L66.1896 597.755 Q70.3215 600.307 72.3065 604.115 Q74.2509 607.922 74.2509 613.432 Q74.2509 620.399 70.3621 624.531 Q66.4327 628.623 59.8702 628.623 Q52.214 628.623 48.3251 623.518 Q44.4363 618.374 44.4363 608.206 L44.4363 597.755 L43.7071 597.755 Q38.5625 597.755 35.7673 601.157 Q32.9317 604.52 32.9317 610.637 Q32.9317 614.525 33.8634 618.212 Q34.7951 621.898 36.6585 625.301 L29.772 625.301 Q28.1921 621.209 27.4225 617.361 Q26.6123 613.513 26.6123 609.867 Q26.6123 600.023 31.7164 595.162 Q36.8206 590.301 47.1909 590.301 Z" fill="#000000" fill-rule="evenodd" fill-opacity="1" /><path clip-path="url(#clip630)" d="M50.4316 542.379 Q42.2083 542.379 37.5497 545.782 Q32.8507 549.144 32.8507 555.058 Q32.8507 560.972 37.5497 564.375 Q42.2083 567.737 50.4316 567.737 Q58.6549 567.737 63.354 564.375 Q68.0125 560.972 68.0125 555.058 Q68.0125 549.144 63.354 545.782 Q58.6549 542.379 50.4316 542.379 M34.5926 567.737 Q30.5417 565.388 28.5972 561.823 Q26.6123 558.218 26.6123 553.235 Q26.6123 544.971 33.1748 539.827 Q39.7372 534.642 50.4316 534.642 Q61.126 534.642 67.6885 539.827 Q74.2509 544.971 74.2509 553.235 Q74.2509 558.218 72.3065 561.823 Q70.3215 565.388 66.2706 567.737 L73.0762 567.737 L73.0762 575.232 L10.0441 575.232 L10.0441 567.737 L34.5926 567.737 Z" fill="#000000" fill-rule="evenodd" fill-opacity="1" /><path clip-path="url(#clip630)" d="M27.706 522.286 L27.706 514.833 L73.0762 514.833 L73.0762 522.286 L27.706 522.286 M10.0441 522.286 L10.0441 514.833 L19.4827 514.833 L19.4827 522.286 L10.0441 522.286 Z" fill="#000000" fill-rule="evenodd" fill-opacity="1" /><path clip-path="url(#clip630)" d="M10.0441 499.237 L10.0441 491.783 L73.0762 491.783 L73.0762 499.237 L10.0441 499.237 Z" fill="#000000" fill-rule="evenodd" fill-opacity="1" /><path clip-path="url(#clip630)" d="M27.706 476.187 L27.706 468.733 L73.0762 468.733 L73.0762 476.187 L27.706 476.187 M10.0441 476.187 L10.0441 468.733 L19.4827 468.733 L19.4827 476.187 L10.0441 476.187 Z" fill="#000000" fill-rule="evenodd" fill-opacity="1" /><path clip-path="url(#clip630)" d="M14.8242 445.765 L27.706 445.765 L27.706 430.412 L33.4988 430.412 L33.4988 445.765 L58.1283 445.765 Q63.6781 445.765 65.2579 444.266 Q66.8378 442.727 66.8378 438.068 L66.8378 430.412 L73.0762 430.412 L73.0762 438.068 Q73.0762 446.696 69.8759 449.978 Q66.6352 453.259 58.1283 453.259 L33.4988 453.259 L33.4988 458.728 L27.706 458.728 L27.706 453.259 L14.8242 453.259 L14.8242 445.765 Z" fill="#000000" fill-rule="evenodd" fill-opacity="1" /><path clip-path="url(#clip630)" d="M77.2891 401.731 Q85.3909 404.891 87.862 407.889 Q90.333 410.886 90.333 415.91 L90.333 421.864 L84.0946 421.864 L84.0946 417.489 Q84.0946 414.411 82.6363 412.709 Q81.178 411.008 75.7498 408.942 L72.347 407.605 L27.706 425.956 L27.706 418.057 L63.192 403.878 L27.706 389.7 L27.706 381.801 L77.2891 401.731 Z" fill="#000000" fill-rule="evenodd" fill-opacity="1" /><path clip-path="url(#clip632)" d="
M369.896 2738.64 L369.896 -1298.45 L754.917 -1298.45 L754.917 2738.64 L369.896 2738.64  Z
  " fill="#ff0000" fill-rule="evenodd" fill-opacity="0.2"/>
<polyline clip-path="url(#clip632)" style="stroke:#ff0000; stroke-linecap:round; stroke-linejoin:round; stroke-width:0; stroke-opacity:0.2; fill:none" points="
  369.896,2738.64 369.896,-1298.45 754.917,-1298.45 754.917,2738.64 369.896,2738.64 
  "/>
<polyline clip-path="url(#clip632)" style="stroke:#2271b2; stroke-linecap:round; stroke-linejoin:round; stroke-width:8; stroke-opacity:1; fill:none" points="
  369.896,85.3298 466.151,720.092 562.407,799.437 658.662,839.11 754.917,844.069 851.173,846.548 947.428,846.858 1043.68,847.013 1139.94,847.033 1236.19,847.042 
  1332.45,847.044 1428.7,847.044 1524.96,847.044 1621.22,847.044 1717.47,847.044 1813.73,847.044 1909.98,847.044 2006.24,847.044 2102.49,847.044 2198.75,847.044 
  2295,847.044 
  "/>
<polyline clip-path="url(#clip632)" style="stroke:#3db7e9; stroke-linecap:round; stroke-linejoin:round; stroke-width:8; stroke-opacity:1; fill:none" points="
  369.896,1354.85 466.151,1037.47 562.407,1116.82 658.662,1096.98 754.917,1101.94 851.173,1100.7 947.428,1101.01 1043.68,1100.93 1139.94,1100.95 1236.19,1100.95 
  1332.45,1100.95 1428.7,1100.95 1524.96,1100.95 1621.22,1100.95 1717.47,1100.95 1813.73,1100.95 1909.98,1100.95 2006.24,1100.95 2102.49,1100.95 2198.75,1100.95 
  2295,1100.95 
  "/>
<polyline clip-path="url(#clip632)" style="stroke:#f748a5; stroke-linecap:round; stroke-linejoin:round; stroke-width:8; stroke-opacity:1; fill:none" points="
  369.896,1354.85 466.151,1037.47 562.407,878.783 658.662,858.946 754.917,849.028 851.173,847.788 947.428,847.168 1043.68,847.091 1139.94,847.052 1236.19,847.047 
  1332.45,847.045 1428.7,847.045 1524.96,847.044 1621.22,847.044 1717.47,847.044 1813.73,847.044 1909.98,847.044 2006.24,847.044 2102.49,847.044 2198.75,847.044 
  2295,847.044 
  "/>
<path clip-path="url(#clip630)" d="
M1829.11 454.981 L2284.74 454.981 L2284.74 92.1006 L1829.11 92.1006  Z
  " fill="#ffffff" fill-rule="evenodd" fill-opacity="1"/>
<polyline clip-path="url(#clip630)" style="stroke:#000000; stroke-linecap:round; stroke-linejoin:round; stroke-width:4; stroke-opacity:1; fill:none" points="
  1829.11,454.981 2284.74,454.981 2284.74,92.1006 1829.11,92.1006 1829.11,454.981 
  "/>
<polyline clip-path="url(#clip630)" style="stroke:#2271b2; stroke-linecap:round; stroke-linejoin:round; stroke-width:14; stroke-opacity:1; fill:none" points="
  1851.79,182.821 1987.83,182.821 
  "/>
<path clip-path="url(#clip630)" d="M2010.5 152.581 L2045.26 152.581 L2045.26 159.467 L2018.68 159.467 L2018.68 177.291 L2042.67 177.291 L2042.67 184.178 L2018.68 184.178 L2018.68 213.061 L2010.5 213.061 L2010.5 152.581 Z" fill="#000000" fill-rule="evenodd" fill-opacity="1" /><path clip-path="url(#clip630)" d="M2072.52 172.916 Q2066.52 172.916 2063.04 177.615 Q2059.56 182.274 2059.56 190.416 Q2059.56 198.558 2063 203.257 Q2066.48 207.916 2072.52 207.916 Q2078.48 207.916 2081.96 203.217 Q2085.44 198.518 2085.44 190.416 Q2085.44 182.355 2081.96 177.656 Q2078.48 172.916 2072.52 172.916 M2072.52 166.597 Q2082.24 166.597 2087.79 172.916 Q2093.34 179.236 2093.34 190.416 Q2093.34 201.556 2087.79 207.916 Q2082.24 214.235 2072.52 214.235 Q2062.76 214.235 2057.21 207.916 Q2051.7 201.556 2051.7 190.416 Q2051.7 179.236 2057.21 172.916 Q2062.76 166.597 2072.52 166.597 Z" fill="#000000" fill-rule="evenodd" fill-opacity="1" /><path clip-path="url(#clip630)" d="M2135.55 189.849 Q2135.55 181.747 2132.19 177.291 Q2128.87 172.835 2122.83 172.835 Q2116.84 172.835 2113.47 177.291 Q2110.15 181.747 2110.15 189.849 Q2110.15 197.91 2113.47 202.366 Q2116.84 206.822 2122.83 206.822 Q2128.87 206.822 2132.19 202.366 Q2135.55 197.91 2135.55 189.849 M2143.01 207.43 Q2143.01 219.015 2137.86 224.646 Q2132.72 230.317 2122.1 230.317 Q2118.17 230.317 2114.69 229.71 Q2111.21 229.143 2107.93 227.927 L2107.93 220.676 Q2111.21 222.459 2114.41 223.309 Q2117.61 224.16 2120.93 224.16 Q2128.26 224.16 2131.91 220.312 Q2135.55 216.504 2135.55 208.767 L2135.55 205.08 Q2133.24 209.091 2129.64 211.076 Q2126.03 213.061 2121.01 213.061 Q2112.66 213.061 2107.56 206.701 Q2102.46 200.341 2102.46 189.849 Q2102.46 179.317 2107.56 172.957 Q2112.66 166.597 2121.01 166.597 Q2126.03 166.597 2129.64 168.582 Q2133.24 170.567 2135.55 174.577 L2135.55 167.69 L2143.01 167.69 L2143.01 207.43 Z" fill="#000000" fill-rule="evenodd" fill-opacity="1" /><path clip-path="url(#clip630)" d="M2188.21 189.849 Q2188.21 181.747 2184.85 177.291 Q2181.53 172.835 2175.49 172.835 Q2169.5 172.835 2166.14 177.291 Q2162.81 181.747 2162.81 189.849 Q2162.81 197.91 2166.14 202.366 Q2169.5 206.822 2175.49 206.822 Q2181.53 206.822 2184.85 202.366 Q2188.21 197.91 2188.21 189.849 M2195.67 207.43 Q2195.67 219.015 2190.52 224.646 Q2185.38 230.317 2174.77 230.317 Q2170.84 230.317 2167.35 229.71 Q2163.87 229.143 2160.59 227.927 L2160.59 220.676 Q2163.87 222.459 2167.07 223.309 Q2170.27 224.16 2173.59 224.16 Q2180.92 224.16 2184.57 220.312 Q2188.21 216.504 2188.21 208.767 L2188.21 205.08 Q2185.9 209.091 2182.3 211.076 Q2178.69 213.061 2173.67 213.061 Q2165.33 213.061 2160.22 206.701 Q2155.12 200.341 2155.12 189.849 Q2155.12 179.317 2160.22 172.957 Q2165.33 166.597 2173.67 166.597 Q2178.69 166.597 2182.3 168.582 Q2185.9 170.567 2188.21 174.577 L2188.21 167.69 L2195.67 167.69 L2195.67 207.43 Z" fill="#000000" fill-rule="evenodd" fill-opacity="1" /><path clip-path="url(#clip630)" d="M2229.9 217.274 Q2226.74 225.375 2223.74 227.846 Q2220.74 230.317 2215.72 230.317 L2209.76 230.317 L2209.76 224.079 L2214.14 224.079 Q2217.22 224.079 2218.92 222.621 Q2220.62 221.162 2222.69 215.734 L2224.02 212.331 L2205.67 167.69 L2213.57 167.69 L2227.75 203.176 L2241.93 167.69 L2249.83 167.69 L2229.9 217.274 Z" fill="#000000" fill-rule="evenodd" fill-opacity="1" /><polyline clip-path="url(#clip630)" style="stroke:#3db7e9; stroke-linecap:round; stroke-linejoin:round; stroke-width:14; stroke-opacity:1; fill:none" points="
  1851.79,273.541 1987.83,273.541 
  "/>
<path clip-path="url(#clip630)" d="M2049.43 245.286 L2049.43 253.266 Q2044.77 251.038 2040.64 249.944 Q2036.51 248.85 2032.66 248.85 Q2025.98 248.85 2022.33 251.443 Q2018.72 254.036 2018.72 258.816 Q2018.72 262.826 2021.11 264.892 Q2023.54 266.917 2030.27 268.173 L2035.21 269.186 Q2044.37 270.928 2048.7 275.343 Q2053.08 279.718 2053.08 287.091 Q2053.08 295.881 2047.16 300.418 Q2041.29 304.955 2029.9 304.955 Q2025.61 304.955 2020.75 303.983 Q2015.93 303.011 2010.74 301.107 L2010.74 292.681 Q2015.73 295.476 2020.51 296.894 Q2025.29 298.312 2029.9 298.312 Q2036.91 298.312 2040.72 295.557 Q2044.53 292.803 2044.53 287.699 Q2044.53 283.243 2041.77 280.731 Q2039.06 278.219 2032.82 276.964 L2027.84 275.991 Q2018.68 274.169 2014.59 270.28 Q2010.5 266.391 2010.5 259.464 Q2010.5 251.443 2016.13 246.825 Q2021.8 242.207 2031.73 242.207 Q2035.98 242.207 2040.4 242.977 Q2044.81 243.746 2049.43 245.286 Z" fill="#000000" fill-rule="evenodd" fill-opacity="1" /><path clip-path="url(#clip630)" d="M2064.74 285.876 L2064.74 258.41 L2072.2 258.41 L2072.2 285.592 Q2072.2 292.033 2074.71 295.274 Q2077.22 298.474 2082.24 298.474 Q2088.28 298.474 2091.76 294.626 Q2095.29 290.777 2095.29 284.134 L2095.29 258.41 L2102.74 258.41 L2102.74 303.781 L2095.29 303.781 L2095.29 296.813 Q2092.57 300.945 2088.97 302.97 Q2085.4 304.955 2080.66 304.955 Q2072.84 304.955 2068.79 300.094 Q2064.74 295.233 2064.74 285.876 M2083.5 257.317 L2083.5 257.317 Z" fill="#000000" fill-rule="evenodd" fill-opacity="1" /><path clip-path="url(#clip630)" d="M2155.81 276.397 L2155.81 303.781 L2148.35 303.781 L2148.35 276.64 Q2148.35 270.199 2145.84 266.998 Q2143.33 263.798 2138.31 263.798 Q2132.27 263.798 2128.79 267.647 Q2125.3 271.495 2125.3 278.138 L2125.3 303.781 L2117.81 303.781 L2117.81 258.41 L2125.3 258.41 L2125.3 265.459 Q2127.98 261.368 2131.58 259.342 Q2135.23 257.317 2139.97 257.317 Q2147.79 257.317 2151.8 262.178 Q2155.81 266.998 2155.81 276.397 Z" fill="#000000" fill-rule="evenodd" fill-opacity="1" /><path clip-path="url(#clip630)" d="M2208.39 276.397 L2208.39 303.781 L2200.93 303.781 L2200.93 276.64 Q2200.93 270.199 2198.42 266.998 Q2195.91 263.798 2190.89 263.798 Q2184.85 263.798 2181.37 267.647 Q2177.88 271.495 2177.88 278.138 L2177.88 303.781 L2170.39 303.781 L2170.39 258.41 L2177.88 258.41 L2177.88 265.459 Q2180.56 261.368 2184.16 259.342 Q2187.81 257.317 2192.55 257.317 Q2200.37 257.317 2204.38 262.178 Q2208.39 266.998 2208.39 276.397 Z" fill="#000000" fill-rule="evenodd" fill-opacity="1" /><path clip-path="url(#clip630)" d="M2242.13 307.994 Q2238.97 316.095 2235.97 318.566 Q2232.98 321.037 2227.95 321.037 L2222 321.037 L2222 314.799 L2226.37 314.799 Q2229.45 314.799 2231.15 313.341 Q2232.85 311.882 2234.92 306.454 L2236.26 303.051 L2217.91 258.41 L2225.81 258.41 L2239.98 293.896 L2254.16 258.41 L2262.06 258.41 L2242.13 307.994 Z" fill="#000000" fill-rule="evenodd" fill-opacity="1" /><polyline clip-path="url(#clip630)" style="stroke:#f748a5; stroke-linecap:round; stroke-linejoin:round; stroke-width:14; stroke-opacity:1; fill:none" points="
  1851.79,364.261 1987.83,364.261 
  "/>
<path clip-path="url(#clip630)" d="M2039.18 366.144 Q2041.81 367.035 2044.29 369.952 Q2046.8 372.869 2049.31 377.973 L2057.61 394.501 L2048.82 394.501 L2041.09 378.986 Q2038.09 372.909 2035.25 370.924 Q2032.46 368.939 2027.6 368.939 L2018.68 368.939 L2018.68 394.501 L2010.5 394.501 L2010.5 334.021 L2028.97 334.021 Q2039.34 334.021 2044.45 338.355 Q2049.55 342.69 2049.55 351.44 Q2049.55 357.151 2046.88 360.919 Q2044.24 364.686 2039.18 366.144 M2018.68 340.745 L2018.68 362.215 L2028.97 362.215 Q2034.89 362.215 2037.88 359.501 Q2040.92 356.746 2040.92 351.44 Q2040.92 346.133 2037.88 343.459 Q2034.89 340.745 2028.97 340.745 L2018.68 340.745 Z" fill="#000000" fill-rule="evenodd" fill-opacity="1" /><path clip-path="url(#clip630)" d="M2086.62 371.694 Q2077.58 371.694 2074.1 373.76 Q2070.62 375.826 2070.62 380.809 Q2070.62 384.778 2073.21 387.128 Q2075.84 389.437 2080.34 389.437 Q2086.54 389.437 2090.26 385.062 Q2094.03 380.647 2094.03 373.355 L2094.03 371.694 L2086.62 371.694 M2101.48 368.615 L2101.48 394.501 L2094.03 394.501 L2094.03 387.614 Q2091.48 391.746 2087.67 393.731 Q2083.86 395.675 2078.35 395.675 Q2071.39 395.675 2067.25 391.787 Q2063.16 387.857 2063.16 381.295 Q2063.16 373.638 2068.27 369.75 Q2073.41 365.861 2083.58 365.861 L2094.03 365.861 L2094.03 365.132 Q2094.03 359.987 2090.63 357.192 Q2087.27 354.356 2081.15 354.356 Q2077.26 354.356 2073.57 355.288 Q2069.89 356.22 2066.48 358.083 L2066.48 351.196 Q2070.58 349.617 2074.42 348.847 Q2078.27 348.037 2081.92 348.037 Q2091.76 348.037 2096.62 353.141 Q2101.48 358.245 2101.48 368.615 Z" fill="#000000" fill-rule="evenodd" fill-opacity="1" /><path clip-path="url(#clip630)" d="M2116.84 349.13 L2124.29 349.13 L2124.29 394.501 L2116.84 394.501 L2116.84 349.13 M2116.84 331.469 L2124.29 331.469 L2124.29 340.907 L2116.84 340.907 L2116.84 331.469 Z" fill="#000000" fill-rule="evenodd" fill-opacity="1" /><path clip-path="url(#clip630)" d="M2177.6 367.117 L2177.6 394.501 L2170.15 394.501 L2170.15 367.36 Q2170.15 360.919 2167.64 357.718 Q2165.12 354.518 2160.1 354.518 Q2154.06 354.518 2150.58 358.367 Q2147.1 362.215 2147.1 368.858 L2147.1 394.501 L2139.6 394.501 L2139.6 349.13 L2147.1 349.13 L2147.1 356.179 Q2149.77 352.088 2153.38 350.062 Q2157.02 348.037 2161.76 348.037 Q2169.58 348.037 2173.59 352.898 Q2177.6 357.718 2177.6 367.117 Z" fill="#000000" fill-rule="evenodd" fill-opacity="1" /><path clip-path="url(#clip630)" d="M2211.34 398.714 Q2208.18 406.815 2205.19 409.286 Q2202.19 411.757 2197.17 411.757 L2191.21 411.757 L2191.21 405.519 L2195.59 405.519 Q2198.67 405.519 2200.37 404.061 Q2202.07 402.602 2204.13 397.174 L2205.47 393.771 L2187.12 349.13 L2195.02 349.13 L2209.2 384.616 L2223.38 349.13 L2231.28 349.13 L2211.34 398.714 Z" fill="#000000" fill-rule="evenodd" fill-opacity="1" /></svg>
