<?xml version="1.0" encoding="utf-8"?>
<svg xmlns="http://www.w3.org/2000/svg" xmlns:xlink="http://www.w3.org/1999/xlink" width="600" height="400" viewBox="0 0 2400 1600">
<defs>
  <clipPath id="clip540">
    <rect x="0" y="0" width="2400" height="1600"/>
  </clipPath>
</defs>
<path clip-path="url(#clip540)" d="M0 1600 L2400 1600 L2400 0 L0 0  Z" fill="#ffffff" fill-rule="evenodd" fill-opacity="1"/>
<defs>
  <clipPath id="clip541">
    <rect x="480" y="0" width="1681" height="1600"/>
  </clipPath>
</defs>
<path clip-path="url(#clip540)" d="M180.973 1384.3 L2352.76 1384.3 L2352.76 47.2441 L180.973 47.2441  Z" fill="#ffffff" fill-rule="evenodd" fill-opacity="1"/>
<defs>
  <clipPath id="clip542">
    <rect x="180" y="47" width="2173" height="1338"/>
  </clipPath>
</defs>
<polyline clip-path="url(#clip542)" style="stroke:#000000; stroke-linecap:round; stroke-linejoin:round; stroke-width:2; stroke-opacity:0.1; fill:none" points="300.425,1384.3 300.425,47.2441 "/>
<polyline clip-path="url(#clip542)" style="stroke:#000000; stroke-linecap:round; stroke-linejoin:round; stroke-width:2; stroke-opacity:0.1; fill:none" points="622.572,1384.3 622.572,47.2441 "/>
<polyline clip-path="url(#clip542)" style="stroke:#000000; stroke-linecap:round; stroke-linejoin:round; stroke-width:2; stroke-opacity:0.1; fill:none" points="944.718,1384.3 944.718,47.2441 "/>
<polyline clip-path="url(#clip542)" style="stroke:#000000; stroke-linecap:round; stroke-linejoin:round; stroke-width:2; stroke-opacity:0.1; fill:none" points="1266.86,1384.3 1266.86,47.2441 "/>
<polyline clip-path="url(#clip542)" style="stroke:#000000; stroke-linecap:round; stroke-linejoin:round; stroke-width:2; stroke-opacity:0.1; fill:none" points="1589.01,1384.3 1589.01,47.2441 "/>
<polyline clip-path="url(#clip542)" style="stroke:#000000; stroke-linecap:round; stroke-linejoin:round; stroke-width:2; stroke-opacity:0.1; fill:none" points="1911.16,1384.3 1911.16,47.2441 "/>
<polyline clip-path="url(#clip542)" style="stroke:#000000; stroke-linecap:round; stroke-linejoin:round; stroke-width:2; stroke-opacity:0.1; fill:none" points="2233.3,1384.3 2233.3,47.2441 "/>
<polyline clip-path="url(#clip540)" style="stroke:#000000; stroke-linecap:round; stroke-linejoin:round; stroke-width:4; stroke-opacity:1; fill:none" points="180.973,1384.3 2352.76,1384.3 "/>
<polyline clip-path="url(#clip540)" style="stroke:#000000; stroke-linecap:round; stroke-linejoin:round; stroke-width:4; stroke-opacity:1; fill:none" points="300.425,1384.3 300.425,1365.4 "/>
<polyline clip-path="url(#clip540)" style="stroke:#000000; stroke-linecap:round; stroke-linejoin:round; stroke-width:4; stroke-opacity:1; fill:none" points="622.572,1384.3 622.572,1365.4 "/>
<polyline clip-path="url(#clip540)" style="stroke:#000000; stroke-linecap:round; stroke-linejoin:round; stroke-width:4; stroke-opacity:1; fill:none" points="944.718,1384.3 944.718,1365.4 "/>
<polyline clip-path="url(#clip540)" style="stroke:#000000; stroke-linecap:round; stroke-linejoin:round; stroke-width:4; stroke-opacity:1; fill:none" points="1266.86,1384.3 1266.86,1365.4 "/>
<polyline clip-path="url(#clip540)" style="stroke:#000000; stroke-linecap:round; stroke-linejoin:round; stroke-width:4; stroke-opacity:1; fill:none" points="1589.01,1384.3 1589.01,1365.4 "/>
<polyline clip-path="url(#clip540)" style="stroke:#000000; stroke-linecap:round; stroke-linejoin:round; stroke-width:4; stroke-opacity:1; fill:none" points="1911.16,1384.3 1911.16,1365.4 "/>
<polyline clip-path="url(#clip540)" style="stroke:#000000; stroke-linecap:round; stroke-linejoin:round; stroke-width:4; stroke-opacity:1; fill:none" points="2233.3,1384.3 2233.3,1365.4 "/>
<path clip-path="url(#clip540)" d="M220.035 1449.65 L271.967 1449.65 L271.967 1456.54 L220.035 1456.54 L220.035 1449.65 Z" fill="#000000" fill-rule="nonzero" fill-opacity="1" /><path clip-path="url(#clip540)" d="M312.112 1425.75 L291.452 1458.04 L312.112 1458.04 L312.112 1425.75 M309.965 1418.62 L320.254 1418.62 L320.254 1458.04 L328.883 1458.04 L328.883 1464.84 L320.254 1464.84 L320.254 1479.1 L312.112 1479.1 L312.112 1464.84 L284.809 1464.84 L284.809 1456.94 L309.965 1418.62 Z" fill="#000000" fill-rule="nonzero" fill-opacity="1" /><path clip-path="url(#clip540)" d="M359.913 1424.01 Q353.593 1424.01 350.393 1430.25 Q347.233 1436.44 347.233 1448.92 Q347.233 1461.36 350.393 1467.6 Q353.593 1473.79 359.913 1473.79 Q366.272 1473.79 369.432 1467.6 Q372.632 1461.36 372.632 1448.92 Q372.632 1436.44 369.432 1430.25 Q366.272 1424.01 359.913 1424.01 M359.913 1417.53 Q370.08 1417.53 375.428 1425.59 Q380.815 1433.61 380.815 1448.92 Q380.815 1464.19 375.428 1472.25 Q370.08 1480.27 359.913 1480.27 Q349.745 1480.27 344.357 1472.25 Q339.01 1464.19 339.01 1448.92 Q339.01 1433.61 344.357 1425.59 Q349.745 1417.53 359.913 1417.53 Z" fill="#000000" fill-rule="nonzero" fill-opacity="1" /><path clip-path="url(#clip540)" d="M542.181 1449.65 L594.114 1449.65 L594.114 1456.54 L542.181 1456.54 L542.181 1449.65 Z" fill="#000000" fill-rule="nonzero" fill-opacity="1" /><path clip-path="url(#clip540)" d="M636.567 1446.49 Q642.441 1447.75 645.722 1451.72 Q649.044 1455.69 649.044 1461.52 Q649.044 1470.47 642.887 1475.37 Q636.729 1480.27 625.387 1480.27 Q621.579 1480.27 617.528 1479.5 Q613.518 1478.78 609.224 1477.28 L609.224 1469.38 Q612.627 1471.36 616.677 1472.38 Q620.728 1473.39 625.144 1473.39 Q632.841 1473.39 636.851 1470.35 Q640.902 1467.31 640.902 1461.52 Q640.902 1456.17 637.135 1453.17 Q633.408 1450.14 626.724 1450.14 L619.675 1450.14 L619.675 1443.41 L627.048 1443.41 Q633.084 1443.41 636.284 1441.02 Q639.484 1438.59 639.484 1434.05 Q639.484 1429.4 636.162 1426.92 Q632.881 1424.41 626.724 1424.41 Q623.361 1424.41 619.513 1425.14 Q615.665 1425.87 611.047 1427.41 L611.047 1420.12 Q615.705 1418.82 619.756 1418.17 Q623.848 1417.53 627.453 1417.53 Q636.77 1417.53 642.198 1421.78 Q647.626 1425.99 647.626 1433.2 Q647.626 1438.23 644.75 1441.71 Q641.874 1445.15 636.567 1446.49 Z" fill="#000000" fill-rule="nonzero" fill-opacity="1" /><path clip-path="url(#clip540)" d="M682.059 1424.01 Q675.74 1424.01 672.539 1430.25 Q669.38 1436.44 669.38 1448.92 Q669.38 1461.36 672.539 1467.6 Q675.74 1473.79 682.059 1473.79 Q688.419 1473.79 691.579 1467.6 Q694.779 1461.36 694.779 1448.92 Q694.779 1436.44 691.579 1430.25 Q688.419 1424.01 682.059 1424.01 M682.059 1417.53 Q692.227 1417.53 697.574 1425.59 Q702.962 1433.61 702.962 1448.92 Q702.962 1464.19 697.574 1472.25 Q692.227 1480.27 682.059 1480.27 Q671.891 1480.27 666.504 1472.25 Q661.156 1464.19 661.156 1448.92 Q661.156 1433.61 666.504 1425.59 Q671.891 1417.53 682.059 1417.53 Z" fill="#000000" fill-rule="nonzero" fill-opacity="1" /><path clip-path="url(#clip540)" d="M864.328 1449.65 L916.26 1449.65 L916.26 1456.54 L864.328 1456.54 L864.328 1449.65 Z" fill="#000000" fill-rule="nonzero" fill-opacity="1" /><path clip-path="url(#clip540)" d="M940.971 1472.21 L969.53 1472.21 L969.53 1479.1 L931.127 1479.1 L931.127 1472.21 Q935.786 1467.39 943.807 1459.29 Q951.868 1451.15 953.934 1448.8 Q957.863 1444.38 959.403 1441.35 Q960.982 1438.27 960.982 1435.31 Q960.982 1430.49 957.58 1427.45 Q954.217 1424.41 948.789 1424.41 Q944.941 1424.41 940.647 1425.75 Q936.393 1427.09 931.532 1429.8 L931.532 1421.54 Q936.474 1419.55 940.768 1418.54 Q945.062 1417.53 948.627 1417.53 Q958.025 1417.53 963.615 1422.23 Q969.206 1426.92 969.206 1434.78 Q969.206 1438.51 967.788 1441.87 Q966.411 1445.19 962.724 1449.73 Q961.712 1450.91 956.283 1456.54 Q950.855 1462.13 940.971 1472.21 Z" fill="#000000" fill-rule="nonzero" fill-opacity="1" /><path clip-path="url(#clip540)" d="M1004.21 1424.01 Q997.886 1424.01 994.686 1430.25 Q991.526 1436.44 991.526 1448.92 Q991.526 1461.36 994.686 1467.6 Q997.886 1473.79 1004.21 1473.79 Q1010.57 1473.79 1013.73 1467.6 Q1016.93 1461.36 1016.93 1448.92 Q1016.93 1436.44 1013.73 1430.25 Q1010.57 1424.01 1004.21 1424.01 M1004.21 1417.53 Q1014.37 1417.53 1019.72 1425.59 Q1025.11 1433.61 1025.11 1448.92 Q1025.11 1464.19 1019.72 1472.25 Q1014.37 1480.27 1004.21 1480.27 Q994.038 1480.27 988.65 1472.25 Q983.303 1464.19 983.303 1448.92 Q983.303 1433.61 988.65 1425.59 Q994.038 1417.53 1004.21 1417.53 Z" fill="#000000" fill-rule="nonzero" fill-opacity="1" /><path clip-path="url(#clip540)" d="M1186.47 1449.65 L1238.41 1449.65 L1238.41 1456.54 L1186.47 1456.54 L1186.47 1449.65 Z" fill="#000000" fill-rule="nonzero" fill-opacity="1" /><path clip-path="url(#clip540)" d="M1257.49 1472.21 L1270.85 1472.21 L1270.85 1426.07 L1256.31 1428.99 L1256.31 1421.54 L1270.77 1418.62 L1278.96 1418.62 L1278.96 1472.21 L1292.32 1472.21 L1292.32 1479.1 L1257.49 1479.1 L1257.49 1472.21 Z" fill="#000000" fill-rule="nonzero" fill-opacity="1" /><path clip-path="url(#clip540)" d="M1326.35 1424.01 Q1320.03 1424.01 1316.83 1430.25 Q1313.67 1436.44 1313.67 1448.92 Q1313.67 1461.36 1316.83 1467.6 Q1320.03 1473.79 1326.35 1473.79 Q1332.71 1473.79 1335.87 1467.6 Q1339.07 1461.36 1339.07 1448.92 Q1339.07 1436.44 1335.87 1430.25 Q1332.71 1424.01 1326.35 1424.01 M1326.35 1417.53 Q1336.52 1417.53 1341.87 1425.59 Q1347.25 1433.61 1347.25 1448.92 Q1347.25 1464.19 1341.87 1472.25 Q1336.52 1480.27 1326.35 1480.27 Q1316.18 1480.27 1310.8 1472.25 Q1305.45 1464.19 1305.45 1448.92 Q1305.45 1433.61 1310.8 1425.59 Q1316.18 1417.53 1326.35 1417.53 Z" fill="#000000" fill-rule="nonzero" fill-opacity="1" /><path clip-path="url(#clip540)" d="M1589.01 1424.01 Q1582.69 1424.01 1579.49 1430.25 Q1576.33 1436.44 1576.33 1448.92 Q1576.33 1461.36 1579.49 1467.6 Q1582.69 1473.79 1589.01 1473.79 Q1595.37 1473.79 1598.53 1467.6 Q1601.73 1461.36 1601.73 1448.92 Q1601.73 1436.44 1598.53 1430.25 Q1595.37 1424.01 1589.01 1424.01 M1589.01 1417.53 Q1599.18 1417.53 1604.53 1425.59 Q1609.91 1433.61 1609.91 1448.92 Q1609.91 1464.19 1604.53 1472.25 Q1599.18 1480.27 1589.01 1480.27 Q1578.84 1480.27 1573.46 1472.25 Q1568.11 1464.19 1568.11 1448.92 Q1568.11 1433.61 1573.46 1425.59 Q1578.84 1417.53 1589.01 1417.53 Z" fill="#000000" fill-rule="nonzero" fill-opacity="1" /><path clip-path="url(#clip540)" d="M1866.86 1472.21 L1880.23 1472.21 L1880.23 1426.07 L1865.69 1428.99 L1865.69 1421.54 L1880.15 1418.62 L1888.33 1418.62 L1888.33 1472.21 L1901.7 1472.21 L1901.7 1479.1 L1866.86 1479.1 L1866.86 1472.21 Z" fill="#000000" fill-rule="nonzero" fill-opacity="1" /><path clip-path="url(#clip540)" d="M1935.73 1424.01 Q1929.41 1424.01 1926.21 1430.25 Q1923.05 1436.44 1923.05 1448.92 Q1923.05 1461.36 1926.21 1467.6 Q1929.41 1473.79 1935.73 1473.79 Q1942.09 1473.79 1945.25 1467.6 Q1948.45 1461.36 1948.45 1448.92 Q1948.45 1436.44 1945.25 1430.25 Q1942.09 1424.01 1935.73 1424.01 M1935.73 1417.53 Q1945.89 1417.53 1951.24 1425.59 Q1956.63 1433.61 1956.63 1448.92 Q1956.63 1464.19 1951.24 1472.25 Q1945.89 1480.27 1935.73 1480.27 Q1925.56 1480.27 1920.17 1472.25 Q1914.82 1464.19 1914.82 1448.92 Q1914.82 1433.61 1920.17 1425.59 Q1925.56 1417.53 1935.73 1417.53 Z" fill="#000000" fill-rule="nonzero" fill-opacity="1" /><path clip-path="url(#clip540)" d="M2196.16 1472.21 L2224.72 1472.21 L2224.72 1479.1 L2186.31 1479.1 L2186.31 1472.21 Q2190.97 1467.39 2198.99 1459.29 Q2207.05 1451.15 2209.12 1448.8 Q2213.05 1444.38 2214.59 1441.35 Q2216.17 1438.27 2216.17 1435.31 Q2216.17 1430.49 2212.77 1427.45 Q2209.4 1424.41 2203.98 1424.41 Q2200.13 1424.41 2195.83 1425.75 Q2191.58 1427.09 2186.72 1429.8 L2186.72 1421.54 Q2191.66 1419.55 2195.95 1418.54 Q2200.25 1417.53 2203.81 1417.53 Q2213.21 1417.53 2218.8 1422.23 Q2224.39 1426.92 2224.39 1434.78 Q2224.39 1438.51 2222.97 1441.87 Q2221.6 1445.19 2217.91 1449.73 Q2216.9 1450.91 2211.47 1456.54 Q2206.04 1462.13 2196.16 1472.21 Z" fill="#000000" fill-rule="nonzero" fill-opacity="1" /><path clip-path="url(#clip540)" d="M2259.39 1424.01 Q2253.07 1424.01 2249.87 1430.25 Q2246.71 1436.44 2246.71 1448.92 Q2246.71 1461.36 2249.87 1467.6 Q2253.07 1473.79 2259.39 1473.79 Q2265.75 1473.79 2268.91 1467.6 Q2272.11 1461.36 2272.11 1448.92 Q2272.11 1436.44 2268.91 1430.25 Q2265.75 1424.01 2259.39 1424.01 M2259.39 1417.53 Q2269.56 1417.53 2274.91 1425.59 Q2280.29 1433.61 2280.29 1448.92 Q2280.29 1464.19 2274.91 1472.25 Q2269.56 1480.27 2259.39 1480.27 Q2249.22 1480.27 2243.84 1472.25 Q2238.49 1464.19 2238.49 1448.92 Q2238.49 1433.61 2243.84 1425.59 Q2249.22 1417.53 2259.39 1417.53 Z" fill="#000000" fill-rule="nonzero" fill-opacity="1" /><path clip-path="url(#clip540)" d="M767.935 1555.24 Q770.568 1556.13 773.039 1559.05 Q775.551 1561.96 778.062 1567.07 L786.367 1583.6 L777.576 1583.6 L769.839 1568.08 Q766.841 1562 764.006 1560.02 Q761.21 1558.03 756.349 1558.03 L747.437 1558.03 L747.437 1583.6 L739.254 1583.6 L739.254 1523.12 L757.727 1523.12 Q768.097 1523.12 773.201 1527.45 Q778.305 1531.78 778.305 1540.53 Q778.305 1546.25 775.632 1550.01 Q772.999 1553.78 767.935 1555.24 M747.437 1529.84 L747.437 1551.31 L757.727 1551.31 Q763.641 1551.31 766.639 1548.6 Q769.677 1545.84 769.677 1540.53 Q769.677 1535.23 766.639 1532.55 Q763.641 1529.84 757.727 1529.84 L747.437 1529.84 Z" fill="#000000" fill-rule="nonzero" fill-opacity="1" /><path clip-path="url(#clip540)" d="M831.656 1559.05 L831.656 1562.69 L797.385 1562.69 Q797.871 1570.39 802.003 1574.44 Q806.175 1578.45 813.589 1578.45 Q817.883 1578.45 821.893 1577.4 Q825.944 1576.34 829.914 1574.24 L829.914 1581.29 Q825.903 1582.99 821.69 1583.88 Q817.477 1584.77 813.143 1584.77 Q802.287 1584.77 795.927 1578.45 Q789.607 1572.13 789.607 1561.36 Q789.607 1550.22 795.603 1543.69 Q801.638 1537.13 811.847 1537.13 Q821.002 1537.13 826.308 1543.05 Q831.656 1548.92 831.656 1559.05 M824.202 1556.86 Q824.121 1550.74 820.759 1547.1 Q817.437 1543.45 811.928 1543.45 Q805.689 1543.45 801.922 1546.98 Q798.195 1550.5 797.628 1556.9 L824.202 1556.86 Z" fill="#000000" fill-rule="nonzero" fill-opacity="1" /><path clip-path="url(#clip540)" d="M872.813 1539.56 L872.813 1546.61 Q869.653 1544.99 866.25 1544.18 Q862.848 1543.37 859.202 1543.37 Q853.652 1543.37 850.857 1545.07 Q848.102 1546.77 848.102 1550.18 Q848.102 1552.77 850.087 1554.27 Q852.072 1555.73 858.068 1557.06 L860.62 1557.63 Q868.559 1559.33 871.881 1562.45 Q875.243 1565.53 875.243 1571.08 Q875.243 1577.4 870.22 1581.08 Q865.238 1584.77 856.488 1584.77 Q852.842 1584.77 848.872 1584.04 Q844.943 1583.35 840.568 1581.93 L840.568 1574.24 Q844.7 1576.39 848.71 1577.48 Q852.72 1578.53 856.65 1578.53 Q861.916 1578.53 864.751 1576.75 Q867.587 1574.93 867.587 1571.65 Q867.587 1568.61 865.521 1566.99 Q863.496 1565.37 856.569 1563.87 L853.976 1563.26 Q847.049 1561.8 843.97 1558.8 Q840.892 1555.77 840.892 1550.5 Q840.892 1544.1 845.429 1540.62 Q849.966 1537.13 858.311 1537.13 Q862.442 1537.13 866.088 1537.74 Q869.734 1538.35 872.813 1539.56 Z" fill="#000000" fill-rule="nonzero" fill-opacity="1" /><path clip-path="url(#clip540)" d="M887.112 1538.23 L894.566 1538.23 L894.566 1583.6 L887.112 1583.6 L887.112 1538.23 M887.112 1520.56 L894.566 1520.56 L894.566 1530 L887.112 1530 L887.112 1520.56 Z" fill="#000000" fill-rule="nonzero" fill-opacity="1" /><path clip-path="url(#clip540)" d="M940.017 1545.11 L940.017 1520.56 L947.471 1520.56 L947.471 1583.6 L940.017 1583.6 L940.017 1576.79 Q937.668 1580.84 934.062 1582.83 Q930.498 1584.77 925.475 1584.77 Q917.251 1584.77 912.066 1578.21 Q906.921 1571.65 906.921 1560.95 Q906.921 1550.26 912.066 1543.69 Q917.251 1537.13 925.475 1537.13 Q930.498 1537.13 934.062 1539.12 Q937.668 1541.06 940.017 1545.11 M914.618 1560.95 Q914.618 1569.17 917.98 1573.87 Q921.383 1578.53 927.297 1578.53 Q933.212 1578.53 936.615 1573.87 Q940.017 1569.17 940.017 1560.95 Q940.017 1552.73 936.615 1548.07 Q933.212 1543.37 927.297 1543.37 Q921.383 1543.37 917.98 1548.07 Q914.618 1552.73 914.618 1560.95 Z" fill="#000000" fill-rule="nonzero" fill-opacity="1" /><path clip-path="url(#clip540)" d="M962.054 1565.69 L962.054 1538.23 L969.508 1538.23 L969.508 1565.41 Q969.508 1571.85 972.019 1575.09 Q974.531 1578.29 979.554 1578.29 Q985.59 1578.29 989.074 1574.44 Q992.598 1570.59 992.598 1563.95 L992.598 1538.23 L1000.05 1538.23 L1000.05 1583.6 L992.598 1583.6 L992.598 1576.63 Q989.884 1580.76 986.279 1582.79 Q982.714 1584.77 977.974 1584.77 Q970.156 1584.77 966.105 1579.91 Q962.054 1575.05 962.054 1565.69 M980.81 1537.13 L980.81 1537.13 Z" fill="#000000" fill-rule="nonzero" fill-opacity="1" /><path clip-path="url(#clip540)" d="M1036.02 1560.79 Q1026.99 1560.79 1023.51 1562.86 Q1020.02 1564.92 1020.02 1569.9 Q1020.02 1573.87 1022.62 1576.22 Q1025.25 1578.53 1029.74 1578.53 Q1035.94 1578.53 1039.67 1574.16 Q1043.44 1569.74 1043.44 1562.45 L1043.44 1560.79 L1036.02 1560.79 M1050.89 1557.71 L1050.89 1583.6 L1043.44 1583.6 L1043.44 1576.71 Q1040.88 1580.84 1037.08 1582.83 Q1033.27 1584.77 1027.76 1584.77 Q1020.79 1584.77 1016.66 1580.88 Q1012.57 1576.95 1012.57 1570.39 Q1012.57 1562.73 1017.67 1558.84 Q1022.82 1554.96 1032.99 1554.96 L1043.44 1554.96 L1043.44 1554.23 Q1043.44 1549.08 1040.03 1546.29 Q1036.67 1543.45 1030.56 1543.45 Q1026.67 1543.45 1022.98 1544.38 Q1019.29 1545.31 1015.89 1547.18 L1015.89 1540.29 Q1019.98 1538.71 1023.83 1537.94 Q1027.68 1537.13 1031.32 1537.13 Q1041.17 1537.13 1046.03 1542.24 Q1050.89 1547.34 1050.89 1557.71 Z" fill="#000000" fill-rule="nonzero" fill-opacity="1" /><path clip-path="url(#clip540)" d="M1066.24 1520.56 L1073.7 1520.56 L1073.7 1583.6 L1066.24 1583.6 L1066.24 1520.56 Z" fill="#000000" fill-rule="nonzero" fill-opacity="1" /><path clip-path="url(#clip540)" d="M1118.22 1539.56 L1118.22 1546.61 Q1115.06 1544.99 1111.65 1544.18 Q1108.25 1543.37 1104.61 1543.37 Q1099.06 1543.37 1096.26 1545.07 Q1093.51 1546.77 1093.51 1550.18 Q1093.51 1552.77 1095.49 1554.27 Q1097.48 1555.73 1103.47 1557.06 L1106.02 1557.63 Q1113.96 1559.33 1117.28 1562.45 Q1120.65 1565.53 1120.65 1571.08 Q1120.65 1577.4 1115.62 1581.08 Q1110.64 1584.77 1101.89 1584.77 Q1098.25 1584.77 1094.28 1584.04 Q1090.35 1583.35 1085.97 1581.93 L1085.97 1574.24 Q1090.1 1576.39 1094.11 1577.48 Q1098.12 1578.53 1102.05 1578.53 Q1107.32 1578.53 1110.16 1576.75 Q1112.99 1574.93 1112.99 1571.65 Q1112.99 1568.61 1110.92 1566.99 Q1108.9 1565.37 1101.97 1563.87 L1099.38 1563.26 Q1092.45 1561.8 1089.37 1558.8 Q1086.3 1555.77 1086.3 1550.5 Q1086.3 1544.1 1090.83 1540.62 Q1095.37 1537.13 1103.71 1537.13 Q1107.85 1537.13 1111.49 1537.74 Q1115.14 1538.35 1118.22 1539.56 Z" fill="#000000" fill-rule="nonzero" fill-opacity="1" /><path clip-path="url(#clip540)" d="M1181.86 1520.56 L1181.86 1526.76 L1174.73 1526.76 Q1170.72 1526.76 1169.14 1528.38 Q1167.6 1530 1167.6 1534.22 L1167.6 1538.23 L1179.87 1538.23 L1179.87 1544.02 L1167.6 1544.02 L1167.6 1583.6 L1160.1 1583.6 L1160.1 1544.02 L1152.97 1544.02 L1152.97 1538.23 L1160.1 1538.23 L1160.1 1535.07 Q1160.1 1527.49 1163.63 1524.05 Q1167.15 1520.56 1174.81 1520.56 L1181.86 1520.56 Z" fill="#000000" fill-rule="nonzero" fill-opacity="1" /><path clip-path="url(#clip540)" d="M1214.39 1545.19 Q1213.13 1544.46 1211.63 1544.14 Q1210.17 1543.78 1208.39 1543.78 Q1202.07 1543.78 1198.67 1547.91 Q1195.31 1552 1195.31 1559.7 L1195.31 1583.6 L1187.81 1583.6 L1187.81 1538.23 L1195.31 1538.23 L1195.31 1545.27 Q1197.65 1541.14 1201.42 1539.16 Q1205.19 1537.13 1210.58 1537.13 Q1211.35 1537.13 1212.28 1537.25 Q1213.21 1537.33 1214.34 1537.54 L1214.39 1545.19 Z" fill="#000000" fill-rule="nonzero" fill-opacity="1" /><path clip-path="url(#clip540)" d="M1237.96 1543.45 Q1231.97 1543.45 1228.48 1548.15 Q1225 1552.81 1225 1560.95 Q1225 1569.09 1228.44 1573.79 Q1231.93 1578.45 1237.96 1578.45 Q1243.92 1578.45 1247.4 1573.75 Q1250.88 1569.05 1250.88 1560.95 Q1250.88 1552.89 1247.4 1548.19 Q1243.92 1543.45 1237.96 1543.45 M1237.96 1537.13 Q1247.68 1537.13 1253.23 1543.45 Q1258.78 1549.77 1258.78 1560.95 Q1258.78 1572.09 1253.23 1578.45 Q1247.68 1584.77 1237.96 1584.77 Q1228.2 1584.77 1222.65 1578.45 Q1217.14 1572.09 1217.14 1560.95 Q1217.14 1549.77 1222.65 1543.45 Q1228.2 1537.13 1237.96 1537.13 Z" fill="#000000" fill-rule="nonzero" fill-opacity="1" /><path clip-path="url(#clip540)" d="M1306.46 1546.94 Q1309.26 1541.91 1313.15 1539.52 Q1317.03 1537.13 1322.3 1537.13 Q1329.39 1537.13 1333.24 1542.11 Q1337.09 1547.06 1337.09 1556.21 L1337.09 1583.6 L1329.59 1583.6 L1329.59 1556.45 Q1329.59 1549.93 1327.28 1546.77 Q1324.97 1543.61 1320.24 1543.61 Q1314.44 1543.61 1311.08 1547.46 Q1307.72 1551.31 1307.72 1557.95 L1307.72 1583.6 L1300.22 1583.6 L1300.22 1556.45 Q1300.22 1549.89 1297.91 1546.77 Q1295.61 1543.61 1290.79 1543.61 Q1285.07 1543.61 1281.71 1547.5 Q1278.35 1551.35 1278.35 1557.95 L1278.35 1583.6 L1270.85 1583.6 L1270.85 1538.23 L1278.35 1538.23 L1278.35 1545.27 Q1280.9 1541.1 1284.47 1539.12 Q1288.03 1537.13 1292.93 1537.13 Q1297.87 1537.13 1301.32 1539.64 Q1304.8 1542.16 1306.46 1546.94 Z" fill="#000000" fill-rule="nonzero" fill-opacity="1" /><path clip-path="url(#clip540)" d="M1378.65 1523.12 L1390.84 1523.12 L1406.28 1564.27 L1421.79 1523.12 L1433.98 1523.12 L1433.98 1583.6 L1426 1583.6 L1426 1530.49 L1410.41 1571.97 L1402.18 1571.97 L1386.59 1530.49 L1386.59 1583.6 L1378.65 1583.6 L1378.65 1523.12 Z" fill="#000000" fill-rule="nonzero" fill-opacity="1" /><path clip-path="url(#clip540)" d="M1470.44 1531.18 L1459.34 1561.28 L1481.58 1561.28 L1470.44 1531.18 M1465.82 1523.12 L1475.1 1523.12 L1498.15 1583.6 L1489.64 1583.6 L1484.13 1568.08 L1456.87 1568.08 L1451.36 1583.6 L1442.73 1583.6 L1465.82 1523.12 Z" fill="#000000" fill-rule="nonzero" fill-opacity="1" /><path clip-path="url(#clip540)" d="M1515.16 1529.84 L1515.16 1552.57 L1525.45 1552.57 Q1531.17 1552.57 1534.28 1549.61 Q1537.4 1546.65 1537.4 1541.18 Q1537.4 1535.75 1534.28 1532.8 Q1531.17 1529.84 1525.45 1529.84 L1515.16 1529.84 M1506.98 1523.12 L1525.45 1523.12 Q1535.62 1523.12 1540.81 1527.73 Q1546.03 1532.31 1546.03 1541.18 Q1546.03 1550.14 1540.81 1554.71 Q1535.62 1559.29 1525.45 1559.29 L1515.16 1559.29 L1515.16 1583.6 L1506.98 1583.6 L1506.98 1523.12 Z" fill="#000000" fill-rule="nonzero" fill-opacity="1" /><path clip-path="url(#clip540)" d="M1600.96 1520.64 Q1595.53 1529.96 1592.9 1539.08 Q1590.27 1548.19 1590.27 1557.55 Q1590.27 1566.91 1592.9 1576.1 Q1595.58 1585.26 1600.96 1594.53 L1594.48 1594.53 Q1588.41 1585.01 1585.37 1575.82 Q1582.37 1566.62 1582.37 1557.55 Q1582.37 1548.52 1585.37 1539.36 Q1588.36 1530.2 1594.48 1520.64 L1600.96 1520.64 Z" fill="#000000" fill-rule="nonzero" fill-opacity="1" /><path clip-path="url(#clip540)" d="M1650.75 1546.94 Q1653.54 1541.91 1657.43 1539.52 Q1661.32 1537.13 1666.59 1537.13 Q1673.68 1537.13 1677.52 1542.11 Q1681.37 1547.06 1681.37 1556.21 L1681.37 1583.6 L1673.88 1583.6 L1673.88 1556.45 Q1673.88 1549.93 1671.57 1546.77 Q1669.26 1543.61 1664.52 1543.61 Q1658.73 1543.61 1655.37 1547.46 Q1652 1551.31 1652 1557.95 L1652 1583.6 L1644.51 1583.6 L1644.51 1556.45 Q1644.51 1549.89 1642.2 1546.77 Q1639.89 1543.61 1635.07 1543.61 Q1629.36 1543.61 1626 1547.5 Q1622.64 1551.35 1622.64 1557.95 L1622.64 1583.6 L1615.14 1583.6 L1615.14 1538.23 L1622.64 1538.23 L1622.64 1545.27 Q1625.19 1541.1 1628.75 1539.12 Q1632.32 1537.13 1637.22 1537.13 Q1642.16 1537.13 1645.6 1539.64 Q1649.09 1542.16 1650.75 1546.94 Z" fill="#000000" fill-rule="nonzero" fill-opacity="1" /><path clip-path="url(#clip540)" d="M1731.56 1546.94 Q1734.36 1541.91 1738.25 1539.52 Q1742.14 1537.13 1747.4 1537.13 Q1754.49 1537.13 1758.34 1542.11 Q1762.19 1547.06 1762.19 1556.21 L1762.19 1583.6 L1754.69 1583.6 L1754.69 1556.45 Q1754.69 1549.93 1752.39 1546.77 Q1750.08 1543.61 1745.34 1543.61 Q1739.54 1543.61 1736.18 1547.46 Q1732.82 1551.31 1732.82 1557.95 L1732.82 1583.6 L1725.33 1583.6 L1725.33 1556.45 Q1725.33 1549.89 1723.02 1546.77 Q1720.71 1543.61 1715.89 1543.61 Q1710.18 1543.61 1706.81 1547.5 Q1703.45 1551.35 1703.45 1557.95 L1703.45 1583.6 L1695.96 1583.6 L1695.96 1538.23 L1703.45 1538.23 L1703.45 1545.27 Q1706 1541.1 1709.57 1539.12 Q1713.13 1537.13 1718.03 1537.13 Q1722.98 1537.13 1726.42 1539.64 Q1729.9 1542.16 1731.56 1546.94 Z" fill="#000000" fill-rule="nonzero" fill-opacity="1" /><path clip-path="url(#clip540)" d="M1775.88 1520.64 L1782.36 1520.64 Q1788.44 1530.2 1791.44 1539.36 Q1794.47 1548.52 1794.47 1557.55 Q1794.47 1566.62 1791.44 1575.82 Q1788.44 1585.01 1782.36 1594.53 L1775.88 1594.53 Q1781.27 1585.26 1783.9 1576.1 Q1786.58 1566.91 1786.58 1557.55 Q1786.58 1548.19 1783.9 1539.08 Q1781.27 1529.96 1775.88 1520.64 Z" fill="#000000" fill-rule="nonzero" fill-opacity="1" /><polyline clip-path="url(#clip542)" style="stroke:#000000; stroke-linecap:round; stroke-linejoin:round; stroke-width:2; stroke-opacity:0.1; fill:none" points="180.973,1346.46 2352.76,1346.46 "/>
<polyline clip-path="url(#clip542)" style="stroke:#000000; stroke-linecap:round; stroke-linejoin:round; stroke-width:2; stroke-opacity:0.1; fill:none" points="180.973,975.466 2352.76,975.466 "/>
<polyline clip-path="url(#clip542)" style="stroke:#000000; stroke-linecap:round; stroke-linejoin:round; stroke-width:2; stroke-opacity:0.1; fill:none" points="180.973,604.474 2352.76,604.474 "/>
<polyline clip-path="url(#clip542)" style="stroke:#000000; stroke-linecap:round; stroke-linejoin:round; stroke-width:2; stroke-opacity:0.1; fill:none" points="180.973,233.482 2352.76,233.482 "/>
<polyline clip-path="url(#clip540)" style="stroke:#000000; stroke-linecap:round; stroke-linejoin:round; stroke-width:4; stroke-opacity:1; fill:none" points="180.973,1384.3 180.973,47.2441 "/>
<polyline clip-path="url(#clip540)" style="stroke:#000000; stroke-linecap:round; stroke-linejoin:round; stroke-width:4; stroke-opacity:1; fill:none" points="180.973,1346.46 199.871,1346.46 "/>
<polyline clip-path="url(#clip540)" style="stroke:#000000; stroke-linecap:round; stroke-linejoin:round; stroke-width:4; stroke-opacity:1; fill:none" points="180.973,975.466 199.871,975.466 "/>
<polyline clip-path="url(#clip540)" style="stroke:#000000; stroke-linecap:round; stroke-linejoin:round; stroke-width:4; stroke-opacity:1; fill:none" points="180.973,604.474 199.871,604.474 "/>
<polyline clip-path="url(#clip540)" style="stroke:#000000; stroke-linecap:round; stroke-linejoin:round; stroke-width:4; stroke-opacity:1; fill:none" points="180.973,233.482 199.871,233.482 "/>
<path clip-path="url(#clip540)" d="M124.07 1321.61 Q117.751 1321.61 114.551 1327.84 Q111.391 1334.04 111.391 1346.52 Q111.391 1358.96 114.551 1365.19 Q117.751 1371.39 124.07 1371.39 Q130.43 1371.39 133.59 1365.19 Q136.79 1358.96 136.79 1346.52 Q136.79 1334.04 133.59 1327.84 Q130.43 1321.61 124.07 1321.61 M124.07 1315.12 Q134.238 1315.12 139.585 1323.19 Q144.973 1331.21 144.973 1346.52 Q144.973 1361.79 139.585 1369.85 Q134.238 1377.87 124.07 1377.87 Q113.903 1377.87 108.515 1369.85 Q103.168 1361.79 103.168 1346.52 Q103.168 1331.21 108.515 1323.19 Q113.903 1315.12 124.07 1315.12 Z" fill="#000000" fill-rule="nonzero" fill-opacity="1" /><path clip-path="url(#clip540)" d="M55.2051 998.82 L68.5731 998.82 L68.5731 952.68 L54.0303 955.597 L54.0303 948.143 L68.492 945.226 L76.6749 945.226 L76.6749 998.82 L90.0428 998.82 L90.0428 1005.71 L55.2051 1005.71 L55.2051 998.82 Z" fill="#000000" fill-rule="nonzero" fill-opacity="1" /><path clip-path="url(#clip540)" d="M124.07 950.614 Q117.751 950.614 114.551 956.853 Q111.391 963.05 111.391 975.527 Q111.391 987.964 114.551 994.202 Q117.751 1000.4 124.07 1000.4 Q130.43 1000.4 133.59 994.202 Q136.79 987.964 136.79 975.527 Q136.79 963.05 133.59 956.853 Q130.43 950.614 124.07 950.614 M124.07 944.133 Q134.238 944.133 139.585 952.194 Q144.973 960.215 144.973 975.527 Q144.973 990.799 139.585 998.86 Q134.238 1006.88 124.07 1006.88 Q113.903 1006.88 108.515 998.86 Q103.168 990.799 103.168 975.527 Q103.168 960.215 108.515 952.194 Q113.903 944.133 124.07 944.133 Z" fill="#000000" fill-rule="nonzero" fill-opacity="1" /><path clip-path="url(#clip540)" d="M60.8358 627.828 L89.3947 627.828 L89.3947 634.714 L50.9921 634.714 L50.9921 627.828 Q55.6507 623.007 63.6715 614.905 Q71.7328 606.763 73.7987 604.414 Q77.7281 599.998 79.2674 596.96 Q80.8473 593.881 80.8473 590.924 Q80.8473 586.103 77.4445 583.065 Q74.0823 580.027 68.6541 580.027 Q64.8057 580.027 60.5118 581.364 Q56.2583 582.701 51.3972 585.415 L51.3972 577.151 Q56.3393 575.166 60.6333 574.153 Q64.9272 573.141 68.492 573.141 Q77.8901 573.141 83.4804 577.84 Q89.0706 582.539 89.0706 590.397 Q89.0706 594.124 87.6528 597.487 Q86.2755 600.808 82.5892 605.345 Q81.5765 606.52 76.1482 612.151 Q70.72 617.741 60.8358 627.828 Z" fill="#000000" fill-rule="nonzero" fill-opacity="1" /><path clip-path="url(#clip540)" d="M124.07 579.622 Q117.751 579.622 114.551 585.86 Q111.391 592.058 111.391 604.535 Q111.391 616.971 114.551 623.21 Q117.751 629.408 124.07 629.408 Q130.43 629.408 133.59 623.21 Q136.79 616.971 136.79 604.535 Q136.79 592.058 133.59 585.86 Q130.43 579.622 124.07 579.622 M124.07 573.141 Q134.238 573.141 139.585 581.202 Q144.973 589.223 144.973 604.535 Q144.973 619.807 139.585 627.868 Q134.238 635.889 124.07 635.889 Q113.903 635.889 108.515 627.868 Q103.168 619.807 103.168 604.535 Q103.168 589.223 108.515 581.202 Q113.903 573.141 124.07 573.141 Z" fill="#000000" fill-rule="nonzero" fill-opacity="1" /><path clip-path="url(#clip540)" d="M78.5788 231.112 Q84.4526 232.368 87.7338 236.338 Q91.0556 240.308 91.0556 246.141 Q91.0556 255.094 84.8982 259.995 Q78.7408 264.897 67.3983 264.897 Q63.5904 264.897 59.5395 264.127 Q55.5291 263.398 51.2352 261.899 L51.2352 254 Q54.6379 255.985 58.6888 256.998 Q62.7397 258.01 67.1552 258.01 Q74.852 258.01 78.8623 254.972 Q82.9133 251.934 82.9133 246.141 Q82.9133 240.794 79.1459 237.796 Q75.4191 234.758 68.7351 234.758 L61.6865 234.758 L61.6865 228.034 L69.0592 228.034 Q75.095 228.034 78.2952 225.644 Q81.4954 223.213 81.4954 218.676 Q81.4954 214.018 78.1737 211.547 Q74.8925 209.035 68.7351 209.035 Q65.3728 209.035 61.5245 209.764 Q57.6761 210.493 53.0581 212.033 L53.0581 204.741 Q57.7166 203.445 61.7675 202.797 Q65.8589 202.148 69.4642 202.148 Q78.7813 202.148 84.2095 206.402 Q89.6378 210.615 89.6378 217.825 Q89.6378 222.849 86.7616 226.332 Q83.8855 229.776 78.5788 231.112 Z" fill="#000000" fill-rule="nonzero" fill-opacity="1" /><path clip-path="url(#clip540)" d="M124.07 208.63 Q117.751 208.63 114.551 214.868 Q111.391 221.066 111.391 233.543 Q111.391 245.979 114.551 252.218 Q117.751 258.415 124.07 258.415 Q130.43 258.415 133.59 252.218 Q136.79 245.979 136.79 233.543 Q136.79 221.066 133.59 214.868 Q130.43 208.63 124.07 208.63 M124.07 202.148 Q134.238 202.148 139.585 210.21 Q144.973 218.231 144.973 233.543 Q144.973 248.815 139.585 256.876 Q134.238 264.897 124.07 264.897 Q113.903 264.897 108.515 256.876 Q103.168 248.815 103.168 233.543 Q103.168 218.231 108.515 210.21 Q113.903 202.148 124.07 202.148 Z" fill="#000000" fill-rule="nonzero" fill-opacity="1" /><path clip-path="url(#clip542)" d="M300.425 1309.36 L300.425 1346.46 L461.498 1346.46 L461.498 1309.36 L300.425 1309.36 L300.425 1309.36  Z" fill="#009af9" fill-rule="evenodd" fill-opacity="1"/>
<polyline clip-path="url(#clip542)" style="stroke:#000000; stroke-linecap:round; stroke-linejoin:round; stroke-width:4; stroke-opacity:1; fill:none" points="300.425,1309.36 300.425,1346.46 461.498,1346.46 461.498,1309.36 300.425,1309.36 "/>
<path clip-path="url(#clip542)" d="M461.498 1272.26 L461.498 1346.46 L622.572 1346.46 L622.572 1272.26 L461.498 1272.26 L461.498 1272.26  Z" fill="#009af9" fill-rule="evenodd" fill-opacity="1"/>
<polyline clip-path="url(#clip542)" style="stroke:#000000; stroke-linecap:round; stroke-linejoin:round; stroke-width:4; stroke-opacity:1; fill:none" points="461.498,1272.26 461.498,1346.46 622.572,1346.46 622.572,1272.26 461.498,1272.26 "/>
<path clip-path="url(#clip542)" d="M622.572 1309.36 L622.572 1346.46 L783.645 1346.46 L783.645 1309.36 L622.572 1309.36 L622.572 1309.36  Z" fill="#009af9" fill-rule="evenodd" fill-opacity="1"/>
<polyline clip-path="url(#clip542)" style="stroke:#000000; stroke-linecap:round; stroke-linejoin:round; stroke-width:4; stroke-opacity:1; fill:none" points="622.572,1309.36 622.572,1346.46 783.645,1346.46 783.645,1309.36 622.572,1309.36 "/>
<path clip-path="url(#clip542)" d="M783.645 1235.16 L783.645 1346.46 L944.718 1346.46 L944.718 1235.16 L783.645 1235.16 L783.645 1235.16  Z" fill="#009af9" fill-rule="evenodd" fill-opacity="1"/>
<polyline clip-path="url(#clip542)" style="stroke:#000000; stroke-linecap:round; stroke-linejoin:round; stroke-width:4; stroke-opacity:1; fill:none" points="783.645,1235.16 783.645,1346.46 944.718,1346.46 944.718,1235.16 783.645,1235.16 "/>
<path clip-path="url(#clip542)" d="M944.718 1160.96 L944.718 1346.46 L1105.79 1346.46 L1105.79 1160.96 L944.718 1160.96 L944.718 1160.96  Z" fill="#009af9" fill-rule="evenodd" fill-opacity="1"/>
<polyline clip-path="url(#clip542)" style="stroke:#000000; stroke-linecap:round; stroke-linejoin:round; stroke-width:4; stroke-opacity:1; fill:none" points="944.718,1160.96 944.718,1346.46 1105.79,1346.46 1105.79,1160.96 944.718,1160.96 "/>
<path clip-path="url(#clip542)" d="M1105.79 938.367 L1105.79 1346.46 L1266.86 1346.46 L1266.86 938.367 L1105.79 938.367 L1105.79 938.367  Z" fill="#009af9" fill-rule="evenodd" fill-opacity="1"/>
<polyline clip-path="url(#clip542)" style="stroke:#000000; stroke-linecap:round; stroke-linejoin:round; stroke-width:4; stroke-opacity:1; fill:none" points="1105.79,938.367 1105.79,1346.46 1266.86,1346.46 1266.86,938.367 1105.79,938.367 "/>
<path clip-path="url(#clip542)" d="M1266.86 789.97 L1266.86 1346.46 L1427.94 1346.46 L1427.94 789.97 L1266.86 789.97 L1266.86 789.97  Z" fill="#009af9" fill-rule="evenodd" fill-opacity="1"/>
<polyline clip-path="url(#clip542)" style="stroke:#000000; stroke-linecap:round; stroke-linejoin:round; stroke-width:4; stroke-opacity:1; fill:none" points="1266.86,789.97 1266.86,1346.46 1427.94,1346.46 1427.94,789.97 1266.86,789.97 "/>
<path clip-path="url(#clip542)" d="M1427.94 752.871 L1427.94 1346.46 L1589.01 1346.46 L1589.01 752.871 L1427.94 752.871 L1427.94 752.871  Z" fill="#009af9" fill-rule="evenodd" fill-opacity="1"/>
<polyline clip-path="url(#clip542)" style="stroke:#000000; stroke-linecap:round; stroke-linejoin:round; stroke-width:4; stroke-opacity:1; fill:none" points="1427.94,752.871 1427.94,1346.46 1589.01,1346.46 1589.01,752.871 1427.94,752.871 "/>
<path clip-path="url(#clip542)" d="M1589.01 85.0853 L1589.01 1346.46 L1750.08 1346.46 L1750.08 85.0853 L1589.01 85.0853 L1589.01 85.0853  Z" fill="#009af9" fill-rule="evenodd" fill-opacity="1"/>
<polyline clip-path="url(#clip542)" style="stroke:#000000; stroke-linecap:round; stroke-linejoin:round; stroke-width:4; stroke-opacity:1; fill:none" points="1589.01,85.0853 1589.01,1346.46 1750.08,1346.46 1750.08,85.0853 1589.01,85.0853 "/>
<path clip-path="url(#clip542)" d="M1750.08 493.177 L1750.08 1346.46 L1911.16 1346.46 L1911.16 493.177 L1750.08 493.177 L1750.08 493.177  Z" fill="#009af9" fill-rule="evenodd" fill-opacity="1"/>
<polyline clip-path="url(#clip542)" style="stroke:#000000; stroke-linecap:round; stroke-linejoin:round; stroke-width:4; stroke-opacity:1; fill:none" points="1750.08,493.177 1750.08,1346.46 1911.16,1346.46 1911.16,493.177 1750.08,493.177 "/>
<path clip-path="url(#clip542)" d="M1911.16 789.97 L1911.16 1346.46 L2072.23 1346.46 L2072.23 789.97 L1911.16 789.97 L1911.16 789.97  Z" fill="#009af9" fill-rule="evenodd" fill-opacity="1"/>
<polyline clip-path="url(#clip542)" style="stroke:#000000; stroke-linecap:round; stroke-linejoin:round; stroke-width:4; stroke-opacity:1; fill:none" points="1911.16,789.97 1911.16,1346.46 2072.23,1346.46 2072.23,789.97 1911.16,789.97 "/>
<path clip-path="url(#clip542)" d="M2072.23 1049.66 L2072.23 1346.46 L2233.3 1346.46 L2233.3 1049.66 L2072.23 1049.66 L2072.23 1049.66  Z" fill="#009af9" fill-rule="evenodd" fill-opacity="1"/>
<polyline clip-path="url(#clip542)" style="stroke:#000000; stroke-linecap:round; stroke-linejoin:round; stroke-width:4; stroke-opacity:1; fill:none" points="2072.23,1049.66 2072.23,1346.46 2233.3,1346.46 2233.3,1049.66 2072.23,1049.66 "/>
<circle clip-path="url(#clip542)" style="fill:#009af9; stroke:none; fill-opacity:0" cx="380.962" cy="1309.36" r="2"/>
<circle clip-path="url(#clip542)" style="fill:#009af9; stroke:none; fill-opacity:0" cx="542.035" cy="1272.26" r="2"/>
<circle clip-path="url(#clip542)" style="fill:#009af9; stroke:none; fill-opacity:0" cx="703.108" cy="1309.36" r="2"/>
<circle clip-path="url(#clip542)" style="fill:#009af9; stroke:none; fill-opacity:0" cx="864.181" cy="1235.16" r="2"/>
<circle clip-path="url(#clip542)" style="fill:#009af9; stroke:none; fill-opacity:0" cx="1025.25" cy="1160.96" r="2"/>
<circle clip-path="url(#clip542)" style="fill:#009af9; stroke:none; fill-opacity:0" cx="1186.33" cy="938.367" r="2"/>
<circle clip-path="url(#clip542)" style="fill:#009af9; stroke:none; fill-opacity:0" cx="1347.4" cy="789.97" r="2"/>
<circle clip-path="url(#clip542)" style="fill:#009af9; stroke:none; fill-opacity:0" cx="1508.47" cy="752.871" r="2"/>
<circle clip-path="url(#clip542)" style="fill:#009af9; stroke:none; fill-opacity:0" cx="1669.55" cy="85.0853" r="2"/>
<circle clip-path="url(#clip542)" style="fill:#009af9; stroke:none; fill-opacity:0" cx="1830.62" cy="493.177" r="2"/>
<circle clip-path="url(#clip542)" style="fill:#009af9; stroke:none; fill-opacity:0" cx="1991.69" cy="789.97" r="2"/>
<circle clip-path="url(#clip542)" style="fill:#009af9; stroke:none; fill-opacity:0" cx="2152.77" cy="1049.66" r="2"/>
</svg>
