<?xml version="1.0" encoding="utf-8"?>
<svg xmlns="http://www.w3.org/2000/svg" xmlns:xlink="http://www.w3.org/1999/xlink" width="600" height="400" viewBox="0 0 2400 1600">
<defs>
  <clipPath id="clip580">
    <rect x="0" y="0" width="2400" height="1600"/>
  </clipPath>
</defs>
<path clip-path="url(#clip580)" d="M0 1600 L2400 1600 L2400 0 L0 0  Z" fill="#ffffff" fill-rule="evenodd" fill-opacity="1"/>
<defs>
  <clipPath id="clip581">
    <rect x="480" y="0" width="1681" height="1600"/>
  </clipPath>
</defs>
<path clip-path="url(#clip580)" d="M376.784 1384.3 L2352.76 1384.3 L2352.76 47.2441 L376.784 47.2441  Z" fill="#ffffff" fill-rule="evenodd" fill-opacity="1"/>
<defs>
  <clipPath id="clip582">
    <rect x="376" y="47" width="1977" height="1338"/>
  </clipPath>
</defs>
<polyline clip-path="url(#clip580)" style="stroke:#000000; stroke-linecap:round; stroke-linejoin:round; stroke-width:4; stroke-opacity:1; fill:none" points="376.784,1384.3 2352.76,1384.3 "/>
<polyline clip-path="url(#clip580)" style="stroke:#000000; stroke-linecap:round; stroke-linejoin:round; stroke-width:4; stroke-opacity:1; fill:none" points="713.027,1384.3 713.027,1365.4 "/>
<polyline clip-path="url(#clip580)" style="stroke:#000000; stroke-linecap:round; stroke-linejoin:round; stroke-width:4; stroke-opacity:1; fill:none" points="1063.43,1384.3 1063.43,1365.4 "/>
<polyline clip-path="url(#clip580)" style="stroke:#000000; stroke-linecap:round; stroke-linejoin:round; stroke-width:4; stroke-opacity:1; fill:none" points="1413.83,1384.3 1413.83,1365.4 "/>
<polyline clip-path="url(#clip580)" style="stroke:#000000; stroke-linecap:round; stroke-linejoin:round; stroke-width:4; stroke-opacity:1; fill:none" points="1764.23,1384.3 1764.23,1365.4 "/>
<polyline clip-path="url(#clip580)" style="stroke:#000000; stroke-linecap:round; stroke-linejoin:round; stroke-width:4; stroke-opacity:1; fill:none" points="2114.62,1384.3 2114.62,1365.4 "/>
<path clip-path="url(#clip580)" d="M615.947 1472.21 L629.315 1472.21 L629.315 1426.07 L614.772 1428.99 L614.772 1421.54 L629.234 1418.62 L637.417 1418.62 L637.417 1472.21 L650.785 1472.21 L650.785 1479.1 L615.947 1479.1 L615.947 1472.21 Z" fill="#000000" fill-rule="nonzero" fill-opacity="1" /><path clip-path="url(#clip580)" d="M667.556 1477.84 L667.556 1470.39 Q670.634 1471.85 673.794 1472.62 Q676.954 1473.39 679.992 1473.39 Q688.094 1473.39 692.347 1467.96 Q696.641 1462.49 697.249 1451.39 Q694.899 1454.88 691.294 1456.74 Q687.689 1458.6 683.314 1458.6 Q674.24 1458.6 668.933 1453.13 Q663.667 1447.62 663.667 1438.1 Q663.667 1428.79 669.176 1423.16 Q674.685 1417.53 683.84 1417.53 Q694.332 1417.53 699.841 1425.59 Q705.391 1433.61 705.391 1448.92 Q705.391 1463.22 698.586 1471.77 Q691.821 1480.27 680.357 1480.27 Q677.278 1480.27 674.118 1479.67 Q670.958 1479.06 667.556 1477.84 M683.84 1452.2 Q689.35 1452.2 692.55 1448.43 Q695.79 1444.67 695.79 1438.1 Q695.79 1431.58 692.55 1427.82 Q689.35 1424.01 683.84 1424.01 Q678.331 1424.01 675.09 1427.82 Q671.89 1431.58 671.89 1438.1 Q671.89 1444.67 675.09 1448.43 Q678.331 1452.2 683.84 1452.2 Z" fill="#000000" fill-rule="nonzero" fill-opacity="1" /><path clip-path="url(#clip580)" d="M737.596 1424.01 Q731.276 1424.01 728.076 1430.25 Q724.916 1436.44 724.916 1448.92 Q724.916 1461.36 728.076 1467.6 Q731.276 1473.79 737.596 1473.79 Q743.956 1473.79 747.115 1467.6 Q750.316 1461.36 750.316 1448.92 Q750.316 1436.44 747.115 1430.25 Q743.956 1424.01 737.596 1424.01 M737.596 1417.53 Q747.764 1417.53 753.111 1425.59 Q758.498 1433.61 758.498 1448.92 Q758.498 1464.19 753.111 1472.25 Q747.764 1480.27 737.596 1480.27 Q727.428 1480.27 722.04 1472.25 Q716.693 1464.19 716.693 1448.92 Q716.693 1433.61 722.04 1425.59 Q727.428 1417.53 737.596 1417.53 Z" fill="#000000" fill-rule="nonzero" fill-opacity="1" /><path clip-path="url(#clip580)" d="M790.379 1424.01 Q784.06 1424.01 780.859 1430.25 Q777.7 1436.44 777.7 1448.92 Q777.7 1461.36 780.859 1467.6 Q784.06 1473.79 790.379 1473.79 Q796.739 1473.79 799.899 1467.6 Q803.099 1461.36 803.099 1448.92 Q803.099 1436.44 799.899 1430.25 Q796.739 1424.01 790.379 1424.01 M790.379 1417.53 Q800.547 1417.53 805.894 1425.59 Q811.282 1433.61 811.282 1448.92 Q811.282 1464.19 805.894 1472.25 Q800.547 1480.27 790.379 1480.27 Q780.211 1480.27 774.824 1472.25 Q769.476 1464.19 769.476 1448.92 Q769.476 1433.61 774.824 1425.59 Q780.211 1417.53 790.379 1417.53 Z" fill="#000000" fill-rule="nonzero" fill-opacity="1" /><path clip-path="url(#clip580)" d="M967.217 1472.21 L980.585 1472.21 L980.585 1426.07 L966.043 1428.99 L966.043 1421.54 L980.504 1418.62 L988.687 1418.62 L988.687 1472.21 L1002.06 1472.21 L1002.06 1479.1 L967.217 1479.1 L967.217 1472.21 Z" fill="#000000" fill-rule="nonzero" fill-opacity="1" /><path clip-path="url(#clip580)" d="M1018.83 1477.84 L1018.83 1470.39 Q1021.9 1471.85 1025.06 1472.62 Q1028.22 1473.39 1031.26 1473.39 Q1039.36 1473.39 1043.62 1467.96 Q1047.91 1462.49 1048.52 1451.39 Q1046.17 1454.88 1042.56 1456.74 Q1038.96 1458.6 1034.58 1458.6 Q1025.51 1458.6 1020.2 1453.13 Q1014.94 1447.62 1014.94 1438.1 Q1014.94 1428.79 1020.45 1423.16 Q1025.96 1417.53 1035.11 1417.53 Q1045.6 1417.53 1051.11 1425.59 Q1056.66 1433.61 1056.66 1448.92 Q1056.66 1463.22 1049.86 1471.77 Q1043.09 1480.27 1031.63 1480.27 Q1028.55 1480.27 1025.39 1479.67 Q1022.23 1479.06 1018.83 1477.84 M1035.11 1452.2 Q1040.62 1452.2 1043.82 1448.43 Q1047.06 1444.67 1047.06 1438.1 Q1047.06 1431.58 1043.82 1427.82 Q1040.62 1424.01 1035.11 1424.01 Q1029.6 1424.01 1026.36 1427.82 Q1023.16 1431.58 1023.16 1438.1 Q1023.16 1444.67 1026.36 1448.43 Q1029.6 1452.2 1035.11 1452.2 Z" fill="#000000" fill-rule="nonzero" fill-opacity="1" /><path clip-path="url(#clip580)" d="M1078.41 1472.21 L1106.97 1472.21 L1106.97 1479.1 L1068.57 1479.1 L1068.57 1472.21 Q1073.23 1467.39 1081.25 1459.29 Q1089.31 1451.15 1091.38 1448.8 Q1095.31 1444.38 1096.85 1441.35 Q1098.43 1438.27 1098.43 1435.31 Q1098.43 1430.49 1095.02 1427.45 Q1091.66 1424.41 1086.23 1424.41 Q1082.38 1424.41 1078.09 1425.75 Q1073.84 1427.09 1068.98 1429.8 L1068.98 1421.54 Q1073.92 1419.55 1078.21 1418.54 Q1082.51 1417.53 1086.07 1417.53 Q1095.47 1417.53 1101.06 1422.23 Q1106.65 1426.92 1106.65 1434.78 Q1106.65 1438.51 1105.23 1441.87 Q1103.85 1445.19 1100.17 1449.73 Q1099.16 1450.91 1093.73 1456.54 Q1088.3 1462.13 1078.41 1472.21 Z" fill="#000000" fill-rule="nonzero" fill-opacity="1" /><path clip-path="url(#clip580)" d="M1124.23 1418.62 L1156.35 1418.62 L1156.35 1425.51 L1131.72 1425.51 L1131.72 1440.33 Q1133.51 1439.73 1135.29 1439.44 Q1137.07 1439.12 1138.85 1439.12 Q1148.98 1439.12 1154.9 1444.67 Q1160.81 1450.22 1160.81 1459.7 Q1160.81 1469.46 1154.73 1474.89 Q1148.66 1480.27 1137.6 1480.27 Q1133.79 1480.27 1129.82 1479.63 Q1125.89 1478.98 1121.68 1477.68 L1121.68 1469.46 Q1125.32 1471.44 1129.21 1472.42 Q1133.1 1473.39 1137.44 1473.39 Q1144.44 1473.39 1148.54 1469.7 Q1152.63 1466.02 1152.63 1459.7 Q1152.63 1453.38 1148.54 1449.69 Q1144.44 1446 1137.44 1446 Q1134.16 1446 1130.87 1446.73 Q1127.63 1447.46 1124.23 1449 L1124.23 1418.62 Z" fill="#000000" fill-rule="nonzero" fill-opacity="1" /><path clip-path="url(#clip580)" d="M1316.75 1472.21 L1330.11 1472.21 L1330.11 1426.07 L1315.57 1428.99 L1315.57 1421.54 L1330.03 1418.62 L1338.22 1418.62 L1338.22 1472.21 L1351.58 1472.21 L1351.58 1479.1 L1316.75 1479.1 L1316.75 1472.21 Z" fill="#000000" fill-rule="nonzero" fill-opacity="1" /><path clip-path="url(#clip580)" d="M1368.35 1477.84 L1368.35 1470.39 Q1371.43 1471.85 1374.59 1472.62 Q1377.75 1473.39 1380.79 1473.39 Q1388.89 1473.39 1393.15 1467.96 Q1397.44 1462.49 1398.05 1451.39 Q1395.7 1454.88 1392.09 1456.74 Q1388.49 1458.6 1384.11 1458.6 Q1375.04 1458.6 1369.73 1453.13 Q1364.47 1447.62 1364.47 1438.1 Q1364.47 1428.79 1369.97 1423.16 Q1375.48 1417.53 1384.64 1417.53 Q1395.13 1417.53 1400.64 1425.59 Q1406.19 1433.61 1406.19 1448.92 Q1406.19 1463.22 1399.38 1471.77 Q1392.62 1480.27 1381.16 1480.27 Q1378.08 1480.27 1374.92 1479.67 Q1371.76 1479.06 1368.35 1477.84 M1384.64 1452.2 Q1390.15 1452.2 1393.35 1448.43 Q1396.59 1444.67 1396.59 1438.1 Q1396.59 1431.58 1393.35 1427.82 Q1390.15 1424.01 1384.64 1424.01 Q1379.13 1424.01 1375.89 1427.82 Q1372.69 1431.58 1372.69 1438.1 Q1372.69 1444.67 1375.89 1448.43 Q1379.13 1452.2 1384.64 1452.2 Z" fill="#000000" fill-rule="nonzero" fill-opacity="1" /><path clip-path="url(#clip580)" d="M1420.98 1418.62 L1453.1 1418.62 L1453.1 1425.51 L1428.47 1425.51 L1428.47 1440.33 Q1430.25 1439.73 1432.03 1439.44 Q1433.82 1439.12 1435.6 1439.12 Q1445.73 1439.12 1451.64 1444.67 Q1457.56 1450.22 1457.56 1459.7 Q1457.56 1469.46 1451.48 1474.89 Q1445.4 1480.27 1434.34 1480.27 Q1430.54 1480.27 1426.57 1479.63 Q1422.64 1478.98 1418.42 1477.68 L1418.42 1469.46 Q1422.07 1471.44 1425.96 1472.42 Q1429.85 1473.39 1434.18 1473.39 Q1441.19 1473.39 1445.28 1469.7 Q1449.37 1466.02 1449.37 1459.7 Q1449.37 1453.38 1445.28 1449.69 Q1441.19 1446 1434.18 1446 Q1430.9 1446 1427.62 1446.73 Q1424.38 1447.46 1420.98 1449 L1420.98 1418.62 Z" fill="#000000" fill-rule="nonzero" fill-opacity="1" /><path clip-path="url(#clip580)" d="M1491.18 1424.01 Q1484.86 1424.01 1481.66 1430.25 Q1478.5 1436.44 1478.5 1448.92 Q1478.5 1461.36 1481.66 1467.6 Q1484.86 1473.79 1491.18 1473.79 Q1497.54 1473.79 1500.7 1467.6 Q1503.9 1461.36 1503.9 1448.92 Q1503.9 1436.44 1500.7 1430.25 Q1497.54 1424.01 1491.18 1424.01 M1491.18 1417.53 Q1501.35 1417.53 1506.69 1425.59 Q1512.08 1433.61 1512.08 1448.92 Q1512.08 1464.19 1506.69 1472.25 Q1501.35 1480.27 1491.18 1480.27 Q1481.01 1480.27 1475.62 1472.25 Q1470.28 1464.19 1470.28 1448.92 Q1470.28 1433.61 1475.62 1425.59 Q1481.01 1417.53 1491.18 1417.53 Z" fill="#000000" fill-rule="nonzero" fill-opacity="1" /><path clip-path="url(#clip580)" d="M1668.02 1472.21 L1681.38 1472.21 L1681.38 1426.07 L1666.84 1428.99 L1666.84 1421.54 L1681.3 1418.62 L1689.49 1418.62 L1689.49 1472.21 L1702.85 1472.21 L1702.85 1479.1 L1668.02 1479.1 L1668.02 1472.21 Z" fill="#000000" fill-rule="nonzero" fill-opacity="1" /><path clip-path="url(#clip580)" d="M1719.62 1477.84 L1719.62 1470.39 Q1722.7 1471.85 1725.86 1472.62 Q1729.02 1473.39 1732.06 1473.39 Q1740.16 1473.39 1744.42 1467.96 Q1748.71 1462.49 1749.32 1451.39 Q1746.97 1454.88 1743.36 1456.74 Q1739.76 1458.6 1735.38 1458.6 Q1726.31 1458.6 1721 1453.13 Q1715.74 1447.62 1715.74 1438.1 Q1715.74 1428.79 1721.25 1423.16 Q1726.75 1417.53 1735.91 1417.53 Q1746.4 1417.53 1751.91 1425.59 Q1757.46 1433.61 1757.46 1448.92 Q1757.46 1463.22 1750.65 1471.77 Q1743.89 1480.27 1732.43 1480.27 Q1729.35 1480.27 1726.19 1479.67 Q1723.03 1479.06 1719.62 1477.84 M1735.91 1452.2 Q1741.42 1452.2 1744.62 1448.43 Q1747.86 1444.67 1747.86 1438.1 Q1747.86 1431.58 1744.62 1427.82 Q1741.42 1424.01 1735.91 1424.01 Q1730.4 1424.01 1727.16 1427.82 Q1723.96 1431.58 1723.96 1438.1 Q1723.96 1444.67 1727.16 1448.43 Q1730.4 1452.2 1735.91 1452.2 Z" fill="#000000" fill-rule="nonzero" fill-opacity="1" /><path clip-path="url(#clip580)" d="M1770.1 1418.62 L1808.99 1418.62 L1808.99 1422.1 L1787.03 1479.1 L1778.48 1479.1 L1799.14 1425.51 L1770.1 1425.51 L1770.1 1418.62 Z" fill="#000000" fill-rule="nonzero" fill-opacity="1" /><path clip-path="url(#clip580)" d="M1825.03 1418.62 L1857.15 1418.62 L1857.15 1425.51 L1832.52 1425.51 L1832.52 1440.33 Q1834.31 1439.73 1836.09 1439.44 Q1837.87 1439.12 1839.65 1439.12 Q1849.78 1439.12 1855.69 1444.67 Q1861.61 1450.22 1861.61 1459.7 Q1861.61 1469.46 1855.53 1474.89 Q1849.46 1480.27 1838.4 1480.27 Q1834.59 1480.27 1830.62 1479.63 Q1826.69 1478.98 1822.48 1477.68 L1822.48 1469.46 Q1826.12 1471.44 1830.01 1472.42 Q1833.9 1473.39 1838.24 1473.39 Q1845.24 1473.39 1849.33 1469.7 Q1853.43 1466.02 1853.43 1459.7 Q1853.43 1453.38 1849.33 1449.69 Q1845.24 1446 1838.24 1446 Q1834.95 1446 1831.67 1446.73 Q1828.43 1447.46 1825.03 1449 L1825.03 1418.62 Z" fill="#000000" fill-rule="nonzero" fill-opacity="1" /><path clip-path="url(#clip580)" d="M2024.69 1472.21 L2053.25 1472.21 L2053.25 1479.1 L2014.85 1479.1 L2014.85 1472.21 Q2019.51 1467.39 2027.53 1459.29 Q2035.59 1451.15 2037.66 1448.8 Q2041.59 1444.38 2043.13 1441.35 Q2044.71 1438.27 2044.71 1435.31 Q2044.71 1430.49 2041.3 1427.45 Q2037.94 1424.41 2032.51 1424.41 Q2028.66 1424.41 2024.37 1425.75 Q2020.12 1427.09 2015.26 1429.8 L2015.26 1421.54 Q2020.2 1419.55 2024.49 1418.54 Q2028.79 1417.53 2032.35 1417.53 Q2041.75 1417.53 2047.34 1422.23 Q2052.93 1426.92 2052.93 1434.78 Q2052.93 1438.51 2051.51 1441.87 Q2050.13 1445.19 2046.45 1449.73 Q2045.44 1450.91 2040.01 1456.54 Q2034.58 1462.13 2024.69 1472.21 Z" fill="#000000" fill-rule="nonzero" fill-opacity="1" /><path clip-path="url(#clip580)" d="M2087.93 1424.01 Q2081.61 1424.01 2078.41 1430.25 Q2075.25 1436.44 2075.25 1448.92 Q2075.25 1461.36 2078.41 1467.6 Q2081.61 1473.79 2087.93 1473.79 Q2094.29 1473.79 2097.45 1467.6 Q2100.65 1461.36 2100.65 1448.92 Q2100.65 1436.44 2097.45 1430.25 Q2094.29 1424.01 2087.93 1424.01 M2087.93 1417.53 Q2098.1 1417.53 2103.44 1425.59 Q2108.83 1433.61 2108.83 1448.92 Q2108.83 1464.19 2103.44 1472.25 Q2098.1 1480.27 2087.93 1480.27 Q2077.76 1480.27 2072.37 1472.25 Q2067.03 1464.19 2067.03 1448.92 Q2067.03 1433.61 2072.37 1425.59 Q2077.76 1417.53 2087.93 1417.53 Z" fill="#000000" fill-rule="nonzero" fill-opacity="1" /><path clip-path="url(#clip580)" d="M2140.71 1424.01 Q2134.39 1424.01 2131.19 1430.25 Q2128.03 1436.44 2128.03 1448.92 Q2128.03 1461.36 2131.19 1467.6 Q2134.39 1473.79 2140.71 1473.79 Q2147.07 1473.79 2150.23 1467.6 Q2153.43 1461.36 2153.43 1448.92 Q2153.43 1436.44 2150.23 1430.25 Q2147.07 1424.01 2140.71 1424.01 M2140.71 1417.53 Q2150.88 1417.53 2156.23 1425.59 Q2161.61 1433.61 2161.61 1448.92 Q2161.61 1464.19 2156.23 1472.25 Q2150.88 1480.27 2140.71 1480.27 Q2130.54 1480.27 2125.16 1472.25 Q2119.81 1464.19 2119.81 1448.92 Q2119.81 1433.61 2125.16 1425.59 Q2130.54 1417.53 2140.71 1417.53 Z" fill="#000000" fill-rule="nonzero" fill-opacity="1" /><path clip-path="url(#clip580)" d="M2193.5 1424.01 Q2187.18 1424.01 2183.98 1430.25 Q2180.82 1436.44 2180.82 1448.92 Q2180.82 1461.36 2183.98 1467.6 Q2187.18 1473.79 2193.5 1473.79 Q2199.86 1473.79 2203.02 1467.6 Q2206.22 1461.36 2206.22 1448.92 Q2206.22 1436.44 2203.02 1430.25 Q2199.86 1424.01 2193.5 1424.01 M2193.5 1417.53 Q2203.66 1417.53 2209.01 1425.59 Q2214.4 1433.61 2214.4 1448.92 Q2214.4 1464.19 2209.01 1472.25 Q2203.66 1480.27 2193.5 1480.27 Q2183.33 1480.27 2177.94 1472.25 Q2172.59 1464.19 2172.59 1448.92 Q2172.59 1433.61 2177.94 1425.59 Q2183.33 1417.53 2193.5 1417.53 Z" fill="#000000" fill-rule="nonzero" fill-opacity="1" /><path clip-path="url(#clip580)" d="M1276.87 1523.12 L1285.66 1523.12 L1302.43 1547.99 L1319.08 1523.12 L1327.87 1523.12 L1306.48 1554.79 L1306.48 1583.6 L1298.25 1583.6 L1298.25 1554.79 L1276.87 1523.12 Z" fill="#000000" fill-rule="nonzero" fill-opacity="1" /><path clip-path="url(#clip580)" d="M1363.31 1559.05 L1363.31 1562.69 L1329.04 1562.69 Q1329.53 1570.39 1333.66 1574.44 Q1337.83 1578.45 1345.24 1578.45 Q1349.54 1578.45 1353.55 1577.4 Q1357.6 1576.34 1361.57 1574.24 L1361.57 1581.29 Q1357.56 1582.99 1353.35 1583.88 Q1349.13 1584.77 1344.8 1584.77 Q1333.94 1584.77 1327.58 1578.45 Q1321.26 1572.13 1321.26 1561.36 Q1321.26 1550.22 1327.26 1543.69 Q1333.29 1537.13 1343.5 1537.13 Q1352.66 1537.13 1357.96 1543.05 Q1363.31 1548.92 1363.31 1559.05 M1355.86 1556.86 Q1355.78 1550.74 1352.41 1547.1 Q1349.09 1543.45 1343.58 1543.45 Q1337.35 1543.45 1333.58 1546.98 Q1329.85 1550.5 1329.28 1556.9 L1355.86 1556.86 Z" fill="#000000" fill-rule="nonzero" fill-opacity="1" /><path clip-path="url(#clip580)" d="M1396.16 1560.79 Q1387.13 1560.79 1383.65 1562.86 Q1380.16 1564.92 1380.16 1569.9 Q1380.16 1573.87 1382.76 1576.22 Q1385.39 1578.53 1389.89 1578.53 Q1396.08 1578.53 1399.81 1574.16 Q1403.58 1569.74 1403.58 1562.45 L1403.58 1560.79 L1396.16 1560.79 M1411.03 1557.71 L1411.03 1583.6 L1403.58 1583.6 L1403.58 1576.71 Q1401.03 1580.84 1397.22 1582.83 Q1393.41 1584.77 1387.9 1584.77 Q1380.93 1584.77 1376.8 1580.88 Q1372.71 1576.95 1372.71 1570.39 Q1372.71 1562.73 1377.81 1558.84 Q1382.96 1554.96 1393.13 1554.96 L1403.58 1554.96 L1403.58 1554.23 Q1403.58 1549.08 1400.17 1546.29 Q1396.81 1543.45 1390.7 1543.45 Q1386.81 1543.45 1383.12 1544.38 Q1379.43 1545.31 1376.03 1547.18 L1376.03 1540.29 Q1380.12 1538.71 1383.97 1537.94 Q1387.82 1537.13 1391.47 1537.13 Q1401.31 1537.13 1406.17 1542.24 Q1411.03 1547.34 1411.03 1557.71 Z" fill="#000000" fill-rule="nonzero" fill-opacity="1" /><path clip-path="url(#clip580)" d="M1452.67 1545.19 Q1451.42 1544.46 1449.92 1544.14 Q1448.46 1543.78 1446.68 1543.78 Q1440.36 1543.78 1436.96 1547.91 Q1433.59 1552 1433.59 1559.7 L1433.59 1583.6 L1426.1 1583.6 L1426.1 1538.23 L1433.59 1538.23 L1433.59 1545.27 Q1435.94 1541.14 1439.71 1539.16 Q1443.48 1537.13 1448.87 1537.13 Q1449.64 1537.13 1450.57 1537.25 Q1451.5 1537.33 1452.63 1537.54 L1452.67 1545.19 Z" fill="#000000" fill-rule="nonzero" fill-opacity="1" /><polyline clip-path="url(#clip580)" style="stroke:#000000; stroke-linecap:round; stroke-linejoin:round; stroke-width:4; stroke-opacity:1; fill:none" points="376.784,1384.3 376.784,47.2441 "/>
<polyline clip-path="url(#clip580)" style="stroke:#000000; stroke-linecap:round; stroke-linejoin:round; stroke-width:4; stroke-opacity:1; fill:none" points="376.784,1244.42 395.681,1244.42 "/>
<polyline clip-path="url(#clip580)" style="stroke:#000000; stroke-linecap:round; stroke-linejoin:round; stroke-width:4; stroke-opacity:1; fill:none" points="376.784,988.044 395.681,988.044 "/>
<polyline clip-path="url(#clip580)" style="stroke:#000000; stroke-linecap:round; stroke-linejoin:round; stroke-width:4; stroke-opacity:1; fill:none" points="376.784,731.667 395.681,731.667 "/>
<polyline clip-path="url(#clip580)" style="stroke:#000000; stroke-linecap:round; stroke-linejoin:round; stroke-width:4; stroke-opacity:1; fill:none" points="376.784,475.291 395.681,475.291 "/>
<polyline clip-path="url(#clip580)" style="stroke:#000000; stroke-linecap:round; stroke-linejoin:round; stroke-width:4; stroke-opacity:1; fill:none" points="376.784,218.914 395.681,218.914 "/>
<path clip-path="url(#clip580)" d="M127.22 1245.21 L179.153 1245.21 L179.153 1252.1 L127.22 1252.1 L127.22 1245.21 Z" fill="#000000" fill-rule="nonzero" fill-opacity="1" /><path clip-path="url(#clip580)" d="M198.233 1267.77 L211.6 1267.77 L211.6 1221.63 L197.058 1224.55 L197.058 1217.1 L211.519 1214.18 L219.702 1214.18 L219.702 1267.77 L233.07 1267.77 L233.07 1274.66 L198.233 1274.66 L198.233 1267.77 Z" fill="#000000" fill-rule="nonzero" fill-opacity="1" /><path clip-path="url(#clip580)" d="M249.679 1214.18 L281.803 1214.18 L281.803 1221.07 L257.173 1221.07 L257.173 1235.89 Q258.956 1235.29 260.738 1235 Q262.52 1234.68 264.303 1234.68 Q274.43 1234.68 280.344 1240.23 Q286.259 1245.78 286.259 1255.26 Q286.259 1265.02 280.182 1270.45 Q274.106 1275.84 263.047 1275.84 Q259.239 1275.84 255.269 1275.19 Q251.34 1274.54 247.127 1273.24 L247.127 1265.02 Q250.773 1267 254.662 1267.98 Q258.55 1268.95 262.885 1268.95 Q269.893 1268.95 273.984 1265.26 Q278.076 1261.58 278.076 1255.26 Q278.076 1248.94 273.984 1245.25 Q269.893 1241.56 262.885 1241.56 Q259.604 1241.56 256.322 1242.29 Q253.082 1243.02 249.679 1244.56 L249.679 1214.18 Z" fill="#000000" fill-rule="nonzero" fill-opacity="1" /><path clip-path="url(#clip580)" d="M319.881 1219.57 Q313.562 1219.57 310.362 1225.81 Q307.202 1232 307.202 1244.48 Q307.202 1256.92 310.362 1263.16 Q313.562 1269.35 319.881 1269.35 Q326.241 1269.35 329.401 1263.16 Q332.601 1256.92 332.601 1244.48 Q332.601 1232 329.401 1225.81 Q326.241 1219.57 319.881 1219.57 M319.881 1213.09 Q330.049 1213.09 335.396 1221.15 Q340.784 1229.17 340.784 1244.48 Q340.784 1259.75 335.396 1267.81 Q330.049 1275.84 319.881 1275.84 Q309.713 1275.84 304.326 1267.81 Q298.978 1259.75 298.978 1244.48 Q298.978 1229.17 304.326 1221.15 Q309.713 1213.09 319.881 1213.09 Z" fill="#000000" fill-rule="nonzero" fill-opacity="1" /><path clip-path="url(#clip580)" d="M127.22 988.834 L179.153 988.834 L179.153 995.72 L127.22 995.72 L127.22 988.834 Z" fill="#000000" fill-rule="nonzero" fill-opacity="1" /><path clip-path="url(#clip580)" d="M198.233 1011.4 L211.6 1011.4 L211.6 965.258 L197.058 968.174 L197.058 960.721 L211.519 957.804 L219.702 957.804 L219.702 1011.4 L233.07 1011.4 L233.07 1018.28 L198.233 1018.28 L198.233 1011.4 Z" fill="#000000" fill-rule="nonzero" fill-opacity="1" /><path clip-path="url(#clip580)" d="M267.098 963.192 Q260.778 963.192 257.578 969.43 Q254.419 975.628 254.419 988.105 Q254.419 1000.54 257.578 1006.78 Q260.778 1012.98 267.098 1012.98 Q273.458 1012.98 276.618 1006.78 Q279.818 1000.54 279.818 988.105 Q279.818 975.628 276.618 969.43 Q273.458 963.192 267.098 963.192 M267.098 956.71 Q277.266 956.71 282.613 964.772 Q288.001 972.792 288.001 988.105 Q288.001 1003.38 282.613 1011.44 Q277.266 1019.46 267.098 1019.46 Q256.93 1019.46 251.542 1011.44 Q246.195 1003.38 246.195 988.105 Q246.195 972.792 251.542 964.772 Q256.93 956.71 267.098 956.71 Z" fill="#000000" fill-rule="nonzero" fill-opacity="1" /><path clip-path="url(#clip580)" d="M319.881 963.192 Q313.562 963.192 310.362 969.43 Q307.202 975.628 307.202 988.105 Q307.202 1000.54 310.362 1006.78 Q313.562 1012.98 319.881 1012.98 Q326.241 1012.98 329.401 1006.78 Q332.601 1000.54 332.601 988.105 Q332.601 975.628 329.401 969.43 Q326.241 963.192 319.881 963.192 M319.881 956.71 Q330.049 956.71 335.396 964.772 Q340.784 972.792 340.784 988.105 Q340.784 1003.38 335.396 1011.44 Q330.049 1019.46 319.881 1019.46 Q309.713 1019.46 304.326 1011.44 Q298.978 1003.38 298.978 988.105 Q298.978 972.792 304.326 964.772 Q309.713 956.71 319.881 956.71 Z" fill="#000000" fill-rule="nonzero" fill-opacity="1" /><path clip-path="url(#clip580)" d="M180.003 732.457 L231.936 732.457 L231.936 739.344 L180.003 739.344 L180.003 732.457 Z" fill="#000000" fill-rule="nonzero" fill-opacity="1" /><path clip-path="url(#clip580)" d="M249.679 701.427 L281.803 701.427 L281.803 708.314 L257.173 708.314 L257.173 723.14 Q258.956 722.533 260.738 722.249 Q262.52 721.925 264.303 721.925 Q274.43 721.925 280.344 727.475 Q286.259 733.024 286.259 742.503 Q286.259 752.266 280.182 757.694 Q274.106 763.082 263.047 763.082 Q259.239 763.082 255.269 762.434 Q251.34 761.786 247.127 760.49 L247.127 752.266 Q250.773 754.251 254.662 755.223 Q258.55 756.196 262.885 756.196 Q269.893 756.196 273.984 752.509 Q278.076 748.823 278.076 742.503 Q278.076 736.184 273.984 732.498 Q269.893 728.811 262.885 728.811 Q259.604 728.811 256.322 729.541 Q253.082 730.27 249.679 731.809 L249.679 701.427 Z" fill="#000000" fill-rule="nonzero" fill-opacity="1" /><path clip-path="url(#clip580)" d="M319.881 706.815 Q313.562 706.815 310.362 713.053 Q307.202 719.251 307.202 731.728 Q307.202 744.164 310.362 750.403 Q313.562 756.601 319.881 756.601 Q326.241 756.601 329.401 750.403 Q332.601 744.164 332.601 731.728 Q332.601 719.251 329.401 713.053 Q326.241 706.815 319.881 706.815 M319.881 700.334 Q330.049 700.334 335.396 708.395 Q340.784 716.416 340.784 731.728 Q340.784 747 335.396 755.061 Q330.049 763.082 319.881 763.082 Q309.713 763.082 304.326 755.061 Q298.978 747 298.978 731.728 Q298.978 716.416 304.326 708.395 Q309.713 700.334 319.881 700.334 Z" fill="#000000" fill-rule="nonzero" fill-opacity="1" /><path clip-path="url(#clip580)" d="M319.881 450.438 Q313.562 450.438 310.362 456.677 Q307.202 462.875 307.202 475.351 Q307.202 487.788 310.362 494.026 Q313.562 500.224 319.881 500.224 Q326.241 500.224 329.401 494.026 Q332.601 487.788 332.601 475.351 Q332.601 462.875 329.401 456.677 Q326.241 450.438 319.881 450.438 M319.881 443.957 Q330.049 443.957 335.396 452.018 Q340.784 460.039 340.784 475.351 Q340.784 490.623 335.396 498.685 Q330.049 506.705 319.881 506.705 Q309.713 506.705 304.326 498.685 Q298.978 490.623 298.978 475.351 Q298.978 460.039 304.326 452.018 Q309.713 443.957 319.881 443.957 Z" fill="#000000" fill-rule="nonzero" fill-opacity="1" /><path clip-path="url(#clip580)" d="M249.679 188.674 L281.803 188.674 L281.803 195.56 L257.173 195.56 L257.173 210.387 Q258.956 209.779 260.738 209.496 Q262.52 209.172 264.303 209.172 Q274.43 209.172 280.344 214.721 Q286.259 220.271 286.259 229.75 Q286.259 239.513 280.182 244.941 Q274.106 250.329 263.047 250.329 Q259.239 250.329 255.269 249.681 Q251.34 249.032 247.127 247.736 L247.127 239.513 Q250.773 241.498 254.662 242.47 Q258.55 243.442 262.885 243.442 Q269.893 243.442 273.984 239.756 Q278.076 236.07 278.076 229.75 Q278.076 223.431 273.984 219.744 Q269.893 216.058 262.885 216.058 Q259.604 216.058 256.322 216.787 Q253.082 217.516 249.679 219.056 L249.679 188.674 Z" fill="#000000" fill-rule="nonzero" fill-opacity="1" /><path clip-path="url(#clip580)" d="M319.881 194.062 Q313.562 194.062 310.362 200.3 Q307.202 206.498 307.202 218.975 Q307.202 231.411 310.362 237.649 Q313.562 243.847 319.881 243.847 Q326.241 243.847 329.401 237.649 Q332.601 231.411 332.601 218.975 Q332.601 206.498 329.401 200.3 Q326.241 194.062 319.881 194.062 M319.881 187.58 Q330.049 187.58 335.396 195.641 Q340.784 203.662 340.784 218.975 Q340.784 234.247 335.396 242.308 Q330.049 250.329 319.881 250.329 Q309.713 250.329 304.326 242.308 Q298.978 234.247 298.978 218.975 Q298.978 203.662 304.326 195.641 Q309.713 187.58 319.881 187.58 Z" fill="#000000" fill-rule="nonzero" fill-opacity="1" /><path clip-path="url(#clip580)" d="M14.5811 1192 L22.5614 1192 Q20.3334 1196.65 19.2396 1200.79 Q18.1459 1204.92 18.1459 1208.77 Q18.1459 1215.45 20.7385 1219.1 Q23.3311 1222.7 28.1111 1222.7 Q32.1215 1222.7 34.1875 1220.31 Q36.2129 1217.88 37.4687 1211.16 L38.4814 1206.21 Q40.2233 1197.06 44.6388 1192.73 Q49.0138 1188.35 56.3864 1188.35 Q65.1769 1188.35 69.7139 1194.26 Q74.2509 1200.14 74.2509 1211.52 Q74.2509 1215.82 73.2787 1220.68 Q72.3065 1225.5 70.4026 1230.68 L61.9767 1230.68 Q64.7718 1225.7 66.1896 1220.92 Q67.6074 1216.14 67.6074 1211.52 Q67.6074 1204.51 64.8528 1200.71 Q62.0982 1196.9 56.9941 1196.9 Q52.5381 1196.9 50.0265 1199.65 Q47.515 1202.37 46.2592 1208.6 L45.287 1213.59 Q43.464 1222.74 39.5752 1226.83 Q35.6863 1230.93 28.7593 1230.93 Q20.7385 1230.93 16.1204 1225.29 Q11.5024 1219.62 11.5024 1209.7 Q11.5024 1205.45 12.2721 1201.03 Q13.0418 1196.61 14.5811 1192 Z" fill="#000000" fill-rule="nonzero" fill-opacity="1" /><path clip-path="url(#clip580)" d="M48.5277 1137.11 L52.1735 1137.11 L52.1735 1171.38 Q59.8702 1170.89 63.9211 1166.76 Q67.9315 1162.59 67.9315 1155.17 Q67.9315 1150.88 66.8783 1146.87 Q65.825 1142.82 63.7186 1138.85 L70.7671 1138.85 Q72.4685 1142.86 73.3597 1147.07 Q74.2509 1151.28 74.2509 1155.62 Q74.2509 1166.48 67.9315 1172.84 Q61.6121 1179.15 50.8367 1179.15 Q39.6967 1179.15 33.1748 1173.16 Q26.6123 1167.12 26.6123 1156.92 Q26.6123 1147.76 32.5266 1142.45 Q38.4004 1137.11 48.5277 1137.11 M46.3402 1144.56 Q40.2233 1144.64 36.5775 1148 Q32.9317 1151.33 32.9317 1156.83 Q32.9317 1163.07 36.456 1166.84 Q39.9803 1170.57 46.3807 1171.13 L46.3402 1144.56 Z" fill="#000000" fill-rule="nonzero" fill-opacity="1" /><path clip-path="url(#clip580)" d="M50.2696 1104.25 Q50.2696 1113.29 52.3355 1116.77 Q54.4015 1120.25 59.3841 1120.25 Q63.354 1120.25 65.7035 1117.66 Q68.0125 1115.03 68.0125 1110.53 Q68.0125 1104.33 63.6376 1100.61 Q59.2221 1096.84 51.9304 1096.84 L50.2696 1096.84 L50.2696 1104.25 M47.1909 1089.39 L73.0762 1089.39 L73.0762 1096.84 L66.1896 1096.84 Q70.3215 1099.39 72.3065 1103.2 Q74.2509 1107.01 74.2509 1112.52 Q74.2509 1119.49 70.3621 1123.62 Q66.4327 1127.71 59.8702 1127.71 Q52.214 1127.71 48.3251 1122.6 Q44.4363 1117.46 44.4363 1107.29 L44.4363 1096.84 L43.7071 1096.84 Q38.5625 1096.84 35.7673 1100.24 Q32.9317 1103.61 32.9317 1109.72 Q32.9317 1113.61 33.8634 1117.3 Q34.7951 1120.98 36.6585 1124.39 L29.772 1124.39 Q28.1921 1120.3 27.4225 1116.45 Q26.6123 1112.6 26.6123 1108.95 Q26.6123 1099.11 31.7164 1094.25 Q36.8206 1089.39 47.1909 1089.39 Z" fill="#000000" fill-rule="nonzero" fill-opacity="1" /><path clip-path="url(#clip580)" d="M12.5962 1047.34 L12.5962 1039.16 L66.1896 1039.16 L66.1896 1009.71 L73.0762 1009.71 L73.0762 1047.34 L12.5962 1047.34 Z" fill="#000000" fill-rule="nonzero" fill-opacity="1" /><path clip-path="url(#clip580)" d="M48.5277 964.092 L52.1735 964.092 L52.1735 998.363 Q59.8702 997.877 63.9211 993.745 Q67.9315 989.573 67.9315 982.159 Q67.9315 977.865 66.8783 973.855 Q65.825 969.804 63.7186 965.834 L70.7671 965.834 Q72.4685 969.845 73.3597 974.058 Q74.2509 978.271 74.2509 982.605 Q74.2509 993.461 67.9315 999.821 Q61.6121 1006.14 50.8367 1006.14 Q39.6967 1006.14 33.1748 1000.15 Q26.6123 994.11 26.6123 983.901 Q26.6123 974.746 32.5266 969.44 Q38.4004 964.092 48.5277 964.092 M46.3402 971.546 Q40.2233 971.627 36.5775 974.989 Q32.9317 978.311 32.9317 983.82 Q32.9317 990.059 36.456 993.826 Q39.9803 997.553 46.3807 998.12 L46.3402 971.546 Z" fill="#000000" fill-rule="nonzero" fill-opacity="1" /><path clip-path="url(#clip580)" d="M27.706 957.206 L27.706 949.307 L65.7845 935.128 L27.706 920.95 L27.706 913.051 L73.0762 930.065 L73.0762 940.192 L27.706 957.206 Z" fill="#000000" fill-rule="nonzero" fill-opacity="1" /><path clip-path="url(#clip580)" d="M48.5277 863.954 L52.1735 863.954 L52.1735 898.225 Q59.8702 897.739 63.9211 893.607 Q67.9315 889.434 67.9315 882.021 Q67.9315 877.727 66.8783 873.717 Q65.825 869.666 63.7186 865.696 L70.7671 865.696 Q72.4685 869.706 73.3597 873.919 Q74.2509 878.132 74.2509 882.467 Q74.2509 893.323 67.9315 899.683 Q61.6121 906.002 50.8367 906.002 Q39.6967 906.002 33.1748 900.007 Q26.6123 893.971 26.6123 883.763 Q26.6123 874.608 32.5266 869.301 Q38.4004 863.954 48.5277 863.954 M46.3402 871.408 Q40.2233 871.489 36.5775 874.851 Q32.9317 878.173 32.9317 883.682 Q32.9317 889.92 36.456 893.688 Q39.9803 897.415 46.3807 897.982 L46.3402 871.408 Z" fill="#000000" fill-rule="nonzero" fill-opacity="1" /><path clip-path="url(#clip580)" d="M10.0441 851.72 L10.0441 844.267 L73.0762 844.267 L73.0762 851.72 L10.0441 851.72 Z" fill="#000000" fill-rule="nonzero" fill-opacity="1" /><path clip-path="url(#clip580)" d="M20.6575 781.761 L50.7557 792.861 L50.7557 770.621 L20.6575 781.761 M12.5962 786.379 L12.5962 777.103 L73.0762 754.053 L73.0762 762.56 L57.5612 768.069 L57.5612 795.332 L73.0762 800.841 L73.0762 809.469 L12.5962 786.379 Z" fill="#000000" fill-rule="nonzero" fill-opacity="1" /><path clip-path="url(#clip580)" d="M45.692 707.832 L73.0762 707.832 L73.0762 715.286 L45.9351 715.286 Q39.4942 715.286 36.2939 717.797 Q33.0937 720.309 33.0937 725.332 Q33.0937 731.368 36.9421 734.852 Q40.7905 738.336 47.4339 738.336 L73.0762 738.336 L73.0762 745.83 L27.706 745.83 L27.706 738.336 L34.7546 738.336 Q30.6632 735.662 28.6377 732.057 Q26.6123 728.411 26.6123 723.671 Q26.6123 715.853 31.4734 711.843 Q36.2939 707.832 45.692 707.832 Z" fill="#000000" fill-rule="nonzero" fill-opacity="1" /><path clip-path="url(#clip580)" d="M32.9317 675.384 Q32.9317 681.38 37.6307 684.864 Q42.2893 688.347 50.4316 688.347 Q58.5739 688.347 63.273 684.904 Q67.9315 681.42 67.9315 675.384 Q67.9315 669.43 63.2325 665.946 Q58.5334 662.462 50.4316 662.462 Q42.3703 662.462 37.6713 665.946 Q32.9317 669.43 32.9317 675.384 M26.6123 675.384 Q26.6123 665.662 32.9317 660.113 Q39.2511 654.563 50.4316 654.563 Q61.5716 654.563 67.9315 660.113 Q74.2509 665.662 74.2509 675.384 Q74.2509 685.147 67.9315 690.697 Q61.5716 696.206 50.4316 696.206 Q39.2511 696.206 32.9317 690.697 Q26.6123 685.147 26.6123 675.384 Z" fill="#000000" fill-rule="nonzero" fill-opacity="1" /><path clip-path="url(#clip580)" d="M36.4155 606.884 Q31.3924 604.089 29.0023 600.2 Q26.6123 596.311 26.6123 591.045 Q26.6123 583.956 31.5949 580.107 Q36.537 576.259 45.692 576.259 L73.0762 576.259 L73.0762 583.753 L45.9351 583.753 Q39.4131 583.753 36.2534 586.062 Q33.0937 588.371 33.0937 593.111 Q33.0937 598.903 36.9421 602.266 Q40.7905 605.628 47.4339 605.628 L73.0762 605.628 L73.0762 613.122 L45.9351 613.122 Q39.3726 613.122 36.2534 615.431 Q33.0937 617.74 33.0937 622.561 Q33.0937 628.272 36.9826 631.635 Q40.831 634.997 47.4339 634.997 L73.0762 634.997 L73.0762 642.491 L27.706 642.491 L27.706 634.997 L34.7546 634.997 Q30.5822 632.445 28.5972 628.88 Q26.6123 625.315 26.6123 620.414 Q26.6123 615.472 29.1238 612.028 Q31.6354 608.545 36.4155 606.884 Z" fill="#000000" fill-rule="nonzero" fill-opacity="1" /><path clip-path="url(#clip580)" d="M50.2696 540.773 Q50.2696 549.806 52.3355 553.29 Q54.4015 556.774 59.3841 556.774 Q63.354 556.774 65.7035 554.181 Q68.0125 551.548 68.0125 547.052 Q68.0125 540.854 63.6376 537.127 Q59.2221 533.36 51.9304 533.36 L50.2696 533.36 L50.2696 540.773 M47.1909 525.906 L73.0762 525.906 L73.0762 533.36 L66.1896 533.36 Q70.3215 535.912 72.3065 539.72 Q74.2509 543.528 74.2509 549.037 Q74.2509 556.004 70.3621 560.136 Q66.4327 564.228 59.8702 564.228 Q52.214 564.228 48.3251 559.124 Q44.4363 553.979 44.4363 543.811 L44.4363 533.36 L43.7071 533.36 Q38.5625 533.36 35.7673 536.763 Q32.9317 540.125 32.9317 546.242 Q32.9317 550.13 33.8634 553.817 Q34.7951 557.503 36.6585 560.906 L29.772 560.906 Q28.1921 556.814 27.4225 552.966 Q26.6123 549.118 26.6123 545.472 Q26.6123 535.628 31.7164 530.767 Q36.8206 525.906 47.1909 525.906 Z" fill="#000000" fill-rule="nonzero" fill-opacity="1" /><path clip-path="url(#clip580)" d="M10.0441 510.553 L10.0441 503.099 L73.0762 503.099 L73.0762 510.553 L10.0441 510.553 Z" fill="#000000" fill-rule="nonzero" fill-opacity="1" /><path clip-path="url(#clip580)" d="M77.2891 468.626 Q85.3909 471.786 87.862 474.784 Q90.333 477.781 90.333 482.804 L90.333 488.759 L84.0946 488.759 L84.0946 484.384 Q84.0946 481.306 82.6363 479.604 Q81.178 477.903 75.7498 475.837 L72.347 474.5 L27.706 492.851 L27.706 484.951 L63.192 470.773 L27.706 456.595 L27.706 448.696 L77.2891 468.626 Z" fill="#000000" fill-rule="nonzero" fill-opacity="1" /><path clip-path="url(#clip580)" d="M10.1251 394.13 Q19.4422 399.558 28.5567 402.191 Q37.6713 404.825 47.0288 404.825 Q56.3864 404.825 65.582 402.191 Q74.737 399.518 84.0136 394.13 L84.0136 400.612 Q74.494 406.688 65.2984 409.726 Q56.1029 412.724 47.0288 412.724 Q37.9953 412.724 28.8403 409.726 Q19.6852 406.728 10.1251 400.612 L10.1251 394.13 Z" fill="#000000" fill-rule="nonzero" fill-opacity="1" /><path clip-path="url(#clip580)" d="M36.4155 344.345 Q31.3924 341.549 29.0023 337.661 Q26.6123 333.772 26.6123 328.506 Q26.6123 321.416 31.5949 317.568 Q36.537 313.72 45.692 313.72 L73.0762 313.72 L73.0762 321.214 L45.9351 321.214 Q39.4131 321.214 36.2534 323.523 Q33.0937 325.832 33.0937 330.571 Q33.0937 336.364 36.9421 339.727 Q40.7905 343.089 47.4339 343.089 L73.0762 343.089 L73.0762 350.583 L45.9351 350.583 Q39.3726 350.583 36.2534 352.892 Q33.0937 355.201 33.0937 360.022 Q33.0937 365.733 36.9826 369.096 Q40.831 372.458 47.4339 372.458 L73.0762 372.458 L73.0762 379.952 L27.706 379.952 L27.706 372.458 L34.7546 372.458 Q30.5822 369.906 28.5972 366.341 Q26.6123 362.776 26.6123 357.875 Q26.6123 352.932 29.1238 349.489 Q31.6354 346.005 36.4155 344.345 Z" fill="#000000" fill-rule="nonzero" fill-opacity="1" /><path clip-path="url(#clip580)" d="M36.4155 263.529 Q31.3924 260.734 29.0023 256.845 Q26.6123 252.956 26.6123 247.69 Q26.6123 240.601 31.5949 236.753 Q36.537 232.904 45.692 232.904 L73.0762 232.904 L73.0762 240.398 L45.9351 240.398 Q39.4131 240.398 36.2534 242.707 Q33.0937 245.016 33.0937 249.756 Q33.0937 255.549 36.9421 258.911 Q40.7905 262.273 47.4339 262.273 L73.0762 262.273 L73.0762 269.767 L45.9351 269.767 Q39.3726 269.767 36.2534 272.076 Q33.0937 274.385 33.0937 279.206 Q33.0937 284.918 36.9826 288.28 Q40.831 291.642 47.4339 291.642 L73.0762 291.642 L73.0762 299.136 L27.706 299.136 L27.706 291.642 L34.7546 291.642 Q30.5822 289.09 28.5972 285.525 Q26.6123 281.961 26.6123 277.059 Q26.6123 272.117 29.1238 268.674 Q31.6354 265.19 36.4155 263.529 Z" fill="#000000" fill-rule="nonzero" fill-opacity="1" /><path clip-path="url(#clip580)" d="M10.1251 219.212 L10.1251 212.731 Q19.6852 206.654 28.8403 203.657 Q37.9953 200.618 47.0288 200.618 Q56.1029 200.618 65.2984 203.657 Q74.494 206.654 84.0136 212.731 L84.0136 219.212 Q74.737 213.824 65.582 211.191 Q56.3864 208.518 47.0288 208.518 Q37.6713 208.518 28.5567 211.191 Q19.4422 213.824 10.1251 219.212 Z" fill="#000000" fill-rule="nonzero" fill-opacity="1" /><circle clip-path="url(#clip582)" cx="432.708" cy="1289.03" r="14.4" fill="#000000" fill-rule="evenodd" fill-opacity="1" stroke="none"/>
<circle clip-path="url(#clip582)" cx="446.724" cy="1260.32" r="14.4" fill="#000000" fill-rule="evenodd" fill-opacity="1" stroke="none"/>
<circle clip-path="url(#clip582)" cx="460.74" cy="1346.46" r="14.4" fill="#000000" fill-rule="evenodd" fill-opacity="1" stroke="none"/>
<circle clip-path="url(#clip582)" cx="474.755" cy="1319.28" r="14.4" fill="#000000" fill-rule="evenodd" fill-opacity="1" stroke="none"/>
<circle clip-path="url(#clip582)" cx="488.771" cy="1212.12" r="14.4" fill="#000000" fill-rule="evenodd" fill-opacity="1" stroke="none"/>
<circle clip-path="url(#clip582)" cx="502.787" cy="1219.81" r="14.4" fill="#000000" fill-rule="evenodd" fill-opacity="1" stroke="none"/>
<circle clip-path="url(#clip582)" cx="516.803" cy="1232.11" r="14.4" fill="#000000" fill-rule="evenodd" fill-opacity="1" stroke="none"/>
<circle clip-path="url(#clip582)" cx="530.819" cy="1260.83" r="14.4" fill="#000000" fill-rule="evenodd" fill-opacity="1" stroke="none"/>
<circle clip-path="url(#clip582)" cx="544.835" cy="1250.06" r="14.4" fill="#000000" fill-rule="evenodd" fill-opacity="1" stroke="none"/>
<circle clip-path="url(#clip582)" cx="558.851" cy="1241.86" r="14.4" fill="#000000" fill-rule="evenodd" fill-opacity="1" stroke="none"/>
<circle clip-path="url(#clip582)" cx="572.867" cy="1231.6" r="14.4" fill="#000000" fill-rule="evenodd" fill-opacity="1" stroke="none"/>
<circle clip-path="url(#clip582)" cx="586.883" cy="1240.32" r="14.4" fill="#000000" fill-rule="evenodd" fill-opacity="1" stroke="none"/>
<circle clip-path="url(#clip582)" cx="600.899" cy="1223.91" r="14.4" fill="#000000" fill-rule="evenodd" fill-opacity="1" stroke="none"/>
<circle clip-path="url(#clip582)" cx="614.915" cy="1199.81" r="14.4" fill="#000000" fill-rule="evenodd" fill-opacity="1" stroke="none"/>
<circle clip-path="url(#clip582)" cx="628.931" cy="1249.55" r="14.4" fill="#000000" fill-rule="evenodd" fill-opacity="1" stroke="none"/>
<circle clip-path="url(#clip582)" cx="642.947" cy="1189.04" r="14.4" fill="#000000" fill-rule="evenodd" fill-opacity="1" stroke="none"/>
<circle clip-path="url(#clip582)" cx="656.963" cy="1228.01" r="14.4" fill="#000000" fill-rule="evenodd" fill-opacity="1" stroke="none"/>
<circle clip-path="url(#clip582)" cx="670.979" cy="1201.35" r="14.4" fill="#000000" fill-rule="evenodd" fill-opacity="1" stroke="none"/>
<circle clip-path="url(#clip582)" cx="684.995" cy="1153.15" r="14.4" fill="#000000" fill-rule="evenodd" fill-opacity="1" stroke="none"/>
<circle clip-path="url(#clip582)" cx="699.011" cy="1114.69" r="14.4" fill="#000000" fill-rule="evenodd" fill-opacity="1" stroke="none"/>
<circle clip-path="url(#clip582)" cx="713.027" cy="1142.38" r="14.4" fill="#000000" fill-rule="evenodd" fill-opacity="1" stroke="none"/>
<circle clip-path="url(#clip582)" cx="727.043" cy="1144.43" r="14.4" fill="#000000" fill-rule="evenodd" fill-opacity="1" stroke="none"/>
<circle clip-path="url(#clip582)" cx="741.059" cy="1120.85" r="14.4" fill="#000000" fill-rule="evenodd" fill-opacity="1" stroke="none"/>
<circle clip-path="url(#clip582)" cx="755.075" cy="1079.83" r="14.4" fill="#000000" fill-rule="evenodd" fill-opacity="1" stroke="none"/>
<circle clip-path="url(#clip582)" cx="769.091" cy="1132.64" r="14.4" fill="#000000" fill-rule="evenodd" fill-opacity="1" stroke="none"/>
<circle clip-path="url(#clip582)" cx="783.107" cy="1160.84" r="14.4" fill="#000000" fill-rule="evenodd" fill-opacity="1" stroke="none"/>
<circle clip-path="url(#clip582)" cx="797.123" cy="1125.97" r="14.4" fill="#000000" fill-rule="evenodd" fill-opacity="1" stroke="none"/>
<circle clip-path="url(#clip582)" cx="811.139" cy="1133.15" r="14.4" fill="#000000" fill-rule="evenodd" fill-opacity="1" stroke="none"/>
<circle clip-path="url(#clip582)" cx="825.155" cy="1145.97" r="14.4" fill="#000000" fill-rule="evenodd" fill-opacity="1" stroke="none"/>
<circle clip-path="url(#clip582)" cx="839.171" cy="1122.9" r="14.4" fill="#000000" fill-rule="evenodd" fill-opacity="1" stroke="none"/>
<circle clip-path="url(#clip582)" cx="853.187" cy="1123.41" r="14.4" fill="#000000" fill-rule="evenodd" fill-opacity="1" stroke="none"/>
<circle clip-path="url(#clip582)" cx="867.203" cy="1080.85" r="14.4" fill="#000000" fill-rule="evenodd" fill-opacity="1" stroke="none"/>
<circle clip-path="url(#clip582)" cx="881.219" cy="1096.75" r="14.4" fill="#000000" fill-rule="evenodd" fill-opacity="1" stroke="none"/>
<circle clip-path="url(#clip582)" cx="895.235" cy="1087.52" r="14.4" fill="#000000" fill-rule="evenodd" fill-opacity="1" stroke="none"/>
<circle clip-path="url(#clip582)" cx="909.251" cy="1055.21" r="14.4" fill="#000000" fill-rule="evenodd" fill-opacity="1" stroke="none"/>
<circle clip-path="url(#clip582)" cx="923.267" cy="1014.71" r="14.4" fill="#000000" fill-rule="evenodd" fill-opacity="1" stroke="none"/>
<circle clip-path="url(#clip582)" cx="937.283" cy="1024.45" r="14.4" fill="#000000" fill-rule="evenodd" fill-opacity="1" stroke="none"/>
<circle clip-path="url(#clip582)" cx="951.299" cy="1047.52" r="14.4" fill="#000000" fill-rule="evenodd" fill-opacity="1" stroke="none"/>
<circle clip-path="url(#clip582)" cx="965.315" cy="1055.73" r="14.4" fill="#000000" fill-rule="evenodd" fill-opacity="1" stroke="none"/>
<circle clip-path="url(#clip582)" cx="979.331" cy="1047.52" r="14.4" fill="#000000" fill-rule="evenodd" fill-opacity="1" stroke="none"/>
<circle clip-path="url(#clip582)" cx="993.347" cy="1040.86" r="14.4" fill="#000000" fill-rule="evenodd" fill-opacity="1" stroke="none"/>
<circle clip-path="url(#clip582)" cx="1007.36" cy="1030.09" r="14.4" fill="#000000" fill-rule="evenodd" fill-opacity="1" stroke="none"/>
<circle clip-path="url(#clip582)" cx="1021.38" cy="1034.7" r="14.4" fill="#000000" fill-rule="evenodd" fill-opacity="1" stroke="none"/>
<circle clip-path="url(#clip582)" cx="1035.39" cy="1028.55" r="14.4" fill="#000000" fill-rule="evenodd" fill-opacity="1" stroke="none"/>
<circle clip-path="url(#clip582)" cx="1049.41" cy="1065.98" r="14.4" fill="#000000" fill-rule="evenodd" fill-opacity="1" stroke="none"/>
<circle clip-path="url(#clip582)" cx="1063.43" cy="1055.73" r="14.4" fill="#000000" fill-rule="evenodd" fill-opacity="1" stroke="none"/>
<circle clip-path="url(#clip582)" cx="1077.44" cy="1022.4" r="14.4" fill="#000000" fill-rule="evenodd" fill-opacity="1" stroke="none"/>
<circle clip-path="url(#clip582)" cx="1091.46" cy="1028.04" r="14.4" fill="#000000" fill-rule="evenodd" fill-opacity="1" stroke="none"/>
<circle clip-path="url(#clip582)" cx="1105.47" cy="1048.04" r="14.4" fill="#000000" fill-rule="evenodd" fill-opacity="1" stroke="none"/>
<circle clip-path="url(#clip582)" cx="1119.49" cy="1040.86" r="14.4" fill="#000000" fill-rule="evenodd" fill-opacity="1" stroke="none"/>
<circle clip-path="url(#clip582)" cx="1133.51" cy="1020.35" r="14.4" fill="#000000" fill-rule="evenodd" fill-opacity="1" stroke="none"/>
<circle clip-path="url(#clip582)" cx="1147.52" cy="1022.4" r="14.4" fill="#000000" fill-rule="evenodd" fill-opacity="1" stroke="none"/>
<circle clip-path="url(#clip582)" cx="1161.54" cy="993.172" r="14.4" fill="#000000" fill-rule="evenodd" fill-opacity="1" stroke="none"/>
<circle clip-path="url(#clip582)" cx="1175.55" cy="971.123" r="14.4" fill="#000000" fill-rule="evenodd" fill-opacity="1" stroke="none"/>
<circle clip-path="url(#clip582)" cx="1189.57" cy="998.812" r="14.4" fill="#000000" fill-rule="evenodd" fill-opacity="1" stroke="none"/>
<circle clip-path="url(#clip582)" cx="1203.59" cy="970.098" r="14.4" fill="#000000" fill-rule="evenodd" fill-opacity="1" stroke="none"/>
<circle clip-path="url(#clip582)" cx="1217.6" cy="990.095" r="14.4" fill="#000000" fill-rule="evenodd" fill-opacity="1" stroke="none"/>
<circle clip-path="url(#clip582)" cx="1231.62" cy="960.868" r="14.4" fill="#000000" fill-rule="evenodd" fill-opacity="1" stroke="none"/>
<circle clip-path="url(#clip582)" cx="1245.63" cy="947.537" r="14.4" fill="#000000" fill-rule="evenodd" fill-opacity="1" stroke="none"/>
<circle clip-path="url(#clip582)" cx="1259.65" cy="920.873" r="14.4" fill="#000000" fill-rule="evenodd" fill-opacity="1" stroke="none"/>
<circle clip-path="url(#clip582)" cx="1273.67" cy="948.049" r="14.4" fill="#000000" fill-rule="evenodd" fill-opacity="1" stroke="none"/>
<circle clip-path="url(#clip582)" cx="1287.68" cy="885.493" r="14.4" fill="#000000" fill-rule="evenodd" fill-opacity="1" stroke="none"/>
<circle clip-path="url(#clip582)" cx="1301.7" cy="885.493" r="14.4" fill="#000000" fill-rule="evenodd" fill-opacity="1" stroke="none"/>
<circle clip-path="url(#clip582)" cx="1315.71" cy="885.493" r="14.4" fill="#000000" fill-rule="evenodd" fill-opacity="1" stroke="none"/>
<circle clip-path="url(#clip582)" cx="1329.73" cy="918.31" r="14.4" fill="#000000" fill-rule="evenodd" fill-opacity="1" stroke="none"/>
<circle clip-path="url(#clip582)" cx="1343.75" cy="903.952" r="14.4" fill="#000000" fill-rule="evenodd" fill-opacity="1" stroke="none"/>
<circle clip-path="url(#clip582)" cx="1357.76" cy="865.496" r="14.4" fill="#000000" fill-rule="evenodd" fill-opacity="1" stroke="none"/>
<circle clip-path="url(#clip582)" cx="1371.78" cy="849.601" r="14.4" fill="#000000" fill-rule="evenodd" fill-opacity="1" stroke="none"/>
<circle clip-path="url(#clip582)" cx="1385.79" cy="824.988" r="14.4" fill="#000000" fill-rule="evenodd" fill-opacity="1" stroke="none"/>
<circle clip-path="url(#clip582)" cx="1399.81" cy="831.654" r="14.4" fill="#000000" fill-rule="evenodd" fill-opacity="1" stroke="none"/>
<circle clip-path="url(#clip582)" cx="1413.83" cy="820.374" r="14.4" fill="#000000" fill-rule="evenodd" fill-opacity="1" stroke="none"/>
<circle clip-path="url(#clip582)" cx="1427.84" cy="771.662" r="14.4" fill="#000000" fill-rule="evenodd" fill-opacity="1" stroke="none"/>
<circle clip-path="url(#clip582)" cx="1441.86" cy="784.994" r="14.4" fill="#000000" fill-rule="evenodd" fill-opacity="1" stroke="none"/>
<circle clip-path="url(#clip582)" cx="1455.87" cy="762.433" r="14.4" fill="#000000" fill-rule="evenodd" fill-opacity="1" stroke="none"/>
<circle clip-path="url(#clip582)" cx="1469.89" cy="777.302" r="14.4" fill="#000000" fill-rule="evenodd" fill-opacity="1" stroke="none"/>
<circle clip-path="url(#clip582)" cx="1483.91" cy="772.688" r="14.4" fill="#000000" fill-rule="evenodd" fill-opacity="1" stroke="none"/>
<circle clip-path="url(#clip582)" cx="1497.92" cy="798.838" r="14.4" fill="#000000" fill-rule="evenodd" fill-opacity="1" stroke="none"/>
<circle clip-path="url(#clip582)" cx="1511.94" cy="730.129" r="14.4" fill="#000000" fill-rule="evenodd" fill-opacity="1" stroke="none"/>
<circle clip-path="url(#clip582)" cx="1525.95" cy="722.951" r="14.4" fill="#000000" fill-rule="evenodd" fill-opacity="1" stroke="none"/>
<circle clip-path="url(#clip582)" cx="1539.97" cy="721.412" r="14.4" fill="#000000" fill-rule="evenodd" fill-opacity="1" stroke="none"/>
<circle clip-path="url(#clip582)" cx="1553.99" cy="702.44" r="14.4" fill="#000000" fill-rule="evenodd" fill-opacity="1" stroke="none"/>
<circle clip-path="url(#clip582)" cx="1568" cy="670.65" r="14.4" fill="#000000" fill-rule="evenodd" fill-opacity="1" stroke="none"/>
<circle clip-path="url(#clip582)" cx="1582.02" cy="697.313" r="14.4" fill="#000000" fill-rule="evenodd" fill-opacity="1" stroke="none"/>
<circle clip-path="url(#clip582)" cx="1596.03" cy="705.517" r="14.4" fill="#000000" fill-rule="evenodd" fill-opacity="1" stroke="none"/>
<circle clip-path="url(#clip582)" cx="1610.05" cy="746.024" r="14.4" fill="#000000" fill-rule="evenodd" fill-opacity="1" stroke="none"/>
<circle clip-path="url(#clip582)" cx="1624.07" cy="688.596" r="14.4" fill="#000000" fill-rule="evenodd" fill-opacity="1" stroke="none"/>
<circle clip-path="url(#clip582)" cx="1638.08" cy="716.285" r="14.4" fill="#000000" fill-rule="evenodd" fill-opacity="1" stroke="none"/>
<circle clip-path="url(#clip582)" cx="1652.1" cy="709.106" r="14.4" fill="#000000" fill-rule="evenodd" fill-opacity="1" stroke="none"/>
<circle clip-path="url(#clip582)" cx="1666.11" cy="705.004" r="14.4" fill="#000000" fill-rule="evenodd" fill-opacity="1" stroke="none"/>
<circle clip-path="url(#clip582)" cx="1680.13" cy="670.137" r="14.4" fill="#000000" fill-rule="evenodd" fill-opacity="1" stroke="none"/>
<circle clip-path="url(#clip582)" cx="1694.15" cy="679.879" r="14.4" fill="#000000" fill-rule="evenodd" fill-opacity="1" stroke="none"/>
<circle clip-path="url(#clip582)" cx="1708.16" cy="653.216" r="14.4" fill="#000000" fill-rule="evenodd" fill-opacity="1" stroke="none"/>
<circle clip-path="url(#clip582)" cx="1722.18" cy="606.555" r="14.4" fill="#000000" fill-rule="evenodd" fill-opacity="1" stroke="none"/>
<circle clip-path="url(#clip582)" cx="1736.19" cy="637.321" r="14.4" fill="#000000" fill-rule="evenodd" fill-opacity="1" stroke="none"/>
<circle clip-path="url(#clip582)" cx="1750.21" cy="576.303" r="14.4" fill="#000000" fill-rule="evenodd" fill-opacity="1" stroke="none"/>
<circle clip-path="url(#clip582)" cx="1764.23" cy="584.507" r="14.4" fill="#000000" fill-rule="evenodd" fill-opacity="1" stroke="none"/>
<circle clip-path="url(#clip582)" cx="1778.24" cy="589.635" r="14.4" fill="#000000" fill-rule="evenodd" fill-opacity="1" stroke="none"/>
<circle clip-path="url(#clip582)" cx="1792.26" cy="598.351" r="14.4" fill="#000000" fill-rule="evenodd" fill-opacity="1" stroke="none"/>
<circle clip-path="url(#clip582)" cx="1806.27" cy="565.535" r="14.4" fill="#000000" fill-rule="evenodd" fill-opacity="1" stroke="none"/>
<circle clip-path="url(#clip582)" cx="1820.29" cy="590.66" r="14.4" fill="#000000" fill-rule="evenodd" fill-opacity="1" stroke="none"/>
<circle clip-path="url(#clip582)" cx="1834.31" cy="559.895" r="14.4" fill="#000000" fill-rule="evenodd" fill-opacity="1" stroke="none"/>
<circle clip-path="url(#clip582)" cx="1848.32" cy="496.314" r="14.4" fill="#000000" fill-rule="evenodd" fill-opacity="1" stroke="none"/>
<circle clip-path="url(#clip582)" cx="1862.34" cy="526.053" r="14.4" fill="#000000" fill-rule="evenodd" fill-opacity="1" stroke="none"/>
<circle clip-path="url(#clip582)" cx="1876.35" cy="482.982" r="14.4" fill="#000000" fill-rule="evenodd" fill-opacity="1" stroke="none"/>
<circle clip-path="url(#clip582)" cx="1890.37" cy="487.597" r="14.4" fill="#000000" fill-rule="evenodd" fill-opacity="1" stroke="none"/>
<circle clip-path="url(#clip582)" cx="1904.38" cy="540.41" r="14.4" fill="#000000" fill-rule="evenodd" fill-opacity="1" stroke="none"/>
<circle clip-path="url(#clip582)" cx="1918.4" cy="537.334" r="14.4" fill="#000000" fill-rule="evenodd" fill-opacity="1" stroke="none"/>
<circle clip-path="url(#clip582)" cx="1932.42" cy="534.257" r="14.4" fill="#000000" fill-rule="evenodd" fill-opacity="1" stroke="none"/>
<circle clip-path="url(#clip582)" cx="1946.43" cy="510.158" r="14.4" fill="#000000" fill-rule="evenodd" fill-opacity="1" stroke="none"/>
<circle clip-path="url(#clip582)" cx="1960.45" cy="487.084" r="14.4" fill="#000000" fill-rule="evenodd" fill-opacity="1" stroke="none"/>
<circle clip-path="url(#clip582)" cx="1974.46" cy="475.291" r="14.4" fill="#000000" fill-rule="evenodd" fill-opacity="1" stroke="none"/>
<circle clip-path="url(#clip582)" cx="1988.48" cy="462.472" r="14.4" fill="#000000" fill-rule="evenodd" fill-opacity="1" stroke="none"/>
<circle clip-path="url(#clip582)" cx="2002.5" cy="458.883" r="14.4" fill="#000000" fill-rule="evenodd" fill-opacity="1" stroke="none"/>
<circle clip-path="url(#clip582)" cx="2016.51" cy="468.112" r="14.4" fill="#000000" fill-rule="evenodd" fill-opacity="1" stroke="none"/>
<circle clip-path="url(#clip582)" cx="2030.53" cy="441.449" r="14.4" fill="#000000" fill-rule="evenodd" fill-opacity="1" stroke="none"/>
<circle clip-path="url(#clip582)" cx="2044.54" cy="426.579" r="14.4" fill="#000000" fill-rule="evenodd" fill-opacity="1" stroke="none"/>
<circle clip-path="url(#clip582)" cx="2058.56" cy="405.556" r="14.4" fill="#000000" fill-rule="evenodd" fill-opacity="1" stroke="none"/>
<circle clip-path="url(#clip582)" cx="2072.58" cy="369.663" r="14.4" fill="#000000" fill-rule="evenodd" fill-opacity="1" stroke="none"/>
<circle clip-path="url(#clip582)" cx="2086.59" cy="420.426" r="14.4" fill="#000000" fill-rule="evenodd" fill-opacity="1" stroke="none"/>
<circle clip-path="url(#clip582)" cx="2100.61" cy="376.842" r="14.4" fill="#000000" fill-rule="evenodd" fill-opacity="1" stroke="none"/>
<circle clip-path="url(#clip582)" cx="2114.62" cy="370.176" r="14.4" fill="#000000" fill-rule="evenodd" fill-opacity="1" stroke="none"/>
<circle clip-path="url(#clip582)" cx="2128.64" cy="341.975" r="14.4" fill="#000000" fill-rule="evenodd" fill-opacity="1" stroke="none"/>
<circle clip-path="url(#clip582)" cx="2142.66" cy="329.669" r="14.4" fill="#000000" fill-rule="evenodd" fill-opacity="1" stroke="none"/>
<circle clip-path="url(#clip582)" cx="2156.67" cy="282.495" r="14.4" fill="#000000" fill-rule="evenodd" fill-opacity="1" stroke="none"/>
<circle clip-path="url(#clip582)" cx="2170.69" cy="284.546" r="14.4" fill="#000000" fill-rule="evenodd" fill-opacity="1" stroke="none"/>
<circle clip-path="url(#clip582)" cx="2184.7" cy="284.034" r="14.4" fill="#000000" fill-rule="evenodd" fill-opacity="1" stroke="none"/>
<circle clip-path="url(#clip582)" cx="2198.72" cy="261.985" r="14.4" fill="#000000" fill-rule="evenodd" fill-opacity="1" stroke="none"/>
<circle clip-path="url(#clip582)" cx="2212.74" cy="252.243" r="14.4" fill="#000000" fill-rule="evenodd" fill-opacity="1" stroke="none"/>
<circle clip-path="url(#clip582)" cx="2226.75" cy="207.633" r="14.4" fill="#000000" fill-rule="evenodd" fill-opacity="1" stroke="none"/>
<circle clip-path="url(#clip582)" cx="2240.77" cy="177.894" r="14.4" fill="#000000" fill-rule="evenodd" fill-opacity="1" stroke="none"/>
<circle clip-path="url(#clip582)" cx="2254.78" cy="138.412" r="14.4" fill="#000000" fill-rule="evenodd" fill-opacity="1" stroke="none"/>
<circle clip-path="url(#clip582)" cx="2268.8" cy="130.208" r="14.4" fill="#000000" fill-rule="evenodd" fill-opacity="1" stroke="none"/>
<circle clip-path="url(#clip582)" cx="2282.82" cy="85.0853" r="14.4" fill="#000000" fill-rule="evenodd" fill-opacity="1" stroke="none"/>
<circle clip-path="url(#clip582)" cx="2296.83" cy="128.157" r="14.4" fill="#000000" fill-rule="evenodd" fill-opacity="1" stroke="none"/>
<path clip-path="url(#clip580)" d="M442.65 247.333 L1331.94 247.333 L1331.94 91.8126 L442.65 91.8126  Z" fill="#ffffff" fill-rule="evenodd" fill-opacity="1"/>
<polyline clip-path="url(#clip580)" style="stroke:#000000; stroke-linecap:round; stroke-linejoin:round; stroke-width:4; stroke-opacity:1; fill:none" points="442.65,247.333 1331.94,247.333 1331.94,91.8126 442.65,91.8126 442.65,247.333 "/>
<circle clip-path="url(#clip580)" cx="530.471" cy="169.573" r="30.72" fill="#000000" fill-rule="evenodd" fill-opacity="1" stroke="none"/>
<path clip-path="url(#clip580)" d="M642.875 171.187 Q645.132 171.951 647.25 174.451 Q649.402 176.951 651.555 181.326 L658.673 195.493 L651.139 195.493 L644.507 182.194 Q641.937 176.986 639.507 175.284 Q637.111 173.583 632.944 173.583 L625.305 173.583 L625.305 195.493 L618.292 195.493 L618.292 143.653 L634.125 143.653 Q643.014 143.653 647.389 147.368 Q651.764 151.083 651.764 158.583 Q651.764 163.479 649.472 166.708 Q647.215 169.937 642.875 171.187 M625.305 149.416 L625.305 167.819 L634.125 167.819 Q639.194 167.819 641.764 165.493 Q644.368 163.132 644.368 158.583 Q644.368 154.035 641.764 151.743 Q639.194 149.416 634.125 149.416 L625.305 149.416 Z" fill="#000000" fill-rule="nonzero" fill-opacity="1" /><path clip-path="url(#clip580)" d="M697.492 174.451 L697.492 177.576 L668.118 177.576 Q668.534 184.173 672.076 187.645 Q675.652 191.083 682.006 191.083 Q685.687 191.083 689.124 190.18 Q692.597 189.277 695.999 187.472 L695.999 193.513 Q692.562 194.972 688.951 195.736 Q685.34 196.5 681.625 196.5 Q672.319 196.5 666.868 191.083 Q661.451 185.666 661.451 176.43 Q661.451 166.882 666.59 161.291 Q671.763 155.666 680.513 155.666 Q688.361 155.666 692.909 160.736 Q697.492 165.771 697.492 174.451 M691.104 172.576 Q691.034 167.333 688.152 164.208 Q685.305 161.083 680.583 161.083 Q675.236 161.083 672.007 164.104 Q668.812 167.125 668.326 172.611 L691.104 172.576 Z" fill="#000000" fill-rule="nonzero" fill-opacity="1" /><path clip-path="url(#clip580)" d="M735.965 158.097 L735.965 164.069 Q733.256 162.576 730.513 161.847 Q727.805 161.083 725.027 161.083 Q718.812 161.083 715.374 165.041 Q711.937 168.965 711.937 176.083 Q711.937 183.201 715.374 187.159 Q718.812 191.083 725.027 191.083 Q727.805 191.083 730.513 190.354 Q733.256 189.59 735.965 188.097 L735.965 194 Q733.291 195.25 730.409 195.875 Q727.562 196.5 724.333 196.5 Q715.548 196.5 710.374 190.979 Q705.201 185.458 705.201 176.083 Q705.201 166.569 710.409 161.118 Q715.652 155.666 724.749 155.666 Q727.701 155.666 730.513 156.291 Q733.326 156.882 735.965 158.097 Z" fill="#000000" fill-rule="nonzero" fill-opacity="1" /><path clip-path="url(#clip580)" d="M762.145 161.083 Q757.006 161.083 754.02 165.111 Q751.034 169.104 751.034 176.083 Q751.034 183.062 753.985 187.09 Q756.971 191.083 762.145 191.083 Q767.249 191.083 770.235 187.055 Q773.221 183.027 773.221 176.083 Q773.221 169.173 770.235 165.146 Q767.249 161.083 762.145 161.083 M762.145 155.666 Q770.478 155.666 775.235 161.083 Q779.992 166.5 779.992 176.083 Q779.992 185.632 775.235 191.083 Q770.478 196.5 762.145 196.5 Q753.777 196.5 749.02 191.083 Q744.298 185.632 744.298 176.083 Q744.298 166.5 749.02 161.083 Q753.777 155.666 762.145 155.666 Z" fill="#000000" fill-rule="nonzero" fill-opacity="1" /><path clip-path="url(#clip580)" d="M822.908 172.021 L822.908 195.493 L816.52 195.493 L816.52 172.229 Q816.52 166.708 814.367 163.965 Q812.214 161.222 807.909 161.222 Q802.735 161.222 799.749 164.521 Q796.763 167.819 796.763 173.514 L796.763 195.493 L790.339 195.493 L790.339 156.604 L796.763 156.604 L796.763 162.646 Q799.054 159.139 802.145 157.403 Q805.27 155.666 809.332 155.666 Q816.034 155.666 819.471 159.833 Q822.908 163.965 822.908 172.021 Z" fill="#000000" fill-rule="nonzero" fill-opacity="1" /><path clip-path="url(#clip580)" d="M860.443 157.75 L860.443 163.791 Q857.735 162.403 854.818 161.708 Q851.901 161.014 848.776 161.014 Q844.019 161.014 841.624 162.472 Q839.263 163.93 839.263 166.847 Q839.263 169.069 840.964 170.354 Q842.665 171.604 847.804 172.75 L849.992 173.236 Q856.797 174.694 859.644 177.368 Q862.526 180.007 862.526 184.764 Q862.526 190.18 858.221 193.34 Q853.95 196.5 846.45 196.5 Q843.325 196.5 839.922 195.875 Q836.554 195.284 832.804 194.069 L832.804 187.472 Q836.346 189.312 839.783 190.25 Q843.221 191.152 846.589 191.152 Q851.103 191.152 853.533 189.625 Q855.964 188.062 855.964 185.25 Q855.964 182.645 854.193 181.257 Q852.457 179.868 846.519 178.583 L844.297 178.062 Q838.36 176.812 835.721 174.243 Q833.082 171.639 833.082 167.125 Q833.082 161.639 836.971 158.653 Q840.86 155.666 848.013 155.666 Q851.554 155.666 854.679 156.187 Q857.804 156.708 860.443 157.75 Z" fill="#000000" fill-rule="nonzero" fill-opacity="1" /><path clip-path="url(#clip580)" d="M879.019 145.562 L879.019 156.604 L892.179 156.604 L892.179 161.569 L879.019 161.569 L879.019 182.68 Q879.019 187.437 880.304 188.791 Q881.623 190.145 885.616 190.145 L892.179 190.145 L892.179 195.493 L885.616 195.493 Q878.221 195.493 875.408 192.75 Q872.596 189.972 872.596 182.68 L872.596 161.569 L867.908 161.569 L867.908 156.604 L872.596 156.604 L872.596 145.562 L879.019 145.562 Z" fill="#000000" fill-rule="nonzero" fill-opacity="1" /><path clip-path="url(#clip580)" d="M923.116 162.576 Q922.04 161.951 920.755 161.673 Q919.505 161.361 917.977 161.361 Q912.561 161.361 909.644 164.903 Q906.762 168.409 906.762 175.007 L906.762 195.493 L900.339 195.493 L900.339 156.604 L906.762 156.604 L906.762 162.646 Q908.776 159.104 912.005 157.403 Q915.234 155.666 919.852 155.666 Q920.512 155.666 921.311 155.771 Q922.109 155.84 923.082 156.014 L923.116 162.576 Z" fill="#000000" fill-rule="nonzero" fill-opacity="1" /><path clip-path="url(#clip580)" d="M929.158 180.145 L929.158 156.604 L935.547 156.604 L935.547 179.902 Q935.547 185.423 937.7 188.201 Q939.852 190.944 944.158 190.944 Q949.331 190.944 952.318 187.645 Q955.338 184.347 955.338 178.652 L955.338 156.604 L961.727 156.604 L961.727 195.493 L955.338 195.493 L955.338 189.52 Q953.012 193.062 949.922 194.798 Q946.866 196.5 942.804 196.5 Q936.102 196.5 932.63 192.333 Q929.158 188.166 929.158 180.145 M945.234 155.666 L945.234 155.666 Z" fill="#000000" fill-rule="nonzero" fill-opacity="1" /><path clip-path="url(#clip580)" d="M1002.87 158.097 L1002.87 164.069 Q1000.16 162.576 997.421 161.847 Q994.713 161.083 991.935 161.083 Q985.72 161.083 982.283 165.041 Q978.845 168.965 978.845 176.083 Q978.845 183.201 982.283 187.159 Q985.72 191.083 991.935 191.083 Q994.713 191.083 997.421 190.354 Q1000.16 189.59 1002.87 188.097 L1002.87 194 Q1000.2 195.25 997.317 195.875 Q994.47 196.5 991.241 196.5 Q982.456 196.5 977.283 190.979 Q972.109 185.458 972.109 176.083 Q972.109 166.569 977.317 161.118 Q982.56 155.666 991.658 155.666 Q994.609 155.666 997.421 156.291 Q1000.23 156.882 1002.87 158.097 Z" fill="#000000" fill-rule="nonzero" fill-opacity="1" /><path clip-path="url(#clip580)" d="M1020.3 145.562 L1020.3 156.604 L1033.46 156.604 L1033.46 161.569 L1020.3 161.569 L1020.3 182.68 Q1020.3 187.437 1021.59 188.791 Q1022.91 190.145 1026.9 190.145 L1033.46 190.145 L1033.46 195.493 L1026.9 195.493 Q1019.5 195.493 1016.69 192.75 Q1013.88 189.972 1013.88 182.68 L1013.88 161.569 L1009.19 161.569 L1009.19 156.604 L1013.88 156.604 L1013.88 145.562 L1020.3 145.562 Z" fill="#000000" fill-rule="nonzero" fill-opacity="1" /><path clip-path="url(#clip580)" d="M1075.13 174.451 L1075.13 177.576 L1045.75 177.576 Q1046.17 184.173 1049.71 187.645 Q1053.29 191.083 1059.64 191.083 Q1063.32 191.083 1066.76 190.18 Q1070.23 189.277 1073.64 187.472 L1073.64 193.513 Q1070.2 194.972 1066.59 195.736 Q1062.98 196.5 1059.26 196.5 Q1049.96 196.5 1044.5 191.083 Q1039.09 185.666 1039.09 176.43 Q1039.09 166.882 1044.23 161.291 Q1049.4 155.666 1058.15 155.666 Q1066 155.666 1070.55 160.736 Q1075.13 165.771 1075.13 174.451 M1068.74 172.576 Q1068.67 167.333 1065.79 164.208 Q1062.94 161.083 1058.22 161.083 Q1052.87 161.083 1049.64 164.104 Q1046.45 167.125 1045.96 172.611 L1068.74 172.576 Z" fill="#000000" fill-rule="nonzero" fill-opacity="1" /><path clip-path="url(#clip580)" d="M1111.21 162.507 L1111.21 141.465 L1117.59 141.465 L1117.59 195.493 L1111.21 195.493 L1111.21 189.659 Q1109.19 193.132 1106.1 194.833 Q1103.05 196.5 1098.74 196.5 Q1091.69 196.5 1087.25 190.875 Q1082.84 185.25 1082.84 176.083 Q1082.84 166.916 1087.25 161.291 Q1091.69 155.666 1098.74 155.666 Q1103.05 155.666 1106.1 157.368 Q1109.19 159.034 1111.21 162.507 M1089.43 176.083 Q1089.43 183.132 1092.32 187.159 Q1095.23 191.152 1100.3 191.152 Q1105.37 191.152 1108.29 187.159 Q1111.21 183.132 1111.21 176.083 Q1111.21 169.034 1108.29 165.041 Q1105.37 161.014 1100.3 161.014 Q1095.23 161.014 1092.32 165.041 Q1089.43 169.034 1089.43 176.083 Z" fill="#000000" fill-rule="nonzero" fill-opacity="1" /><path clip-path="url(#clip580)" d="M1160.65 149.416 L1160.65 189.729 L1169.12 189.729 Q1179.85 189.729 1184.82 184.868 Q1189.82 180.007 1189.82 169.521 Q1189.82 159.104 1184.82 154.278 Q1179.85 149.416 1169.12 149.416 L1160.65 149.416 M1153.64 143.653 L1168.05 143.653 Q1183.11 143.653 1190.16 149.937 Q1197.21 156.187 1197.21 169.521 Q1197.21 182.923 1190.13 189.208 Q1183.05 195.493 1168.05 195.493 L1153.64 195.493 L1153.64 143.653 Z" fill="#000000" fill-rule="nonzero" fill-opacity="1" /><path clip-path="url(#clip580)" d="M1225.79 175.944 Q1218.05 175.944 1215.06 177.715 Q1212.07 179.486 1212.07 183.757 Q1212.07 187.159 1214.3 189.173 Q1216.55 191.152 1220.41 191.152 Q1225.72 191.152 1228.91 187.402 Q1232.14 183.618 1232.14 177.368 L1232.14 175.944 L1225.79 175.944 M1238.53 173.305 L1238.53 195.493 L1232.14 195.493 L1232.14 189.59 Q1229.95 193.132 1226.69 194.833 Q1223.43 196.5 1218.7 196.5 Q1212.73 196.5 1209.19 193.166 Q1205.68 189.798 1205.68 184.173 Q1205.68 177.611 1210.06 174.277 Q1214.47 170.944 1223.18 170.944 L1232.14 170.944 L1232.14 170.319 Q1232.14 165.909 1229.23 163.514 Q1226.34 161.083 1221.1 161.083 Q1217.77 161.083 1214.61 161.882 Q1211.45 162.68 1208.53 164.278 L1208.53 158.375 Q1212.04 157.021 1215.34 156.361 Q1218.64 155.666 1221.76 155.666 Q1230.2 155.666 1234.36 160.041 Q1238.53 164.416 1238.53 173.305 Z" fill="#000000" fill-rule="nonzero" fill-opacity="1" /><path clip-path="url(#clip580)" d="M1258.01 145.562 L1258.01 156.604 L1271.17 156.604 L1271.17 161.569 L1258.01 161.569 L1258.01 182.68 Q1258.01 187.437 1259.3 188.791 Q1260.61 190.145 1264.61 190.145 L1271.17 190.145 L1271.17 195.493 L1264.61 195.493 Q1257.21 195.493 1254.4 192.75 Q1251.59 189.972 1251.59 182.68 L1251.59 161.569 L1246.9 161.569 L1246.9 156.604 L1251.59 156.604 L1251.59 145.562 L1258.01 145.562 Z" fill="#000000" fill-rule="nonzero" fill-opacity="1" /><path clip-path="url(#clip580)" d="M1297.25 175.944 Q1289.5 175.944 1286.52 177.715 Q1283.53 179.486 1283.53 183.757 Q1283.53 187.159 1285.75 189.173 Q1288.01 191.152 1291.86 191.152 Q1297.18 191.152 1300.37 187.402 Q1303.6 183.618 1303.6 177.368 L1303.6 175.944 L1297.25 175.944 M1309.99 173.305 L1309.99 195.493 L1303.6 195.493 L1303.6 189.59 Q1301.41 193.132 1298.15 194.833 Q1294.89 196.5 1290.16 196.5 Q1284.19 196.5 1280.65 193.166 Q1277.14 189.798 1277.14 184.173 Q1277.14 177.611 1281.52 174.277 Q1285.93 170.944 1294.64 170.944 L1303.6 170.944 L1303.6 170.319 Q1303.6 165.909 1300.68 163.514 Q1297.8 161.083 1292.56 161.083 Q1289.23 161.083 1286.07 161.882 Q1282.91 162.68 1279.99 164.278 L1279.99 158.375 Q1283.5 157.021 1286.79 156.361 Q1290.09 155.666 1293.22 155.666 Q1301.66 155.666 1305.82 160.041 Q1309.99 164.416 1309.99 173.305 Z" fill="#000000" fill-rule="nonzero" fill-opacity="1" /></svg>
