<?xml version="1.0" encoding="utf-8"?>
<svg xmlns="http://www.w3.org/2000/svg" xmlns:xlink="http://www.w3.org/1999/xlink" width="600" height="400" viewBox="0 0 2400 1600">
<defs>
  <clipPath id="clip550">
    <rect x="0" y="0" width="2400" height="1600"/>
  </clipPath>
</defs>
<path clip-path="url(#clip550)" d="
M0 1600 L2400 1600 L2400 0 L0 0  Z
  " fill="#ffffff" fill-rule="evenodd" fill-opacity="1"/>
<defs>
  <clipPath id="clip551">
    <rect x="480" y="0" width="1681" height="1600"/>
  </clipPath>
</defs>
<path clip-path="url(#clip550)" d="
M321.24 1392.94 L2352.76 1392.94 L2352.76 47.2441 L321.24 47.2441  Z
  " fill="#ffffff" fill-rule="evenodd" fill-opacity="1"/>
<defs>
  <clipPath id="clip552">
    <rect x="321" y="47" width="2033" height="1347"/>
  </clipPath>
</defs>
<polyline clip-path="url(#clip550)" style="stroke:#000000; stroke-linecap:round; stroke-linejoin:round; stroke-width:4; stroke-opacity:1; fill:none" points="
  321.24,1392.94 2352.76,1392.94 
  "/>
<polyline clip-path="url(#clip550)" style="stroke:#000000; stroke-linecap:round; stroke-linejoin:round; stroke-width:4; stroke-opacity:1; fill:none" points="
  599.873,1392.94 599.873,1374.04 
  "/>
<polyline clip-path="url(#clip550)" style="stroke:#000000; stroke-linecap:round; stroke-linejoin:round; stroke-width:4; stroke-opacity:1; fill:none" points="
  968.436,1392.94 968.436,1374.04 
  "/>
<polyline clip-path="url(#clip550)" style="stroke:#000000; stroke-linecap:round; stroke-linejoin:round; stroke-width:4; stroke-opacity:1; fill:none" points="
  1337,1392.94 1337,1374.04 
  "/>
<polyline clip-path="url(#clip550)" style="stroke:#000000; stroke-linecap:round; stroke-linejoin:round; stroke-width:4; stroke-opacity:1; fill:none" points="
  1705.56,1392.94 1705.56,1374.04 
  "/>
<polyline clip-path="url(#clip550)" style="stroke:#000000; stroke-linecap:round; stroke-linejoin:round; stroke-width:4; stroke-opacity:1; fill:none" points="
  2074.12,1392.94 2074.12,1374.04 
  "/>
<path clip-path="url(#clip550)" d="M557.478 1471.04 L581.957 1471.04 L581.957 1476.94 L549.04 1476.94 L549.04 1471.04 Q553.033 1466.91 559.908 1459.96 Q566.818 1452.98 568.589 1450.97 Q571.957 1447.18 573.276 1444.58 Q574.63 1441.94 574.63 1439.41 Q574.63 1435.27 571.714 1432.67 Q568.832 1430.07 564.179 1430.07 Q560.88 1430.07 557.2 1431.21 Q553.554 1432.36 549.387 1434.68 L549.387 1427.6 Q553.624 1425.9 557.304 1425.03 Q560.985 1424.16 564.04 1424.16 Q572.096 1424.16 576.887 1428.19 Q581.679 1432.22 581.679 1438.95 Q581.679 1442.15 580.464 1445.03 Q579.283 1447.88 576.123 1451.77 Q575.255 1452.77 570.603 1457.6 Q565.95 1462.39 557.478 1471.04 Z" fill="#000000" fill-rule="evenodd" fill-opacity="1" /><path clip-path="url(#clip550)" d="M596.679 1468.12 L604.005 1468.12 L604.005 1476.94 L596.679 1476.94 L596.679 1468.12 Z" fill="#000000" fill-rule="evenodd" fill-opacity="1" /><path clip-path="url(#clip550)" d="M619.352 1425.1 L646.887 1425.1 L646.887 1431 L625.776 1431 L625.776 1443.71 Q627.304 1443.19 628.831 1442.95 Q630.359 1442.67 631.887 1442.67 Q640.568 1442.67 645.637 1447.43 Q650.706 1452.18 650.706 1460.31 Q650.706 1468.68 645.498 1473.33 Q640.29 1477.95 630.811 1477.95 Q627.547 1477.95 624.144 1477.39 Q620.776 1476.84 617.165 1475.72 L617.165 1468.68 Q620.29 1470.38 623.623 1471.21 Q626.956 1472.04 630.672 1472.04 Q636.679 1472.04 640.186 1468.88 Q643.693 1465.72 643.693 1460.31 Q643.693 1454.89 640.186 1451.73 Q636.679 1448.57 630.672 1448.57 Q627.859 1448.57 625.047 1449.2 Q622.269 1449.82 619.352 1451.14 L619.352 1425.1 Z" fill="#000000" fill-rule="evenodd" fill-opacity="1" /><path clip-path="url(#clip550)" d="M919.182 1425.1 L946.717 1425.1 L946.717 1431 L925.606 1431 L925.606 1443.71 Q927.134 1443.19 928.662 1442.95 Q930.189 1442.67 931.717 1442.67 Q940.398 1442.67 945.467 1447.43 Q950.536 1452.18 950.536 1460.31 Q950.536 1468.68 945.328 1473.33 Q940.12 1477.95 930.641 1477.95 Q927.377 1477.95 923.974 1477.39 Q920.606 1476.84 916.995 1475.72 L916.995 1468.68 Q920.12 1470.38 923.453 1471.21 Q926.787 1472.04 930.502 1472.04 Q936.509 1472.04 940.016 1468.88 Q943.523 1465.72 943.523 1460.31 Q943.523 1454.89 940.016 1451.73 Q936.509 1448.57 930.502 1448.57 Q927.689 1448.57 924.877 1449.2 Q922.099 1449.82 919.182 1451.14 L919.182 1425.1 Z" fill="#000000" fill-rule="evenodd" fill-opacity="1" /><path clip-path="url(#clip550)" d="M964.356 1468.12 L971.682 1468.12 L971.682 1476.94 L964.356 1476.94 L964.356 1468.12 Z" fill="#000000" fill-rule="evenodd" fill-opacity="1" /><path clip-path="url(#clip550)" d="M1001.96 1429.72 Q996.543 1429.72 993.8 1435.07 Q991.092 1440.38 991.092 1451.07 Q991.092 1461.73 993.8 1467.08 Q996.543 1472.39 1001.96 1472.39 Q1007.41 1472.39 1010.12 1467.08 Q1012.86 1461.73 1012.86 1451.07 Q1012.86 1440.38 1010.12 1435.07 Q1007.41 1429.72 1001.96 1429.72 M1001.96 1424.16 Q1010.68 1424.16 1015.26 1431.07 Q1019.88 1437.95 1019.88 1451.07 Q1019.88 1464.16 1015.26 1471.07 Q1010.68 1477.95 1001.96 1477.95 Q993.245 1477.95 988.627 1471.07 Q984.043 1464.16 984.043 1451.07 Q984.043 1437.95 988.627 1431.07 Q993.245 1424.16 1001.96 1424.16 Z" fill="#000000" fill-rule="evenodd" fill-opacity="1" /><path clip-path="url(#clip550)" d="M1286.48 1425.1 L1319.81 1425.1 L1319.81 1428.09 L1300.99 1476.94 L1293.66 1476.94 L1311.37 1431 L1286.48 1431 L1286.48 1425.1 Z" fill="#000000" fill-rule="evenodd" fill-opacity="1" /><path clip-path="url(#clip550)" d="M1333.49 1468.12 L1340.82 1468.12 L1340.82 1476.94 L1333.49 1476.94 L1333.49 1468.12 Z" fill="#000000" fill-rule="evenodd" fill-opacity="1" /><path clip-path="url(#clip550)" d="M1356.16 1425.1 L1383.7 1425.1 L1383.7 1431 L1362.59 1431 L1362.59 1443.71 Q1364.12 1443.19 1365.64 1442.95 Q1367.17 1442.67 1368.7 1442.67 Q1377.38 1442.67 1382.45 1447.43 Q1387.52 1452.18 1387.52 1460.31 Q1387.52 1468.68 1382.31 1473.33 Q1377.1 1477.95 1367.62 1477.95 Q1364.36 1477.95 1360.96 1477.39 Q1357.59 1476.84 1353.98 1475.72 L1353.98 1468.68 Q1357.1 1470.38 1360.44 1471.21 Q1363.77 1472.04 1367.48 1472.04 Q1373.49 1472.04 1377 1468.88 Q1380.5 1465.72 1380.5 1460.31 Q1380.5 1454.89 1377 1451.73 Q1373.49 1448.57 1367.48 1448.57 Q1364.67 1448.57 1361.86 1449.2 Q1359.08 1449.82 1356.16 1451.14 L1356.16 1425.1 Z" fill="#000000" fill-rule="evenodd" fill-opacity="1" /><path clip-path="url(#clip550)" d="M1633.67 1471.04 L1645.13 1471.04 L1645.13 1431.49 L1632.66 1433.99 L1632.66 1427.6 L1645.06 1425.1 L1652.07 1425.1 L1652.07 1471.04 L1663.53 1471.04 L1663.53 1476.94 L1633.67 1476.94 L1633.67 1471.04 Z" fill="#000000" fill-rule="evenodd" fill-opacity="1" /><path clip-path="url(#clip550)" d="M1692.7 1429.72 Q1687.28 1429.72 1684.54 1435.07 Q1681.83 1440.38 1681.83 1451.07 Q1681.83 1461.73 1684.54 1467.08 Q1687.28 1472.39 1692.7 1472.39 Q1698.15 1472.39 1700.86 1467.08 Q1703.6 1461.73 1703.6 1451.07 Q1703.6 1440.38 1700.86 1435.07 Q1698.15 1429.72 1692.7 1429.72 M1692.7 1424.16 Q1701.41 1424.16 1705.99 1431.07 Q1710.61 1437.95 1710.61 1451.07 Q1710.61 1464.16 1705.99 1471.07 Q1701.41 1477.95 1692.7 1477.95 Q1683.98 1477.95 1679.36 1471.07 Q1674.78 1464.16 1674.78 1451.07 Q1674.78 1437.95 1679.36 1431.07 Q1683.98 1424.16 1692.7 1424.16 Z" fill="#000000" fill-rule="evenodd" fill-opacity="1" /><path clip-path="url(#clip550)" d="M1722.94 1468.12 L1730.27 1468.12 L1730.27 1476.94 L1722.94 1476.94 L1722.94 1468.12 Z" fill="#000000" fill-rule="evenodd" fill-opacity="1" /><path clip-path="url(#clip550)" d="M1760.54 1429.72 Q1755.13 1429.72 1752.38 1435.07 Q1749.67 1440.38 1749.67 1451.07 Q1749.67 1461.73 1752.38 1467.08 Q1755.13 1472.39 1760.54 1472.39 Q1765.99 1472.39 1768.7 1467.08 Q1771.45 1461.73 1771.45 1451.07 Q1771.45 1440.38 1768.7 1435.07 Q1765.99 1429.72 1760.54 1429.72 M1760.54 1424.16 Q1769.26 1424.16 1773.84 1431.07 Q1778.46 1437.95 1778.46 1451.07 Q1778.46 1464.16 1773.84 1471.07 Q1769.26 1477.95 1760.54 1477.95 Q1751.83 1477.95 1747.21 1471.07 Q1742.63 1464.16 1742.63 1451.07 Q1742.63 1437.95 1747.21 1431.07 Q1751.83 1424.16 1760.54 1424.16 Z" fill="#000000" fill-rule="evenodd" fill-opacity="1" /><path clip-path="url(#clip550)" d="M2002.98 1471.04 L2014.44 1471.04 L2014.44 1431.49 L2001.97 1433.99 L2001.97 1427.6 L2014.37 1425.1 L2021.38 1425.1 L2021.38 1471.04 L2032.84 1471.04 L2032.84 1476.94 L2002.98 1476.94 L2002.98 1471.04 Z" fill="#000000" fill-rule="evenodd" fill-opacity="1" /><path clip-path="url(#clip550)" d="M2053.05 1471.04 L2077.53 1471.04 L2077.53 1476.94 L2044.61 1476.94 L2044.61 1471.04 Q2048.6 1466.91 2055.48 1459.96 Q2062.39 1452.98 2064.16 1450.97 Q2067.53 1447.18 2068.85 1444.58 Q2070.2 1441.94 2070.2 1439.41 Q2070.2 1435.27 2067.28 1432.67 Q2064.4 1430.07 2059.75 1430.07 Q2056.45 1430.07 2052.77 1431.21 Q2049.12 1432.36 2044.96 1434.68 L2044.96 1427.6 Q2049.19 1425.9 2052.87 1425.03 Q2056.55 1424.16 2059.61 1424.16 Q2067.66 1424.16 2072.46 1428.19 Q2077.25 1432.22 2077.25 1438.95 Q2077.25 1442.15 2076.03 1445.03 Q2074.85 1447.88 2071.69 1451.77 Q2070.82 1452.77 2066.17 1457.6 Q2061.52 1462.39 2053.05 1471.04 Z" fill="#000000" fill-rule="evenodd" fill-opacity="1" /><path clip-path="url(#clip550)" d="M2092.25 1468.12 L2099.57 1468.12 L2099.57 1476.94 L2092.25 1476.94 L2092.25 1468.12 Z" fill="#000000" fill-rule="evenodd" fill-opacity="1" /><path clip-path="url(#clip550)" d="M2114.92 1425.1 L2142.46 1425.1 L2142.46 1431 L2121.34 1431 L2121.34 1443.71 Q2122.87 1443.19 2124.4 1442.95 Q2125.93 1442.67 2127.46 1442.67 Q2136.14 1442.67 2141.21 1447.43 Q2146.28 1452.18 2146.28 1460.31 Q2146.28 1468.68 2141.07 1473.33 Q2135.86 1477.95 2126.38 1477.95 Q2123.12 1477.95 2119.71 1477.39 Q2116.34 1476.84 2112.73 1475.72 L2112.73 1468.68 Q2115.86 1470.38 2119.19 1471.21 Q2122.53 1472.04 2126.24 1472.04 Q2132.25 1472.04 2135.75 1468.88 Q2139.26 1465.72 2139.26 1460.31 Q2139.26 1454.89 2135.75 1451.73 Q2132.25 1448.57 2126.24 1448.57 Q2123.43 1448.57 2120.62 1449.2 Q2117.84 1449.82 2114.92 1451.14 L2114.92 1425.1 Z" fill="#000000" fill-rule="evenodd" fill-opacity="1" /><path clip-path="url(#clip550)" d="M1269.98 1518.8 L1278.16 1518.8 L1278.16 1572.39 L1307.61 1572.39 L1307.61 1579.28 L1269.98 1579.28 L1269.98 1518.8 Z" fill="#000000" fill-rule="evenodd" fill-opacity="1" /><path clip-path="url(#clip550)" d="M1336.49 1556.47 Q1327.46 1556.47 1323.97 1558.54 Q1320.49 1560.6 1320.49 1565.58 Q1320.49 1569.55 1323.08 1571.9 Q1325.72 1574.21 1330.21 1574.21 Q1336.41 1574.21 1340.14 1569.84 Q1343.9 1565.42 1343.9 1558.13 L1343.9 1556.47 L1336.49 1556.47 M1351.36 1553.39 L1351.36 1579.28 L1343.9 1579.28 L1343.9 1572.39 Q1341.35 1576.52 1337.54 1578.51 Q1333.74 1580.45 1328.23 1580.45 Q1321.26 1580.45 1317.13 1576.56 Q1313.04 1572.63 1313.04 1566.07 Q1313.04 1558.41 1318.14 1554.52 Q1323.29 1550.64 1333.45 1550.64 L1343.9 1550.64 L1343.9 1549.91 Q1343.9 1544.76 1340.5 1541.97 Q1337.14 1539.13 1331.02 1539.13 Q1327.13 1539.13 1323.45 1540.06 Q1319.76 1540.99 1316.36 1542.86 L1316.36 1535.97 Q1320.45 1534.39 1324.3 1533.62 Q1328.15 1532.81 1331.79 1532.81 Q1341.64 1532.81 1346.5 1537.92 Q1351.36 1543.02 1351.36 1553.39 Z" fill="#000000" fill-rule="evenodd" fill-opacity="1" /><path clip-path="url(#clip550)" d="M1396.57 1556.06 Q1396.57 1547.96 1393.2 1543.51 Q1389.88 1539.05 1383.85 1539.05 Q1377.85 1539.05 1374.49 1543.51 Q1371.17 1547.96 1371.17 1556.06 Q1371.17 1564.13 1374.49 1568.58 Q1377.85 1573.04 1383.85 1573.04 Q1389.88 1573.04 1393.2 1568.58 Q1396.57 1564.13 1396.57 1556.06 M1404.02 1573.65 Q1404.02 1585.23 1398.88 1590.86 Q1393.73 1596.53 1383.12 1596.53 Q1379.19 1596.53 1375.7 1595.93 Q1372.22 1595.36 1368.94 1594.14 L1368.94 1586.89 Q1372.22 1588.67 1375.42 1589.52 Q1378.62 1590.38 1381.94 1590.38 Q1389.27 1590.38 1392.92 1586.53 Q1396.57 1582.72 1396.57 1574.98 L1396.57 1571.3 Q1394.26 1575.31 1390.65 1577.29 Q1387.05 1579.28 1382.02 1579.28 Q1373.68 1579.28 1368.57 1572.92 Q1363.47 1566.56 1363.47 1556.06 Q1363.47 1545.53 1368.57 1539.17 Q1373.68 1532.81 1382.02 1532.81 Q1387.05 1532.81 1390.65 1534.8 Q1394.26 1536.78 1396.57 1540.79 L1396.57 1533.91 L1404.02 1533.91 L1404.02 1573.65 Z" fill="#000000" fill-rule="evenodd" fill-opacity="1" /><polyline clip-path="url(#clip550)" style="stroke:#000000; stroke-linecap:round; stroke-linejoin:round; stroke-width:4; stroke-opacity:1; fill:none" points="
  321.24,1392.94 321.24,47.2441 
  "/>
<polyline clip-path="url(#clip550)" style="stroke:#000000; stroke-linecap:round; stroke-linejoin:round; stroke-width:4; stroke-opacity:1; fill:none" points="
  321.24,1214.5 340.138,1214.5 
  "/>
<polyline clip-path="url(#clip550)" style="stroke:#000000; stroke-linecap:round; stroke-linejoin:round; stroke-width:4; stroke-opacity:1; fill:none" points="
  321.24,1026.31 340.138,1026.31 
  "/>
<polyline clip-path="url(#clip550)" style="stroke:#000000; stroke-linecap:round; stroke-linejoin:round; stroke-width:4; stroke-opacity:1; fill:none" points="
  321.24,838.112 340.138,838.112 
  "/>
<polyline clip-path="url(#clip550)" style="stroke:#000000; stroke-linecap:round; stroke-linejoin:round; stroke-width:4; stroke-opacity:1; fill:none" points="
  321.24,649.917 340.138,649.917 
  "/>
<polyline clip-path="url(#clip550)" style="stroke:#000000; stroke-linecap:round; stroke-linejoin:round; stroke-width:4; stroke-opacity:1; fill:none" points="
  321.24,461.721 340.138,461.721 
  "/>
<polyline clip-path="url(#clip550)" style="stroke:#000000; stroke-linecap:round; stroke-linejoin:round; stroke-width:4; stroke-opacity:1; fill:none" points="
  321.24,273.525 340.138,273.525 
  "/>
<polyline clip-path="url(#clip550)" style="stroke:#000000; stroke-linecap:round; stroke-linejoin:round; stroke-width:4; stroke-opacity:1; fill:none" points="
  321.24,85.3298 340.138,85.3298 
  "/>
<path clip-path="url(#clip550)" d="M127.22 1215.18 L171.734 1215.18 L171.734 1221.08 L127.22 1221.08 L127.22 1215.18 Z" fill="#000000" fill-rule="evenodd" fill-opacity="1" /><path clip-path="url(#clip550)" d="M201.873 1193.2 Q196.456 1193.2 193.713 1198.55 Q191.005 1203.86 191.005 1214.56 Q191.005 1225.22 193.713 1230.56 Q196.456 1235.87 201.873 1235.87 Q207.324 1235.87 210.032 1230.56 Q212.775 1225.22 212.775 1214.56 Q212.775 1203.86 210.032 1198.55 Q207.324 1193.2 201.873 1193.2 M201.873 1187.65 Q210.588 1187.65 215.171 1194.56 Q219.789 1201.43 219.789 1214.56 Q219.789 1227.65 215.171 1234.56 Q210.588 1241.43 201.873 1241.43 Q193.157 1241.43 188.539 1234.56 Q183.956 1227.65 183.956 1214.56 Q183.956 1201.43 188.539 1194.56 Q193.157 1187.65 201.873 1187.65 Z" fill="#000000" fill-rule="evenodd" fill-opacity="1" /><path clip-path="url(#clip550)" d="M232.115 1231.6 L239.442 1231.6 L239.442 1240.42 L232.115 1240.42 L232.115 1231.6 Z" fill="#000000" fill-rule="evenodd" fill-opacity="1" /><path clip-path="url(#clip550)" d="M260.761 1234.52 L285.24 1234.52 L285.24 1240.42 L252.324 1240.42 L252.324 1234.52 Q256.317 1230.39 263.192 1223.44 Q270.101 1216.47 271.872 1214.45 Q275.24 1210.67 276.56 1208.06 Q277.914 1205.42 277.914 1202.89 Q277.914 1198.76 274.997 1196.15 Q272.115 1193.55 267.462 1193.55 Q264.164 1193.55 260.483 1194.69 Q256.838 1195.84 252.671 1198.17 L252.671 1191.08 Q256.907 1189.38 260.587 1188.51 Q264.268 1187.65 267.324 1187.65 Q275.379 1187.65 280.171 1191.67 Q284.962 1195.7 284.962 1202.44 Q284.962 1205.63 283.747 1208.51 Q282.567 1211.36 279.407 1215.25 Q278.539 1216.26 273.886 1221.08 Q269.233 1225.87 260.761 1234.52 Z" fill="#000000" fill-rule="evenodd" fill-opacity="1" /><path clip-path="url(#clip550)" d="M199.477 1005.01 Q194.06 1005.01 191.317 1010.35 Q188.609 1015.67 188.609 1026.36 Q188.609 1037.02 191.317 1042.37 Q194.06 1047.68 199.477 1047.68 Q204.928 1047.68 207.636 1042.37 Q210.379 1037.02 210.379 1026.36 Q210.379 1015.67 207.636 1010.35 Q204.928 1005.01 199.477 1005.01 M199.477 999.45 Q208.192 999.45 212.775 1006.36 Q217.393 1013.23 217.393 1026.36 Q217.393 1039.45 212.775 1046.36 Q208.192 1053.23 199.477 1053.23 Q190.761 1053.23 186.143 1046.36 Q181.56 1039.45 181.56 1026.36 Q181.56 1013.23 186.143 1006.36 Q190.761 999.45 199.477 999.45 Z" fill="#000000" fill-rule="evenodd" fill-opacity="1" /><path clip-path="url(#clip550)" d="M229.72 1043.41 L237.046 1043.41 L237.046 1052.23 L229.72 1052.23 L229.72 1043.41 Z" fill="#000000" fill-rule="evenodd" fill-opacity="1" /><path clip-path="url(#clip550)" d="M267.324 1005.01 Q261.907 1005.01 259.164 1010.35 Q256.456 1015.67 256.456 1026.36 Q256.456 1037.02 259.164 1042.37 Q261.907 1047.68 267.324 1047.68 Q272.775 1047.68 275.483 1042.37 Q278.226 1037.02 278.226 1026.36 Q278.226 1015.67 275.483 1010.35 Q272.775 1005.01 267.324 1005.01 M267.324 999.45 Q276.039 999.45 280.622 1006.36 Q285.24 1013.23 285.24 1026.36 Q285.24 1039.45 280.622 1046.36 Q276.039 1053.23 267.324 1053.23 Q258.608 1053.23 253.99 1046.36 Q249.407 1039.45 249.407 1026.36 Q249.407 1013.23 253.99 1006.36 Q258.608 999.45 267.324 999.45 Z" fill="#000000" fill-rule="evenodd" fill-opacity="1" /><path clip-path="url(#clip550)" d="M201.873 816.81 Q196.456 816.81 193.713 822.157 Q191.005 827.47 191.005 838.164 Q191.005 848.824 193.713 854.171 Q196.456 859.484 201.873 859.484 Q207.324 859.484 210.032 854.171 Q212.775 848.824 212.775 838.164 Q212.775 827.47 210.032 822.157 Q207.324 816.81 201.873 816.81 M201.873 811.255 Q210.588 811.255 215.171 818.164 Q219.789 825.039 219.789 838.164 Q219.789 851.254 215.171 858.164 Q210.588 865.039 201.873 865.039 Q193.157 865.039 188.539 858.164 Q183.956 851.254 183.956 838.164 Q183.956 825.039 188.539 818.164 Q193.157 811.255 201.873 811.255 Z" fill="#000000" fill-rule="evenodd" fill-opacity="1" /><path clip-path="url(#clip550)" d="M232.115 855.213 L239.442 855.213 L239.442 864.032 L232.115 864.032 L232.115 855.213 Z" fill="#000000" fill-rule="evenodd" fill-opacity="1" /><path clip-path="url(#clip550)" d="M260.761 858.129 L285.24 858.129 L285.24 864.032 L252.324 864.032 L252.324 858.129 Q256.317 853.997 263.192 847.053 Q270.101 840.074 271.872 838.06 Q275.24 834.275 276.56 831.671 Q277.914 829.032 277.914 826.498 Q277.914 822.366 274.997 819.762 Q272.115 817.157 267.462 817.157 Q264.164 817.157 260.483 818.303 Q256.838 819.449 252.671 821.775 L252.671 814.692 Q256.907 812.991 260.587 812.123 Q264.268 811.255 267.324 811.255 Q275.379 811.255 280.171 815.282 Q284.962 819.31 284.962 826.046 Q284.962 829.241 283.747 832.123 Q282.567 834.97 279.407 838.859 Q278.539 839.866 273.886 844.692 Q269.233 849.484 260.761 858.129 Z" fill="#000000" fill-rule="evenodd" fill-opacity="1" /><path clip-path="url(#clip550)" d="M198.748 628.615 Q193.331 628.615 190.588 633.962 Q187.88 639.274 187.88 649.969 Q187.88 660.628 190.588 665.975 Q193.331 671.288 198.748 671.288 Q204.199 671.288 206.907 665.975 Q209.65 660.628 209.65 649.969 Q209.65 639.274 206.907 633.962 Q204.199 628.615 198.748 628.615 M198.748 623.059 Q207.463 623.059 212.046 629.969 Q216.664 636.844 216.664 649.969 Q216.664 663.059 212.046 669.969 Q207.463 676.843 198.748 676.843 Q190.032 676.843 185.414 669.969 Q180.831 663.059 180.831 649.969 Q180.831 636.844 185.414 629.969 Q190.032 623.059 198.748 623.059 Z" fill="#000000" fill-rule="evenodd" fill-opacity="1" /><path clip-path="url(#clip550)" d="M228.99 667.017 L236.317 667.017 L236.317 675.837 L228.99 675.837 L228.99 667.017 Z" fill="#000000" fill-rule="evenodd" fill-opacity="1" /><path clip-path="url(#clip550)" d="M270.865 630.108 L253.157 657.781 L270.865 657.781 L270.865 630.108 M269.025 623.997 L277.844 623.997 L277.844 657.781 L285.24 657.781 L285.24 663.614 L277.844 663.614 L277.844 675.837 L270.865 675.837 L270.865 663.614 L247.463 663.614 L247.463 656.844 L269.025 623.997 Z" fill="#000000" fill-rule="evenodd" fill-opacity="1" /><path clip-path="url(#clip550)" d="M199.234 440.419 Q193.817 440.419 191.074 445.766 Q188.366 451.079 188.366 461.773 Q188.366 472.433 191.074 477.78 Q193.817 483.092 199.234 483.092 Q204.685 483.092 207.393 477.78 Q210.136 472.433 210.136 461.773 Q210.136 451.079 207.393 445.766 Q204.685 440.419 199.234 440.419 M199.234 434.863 Q207.949 434.863 212.532 441.773 Q217.15 448.648 217.15 461.773 Q217.15 474.863 212.532 481.773 Q207.949 488.648 199.234 488.648 Q190.518 488.648 185.9 481.773 Q181.317 474.863 181.317 461.773 Q181.317 448.648 185.9 441.773 Q190.518 434.863 199.234 434.863 Z" fill="#000000" fill-rule="evenodd" fill-opacity="1" /><path clip-path="url(#clip550)" d="M229.477 478.822 L236.803 478.822 L236.803 487.641 L229.477 487.641 L229.477 478.822 Z" fill="#000000" fill-rule="evenodd" fill-opacity="1" /><path clip-path="url(#clip550)" d="M267.949 458.926 Q263.226 458.926 260.449 462.155 Q257.706 465.384 257.706 471.009 Q257.706 476.599 260.449 479.863 Q263.226 483.092 267.949 483.092 Q272.671 483.092 275.414 479.863 Q278.192 476.599 278.192 471.009 Q278.192 465.384 275.414 462.155 Q272.671 458.926 267.949 458.926 M281.872 436.947 L281.872 443.336 Q279.233 442.086 276.525 441.426 Q273.851 440.766 271.212 440.766 Q264.268 440.766 260.587 445.454 Q256.942 450.141 256.421 459.62 Q258.469 456.599 261.56 455.002 Q264.65 453.37 268.365 453.37 Q276.178 453.37 280.692 458.127 Q285.24 462.849 285.24 471.009 Q285.24 478.995 280.518 483.822 Q275.796 488.648 267.949 488.648 Q258.956 488.648 254.199 481.773 Q249.442 474.863 249.442 461.773 Q249.442 449.481 255.275 442.19 Q261.108 434.863 270.935 434.863 Q273.574 434.863 276.247 435.384 Q278.955 435.905 281.872 436.947 Z" fill="#000000" fill-rule="evenodd" fill-opacity="1" /><path clip-path="url(#clip550)" d="M199.616 252.223 Q194.199 252.223 191.456 257.571 Q188.748 262.883 188.748 273.577 Q188.748 284.237 191.456 289.584 Q194.199 294.897 199.616 294.897 Q205.067 294.897 207.775 289.584 Q210.518 284.237 210.518 273.577 Q210.518 262.883 207.775 257.571 Q205.067 252.223 199.616 252.223 M199.616 246.668 Q208.331 246.668 212.914 253.578 Q217.532 260.453 217.532 273.577 Q217.532 286.668 212.914 293.577 Q208.331 300.452 199.616 300.452 Q190.9 300.452 186.282 293.577 Q181.699 286.668 181.699 273.577 Q181.699 260.453 186.282 253.578 Q190.9 246.668 199.616 246.668 Z" fill="#000000" fill-rule="evenodd" fill-opacity="1" /><path clip-path="url(#clip550)" d="M229.858 290.626 L237.185 290.626 L237.185 299.445 L229.858 299.445 L229.858 290.626 Z" fill="#000000" fill-rule="evenodd" fill-opacity="1" /><path clip-path="url(#clip550)" d="M267.462 274.827 Q262.462 274.827 259.581 277.501 Q256.733 280.175 256.733 284.862 Q256.733 289.55 259.581 292.223 Q262.462 294.897 267.462 294.897 Q272.462 294.897 275.344 292.223 Q278.226 289.515 278.226 284.862 Q278.226 280.175 275.344 277.501 Q272.497 274.827 267.462 274.827 M260.449 271.841 Q255.935 270.73 253.4 267.64 Q250.9 264.55 250.9 260.105 Q250.9 253.89 255.31 250.279 Q259.754 246.668 267.462 246.668 Q275.205 246.668 279.615 250.279 Q284.025 253.89 284.025 260.105 Q284.025 264.55 281.49 267.64 Q278.99 270.73 274.511 271.841 Q279.58 273.022 282.393 276.459 Q285.24 279.897 285.24 284.862 Q285.24 292.397 280.622 296.425 Q276.039 300.452 267.462 300.452 Q258.886 300.452 254.268 296.425 Q249.685 292.397 249.685 284.862 Q249.685 279.897 252.532 276.459 Q255.379 273.022 260.449 271.841 M257.879 260.765 Q257.879 264.793 260.379 267.05 Q262.914 269.307 267.462 269.307 Q271.976 269.307 274.511 267.05 Q277.08 264.793 277.08 260.765 Q277.08 256.737 274.511 254.48 Q271.976 252.223 267.462 252.223 Q262.914 252.223 260.379 254.48 Q257.879 256.737 257.879 260.765 Z" fill="#000000" fill-rule="evenodd" fill-opacity="1" /><path clip-path="url(#clip550)" d="M185.692 105.347 L197.15 105.347 L197.15 65.7987 L184.685 68.2987 L184.685 61.9098 L197.081 59.4098 L204.095 59.4098 L204.095 105.347 L215.553 105.347 L215.553 111.25 L185.692 111.25 L185.692 105.347 Z" fill="#000000" fill-rule="evenodd" fill-opacity="1" /><path clip-path="url(#clip550)" d="M229.72 102.43 L237.046 102.43 L237.046 111.25 L229.72 111.25 L229.72 102.43 Z" fill="#000000" fill-rule="evenodd" fill-opacity="1" /><path clip-path="url(#clip550)" d="M267.324 64.0279 Q261.907 64.0279 259.164 69.375 Q256.456 74.6875 256.456 85.3819 Q256.456 96.0416 259.164 101.389 Q261.907 106.701 267.324 106.701 Q272.775 106.701 275.483 101.389 Q278.226 96.0416 278.226 85.3819 Q278.226 74.6875 275.483 69.375 Q272.775 64.0279 267.324 64.0279 M267.324 58.4723 Q276.039 58.4723 280.622 65.382 Q285.24 72.257 285.24 85.3819 Q285.24 98.4721 280.622 105.382 Q276.039 112.257 267.324 112.257 Q258.608 112.257 253.99 105.382 Q249.407 98.4721 249.407 85.3819 Q249.407 72.257 253.99 65.382 Q258.608 58.4723 267.324 58.4723 Z" fill="#000000" fill-rule="evenodd" fill-opacity="1" /><path clip-path="url(#clip550)" d="M20.6575 1007.42 L50.7557 1018.52 L50.7557 996.283 L20.6575 1007.42 M12.5962 1012.04 L12.5962 1002.76 L73.0762 979.714 L73.0762 988.221 L57.5612 993.731 L57.5612 1020.99 L73.0762 1026.5 L73.0762 1035.13 L12.5962 1012.04 Z" fill="#000000" fill-rule="evenodd" fill-opacity="1" /><path clip-path="url(#clip550)" d="M55.1712 971.977 L27.706 971.977 L27.706 964.524 L54.8876 964.524 Q61.3285 964.524 64.5693 962.012 Q67.7695 959.5 67.7695 954.477 Q67.7695 948.441 63.9211 944.958 Q60.0728 941.433 53.4293 941.433 L27.706 941.433 L27.706 933.98 L73.0762 933.98 L73.0762 941.433 L66.1086 941.433 Q70.2405 944.147 72.266 947.753 Q74.2509 951.318 74.2509 956.057 Q74.2509 963.875 69.3898 967.926 Q64.5287 971.977 55.1712 971.977 M26.6123 953.222 L26.6123 953.222 Z" fill="#000000" fill-rule="evenodd" fill-opacity="1" /><path clip-path="url(#clip550)" d="M14.8242 911.254 L27.706 911.254 L27.706 895.901 L33.4988 895.901 L33.4988 911.254 L58.1283 911.254 Q63.6781 911.254 65.2579 909.755 Q66.8378 908.216 66.8378 903.557 L66.8378 895.901 L73.0762 895.901 L73.0762 903.557 Q73.0762 912.186 69.8759 915.467 Q66.6352 918.748 58.1283 918.748 L33.4988 918.748 L33.4988 924.217 L27.706 924.217 L27.706 918.748 L14.8242 918.748 L14.8242 911.254 Z" fill="#000000" fill-rule="evenodd" fill-opacity="1" /><path clip-path="url(#clip550)" d="M32.9317 868.517 Q32.9317 874.512 37.6307 877.996 Q42.2893 881.48 50.4316 881.48 Q58.5739 881.48 63.273 878.037 Q67.9315 874.553 67.9315 868.517 Q67.9315 862.562 63.2325 859.078 Q58.5334 855.595 50.4316 855.595 Q42.3703 855.595 37.6713 859.078 Q32.9317 862.562 32.9317 868.517 M26.6123 868.517 Q26.6123 858.795 32.9317 853.245 Q39.2511 847.695 50.4316 847.695 Q61.5716 847.695 67.9315 853.245 Q74.2509 858.795 74.2509 868.517 Q74.2509 878.28 67.9315 883.83 Q61.5716 889.339 50.4316 889.339 Q39.2511 889.339 32.9317 883.83 Q26.6123 878.28 26.6123 868.517 Z" fill="#000000" fill-rule="evenodd" fill-opacity="1" /><path clip-path="url(#clip550)" d="M29.4479 802.69 L36.4155 802.69 Q34.6736 805.85 33.8229 809.05 Q32.9317 812.21 32.9317 815.45 Q32.9317 822.701 37.5497 826.712 Q42.1272 830.722 50.4316 830.722 Q58.736 830.722 63.354 826.712 Q67.9315 822.701 67.9315 815.45 Q67.9315 812.21 67.0808 809.05 Q66.1896 805.85 64.4477 802.69 L71.3343 802.69 Q72.7926 805.809 73.5218 809.171 Q74.2509 812.493 74.2509 816.26 Q74.2509 826.509 67.81 832.545 Q61.369 838.581 50.4316 838.581 Q39.3321 838.581 32.9722 832.505 Q26.6123 826.388 26.6123 815.774 Q26.6123 812.331 27.3414 809.05 Q28.0301 805.769 29.4479 802.69 Z" fill="#000000" fill-rule="evenodd" fill-opacity="1" /><path clip-path="url(#clip550)" d="M32.9317 772.146 Q32.9317 778.141 37.6307 781.625 Q42.2893 785.109 50.4316 785.109 Q58.5739 785.109 63.273 781.666 Q67.9315 778.182 67.9315 772.146 Q67.9315 766.191 63.2325 762.707 Q58.5334 759.224 50.4316 759.224 Q42.3703 759.224 37.6713 762.707 Q32.9317 766.191 32.9317 772.146 M26.6123 772.146 Q26.6123 762.424 32.9317 756.874 Q39.2511 751.324 50.4316 751.324 Q61.5716 751.324 67.9315 756.874 Q74.2509 762.424 74.2509 772.146 Q74.2509 781.909 67.9315 787.459 Q61.5716 792.968 50.4316 792.968 Q39.2511 792.968 32.9317 787.459 Q26.6123 781.909 26.6123 772.146 Z" fill="#000000" fill-rule="evenodd" fill-opacity="1" /><path clip-path="url(#clip550)" d="M34.6736 712.679 Q33.9444 713.935 33.6204 715.433 Q33.2558 716.892 33.2558 718.674 Q33.2558 724.994 37.3877 728.396 Q41.4791 731.759 49.1758 731.759 L73.0762 731.759 L73.0762 739.253 L27.706 739.253 L27.706 731.759 L34.7546 731.759 Q30.6227 729.409 28.6377 725.642 Q26.6123 721.874 26.6123 716.487 Q26.6123 715.717 26.7338 714.785 Q26.8148 713.854 27.0174 712.719 L34.6736 712.679 Z" fill="#000000" fill-rule="evenodd" fill-opacity="1" /><path clip-path="url(#clip550)" d="M34.6736 680.029 Q33.9444 681.284 33.6204 682.783 Q33.2558 684.241 33.2558 686.024 Q33.2558 692.343 37.3877 695.746 Q41.4791 699.108 49.1758 699.108 L73.0762 699.108 L73.0762 706.602 L27.706 706.602 L27.706 699.108 L34.7546 699.108 Q30.6227 696.759 28.6377 692.991 Q26.6123 689.224 26.6123 683.836 Q26.6123 683.067 26.7338 682.135 Q26.8148 681.203 27.0174 680.069 L34.6736 680.029 Z" fill="#000000" fill-rule="evenodd" fill-opacity="1" /><path clip-path="url(#clip550)" d="M48.5277 635.226 L52.1735 635.226 L52.1735 669.496 Q59.8702 669.01 63.9211 664.878 Q67.9315 660.706 67.9315 653.293 Q67.9315 648.999 66.8783 644.988 Q65.825 640.937 63.7186 636.967 L70.7671 636.967 Q72.4685 640.978 73.3597 645.191 Q74.2509 649.404 74.2509 653.738 Q74.2509 664.595 67.9315 670.955 Q61.6121 677.274 50.8367 677.274 Q39.6967 677.274 33.1748 671.279 Q26.6123 665.243 26.6123 655.034 Q26.6123 645.879 32.5266 640.573 Q38.4004 635.226 48.5277 635.226 M46.3402 642.679 Q40.2233 642.76 36.5775 646.122 Q32.9317 649.444 32.9317 654.953 Q32.9317 661.192 36.456 664.959 Q39.9803 668.686 46.3807 669.253 L46.3402 642.679 Z" fill="#000000" fill-rule="evenodd" fill-opacity="1" /><path clip-path="url(#clip550)" d="M10.0441 622.992 L10.0441 615.538 L73.0762 615.538 L73.0762 622.992 L10.0441 622.992 Z" fill="#000000" fill-rule="evenodd" fill-opacity="1" /><path clip-path="url(#clip550)" d="M50.2696 579.323 Q50.2696 588.357 52.3355 591.84 Q54.4015 595.324 59.3841 595.324 Q63.354 595.324 65.7035 592.732 Q68.0125 590.098 68.0125 585.602 Q68.0125 579.404 63.6376 575.677 Q59.2221 571.91 51.9304 571.91 L50.2696 571.91 L50.2696 579.323 M47.1909 564.456 L73.0762 564.456 L73.0762 571.91 L66.1896 571.91 Q70.3215 574.462 72.3065 578.27 Q74.2509 582.078 74.2509 587.587 Q74.2509 594.554 70.3621 598.686 Q66.4327 602.778 59.8702 602.778 Q52.214 602.778 48.3251 597.674 Q44.4363 592.529 44.4363 582.361 L44.4363 571.91 L43.7071 571.91 Q38.5625 571.91 35.7673 575.313 Q32.9317 578.675 32.9317 584.792 Q32.9317 588.681 33.8634 592.367 Q34.7951 596.053 36.6585 599.456 L29.772 599.456 Q28.1921 595.365 27.4225 591.516 Q26.6123 587.668 26.6123 584.022 Q26.6123 574.178 31.7164 569.317 Q36.8206 564.456 47.1909 564.456 Z" fill="#000000" fill-rule="evenodd" fill-opacity="1" /><path clip-path="url(#clip550)" d="M14.8242 541.731 L27.706 541.731 L27.706 526.378 L33.4988 526.378 L33.4988 541.731 L58.1283 541.731 Q63.6781 541.731 65.2579 540.232 Q66.8378 538.692 66.8378 534.034 L66.8378 526.378 L73.0762 526.378 L73.0762 534.034 Q73.0762 542.662 69.8759 545.944 Q66.6352 549.225 58.1283 549.225 L33.4988 549.225 L33.4988 554.694 L27.706 554.694 L27.706 549.225 L14.8242 549.225 L14.8242 541.731 Z" fill="#000000" fill-rule="evenodd" fill-opacity="1" /><path clip-path="url(#clip550)" d="M27.706 516.575 L27.706 509.121 L73.0762 509.121 L73.0762 516.575 L27.706 516.575 M10.0441 516.575 L10.0441 509.121 L19.4827 509.121 L19.4827 516.575 L10.0441 516.575 Z" fill="#000000" fill-rule="evenodd" fill-opacity="1" /><path clip-path="url(#clip550)" d="M32.9317 475.944 Q32.9317 481.939 37.6307 485.423 Q42.2893 488.907 50.4316 488.907 Q58.5739 488.907 63.273 485.464 Q67.9315 481.98 67.9315 475.944 Q67.9315 469.989 63.2325 466.505 Q58.5334 463.022 50.4316 463.022 Q42.3703 463.022 37.6713 466.505 Q32.9317 469.989 32.9317 475.944 M26.6123 475.944 Q26.6123 466.222 32.9317 460.672 Q39.2511 455.122 50.4316 455.122 Q61.5716 455.122 67.9315 460.672 Q74.2509 466.222 74.2509 475.944 Q74.2509 485.707 67.9315 491.256 Q61.5716 496.766 50.4316 496.766 Q39.2511 496.766 32.9317 491.256 Q26.6123 485.707 26.6123 475.944 Z" fill="#000000" fill-rule="evenodd" fill-opacity="1" /><path clip-path="url(#clip550)" d="M45.692 405.053 L73.0762 405.053 L73.0762 412.507 L45.9351 412.507 Q39.4942 412.507 36.2939 415.018 Q33.0937 417.53 33.0937 422.553 Q33.0937 428.589 36.9421 432.073 Q40.7905 435.556 47.4339 435.556 L73.0762 435.556 L73.0762 443.051 L27.706 443.051 L27.706 435.556 L34.7546 435.556 Q30.6632 432.883 28.6377 429.278 Q26.6123 425.632 26.6123 420.892 Q26.6123 413.074 31.4734 409.064 Q36.2939 405.053 45.692 405.053 Z" fill="#000000" fill-rule="evenodd" fill-opacity="1" /><polyline clip-path="url(#clip552)" style="stroke:#009af9; stroke-linecap:round; stroke-linejoin:round; stroke-width:12; stroke-opacity:1; fill:none" points="
  378.736,1026.31 378.736,85.3298 
  "/>
<polyline clip-path="url(#clip552)" style="stroke:#009af9; stroke-linecap:round; stroke-linejoin:round; stroke-width:12; stroke-opacity:1; fill:none" points="
  526.161,1026.31 526.161,823.508 
  "/>
<polyline clip-path="url(#clip552)" style="stroke:#009af9; stroke-linecap:round; stroke-linejoin:round; stroke-width:12; stroke-opacity:1; fill:none" points="
  673.586,1026.31 673.586,954.065 
  "/>
<polyline clip-path="url(#clip552)" style="stroke:#009af9; stroke-linecap:round; stroke-linejoin:round; stroke-width:12; stroke-opacity:1; fill:none" points="
  821.011,1026.31 821.011,1058.61 
  "/>
<polyline clip-path="url(#clip552)" style="stroke:#009af9; stroke-linecap:round; stroke-linejoin:round; stroke-width:12; stroke-opacity:1; fill:none" points="
  968.436,1026.31 968.436,834.889 
  "/>
<polyline clip-path="url(#clip552)" style="stroke:#009af9; stroke-linecap:round; stroke-linejoin:round; stroke-width:12; stroke-opacity:1; fill:none" points="
  1115.86,1026.31 1115.86,1024.69 
  "/>
<polyline clip-path="url(#clip552)" style="stroke:#009af9; stroke-linecap:round; stroke-linejoin:round; stroke-width:12; stroke-opacity:1; fill:none" points="
  1263.29,1026.31 1263.29,974.364 
  "/>
<polyline clip-path="url(#clip552)" style="stroke:#009af9; stroke-linecap:round; stroke-linejoin:round; stroke-width:12; stroke-opacity:1; fill:none" points="
  1410.71,1026.31 1410.71,1247.3 
  "/>
<polyline clip-path="url(#clip552)" style="stroke:#009af9; stroke-linecap:round; stroke-linejoin:round; stroke-width:12; stroke-opacity:1; fill:none" points="
  1558.14,1026.31 1558.14,1354.85 
  "/>
<polyline clip-path="url(#clip552)" style="stroke:#009af9; stroke-linecap:round; stroke-linejoin:round; stroke-width:12; stroke-opacity:1; fill:none" points="
  1705.56,1026.31 1705.56,1107.04 
  "/>
<polyline clip-path="url(#clip552)" style="stroke:#009af9; stroke-linecap:round; stroke-linejoin:round; stroke-width:12; stroke-opacity:1; fill:none" points="
  1852.99,1026.31 1852.99,1014.12 
  "/>
<polyline clip-path="url(#clip552)" style="stroke:#009af9; stroke-linecap:round; stroke-linejoin:round; stroke-width:12; stroke-opacity:1; fill:none" points="
  2000.41,1026.31 2000.41,993.131 
  "/>
<polyline clip-path="url(#clip552)" style="stroke:#009af9; stroke-linecap:round; stroke-linejoin:round; stroke-width:12; stroke-opacity:1; fill:none" points="
  2147.84,1026.31 2147.84,1076.87 
  "/>
<polyline clip-path="url(#clip552)" style="stroke:#009af9; stroke-linecap:round; stroke-linejoin:round; stroke-width:12; stroke-opacity:1; fill:none" points="
  2295.26,1026.31 2295.26,1109.98 
  "/>
<path clip-path="url(#clip550)" d="
M922.489 221.701 L2285.04 221.701 L2285.04 92.1006 L922.489 92.1006  Z
  " fill="#ffffff" fill-rule="evenodd" fill-opacity="1"/>
<polyline clip-path="url(#clip550)" style="stroke:#000000; stroke-linecap:round; stroke-linejoin:round; stroke-width:4; stroke-opacity:1; fill:none" points="
  922.489,221.701 2285.04,221.701 2285.04,92.1006 922.489,92.1006 922.489,221.701 
  "/>
<polyline clip-path="url(#clip550)" style="stroke:#009af9; stroke-linecap:round; stroke-linejoin:round; stroke-width:15; stroke-opacity:1; fill:none" points="
  945.062,156.901 1080.5,156.901 
  "/>
<path clip-path="url(#clip550)" d="M1122.86 141.059 L1114.93 162.557 L1130.82 162.557 L1122.86 141.059 M1119.56 135.301 L1126.19 135.301 L1142.65 178.501 L1136.58 178.501 L1132.64 167.419 L1113.17 167.419 L1109.23 178.501 L1103.07 178.501 L1119.56 135.301 Z" fill="#000000" fill-rule="evenodd" fill-opacity="1" /><path clip-path="url(#clip550)" d="M1148.18 165.711 L1148.18 146.093 L1153.5 146.093 L1153.5 165.509 Q1153.5 170.109 1155.3 172.424 Q1157.09 174.71 1160.68 174.71 Q1164.99 174.71 1167.48 171.961 Q1170 169.212 1170 164.467 L1170 146.093 L1175.32 146.093 L1175.32 178.501 L1170 178.501 L1170 173.524 Q1168.06 176.475 1165.48 177.922 Q1162.94 179.34 1159.55 179.34 Q1153.97 179.34 1151.07 175.868 Q1148.18 172.395 1148.18 165.711 M1161.58 145.312 L1161.58 145.312 Z" fill="#000000" fill-rule="evenodd" fill-opacity="1" /><path clip-path="url(#clip550)" d="M1191.55 136.892 L1191.55 146.093 L1202.52 146.093 L1202.52 150.231 L1191.55 150.231 L1191.55 167.824 Q1191.55 171.788 1192.62 172.916 Q1193.72 174.045 1197.05 174.045 L1202.52 174.045 L1202.52 178.501 L1197.05 178.501 Q1190.89 178.501 1188.54 176.215 Q1186.2 173.9 1186.2 167.824 L1186.2 150.231 L1182.29 150.231 L1182.29 146.093 L1186.2 146.093 L1186.2 136.892 L1191.55 136.892 Z" fill="#000000" fill-rule="evenodd" fill-opacity="1" /><path clip-path="url(#clip550)" d="M1222.08 149.826 Q1217.8 149.826 1215.31 153.182 Q1212.82 156.51 1212.82 162.326 Q1212.82 168.142 1215.28 171.498 Q1217.77 174.826 1222.08 174.826 Q1226.33 174.826 1228.82 171.469 Q1231.31 168.113 1231.31 162.326 Q1231.31 156.568 1228.82 153.211 Q1226.33 149.826 1222.08 149.826 M1222.08 145.312 Q1229.02 145.312 1232.99 149.826 Q1236.95 154.34 1236.95 162.326 Q1236.95 170.283 1232.99 174.826 Q1229.02 179.34 1222.08 179.34 Q1215.11 179.34 1211.14 174.826 Q1207.21 170.283 1207.21 162.326 Q1207.21 154.34 1211.14 149.826 Q1215.11 145.312 1222.08 145.312 Z" fill="#000000" fill-rule="evenodd" fill-opacity="1" /><path clip-path="url(#clip550)" d="M1269.1 147.338 L1269.1 152.314 Q1266.84 151.07 1264.55 150.463 Q1262.3 149.826 1259.98 149.826 Q1254.8 149.826 1251.94 153.125 Q1249.07 156.394 1249.07 162.326 Q1249.07 168.258 1251.94 171.556 Q1254.8 174.826 1259.98 174.826 Q1262.3 174.826 1264.55 174.218 Q1266.84 173.582 1269.1 172.337 L1269.1 177.256 Q1266.87 178.298 1264.47 178.819 Q1262.1 179.34 1259.4 179.34 Q1252.08 179.34 1247.77 174.739 Q1243.46 170.138 1243.46 162.326 Q1243.46 154.398 1247.8 149.855 Q1252.17 145.312 1259.75 145.312 Q1262.21 145.312 1264.55 145.833 Q1266.9 146.325 1269.1 147.338 Z" fill="#000000" fill-rule="evenodd" fill-opacity="1" /><path clip-path="url(#clip550)" d="M1290.91 149.826 Q1286.63 149.826 1284.14 153.182 Q1281.66 156.51 1281.66 162.326 Q1281.66 168.142 1284.12 171.498 Q1286.6 174.826 1290.91 174.826 Q1295.17 174.826 1297.66 171.469 Q1300.15 168.113 1300.15 162.326 Q1300.15 156.568 1297.66 153.211 Q1295.17 149.826 1290.91 149.826 M1290.91 145.312 Q1297.86 145.312 1301.82 149.826 Q1305.79 154.34 1305.79 162.326 Q1305.79 170.283 1301.82 174.826 Q1297.86 179.34 1290.91 179.34 Q1283.94 179.34 1279.98 174.826 Q1276.04 170.283 1276.04 162.326 Q1276.04 154.34 1279.98 149.826 Q1283.94 145.312 1290.91 145.312 Z" fill="#000000" fill-rule="evenodd" fill-opacity="1" /><path clip-path="url(#clip550)" d="M1333.39 151.07 Q1332.49 150.549 1331.42 150.318 Q1330.38 150.057 1329.11 150.057 Q1324.6 150.057 1322.16 153.009 Q1319.76 155.931 1319.76 161.429 L1319.76 178.501 L1314.41 178.501 L1314.41 146.093 L1319.76 146.093 L1319.76 151.128 Q1321.44 148.177 1324.13 146.759 Q1326.82 145.312 1330.67 145.312 Q1331.22 145.312 1331.89 145.399 Q1332.55 145.457 1333.36 145.601 L1333.39 151.07 Z" fill="#000000" fill-rule="evenodd" fill-opacity="1" /><path clip-path="url(#clip550)" d="M1356.71 151.07 Q1355.82 150.549 1354.75 150.318 Q1353.7 150.057 1352.43 150.057 Q1347.92 150.057 1345.49 153.009 Q1343.08 155.931 1343.08 161.429 L1343.08 178.501 L1337.73 178.501 L1337.73 146.093 L1343.08 146.093 L1343.08 151.128 Q1344.76 148.177 1347.45 146.759 Q1350.14 145.312 1353.99 145.312 Q1354.54 145.312 1355.21 145.399 Q1355.87 145.457 1356.68 145.601 L1356.71 151.07 Z" fill="#000000" fill-rule="evenodd" fill-opacity="1" /><path clip-path="url(#clip550)" d="M1388.72 160.966 L1388.72 163.57 L1364.24 163.57 Q1364.58 169.068 1367.53 171.961 Q1370.52 174.826 1375.81 174.826 Q1378.88 174.826 1381.74 174.074 Q1384.64 173.321 1387.47 171.817 L1387.47 176.851 Q1384.61 178.067 1381.6 178.703 Q1378.59 179.34 1375.49 179.34 Q1367.74 179.34 1363.19 174.826 Q1358.68 170.312 1358.68 162.615 Q1358.68 154.658 1362.96 150 Q1367.27 145.312 1374.57 145.312 Q1381.11 145.312 1384.9 149.537 Q1388.72 153.732 1388.72 160.966 M1383.39 159.403 Q1383.33 155.034 1380.93 152.43 Q1378.56 149.826 1374.62 149.826 Q1370.17 149.826 1367.48 152.343 Q1364.81 154.861 1364.41 159.432 L1383.39 159.403 Z" fill="#000000" fill-rule="evenodd" fill-opacity="1" /><path clip-path="url(#clip550)" d="M1397.45 133.478 L1402.78 133.478 L1402.78 178.501 L1397.45 178.501 L1397.45 133.478 Z" fill="#000000" fill-rule="evenodd" fill-opacity="1" /><path clip-path="url(#clip550)" d="M1428.65 162.21 Q1422.19 162.21 1419.7 163.686 Q1417.22 165.162 1417.22 168.721 Q1417.22 171.556 1419.07 173.234 Q1420.95 174.884 1424.16 174.884 Q1428.59 174.884 1431.25 171.759 Q1433.94 168.605 1433.94 163.397 L1433.94 162.21 L1428.65 162.21 M1439.26 160.011 L1439.26 178.501 L1433.94 178.501 L1433.94 173.582 Q1432.12 176.533 1429.4 177.951 Q1426.68 179.34 1422.74 179.34 Q1417.77 179.34 1414.81 176.562 Q1411.89 173.755 1411.89 169.068 Q1411.89 163.599 1415.54 160.821 Q1419.21 158.044 1426.48 158.044 L1433.94 158.044 L1433.94 157.523 Q1433.94 153.848 1431.51 151.851 Q1429.11 149.826 1424.74 149.826 Q1421.96 149.826 1419.33 150.492 Q1416.7 151.157 1414.26 152.488 L1414.26 147.569 Q1417.19 146.441 1419.94 145.891 Q1422.68 145.312 1425.29 145.312 Q1432.32 145.312 1435.79 148.958 Q1439.26 152.604 1439.26 160.011 Z" fill="#000000" fill-rule="evenodd" fill-opacity="1" /><path clip-path="url(#clip550)" d="M1455.5 136.892 L1455.5 146.093 L1466.46 146.093 L1466.46 150.231 L1455.5 150.231 L1455.5 167.824 Q1455.5 171.788 1456.57 172.916 Q1457.67 174.045 1460.99 174.045 L1466.46 174.045 L1466.46 178.501 L1460.99 178.501 Q1454.83 178.501 1452.49 176.215 Q1450.14 173.9 1450.14 167.824 L1450.14 150.231 L1446.24 150.231 L1446.24 146.093 L1450.14 146.093 L1450.14 136.892 L1455.5 136.892 Z" fill="#000000" fill-rule="evenodd" fill-opacity="1" /><path clip-path="url(#clip550)" d="M1473.47 146.093 L1478.79 146.093 L1478.79 178.501 L1473.47 178.501 L1473.47 146.093 M1473.47 133.478 L1478.79 133.478 L1478.79 140.22 L1473.47 140.22 L1473.47 133.478 Z" fill="#000000" fill-rule="evenodd" fill-opacity="1" /><path clip-path="url(#clip550)" d="M1502.49 149.826 Q1498.21 149.826 1495.72 153.182 Q1493.23 156.51 1493.23 162.326 Q1493.23 168.142 1495.69 171.498 Q1498.18 174.826 1502.49 174.826 Q1506.74 174.826 1509.23 171.469 Q1511.72 168.113 1511.72 162.326 Q1511.72 156.568 1509.23 153.211 Q1506.74 149.826 1502.49 149.826 M1502.49 145.312 Q1509.43 145.312 1513.4 149.826 Q1517.36 154.34 1517.36 162.326 Q1517.36 170.283 1513.4 174.826 Q1509.43 179.34 1502.49 179.34 Q1495.51 179.34 1491.55 174.826 Q1487.62 170.283 1487.62 162.326 Q1487.62 154.34 1491.55 149.826 Q1495.51 145.312 1502.49 145.312 Z" fill="#000000" fill-rule="evenodd" fill-opacity="1" /><path clip-path="url(#clip550)" d="M1553.12 158.941 L1553.12 178.501 L1547.8 178.501 L1547.8 159.114 Q1547.8 154.513 1546.01 152.228 Q1544.21 149.942 1540.62 149.942 Q1536.31 149.942 1533.82 152.691 Q1531.34 155.439 1531.34 160.185 L1531.34 178.501 L1525.98 178.501 L1525.98 146.093 L1531.34 146.093 L1531.34 151.128 Q1533.25 148.206 1535.82 146.759 Q1538.43 145.312 1541.81 145.312 Q1547.39 145.312 1550.26 148.784 Q1553.12 152.228 1553.12 158.941 Z" fill="#000000" fill-rule="evenodd" fill-opacity="1" /><path clip-path="url(#clip550)" d="M1598.99 133.478 L1598.99 137.905 L1593.89 137.905 Q1591.03 137.905 1589.9 139.062 Q1588.8 140.22 1588.8 143.229 L1588.8 146.093 L1597.57 146.093 L1597.57 150.231 L1588.8 150.231 L1588.8 178.501 L1583.45 178.501 L1583.45 150.231 L1578.36 150.231 L1578.36 146.093 L1583.45 146.093 L1583.45 143.836 Q1583.45 138.426 1585.97 135.966 Q1588.48 133.478 1593.95 133.478 L1598.99 133.478 Z" fill="#000000" fill-rule="evenodd" fill-opacity="1" /><path clip-path="url(#clip550)" d="M1616 149.826 Q1611.72 149.826 1609.23 153.182 Q1606.74 156.51 1606.74 162.326 Q1606.74 168.142 1609.2 171.498 Q1611.69 174.826 1616 174.826 Q1620.25 174.826 1622.74 171.469 Q1625.23 168.113 1625.23 162.326 Q1625.23 156.568 1622.74 153.211 Q1620.25 149.826 1616 149.826 M1616 145.312 Q1622.94 145.312 1626.91 149.826 Q1630.87 154.34 1630.87 162.326 Q1630.87 170.283 1626.91 174.826 Q1622.94 179.34 1616 179.34 Q1609.03 179.34 1605.06 174.826 Q1601.13 170.283 1601.13 162.326 Q1601.13 154.34 1605.06 149.826 Q1609.03 145.312 1616 145.312 Z" fill="#000000" fill-rule="evenodd" fill-opacity="1" /><path clip-path="url(#clip550)" d="M1658.48 151.07 Q1657.58 150.549 1656.51 150.318 Q1655.47 150.057 1654.19 150.057 Q1649.68 150.057 1647.25 153.009 Q1644.85 155.931 1644.85 161.429 L1644.85 178.501 L1639.5 178.501 L1639.5 146.093 L1644.85 146.093 L1644.85 151.128 Q1646.53 148.177 1649.22 146.759 Q1651.91 145.312 1655.76 145.312 Q1656.31 145.312 1656.97 145.399 Q1657.64 145.457 1658.45 145.601 L1658.48 151.07 Z" fill="#000000" fill-rule="evenodd" fill-opacity="1" /><path clip-path="url(#clip550)" d="M1683.13 135.301 L1688.97 135.301 L1688.97 178.501 L1683.13 178.501 L1683.13 135.301 Z" fill="#000000" fill-rule="evenodd" fill-opacity="1" /><path clip-path="url(#clip550)" d="M1727.31 158.941 L1727.31 178.501 L1721.99 178.501 L1721.99 159.114 Q1721.99 154.513 1720.19 152.228 Q1718.4 149.942 1714.81 149.942 Q1710.5 149.942 1708.01 152.691 Q1705.52 155.439 1705.52 160.185 L1705.52 178.501 L1700.17 178.501 L1700.17 146.093 L1705.52 146.093 L1705.52 151.128 Q1707.43 148.206 1710.01 146.759 Q1712.61 145.312 1716 145.312 Q1721.58 145.312 1724.45 148.784 Q1727.31 152.228 1727.31 158.941 Z" fill="#000000" fill-rule="evenodd" fill-opacity="1" /><path clip-path="url(#clip550)" d="M1759.26 151.012 L1759.26 133.478 L1764.58 133.478 L1764.58 178.501 L1759.26 178.501 L1759.26 173.64 Q1757.58 176.533 1755 177.951 Q1752.46 179.34 1748.87 179.34 Q1743 179.34 1739.29 174.652 Q1735.62 169.965 1735.62 162.326 Q1735.62 154.687 1739.29 150 Q1743 145.312 1748.87 145.312 Q1752.46 145.312 1755 146.73 Q1757.58 148.119 1759.26 151.012 M1741.11 162.326 Q1741.11 168.2 1743.52 171.556 Q1745.95 174.884 1750.17 174.884 Q1754.4 174.884 1756.83 171.556 Q1759.26 168.2 1759.26 162.326 Q1759.26 156.452 1756.83 153.125 Q1754.4 149.768 1750.17 149.768 Q1745.95 149.768 1743.52 153.125 Q1741.11 156.452 1741.11 162.326 Z" fill="#000000" fill-rule="evenodd" fill-opacity="1" /><path clip-path="url(#clip550)" d="M1803.27 160.966 L1803.27 163.57 L1778.79 163.57 Q1779.14 169.068 1782.09 171.961 Q1785.07 174.826 1790.36 174.826 Q1793.43 174.826 1796.29 174.074 Q1799.19 173.321 1802.02 171.817 L1802.02 176.851 Q1799.16 178.067 1796.15 178.703 Q1793.14 179.34 1790.04 179.34 Q1782.29 179.34 1777.75 174.826 Q1773.23 170.312 1773.23 162.615 Q1773.23 154.658 1777.52 150 Q1781.83 145.312 1789.12 145.312 Q1795.66 145.312 1799.45 149.537 Q1803.27 153.732 1803.27 160.966 M1797.94 159.403 Q1797.89 155.034 1795.48 152.43 Q1793.11 149.826 1789.18 149.826 Q1784.72 149.826 1782.03 152.343 Q1779.37 154.861 1778.96 159.432 L1797.94 159.403 Z" fill="#000000" fill-rule="evenodd" fill-opacity="1" /><path clip-path="url(#clip550)" d="M1817.16 173.64 L1817.16 190.827 L1811.8 190.827 L1811.8 146.093 L1817.16 146.093 L1817.16 151.012 Q1818.83 148.119 1821.38 146.73 Q1823.96 145.312 1827.51 145.312 Q1833.42 145.312 1837.09 150 Q1840.8 154.687 1840.8 162.326 Q1840.8 169.965 1837.09 174.652 Q1833.42 179.34 1827.51 179.34 Q1823.96 179.34 1821.38 177.951 Q1818.83 176.533 1817.16 173.64 M1835.27 162.326 Q1835.27 156.452 1832.84 153.125 Q1830.44 149.768 1826.21 149.768 Q1821.99 149.768 1819.56 153.125 Q1817.16 156.452 1817.16 162.326 Q1817.16 168.2 1819.56 171.556 Q1821.99 174.884 1826.21 174.884 Q1830.44 174.884 1832.84 171.556 Q1835.27 168.2 1835.27 162.326 Z" fill="#000000" fill-rule="evenodd" fill-opacity="1" /><path clip-path="url(#clip550)" d="M1877.34 160.966 L1877.34 163.57 L1852.86 163.57 Q1853.21 169.068 1856.16 171.961 Q1859.14 174.826 1864.44 174.826 Q1867.5 174.826 1870.37 174.074 Q1873.26 173.321 1876.1 171.817 L1876.1 176.851 Q1873.23 178.067 1870.22 178.703 Q1867.21 179.34 1864.12 179.34 Q1856.36 179.34 1851.82 174.826 Q1847.31 170.312 1847.31 162.615 Q1847.31 154.658 1851.59 150 Q1855.9 145.312 1863.19 145.312 Q1869.73 145.312 1873.52 149.537 Q1877.34 153.732 1877.34 160.966 M1872.02 159.403 Q1871.96 155.034 1869.56 152.43 Q1867.18 149.826 1863.25 149.826 Q1858.79 149.826 1856.1 152.343 Q1853.44 154.861 1853.04 159.432 L1872.02 159.403 Z" fill="#000000" fill-rule="evenodd" fill-opacity="1" /><path clip-path="url(#clip550)" d="M1913.02 158.941 L1913.02 178.501 L1907.69 178.501 L1907.69 159.114 Q1907.69 154.513 1905.9 152.228 Q1904.11 149.942 1900.52 149.942 Q1896.21 149.942 1893.72 152.691 Q1891.23 155.439 1891.23 160.185 L1891.23 178.501 L1885.88 178.501 L1885.88 146.093 L1891.23 146.093 L1891.23 151.128 Q1893.14 148.206 1895.71 146.759 Q1898.32 145.312 1901.7 145.312 Q1907.29 145.312 1910.15 148.784 Q1913.02 152.228 1913.02 158.941 Z" fill="#000000" fill-rule="evenodd" fill-opacity="1" /><path clip-path="url(#clip550)" d="M1944.96 151.012 L1944.96 133.478 L1950.29 133.478 L1950.29 178.501 L1944.96 178.501 L1944.96 173.64 Q1943.28 176.533 1940.71 177.951 Q1938.16 179.34 1934.57 179.34 Q1928.7 179.34 1925 174.652 Q1921.32 169.965 1921.32 162.326 Q1921.32 154.687 1925 150 Q1928.7 145.312 1934.57 145.312 Q1938.16 145.312 1940.71 146.73 Q1943.28 148.119 1944.96 151.012 M1926.82 162.326 Q1926.82 168.2 1929.22 171.556 Q1931.65 174.884 1935.88 174.884 Q1940.1 174.884 1942.53 171.556 Q1944.96 168.2 1944.96 162.326 Q1944.96 156.452 1942.53 153.125 Q1940.1 149.768 1935.88 149.768 Q1931.65 149.768 1929.22 153.125 Q1926.82 156.452 1926.82 162.326 Z" fill="#000000" fill-rule="evenodd" fill-opacity="1" /><path clip-path="url(#clip550)" d="M1988.97 160.966 L1988.97 163.57 L1964.49 163.57 Q1964.84 169.068 1967.79 171.961 Q1970.77 174.826 1976.07 174.826 Q1979.13 174.826 1982 174.074 Q1984.89 173.321 1987.73 171.817 L1987.73 176.851 Q1984.86 178.067 1981.85 178.703 Q1978.85 179.34 1975.75 179.34 Q1967.99 179.34 1963.45 174.826 Q1958.94 170.312 1958.94 162.615 Q1958.94 154.658 1963.22 150 Q1967.53 145.312 1974.82 145.312 Q1981.36 145.312 1985.15 149.537 Q1988.97 153.732 1988.97 160.966 M1983.65 159.403 Q1983.59 155.034 1981.19 152.43 Q1978.82 149.826 1974.88 149.826 Q1970.43 149.826 1967.73 152.343 Q1965.07 154.861 1964.67 159.432 L1983.65 159.403 Z" fill="#000000" fill-rule="evenodd" fill-opacity="1" /><path clip-path="url(#clip550)" d="M2024.65 158.941 L2024.65 178.501 L2019.33 178.501 L2019.33 159.114 Q2019.33 154.513 2017.53 152.228 Q2015.74 149.942 2012.15 149.942 Q2007.84 149.942 2005.35 152.691 Q2002.86 155.439 2002.86 160.185 L2002.86 178.501 L1997.51 178.501 L1997.51 146.093 L2002.86 146.093 L2002.86 151.128 Q2004.77 148.206 2007.35 146.759 Q2009.95 145.312 2013.34 145.312 Q2018.92 145.312 2021.78 148.784 Q2024.65 152.228 2024.65 158.941 Z" fill="#000000" fill-rule="evenodd" fill-opacity="1" /><path clip-path="url(#clip550)" d="M2040.53 136.892 L2040.53 146.093 L2051.5 146.093 L2051.5 150.231 L2040.53 150.231 L2040.53 167.824 Q2040.53 171.788 2041.61 172.916 Q2042.7 174.045 2046.03 174.045 L2051.5 174.045 L2051.5 178.501 L2046.03 178.501 Q2039.87 178.501 2037.53 176.215 Q2035.18 173.9 2035.18 167.824 L2035.18 150.231 L2031.28 150.231 L2031.28 146.093 L2035.18 146.093 L2035.18 136.892 L2040.53 136.892 Z" fill="#000000" fill-rule="evenodd" fill-opacity="1" /><path clip-path="url(#clip550)" d="M2088.71 178.501 L2072.22 135.301 L2078.32 135.301 L2092.01 171.672 L2105.73 135.301 L2111.8 135.301 L2095.34 178.501 L2088.71 178.501 Z" fill="#000000" fill-rule="evenodd" fill-opacity="1" /><path clip-path="url(#clip550)" d="M2128.01 162.21 Q2121.55 162.21 2119.06 163.686 Q2116.58 165.162 2116.58 168.721 Q2116.58 171.556 2118.43 173.234 Q2120.31 174.884 2123.52 174.884 Q2127.95 174.884 2130.61 171.759 Q2133.3 168.605 2133.3 163.397 L2133.3 162.21 L2128.01 162.21 M2138.62 160.011 L2138.62 178.501 L2133.3 178.501 L2133.3 173.582 Q2131.48 176.533 2128.76 177.951 Q2126.04 179.34 2122.1 179.34 Q2117.13 179.34 2114.17 176.562 Q2111.25 173.755 2111.25 169.068 Q2111.25 163.599 2114.9 160.821 Q2118.57 158.044 2125.84 158.044 L2133.3 158.044 L2133.3 157.523 Q2133.3 153.848 2130.87 151.851 Q2128.47 149.826 2124.1 149.826 Q2121.32 149.826 2118.69 150.492 Q2116.06 151.157 2113.62 152.488 L2113.62 147.569 Q2116.55 146.441 2119.3 145.891 Q2122.04 145.312 2124.65 145.312 Q2131.68 145.312 2135.15 148.958 Q2138.62 152.604 2138.62 160.011 Z" fill="#000000" fill-rule="evenodd" fill-opacity="1" /><path clip-path="url(#clip550)" d="M2149.59 133.478 L2154.91 133.478 L2154.91 178.501 L2149.59 178.501 L2149.59 133.478 Z" fill="#000000" fill-rule="evenodd" fill-opacity="1" /><path clip-path="url(#clip550)" d="M2165.51 165.711 L2165.51 146.093 L2170.83 146.093 L2170.83 165.509 Q2170.83 170.109 2172.62 172.424 Q2174.42 174.71 2178 174.71 Q2182.32 174.71 2184.8 171.961 Q2187.32 169.212 2187.32 164.467 L2187.32 146.093 L2192.65 146.093 L2192.65 178.501 L2187.32 178.501 L2187.32 173.524 Q2185.38 176.475 2182.81 177.922 Q2180.26 179.34 2176.88 179.34 Q2171.29 179.34 2168.4 175.868 Q2165.51 172.395 2165.51 165.711 M2178.9 145.312 L2178.9 145.312 Z" fill="#000000" fill-rule="evenodd" fill-opacity="1" /><path clip-path="url(#clip550)" d="M2231.33 160.966 L2231.33 163.57 L2206.85 163.57 Q2207.2 169.068 2210.15 171.961 Q2213.13 174.826 2218.43 174.826 Q2221.49 174.826 2224.36 174.074 Q2227.25 173.321 2230.09 171.817 L2230.09 176.851 Q2227.22 178.067 2224.21 178.703 Q2221.2 179.34 2218.11 179.34 Q2210.35 179.34 2205.81 174.826 Q2201.3 170.312 2201.3 162.615 Q2201.3 154.658 2205.58 150 Q2209.89 145.312 2217.18 145.312 Q2223.72 145.312 2227.51 149.537 Q2231.33 153.732 2231.33 160.966 M2226.01 159.403 Q2225.95 155.034 2223.55 152.43 Q2221.18 149.826 2217.24 149.826 Q2212.78 149.826 2210.09 152.343 Q2207.43 154.861 2207.03 159.432 L2226.01 159.403 Z" fill="#000000" fill-rule="evenodd" fill-opacity="1" /><path clip-path="url(#clip550)" d="M2260.73 147.048 L2260.73 152.083 Q2258.47 150.926 2256.04 150.347 Q2253.61 149.768 2251.01 149.768 Q2247.04 149.768 2245.05 150.983 Q2243.08 152.199 2243.08 154.629 Q2243.08 156.481 2244.5 157.552 Q2245.92 158.593 2250.2 159.548 L2252.02 159.953 Q2257.69 161.169 2260.06 163.397 Q2262.47 165.596 2262.47 169.56 Q2262.47 174.074 2258.88 176.707 Q2255.32 179.34 2249.07 179.34 Q2246.47 179.34 2243.63 178.819 Q2240.82 178.327 2237.7 177.314 L2237.7 171.817 Q2240.65 173.35 2243.51 174.131 Q2246.38 174.884 2249.19 174.884 Q2252.95 174.884 2254.97 173.611 Q2257 172.309 2257 169.965 Q2257 167.795 2255.52 166.637 Q2254.08 165.48 2249.13 164.409 L2247.28 163.975 Q2242.33 162.934 2240.13 160.792 Q2237.93 158.622 2237.93 154.861 Q2237.93 150.289 2241.17 147.801 Q2244.41 145.312 2250.37 145.312 Q2253.32 145.312 2255.93 145.746 Q2258.53 146.18 2260.73 147.048 Z" fill="#000000" fill-rule="evenodd" fill-opacity="1" /></svg>
