<svg version="1.1" xmlns="http://www.w3.org/2000/svg" viewBox="0 0 736.3543090820312 134.14825439453125" width="1472.7086181640625" height="268.2965087890625">
  <!-- svg-source:excalidraw -->
  
  <defs>
    <style class="style-fonts">
      @font-face {
        font-family: "Virgil";
        src: url("https://excalidraw.com/Virgil.woff2");
      }
      @font-face {
        font-family: "Cascadia";
        src: url("https://excalidraw.com/Cascadia.woff2");
      }
    </style>
  </defs>
  <g stroke-linecap="round" transform="translate(252.52474975585938 16.69622802734375) rotate(0 84.79353332519531 51.41326904296875)"><path d="M0.59 -0.22 C62.93 -0.23, 122.76 -1.95, 169.27 -1.66 M-0.75 0.96 C50.95 -1.16, 103.34 -1.36, 170.3 0.94 M168.34 -1.75 C170.42 25.64, 168.06 49.47, 168.89 102.99 M169.9 0.24 C167.81 23.65, 168.09 45.91, 169.09 103.45 M168.24 102.71 C110.65 103.36, 53.4 100.07, 0.9 104.64 M169.42 103.19 C121.65 104.55, 75.48 105.43, -0.73 102.34 M-0.91 104.13 C0.65 68.34, 1.07 34.8, -1.93 -1.83 M0.6 102.64 C1.29 80.8, -0.44 59.09, -0.22 0.14" stroke="#000000" stroke-width="1" fill="none"></path></g><g transform="translate(263.8182830810547 45.1094970703125) rotate(0 73.5 23)"><text x="73.5" y="19" font-family="Helvetica, Segoe UI Emoji" font-size="20px" fill="#000000" text-anchor="middle" style="white-space: pre;" direction="ltr">System or </text><text x="73.5" y="42" font-family="Helvetica, Segoe UI Emoji" font-size="20px" fill="#000000" text-anchor="middle" style="white-space: pre;" direction="ltr">Statistical Model</text></g><g stroke-linecap="round" transform="translate(10 10) rotate(0 65.54864501953125 57.074127197265625)"><path d="M80.2 1.66 C89.84 2.8, 99.2 8.2, 106.74 13.87 C114.27 19.53, 121.36 27.71, 125.44 35.67 C129.53 43.63, 131.93 52.92, 131.24 61.64 C130.56 70.36, 126.97 80.51, 121.32 87.99 C115.67 95.46, 106.22 102.28, 97.34 106.49 C88.46 110.7, 78.26 112.97, 68.02 113.26 C57.77 113.55, 45.09 111.95, 35.88 108.25 C26.67 104.55, 18.7 98.25, 12.75 91.07 C6.79 83.88, 1.76 73.94, 0.15 65.16 C-1.46 56.37, -0.47 46.54, 3.08 38.34 C6.63 30.15, 14.09 21.87, 21.43 15.98 C28.78 10.08, 36.37 5.18, 47.14 2.97 C57.91 0.76, 78.48 2.12, 86.07 2.73 C93.67 3.34, 92.91 5.58, 92.7 6.63 M67.53 1.42 C77.33 0.81, 88.88 2.36, 97.76 6.75 C106.65 11.15, 115.49 20.1, 120.86 27.77 C126.24 35.44, 129.24 44.34, 130 52.77 C130.75 61.2, 129.05 70.17, 125.39 78.35 C121.73 86.53, 115.57 96.19, 108.04 101.85 C100.5 107.5, 90.43 110.5, 80.16 112.28 C69.9 114.07, 56.61 115, 46.45 112.56 C36.3 110.12, 26.31 103.81, 19.25 97.64 C12.2 91.47, 6.98 83.96, 4.14 75.54 C1.3 67.13, 0.5 55.9, 2.19 47.17 C3.88 38.43, 8.71 30.01, 14.3 23.14 C19.88 16.27, 26.78 9.7, 35.72 5.95 C44.67 2.2, 62.84 1.6, 67.96 0.64 C73.08 -0.32, 66.71 -0.58, 66.45 0.17" stroke="#000000" stroke-width="1" fill="none"></path></g><g transform="translate(16.54864501953125 44.074127197265625) rotate(0 59 23)"><text x="59" y="19" font-family="Helvetica, Segoe UI Emoji" font-size="20px" fill="#000000" text-anchor="middle" style="white-space: pre;" direction="ltr">Input </text><text x="59" y="42" font-family="Helvetica, Segoe UI Emoji" font-size="20px" fill="#000000" text-anchor="middle" style="white-space: pre;" direction="ltr">Uncertainties</text></g><g stroke-linecap="round"><g transform="translate(151.9918785595354 66.98819319396682) rotate(0 47.46835702950966 2.775333072934359)"><path d="M-1.69 1.38 C37.26 1.05, 74.32 6.82, 96.63 5.05 M-0.39 -0.25 C36.72 3.33, 74.03 4.23, 94.98 5.8" stroke="#000000" stroke-width="1" fill="none"></path></g><g transform="translate(151.9918785595354 66.98819319396682) rotate(0 47.46835702950966 2.775333072934359)"><path d="M64.55 15.79 C77.03 9.45, 87.51 9.73, 95.72 5.59 M65.86 14.17 C77.21 12.14, 88.8 7.72, 94.08 6.34" stroke="#000000" stroke-width="1" fill="none"></path></g><g transform="translate(151.9918785595354 66.98819319396682) rotate(0 47.46835702950966 2.775333072934359)"><path d="M65.74 -4.69 C77.6 -2.94, 87.61 5.45, 95.72 5.59 M67.04 -6.32 C77.99 -0.51, 89.13 2.93, 94.08 6.34" stroke="#000000" stroke-width="1" fill="none"></path></g></g><mask></mask><g stroke-linecap="round"><g transform="translate(432.11144831962895 64.82654653831815) rotate(0 51.333416955532755 -0.043861263041179654)"><path d="M-1.61 1.63 C19.97 -1.44, 42.26 -3.01, 103.31 -0.39 M-0.09 0.26 C32.27 0.51, 65.97 0.34, 104.27 -1.54" stroke="#000000" stroke-width="1" fill="none"></path></g><g transform="translate(432.11144831962895 64.82654653831815) rotate(0 51.333416955532755 -0.043861263041179654)"><path d="M74.88 11.41 C80.67 6.7, 87.23 2.98, 103.71 -1.01 M76.41 10.05 C84.4 6.52, 93.77 3.03, 104.67 -2.16" stroke="#000000" stroke-width="1" fill="none"></path></g><g transform="translate(432.11144831962895 64.82654653831815) rotate(0 51.333416955532755 -0.043861263041179654)"><path d="M74.11 -9.09 C80.19 -9.57, 86.91 -9.06, 103.71 -1.01 M75.63 -10.46 C83.94 -7.42, 93.56 -4.36, 104.67 -2.16" stroke="#000000" stroke-width="1" fill="none"></path></g></g><mask></mask><g stroke-linecap="round" transform="translate(550.6807861328125 16.634918212890625) rotate(0 87.83676147460938 48.09417724609375)"><path d="M87.59 1.68 C110.3 11.84, 131.36 25.24, 176.26 47.16 M87.39 0.64 C113.91 13.74, 140.11 29.08, 175.21 49.57 M174.03 47.72 C154.91 59.85, 134.5 72.33, 89.31 97.99 M174.75 49.79 C143.38 66.38, 111.51 83.77, 87.37 96.69 M89.37 96.7 C55.22 78.53, 21.83 58.55, 1.85 49.03 M87.36 97.03 C60.74 80.39, 32.3 66.12, 0.42 48.94 M-1.07 47.67 C34.63 28.18, 69.73 9.55, 89.1 1.43 M0.16 48.69 C23.39 35.13, 48.56 22.27, 88.98 -0.62" stroke="#000000" stroke-width="1" fill="none"></path></g><g transform="translate(590.8943481445312 53.327545166015625) rotate(0 46 11.5)"><text x="46" y="19" font-family="Helvetica, Segoe UI Emoji" font-size="20px" fill="#000000" text-anchor="middle" style="white-space: pre;" direction="ltr">Outcomes</text></g></svg>