<?xml version="1.0" encoding="utf-8"?>
<svg xmlns="http://www.w3.org/2000/svg" xmlns:xlink="http://www.w3.org/1999/xlink" width="600" height="400" viewBox="0 0 2400 1600">
<defs>
  <clipPath id="clip590">
    <rect x="0" y="0" width="2400" height="1600"/>
  </clipPath>
</defs>
<path clip-path="url(#clip590)" d="
M0 1600 L2400 1600 L2400 0 L0 0  Z
  " fill="#ffffff" fill-rule="evenodd" fill-opacity="1"/>
<defs>
  <clipPath id="clip591">
    <rect x="480" y="0" width="1681" height="1600"/>
  </clipPath>
</defs>
<path clip-path="url(#clip590)" d="
M243.775 1392.94 L2352.76 1392.94 L2352.76 47.2441 L243.775 47.2441  Z
  " fill="#ffffff" fill-rule="evenodd" fill-opacity="1"/>
<defs>
  <clipPath id="clip592">
    <rect x="243" y="47" width="2110" height="1347"/>
  </clipPath>
</defs>
<polyline clip-path="url(#clip590)" style="stroke:#000000; stroke-linecap:round; stroke-linejoin:round; stroke-width:4; stroke-opacity:1; fill:none" points="
  243.775,1392.94 2352.76,1392.94 
  "/>
<polyline clip-path="url(#clip590)" style="stroke:#000000; stroke-linecap:round; stroke-linejoin:round; stroke-width:4; stroke-opacity:1; fill:none" points="
  284.983,1392.94 284.983,1374.04 
  "/>
<polyline clip-path="url(#clip590)" style="stroke:#000000; stroke-linecap:round; stroke-linejoin:round; stroke-width:4; stroke-opacity:1; fill:none" points="
  735.848,1392.94 735.848,1374.04 
  "/>
<polyline clip-path="url(#clip590)" style="stroke:#000000; stroke-linecap:round; stroke-linejoin:round; stroke-width:4; stroke-opacity:1; fill:none" points="
  1186.71,1392.94 1186.71,1374.04 
  "/>
<polyline clip-path="url(#clip590)" style="stroke:#000000; stroke-linecap:round; stroke-linejoin:round; stroke-width:4; stroke-opacity:1; fill:none" points="
  1637.58,1392.94 1637.58,1374.04 
  "/>
<polyline clip-path="url(#clip590)" style="stroke:#000000; stroke-linecap:round; stroke-linejoin:round; stroke-width:4; stroke-opacity:1; fill:none" points="
  2088.44,1392.94 2088.44,1374.04 
  "/>
<path clip-path="url(#clip590)" d="M284.983 1429.72 Q279.566 1429.72 276.823 1435.07 Q274.115 1440.38 274.115 1451.07 Q274.115 1461.73 276.823 1467.08 Q279.566 1472.39 284.983 1472.39 Q290.434 1472.39 293.142 1467.08 Q295.885 1461.73 295.885 1451.07 Q295.885 1440.38 293.142 1435.07 Q290.434 1429.72 284.983 1429.72 M284.983 1424.16 Q293.698 1424.16 298.281 1431.07 Q302.899 1437.95 302.899 1451.07 Q302.899 1464.16 298.281 1471.07 Q293.698 1477.95 284.983 1477.95 Q276.268 1477.95 271.65 1471.07 Q267.066 1464.16 267.066 1451.07 Q267.066 1437.95 271.65 1431.07 Q276.268 1424.16 284.983 1424.16 Z" fill="#000000" fill-rule="evenodd" fill-opacity="1" /><path clip-path="url(#clip590)" d="M727.827 1471.04 L752.306 1471.04 L752.306 1476.94 L719.39 1476.94 L719.39 1471.04 Q723.383 1466.91 730.258 1459.96 Q737.167 1452.98 738.938 1450.97 Q742.306 1447.18 743.626 1444.58 Q744.98 1441.94 744.98 1439.41 Q744.98 1435.27 742.063 1432.67 Q739.181 1430.07 734.528 1430.07 Q731.23 1430.07 727.549 1431.21 Q723.904 1432.36 719.737 1434.68 L719.737 1427.6 Q723.973 1425.9 727.654 1425.03 Q731.334 1424.16 734.39 1424.16 Q742.445 1424.16 747.237 1428.19 Q752.028 1432.22 752.028 1438.95 Q752.028 1442.15 750.813 1445.03 Q749.633 1447.88 746.473 1451.77 Q745.605 1452.77 740.952 1457.6 Q736.299 1462.39 727.827 1471.04 Z" fill="#000000" fill-rule="evenodd" fill-opacity="1" /><path clip-path="url(#clip590)" d="M1191.23 1431.21 L1173.52 1458.88 L1191.23 1458.88 L1191.23 1431.21 M1189.39 1425.1 L1198.21 1425.1 L1198.21 1458.88 L1205.6 1458.88 L1205.6 1464.72 L1198.21 1464.72 L1198.21 1476.94 L1191.23 1476.94 L1191.23 1464.72 L1167.82 1464.72 L1167.82 1457.95 L1189.39 1425.1 Z" fill="#000000" fill-rule="evenodd" fill-opacity="1" /><path clip-path="url(#clip590)" d="M1638.19 1448.22 Q1633.46 1448.22 1630.69 1451.45 Q1627.94 1454.68 1627.94 1460.31 Q1627.94 1465.9 1630.69 1469.16 Q1633.46 1472.39 1638.19 1472.39 Q1642.91 1472.39 1645.65 1469.16 Q1648.43 1465.9 1648.43 1460.31 Q1648.43 1454.68 1645.65 1451.45 Q1642.91 1448.22 1638.19 1448.22 M1652.11 1426.25 L1652.11 1432.63 Q1649.47 1431.38 1646.76 1430.72 Q1644.09 1430.07 1641.45 1430.07 Q1634.51 1430.07 1630.82 1434.75 Q1627.18 1439.44 1626.66 1448.92 Q1628.71 1445.9 1631.8 1444.3 Q1634.89 1442.67 1638.6 1442.67 Q1646.41 1442.67 1650.93 1447.43 Q1655.48 1452.15 1655.48 1460.31 Q1655.48 1468.29 1650.76 1473.12 Q1646.03 1477.95 1638.19 1477.95 Q1629.19 1477.95 1624.44 1471.07 Q1619.68 1464.16 1619.68 1451.07 Q1619.68 1438.78 1625.51 1431.49 Q1631.35 1424.16 1641.17 1424.16 Q1643.81 1424.16 1646.48 1424.68 Q1649.19 1425.2 1652.11 1426.25 Z" fill="#000000" fill-rule="evenodd" fill-opacity="1" /><path clip-path="url(#clip590)" d="M2088.44 1452.32 Q2083.44 1452.32 2080.56 1455 Q2077.71 1457.67 2077.71 1462.36 Q2077.71 1467.04 2080.56 1469.72 Q2083.44 1472.39 2088.44 1472.39 Q2093.44 1472.39 2096.33 1469.72 Q2099.21 1467.01 2099.21 1462.36 Q2099.21 1457.67 2096.33 1455 Q2093.48 1452.32 2088.44 1452.32 M2081.43 1449.34 Q2076.92 1448.22 2074.38 1445.13 Q2071.88 1442.04 2071.88 1437.6 Q2071.88 1431.38 2076.29 1427.77 Q2080.74 1424.16 2088.44 1424.16 Q2096.19 1424.16 2100.6 1427.77 Q2105.01 1431.38 2105.01 1437.6 Q2105.01 1442.04 2102.47 1445.13 Q2099.97 1448.22 2095.49 1449.34 Q2100.56 1450.52 2103.37 1453.95 Q2106.22 1457.39 2106.22 1462.36 Q2106.22 1469.89 2101.6 1473.92 Q2097.02 1477.95 2088.44 1477.95 Q2079.87 1477.95 2075.25 1473.92 Q2070.67 1469.89 2070.67 1462.36 Q2070.67 1457.39 2073.51 1453.95 Q2076.36 1450.52 2081.43 1449.34 M2078.86 1438.26 Q2078.86 1442.29 2081.36 1444.54 Q2083.89 1446.8 2088.44 1446.8 Q2092.96 1446.8 2095.49 1444.54 Q2098.06 1442.29 2098.06 1438.26 Q2098.06 1434.23 2095.49 1431.97 Q2092.96 1429.72 2088.44 1429.72 Q2083.89 1429.72 2081.36 1431.97 Q2078.86 1434.23 2078.86 1438.26 Z" fill="#000000" fill-rule="evenodd" fill-opacity="1" /><path clip-path="url(#clip590)" d="M1105.62 1525.52 L1105.62 1548.25 L1115.91 1548.25 Q1121.63 1548.25 1124.75 1545.29 Q1127.86 1542.33 1127.86 1536.86 Q1127.86 1531.43 1124.75 1528.48 Q1121.63 1525.52 1115.91 1525.52 L1105.62 1525.52 M1097.44 1518.8 L1115.91 1518.8 Q1126.08 1518.8 1131.27 1523.41 Q1136.49 1527.99 1136.49 1536.86 Q1136.49 1545.82 1131.27 1550.39 Q1126.08 1554.97 1115.91 1554.97 L1105.62 1554.97 L1105.62 1579.28 L1097.44 1579.28 L1097.44 1518.8 Z" fill="#000000" fill-rule="evenodd" fill-opacity="1" /><path clip-path="url(#clip590)" d="M1171.98 1540.87 Q1170.72 1540.14 1169.22 1539.82 Q1167.77 1539.46 1165.98 1539.46 Q1159.66 1539.46 1156.26 1543.59 Q1152.9 1547.68 1152.9 1555.38 L1152.9 1579.28 L1145.4 1579.28 L1145.4 1533.91 L1152.9 1533.91 L1152.9 1540.95 Q1155.25 1536.82 1159.02 1534.84 Q1162.78 1532.81 1168.17 1532.81 Q1168.94 1532.81 1169.87 1532.93 Q1170.8 1533.01 1171.94 1533.22 L1171.98 1540.87 Z" fill="#000000" fill-rule="evenodd" fill-opacity="1" /><path clip-path="url(#clip590)" d="M1216.78 1554.73 L1216.78 1558.37 L1182.51 1558.37 Q1183 1566.07 1187.13 1570.12 Q1191.3 1574.13 1198.71 1574.13 Q1203.01 1574.13 1207.02 1573.08 Q1211.07 1572.02 1215.04 1569.92 L1215.04 1576.97 Q1211.03 1578.67 1206.82 1579.56 Q1202.6 1580.45 1198.27 1580.45 Q1187.41 1580.45 1181.05 1574.13 Q1174.73 1567.81 1174.73 1557.04 Q1174.73 1545.9 1180.73 1539.37 Q1186.76 1532.81 1196.97 1532.81 Q1206.13 1532.81 1211.43 1538.73 Q1216.78 1544.6 1216.78 1554.73 M1209.33 1552.54 Q1209.25 1546.42 1205.88 1542.78 Q1202.56 1539.13 1197.05 1539.13 Q1190.82 1539.13 1187.05 1542.66 Q1183.32 1546.18 1182.75 1552.58 L1209.33 1552.54 Z" fill="#000000" fill-rule="evenodd" fill-opacity="1" /><path clip-path="url(#clip590)" d="M1258.87 1540.79 L1258.87 1516.24 L1266.32 1516.24 L1266.32 1579.28 L1258.87 1579.28 L1258.87 1572.47 Q1256.52 1576.52 1252.92 1578.51 Q1249.35 1580.45 1244.33 1580.45 Q1236.1 1580.45 1230.92 1573.89 Q1225.77 1567.33 1225.77 1556.63 Q1225.77 1545.94 1230.92 1539.37 Q1236.1 1532.81 1244.33 1532.81 Q1249.35 1532.81 1252.92 1534.8 Q1256.52 1536.74 1258.87 1540.79 M1233.47 1556.63 Q1233.47 1564.85 1236.83 1569.55 Q1240.24 1574.21 1246.15 1574.21 Q1252.07 1574.21 1255.47 1569.55 Q1258.87 1564.85 1258.87 1556.63 Q1258.87 1548.41 1255.47 1543.75 Q1252.07 1539.05 1246.15 1539.05 Q1240.24 1539.05 1236.83 1543.75 Q1233.47 1548.41 1233.47 1556.63 Z" fill="#000000" fill-rule="evenodd" fill-opacity="1" /><path clip-path="url(#clip590)" d="M1281.68 1533.91 L1289.13 1533.91 L1289.13 1579.28 L1281.68 1579.28 L1281.68 1533.91 M1281.68 1516.24 L1289.13 1516.24 L1289.13 1525.68 L1281.68 1525.68 L1281.68 1516.24 Z" fill="#000000" fill-rule="evenodd" fill-opacity="1" /><path clip-path="url(#clip590)" d="M1337.38 1535.65 L1337.38 1542.62 Q1334.22 1540.87 1331.02 1540.02 Q1327.86 1539.13 1324.62 1539.13 Q1317.37 1539.13 1313.36 1543.75 Q1309.34 1548.33 1309.34 1556.63 Q1309.34 1564.94 1313.36 1569.55 Q1317.37 1574.13 1324.62 1574.13 Q1327.86 1574.13 1331.02 1573.28 Q1334.22 1572.39 1337.38 1570.65 L1337.38 1577.53 Q1334.26 1578.99 1330.9 1579.72 Q1327.57 1580.45 1323.81 1580.45 Q1313.56 1580.45 1307.52 1574.01 Q1301.49 1567.57 1301.49 1556.63 Q1301.49 1545.53 1307.56 1539.17 Q1313.68 1532.81 1324.29 1532.81 Q1327.74 1532.81 1331.02 1533.54 Q1334.3 1534.23 1337.38 1535.65 Z" fill="#000000" fill-rule="evenodd" fill-opacity="1" /><path clip-path="url(#clip590)" d="M1357.71 1521.02 L1357.71 1533.91 L1373.07 1533.91 L1373.07 1539.7 L1357.71 1539.7 L1357.71 1564.33 Q1357.71 1569.88 1359.21 1571.46 Q1360.75 1573.04 1365.41 1573.04 L1373.07 1573.04 L1373.07 1579.28 L1365.41 1579.28 Q1356.78 1579.28 1353.5 1576.08 Q1350.22 1572.83 1350.22 1564.33 L1350.22 1539.7 L1344.75 1539.7 L1344.75 1533.91 L1350.22 1533.91 L1350.22 1521.02 L1357.71 1521.02 Z" fill="#000000" fill-rule="evenodd" fill-opacity="1" /><path clip-path="url(#clip590)" d="M1400.45 1539.13 Q1394.45 1539.13 1390.97 1543.83 Q1387.49 1548.49 1387.49 1556.63 Q1387.49 1564.77 1390.93 1569.47 Q1394.41 1574.13 1400.45 1574.13 Q1406.4 1574.13 1409.89 1569.43 Q1413.37 1564.73 1413.37 1556.63 Q1413.37 1548.57 1409.89 1543.87 Q1406.4 1539.13 1400.45 1539.13 M1400.45 1532.81 Q1410.17 1532.81 1415.72 1539.13 Q1421.27 1545.45 1421.27 1556.63 Q1421.27 1567.77 1415.72 1574.13 Q1410.17 1580.45 1400.45 1580.45 Q1390.69 1580.45 1385.14 1574.13 Q1379.63 1567.77 1379.63 1556.63 Q1379.63 1545.45 1385.14 1539.13 Q1390.69 1532.81 1400.45 1532.81 Z" fill="#000000" fill-rule="evenodd" fill-opacity="1" /><path clip-path="url(#clip590)" d="M1459.92 1540.87 Q1458.66 1540.14 1457.16 1539.82 Q1455.7 1539.46 1453.92 1539.46 Q1447.6 1539.46 1444.2 1543.59 Q1440.84 1547.68 1440.84 1555.38 L1440.84 1579.28 L1433.34 1579.28 L1433.34 1533.91 L1440.84 1533.91 L1440.84 1540.95 Q1443.19 1536.82 1446.95 1534.84 Q1450.72 1532.81 1456.11 1532.81 Q1456.88 1532.81 1457.81 1532.93 Q1458.74 1533.01 1459.88 1533.22 L1459.92 1540.87 Z" fill="#000000" fill-rule="evenodd" fill-opacity="1" /><path clip-path="url(#clip590)" d="M1496.66 1535.24 L1496.66 1542.29 Q1493.5 1540.67 1490.1 1539.86 Q1486.69 1539.05 1483.05 1539.05 Q1477.5 1539.05 1474.7 1540.75 Q1471.95 1542.45 1471.95 1545.86 Q1471.95 1548.45 1473.93 1549.95 Q1475.92 1551.41 1481.91 1552.74 L1484.47 1553.31 Q1492.41 1555.01 1495.73 1558.13 Q1499.09 1561.21 1499.09 1566.76 Q1499.09 1573.08 1494.07 1576.76 Q1489.08 1580.45 1480.33 1580.45 Q1476.69 1580.45 1472.72 1579.72 Q1468.79 1579.03 1464.41 1577.61 L1464.41 1569.92 Q1468.55 1572.07 1472.56 1573.16 Q1476.57 1574.21 1480.5 1574.21 Q1485.76 1574.21 1488.6 1572.43 Q1491.43 1570.61 1491.43 1567.33 Q1491.43 1564.29 1489.37 1562.67 Q1487.34 1561.05 1480.41 1559.55 L1477.82 1558.94 Q1470.89 1557.48 1467.82 1554.48 Q1464.74 1551.45 1464.74 1546.18 Q1464.74 1539.78 1469.27 1536.3 Q1473.81 1532.81 1482.16 1532.81 Q1486.29 1532.81 1489.93 1533.42 Q1493.58 1534.03 1496.66 1535.24 Z" fill="#000000" fill-rule="evenodd" fill-opacity="1" /><polyline clip-path="url(#clip590)" style="stroke:#000000; stroke-linecap:round; stroke-linejoin:round; stroke-width:4; stroke-opacity:1; fill:none" points="
  243.775,1392.94 243.775,47.2441 
  "/>
<polyline clip-path="url(#clip590)" style="stroke:#000000; stroke-linecap:round; stroke-linejoin:round; stroke-width:4; stroke-opacity:1; fill:none" points="
  243.775,1392.94 262.673,1392.94 
  "/>
<polyline clip-path="url(#clip590)" style="stroke:#000000; stroke-linecap:round; stroke-linejoin:round; stroke-width:4; stroke-opacity:1; fill:none" points="
  243.775,944.375 262.673,944.375 
  "/>
<polyline clip-path="url(#clip590)" style="stroke:#000000; stroke-linecap:round; stroke-linejoin:round; stroke-width:4; stroke-opacity:1; fill:none" points="
  243.775,495.809 262.673,495.809 
  "/>
<polyline clip-path="url(#clip590)" style="stroke:#000000; stroke-linecap:round; stroke-linejoin:round; stroke-width:4; stroke-opacity:1; fill:none" points="
  243.775,47.2441 262.673,47.2441 
  "/>
<path clip-path="url(#clip590)" d="M189.859 1371.64 Q184.442 1371.64 181.699 1376.99 Q178.991 1382.3 178.991 1392.99 Q178.991 1403.65 181.699 1409 Q184.442 1414.31 189.859 1414.31 Q195.31 1414.31 198.018 1409 Q200.761 1403.65 200.761 1392.99 Q200.761 1382.3 198.018 1376.99 Q195.31 1371.64 189.859 1371.64 M189.859 1366.08 Q198.574 1366.08 203.157 1372.99 Q207.775 1379.87 207.775 1392.99 Q207.775 1406.08 203.157 1412.99 Q198.574 1419.87 189.859 1419.87 Q181.143 1419.87 176.525 1412.99 Q171.942 1406.08 171.942 1392.99 Q171.942 1379.87 176.525 1372.99 Q181.143 1366.08 189.859 1366.08 Z" fill="#000000" fill-rule="evenodd" fill-opacity="1" /><path clip-path="url(#clip590)" d="M130.831 964.392 L142.29 964.392 L142.29 924.843 L129.824 927.343 L129.824 920.955 L142.22 918.455 L149.234 918.455 L149.234 964.392 L160.692 964.392 L160.692 970.295 L130.831 970.295 L130.831 964.392 Z" fill="#000000" fill-rule="evenodd" fill-opacity="1" /><path clip-path="url(#clip590)" d="M189.859 923.073 Q184.442 923.073 181.699 928.42 Q178.991 933.732 178.991 944.427 Q178.991 955.086 181.699 960.434 Q184.442 965.746 189.859 965.746 Q195.31 965.746 198.018 960.434 Q200.761 955.086 200.761 944.427 Q200.761 933.732 198.018 928.42 Q195.31 923.073 189.859 923.073 M189.859 917.517 Q198.574 917.517 203.157 924.427 Q207.775 931.302 207.775 944.427 Q207.775 957.517 203.157 964.427 Q198.574 971.302 189.859 971.302 Q181.143 971.302 176.525 964.427 Q171.942 957.517 171.942 944.427 Q171.942 931.302 176.525 924.427 Q181.143 917.517 189.859 917.517 Z" fill="#000000" fill-rule="evenodd" fill-opacity="1" /><path clip-path="url(#clip590)" d="M135.658 515.827 L160.137 515.827 L160.137 521.729 L127.22 521.729 L127.22 515.827 Q131.213 511.695 138.088 504.75 Q144.998 497.771 146.769 495.757 Q150.137 491.973 151.456 489.368 Q152.81 486.73 152.81 484.195 Q152.81 480.063 149.894 477.459 Q147.012 474.855 142.359 474.855 Q139.06 474.855 135.38 476 Q131.734 477.146 127.567 479.473 L127.567 472.389 Q131.803 470.688 135.484 469.82 Q139.165 468.952 142.22 468.952 Q150.276 468.952 155.067 472.98 Q159.859 477.007 159.859 483.743 Q159.859 486.938 158.644 489.82 Q157.463 492.667 154.303 496.556 Q153.435 497.563 148.783 502.389 Q144.13 507.181 135.658 515.827 Z" fill="#000000" fill-rule="evenodd" fill-opacity="1" /><path clip-path="url(#clip590)" d="M189.859 474.507 Q184.442 474.507 181.699 479.855 Q178.991 485.167 178.991 495.861 Q178.991 506.521 181.699 511.868 Q184.442 517.181 189.859 517.181 Q195.31 517.181 198.018 511.868 Q200.761 506.521 200.761 495.861 Q200.761 485.167 198.018 479.855 Q195.31 474.507 189.859 474.507 M189.859 468.952 Q198.574 468.952 203.157 475.862 Q207.775 482.736 207.775 495.861 Q207.775 508.952 203.157 515.861 Q198.574 522.736 189.859 522.736 Q181.143 522.736 176.525 515.861 Q171.942 508.952 171.942 495.861 Q171.942 482.736 176.525 475.862 Q181.143 468.952 189.859 468.952 Z" fill="#000000" fill-rule="evenodd" fill-opacity="1" /><path clip-path="url(#clip590)" d="M150.866 45.2129 Q155.901 46.2892 158.713 49.692 Q161.56 53.0948 161.56 58.0947 Q161.56 65.7683 156.283 69.9697 Q151.005 74.171 141.283 74.171 Q138.019 74.171 134.547 73.5113 Q131.109 72.8863 127.428 71.6016 L127.428 64.8308 Q130.345 66.5322 133.817 67.4002 Q137.29 68.2683 141.074 68.2683 Q147.671 68.2683 151.109 65.6641 Q154.581 63.06 154.581 58.0947 Q154.581 53.5114 151.352 50.942 Q148.158 48.3378 142.428 48.3378 L136.387 48.3378 L136.387 42.574 L142.706 42.574 Q147.88 42.574 150.623 40.5254 Q153.366 38.4421 153.366 34.5532 Q153.366 30.5602 150.519 28.4421 Q147.706 26.2893 142.428 26.2893 Q139.546 26.2893 136.248 26.9143 Q132.949 27.5393 128.991 28.8588 L128.991 22.6088 Q132.984 21.4977 136.456 20.9422 Q139.963 20.3866 143.053 20.3866 Q151.039 20.3866 155.692 24.0324 Q160.345 27.6435 160.345 33.824 Q160.345 38.1296 157.88 41.1157 Q155.414 44.067 150.866 45.2129 Z" fill="#000000" fill-rule="evenodd" fill-opacity="1" /><path clip-path="url(#clip590)" d="M189.859 25.9421 Q184.442 25.9421 181.699 31.2893 Q178.991 36.6018 178.991 47.2962 Q178.991 57.9558 181.699 63.303 Q184.442 68.6155 189.859 68.6155 Q195.31 68.6155 198.018 63.303 Q200.761 57.9558 200.761 47.2962 Q200.761 36.6018 198.018 31.2893 Q195.31 25.9421 189.859 25.9421 M189.859 20.3866 Q198.574 20.3866 203.157 27.2963 Q207.775 34.1712 207.775 47.2962 Q207.775 60.3864 203.157 67.2961 Q198.574 74.171 189.859 74.171 Q181.143 74.171 176.525 67.2961 Q171.942 60.3864 171.942 47.2962 Q171.942 34.1712 176.525 27.2963 Q181.143 20.3866 189.859 20.3866 Z" fill="#000000" fill-rule="evenodd" fill-opacity="1" /><path clip-path="url(#clip590)" d="M18.1459 961.911 Q18.1459 970.823 24.7894 976.089 Q31.4329 981.315 42.8969 981.315 Q54.3205 981.315 60.964 976.089 Q67.6074 970.823 67.6074 961.911 Q67.6074 952.999 60.964 947.814 Q54.3205 942.588 42.8969 942.588 Q31.4329 942.588 24.7894 947.814 Q18.1459 952.999 18.1459 961.911 M11.5024 961.911 Q11.5024 949.191 20.0498 941.575 Q28.5567 933.959 42.8969 933.959 Q57.1966 933.959 65.744 941.575 Q74.2509 949.191 74.2509 961.911 Q74.2509 974.671 65.744 982.327 Q57.2371 989.943 42.8969 989.943 Q28.5567 989.943 20.0498 982.327 Q11.5024 974.671 11.5024 961.911 Z" fill="#000000" fill-rule="evenodd" fill-opacity="1" /><path clip-path="url(#clip590)" d="M50.4316 888.913 Q42.2083 888.913 37.5497 892.316 Q32.8507 895.678 32.8507 901.593 Q32.8507 907.507 37.5497 910.91 Q42.2083 914.272 50.4316 914.272 Q58.6549 914.272 63.354 910.91 Q68.0125 907.507 68.0125 901.593 Q68.0125 895.678 63.354 892.316 Q58.6549 888.913 50.4316 888.913 M34.5926 914.272 Q30.5417 911.923 28.5972 908.358 Q26.6123 904.752 26.6123 899.77 Q26.6123 891.506 33.1748 886.361 Q39.7372 881.176 50.4316 881.176 Q61.126 881.176 67.6885 886.361 Q74.2509 891.506 74.2509 899.77 Q74.2509 904.752 72.3065 908.358 Q70.3215 911.923 66.2706 914.272 L73.0762 914.272 L73.0762 921.766 L10.0441 921.766 L10.0441 914.272 L34.5926 914.272 Z" fill="#000000" fill-rule="evenodd" fill-opacity="1" /><path clip-path="url(#clip590)" d="M29.0428 839.897 L36.0914 839.897 Q34.471 843.057 33.6609 846.46 Q32.8507 849.863 32.8507 853.508 Q32.8507 859.058 34.5521 861.853 Q36.2534 864.608 39.6562 864.608 Q42.2488 864.608 43.7476 862.623 Q45.2059 860.638 46.5427 854.643 L47.1099 852.091 Q48.8112 844.151 51.9304 840.829 Q55.0091 837.467 60.5589 837.467 Q66.8783 837.467 70.5646 842.49 Q74.2509 847.473 74.2509 856.223 Q74.2509 859.868 73.5218 863.838 Q72.8331 867.768 71.4153 872.143 L63.7186 872.143 Q65.8655 868.011 66.9593 864 Q68.0125 859.99 68.0125 856.061 Q68.0125 850.794 66.2301 847.959 Q64.4072 845.123 61.126 845.123 Q58.0878 845.123 56.4675 847.189 Q54.8471 849.215 53.3483 856.142 L52.7406 858.734 Q51.2823 865.661 48.2846 868.74 Q45.2464 871.819 39.9803 871.819 Q33.5798 871.819 30.0961 867.282 Q26.6123 862.745 26.6123 854.4 Q26.6123 850.268 27.2199 846.622 Q27.8276 842.976 29.0428 839.897 Z" fill="#000000" fill-rule="evenodd" fill-opacity="1" /><path clip-path="url(#clip590)" d="M48.5277 786.79 L52.1735 786.79 L52.1735 821.061 Q59.8702 820.575 63.9211 816.443 Q67.9315 812.27 67.9315 804.857 Q67.9315 800.563 66.8783 796.553 Q65.825 792.502 63.7186 788.532 L70.7671 788.532 Q72.4685 792.542 73.3597 796.755 Q74.2509 800.968 74.2509 805.303 Q74.2509 816.159 67.9315 822.519 Q61.6121 828.838 50.8367 828.838 Q39.6967 828.838 33.1748 822.843 Q26.6123 816.807 26.6123 806.599 Q26.6123 797.444 32.5266 792.137 Q38.4004 786.79 48.5277 786.79 M46.3402 794.244 Q40.2233 794.325 36.5775 797.687 Q32.9317 801.009 32.9317 806.518 Q32.9317 812.756 36.456 816.524 Q39.9803 820.251 46.3807 820.818 L46.3402 794.244 Z" fill="#000000" fill-rule="evenodd" fill-opacity="1" /><path clip-path="url(#clip590)" d="M34.6736 748.266 Q33.9444 749.522 33.6204 751.021 Q33.2558 752.479 33.2558 754.261 Q33.2558 760.581 37.3877 763.984 Q41.4791 767.346 49.1758 767.346 L73.0762 767.346 L73.0762 774.84 L27.706 774.84 L27.706 767.346 L34.7546 767.346 Q30.6227 764.996 28.6377 761.229 Q26.6123 757.462 26.6123 752.074 Q26.6123 751.304 26.7338 750.372 Q26.8148 749.441 27.0174 748.307 L34.6736 748.266 Z" fill="#000000" fill-rule="evenodd" fill-opacity="1" /><path clip-path="url(#clip590)" d="M27.706 745.795 L27.706 737.896 L65.7845 723.718 L27.706 709.539 L27.706 701.64 L73.0762 718.654 L73.0762 728.781 L27.706 745.795 Z" fill="#000000" fill-rule="evenodd" fill-opacity="1" /><path clip-path="url(#clip590)" d="M50.2696 670.732 Q50.2696 679.765 52.3355 683.249 Q54.4015 686.733 59.3841 686.733 Q63.354 686.733 65.7035 684.14 Q68.0125 681.507 68.0125 677.011 Q68.0125 670.813 63.6376 667.086 Q59.2221 663.319 51.9304 663.319 L50.2696 663.319 L50.2696 670.732 M47.1909 655.865 L73.0762 655.865 L73.0762 663.319 L66.1896 663.319 Q70.3215 665.871 72.3065 669.678 Q74.2509 673.486 74.2509 678.996 Q74.2509 685.963 70.3621 690.095 Q66.4327 694.186 59.8702 694.186 Q52.214 694.186 48.3251 689.082 Q44.4363 683.938 44.4363 673.77 L44.4363 663.319 L43.7071 663.319 Q38.5625 663.319 35.7673 666.721 Q32.9317 670.084 32.9317 676.2 Q32.9317 680.089 33.8634 683.776 Q34.7951 687.462 36.6585 690.865 L29.772 690.865 Q28.1921 686.773 27.4225 682.925 Q26.6123 679.077 26.6123 675.431 Q26.6123 665.587 31.7164 660.726 Q36.8206 655.865 47.1909 655.865 Z" fill="#000000" fill-rule="evenodd" fill-opacity="1" /><path clip-path="url(#clip590)" d="M14.8242 633.139 L27.706 633.139 L27.706 617.786 L33.4988 617.786 L33.4988 633.139 L58.1283 633.139 Q63.6781 633.139 65.2579 631.64 Q66.8378 630.101 66.8378 625.443 L66.8378 617.786 L73.0762 617.786 L73.0762 625.443 Q73.0762 634.071 69.8759 637.352 Q66.6352 640.633 58.1283 640.633 L33.4988 640.633 L33.4988 646.102 L27.706 646.102 L27.706 640.633 L14.8242 640.633 L14.8242 633.139 Z" fill="#000000" fill-rule="evenodd" fill-opacity="1" /><path clip-path="url(#clip590)" d="M27.706 607.983 L27.706 600.53 L73.0762 600.53 L73.0762 607.983 L27.706 607.983 M10.0441 607.983 L10.0441 600.53 L19.4827 600.53 L19.4827 607.983 L10.0441 607.983 Z" fill="#000000" fill-rule="evenodd" fill-opacity="1" /><path clip-path="url(#clip590)" d="M32.9317 567.353 Q32.9317 573.348 37.6307 576.832 Q42.2893 580.316 50.4316 580.316 Q58.5739 580.316 63.273 576.872 Q67.9315 573.388 67.9315 567.353 Q67.9315 561.398 63.2325 557.914 Q58.5334 554.43 50.4316 554.43 Q42.3703 554.43 37.6713 557.914 Q32.9317 561.398 32.9317 567.353 M26.6123 567.353 Q26.6123 557.63 32.9317 552.081 Q39.2511 546.531 50.4316 546.531 Q61.5716 546.531 67.9315 552.081 Q74.2509 557.63 74.2509 567.353 Q74.2509 577.115 67.9315 582.665 Q61.5716 588.174 50.4316 588.174 Q39.2511 588.174 32.9317 582.665 Q26.6123 577.115 26.6123 567.353 Z" fill="#000000" fill-rule="evenodd" fill-opacity="1" /><path clip-path="url(#clip590)" d="M45.692 496.462 L73.0762 496.462 L73.0762 503.915 L45.9351 503.915 Q39.4942 503.915 36.2939 506.427 Q33.0937 508.939 33.0937 513.962 Q33.0937 519.998 36.9421 523.481 Q40.7905 526.965 47.4339 526.965 L73.0762 526.965 L73.0762 534.459 L27.706 534.459 L27.706 526.965 L34.7546 526.965 Q30.6632 524.292 28.6377 520.686 Q26.6123 517.04 26.6123 512.301 Q26.6123 504.483 31.4734 500.472 Q36.2939 496.462 45.692 496.462 Z" fill="#000000" fill-rule="evenodd" fill-opacity="1" /><path clip-path="url(#clip590)" d="M29.0428 452.672 L36.0914 452.672 Q34.471 455.831 33.6609 459.234 Q32.8507 462.637 32.8507 466.283 Q32.8507 471.832 34.5521 474.627 Q36.2534 477.382 39.6562 477.382 Q42.2488 477.382 43.7476 475.397 Q45.2059 473.412 46.5427 467.417 L47.1099 464.865 Q48.8112 456.925 51.9304 453.603 Q55.0091 450.241 60.5589 450.241 Q66.8783 450.241 70.5646 455.264 Q74.2509 460.247 74.2509 468.997 Q74.2509 472.642 73.5218 476.612 Q72.8331 480.542 71.4153 484.917 L63.7186 484.917 Q65.8655 480.785 66.9593 476.774 Q68.0125 472.764 68.0125 468.835 Q68.0125 463.568 66.2301 460.733 Q64.4072 457.897 61.126 457.897 Q58.0878 457.897 56.4675 459.963 Q54.8471 461.989 53.3483 468.916 L52.7406 471.508 Q51.2823 478.435 48.2846 481.514 Q45.2464 484.593 39.9803 484.593 Q33.5798 484.593 30.0961 480.056 Q26.6123 475.519 26.6123 467.174 Q26.6123 463.042 27.2199 459.396 Q27.8276 455.75 29.0428 452.672 Z" fill="#000000" fill-rule="evenodd" fill-opacity="1" /><polyline clip-path="url(#clip592)" style="stroke:#009af9; stroke-linecap:round; stroke-linejoin:round; stroke-width:4; stroke-opacity:1; fill:none" points="
  395.832,1079.69 553.425,1016.97 1171.54,770.985 339.299,1102.18 1844.65,503.114 2015.22,435.237 481.68,1045.52 2214.05,356.11 2179.48,369.866 2293.07,324.664 
  596.592,999.793 1068.89,811.835 732.514,945.702 303.463,1116.45 1619.64,592.663 2090.82,405.15 2094.22,403.799 1776.05,530.416 1068.39,812.036 2039.18,425.7 
  
  "/>
<circle clip-path="url(#clip592)" cx="395.832" cy="1114.81" r="18" fill="#e26f46" fill-rule="evenodd" fill-opacity="1" stroke="#000000" stroke-opacity="1" stroke-width="3.2"/>
<circle clip-path="url(#clip592)" cx="553.425" cy="964.542" r="18" fill="#e26f46" fill-rule="evenodd" fill-opacity="1" stroke="#000000" stroke-opacity="1" stroke-width="3.2"/>
<circle clip-path="url(#clip592)" cx="1171.54" cy="773.795" r="18" fill="#e26f46" fill-rule="evenodd" fill-opacity="1" stroke="#000000" stroke-opacity="1" stroke-width="3.2"/>
<circle clip-path="url(#clip592)" cx="339.299" cy="1245.59" r="18" fill="#e26f46" fill-rule="evenodd" fill-opacity="1" stroke="#000000" stroke-opacity="1" stroke-width="3.2"/>
<circle clip-path="url(#clip592)" cx="1844.65" cy="571.83" r="18" fill="#e26f46" fill-rule="evenodd" fill-opacity="1" stroke="#000000" stroke-opacity="1" stroke-width="3.2"/>
<circle clip-path="url(#clip592)" cx="2015.22" cy="326.808" r="18" fill="#e26f46" fill-rule="evenodd" fill-opacity="1" stroke="#000000" stroke-opacity="1" stroke-width="3.2"/>
<circle clip-path="url(#clip592)" cx="481.68" cy="1113.09" r="18" fill="#e26f46" fill-rule="evenodd" fill-opacity="1" stroke="#000000" stroke-opacity="1" stroke-width="3.2"/>
<circle clip-path="url(#clip592)" cx="2214.05" cy="409.749" r="18" fill="#e26f46" fill-rule="evenodd" fill-opacity="1" stroke="#000000" stroke-opacity="1" stroke-width="3.2"/>
<circle clip-path="url(#clip592)" cx="2179.48" cy="383.239" r="18" fill="#e26f46" fill-rule="evenodd" fill-opacity="1" stroke="#000000" stroke-opacity="1" stroke-width="3.2"/>
<circle clip-path="url(#clip592)" cx="2293.07" cy="331.308" r="18" fill="#e26f46" fill-rule="evenodd" fill-opacity="1" stroke="#000000" stroke-opacity="1" stroke-width="3.2"/>
<circle clip-path="url(#clip592)" cx="596.592" cy="903.24" r="18" fill="#e26f46" fill-rule="evenodd" fill-opacity="1" stroke="#000000" stroke-opacity="1" stroke-width="3.2"/>
<circle clip-path="url(#clip592)" cx="1068.89" cy="759.451" r="18" fill="#e26f46" fill-rule="evenodd" fill-opacity="1" stroke="#000000" stroke-opacity="1" stroke-width="3.2"/>
<circle clip-path="url(#clip592)" cx="732.514" cy="903.528" r="18" fill="#e26f46" fill-rule="evenodd" fill-opacity="1" stroke="#000000" stroke-opacity="1" stroke-width="3.2"/>
<circle clip-path="url(#clip592)" cx="303.463" cy="1265.96" r="18" fill="#e26f46" fill-rule="evenodd" fill-opacity="1" stroke="#000000" stroke-opacity="1" stroke-width="3.2"/>
<circle clip-path="url(#clip592)" cx="1619.64" cy="607.317" r="18" fill="#e26f46" fill-rule="evenodd" fill-opacity="1" stroke="#000000" stroke-opacity="1" stroke-width="3.2"/>
<circle clip-path="url(#clip592)" cx="2090.82" cy="530.365" r="18" fill="#e26f46" fill-rule="evenodd" fill-opacity="1" stroke="#000000" stroke-opacity="1" stroke-width="3.2"/>
<circle clip-path="url(#clip592)" cx="2094.22" cy="425.152" r="18" fill="#e26f46" fill-rule="evenodd" fill-opacity="1" stroke="#000000" stroke-opacity="1" stroke-width="3.2"/>
<circle clip-path="url(#clip592)" cx="1776.05" cy="654.154" r="18" fill="#e26f46" fill-rule="evenodd" fill-opacity="1" stroke="#000000" stroke-opacity="1" stroke-width="3.2"/>
<circle clip-path="url(#clip592)" cx="1068.39" cy="963.72" r="18" fill="#e26f46" fill-rule="evenodd" fill-opacity="1" stroke="#000000" stroke-opacity="1" stroke-width="3.2"/>
<circle clip-path="url(#clip592)" cx="2039.18" cy="641.596" r="18" fill="#e26f46" fill-rule="evenodd" fill-opacity="1" stroke="#000000" stroke-opacity="1" stroke-width="3.2"/>
<path clip-path="url(#clip592)" d="M375.832 996.733 L375.832 1036.73 L415.832 1036.73 L415.832 996.733 L375.832 996.733 Z" fill="#3da44d" fill-rule="evenodd" fill-opacity="1" stroke="#000000" stroke-opacity="1" stroke-width="3.2"/>
<path clip-path="url(#clip592)" d="M533.425 942.804 L533.425 982.804 L573.425 982.804 L573.425 942.804 L533.425 942.804 Z" fill="#3da44d" fill-rule="evenodd" fill-opacity="1" stroke="#000000" stroke-opacity="1" stroke-width="3.2"/>
<path clip-path="url(#clip592)" d="M1151.54 730.542 L1151.54 770.542 L1191.54 770.542 L1191.54 730.542 L1151.54 730.542 Z" fill="#3da44d" fill-rule="evenodd" fill-opacity="1" stroke="#000000" stroke-opacity="1" stroke-width="3.2"/>
<path clip-path="url(#clip592)" d="M319.299 1196.6 L319.299 1236.6 L359.299 1236.6 L359.299 1196.6 L319.299 1196.6 Z" fill="#3da44d" fill-rule="evenodd" fill-opacity="1" stroke="#000000" stroke-opacity="1" stroke-width="3.2"/>
<path clip-path="url(#clip592)" d="M1824.65 497.038 L1824.65 537.038 L1864.65 537.038 L1864.65 497.038 L1824.65 497.038 Z" fill="#3da44d" fill-rule="evenodd" fill-opacity="1" stroke="#000000" stroke-opacity="1" stroke-width="3.2"/>
<path clip-path="url(#clip592)" d="M1995.22 399.926 L1995.22 439.926 L2035.22 439.926 L2035.22 399.926 L1995.22 399.926 Z" fill="#3da44d" fill-rule="evenodd" fill-opacity="1" stroke="#000000" stroke-opacity="1" stroke-width="3.2"/>
<path clip-path="url(#clip592)" d="M461.68 968.055 L461.68 1008.05 L501.68 1008.05 L501.68 968.055 L461.68 968.055 Z" fill="#3da44d" fill-rule="evenodd" fill-opacity="1" stroke="#000000" stroke-opacity="1" stroke-width="3.2"/>
<path clip-path="url(#clip592)" d="M2194.05 394.981 L2194.05 434.981 L2234.05 434.981 L2234.05 394.981 L2194.05 394.981 Z" fill="#3da44d" fill-rule="evenodd" fill-opacity="1" stroke="#000000" stroke-opacity="1" stroke-width="3.2"/>
<path clip-path="url(#clip592)" d="M2159.48 393.48 L2159.48 433.48 L2199.48 433.48 L2199.48 393.48 L2159.48 393.48 Z" fill="#3da44d" fill-rule="evenodd" fill-opacity="1" stroke="#000000" stroke-opacity="1" stroke-width="3.2"/>
<path clip-path="url(#clip592)" d="M2273.07 340.236 L2273.07 380.236 L2313.07 380.236 L2313.07 340.236 L2273.07 340.236 Z" fill="#3da44d" fill-rule="evenodd" fill-opacity="1" stroke="#000000" stroke-opacity="1" stroke-width="3.2"/>
<path clip-path="url(#clip592)" d="M576.592 807.526 L576.592 847.526 L616.592 847.526 L616.592 807.526 L576.592 807.526 Z" fill="#3da44d" fill-rule="evenodd" fill-opacity="1" stroke="#000000" stroke-opacity="1" stroke-width="3.2"/>
<path clip-path="url(#clip592)" d="M712.514 865.237 L712.514 905.237 L752.514 905.237 L752.514 865.237 L712.514 865.237 Z" fill="#3da44d" fill-rule="evenodd" fill-opacity="1" stroke="#000000" stroke-opacity="1" stroke-width="3.2"/>
<path clip-path="url(#clip592)" d="M1599.64 586.326 L1599.64 626.326 L1639.64 626.326 L1639.64 586.326 L1599.64 586.326 Z" fill="#3da44d" fill-rule="evenodd" fill-opacity="1" stroke="#000000" stroke-opacity="1" stroke-width="3.2"/>
<path clip-path="url(#clip592)" d="M2070.82 347.275 L2070.82 387.275 L2110.82 387.275 L2110.82 347.275 L2070.82 347.275 Z" fill="#3da44d" fill-rule="evenodd" fill-opacity="1" stroke="#000000" stroke-opacity="1" stroke-width="3.2"/>
<path clip-path="url(#clip592)" d="M2074.22 302.433 L2074.22 342.433 L2114.22 342.433 L2114.22 302.433 L2074.22 302.433 Z" fill="#3da44d" fill-rule="evenodd" fill-opacity="1" stroke="#000000" stroke-opacity="1" stroke-width="3.2"/>
<path clip-path="url(#clip592)" d="M1756.05 702.789 L1756.05 742.789 L1796.05 742.789 L1796.05 702.789 L1756.05 702.789 Z" fill="#3da44d" fill-rule="evenodd" fill-opacity="1" stroke="#000000" stroke-opacity="1" stroke-width="3.2"/>
<path clip-path="url(#clip592)" d="M1048.39 713.347 L1048.39 753.347 L1088.39 753.347 L1088.39 713.347 L1048.39 713.347 Z" fill="#3da44d" fill-rule="evenodd" fill-opacity="1" stroke="#000000" stroke-opacity="1" stroke-width="3.2"/>
<path clip-path="url(#clip590)" d="
M314.075 351.301 L1378.09 351.301 L1378.09 92.1006 L314.075 92.1006  Z
  " fill="#ffffff" fill-rule="evenodd" fill-opacity="1"/>
<polyline clip-path="url(#clip590)" style="stroke:#000000; stroke-linecap:round; stroke-linejoin:round; stroke-width:4; stroke-opacity:1; fill:none" points="
  314.075,351.301 1378.09,351.301 1378.09,92.1006 314.075,92.1006 314.075,351.301 
  "/>
<polyline clip-path="url(#clip590)" style="stroke:#009af9; stroke-linecap:round; stroke-linejoin:round; stroke-width:5; stroke-opacity:1; fill:none" points="
  337.508,156.901 478.106,156.901 
  "/>
<path clip-path="url(#clip590)" d="M501.54 135.301 L538.085 135.301 L538.085 140.22 L522.749 140.22 L522.749 178.501 L516.875 178.501 L516.875 140.22 L501.54 140.22 L501.54 135.301 Z" fill="#000000" fill-rule="evenodd" fill-opacity="1" /><path clip-path="url(#clip590)" d="M553.565 151.07 Q552.668 150.549 551.597 150.318 Q550.556 150.057 549.282 150.057 Q544.769 150.057 542.338 153.009 Q539.936 155.931 539.936 161.429 L539.936 178.501 L534.583 178.501 L534.583 146.093 L539.936 146.093 L539.936 151.128 Q541.615 148.177 544.306 146.759 Q546.997 145.312 550.845 145.312 Q551.395 145.312 552.06 145.399 Q552.726 145.457 553.536 145.601 L553.565 151.07 Z" fill="#000000" fill-rule="evenodd" fill-opacity="1" /><path clip-path="url(#clip590)" d="M585.567 160.966 L585.567 163.57 L561.088 163.57 Q561.435 169.068 564.386 171.961 Q567.367 174.826 572.662 174.826 Q575.729 174.826 578.594 174.074 Q581.487 173.321 584.323 171.817 L584.323 176.851 Q581.458 178.067 578.449 178.703 Q575.44 179.34 572.344 179.34 Q564.589 179.34 560.046 174.826 Q555.532 170.312 555.532 162.615 Q555.532 154.658 559.815 150 Q564.126 145.312 571.418 145.312 Q577.957 145.312 581.747 149.537 Q585.567 153.732 585.567 160.966 M580.243 159.403 Q580.185 155.034 577.783 152.43 Q575.411 149.826 571.476 149.826 Q567.02 149.826 564.329 152.343 Q561.667 154.861 561.261 159.432 L580.243 159.403 Z" fill="#000000" fill-rule="evenodd" fill-opacity="1" /><path clip-path="url(#clip590)" d="M621.244 158.941 L621.244 178.501 L615.92 178.501 L615.92 159.114 Q615.92 154.513 614.126 152.228 Q612.332 149.942 608.744 149.942 Q604.433 149.942 601.944 152.691 Q599.456 155.439 599.456 160.185 L599.456 178.501 L594.103 178.501 L594.103 146.093 L599.456 146.093 L599.456 151.128 Q601.365 148.206 603.941 146.759 Q606.545 145.312 609.93 145.312 Q615.515 145.312 618.379 148.784 Q621.244 152.228 621.244 158.941 Z" fill="#000000" fill-rule="evenodd" fill-opacity="1" /><path clip-path="url(#clip590)" d="M653.188 151.012 L653.188 133.478 L658.512 133.478 L658.512 178.501 L653.188 178.501 L653.188 173.64 Q651.51 176.533 648.935 177.951 Q646.388 179.34 642.8 179.34 Q636.927 179.34 633.223 174.652 Q629.548 169.965 629.548 162.326 Q629.548 154.687 633.223 150 Q636.927 145.312 642.8 145.312 Q646.388 145.312 648.935 146.73 Q651.51 148.119 653.188 151.012 M635.046 162.326 Q635.046 168.2 637.447 171.556 Q639.878 174.884 644.102 174.884 Q648.327 174.884 650.758 171.556 Q653.188 168.2 653.188 162.326 Q653.188 156.452 650.758 153.125 Q648.327 149.768 644.102 149.768 Q639.878 149.768 637.447 153.125 Q635.046 156.452 635.046 162.326 Z" fill="#000000" fill-rule="evenodd" fill-opacity="1" /><path clip-path="url(#clip590)" d="M688.547 135.301 L694.392 135.301 L694.392 173.582 L715.427 173.582 L715.427 178.501 L688.547 178.501 L688.547 135.301 Z" fill="#000000" fill-rule="evenodd" fill-opacity="1" /><path clip-path="url(#clip590)" d="M721.33 146.093 L726.654 146.093 L726.654 178.501 L721.33 178.501 L721.33 146.093 M721.33 133.478 L726.654 133.478 L726.654 140.22 L721.33 140.22 L721.33 133.478 Z" fill="#000000" fill-rule="evenodd" fill-opacity="1" /><path clip-path="url(#clip590)" d="M764.733 158.941 L764.733 178.501 L759.409 178.501 L759.409 159.114 Q759.409 154.513 757.615 152.228 Q755.821 149.942 752.233 149.942 Q747.921 149.942 745.433 152.691 Q742.945 155.439 742.945 160.185 L742.945 178.501 L737.592 178.501 L737.592 146.093 L742.945 146.093 L742.945 151.128 Q744.854 148.206 747.429 146.759 Q750.034 145.312 753.419 145.312 Q759.003 145.312 761.868 148.784 Q764.733 152.228 764.733 158.941 Z" fill="#000000" fill-rule="evenodd" fill-opacity="1" /><path clip-path="url(#clip590)" d="M803.072 160.966 L803.072 163.57 L778.592 163.57 Q778.94 169.068 781.891 171.961 Q784.871 174.826 790.167 174.826 Q793.234 174.826 796.098 174.074 Q798.992 173.321 801.827 171.817 L801.827 176.851 Q798.963 178.067 795.954 178.703 Q792.944 179.34 789.848 179.34 Q782.094 179.34 777.551 174.826 Q773.037 170.312 773.037 162.615 Q773.037 154.658 777.319 150 Q781.631 145.312 788.922 145.312 Q795.462 145.312 799.252 149.537 Q803.072 153.732 803.072 160.966 M797.747 159.403 Q797.69 155.034 795.288 152.43 Q792.915 149.826 788.98 149.826 Q784.524 149.826 781.833 152.343 Q779.171 154.861 778.766 159.432 L797.747 159.403 Z" fill="#000000" fill-rule="evenodd" fill-opacity="1" /><circle clip-path="url(#clip590)" cx="407.807" cy="221.701" r="28.8" fill="#e26f46" fill-rule="evenodd" fill-opacity="1" stroke="#000000" stroke-opacity="1" stroke-width="5.12"/>
<path clip-path="url(#clip590)" d="M501.54 200.101 L509.41 200.101 L528.565 236.24 L528.565 200.101 L534.236 200.101 L534.236 243.301 L526.366 243.301 L507.211 207.161 L507.211 243.301 L501.54 243.301 L501.54 200.101 Z" fill="#000000" fill-rule="evenodd" fill-opacity="1" /><path clip-path="url(#clip590)" d="M558.194 214.626 Q553.912 214.626 551.424 217.982 Q548.935 221.31 548.935 227.126 Q548.935 232.942 551.395 236.298 Q553.883 239.626 558.194 239.626 Q562.448 239.626 564.936 236.269 Q567.425 232.913 567.425 227.126 Q567.425 221.368 564.936 218.011 Q562.448 214.626 558.194 214.626 M558.194 210.112 Q565.139 210.112 569.103 214.626 Q573.067 219.14 573.067 227.126 Q573.067 235.083 569.103 239.626 Q565.139 244.14 558.194 244.14 Q551.221 244.14 547.257 239.626 Q543.322 235.083 543.322 227.126 Q543.322 219.14 547.257 214.626 Q551.221 210.112 558.194 210.112 Z" fill="#000000" fill-rule="evenodd" fill-opacity="1" /><path clip-path="url(#clip590)" d="M600.671 215.87 Q599.774 215.349 598.703 215.118 Q597.662 214.857 596.389 214.857 Q591.875 214.857 589.444 217.809 Q587.043 220.731 587.043 226.229 L587.043 243.301 L581.69 243.301 L581.69 210.893 L587.043 210.893 L587.043 215.928 Q588.721 212.977 591.412 211.559 Q594.103 210.112 597.951 210.112 Q598.501 210.112 599.166 210.199 Q599.832 210.257 600.642 210.401 L600.671 215.87 Z" fill="#000000" fill-rule="evenodd" fill-opacity="1" /><path clip-path="url(#clip590)" d="M630.445 217.114 Q632.442 213.526 635.219 211.819 Q637.997 210.112 641.759 210.112 Q646.822 210.112 649.571 213.671 Q652.32 217.201 652.32 223.741 L652.32 243.301 L646.967 243.301 L646.967 223.914 Q646.967 219.256 645.318 216.999 Q643.668 214.742 640.283 214.742 Q636.145 214.742 633.744 217.491 Q631.342 220.239 631.342 224.985 L631.342 243.301 L625.989 243.301 L625.989 223.914 Q625.989 219.227 624.34 216.999 Q622.691 214.742 619.247 214.742 Q615.167 214.742 612.766 217.52 Q610.364 220.268 610.364 224.985 L610.364 243.301 L605.011 243.301 L605.011 210.893 L610.364 210.893 L610.364 215.928 Q612.187 212.948 614.733 211.53 Q617.28 210.112 620.781 210.112 Q624.311 210.112 626.77 211.906 Q629.259 213.7 630.445 217.114 Z" fill="#000000" fill-rule="evenodd" fill-opacity="1" /><path clip-path="url(#clip590)" d="M677.667 227.01 Q671.215 227.01 668.726 228.486 Q666.238 229.962 666.238 233.521 Q666.238 236.356 668.09 238.034 Q669.97 239.684 673.182 239.684 Q677.609 239.684 680.271 236.559 Q682.962 233.405 682.962 228.197 L682.962 227.01 L677.667 227.01 M688.286 224.811 L688.286 243.301 L682.962 243.301 L682.962 238.382 Q681.139 241.333 678.419 242.751 Q675.7 244.14 671.764 244.14 Q666.788 244.14 663.836 241.362 Q660.914 238.555 660.914 233.868 Q660.914 228.399 664.56 225.621 Q668.234 222.844 675.497 222.844 L682.962 222.844 L682.962 222.323 Q682.962 218.648 680.532 216.651 Q678.13 214.626 673.761 214.626 Q670.983 214.626 668.35 215.292 Q665.717 215.957 663.286 217.288 L663.286 212.369 Q666.209 211.241 668.958 210.691 Q671.706 210.112 674.311 210.112 Q681.342 210.112 684.814 213.758 Q688.286 217.404 688.286 224.811 Z" fill="#000000" fill-rule="evenodd" fill-opacity="1" /><path clip-path="url(#clip590)" d="M699.253 198.278 L704.577 198.278 L704.577 243.301 L699.253 243.301 L699.253 198.278 Z" fill="#000000" fill-rule="evenodd" fill-opacity="1" /><path clip-path="url(#clip590)" d="M755.271 223.046 Q757.152 223.683 758.917 225.766 Q760.711 227.849 762.505 231.495 L768.436 243.301 L762.157 243.301 L756.631 232.219 Q754.49 227.878 752.464 226.46 Q750.468 225.043 746.995 225.043 L740.63 225.043 L740.63 243.301 L734.785 243.301 L734.785 200.101 L747.979 200.101 Q755.387 200.101 759.032 203.197 Q762.678 206.293 762.678 212.543 Q762.678 216.623 760.769 219.313 Q758.888 222.004 755.271 223.046 M740.63 204.904 L740.63 220.239 L747.979 220.239 Q752.204 220.239 754.345 218.301 Q756.515 216.333 756.515 212.543 Q756.515 208.752 754.345 206.842 Q752.204 204.904 747.979 204.904 L740.63 204.904 Z" fill="#000000" fill-rule="evenodd" fill-opacity="1" /><path clip-path="url(#clip590)" d="M800.786 225.766 L800.786 228.37 L776.307 228.37 Q776.654 233.868 779.605 236.761 Q782.586 239.626 787.881 239.626 Q790.948 239.626 793.812 238.874 Q796.706 238.121 799.541 236.617 L799.541 241.651 Q796.677 242.867 793.668 243.503 Q790.658 244.14 787.562 244.14 Q779.808 244.14 775.265 239.626 Q770.751 235.112 770.751 227.415 Q770.751 219.458 775.033 214.8 Q779.345 210.112 786.636 210.112 Q793.176 210.112 796.966 214.337 Q800.786 218.532 800.786 225.766 M795.462 224.203 Q795.404 219.834 793.002 217.23 Q790.629 214.626 786.694 214.626 Q782.238 214.626 779.547 217.143 Q776.885 219.661 776.48 224.232 L795.462 224.203 Z" fill="#000000" fill-rule="evenodd" fill-opacity="1" /><path clip-path="url(#clip590)" d="M830.184 211.848 L830.184 216.883 Q827.927 215.726 825.496 215.147 Q823.066 214.568 820.461 214.568 Q816.497 214.568 814.501 215.783 Q812.533 216.999 812.533 219.429 Q812.533 221.281 813.951 222.352 Q815.369 223.393 819.651 224.348 L821.474 224.753 Q827.145 225.969 829.518 228.197 Q831.92 230.396 831.92 234.36 Q831.92 238.874 828.332 241.507 Q824.773 244.14 818.523 244.14 Q815.919 244.14 813.083 243.619 Q810.276 243.127 807.151 242.114 L807.151 236.617 Q810.103 238.15 812.967 238.931 Q815.832 239.684 818.639 239.684 Q822.4 239.684 824.426 238.411 Q826.451 237.109 826.451 234.765 Q826.451 232.595 824.975 231.437 Q823.529 230.28 818.581 229.209 L816.729 228.775 Q811.781 227.734 809.582 225.592 Q807.383 223.422 807.383 219.661 Q807.383 215.089 810.624 212.601 Q813.864 210.112 819.825 210.112 Q822.776 210.112 825.38 210.546 Q827.985 210.98 830.184 211.848 Z" fill="#000000" fill-rule="evenodd" fill-opacity="1" /><path clip-path="url(#clip590)" d="M840.398 210.893 L845.722 210.893 L845.722 243.301 L840.398 243.301 L840.398 210.893 M840.398 198.278 L845.722 198.278 L845.722 205.02 L840.398 205.02 L840.398 198.278 Z" fill="#000000" fill-rule="evenodd" fill-opacity="1" /><path clip-path="url(#clip590)" d="M878.187 215.812 L878.187 198.278 L883.511 198.278 L883.511 243.301 L878.187 243.301 L878.187 238.44 Q876.509 241.333 873.933 242.751 Q871.387 244.14 867.799 244.14 Q861.925 244.14 858.222 239.452 Q854.547 234.765 854.547 227.126 Q854.547 219.487 858.222 214.8 Q861.925 210.112 867.799 210.112 Q871.387 210.112 873.933 211.53 Q876.509 212.919 878.187 215.812 M860.045 227.126 Q860.045 233 862.446 236.356 Q864.877 239.684 869.101 239.684 Q873.326 239.684 875.756 236.356 Q878.187 233 878.187 227.126 Q878.187 221.252 875.756 217.925 Q873.326 214.568 869.101 214.568 Q864.877 214.568 862.446 217.925 Q860.045 221.252 860.045 227.126 Z" fill="#000000" fill-rule="evenodd" fill-opacity="1" /><path clip-path="url(#clip590)" d="M893.928 230.511 L893.928 210.893 L899.252 210.893 L899.252 230.309 Q899.252 234.909 901.046 237.224 Q902.84 239.51 906.427 239.51 Q910.739 239.51 913.227 236.761 Q915.745 234.012 915.745 229.267 L915.745 210.893 L921.069 210.893 L921.069 243.301 L915.745 243.301 L915.745 238.324 Q913.806 241.275 911.231 242.722 Q908.684 244.14 905.299 244.14 Q899.715 244.14 896.821 240.668 Q893.928 237.195 893.928 230.511 M907.324 210.112 L907.324 210.112 Z" fill="#000000" fill-rule="evenodd" fill-opacity="1" /><path clip-path="url(#clip590)" d="M946.763 227.01 Q940.31 227.01 937.822 228.486 Q935.334 229.962 935.334 233.521 Q935.334 236.356 937.185 238.034 Q939.066 239.684 942.278 239.684 Q946.705 239.684 949.367 236.559 Q952.058 233.405 952.058 228.197 L952.058 227.01 L946.763 227.01 M957.382 224.811 L957.382 243.301 L952.058 243.301 L952.058 238.382 Q950.235 241.333 947.515 242.751 Q944.795 244.14 940.86 244.14 Q935.883 244.14 932.932 241.362 Q930.01 238.555 930.01 233.868 Q930.01 228.399 933.655 225.621 Q937.33 222.844 944.593 222.844 L952.058 222.844 L952.058 222.323 Q952.058 218.648 949.627 216.651 Q947.226 214.626 942.857 214.626 Q940.079 214.626 937.446 215.292 Q934.813 215.957 932.382 217.288 L932.382 212.369 Q935.305 211.241 938.053 210.691 Q940.802 210.112 943.406 210.112 Q950.438 210.112 953.91 213.758 Q957.382 217.404 957.382 224.811 Z" fill="#000000" fill-rule="evenodd" fill-opacity="1" /><path clip-path="url(#clip590)" d="M968.348 198.278 L973.672 198.278 L973.672 243.301 L968.348 243.301 L968.348 198.278 Z" fill="#000000" fill-rule="evenodd" fill-opacity="1" /><path clip-path="url(#clip590)" d="M1005.47 211.848 L1005.47 216.883 Q1003.22 215.726 1000.78 215.147 Q998.354 214.568 995.75 214.568 Q991.786 214.568 989.789 215.783 Q987.822 216.999 987.822 219.429 Q987.822 221.281 989.24 222.352 Q990.657 223.393 994.94 224.348 L996.763 224.753 Q1002.43 225.969 1004.81 228.197 Q1007.21 230.396 1007.21 234.36 Q1007.21 238.874 1003.62 241.507 Q1000.06 244.14 993.811 244.14 Q991.207 244.14 988.371 243.619 Q985.565 243.127 982.44 242.114 L982.44 236.617 Q985.391 238.15 988.256 238.931 Q991.12 239.684 993.927 239.684 Q997.689 239.684 999.714 238.411 Q1001.74 237.109 1001.74 234.765 Q1001.74 232.595 1000.26 231.437 Q998.817 230.28 993.869 229.209 L992.017 228.775 Q987.069 227.734 984.87 225.592 Q982.671 223.422 982.671 219.661 Q982.671 215.089 985.912 212.601 Q989.153 210.112 995.113 210.112 Q998.065 210.112 1000.67 210.546 Q1003.27 210.98 1005.47 211.848 Z" fill="#000000" fill-rule="evenodd" fill-opacity="1" /><path clip-path="url(#clip590)" d="M375.807 254.501 L375.807 318.501 L439.807 318.501 L439.807 254.501 L375.807 254.501 Z" fill="#3da44d" fill-rule="evenodd" fill-opacity="1" stroke="#000000" stroke-opacity="1" stroke-width="5.12"/>
<path clip-path="url(#clip590)" d="M536.377 268.228 L536.377 274.391 Q533.426 271.642 530.07 270.283 Q526.742 268.923 522.98 268.923 Q515.573 268.923 511.638 273.465 Q507.703 277.979 507.703 286.544 Q507.703 295.08 511.638 299.623 Q515.573 304.137 522.98 304.137 Q526.742 304.137 530.07 302.777 Q533.426 301.417 536.377 298.668 L536.377 304.773 Q533.31 306.856 529.867 307.898 Q526.453 308.94 522.633 308.94 Q512.824 308.94 507.182 302.95 Q501.54 296.932 501.54 286.544 Q501.54 276.127 507.182 270.138 Q512.824 264.119 522.633 264.119 Q526.511 264.119 529.925 265.161 Q533.368 266.174 536.377 268.228 Z" fill="#000000" fill-rule="evenodd" fill-opacity="1" /><path clip-path="url(#clip590)" d="M559.902 291.81 Q553.449 291.81 550.961 293.286 Q548.472 294.762 548.472 298.321 Q548.472 301.156 550.324 302.834 Q552.205 304.484 555.417 304.484 Q559.844 304.484 562.506 301.359 Q565.197 298.205 565.197 292.997 L565.197 291.81 L559.902 291.81 M570.521 289.611 L570.521 308.101 L565.197 308.101 L565.197 303.182 Q563.374 306.133 560.654 307.551 Q557.934 308.94 553.999 308.94 Q549.022 308.94 546.071 306.162 Q543.148 303.355 543.148 298.668 Q543.148 293.199 546.794 290.421 Q550.469 287.644 557.731 287.644 L565.197 287.644 L565.197 287.123 Q565.197 283.448 562.766 281.451 Q560.364 279.426 555.995 279.426 Q553.218 279.426 550.584 280.092 Q547.951 280.757 545.521 282.088 L545.521 277.169 Q548.443 276.041 551.192 275.491 Q553.941 274.912 556.545 274.912 Q563.576 274.912 567.048 278.558 Q570.521 282.204 570.521 289.611 Z" fill="#000000" fill-rule="evenodd" fill-opacity="1" /><path clip-path="url(#clip590)" d="M580.937 295.311 L580.937 275.693 L586.261 275.693 L586.261 295.109 Q586.261 299.709 588.055 302.024 Q589.849 304.31 593.437 304.31 Q597.749 304.31 600.237 301.561 Q602.754 298.812 602.754 294.067 L602.754 275.693 L608.078 275.693 L608.078 308.101 L602.754 308.101 L602.754 303.124 Q600.816 306.075 598.24 307.522 Q595.694 308.94 592.309 308.94 Q586.724 308.94 583.831 305.468 Q580.937 301.995 580.937 295.311 M594.334 274.912 L594.334 274.912 Z" fill="#000000" fill-rule="evenodd" fill-opacity="1" /><path clip-path="url(#clip590)" d="M642.366 276.938 L642.366 281.914 Q640.109 280.67 637.824 280.063 Q635.567 279.426 633.252 279.426 Q628.072 279.426 625.208 282.725 Q622.343 285.994 622.343 291.926 Q622.343 297.858 625.208 301.156 Q628.072 304.426 633.252 304.426 Q635.567 304.426 637.824 303.818 Q640.109 303.182 642.366 301.937 L642.366 306.856 Q640.138 307.898 637.737 308.419 Q635.364 308.94 632.673 308.94 Q625.353 308.94 621.041 304.339 Q616.73 299.738 616.73 291.926 Q616.73 283.998 621.07 279.455 Q625.439 274.912 633.02 274.912 Q635.48 274.912 637.824 275.433 Q640.167 275.925 642.366 276.938 Z" fill="#000000" fill-rule="evenodd" fill-opacity="1" /><path clip-path="url(#clip590)" d="M678.564 288.541 L678.564 308.101 L673.24 308.101 L673.24 288.714 Q673.24 284.113 671.446 281.828 Q669.652 279.542 666.064 279.542 Q661.753 279.542 659.264 282.291 Q656.776 285.039 656.776 289.785 L656.776 308.101 L651.423 308.101 L651.423 263.078 L656.776 263.078 L656.776 280.728 Q658.686 277.806 661.261 276.359 Q663.865 274.912 667.25 274.912 Q672.835 274.912 675.7 278.384 Q678.564 281.828 678.564 288.541 Z" fill="#000000" fill-rule="evenodd" fill-opacity="1" /><path clip-path="url(#clip590)" d="M702.667 311.11 Q700.41 316.897 698.269 318.662 Q696.128 320.427 692.54 320.427 L688.286 320.427 L688.286 315.971 L691.411 315.971 Q693.61 315.971 694.826 314.929 Q696.041 313.888 697.517 310.01 L698.471 307.58 L685.364 275.693 L691.006 275.693 L701.133 301.04 L711.261 275.693 L716.903 275.693 L702.667 311.11 Z" fill="#000000" fill-rule="evenodd" fill-opacity="1" /><path clip-path="url(#clip590)" d="M755.878 263.136 Q752.001 269.791 750.12 276.301 Q748.24 282.811 748.24 289.495 Q748.24 296.179 750.12 302.748 Q752.03 309.287 755.878 315.913 L751.249 315.913 Q746.909 309.113 744.739 302.545 Q742.597 295.977 742.597 289.495 Q742.597 283.043 744.739 276.504 Q746.88 269.964 751.249 263.136 L755.878 263.136 Z" fill="#000000" fill-rule="evenodd" fill-opacity="1" /><path clip-path="url(#clip590)" d="M766.44 264.901 L791.266 264.901 L791.266 269.82 L772.285 269.82 L772.285 282.551 L789.414 282.551 L789.414 287.47 L772.285 287.47 L772.285 308.101 L766.44 308.101 L766.44 264.901 Z" fill="#000000" fill-rule="evenodd" fill-opacity="1" /><path clip-path="url(#clip590)" d="M809.582 291.81 Q803.129 291.81 800.641 293.286 Q798.153 294.762 798.153 298.321 Q798.153 301.156 800.004 302.834 Q801.885 304.484 805.097 304.484 Q809.524 304.484 812.186 301.359 Q814.877 298.205 814.877 292.997 L814.877 291.81 L809.582 291.81 M820.201 289.611 L820.201 308.101 L814.877 308.101 L814.877 303.182 Q813.054 306.133 810.334 307.551 Q807.614 308.94 803.679 308.94 Q798.702 308.94 795.751 306.162 Q792.829 303.355 792.829 298.668 Q792.829 293.199 796.474 290.421 Q800.149 287.644 807.412 287.644 L814.877 287.644 L814.877 287.123 Q814.877 283.448 812.446 281.451 Q810.045 279.426 805.676 279.426 Q802.898 279.426 800.265 280.092 Q797.632 280.757 795.201 282.088 L795.201 277.169 Q798.124 276.041 800.872 275.491 Q803.621 274.912 806.225 274.912 Q813.257 274.912 816.729 278.558 Q820.201 282.204 820.201 289.611 Z" fill="#000000" fill-rule="evenodd" fill-opacity="1" /><path clip-path="url(#clip590)" d="M836.434 266.492 L836.434 275.693 L847.4 275.693 L847.4 279.831 L836.434 279.831 L836.434 297.424 Q836.434 301.388 837.504 302.516 Q838.604 303.645 841.931 303.645 L847.4 303.645 L847.4 308.101 L841.931 308.101 Q835.768 308.101 833.424 305.815 Q831.081 303.5 831.081 297.424 L831.081 279.831 L827.174 279.831 L827.174 275.693 L831.081 275.693 L831.081 266.492 L836.434 266.492 Z" fill="#000000" fill-rule="evenodd" fill-opacity="1" /><path clip-path="url(#clip590)" d="M851.711 289.495 L867.307 289.495 L867.307 294.241 L851.711 294.241 L851.711 289.495 Z" fill="#000000" fill-rule="evenodd" fill-opacity="1" /><path clip-path="url(#clip590)" d="M864.587 264.901 L901.132 264.901 L901.132 269.82 L885.797 269.82 L885.797 308.101 L879.923 308.101 L879.923 269.82 L864.587 269.82 L864.587 264.901 Z" fill="#000000" fill-rule="evenodd" fill-opacity="1" /><path clip-path="url(#clip590)" d="M911.462 291.81 Q905.01 291.81 902.521 293.286 Q900.033 294.762 900.033 298.321 Q900.033 301.156 901.885 302.834 Q903.765 304.484 906.977 304.484 Q911.404 304.484 914.066 301.359 Q916.757 298.205 916.757 292.997 L916.757 291.81 L911.462 291.81 M922.081 289.611 L922.081 308.101 L916.757 308.101 L916.757 303.182 Q914.934 306.133 912.214 307.551 Q909.495 308.94 905.559 308.94 Q900.583 308.94 897.631 306.162 Q894.709 303.355 894.709 298.668 Q894.709 293.199 898.355 290.421 Q902.029 287.644 909.292 287.644 L916.757 287.644 L916.757 287.123 Q916.757 283.448 914.327 281.451 Q911.925 279.426 907.556 279.426 Q904.778 279.426 902.145 280.092 Q899.512 280.757 897.081 282.088 L897.081 277.169 Q900.004 276.041 902.753 275.491 Q905.502 274.912 908.106 274.912 Q915.137 274.912 918.609 278.558 Q922.081 282.204 922.081 289.611 Z" fill="#000000" fill-rule="evenodd" fill-opacity="1" /><path clip-path="url(#clip590)" d="M933.048 275.693 L938.372 275.693 L938.372 308.101 L933.048 308.101 L933.048 275.693 M933.048 263.078 L938.372 263.078 L938.372 269.82 L933.048 269.82 L933.048 263.078 Z" fill="#000000" fill-rule="evenodd" fill-opacity="1" /><path clip-path="url(#clip590)" d="M949.512 263.078 L954.836 263.078 L954.836 308.101 L949.512 308.101 L949.512 263.078 Z" fill="#000000" fill-rule="evenodd" fill-opacity="1" /><path clip-path="url(#clip590)" d="M993.696 290.566 L993.696 293.17 L969.216 293.17 Q969.564 298.668 972.515 301.561 Q975.495 304.426 980.79 304.426 Q983.858 304.426 986.722 303.674 Q989.616 302.921 992.451 301.417 L992.451 306.451 Q989.587 307.667 986.577 308.303 Q983.568 308.94 980.472 308.94 Q972.718 308.94 968.175 304.426 Q963.661 299.912 963.661 292.215 Q963.661 284.258 967.943 279.6 Q972.255 274.912 979.546 274.912 Q986.086 274.912 989.876 279.137 Q993.696 283.332 993.696 290.566 M988.371 289.003 Q988.314 284.634 985.912 282.03 Q983.539 279.426 979.604 279.426 Q975.148 279.426 972.457 281.943 Q969.795 284.461 969.39 289.032 L988.371 289.003 Z" fill="#000000" fill-rule="evenodd" fill-opacity="1" /><path clip-path="url(#clip590)" d="M1023.76 280.612 L1023.76 263.078 L1029.08 263.078 L1029.08 308.101 L1023.76 308.101 L1023.76 303.24 Q1022.08 306.133 1019.51 307.551 Q1016.96 308.94 1013.37 308.94 Q1007.5 308.94 1003.79 304.252 Q1000.12 299.565 1000.12 291.926 Q1000.12 284.287 1003.79 279.6 Q1007.5 274.912 1013.37 274.912 Q1016.96 274.912 1019.51 276.33 Q1022.08 277.719 1023.76 280.612 M1005.62 291.926 Q1005.62 297.8 1008.02 301.156 Q1010.45 304.484 1014.67 304.484 Q1018.9 304.484 1021.33 301.156 Q1023.76 297.8 1023.76 291.926 Q1023.76 286.052 1021.33 282.725 Q1018.9 279.368 1014.67 279.368 Q1010.45 279.368 1008.02 282.725 Q1005.62 286.052 1005.62 291.926 Z" fill="#000000" fill-rule="evenodd" fill-opacity="1" /><path clip-path="url(#clip590)" d="M1039.21 263.136 L1043.84 263.136 Q1048.18 269.964 1050.32 276.504 Q1052.49 283.043 1052.49 289.495 Q1052.49 295.977 1050.32 302.545 Q1048.18 309.113 1043.84 315.913 L1039.21 315.913 Q1043.06 309.287 1044.94 302.748 Q1046.85 296.179 1046.85 289.495 Q1046.85 282.811 1044.94 276.301 Q1043.06 269.791 1039.21 263.136 Z" fill="#000000" fill-rule="evenodd" fill-opacity="1" /><path clip-path="url(#clip590)" d="M1102.72 287.846 Q1104.6 288.483 1106.37 290.566 Q1108.16 292.649 1109.96 296.295 L1115.89 308.101 L1109.61 308.101 L1104.08 297.019 Q1101.94 292.678 1099.92 291.26 Q1097.92 289.843 1094.45 289.843 L1088.08 289.843 L1088.08 308.101 L1082.24 308.101 L1082.24 264.901 L1095.43 264.901 Q1102.84 264.901 1106.48 267.997 Q1110.13 271.093 1110.13 277.343 Q1110.13 281.423 1108.22 284.113 Q1106.34 286.804 1102.72 287.846 M1088.08 269.704 L1088.08 285.039 L1095.43 285.039 Q1099.66 285.039 1101.8 283.101 Q1103.97 281.133 1103.97 277.343 Q1103.97 273.552 1101.8 271.642 Q1099.66 269.704 1095.43 269.704 L1088.08 269.704 Z" fill="#000000" fill-rule="evenodd" fill-opacity="1" /><path clip-path="url(#clip590)" d="M1148.24 290.566 L1148.24 293.17 L1123.76 293.17 Q1124.11 298.668 1127.06 301.561 Q1130.04 304.426 1135.33 304.426 Q1138.4 304.426 1141.26 303.674 Q1144.16 302.921 1146.99 301.417 L1146.99 306.451 Q1144.13 307.667 1141.12 308.303 Q1138.11 308.94 1135.01 308.94 Q1127.26 308.94 1122.72 304.426 Q1118.2 299.912 1118.2 292.215 Q1118.2 284.258 1122.49 279.6 Q1126.8 274.912 1134.09 274.912 Q1140.63 274.912 1144.42 279.137 Q1148.24 283.332 1148.24 290.566 M1142.91 289.003 Q1142.86 284.634 1140.45 282.03 Q1138.08 279.426 1134.15 279.426 Q1129.69 279.426 1127 281.943 Q1124.34 284.461 1123.93 289.032 L1142.91 289.003 Z" fill="#000000" fill-rule="evenodd" fill-opacity="1" /><path clip-path="url(#clip590)" d="M1177.64 276.648 L1177.64 281.683 Q1175.38 280.526 1172.95 279.947 Q1170.52 279.368 1167.91 279.368 Q1163.95 279.368 1161.95 280.583 Q1159.99 281.799 1159.99 284.229 Q1159.99 286.081 1161.4 287.152 Q1162.82 288.193 1167.1 289.148 L1168.93 289.553 Q1174.6 290.769 1176.97 292.997 Q1179.37 295.196 1179.37 299.16 Q1179.37 303.674 1175.78 306.307 Q1172.22 308.94 1165.97 308.94 Q1163.37 308.94 1160.53 308.419 Q1157.73 307.927 1154.6 306.914 L1154.6 301.417 Q1157.55 302.95 1160.42 303.731 Q1163.28 304.484 1166.09 304.484 Q1169.85 304.484 1171.88 303.211 Q1173.9 301.909 1173.9 299.565 Q1173.9 297.395 1172.43 296.237 Q1170.98 295.08 1166.03 294.009 L1164.18 293.575 Q1159.23 292.534 1157.03 290.392 Q1154.83 288.222 1154.83 284.461 Q1154.83 279.889 1158.08 277.401 Q1161.32 274.912 1167.28 274.912 Q1170.23 274.912 1172.83 275.346 Q1175.44 275.78 1177.64 276.648 Z" fill="#000000" fill-rule="evenodd" fill-opacity="1" /><path clip-path="url(#clip590)" d="M1187.85 275.693 L1193.17 275.693 L1193.17 308.101 L1187.85 308.101 L1187.85 275.693 M1187.85 263.078 L1193.17 263.078 L1193.17 269.82 L1187.85 269.82 L1187.85 263.078 Z" fill="#000000" fill-rule="evenodd" fill-opacity="1" /><path clip-path="url(#clip590)" d="M1225.64 280.612 L1225.64 263.078 L1230.96 263.078 L1230.96 308.101 L1225.64 308.101 L1225.64 303.24 Q1223.96 306.133 1221.39 307.551 Q1218.84 308.94 1215.25 308.94 Q1209.38 308.94 1205.67 304.252 Q1202 299.565 1202 291.926 Q1202 284.287 1205.67 279.6 Q1209.38 274.912 1215.25 274.912 Q1218.84 274.912 1221.39 276.33 Q1223.96 277.719 1225.64 280.612 M1207.5 291.926 Q1207.5 297.8 1209.9 301.156 Q1212.33 304.484 1216.55 304.484 Q1220.78 304.484 1223.21 301.156 Q1225.64 297.8 1225.64 291.926 Q1225.64 286.052 1223.21 282.725 Q1220.78 279.368 1216.55 279.368 Q1212.33 279.368 1209.9 282.725 Q1207.5 286.052 1207.5 291.926 Z" fill="#000000" fill-rule="evenodd" fill-opacity="1" /><path clip-path="url(#clip590)" d="M1241.38 295.311 L1241.38 275.693 L1246.7 275.693 L1246.7 295.109 Q1246.7 299.709 1248.5 302.024 Q1250.29 304.31 1253.88 304.31 Q1258.19 304.31 1260.68 301.561 Q1263.2 298.812 1263.2 294.067 L1263.2 275.693 L1268.52 275.693 L1268.52 308.101 L1263.2 308.101 L1263.2 303.124 Q1261.26 306.075 1258.68 307.522 Q1256.14 308.94 1252.75 308.94 Q1247.17 308.94 1244.27 305.468 Q1241.38 301.995 1241.38 295.311 M1254.78 274.912 L1254.78 274.912 Z" fill="#000000" fill-rule="evenodd" fill-opacity="1" /><path clip-path="url(#clip590)" d="M1294.21 291.81 Q1287.76 291.81 1285.27 293.286 Q1282.79 294.762 1282.79 298.321 Q1282.79 301.156 1284.64 302.834 Q1286.52 304.484 1289.73 304.484 Q1294.16 304.484 1296.82 301.359 Q1299.51 298.205 1299.51 292.997 L1299.51 291.81 L1294.21 291.81 M1304.83 289.611 L1304.83 308.101 L1299.51 308.101 L1299.51 303.182 Q1297.69 306.133 1294.97 307.551 Q1292.25 308.94 1288.31 308.94 Q1283.34 308.94 1280.38 306.162 Q1277.46 303.355 1277.46 298.668 Q1277.46 293.199 1281.11 290.421 Q1284.78 287.644 1292.04 287.644 L1299.51 287.644 L1299.51 287.123 Q1299.51 283.448 1297.08 281.451 Q1294.68 279.426 1290.31 279.426 Q1287.53 279.426 1284.9 280.092 Q1282.26 280.757 1279.83 282.088 L1279.83 277.169 Q1282.76 276.041 1285.51 275.491 Q1288.25 274.912 1290.86 274.912 Q1297.89 274.912 1301.36 278.558 Q1304.83 282.204 1304.83 289.611 Z" fill="#000000" fill-rule="evenodd" fill-opacity="1" /><path clip-path="url(#clip590)" d="M1315.8 263.078 L1321.12 263.078 L1321.12 308.101 L1315.8 308.101 L1315.8 263.078 Z" fill="#000000" fill-rule="evenodd" fill-opacity="1" /><path clip-path="url(#clip590)" d="M1352.92 276.648 L1352.92 281.683 Q1350.67 280.526 1348.24 279.947 Q1345.81 279.368 1343.2 279.368 Q1339.24 279.368 1337.24 280.583 Q1335.27 281.799 1335.27 284.229 Q1335.27 286.081 1336.69 287.152 Q1338.11 288.193 1342.39 289.148 L1344.21 289.553 Q1349.89 290.769 1352.26 292.997 Q1354.66 295.196 1354.66 299.16 Q1354.66 303.674 1351.07 306.307 Q1347.51 308.94 1341.26 308.94 Q1338.66 308.94 1335.82 308.419 Q1333.02 307.927 1329.89 306.914 L1329.89 301.417 Q1332.84 302.95 1335.71 303.731 Q1338.57 304.484 1341.38 304.484 Q1345.14 304.484 1347.17 303.211 Q1349.19 301.909 1349.19 299.565 Q1349.19 297.395 1347.72 296.237 Q1346.27 295.08 1341.32 294.009 L1339.47 293.575 Q1334.52 292.534 1332.32 290.392 Q1330.12 288.222 1330.12 284.461 Q1330.12 279.889 1333.36 277.401 Q1336.6 274.912 1342.57 274.912 Q1345.52 274.912 1348.12 275.346 Q1350.72 275.78 1352.92 276.648 Z" fill="#000000" fill-rule="evenodd" fill-opacity="1" /></svg>
