<?xml version="1.0" encoding="utf-8"?>
<svg xmlns="http://www.w3.org/2000/svg" xmlns:xlink="http://www.w3.org/1999/xlink" width="600" height="400" viewBox="0 0 2400 1600">
<defs>
  <clipPath id="clip910">
    <rect x="0" y="0" width="2400" height="1600"/>
  </clipPath>
</defs>
<path clip-path="url(#clip910)" d="
M0 1600 L2400 1600 L2400 0 L0 0  Z
  " fill="#ffffff" fill-rule="evenodd" fill-opacity="1"/>
<defs>
  <clipPath id="clip911">
    <rect x="480" y="0" width="1681" height="1600"/>
  </clipPath>
</defs>
<path clip-path="url(#clip910)" d="
M243.775 1392.94 L2352.76 1392.94 L2352.76 47.2441 L243.775 47.2441  Z
  " fill="#ffffff" fill-rule="evenodd" fill-opacity="1"/>
<defs>
  <clipPath id="clip912">
    <rect x="243" y="47" width="2110" height="1347"/>
  </clipPath>
</defs>
<polyline clip-path="url(#clip910)" style="stroke:#000000; stroke-linecap:round; stroke-linejoin:round; stroke-width:4; stroke-opacity:1; fill:none" points="
  243.775,1392.94 2352.76,1392.94 
  "/>
<polyline clip-path="url(#clip910)" style="stroke:#000000; stroke-linecap:round; stroke-linejoin:round; stroke-width:4; stroke-opacity:1; fill:none" points="
  284.983,1392.94 284.983,1374.04 
  "/>
<polyline clip-path="url(#clip910)" style="stroke:#000000; stroke-linecap:round; stroke-linejoin:round; stroke-width:4; stroke-opacity:1; fill:none" points="
  735.848,1392.94 735.848,1374.04 
  "/>
<polyline clip-path="url(#clip910)" style="stroke:#000000; stroke-linecap:round; stroke-linejoin:round; stroke-width:4; stroke-opacity:1; fill:none" points="
  1186.71,1392.94 1186.71,1374.04 
  "/>
<polyline clip-path="url(#clip910)" style="stroke:#000000; stroke-linecap:round; stroke-linejoin:round; stroke-width:4; stroke-opacity:1; fill:none" points="
  1637.58,1392.94 1637.58,1374.04 
  "/>
<polyline clip-path="url(#clip910)" style="stroke:#000000; stroke-linecap:round; stroke-linejoin:round; stroke-width:4; stroke-opacity:1; fill:none" points="
  2088.44,1392.94 2088.44,1374.04 
  "/>
<path clip-path="url(#clip910)" d="M284.983 1429.72 Q279.566 1429.72 276.823 1435.07 Q274.115 1440.38 274.115 1451.07 Q274.115 1461.73 276.823 1467.08 Q279.566 1472.39 284.983 1472.39 Q290.434 1472.39 293.142 1467.08 Q295.885 1461.73 295.885 1451.07 Q295.885 1440.38 293.142 1435.07 Q290.434 1429.72 284.983 1429.72 M284.983 1424.16 Q293.698 1424.16 298.281 1431.07 Q302.899 1437.95 302.899 1451.07 Q302.899 1464.16 298.281 1471.07 Q293.698 1477.95 284.983 1477.95 Q276.268 1477.95 271.65 1471.07 Q267.066 1464.16 267.066 1451.07 Q267.066 1437.95 271.65 1431.07 Q276.268 1424.16 284.983 1424.16 Z" fill="#000000" fill-rule="evenodd" fill-opacity="1" /><path clip-path="url(#clip910)" d="M727.827 1471.04 L752.306 1471.04 L752.306 1476.94 L719.39 1476.94 L719.39 1471.04 Q723.383 1466.91 730.258 1459.96 Q737.167 1452.98 738.938 1450.97 Q742.306 1447.18 743.626 1444.58 Q744.98 1441.94 744.98 1439.41 Q744.98 1435.27 742.063 1432.67 Q739.181 1430.07 734.528 1430.07 Q731.23 1430.07 727.549 1431.21 Q723.904 1432.36 719.737 1434.68 L719.737 1427.6 Q723.973 1425.9 727.654 1425.03 Q731.334 1424.16 734.39 1424.16 Q742.445 1424.16 747.237 1428.19 Q752.028 1432.22 752.028 1438.95 Q752.028 1442.15 750.813 1445.03 Q749.633 1447.88 746.473 1451.77 Q745.605 1452.77 740.952 1457.6 Q736.299 1462.39 727.827 1471.04 Z" fill="#000000" fill-rule="evenodd" fill-opacity="1" /><path clip-path="url(#clip910)" d="M1191.23 1431.21 L1173.52 1458.88 L1191.23 1458.88 L1191.23 1431.21 M1189.39 1425.1 L1198.21 1425.1 L1198.21 1458.88 L1205.6 1458.88 L1205.6 1464.72 L1198.21 1464.72 L1198.21 1476.94 L1191.23 1476.94 L1191.23 1464.72 L1167.82 1464.72 L1167.82 1457.95 L1189.39 1425.1 Z" fill="#000000" fill-rule="evenodd" fill-opacity="1" /><path clip-path="url(#clip910)" d="M1638.19 1448.22 Q1633.46 1448.22 1630.69 1451.45 Q1627.94 1454.68 1627.94 1460.31 Q1627.94 1465.9 1630.69 1469.16 Q1633.46 1472.39 1638.19 1472.39 Q1642.91 1472.39 1645.65 1469.16 Q1648.43 1465.9 1648.43 1460.31 Q1648.43 1454.68 1645.65 1451.45 Q1642.91 1448.22 1638.19 1448.22 M1652.11 1426.25 L1652.11 1432.63 Q1649.47 1431.38 1646.76 1430.72 Q1644.09 1430.07 1641.45 1430.07 Q1634.51 1430.07 1630.82 1434.75 Q1627.18 1439.44 1626.66 1448.92 Q1628.71 1445.9 1631.8 1444.3 Q1634.89 1442.67 1638.6 1442.67 Q1646.41 1442.67 1650.93 1447.43 Q1655.48 1452.15 1655.48 1460.31 Q1655.48 1468.29 1650.76 1473.12 Q1646.03 1477.95 1638.19 1477.95 Q1629.19 1477.95 1624.44 1471.07 Q1619.68 1464.16 1619.68 1451.07 Q1619.68 1438.78 1625.51 1431.49 Q1631.35 1424.16 1641.17 1424.16 Q1643.81 1424.16 1646.48 1424.68 Q1649.19 1425.2 1652.11 1426.25 Z" fill="#000000" fill-rule="evenodd" fill-opacity="1" /><path clip-path="url(#clip910)" d="M2088.44 1452.32 Q2083.44 1452.32 2080.56 1455 Q2077.71 1457.67 2077.71 1462.36 Q2077.71 1467.04 2080.56 1469.72 Q2083.44 1472.39 2088.44 1472.39 Q2093.44 1472.39 2096.33 1469.72 Q2099.21 1467.01 2099.21 1462.36 Q2099.21 1457.67 2096.33 1455 Q2093.48 1452.32 2088.44 1452.32 M2081.43 1449.34 Q2076.92 1448.22 2074.38 1445.13 Q2071.88 1442.04 2071.88 1437.6 Q2071.88 1431.38 2076.29 1427.77 Q2080.74 1424.16 2088.44 1424.16 Q2096.19 1424.16 2100.6 1427.77 Q2105.01 1431.38 2105.01 1437.6 Q2105.01 1442.04 2102.47 1445.13 Q2099.97 1448.22 2095.49 1449.34 Q2100.56 1450.52 2103.37 1453.95 Q2106.22 1457.39 2106.22 1462.36 Q2106.22 1469.89 2101.6 1473.92 Q2097.02 1477.95 2088.44 1477.95 Q2079.87 1477.95 2075.25 1473.92 Q2070.67 1469.89 2070.67 1462.36 Q2070.67 1457.39 2073.51 1453.95 Q2076.36 1450.52 2081.43 1449.34 M2078.86 1438.26 Q2078.86 1442.29 2081.36 1444.54 Q2083.89 1446.8 2088.44 1446.8 Q2092.96 1446.8 2095.49 1444.54 Q2098.06 1442.29 2098.06 1438.26 Q2098.06 1434.23 2095.49 1431.97 Q2092.96 1429.72 2088.44 1429.72 Q2083.89 1429.72 2081.36 1431.97 Q2078.86 1434.23 2078.86 1438.26 Z" fill="#000000" fill-rule="evenodd" fill-opacity="1" /><path clip-path="url(#clip910)" d="M1105.62 1525.52 L1105.62 1548.25 L1115.91 1548.25 Q1121.63 1548.25 1124.75 1545.29 Q1127.86 1542.33 1127.86 1536.86 Q1127.86 1531.43 1124.75 1528.48 Q1121.63 1525.52 1115.91 1525.52 L1105.62 1525.52 M1097.44 1518.8 L1115.91 1518.8 Q1126.08 1518.8 1131.27 1523.41 Q1136.49 1527.99 1136.49 1536.86 Q1136.49 1545.82 1131.27 1550.39 Q1126.08 1554.97 1115.91 1554.97 L1105.62 1554.97 L1105.62 1579.28 L1097.44 1579.28 L1097.44 1518.8 Z" fill="#000000" fill-rule="evenodd" fill-opacity="1" /><path clip-path="url(#clip910)" d="M1171.98 1540.87 Q1170.72 1540.14 1169.22 1539.82 Q1167.77 1539.46 1165.98 1539.46 Q1159.66 1539.46 1156.26 1543.59 Q1152.9 1547.68 1152.9 1555.38 L1152.9 1579.28 L1145.4 1579.28 L1145.4 1533.91 L1152.9 1533.91 L1152.9 1540.95 Q1155.25 1536.82 1159.02 1534.84 Q1162.78 1532.81 1168.17 1532.81 Q1168.94 1532.81 1169.87 1532.93 Q1170.8 1533.01 1171.94 1533.22 L1171.98 1540.87 Z" fill="#000000" fill-rule="evenodd" fill-opacity="1" /><path clip-path="url(#clip910)" d="M1216.78 1554.73 L1216.78 1558.37 L1182.51 1558.37 Q1183 1566.07 1187.13 1570.12 Q1191.3 1574.13 1198.71 1574.13 Q1203.01 1574.13 1207.02 1573.08 Q1211.07 1572.02 1215.04 1569.92 L1215.04 1576.97 Q1211.03 1578.67 1206.82 1579.56 Q1202.6 1580.45 1198.27 1580.45 Q1187.41 1580.45 1181.05 1574.13 Q1174.73 1567.81 1174.73 1557.04 Q1174.73 1545.9 1180.73 1539.37 Q1186.76 1532.81 1196.97 1532.81 Q1206.13 1532.81 1211.43 1538.73 Q1216.78 1544.6 1216.78 1554.73 M1209.33 1552.54 Q1209.25 1546.42 1205.88 1542.78 Q1202.56 1539.13 1197.05 1539.13 Q1190.82 1539.13 1187.05 1542.66 Q1183.32 1546.18 1182.75 1552.58 L1209.33 1552.54 Z" fill="#000000" fill-rule="evenodd" fill-opacity="1" /><path clip-path="url(#clip910)" d="M1258.87 1540.79 L1258.87 1516.24 L1266.32 1516.24 L1266.32 1579.28 L1258.87 1579.28 L1258.87 1572.47 Q1256.52 1576.52 1252.92 1578.51 Q1249.35 1580.45 1244.33 1580.45 Q1236.1 1580.45 1230.92 1573.89 Q1225.77 1567.33 1225.77 1556.63 Q1225.77 1545.94 1230.92 1539.37 Q1236.1 1532.81 1244.33 1532.81 Q1249.35 1532.81 1252.92 1534.8 Q1256.52 1536.74 1258.87 1540.79 M1233.47 1556.63 Q1233.47 1564.85 1236.83 1569.55 Q1240.24 1574.21 1246.15 1574.21 Q1252.07 1574.21 1255.47 1569.55 Q1258.87 1564.85 1258.87 1556.63 Q1258.87 1548.41 1255.47 1543.75 Q1252.07 1539.05 1246.15 1539.05 Q1240.24 1539.05 1236.83 1543.75 Q1233.47 1548.41 1233.47 1556.63 Z" fill="#000000" fill-rule="evenodd" fill-opacity="1" /><path clip-path="url(#clip910)" d="M1281.68 1533.91 L1289.13 1533.91 L1289.13 1579.28 L1281.68 1579.28 L1281.68 1533.91 M1281.68 1516.24 L1289.13 1516.24 L1289.13 1525.68 L1281.68 1525.68 L1281.68 1516.24 Z" fill="#000000" fill-rule="evenodd" fill-opacity="1" /><path clip-path="url(#clip910)" d="M1337.38 1535.65 L1337.38 1542.62 Q1334.22 1540.87 1331.02 1540.02 Q1327.86 1539.13 1324.62 1539.13 Q1317.37 1539.13 1313.36 1543.75 Q1309.34 1548.33 1309.34 1556.63 Q1309.34 1564.94 1313.36 1569.55 Q1317.37 1574.13 1324.62 1574.13 Q1327.86 1574.13 1331.02 1573.28 Q1334.22 1572.39 1337.38 1570.65 L1337.38 1577.53 Q1334.26 1578.99 1330.9 1579.72 Q1327.57 1580.45 1323.81 1580.45 Q1313.56 1580.45 1307.52 1574.01 Q1301.49 1567.57 1301.49 1556.63 Q1301.49 1545.53 1307.56 1539.17 Q1313.68 1532.81 1324.29 1532.81 Q1327.74 1532.81 1331.02 1533.54 Q1334.3 1534.23 1337.38 1535.65 Z" fill="#000000" fill-rule="evenodd" fill-opacity="1" /><path clip-path="url(#clip910)" d="M1357.71 1521.02 L1357.71 1533.91 L1373.07 1533.91 L1373.07 1539.7 L1357.71 1539.7 L1357.71 1564.33 Q1357.71 1569.88 1359.21 1571.46 Q1360.75 1573.04 1365.41 1573.04 L1373.07 1573.04 L1373.07 1579.28 L1365.41 1579.28 Q1356.78 1579.28 1353.5 1576.08 Q1350.22 1572.83 1350.22 1564.33 L1350.22 1539.7 L1344.75 1539.7 L1344.75 1533.91 L1350.22 1533.91 L1350.22 1521.02 L1357.71 1521.02 Z" fill="#000000" fill-rule="evenodd" fill-opacity="1" /><path clip-path="url(#clip910)" d="M1400.45 1539.13 Q1394.45 1539.13 1390.97 1543.83 Q1387.49 1548.49 1387.49 1556.63 Q1387.49 1564.77 1390.93 1569.47 Q1394.41 1574.13 1400.45 1574.13 Q1406.4 1574.13 1409.89 1569.43 Q1413.37 1564.73 1413.37 1556.63 Q1413.37 1548.57 1409.89 1543.87 Q1406.4 1539.13 1400.45 1539.13 M1400.45 1532.81 Q1410.17 1532.81 1415.72 1539.13 Q1421.27 1545.45 1421.27 1556.63 Q1421.27 1567.77 1415.72 1574.13 Q1410.17 1580.45 1400.45 1580.45 Q1390.69 1580.45 1385.14 1574.13 Q1379.63 1567.77 1379.63 1556.63 Q1379.63 1545.45 1385.14 1539.13 Q1390.69 1532.81 1400.45 1532.81 Z" fill="#000000" fill-rule="evenodd" fill-opacity="1" /><path clip-path="url(#clip910)" d="M1459.92 1540.87 Q1458.66 1540.14 1457.16 1539.82 Q1455.7 1539.46 1453.92 1539.46 Q1447.6 1539.46 1444.2 1543.59 Q1440.84 1547.68 1440.84 1555.38 L1440.84 1579.28 L1433.34 1579.28 L1433.34 1533.91 L1440.84 1533.91 L1440.84 1540.95 Q1443.19 1536.82 1446.95 1534.84 Q1450.72 1532.81 1456.11 1532.81 Q1456.88 1532.81 1457.81 1532.93 Q1458.74 1533.01 1459.88 1533.22 L1459.92 1540.87 Z" fill="#000000" fill-rule="evenodd" fill-opacity="1" /><path clip-path="url(#clip910)" d="M1496.66 1535.24 L1496.66 1542.29 Q1493.5 1540.67 1490.1 1539.86 Q1486.69 1539.05 1483.05 1539.05 Q1477.5 1539.05 1474.7 1540.75 Q1471.95 1542.45 1471.95 1545.86 Q1471.95 1548.45 1473.93 1549.95 Q1475.92 1551.41 1481.91 1552.74 L1484.47 1553.31 Q1492.41 1555.01 1495.73 1558.13 Q1499.09 1561.21 1499.09 1566.76 Q1499.09 1573.08 1494.07 1576.76 Q1489.08 1580.45 1480.33 1580.45 Q1476.69 1580.45 1472.72 1579.72 Q1468.79 1579.03 1464.41 1577.61 L1464.41 1569.92 Q1468.55 1572.07 1472.56 1573.16 Q1476.57 1574.21 1480.5 1574.21 Q1485.76 1574.21 1488.6 1572.43 Q1491.43 1570.61 1491.43 1567.33 Q1491.43 1564.29 1489.37 1562.67 Q1487.34 1561.05 1480.41 1559.55 L1477.82 1558.94 Q1470.89 1557.48 1467.82 1554.48 Q1464.74 1551.45 1464.74 1546.18 Q1464.74 1539.78 1469.27 1536.3 Q1473.81 1532.81 1482.16 1532.81 Q1486.29 1532.81 1489.93 1533.42 Q1493.58 1534.03 1496.66 1535.24 Z" fill="#000000" fill-rule="evenodd" fill-opacity="1" /><polyline clip-path="url(#clip910)" style="stroke:#000000; stroke-linecap:round; stroke-linejoin:round; stroke-width:4; stroke-opacity:1; fill:none" points="
  243.775,1392.94 243.775,47.2441 
  "/>
<polyline clip-path="url(#clip910)" style="stroke:#000000; stroke-linecap:round; stroke-linejoin:round; stroke-width:4; stroke-opacity:1; fill:none" points="
  243.775,1226.72 262.673,1226.72 
  "/>
<polyline clip-path="url(#clip910)" style="stroke:#000000; stroke-linecap:round; stroke-linejoin:round; stroke-width:4; stroke-opacity:1; fill:none" points="
  243.775,931.374 262.673,931.374 
  "/>
<polyline clip-path="url(#clip910)" style="stroke:#000000; stroke-linecap:round; stroke-linejoin:round; stroke-width:4; stroke-opacity:1; fill:none" points="
  243.775,636.025 262.673,636.025 
  "/>
<polyline clip-path="url(#clip910)" style="stroke:#000000; stroke-linecap:round; stroke-linejoin:round; stroke-width:4; stroke-opacity:1; fill:none" points="
  243.775,340.676 262.673,340.676 
  "/>
<path clip-path="url(#clip910)" d="M176.421 1200.8 L203.956 1200.8 L203.956 1206.71 L182.845 1206.71 L182.845 1219.41 Q184.373 1218.89 185.9 1218.65 Q187.428 1218.37 188.956 1218.37 Q197.636 1218.37 202.706 1223.13 Q207.775 1227.89 207.775 1236.01 Q207.775 1244.38 202.567 1249.03 Q197.359 1253.65 187.88 1253.65 Q184.616 1253.65 181.213 1253.09 Q177.845 1252.54 174.234 1251.43 L174.234 1244.38 Q177.359 1246.08 180.692 1246.91 Q184.025 1247.75 187.741 1247.75 Q193.748 1247.75 197.255 1244.59 Q200.761 1241.43 200.761 1236.01 Q200.761 1230.59 197.255 1227.43 Q193.748 1224.27 187.741 1224.27 Q184.928 1224.27 182.116 1224.9 Q179.338 1225.52 176.421 1226.84 L176.421 1200.8 Z" fill="#000000" fill-rule="evenodd" fill-opacity="1" /><path clip-path="url(#clip910)" d="M130.831 951.391 L142.29 951.391 L142.29 911.843 L129.824 914.343 L129.824 907.954 L142.22 905.454 L149.234 905.454 L149.234 951.391 L160.692 951.391 L160.692 957.294 L130.831 957.294 L130.831 951.391 Z" fill="#000000" fill-rule="evenodd" fill-opacity="1" /><path clip-path="url(#clip910)" d="M189.859 910.072 Q184.442 910.072 181.699 915.419 Q178.991 920.731 178.991 931.426 Q178.991 942.085 181.699 947.433 Q184.442 952.745 189.859 952.745 Q195.31 952.745 198.018 947.433 Q200.761 942.085 200.761 931.426 Q200.761 920.731 198.018 915.419 Q195.31 910.072 189.859 910.072 M189.859 904.516 Q198.574 904.516 203.157 911.426 Q207.775 918.301 207.775 931.426 Q207.775 944.516 203.157 951.426 Q198.574 958.301 189.859 958.301 Q181.143 958.301 176.525 951.426 Q171.942 944.516 171.942 931.426 Q171.942 918.301 176.525 911.426 Q181.143 904.516 189.859 904.516 Z" fill="#000000" fill-rule="evenodd" fill-opacity="1" /><path clip-path="url(#clip910)" d="M132.324 656.042 L143.783 656.042 L143.783 616.494 L131.317 618.994 L131.317 612.605 L143.713 610.105 L150.727 610.105 L150.727 656.042 L162.185 656.042 L162.185 661.945 L132.324 661.945 L132.324 656.042 Z" fill="#000000" fill-rule="evenodd" fill-opacity="1" /><path clip-path="url(#clip910)" d="M176.421 610.105 L203.956 610.105 L203.956 616.007 L182.845 616.007 L182.845 628.716 Q184.373 628.195 185.9 627.952 Q187.428 627.674 188.956 627.674 Q197.636 627.674 202.706 632.431 Q207.775 637.188 207.775 645.313 Q207.775 653.681 202.567 658.334 Q197.359 662.952 187.88 662.952 Q184.616 662.952 181.213 662.396 Q177.845 661.841 174.234 660.729 L174.234 653.681 Q177.359 655.382 180.692 656.216 Q184.025 657.049 187.741 657.049 Q193.748 657.049 197.255 653.889 Q200.761 650.729 200.761 645.313 Q200.761 639.896 197.255 636.736 Q193.748 633.577 187.741 633.577 Q184.928 633.577 182.116 634.202 Q179.338 634.827 176.421 636.146 L176.421 610.105 Z" fill="#000000" fill-rule="evenodd" fill-opacity="1" /><path clip-path="url(#clip910)" d="M135.658 360.693 L160.137 360.693 L160.137 366.596 L127.22 366.596 L127.22 360.693 Q131.213 356.561 138.088 349.617 Q144.998 342.637 146.769 340.624 Q150.137 336.839 151.456 334.235 Q152.81 331.596 152.81 329.061 Q152.81 324.929 149.894 322.325 Q147.012 319.721 142.359 319.721 Q139.06 319.721 135.38 320.867 Q131.734 322.013 127.567 324.339 L127.567 317.256 Q131.803 315.554 135.484 314.686 Q139.165 313.818 142.22 313.818 Q150.276 313.818 155.067 317.846 Q159.859 321.874 159.859 328.61 Q159.859 331.804 158.644 334.686 Q157.463 337.533 154.303 341.422 Q153.435 342.429 148.783 347.255 Q144.13 352.047 135.658 360.693 Z" fill="#000000" fill-rule="evenodd" fill-opacity="1" /><path clip-path="url(#clip910)" d="M189.859 319.374 Q184.442 319.374 181.699 324.721 Q178.991 330.033 178.991 340.728 Q178.991 351.387 181.699 356.735 Q184.442 362.047 189.859 362.047 Q195.31 362.047 198.018 356.735 Q200.761 351.387 200.761 340.728 Q200.761 330.033 198.018 324.721 Q195.31 319.374 189.859 319.374 M189.859 313.818 Q198.574 313.818 203.157 320.728 Q207.775 327.603 207.775 340.728 Q207.775 353.818 203.157 360.728 Q198.574 367.603 189.859 367.603 Q181.143 367.603 176.525 360.728 Q171.942 353.818 171.942 340.728 Q171.942 327.603 176.525 320.728 Q181.143 313.818 189.859 313.818 Z" fill="#000000" fill-rule="evenodd" fill-opacity="1" /><path clip-path="url(#clip910)" d="M18.1459 961.911 Q18.1459 970.823 24.7894 976.089 Q31.4329 981.315 42.8969 981.315 Q54.3205 981.315 60.964 976.089 Q67.6074 970.823 67.6074 961.911 Q67.6074 952.999 60.964 947.814 Q54.3205 942.588 42.8969 942.588 Q31.4329 942.588 24.7894 947.814 Q18.1459 952.999 18.1459 961.911 M11.5024 961.911 Q11.5024 949.191 20.0498 941.575 Q28.5567 933.959 42.8969 933.959 Q57.1966 933.959 65.744 941.575 Q74.2509 949.191 74.2509 961.911 Q74.2509 974.671 65.744 982.327 Q57.2371 989.943 42.8969 989.943 Q28.5567 989.943 20.0498 982.327 Q11.5024 974.671 11.5024 961.911 Z" fill="#000000" fill-rule="evenodd" fill-opacity="1" /><path clip-path="url(#clip910)" d="M50.4316 888.913 Q42.2083 888.913 37.5497 892.316 Q32.8507 895.678 32.8507 901.593 Q32.8507 907.507 37.5497 910.91 Q42.2083 914.272 50.4316 914.272 Q58.6549 914.272 63.354 910.91 Q68.0125 907.507 68.0125 901.593 Q68.0125 895.678 63.354 892.316 Q58.6549 888.913 50.4316 888.913 M34.5926 914.272 Q30.5417 911.923 28.5972 908.358 Q26.6123 904.752 26.6123 899.77 Q26.6123 891.506 33.1748 886.361 Q39.7372 881.176 50.4316 881.176 Q61.126 881.176 67.6885 886.361 Q74.2509 891.506 74.2509 899.77 Q74.2509 904.752 72.3065 908.358 Q70.3215 911.923 66.2706 914.272 L73.0762 914.272 L73.0762 921.766 L10.0441 921.766 L10.0441 914.272 L34.5926 914.272 Z" fill="#000000" fill-rule="evenodd" fill-opacity="1" /><path clip-path="url(#clip910)" d="M29.0428 839.897 L36.0914 839.897 Q34.471 843.057 33.6609 846.46 Q32.8507 849.863 32.8507 853.508 Q32.8507 859.058 34.5521 861.853 Q36.2534 864.608 39.6562 864.608 Q42.2488 864.608 43.7476 862.623 Q45.2059 860.638 46.5427 854.643 L47.1099 852.091 Q48.8112 844.151 51.9304 840.829 Q55.0091 837.467 60.5589 837.467 Q66.8783 837.467 70.5646 842.49 Q74.2509 847.473 74.2509 856.223 Q74.2509 859.868 73.5218 863.838 Q72.8331 867.768 71.4153 872.143 L63.7186 872.143 Q65.8655 868.011 66.9593 864 Q68.0125 859.99 68.0125 856.061 Q68.0125 850.794 66.2301 847.959 Q64.4072 845.123 61.126 845.123 Q58.0878 845.123 56.4675 847.189 Q54.8471 849.215 53.3483 856.142 L52.7406 858.734 Q51.2823 865.661 48.2846 868.74 Q45.2464 871.819 39.9803 871.819 Q33.5798 871.819 30.0961 867.282 Q26.6123 862.745 26.6123 854.4 Q26.6123 850.268 27.2199 846.622 Q27.8276 842.976 29.0428 839.897 Z" fill="#000000" fill-rule="evenodd" fill-opacity="1" /><path clip-path="url(#clip910)" d="M48.5277 786.79 L52.1735 786.79 L52.1735 821.061 Q59.8702 820.575 63.9211 816.443 Q67.9315 812.27 67.9315 804.857 Q67.9315 800.563 66.8783 796.553 Q65.825 792.502 63.7186 788.532 L70.7671 788.532 Q72.4685 792.542 73.3597 796.755 Q74.2509 800.968 74.2509 805.303 Q74.2509 816.159 67.9315 822.519 Q61.6121 828.838 50.8367 828.838 Q39.6967 828.838 33.1748 822.843 Q26.6123 816.807 26.6123 806.599 Q26.6123 797.444 32.5266 792.137 Q38.4004 786.79 48.5277 786.79 M46.3402 794.244 Q40.2233 794.325 36.5775 797.687 Q32.9317 801.009 32.9317 806.518 Q32.9317 812.756 36.456 816.524 Q39.9803 820.251 46.3807 820.818 L46.3402 794.244 Z" fill="#000000" fill-rule="evenodd" fill-opacity="1" /><path clip-path="url(#clip910)" d="M34.6736 748.266 Q33.9444 749.522 33.6204 751.021 Q33.2558 752.479 33.2558 754.261 Q33.2558 760.581 37.3877 763.984 Q41.4791 767.346 49.1758 767.346 L73.0762 767.346 L73.0762 774.84 L27.706 774.84 L27.706 767.346 L34.7546 767.346 Q30.6227 764.996 28.6377 761.229 Q26.6123 757.462 26.6123 752.074 Q26.6123 751.304 26.7338 750.372 Q26.8148 749.441 27.0174 748.307 L34.6736 748.266 Z" fill="#000000" fill-rule="evenodd" fill-opacity="1" /><path clip-path="url(#clip910)" d="M27.706 745.795 L27.706 737.896 L65.7845 723.718 L27.706 709.539 L27.706 701.64 L73.0762 718.654 L73.0762 728.781 L27.706 745.795 Z" fill="#000000" fill-rule="evenodd" fill-opacity="1" /><path clip-path="url(#clip910)" d="M50.2696 670.732 Q50.2696 679.765 52.3355 683.249 Q54.4015 686.733 59.3841 686.733 Q63.354 686.733 65.7035 684.14 Q68.0125 681.507 68.0125 677.011 Q68.0125 670.813 63.6376 667.086 Q59.2221 663.319 51.9304 663.319 L50.2696 663.319 L50.2696 670.732 M47.1909 655.865 L73.0762 655.865 L73.0762 663.319 L66.1896 663.319 Q70.3215 665.871 72.3065 669.678 Q74.2509 673.486 74.2509 678.996 Q74.2509 685.963 70.3621 690.095 Q66.4327 694.186 59.8702 694.186 Q52.214 694.186 48.3251 689.082 Q44.4363 683.938 44.4363 673.77 L44.4363 663.319 L43.7071 663.319 Q38.5625 663.319 35.7673 666.721 Q32.9317 670.084 32.9317 676.2 Q32.9317 680.089 33.8634 683.776 Q34.7951 687.462 36.6585 690.865 L29.772 690.865 Q28.1921 686.773 27.4225 682.925 Q26.6123 679.077 26.6123 675.431 Q26.6123 665.587 31.7164 660.726 Q36.8206 655.865 47.1909 655.865 Z" fill="#000000" fill-rule="evenodd" fill-opacity="1" /><path clip-path="url(#clip910)" d="M14.8242 633.139 L27.706 633.139 L27.706 617.786 L33.4988 617.786 L33.4988 633.139 L58.1283 633.139 Q63.6781 633.139 65.2579 631.64 Q66.8378 630.101 66.8378 625.443 L66.8378 617.786 L73.0762 617.786 L73.0762 625.443 Q73.0762 634.071 69.8759 637.352 Q66.6352 640.633 58.1283 640.633 L33.4988 640.633 L33.4988 646.102 L27.706 646.102 L27.706 640.633 L14.8242 640.633 L14.8242 633.139 Z" fill="#000000" fill-rule="evenodd" fill-opacity="1" /><path clip-path="url(#clip910)" d="M27.706 607.983 L27.706 600.53 L73.0762 600.53 L73.0762 607.983 L27.706 607.983 M10.0441 607.983 L10.0441 600.53 L19.4827 600.53 L19.4827 607.983 L10.0441 607.983 Z" fill="#000000" fill-rule="evenodd" fill-opacity="1" /><path clip-path="url(#clip910)" d="M32.9317 567.353 Q32.9317 573.348 37.6307 576.832 Q42.2893 580.316 50.4316 580.316 Q58.5739 580.316 63.273 576.872 Q67.9315 573.388 67.9315 567.353 Q67.9315 561.398 63.2325 557.914 Q58.5334 554.43 50.4316 554.43 Q42.3703 554.43 37.6713 557.914 Q32.9317 561.398 32.9317 567.353 M26.6123 567.353 Q26.6123 557.63 32.9317 552.081 Q39.2511 546.531 50.4316 546.531 Q61.5716 546.531 67.9315 552.081 Q74.2509 557.63 74.2509 567.353 Q74.2509 577.115 67.9315 582.665 Q61.5716 588.174 50.4316 588.174 Q39.2511 588.174 32.9317 582.665 Q26.6123 577.115 26.6123 567.353 Z" fill="#000000" fill-rule="evenodd" fill-opacity="1" /><path clip-path="url(#clip910)" d="M45.692 496.462 L73.0762 496.462 L73.0762 503.915 L45.9351 503.915 Q39.4942 503.915 36.2939 506.427 Q33.0937 508.939 33.0937 513.962 Q33.0937 519.998 36.9421 523.481 Q40.7905 526.965 47.4339 526.965 L73.0762 526.965 L73.0762 534.459 L27.706 534.459 L27.706 526.965 L34.7546 526.965 Q30.6632 524.292 28.6377 520.686 Q26.6123 517.04 26.6123 512.301 Q26.6123 504.483 31.4734 500.472 Q36.2939 496.462 45.692 496.462 Z" fill="#000000" fill-rule="evenodd" fill-opacity="1" /><path clip-path="url(#clip910)" d="M29.0428 452.672 L36.0914 452.672 Q34.471 455.831 33.6609 459.234 Q32.8507 462.637 32.8507 466.283 Q32.8507 471.832 34.5521 474.627 Q36.2534 477.382 39.6562 477.382 Q42.2488 477.382 43.7476 475.397 Q45.2059 473.412 46.5427 467.417 L47.1099 464.865 Q48.8112 456.925 51.9304 453.603 Q55.0091 450.241 60.5589 450.241 Q66.8783 450.241 70.5646 455.264 Q74.2509 460.247 74.2509 468.997 Q74.2509 472.642 73.5218 476.612 Q72.8331 480.542 71.4153 484.917 L63.7186 484.917 Q65.8655 480.785 66.9593 476.774 Q68.0125 472.764 68.0125 468.835 Q68.0125 463.568 66.2301 460.733 Q64.4072 457.897 61.126 457.897 Q58.0878 457.897 56.4675 459.963 Q54.8471 461.989 53.3483 468.916 L52.7406 471.508 Q51.2823 478.435 48.2846 481.514 Q45.2464 484.593 39.9803 484.593 Q33.5798 484.593 30.0961 480.056 Q26.6123 475.519 26.6123 467.174 Q26.6123 463.042 27.2199 459.396 Q27.8276 455.75 29.0428 452.672 Z" fill="#000000" fill-rule="evenodd" fill-opacity="1" /><polyline clip-path="url(#clip912)" style="stroke:#009af9; stroke-linecap:round; stroke-linejoin:round; stroke-width:4; stroke-opacity:1; fill:none" points="
  395.832,1109.56 553.425,1026.97 1171.54,703.044 339.299,1139.19 1844.65,350.295 2015.22,260.91 481.68,1064.57 2214.05,156.711 2179.48,174.826 2293.07,115.301 
  596.592,1004.35 1068.89,756.838 732.514,933.121 303.463,1157.97 1619.64,468.218 2090.82,221.289 2094.22,219.511 1776.05,386.248 1068.39,757.102 2039.18,248.351 
  
  "/>
<circle clip-path="url(#clip912)" cx="395.832" cy="1155.82" r="18" fill="#e26f46" fill-rule="evenodd" fill-opacity="1" stroke="#000000" stroke-opacity="1" stroke-width="3.2"/>
<circle clip-path="url(#clip912)" cx="553.425" cy="957.931" r="18" fill="#e26f46" fill-rule="evenodd" fill-opacity="1" stroke="#000000" stroke-opacity="1" stroke-width="3.2"/>
<circle clip-path="url(#clip912)" cx="1171.54" cy="706.744" r="18" fill="#e26f46" fill-rule="evenodd" fill-opacity="1" stroke="#000000" stroke-opacity="1" stroke-width="3.2"/>
<circle clip-path="url(#clip912)" cx="339.299" cy="1328.03" r="18" fill="#e26f46" fill-rule="evenodd" fill-opacity="1" stroke="#000000" stroke-opacity="1" stroke-width="3.2"/>
<circle clip-path="url(#clip912)" cx="1844.65" cy="440.784" r="18" fill="#e26f46" fill-rule="evenodd" fill-opacity="1" stroke="#000000" stroke-opacity="1" stroke-width="3.2"/>
<circle clip-path="url(#clip912)" cx="2015.22" cy="118.124" r="18" fill="#e26f46" fill-rule="evenodd" fill-opacity="1" stroke="#000000" stroke-opacity="1" stroke-width="3.2"/>
<circle clip-path="url(#clip912)" cx="481.68" cy="1153.55" r="18" fill="#e26f46" fill-rule="evenodd" fill-opacity="1" stroke="#000000" stroke-opacity="1" stroke-width="3.2"/>
<circle clip-path="url(#clip912)" cx="2214.05" cy="227.346" r="18" fill="#e26f46" fill-rule="evenodd" fill-opacity="1" stroke="#000000" stroke-opacity="1" stroke-width="3.2"/>
<circle clip-path="url(#clip912)" cx="2179.48" cy="192.436" r="18" fill="#e26f46" fill-rule="evenodd" fill-opacity="1" stroke="#000000" stroke-opacity="1" stroke-width="3.2"/>
<circle clip-path="url(#clip912)" cx="2293.07" cy="124.05" r="18" fill="#e26f46" fill-rule="evenodd" fill-opacity="1" stroke="#000000" stroke-opacity="1" stroke-width="3.2"/>
<circle clip-path="url(#clip912)" cx="596.592" cy="877.205" r="18" fill="#e26f46" fill-rule="evenodd" fill-opacity="1" stroke="#000000" stroke-opacity="1" stroke-width="3.2"/>
<circle clip-path="url(#clip912)" cx="1068.89" cy="687.854" r="18" fill="#e26f46" fill-rule="evenodd" fill-opacity="1" stroke="#000000" stroke-opacity="1" stroke-width="3.2"/>
<circle clip-path="url(#clip912)" cx="732.514" cy="877.584" r="18" fill="#e26f46" fill-rule="evenodd" fill-opacity="1" stroke="#000000" stroke-opacity="1" stroke-width="3.2"/>
<circle clip-path="url(#clip912)" cx="303.463" cy="1354.85" r="18" fill="#e26f46" fill-rule="evenodd" fill-opacity="1" stroke="#000000" stroke-opacity="1" stroke-width="3.2"/>
<circle clip-path="url(#clip912)" cx="1619.64" cy="487.516" r="18" fill="#e26f46" fill-rule="evenodd" fill-opacity="1" stroke="#000000" stroke-opacity="1" stroke-width="3.2"/>
<circle clip-path="url(#clip912)" cx="2090.82" cy="386.18" r="18" fill="#e26f46" fill-rule="evenodd" fill-opacity="1" stroke="#000000" stroke-opacity="1" stroke-width="3.2"/>
<circle clip-path="url(#clip912)" cx="2094.22" cy="247.63" r="18" fill="#e26f46" fill-rule="evenodd" fill-opacity="1" stroke="#000000" stroke-opacity="1" stroke-width="3.2"/>
<circle clip-path="url(#clip912)" cx="1776.05" cy="549.194" r="18" fill="#e26f46" fill-rule="evenodd" fill-opacity="1" stroke="#000000" stroke-opacity="1" stroke-width="3.2"/>
<circle clip-path="url(#clip912)" cx="1068.39" cy="956.85" r="18" fill="#e26f46" fill-rule="evenodd" fill-opacity="1" stroke="#000000" stroke-opacity="1" stroke-width="3.2"/>
<circle clip-path="url(#clip912)" cx="2039.18" cy="532.656" r="18" fill="#e26f46" fill-rule="evenodd" fill-opacity="1" stroke="#000000" stroke-opacity="1" stroke-width="3.2"/>
<path clip-path="url(#clip912)" d="M395.832 864.668 L378.512 854.668 L378.512 834.668 L395.832 824.668 L413.152 834.668 L413.152 854.668 Z" fill="#3da44d" fill-rule="evenodd" fill-opacity="1" stroke="#000000" stroke-opacity="1" stroke-width="3.2"/>
<path clip-path="url(#clip912)" d="M553.425 847.459 L536.105 837.459 L536.105 817.459 L553.425 807.459 L570.745 817.459 L570.745 837.459 Z" fill="#3da44d" fill-rule="evenodd" fill-opacity="1" stroke="#000000" stroke-opacity="1" stroke-width="3.2"/>
<path clip-path="url(#clip912)" d="M1171.54 656.273 L1154.22 646.273 L1154.22 626.273 L1171.54 616.273 L1188.86 626.273 L1188.86 646.273 Z" fill="#3da44d" fill-rule="evenodd" fill-opacity="1" stroke="#000000" stroke-opacity="1" stroke-width="3.2"/>
<path clip-path="url(#clip912)" d="M339.299 1082.07 L321.979 1072.07 L321.979 1052.07 L339.299 1042.07 L356.619 1052.07 L356.619 1072.07 Z" fill="#3da44d" fill-rule="evenodd" fill-opacity="1" stroke="#000000" stroke-opacity="1" stroke-width="3.2"/>
<path clip-path="url(#clip912)" d="M1844.65 341.253 L1827.33 331.253 L1827.33 311.253 L1844.65 301.253 L1861.97 311.253 L1861.97 331.253 Z" fill="#3da44d" fill-rule="evenodd" fill-opacity="1" stroke="#000000" stroke-opacity="1" stroke-width="3.2"/>
<path clip-path="url(#clip912)" d="M2015.22 171.749 L1997.9 161.749 L1997.9 141.749 L2015.22 131.749 L2032.54 141.749 L2032.54 161.749 Z" fill="#3da44d" fill-rule="evenodd" fill-opacity="1" stroke="#000000" stroke-opacity="1" stroke-width="3.2"/>
<path clip-path="url(#clip912)" d="M481.68 978.785 L464.36 968.785 L464.36 948.785 L481.68 938.785 L499 948.785 L499 968.785 Z" fill="#3da44d" fill-rule="evenodd" fill-opacity="1" stroke="#000000" stroke-opacity="1" stroke-width="3.2"/>
<path clip-path="url(#clip912)" d="M2214.05 203.252 L2196.73 193.252 L2196.73 173.252 L2214.05 163.252 L2231.37 173.252 L2231.37 193.252 Z" fill="#3da44d" fill-rule="evenodd" fill-opacity="1" stroke="#000000" stroke-opacity="1" stroke-width="3.2"/>
<path clip-path="url(#clip912)" d="M2179.48 129.685 L2162.16 119.685 L2162.16 99.6853 L2179.48 89.6853 L2196.8 99.6853 L2196.8 119.685 Z" fill="#3da44d" fill-rule="evenodd" fill-opacity="1" stroke="#000000" stroke-opacity="1" stroke-width="3.2"/>
<path clip-path="url(#clip912)" d="M2293.07 105.33 L2275.75 95.3298 L2275.75 75.3298 L2293.07 65.3298 L2310.39 75.3298 L2310.39 95.3298 Z" fill="#3da44d" fill-rule="evenodd" fill-opacity="1" stroke="#000000" stroke-opacity="1" stroke-width="3.2"/>
<path clip-path="url(#clip912)" d="M596.592 1120.2 L579.272 1110.2 L579.272 1090.2 L596.592 1080.2 L613.912 1090.2 L613.912 1110.2 Z" fill="#3da44d" fill-rule="evenodd" fill-opacity="1" stroke="#000000" stroke-opacity="1" stroke-width="3.2"/>
<path clip-path="url(#clip912)" d="M1068.89 753.925 L1051.57 743.925 L1051.57 723.925 L1068.89 713.925 L1086.21 723.925 L1086.21 743.925 Z" fill="#3da44d" fill-rule="evenodd" fill-opacity="1" stroke="#000000" stroke-opacity="1" stroke-width="3.2"/>
<path clip-path="url(#clip912)" d="M732.514 929.797 L715.194 919.797 L715.194 899.797 L732.514 889.797 L749.834 899.797 L749.834 919.797 Z" fill="#3da44d" fill-rule="evenodd" fill-opacity="1" stroke="#000000" stroke-opacity="1" stroke-width="3.2"/>
<path clip-path="url(#clip912)" d="M303.463 1201.98 L286.143 1191.98 L286.143 1171.98 L303.463 1161.98 L320.783 1171.98 L320.783 1191.98 Z" fill="#3da44d" fill-rule="evenodd" fill-opacity="1" stroke="#000000" stroke-opacity="1" stroke-width="3.2"/>
<path clip-path="url(#clip912)" d="M1619.64 520.466 L1602.32 510.466 L1602.32 490.466 L1619.64 480.466 L1636.96 490.466 L1636.96 510.466 Z" fill="#3da44d" fill-rule="evenodd" fill-opacity="1" stroke="#000000" stroke-opacity="1" stroke-width="3.2"/>
<path clip-path="url(#clip912)" d="M2090.82 405.158 L2073.5 395.158 L2073.5 375.158 L2090.82 365.158 L2108.14 375.158 L2108.14 395.158 Z" fill="#3da44d" fill-rule="evenodd" fill-opacity="1" stroke="#000000" stroke-opacity="1" stroke-width="3.2"/>
<path clip-path="url(#clip912)" d="M2094.22 440.756 L2076.9 430.756 L2076.9 410.756 L2094.22 400.756 L2111.54 410.756 L2111.54 430.756 Z" fill="#3da44d" fill-rule="evenodd" fill-opacity="1" stroke="#000000" stroke-opacity="1" stroke-width="3.2"/>
<path clip-path="url(#clip912)" d="M1776.05 566.029 L1758.73 556.029 L1758.73 536.029 L1776.05 526.029 L1793.37 536.029 L1793.37 556.029 Z" fill="#3da44d" fill-rule="evenodd" fill-opacity="1" stroke="#000000" stroke-opacity="1" stroke-width="3.2"/>
<path clip-path="url(#clip912)" d="M1068.39 921.824 L1051.07 911.824 L1051.07 891.824 L1068.39 881.824 L1085.71 891.824 L1085.71 911.824 Z" fill="#3da44d" fill-rule="evenodd" fill-opacity="1" stroke="#000000" stroke-opacity="1" stroke-width="3.2"/>
<path clip-path="url(#clip912)" d="M2039.18 283.06 L2021.86 273.06 L2021.86 253.06 L2039.18 243.06 L2056.5 253.06 L2056.5 273.06 Z" fill="#3da44d" fill-rule="evenodd" fill-opacity="1" stroke="#000000" stroke-opacity="1" stroke-width="3.2"/>
<path clip-path="url(#clip910)" d="
M1313.11 1348.08 L2282.46 1348.08 L2282.46 1088.88 L1313.11 1088.88  Z
  " fill="#ffffff" fill-rule="evenodd" fill-opacity="1"/>
<polyline clip-path="url(#clip910)" style="stroke:#000000; stroke-linecap:round; stroke-linejoin:round; stroke-width:4; stroke-opacity:1; fill:none" points="
  1313.11,1348.08 2282.46,1348.08 2282.46,1088.88 1313.11,1088.88 1313.11,1348.08 
  "/>
<polyline clip-path="url(#clip910)" style="stroke:#009af9; stroke-linecap:round; stroke-linejoin:round; stroke-width:5; stroke-opacity:1; fill:none" points="
  1336.55,1153.68 1477.15,1153.68 
  "/>
<path clip-path="url(#clip910)" d="M1500.58 1132.08 L1537.12 1132.08 L1537.12 1137 L1521.79 1137 L1521.79 1175.28 L1515.91 1175.28 L1515.91 1137 L1500.58 1137 L1500.58 1132.08 Z" fill="#000000" fill-rule="evenodd" fill-opacity="1" /><path clip-path="url(#clip910)" d="M1552.6 1147.85 Q1551.71 1147.33 1550.64 1147.1 Q1549.59 1146.84 1548.32 1146.84 Q1543.81 1146.84 1541.38 1149.79 Q1538.98 1152.71 1538.98 1158.21 L1538.98 1175.28 L1533.62 1175.28 L1533.62 1142.88 L1538.98 1142.88 L1538.98 1147.91 Q1540.65 1144.96 1543.34 1143.54 Q1546.04 1142.09 1549.88 1142.09 Q1550.43 1142.09 1551.1 1142.18 Q1551.76 1142.24 1552.57 1142.38 L1552.6 1147.85 Z" fill="#000000" fill-rule="evenodd" fill-opacity="1" /><path clip-path="url(#clip910)" d="M1584.61 1157.75 L1584.61 1160.35 L1560.13 1160.35 Q1560.47 1165.85 1563.43 1168.74 Q1566.41 1171.61 1571.7 1171.61 Q1574.77 1171.61 1577.63 1170.86 Q1580.53 1170.1 1583.36 1168.6 L1583.36 1173.63 Q1580.5 1174.85 1577.49 1175.49 Q1574.48 1176.12 1571.38 1176.12 Q1563.63 1176.12 1559.09 1171.61 Q1554.57 1167.09 1554.57 1159.4 Q1554.57 1151.44 1558.85 1146.78 Q1563.16 1142.09 1570.46 1142.09 Q1577 1142.09 1580.79 1146.32 Q1584.61 1150.51 1584.61 1157.75 M1579.28 1156.19 Q1579.22 1151.82 1576.82 1149.21 Q1574.45 1146.61 1570.51 1146.61 Q1566.06 1146.61 1563.37 1149.13 Q1560.71 1151.64 1560.3 1156.22 L1579.28 1156.19 Z" fill="#000000" fill-rule="evenodd" fill-opacity="1" /><path clip-path="url(#clip910)" d="M1620.28 1155.72 L1620.28 1175.28 L1614.96 1175.28 L1614.96 1155.9 Q1614.96 1151.3 1613.16 1149.01 Q1611.37 1146.72 1607.78 1146.72 Q1603.47 1146.72 1600.98 1149.47 Q1598.49 1152.22 1598.49 1156.97 L1598.49 1175.28 L1593.14 1175.28 L1593.14 1142.88 L1598.49 1142.88 L1598.49 1147.91 Q1600.4 1144.99 1602.98 1143.54 Q1605.58 1142.09 1608.97 1142.09 Q1614.55 1142.09 1617.42 1145.57 Q1620.28 1149.01 1620.28 1155.72 Z" fill="#000000" fill-rule="evenodd" fill-opacity="1" /><path clip-path="url(#clip910)" d="M1652.23 1147.8 L1652.23 1130.26 L1657.55 1130.26 L1657.55 1175.28 L1652.23 1175.28 L1652.23 1170.42 Q1650.55 1173.32 1647.97 1174.73 Q1645.43 1176.12 1641.84 1176.12 Q1635.97 1176.12 1632.26 1171.43 Q1628.59 1166.75 1628.59 1159.11 Q1628.59 1151.47 1632.26 1146.78 Q1635.97 1142.09 1641.84 1142.09 Q1645.43 1142.09 1647.97 1143.51 Q1650.55 1144.9 1652.23 1147.8 M1634.08 1159.11 Q1634.08 1164.98 1636.49 1168.34 Q1638.92 1171.67 1643.14 1171.67 Q1647.37 1171.67 1649.8 1168.34 Q1652.23 1164.98 1652.23 1159.11 Q1652.23 1153.23 1649.8 1149.91 Q1647.37 1146.55 1643.14 1146.55 Q1638.92 1146.55 1636.49 1149.91 Q1634.08 1153.23 1634.08 1159.11 Z" fill="#000000" fill-rule="evenodd" fill-opacity="1" /><path clip-path="url(#clip910)" d="M1687.59 1132.08 L1693.43 1132.08 L1693.43 1170.36 L1714.47 1170.36 L1714.47 1175.28 L1687.59 1175.28 L1687.59 1132.08 Z" fill="#000000" fill-rule="evenodd" fill-opacity="1" /><path clip-path="url(#clip910)" d="M1720.37 1142.88 L1725.69 1142.88 L1725.69 1175.28 L1720.37 1175.28 L1720.37 1142.88 M1720.37 1130.26 L1725.69 1130.26 L1725.69 1137 L1720.37 1137 L1720.37 1130.26 Z" fill="#000000" fill-rule="evenodd" fill-opacity="1" /><path clip-path="url(#clip910)" d="M1763.77 1155.72 L1763.77 1175.28 L1758.45 1175.28 L1758.45 1155.9 Q1758.45 1151.3 1756.65 1149.01 Q1754.86 1146.72 1751.27 1146.72 Q1746.96 1146.72 1744.47 1149.47 Q1741.98 1152.22 1741.98 1156.97 L1741.98 1175.28 L1736.63 1175.28 L1736.63 1142.88 L1741.98 1142.88 L1741.98 1147.91 Q1743.89 1144.99 1746.47 1143.54 Q1749.07 1142.09 1752.46 1142.09 Q1758.04 1142.09 1760.91 1145.57 Q1763.77 1149.01 1763.77 1155.72 Z" fill="#000000" fill-rule="evenodd" fill-opacity="1" /><path clip-path="url(#clip910)" d="M1802.11 1157.75 L1802.11 1160.35 L1777.63 1160.35 Q1777.98 1165.85 1780.93 1168.74 Q1783.91 1171.61 1789.21 1171.61 Q1792.27 1171.61 1795.14 1170.86 Q1798.03 1170.1 1800.87 1168.6 L1800.87 1173.63 Q1798 1174.85 1794.99 1175.49 Q1791.98 1176.12 1788.89 1176.12 Q1781.13 1176.12 1776.59 1171.61 Q1772.08 1167.09 1772.08 1159.4 Q1772.08 1151.44 1776.36 1146.78 Q1780.67 1142.09 1787.96 1142.09 Q1794.5 1142.09 1798.29 1146.32 Q1802.11 1150.51 1802.11 1157.75 M1796.79 1156.19 Q1796.73 1151.82 1794.33 1149.21 Q1791.95 1146.61 1788.02 1146.61 Q1783.56 1146.61 1780.87 1149.13 Q1778.21 1151.64 1777.8 1156.22 L1796.79 1156.19 Z" fill="#000000" fill-rule="evenodd" fill-opacity="1" /><circle clip-path="url(#clip910)" cx="1406.85" cy="1218.48" r="28.8" fill="#e26f46" fill-rule="evenodd" fill-opacity="1" stroke="#000000" stroke-opacity="1" stroke-width="5.12"/>
<path clip-path="url(#clip910)" d="M1500.58 1196.88 L1508.45 1196.88 L1527.6 1233.02 L1527.6 1196.88 L1533.28 1196.88 L1533.28 1240.08 L1525.4 1240.08 L1506.25 1203.94 L1506.25 1240.08 L1500.58 1240.08 L1500.58 1196.88 Z" fill="#000000" fill-rule="evenodd" fill-opacity="1" /><path clip-path="url(#clip910)" d="M1557.23 1211.41 Q1552.95 1211.41 1550.46 1214.77 Q1547.97 1218.09 1547.97 1223.91 Q1547.97 1229.72 1550.43 1233.08 Q1552.92 1236.41 1557.23 1236.41 Q1561.49 1236.41 1563.98 1233.05 Q1566.46 1229.7 1566.46 1223.91 Q1566.46 1218.15 1563.98 1214.79 Q1561.49 1211.41 1557.23 1211.41 M1557.23 1206.89 Q1564.18 1206.89 1568.14 1211.41 Q1572.11 1215.92 1572.11 1223.91 Q1572.11 1231.87 1568.14 1236.41 Q1564.18 1240.92 1557.23 1240.92 Q1550.26 1240.92 1546.3 1236.41 Q1542.36 1231.87 1542.36 1223.91 Q1542.36 1215.92 1546.3 1211.41 Q1550.26 1206.89 1557.23 1206.89 Z" fill="#000000" fill-rule="evenodd" fill-opacity="1" /><path clip-path="url(#clip910)" d="M1599.71 1212.65 Q1598.81 1212.13 1597.74 1211.9 Q1596.7 1211.64 1595.43 1211.64 Q1590.91 1211.64 1588.48 1214.59 Q1586.08 1217.51 1586.08 1223.01 L1586.08 1240.08 L1580.73 1240.08 L1580.73 1207.68 L1586.08 1207.68 L1586.08 1212.71 Q1587.76 1209.76 1590.45 1208.34 Q1593.14 1206.89 1596.99 1206.89 Q1597.54 1206.89 1598.21 1206.98 Q1598.87 1207.04 1599.68 1207.18 L1599.71 1212.65 Z" fill="#000000" fill-rule="evenodd" fill-opacity="1" /><path clip-path="url(#clip910)" d="M1629.48 1213.9 Q1631.48 1210.31 1634.26 1208.6 Q1637.04 1206.89 1640.8 1206.89 Q1645.86 1206.89 1648.61 1210.45 Q1651.36 1213.98 1651.36 1220.52 L1651.36 1240.08 L1646.01 1240.08 L1646.01 1220.7 Q1646.01 1216.04 1644.36 1213.78 Q1642.71 1211.52 1639.32 1211.52 Q1635.18 1211.52 1632.78 1214.27 Q1630.38 1217.02 1630.38 1221.77 L1630.38 1240.08 L1625.03 1240.08 L1625.03 1220.7 Q1625.03 1216.01 1623.38 1213.78 Q1621.73 1211.52 1618.29 1211.52 Q1614.21 1211.52 1611.8 1214.3 Q1609.4 1217.05 1609.4 1221.77 L1609.4 1240.08 L1604.05 1240.08 L1604.05 1207.68 L1609.4 1207.68 L1609.4 1212.71 Q1611.23 1209.73 1613.77 1208.31 Q1616.32 1206.89 1619.82 1206.89 Q1623.35 1206.89 1625.81 1208.69 Q1628.3 1210.48 1629.48 1213.9 Z" fill="#000000" fill-rule="evenodd" fill-opacity="1" /><path clip-path="url(#clip910)" d="M1676.71 1223.79 Q1670.25 1223.79 1667.77 1225.27 Q1665.28 1226.74 1665.28 1230.3 Q1665.28 1233.14 1667.13 1234.82 Q1669.01 1236.47 1672.22 1236.47 Q1676.65 1236.47 1679.31 1233.34 Q1682 1230.19 1682 1224.98 L1682 1223.79 L1676.71 1223.79 M1687.33 1221.59 L1687.33 1240.08 L1682 1240.08 L1682 1235.16 Q1680.18 1238.12 1677.46 1239.53 Q1674.74 1240.92 1670.8 1240.92 Q1665.83 1240.92 1662.88 1238.14 Q1659.95 1235.34 1659.95 1230.65 Q1659.95 1225.18 1663.6 1222.4 Q1667.27 1219.63 1674.54 1219.63 L1682 1219.63 L1682 1219.11 Q1682 1215.43 1679.57 1213.43 Q1677.17 1211.41 1672.8 1211.41 Q1670.02 1211.41 1667.39 1212.07 Q1664.76 1212.74 1662.33 1214.07 L1662.33 1209.15 Q1665.25 1208.02 1668 1207.47 Q1670.75 1206.89 1673.35 1206.89 Q1680.38 1206.89 1683.85 1210.54 Q1687.33 1214.19 1687.33 1221.59 Z" fill="#000000" fill-rule="evenodd" fill-opacity="1" /><path clip-path="url(#clip910)" d="M1698.29 1195.06 L1703.62 1195.06 L1703.62 1240.08 L1698.29 1240.08 L1698.29 1195.06 Z" fill="#000000" fill-rule="evenodd" fill-opacity="1" /><path clip-path="url(#clip910)" d="M1754.31 1219.83 Q1756.19 1220.47 1757.96 1222.55 Q1759.75 1224.63 1761.54 1228.28 L1767.48 1240.08 L1761.2 1240.08 L1755.67 1229 Q1753.53 1224.66 1751.5 1223.24 Q1749.51 1221.83 1746.03 1221.83 L1739.67 1221.83 L1739.67 1240.08 L1733.82 1240.08 L1733.82 1196.88 L1747.02 1196.88 Q1754.43 1196.88 1758.07 1199.98 Q1761.72 1203.08 1761.72 1209.33 Q1761.72 1213.41 1759.81 1216.1 Q1757.93 1218.79 1754.31 1219.83 M1739.67 1201.69 L1739.67 1217.02 L1747.02 1217.02 Q1751.24 1217.02 1753.38 1215.08 Q1755.55 1213.12 1755.55 1209.33 Q1755.55 1205.53 1753.38 1203.63 Q1751.24 1201.69 1747.02 1201.69 L1739.67 1201.69 Z" fill="#000000" fill-rule="evenodd" fill-opacity="1" /><path clip-path="url(#clip910)" d="M1799.82 1222.55 L1799.82 1225.15 L1775.35 1225.15 Q1775.69 1230.65 1778.64 1233.54 Q1781.62 1236.41 1786.92 1236.41 Q1789.99 1236.41 1792.85 1235.66 Q1795.74 1234.9 1798.58 1233.4 L1798.58 1238.43 Q1795.72 1239.65 1792.71 1240.29 Q1789.7 1240.92 1786.6 1240.92 Q1778.85 1240.92 1774.3 1236.41 Q1769.79 1231.89 1769.79 1224.2 Q1769.79 1216.24 1774.07 1211.58 Q1778.38 1206.89 1785.68 1206.89 Q1792.21 1206.89 1796.01 1211.12 Q1799.82 1215.31 1799.82 1222.55 M1794.5 1220.99 Q1794.44 1216.62 1792.04 1214.01 Q1789.67 1211.41 1785.73 1211.41 Q1781.28 1211.41 1778.59 1213.93 Q1775.92 1216.44 1775.52 1221.02 L1794.5 1220.99 Z" fill="#000000" fill-rule="evenodd" fill-opacity="1" /><path clip-path="url(#clip910)" d="M1829.22 1208.63 L1829.22 1213.67 Q1826.97 1212.51 1824.54 1211.93 Q1822.1 1211.35 1819.5 1211.35 Q1815.54 1211.35 1813.54 1212.57 Q1811.57 1213.78 1811.57 1216.21 Q1811.57 1218.06 1812.99 1219.13 Q1814.41 1220.18 1818.69 1221.13 L1820.51 1221.54 Q1826.18 1222.75 1828.56 1224.98 Q1830.96 1227.18 1830.96 1231.14 Q1830.96 1235.66 1827.37 1238.29 Q1823.81 1240.92 1817.56 1240.92 Q1814.96 1240.92 1812.12 1240.4 Q1809.32 1239.91 1806.19 1238.9 L1806.19 1233.4 Q1809.14 1234.93 1812.01 1235.71 Q1814.87 1236.47 1817.68 1236.47 Q1821.44 1236.47 1823.46 1235.19 Q1825.49 1233.89 1825.49 1231.55 Q1825.49 1229.38 1824.01 1228.22 Q1822.57 1227.06 1817.62 1225.99 L1815.77 1225.56 Q1810.82 1224.52 1808.62 1222.38 Q1806.42 1220.2 1806.42 1216.44 Q1806.42 1211.87 1809.66 1209.38 Q1812.9 1206.89 1818.86 1206.89 Q1821.82 1206.89 1824.42 1207.33 Q1827.02 1207.76 1829.22 1208.63 Z" fill="#000000" fill-rule="evenodd" fill-opacity="1" /><path clip-path="url(#clip910)" d="M1839.44 1207.68 L1844.76 1207.68 L1844.76 1240.08 L1839.44 1240.08 L1839.44 1207.68 M1839.44 1195.06 L1844.76 1195.06 L1844.76 1201.8 L1839.44 1201.8 L1839.44 1195.06 Z" fill="#000000" fill-rule="evenodd" fill-opacity="1" /><path clip-path="url(#clip910)" d="M1877.23 1212.6 L1877.23 1195.06 L1882.55 1195.06 L1882.55 1240.08 L1877.23 1240.08 L1877.23 1235.22 Q1875.55 1238.12 1872.97 1239.53 Q1870.43 1240.92 1866.84 1240.92 Q1860.96 1240.92 1857.26 1236.23 Q1853.59 1231.55 1853.59 1223.91 Q1853.59 1216.27 1857.26 1211.58 Q1860.96 1206.89 1866.84 1206.89 Q1870.43 1206.89 1872.97 1208.31 Q1875.55 1209.7 1877.23 1212.6 M1859.08 1223.91 Q1859.08 1229.78 1861.49 1233.14 Q1863.92 1236.47 1868.14 1236.47 Q1872.36 1236.47 1874.8 1233.14 Q1877.23 1229.78 1877.23 1223.91 Q1877.23 1218.03 1874.8 1214.71 Q1872.36 1211.35 1868.14 1211.35 Q1863.92 1211.35 1861.49 1214.71 Q1859.08 1218.03 1859.08 1223.91 Z" fill="#000000" fill-rule="evenodd" fill-opacity="1" /><path clip-path="url(#clip910)" d="M1892.97 1227.29 L1892.97 1207.68 L1898.29 1207.68 L1898.29 1227.09 Q1898.29 1231.69 1900.08 1234.01 Q1901.88 1236.29 1905.47 1236.29 Q1909.78 1236.29 1912.27 1233.54 Q1914.78 1230.8 1914.78 1226.05 L1914.78 1207.68 L1920.11 1207.68 L1920.11 1240.08 L1914.78 1240.08 L1914.78 1235.11 Q1912.84 1238.06 1910.27 1239.5 Q1907.72 1240.92 1904.34 1240.92 Q1898.75 1240.92 1895.86 1237.45 Q1892.97 1233.98 1892.97 1227.29 M1906.36 1206.89 L1906.36 1206.89 Z" fill="#000000" fill-rule="evenodd" fill-opacity="1" /><path clip-path="url(#clip910)" d="M1945.8 1223.79 Q1939.35 1223.79 1936.86 1225.27 Q1934.37 1226.74 1934.37 1230.3 Q1934.37 1233.14 1936.22 1234.82 Q1938.11 1236.47 1941.32 1236.47 Q1945.74 1236.47 1948.41 1233.34 Q1951.1 1230.19 1951.1 1224.98 L1951.1 1223.79 L1945.8 1223.79 M1956.42 1221.59 L1956.42 1240.08 L1951.1 1240.08 L1951.1 1235.16 Q1949.27 1238.12 1946.55 1239.53 Q1943.83 1240.92 1939.9 1240.92 Q1934.92 1240.92 1931.97 1238.14 Q1929.05 1235.34 1929.05 1230.65 Q1929.05 1225.18 1932.69 1222.4 Q1936.37 1219.63 1943.63 1219.63 L1951.1 1219.63 L1951.1 1219.11 Q1951.1 1215.43 1948.67 1213.43 Q1946.26 1211.41 1941.9 1211.41 Q1939.12 1211.41 1936.48 1212.07 Q1933.85 1212.74 1931.42 1214.07 L1931.42 1209.15 Q1934.34 1208.02 1937.09 1207.47 Q1939.84 1206.89 1942.45 1206.89 Q1949.48 1206.89 1952.95 1210.54 Q1956.42 1214.19 1956.42 1221.59 Z" fill="#000000" fill-rule="evenodd" fill-opacity="1" /><path clip-path="url(#clip910)" d="M1967.39 1195.06 L1972.71 1195.06 L1972.71 1240.08 L1967.39 1240.08 L1967.39 1195.06 Z" fill="#000000" fill-rule="evenodd" fill-opacity="1" /><path clip-path="url(#clip910)" d="M2004.51 1208.63 L2004.51 1213.67 Q2002.25 1212.51 1999.82 1211.93 Q1997.39 1211.35 1994.79 1211.35 Q1990.82 1211.35 1988.83 1212.57 Q1986.86 1213.78 1986.86 1216.21 Q1986.86 1218.06 1988.28 1219.13 Q1989.7 1220.18 1993.98 1221.13 L1995.8 1221.54 Q2001.47 1222.75 2003.85 1224.98 Q2006.25 1227.18 2006.25 1231.14 Q2006.25 1235.66 2002.66 1238.29 Q1999.1 1240.92 1992.85 1240.92 Q1990.25 1240.92 1987.41 1240.4 Q1984.6 1239.91 1981.48 1238.9 L1981.48 1233.4 Q1984.43 1234.93 1987.29 1235.71 Q1990.16 1236.47 1992.97 1236.47 Q1996.73 1236.47 1998.75 1235.19 Q2000.78 1233.89 2000.78 1231.55 Q2000.78 1229.38 1999.3 1228.22 Q1997.86 1227.06 1992.91 1225.99 L1991.06 1225.56 Q1986.11 1224.52 1983.91 1222.38 Q1981.71 1220.2 1981.71 1216.44 Q1981.71 1211.87 1984.95 1209.38 Q1988.19 1206.89 1994.15 1206.89 Q1997.1 1206.89 1999.71 1207.33 Q2002.31 1207.76 2004.51 1208.63 Z" fill="#000000" fill-rule="evenodd" fill-opacity="1" /><path clip-path="url(#clip910)" d="M1406.85 1315.28 L1379.13 1299.28 L1379.13 1267.28 L1406.85 1251.28 L1434.56 1267.28 L1434.56 1299.28 Z" fill="#3da44d" fill-rule="evenodd" fill-opacity="1" stroke="#000000" stroke-opacity="1" stroke-width="5.12"/>
<path clip-path="url(#clip910)" d="M1520.37 1267.44 L1512.44 1288.94 L1528.33 1288.94 L1520.37 1267.44 M1517.07 1261.68 L1523.7 1261.68 L1540.16 1304.88 L1534.09 1304.88 L1530.15 1293.8 L1510.68 1293.8 L1506.74 1304.88 L1500.58 1304.88 L1517.07 1261.68 Z" fill="#000000" fill-rule="evenodd" fill-opacity="1" /><path clip-path="url(#clip910)" d="M1545.69 1292.09 L1545.69 1272.48 L1551.01 1272.48 L1551.01 1291.89 Q1551.01 1296.49 1552.81 1298.81 Q1554.6 1301.09 1558.19 1301.09 Q1562.5 1301.09 1564.99 1298.34 Q1567.51 1295.6 1567.51 1290.85 L1567.51 1272.48 L1572.83 1272.48 L1572.83 1304.88 L1567.51 1304.88 L1567.51 1299.91 Q1565.57 1302.86 1562.99 1304.3 Q1560.45 1305.72 1557.06 1305.72 Q1551.48 1305.72 1548.58 1302.25 Q1545.69 1298.78 1545.69 1292.09 M1559.09 1271.69 L1559.09 1271.69 Z" fill="#000000" fill-rule="evenodd" fill-opacity="1" /><path clip-path="url(#clip910)" d="M1589.06 1263.27 L1589.06 1272.48 L1600.03 1272.48 L1600.03 1276.61 L1589.06 1276.61 L1589.06 1294.21 Q1589.06 1298.17 1590.13 1299.3 Q1591.23 1300.43 1594.56 1300.43 L1600.03 1300.43 L1600.03 1304.88 L1594.56 1304.88 Q1588.4 1304.88 1586.05 1302.6 Q1583.71 1300.28 1583.71 1294.21 L1583.71 1276.61 L1579.8 1276.61 L1579.8 1272.48 L1583.71 1272.48 L1583.71 1263.27 L1589.06 1263.27 Z" fill="#000000" fill-rule="evenodd" fill-opacity="1" /><path clip-path="url(#clip910)" d="M1619.59 1276.21 Q1615.31 1276.21 1612.82 1279.57 Q1610.33 1282.89 1610.33 1288.71 Q1610.33 1294.52 1612.79 1297.88 Q1615.28 1301.21 1619.59 1301.21 Q1623.84 1301.21 1626.33 1297.85 Q1628.82 1294.5 1628.82 1288.71 Q1628.82 1282.95 1626.33 1279.59 Q1623.84 1276.21 1619.59 1276.21 M1619.59 1271.69 Q1626.53 1271.69 1630.5 1276.21 Q1634.46 1280.72 1634.46 1288.71 Q1634.46 1296.67 1630.5 1301.21 Q1626.53 1305.72 1619.59 1305.72 Q1612.61 1305.72 1608.65 1301.21 Q1604.72 1296.67 1604.72 1288.71 Q1604.72 1280.72 1608.65 1276.21 Q1612.61 1271.69 1619.59 1271.69 Z" fill="#000000" fill-rule="evenodd" fill-opacity="1" /><path clip-path="url(#clip910)" d="M1641.69 1286.28 L1657.29 1286.28 L1657.29 1291.02 L1641.69 1291.02 L1641.69 1286.28 Z" fill="#000000" fill-rule="evenodd" fill-opacity="1" /><path clip-path="url(#clip910)" d="M1689.09 1273.72 L1689.09 1278.7 Q1686.83 1277.45 1684.55 1276.85 Q1682.29 1276.21 1679.98 1276.21 Q1674.8 1276.21 1671.93 1279.51 Q1669.07 1282.78 1669.07 1288.71 Q1669.07 1294.64 1671.93 1297.94 Q1674.8 1301.21 1679.98 1301.21 Q1682.29 1301.21 1684.55 1300.6 Q1686.83 1299.96 1689.09 1298.72 L1689.09 1303.64 Q1686.86 1304.68 1684.46 1305.2 Q1682.09 1305.72 1679.4 1305.72 Q1672.08 1305.72 1667.77 1301.12 Q1663.45 1296.52 1663.45 1288.71 Q1663.45 1280.78 1667.79 1276.24 Q1672.16 1271.69 1679.74 1271.69 Q1682.2 1271.69 1684.55 1272.22 Q1686.89 1272.71 1689.09 1273.72 Z" fill="#000000" fill-rule="evenodd" fill-opacity="1" /><path clip-path="url(#clip910)" d="M1710.91 1276.21 Q1706.62 1276.21 1704.14 1279.57 Q1701.65 1282.89 1701.65 1288.71 Q1701.65 1294.52 1704.11 1297.88 Q1706.6 1301.21 1710.91 1301.21 Q1715.16 1301.21 1717.65 1297.85 Q1720.14 1294.5 1720.14 1288.71 Q1720.14 1282.95 1717.65 1279.59 Q1715.16 1276.21 1710.91 1276.21 M1710.91 1271.69 Q1717.85 1271.69 1721.82 1276.21 Q1725.78 1280.72 1725.78 1288.71 Q1725.78 1296.67 1721.82 1301.21 Q1717.85 1305.72 1710.91 1305.72 Q1703.93 1305.72 1699.97 1301.21 Q1696.03 1296.67 1696.03 1288.71 Q1696.03 1280.72 1699.97 1276.21 Q1703.93 1271.69 1710.91 1271.69 Z" fill="#000000" fill-rule="evenodd" fill-opacity="1" /><path clip-path="url(#clip910)" d="M1753.38 1277.45 Q1752.49 1276.93 1751.42 1276.7 Q1750.37 1276.44 1749.1 1276.44 Q1744.59 1276.44 1742.16 1279.39 Q1739.76 1282.31 1739.76 1287.81 L1739.76 1304.88 L1734.4 1304.88 L1734.4 1272.48 L1739.76 1272.48 L1739.76 1277.51 Q1741.43 1274.56 1744.12 1273.14 Q1746.82 1271.69 1750.66 1271.69 Q1751.21 1271.69 1751.88 1271.78 Q1752.54 1271.84 1753.35 1271.98 L1753.38 1277.45 Z" fill="#000000" fill-rule="evenodd" fill-opacity="1" /><path clip-path="url(#clip910)" d="M1776.71 1277.45 Q1775.81 1276.93 1774.74 1276.7 Q1773.7 1276.44 1772.42 1276.44 Q1767.91 1276.44 1765.48 1279.39 Q1763.08 1282.31 1763.08 1287.81 L1763.08 1304.88 L1757.72 1304.88 L1757.72 1272.48 L1763.08 1272.48 L1763.08 1277.51 Q1764.76 1274.56 1767.45 1273.14 Q1770.14 1271.69 1773.99 1271.69 Q1774.54 1271.69 1775.2 1271.78 Q1775.87 1271.84 1776.68 1271.98 L1776.71 1277.45 Z" fill="#000000" fill-rule="evenodd" fill-opacity="1" /><path clip-path="url(#clip910)" d="M1808.71 1287.35 L1808.71 1289.95 L1784.23 1289.95 Q1784.58 1295.45 1787.53 1298.34 Q1790.51 1301.21 1795.8 1301.21 Q1798.87 1301.21 1801.73 1300.46 Q1804.63 1299.7 1807.46 1298.2 L1807.46 1303.23 Q1804.6 1304.45 1801.59 1305.09 Q1798.58 1305.72 1795.48 1305.72 Q1787.73 1305.72 1783.19 1301.21 Q1778.67 1296.69 1778.67 1289 Q1778.67 1281.04 1782.96 1276.38 Q1787.27 1271.69 1794.56 1271.69 Q1801.1 1271.69 1804.89 1275.92 Q1808.71 1280.11 1808.71 1287.35 M1803.38 1285.79 Q1803.33 1281.42 1800.92 1278.81 Q1798.55 1276.21 1794.62 1276.21 Q1790.16 1276.21 1787.47 1278.73 Q1784.81 1281.24 1784.4 1285.82 L1803.38 1285.79 Z" fill="#000000" fill-rule="evenodd" fill-opacity="1" /><path clip-path="url(#clip910)" d="M1817.45 1259.86 L1822.77 1259.86 L1822.77 1304.88 L1817.45 1304.88 L1817.45 1259.86 Z" fill="#000000" fill-rule="evenodd" fill-opacity="1" /><path clip-path="url(#clip910)" d="M1848.64 1288.59 Q1842.19 1288.59 1839.7 1290.07 Q1837.21 1291.54 1837.21 1295.1 Q1837.21 1297.94 1839.06 1299.62 Q1840.94 1301.27 1844.15 1301.27 Q1848.58 1301.27 1851.24 1298.14 Q1853.93 1294.99 1853.93 1289.78 L1853.93 1288.59 L1848.64 1288.59 M1859.26 1286.39 L1859.26 1304.88 L1853.93 1304.88 L1853.93 1299.96 Q1852.11 1302.92 1849.39 1304.33 Q1846.67 1305.72 1842.74 1305.72 Q1837.76 1305.72 1834.81 1302.94 Q1831.88 1300.14 1831.88 1295.45 Q1831.88 1289.98 1835.53 1287.2 Q1839.21 1284.43 1846.47 1284.43 L1853.93 1284.43 L1853.93 1283.91 Q1853.93 1280.23 1851.5 1278.23 Q1849.1 1276.21 1844.73 1276.21 Q1841.95 1276.21 1839.32 1276.87 Q1836.69 1277.54 1834.26 1278.87 L1834.26 1273.95 Q1837.18 1272.82 1839.93 1272.27 Q1842.68 1271.69 1845.28 1271.69 Q1852.31 1271.69 1855.78 1275.34 Q1859.26 1278.99 1859.26 1286.39 Z" fill="#000000" fill-rule="evenodd" fill-opacity="1" /><path clip-path="url(#clip910)" d="M1875.49 1263.27 L1875.49 1272.48 L1886.46 1272.48 L1886.46 1276.61 L1875.49 1276.61 L1875.49 1294.21 Q1875.49 1298.17 1876.56 1299.3 Q1877.66 1300.43 1880.99 1300.43 L1886.46 1300.43 L1886.46 1304.88 L1880.99 1304.88 Q1874.82 1304.88 1872.48 1302.6 Q1870.14 1300.28 1870.14 1294.21 L1870.14 1276.61 L1866.23 1276.61 L1866.23 1272.48 L1870.14 1272.48 L1870.14 1263.27 L1875.49 1263.27 Z" fill="#000000" fill-rule="evenodd" fill-opacity="1" /><path clip-path="url(#clip910)" d="M1921.18 1287.35 L1921.18 1289.95 L1896.7 1289.95 Q1897.05 1295.45 1900 1298.34 Q1902.98 1301.21 1908.27 1301.21 Q1911.34 1301.21 1914.2 1300.46 Q1917.1 1299.7 1919.93 1298.2 L1919.93 1303.23 Q1917.07 1304.45 1914.06 1305.09 Q1911.05 1305.72 1907.95 1305.72 Q1900.2 1305.72 1895.66 1301.21 Q1891.14 1296.69 1891.14 1289 Q1891.14 1281.04 1895.43 1276.38 Q1899.74 1271.69 1907.03 1271.69 Q1913.57 1271.69 1917.36 1275.92 Q1921.18 1280.11 1921.18 1287.35 M1915.85 1285.79 Q1915.8 1281.42 1913.39 1278.81 Q1911.02 1276.21 1907.09 1276.21 Q1902.63 1276.21 1899.94 1278.73 Q1897.28 1281.24 1896.87 1285.82 L1915.85 1285.79 Z" fill="#000000" fill-rule="evenodd" fill-opacity="1" /><path clip-path="url(#clip910)" d="M1951.24 1277.4 L1951.24 1259.86 L1956.57 1259.86 L1956.57 1304.88 L1951.24 1304.88 L1951.24 1300.02 Q1949.56 1302.92 1946.99 1304.33 Q1944.44 1305.72 1940.85 1305.72 Q1934.98 1305.72 1931.28 1301.03 Q1927.6 1296.35 1927.6 1288.71 Q1927.6 1281.07 1931.28 1276.38 Q1934.98 1271.69 1940.85 1271.69 Q1944.44 1271.69 1946.99 1273.11 Q1949.56 1274.5 1951.24 1277.4 M1933.1 1288.71 Q1933.1 1294.58 1935.5 1297.94 Q1937.93 1301.27 1942.16 1301.27 Q1946.38 1301.27 1948.81 1297.94 Q1951.24 1294.58 1951.24 1288.71 Q1951.24 1282.83 1948.81 1279.51 Q1946.38 1276.15 1942.16 1276.15 Q1937.93 1276.15 1935.5 1279.51 Q1933.1 1282.83 1933.1 1288.71 Z" fill="#000000" fill-rule="evenodd" fill-opacity="1" /><path clip-path="url(#clip910)" d="M2007.09 1284.63 Q2008.97 1285.27 2010.73 1287.35 Q2012.53 1289.43 2014.32 1293.08 L2020.25 1304.88 L2013.97 1304.88 L2008.45 1293.8 Q2006.3 1289.46 2004.28 1288.04 Q2002.28 1286.63 1998.81 1286.63 L1992.45 1286.63 L1992.45 1304.88 L1986.6 1304.88 L1986.6 1261.68 L1999.79 1261.68 Q2007.2 1261.68 2010.85 1264.78 Q2014.49 1267.88 2014.49 1274.13 Q2014.49 1278.21 2012.58 1280.9 Q2010.7 1283.59 2007.09 1284.63 M1992.45 1266.49 L1992.45 1281.82 L1999.79 1281.82 Q2004.02 1281.82 2006.16 1279.88 Q2008.33 1277.92 2008.33 1274.13 Q2008.33 1270.33 2006.16 1268.43 Q2004.02 1266.49 1999.79 1266.49 L1992.45 1266.49 Z" fill="#000000" fill-rule="evenodd" fill-opacity="1" /><path clip-path="url(#clip910)" d="M2052.6 1287.35 L2052.6 1289.95 L2028.12 1289.95 Q2028.47 1295.45 2031.42 1298.34 Q2034.4 1301.21 2039.7 1301.21 Q2042.76 1301.21 2045.63 1300.46 Q2048.52 1299.7 2051.36 1298.2 L2051.36 1303.23 Q2048.49 1304.45 2045.48 1305.09 Q2042.47 1305.72 2039.38 1305.72 Q2031.62 1305.72 2027.08 1301.21 Q2022.57 1296.69 2022.57 1289 Q2022.57 1281.04 2026.85 1276.38 Q2031.16 1271.69 2038.45 1271.69 Q2044.99 1271.69 2048.78 1275.92 Q2052.6 1280.11 2052.6 1287.35 M2047.28 1285.79 Q2047.22 1281.42 2044.82 1278.81 Q2042.44 1276.21 2038.51 1276.21 Q2034.05 1276.21 2031.36 1278.73 Q2028.7 1281.24 2028.3 1285.82 L2047.28 1285.79 Z" fill="#000000" fill-rule="evenodd" fill-opacity="1" /><path clip-path="url(#clip910)" d="M2082 1273.43 L2082 1278.47 Q2079.74 1277.31 2077.31 1276.73 Q2074.88 1276.15 2072.28 1276.15 Q2068.31 1276.15 2066.32 1277.37 Q2064.35 1278.58 2064.35 1281.01 Q2064.35 1282.86 2065.77 1283.93 Q2067.18 1284.98 2071.47 1285.93 L2073.29 1286.34 Q2078.96 1287.55 2081.33 1289.78 Q2083.74 1291.98 2083.74 1295.94 Q2083.74 1300.46 2080.15 1303.09 Q2076.59 1305.72 2070.34 1305.72 Q2067.73 1305.72 2064.9 1305.2 Q2062.09 1304.71 2058.97 1303.7 L2058.97 1298.2 Q2061.92 1299.73 2064.78 1300.51 Q2067.65 1301.27 2070.45 1301.27 Q2074.22 1301.27 2076.24 1299.99 Q2078.27 1298.69 2078.27 1296.35 Q2078.27 1294.18 2076.79 1293.02 Q2075.34 1291.86 2070.4 1290.79 L2068.54 1290.36 Q2063.6 1289.32 2061.4 1287.18 Q2059.2 1285 2059.2 1281.24 Q2059.2 1276.67 2062.44 1274.18 Q2065.68 1271.69 2071.64 1271.69 Q2074.59 1271.69 2077.2 1272.13 Q2079.8 1272.56 2082 1273.43 Z" fill="#000000" fill-rule="evenodd" fill-opacity="1" /><path clip-path="url(#clip910)" d="M2092.21 1272.48 L2097.54 1272.48 L2097.54 1304.88 L2092.21 1304.88 L2092.21 1272.48 M2092.21 1259.86 L2097.54 1259.86 L2097.54 1266.6 L2092.21 1266.6 L2092.21 1259.86 Z" fill="#000000" fill-rule="evenodd" fill-opacity="1" /><path clip-path="url(#clip910)" d="M2130 1277.4 L2130 1259.86 L2135.33 1259.86 L2135.33 1304.88 L2130 1304.88 L2130 1300.02 Q2128.32 1302.92 2125.75 1304.33 Q2123.2 1305.72 2119.61 1305.72 Q2113.74 1305.72 2110.04 1301.03 Q2106.36 1296.35 2106.36 1288.71 Q2106.36 1281.07 2110.04 1276.38 Q2113.74 1271.69 2119.61 1271.69 Q2123.2 1271.69 2125.75 1273.11 Q2128.32 1274.5 2130 1277.4 M2111.86 1288.71 Q2111.86 1294.58 2114.26 1297.94 Q2116.69 1301.27 2120.92 1301.27 Q2125.14 1301.27 2127.57 1297.94 Q2130 1294.58 2130 1288.71 Q2130 1282.83 2127.57 1279.51 Q2125.14 1276.15 2120.92 1276.15 Q2116.69 1276.15 2114.26 1279.51 Q2111.86 1282.83 2111.86 1288.71 Z" fill="#000000" fill-rule="evenodd" fill-opacity="1" /><path clip-path="url(#clip910)" d="M2145.74 1292.09 L2145.74 1272.48 L2151.07 1272.48 L2151.07 1291.89 Q2151.07 1296.49 2152.86 1298.81 Q2154.65 1301.09 2158.24 1301.09 Q2162.55 1301.09 2165.04 1298.34 Q2167.56 1295.6 2167.56 1290.85 L2167.56 1272.48 L2172.88 1272.48 L2172.88 1304.88 L2167.56 1304.88 L2167.56 1299.91 Q2165.62 1302.86 2163.05 1304.3 Q2160.5 1305.72 2157.11 1305.72 Q2151.53 1305.72 2148.64 1302.25 Q2145.74 1298.78 2145.74 1292.09 M2159.14 1271.69 L2159.14 1271.69 Z" fill="#000000" fill-rule="evenodd" fill-opacity="1" /><path clip-path="url(#clip910)" d="M2198.58 1288.59 Q2192.13 1288.59 2189.64 1290.07 Q2187.15 1291.54 2187.15 1295.1 Q2187.15 1297.94 2189 1299.62 Q2190.88 1301.27 2194.09 1301.27 Q2198.52 1301.27 2201.18 1298.14 Q2203.87 1294.99 2203.87 1289.78 L2203.87 1288.59 L2198.58 1288.59 M2209.2 1286.39 L2209.2 1304.88 L2203.87 1304.88 L2203.87 1299.96 Q2202.05 1302.92 2199.33 1304.33 Q2196.61 1305.72 2192.68 1305.72 Q2187.7 1305.72 2184.75 1302.94 Q2181.82 1300.14 2181.82 1295.45 Q2181.82 1289.98 2185.47 1287.2 Q2189.15 1284.43 2196.41 1284.43 L2203.87 1284.43 L2203.87 1283.91 Q2203.87 1280.23 2201.44 1278.23 Q2199.04 1276.21 2194.67 1276.21 Q2191.89 1276.21 2189.26 1276.87 Q2186.63 1277.54 2184.2 1278.87 L2184.2 1273.95 Q2187.12 1272.82 2189.87 1272.27 Q2192.62 1271.69 2195.22 1271.69 Q2202.25 1271.69 2205.73 1275.34 Q2209.2 1278.99 2209.2 1286.39 Z" fill="#000000" fill-rule="evenodd" fill-opacity="1" /><path clip-path="url(#clip910)" d="M2220.16 1259.86 L2225.49 1259.86 L2225.49 1304.88 L2220.16 1304.88 L2220.16 1259.86 Z" fill="#000000" fill-rule="evenodd" fill-opacity="1" /><path clip-path="url(#clip910)" d="M2257.29 1273.43 L2257.29 1278.47 Q2255.03 1277.31 2252.6 1276.73 Q2250.17 1276.15 2247.57 1276.15 Q2243.6 1276.15 2241.6 1277.37 Q2239.64 1278.58 2239.64 1281.01 Q2239.64 1282.86 2241.05 1283.93 Q2242.47 1284.98 2246.75 1285.93 L2248.58 1286.34 Q2254.25 1287.55 2256.62 1289.78 Q2259.02 1291.98 2259.02 1295.94 Q2259.02 1300.46 2255.44 1303.09 Q2251.88 1305.72 2245.63 1305.72 Q2243.02 1305.72 2240.19 1305.2 Q2237.38 1304.71 2234.26 1303.7 L2234.26 1298.2 Q2237.21 1299.73 2240.07 1300.51 Q2242.94 1301.27 2245.74 1301.27 Q2249.5 1301.27 2251.53 1299.99 Q2253.55 1298.69 2253.55 1296.35 Q2253.55 1294.18 2252.08 1293.02 Q2250.63 1291.86 2245.68 1290.79 L2243.83 1290.36 Q2238.88 1289.32 2236.69 1287.18 Q2234.49 1285 2234.49 1281.24 Q2234.49 1276.67 2237.73 1274.18 Q2240.97 1271.69 2246.93 1271.69 Q2249.88 1271.69 2252.48 1272.13 Q2255.09 1272.56 2257.29 1273.43 Z" fill="#000000" fill-rule="evenodd" fill-opacity="1" /></svg>
