<?xml version="1.0" encoding="utf-8"?>
<svg xmlns="http://www.w3.org/2000/svg" xmlns:xlink="http://www.w3.org/1999/xlink" width="600" height="400" viewBox="0 0 2400 1600">
<defs>
  <clipPath id="clip750">
    <rect x="0" y="0" width="2400" height="1600"/>
  </clipPath>
</defs>
<path clip-path="url(#clip750)" d="
M0 1600 L2400 1600 L2400 0 L0 0  Z
  " fill="#ffffff" fill-rule="evenodd" fill-opacity="1"/>
<defs>
  <clipPath id="clip751">
    <rect x="480" y="0" width="1681" height="1600"/>
  </clipPath>
</defs>
<path clip-path="url(#clip750)" d="
M243.775 1392.94 L2352.76 1392.94 L2352.76 47.2441 L243.775 47.2441  Z
  " fill="#ffffff" fill-rule="evenodd" fill-opacity="1"/>
<defs>
  <clipPath id="clip752">
    <rect x="243" y="47" width="2110" height="1347"/>
  </clipPath>
</defs>
<polyline clip-path="url(#clip750)" style="stroke:#000000; stroke-linecap:round; stroke-linejoin:round; stroke-width:4; stroke-opacity:1; fill:none" points="
  243.775,1392.94 2352.76,1392.94 
  "/>
<polyline clip-path="url(#clip750)" style="stroke:#000000; stroke-linecap:round; stroke-linejoin:round; stroke-width:4; stroke-opacity:1; fill:none" points="
  284.983,1392.94 284.983,1374.04 
  "/>
<polyline clip-path="url(#clip750)" style="stroke:#000000; stroke-linecap:round; stroke-linejoin:round; stroke-width:4; stroke-opacity:1; fill:none" points="
  735.848,1392.94 735.848,1374.04 
  "/>
<polyline clip-path="url(#clip750)" style="stroke:#000000; stroke-linecap:round; stroke-linejoin:round; stroke-width:4; stroke-opacity:1; fill:none" points="
  1186.71,1392.94 1186.71,1374.04 
  "/>
<polyline clip-path="url(#clip750)" style="stroke:#000000; stroke-linecap:round; stroke-linejoin:round; stroke-width:4; stroke-opacity:1; fill:none" points="
  1637.58,1392.94 1637.58,1374.04 
  "/>
<polyline clip-path="url(#clip750)" style="stroke:#000000; stroke-linecap:round; stroke-linejoin:round; stroke-width:4; stroke-opacity:1; fill:none" points="
  2088.44,1392.94 2088.44,1374.04 
  "/>
<path clip-path="url(#clip750)" d="M284.983 1429.72 Q279.566 1429.72 276.823 1435.07 Q274.115 1440.38 274.115 1451.07 Q274.115 1461.73 276.823 1467.08 Q279.566 1472.39 284.983 1472.39 Q290.434 1472.39 293.142 1467.08 Q295.885 1461.73 295.885 1451.07 Q295.885 1440.38 293.142 1435.07 Q290.434 1429.72 284.983 1429.72 M284.983 1424.16 Q293.698 1424.16 298.281 1431.07 Q302.899 1437.95 302.899 1451.07 Q302.899 1464.16 298.281 1471.07 Q293.698 1477.95 284.983 1477.95 Q276.268 1477.95 271.65 1471.07 Q267.066 1464.16 267.066 1451.07 Q267.066 1437.95 271.65 1431.07 Q276.268 1424.16 284.983 1424.16 Z" fill="#000000" fill-rule="evenodd" fill-opacity="1" /><path clip-path="url(#clip750)" d="M727.827 1471.04 L752.306 1471.04 L752.306 1476.94 L719.39 1476.94 L719.39 1471.04 Q723.383 1466.91 730.258 1459.96 Q737.167 1452.98 738.938 1450.97 Q742.306 1447.18 743.626 1444.58 Q744.98 1441.94 744.98 1439.41 Q744.98 1435.27 742.063 1432.67 Q739.181 1430.07 734.528 1430.07 Q731.23 1430.07 727.549 1431.21 Q723.904 1432.36 719.737 1434.68 L719.737 1427.6 Q723.973 1425.9 727.654 1425.03 Q731.334 1424.16 734.39 1424.16 Q742.445 1424.16 747.237 1428.19 Q752.028 1432.22 752.028 1438.95 Q752.028 1442.15 750.813 1445.03 Q749.633 1447.88 746.473 1451.77 Q745.605 1452.77 740.952 1457.6 Q736.299 1462.39 727.827 1471.04 Z" fill="#000000" fill-rule="evenodd" fill-opacity="1" /><path clip-path="url(#clip750)" d="M1191.23 1431.21 L1173.52 1458.88 L1191.23 1458.88 L1191.23 1431.21 M1189.39 1425.1 L1198.21 1425.1 L1198.21 1458.88 L1205.6 1458.88 L1205.6 1464.72 L1198.21 1464.72 L1198.21 1476.94 L1191.23 1476.94 L1191.23 1464.72 L1167.82 1464.72 L1167.82 1457.95 L1189.39 1425.1 Z" fill="#000000" fill-rule="evenodd" fill-opacity="1" /><path clip-path="url(#clip750)" d="M1638.19 1448.22 Q1633.46 1448.22 1630.69 1451.45 Q1627.94 1454.68 1627.94 1460.31 Q1627.94 1465.9 1630.69 1469.16 Q1633.46 1472.39 1638.19 1472.39 Q1642.91 1472.39 1645.65 1469.16 Q1648.43 1465.9 1648.43 1460.31 Q1648.43 1454.68 1645.65 1451.45 Q1642.91 1448.22 1638.19 1448.22 M1652.11 1426.25 L1652.11 1432.63 Q1649.47 1431.38 1646.76 1430.72 Q1644.09 1430.07 1641.45 1430.07 Q1634.51 1430.07 1630.82 1434.75 Q1627.18 1439.44 1626.66 1448.92 Q1628.71 1445.9 1631.8 1444.3 Q1634.89 1442.67 1638.6 1442.67 Q1646.41 1442.67 1650.93 1447.43 Q1655.48 1452.15 1655.48 1460.31 Q1655.48 1468.29 1650.76 1473.12 Q1646.03 1477.95 1638.19 1477.95 Q1629.19 1477.95 1624.44 1471.07 Q1619.68 1464.16 1619.68 1451.07 Q1619.68 1438.78 1625.51 1431.49 Q1631.35 1424.16 1641.17 1424.16 Q1643.81 1424.16 1646.48 1424.68 Q1649.19 1425.2 1652.11 1426.25 Z" fill="#000000" fill-rule="evenodd" fill-opacity="1" /><path clip-path="url(#clip750)" d="M2088.44 1452.32 Q2083.44 1452.32 2080.56 1455 Q2077.71 1457.67 2077.71 1462.36 Q2077.71 1467.04 2080.56 1469.72 Q2083.44 1472.39 2088.44 1472.39 Q2093.44 1472.39 2096.33 1469.72 Q2099.21 1467.01 2099.21 1462.36 Q2099.21 1457.67 2096.33 1455 Q2093.48 1452.32 2088.44 1452.32 M2081.43 1449.34 Q2076.92 1448.22 2074.38 1445.13 Q2071.88 1442.04 2071.88 1437.6 Q2071.88 1431.38 2076.29 1427.77 Q2080.74 1424.16 2088.44 1424.16 Q2096.19 1424.16 2100.6 1427.77 Q2105.01 1431.38 2105.01 1437.6 Q2105.01 1442.04 2102.47 1445.13 Q2099.97 1448.22 2095.49 1449.34 Q2100.56 1450.52 2103.37 1453.95 Q2106.22 1457.39 2106.22 1462.36 Q2106.22 1469.89 2101.6 1473.92 Q2097.02 1477.95 2088.44 1477.95 Q2079.87 1477.95 2075.25 1473.92 Q2070.67 1469.89 2070.67 1462.36 Q2070.67 1457.39 2073.51 1453.95 Q2076.36 1450.52 2081.43 1449.34 M2078.86 1438.26 Q2078.86 1442.29 2081.36 1444.54 Q2083.89 1446.8 2088.44 1446.8 Q2092.96 1446.8 2095.49 1444.54 Q2098.06 1442.29 2098.06 1438.26 Q2098.06 1434.23 2095.49 1431.97 Q2092.96 1429.72 2088.44 1429.72 Q2083.89 1429.72 2081.36 1431.97 Q2078.86 1434.23 2078.86 1438.26 Z" fill="#000000" fill-rule="evenodd" fill-opacity="1" /><path clip-path="url(#clip750)" d="M1105.62 1525.52 L1105.62 1548.25 L1115.91 1548.25 Q1121.63 1548.25 1124.75 1545.29 Q1127.86 1542.33 1127.86 1536.86 Q1127.86 1531.43 1124.75 1528.48 Q1121.63 1525.52 1115.91 1525.52 L1105.62 1525.52 M1097.44 1518.8 L1115.91 1518.8 Q1126.08 1518.8 1131.27 1523.41 Q1136.49 1527.99 1136.49 1536.86 Q1136.49 1545.82 1131.27 1550.39 Q1126.08 1554.97 1115.91 1554.97 L1105.62 1554.97 L1105.62 1579.28 L1097.44 1579.28 L1097.44 1518.8 Z" fill="#000000" fill-rule="evenodd" fill-opacity="1" /><path clip-path="url(#clip750)" d="M1171.98 1540.87 Q1170.72 1540.14 1169.22 1539.82 Q1167.77 1539.46 1165.98 1539.46 Q1159.66 1539.46 1156.26 1543.59 Q1152.9 1547.68 1152.9 1555.38 L1152.9 1579.28 L1145.4 1579.28 L1145.4 1533.91 L1152.9 1533.91 L1152.9 1540.95 Q1155.25 1536.82 1159.02 1534.84 Q1162.78 1532.81 1168.17 1532.81 Q1168.94 1532.81 1169.87 1532.93 Q1170.8 1533.01 1171.94 1533.22 L1171.98 1540.87 Z" fill="#000000" fill-rule="evenodd" fill-opacity="1" /><path clip-path="url(#clip750)" d="M1216.78 1554.73 L1216.78 1558.37 L1182.51 1558.37 Q1183 1566.07 1187.13 1570.12 Q1191.3 1574.13 1198.71 1574.13 Q1203.01 1574.13 1207.02 1573.08 Q1211.07 1572.02 1215.04 1569.92 L1215.04 1576.97 Q1211.03 1578.67 1206.82 1579.56 Q1202.6 1580.45 1198.27 1580.45 Q1187.41 1580.45 1181.05 1574.13 Q1174.73 1567.81 1174.73 1557.04 Q1174.73 1545.9 1180.73 1539.37 Q1186.76 1532.81 1196.97 1532.81 Q1206.13 1532.81 1211.43 1538.73 Q1216.78 1544.6 1216.78 1554.73 M1209.33 1552.54 Q1209.25 1546.42 1205.88 1542.78 Q1202.56 1539.13 1197.05 1539.13 Q1190.82 1539.13 1187.05 1542.66 Q1183.32 1546.18 1182.75 1552.58 L1209.33 1552.54 Z" fill="#000000" fill-rule="evenodd" fill-opacity="1" /><path clip-path="url(#clip750)" d="M1258.87 1540.79 L1258.87 1516.24 L1266.32 1516.24 L1266.32 1579.28 L1258.87 1579.28 L1258.87 1572.47 Q1256.52 1576.52 1252.92 1578.51 Q1249.35 1580.45 1244.33 1580.45 Q1236.1 1580.45 1230.92 1573.89 Q1225.77 1567.33 1225.77 1556.63 Q1225.77 1545.94 1230.92 1539.37 Q1236.1 1532.81 1244.33 1532.81 Q1249.35 1532.81 1252.92 1534.8 Q1256.52 1536.74 1258.87 1540.79 M1233.47 1556.63 Q1233.47 1564.85 1236.83 1569.55 Q1240.24 1574.21 1246.15 1574.21 Q1252.07 1574.21 1255.47 1569.55 Q1258.87 1564.85 1258.87 1556.63 Q1258.87 1548.41 1255.47 1543.75 Q1252.07 1539.05 1246.15 1539.05 Q1240.24 1539.05 1236.83 1543.75 Q1233.47 1548.41 1233.47 1556.63 Z" fill="#000000" fill-rule="evenodd" fill-opacity="1" /><path clip-path="url(#clip750)" d="M1281.68 1533.91 L1289.13 1533.91 L1289.13 1579.28 L1281.68 1579.28 L1281.68 1533.91 M1281.68 1516.24 L1289.13 1516.24 L1289.13 1525.68 L1281.68 1525.68 L1281.68 1516.24 Z" fill="#000000" fill-rule="evenodd" fill-opacity="1" /><path clip-path="url(#clip750)" d="M1337.38 1535.65 L1337.38 1542.62 Q1334.22 1540.87 1331.02 1540.02 Q1327.86 1539.13 1324.62 1539.13 Q1317.37 1539.13 1313.36 1543.75 Q1309.34 1548.33 1309.34 1556.63 Q1309.34 1564.94 1313.36 1569.55 Q1317.37 1574.13 1324.62 1574.13 Q1327.86 1574.13 1331.02 1573.28 Q1334.22 1572.39 1337.38 1570.65 L1337.38 1577.53 Q1334.26 1578.99 1330.9 1579.72 Q1327.57 1580.45 1323.81 1580.45 Q1313.56 1580.45 1307.52 1574.01 Q1301.49 1567.57 1301.49 1556.63 Q1301.49 1545.53 1307.56 1539.17 Q1313.68 1532.81 1324.29 1532.81 Q1327.74 1532.81 1331.02 1533.54 Q1334.3 1534.23 1337.38 1535.65 Z" fill="#000000" fill-rule="evenodd" fill-opacity="1" /><path clip-path="url(#clip750)" d="M1357.71 1521.02 L1357.71 1533.91 L1373.07 1533.91 L1373.07 1539.7 L1357.71 1539.7 L1357.71 1564.33 Q1357.71 1569.88 1359.21 1571.46 Q1360.75 1573.04 1365.41 1573.04 L1373.07 1573.04 L1373.07 1579.28 L1365.41 1579.28 Q1356.78 1579.28 1353.5 1576.08 Q1350.22 1572.83 1350.22 1564.33 L1350.22 1539.7 L1344.75 1539.7 L1344.75 1533.91 L1350.22 1533.91 L1350.22 1521.02 L1357.71 1521.02 Z" fill="#000000" fill-rule="evenodd" fill-opacity="1" /><path clip-path="url(#clip750)" d="M1400.45 1539.13 Q1394.45 1539.13 1390.97 1543.83 Q1387.49 1548.49 1387.49 1556.63 Q1387.49 1564.77 1390.93 1569.47 Q1394.41 1574.13 1400.45 1574.13 Q1406.4 1574.13 1409.89 1569.43 Q1413.37 1564.73 1413.37 1556.63 Q1413.37 1548.57 1409.89 1543.87 Q1406.4 1539.13 1400.45 1539.13 M1400.45 1532.81 Q1410.17 1532.81 1415.72 1539.13 Q1421.27 1545.45 1421.27 1556.63 Q1421.27 1567.77 1415.72 1574.13 Q1410.17 1580.45 1400.45 1580.45 Q1390.69 1580.45 1385.14 1574.13 Q1379.63 1567.77 1379.63 1556.63 Q1379.63 1545.45 1385.14 1539.13 Q1390.69 1532.81 1400.45 1532.81 Z" fill="#000000" fill-rule="evenodd" fill-opacity="1" /><path clip-path="url(#clip750)" d="M1459.92 1540.87 Q1458.66 1540.14 1457.16 1539.82 Q1455.7 1539.46 1453.92 1539.46 Q1447.6 1539.46 1444.2 1543.59 Q1440.84 1547.68 1440.84 1555.38 L1440.84 1579.28 L1433.34 1579.28 L1433.34 1533.91 L1440.84 1533.91 L1440.84 1540.95 Q1443.19 1536.82 1446.95 1534.84 Q1450.72 1532.81 1456.11 1532.81 Q1456.88 1532.81 1457.81 1532.93 Q1458.74 1533.01 1459.88 1533.22 L1459.92 1540.87 Z" fill="#000000" fill-rule="evenodd" fill-opacity="1" /><path clip-path="url(#clip750)" d="M1496.66 1535.24 L1496.66 1542.29 Q1493.5 1540.67 1490.1 1539.86 Q1486.69 1539.05 1483.05 1539.05 Q1477.5 1539.05 1474.7 1540.75 Q1471.95 1542.45 1471.95 1545.86 Q1471.95 1548.45 1473.93 1549.95 Q1475.92 1551.41 1481.91 1552.74 L1484.47 1553.31 Q1492.41 1555.01 1495.73 1558.13 Q1499.09 1561.21 1499.09 1566.76 Q1499.09 1573.08 1494.07 1576.76 Q1489.08 1580.45 1480.33 1580.45 Q1476.69 1580.45 1472.72 1579.72 Q1468.79 1579.03 1464.41 1577.61 L1464.41 1569.92 Q1468.55 1572.07 1472.56 1573.16 Q1476.57 1574.21 1480.5 1574.21 Q1485.76 1574.21 1488.6 1572.43 Q1491.43 1570.61 1491.43 1567.33 Q1491.43 1564.29 1489.37 1562.67 Q1487.34 1561.05 1480.41 1559.55 L1477.82 1558.94 Q1470.89 1557.48 1467.82 1554.48 Q1464.74 1551.45 1464.74 1546.18 Q1464.74 1539.78 1469.27 1536.3 Q1473.81 1532.81 1482.16 1532.81 Q1486.29 1532.81 1489.93 1533.42 Q1493.58 1534.03 1496.66 1535.24 Z" fill="#000000" fill-rule="evenodd" fill-opacity="1" /><polyline clip-path="url(#clip750)" style="stroke:#000000; stroke-linecap:round; stroke-linejoin:round; stroke-width:4; stroke-opacity:1; fill:none" points="
  243.775,1392.94 243.775,47.2441 
  "/>
<polyline clip-path="url(#clip750)" style="stroke:#000000; stroke-linecap:round; stroke-linejoin:round; stroke-width:4; stroke-opacity:1; fill:none" points="
  243.775,1182.43 262.673,1182.43 
  "/>
<polyline clip-path="url(#clip750)" style="stroke:#000000; stroke-linecap:round; stroke-linejoin:round; stroke-width:4; stroke-opacity:1; fill:none" points="
  243.775,890.884 262.673,890.884 
  "/>
<polyline clip-path="url(#clip750)" style="stroke:#000000; stroke-linecap:round; stroke-linejoin:round; stroke-width:4; stroke-opacity:1; fill:none" points="
  243.775,599.342 262.673,599.342 
  "/>
<polyline clip-path="url(#clip750)" style="stroke:#000000; stroke-linecap:round; stroke-linejoin:round; stroke-width:4; stroke-opacity:1; fill:none" points="
  243.775,307.8 262.673,307.8 
  "/>
<path clip-path="url(#clip750)" d="M176.421 1156.51 L203.956 1156.51 L203.956 1162.41 L182.845 1162.41 L182.845 1175.12 Q184.373 1174.6 185.9 1174.35 Q187.428 1174.08 188.956 1174.08 Q197.636 1174.08 202.706 1178.83 Q207.775 1183.59 207.775 1191.71 Q207.775 1200.08 202.567 1204.74 Q197.359 1209.35 187.88 1209.35 Q184.616 1209.35 181.213 1208.8 Q177.845 1208.24 174.234 1207.13 L174.234 1200.08 Q177.359 1201.78 180.692 1202.62 Q184.025 1203.45 187.741 1203.45 Q193.748 1203.45 197.255 1200.29 Q200.761 1197.13 200.761 1191.71 Q200.761 1186.3 197.255 1183.14 Q193.748 1179.98 187.741 1179.98 Q184.928 1179.98 182.116 1180.6 Q179.338 1181.23 176.421 1182.55 L176.421 1156.51 Z" fill="#000000" fill-rule="evenodd" fill-opacity="1" /><path clip-path="url(#clip750)" d="M130.831 910.902 L142.29 910.902 L142.29 871.353 L129.824 873.853 L129.824 867.464 L142.22 864.964 L149.234 864.964 L149.234 910.902 L160.692 910.902 L160.692 916.804 L130.831 916.804 L130.831 910.902 Z" fill="#000000" fill-rule="evenodd" fill-opacity="1" /><path clip-path="url(#clip750)" d="M189.859 869.582 Q184.442 869.582 181.699 874.93 Q178.991 880.242 178.991 890.936 Q178.991 901.596 181.699 906.943 Q184.442 912.256 189.859 912.256 Q195.31 912.256 198.018 906.943 Q200.761 901.596 200.761 890.936 Q200.761 880.242 198.018 874.93 Q195.31 869.582 189.859 869.582 M189.859 864.027 Q198.574 864.027 203.157 870.937 Q207.775 877.812 207.775 890.936 Q207.775 904.027 203.157 910.936 Q198.574 917.811 189.859 917.811 Q181.143 917.811 176.525 910.936 Q171.942 904.027 171.942 890.936 Q171.942 877.812 176.525 870.937 Q181.143 864.027 189.859 864.027 Z" fill="#000000" fill-rule="evenodd" fill-opacity="1" /><path clip-path="url(#clip750)" d="M132.324 619.359 L143.783 619.359 L143.783 579.811 L131.317 582.311 L131.317 575.922 L143.713 573.422 L150.727 573.422 L150.727 619.359 L162.185 619.359 L162.185 625.262 L132.324 625.262 L132.324 619.359 Z" fill="#000000" fill-rule="evenodd" fill-opacity="1" /><path clip-path="url(#clip750)" d="M176.421 573.422 L203.956 573.422 L203.956 579.325 L182.845 579.325 L182.845 592.033 Q184.373 591.512 185.9 591.269 Q187.428 590.991 188.956 590.991 Q197.636 590.991 202.706 595.748 Q207.775 600.505 207.775 608.63 Q207.775 616.998 202.567 621.651 Q197.359 626.269 187.88 626.269 Q184.616 626.269 181.213 625.713 Q177.845 625.158 174.234 624.047 L174.234 616.998 Q177.359 618.7 180.692 619.533 Q184.025 620.366 187.741 620.366 Q193.748 620.366 197.255 617.206 Q200.761 614.047 200.761 608.63 Q200.761 603.214 197.255 600.054 Q193.748 596.894 187.741 596.894 Q184.928 596.894 182.116 597.519 Q179.338 598.144 176.421 599.464 L176.421 573.422 Z" fill="#000000" fill-rule="evenodd" fill-opacity="1" /><path clip-path="url(#clip750)" d="M135.658 327.817 L160.137 327.817 L160.137 333.72 L127.22 333.72 L127.22 327.817 Q131.213 323.685 138.088 316.741 Q144.998 309.761 146.769 307.748 Q150.137 303.963 151.456 301.359 Q152.81 298.72 152.81 296.185 Q152.81 292.053 149.894 289.449 Q147.012 286.845 142.359 286.845 Q139.06 286.845 135.38 287.991 Q131.734 289.137 127.567 291.463 L127.567 284.38 Q131.803 282.678 135.484 281.81 Q139.165 280.942 142.22 280.942 Q150.276 280.942 155.067 284.97 Q159.859 288.998 159.859 295.734 Q159.859 298.928 158.644 301.81 Q157.463 304.657 154.303 308.546 Q153.435 309.553 148.783 314.379 Q144.13 319.171 135.658 327.817 Z" fill="#000000" fill-rule="evenodd" fill-opacity="1" /><path clip-path="url(#clip750)" d="M189.859 286.498 Q184.442 286.498 181.699 291.845 Q178.991 297.157 178.991 307.852 Q178.991 318.511 181.699 323.859 Q184.442 329.171 189.859 329.171 Q195.31 329.171 198.018 323.859 Q200.761 318.511 200.761 307.852 Q200.761 297.157 198.018 291.845 Q195.31 286.498 189.859 286.498 M189.859 280.942 Q198.574 280.942 203.157 287.852 Q207.775 294.727 207.775 307.852 Q207.775 320.942 203.157 327.852 Q198.574 334.727 189.859 334.727 Q181.143 334.727 176.525 327.852 Q171.942 320.942 171.942 307.852 Q171.942 294.727 176.525 287.852 Q181.143 280.942 189.859 280.942 Z" fill="#000000" fill-rule="evenodd" fill-opacity="1" /><path clip-path="url(#clip750)" d="M18.1459 961.911 Q18.1459 970.823 24.7894 976.089 Q31.4329 981.315 42.8969 981.315 Q54.3205 981.315 60.964 976.089 Q67.6074 970.823 67.6074 961.911 Q67.6074 952.999 60.964 947.814 Q54.3205 942.588 42.8969 942.588 Q31.4329 942.588 24.7894 947.814 Q18.1459 952.999 18.1459 961.911 M11.5024 961.911 Q11.5024 949.191 20.0498 941.575 Q28.5567 933.959 42.8969 933.959 Q57.1966 933.959 65.744 941.575 Q74.2509 949.191 74.2509 961.911 Q74.2509 974.671 65.744 982.327 Q57.2371 989.943 42.8969 989.943 Q28.5567 989.943 20.0498 982.327 Q11.5024 974.671 11.5024 961.911 Z" fill="#000000" fill-rule="evenodd" fill-opacity="1" /><path clip-path="url(#clip750)" d="M50.4316 888.913 Q42.2083 888.913 37.5497 892.316 Q32.8507 895.678 32.8507 901.593 Q32.8507 907.507 37.5497 910.91 Q42.2083 914.272 50.4316 914.272 Q58.6549 914.272 63.354 910.91 Q68.0125 907.507 68.0125 901.593 Q68.0125 895.678 63.354 892.316 Q58.6549 888.913 50.4316 888.913 M34.5926 914.272 Q30.5417 911.923 28.5972 908.358 Q26.6123 904.752 26.6123 899.77 Q26.6123 891.506 33.1748 886.361 Q39.7372 881.176 50.4316 881.176 Q61.126 881.176 67.6885 886.361 Q74.2509 891.506 74.2509 899.77 Q74.2509 904.752 72.3065 908.358 Q70.3215 911.923 66.2706 914.272 L73.0762 914.272 L73.0762 921.766 L10.0441 921.766 L10.0441 914.272 L34.5926 914.272 Z" fill="#000000" fill-rule="evenodd" fill-opacity="1" /><path clip-path="url(#clip750)" d="M29.0428 839.897 L36.0914 839.897 Q34.471 843.057 33.6609 846.46 Q32.8507 849.863 32.8507 853.508 Q32.8507 859.058 34.5521 861.853 Q36.2534 864.608 39.6562 864.608 Q42.2488 864.608 43.7476 862.623 Q45.2059 860.638 46.5427 854.643 L47.1099 852.091 Q48.8112 844.151 51.9304 840.829 Q55.0091 837.467 60.5589 837.467 Q66.8783 837.467 70.5646 842.49 Q74.2509 847.473 74.2509 856.223 Q74.2509 859.868 73.5218 863.838 Q72.8331 867.768 71.4153 872.143 L63.7186 872.143 Q65.8655 868.011 66.9593 864 Q68.0125 859.99 68.0125 856.061 Q68.0125 850.794 66.2301 847.959 Q64.4072 845.123 61.126 845.123 Q58.0878 845.123 56.4675 847.189 Q54.8471 849.215 53.3483 856.142 L52.7406 858.734 Q51.2823 865.661 48.2846 868.74 Q45.2464 871.819 39.9803 871.819 Q33.5798 871.819 30.0961 867.282 Q26.6123 862.745 26.6123 854.4 Q26.6123 850.268 27.2199 846.622 Q27.8276 842.976 29.0428 839.897 Z" fill="#000000" fill-rule="evenodd" fill-opacity="1" /><path clip-path="url(#clip750)" d="M48.5277 786.79 L52.1735 786.79 L52.1735 821.061 Q59.8702 820.575 63.9211 816.443 Q67.9315 812.27 67.9315 804.857 Q67.9315 800.563 66.8783 796.553 Q65.825 792.502 63.7186 788.532 L70.7671 788.532 Q72.4685 792.542 73.3597 796.755 Q74.2509 800.968 74.2509 805.303 Q74.2509 816.159 67.9315 822.519 Q61.6121 828.838 50.8367 828.838 Q39.6967 828.838 33.1748 822.843 Q26.6123 816.807 26.6123 806.599 Q26.6123 797.444 32.5266 792.137 Q38.4004 786.79 48.5277 786.79 M46.3402 794.244 Q40.2233 794.325 36.5775 797.687 Q32.9317 801.009 32.9317 806.518 Q32.9317 812.756 36.456 816.524 Q39.9803 820.251 46.3807 820.818 L46.3402 794.244 Z" fill="#000000" fill-rule="evenodd" fill-opacity="1" /><path clip-path="url(#clip750)" d="M34.6736 748.266 Q33.9444 749.522 33.6204 751.021 Q33.2558 752.479 33.2558 754.261 Q33.2558 760.581 37.3877 763.984 Q41.4791 767.346 49.1758 767.346 L73.0762 767.346 L73.0762 774.84 L27.706 774.84 L27.706 767.346 L34.7546 767.346 Q30.6227 764.996 28.6377 761.229 Q26.6123 757.462 26.6123 752.074 Q26.6123 751.304 26.7338 750.372 Q26.8148 749.441 27.0174 748.307 L34.6736 748.266 Z" fill="#000000" fill-rule="evenodd" fill-opacity="1" /><path clip-path="url(#clip750)" d="M27.706 745.795 L27.706 737.896 L65.7845 723.718 L27.706 709.539 L27.706 701.64 L73.0762 718.654 L73.0762 728.781 L27.706 745.795 Z" fill="#000000" fill-rule="evenodd" fill-opacity="1" /><path clip-path="url(#clip750)" d="M50.2696 670.732 Q50.2696 679.765 52.3355 683.249 Q54.4015 686.733 59.3841 686.733 Q63.354 686.733 65.7035 684.14 Q68.0125 681.507 68.0125 677.011 Q68.0125 670.813 63.6376 667.086 Q59.2221 663.319 51.9304 663.319 L50.2696 663.319 L50.2696 670.732 M47.1909 655.865 L73.0762 655.865 L73.0762 663.319 L66.1896 663.319 Q70.3215 665.871 72.3065 669.678 Q74.2509 673.486 74.2509 678.996 Q74.2509 685.963 70.3621 690.095 Q66.4327 694.186 59.8702 694.186 Q52.214 694.186 48.3251 689.082 Q44.4363 683.938 44.4363 673.77 L44.4363 663.319 L43.7071 663.319 Q38.5625 663.319 35.7673 666.721 Q32.9317 670.084 32.9317 676.2 Q32.9317 680.089 33.8634 683.776 Q34.7951 687.462 36.6585 690.865 L29.772 690.865 Q28.1921 686.773 27.4225 682.925 Q26.6123 679.077 26.6123 675.431 Q26.6123 665.587 31.7164 660.726 Q36.8206 655.865 47.1909 655.865 Z" fill="#000000" fill-rule="evenodd" fill-opacity="1" /><path clip-path="url(#clip750)" d="M14.8242 633.139 L27.706 633.139 L27.706 617.786 L33.4988 617.786 L33.4988 633.139 L58.1283 633.139 Q63.6781 633.139 65.2579 631.64 Q66.8378 630.101 66.8378 625.443 L66.8378 617.786 L73.0762 617.786 L73.0762 625.443 Q73.0762 634.071 69.8759 637.352 Q66.6352 640.633 58.1283 640.633 L33.4988 640.633 L33.4988 646.102 L27.706 646.102 L27.706 640.633 L14.8242 640.633 L14.8242 633.139 Z" fill="#000000" fill-rule="evenodd" fill-opacity="1" /><path clip-path="url(#clip750)" d="M27.706 607.983 L27.706 600.53 L73.0762 600.53 L73.0762 607.983 L27.706 607.983 M10.0441 607.983 L10.0441 600.53 L19.4827 600.53 L19.4827 607.983 L10.0441 607.983 Z" fill="#000000" fill-rule="evenodd" fill-opacity="1" /><path clip-path="url(#clip750)" d="M32.9317 567.353 Q32.9317 573.348 37.6307 576.832 Q42.2893 580.316 50.4316 580.316 Q58.5739 580.316 63.273 576.872 Q67.9315 573.388 67.9315 567.353 Q67.9315 561.398 63.2325 557.914 Q58.5334 554.43 50.4316 554.43 Q42.3703 554.43 37.6713 557.914 Q32.9317 561.398 32.9317 567.353 M26.6123 567.353 Q26.6123 557.63 32.9317 552.081 Q39.2511 546.531 50.4316 546.531 Q61.5716 546.531 67.9315 552.081 Q74.2509 557.63 74.2509 567.353 Q74.2509 577.115 67.9315 582.665 Q61.5716 588.174 50.4316 588.174 Q39.2511 588.174 32.9317 582.665 Q26.6123 577.115 26.6123 567.353 Z" fill="#000000" fill-rule="evenodd" fill-opacity="1" /><path clip-path="url(#clip750)" d="M45.692 496.462 L73.0762 496.462 L73.0762 503.915 L45.9351 503.915 Q39.4942 503.915 36.2939 506.427 Q33.0937 508.939 33.0937 513.962 Q33.0937 519.998 36.9421 523.481 Q40.7905 526.965 47.4339 526.965 L73.0762 526.965 L73.0762 534.459 L27.706 534.459 L27.706 526.965 L34.7546 526.965 Q30.6632 524.292 28.6377 520.686 Q26.6123 517.04 26.6123 512.301 Q26.6123 504.483 31.4734 500.472 Q36.2939 496.462 45.692 496.462 Z" fill="#000000" fill-rule="evenodd" fill-opacity="1" /><path clip-path="url(#clip750)" d="M29.0428 452.672 L36.0914 452.672 Q34.471 455.831 33.6609 459.234 Q32.8507 462.637 32.8507 466.283 Q32.8507 471.832 34.5521 474.627 Q36.2534 477.382 39.6562 477.382 Q42.2488 477.382 43.7476 475.397 Q45.2059 473.412 46.5427 467.417 L47.1099 464.865 Q48.8112 456.925 51.9304 453.603 Q55.0091 450.241 60.5589 450.241 Q66.8783 450.241 70.5646 455.264 Q74.2509 460.247 74.2509 468.997 Q74.2509 472.642 73.5218 476.612 Q72.8331 480.542 71.4153 484.917 L63.7186 484.917 Q65.8655 480.785 66.9593 476.774 Q68.0125 472.764 68.0125 468.835 Q68.0125 463.568 66.2301 460.733 Q64.4072 457.897 61.126 457.897 Q58.0878 457.897 56.4675 459.963 Q54.8471 461.989 53.3483 468.916 L52.7406 471.508 Q51.2823 478.435 48.2846 481.514 Q45.2464 484.593 39.9803 484.593 Q33.5798 484.593 30.0961 480.056 Q26.6123 475.519 26.6123 467.174 Q26.6123 463.042 27.2199 459.396 Q27.8276 455.75 29.0428 452.672 Z" fill="#000000" fill-rule="evenodd" fill-opacity="1" /><polyline clip-path="url(#clip752)" style="stroke:#009af9; stroke-linecap:round; stroke-linejoin:round; stroke-width:4; stroke-opacity:1; fill:none" points="
  395.832,1066.78 553.425,985.252 1171.54,665.498 339.299,1096.02 1844.65,317.295 2015.22,229.062 481.68,1022.37 2214.05,126.206 2179.48,144.088 2293.07,85.3298 
  596.592,962.922 1068.89,718.598 732.514,892.609 303.463,1114.56 1619.64,433.698 2090.82,189.952 2094.22,188.196 1776.05,352.784 1068.39,718.859 2039.18,216.665 
  
  "/>
<circle clip-path="url(#clip752)" cx="395.832" cy="1112.43" r="18" fill="#e26f46" fill-rule="evenodd" fill-opacity="1" stroke="#000000" stroke-opacity="1" stroke-width="3.2"/>
<circle clip-path="url(#clip752)" cx="553.425" cy="917.1" r="18" fill="#e26f46" fill-rule="evenodd" fill-opacity="1" stroke="#000000" stroke-opacity="1" stroke-width="3.2"/>
<circle clip-path="url(#clip752)" cx="1171.54" cy="669.15" r="18" fill="#e26f46" fill-rule="evenodd" fill-opacity="1" stroke="#000000" stroke-opacity="1" stroke-width="3.2"/>
<circle clip-path="url(#clip752)" cx="339.299" cy="1282.43" r="18" fill="#e26f46" fill-rule="evenodd" fill-opacity="1" stroke="#000000" stroke-opacity="1" stroke-width="3.2"/>
<circle clip-path="url(#clip752)" cx="1844.65" cy="406.618" r="18" fill="#e26f46" fill-rule="evenodd" fill-opacity="1" stroke="#000000" stroke-opacity="1" stroke-width="3.2"/>
<circle clip-path="url(#clip752)" cx="2015.22" cy="88.1165" r="18" fill="#e26f46" fill-rule="evenodd" fill-opacity="1" stroke="#000000" stroke-opacity="1" stroke-width="3.2"/>
<circle clip-path="url(#clip752)" cx="481.68" cy="1110.19" r="18" fill="#e26f46" fill-rule="evenodd" fill-opacity="1" stroke="#000000" stroke-opacity="1" stroke-width="3.2"/>
<circle clip-path="url(#clip752)" cx="2214.05" cy="195.93" r="18" fill="#e26f46" fill-rule="evenodd" fill-opacity="1" stroke="#000000" stroke-opacity="1" stroke-width="3.2"/>
<circle clip-path="url(#clip752)" cx="2179.48" cy="161.471" r="18" fill="#e26f46" fill-rule="evenodd" fill-opacity="1" stroke="#000000" stroke-opacity="1" stroke-width="3.2"/>
<circle clip-path="url(#clip752)" cx="2293.07" cy="93.9656" r="18" fill="#e26f46" fill-rule="evenodd" fill-opacity="1" stroke="#000000" stroke-opacity="1" stroke-width="3.2"/>
<circle clip-path="url(#clip752)" cx="596.592" cy="837.414" r="18" fill="#e26f46" fill-rule="evenodd" fill-opacity="1" stroke="#000000" stroke-opacity="1" stroke-width="3.2"/>
<circle clip-path="url(#clip752)" cx="1068.89" cy="650.504" r="18" fill="#e26f46" fill-rule="evenodd" fill-opacity="1" stroke="#000000" stroke-opacity="1" stroke-width="3.2"/>
<circle clip-path="url(#clip752)" cx="732.514" cy="837.788" r="18" fill="#e26f46" fill-rule="evenodd" fill-opacity="1" stroke="#000000" stroke-opacity="1" stroke-width="3.2"/>
<circle clip-path="url(#clip752)" cx="303.463" cy="1308.91" r="18" fill="#e26f46" fill-rule="evenodd" fill-opacity="1" stroke="#000000" stroke-opacity="1" stroke-width="3.2"/>
<circle clip-path="url(#clip752)" cx="1619.64" cy="452.748" r="18" fill="#e26f46" fill-rule="evenodd" fill-opacity="1" stroke="#000000" stroke-opacity="1" stroke-width="3.2"/>
<circle clip-path="url(#clip752)" cx="2090.82" cy="352.717" r="18" fill="#e26f46" fill-rule="evenodd" fill-opacity="1" stroke="#000000" stroke-opacity="1" stroke-width="3.2"/>
<circle clip-path="url(#clip752)" cx="2094.22" cy="215.953" r="18" fill="#e26f46" fill-rule="evenodd" fill-opacity="1" stroke="#000000" stroke-opacity="1" stroke-width="3.2"/>
<circle clip-path="url(#clip752)" cx="1776.05" cy="513.63" r="18" fill="#e26f46" fill-rule="evenodd" fill-opacity="1" stroke="#000000" stroke-opacity="1" stroke-width="3.2"/>
<circle clip-path="url(#clip752)" cx="1068.39" cy="916.032" r="18" fill="#e26f46" fill-rule="evenodd" fill-opacity="1" stroke="#000000" stroke-opacity="1" stroke-width="3.2"/>
<circle clip-path="url(#clip752)" cx="2039.18" cy="497.306" r="18" fill="#e26f46" fill-rule="evenodd" fill-opacity="1" stroke="#000000" stroke-opacity="1" stroke-width="3.2"/>
<path clip-path="url(#clip752)" d="M395.832 1214.6 L375.832 1254.6 L415.832 1254.6 L395.832 1214.6 Z" fill="#3da44d" fill-rule="evenodd" fill-opacity="1" stroke="#000000" stroke-opacity="1" stroke-width="3.2"/>
<path clip-path="url(#clip752)" d="M553.425 1001.16 L533.425 1041.16 L573.425 1041.16 L553.425 1001.16 Z" fill="#3da44d" fill-rule="evenodd" fill-opacity="1" stroke="#000000" stroke-opacity="1" stroke-width="3.2"/>
<path clip-path="url(#clip752)" d="M1171.54 681.123 L1151.54 721.123 L1191.54 721.123 L1171.54 681.123 Z" fill="#3da44d" fill-rule="evenodd" fill-opacity="1" stroke="#000000" stroke-opacity="1" stroke-width="3.2"/>
<path clip-path="url(#clip752)" d="M339.299 1180.66 L319.299 1220.66 L359.299 1220.66 L339.299 1180.66 Z" fill="#3da44d" fill-rule="evenodd" fill-opacity="1" stroke="#000000" stroke-opacity="1" stroke-width="3.2"/>
<path clip-path="url(#clip752)" d="M1844.65 645.52 L1824.65 685.52 L1864.65 685.52 L1844.65 645.52 Z" fill="#3da44d" fill-rule="evenodd" fill-opacity="1" stroke="#000000" stroke-opacity="1" stroke-width="3.2"/>
<path clip-path="url(#clip752)" d="M2015.22 283.939 L1995.22 323.939 L2035.22 323.939 L2015.22 283.939 Z" fill="#3da44d" fill-rule="evenodd" fill-opacity="1" stroke="#000000" stroke-opacity="1" stroke-width="3.2"/>
<path clip-path="url(#clip752)" d="M481.68 945.52 L461.68 985.52 L501.68 985.52 L481.68 945.52 Z" fill="#3da44d" fill-rule="evenodd" fill-opacity="1" stroke="#000000" stroke-opacity="1" stroke-width="3.2"/>
<path clip-path="url(#clip752)" d="M2214.05 342.691 L2194.05 382.691 L2234.05 382.691 L2214.05 342.691 Z" fill="#3da44d" fill-rule="evenodd" fill-opacity="1" stroke="#000000" stroke-opacity="1" stroke-width="3.2"/>
<path clip-path="url(#clip752)" d="M2179.48 355.411 L2159.48 395.411 L2199.48 395.411 L2179.48 355.411 Z" fill="#3da44d" fill-rule="evenodd" fill-opacity="1" stroke="#000000" stroke-opacity="1" stroke-width="3.2"/>
<path clip-path="url(#clip752)" d="M2293.07 248.031 L2273.07 288.031 L2313.07 288.031 L2293.07 248.031 Z" fill="#3da44d" fill-rule="evenodd" fill-opacity="1" stroke="#000000" stroke-opacity="1" stroke-width="3.2"/>
<path clip-path="url(#clip752)" d="M596.592 966.113 L576.592 1006.11 L616.592 1006.11 L596.592 966.113 Z" fill="#3da44d" fill-rule="evenodd" fill-opacity="1" stroke="#000000" stroke-opacity="1" stroke-width="3.2"/>
<path clip-path="url(#clip752)" d="M1068.89 737.101 L1048.89 777.101 L1088.89 777.101 L1068.89 737.101 Z" fill="#3da44d" fill-rule="evenodd" fill-opacity="1" stroke="#000000" stroke-opacity="1" stroke-width="3.2"/>
<path clip-path="url(#clip752)" d="M732.514 1007 L712.514 1047 L752.514 1047 L732.514 1007 Z" fill="#3da44d" fill-rule="evenodd" fill-opacity="1" stroke="#000000" stroke-opacity="1" stroke-width="3.2"/>
<path clip-path="url(#clip752)" d="M303.463 1334.85 L283.463 1374.85 L323.463 1374.85 L303.463 1334.85 Z" fill="#3da44d" fill-rule="evenodd" fill-opacity="1" stroke="#000000" stroke-opacity="1" stroke-width="3.2"/>
<path clip-path="url(#clip752)" d="M1619.64 427.1 L1599.64 467.1 L1639.64 467.1 L1619.64 427.1 Z" fill="#3da44d" fill-rule="evenodd" fill-opacity="1" stroke="#000000" stroke-opacity="1" stroke-width="3.2"/>
<path clip-path="url(#clip752)" d="M2090.82 179.39 L2070.82 219.39 L2110.82 219.39 L2090.82 179.39 Z" fill="#3da44d" fill-rule="evenodd" fill-opacity="1" stroke="#000000" stroke-opacity="1" stroke-width="3.2"/>
<path clip-path="url(#clip752)" d="M2094.22 228.564 L2074.22 268.564 L2114.22 268.564 L2094.22 228.564 Z" fill="#3da44d" fill-rule="evenodd" fill-opacity="1" stroke="#000000" stroke-opacity="1" stroke-width="3.2"/>
<path clip-path="url(#clip752)" d="M1776.05 366.802 L1756.05 406.802 L1796.05 406.802 L1776.05 366.802 Z" fill="#3da44d" fill-rule="evenodd" fill-opacity="1" stroke="#000000" stroke-opacity="1" stroke-width="3.2"/>
<path clip-path="url(#clip752)" d="M1068.39 720.835 L1048.39 760.835 L1088.39 760.835 L1068.39 720.835 Z" fill="#3da44d" fill-rule="evenodd" fill-opacity="1" stroke="#000000" stroke-opacity="1" stroke-width="3.2"/>
<path clip-path="url(#clip752)" d="M2039.18 355.642 L2019.18 395.642 L2059.18 395.642 L2039.18 355.642 Z" fill="#3da44d" fill-rule="evenodd" fill-opacity="1" stroke="#000000" stroke-opacity="1" stroke-width="3.2"/>
<path clip-path="url(#clip750)" d="
M1549.57 1348.08 L2282.46 1348.08 L2282.46 1088.88 L1549.57 1088.88  Z
  " fill="#ffffff" fill-rule="evenodd" fill-opacity="1"/>
<polyline clip-path="url(#clip750)" style="stroke:#000000; stroke-linecap:round; stroke-linejoin:round; stroke-width:4; stroke-opacity:1; fill:none" points="
  1549.57,1348.08 2282.46,1348.08 2282.46,1088.88 1549.57,1088.88 1549.57,1348.08 
  "/>
<polyline clip-path="url(#clip750)" style="stroke:#009af9; stroke-linecap:round; stroke-linejoin:round; stroke-width:5; stroke-opacity:1; fill:none" points="
  1573,1153.68 1713.6,1153.68 
  "/>
<path clip-path="url(#clip750)" d="M1737.04 1132.08 L1773.58 1132.08 L1773.58 1137 L1758.24 1137 L1758.24 1175.28 L1752.37 1175.28 L1752.37 1137 L1737.04 1137 L1737.04 1132.08 Z" fill="#000000" fill-rule="evenodd" fill-opacity="1" /><path clip-path="url(#clip750)" d="M1789.06 1147.85 Q1788.16 1147.33 1787.09 1147.1 Q1786.05 1146.84 1784.78 1146.84 Q1780.26 1146.84 1777.83 1149.79 Q1775.43 1152.71 1775.43 1158.21 L1775.43 1175.28 L1770.08 1175.28 L1770.08 1142.88 L1775.43 1142.88 L1775.43 1147.91 Q1777.11 1144.96 1779.8 1143.54 Q1782.49 1142.09 1786.34 1142.09 Q1786.89 1142.09 1787.56 1142.18 Q1788.22 1142.24 1789.03 1142.38 L1789.06 1147.85 Z" fill="#000000" fill-rule="evenodd" fill-opacity="1" /><path clip-path="url(#clip750)" d="M1821.06 1157.75 L1821.06 1160.35 L1796.58 1160.35 Q1796.93 1165.85 1799.88 1168.74 Q1802.86 1171.61 1808.16 1171.61 Q1811.22 1171.61 1814.09 1170.86 Q1816.98 1170.1 1819.82 1168.6 L1819.82 1173.63 Q1816.95 1174.85 1813.94 1175.49 Q1810.94 1176.12 1807.84 1176.12 Q1800.08 1176.12 1795.54 1171.61 Q1791.03 1167.09 1791.03 1159.4 Q1791.03 1151.44 1795.31 1146.78 Q1799.62 1142.09 1806.91 1142.09 Q1813.45 1142.09 1817.24 1146.32 Q1821.06 1150.51 1821.06 1157.75 M1815.74 1156.19 Q1815.68 1151.82 1813.28 1149.21 Q1810.91 1146.61 1806.97 1146.61 Q1802.52 1146.61 1799.82 1149.13 Q1797.16 1151.64 1796.76 1156.22 L1815.74 1156.19 Z" fill="#000000" fill-rule="evenodd" fill-opacity="1" /><path clip-path="url(#clip750)" d="M1856.74 1155.72 L1856.74 1175.28 L1851.42 1175.28 L1851.42 1155.9 Q1851.42 1151.3 1849.62 1149.01 Q1847.83 1146.72 1844.24 1146.72 Q1839.93 1146.72 1837.44 1149.47 Q1834.95 1152.22 1834.95 1156.97 L1834.95 1175.28 L1829.6 1175.28 L1829.6 1142.88 L1834.95 1142.88 L1834.95 1147.91 Q1836.86 1144.99 1839.44 1143.54 Q1842.04 1142.09 1845.43 1142.09 Q1851.01 1142.09 1853.88 1145.57 Q1856.74 1149.01 1856.74 1155.72 Z" fill="#000000" fill-rule="evenodd" fill-opacity="1" /><path clip-path="url(#clip750)" d="M1888.68 1147.8 L1888.68 1130.26 L1894.01 1130.26 L1894.01 1175.28 L1888.68 1175.28 L1888.68 1170.42 Q1887.01 1173.32 1884.43 1174.73 Q1881.88 1176.12 1878.3 1176.12 Q1872.42 1176.12 1868.72 1171.43 Q1865.04 1166.75 1865.04 1159.11 Q1865.04 1151.47 1868.72 1146.78 Q1872.42 1142.09 1878.3 1142.09 Q1881.88 1142.09 1884.43 1143.51 Q1887.01 1144.9 1888.68 1147.8 M1870.54 1159.11 Q1870.54 1164.98 1872.94 1168.34 Q1875.37 1171.67 1879.6 1171.67 Q1883.82 1171.67 1886.25 1168.34 Q1888.68 1164.98 1888.68 1159.11 Q1888.68 1153.23 1886.25 1149.91 Q1883.82 1146.55 1879.6 1146.55 Q1875.37 1146.55 1872.94 1149.91 Q1870.54 1153.23 1870.54 1159.11 Z" fill="#000000" fill-rule="evenodd" fill-opacity="1" /><path clip-path="url(#clip750)" d="M1924.04 1132.08 L1929.89 1132.08 L1929.89 1170.36 L1950.92 1170.36 L1950.92 1175.28 L1924.04 1175.28 L1924.04 1132.08 Z" fill="#000000" fill-rule="evenodd" fill-opacity="1" /><path clip-path="url(#clip750)" d="M1956.83 1142.88 L1962.15 1142.88 L1962.15 1175.28 L1956.83 1175.28 L1956.83 1142.88 M1956.83 1130.26 L1962.15 1130.26 L1962.15 1137 L1956.83 1137 L1956.83 1130.26 Z" fill="#000000" fill-rule="evenodd" fill-opacity="1" /><path clip-path="url(#clip750)" d="M2000.23 1155.72 L2000.23 1175.28 L1994.9 1175.28 L1994.9 1155.9 Q1994.9 1151.3 1993.11 1149.01 Q1991.32 1146.72 1987.73 1146.72 Q1983.42 1146.72 1980.93 1149.47 Q1978.44 1152.22 1978.44 1156.97 L1978.44 1175.28 L1973.09 1175.28 L1973.09 1142.88 L1978.44 1142.88 L1978.44 1147.91 Q1980.35 1144.99 1982.93 1143.54 Q1985.53 1142.09 1988.91 1142.09 Q1994.5 1142.09 1997.36 1145.57 Q2000.23 1149.01 2000.23 1155.72 Z" fill="#000000" fill-rule="evenodd" fill-opacity="1" /><path clip-path="url(#clip750)" d="M2038.57 1157.75 L2038.57 1160.35 L2014.09 1160.35 Q2014.44 1165.85 2017.39 1168.74 Q2020.37 1171.61 2025.66 1171.61 Q2028.73 1171.61 2031.59 1170.86 Q2034.49 1170.1 2037.32 1168.6 L2037.32 1173.63 Q2034.46 1174.85 2031.45 1175.49 Q2028.44 1176.12 2025.34 1176.12 Q2017.59 1176.12 2013.05 1171.61 Q2008.53 1167.09 2008.53 1159.4 Q2008.53 1151.44 2012.82 1146.78 Q2017.13 1142.09 2024.42 1142.09 Q2030.96 1142.09 2034.75 1146.32 Q2038.57 1150.51 2038.57 1157.75 M2033.24 1156.19 Q2033.19 1151.82 2030.78 1149.21 Q2028.41 1146.61 2024.48 1146.61 Q2020.02 1146.61 2017.33 1149.13 Q2014.67 1151.64 2014.26 1156.22 L2033.24 1156.19 Z" fill="#000000" fill-rule="evenodd" fill-opacity="1" /><circle clip-path="url(#clip750)" cx="1643.3" cy="1218.48" r="28.8" fill="#e26f46" fill-rule="evenodd" fill-opacity="1" stroke="#000000" stroke-opacity="1" stroke-width="5.12"/>
<path clip-path="url(#clip750)" d="M1737.04 1196.88 L1744.91 1196.88 L1764.06 1233.02 L1764.06 1196.88 L1769.73 1196.88 L1769.73 1240.08 L1761.86 1240.08 L1742.71 1203.94 L1742.71 1240.08 L1737.04 1240.08 L1737.04 1196.88 Z" fill="#000000" fill-rule="evenodd" fill-opacity="1" /><path clip-path="url(#clip750)" d="M1793.69 1211.41 Q1789.41 1211.41 1786.92 1214.77 Q1784.43 1218.09 1784.43 1223.91 Q1784.43 1229.72 1786.89 1233.08 Q1789.38 1236.41 1793.69 1236.41 Q1797.94 1236.41 1800.43 1233.05 Q1802.92 1229.7 1802.92 1223.91 Q1802.92 1218.15 1800.43 1214.79 Q1797.94 1211.41 1793.69 1211.41 M1793.69 1206.89 Q1800.63 1206.89 1804.6 1211.41 Q1808.56 1215.92 1808.56 1223.91 Q1808.56 1231.87 1804.6 1236.41 Q1800.63 1240.92 1793.69 1240.92 Q1786.72 1240.92 1782.75 1236.41 Q1778.82 1231.87 1778.82 1223.91 Q1778.82 1215.92 1782.75 1211.41 Q1786.72 1206.89 1793.69 1206.89 Z" fill="#000000" fill-rule="evenodd" fill-opacity="1" /><path clip-path="url(#clip750)" d="M1836.17 1212.65 Q1835.27 1212.13 1834.2 1211.9 Q1833.16 1211.64 1831.88 1211.64 Q1827.37 1211.64 1824.94 1214.59 Q1822.54 1217.51 1822.54 1223.01 L1822.54 1240.08 L1817.19 1240.08 L1817.19 1207.68 L1822.54 1207.68 L1822.54 1212.71 Q1824.22 1209.76 1826.91 1208.34 Q1829.6 1206.89 1833.45 1206.89 Q1834 1206.89 1834.66 1206.98 Q1835.33 1207.04 1836.14 1207.18 L1836.17 1212.65 Z" fill="#000000" fill-rule="evenodd" fill-opacity="1" /><path clip-path="url(#clip750)" d="M1865.94 1213.9 Q1867.94 1210.31 1870.72 1208.6 Q1873.49 1206.89 1877.25 1206.89 Q1882.32 1206.89 1885.07 1210.45 Q1887.82 1213.98 1887.82 1220.52 L1887.82 1240.08 L1882.46 1240.08 L1882.46 1220.7 Q1882.46 1216.04 1880.81 1213.78 Q1879.16 1211.52 1875.78 1211.52 Q1871.64 1211.52 1869.24 1214.27 Q1866.84 1217.02 1866.84 1221.77 L1866.84 1240.08 L1861.49 1240.08 L1861.49 1220.7 Q1861.49 1216.01 1859.84 1213.78 Q1858.19 1211.52 1854.74 1211.52 Q1850.66 1211.52 1848.26 1214.3 Q1845.86 1217.05 1845.86 1221.77 L1845.86 1240.08 L1840.51 1240.08 L1840.51 1207.68 L1845.86 1207.68 L1845.86 1212.71 Q1847.68 1209.73 1850.23 1208.31 Q1852.78 1206.89 1856.28 1206.89 Q1859.81 1206.89 1862.27 1208.69 Q1864.75 1210.48 1865.94 1213.9 Z" fill="#000000" fill-rule="evenodd" fill-opacity="1" /><path clip-path="url(#clip750)" d="M1913.16 1223.79 Q1906.71 1223.79 1904.22 1225.27 Q1901.73 1226.74 1901.73 1230.3 Q1901.73 1233.14 1903.59 1234.82 Q1905.47 1236.47 1908.68 1236.47 Q1913.11 1236.47 1915.77 1233.34 Q1918.46 1230.19 1918.46 1224.98 L1918.46 1223.79 L1913.16 1223.79 M1923.78 1221.59 L1923.78 1240.08 L1918.46 1240.08 L1918.46 1235.16 Q1916.64 1238.12 1913.92 1239.53 Q1911.2 1240.92 1907.26 1240.92 Q1902.28 1240.92 1899.33 1238.14 Q1896.41 1235.34 1896.41 1230.65 Q1896.41 1225.18 1900.06 1222.4 Q1903.73 1219.63 1910.99 1219.63 L1918.46 1219.63 L1918.46 1219.11 Q1918.46 1215.43 1916.03 1213.43 Q1913.63 1211.41 1909.26 1211.41 Q1906.48 1211.41 1903.85 1212.07 Q1901.21 1212.74 1898.78 1214.07 L1898.78 1209.15 Q1901.7 1208.02 1904.45 1207.47 Q1907.2 1206.89 1909.81 1206.89 Q1916.84 1206.89 1920.31 1210.54 Q1923.78 1214.19 1923.78 1221.59 Z" fill="#000000" fill-rule="evenodd" fill-opacity="1" /><path clip-path="url(#clip750)" d="M1934.75 1195.06 L1940.07 1195.06 L1940.07 1240.08 L1934.75 1240.08 L1934.75 1195.06 Z" fill="#000000" fill-rule="evenodd" fill-opacity="1" /><path clip-path="url(#clip750)" d="M1990.77 1219.83 Q1992.65 1220.47 1994.41 1222.55 Q1996.21 1224.63 1998 1228.28 L2003.93 1240.08 L1997.65 1240.08 L1992.13 1229 Q1989.99 1224.66 1987.96 1223.24 Q1985.96 1221.83 1982.49 1221.83 L1976.13 1221.83 L1976.13 1240.08 L1970.28 1240.08 L1970.28 1196.88 L1983.48 1196.88 Q1990.88 1196.88 1994.53 1199.98 Q1998.17 1203.08 1998.17 1209.33 Q1998.17 1213.41 1996.26 1216.1 Q1994.38 1218.79 1990.77 1219.83 M1976.13 1201.69 L1976.13 1217.02 L1983.48 1217.02 Q1987.7 1217.02 1989.84 1215.08 Q1992.01 1213.12 1992.01 1209.33 Q1992.01 1205.53 1989.84 1203.63 Q1987.7 1201.69 1983.48 1201.69 L1976.13 1201.69 Z" fill="#000000" fill-rule="evenodd" fill-opacity="1" /><path clip-path="url(#clip750)" d="M2036.28 1222.55 L2036.28 1225.15 L2011.8 1225.15 Q2012.15 1230.65 2015.1 1233.54 Q2018.08 1236.41 2023.38 1236.41 Q2026.44 1236.41 2029.31 1235.66 Q2032.2 1234.9 2035.04 1233.4 L2035.04 1238.43 Q2032.17 1239.65 2029.16 1240.29 Q2026.15 1240.92 2023.06 1240.92 Q2015.3 1240.92 2010.76 1236.41 Q2006.25 1231.89 2006.25 1224.2 Q2006.25 1216.24 2010.53 1211.58 Q2014.84 1206.89 2022.13 1206.89 Q2028.67 1206.89 2032.46 1211.12 Q2036.28 1215.31 2036.28 1222.55 M2030.96 1220.99 Q2030.9 1216.62 2028.5 1214.01 Q2026.13 1211.41 2022.19 1211.41 Q2017.73 1211.41 2015.04 1213.93 Q2012.38 1216.44 2011.98 1221.02 L2030.96 1220.99 Z" fill="#000000" fill-rule="evenodd" fill-opacity="1" /><path clip-path="url(#clip750)" d="M2065.68 1208.63 L2065.68 1213.67 Q2063.42 1212.51 2060.99 1211.93 Q2058.56 1211.35 2055.96 1211.35 Q2051.99 1211.35 2050 1212.57 Q2048.03 1213.78 2048.03 1216.21 Q2048.03 1218.06 2049.45 1219.13 Q2050.86 1220.18 2055.15 1221.13 L2056.97 1221.54 Q2062.64 1222.75 2065.01 1224.98 Q2067.42 1227.18 2067.42 1231.14 Q2067.42 1235.66 2063.83 1238.29 Q2060.27 1240.92 2054.02 1240.92 Q2051.41 1240.92 2048.58 1240.4 Q2045.77 1239.91 2042.65 1238.9 L2042.65 1233.4 Q2045.6 1234.93 2048.46 1235.71 Q2051.33 1236.47 2054.13 1236.47 Q2057.9 1236.47 2059.92 1235.19 Q2061.95 1233.89 2061.95 1231.55 Q2061.95 1229.38 2060.47 1228.22 Q2059.02 1227.06 2054.08 1225.99 L2052.22 1225.56 Q2047.28 1224.52 2045.08 1222.38 Q2042.88 1220.2 2042.88 1216.44 Q2042.88 1211.87 2046.12 1209.38 Q2049.36 1206.89 2055.32 1206.89 Q2058.27 1206.89 2060.88 1207.33 Q2063.48 1207.76 2065.68 1208.63 Z" fill="#000000" fill-rule="evenodd" fill-opacity="1" /><path clip-path="url(#clip750)" d="M2075.89 1207.68 L2081.22 1207.68 L2081.22 1240.08 L2075.89 1240.08 L2075.89 1207.68 M2075.89 1195.06 L2081.22 1195.06 L2081.22 1201.8 L2075.89 1201.8 L2075.89 1195.06 Z" fill="#000000" fill-rule="evenodd" fill-opacity="1" /><path clip-path="url(#clip750)" d="M2113.68 1212.6 L2113.68 1195.06 L2119.01 1195.06 L2119.01 1240.08 L2113.68 1240.08 L2113.68 1235.22 Q2112 1238.12 2109.43 1239.53 Q2106.88 1240.92 2103.3 1240.92 Q2097.42 1240.92 2093.72 1236.23 Q2090.04 1231.55 2090.04 1223.91 Q2090.04 1216.27 2093.72 1211.58 Q2097.42 1206.89 2103.3 1206.89 Q2106.88 1206.89 2109.43 1208.31 Q2112 1209.7 2113.68 1212.6 M2095.54 1223.91 Q2095.54 1229.78 2097.94 1233.14 Q2100.37 1236.47 2104.6 1236.47 Q2108.82 1236.47 2111.25 1233.14 Q2113.68 1229.78 2113.68 1223.91 Q2113.68 1218.03 2111.25 1214.71 Q2108.82 1211.35 2104.6 1211.35 Q2100.37 1211.35 2097.94 1214.71 Q2095.54 1218.03 2095.54 1223.91 Z" fill="#000000" fill-rule="evenodd" fill-opacity="1" /><path clip-path="url(#clip750)" d="M2129.42 1227.29 L2129.42 1207.68 L2134.75 1207.68 L2134.75 1227.09 Q2134.75 1231.69 2136.54 1234.01 Q2138.34 1236.29 2141.92 1236.29 Q2146.23 1236.29 2148.72 1233.54 Q2151.24 1230.8 2151.24 1226.05 L2151.24 1207.68 L2156.56 1207.68 L2156.56 1240.08 L2151.24 1240.08 L2151.24 1235.11 Q2149.3 1238.06 2146.73 1239.5 Q2144.18 1240.92 2140.79 1240.92 Q2135.21 1240.92 2132.32 1237.45 Q2129.42 1233.98 2129.42 1227.29 M2142.82 1206.89 L2142.82 1206.89 Z" fill="#000000" fill-rule="evenodd" fill-opacity="1" /><path clip-path="url(#clip750)" d="M2182.26 1223.79 Q2175.81 1223.79 2173.32 1225.27 Q2170.83 1226.74 2170.83 1230.3 Q2170.83 1233.14 2172.68 1234.82 Q2174.56 1236.47 2177.77 1236.47 Q2182.2 1236.47 2184.86 1233.34 Q2187.55 1230.19 2187.55 1224.98 L2187.55 1223.79 L2182.26 1223.79 M2192.88 1221.59 L2192.88 1240.08 L2187.55 1240.08 L2187.55 1235.16 Q2185.73 1238.12 2183.01 1239.53 Q2180.29 1240.92 2176.36 1240.92 Q2171.38 1240.92 2168.43 1238.14 Q2165.51 1235.34 2165.51 1230.65 Q2165.51 1225.18 2169.15 1222.4 Q2172.83 1219.63 2180.09 1219.63 L2187.55 1219.63 L2187.55 1219.11 Q2187.55 1215.43 2185.12 1213.43 Q2182.72 1211.41 2178.35 1211.41 Q2175.57 1211.41 2172.94 1212.07 Q2170.31 1212.74 2167.88 1214.07 L2167.88 1209.15 Q2170.8 1208.02 2173.55 1207.47 Q2176.3 1206.89 2178.9 1206.89 Q2185.93 1206.89 2189.41 1210.54 Q2192.88 1214.19 2192.88 1221.59 Z" fill="#000000" fill-rule="evenodd" fill-opacity="1" /><path clip-path="url(#clip750)" d="M2203.84 1195.06 L2209.17 1195.06 L2209.17 1240.08 L2203.84 1240.08 L2203.84 1195.06 Z" fill="#000000" fill-rule="evenodd" fill-opacity="1" /><path clip-path="url(#clip750)" d="M2240.97 1208.63 L2240.97 1213.67 Q2238.71 1212.51 2236.28 1211.93 Q2233.85 1211.35 2231.25 1211.35 Q2227.28 1211.35 2225.29 1212.57 Q2223.32 1213.78 2223.32 1216.21 Q2223.32 1218.06 2224.74 1219.13 Q2226.15 1220.18 2230.44 1221.13 L2232.26 1221.54 Q2237.93 1222.75 2240.3 1224.98 Q2242.7 1227.18 2242.7 1231.14 Q2242.7 1235.66 2239.12 1238.29 Q2235.56 1240.92 2229.31 1240.92 Q2226.7 1240.92 2223.87 1240.4 Q2221.06 1239.91 2217.94 1238.9 L2217.94 1233.4 Q2220.89 1234.93 2223.75 1235.71 Q2226.62 1236.47 2229.42 1236.47 Q2233.18 1236.47 2235.21 1235.19 Q2237.24 1233.89 2237.24 1231.55 Q2237.24 1229.38 2235.76 1228.22 Q2234.31 1227.06 2229.37 1225.99 L2227.51 1225.56 Q2222.57 1224.52 2220.37 1222.38 Q2218.17 1220.2 2218.17 1216.44 Q2218.17 1211.87 2221.41 1209.38 Q2224.65 1206.89 2230.61 1206.89 Q2233.56 1206.89 2236.16 1207.33 Q2238.77 1207.76 2240.97 1208.63 Z" fill="#000000" fill-rule="evenodd" fill-opacity="1" /><path clip-path="url(#clip750)" d="M1643.3 1251.28 L1611.3 1315.28 L1675.3 1315.28 L1643.3 1251.28 Z" fill="#3da44d" fill-rule="evenodd" fill-opacity="1" stroke="#000000" stroke-opacity="1" stroke-width="5.12"/>
<path clip-path="url(#clip750)" d="M1764.84 1263.1 L1764.84 1268.8 Q1761.51 1267.21 1758.56 1266.43 Q1755.61 1265.65 1752.86 1265.65 Q1748.09 1265.65 1745.48 1267.5 Q1742.91 1269.35 1742.91 1272.77 Q1742.91 1275.63 1744.62 1277.11 Q1746.35 1278.55 1751.16 1279.45 L1754.69 1280.17 Q1761.23 1281.42 1764.32 1284.57 Q1767.45 1287.7 1767.45 1292.96 Q1767.45 1299.24 1763.22 1302.48 Q1759.03 1305.72 1750.9 1305.72 Q1747.83 1305.72 1744.36 1305.03 Q1740.91 1304.33 1737.21 1302.97 L1737.21 1296.96 Q1740.77 1298.95 1744.18 1299.96 Q1747.6 1300.98 1750.9 1300.98 Q1755.9 1300.98 1758.62 1299.01 Q1761.34 1297.04 1761.34 1293.4 Q1761.34 1290.21 1759.37 1288.42 Q1757.43 1286.63 1752.98 1285.73 L1749.42 1285.03 Q1742.88 1283.73 1739.96 1280.95 Q1737.04 1278.18 1737.04 1273.23 Q1737.04 1267.5 1741.06 1264.2 Q1745.11 1260.9 1752.2 1260.9 Q1755.24 1260.9 1758.39 1261.45 Q1761.54 1262 1764.84 1263.1 Z" fill="#000000" fill-rule="evenodd" fill-opacity="1" /><path clip-path="url(#clip750)" d="M1776.13 1259.86 L1781.48 1259.86 L1781.48 1286.45 L1797.37 1272.48 L1804.16 1272.48 L1786.98 1287.64 L1804.89 1304.88 L1797.94 1304.88 L1781.48 1289.06 L1781.48 1304.88 L1776.13 1304.88 L1776.13 1259.86 Z" fill="#000000" fill-rule="evenodd" fill-opacity="1" /><path clip-path="url(#clip750)" d="M1836.25 1287.35 L1836.25 1289.95 L1811.77 1289.95 Q1812.12 1295.45 1815.07 1298.34 Q1818.05 1301.21 1823.35 1301.21 Q1826.42 1301.21 1829.28 1300.46 Q1832.17 1299.7 1835.01 1298.2 L1835.01 1303.23 Q1832.14 1304.45 1829.14 1305.09 Q1826.13 1305.72 1823.03 1305.72 Q1815.28 1305.72 1810.73 1301.21 Q1806.22 1296.69 1806.22 1289 Q1806.22 1281.04 1810.5 1276.38 Q1814.81 1271.69 1822.1 1271.69 Q1828.64 1271.69 1832.43 1275.92 Q1836.25 1280.11 1836.25 1287.35 M1830.93 1285.79 Q1830.87 1281.42 1828.47 1278.81 Q1826.1 1276.21 1822.16 1276.21 Q1817.71 1276.21 1815.02 1278.73 Q1812.35 1281.24 1811.95 1285.82 L1830.93 1285.79 Z" fill="#000000" fill-rule="evenodd" fill-opacity="1" /><path clip-path="url(#clip750)" d="M1841.9 1272.48 L1847.22 1272.48 L1853.88 1297.77 L1860.5 1272.48 L1866.78 1272.48 L1873.44 1297.77 L1880.06 1272.48 L1885.39 1272.48 L1876.91 1304.88 L1870.63 1304.88 L1863.66 1278.32 L1856.65 1304.88 L1850.37 1304.88 L1841.9 1272.48 Z" fill="#000000" fill-rule="evenodd" fill-opacity="1" /><path clip-path="url(#clip750)" d="M1921.18 1287.35 L1921.18 1289.95 L1896.7 1289.95 Q1897.05 1295.45 1900 1298.34 Q1902.98 1301.21 1908.27 1301.21 Q1911.34 1301.21 1914.2 1300.46 Q1917.1 1299.7 1919.93 1298.2 L1919.93 1303.23 Q1917.07 1304.45 1914.06 1305.09 Q1911.05 1305.72 1907.95 1305.72 Q1900.2 1305.72 1895.66 1301.21 Q1891.14 1296.69 1891.14 1289 Q1891.14 1281.04 1895.43 1276.38 Q1899.74 1271.69 1907.03 1271.69 Q1913.57 1271.69 1917.36 1275.92 Q1921.18 1280.11 1921.18 1287.35 M1915.85 1285.79 Q1915.8 1281.42 1913.39 1278.81 Q1911.02 1276.21 1907.09 1276.21 Q1902.63 1276.21 1899.94 1278.73 Q1897.28 1281.24 1896.87 1285.82 L1915.85 1285.79 Z" fill="#000000" fill-rule="evenodd" fill-opacity="1" /><path clip-path="url(#clip750)" d="M1951.24 1277.4 L1951.24 1259.86 L1956.57 1259.86 L1956.57 1304.88 L1951.24 1304.88 L1951.24 1300.02 Q1949.56 1302.92 1946.99 1304.33 Q1944.44 1305.72 1940.85 1305.72 Q1934.98 1305.72 1931.28 1301.03 Q1927.6 1296.35 1927.6 1288.71 Q1927.6 1281.07 1931.28 1276.38 Q1934.98 1271.69 1940.85 1271.69 Q1944.44 1271.69 1946.99 1273.11 Q1949.56 1274.5 1951.24 1277.4 M1933.1 1288.71 Q1933.1 1294.58 1935.5 1297.94 Q1937.93 1301.27 1942.16 1301.27 Q1946.38 1301.27 1948.81 1297.94 Q1951.24 1294.58 1951.24 1288.71 Q1951.24 1282.83 1948.81 1279.51 Q1946.38 1276.15 1942.16 1276.15 Q1937.93 1276.15 1935.5 1279.51 Q1933.1 1282.83 1933.1 1288.71 Z" fill="#000000" fill-rule="evenodd" fill-opacity="1" /><path clip-path="url(#clip750)" d="M2007.09 1284.63 Q2008.97 1285.27 2010.73 1287.35 Q2012.53 1289.43 2014.32 1293.08 L2020.25 1304.88 L2013.97 1304.88 L2008.45 1293.8 Q2006.3 1289.46 2004.28 1288.04 Q2002.28 1286.63 1998.81 1286.63 L1992.45 1286.63 L1992.45 1304.88 L1986.6 1304.88 L1986.6 1261.68 L1999.79 1261.68 Q2007.2 1261.68 2010.85 1264.78 Q2014.49 1267.88 2014.49 1274.13 Q2014.49 1278.21 2012.58 1280.9 Q2010.7 1283.59 2007.09 1284.63 M1992.45 1266.49 L1992.45 1281.82 L1999.79 1281.82 Q2004.02 1281.82 2006.16 1279.88 Q2008.33 1277.92 2008.33 1274.13 Q2008.33 1270.33 2006.16 1268.43 Q2004.02 1266.49 1999.79 1266.49 L1992.45 1266.49 Z" fill="#000000" fill-rule="evenodd" fill-opacity="1" /><path clip-path="url(#clip750)" d="M2052.6 1287.35 L2052.6 1289.95 L2028.12 1289.95 Q2028.47 1295.45 2031.42 1298.34 Q2034.4 1301.21 2039.7 1301.21 Q2042.76 1301.21 2045.63 1300.46 Q2048.52 1299.7 2051.36 1298.2 L2051.36 1303.23 Q2048.49 1304.45 2045.48 1305.09 Q2042.47 1305.72 2039.38 1305.72 Q2031.62 1305.72 2027.08 1301.21 Q2022.57 1296.69 2022.57 1289 Q2022.57 1281.04 2026.85 1276.38 Q2031.16 1271.69 2038.45 1271.69 Q2044.99 1271.69 2048.78 1275.92 Q2052.6 1280.11 2052.6 1287.35 M2047.28 1285.79 Q2047.22 1281.42 2044.82 1278.81 Q2042.44 1276.21 2038.51 1276.21 Q2034.05 1276.21 2031.36 1278.73 Q2028.7 1281.24 2028.3 1285.82 L2047.28 1285.79 Z" fill="#000000" fill-rule="evenodd" fill-opacity="1" /><path clip-path="url(#clip750)" d="M2082 1273.43 L2082 1278.47 Q2079.74 1277.31 2077.31 1276.73 Q2074.88 1276.15 2072.28 1276.15 Q2068.31 1276.15 2066.32 1277.37 Q2064.35 1278.58 2064.35 1281.01 Q2064.35 1282.86 2065.77 1283.93 Q2067.18 1284.98 2071.47 1285.93 L2073.29 1286.34 Q2078.96 1287.55 2081.33 1289.78 Q2083.74 1291.98 2083.74 1295.94 Q2083.74 1300.46 2080.15 1303.09 Q2076.59 1305.72 2070.34 1305.72 Q2067.73 1305.72 2064.9 1305.2 Q2062.09 1304.71 2058.97 1303.7 L2058.97 1298.2 Q2061.92 1299.73 2064.78 1300.51 Q2067.65 1301.27 2070.45 1301.27 Q2074.22 1301.27 2076.24 1299.99 Q2078.27 1298.69 2078.27 1296.35 Q2078.27 1294.18 2076.79 1293.02 Q2075.34 1291.86 2070.4 1290.79 L2068.54 1290.36 Q2063.6 1289.32 2061.4 1287.18 Q2059.2 1285 2059.2 1281.24 Q2059.2 1276.67 2062.44 1274.18 Q2065.68 1271.69 2071.64 1271.69 Q2074.59 1271.69 2077.2 1272.13 Q2079.8 1272.56 2082 1273.43 Z" fill="#000000" fill-rule="evenodd" fill-opacity="1" /><path clip-path="url(#clip750)" d="M2092.21 1272.48 L2097.54 1272.48 L2097.54 1304.88 L2092.21 1304.88 L2092.21 1272.48 M2092.21 1259.86 L2097.54 1259.86 L2097.54 1266.6 L2092.21 1266.6 L2092.21 1259.86 Z" fill="#000000" fill-rule="evenodd" fill-opacity="1" /><path clip-path="url(#clip750)" d="M2130 1277.4 L2130 1259.86 L2135.33 1259.86 L2135.33 1304.88 L2130 1304.88 L2130 1300.02 Q2128.32 1302.92 2125.75 1304.33 Q2123.2 1305.72 2119.61 1305.72 Q2113.74 1305.72 2110.04 1301.03 Q2106.36 1296.35 2106.36 1288.71 Q2106.36 1281.07 2110.04 1276.38 Q2113.74 1271.69 2119.61 1271.69 Q2123.2 1271.69 2125.75 1273.11 Q2128.32 1274.5 2130 1277.4 M2111.86 1288.71 Q2111.86 1294.58 2114.26 1297.94 Q2116.69 1301.27 2120.92 1301.27 Q2125.14 1301.27 2127.57 1297.94 Q2130 1294.58 2130 1288.71 Q2130 1282.83 2127.57 1279.51 Q2125.14 1276.15 2120.92 1276.15 Q2116.69 1276.15 2114.26 1279.51 Q2111.86 1282.83 2111.86 1288.71 Z" fill="#000000" fill-rule="evenodd" fill-opacity="1" /><path clip-path="url(#clip750)" d="M2145.74 1292.09 L2145.74 1272.48 L2151.07 1272.48 L2151.07 1291.89 Q2151.07 1296.49 2152.86 1298.81 Q2154.65 1301.09 2158.24 1301.09 Q2162.55 1301.09 2165.04 1298.34 Q2167.56 1295.6 2167.56 1290.85 L2167.56 1272.48 L2172.88 1272.48 L2172.88 1304.88 L2167.56 1304.88 L2167.56 1299.91 Q2165.62 1302.86 2163.05 1304.3 Q2160.5 1305.72 2157.11 1305.72 Q2151.53 1305.72 2148.64 1302.25 Q2145.74 1298.78 2145.74 1292.09 M2159.14 1271.69 L2159.14 1271.69 Z" fill="#000000" fill-rule="evenodd" fill-opacity="1" /><path clip-path="url(#clip750)" d="M2198.58 1288.59 Q2192.13 1288.59 2189.64 1290.07 Q2187.15 1291.54 2187.15 1295.1 Q2187.15 1297.94 2189 1299.62 Q2190.88 1301.27 2194.09 1301.27 Q2198.52 1301.27 2201.18 1298.14 Q2203.87 1294.99 2203.87 1289.78 L2203.87 1288.59 L2198.58 1288.59 M2209.2 1286.39 L2209.2 1304.88 L2203.87 1304.88 L2203.87 1299.96 Q2202.05 1302.92 2199.33 1304.33 Q2196.61 1305.72 2192.68 1305.72 Q2187.7 1305.72 2184.75 1302.94 Q2181.82 1300.14 2181.82 1295.45 Q2181.82 1289.98 2185.47 1287.2 Q2189.15 1284.43 2196.41 1284.43 L2203.87 1284.43 L2203.87 1283.91 Q2203.87 1280.23 2201.44 1278.23 Q2199.04 1276.21 2194.67 1276.21 Q2191.89 1276.21 2189.26 1276.87 Q2186.63 1277.54 2184.2 1278.87 L2184.2 1273.95 Q2187.12 1272.82 2189.87 1272.27 Q2192.62 1271.69 2195.22 1271.69 Q2202.25 1271.69 2205.73 1275.34 Q2209.2 1278.99 2209.2 1286.39 Z" fill="#000000" fill-rule="evenodd" fill-opacity="1" /><path clip-path="url(#clip750)" d="M2220.16 1259.86 L2225.49 1259.86 L2225.49 1304.88 L2220.16 1304.88 L2220.16 1259.86 Z" fill="#000000" fill-rule="evenodd" fill-opacity="1" /><path clip-path="url(#clip750)" d="M2257.29 1273.43 L2257.29 1278.47 Q2255.03 1277.31 2252.6 1276.73 Q2250.17 1276.15 2247.57 1276.15 Q2243.6 1276.15 2241.6 1277.37 Q2239.64 1278.58 2239.64 1281.01 Q2239.64 1282.86 2241.05 1283.93 Q2242.47 1284.98 2246.75 1285.93 L2248.58 1286.34 Q2254.25 1287.55 2256.62 1289.78 Q2259.02 1291.98 2259.02 1295.94 Q2259.02 1300.46 2255.44 1303.09 Q2251.88 1305.72 2245.63 1305.72 Q2243.02 1305.72 2240.19 1305.2 Q2237.38 1304.71 2234.26 1303.7 L2234.26 1298.2 Q2237.21 1299.73 2240.07 1300.51 Q2242.94 1301.27 2245.74 1301.27 Q2249.5 1301.27 2251.53 1299.99 Q2253.55 1298.69 2253.55 1296.35 Q2253.55 1294.18 2252.08 1293.02 Q2250.63 1291.86 2245.68 1290.79 L2243.83 1290.36 Q2238.88 1289.32 2236.69 1287.18 Q2234.49 1285 2234.49 1281.24 Q2234.49 1276.67 2237.73 1274.18 Q2240.97 1271.69 2246.93 1271.69 Q2249.88 1271.69 2252.48 1272.13 Q2255.09 1272.56 2257.29 1273.43 Z" fill="#000000" fill-rule="evenodd" fill-opacity="1" /></svg>
