<?xml version="1.0" encoding="utf-8"?>
<svg xmlns="http://www.w3.org/2000/svg" xmlns:xlink="http://www.w3.org/1999/xlink" width="600" height="400" viewBox="0 0 2400 1600">
<defs>
  <clipPath id="clip230">
    <rect x="0" y="0" width="2400" height="1600"/>
  </clipPath>
</defs>
<path clip-path="url(#clip230)" d="
M0 1600 L2400 1600 L2400 0 L0 0  Z
  " fill="#ffffff" fill-rule="evenodd" fill-opacity="1"/>
<defs>
  <clipPath id="clip231">
    <rect x="480" y="0" width="1681" height="1600"/>
  </clipPath>
</defs>
<path clip-path="url(#clip230)" d="
M301.032 1392.94 L2352.76 1392.94 L2352.76 47.2441 L301.032 47.2441  Z
  " fill="#ffffff" fill-rule="evenodd" fill-opacity="1"/>
<defs>
  <clipPath id="clip232">
    <rect x="301" y="47" width="2053" height="1347"/>
  </clipPath>
</defs>
<polyline clip-path="url(#clip232)" style="stroke:#000000; stroke-linecap:round; stroke-linejoin:round; stroke-width:2; stroke-opacity:0.1; fill:none" points="
  486.046,1392.94 486.046,47.2441 
  "/>
<polyline clip-path="url(#clip232)" style="stroke:#000000; stroke-linecap:round; stroke-linejoin:round; stroke-width:2; stroke-opacity:0.1; fill:none" points="
  821.633,1392.94 821.633,47.2441 
  "/>
<polyline clip-path="url(#clip232)" style="stroke:#000000; stroke-linecap:round; stroke-linejoin:round; stroke-width:2; stroke-opacity:0.1; fill:none" points="
  1157.22,1392.94 1157.22,47.2441 
  "/>
<polyline clip-path="url(#clip232)" style="stroke:#000000; stroke-linecap:round; stroke-linejoin:round; stroke-width:2; stroke-opacity:0.1; fill:none" points="
  1492.81,1392.94 1492.81,47.2441 
  "/>
<polyline clip-path="url(#clip232)" style="stroke:#000000; stroke-linecap:round; stroke-linejoin:round; stroke-width:2; stroke-opacity:0.1; fill:none" points="
  1828.39,1392.94 1828.39,47.2441 
  "/>
<polyline clip-path="url(#clip232)" style="stroke:#000000; stroke-linecap:round; stroke-linejoin:round; stroke-width:2; stroke-opacity:0.1; fill:none" points="
  2163.98,1392.94 2163.98,47.2441 
  "/>
<polyline clip-path="url(#clip230)" style="stroke:#000000; stroke-linecap:round; stroke-linejoin:round; stroke-width:4; stroke-opacity:1; fill:none" points="
  301.032,1392.94 2352.76,1392.94 
  "/>
<polyline clip-path="url(#clip230)" style="stroke:#000000; stroke-linecap:round; stroke-linejoin:round; stroke-width:4; stroke-opacity:1; fill:none" points="
  486.046,1392.94 486.046,1374.04 
  "/>
<polyline clip-path="url(#clip230)" style="stroke:#000000; stroke-linecap:round; stroke-linejoin:round; stroke-width:4; stroke-opacity:1; fill:none" points="
  821.633,1392.94 821.633,1374.04 
  "/>
<polyline clip-path="url(#clip230)" style="stroke:#000000; stroke-linecap:round; stroke-linejoin:round; stroke-width:4; stroke-opacity:1; fill:none" points="
  1157.22,1392.94 1157.22,1374.04 
  "/>
<polyline clip-path="url(#clip230)" style="stroke:#000000; stroke-linecap:round; stroke-linejoin:round; stroke-width:4; stroke-opacity:1; fill:none" points="
  1492.81,1392.94 1492.81,1374.04 
  "/>
<polyline clip-path="url(#clip230)" style="stroke:#000000; stroke-linecap:round; stroke-linejoin:round; stroke-width:4; stroke-opacity:1; fill:none" points="
  1828.39,1392.94 1828.39,1374.04 
  "/>
<polyline clip-path="url(#clip230)" style="stroke:#000000; stroke-linecap:round; stroke-linejoin:round; stroke-width:4; stroke-opacity:1; fill:none" points="
  2163.98,1392.94 2163.98,1374.04 
  "/>
<path clip-path="url(#clip230)" d="M417.14 1451.7 L461.654 1451.7 L461.654 1457.6 L417.14 1457.6 L417.14 1451.7 Z" fill="#000000" fill-rule="evenodd" fill-opacity="1" /><path clip-path="url(#clip230)" d="M478.008 1471.04 L489.466 1471.04 L489.466 1431.49 L477.001 1433.99 L477.001 1427.6 L489.397 1425.1 L496.411 1425.1 L496.411 1471.04 L507.869 1471.04 L507.869 1476.94 L478.008 1476.94 L478.008 1471.04 Z" fill="#000000" fill-rule="evenodd" fill-opacity="1" /><path clip-path="url(#clip230)" d="M537.036 1429.72 Q531.619 1429.72 528.876 1435.07 Q526.168 1440.38 526.168 1451.07 Q526.168 1461.73 528.876 1467.08 Q531.619 1472.39 537.036 1472.39 Q542.487 1472.39 545.195 1467.08 Q547.938 1461.73 547.938 1451.07 Q547.938 1440.38 545.195 1435.07 Q542.487 1429.72 537.036 1429.72 M537.036 1424.16 Q545.751 1424.16 550.334 1431.07 Q554.952 1437.95 554.952 1451.07 Q554.952 1464.16 550.334 1471.07 Q545.751 1477.95 537.036 1477.95 Q528.32 1477.95 523.702 1471.07 Q519.119 1464.16 519.119 1451.07 Q519.119 1437.95 523.702 1431.07 Q528.32 1424.16 537.036 1424.16 Z" fill="#000000" fill-rule="evenodd" fill-opacity="1" /><path clip-path="url(#clip230)" d="M776.095 1451.7 L820.609 1451.7 L820.609 1457.6 L776.095 1457.6 L776.095 1451.7 Z" fill="#000000" fill-rule="evenodd" fill-opacity="1" /><path clip-path="url(#clip230)" d="M835.817 1425.1 L863.352 1425.1 L863.352 1431 L842.241 1431 L842.241 1443.71 Q843.768 1443.19 845.296 1442.95 Q846.824 1442.67 848.352 1442.67 Q857.032 1442.67 862.102 1447.43 Q867.171 1452.18 867.171 1460.31 Q867.171 1468.68 861.963 1473.33 Q856.754 1477.95 847.275 1477.95 Q844.011 1477.95 840.609 1477.39 Q837.241 1476.84 833.63 1475.72 L833.63 1468.68 Q836.755 1470.38 840.088 1471.21 Q843.421 1472.04 847.136 1472.04 Q853.143 1472.04 856.65 1468.88 Q860.157 1465.72 860.157 1460.31 Q860.157 1454.89 856.65 1451.73 Q853.143 1448.57 847.136 1448.57 Q844.324 1448.57 841.511 1449.2 Q838.734 1449.82 835.817 1451.14 L835.817 1425.1 Z" fill="#000000" fill-rule="evenodd" fill-opacity="1" /><path clip-path="url(#clip230)" d="M1157.22 1429.72 Q1151.8 1429.72 1149.06 1435.07 Q1146.35 1440.38 1146.35 1451.07 Q1146.35 1461.73 1149.06 1467.08 Q1151.8 1472.39 1157.22 1472.39 Q1162.67 1472.39 1165.38 1467.08 Q1168.12 1461.73 1168.12 1451.07 Q1168.12 1440.38 1165.38 1435.07 Q1162.67 1429.72 1157.22 1429.72 M1157.22 1424.16 Q1165.94 1424.16 1170.52 1431.07 Q1175.14 1437.95 1175.14 1451.07 Q1175.14 1464.16 1170.52 1471.07 Q1165.94 1477.95 1157.22 1477.95 Q1148.5 1477.95 1143.89 1471.07 Q1139.3 1464.16 1139.3 1451.07 Q1139.3 1437.95 1143.89 1431.07 Q1148.5 1424.16 1157.22 1424.16 Z" fill="#000000" fill-rule="evenodd" fill-opacity="1" /><path clip-path="url(#clip230)" d="M1478.22 1425.1 L1505.76 1425.1 L1505.76 1431 L1484.65 1431 L1484.65 1443.71 Q1486.17 1443.19 1487.7 1442.95 Q1489.23 1442.67 1490.76 1442.67 Q1499.44 1442.67 1504.51 1447.43 Q1509.58 1452.18 1509.58 1460.31 Q1509.58 1468.68 1504.37 1473.33 Q1499.16 1477.95 1489.68 1477.95 Q1486.42 1477.95 1483.02 1477.39 Q1479.65 1476.84 1476.04 1475.72 L1476.04 1468.68 Q1479.16 1470.38 1482.49 1471.21 Q1485.83 1472.04 1489.54 1472.04 Q1495.55 1472.04 1499.06 1468.88 Q1502.56 1465.72 1502.56 1460.31 Q1502.56 1454.89 1499.06 1451.73 Q1495.55 1448.57 1489.54 1448.57 Q1486.73 1448.57 1483.92 1449.2 Q1481.14 1449.82 1478.22 1451.14 L1478.22 1425.1 Z" fill="#000000" fill-rule="evenodd" fill-opacity="1" /><path clip-path="url(#clip230)" d="M1790.43 1471.04 L1801.88 1471.04 L1801.88 1431.49 L1789.42 1433.99 L1789.42 1427.6 L1801.81 1425.1 L1808.83 1425.1 L1808.83 1471.04 L1820.29 1471.04 L1820.29 1476.94 L1790.43 1476.94 L1790.43 1471.04 Z" fill="#000000" fill-rule="evenodd" fill-opacity="1" /><path clip-path="url(#clip230)" d="M1849.45 1429.72 Q1844.04 1429.72 1841.29 1435.07 Q1838.58 1440.38 1838.58 1451.07 Q1838.58 1461.73 1841.29 1467.08 Q1844.04 1472.39 1849.45 1472.39 Q1854.9 1472.39 1857.61 1467.08 Q1860.36 1461.73 1860.36 1451.07 Q1860.36 1440.38 1857.61 1435.07 Q1854.9 1429.72 1849.45 1429.72 M1849.45 1424.16 Q1858.17 1424.16 1862.75 1431.07 Q1867.37 1437.95 1867.37 1451.07 Q1867.37 1464.16 1862.75 1471.07 Q1858.17 1477.95 1849.45 1477.95 Q1840.74 1477.95 1836.12 1471.07 Q1831.54 1464.16 1831.54 1451.07 Q1831.54 1437.95 1836.12 1431.07 Q1840.74 1424.16 1849.45 1424.16 Z" fill="#000000" fill-rule="evenodd" fill-opacity="1" /><path clip-path="url(#clip230)" d="M2126.76 1471.04 L2138.22 1471.04 L2138.22 1431.49 L2125.75 1433.99 L2125.75 1427.6 L2138.15 1425.1 L2145.16 1425.1 L2145.16 1471.04 L2156.62 1471.04 L2156.62 1476.94 L2126.76 1476.94 L2126.76 1471.04 Z" fill="#000000" fill-rule="evenodd" fill-opacity="1" /><path clip-path="url(#clip230)" d="M2170.86 1425.1 L2198.39 1425.1 L2198.39 1431 L2177.28 1431 L2177.28 1443.71 Q2178.81 1443.19 2180.33 1442.95 Q2181.86 1442.67 2183.39 1442.67 Q2192.07 1442.67 2197.14 1447.43 Q2202.21 1452.18 2202.21 1460.31 Q2202.21 1468.68 2197 1473.33 Q2191.79 1477.95 2182.31 1477.95 Q2179.05 1477.95 2175.65 1477.39 Q2172.28 1476.84 2168.67 1475.72 L2168.67 1468.68 Q2171.79 1470.38 2175.13 1471.21 Q2178.46 1472.04 2182.18 1472.04 Q2188.18 1472.04 2191.69 1468.88 Q2195.2 1465.72 2195.2 1460.31 Q2195.2 1454.89 2191.69 1451.73 Q2188.18 1448.57 2182.18 1448.57 Q2179.36 1448.57 2176.55 1449.2 Q2173.77 1449.82 2170.86 1451.14 L2170.86 1425.1 Z" fill="#000000" fill-rule="evenodd" fill-opacity="1" /><path clip-path="url(#clip230)" d="M886.783 1518.8 L937.946 1518.8 L937.946 1525.68 L916.477 1525.68 L916.477 1579.28 L908.253 1579.28 L908.253 1525.68 L886.783 1525.68 L886.783 1518.8 Z" fill="#000000" fill-rule="evenodd" fill-opacity="1" /><path clip-path="url(#clip230)" d="M983.235 1551.89 L983.235 1579.28 L975.782 1579.28 L975.782 1552.13 Q975.782 1545.69 973.27 1542.49 Q970.759 1539.29 965.736 1539.29 Q959.7 1539.29 956.216 1543.14 Q952.732 1546.99 952.732 1553.63 L952.732 1579.28 L945.238 1579.28 L945.238 1516.24 L952.732 1516.24 L952.732 1540.95 Q955.406 1536.86 959.011 1534.84 Q962.657 1532.81 967.396 1532.81 Q975.215 1532.81 979.225 1537.67 Q983.235 1542.49 983.235 1551.89 Z" fill="#000000" fill-rule="evenodd" fill-opacity="1" /><path clip-path="url(#clip230)" d="M1036.91 1554.73 L1036.91 1558.37 L1002.64 1558.37 Q1003.13 1566.07 1007.26 1570.12 Q1011.43 1574.13 1018.84 1574.13 Q1023.14 1574.13 1027.15 1573.08 Q1031.2 1572.02 1035.17 1569.92 L1035.17 1576.97 Q1031.16 1578.67 1026.94 1579.56 Q1022.73 1580.45 1018.4 1580.45 Q1007.54 1580.45 1001.18 1574.13 Q994.862 1567.81 994.862 1557.04 Q994.862 1545.9 1000.86 1539.37 Q1006.89 1532.81 1017.1 1532.81 Q1026.26 1532.81 1031.56 1538.73 Q1036.91 1544.6 1036.91 1554.73 M1029.46 1552.54 Q1029.38 1546.42 1026.01 1542.78 Q1022.69 1539.13 1017.18 1539.13 Q1010.94 1539.13 1007.18 1542.66 Q1003.45 1546.18 1002.88 1552.58 L1029.46 1552.54 Z" fill="#000000" fill-rule="evenodd" fill-opacity="1" /><path clip-path="url(#clip230)" d="M1066.72 1539.13 Q1060.73 1539.13 1057.25 1543.83 Q1053.76 1548.49 1053.76 1556.63 Q1053.76 1564.77 1057.2 1569.47 Q1060.69 1574.13 1066.72 1574.13 Q1072.68 1574.13 1076.16 1569.43 Q1079.65 1564.73 1079.65 1556.63 Q1079.65 1548.57 1076.16 1543.87 Q1072.68 1539.13 1066.72 1539.13 M1066.72 1532.81 Q1076.45 1532.81 1082 1539.13 Q1087.55 1545.45 1087.55 1556.63 Q1087.55 1567.77 1082 1574.13 Q1076.45 1580.45 1066.72 1580.45 Q1056.96 1580.45 1051.41 1574.13 Q1045.9 1567.77 1045.9 1556.63 Q1045.9 1545.45 1051.41 1539.13 Q1056.96 1532.81 1066.72 1532.81 Z" fill="#000000" fill-rule="evenodd" fill-opacity="1" /><path clip-path="url(#clip230)" d="M1126.19 1540.87 Q1124.94 1540.14 1123.44 1539.82 Q1121.98 1539.46 1120.2 1539.46 Q1113.88 1539.46 1110.47 1543.59 Q1107.11 1547.68 1107.11 1555.38 L1107.11 1579.28 L1099.62 1579.28 L1099.62 1533.91 L1107.11 1533.91 L1107.11 1540.95 Q1109.46 1536.82 1113.23 1534.84 Q1117 1532.81 1122.38 1532.81 Q1123.15 1532.81 1124.09 1532.93 Q1125.02 1533.01 1126.15 1533.22 L1126.19 1540.87 Z" fill="#000000" fill-rule="evenodd" fill-opacity="1" /><path clip-path="url(#clip230)" d="M1170.99 1554.73 L1170.99 1558.37 L1136.72 1558.37 Q1137.21 1566.07 1141.34 1570.12 Q1145.51 1574.13 1152.93 1574.13 Q1157.22 1574.13 1161.23 1573.08 Q1165.28 1572.02 1169.25 1569.92 L1169.25 1576.97 Q1165.24 1578.67 1161.03 1579.56 Q1156.82 1580.45 1152.48 1580.45 Q1141.63 1580.45 1135.27 1574.13 Q1128.95 1567.81 1128.95 1557.04 Q1128.95 1545.9 1134.94 1539.37 Q1140.98 1532.81 1151.19 1532.81 Q1160.34 1532.81 1165.65 1538.73 Q1170.99 1544.6 1170.99 1554.73 M1163.54 1552.54 Q1163.46 1546.42 1160.1 1542.78 Q1156.78 1539.13 1151.27 1539.13 Q1145.03 1539.13 1141.26 1542.66 Q1137.53 1546.18 1136.97 1552.58 L1163.54 1552.54 Z" fill="#000000" fill-rule="evenodd" fill-opacity="1" /><path clip-path="url(#clip230)" d="M1190.6 1521.02 L1190.6 1533.91 L1205.95 1533.91 L1205.95 1539.7 L1190.6 1539.7 L1190.6 1564.33 Q1190.6 1569.88 1192.1 1571.46 Q1193.64 1573.04 1198.3 1573.04 L1205.95 1573.04 L1205.95 1579.28 L1198.3 1579.28 Q1189.67 1579.28 1186.39 1576.08 Q1183.11 1572.83 1183.11 1564.33 L1183.11 1539.7 L1177.64 1539.7 L1177.64 1533.91 L1183.11 1533.91 L1183.11 1521.02 L1190.6 1521.02 Z" fill="#000000" fill-rule="evenodd" fill-opacity="1" /><path clip-path="url(#clip230)" d="M1215.76 1533.91 L1223.21 1533.91 L1223.21 1579.28 L1215.76 1579.28 L1215.76 1533.91 M1215.76 1516.24 L1223.21 1516.24 L1223.21 1525.68 L1215.76 1525.68 L1215.76 1516.24 Z" fill="#000000" fill-rule="evenodd" fill-opacity="1" /><path clip-path="url(#clip230)" d="M1271.46 1535.65 L1271.46 1542.62 Q1268.3 1540.87 1265.1 1540.02 Q1261.94 1539.13 1258.7 1539.13 Q1251.45 1539.13 1247.44 1543.75 Q1243.43 1548.33 1243.43 1556.63 Q1243.43 1564.94 1247.44 1569.55 Q1251.45 1574.13 1258.7 1574.13 Q1261.94 1574.13 1265.1 1573.28 Q1268.3 1572.39 1271.46 1570.65 L1271.46 1577.53 Q1268.34 1578.99 1264.98 1579.72 Q1261.65 1580.45 1257.89 1580.45 Q1247.64 1580.45 1241.6 1574.01 Q1235.57 1567.57 1235.57 1556.63 Q1235.57 1545.53 1241.64 1539.17 Q1247.76 1532.81 1258.37 1532.81 Q1261.82 1532.81 1265.1 1533.54 Q1268.38 1534.23 1271.46 1535.65 Z" fill="#000000" fill-rule="evenodd" fill-opacity="1" /><path clip-path="url(#clip230)" d="M1305.04 1556.47 Q1296.01 1556.47 1292.52 1558.54 Q1289.04 1560.6 1289.04 1565.58 Q1289.04 1569.55 1291.63 1571.9 Q1294.26 1574.21 1298.76 1574.21 Q1304.96 1574.21 1308.69 1569.84 Q1312.45 1565.42 1312.45 1558.13 L1312.45 1556.47 L1305.04 1556.47 M1319.91 1553.39 L1319.91 1579.28 L1312.45 1579.28 L1312.45 1572.39 Q1309.9 1576.52 1306.09 1578.51 Q1302.28 1580.45 1296.78 1580.45 Q1289.81 1580.45 1285.68 1576.56 Q1281.58 1572.63 1281.58 1566.07 Q1281.58 1558.41 1286.69 1554.52 Q1291.83 1550.64 1302 1550.64 L1312.45 1550.64 L1312.45 1549.91 Q1312.45 1544.76 1309.05 1541.97 Q1305.69 1539.13 1299.57 1539.13 Q1295.68 1539.13 1292 1540.06 Q1288.31 1540.99 1284.91 1542.86 L1284.91 1535.97 Q1289 1534.39 1292.85 1533.62 Q1296.69 1532.81 1300.34 1532.81 Q1310.18 1532.81 1315.05 1537.92 Q1319.91 1543.02 1319.91 1553.39 Z" fill="#000000" fill-rule="evenodd" fill-opacity="1" /><path clip-path="url(#clip230)" d="M1335.26 1516.24 L1342.71 1516.24 L1342.71 1579.28 L1335.26 1579.28 L1335.26 1516.24 Z" fill="#000000" fill-rule="evenodd" fill-opacity="1" /><path clip-path="url(#clip230)" d="M1409.55 1524.35 Q1400.64 1524.35 1395.37 1530.99 Q1390.15 1537.63 1390.15 1549.1 Q1390.15 1560.52 1395.37 1567.16 Q1400.64 1573.81 1409.55 1573.81 Q1418.46 1573.81 1423.65 1567.16 Q1428.88 1560.52 1428.88 1549.1 Q1428.88 1537.63 1423.65 1530.99 Q1418.46 1524.35 1409.55 1524.35 M1421.02 1578.18 L1431.79 1589.97 L1421.91 1589.97 L1412.96 1580.29 Q1411.62 1580.37 1410.89 1580.41 Q1410.2 1580.45 1409.55 1580.45 Q1396.79 1580.45 1389.14 1571.94 Q1381.52 1563.4 1381.52 1549.1 Q1381.52 1534.76 1389.14 1526.25 Q1396.79 1517.7 1409.55 1517.7 Q1422.27 1517.7 1429.89 1526.25 Q1437.5 1534.76 1437.5 1549.1 Q1437.5 1559.63 1433.25 1567.12 Q1429.04 1574.62 1421.02 1578.18 Z" fill="#000000" fill-rule="evenodd" fill-opacity="1" /><path clip-path="url(#clip230)" d="M1449.21 1561.37 L1449.21 1533.91 L1456.66 1533.91 L1456.66 1561.09 Q1456.66 1567.53 1459.18 1570.77 Q1461.69 1573.97 1466.71 1573.97 Q1472.75 1573.97 1476.23 1570.12 Q1479.75 1566.27 1479.75 1559.63 L1479.75 1533.91 L1487.21 1533.91 L1487.21 1579.28 L1479.75 1579.28 L1479.75 1572.31 Q1477.04 1576.44 1473.44 1578.47 Q1469.87 1580.45 1465.13 1580.45 Q1457.31 1580.45 1453.26 1575.59 Q1449.21 1570.73 1449.21 1561.37 M1467.97 1532.81 L1467.97 1532.81 Z" fill="#000000" fill-rule="evenodd" fill-opacity="1" /><path clip-path="url(#clip230)" d="M1523.18 1556.47 Q1514.15 1556.47 1510.66 1558.54 Q1507.18 1560.6 1507.18 1565.58 Q1507.18 1569.55 1509.77 1571.9 Q1512.41 1574.21 1516.9 1574.21 Q1523.1 1574.21 1526.83 1569.84 Q1530.59 1565.42 1530.59 1558.13 L1530.59 1556.47 L1523.18 1556.47 M1538.05 1553.39 L1538.05 1579.28 L1530.59 1579.28 L1530.59 1572.39 Q1528.04 1576.52 1524.23 1578.51 Q1520.43 1580.45 1514.92 1580.45 Q1507.95 1580.45 1503.82 1576.56 Q1499.73 1572.63 1499.73 1566.07 Q1499.73 1558.41 1504.83 1554.52 Q1509.97 1550.64 1520.14 1550.64 L1530.59 1550.64 L1530.59 1549.91 Q1530.59 1544.76 1527.19 1541.97 Q1523.83 1539.13 1517.71 1539.13 Q1513.82 1539.13 1510.14 1540.06 Q1506.45 1540.99 1503.05 1542.86 L1503.05 1535.97 Q1507.14 1534.39 1510.99 1533.62 Q1514.84 1532.81 1518.48 1532.81 Q1528.33 1532.81 1533.19 1537.92 Q1538.05 1543.02 1538.05 1553.39 Z" fill="#000000" fill-rule="evenodd" fill-opacity="1" /><path clip-path="url(#clip230)" d="M1591.11 1551.89 L1591.11 1579.28 L1583.66 1579.28 L1583.66 1552.13 Q1583.66 1545.69 1581.15 1542.49 Q1578.64 1539.29 1573.61 1539.29 Q1567.58 1539.29 1564.09 1543.14 Q1560.61 1546.99 1560.61 1553.63 L1560.61 1579.28 L1553.12 1579.28 L1553.12 1533.91 L1560.61 1533.91 L1560.61 1540.95 Q1563.28 1536.86 1566.89 1534.84 Q1570.54 1532.81 1575.28 1532.81 Q1583.09 1532.81 1587.1 1537.67 Q1591.11 1542.49 1591.11 1551.89 Z" fill="#000000" fill-rule="evenodd" fill-opacity="1" /><path clip-path="url(#clip230)" d="M1613.35 1521.02 L1613.35 1533.91 L1628.71 1533.91 L1628.71 1539.7 L1613.35 1539.7 L1613.35 1564.33 Q1613.35 1569.88 1614.85 1571.46 Q1616.39 1573.04 1621.05 1573.04 L1628.71 1573.04 L1628.71 1579.28 L1621.05 1579.28 Q1612.42 1579.28 1609.14 1576.08 Q1605.86 1572.83 1605.86 1564.33 L1605.86 1539.7 L1600.39 1539.7 L1600.39 1533.91 L1605.86 1533.91 L1605.86 1521.02 L1613.35 1521.02 Z" fill="#000000" fill-rule="evenodd" fill-opacity="1" /><path clip-path="url(#clip230)" d="M1638.51 1533.91 L1645.96 1533.91 L1645.96 1579.28 L1638.51 1579.28 L1638.51 1533.91 M1638.51 1516.24 L1645.96 1516.24 L1645.96 1525.68 L1638.51 1525.68 L1638.51 1516.24 Z" fill="#000000" fill-rule="evenodd" fill-opacity="1" /><path clip-path="url(#clip230)" d="M1661.56 1516.24 L1669.01 1516.24 L1669.01 1579.28 L1661.56 1579.28 L1661.56 1516.24 Z" fill="#000000" fill-rule="evenodd" fill-opacity="1" /><path clip-path="url(#clip230)" d="M1723.42 1554.73 L1723.42 1558.37 L1689.15 1558.37 Q1689.63 1566.07 1693.76 1570.12 Q1697.94 1574.13 1705.35 1574.13 Q1709.64 1574.13 1713.65 1573.08 Q1717.7 1572.02 1721.67 1569.92 L1721.67 1576.97 Q1717.66 1578.67 1713.45 1579.56 Q1709.24 1580.45 1704.9 1580.45 Q1694.05 1580.45 1687.69 1574.13 Q1681.37 1567.81 1681.37 1557.04 Q1681.37 1545.9 1687.36 1539.37 Q1693.4 1532.81 1703.61 1532.81 Q1712.76 1532.81 1718.07 1538.73 Q1723.42 1544.6 1723.42 1554.73 M1715.96 1552.54 Q1715.88 1546.42 1712.52 1542.78 Q1709.2 1539.13 1703.69 1539.13 Q1697.45 1539.13 1693.68 1542.66 Q1689.96 1546.18 1689.39 1552.58 L1715.96 1552.54 Z" fill="#000000" fill-rule="evenodd" fill-opacity="1" /><path clip-path="url(#clip230)" d="M1764.57 1535.24 L1764.57 1542.29 Q1761.41 1540.67 1758.01 1539.86 Q1754.61 1539.05 1750.96 1539.05 Q1745.41 1539.05 1742.62 1540.75 Q1739.86 1542.45 1739.86 1545.86 Q1739.86 1548.45 1741.85 1549.95 Q1743.83 1551.41 1749.83 1552.74 L1752.38 1553.31 Q1760.32 1555.01 1763.64 1558.13 Q1767 1561.21 1767 1566.76 Q1767 1573.08 1761.98 1576.76 Q1757 1580.45 1748.25 1580.45 Q1744.6 1580.45 1740.63 1579.72 Q1736.7 1579.03 1732.33 1577.61 L1732.33 1569.92 Q1736.46 1572.07 1740.47 1573.16 Q1744.48 1574.21 1748.41 1574.21 Q1753.68 1574.21 1756.51 1572.43 Q1759.35 1570.61 1759.35 1567.33 Q1759.35 1564.29 1757.28 1562.67 Q1755.26 1561.05 1748.33 1559.55 L1745.74 1558.94 Q1738.81 1557.48 1735.73 1554.48 Q1732.65 1551.45 1732.65 1546.18 Q1732.65 1539.78 1737.19 1536.3 Q1741.73 1532.81 1750.07 1532.81 Q1754.2 1532.81 1757.85 1533.42 Q1761.5 1534.03 1764.57 1535.24 Z" fill="#000000" fill-rule="evenodd" fill-opacity="1" /><polyline clip-path="url(#clip232)" style="stroke:#000000; stroke-linecap:round; stroke-linejoin:round; stroke-width:2; stroke-opacity:0.1; fill:none" points="
  301.032,1275.28 2352.76,1275.28 
  "/>
<polyline clip-path="url(#clip232)" style="stroke:#000000; stroke-linecap:round; stroke-linejoin:round; stroke-width:2; stroke-opacity:0.1; fill:none" points="
  301.032,1064.92 2352.76,1064.92 
  "/>
<polyline clip-path="url(#clip232)" style="stroke:#000000; stroke-linecap:round; stroke-linejoin:round; stroke-width:2; stroke-opacity:0.1; fill:none" points="
  301.032,854.563 2352.76,854.563 
  "/>
<polyline clip-path="url(#clip232)" style="stroke:#000000; stroke-linecap:round; stroke-linejoin:round; stroke-width:2; stroke-opacity:0.1; fill:none" points="
  301.032,644.204 2352.76,644.204 
  "/>
<polyline clip-path="url(#clip232)" style="stroke:#000000; stroke-linecap:round; stroke-linejoin:round; stroke-width:2; stroke-opacity:0.1; fill:none" points="
  301.032,433.846 2352.76,433.846 
  "/>
<polyline clip-path="url(#clip232)" style="stroke:#000000; stroke-linecap:round; stroke-linejoin:round; stroke-width:2; stroke-opacity:0.1; fill:none" points="
  301.032,223.488 2352.76,223.488 
  "/>
<polyline clip-path="url(#clip230)" style="stroke:#000000; stroke-linecap:round; stroke-linejoin:round; stroke-width:4; stroke-opacity:1; fill:none" points="
  301.032,1392.94 301.032,47.2441 
  "/>
<polyline clip-path="url(#clip230)" style="stroke:#000000; stroke-linecap:round; stroke-linejoin:round; stroke-width:4; stroke-opacity:1; fill:none" points="
  301.032,1275.28 319.93,1275.28 
  "/>
<polyline clip-path="url(#clip230)" style="stroke:#000000; stroke-linecap:round; stroke-linejoin:round; stroke-width:4; stroke-opacity:1; fill:none" points="
  301.032,1064.92 319.93,1064.92 
  "/>
<polyline clip-path="url(#clip230)" style="stroke:#000000; stroke-linecap:round; stroke-linejoin:round; stroke-width:4; stroke-opacity:1; fill:none" points="
  301.032,854.563 319.93,854.563 
  "/>
<polyline clip-path="url(#clip230)" style="stroke:#000000; stroke-linecap:round; stroke-linejoin:round; stroke-width:4; stroke-opacity:1; fill:none" points="
  301.032,644.204 319.93,644.204 
  "/>
<polyline clip-path="url(#clip230)" style="stroke:#000000; stroke-linecap:round; stroke-linejoin:round; stroke-width:4; stroke-opacity:1; fill:none" points="
  301.032,433.846 319.93,433.846 
  "/>
<polyline clip-path="url(#clip230)" style="stroke:#000000; stroke-linecap:round; stroke-linejoin:round; stroke-width:4; stroke-opacity:1; fill:none" points="
  301.032,223.488 319.93,223.488 
  "/>
<path clip-path="url(#clip230)" d="M127.22 1275.96 L171.734 1275.96 L171.734 1281.86 L127.22 1281.86 L127.22 1275.96 Z" fill="#000000" fill-rule="evenodd" fill-opacity="1" /><path clip-path="url(#clip230)" d="M188.088 1295.3 L199.546 1295.3 L199.546 1255.75 L187.081 1258.25 L187.081 1251.86 L199.477 1249.36 L206.491 1249.36 L206.491 1295.3 L217.949 1295.3 L217.949 1301.2 L188.088 1301.2 L188.088 1295.3 Z" fill="#000000" fill-rule="evenodd" fill-opacity="1" /><path clip-path="url(#clip230)" d="M247.115 1253.98 Q241.699 1253.98 238.956 1259.32 Q236.247 1264.64 236.247 1275.33 Q236.247 1285.99 238.956 1291.34 Q241.699 1296.65 247.115 1296.65 Q252.567 1296.65 255.275 1291.34 Q258.018 1285.99 258.018 1275.33 Q258.018 1264.64 255.275 1259.32 Q252.567 1253.98 247.115 1253.98 M247.115 1248.42 Q255.831 1248.42 260.414 1255.33 Q265.032 1262.21 265.032 1275.33 Q265.032 1288.42 260.414 1295.33 Q255.831 1302.21 247.115 1302.21 Q238.4 1302.21 233.782 1295.33 Q229.199 1288.42 229.199 1275.33 Q229.199 1262.21 233.782 1255.33 Q238.4 1248.42 247.115 1248.42 Z" fill="#000000" fill-rule="evenodd" fill-opacity="1" /><path clip-path="url(#clip230)" d="M173.956 1065.6 L218.47 1065.6 L218.47 1071.5 L173.956 1071.5 L173.956 1065.6 Z" fill="#000000" fill-rule="evenodd" fill-opacity="1" /><path clip-path="url(#clip230)" d="M233.678 1039 L261.212 1039 L261.212 1044.9 L240.101 1044.9 L240.101 1057.61 Q241.629 1057.09 243.157 1056.85 Q244.685 1056.57 246.213 1056.57 Q254.893 1056.57 259.963 1061.33 Q265.032 1066.08 265.032 1074.21 Q265.032 1082.58 259.824 1087.23 Q254.615 1091.85 245.136 1091.85 Q241.872 1091.85 238.47 1091.29 Q235.102 1090.74 231.49 1089.63 L231.49 1082.58 Q234.615 1084.28 237.949 1085.11 Q241.282 1085.95 244.997 1085.95 Q251.004 1085.95 254.511 1082.79 Q258.018 1079.63 258.018 1074.21 Q258.018 1068.79 254.511 1065.63 Q251.004 1062.47 244.997 1062.47 Q242.185 1062.47 239.372 1063.1 Q236.595 1063.72 233.678 1065.04 L233.678 1039 Z" fill="#000000" fill-rule="evenodd" fill-opacity="1" /><path clip-path="url(#clip230)" d="M247.115 833.261 Q241.699 833.261 238.956 838.608 Q236.247 843.92 236.247 854.615 Q236.247 865.274 238.956 870.622 Q241.699 875.934 247.115 875.934 Q252.567 875.934 255.275 870.622 Q258.018 865.274 258.018 854.615 Q258.018 843.92 255.275 838.608 Q252.567 833.261 247.115 833.261 M247.115 827.705 Q255.831 827.705 260.414 834.615 Q265.032 841.49 265.032 854.615 Q265.032 867.705 260.414 874.615 Q255.831 881.49 247.115 881.49 Q238.4 881.49 233.782 874.615 Q229.199 867.705 229.199 854.615 Q229.199 841.49 233.782 834.615 Q238.4 827.705 247.115 827.705 Z" fill="#000000" fill-rule="evenodd" fill-opacity="1" /><path clip-path="url(#clip230)" d="M233.678 618.284 L261.212 618.284 L261.212 624.187 L240.101 624.187 L240.101 636.895 Q241.629 636.375 243.157 636.132 Q244.685 635.854 246.213 635.854 Q254.893 635.854 259.963 640.611 Q265.032 645.368 265.032 653.493 Q265.032 661.861 259.824 666.513 Q254.615 671.131 245.136 671.131 Q241.872 671.131 238.47 670.576 Q235.102 670.02 231.49 668.909 L231.49 661.861 Q234.615 663.562 237.949 664.395 Q241.282 665.229 244.997 665.229 Q251.004 665.229 254.511 662.069 Q258.018 658.909 258.018 653.493 Q258.018 648.076 254.511 644.916 Q251.004 641.757 244.997 641.757 Q242.185 641.757 239.372 642.382 Q236.595 643.007 233.678 644.326 L233.678 618.284 Z" fill="#000000" fill-rule="evenodd" fill-opacity="1" /><path clip-path="url(#clip230)" d="M188.088 453.863 L199.546 453.863 L199.546 414.315 L187.081 416.815 L187.081 410.426 L199.477 407.926 L206.491 407.926 L206.491 453.863 L217.949 453.863 L217.949 459.766 L188.088 459.766 L188.088 453.863 Z" fill="#000000" fill-rule="evenodd" fill-opacity="1" /><path clip-path="url(#clip230)" d="M247.115 412.544 Q241.699 412.544 238.956 417.891 Q236.247 423.204 236.247 433.898 Q236.247 444.558 238.956 449.905 Q241.699 455.218 247.115 455.218 Q252.567 455.218 255.275 449.905 Q258.018 444.558 258.018 433.898 Q258.018 423.204 255.275 417.891 Q252.567 412.544 247.115 412.544 M247.115 406.989 Q255.831 406.989 260.414 413.898 Q265.032 420.773 265.032 433.898 Q265.032 446.988 260.414 453.898 Q255.831 460.773 247.115 460.773 Q238.4 460.773 233.782 453.898 Q229.199 446.988 229.199 433.898 Q229.199 420.773 233.782 413.898 Q238.4 406.989 247.115 406.989 Z" fill="#000000" fill-rule="evenodd" fill-opacity="1" /><path clip-path="url(#clip230)" d="M189.581 243.505 L201.039 243.505 L201.039 203.957 L188.574 206.457 L188.574 200.068 L200.97 197.568 L207.984 197.568 L207.984 243.505 L219.442 243.505 L219.442 249.408 L189.581 249.408 L189.581 243.505 Z" fill="#000000" fill-rule="evenodd" fill-opacity="1" /><path clip-path="url(#clip230)" d="M233.678 197.568 L261.212 197.568 L261.212 203.471 L240.101 203.471 L240.101 216.179 Q241.629 215.658 243.157 215.415 Q244.685 215.137 246.213 215.137 Q254.893 215.137 259.963 219.894 Q265.032 224.651 265.032 232.776 Q265.032 241.144 259.824 245.797 Q254.615 250.415 245.136 250.415 Q241.872 250.415 238.47 249.859 Q235.102 249.304 231.49 248.193 L231.49 241.144 Q234.615 242.845 237.949 243.679 Q241.282 244.512 244.997 244.512 Q251.004 244.512 254.511 241.352 Q258.018 238.193 258.018 232.776 Q258.018 227.359 254.511 224.2 Q251.004 221.04 244.997 221.04 Q242.185 221.04 239.372 221.665 Q236.595 222.29 233.678 223.609 L233.678 197.568 Z" fill="#000000" fill-rule="evenodd" fill-opacity="1" /><path clip-path="url(#clip230)" d="M12.5962 1117.08 L12.5962 1078.84 L19.4827 1078.84 L19.4827 1108.9 L37.3877 1108.9 L37.3877 1080.1 L44.2742 1080.1 L44.2742 1108.9 L66.1896 1108.9 L66.1896 1078.11 L73.0762 1078.11 L73.0762 1117.08 L12.5962 1117.08 Z" fill="#000000" fill-rule="evenodd" fill-opacity="1" /><path clip-path="url(#clip230)" d="M36.4155 1029.66 Q31.3924 1026.87 29.0023 1022.98 Q26.6123 1019.09 26.6123 1013.82 Q26.6123 1006.73 31.5949 1002.89 Q36.537 999.037 45.692 999.037 L73.0762 999.037 L73.0762 1006.53 L45.9351 1006.53 Q39.4131 1006.53 36.2534 1008.84 Q33.0937 1011.15 33.0937 1015.89 Q33.0937 1021.68 36.9421 1025.04 Q40.7905 1028.41 47.4339 1028.41 L73.0762 1028.41 L73.0762 1035.9 L45.9351 1035.9 Q39.3726 1035.9 36.2534 1038.21 Q33.0937 1040.52 33.0937 1045.34 Q33.0937 1051.05 36.9826 1054.41 Q40.831 1057.78 47.4339 1057.78 L73.0762 1057.78 L73.0762 1065.27 L27.706 1065.27 L27.706 1057.78 L34.7546 1057.78 Q30.5822 1055.22 28.5972 1051.66 Q26.6123 1048.09 26.6123 1043.19 Q26.6123 1038.25 29.1238 1034.81 Q31.6354 1031.32 36.4155 1029.66 Z" fill="#000000" fill-rule="evenodd" fill-opacity="1" /><path clip-path="url(#clip230)" d="M66.2706 976.96 L90.333 976.96 L90.333 984.454 L27.706 984.454 L27.706 976.96 L34.5926 976.96 Q30.5417 974.61 28.5972 971.045 Q26.6123 967.44 26.6123 962.458 Q26.6123 954.194 33.1748 949.049 Q39.7372 943.864 50.4316 943.864 Q61.126 943.864 67.6885 949.049 Q74.2509 954.194 74.2509 962.458 Q74.2509 967.44 72.3065 971.045 Q70.3215 974.61 66.2706 976.96 M50.4316 951.601 Q42.2083 951.601 37.5497 955.004 Q32.8507 958.366 32.8507 964.28 Q32.8507 970.195 37.5497 973.598 Q42.2083 976.96 50.4316 976.96 Q58.6549 976.96 63.354 973.598 Q68.0125 970.195 68.0125 964.28 Q68.0125 958.366 63.354 955.004 Q58.6549 951.601 50.4316 951.601 Z" fill="#000000" fill-rule="evenodd" fill-opacity="1" /><path clip-path="url(#clip230)" d="M27.706 931.509 L27.706 924.055 L73.0762 924.055 L73.0762 931.509 L27.706 931.509 M10.0441 931.509 L10.0441 924.055 L19.4827 924.055 L19.4827 931.509 L10.0441 931.509 Z" fill="#000000" fill-rule="evenodd" fill-opacity="1" /><path clip-path="url(#clip230)" d="M34.6736 882.169 Q33.9444 883.424 33.6204 884.923 Q33.2558 886.382 33.2558 888.164 Q33.2558 894.483 37.3877 897.886 Q41.4791 901.248 49.1758 901.248 L73.0762 901.248 L73.0762 908.743 L27.706 908.743 L27.706 901.248 L34.7546 901.248 Q30.6227 898.899 28.6377 895.132 Q26.6123 891.364 26.6123 885.976 Q26.6123 885.207 26.7338 884.275 Q26.8148 883.343 27.0174 882.209 L34.6736 882.169 Z" fill="#000000" fill-rule="evenodd" fill-opacity="1" /><path clip-path="url(#clip230)" d="M27.706 874.35 L27.706 866.897 L73.0762 866.897 L73.0762 874.35 L27.706 874.35 M10.0441 874.35 L10.0441 866.897 L19.4827 866.897 L19.4827 874.35 L10.0441 874.35 Z" fill="#000000" fill-rule="evenodd" fill-opacity="1" /><path clip-path="url(#clip230)" d="M29.4479 818.65 L36.4155 818.65 Q34.6736 821.81 33.8229 825.01 Q32.9317 828.17 32.9317 831.411 Q32.9317 838.662 37.5497 842.672 Q42.1272 846.683 50.4316 846.683 Q58.736 846.683 63.354 842.672 Q67.9315 838.662 67.9315 831.411 Q67.9315 828.17 67.0808 825.01 Q66.1896 821.81 64.4477 818.65 L71.3343 818.65 Q72.7926 821.77 73.5218 825.132 Q74.2509 828.454 74.2509 832.221 Q74.2509 842.47 67.81 848.506 Q61.369 854.541 50.4316 854.541 Q39.3321 854.541 32.9722 848.465 Q26.6123 842.348 26.6123 831.735 Q26.6123 828.292 27.3414 825.01 Q28.0301 821.729 29.4479 818.65 Z" fill="#000000" fill-rule="evenodd" fill-opacity="1" /><path clip-path="url(#clip230)" d="M50.2696 785.068 Q50.2696 794.102 52.3355 797.586 Q54.4015 801.07 59.3841 801.07 Q63.354 801.07 65.7035 798.477 Q68.0125 795.844 68.0125 791.347 Q68.0125 785.149 63.6376 781.423 Q59.2221 777.655 51.9304 777.655 L50.2696 777.655 L50.2696 785.068 M47.1909 770.202 L73.0762 770.202 L73.0762 777.655 L66.1896 777.655 Q70.3215 780.207 72.3065 784.015 Q74.2509 787.823 74.2509 793.332 Q74.2509 800.3 70.3621 804.432 Q66.4327 808.523 59.8702 808.523 Q52.214 808.523 48.3251 803.419 Q44.4363 798.274 44.4363 788.107 L44.4363 777.655 L43.7071 777.655 Q38.5625 777.655 35.7673 781.058 Q32.9317 784.42 32.9317 790.537 Q32.9317 794.426 33.8634 798.112 Q34.7951 801.799 36.6585 805.201 L29.772 805.201 Q28.1921 801.11 27.4225 797.262 Q26.6123 793.413 26.6123 789.768 Q26.6123 779.924 31.7164 775.063 Q36.8206 770.202 47.1909 770.202 Z" fill="#000000" fill-rule="evenodd" fill-opacity="1" /><path clip-path="url(#clip230)" d="M10.0441 754.849 L10.0441 747.395 L73.0762 747.395 L73.0762 754.849 L10.0441 754.849 Z" fill="#000000" fill-rule="evenodd" fill-opacity="1" /><path clip-path="url(#clip230)" d="M18.1459 680.555 Q18.1459 689.467 24.7894 694.733 Q31.4329 699.959 42.8969 699.959 Q54.3205 699.959 60.964 694.733 Q67.6074 689.467 67.6074 680.555 Q67.6074 671.643 60.964 666.458 Q54.3205 661.232 42.8969 661.232 Q31.4329 661.232 24.7894 666.458 Q18.1459 671.643 18.1459 680.555 M71.9824 669.091 L83.7705 658.316 L83.7705 668.2 L74.0889 677.152 Q74.1699 678.489 74.2104 679.218 Q74.2509 679.907 74.2509 680.555 Q74.2509 693.315 65.744 700.972 Q57.1966 708.587 42.8969 708.587 Q28.5567 708.587 20.0498 700.972 Q11.5024 693.315 11.5024 680.555 Q11.5024 667.835 20.0498 660.22 Q28.5567 652.604 42.8969 652.604 Q53.4293 652.604 60.9234 656.857 Q68.4176 661.07 71.9824 669.091 Z" fill="#000000" fill-rule="evenodd" fill-opacity="1" /><path clip-path="url(#clip230)" d="M55.1712 640.897 L27.706 640.897 L27.706 633.443 L54.8876 633.443 Q61.3285 633.443 64.5693 630.932 Q67.7695 628.42 67.7695 623.397 Q67.7695 617.361 63.9211 613.877 Q60.0728 610.353 53.4293 610.353 L27.706 610.353 L27.706 602.899 L73.0762 602.899 L73.0762 610.353 L66.1086 610.353 Q70.2405 613.067 72.266 616.672 Q74.2509 620.237 74.2509 624.977 Q74.2509 632.795 69.3898 636.846 Q64.5287 640.897 55.1712 640.897 M26.6123 622.141 L26.6123 622.141 Z" fill="#000000" fill-rule="evenodd" fill-opacity="1" /><path clip-path="url(#clip230)" d="M50.2696 566.927 Q50.2696 575.961 52.3355 579.445 Q54.4015 582.928 59.3841 582.928 Q63.354 582.928 65.7035 580.336 Q68.0125 577.703 68.0125 573.206 Q68.0125 567.008 63.6376 563.281 Q59.2221 559.514 51.9304 559.514 L50.2696 559.514 L50.2696 566.927 M47.1909 552.06 L73.0762 552.06 L73.0762 559.514 L66.1896 559.514 Q70.3215 562.066 72.3065 565.874 Q74.2509 569.682 74.2509 575.191 Q74.2509 582.159 70.3621 586.291 Q66.4327 590.382 59.8702 590.382 Q52.214 590.382 48.3251 585.278 Q44.4363 580.133 44.4363 569.965 L44.4363 559.514 L43.7071 559.514 Q38.5625 559.514 35.7673 562.917 Q32.9317 566.279 32.9317 572.396 Q32.9317 576.285 33.8634 579.971 Q34.7951 583.658 36.6585 587.06 L29.772 587.06 Q28.1921 582.969 27.4225 579.121 Q26.6123 575.272 26.6123 571.626 Q26.6123 561.783 31.7164 556.922 Q36.8206 552.06 47.1909 552.06 Z" fill="#000000" fill-rule="evenodd" fill-opacity="1" /><path clip-path="url(#clip230)" d="M45.692 498.994 L73.0762 498.994 L73.0762 506.447 L45.9351 506.447 Q39.4942 506.447 36.2939 508.959 Q33.0937 511.47 33.0937 516.494 Q33.0937 522.529 36.9421 526.013 Q40.7905 529.497 47.4339 529.497 L73.0762 529.497 L73.0762 536.991 L27.706 536.991 L27.706 529.497 L34.7546 529.497 Q30.6632 526.823 28.6377 523.218 Q26.6123 519.572 26.6123 514.833 Q26.6123 507.014 31.4734 503.004 Q36.2939 498.994 45.692 498.994 Z" fill="#000000" fill-rule="evenodd" fill-opacity="1" /><path clip-path="url(#clip230)" d="M14.8242 476.754 L27.706 476.754 L27.706 461.401 L33.4988 461.401 L33.4988 476.754 L58.1283 476.754 Q63.6781 476.754 65.2579 475.255 Q66.8378 473.716 66.8378 469.057 L66.8378 461.401 L73.0762 461.401 L73.0762 469.057 Q73.0762 477.686 69.8759 480.967 Q66.6352 484.248 58.1283 484.248 L33.4988 484.248 L33.4988 489.717 L27.706 489.717 L27.706 484.248 L14.8242 484.248 L14.8242 476.754 Z" fill="#000000" fill-rule="evenodd" fill-opacity="1" /><path clip-path="url(#clip230)" d="M27.706 451.598 L27.706 444.144 L73.0762 444.144 L73.0762 451.598 L27.706 451.598 M10.0441 451.598 L10.0441 444.144 L19.4827 444.144 L19.4827 451.598 L10.0441 451.598 Z" fill="#000000" fill-rule="evenodd" fill-opacity="1" /><path clip-path="url(#clip230)" d="M10.0441 428.548 L10.0441 421.095 L73.0762 421.095 L73.0762 428.548 L10.0441 428.548 Z" fill="#000000" fill-rule="evenodd" fill-opacity="1" /><path clip-path="url(#clip230)" d="M48.5277 366.691 L52.1735 366.691 L52.1735 400.962 Q59.8702 400.476 63.9211 396.344 Q67.9315 392.171 67.9315 384.758 Q67.9315 380.464 66.8783 376.454 Q65.825 372.403 63.7186 368.433 L70.7671 368.433 Q72.4685 372.443 73.3597 376.656 Q74.2509 380.869 74.2509 385.204 Q74.2509 396.06 67.9315 402.42 Q61.6121 408.739 50.8367 408.739 Q39.6967 408.739 33.1748 402.744 Q26.6123 396.708 26.6123 386.5 Q26.6123 377.345 32.5266 372.038 Q38.4004 366.691 48.5277 366.691 M46.3402 374.145 Q40.2233 374.226 36.5775 377.588 Q32.9317 380.91 32.9317 386.419 Q32.9317 392.657 36.456 396.425 Q39.9803 400.152 46.3807 400.719 L46.3402 374.145 Z" fill="#000000" fill-rule="evenodd" fill-opacity="1" /><path clip-path="url(#clip230)" d="M29.0428 325.534 L36.0914 325.534 Q34.471 328.694 33.6609 332.096 Q32.8507 335.499 32.8507 339.145 Q32.8507 344.695 34.5521 347.49 Q36.2534 350.244 39.6562 350.244 Q42.2488 350.244 43.7476 348.259 Q45.2059 346.275 46.5427 340.279 L47.1099 337.727 Q48.8112 329.787 51.9304 326.466 Q55.0091 323.103 60.5589 323.103 Q66.8783 323.103 70.5646 328.126 Q74.2509 333.109 74.2509 341.859 Q74.2509 345.505 73.5218 349.475 Q72.8331 353.404 71.4153 357.779 L63.7186 357.779 Q65.8655 353.647 66.9593 349.637 Q68.0125 345.626 68.0125 341.697 Q68.0125 336.431 66.2301 333.595 Q64.4072 330.76 61.126 330.76 Q58.0878 330.76 56.4675 332.826 Q54.8471 334.851 53.3483 341.778 L52.7406 344.371 Q51.2823 351.298 48.2846 354.376 Q45.2464 357.455 39.9803 357.455 Q33.5798 357.455 30.0961 352.918 Q26.6123 348.381 26.6123 340.036 Q26.6123 335.904 27.2199 332.258 Q27.8276 328.613 29.0428 325.534 Z" fill="#000000" fill-rule="evenodd" fill-opacity="1" /><polyline clip-path="url(#clip232)" style="stroke:#6b9e32; stroke-linecap:round; stroke-linejoin:round; stroke-width:4; stroke-opacity:1; fill:none" points="
  359.1,1354.85 2294.69,141.556 
  "/>
<circle clip-path="url(#clip232)" cx="359.1" cy="1034.99" r="18" fill="#009af9" fill-rule="evenodd" fill-opacity="1" stroke="#000000" stroke-opacity="1" stroke-width="3.2"/>
<circle clip-path="url(#clip232)" cx="578.806" cy="961.871" r="18" fill="#009af9" fill-rule="evenodd" fill-opacity="1" stroke="#000000" stroke-opacity="1" stroke-width="3.2"/>
<circle clip-path="url(#clip232)" cx="727.556" cy="909.779" r="18" fill="#009af9" fill-rule="evenodd" fill-opacity="1" stroke="#000000" stroke-opacity="1" stroke-width="3.2"/>
<circle clip-path="url(#clip232)" cx="846.182" cy="895.468" r="18" fill="#009af9" fill-rule="evenodd" fill-opacity="1" stroke="#000000" stroke-opacity="1" stroke-width="3.2"/>
<circle clip-path="url(#clip232)" cx="948.321" cy="887.927" r="18" fill="#009af9" fill-rule="evenodd" fill-opacity="1" stroke="#000000" stroke-opacity="1" stroke-width="3.2"/>
<circle clip-path="url(#clip232)" cx="1040.41" cy="867.622" r="18" fill="#009af9" fill-rule="evenodd" fill-opacity="1" stroke="#000000" stroke-opacity="1" stroke-width="3.2"/>
<circle clip-path="url(#clip232)" cx="1126.13" cy="867.377" r="18" fill="#009af9" fill-rule="evenodd" fill-opacity="1" stroke="#000000" stroke-opacity="1" stroke-width="3.2"/>
<circle clip-path="url(#clip232)" cx="1207.88" cy="840.202" r="18" fill="#009af9" fill-rule="evenodd" fill-opacity="1" stroke="#000000" stroke-opacity="1" stroke-width="3.2"/>
<circle clip-path="url(#clip232)" cx="1287.45" cy="835.389" r="18" fill="#009af9" fill-rule="evenodd" fill-opacity="1" stroke="#000000" stroke-opacity="1" stroke-width="3.2"/>
<circle clip-path="url(#clip232)" cx="1366.33" cy="819.039" r="18" fill="#009af9" fill-rule="evenodd" fill-opacity="1" stroke="#000000" stroke-opacity="1" stroke-width="3.2"/>
<circle clip-path="url(#clip232)" cx="1445.91" cy="803.758" r="18" fill="#009af9" fill-rule="evenodd" fill-opacity="1" stroke="#000000" stroke-opacity="1" stroke-width="3.2"/>
<circle clip-path="url(#clip232)" cx="1527.66" cy="800.662" r="18" fill="#009af9" fill-rule="evenodd" fill-opacity="1" stroke="#000000" stroke-opacity="1" stroke-width="3.2"/>
<circle clip-path="url(#clip232)" cx="1613.38" cy="797.852" r="18" fill="#009af9" fill-rule="evenodd" fill-opacity="1" stroke="#000000" stroke-opacity="1" stroke-width="3.2"/>
<circle clip-path="url(#clip232)" cx="1705.47" cy="795.517" r="18" fill="#009af9" fill-rule="evenodd" fill-opacity="1" stroke="#000000" stroke-opacity="1" stroke-width="3.2"/>
<circle clip-path="url(#clip232)" cx="1807.61" cy="780.759" r="18" fill="#009af9" fill-rule="evenodd" fill-opacity="1" stroke="#000000" stroke-opacity="1" stroke-width="3.2"/>
<circle clip-path="url(#clip232)" cx="1926.23" cy="778.249" r="18" fill="#009af9" fill-rule="evenodd" fill-opacity="1" stroke="#000000" stroke-opacity="1" stroke-width="3.2"/>
<circle clip-path="url(#clip232)" cx="2074.98" cy="692.99" r="18" fill="#009af9" fill-rule="evenodd" fill-opacity="1" stroke="#000000" stroke-opacity="1" stroke-width="3.2"/>
<circle clip-path="url(#clip232)" cx="2294.69" cy="85.3298" r="18" fill="#009af9" fill-rule="evenodd" fill-opacity="1" stroke="#000000" stroke-opacity="1" stroke-width="3.2"/>
</svg>
