<?xml version="1.0" encoding="utf-8"?>
<svg xmlns="http://www.w3.org/2000/svg" xmlns:xlink="http://www.w3.org/1999/xlink" width="600" height="400" viewBox="0 0 2400 1600">
<defs>
  <clipPath id="clip150">
    <rect x="0" y="0" width="2400" height="1600"/>
  </clipPath>
</defs>
<path clip-path="url(#clip150)" d="
M0 1600 L2400 1600 L2400 0 L0 0  Z
  " fill="#ffffff" fill-rule="evenodd" fill-opacity="1"/>
<defs>
  <clipPath id="clip151">
    <rect x="480" y="0" width="1681" height="1600"/>
  </clipPath>
</defs>
<path clip-path="url(#clip150)" d="
M256.518 1392.94 L2352.76 1392.94 L2352.76 47.2441 L256.518 47.2441  Z
  " fill="#ffffff" fill-rule="evenodd" fill-opacity="1"/>
<defs>
  <clipPath id="clip152">
    <rect x="256" y="47" width="2097" height="1347"/>
  </clipPath>
</defs>
<polyline clip-path="url(#clip152)" style="stroke:#000000; stroke-linecap:round; stroke-linejoin:round; stroke-width:2; stroke-opacity:0.1; fill:none" points="
  338.988,1392.94 338.988,47.2441 
  "/>
<polyline clip-path="url(#clip152)" style="stroke:#000000; stroke-linecap:round; stroke-linejoin:round; stroke-width:2; stroke-opacity:0.1; fill:none" points="
  654.336,1392.94 654.336,47.2441 
  "/>
<polyline clip-path="url(#clip152)" style="stroke:#000000; stroke-linecap:round; stroke-linejoin:round; stroke-width:2; stroke-opacity:0.1; fill:none" points="
  969.684,1392.94 969.684,47.2441 
  "/>
<polyline clip-path="url(#clip152)" style="stroke:#000000; stroke-linecap:round; stroke-linejoin:round; stroke-width:2; stroke-opacity:0.1; fill:none" points="
  1285.03,1392.94 1285.03,47.2441 
  "/>
<polyline clip-path="url(#clip152)" style="stroke:#000000; stroke-linecap:round; stroke-linejoin:round; stroke-width:2; stroke-opacity:0.1; fill:none" points="
  1600.38,1392.94 1600.38,47.2441 
  "/>
<polyline clip-path="url(#clip152)" style="stroke:#000000; stroke-linecap:round; stroke-linejoin:round; stroke-width:2; stroke-opacity:0.1; fill:none" points="
  1915.73,1392.94 1915.73,47.2441 
  "/>
<polyline clip-path="url(#clip152)" style="stroke:#000000; stroke-linecap:round; stroke-linejoin:round; stroke-width:2; stroke-opacity:0.1; fill:none" points="
  2231.08,1392.94 2231.08,47.2441 
  "/>
<polyline clip-path="url(#clip150)" style="stroke:#000000; stroke-linecap:round; stroke-linejoin:round; stroke-width:4; stroke-opacity:1; fill:none" points="
  256.518,1392.94 2352.76,1392.94 
  "/>
<polyline clip-path="url(#clip150)" style="stroke:#000000; stroke-linecap:round; stroke-linejoin:round; stroke-width:4; stroke-opacity:1; fill:none" points="
  338.988,1392.94 338.988,1374.04 
  "/>
<polyline clip-path="url(#clip150)" style="stroke:#000000; stroke-linecap:round; stroke-linejoin:round; stroke-width:4; stroke-opacity:1; fill:none" points="
  654.336,1392.94 654.336,1374.04 
  "/>
<polyline clip-path="url(#clip150)" style="stroke:#000000; stroke-linecap:round; stroke-linejoin:round; stroke-width:4; stroke-opacity:1; fill:none" points="
  969.684,1392.94 969.684,1374.04 
  "/>
<polyline clip-path="url(#clip150)" style="stroke:#000000; stroke-linecap:round; stroke-linejoin:round; stroke-width:4; stroke-opacity:1; fill:none" points="
  1285.03,1392.94 1285.03,1374.04 
  "/>
<polyline clip-path="url(#clip150)" style="stroke:#000000; stroke-linecap:round; stroke-linejoin:round; stroke-width:4; stroke-opacity:1; fill:none" points="
  1600.38,1392.94 1600.38,1374.04 
  "/>
<polyline clip-path="url(#clip150)" style="stroke:#000000; stroke-linecap:round; stroke-linejoin:round; stroke-width:4; stroke-opacity:1; fill:none" points="
  1915.73,1392.94 1915.73,1374.04 
  "/>
<polyline clip-path="url(#clip150)" style="stroke:#000000; stroke-linecap:round; stroke-linejoin:round; stroke-width:4; stroke-opacity:1; fill:none" points="
  2231.08,1392.94 2231.08,1374.04 
  "/>
<path clip-path="url(#clip150)" d="M292.339 1451.7 L336.852 1451.7 L336.852 1457.6 L292.339 1457.6 L292.339 1451.7 Z" fill="#000000" fill-rule="evenodd" fill-opacity="1" /><path clip-path="url(#clip150)" d="M371.262 1431.21 L353.554 1458.88 L371.262 1458.88 L371.262 1431.21 M369.422 1425.1 L378.241 1425.1 L378.241 1458.88 L385.637 1458.88 L385.637 1464.72 L378.241 1464.72 L378.241 1476.94 L371.262 1476.94 L371.262 1464.72 L347.859 1464.72 L347.859 1457.95 L369.422 1425.1 Z" fill="#000000" fill-rule="evenodd" fill-opacity="1" /><path clip-path="url(#clip150)" d="M608.538 1451.7 L653.051 1451.7 L653.051 1457.6 L608.538 1457.6 L608.538 1451.7 Z" fill="#000000" fill-rule="evenodd" fill-opacity="1" /><path clip-path="url(#clip150)" d="M689.44 1448.99 Q694.475 1450.06 697.287 1453.47 Q700.134 1456.87 700.134 1461.87 Q700.134 1469.54 694.857 1473.75 Q689.579 1477.95 679.857 1477.95 Q676.593 1477.95 673.121 1477.29 Q669.683 1476.66 666.003 1475.38 L666.003 1468.61 Q668.919 1470.31 672.392 1471.18 Q675.864 1472.04 679.648 1472.04 Q686.246 1472.04 689.683 1469.44 Q693.155 1466.84 693.155 1461.87 Q693.155 1457.29 689.926 1454.72 Q686.732 1452.11 681.003 1452.11 L674.961 1452.11 L674.961 1446.35 L681.28 1446.35 Q686.454 1446.35 689.197 1444.3 Q691.94 1442.22 691.94 1438.33 Q691.94 1434.34 689.093 1432.22 Q686.28 1430.07 681.003 1430.07 Q678.121 1430.07 674.822 1430.69 Q671.524 1431.32 667.565 1432.63 L667.565 1426.38 Q671.558 1425.27 675.03 1424.72 Q678.537 1424.16 681.628 1424.16 Q689.614 1424.16 694.266 1427.81 Q698.919 1431.42 698.919 1437.6 Q698.919 1441.91 696.454 1444.89 Q693.989 1447.84 689.44 1448.99 Z" fill="#000000" fill-rule="evenodd" fill-opacity="1" /><path clip-path="url(#clip150)" d="M924.598 1451.7 L969.112 1451.7 L969.112 1457.6 L924.598 1457.6 L924.598 1451.7 Z" fill="#000000" fill-rule="evenodd" fill-opacity="1" /><path clip-path="url(#clip150)" d="M990.292 1471.04 L1014.77 1471.04 L1014.77 1476.94 L981.855 1476.94 L981.855 1471.04 Q985.848 1466.91 992.723 1459.96 Q999.632 1452.98 1001.4 1450.97 Q1004.77 1447.18 1006.09 1444.58 Q1007.44 1441.94 1007.44 1439.41 Q1007.44 1435.27 1004.53 1432.67 Q1001.65 1430.07 996.993 1430.07 Q993.695 1430.07 990.014 1431.21 Q986.368 1432.36 982.202 1434.68 L982.202 1427.6 Q986.438 1425.9 990.118 1425.03 Q993.799 1424.16 996.854 1424.16 Q1004.91 1424.16 1009.7 1428.19 Q1014.49 1432.22 1014.49 1438.95 Q1014.49 1442.15 1013.28 1445.03 Q1012.1 1447.88 1008.94 1451.77 Q1008.07 1452.77 1003.42 1457.6 Q998.764 1462.39 990.292 1471.04 Z" fill="#000000" fill-rule="evenodd" fill-opacity="1" /><path clip-path="url(#clip150)" d="M1239.67 1451.7 L1284.18 1451.7 L1284.18 1457.6 L1239.67 1457.6 L1239.67 1451.7 Z" fill="#000000" fill-rule="evenodd" fill-opacity="1" /><path clip-path="url(#clip150)" d="M1300.54 1471.04 L1311.99 1471.04 L1311.99 1431.49 L1299.53 1433.99 L1299.53 1427.6 L1311.93 1425.1 L1318.94 1425.1 L1318.94 1471.04 L1330.4 1471.04 L1330.4 1476.94 L1300.54 1476.94 L1300.54 1471.04 Z" fill="#000000" fill-rule="evenodd" fill-opacity="1" /><path clip-path="url(#clip150)" d="M1600.38 1429.72 Q1594.96 1429.72 1592.22 1435.07 Q1589.51 1440.38 1589.51 1451.07 Q1589.51 1461.73 1592.22 1467.08 Q1594.96 1472.39 1600.38 1472.39 Q1605.83 1472.39 1608.54 1467.08 Q1611.28 1461.73 1611.28 1451.07 Q1611.28 1440.38 1608.54 1435.07 Q1605.83 1429.72 1600.38 1429.72 M1600.38 1424.16 Q1609.1 1424.16 1613.68 1431.07 Q1618.3 1437.95 1618.3 1451.07 Q1618.3 1464.16 1613.68 1471.07 Q1609.1 1477.95 1600.38 1477.95 Q1591.67 1477.95 1587.05 1471.07 Q1582.46 1464.16 1582.46 1451.07 Q1582.46 1437.95 1587.05 1431.07 Q1591.67 1424.16 1600.38 1424.16 Z" fill="#000000" fill-rule="evenodd" fill-opacity="1" /><path clip-path="url(#clip150)" d="M1901.3 1471.04 L1912.76 1471.04 L1912.76 1431.49 L1900.3 1433.99 L1900.3 1427.6 L1912.69 1425.1 L1919.71 1425.1 L1919.71 1471.04 L1931.16 1471.04 L1931.16 1476.94 L1901.3 1476.94 L1901.3 1471.04 Z" fill="#000000" fill-rule="evenodd" fill-opacity="1" /><path clip-path="url(#clip150)" d="M2223.06 1471.04 L2247.54 1471.04 L2247.54 1476.94 L2214.62 1476.94 L2214.62 1471.04 Q2218.61 1466.91 2225.49 1459.96 Q2232.4 1452.98 2234.17 1450.97 Q2237.54 1447.18 2238.86 1444.58 Q2240.21 1441.94 2240.21 1439.41 Q2240.21 1435.27 2237.29 1432.67 Q2234.41 1430.07 2229.76 1430.07 Q2226.46 1430.07 2222.78 1431.21 Q2219.13 1432.36 2214.97 1434.68 L2214.97 1427.6 Q2219.2 1425.9 2222.88 1425.03 Q2226.56 1424.16 2229.62 1424.16 Q2237.68 1424.16 2242.47 1428.19 Q2247.26 1432.22 2247.26 1438.95 Q2247.26 1442.15 2246.04 1445.03 Q2244.86 1447.88 2241.7 1451.77 Q2240.83 1452.77 2236.18 1457.6 Q2231.53 1462.39 2223.06 1471.04 Z" fill="#000000" fill-rule="evenodd" fill-opacity="1" /><path clip-path="url(#clip150)" d="M864.527 1518.8 L915.69 1518.8 L915.69 1525.68 L894.22 1525.68 L894.22 1579.28 L885.996 1579.28 L885.996 1525.68 L864.527 1525.68 L864.527 1518.8 Z" fill="#000000" fill-rule="evenodd" fill-opacity="1" /><path clip-path="url(#clip150)" d="M960.979 1551.89 L960.979 1579.28 L953.525 1579.28 L953.525 1552.13 Q953.525 1545.69 951.013 1542.49 Q948.502 1539.29 943.479 1539.29 Q937.443 1539.29 933.959 1543.14 Q930.475 1546.99 930.475 1553.63 L930.475 1579.28 L922.981 1579.28 L922.981 1516.24 L930.475 1516.24 L930.475 1540.95 Q933.149 1536.86 936.754 1534.84 Q940.4 1532.81 945.14 1532.81 Q952.958 1532.81 956.968 1537.67 Q960.979 1542.49 960.979 1551.89 Z" fill="#000000" fill-rule="evenodd" fill-opacity="1" /><path clip-path="url(#clip150)" d="M1014.65 1554.73 L1014.65 1558.37 L980.382 1558.37 Q980.869 1566.07 985 1570.12 Q989.173 1574.13 996.586 1574.13 Q1000.88 1574.13 1004.89 1573.08 Q1008.94 1572.02 1012.91 1569.92 L1012.91 1576.97 Q1008.9 1578.67 1004.69 1579.56 Q1000.47 1580.45 996.14 1580.45 Q985.284 1580.45 978.924 1574.13 Q972.605 1567.81 972.605 1557.04 Q972.605 1545.9 978.6 1539.37 Q984.636 1532.81 994.844 1532.81 Q1004 1532.81 1009.31 1538.73 Q1014.65 1544.6 1014.65 1554.73 M1007.2 1552.54 Q1007.12 1546.42 1003.76 1542.78 Q1000.43 1539.13 994.925 1539.13 Q988.687 1539.13 984.919 1542.66 Q981.193 1546.18 980.626 1552.58 L1007.2 1552.54 Z" fill="#000000" fill-rule="evenodd" fill-opacity="1" /><path clip-path="url(#clip150)" d="M1044.47 1539.13 Q1038.47 1539.13 1034.99 1543.83 Q1031.5 1548.49 1031.5 1556.63 Q1031.5 1564.77 1034.95 1569.47 Q1038.43 1574.13 1044.47 1574.13 Q1050.42 1574.13 1053.91 1569.43 Q1057.39 1564.73 1057.39 1556.63 Q1057.39 1548.57 1053.91 1543.87 Q1050.42 1539.13 1044.47 1539.13 M1044.47 1532.81 Q1054.19 1532.81 1059.74 1539.13 Q1065.29 1545.45 1065.29 1556.63 Q1065.29 1567.77 1059.74 1574.13 Q1054.19 1580.45 1044.47 1580.45 Q1034.71 1580.45 1029.16 1574.13 Q1023.65 1567.77 1023.65 1556.63 Q1023.65 1545.45 1029.16 1539.13 Q1034.71 1532.81 1044.47 1532.81 Z" fill="#000000" fill-rule="evenodd" fill-opacity="1" /><path clip-path="url(#clip150)" d="M1103.94 1540.87 Q1102.68 1540.14 1101.18 1539.82 Q1099.72 1539.46 1097.94 1539.46 Q1091.62 1539.46 1088.22 1543.59 Q1084.86 1547.68 1084.86 1555.38 L1084.86 1579.28 L1077.36 1579.28 L1077.36 1533.91 L1084.86 1533.91 L1084.86 1540.95 Q1087.2 1536.82 1090.97 1534.84 Q1094.74 1532.81 1100.13 1532.81 Q1100.9 1532.81 1101.83 1532.93 Q1102.76 1533.01 1103.89 1533.22 L1103.94 1540.87 Z" fill="#000000" fill-rule="evenodd" fill-opacity="1" /><path clip-path="url(#clip150)" d="M1148.74 1554.73 L1148.74 1558.37 L1114.47 1558.37 Q1114.95 1566.07 1119.09 1570.12 Q1123.26 1574.13 1130.67 1574.13 Q1134.96 1574.13 1138.98 1573.08 Q1143.03 1572.02 1147 1569.92 L1147 1576.97 Q1142.99 1578.67 1138.77 1579.56 Q1134.56 1580.45 1130.23 1580.45 Q1119.37 1580.45 1113.01 1574.13 Q1106.69 1567.81 1106.69 1557.04 Q1106.69 1545.9 1112.68 1539.37 Q1118.72 1532.81 1128.93 1532.81 Q1138.08 1532.81 1143.39 1538.73 Q1148.74 1544.6 1148.74 1554.73 M1141.28 1552.54 Q1141.2 1546.42 1137.84 1542.78 Q1134.52 1539.13 1129.01 1539.13 Q1122.77 1539.13 1119 1542.66 Q1115.28 1546.18 1114.71 1552.58 L1141.28 1552.54 Z" fill="#000000" fill-rule="evenodd" fill-opacity="1" /><path clip-path="url(#clip150)" d="M1168.34 1521.02 L1168.34 1533.91 L1183.7 1533.91 L1183.7 1539.7 L1168.34 1539.7 L1168.34 1564.33 Q1168.34 1569.88 1169.84 1571.46 Q1171.38 1573.04 1176.04 1573.04 L1183.7 1573.04 L1183.7 1579.28 L1176.04 1579.28 Q1167.41 1579.28 1164.13 1576.08 Q1160.85 1572.83 1160.85 1564.33 L1160.85 1539.7 L1155.38 1539.7 L1155.38 1533.91 L1160.85 1533.91 L1160.85 1521.02 L1168.34 1521.02 Z" fill="#000000" fill-rule="evenodd" fill-opacity="1" /><path clip-path="url(#clip150)" d="M1193.5 1533.91 L1200.95 1533.91 L1200.95 1579.28 L1193.5 1579.28 L1193.5 1533.91 M1193.5 1516.24 L1200.95 1516.24 L1200.95 1525.68 L1193.5 1525.68 L1193.5 1516.24 Z" fill="#000000" fill-rule="evenodd" fill-opacity="1" /><path clip-path="url(#clip150)" d="M1249.2 1535.65 L1249.2 1542.62 Q1246.04 1540.87 1242.84 1540.02 Q1239.68 1539.13 1236.44 1539.13 Q1229.19 1539.13 1225.18 1543.75 Q1221.17 1548.33 1221.17 1556.63 Q1221.17 1564.94 1225.18 1569.55 Q1229.19 1574.13 1236.44 1574.13 Q1239.68 1574.13 1242.84 1573.28 Q1246.04 1572.39 1249.2 1570.65 L1249.2 1577.53 Q1246.08 1578.99 1242.72 1579.72 Q1239.4 1580.45 1235.63 1580.45 Q1225.38 1580.45 1219.35 1574.01 Q1213.31 1567.57 1213.31 1556.63 Q1213.31 1545.53 1219.39 1539.17 Q1225.5 1532.81 1236.12 1532.81 Q1239.56 1532.81 1242.84 1533.54 Q1246.12 1534.23 1249.2 1535.65 Z" fill="#000000" fill-rule="evenodd" fill-opacity="1" /><path clip-path="url(#clip150)" d="M1282.78 1556.47 Q1273.75 1556.47 1270.27 1558.54 Q1266.78 1560.6 1266.78 1565.58 Q1266.78 1569.55 1269.37 1571.9 Q1272.01 1574.21 1276.5 1574.21 Q1282.7 1574.21 1286.43 1569.84 Q1290.2 1565.42 1290.2 1558.13 L1290.2 1556.47 L1282.78 1556.47 M1297.65 1553.39 L1297.65 1579.28 L1290.2 1579.28 L1290.2 1572.39 Q1287.64 1576.52 1283.84 1578.51 Q1280.03 1580.45 1274.52 1580.45 Q1267.55 1580.45 1263.42 1576.56 Q1259.33 1572.63 1259.33 1566.07 Q1259.33 1558.41 1264.43 1554.52 Q1269.58 1550.64 1279.74 1550.64 L1290.2 1550.64 L1290.2 1549.91 Q1290.2 1544.76 1286.79 1541.97 Q1283.43 1539.13 1277.31 1539.13 Q1273.42 1539.13 1269.74 1540.06 Q1266.05 1540.99 1262.65 1542.86 L1262.65 1535.97 Q1266.74 1534.39 1270.59 1533.62 Q1274.44 1532.81 1278.08 1532.81 Q1287.93 1532.81 1292.79 1537.92 Q1297.65 1543.02 1297.65 1553.39 Z" fill="#000000" fill-rule="evenodd" fill-opacity="1" /><path clip-path="url(#clip150)" d="M1313 1516.24 L1320.46 1516.24 L1320.46 1579.28 L1313 1579.28 L1313 1516.24 Z" fill="#000000" fill-rule="evenodd" fill-opacity="1" /><path clip-path="url(#clip150)" d="M1387.3 1524.35 Q1378.38 1524.35 1373.12 1530.99 Q1367.89 1537.63 1367.89 1549.1 Q1367.89 1560.52 1373.12 1567.16 Q1378.38 1573.81 1387.3 1573.81 Q1396.21 1573.81 1401.39 1567.16 Q1406.62 1560.52 1406.62 1549.1 Q1406.62 1537.63 1401.39 1530.99 Q1396.21 1524.35 1387.3 1524.35 M1398.76 1578.18 L1409.54 1589.97 L1399.65 1589.97 L1390.7 1580.29 Q1389.36 1580.37 1388.63 1580.41 Q1387.94 1580.45 1387.3 1580.45 Q1374.54 1580.45 1366.88 1571.94 Q1359.26 1563.4 1359.26 1549.1 Q1359.26 1534.76 1366.88 1526.25 Q1374.54 1517.7 1387.3 1517.7 Q1400.02 1517.7 1407.63 1526.25 Q1415.25 1534.76 1415.25 1549.1 Q1415.25 1559.63 1410.99 1567.12 Q1406.78 1574.62 1398.76 1578.18 Z" fill="#000000" fill-rule="evenodd" fill-opacity="1" /><path clip-path="url(#clip150)" d="M1426.95 1561.37 L1426.95 1533.91 L1434.41 1533.91 L1434.41 1561.09 Q1434.41 1567.53 1436.92 1570.77 Q1439.43 1573.97 1444.45 1573.97 Q1450.49 1573.97 1453.97 1570.12 Q1457.5 1566.27 1457.5 1559.63 L1457.5 1533.91 L1464.95 1533.91 L1464.95 1579.28 L1457.5 1579.28 L1457.5 1572.31 Q1454.78 1576.44 1451.18 1578.47 Q1447.61 1580.45 1442.87 1580.45 Q1435.06 1580.45 1431.01 1575.59 Q1426.95 1570.73 1426.95 1561.37 M1445.71 1532.81 L1445.71 1532.81 Z" fill="#000000" fill-rule="evenodd" fill-opacity="1" /><path clip-path="url(#clip150)" d="M1500.92 1556.47 Q1491.89 1556.47 1488.41 1558.54 Q1484.92 1560.6 1484.92 1565.58 Q1484.92 1569.55 1487.52 1571.9 Q1490.15 1574.21 1494.64 1574.21 Q1500.84 1574.21 1504.57 1569.84 Q1508.34 1565.42 1508.34 1558.13 L1508.34 1556.47 L1500.92 1556.47 M1515.79 1553.39 L1515.79 1579.28 L1508.34 1579.28 L1508.34 1572.39 Q1505.78 1576.52 1501.98 1578.51 Q1498.17 1580.45 1492.66 1580.45 Q1485.69 1580.45 1481.56 1576.56 Q1477.47 1572.63 1477.47 1566.07 Q1477.47 1558.41 1482.57 1554.52 Q1487.72 1550.64 1497.89 1550.64 L1508.34 1550.64 L1508.34 1549.91 Q1508.34 1544.76 1504.93 1541.97 Q1501.57 1539.13 1495.45 1539.13 Q1491.57 1539.13 1487.88 1540.06 Q1484.19 1540.99 1480.79 1542.86 L1480.79 1535.97 Q1484.88 1534.39 1488.73 1533.62 Q1492.58 1532.81 1496.22 1532.81 Q1506.07 1532.81 1510.93 1537.92 Q1515.79 1543.02 1515.79 1553.39 Z" fill="#000000" fill-rule="evenodd" fill-opacity="1" /><path clip-path="url(#clip150)" d="M1568.86 1551.89 L1568.86 1579.28 L1561.4 1579.28 L1561.4 1552.13 Q1561.4 1545.69 1558.89 1542.49 Q1556.38 1539.29 1551.36 1539.29 Q1545.32 1539.29 1541.84 1543.14 Q1538.35 1546.99 1538.35 1553.63 L1538.35 1579.28 L1530.86 1579.28 L1530.86 1533.91 L1538.35 1533.91 L1538.35 1540.95 Q1541.03 1536.86 1544.63 1534.84 Q1548.28 1532.81 1553.02 1532.81 Q1560.84 1532.81 1564.85 1537.67 Q1568.86 1542.49 1568.86 1551.89 Z" fill="#000000" fill-rule="evenodd" fill-opacity="1" /><path clip-path="url(#clip150)" d="M1591.1 1521.02 L1591.1 1533.91 L1606.45 1533.91 L1606.45 1539.7 L1591.1 1539.7 L1591.1 1564.33 Q1591.1 1569.88 1592.6 1571.46 Q1594.13 1573.04 1598.79 1573.04 L1606.45 1573.04 L1606.45 1579.28 L1598.79 1579.28 Q1590.17 1579.28 1586.88 1576.08 Q1583.6 1572.83 1583.6 1564.33 L1583.6 1539.7 L1578.13 1539.7 L1578.13 1533.91 L1583.6 1533.91 L1583.6 1521.02 L1591.1 1521.02 Z" fill="#000000" fill-rule="evenodd" fill-opacity="1" /><path clip-path="url(#clip150)" d="M1616.25 1533.91 L1623.71 1533.91 L1623.71 1579.28 L1616.25 1579.28 L1616.25 1533.91 M1616.25 1516.24 L1623.71 1516.24 L1623.71 1525.68 L1616.25 1525.68 L1616.25 1516.24 Z" fill="#000000" fill-rule="evenodd" fill-opacity="1" /><path clip-path="url(#clip150)" d="M1639.3 1516.24 L1646.76 1516.24 L1646.76 1579.28 L1639.3 1579.28 L1639.3 1516.24 Z" fill="#000000" fill-rule="evenodd" fill-opacity="1" /><path clip-path="url(#clip150)" d="M1701.16 1554.73 L1701.16 1558.37 L1666.89 1558.37 Q1667.38 1566.07 1671.51 1570.12 Q1675.68 1574.13 1683.09 1574.13 Q1687.39 1574.13 1691.4 1573.08 Q1695.45 1572.02 1699.42 1569.92 L1699.42 1576.97 Q1695.41 1578.67 1691.19 1579.56 Q1686.98 1580.45 1682.65 1580.45 Q1671.79 1580.45 1665.43 1574.13 Q1659.11 1567.81 1659.11 1557.04 Q1659.11 1545.9 1665.11 1539.37 Q1671.14 1532.81 1681.35 1532.81 Q1690.51 1532.81 1695.81 1538.73 Q1701.16 1544.6 1701.16 1554.73 M1693.71 1552.54 Q1693.63 1546.42 1690.26 1542.78 Q1686.94 1539.13 1681.43 1539.13 Q1675.19 1539.13 1671.43 1542.66 Q1667.7 1546.18 1667.13 1552.58 L1693.71 1552.54 Z" fill="#000000" fill-rule="evenodd" fill-opacity="1" /><path clip-path="url(#clip150)" d="M1742.32 1535.24 L1742.32 1542.29 Q1739.16 1540.67 1735.75 1539.86 Q1732.35 1539.05 1728.71 1539.05 Q1723.16 1539.05 1720.36 1540.75 Q1717.61 1542.45 1717.61 1545.86 Q1717.61 1548.45 1719.59 1549.95 Q1721.58 1551.41 1727.57 1552.74 L1730.12 1553.31 Q1738.06 1555.01 1741.39 1558.13 Q1744.75 1561.21 1744.75 1566.76 Q1744.75 1573.08 1739.72 1576.76 Q1734.74 1580.45 1725.99 1580.45 Q1722.35 1580.45 1718.38 1579.72 Q1714.45 1579.03 1710.07 1577.61 L1710.07 1569.92 Q1714.2 1572.07 1718.21 1573.16 Q1722.22 1574.21 1726.15 1574.21 Q1731.42 1574.21 1734.26 1572.43 Q1737.09 1570.61 1737.09 1567.33 Q1737.09 1564.29 1735.03 1562.67 Q1733 1561.05 1726.07 1559.55 L1723.48 1558.94 Q1716.55 1557.48 1713.47 1554.48 Q1710.4 1551.45 1710.4 1546.18 Q1710.4 1539.78 1714.93 1536.3 Q1719.47 1532.81 1727.81 1532.81 Q1731.95 1532.81 1735.59 1533.42 Q1739.24 1534.03 1742.32 1535.24 Z" fill="#000000" fill-rule="evenodd" fill-opacity="1" /><polyline clip-path="url(#clip152)" style="stroke:#000000; stroke-linecap:round; stroke-linejoin:round; stroke-width:2; stroke-opacity:0.1; fill:none" points="
  256.518,1340 2352.76,1340 
  "/>
<polyline clip-path="url(#clip152)" style="stroke:#000000; stroke-linecap:round; stroke-linejoin:round; stroke-width:2; stroke-opacity:0.1; fill:none" points="
  256.518,1137.56 2352.76,1137.56 
  "/>
<polyline clip-path="url(#clip152)" style="stroke:#000000; stroke-linecap:round; stroke-linejoin:round; stroke-width:2; stroke-opacity:0.1; fill:none" points="
  256.518,935.117 2352.76,935.117 
  "/>
<polyline clip-path="url(#clip152)" style="stroke:#000000; stroke-linecap:round; stroke-linejoin:round; stroke-width:2; stroke-opacity:0.1; fill:none" points="
  256.518,732.677 2352.76,732.677 
  "/>
<polyline clip-path="url(#clip152)" style="stroke:#000000; stroke-linecap:round; stroke-linejoin:round; stroke-width:2; stroke-opacity:0.1; fill:none" points="
  256.518,530.237 2352.76,530.237 
  "/>
<polyline clip-path="url(#clip152)" style="stroke:#000000; stroke-linecap:round; stroke-linejoin:round; stroke-width:2; stroke-opacity:0.1; fill:none" points="
  256.518,327.797 2352.76,327.797 
  "/>
<polyline clip-path="url(#clip152)" style="stroke:#000000; stroke-linecap:round; stroke-linejoin:round; stroke-width:2; stroke-opacity:0.1; fill:none" points="
  256.518,125.356 2352.76,125.356 
  "/>
<polyline clip-path="url(#clip150)" style="stroke:#000000; stroke-linecap:round; stroke-linejoin:round; stroke-width:4; stroke-opacity:1; fill:none" points="
  256.518,1392.94 256.518,47.2441 
  "/>
<polyline clip-path="url(#clip150)" style="stroke:#000000; stroke-linecap:round; stroke-linejoin:round; stroke-width:4; stroke-opacity:1; fill:none" points="
  256.518,1340 275.416,1340 
  "/>
<polyline clip-path="url(#clip150)" style="stroke:#000000; stroke-linecap:round; stroke-linejoin:round; stroke-width:4; stroke-opacity:1; fill:none" points="
  256.518,1137.56 275.416,1137.56 
  "/>
<polyline clip-path="url(#clip150)" style="stroke:#000000; stroke-linecap:round; stroke-linejoin:round; stroke-width:4; stroke-opacity:1; fill:none" points="
  256.518,935.117 275.416,935.117 
  "/>
<polyline clip-path="url(#clip150)" style="stroke:#000000; stroke-linecap:round; stroke-linejoin:round; stroke-width:4; stroke-opacity:1; fill:none" points="
  256.518,732.677 275.416,732.677 
  "/>
<polyline clip-path="url(#clip150)" style="stroke:#000000; stroke-linecap:round; stroke-linejoin:round; stroke-width:4; stroke-opacity:1; fill:none" points="
  256.518,530.237 275.416,530.237 
  "/>
<polyline clip-path="url(#clip150)" style="stroke:#000000; stroke-linecap:round; stroke-linejoin:round; stroke-width:4; stroke-opacity:1; fill:none" points="
  256.518,327.797 275.416,327.797 
  "/>
<polyline clip-path="url(#clip150)" style="stroke:#000000; stroke-linecap:round; stroke-linejoin:round; stroke-width:4; stroke-opacity:1; fill:none" points="
  256.518,125.356 275.416,125.356 
  "/>
<path clip-path="url(#clip150)" d="M127.22 1340.68 L171.734 1340.68 L171.734 1346.58 L127.22 1346.58 L127.22 1340.68 Z" fill="#000000" fill-rule="evenodd" fill-opacity="1" /><path clip-path="url(#clip150)" d="M206.143 1320.19 L188.435 1347.86 L206.143 1347.86 L206.143 1320.19 M204.303 1314.08 L213.122 1314.08 L213.122 1347.86 L220.518 1347.86 L220.518 1353.7 L213.122 1353.7 L213.122 1365.92 L206.143 1365.92 L206.143 1353.7 L182.741 1353.7 L182.741 1346.92 L204.303 1314.08 Z" fill="#000000" fill-rule="evenodd" fill-opacity="1" /><path clip-path="url(#clip150)" d="M128.922 1138.23 L173.435 1138.23 L173.435 1144.14 L128.922 1144.14 L128.922 1138.23 Z" fill="#000000" fill-rule="evenodd" fill-opacity="1" /><path clip-path="url(#clip150)" d="M209.824 1135.53 Q214.859 1136.6 217.671 1140.01 Q220.518 1143.41 220.518 1148.41 Q220.518 1156.08 215.241 1160.28 Q209.963 1164.48 200.241 1164.48 Q196.977 1164.48 193.505 1163.82 Q190.067 1163.2 186.387 1161.92 L186.387 1155.14 Q189.303 1156.85 192.775 1157.71 Q196.248 1158.58 200.032 1158.58 Q206.629 1158.58 210.067 1155.98 Q213.539 1153.37 213.539 1148.41 Q213.539 1143.82 210.31 1141.26 Q207.116 1138.65 201.386 1138.65 L195.345 1138.65 L195.345 1132.89 L201.664 1132.89 Q206.838 1132.89 209.581 1130.84 Q212.324 1128.76 212.324 1124.87 Q212.324 1120.87 209.477 1118.76 Q206.664 1116.6 201.386 1116.6 Q198.504 1116.6 195.206 1117.23 Q191.907 1117.85 187.949 1119.17 L187.949 1112.92 Q191.942 1111.81 195.414 1111.26 Q198.921 1110.7 202.011 1110.7 Q209.997 1110.7 214.65 1114.35 Q219.303 1117.96 219.303 1124.14 Q219.303 1128.44 216.838 1131.43 Q214.372 1134.38 209.824 1135.53 Z" fill="#000000" fill-rule="evenodd" fill-opacity="1" /><path clip-path="url(#clip150)" d="M130.345 935.794 L174.859 935.794 L174.859 941.697 L130.345 941.697 L130.345 935.794 Z" fill="#000000" fill-rule="evenodd" fill-opacity="1" /><path clip-path="url(#clip150)" d="M196.039 955.135 L220.518 955.135 L220.518 961.037 L187.602 961.037 L187.602 955.135 Q191.595 951.003 198.47 944.058 Q205.379 937.079 207.15 935.065 Q210.518 931.281 211.838 928.676 Q213.192 926.038 213.192 923.503 Q213.192 919.371 210.275 916.767 Q207.393 914.163 202.741 914.163 Q199.442 914.163 195.761 915.308 Q192.116 916.454 187.949 918.781 L187.949 911.697 Q192.185 909.996 195.866 909.128 Q199.546 908.26 202.602 908.26 Q210.657 908.26 215.449 912.288 Q220.24 916.315 220.24 923.051 Q220.24 926.246 219.025 929.128 Q217.845 931.975 214.685 935.864 Q213.817 936.871 209.164 941.697 Q204.511 946.489 196.039 955.135 Z" fill="#000000" fill-rule="evenodd" fill-opacity="1" /><path clip-path="url(#clip150)" d="M129.79 733.354 L174.303 733.354 L174.303 739.257 L129.79 739.257 L129.79 733.354 Z" fill="#000000" fill-rule="evenodd" fill-opacity="1" /><path clip-path="url(#clip150)" d="M190.657 752.694 L202.116 752.694 L202.116 713.146 L189.65 715.646 L189.65 709.257 L202.046 706.757 L209.06 706.757 L209.06 752.694 L220.518 752.694 L220.518 758.597 L190.657 758.597 L190.657 752.694 Z" fill="#000000" fill-rule="evenodd" fill-opacity="1" /><path clip-path="url(#clip150)" d="M202.602 508.935 Q197.185 508.935 194.442 514.282 Q191.734 519.594 191.734 530.289 Q191.734 540.949 194.442 546.296 Q197.185 551.608 202.602 551.608 Q208.053 551.608 210.761 546.296 Q213.504 540.949 213.504 530.289 Q213.504 519.594 210.761 514.282 Q208.053 508.935 202.602 508.935 M202.602 503.379 Q211.317 503.379 215.9 510.289 Q220.518 517.164 220.518 530.289 Q220.518 543.379 215.9 550.289 Q211.317 557.164 202.602 557.164 Q193.886 557.164 189.268 550.289 Q184.685 543.379 184.685 530.289 Q184.685 517.164 189.268 510.289 Q193.886 503.379 202.602 503.379 Z" fill="#000000" fill-rule="evenodd" fill-opacity="1" /><path clip-path="url(#clip150)" d="M190.657 347.814 L202.116 347.814 L202.116 308.265 L189.65 310.765 L189.65 304.377 L202.046 301.877 L209.06 301.877 L209.06 347.814 L220.518 347.814 L220.518 353.717 L190.657 353.717 L190.657 347.814 Z" fill="#000000" fill-rule="evenodd" fill-opacity="1" /><path clip-path="url(#clip150)" d="M196.039 145.373 L220.518 145.373 L220.518 151.276 L187.602 151.276 L187.602 145.373 Q191.595 141.242 198.47 134.297 Q205.379 127.318 207.15 125.304 Q210.518 121.519 211.838 118.915 Q213.192 116.276 213.192 113.742 Q213.192 109.61 210.275 107.006 Q207.393 104.401 202.741 104.401 Q199.442 104.401 195.761 105.547 Q192.116 106.693 187.949 109.02 L187.949 101.936 Q192.185 100.235 195.866 99.3668 Q199.546 98.4987 202.602 98.4987 Q210.657 98.4987 215.449 102.526 Q220.24 106.554 220.24 113.29 Q220.24 116.485 219.025 119.367 Q217.845 122.214 214.685 126.103 Q213.817 127.11 209.164 131.936 Q204.511 136.728 196.039 145.373 Z" fill="#000000" fill-rule="evenodd" fill-opacity="1" /><path clip-path="url(#clip150)" d="M12.5962 1117.08 L12.5962 1078.84 L19.4827 1078.84 L19.4827 1108.9 L37.3877 1108.9 L37.3877 1080.1 L44.2742 1080.1 L44.2742 1108.9 L66.1896 1108.9 L66.1896 1078.11 L73.0762 1078.11 L73.0762 1117.08 L12.5962 1117.08 Z" fill="#000000" fill-rule="evenodd" fill-opacity="1" /><path clip-path="url(#clip150)" d="M36.4155 1029.66 Q31.3924 1026.87 29.0023 1022.98 Q26.6123 1019.09 26.6123 1013.82 Q26.6123 1006.73 31.5949 1002.89 Q36.537 999.037 45.692 999.037 L73.0762 999.037 L73.0762 1006.53 L45.9351 1006.53 Q39.4131 1006.53 36.2534 1008.84 Q33.0937 1011.15 33.0937 1015.89 Q33.0937 1021.68 36.9421 1025.04 Q40.7905 1028.41 47.4339 1028.41 L73.0762 1028.41 L73.0762 1035.9 L45.9351 1035.9 Q39.3726 1035.9 36.2534 1038.21 Q33.0937 1040.52 33.0937 1045.34 Q33.0937 1051.05 36.9826 1054.41 Q40.831 1057.78 47.4339 1057.78 L73.0762 1057.78 L73.0762 1065.27 L27.706 1065.27 L27.706 1057.78 L34.7546 1057.78 Q30.5822 1055.22 28.5972 1051.66 Q26.6123 1048.09 26.6123 1043.19 Q26.6123 1038.25 29.1238 1034.81 Q31.6354 1031.32 36.4155 1029.66 Z" fill="#000000" fill-rule="evenodd" fill-opacity="1" /><path clip-path="url(#clip150)" d="M66.2706 976.96 L90.333 976.96 L90.333 984.454 L27.706 984.454 L27.706 976.96 L34.5926 976.96 Q30.5417 974.61 28.5972 971.045 Q26.6123 967.44 26.6123 962.458 Q26.6123 954.194 33.1748 949.049 Q39.7372 943.864 50.4316 943.864 Q61.126 943.864 67.6885 949.049 Q74.2509 954.194 74.2509 962.458 Q74.2509 967.44 72.3065 971.045 Q70.3215 974.61 66.2706 976.96 M50.4316 951.601 Q42.2083 951.601 37.5497 955.004 Q32.8507 958.366 32.8507 964.28 Q32.8507 970.195 37.5497 973.598 Q42.2083 976.96 50.4316 976.96 Q58.6549 976.96 63.354 973.598 Q68.0125 970.195 68.0125 964.28 Q68.0125 958.366 63.354 955.004 Q58.6549 951.601 50.4316 951.601 Z" fill="#000000" fill-rule="evenodd" fill-opacity="1" /><path clip-path="url(#clip150)" d="M27.706 931.509 L27.706 924.055 L73.0762 924.055 L73.0762 931.509 L27.706 931.509 M10.0441 931.509 L10.0441 924.055 L19.4827 924.055 L19.4827 931.509 L10.0441 931.509 Z" fill="#000000" fill-rule="evenodd" fill-opacity="1" /><path clip-path="url(#clip150)" d="M34.6736 882.169 Q33.9444 883.424 33.6204 884.923 Q33.2558 886.382 33.2558 888.164 Q33.2558 894.483 37.3877 897.886 Q41.4791 901.248 49.1758 901.248 L73.0762 901.248 L73.0762 908.743 L27.706 908.743 L27.706 901.248 L34.7546 901.248 Q30.6227 898.899 28.6377 895.132 Q26.6123 891.364 26.6123 885.976 Q26.6123 885.207 26.7338 884.275 Q26.8148 883.343 27.0174 882.209 L34.6736 882.169 Z" fill="#000000" fill-rule="evenodd" fill-opacity="1" /><path clip-path="url(#clip150)" d="M27.706 874.35 L27.706 866.897 L73.0762 866.897 L73.0762 874.35 L27.706 874.35 M10.0441 874.35 L10.0441 866.897 L19.4827 866.897 L19.4827 874.35 L10.0441 874.35 Z" fill="#000000" fill-rule="evenodd" fill-opacity="1" /><path clip-path="url(#clip150)" d="M29.4479 818.65 L36.4155 818.65 Q34.6736 821.81 33.8229 825.01 Q32.9317 828.17 32.9317 831.411 Q32.9317 838.662 37.5497 842.672 Q42.1272 846.683 50.4316 846.683 Q58.736 846.683 63.354 842.672 Q67.9315 838.662 67.9315 831.411 Q67.9315 828.17 67.0808 825.01 Q66.1896 821.81 64.4477 818.65 L71.3343 818.65 Q72.7926 821.77 73.5218 825.132 Q74.2509 828.454 74.2509 832.221 Q74.2509 842.47 67.81 848.506 Q61.369 854.541 50.4316 854.541 Q39.3321 854.541 32.9722 848.465 Q26.6123 842.348 26.6123 831.735 Q26.6123 828.292 27.3414 825.01 Q28.0301 821.729 29.4479 818.65 Z" fill="#000000" fill-rule="evenodd" fill-opacity="1" /><path clip-path="url(#clip150)" d="M50.2696 785.068 Q50.2696 794.102 52.3355 797.586 Q54.4015 801.07 59.3841 801.07 Q63.354 801.07 65.7035 798.477 Q68.0125 795.844 68.0125 791.347 Q68.0125 785.149 63.6376 781.423 Q59.2221 777.655 51.9304 777.655 L50.2696 777.655 L50.2696 785.068 M47.1909 770.202 L73.0762 770.202 L73.0762 777.655 L66.1896 777.655 Q70.3215 780.207 72.3065 784.015 Q74.2509 787.823 74.2509 793.332 Q74.2509 800.3 70.3621 804.432 Q66.4327 808.523 59.8702 808.523 Q52.214 808.523 48.3251 803.419 Q44.4363 798.274 44.4363 788.107 L44.4363 777.655 L43.7071 777.655 Q38.5625 777.655 35.7673 781.058 Q32.9317 784.42 32.9317 790.537 Q32.9317 794.426 33.8634 798.112 Q34.7951 801.799 36.6585 805.201 L29.772 805.201 Q28.1921 801.11 27.4225 797.262 Q26.6123 793.413 26.6123 789.768 Q26.6123 779.924 31.7164 775.063 Q36.8206 770.202 47.1909 770.202 Z" fill="#000000" fill-rule="evenodd" fill-opacity="1" /><path clip-path="url(#clip150)" d="M10.0441 754.849 L10.0441 747.395 L73.0762 747.395 L73.0762 754.849 L10.0441 754.849 Z" fill="#000000" fill-rule="evenodd" fill-opacity="1" /><path clip-path="url(#clip150)" d="M18.1459 680.555 Q18.1459 689.467 24.7894 694.733 Q31.4329 699.959 42.8969 699.959 Q54.3205 699.959 60.964 694.733 Q67.6074 689.467 67.6074 680.555 Q67.6074 671.643 60.964 666.458 Q54.3205 661.232 42.8969 661.232 Q31.4329 661.232 24.7894 666.458 Q18.1459 671.643 18.1459 680.555 M71.9824 669.091 L83.7705 658.316 L83.7705 668.2 L74.0889 677.152 Q74.1699 678.489 74.2104 679.218 Q74.2509 679.907 74.2509 680.555 Q74.2509 693.315 65.744 700.972 Q57.1966 708.587 42.8969 708.587 Q28.5567 708.587 20.0498 700.972 Q11.5024 693.315 11.5024 680.555 Q11.5024 667.835 20.0498 660.22 Q28.5567 652.604 42.8969 652.604 Q53.4293 652.604 60.9234 656.857 Q68.4176 661.07 71.9824 669.091 Z" fill="#000000" fill-rule="evenodd" fill-opacity="1" /><path clip-path="url(#clip150)" d="M55.1712 640.897 L27.706 640.897 L27.706 633.443 L54.8876 633.443 Q61.3285 633.443 64.5693 630.932 Q67.7695 628.42 67.7695 623.397 Q67.7695 617.361 63.9211 613.877 Q60.0728 610.353 53.4293 610.353 L27.706 610.353 L27.706 602.899 L73.0762 602.899 L73.0762 610.353 L66.1086 610.353 Q70.2405 613.067 72.266 616.672 Q74.2509 620.237 74.2509 624.977 Q74.2509 632.795 69.3898 636.846 Q64.5287 640.897 55.1712 640.897 M26.6123 622.141 L26.6123 622.141 Z" fill="#000000" fill-rule="evenodd" fill-opacity="1" /><path clip-path="url(#clip150)" d="M50.2696 566.927 Q50.2696 575.961 52.3355 579.445 Q54.4015 582.928 59.3841 582.928 Q63.354 582.928 65.7035 580.336 Q68.0125 577.703 68.0125 573.206 Q68.0125 567.008 63.6376 563.281 Q59.2221 559.514 51.9304 559.514 L50.2696 559.514 L50.2696 566.927 M47.1909 552.06 L73.0762 552.06 L73.0762 559.514 L66.1896 559.514 Q70.3215 562.066 72.3065 565.874 Q74.2509 569.682 74.2509 575.191 Q74.2509 582.159 70.3621 586.291 Q66.4327 590.382 59.8702 590.382 Q52.214 590.382 48.3251 585.278 Q44.4363 580.133 44.4363 569.965 L44.4363 559.514 L43.7071 559.514 Q38.5625 559.514 35.7673 562.917 Q32.9317 566.279 32.9317 572.396 Q32.9317 576.285 33.8634 579.971 Q34.7951 583.658 36.6585 587.06 L29.772 587.06 Q28.1921 582.969 27.4225 579.121 Q26.6123 575.272 26.6123 571.626 Q26.6123 561.783 31.7164 556.922 Q36.8206 552.06 47.1909 552.06 Z" fill="#000000" fill-rule="evenodd" fill-opacity="1" /><path clip-path="url(#clip150)" d="M45.692 498.994 L73.0762 498.994 L73.0762 506.447 L45.9351 506.447 Q39.4942 506.447 36.2939 508.959 Q33.0937 511.47 33.0937 516.494 Q33.0937 522.529 36.9421 526.013 Q40.7905 529.497 47.4339 529.497 L73.0762 529.497 L73.0762 536.991 L27.706 536.991 L27.706 529.497 L34.7546 529.497 Q30.6632 526.823 28.6377 523.218 Q26.6123 519.572 26.6123 514.833 Q26.6123 507.014 31.4734 503.004 Q36.2939 498.994 45.692 498.994 Z" fill="#000000" fill-rule="evenodd" fill-opacity="1" /><path clip-path="url(#clip150)" d="M14.8242 476.754 L27.706 476.754 L27.706 461.401 L33.4988 461.401 L33.4988 476.754 L58.1283 476.754 Q63.6781 476.754 65.2579 475.255 Q66.8378 473.716 66.8378 469.057 L66.8378 461.401 L73.0762 461.401 L73.0762 469.057 Q73.0762 477.686 69.8759 480.967 Q66.6352 484.248 58.1283 484.248 L33.4988 484.248 L33.4988 489.717 L27.706 489.717 L27.706 484.248 L14.8242 484.248 L14.8242 476.754 Z" fill="#000000" fill-rule="evenodd" fill-opacity="1" /><path clip-path="url(#clip150)" d="M27.706 451.598 L27.706 444.144 L73.0762 444.144 L73.0762 451.598 L27.706 451.598 M10.0441 451.598 L10.0441 444.144 L19.4827 444.144 L19.4827 451.598 L10.0441 451.598 Z" fill="#000000" fill-rule="evenodd" fill-opacity="1" /><path clip-path="url(#clip150)" d="M10.0441 428.548 L10.0441 421.095 L73.0762 421.095 L73.0762 428.548 L10.0441 428.548 Z" fill="#000000" fill-rule="evenodd" fill-opacity="1" /><path clip-path="url(#clip150)" d="M48.5277 366.691 L52.1735 366.691 L52.1735 400.962 Q59.8702 400.476 63.9211 396.344 Q67.9315 392.171 67.9315 384.758 Q67.9315 380.464 66.8783 376.454 Q65.825 372.403 63.7186 368.433 L70.7671 368.433 Q72.4685 372.443 73.3597 376.656 Q74.2509 380.869 74.2509 385.204 Q74.2509 396.06 67.9315 402.42 Q61.6121 408.739 50.8367 408.739 Q39.6967 408.739 33.1748 402.744 Q26.6123 396.708 26.6123 386.5 Q26.6123 377.345 32.5266 372.038 Q38.4004 366.691 48.5277 366.691 M46.3402 374.145 Q40.2233 374.226 36.5775 377.588 Q32.9317 380.91 32.9317 386.419 Q32.9317 392.657 36.456 396.425 Q39.9803 400.152 46.3807 400.719 L46.3402 374.145 Z" fill="#000000" fill-rule="evenodd" fill-opacity="1" /><path clip-path="url(#clip150)" d="M29.0428 325.534 L36.0914 325.534 Q34.471 328.694 33.6609 332.096 Q32.8507 335.499 32.8507 339.145 Q32.8507 344.695 34.5521 347.49 Q36.2534 350.244 39.6562 350.244 Q42.2488 350.244 43.7476 348.259 Q45.2059 346.275 46.5427 340.279 L47.1099 337.727 Q48.8112 329.787 51.9304 326.466 Q55.0091 323.103 60.5589 323.103 Q66.8783 323.103 70.5646 328.126 Q74.2509 333.109 74.2509 341.859 Q74.2509 345.505 73.5218 349.475 Q72.8331 353.404 71.4153 357.779 L63.7186 357.779 Q65.8655 353.647 66.9593 349.637 Q68.0125 345.626 68.0125 341.697 Q68.0125 336.431 66.2301 333.595 Q64.4072 330.76 61.126 330.76 Q58.0878 330.76 56.4675 332.826 Q54.8471 334.851 53.3483 341.778 L52.7406 344.371 Q51.2823 351.298 48.2846 354.376 Q45.2464 357.455 39.9803 357.455 Q33.5798 357.455 30.0961 352.918 Q26.6123 348.381 26.6123 340.036 Q26.6123 335.904 27.2199 332.258 Q27.8276 328.613 29.0428 325.534 Z" fill="#000000" fill-rule="evenodd" fill-opacity="1" /><polyline clip-path="url(#clip152)" style="stroke:#6b9e32; stroke-linecap:round; stroke-linejoin:round; stroke-width:4; stroke-opacity:1; fill:none" points="
  315.846,1354.85 2293.43,85.3298 
  "/>
<circle clip-path="url(#clip152)" cx="315.846" cy="1214.8" r="18" fill="#009af9" fill-rule="evenodd" fill-opacity="1" stroke="#000000" stroke-opacity="1" stroke-width="3.2"/>
<circle clip-path="url(#clip152)" cx="540.319" cy="1204.99" r="18" fill="#009af9" fill-rule="evenodd" fill-opacity="1" stroke="#000000" stroke-opacity="1" stroke-width="3.2"/>
<circle clip-path="url(#clip152)" cx="692.296" cy="1177.44" r="18" fill="#009af9" fill-rule="evenodd" fill-opacity="1" stroke="#000000" stroke-opacity="1" stroke-width="3.2"/>
<circle clip-path="url(#clip152)" cx="813.496" cy="1095.34" r="18" fill="#009af9" fill-rule="evenodd" fill-opacity="1" stroke="#000000" stroke-opacity="1" stroke-width="3.2"/>
<circle clip-path="url(#clip152)" cx="917.851" cy="1088.67" r="18" fill="#009af9" fill-rule="evenodd" fill-opacity="1" stroke="#000000" stroke-opacity="1" stroke-width="3.2"/>
<circle clip-path="url(#clip152)" cx="1011.94" cy="840.355" r="18" fill="#009af9" fill-rule="evenodd" fill-opacity="1" stroke="#000000" stroke-opacity="1" stroke-width="3.2"/>
<circle clip-path="url(#clip152)" cx="1099.51" cy="835.166" r="18" fill="#009af9" fill-rule="evenodd" fill-opacity="1" stroke="#000000" stroke-opacity="1" stroke-width="3.2"/>
<circle clip-path="url(#clip152)" cx="1183.04" cy="772.31" r="18" fill="#009af9" fill-rule="evenodd" fill-opacity="1" stroke="#000000" stroke-opacity="1" stroke-width="3.2"/>
<circle clip-path="url(#clip152)" cx="1264.34" cy="688.756" r="18" fill="#009af9" fill-rule="evenodd" fill-opacity="1" stroke="#000000" stroke-opacity="1" stroke-width="3.2"/>
<circle clip-path="url(#clip152)" cx="1344.93" cy="626.604" r="18" fill="#009af9" fill-rule="evenodd" fill-opacity="1" stroke="#000000" stroke-opacity="1" stroke-width="3.2"/>
<circle clip-path="url(#clip152)" cx="1426.23" cy="596.374" r="18" fill="#009af9" fill-rule="evenodd" fill-opacity="1" stroke="#000000" stroke-opacity="1" stroke-width="3.2"/>
<circle clip-path="url(#clip152)" cx="1509.76" cy="590.589" r="18" fill="#009af9" fill-rule="evenodd" fill-opacity="1" stroke="#000000" stroke-opacity="1" stroke-width="3.2"/>
<circle clip-path="url(#clip152)" cx="1597.34" cy="560.219" r="18" fill="#009af9" fill-rule="evenodd" fill-opacity="1" stroke="#000000" stroke-opacity="1" stroke-width="3.2"/>
<circle clip-path="url(#clip152)" cx="1691.42" cy="542.916" r="18" fill="#009af9" fill-rule="evenodd" fill-opacity="1" stroke="#000000" stroke-opacity="1" stroke-width="3.2"/>
<circle clip-path="url(#clip152)" cx="1795.78" cy="339.903" r="18" fill="#009af9" fill-rule="evenodd" fill-opacity="1" stroke="#000000" stroke-opacity="1" stroke-width="3.2"/>
<circle clip-path="url(#clip152)" cx="1916.98" cy="293.821" r="18" fill="#009af9" fill-rule="evenodd" fill-opacity="1" stroke="#000000" stroke-opacity="1" stroke-width="3.2"/>
<circle clip-path="url(#clip152)" cx="2068.95" cy="293.62" r="18" fill="#009af9" fill-rule="evenodd" fill-opacity="1" stroke="#000000" stroke-opacity="1" stroke-width="3.2"/>
<circle clip-path="url(#clip152)" cx="2293.43" cy="94.4857" r="18" fill="#009af9" fill-rule="evenodd" fill-opacity="1" stroke="#000000" stroke-opacity="1" stroke-width="3.2"/>
</svg>
