<?xml version="1.0" encoding="utf-8"?>
<svg xmlns="http://www.w3.org/2000/svg" xmlns:xlink="http://www.w3.org/1999/xlink" width="600" height="400" viewBox="0 0 2400 1600">
<defs>
  <clipPath id="clip690">
    <rect x="0" y="0" width="2400" height="1600"/>
  </clipPath>
</defs>
<path clip-path="url(#clip690)" d="
M0 1600 L2400 1600 L2400 0 L0 0  Z
  " fill="#ffffff" fill-rule="evenodd" fill-opacity="1"/>
<defs>
  <clipPath id="clip691">
    <rect x="480" y="0" width="1681" height="1600"/>
  </clipPath>
</defs>
<path clip-path="url(#clip690)" d="
M354.915 1384.3 L2352.76 1384.3 L2352.76 47.2441 L354.915 47.2441  Z
  " fill="#ffffff" fill-rule="evenodd" fill-opacity="1"/>
<defs>
  <clipPath id="clip692">
    <rect x="354" y="47" width="1999" height="1338"/>
  </clipPath>
</defs>
<polyline clip-path="url(#clip692)" style="stroke:#000000; stroke-linecap:round; stroke-linejoin:round; stroke-width:2; stroke-opacity:0.1; fill:none" points="
  687.794,1384.3 687.794,47.2441 
  "/>
<polyline clip-path="url(#clip692)" style="stroke:#000000; stroke-linecap:round; stroke-linejoin:round; stroke-width:2; stroke-opacity:0.1; fill:none" points="
  1042.07,1384.3 1042.07,47.2441 
  "/>
<polyline clip-path="url(#clip692)" style="stroke:#000000; stroke-linecap:round; stroke-linejoin:round; stroke-width:2; stroke-opacity:0.1; fill:none" points="
  1396.35,1384.3 1396.35,47.2441 
  "/>
<polyline clip-path="url(#clip692)" style="stroke:#000000; stroke-linecap:round; stroke-linejoin:round; stroke-width:2; stroke-opacity:0.1; fill:none" points="
  1750.63,1384.3 1750.63,47.2441 
  "/>
<polyline clip-path="url(#clip692)" style="stroke:#000000; stroke-linecap:round; stroke-linejoin:round; stroke-width:2; stroke-opacity:0.1; fill:none" points="
  2104.9,1384.3 2104.9,47.2441 
  "/>
<polyline clip-path="url(#clip690)" style="stroke:#000000; stroke-linecap:round; stroke-linejoin:round; stroke-width:4; stroke-opacity:1; fill:none" points="
  354.915,1384.3 2352.76,1384.3 
  "/>
<polyline clip-path="url(#clip690)" style="stroke:#000000; stroke-linecap:round; stroke-linejoin:round; stroke-width:4; stroke-opacity:1; fill:none" points="
  687.794,1384.3 687.794,1365.4 
  "/>
<polyline clip-path="url(#clip690)" style="stroke:#000000; stroke-linecap:round; stroke-linejoin:round; stroke-width:4; stroke-opacity:1; fill:none" points="
  1042.07,1384.3 1042.07,1365.4 
  "/>
<polyline clip-path="url(#clip690)" style="stroke:#000000; stroke-linecap:round; stroke-linejoin:round; stroke-width:4; stroke-opacity:1; fill:none" points="
  1396.35,1384.3 1396.35,1365.4 
  "/>
<polyline clip-path="url(#clip690)" style="stroke:#000000; stroke-linecap:round; stroke-linejoin:round; stroke-width:4; stroke-opacity:1; fill:none" points="
  1750.63,1384.3 1750.63,1365.4 
  "/>
<polyline clip-path="url(#clip690)" style="stroke:#000000; stroke-linecap:round; stroke-linejoin:round; stroke-width:4; stroke-opacity:1; fill:none" points="
  2104.9,1384.3 2104.9,1365.4 
  "/>
<path clip-path="url(#clip690)" d="M604.582 1462.4 L616.041 1462.4 L616.041 1422.85 L603.575 1425.35 L603.575 1418.96 L615.971 1416.46 L622.985 1416.46 L622.985 1462.4 L634.443 1462.4 L634.443 1468.3 L604.582 1468.3 L604.582 1462.4 Z" fill="#000000" fill-rule="evenodd" fill-opacity="1" /><path clip-path="url(#clip690)" d="M648.818 1467.22 L648.818 1460.83 Q651.457 1462.08 654.165 1462.74 Q656.874 1463.4 659.478 1463.4 Q666.422 1463.4 670.068 1458.75 Q673.749 1454.06 674.27 1444.55 Q672.256 1447.54 669.165 1449.13 Q666.075 1450.73 662.325 1450.73 Q654.547 1450.73 649.999 1446.04 Q645.485 1441.32 645.485 1433.16 Q645.485 1425.18 650.207 1420.35 Q654.929 1415.52 662.777 1415.52 Q671.77 1415.52 676.492 1422.43 Q681.249 1429.31 681.249 1442.43 Q681.249 1454.69 675.415 1462.02 Q669.617 1469.31 659.79 1469.31 Q657.152 1469.31 654.443 1468.79 Q651.735 1468.27 648.818 1467.22 M662.777 1445.24 Q667.499 1445.24 670.242 1442.02 Q673.02 1438.79 673.02 1433.16 Q673.02 1427.57 670.242 1424.34 Q667.499 1421.08 662.777 1421.08 Q658.054 1421.08 655.277 1424.34 Q652.534 1427.57 652.534 1433.16 Q652.534 1438.79 655.277 1442.02 Q658.054 1445.24 662.777 1445.24 Z" fill="#000000" fill-rule="evenodd" fill-opacity="1" /><path clip-path="url(#clip690)" d="M708.853 1421.08 Q703.436 1421.08 700.693 1426.43 Q697.985 1431.74 697.985 1442.43 Q697.985 1453.09 700.693 1458.44 Q703.436 1463.75 708.853 1463.75 Q714.304 1463.75 717.012 1458.44 Q719.755 1453.09 719.755 1442.43 Q719.755 1431.74 717.012 1426.43 Q714.304 1421.08 708.853 1421.08 M708.853 1415.52 Q717.568 1415.52 722.151 1422.43 Q726.769 1429.31 726.769 1442.43 Q726.769 1455.52 722.151 1462.43 Q717.568 1469.31 708.853 1469.31 Q700.137 1469.31 695.519 1462.43 Q690.936 1455.52 690.936 1442.43 Q690.936 1429.31 695.519 1422.43 Q700.137 1415.52 708.853 1415.52 Z" fill="#000000" fill-rule="evenodd" fill-opacity="1" /><path clip-path="url(#clip690)" d="M754.096 1421.08 Q748.679 1421.08 745.936 1426.43 Q743.228 1431.74 743.228 1442.43 Q743.228 1453.09 745.936 1458.44 Q748.679 1463.75 754.096 1463.75 Q759.547 1463.75 762.255 1458.44 Q764.998 1453.09 764.998 1442.43 Q764.998 1431.74 762.255 1426.43 Q759.547 1421.08 754.096 1421.08 M754.096 1415.52 Q762.811 1415.52 767.394 1422.43 Q772.012 1429.31 772.012 1442.43 Q772.012 1455.52 767.394 1462.43 Q762.811 1469.31 754.096 1469.31 Q745.38 1469.31 740.762 1462.43 Q736.179 1455.52 736.179 1442.43 Q736.179 1429.31 740.762 1422.43 Q745.38 1415.52 754.096 1415.52 Z" fill="#000000" fill-rule="evenodd" fill-opacity="1" /><path clip-path="url(#clip690)" d="M959.606 1462.4 L971.065 1462.4 L971.065 1422.85 L958.599 1425.35 L958.599 1418.96 L970.995 1416.46 L978.009 1416.46 L978.009 1462.4 L989.467 1462.4 L989.467 1468.3 L959.606 1468.3 L959.606 1462.4 Z" fill="#000000" fill-rule="evenodd" fill-opacity="1" /><path clip-path="url(#clip690)" d="M1003.84 1467.22 L1003.84 1460.83 Q1006.48 1462.08 1009.19 1462.74 Q1011.9 1463.4 1014.5 1463.4 Q1021.45 1463.4 1025.09 1458.75 Q1028.77 1454.06 1029.29 1444.55 Q1027.28 1447.54 1024.19 1449.13 Q1021.1 1450.73 1017.35 1450.73 Q1009.57 1450.73 1005.02 1446.04 Q1000.51 1441.32 1000.51 1433.16 Q1000.51 1425.18 1005.23 1420.35 Q1009.95 1415.52 1017.8 1415.52 Q1026.79 1415.52 1031.52 1422.43 Q1036.27 1429.31 1036.27 1442.43 Q1036.27 1454.69 1030.44 1462.02 Q1024.64 1469.31 1014.81 1469.31 Q1012.18 1469.31 1009.47 1468.79 Q1006.76 1468.27 1003.84 1467.22 M1017.8 1445.24 Q1022.52 1445.24 1025.27 1442.02 Q1028.04 1438.79 1028.04 1433.16 Q1028.04 1427.57 1025.27 1424.34 Q1022.52 1421.08 1017.8 1421.08 Q1013.08 1421.08 1010.3 1424.34 Q1007.56 1427.57 1007.56 1433.16 Q1007.56 1438.79 1010.3 1442.02 Q1013.08 1445.24 1017.8 1445.24 Z" fill="#000000" fill-rule="evenodd" fill-opacity="1" /><path clip-path="url(#clip690)" d="M1054.92 1462.4 L1079.4 1462.4 L1079.4 1468.3 L1046.48 1468.3 L1046.48 1462.4 Q1050.47 1458.27 1057.35 1451.32 Q1064.26 1444.34 1066.03 1442.33 Q1069.4 1438.54 1070.72 1435.94 Q1072.07 1433.3 1072.07 1430.77 Q1072.07 1426.63 1069.15 1424.03 Q1066.27 1421.43 1061.62 1421.43 Q1058.32 1421.43 1054.64 1422.57 Q1050.99 1423.72 1046.83 1426.04 L1046.83 1418.96 Q1051.06 1417.26 1054.74 1416.39 Q1058.43 1415.52 1061.48 1415.52 Q1069.54 1415.52 1074.33 1419.55 Q1079.12 1423.58 1079.12 1430.31 Q1079.12 1433.51 1077.9 1436.39 Q1076.72 1439.24 1073.56 1443.13 Q1072.7 1444.13 1068.04 1448.96 Q1063.39 1453.75 1054.92 1462.4 Z" fill="#000000" fill-rule="evenodd" fill-opacity="1" /><path clip-path="url(#clip690)" d="M1094.19 1416.46 L1121.72 1416.46 L1121.72 1422.36 L1100.61 1422.36 L1100.61 1435.07 Q1102.14 1434.55 1103.67 1434.31 Q1105.2 1434.03 1106.72 1434.03 Q1115.4 1434.03 1120.47 1438.79 Q1125.54 1443.54 1125.54 1451.67 Q1125.54 1460.04 1120.33 1464.69 Q1115.13 1469.31 1105.65 1469.31 Q1102.38 1469.31 1098.98 1468.75 Q1095.61 1468.2 1092 1467.08 L1092 1460.04 Q1095.13 1461.74 1098.46 1462.57 Q1101.79 1463.4 1105.51 1463.4 Q1111.52 1463.4 1115.02 1460.24 Q1118.53 1457.08 1118.53 1451.67 Q1118.53 1446.25 1115.02 1443.09 Q1111.52 1439.93 1105.51 1439.93 Q1102.7 1439.93 1099.88 1440.56 Q1097.11 1441.18 1094.19 1442.5 L1094.19 1416.46 Z" fill="#000000" fill-rule="evenodd" fill-opacity="1" /><path clip-path="url(#clip690)" d="M1313.14 1462.4 L1324.6 1462.4 L1324.6 1422.85 L1312.13 1425.35 L1312.13 1418.96 L1324.53 1416.46 L1331.54 1416.46 L1331.54 1462.4 L1343 1462.4 L1343 1468.3 L1313.14 1468.3 L1313.14 1462.4 Z" fill="#000000" fill-rule="evenodd" fill-opacity="1" /><path clip-path="url(#clip690)" d="M1357.37 1467.22 L1357.37 1460.83 Q1360.01 1462.08 1362.72 1462.74 Q1365.43 1463.4 1368.03 1463.4 Q1374.98 1463.4 1378.62 1458.75 Q1382.3 1454.06 1382.82 1444.55 Q1380.81 1447.54 1377.72 1449.13 Q1374.63 1450.73 1370.88 1450.73 Q1363.1 1450.73 1358.55 1446.04 Q1354.04 1441.32 1354.04 1433.16 Q1354.04 1425.18 1358.76 1420.35 Q1363.48 1415.52 1371.33 1415.52 Q1380.32 1415.52 1385.05 1422.43 Q1389.8 1429.31 1389.8 1442.43 Q1389.8 1454.69 1383.97 1462.02 Q1378.17 1469.31 1368.35 1469.31 Q1365.71 1469.31 1363 1468.79 Q1360.29 1468.27 1357.37 1467.22 M1371.33 1445.24 Q1376.05 1445.24 1378.8 1442.02 Q1381.57 1438.79 1381.57 1433.16 Q1381.57 1427.57 1378.8 1424.34 Q1376.05 1421.08 1371.33 1421.08 Q1366.61 1421.08 1363.83 1424.34 Q1361.09 1427.57 1361.09 1433.16 Q1361.09 1438.79 1363.83 1442.02 Q1366.61 1445.24 1371.33 1445.24 Z" fill="#000000" fill-rule="evenodd" fill-opacity="1" /><path clip-path="url(#clip690)" d="M1402.48 1416.46 L1430.01 1416.46 L1430.01 1422.36 L1408.9 1422.36 L1408.9 1435.07 Q1410.43 1434.55 1411.96 1434.31 Q1413.48 1434.03 1415.01 1434.03 Q1423.69 1434.03 1428.76 1438.79 Q1433.83 1443.54 1433.83 1451.67 Q1433.83 1460.04 1428.62 1464.69 Q1423.41 1469.31 1413.94 1469.31 Q1410.67 1469.31 1407.27 1468.75 Q1403.9 1468.2 1400.29 1467.08 L1400.29 1460.04 Q1403.41 1461.74 1406.75 1462.57 Q1410.08 1463.4 1413.8 1463.4 Q1419.8 1463.4 1423.31 1460.24 Q1426.82 1457.08 1426.82 1451.67 Q1426.82 1446.25 1423.31 1443.09 Q1419.8 1439.93 1413.8 1439.93 Q1410.98 1439.93 1408.17 1440.56 Q1405.39 1441.18 1402.48 1442.5 L1402.48 1416.46 Z" fill="#000000" fill-rule="evenodd" fill-opacity="1" /><path clip-path="url(#clip690)" d="M1462.65 1421.08 Q1457.23 1421.08 1454.49 1426.43 Q1451.78 1431.74 1451.78 1442.43 Q1451.78 1453.09 1454.49 1458.44 Q1457.23 1463.75 1462.65 1463.75 Q1468.1 1463.75 1470.81 1458.44 Q1473.55 1453.09 1473.55 1442.43 Q1473.55 1431.74 1470.81 1426.43 Q1468.1 1421.08 1462.65 1421.08 M1462.65 1415.52 Q1471.37 1415.52 1475.95 1422.43 Q1480.57 1429.31 1480.57 1442.43 Q1480.57 1455.52 1475.95 1462.43 Q1471.37 1469.31 1462.65 1469.31 Q1453.94 1469.31 1449.32 1462.43 Q1444.73 1455.52 1444.73 1442.43 Q1444.73 1429.31 1449.32 1422.43 Q1453.94 1415.52 1462.65 1415.52 Z" fill="#000000" fill-rule="evenodd" fill-opacity="1" /><path clip-path="url(#clip690)" d="M1668.16 1462.4 L1679.62 1462.4 L1679.62 1422.85 L1667.15 1425.35 L1667.15 1418.96 L1679.55 1416.46 L1686.56 1416.46 L1686.56 1462.4 L1698.02 1462.4 L1698.02 1468.3 L1668.16 1468.3 L1668.16 1462.4 Z" fill="#000000" fill-rule="evenodd" fill-opacity="1" /><path clip-path="url(#clip690)" d="M1712.4 1467.22 L1712.4 1460.83 Q1715.04 1462.08 1717.74 1462.74 Q1720.45 1463.4 1723.06 1463.4 Q1730 1463.4 1733.65 1458.75 Q1737.33 1454.06 1737.85 1444.55 Q1735.83 1447.54 1732.74 1449.13 Q1729.65 1450.73 1725.9 1450.73 Q1718.13 1450.73 1713.58 1446.04 Q1709.06 1441.32 1709.06 1433.16 Q1709.06 1425.18 1713.79 1420.35 Q1718.51 1415.52 1726.36 1415.52 Q1735.35 1415.52 1740.07 1422.43 Q1744.83 1429.31 1744.83 1442.43 Q1744.83 1454.69 1738.99 1462.02 Q1733.2 1469.31 1723.37 1469.31 Q1720.73 1469.31 1718.02 1468.79 Q1715.31 1468.27 1712.4 1467.22 M1726.36 1445.24 Q1731.08 1445.24 1733.82 1442.02 Q1736.6 1438.79 1736.6 1433.16 Q1736.6 1427.57 1733.82 1424.34 Q1731.08 1421.08 1726.36 1421.08 Q1721.63 1421.08 1718.86 1424.34 Q1716.11 1427.57 1716.11 1433.16 Q1716.11 1438.79 1718.86 1442.02 Q1721.63 1445.24 1726.36 1445.24 Z" fill="#000000" fill-rule="evenodd" fill-opacity="1" /><path clip-path="url(#clip690)" d="M1755.66 1416.46 L1788.99 1416.46 L1788.99 1419.45 L1770.17 1468.3 L1762.85 1468.3 L1780.56 1422.36 L1755.66 1422.36 L1755.66 1416.46 Z" fill="#000000" fill-rule="evenodd" fill-opacity="1" /><path clip-path="url(#clip690)" d="M1802.74 1416.46 L1830.28 1416.46 L1830.28 1422.36 L1809.17 1422.36 L1809.17 1435.07 Q1810.7 1434.55 1812.22 1434.31 Q1813.75 1434.03 1815.28 1434.03 Q1823.96 1434.03 1829.03 1438.79 Q1834.1 1443.54 1834.1 1451.67 Q1834.1 1460.04 1828.89 1464.69 Q1823.68 1469.31 1814.2 1469.31 Q1810.94 1469.31 1807.54 1468.75 Q1804.17 1468.2 1800.56 1467.08 L1800.56 1460.04 Q1803.68 1461.74 1807.01 1462.57 Q1810.35 1463.4 1814.06 1463.4 Q1820.07 1463.4 1823.58 1460.24 Q1827.08 1457.08 1827.08 1451.67 Q1827.08 1446.25 1823.58 1443.09 Q1820.07 1439.93 1814.06 1439.93 Q1811.25 1439.93 1808.44 1440.56 Q1805.66 1441.18 1802.74 1442.5 L1802.74 1416.46 Z" fill="#000000" fill-rule="evenodd" fill-opacity="1" /><path clip-path="url(#clip690)" d="M2027.82 1462.4 L2052.3 1462.4 L2052.3 1468.3 L2019.38 1468.3 L2019.38 1462.4 Q2023.38 1458.27 2030.25 1451.32 Q2037.16 1444.34 2038.93 1442.33 Q2042.3 1438.54 2043.62 1435.94 Q2044.97 1433.3 2044.97 1430.77 Q2044.97 1426.63 2042.06 1424.03 Q2039.17 1421.43 2034.52 1421.43 Q2031.22 1421.43 2027.54 1422.57 Q2023.9 1423.72 2019.73 1426.04 L2019.73 1418.96 Q2023.97 1417.26 2027.65 1416.39 Q2031.33 1415.52 2034.38 1415.52 Q2042.44 1415.52 2047.23 1419.55 Q2052.02 1423.58 2052.02 1430.31 Q2052.02 1433.51 2050.81 1436.39 Q2049.63 1439.24 2046.47 1443.13 Q2045.6 1444.13 2040.95 1448.96 Q2036.29 1453.75 2027.82 1462.4 Z" fill="#000000" fill-rule="evenodd" fill-opacity="1" /><path clip-path="url(#clip690)" d="M2082.02 1421.08 Q2076.6 1421.08 2073.86 1426.43 Q2071.15 1431.74 2071.15 1442.43 Q2071.15 1453.09 2073.86 1458.44 Q2076.6 1463.75 2082.02 1463.75 Q2087.47 1463.75 2090.18 1458.44 Q2092.92 1453.09 2092.92 1442.43 Q2092.92 1431.74 2090.18 1426.43 Q2087.47 1421.08 2082.02 1421.08 M2082.02 1415.52 Q2090.74 1415.52 2095.32 1422.43 Q2099.94 1429.31 2099.94 1442.43 Q2099.94 1455.52 2095.32 1462.43 Q2090.74 1469.31 2082.02 1469.31 Q2073.31 1469.31 2068.69 1462.43 Q2064.11 1455.52 2064.11 1442.43 Q2064.11 1429.31 2068.69 1422.43 Q2073.31 1415.52 2082.02 1415.52 Z" fill="#000000" fill-rule="evenodd" fill-opacity="1" /><path clip-path="url(#clip690)" d="M2127.26 1421.08 Q2121.85 1421.08 2119.1 1426.43 Q2116.4 1431.74 2116.4 1442.43 Q2116.4 1453.09 2119.1 1458.44 Q2121.85 1463.75 2127.26 1463.75 Q2132.72 1463.75 2135.42 1458.44 Q2138.17 1453.09 2138.17 1442.43 Q2138.17 1431.74 2135.42 1426.43 Q2132.72 1421.08 2127.26 1421.08 M2127.26 1415.52 Q2135.98 1415.52 2140.56 1422.43 Q2145.18 1429.31 2145.18 1442.43 Q2145.18 1455.52 2140.56 1462.43 Q2135.98 1469.31 2127.26 1469.31 Q2118.55 1469.31 2113.93 1462.43 Q2109.35 1455.52 2109.35 1442.43 Q2109.35 1429.31 2113.93 1422.43 Q2118.55 1415.52 2127.26 1415.52 Z" fill="#000000" fill-rule="evenodd" fill-opacity="1" /><path clip-path="url(#clip690)" d="M2172.51 1421.08 Q2167.09 1421.08 2164.35 1426.43 Q2161.64 1431.74 2161.64 1442.43 Q2161.64 1453.09 2164.35 1458.44 Q2167.09 1463.75 2172.51 1463.75 Q2177.96 1463.75 2180.67 1458.44 Q2183.41 1453.09 2183.41 1442.43 Q2183.41 1431.74 2180.67 1426.43 Q2177.96 1421.08 2172.51 1421.08 M2172.51 1415.52 Q2181.22 1415.52 2185.81 1422.43 Q2190.42 1429.31 2190.42 1442.43 Q2190.42 1455.52 2185.81 1462.43 Q2181.22 1469.31 2172.51 1469.31 Q2163.79 1469.31 2159.17 1462.43 Q2154.59 1455.52 2154.59 1442.43 Q2154.59 1429.31 2159.17 1422.43 Q2163.79 1415.52 2172.51 1415.52 Z" fill="#000000" fill-rule="evenodd" fill-opacity="1" /><path clip-path="url(#clip690)" d="M1253.37 1511.88 L1263.42 1511.88 L1282.59 1540.31 L1301.61 1511.88 L1311.66 1511.88 L1287.22 1548.09 L1287.22 1581 L1277.82 1581 L1277.82 1548.09 L1253.37 1511.88 Z" fill="#000000" fill-rule="evenodd" fill-opacity="1" /><path clip-path="url(#clip690)" d="M1352.17 1552.95 L1352.17 1557.12 L1313 1557.12 Q1313.56 1565.91 1318.28 1570.54 Q1323.05 1575.12 1331.52 1575.12 Q1336.43 1575.12 1341.01 1573.92 Q1345.64 1572.72 1350.18 1570.31 L1350.18 1578.36 Q1345.59 1580.31 1340.78 1581.33 Q1335.97 1582.35 1331.01 1582.35 Q1318.6 1582.35 1311.34 1575.12 Q1304.11 1567.9 1304.11 1555.59 Q1304.11 1542.86 1310.97 1535.4 Q1317.86 1527.9 1329.53 1527.9 Q1339.99 1527.9 1346.06 1534.66 Q1352.17 1541.37 1352.17 1552.95 M1343.65 1550.45 Q1343.56 1543.46 1339.72 1539.29 Q1335.92 1535.12 1329.62 1535.12 Q1322.49 1535.12 1318.19 1539.15 Q1313.93 1543.18 1313.28 1550.49 L1343.65 1550.45 Z" fill="#000000" fill-rule="evenodd" fill-opacity="1" /><path clip-path="url(#clip690)" d="M1389.71 1554.94 Q1379.39 1554.94 1375.41 1557.3 Q1371.43 1559.66 1371.43 1565.36 Q1371.43 1569.89 1374.39 1572.58 Q1377.4 1575.22 1382.54 1575.22 Q1389.62 1575.22 1393.88 1570.22 Q1398.19 1565.17 1398.19 1556.84 L1398.19 1554.94 L1389.71 1554.94 M1406.71 1551.42 L1406.71 1581 L1398.19 1581 L1398.19 1573.13 Q1395.27 1577.86 1390.92 1580.12 Q1386.57 1582.35 1380.27 1582.35 Q1372.31 1582.35 1367.59 1577.9 Q1362.91 1573.41 1362.91 1565.91 Q1362.91 1557.16 1368.74 1552.72 Q1374.62 1548.27 1386.24 1548.27 L1398.19 1548.27 L1398.19 1547.44 Q1398.19 1541.56 1394.3 1538.37 Q1390.46 1535.12 1383.46 1535.12 Q1379.02 1535.12 1374.81 1536.19 Q1370.59 1537.25 1366.71 1539.38 L1366.71 1531.51 Q1371.38 1529.71 1375.78 1528.83 Q1380.18 1527.9 1384.34 1527.9 Q1395.59 1527.9 1401.15 1533.74 Q1406.71 1539.57 1406.71 1551.42 Z" fill="#000000" fill-rule="evenodd" fill-opacity="1" /><path clip-path="url(#clip690)" d="M1454.3 1537.12 Q1452.86 1536.28 1451.15 1535.91 Q1449.48 1535.49 1447.45 1535.49 Q1440.22 1535.49 1436.33 1540.22 Q1432.49 1544.89 1432.49 1553.69 L1432.49 1581 L1423.93 1581 L1423.93 1529.15 L1432.49 1529.15 L1432.49 1537.21 Q1435.18 1532.49 1439.48 1530.22 Q1443.79 1527.9 1449.95 1527.9 Q1450.83 1527.9 1451.89 1528.04 Q1452.96 1528.13 1454.25 1528.37 L1454.3 1537.12 Z" fill="#000000" fill-rule="evenodd" fill-opacity="1" /><polyline clip-path="url(#clip692)" style="stroke:#000000; stroke-linecap:round; stroke-linejoin:round; stroke-width:2; stroke-opacity:0.1; fill:none" points="
  354.915,1321.82 2352.76,1321.82 
  "/>
<polyline clip-path="url(#clip692)" style="stroke:#000000; stroke-linecap:round; stroke-linejoin:round; stroke-width:2; stroke-opacity:0.1; fill:none" points="
  354.915,951.196 2352.76,951.196 
  "/>
<polyline clip-path="url(#clip692)" style="stroke:#000000; stroke-linecap:round; stroke-linejoin:round; stroke-width:2; stroke-opacity:0.1; fill:none" points="
  354.915,580.57 2352.76,580.57 
  "/>
<polyline clip-path="url(#clip692)" style="stroke:#000000; stroke-linecap:round; stroke-linejoin:round; stroke-width:2; stroke-opacity:0.1; fill:none" points="
  354.915,209.945 2352.76,209.945 
  "/>
<polyline clip-path="url(#clip690)" style="stroke:#000000; stroke-linecap:round; stroke-linejoin:round; stroke-width:4; stroke-opacity:1; fill:none" points="
  354.915,1384.3 354.915,47.2441 
  "/>
<polyline clip-path="url(#clip690)" style="stroke:#000000; stroke-linecap:round; stroke-linejoin:round; stroke-width:4; stroke-opacity:1; fill:none" points="
  354.915,1321.82 373.812,1321.82 
  "/>
<polyline clip-path="url(#clip690)" style="stroke:#000000; stroke-linecap:round; stroke-linejoin:round; stroke-width:4; stroke-opacity:1; fill:none" points="
  354.915,951.196 373.812,951.196 
  "/>
<polyline clip-path="url(#clip690)" style="stroke:#000000; stroke-linecap:round; stroke-linejoin:round; stroke-width:4; stroke-opacity:1; fill:none" points="
  354.915,580.57 373.812,580.57 
  "/>
<polyline clip-path="url(#clip690)" style="stroke:#000000; stroke-linecap:round; stroke-linejoin:round; stroke-width:4; stroke-opacity:1; fill:none" points="
  354.915,209.945 373.812,209.945 
  "/>
<path clip-path="url(#clip690)" d="M135.86 1322.5 L180.374 1322.5 L180.374 1328.4 L135.86 1328.4 L135.86 1322.5 Z" fill="#000000" fill-rule="evenodd" fill-opacity="1" /><path clip-path="url(#clip690)" d="M201.554 1341.84 L226.033 1341.84 L226.033 1347.74 L193.117 1347.74 L193.117 1341.84 Q197.11 1337.71 203.985 1330.76 Q210.894 1323.78 212.665 1321.77 Q216.033 1317.98 217.353 1315.38 Q218.707 1312.74 218.707 1310.21 Q218.707 1306.08 215.79 1303.47 Q212.908 1300.87 208.256 1300.87 Q204.957 1300.87 201.276 1302.01 Q197.631 1303.16 193.464 1305.48 L193.464 1298.4 Q197.7 1296.7 201.381 1295.83 Q205.061 1294.96 208.117 1294.96 Q216.172 1294.96 220.964 1298.99 Q225.756 1303.02 225.756 1309.76 Q225.756 1312.95 224.54 1315.83 Q223.36 1318.68 220.2 1322.57 Q219.332 1323.58 214.679 1328.4 Q210.026 1333.19 201.554 1341.84 Z" fill="#000000" fill-rule="evenodd" fill-opacity="1" /><path clip-path="url(#clip690)" d="M255.755 1300.52 Q250.339 1300.52 247.596 1305.87 Q244.887 1311.18 244.887 1321.87 Q244.887 1332.53 247.596 1337.88 Q250.339 1343.19 255.755 1343.19 Q261.207 1343.19 263.915 1337.88 Q266.658 1332.53 266.658 1321.87 Q266.658 1311.18 263.915 1305.87 Q261.207 1300.52 255.755 1300.52 M255.755 1294.96 Q264.471 1294.96 269.054 1301.87 Q273.672 1308.75 273.672 1321.87 Q273.672 1334.96 269.054 1341.87 Q264.471 1348.75 255.755 1348.75 Q247.04 1348.75 242.422 1341.87 Q237.839 1334.96 237.839 1321.87 Q237.839 1308.75 242.422 1301.87 Q247.04 1294.96 255.755 1294.96 Z" fill="#000000" fill-rule="evenodd" fill-opacity="1" /><path clip-path="url(#clip690)" d="M300.998 1300.52 Q295.582 1300.52 292.838 1305.87 Q290.13 1311.18 290.13 1321.87 Q290.13 1332.53 292.838 1337.88 Q295.582 1343.19 300.998 1343.19 Q306.45 1343.19 309.158 1337.88 Q311.901 1332.53 311.901 1321.87 Q311.901 1311.18 309.158 1305.87 Q306.45 1300.52 300.998 1300.52 M300.998 1294.96 Q309.713 1294.96 314.297 1301.87 Q318.915 1308.75 318.915 1321.87 Q318.915 1334.96 314.297 1341.87 Q309.713 1348.75 300.998 1348.75 Q292.283 1348.75 287.665 1341.87 Q283.082 1334.96 283.082 1321.87 Q283.082 1308.75 287.665 1301.87 Q292.283 1294.96 300.998 1294.96 Z" fill="#000000" fill-rule="evenodd" fill-opacity="1" /><path clip-path="url(#clip690)" d="M135.86 951.873 L180.374 951.873 L180.374 957.776 L135.86 957.776 L135.86 951.873 Z" fill="#000000" fill-rule="evenodd" fill-opacity="1" /><path clip-path="url(#clip690)" d="M196.728 971.213 L208.186 971.213 L208.186 931.665 L195.721 934.165 L195.721 927.776 L208.117 925.276 L215.131 925.276 L215.131 971.213 L226.589 971.213 L226.589 977.116 L196.728 977.116 L196.728 971.213 Z" fill="#000000" fill-rule="evenodd" fill-opacity="1" /><path clip-path="url(#clip690)" d="M255.755 929.894 Q250.339 929.894 247.596 935.241 Q244.887 940.554 244.887 951.248 Q244.887 961.908 247.596 967.255 Q250.339 972.567 255.755 972.567 Q261.207 972.567 263.915 967.255 Q266.658 961.908 266.658 951.248 Q266.658 940.554 263.915 935.241 Q261.207 929.894 255.755 929.894 M255.755 924.338 Q264.471 924.338 269.054 931.248 Q273.672 938.123 273.672 951.248 Q273.672 964.338 269.054 971.248 Q264.471 978.123 255.755 978.123 Q247.04 978.123 242.422 971.248 Q237.839 964.338 237.839 951.248 Q237.839 938.123 242.422 931.248 Q247.04 924.338 255.755 924.338 Z" fill="#000000" fill-rule="evenodd" fill-opacity="1" /><path clip-path="url(#clip690)" d="M300.998 929.894 Q295.582 929.894 292.838 935.241 Q290.13 940.554 290.13 951.248 Q290.13 961.908 292.838 967.255 Q295.582 972.567 300.998 972.567 Q306.45 972.567 309.158 967.255 Q311.901 961.908 311.901 951.248 Q311.901 940.554 309.158 935.241 Q306.45 929.894 300.998 929.894 M300.998 924.338 Q309.713 924.338 314.297 931.248 Q318.915 938.123 318.915 951.248 Q318.915 964.338 314.297 971.248 Q309.713 978.123 300.998 978.123 Q292.283 978.123 287.665 971.248 Q283.082 964.338 283.082 951.248 Q283.082 938.123 287.665 931.248 Q292.283 924.338 300.998 924.338 Z" fill="#000000" fill-rule="evenodd" fill-opacity="1" /><path clip-path="url(#clip690)" d="M300.998 559.268 Q295.582 559.268 292.838 564.616 Q290.13 569.928 290.13 580.622 Q290.13 591.282 292.838 596.629 Q295.582 601.942 300.998 601.942 Q306.45 601.942 309.158 596.629 Q311.901 591.282 311.901 580.622 Q311.901 569.928 309.158 564.616 Q306.45 559.268 300.998 559.268 M300.998 553.713 Q309.713 553.713 314.297 560.623 Q318.915 567.497 318.915 580.622 Q318.915 593.713 314.297 600.622 Q309.713 607.497 300.998 607.497 Q292.283 607.497 287.665 600.622 Q283.082 593.713 283.082 580.622 Q283.082 567.497 287.665 560.623 Q292.283 553.713 300.998 553.713 Z" fill="#000000" fill-rule="evenodd" fill-opacity="1" /><path clip-path="url(#clip690)" d="M196.728 229.962 L208.186 229.962 L208.186 190.414 L195.721 192.913 L195.721 186.525 L208.117 184.025 L215.131 184.025 L215.131 229.962 L226.589 229.962 L226.589 235.865 L196.728 235.865 L196.728 229.962 Z" fill="#000000" fill-rule="evenodd" fill-opacity="1" /><path clip-path="url(#clip690)" d="M255.755 188.643 Q250.339 188.643 247.596 193.99 Q244.887 199.302 244.887 209.997 Q244.887 220.656 247.596 226.004 Q250.339 231.316 255.755 231.316 Q261.207 231.316 263.915 226.004 Q266.658 220.656 266.658 209.997 Q266.658 199.302 263.915 193.99 Q261.207 188.643 255.755 188.643 M255.755 183.087 Q264.471 183.087 269.054 189.997 Q273.672 196.872 273.672 209.997 Q273.672 223.087 269.054 229.997 Q264.471 236.872 255.755 236.872 Q247.04 236.872 242.422 229.997 Q237.839 223.087 237.839 209.997 Q237.839 196.872 242.422 189.997 Q247.04 183.087 255.755 183.087 Z" fill="#000000" fill-rule="evenodd" fill-opacity="1" /><path clip-path="url(#clip690)" d="M300.998 188.643 Q295.582 188.643 292.838 193.99 Q290.13 199.302 290.13 209.997 Q290.13 220.656 292.838 226.004 Q295.582 231.316 300.998 231.316 Q306.45 231.316 309.158 226.004 Q311.901 220.656 311.901 209.997 Q311.901 199.302 309.158 193.99 Q306.45 188.643 300.998 188.643 M300.998 183.087 Q309.713 183.087 314.297 189.997 Q318.915 196.872 318.915 209.997 Q318.915 223.087 314.297 229.997 Q309.713 236.872 300.998 236.872 Q292.283 236.872 287.665 229.997 Q283.082 223.087 283.082 209.997 Q283.082 196.872 287.665 189.997 Q292.283 183.087 300.998 183.087 Z" fill="#000000" fill-rule="evenodd" fill-opacity="1" /><path clip-path="url(#clip690)" d="M69.2631 936.488 L50.6984 936.488 L50.6984 951.766 L43.0132 951.766 L43.0132 927.229 L72.689 927.229 Q76.5316 932.646 78.5223 939.174 Q80.4667 945.701 80.4667 953.109 Q80.4667 969.312 71.0223 978.479 Q61.5317 987.599 44.6336 987.599 Q27.6892 987.599 18.2449 978.479 Q8.75416 969.312 8.75416 953.109 Q8.75416 946.349 10.4208 940.285 Q12.0875 934.174 15.3282 929.035 L25.2819 929.035 Q20.8837 934.22 18.6615 940.053 Q16.4393 945.886 16.4393 952.322 Q16.4393 965.007 23.5226 971.396 Q30.6059 977.738 44.6336 977.738 Q58.615 977.738 65.6983 971.396 Q72.7816 965.007 72.7816 952.322 Q72.7816 947.368 71.9483 943.479 Q71.0686 939.59 69.2631 936.488 Z" fill="#000000" fill-rule="evenodd" fill-opacity="1" /><path clip-path="url(#clip690)" d="M10.0042 910.146 L10.0042 896.211 L57.0409 878.572 L10.0042 860.841 L10.0042 846.906 L79.1242 846.906 L79.1242 856.026 L18.43 856.026 L65.8372 873.85 L65.8372 883.248 L18.43 901.072 L79.1242 901.072 L79.1242 910.146 L10.0042 910.146 Z" fill="#000000" fill-rule="evenodd" fill-opacity="1" /><path clip-path="url(#clip690)" d="M12.2727 786.906 L21.393 786.906 Q18.8467 792.23 17.5967 796.952 Q16.3467 801.674 16.3467 806.072 Q16.3467 813.711 19.3097 817.878 Q22.2726 821.998 27.7355 821.998 Q32.3189 821.998 34.68 819.267 Q36.9948 816.489 38.4299 808.804 L39.5873 803.156 Q41.5781 792.693 46.6243 787.739 Q51.6243 782.739 60.0502 782.739 Q70.0964 782.739 75.2816 789.498 Q80.4667 796.211 80.4667 809.221 Q80.4667 814.128 79.3556 819.683 Q78.2445 825.193 76.0686 831.119 L66.439 831.119 Q69.6335 825.424 71.2538 819.961 Q72.8742 814.498 72.8742 809.221 Q72.8742 801.211 69.7261 796.859 Q66.5779 792.508 60.7446 792.508 Q55.6521 792.508 52.7817 795.656 Q49.9114 798.758 48.4762 805.887 L47.3651 811.582 Q45.2817 822.045 40.8373 826.72 Q36.3929 831.396 28.4763 831.396 Q19.3097 831.396 14.0319 824.961 Q8.75416 818.48 8.75416 807.137 Q8.75416 802.276 9.63379 797.23 Q10.5134 792.184 12.2727 786.906 Z" fill="#000000" fill-rule="evenodd" fill-opacity="1" /><path clip-path="url(#clip690)" d="M10.0042 768.156 L10.0042 758.804 L71.2538 758.804 L71.2538 725.147 L79.1242 725.147 L79.1242 768.156 L10.0042 768.156 Z" fill="#000000" fill-rule="evenodd" fill-opacity="1" /><path clip-path="url(#clip690)" d="M7.1801 665.101 Q17.8282 671.305 28.2448 674.314 Q38.6614 677.323 49.3558 677.323 Q60.0502 677.323 70.5594 674.314 Q81.0223 671.258 91.6241 665.101 L91.6241 672.508 Q80.7445 679.453 70.2353 682.925 Q59.7261 686.351 49.3558 686.351 Q39.0318 686.351 28.5689 682.925 Q18.106 679.499 7.1801 672.508 L7.1801 665.101 Z" fill="#000000" fill-rule="evenodd" fill-opacity="1" /><path clip-path="url(#clip690)" d="M37.2262 608.203 Q31.4855 605.009 28.7541 600.564 Q26.0226 596.12 26.0226 590.101 Q26.0226 582 31.717 577.601 Q37.3651 573.203 47.828 573.203 L79.1242 573.203 L79.1242 581.768 L48.1058 581.768 Q40.6521 581.768 37.041 584.407 Q33.43 587.046 33.43 592.462 Q33.43 599.083 37.8281 602.925 Q42.2262 606.768 49.8188 606.768 L79.1242 606.768 L79.1242 615.333 L48.1058 615.333 Q40.6058 615.333 37.041 617.972 Q33.43 620.61 33.43 626.12 Q33.43 632.647 37.8744 636.49 Q42.2725 640.333 49.8188 640.333 L79.1242 640.333 L79.1242 648.897 L27.2726 648.897 L27.2726 640.333 L35.3281 640.333 Q30.5596 637.416 28.2911 633.342 Q26.0226 629.268 26.0226 623.666 Q26.0226 618.018 28.8929 614.083 Q31.7633 610.101 37.2262 608.203 Z" fill="#000000" fill-rule="evenodd" fill-opacity="1" /><path clip-path="url(#clip690)" d="M37.2262 515.842 Q31.4855 512.648 28.7541 508.204 Q26.0226 503.759 26.0226 497.741 Q26.0226 489.639 31.717 485.241 Q37.3651 480.843 47.828 480.843 L79.1242 480.843 L79.1242 489.407 L48.1058 489.407 Q40.6521 489.407 37.041 492.046 Q33.43 494.685 33.43 500.102 Q33.43 506.722 37.8281 510.565 Q42.2262 514.407 49.8188 514.407 L79.1242 514.407 L79.1242 522.972 L48.1058 522.972 Q40.6058 522.972 37.041 525.611 Q33.43 528.25 33.43 533.759 Q33.43 540.287 37.8744 544.129 Q42.2725 547.972 49.8188 547.972 L79.1242 547.972 L79.1242 556.537 L27.2726 556.537 L27.2726 547.972 L35.3281 547.972 Q30.5596 545.055 28.2911 540.981 Q26.0226 536.907 26.0226 531.305 Q26.0226 525.657 28.8929 521.722 Q31.7633 517.741 37.2262 515.842 Z" fill="#000000" fill-rule="evenodd" fill-opacity="1" /><path clip-path="url(#clip690)" d="M7.1801 465.195 L7.1801 457.787 Q18.106 450.843 28.5689 447.417 Q39.0318 443.945 49.3558 443.945 Q59.7261 443.945 70.2353 447.417 Q80.7445 450.843 91.6241 457.787 L91.6241 465.195 Q81.0223 459.037 70.5594 456.028 Q60.0502 452.972 49.3558 452.972 Q38.6614 452.972 28.2448 456.028 Q17.8282 459.037 7.1801 465.195 Z" fill="#000000" fill-rule="evenodd" fill-opacity="1" /><polyline clip-path="url(#clip692)" style="stroke:#009af9; stroke-linecap:round; stroke-linejoin:round; stroke-width:4; stroke-opacity:1; fill:none" points="
  411.457,1175.48 425.629,1252.73 439.8,1060.25 453.971,1254.58 468.142,1150.16 482.313,1317.65 496.484,1089.1 510.655,1221.34 524.826,1145.12 538.997,1044.47 
  553.168,1092.51 567.339,1194.66 581.511,1204.46 595.682,1106.67 609.853,1029.69 624.024,1103.44 638.195,1157.24 652.366,1028.72 666.537,1150.5 680.708,1227.84 
  694.879,1246.33 709.05,1108.51 723.222,1029.58 737.393,1179.05 751.564,1058.87 765.735,1051.89 779.906,1061.4 794.077,1145.19 808.248,911.038 822.419,1179.25 
  836.59,1102.78 850.761,1080.95 864.932,1058.44 879.104,1038.27 893.275,1110.42 907.446,1003.62 921.617,1042.97 935.788,1124.69 949.959,1045.73 964.13,1024.21 
  978.301,1022.84 992.472,988.194 1006.64,1047.67 1020.81,1000.28 1034.99,933.575 1049.16,990.841 1063.33,892.029 1077.5,974.757 1091.67,898.04 1105.84,1028.16 
  1120.01,1158.15 1134.18,1010.93 1148.35,844.447 1162.53,956.585 1176.7,931.88 1190.87,888.92 1205.04,755.441 1219.21,1091.11 1233.38,939.194 1247.55,933.807 
  1261.72,870.044 1275.89,756.87 1290.07,889.2 1304.24,920.945 1318.41,887.59 1332.58,780.959 1346.75,951.92 1360.92,944.446 1375.09,698.442 1389.26,874.044 
  1403.43,1076.71 1417.61,804.955 1431.78,810.803 1445.95,973.065 1460.12,968.601 1474.29,819.594 1488.46,790.339 1502.63,865.463 1516.8,878.531 1530.97,824.366 
  1545.15,839.013 1559.32,635.438 1573.49,926.875 1587.66,741.009 1601.83,716.207 1616,712.21 1630.17,817.502 1644.34,728.683 1658.51,646.174 1672.68,688.738 
  1686.86,787.978 1701.03,672.702 1715.2,848.917 1729.37,704.544 1743.54,681.766 1757.71,632.19 1771.88,675.899 1786.05,746.863 1800.22,575.822 1814.4,695.02 
  1828.57,788.748 1842.74,699.146 1856.91,614.874 1871.08,655.217 1885.25,593.636 1899.42,651.994 1913.59,653.191 1927.76,502.228 1941.94,488.884 1956.11,447.412 
  1970.28,771.404 1984.45,571.622 1998.62,671.324 2012.79,582.646 2026.96,615.113 2041.13,526.047 2055.3,648.961 2069.48,397.188 2083.65,525.429 2097.82,571.765 
  2111.99,585.051 2126.16,495.306 2140.33,543.237 2154.5,397.197 2168.67,338.648 2182.84,444.692 2197.02,658.12 2211.19,545.738 2225.36,553.269 2239.53,466.18 
  2253.7,317.064 2267.87,404.732 2282.04,399.148 2296.21,411.009 
  "/>
<polyline clip-path="url(#clip692)" style="stroke:#e26f46; stroke-linecap:round; stroke-linejoin:round; stroke-width:4; stroke-opacity:1; fill:none" points="
  411.457,1201.93 425.629,1048.45 439.8,1307.6 453.971,1267.19 468.142,1183.06 482.313,1138.23 496.484,1346.46 510.655,1247.11 524.826,1050.74 538.997,1208.09 
  553.168,1284.84 567.339,1117.17 581.511,1176.97 595.682,1243.21 609.853,1097.96 624.024,1157.52 638.195,1020.39 652.366,1002.81 666.537,1183.36 680.708,1154.96 
  694.879,1121.4 709.05,1213.2 723.222,1191.06 737.393,1104.77 751.564,1128.57 765.735,1217.64 779.906,1161.85 794.077,1042.22 808.248,1166.07 822.419,1071.59 
  836.59,1204.79 850.761,1153.47 864.932,988.865 879.104,1096.06 893.275,1049.69 907.446,1097.97 921.617,967.516 935.788,999.542 949.959,1170.55 964.13,1009.39 
  978.301,1093.5 992.472,1026.12 1006.64,1069.26 1020.81,848.257 1034.99,945.372 1049.16,990.946 1063.33,1017.12 1077.5,1085.09 1091.67,951.256 1105.84,973.671 
  1120.01,1090.08 1134.18,932.004 1148.35,1013.37 1162.53,1003.3 1176.7,1003.22 1190.87,1118.72 1205.04,1187.3 1219.21,845.517 1233.38,883.304 1247.55,1056.49 
  1261.72,995.983 1275.89,993.034 1290.07,962.118 1304.24,916.195 1318.41,905.772 1332.58,877.048 1346.75,847.986 1360.92,933.632 1375.09,940.965 1389.26,937.405 
  1403.43,959.803 1417.61,857.966 1431.78,919.983 1445.95,822.19 1460.12,945.841 1474.29,1031.64 1488.46,753.353 1502.63,1060.26 1516.8,823.511 1530.97,980.381 
  1545.15,818.277 1559.32,869.072 1573.49,779.251 1587.66,699.918 1601.83,817.705 1616,802.772 1630.17,714.332 1644.34,838.89 1658.51,906.871 1672.68,698.588 
  1686.86,704.593 1701.03,883.104 1715.2,742.224 1729.37,668.895 1743.54,741.091 1757.71,833.395 1771.88,757.141 1786.05,841.501 1800.22,750.358 1814.4,715.725 
  1828.57,662.937 1842.74,728.783 1856.91,677.141 1871.08,726.963 1885.25,724.358 1899.42,616.338 1913.59,782.95 1927.76,549.53 1941.94,697.558 1956.11,524.073 
  1970.28,508.436 1984.45,695.236 1998.62,774.804 2012.79,661.842 2026.96,508.503 2041.13,458.285 2055.3,492.192 2069.48,623.684 2083.65,441.203 2097.82,693.193 
  2111.99,407.306 2126.16,636.722 2140.33,490.955 2154.5,547.46 2168.67,488.489 2182.84,436.494 2197.02,556.477 2211.19,519.213 2225.36,646.011 2239.53,449.266 
  2253.7,439.574 2267.87,390.099 2282.04,435.844 2296.21,276.99 
  "/>
<polyline clip-path="url(#clip692)" style="stroke:#3da44d; stroke-linecap:round; stroke-linejoin:round; stroke-width:4; stroke-opacity:1; fill:none" points="
  411.457,1045.2 425.629,913.23 439.8,900.363 453.971,1067.86 468.142,992.178 482.313,874.738 496.484,1072.97 510.655,948.669 524.826,1012.19 538.997,936.837 
  553.168,1124.06 567.339,963.776 581.511,1089.71 595.682,986.748 609.853,1028 624.024,975.36 638.195,946.377 652.366,1104.65 666.537,970.65 680.708,1063.02 
  694.879,817.352 709.05,995.015 723.222,1100.54 737.393,843.141 751.564,1080.26 765.735,946.713 779.906,956.32 794.077,1026.94 808.248,947.018 822.419,913.494 
  836.59,1029.69 850.761,1113.1 864.932,959.417 879.104,955.122 893.275,842.289 907.446,795.667 921.617,736.184 935.788,937.291 949.959,719.942 964.13,988.922 
  978.301,800.028 992.472,796.918 1006.64,849.249 1020.81,891.054 1034.99,929.139 1049.16,926.114 1063.33,939.207 1077.5,932.278 1091.67,980.124 1105.84,765.211 
  1120.01,851.28 1134.18,786.747 1148.35,745.371 1162.53,855.423 1176.7,698.411 1190.87,750.693 1205.04,884.754 1219.21,809.764 1233.38,759.654 1247.55,816.412 
  1261.72,816.484 1275.89,774.129 1290.07,819.624 1304.24,927.756 1318.41,775.659 1332.58,776.528 1346.75,673.301 1360.92,710.189 1375.09,786.301 1389.26,842.496 
  1403.43,699.108 1417.61,778.848 1431.78,775.034 1445.95,610.864 1460.12,619.814 1474.29,804.496 1488.46,645.511 1502.63,716.666 1516.8,731.665 1530.97,628.641 
  1545.15,595.507 1559.32,626.342 1573.49,742.796 1587.66,632.999 1601.83,520.792 1616,593.134 1630.17,631.877 1644.34,560.488 1658.51,577.08 1672.68,557.408 
  1686.86,540.868 1701.03,496.592 1715.2,579.726 1729.37,548.769 1743.54,599.529 1757.71,503.691 1771.88,443.378 1786.05,598.748 1800.22,431.767 1814.4,454.746 
  1828.57,493.367 1842.74,494.088 1856.91,550.983 1871.08,403.294 1885.25,544.561 1899.42,424.447 1913.59,452.197 1927.76,417.252 1941.94,380.957 1956.11,471.861 
  1970.28,471.343 1984.45,320.373 1998.62,627.659 2012.79,603.906 2026.96,516.192 2041.13,297.579 2055.3,336.12 2069.48,558.905 2083.65,441.664 2097.82,375.414 
  2111.99,431.729 2126.16,411.009 2140.33,315.986 2154.5,346.753 2168.67,332.017 2182.84,378.466 2197.02,440.417 2211.19,320.085 2225.36,207.844 2239.53,238.744 
  2253.7,310.828 2267.87,345.205 2282.04,342.99 2296.21,85.0853 
  "/>
<polyline clip-path="url(#clip692)" style="stroke:#c271d2; stroke-linecap:round; stroke-linejoin:round; stroke-width:4; stroke-opacity:1; fill:none" points="
  411.457,1105.88 425.629,1057.21 439.8,1168.54 453.971,1249.83 468.142,990.633 482.313,1212.81 496.484,995.255 510.655,1142.55 524.826,1075.9 538.997,1153.55 
  553.168,964.12 567.339,997.326 581.511,1090.16 595.682,1038.5 609.853,1135.89 624.024,1086.12 638.195,1086.4 652.366,1171.87 666.537,1147.39 680.708,1060.23 
  694.879,855.816 709.05,1074.56 723.222,1016 737.393,1133.56 751.564,1063.74 765.735,973.122 779.906,1008.64 794.077,981.977 808.248,929.213 822.419,1022.84 
  836.59,1109.99 850.761,977.109 864.932,977.028 879.104,881.199 893.275,927.021 907.446,1001.28 921.617,916.196 935.788,1018.3 949.959,1050.67 964.13,866.072 
  978.301,901.435 992.472,979.554 1006.64,995.267 1020.81,1027.23 1034.99,790.157 1049.16,988.22 1063.33,876.318 1077.5,923.993 1091.67,885.965 1105.84,899.163 
  1120.01,918.424 1134.18,880.148 1148.35,773.031 1162.53,707.195 1176.7,1118.59 1190.87,757.116 1205.04,777.985 1219.21,827.718 1233.38,841.468 1247.55,898.635 
  1261.72,745.059 1275.89,789.821 1290.07,763.907 1304.24,658.446 1318.41,712.277 1332.58,823.566 1346.75,743.557 1360.92,916.01 1375.09,815.302 1389.26,955.605 
  1403.43,823.149 1417.61,731.009 1431.78,761.89 1445.95,717.049 1460.12,816.078 1474.29,756.261 1488.46,748.718 1502.63,687.965 1516.8,783.842 1530.97,649.042 
  1545.15,826.666 1559.32,871.007 1573.49,731.722 1587.66,638.219 1601.83,758.99 1616,691.877 1630.17,704.121 1644.34,588.977 1658.51,568.334 1672.68,595.296 
  1686.86,783.784 1701.03,726.863 1715.2,624.858 1729.37,739.588 1743.54,554.809 1757.71,554.833 1771.88,776.01 1786.05,523.373 1800.22,398.154 1814.4,670.186 
  1828.57,538.578 1842.74,684.141 1856.91,592.329 1871.08,672.169 1885.25,624.524 1899.42,458.932 1913.59,517.164 1927.76,595.951 1941.94,379.804 1956.11,541.455 
  1970.28,463.343 1984.45,547.122 1998.62,403.188 2012.79,503.606 2026.96,484.462 2041.13,400.224 2055.3,557.165 2069.48,462.925 2083.65,511.665 2097.82,340.696 
  2111.99,544.325 2126.16,311.066 2140.33,377.07 2154.5,440.068 2168.67,236.588 2182.84,289.749 2197.02,299.281 2211.19,377.505 2225.36,255.609 2239.53,441.687 
  2253.7,361.61 2267.87,390.581 2282.04,310.07 2296.21,418.772 
  "/>
<polyline clip-path="url(#clip692)" style="stroke:#ac8d18; stroke-linecap:round; stroke-linejoin:round; stroke-width:4; stroke-opacity:1; fill:none" points="
  411.457,1124.32 425.629,1031.98 439.8,1224.43 453.971,1222.6 468.142,1066.13 482.313,1230.41 496.484,1099.89 510.655,1066.84 524.826,1137.03 538.997,1067.03 
  553.168,1275.87 567.339,1073.97 581.511,1119.7 595.682,1022.4 609.853,1189.76 624.024,1014.45 638.195,1107.36 652.366,972.47 666.537,1000.05 680.708,888.942 
  694.879,1137.39 709.05,1144.81 723.222,1188.96 737.393,1082.33 751.564,1012.43 765.735,928.461 779.906,916.046 794.077,1114.93 808.248,1052.72 822.419,1030.15 
  836.59,971.803 850.761,999.019 864.932,1136.89 879.104,1161.01 893.275,1024.43 907.446,1000.81 921.617,1044.99 935.788,1043.1 949.959,845.079 964.13,1129.37 
  978.301,910.3 992.472,859.102 1006.64,881.977 1020.81,1126.53 1034.99,924.477 1049.16,822.867 1063.33,932.387 1077.5,858.83 1091.67,873.986 1105.84,1073.3 
  1120.01,948.184 1134.18,905.983 1148.35,867.159 1162.53,950.377 1176.7,815.053 1190.87,802.348 1205.04,808.909 1219.21,906.754 1233.38,965.307 1247.55,898.965 
  1261.72,835.405 1275.89,772.662 1290.07,959.744 1304.24,890.714 1318.41,825.23 1332.58,758.942 1346.75,845.816 1360.92,803.632 1375.09,954.56 1389.26,909.374 
  1403.43,832.333 1417.61,880.708 1431.78,775.97 1445.95,623.19 1460.12,619.569 1474.29,794.113 1488.46,774.247 1502.63,679.262 1516.8,933.828 1530.97,889.198 
  1545.15,731.546 1559.32,649.516 1573.49,724.367 1587.66,769.871 1601.83,670.434 1616,778.279 1630.17,741.642 1644.34,651.965 1658.51,699.725 1672.68,812.553 
  1686.86,660.348 1701.03,658.904 1715.2,764.246 1729.37,533.429 1743.54,573.765 1757.71,558.923 1771.88,631.999 1786.05,540.418 1800.22,566.724 1814.4,602.574 
  1828.57,632.033 1842.74,485.18 1856.91,627.57 1871.08,610.941 1885.25,488.689 1899.42,638.446 1913.59,651.019 1927.76,502.934 1941.94,503.466 1956.11,469.538 
  1970.28,658.213 1984.45,603.359 1998.62,669.52 2012.79,387.053 2026.96,618.155 2041.13,568.744 2055.3,393.083 2069.48,477.617 2083.65,472.363 2097.82,478.666 
  2111.99,604.301 2126.16,410.887 2140.33,354.291 2154.5,457.702 2168.67,367.142 2182.84,280.289 2197.02,374.223 2211.19,437.34 2225.36,350.548 2239.53,334.341 
  2253.7,331.845 2267.87,314.493 2282.04,333.363 2296.21,299.437 
  "/>
<circle clip-path="url(#clip692)" cx="411.457" cy="1168.75" r="14.4" fill="#000000" fill-rule="evenodd" fill-opacity="1" stroke="none"/>
<circle clip-path="url(#clip692)" cx="425.629" cy="1148" r="14.4" fill="#000000" fill-rule="evenodd" fill-opacity="1" stroke="none"/>
<circle clip-path="url(#clip692)" cx="439.8" cy="1210.26" r="14.4" fill="#000000" fill-rule="evenodd" fill-opacity="1" stroke="none"/>
<circle clip-path="url(#clip692)" cx="453.971" cy="1190.62" r="14.4" fill="#000000" fill-rule="evenodd" fill-opacity="1" stroke="none"/>
<circle clip-path="url(#clip692)" cx="468.142" cy="1113.16" r="14.4" fill="#000000" fill-rule="evenodd" fill-opacity="1" stroke="none"/>
<circle clip-path="url(#clip692)" cx="482.313" cy="1118.72" r="14.4" fill="#000000" fill-rule="evenodd" fill-opacity="1" stroke="none"/>
<circle clip-path="url(#clip692)" cx="496.484" cy="1127.61" r="14.4" fill="#000000" fill-rule="evenodd" fill-opacity="1" stroke="none"/>
<circle clip-path="url(#clip692)" cx="510.655" cy="1148.37" r="14.4" fill="#000000" fill-rule="evenodd" fill-opacity="1" stroke="none"/>
<circle clip-path="url(#clip692)" cx="524.826" cy="1140.59" r="14.4" fill="#000000" fill-rule="evenodd" fill-opacity="1" stroke="none"/>
<circle clip-path="url(#clip692)" cx="538.997" cy="1134.66" r="14.4" fill="#000000" fill-rule="evenodd" fill-opacity="1" stroke="none"/>
<circle clip-path="url(#clip692)" cx="553.168" cy="1127.24" r="14.4" fill="#000000" fill-rule="evenodd" fill-opacity="1" stroke="none"/>
<circle clip-path="url(#clip692)" cx="567.339" cy="1133.54" r="14.4" fill="#000000" fill-rule="evenodd" fill-opacity="1" stroke="none"/>
<circle clip-path="url(#clip692)" cx="581.511" cy="1121.68" r="14.4" fill="#000000" fill-rule="evenodd" fill-opacity="1" stroke="none"/>
<circle clip-path="url(#clip692)" cx="595.682" cy="1104.26" r="14.4" fill="#000000" fill-rule="evenodd" fill-opacity="1" stroke="none"/>
<circle clip-path="url(#clip692)" cx="609.853" cy="1140.22" r="14.4" fill="#000000" fill-rule="evenodd" fill-opacity="1" stroke="none"/>
<circle clip-path="url(#clip692)" cx="624.024" cy="1096.48" r="14.4" fill="#000000" fill-rule="evenodd" fill-opacity="1" stroke="none"/>
<circle clip-path="url(#clip692)" cx="638.195" cy="1124.65" r="14.4" fill="#000000" fill-rule="evenodd" fill-opacity="1" stroke="none"/>
<circle clip-path="url(#clip692)" cx="652.366" cy="1105.38" r="14.4" fill="#000000" fill-rule="evenodd" fill-opacity="1" stroke="none"/>
<circle clip-path="url(#clip692)" cx="666.537" cy="1070.54" r="14.4" fill="#000000" fill-rule="evenodd" fill-opacity="1" stroke="none"/>
<circle clip-path="url(#clip692)" cx="680.708" cy="1042.74" r="14.4" fill="#000000" fill-rule="evenodd" fill-opacity="1" stroke="none"/>
<circle clip-path="url(#clip692)" cx="694.879" cy="1062.75" r="14.4" fill="#000000" fill-rule="evenodd" fill-opacity="1" stroke="none"/>
<circle clip-path="url(#clip692)" cx="709.05" cy="1064.24" r="14.4" fill="#000000" fill-rule="evenodd" fill-opacity="1" stroke="none"/>
<circle clip-path="url(#clip692)" cx="723.222" cy="1047.19" r="14.4" fill="#000000" fill-rule="evenodd" fill-opacity="1" stroke="none"/>
<circle clip-path="url(#clip692)" cx="737.393" cy="1017.54" r="14.4" fill="#000000" fill-rule="evenodd" fill-opacity="1" stroke="none"/>
<circle clip-path="url(#clip692)" cx="751.564" cy="1055.71" r="14.4" fill="#000000" fill-rule="evenodd" fill-opacity="1" stroke="none"/>
<circle clip-path="url(#clip692)" cx="765.735" cy="1076.1" r="14.4" fill="#000000" fill-rule="evenodd" fill-opacity="1" stroke="none"/>
<circle clip-path="url(#clip692)" cx="779.906" cy="1050.89" r="14.4" fill="#000000" fill-rule="evenodd" fill-opacity="1" stroke="none"/>
<circle clip-path="url(#clip692)" cx="794.077" cy="1056.08" r="14.4" fill="#000000" fill-rule="evenodd" fill-opacity="1" stroke="none"/>
<circle clip-path="url(#clip692)" cx="808.248" cy="1065.35" r="14.4" fill="#000000" fill-rule="evenodd" fill-opacity="1" stroke="none"/>
<circle clip-path="url(#clip692)" cx="822.419" cy="1048.67" r="14.4" fill="#000000" fill-rule="evenodd" fill-opacity="1" stroke="none"/>
<circle clip-path="url(#clip692)" cx="836.59" cy="1049.04" r="14.4" fill="#000000" fill-rule="evenodd" fill-opacity="1" stroke="none"/>
<circle clip-path="url(#clip692)" cx="850.761" cy="1018.28" r="14.4" fill="#000000" fill-rule="evenodd" fill-opacity="1" stroke="none"/>
<circle clip-path="url(#clip692)" cx="864.932" cy="1029.77" r="14.4" fill="#000000" fill-rule="evenodd" fill-opacity="1" stroke="none"/>
<circle clip-path="url(#clip692)" cx="879.104" cy="1023.1" r="14.4" fill="#000000" fill-rule="evenodd" fill-opacity="1" stroke="none"/>
<circle clip-path="url(#clip692)" cx="893.275" cy="999.748" r="14.4" fill="#000000" fill-rule="evenodd" fill-opacity="1" stroke="none"/>
<circle clip-path="url(#clip692)" cx="907.446" cy="970.469" r="14.4" fill="#000000" fill-rule="evenodd" fill-opacity="1" stroke="none"/>
<circle clip-path="url(#clip692)" cx="921.617" cy="977.51" r="14.4" fill="#000000" fill-rule="evenodd" fill-opacity="1" stroke="none"/>
<circle clip-path="url(#clip692)" cx="935.788" cy="994.189" r="14.4" fill="#000000" fill-rule="evenodd" fill-opacity="1" stroke="none"/>
<circle clip-path="url(#clip692)" cx="949.959" cy="1000.12" r="14.4" fill="#000000" fill-rule="evenodd" fill-opacity="1" stroke="none"/>
<circle clip-path="url(#clip692)" cx="964.13" cy="994.189" r="14.4" fill="#000000" fill-rule="evenodd" fill-opacity="1" stroke="none"/>
<circle clip-path="url(#clip692)" cx="978.301" cy="989.37" r="14.4" fill="#000000" fill-rule="evenodd" fill-opacity="1" stroke="none"/>
<circle clip-path="url(#clip692)" cx="992.472" cy="981.587" r="14.4" fill="#000000" fill-rule="evenodd" fill-opacity="1" stroke="none"/>
<circle clip-path="url(#clip692)" cx="1006.64" cy="984.923" r="14.4" fill="#000000" fill-rule="evenodd" fill-opacity="1" stroke="none"/>
<circle clip-path="url(#clip692)" cx="1020.81" cy="980.475" r="14.4" fill="#000000" fill-rule="evenodd" fill-opacity="1" stroke="none"/>
<circle clip-path="url(#clip692)" cx="1034.99" cy="1007.53" r="14.4" fill="#000000" fill-rule="evenodd" fill-opacity="1" stroke="none"/>
<circle clip-path="url(#clip692)" cx="1049.16" cy="1000.12" r="14.4" fill="#000000" fill-rule="evenodd" fill-opacity="1" stroke="none"/>
<circle clip-path="url(#clip692)" cx="1063.33" cy="976.028" r="14.4" fill="#000000" fill-rule="evenodd" fill-opacity="1" stroke="none"/>
<circle clip-path="url(#clip692)" cx="1077.5" cy="980.105" r="14.4" fill="#000000" fill-rule="evenodd" fill-opacity="1" stroke="none"/>
<circle clip-path="url(#clip692)" cx="1091.67" cy="994.559" r="14.4" fill="#000000" fill-rule="evenodd" fill-opacity="1" stroke="none"/>
<circle clip-path="url(#clip692)" cx="1105.84" cy="989.37" r="14.4" fill="#000000" fill-rule="evenodd" fill-opacity="1" stroke="none"/>
<circle clip-path="url(#clip692)" cx="1120.01" cy="974.545" r="14.4" fill="#000000" fill-rule="evenodd" fill-opacity="1" stroke="none"/>
<circle clip-path="url(#clip692)" cx="1134.18" cy="976.028" r="14.4" fill="#000000" fill-rule="evenodd" fill-opacity="1" stroke="none"/>
<circle clip-path="url(#clip692)" cx="1148.35" cy="954.902" r="14.4" fill="#000000" fill-rule="evenodd" fill-opacity="1" stroke="none"/>
<circle clip-path="url(#clip692)" cx="1162.53" cy="938.965" r="14.4" fill="#000000" fill-rule="evenodd" fill-opacity="1" stroke="none"/>
<circle clip-path="url(#clip692)" cx="1176.7" cy="958.979" r="14.4" fill="#000000" fill-rule="evenodd" fill-opacity="1" stroke="none"/>
<circle clip-path="url(#clip692)" cx="1190.87" cy="938.224" r="14.4" fill="#000000" fill-rule="evenodd" fill-opacity="1" stroke="none"/>
<circle clip-path="url(#clip692)" cx="1205.04" cy="952.678" r="14.4" fill="#000000" fill-rule="evenodd" fill-opacity="1" stroke="none"/>
<circle clip-path="url(#clip692)" cx="1219.21" cy="931.553" r="14.4" fill="#000000" fill-rule="evenodd" fill-opacity="1" stroke="none"/>
<circle clip-path="url(#clip692)" cx="1233.38" cy="921.917" r="14.4" fill="#000000" fill-rule="evenodd" fill-opacity="1" stroke="none"/>
<circle clip-path="url(#clip692)" cx="1247.55" cy="902.644" r="14.4" fill="#000000" fill-rule="evenodd" fill-opacity="1" stroke="none"/>
<circle clip-path="url(#clip692)" cx="1261.72" cy="922.287" r="14.4" fill="#000000" fill-rule="evenodd" fill-opacity="1" stroke="none"/>
<circle clip-path="url(#clip692)" cx="1275.89" cy="877.071" r="14.4" fill="#000000" fill-rule="evenodd" fill-opacity="1" stroke="none"/>
<circle clip-path="url(#clip692)" cx="1290.07" cy="877.071" r="14.4" fill="#000000" fill-rule="evenodd" fill-opacity="1" stroke="none"/>
<circle clip-path="url(#clip692)" cx="1304.24" cy="877.071" r="14.4" fill="#000000" fill-rule="evenodd" fill-opacity="1" stroke="none"/>
<circle clip-path="url(#clip692)" cx="1318.41" cy="900.791" r="14.4" fill="#000000" fill-rule="evenodd" fill-opacity="1" stroke="none"/>
<circle clip-path="url(#clip692)" cx="1332.58" cy="890.413" r="14.4" fill="#000000" fill-rule="evenodd" fill-opacity="1" stroke="none"/>
<circle clip-path="url(#clip692)" cx="1346.75" cy="862.616" r="14.4" fill="#000000" fill-rule="evenodd" fill-opacity="1" stroke="none"/>
<circle clip-path="url(#clip692)" cx="1360.92" cy="851.127" r="14.4" fill="#000000" fill-rule="evenodd" fill-opacity="1" stroke="none"/>
<circle clip-path="url(#clip692)" cx="1375.09" cy="833.337" r="14.4" fill="#000000" fill-rule="evenodd" fill-opacity="1" stroke="none"/>
<circle clip-path="url(#clip692)" cx="1389.26" cy="838.155" r="14.4" fill="#000000" fill-rule="evenodd" fill-opacity="1" stroke="none"/>
<circle clip-path="url(#clip692)" cx="1403.43" cy="830.001" r="14.4" fill="#000000" fill-rule="evenodd" fill-opacity="1" stroke="none"/>
<circle clip-path="url(#clip692)" cx="1417.61" cy="794.792" r="14.4" fill="#000000" fill-rule="evenodd" fill-opacity="1" stroke="none"/>
<circle clip-path="url(#clip692)" cx="1431.78" cy="804.428" r="14.4" fill="#000000" fill-rule="evenodd" fill-opacity="1" stroke="none"/>
<circle clip-path="url(#clip692)" cx="1445.95" cy="788.121" r="14.4" fill="#000000" fill-rule="evenodd" fill-opacity="1" stroke="none"/>
<circle clip-path="url(#clip692)" cx="1460.12" cy="798.869" r="14.4" fill="#000000" fill-rule="evenodd" fill-opacity="1" stroke="none"/>
<circle clip-path="url(#clip692)" cx="1474.29" cy="795.533" r="14.4" fill="#000000" fill-rule="evenodd" fill-opacity="1" stroke="none"/>
<circle clip-path="url(#clip692)" cx="1488.46" cy="814.435" r="14.4" fill="#000000" fill-rule="evenodd" fill-opacity="1" stroke="none"/>
<circle clip-path="url(#clip692)" cx="1502.63" cy="764.771" r="14.4" fill="#000000" fill-rule="evenodd" fill-opacity="1" stroke="none"/>
<circle clip-path="url(#clip692)" cx="1516.8" cy="759.583" r="14.4" fill="#000000" fill-rule="evenodd" fill-opacity="1" stroke="none"/>
<circle clip-path="url(#clip692)" cx="1530.97" cy="758.471" r="14.4" fill="#000000" fill-rule="evenodd" fill-opacity="1" stroke="none"/>
<circle clip-path="url(#clip692)" cx="1545.15" cy="744.757" r="14.4" fill="#000000" fill-rule="evenodd" fill-opacity="1" stroke="none"/>
<circle clip-path="url(#clip692)" cx="1559.32" cy="721.779" r="14.4" fill="#000000" fill-rule="evenodd" fill-opacity="1" stroke="none"/>
<circle clip-path="url(#clip692)" cx="1573.49" cy="741.051" r="14.4" fill="#000000" fill-rule="evenodd" fill-opacity="1" stroke="none"/>
<circle clip-path="url(#clip692)" cx="1587.66" cy="746.981" r="14.4" fill="#000000" fill-rule="evenodd" fill-opacity="1" stroke="none"/>
<circle clip-path="url(#clip692)" cx="1601.83" cy="776.261" r="14.4" fill="#000000" fill-rule="evenodd" fill-opacity="1" stroke="none"/>
<circle clip-path="url(#clip692)" cx="1616" cy="734.751" r="14.4" fill="#000000" fill-rule="evenodd" fill-opacity="1" stroke="none"/>
<circle clip-path="url(#clip692)" cx="1630.17" cy="754.764" r="14.4" fill="#000000" fill-rule="evenodd" fill-opacity="1" stroke="none"/>
<circle clip-path="url(#clip692)" cx="1644.34" cy="749.576" r="14.4" fill="#000000" fill-rule="evenodd" fill-opacity="1" stroke="none"/>
<circle clip-path="url(#clip692)" cx="1658.51" cy="746.611" r="14.4" fill="#000000" fill-rule="evenodd" fill-opacity="1" stroke="none"/>
<circle clip-path="url(#clip692)" cx="1672.68" cy="721.408" r="14.4" fill="#000000" fill-rule="evenodd" fill-opacity="1" stroke="none"/>
<circle clip-path="url(#clip692)" cx="1686.86" cy="728.45" r="14.4" fill="#000000" fill-rule="evenodd" fill-opacity="1" stroke="none"/>
<circle clip-path="url(#clip692)" cx="1701.03" cy="709.177" r="14.4" fill="#000000" fill-rule="evenodd" fill-opacity="1" stroke="none"/>
<circle clip-path="url(#clip692)" cx="1715.2" cy="675.45" r="14.4" fill="#000000" fill-rule="evenodd" fill-opacity="1" stroke="none"/>
<circle clip-path="url(#clip692)" cx="1729.37" cy="697.688" r="14.4" fill="#000000" fill-rule="evenodd" fill-opacity="1" stroke="none"/>
<circle clip-path="url(#clip692)" cx="1743.54" cy="653.584" r="14.4" fill="#000000" fill-rule="evenodd" fill-opacity="1" stroke="none"/>
<circle clip-path="url(#clip692)" cx="1757.71" cy="659.514" r="14.4" fill="#000000" fill-rule="evenodd" fill-opacity="1" stroke="none"/>
<circle clip-path="url(#clip692)" cx="1771.88" cy="663.22" r="14.4" fill="#000000" fill-rule="evenodd" fill-opacity="1" stroke="none"/>
<circle clip-path="url(#clip692)" cx="1786.05" cy="669.52" r="14.4" fill="#000000" fill-rule="evenodd" fill-opacity="1" stroke="none"/>
<circle clip-path="url(#clip692)" cx="1800.22" cy="645.8" r="14.4" fill="#000000" fill-rule="evenodd" fill-opacity="1" stroke="none"/>
<circle clip-path="url(#clip692)" cx="1814.4" cy="663.961" r="14.4" fill="#000000" fill-rule="evenodd" fill-opacity="1" stroke="none"/>
<circle clip-path="url(#clip692)" cx="1828.57" cy="641.724" r="14.4" fill="#000000" fill-rule="evenodd" fill-opacity="1" stroke="none"/>
<circle clip-path="url(#clip692)" cx="1842.74" cy="595.766" r="14.4" fill="#000000" fill-rule="evenodd" fill-opacity="1" stroke="none"/>
<circle clip-path="url(#clip692)" cx="1856.91" cy="617.262" r="14.4" fill="#000000" fill-rule="evenodd" fill-opacity="1" stroke="none"/>
<circle clip-path="url(#clip692)" cx="1871.08" cy="586.13" r="14.4" fill="#000000" fill-rule="evenodd" fill-opacity="1" stroke="none"/>
<circle clip-path="url(#clip692)" cx="1885.25" cy="589.465" r="14.4" fill="#000000" fill-rule="evenodd" fill-opacity="1" stroke="none"/>
<circle clip-path="url(#clip692)" cx="1899.42" cy="627.64" r="14.4" fill="#000000" fill-rule="evenodd" fill-opacity="1" stroke="none"/>
<circle clip-path="url(#clip692)" cx="1913.59" cy="625.416" r="14.4" fill="#000000" fill-rule="evenodd" fill-opacity="1" stroke="none"/>
<circle clip-path="url(#clip692)" cx="1927.76" cy="623.192" r="14.4" fill="#000000" fill-rule="evenodd" fill-opacity="1" stroke="none"/>
<circle clip-path="url(#clip692)" cx="1941.94" cy="605.773" r="14.4" fill="#000000" fill-rule="evenodd" fill-opacity="1" stroke="none"/>
<circle clip-path="url(#clip692)" cx="1956.11" cy="589.095" r="14.4" fill="#000000" fill-rule="evenodd" fill-opacity="1" stroke="none"/>
<circle clip-path="url(#clip692)" cx="1970.28" cy="580.57" r="14.4" fill="#000000" fill-rule="evenodd" fill-opacity="1" stroke="none"/>
<circle clip-path="url(#clip692)" cx="1984.45" cy="571.305" r="14.4" fill="#000000" fill-rule="evenodd" fill-opacity="1" stroke="none"/>
<circle clip-path="url(#clip692)" cx="1998.62" cy="568.71" r="14.4" fill="#000000" fill-rule="evenodd" fill-opacity="1" stroke="none"/>
<circle clip-path="url(#clip692)" cx="2012.79" cy="575.382" r="14.4" fill="#000000" fill-rule="evenodd" fill-opacity="1" stroke="none"/>
<circle clip-path="url(#clip692)" cx="2026.96" cy="556.109" r="14.4" fill="#000000" fill-rule="evenodd" fill-opacity="1" stroke="none"/>
<circle clip-path="url(#clip692)" cx="2041.13" cy="545.361" r="14.4" fill="#000000" fill-rule="evenodd" fill-opacity="1" stroke="none"/>
<circle clip-path="url(#clip692)" cx="2055.3" cy="530.165" r="14.4" fill="#000000" fill-rule="evenodd" fill-opacity="1" stroke="none"/>
<circle clip-path="url(#clip692)" cx="2069.48" cy="504.221" r="14.4" fill="#000000" fill-rule="evenodd" fill-opacity="1" stroke="none"/>
<circle clip-path="url(#clip692)" cx="2083.65" cy="540.913" r="14.4" fill="#000000" fill-rule="evenodd" fill-opacity="1" stroke="none"/>
<circle clip-path="url(#clip692)" cx="2097.82" cy="509.41" r="14.4" fill="#000000" fill-rule="evenodd" fill-opacity="1" stroke="none"/>
<circle clip-path="url(#clip692)" cx="2111.99" cy="504.592" r="14.4" fill="#000000" fill-rule="evenodd" fill-opacity="1" stroke="none"/>
<circle clip-path="url(#clip692)" cx="2126.16" cy="484.208" r="14.4" fill="#000000" fill-rule="evenodd" fill-opacity="1" stroke="none"/>
<circle clip-path="url(#clip692)" cx="2140.33" cy="475.313" r="14.4" fill="#000000" fill-rule="evenodd" fill-opacity="1" stroke="none"/>
<circle clip-path="url(#clip692)" cx="2154.5" cy="441.215" r="14.4" fill="#000000" fill-rule="evenodd" fill-opacity="1" stroke="none"/>
<circle clip-path="url(#clip692)" cx="2168.67" cy="442.698" r="14.4" fill="#000000" fill-rule="evenodd" fill-opacity="1" stroke="none"/>
<circle clip-path="url(#clip692)" cx="2182.84" cy="442.327" r="14.4" fill="#000000" fill-rule="evenodd" fill-opacity="1" stroke="none"/>
<circle clip-path="url(#clip692)" cx="2197.02" cy="426.39" r="14.4" fill="#000000" fill-rule="evenodd" fill-opacity="1" stroke="none"/>
<circle clip-path="url(#clip692)" cx="2211.19" cy="419.348" r="14.4" fill="#000000" fill-rule="evenodd" fill-opacity="1" stroke="none"/>
<circle clip-path="url(#clip692)" cx="2225.36" cy="387.104" r="14.4" fill="#000000" fill-rule="evenodd" fill-opacity="1" stroke="none"/>
<circle clip-path="url(#clip692)" cx="2239.53" cy="365.607" r="14.4" fill="#000000" fill-rule="evenodd" fill-opacity="1" stroke="none"/>
<circle clip-path="url(#clip692)" cx="2253.7" cy="337.069" r="14.4" fill="#000000" fill-rule="evenodd" fill-opacity="1" stroke="none"/>
<circle clip-path="url(#clip692)" cx="2267.87" cy="331.139" r="14.4" fill="#000000" fill-rule="evenodd" fill-opacity="1" stroke="none"/>
<circle clip-path="url(#clip692)" cx="2282.04" cy="298.524" r="14.4" fill="#000000" fill-rule="evenodd" fill-opacity="1" stroke="none"/>
<circle clip-path="url(#clip692)" cx="2296.21" cy="329.657" r="14.4" fill="#000000" fill-rule="evenodd" fill-opacity="1" stroke="none"/>
<path clip-path="url(#clip690)" d="
M421.509 273.253 L1236.22 273.253 L1236.22 91.8126 L421.509 91.8126  Z
  " fill="#ffffff" fill-rule="evenodd" fill-opacity="1"/>
<polyline clip-path="url(#clip690)" style="stroke:#000000; stroke-linecap:round; stroke-linejoin:round; stroke-width:4; stroke-opacity:1; fill:none" points="
  421.509,273.253 1236.22,273.253 1236.22,91.8126 421.509,91.8126 421.509,273.253 
  "/>
<circle clip-path="url(#clip690)" cx="510.302" cy="182.533" r="40.32" fill="#000000" fill-rule="evenodd" fill-opacity="1" stroke="none"/>
<path clip-path="url(#clip690)" d="M638.025 154.278 L638.025 162.258 Q633.366 160.03 629.234 158.936 Q625.102 157.842 621.254 157.842 Q614.57 157.842 610.924 160.435 Q607.319 163.028 607.319 167.808 Q607.319 171.818 609.709 173.884 Q612.139 175.909 618.864 177.165 L623.806 178.178 Q632.961 179.92 637.295 184.335 Q641.67 188.71 641.67 196.083 Q641.67 204.873 635.756 209.41 Q629.882 213.947 618.499 213.947 Q614.205 213.947 609.344 212.975 Q604.524 212.003 599.338 210.099 L599.338 201.673 Q604.321 204.468 609.101 205.886 Q613.881 207.304 618.499 207.304 Q625.507 207.304 629.315 204.549 Q633.123 201.795 633.123 196.691 Q633.123 192.235 630.368 189.723 Q627.654 187.211 621.416 185.956 L616.433 184.983 Q607.278 183.161 603.187 179.272 Q599.095 175.383 599.095 168.456 Q599.095 160.435 604.726 155.817 Q610.397 151.199 620.322 151.199 Q624.576 151.199 628.991 151.969 Q633.406 152.738 638.025 154.278 Z" fill="#000000" fill-rule="evenodd" fill-opacity="1" /><path clip-path="url(#clip690)" d="M692.914 188.224 L692.914 191.87 L658.644 191.87 Q659.13 199.567 663.262 203.618 Q667.434 207.628 674.847 207.628 Q679.141 207.628 683.152 206.575 Q687.202 205.522 691.172 203.415 L691.172 210.464 Q687.162 212.165 682.949 213.056 Q678.736 213.947 674.402 213.947 Q663.545 213.947 657.185 207.628 Q650.866 201.309 650.866 190.533 Q650.866 179.393 656.861 172.871 Q662.897 166.309 673.105 166.309 Q682.26 166.309 687.567 172.223 Q692.914 178.097 692.914 188.224 M685.461 186.037 Q685.38 179.92 682.017 176.274 Q678.696 172.628 673.186 172.628 Q666.948 172.628 663.181 176.152 Q659.454 179.677 658.887 186.077 L685.461 186.037 Z" fill="#000000" fill-rule="evenodd" fill-opacity="1" /><path clip-path="url(#clip690)" d="M725.767 189.966 Q716.734 189.966 713.25 192.032 Q709.766 194.098 709.766 199.081 Q709.766 203.05 712.359 205.4 Q714.992 207.709 719.488 207.709 Q725.686 207.709 729.413 203.334 Q733.18 198.919 733.18 191.627 L733.18 189.966 L725.767 189.966 M740.634 186.887 L740.634 212.773 L733.18 212.773 L733.18 205.886 Q730.628 210.018 726.82 212.003 Q723.012 213.947 717.503 213.947 Q710.536 213.947 706.404 210.059 Q702.312 206.129 702.312 199.567 Q702.312 191.91 707.416 188.022 Q712.561 184.133 722.729 184.133 L733.18 184.133 L733.18 183.404 Q733.18 178.259 729.777 175.464 Q726.415 172.628 720.298 172.628 Q716.41 172.628 712.723 173.56 Q709.037 174.492 705.634 176.355 L705.634 169.468 Q709.726 167.889 713.574 167.119 Q717.422 166.309 721.068 166.309 Q730.912 166.309 735.773 171.413 Q740.634 176.517 740.634 186.887 Z" fill="#000000" fill-rule="evenodd" fill-opacity="1" /><path clip-path="url(#clip690)" d="M752.219 186.725 L774.054 186.725 L774.054 193.369 L752.219 193.369 L752.219 186.725 Z" fill="#000000" fill-rule="evenodd" fill-opacity="1" /><path clip-path="url(#clip690)" d="M786.247 152.293 L794.43 152.293 L794.43 205.886 L823.88 205.886 L823.88 212.773 L786.247 212.773 L786.247 152.293 Z" fill="#000000" fill-rule="evenodd" fill-opacity="1" /><path clip-path="url(#clip690)" d="M869.493 188.224 L869.493 191.87 L835.223 191.87 Q835.709 199.567 839.841 203.618 Q844.013 207.628 851.426 207.628 Q855.72 207.628 859.73 206.575 Q863.781 205.522 867.751 203.415 L867.751 210.464 Q863.741 212.165 859.528 213.056 Q855.315 213.947 850.981 213.947 Q840.124 213.947 833.764 207.628 Q827.445 201.309 827.445 190.533 Q827.445 179.393 833.44 172.871 Q839.476 166.309 849.684 166.309 Q858.839 166.309 864.146 172.223 Q869.493 178.097 869.493 188.224 M862.04 186.037 Q861.958 179.92 858.596 176.274 Q855.275 172.628 849.765 172.628 Q843.527 172.628 839.76 176.152 Q836.033 179.677 835.466 186.077 L862.04 186.037 Z" fill="#000000" fill-rule="evenodd" fill-opacity="1" /><path clip-path="url(#clip690)" d="M876.38 167.402 L884.279 167.402 L898.457 205.481 L912.635 167.402 L920.535 167.402 L903.521 212.773 L893.394 212.773 L876.38 167.402 Z" fill="#000000" fill-rule="evenodd" fill-opacity="1" /><path clip-path="url(#clip690)" d="M969.632 188.224 L969.632 191.87 L935.361 191.87 Q935.847 199.567 939.979 203.618 Q944.151 207.628 951.564 207.628 Q955.858 207.628 959.869 206.575 Q963.92 205.522 967.89 203.415 L967.89 210.464 Q963.879 212.165 959.666 213.056 Q955.453 213.947 951.119 213.947 Q940.262 213.947 933.903 207.628 Q927.583 201.309 927.583 190.533 Q927.583 179.393 933.578 172.871 Q939.614 166.309 949.823 166.309 Q958.978 166.309 964.284 172.223 Q969.632 178.097 969.632 188.224 M962.178 186.037 Q962.097 179.92 958.735 176.274 Q955.413 172.628 949.904 172.628 Q943.665 172.628 939.898 176.152 Q936.171 179.677 935.604 186.077 L962.178 186.037 Z" fill="#000000" fill-rule="evenodd" fill-opacity="1" /><path clip-path="url(#clip690)" d="M981.865 149.741 L989.319 149.741 L989.319 212.773 L981.865 212.773 L981.865 149.741 Z" fill="#000000" fill-rule="evenodd" fill-opacity="1" /><path clip-path="url(#clip690)" d="M1039.79 159.017 L1039.79 206.048 L1049.68 206.048 Q1062.19 206.048 1067.99 200.377 Q1073.82 194.706 1073.82 182.472 Q1073.82 170.319 1067.99 164.688 Q1062.19 159.017 1049.68 159.017 L1039.79 159.017 M1031.61 152.293 L1048.42 152.293 Q1066 152.293 1074.23 159.625 Q1082.45 166.916 1082.45 182.472 Q1082.45 198.108 1074.19 205.44 Q1065.92 212.773 1048.42 212.773 L1031.61 212.773 L1031.61 152.293 Z" fill="#000000" fill-rule="evenodd" fill-opacity="1" /><path clip-path="url(#clip690)" d="M1115.79 189.966 Q1106.75 189.966 1103.27 192.032 Q1099.79 194.098 1099.79 199.081 Q1099.79 203.05 1102.38 205.4 Q1105.01 207.709 1109.51 207.709 Q1115.71 207.709 1119.43 203.334 Q1123.2 198.919 1123.2 191.627 L1123.2 189.966 L1115.79 189.966 M1130.65 186.887 L1130.65 212.773 L1123.2 212.773 L1123.2 205.886 Q1120.65 210.018 1116.84 212.003 Q1113.03 213.947 1107.52 213.947 Q1100.56 213.947 1096.42 210.059 Q1092.33 206.129 1092.33 199.567 Q1092.33 191.91 1097.44 188.022 Q1102.58 184.133 1112.75 184.133 L1123.2 184.133 L1123.2 183.404 Q1123.2 178.259 1119.8 175.464 Q1116.44 172.628 1110.32 172.628 Q1106.43 172.628 1102.74 173.56 Q1099.06 174.492 1095.66 176.355 L1095.66 169.468 Q1099.75 167.889 1103.59 167.119 Q1107.44 166.309 1111.09 166.309 Q1120.93 166.309 1125.79 171.413 Q1130.65 176.517 1130.65 186.887 Z" fill="#000000" fill-rule="evenodd" fill-opacity="1" /><path clip-path="url(#clip690)" d="M1153.38 154.521 L1153.38 167.402 L1168.73 167.402 L1168.73 173.195 L1153.38 173.195 L1153.38 197.825 Q1153.38 203.375 1154.88 204.954 Q1156.42 206.534 1161.08 206.534 L1168.73 206.534 L1168.73 212.773 L1161.08 212.773 Q1152.45 212.773 1149.17 209.572 Q1145.89 206.332 1145.89 197.825 L1145.89 173.195 L1140.42 173.195 L1140.42 167.402 L1145.89 167.402 L1145.89 154.521 L1153.38 154.521 Z" fill="#000000" fill-rule="evenodd" fill-opacity="1" /><path clip-path="url(#clip690)" d="M1199.16 189.966 Q1190.12 189.966 1186.64 192.032 Q1183.15 194.098 1183.15 199.081 Q1183.15 203.05 1185.75 205.4 Q1188.38 207.709 1192.88 207.709 Q1199.07 207.709 1202.8 203.334 Q1206.57 198.919 1206.57 191.627 L1206.57 189.966 L1199.16 189.966 M1214.02 186.887 L1214.02 212.773 L1206.57 212.773 L1206.57 205.886 Q1204.02 210.018 1200.21 212.003 Q1196.4 213.947 1190.89 213.947 Q1183.92 213.947 1179.79 210.059 Q1175.7 206.129 1175.7 199.567 Q1175.7 191.91 1180.81 188.022 Q1185.95 184.133 1196.12 184.133 L1206.57 184.133 L1206.57 183.404 Q1206.57 178.259 1203.17 175.464 Q1199.8 172.628 1193.69 172.628 Q1189.8 172.628 1186.11 173.56 Q1182.43 174.492 1179.02 176.355 L1179.02 169.468 Q1183.11 167.889 1186.96 167.119 Q1190.81 166.309 1194.46 166.309 Q1204.3 166.309 1209.16 171.413 Q1214.02 176.517 1214.02 186.887 Z" fill="#000000" fill-rule="evenodd" fill-opacity="1" /></svg>
