<?xml version="1.0" encoding="utf-8"?>
<svg xmlns="http://www.w3.org/2000/svg" xmlns:xlink="http://www.w3.org/1999/xlink" width="600" height="400" viewBox="0 0 2400 1600">
<defs>
  <clipPath id="clip320">
    <rect x="0" y="0" width="2400" height="1600"/>
  </clipPath>
</defs>
<path clip-path="url(#clip320)" d="
M0 1600 L2400 1600 L2400 0 L0 0  Z
  " fill="#ffffff" fill-rule="evenodd" fill-opacity="1"/>
<defs>
  <clipPath id="clip321">
    <rect x="480" y="0" width="1681" height="1600"/>
  </clipPath>
</defs>
<defs>
  <clipPath id="clip322">
    <rect x="267" y="47" width="2086" height="1347"/>
  </clipPath>
</defs>
<path clip-path="url(#clip320)" d="
M267.629 1392.94 L2352.76 1392.94 L2352.76 47.2441 L267.629 47.2441  Z
  " fill="#ffffff" fill-rule="evenodd" fill-opacity="1"/>
<polyline clip-path="url(#clip322)" style="stroke:#000000; stroke-linecap:round; stroke-linejoin:round; stroke-width:2; stroke-opacity:0.1; fill:none" points="
  370.994,1392.94 370.994,47.2441 
  "/>
<polyline clip-path="url(#clip322)" style="stroke:#000000; stroke-linecap:round; stroke-linejoin:round; stroke-width:2; stroke-opacity:0.1; fill:none" points="
  684.226,1392.94 684.226,47.2441 
  "/>
<polyline clip-path="url(#clip322)" style="stroke:#000000; stroke-linecap:round; stroke-linejoin:round; stroke-width:2; stroke-opacity:0.1; fill:none" points="
  997.459,1392.94 997.459,47.2441 
  "/>
<polyline clip-path="url(#clip322)" style="stroke:#000000; stroke-linecap:round; stroke-linejoin:round; stroke-width:2; stroke-opacity:0.1; fill:none" points="
  1310.69,1392.94 1310.69,47.2441 
  "/>
<polyline clip-path="url(#clip322)" style="stroke:#000000; stroke-linecap:round; stroke-linejoin:round; stroke-width:2; stroke-opacity:0.1; fill:none" points="
  1623.92,1392.94 1623.92,47.2441 
  "/>
<polyline clip-path="url(#clip322)" style="stroke:#000000; stroke-linecap:round; stroke-linejoin:round; stroke-width:2; stroke-opacity:0.1; fill:none" points="
  1937.16,1392.94 1937.16,47.2441 
  "/>
<polyline clip-path="url(#clip322)" style="stroke:#000000; stroke-linecap:round; stroke-linejoin:round; stroke-width:2; stroke-opacity:0.1; fill:none" points="
  2250.39,1392.94 2250.39,47.2441 
  "/>
<polyline clip-path="url(#clip320)" style="stroke:#000000; stroke-linecap:round; stroke-linejoin:round; stroke-width:4; stroke-opacity:1; fill:none" points="
  267.629,1392.94 2352.76,1392.94 
  "/>
<polyline clip-path="url(#clip320)" style="stroke:#000000; stroke-linecap:round; stroke-linejoin:round; stroke-width:4; stroke-opacity:1; fill:none" points="
  370.994,1392.94 370.994,1374.04 
  "/>
<polyline clip-path="url(#clip320)" style="stroke:#000000; stroke-linecap:round; stroke-linejoin:round; stroke-width:4; stroke-opacity:1; fill:none" points="
  684.226,1392.94 684.226,1374.04 
  "/>
<polyline clip-path="url(#clip320)" style="stroke:#000000; stroke-linecap:round; stroke-linejoin:round; stroke-width:4; stroke-opacity:1; fill:none" points="
  997.459,1392.94 997.459,1374.04 
  "/>
<polyline clip-path="url(#clip320)" style="stroke:#000000; stroke-linecap:round; stroke-linejoin:round; stroke-width:4; stroke-opacity:1; fill:none" points="
  1310.69,1392.94 1310.69,1374.04 
  "/>
<polyline clip-path="url(#clip320)" style="stroke:#000000; stroke-linecap:round; stroke-linejoin:round; stroke-width:4; stroke-opacity:1; fill:none" points="
  1623.92,1392.94 1623.92,1374.04 
  "/>
<polyline clip-path="url(#clip320)" style="stroke:#000000; stroke-linecap:round; stroke-linejoin:round; stroke-width:4; stroke-opacity:1; fill:none" points="
  1937.16,1392.94 1937.16,1374.04 
  "/>
<polyline clip-path="url(#clip320)" style="stroke:#000000; stroke-linecap:round; stroke-linejoin:round; stroke-width:4; stroke-opacity:1; fill:none" points="
  2250.39,1392.94 2250.39,1374.04 
  "/>
<path clip-path="url(#clip320)" d="M325.195 1451.7 L369.709 1451.7 L369.709 1457.6 L325.195 1457.6 L325.195 1451.7 Z" fill="#000000" fill-rule="evenodd" fill-opacity="1" /><path clip-path="url(#clip320)" d="M406.098 1448.99 Q411.132 1450.06 413.945 1453.47 Q416.792 1456.87 416.792 1461.87 Q416.792 1469.54 411.514 1473.75 Q406.237 1477.95 396.514 1477.95 Q393.251 1477.95 389.778 1477.29 Q386.341 1476.66 382.66 1475.38 L382.66 1468.61 Q385.577 1470.31 389.049 1471.18 Q392.521 1472.04 396.306 1472.04 Q402.903 1472.04 406.341 1469.44 Q409.813 1466.84 409.813 1461.87 Q409.813 1457.29 406.584 1454.72 Q403.389 1452.11 397.66 1452.11 L391.619 1452.11 L391.619 1446.35 L397.938 1446.35 Q403.112 1446.35 405.855 1444.3 Q408.598 1442.22 408.598 1438.33 Q408.598 1434.34 405.751 1432.22 Q402.938 1430.07 397.66 1430.07 Q394.778 1430.07 391.48 1430.69 Q388.181 1431.32 384.223 1432.63 L384.223 1426.38 Q388.216 1425.27 391.688 1424.72 Q395.195 1424.16 398.285 1424.16 Q406.271 1424.16 410.924 1427.81 Q415.577 1431.42 415.577 1437.6 Q415.577 1441.91 413.112 1444.89 Q410.646 1447.84 406.098 1448.99 Z" fill="#000000" fill-rule="evenodd" fill-opacity="1" /><path clip-path="url(#clip320)" d="M639.14 1451.7 L683.653 1451.7 L683.653 1457.6 L639.14 1457.6 L639.14 1451.7 Z" fill="#000000" fill-rule="evenodd" fill-opacity="1" /><path clip-path="url(#clip320)" d="M704.834 1471.04 L729.313 1471.04 L729.313 1476.94 L696.396 1476.94 L696.396 1471.04 Q700.389 1466.91 707.264 1459.96 Q714.174 1452.98 715.945 1450.97 Q719.313 1447.18 720.632 1444.58 Q721.987 1441.94 721.987 1439.41 Q721.987 1435.27 719.07 1432.67 Q716.188 1430.07 711.535 1430.07 Q708.237 1430.07 704.556 1431.21 Q700.91 1432.36 696.744 1434.68 L696.744 1427.6 Q700.98 1425.9 704.66 1425.03 Q708.341 1424.16 711.396 1424.16 Q719.452 1424.16 724.243 1428.19 Q729.035 1432.22 729.035 1438.95 Q729.035 1442.15 727.82 1445.03 Q726.639 1447.88 723.48 1451.77 Q722.612 1452.77 717.959 1457.6 Q713.306 1462.39 704.834 1471.04 Z" fill="#000000" fill-rule="evenodd" fill-opacity="1" /><path clip-path="url(#clip320)" d="M952.095 1451.7 L996.608 1451.7 L996.608 1457.6 L952.095 1457.6 L952.095 1451.7 Z" fill="#000000" fill-rule="evenodd" fill-opacity="1" /><path clip-path="url(#clip320)" d="M1012.96 1471.04 L1024.42 1471.04 L1024.42 1431.49 L1011.96 1433.99 L1011.96 1427.6 L1024.35 1425.1 L1031.36 1425.1 L1031.36 1471.04 L1042.82 1471.04 L1042.82 1476.94 L1012.96 1476.94 L1012.96 1471.04 Z" fill="#000000" fill-rule="evenodd" fill-opacity="1" /><path clip-path="url(#clip320)" d="M1310.69 1429.72 Q1305.27 1429.72 1302.53 1435.07 Q1299.82 1440.38 1299.82 1451.07 Q1299.82 1461.73 1302.53 1467.08 Q1305.27 1472.39 1310.69 1472.39 Q1316.14 1472.39 1318.85 1467.08 Q1321.59 1461.73 1321.59 1451.07 Q1321.59 1440.38 1318.85 1435.07 Q1316.14 1429.72 1310.69 1429.72 M1310.69 1424.16 Q1319.41 1424.16 1323.99 1431.07 Q1328.61 1437.95 1328.61 1451.07 Q1328.61 1464.16 1323.99 1471.07 Q1319.41 1477.95 1310.69 1477.95 Q1301.98 1477.95 1297.36 1471.07 Q1292.77 1464.16 1292.77 1451.07 Q1292.77 1437.95 1297.36 1431.07 Q1301.98 1424.16 1310.69 1424.16 Z" fill="#000000" fill-rule="evenodd" fill-opacity="1" /><path clip-path="url(#clip320)" d="M1609.5 1471.04 L1620.96 1471.04 L1620.96 1431.49 L1608.49 1433.99 L1608.49 1427.6 L1620.89 1425.1 L1627.9 1425.1 L1627.9 1471.04 L1639.36 1471.04 L1639.36 1476.94 L1609.5 1476.94 L1609.5 1471.04 Z" fill="#000000" fill-rule="evenodd" fill-opacity="1" /><path clip-path="url(#clip320)" d="M1929.14 1471.04 L1953.61 1471.04 L1953.61 1476.94 L1920.7 1476.94 L1920.7 1471.04 Q1924.69 1466.91 1931.57 1459.96 Q1938.48 1452.98 1940.25 1450.97 Q1943.61 1447.18 1944.93 1444.58 Q1946.29 1441.94 1946.29 1439.41 Q1946.29 1435.27 1943.37 1432.67 Q1940.49 1430.07 1935.84 1430.07 Q1932.54 1430.07 1928.86 1431.21 Q1925.21 1432.36 1921.05 1434.68 L1921.05 1427.6 Q1925.28 1425.9 1928.96 1425.03 Q1932.64 1424.16 1935.7 1424.16 Q1943.75 1424.16 1948.55 1428.19 Q1953.34 1432.22 1953.34 1438.95 Q1953.34 1442.15 1952.12 1445.03 Q1950.94 1447.88 1947.78 1451.77 Q1946.91 1452.77 1942.26 1457.6 Q1937.61 1462.39 1929.14 1471.04 Z" fill="#000000" fill-rule="evenodd" fill-opacity="1" /><path clip-path="url(#clip320)" d="M2256.76 1448.99 Q2261.8 1450.06 2264.61 1453.47 Q2267.46 1456.87 2267.46 1461.87 Q2267.46 1469.54 2262.18 1473.75 Q2256.9 1477.95 2247.18 1477.95 Q2243.91 1477.95 2240.44 1477.29 Q2237 1476.66 2233.32 1475.38 L2233.32 1468.61 Q2236.24 1470.31 2239.71 1471.18 Q2243.18 1472.04 2246.97 1472.04 Q2253.57 1472.04 2257 1469.44 Q2260.48 1466.84 2260.48 1461.87 Q2260.48 1457.29 2257.25 1454.72 Q2254.05 1452.11 2248.32 1452.11 L2242.28 1452.11 L2242.28 1446.35 L2248.6 1446.35 Q2253.77 1446.35 2256.52 1444.3 Q2259.26 1442.22 2259.26 1438.33 Q2259.26 1434.34 2256.41 1432.22 Q2253.6 1430.07 2248.32 1430.07 Q2245.44 1430.07 2242.14 1430.69 Q2238.84 1431.32 2234.89 1432.63 L2234.89 1426.38 Q2238.88 1425.27 2242.35 1424.72 Q2245.86 1424.16 2248.95 1424.16 Q2256.93 1424.16 2261.59 1427.81 Q2266.24 1431.42 2266.24 1437.6 Q2266.24 1441.91 2263.77 1444.89 Q2261.31 1447.84 2256.76 1448.99 Z" fill="#000000" fill-rule="evenodd" fill-opacity="1" /><path clip-path="url(#clip320)" d="M1328.23 1529.32 Q1328.23 1531.62 1326.8 1532.93 Q1325.36 1534.2 1323.72 1534.2 Q1322.17 1534.2 1321.35 1533.3 Q1320.53 1532.4 1320.53 1531.25 Q1320.53 1529.69 1321.67 1528.34 Q1322.82 1526.99 1324.54 1526.7 Q1322.86 1525.64 1320.36 1525.64 Q1318.72 1525.64 1317.29 1526.5 Q1315.89 1527.36 1315.03 1528.46 Q1314.21 1529.57 1313.48 1531.17 Q1312.78 1532.73 1312.49 1533.67 Q1312.25 1534.57 1312.04 1535.55 L1309.17 1547.03 Q1307.78 1552.48 1307.78 1554.41 Q1307.78 1556.79 1308.93 1558.39 Q1310.07 1559.94 1312.37 1559.94 Q1313.27 1559.94 1314.3 1559.7 Q1315.32 1559.41 1316.63 1558.67 Q1317.99 1557.89 1319.17 1556.75 Q1320.4 1555.56 1321.59 1553.55 Q1322.78 1551.54 1323.56 1548.96 Q1323.81 1548.06 1324.63 1548.06 Q1325.65 1548.06 1325.65 1548.88 Q1325.65 1549.57 1325.08 1551.05 Q1324.54 1552.48 1323.35 1554.37 Q1322.21 1556.21 1320.69 1557.89 Q1319.17 1559.53 1316.92 1560.68 Q1314.67 1561.83 1312.21 1561.83 Q1308.68 1561.83 1306.34 1559.94 Q1304.01 1558.06 1303.15 1555.43 Q1302.94 1555.8 1302.66 1556.3 Q1302.37 1556.79 1301.51 1557.89 Q1300.69 1558.96 1299.75 1559.78 Q1298.8 1560.56 1297.33 1561.17 Q1295.89 1561.83 1294.33 1561.83 Q1292.37 1561.83 1290.6 1561.26 Q1288.88 1560.68 1287.65 1559.37 Q1286.42 1558.06 1286.42 1556.25 Q1286.42 1554.25 1287.78 1552.85 Q1289.17 1551.42 1291.06 1551.42 Q1292.24 1551.42 1293.19 1552.11 Q1294.17 1552.81 1294.17 1554.33 Q1294.17 1556.01 1293.02 1557.28 Q1291.88 1558.55 1290.24 1558.88 Q1291.92 1559.94 1294.42 1559.94 Q1297.12 1559.94 1299.25 1557.57 Q1301.38 1555.19 1302.41 1551.21 Q1304.95 1541.66 1305.93 1537.4 Q1306.92 1533.1 1306.92 1531.25 Q1306.92 1529.53 1306.47 1528.34 Q1306.02 1527.15 1305.24 1526.62 Q1304.5 1526.05 1303.8 1525.84 Q1303.15 1525.64 1302.41 1525.64 Q1301.18 1525.64 1299.79 1526.13 Q1298.43 1526.62 1296.79 1527.77 Q1295.2 1528.87 1293.68 1531.17 Q1292.16 1533.46 1291.14 1536.62 Q1290.93 1537.56 1290.03 1537.56 Q1289.05 1537.52 1289.05 1536.7 Q1289.05 1536.01 1289.58 1534.57 Q1290.15 1533.1 1291.3 1531.25 Q1292.49 1529.41 1294.01 1527.77 Q1295.56 1526.09 1297.82 1524.94 Q1300.11 1523.79 1302.57 1523.79 Q1303.68 1523.79 1304.75 1524.04 Q1305.85 1524.24 1307.16 1524.86 Q1308.52 1525.47 1309.71 1526.82 Q1310.89 1528.18 1311.63 1530.14 Q1312.12 1529.2 1312.78 1528.3 Q1313.48 1527.4 1314.54 1526.29 Q1315.65 1525.14 1317.17 1524.49 Q1318.72 1523.79 1320.44 1523.79 Q1322.13 1523.79 1323.76 1524.24 Q1325.4 1524.65 1326.8 1526 Q1328.23 1527.32 1328.23 1529.32 Z" fill="#000000" fill-rule="evenodd" fill-opacity="1" /><polyline clip-path="url(#clip322)" style="stroke:#000000; stroke-linecap:round; stroke-linejoin:round; stroke-width:2; stroke-opacity:0.1; fill:none" points="
  267.629,1354.85 2352.76,1354.85 
  "/>
<polyline clip-path="url(#clip322)" style="stroke:#000000; stroke-linecap:round; stroke-linejoin:round; stroke-width:2; stroke-opacity:0.1; fill:none" points="
  267.629,1164.28 2352.76,1164.28 
  "/>
<polyline clip-path="url(#clip322)" style="stroke:#000000; stroke-linecap:round; stroke-linejoin:round; stroke-width:2; stroke-opacity:0.1; fill:none" points="
  267.629,973.699 2352.76,973.699 
  "/>
<polyline clip-path="url(#clip322)" style="stroke:#000000; stroke-linecap:round; stroke-linejoin:round; stroke-width:2; stroke-opacity:0.1; fill:none" points="
  267.629,783.121 2352.76,783.121 
  "/>
<polyline clip-path="url(#clip322)" style="stroke:#000000; stroke-linecap:round; stroke-linejoin:round; stroke-width:2; stroke-opacity:0.1; fill:none" points="
  267.629,592.543 2352.76,592.543 
  "/>
<polyline clip-path="url(#clip322)" style="stroke:#000000; stroke-linecap:round; stroke-linejoin:round; stroke-width:2; stroke-opacity:0.1; fill:none" points="
  267.629,401.966 2352.76,401.966 
  "/>
<polyline clip-path="url(#clip322)" style="stroke:#000000; stroke-linecap:round; stroke-linejoin:round; stroke-width:2; stroke-opacity:0.1; fill:none" points="
  267.629,211.388 2352.76,211.388 
  "/>
<polyline clip-path="url(#clip320)" style="stroke:#000000; stroke-linecap:round; stroke-linejoin:round; stroke-width:4; stroke-opacity:1; fill:none" points="
  267.629,1392.94 267.629,47.2441 
  "/>
<polyline clip-path="url(#clip320)" style="stroke:#000000; stroke-linecap:round; stroke-linejoin:round; stroke-width:4; stroke-opacity:1; fill:none" points="
  267.629,1354.85 286.527,1354.85 
  "/>
<polyline clip-path="url(#clip320)" style="stroke:#000000; stroke-linecap:round; stroke-linejoin:round; stroke-width:4; stroke-opacity:1; fill:none" points="
  267.629,1164.28 286.527,1164.28 
  "/>
<polyline clip-path="url(#clip320)" style="stroke:#000000; stroke-linecap:round; stroke-linejoin:round; stroke-width:4; stroke-opacity:1; fill:none" points="
  267.629,973.699 286.527,973.699 
  "/>
<polyline clip-path="url(#clip320)" style="stroke:#000000; stroke-linecap:round; stroke-linejoin:round; stroke-width:4; stroke-opacity:1; fill:none" points="
  267.629,783.121 286.527,783.121 
  "/>
<polyline clip-path="url(#clip320)" style="stroke:#000000; stroke-linecap:round; stroke-linejoin:round; stroke-width:4; stroke-opacity:1; fill:none" points="
  267.629,592.543 286.527,592.543 
  "/>
<polyline clip-path="url(#clip320)" style="stroke:#000000; stroke-linecap:round; stroke-linejoin:round; stroke-width:4; stroke-opacity:1; fill:none" points="
  267.629,401.966 286.527,401.966 
  "/>
<polyline clip-path="url(#clip320)" style="stroke:#000000; stroke-linecap:round; stroke-linejoin:round; stroke-width:4; stroke-opacity:1; fill:none" points="
  267.629,211.388 286.527,211.388 
  "/>
<path clip-path="url(#clip320)" d="M145.866 1333.55 Q140.449 1333.55 137.706 1338.9 Q134.998 1344.21 134.998 1354.91 Q134.998 1365.57 137.706 1370.91 Q140.449 1376.23 145.866 1376.23 Q151.317 1376.23 154.026 1370.91 Q156.769 1365.57 156.769 1354.91 Q156.769 1344.21 154.026 1338.9 Q151.317 1333.55 145.866 1333.55 M145.866 1328 Q154.581 1328 159.164 1334.91 Q163.782 1341.78 163.782 1354.91 Q163.782 1368 159.164 1374.91 Q154.581 1381.78 145.866 1381.78 Q137.151 1381.78 132.533 1374.91 Q127.949 1368 127.949 1354.91 Q127.949 1341.78 132.533 1334.91 Q137.151 1328 145.866 1328 Z" fill="#000000" fill-rule="evenodd" fill-opacity="1" /><path clip-path="url(#clip320)" d="M176.109 1371.95 L183.435 1371.95 L183.435 1380.77 L176.109 1380.77 L176.109 1371.95 Z" fill="#000000" fill-rule="evenodd" fill-opacity="1" /><path clip-path="url(#clip320)" d="M213.713 1333.55 Q208.296 1333.55 205.553 1338.9 Q202.845 1344.21 202.845 1354.91 Q202.845 1365.57 205.553 1370.91 Q208.296 1376.23 213.713 1376.23 Q219.164 1376.23 221.872 1370.91 Q224.615 1365.57 224.615 1354.91 Q224.615 1344.21 221.872 1338.9 Q219.164 1333.55 213.713 1333.55 M213.713 1328 Q222.428 1328 227.011 1334.91 Q231.629 1341.78 231.629 1354.91 Q231.629 1368 227.011 1374.91 Q222.428 1381.78 213.713 1381.78 Q204.998 1381.78 200.379 1374.91 Q195.796 1368 195.796 1354.91 Q195.796 1341.78 200.379 1334.91 Q204.998 1328 213.713 1328 Z" fill="#000000" fill-rule="evenodd" fill-opacity="1" /><path clip-path="url(#clip320)" d="M147.706 1142.97 Q142.29 1142.97 139.546 1148.32 Q136.838 1153.63 136.838 1164.33 Q136.838 1174.99 139.546 1180.34 Q142.29 1185.65 147.706 1185.65 Q153.158 1185.65 155.866 1180.34 Q158.609 1174.99 158.609 1164.33 Q158.609 1153.63 155.866 1148.32 Q153.158 1142.97 147.706 1142.97 M147.706 1137.42 Q156.421 1137.42 161.005 1144.33 Q165.623 1151.2 165.623 1164.33 Q165.623 1177.42 161.005 1184.33 Q156.421 1191.2 147.706 1191.2 Q138.991 1191.2 134.373 1184.33 Q129.79 1177.42 129.79 1164.33 Q129.79 1151.2 134.373 1144.33 Q138.991 1137.42 147.706 1137.42 Z" fill="#000000" fill-rule="evenodd" fill-opacity="1" /><path clip-path="url(#clip320)" d="M177.949 1181.38 L185.275 1181.38 L185.275 1190.2 L177.949 1190.2 L177.949 1181.38 Z" fill="#000000" fill-rule="evenodd" fill-opacity="1" /><path clip-path="url(#clip320)" d="M201.768 1184.29 L213.227 1184.29 L213.227 1144.75 L200.761 1147.25 L200.761 1140.86 L213.157 1138.36 L220.171 1138.36 L220.171 1184.29 L231.629 1184.29 L231.629 1190.2 L201.768 1190.2 L201.768 1184.29 Z" fill="#000000" fill-rule="evenodd" fill-opacity="1" /><path clip-path="url(#clip320)" d="M148.262 952.397 Q142.845 952.397 140.102 957.744 Q137.394 963.056 137.394 973.751 Q137.394 984.41 140.102 989.758 Q142.845 995.07 148.262 995.07 Q153.713 995.07 156.421 989.758 Q159.164 984.41 159.164 973.751 Q159.164 963.056 156.421 957.744 Q153.713 952.397 148.262 952.397 M148.262 946.841 Q156.977 946.841 161.56 953.751 Q166.178 960.626 166.178 973.751 Q166.178 986.841 161.56 993.751 Q156.977 1000.63 148.262 1000.63 Q139.546 1000.63 134.928 993.751 Q130.345 986.841 130.345 973.751 Q130.345 960.626 134.928 953.751 Q139.546 946.841 148.262 946.841 Z" fill="#000000" fill-rule="evenodd" fill-opacity="1" /><path clip-path="url(#clip320)" d="M178.505 990.799 L185.831 990.799 L185.831 999.619 L178.505 999.619 L178.505 990.799 Z" fill="#000000" fill-rule="evenodd" fill-opacity="1" /><path clip-path="url(#clip320)" d="M207.15 993.716 L231.629 993.716 L231.629 999.619 L198.713 999.619 L198.713 993.716 Q202.706 989.584 209.581 982.64 Q216.491 975.66 218.261 973.647 Q221.629 969.862 222.949 967.258 Q224.303 964.619 224.303 962.084 Q224.303 957.952 221.386 955.348 Q218.504 952.744 213.852 952.744 Q210.553 952.744 206.873 953.89 Q203.227 955.036 199.06 957.362 L199.06 950.279 Q203.296 948.577 206.977 947.709 Q210.657 946.841 213.713 946.841 Q221.768 946.841 226.56 950.869 Q231.352 954.897 231.352 961.633 Q231.352 964.827 230.136 967.709 Q228.956 970.556 225.796 974.445 Q224.928 975.452 220.275 980.278 Q215.622 985.07 207.15 993.716 Z" fill="#000000" fill-rule="evenodd" fill-opacity="1" /><path clip-path="url(#clip320)" d="M146.838 761.819 Q141.421 761.819 138.678 767.166 Q135.97 772.479 135.97 783.173 Q135.97 793.833 138.678 799.18 Q141.421 804.492 146.838 804.492 Q152.289 804.492 154.998 799.18 Q157.741 793.833 157.741 783.173 Q157.741 772.479 154.998 767.166 Q152.289 761.819 146.838 761.819 M146.838 756.263 Q155.553 756.263 160.137 763.173 Q164.755 770.048 164.755 783.173 Q164.755 796.263 160.137 803.173 Q155.553 810.048 146.838 810.048 Q138.123 810.048 133.505 803.173 Q128.922 796.263 128.922 783.173 Q128.922 770.048 133.505 763.173 Q138.123 756.263 146.838 756.263 Z" fill="#000000" fill-rule="evenodd" fill-opacity="1" /><path clip-path="url(#clip320)" d="M177.081 800.222 L184.407 800.222 L184.407 809.041 L177.081 809.041 L177.081 800.222 Z" fill="#000000" fill-rule="evenodd" fill-opacity="1" /><path clip-path="url(#clip320)" d="M220.935 781.09 Q225.97 782.166 228.782 785.569 Q231.629 788.972 231.629 793.972 Q231.629 801.645 226.352 805.847 Q221.074 810.048 211.352 810.048 Q208.088 810.048 204.616 809.388 Q201.178 808.763 197.498 807.478 L197.498 800.708 Q200.414 802.409 203.886 803.277 Q207.359 804.145 211.143 804.145 Q217.741 804.145 221.178 801.541 Q224.65 798.937 224.65 793.972 Q224.65 789.388 221.421 786.819 Q218.227 784.215 212.497 784.215 L206.456 784.215 L206.456 778.451 L212.775 778.451 Q217.949 778.451 220.692 776.402 Q223.435 774.319 223.435 770.43 Q223.435 766.437 220.588 764.319 Q217.775 762.166 212.497 762.166 Q209.616 762.166 206.317 762.791 Q203.018 763.416 199.06 764.736 L199.06 758.486 Q203.053 757.375 206.525 756.819 Q210.032 756.263 213.122 756.263 Q221.109 756.263 225.761 759.909 Q230.414 763.52 230.414 769.701 Q230.414 774.006 227.949 776.993 Q225.484 779.944 220.935 781.09 Z" fill="#000000" fill-rule="evenodd" fill-opacity="1" /><path clip-path="url(#clip320)" d="M145.137 571.241 Q139.72 571.241 136.977 576.588 Q134.269 581.901 134.269 592.595 Q134.269 603.255 136.977 608.602 Q139.72 613.915 145.137 613.915 Q150.588 613.915 153.296 608.602 Q156.039 603.255 156.039 592.595 Q156.039 581.901 153.296 576.588 Q150.588 571.241 145.137 571.241 M145.137 565.686 Q153.852 565.686 158.435 572.595 Q163.053 579.47 163.053 592.595 Q163.053 605.686 158.435 612.595 Q153.852 619.47 145.137 619.47 Q136.421 619.47 131.803 612.595 Q127.22 605.686 127.22 592.595 Q127.22 579.47 131.803 572.595 Q136.421 565.686 145.137 565.686 Z" fill="#000000" fill-rule="evenodd" fill-opacity="1" /><path clip-path="url(#clip320)" d="M175.38 609.644 L182.706 609.644 L182.706 618.463 L175.38 618.463 L175.38 609.644 Z" fill="#000000" fill-rule="evenodd" fill-opacity="1" /><path clip-path="url(#clip320)" d="M217.254 572.734 L199.546 600.408 L217.254 600.408 L217.254 572.734 M215.414 566.623 L224.234 566.623 L224.234 600.408 L231.629 600.408 L231.629 606.241 L224.234 606.241 L224.234 618.463 L217.254 618.463 L217.254 606.241 L193.852 606.241 L193.852 599.47 L215.414 566.623 Z" fill="#000000" fill-rule="evenodd" fill-opacity="1" /><path clip-path="url(#clip320)" d="M147.359 380.664 Q141.942 380.664 139.199 386.011 Q136.491 391.323 136.491 402.018 Q136.491 412.677 139.199 418.024 Q141.942 423.337 147.359 423.337 Q152.81 423.337 155.519 418.024 Q158.262 412.677 158.262 402.018 Q158.262 391.323 155.519 386.011 Q152.81 380.664 147.359 380.664 M147.359 375.108 Q156.074 375.108 160.657 382.018 Q165.276 388.893 165.276 402.018 Q165.276 415.108 160.657 422.017 Q156.074 428.892 147.359 428.892 Q138.644 428.892 134.026 422.017 Q129.442 415.108 129.442 402.018 Q129.442 388.893 134.026 382.018 Q138.644 375.108 147.359 375.108 Z" fill="#000000" fill-rule="evenodd" fill-opacity="1" /><path clip-path="url(#clip320)" d="M177.602 419.066 L184.928 419.066 L184.928 427.886 L177.602 427.886 L177.602 419.066 Z" fill="#000000" fill-rule="evenodd" fill-opacity="1" /><path clip-path="url(#clip320)" d="M200.275 376.046 L227.81 376.046 L227.81 381.948 L206.699 381.948 L206.699 394.657 Q208.227 394.136 209.754 393.893 Q211.282 393.615 212.81 393.615 Q221.49 393.615 226.56 398.372 Q231.629 403.129 231.629 411.254 Q231.629 419.622 226.421 424.274 Q221.213 428.892 211.734 428.892 Q208.47 428.892 205.067 428.337 Q201.699 427.781 198.088 426.67 L198.088 419.622 Q201.213 421.323 204.546 422.156 Q207.879 422.99 211.595 422.99 Q217.602 422.99 221.109 419.83 Q224.615 416.67 224.615 411.254 Q224.615 405.837 221.109 402.677 Q217.602 399.518 211.595 399.518 Q208.782 399.518 205.97 400.143 Q203.192 400.768 200.275 402.087 L200.275 376.046 Z" fill="#000000" fill-rule="evenodd" fill-opacity="1" /><path clip-path="url(#clip320)" d="M145.623 190.086 Q140.206 190.086 137.463 195.433 Q134.755 200.745 134.755 211.44 Q134.755 222.1 137.463 227.447 Q140.206 232.759 145.623 232.759 Q151.074 232.759 153.783 227.447 Q156.526 222.1 156.526 211.44 Q156.526 200.745 153.783 195.433 Q151.074 190.086 145.623 190.086 M145.623 184.53 Q154.338 184.53 158.921 191.44 Q163.539 198.315 163.539 211.44 Q163.539 224.53 158.921 231.44 Q154.338 238.315 145.623 238.315 Q136.908 238.315 132.29 231.44 Q127.706 224.53 127.706 211.44 Q127.706 198.315 132.29 191.44 Q136.908 184.53 145.623 184.53 Z" fill="#000000" fill-rule="evenodd" fill-opacity="1" /><path clip-path="url(#clip320)" d="M175.866 228.488 L183.192 228.488 L183.192 237.308 L175.866 237.308 L175.866 228.488 Z" fill="#000000" fill-rule="evenodd" fill-opacity="1" /><path clip-path="url(#clip320)" d="M214.338 208.593 Q209.616 208.593 206.838 211.822 Q204.095 215.051 204.095 220.676 Q204.095 226.266 206.838 229.53 Q209.616 232.759 214.338 232.759 Q219.06 232.759 221.803 229.53 Q224.581 226.266 224.581 220.676 Q224.581 215.051 221.803 211.822 Q219.06 208.593 214.338 208.593 M228.261 186.614 L228.261 193.002 Q225.622 191.752 222.914 191.093 Q220.24 190.433 217.602 190.433 Q210.657 190.433 206.977 195.121 Q203.331 199.808 202.81 209.287 Q204.859 206.266 207.949 204.669 Q211.039 203.037 214.754 203.037 Q222.567 203.037 227.081 207.794 Q231.629 212.516 231.629 220.676 Q231.629 228.662 226.907 233.488 Q222.185 238.315 214.338 238.315 Q205.345 238.315 200.588 231.44 Q195.831 224.53 195.831 211.44 Q195.831 199.148 201.664 191.857 Q207.498 184.53 217.324 184.53 Q219.963 184.53 222.636 185.051 Q225.345 185.572 228.261 186.614 Z" fill="#000000" fill-rule="evenodd" fill-opacity="1" /><path clip-path="url(#clip320)" d="M19.3207 864.304 L66.3517 864.304 L66.3517 854.42 Q66.3517 841.903 60.6804 836.11 Q55.0091 830.277 42.7754 830.277 Q30.6227 830.277 24.9919 836.11 Q19.3207 841.903 19.3207 854.42 L19.3207 864.304 M12.5962 872.487 L12.5962 855.676 Q12.5962 838.095 19.9283 829.871 Q27.2199 821.648 42.7754 821.648 Q58.4119 821.648 65.744 829.912 Q73.0762 838.176 73.0762 855.676 L73.0762 872.487 L12.5962 872.487 Z" fill="#000000" fill-rule="evenodd" fill-opacity="1" /><path clip-path="url(#clip320)" d="M48.5277 770.121 L52.1735 770.121 L52.1735 804.391 Q59.8702 803.905 63.9211 799.773 Q67.9315 795.601 67.9315 788.188 Q67.9315 783.894 66.8783 779.883 Q65.825 775.832 63.7186 771.863 L70.7671 771.863 Q72.4685 775.873 73.3597 780.086 Q74.2509 784.299 74.2509 788.633 Q74.2509 799.49 67.9315 805.85 Q61.6121 812.169 50.8367 812.169 Q39.6967 812.169 33.1748 806.174 Q26.6123 800.138 26.6123 789.93 Q26.6123 780.775 32.5266 775.468 Q38.4004 770.121 48.5277 770.121 M46.3402 777.574 Q40.2233 777.655 36.5775 781.018 Q32.9317 784.339 32.9317 789.849 Q32.9317 796.087 36.456 799.854 Q39.9803 803.581 46.3807 804.148 L46.3402 777.574 Z" fill="#000000" fill-rule="evenodd" fill-opacity="1" /><path clip-path="url(#clip320)" d="M45.692 720.173 L73.0762 720.173 L73.0762 727.627 L45.9351 727.627 Q39.4942 727.627 36.2939 730.138 Q33.0937 732.65 33.0937 737.673 Q33.0937 743.709 36.9421 747.193 Q40.7905 750.676 47.4339 750.676 L73.0762 750.676 L73.0762 758.17 L27.706 758.17 L27.706 750.676 L34.7546 750.676 Q30.6632 748.003 28.6377 744.397 Q26.6123 740.752 26.6123 736.012 Q26.6123 728.194 31.4734 724.183 Q36.2939 720.173 45.692 720.173 Z" fill="#000000" fill-rule="evenodd" fill-opacity="1" /><path clip-path="url(#clip320)" d="M29.0428 676.383 L36.0914 676.383 Q34.471 679.542 33.6609 682.945 Q32.8507 686.348 32.8507 689.994 Q32.8507 695.543 34.5521 698.339 Q36.2534 701.093 39.6562 701.093 Q42.2488 701.093 43.7476 699.108 Q45.2059 697.123 46.5427 691.128 L47.1099 688.576 Q48.8112 680.636 51.9304 677.314 Q55.0091 673.952 60.5589 673.952 Q66.8783 673.952 70.5646 678.975 Q74.2509 683.958 74.2509 692.708 Q74.2509 696.354 73.5218 700.324 Q72.8331 704.253 71.4153 708.628 L63.7186 708.628 Q65.8655 704.496 66.9593 700.486 Q68.0125 696.475 68.0125 692.546 Q68.0125 687.28 66.2301 684.444 Q64.4072 681.608 61.126 681.608 Q58.0878 681.608 56.4675 683.674 Q54.8471 685.7 53.3483 692.627 L52.7406 695.219 Q51.2823 702.146 48.2846 705.225 Q45.2464 708.304 39.9803 708.304 Q33.5798 708.304 30.0961 703.767 Q26.6123 699.23 26.6123 690.885 Q26.6123 686.753 27.2199 683.107 Q27.8276 679.461 29.0428 676.383 Z" fill="#000000" fill-rule="evenodd" fill-opacity="1" /><path clip-path="url(#clip320)" d="M27.706 662.083 L27.706 654.629 L73.0762 654.629 L73.0762 662.083 L27.706 662.083 M10.0441 662.083 L10.0441 654.629 L19.4827 654.629 L19.4827 662.083 L10.0441 662.083 Z" fill="#000000" fill-rule="evenodd" fill-opacity="1" /><path clip-path="url(#clip320)" d="M14.8242 631.661 L27.706 631.661 L27.706 616.308 L33.4988 616.308 L33.4988 631.661 L58.1283 631.661 Q63.6781 631.661 65.2579 630.162 Q66.8378 628.623 66.8378 623.964 L66.8378 616.308 L73.0762 616.308 L73.0762 623.964 Q73.0762 632.592 69.8759 635.874 Q66.6352 639.155 58.1283 639.155 L33.4988 639.155 L33.4988 644.624 L27.706 644.624 L27.706 639.155 L14.8242 639.155 L14.8242 631.661 Z" fill="#000000" fill-rule="evenodd" fill-opacity="1" /><path clip-path="url(#clip320)" d="M77.2891 587.627 Q85.3909 590.787 87.862 593.785 Q90.333 596.782 90.333 601.806 L90.333 607.76 L84.0946 607.76 L84.0946 603.385 Q84.0946 600.307 82.6363 598.605 Q81.178 596.904 75.7498 594.838 L72.347 593.501 L27.706 611.852 L27.706 603.953 L63.192 589.774 L27.706 575.596 L27.706 567.697 L77.2891 587.627 Z" fill="#000000" fill-rule="evenodd" fill-opacity="1" /><polyline clip-path="url(#clip322)" style="stroke:#009af9; stroke-linecap:round; stroke-linejoin:round; stroke-width:12; stroke-opacity:1; fill:none" points="
  326.642,1354.85 329.775,1354.85 332.907,1354.85 336.039,1354.85 339.172,1354.85 342.304,1354.85 345.436,1354.85 348.569,1354.85 351.701,1354.85 354.833,1354.85 
  357.966,1354.84 361.098,1354.84 364.23,1354.83 367.363,1354.82 370.495,1354.8 373.627,1354.78 376.76,1354.76 379.892,1354.73 383.024,1354.69 386.157,1354.65 
  389.289,1354.6 392.421,1354.53 395.554,1354.46 398.686,1354.37 401.818,1354.27 404.95,1354.15 408.083,1354.02 411.215,1353.86 414.347,1353.68 417.48,1353.48 
  420.612,1353.25 423.744,1352.99 426.877,1352.7 430.009,1352.38 433.141,1352.02 436.274,1351.62 439.406,1351.18 442.538,1350.69 445.671,1350.15 448.803,1349.56 
  451.935,1348.91 455.068,1348.21 458.2,1347.44 461.332,1346.61 464.465,1345.71 467.597,1344.73 470.729,1343.68 473.862,1342.55 476.994,1341.33 480.126,1340.03 
  483.259,1338.64 486.391,1337.15 489.523,1335.57 492.656,1333.89 495.788,1332.1 498.92,1330.21 502.053,1328.22 505.185,1326.11 508.317,1323.89 511.45,1321.55 
  514.582,1319.1 517.714,1316.53 520.847,1313.84 523.979,1311.04 527.111,1308.11 530.244,1305.07 533.376,1301.91 536.508,1298.63 539.64,1295.23 542.773,1291.72 
  545.905,1288.1 549.037,1284.37 552.17,1280.54 555.302,1276.6 558.434,1272.57 561.567,1268.45 564.699,1264.24 567.831,1259.95 570.964,1255.59 574.096,1251.17 
  577.228,1246.69 580.361,1242.16 583.493,1237.59 586.625,1232.99 589.758,1228.37 592.89,1223.74 596.022,1219.12 599.155,1214.51 602.287,1209.93 605.419,1205.39 
  608.552,1200.9 611.684,1196.48 614.816,1192.14 617.949,1187.89 621.081,1183.75 624.213,1179.73 627.346,1175.86 630.478,1172.13 633.61,1168.57 636.743,1165.2 
  639.875,1162.02 643.007,1159.05 646.14,1156.31 649.272,1153.8 652.404,1151.55 655.537,1149.57 658.669,1147.87 661.801,1146.45 664.934,1145.34 668.066,1144.54 
  671.198,1144.06 674.33,1143.92 677.463,1144.11 680.595,1144.66 683.727,1145.55 686.86,1146.8 689.992,1148.41 693.124,1150.38 696.257,1152.72 699.389,1155.42 
  702.521,1158.47 705.654,1161.88 708.786,1165.65 711.918,1169.75 715.051,1174.19 718.183,1178.96 721.315,1184.03 724.448,1189.41 727.58,1195.06 730.712,1200.98 
  733.845,1207.15 736.977,1213.54 740.109,1220.13 743.242,1226.9 746.374,1233.81 749.506,1240.85 752.639,1247.99 755.771,1255.18 758.903,1262.41 762.036,1269.63 
  765.168,1276.81 768.3,1283.92 771.433,1290.92 774.565,1297.76 777.697,1304.42 780.83,1310.84 783.962,1316.99 787.094,1322.83 790.227,1328.31 793.359,1333.4 
  796.491,1338.05 799.624,1342.22 802.756,1345.86 805.888,1348.95 809.02,1351.43 812.153,1353.27 815.285,1354.42 818.417,1354.85 821.55,1354.53 824.682,1353.41 
  827.814,1351.47 830.947,1348.67 834.079,1344.98 837.211,1340.38 840.344,1334.83 843.476,1328.33 846.608,1320.84 849.741,1312.34 852.873,1302.83 856.005,1292.3 
  859.138,1280.72 862.27,1268.11 865.402,1254.44 868.535,1239.74 871.667,1224 874.799,1207.23 877.932,1189.43 881.064,1170.64 884.196,1150.86 887.329,1130.13 
  890.461,1108.45 893.593,1085.88 896.726,1062.43 899.858,1038.16 902.99,1013.09 906.123,987.268 909.255,960.751 912.387,933.585 915.52,905.823 918.652,877.524 
  921.784,848.747 924.917,819.553 928.049,790.009 931.181,760.18 934.314,730.137 937.446,699.951 940.578,669.693 943.711,639.439 946.843,609.264 949.975,579.244 
  953.107,549.455 956.24,519.975 959.372,490.882 962.504,462.252 965.637,434.163 968.769,406.69 971.901,379.909 975.034,353.893 978.166,328.715 981.298,304.445 
  984.431,281.152 987.563,258.901 990.695,237.756 993.828,217.779 996.96,199.025 1000.09,181.55 1003.22,165.404 1006.36,150.635 1009.49,137.285 1012.62,125.393 
  1015.75,114.994 1018.89,106.119 1022.02,98.7923 1025.15,93.0362 1028.28,88.8668 1031.42,86.2958 1034.55,85.3298 1037.68,85.9709 1040.81,88.2158 1043.94,92.0569 
  1047.08,97.4811 1050.21,104.471 1053.34,113.004 1056.47,123.053 1059.61,134.587 1062.74,147.569 1065.87,161.959 1069,177.713 1072.14,194.782 1075.27,213.114 
  1078.4,232.652 1081.53,253.338 1084.67,275.11 1087.8,297.902 1090.93,321.647 1094.06,346.274 1097.19,371.712 1100.33,397.887 1103.46,424.724 1106.59,452.146 
  1109.72,480.077 1112.86,508.438 1115.99,537.152 1119.12,566.14 1122.25,595.326 1125.39,624.633 1128.52,653.986 1131.65,683.309 1134.78,712.53 1137.91,741.578 
  1141.05,770.385 1144.18,798.883 1147.31,827.01 1150.44,854.704 1153.58,881.907 1156.71,908.564 1159.84,934.625 1162.97,960.041 1166.11,984.768 1169.24,1008.77 
  1172.37,1032 1175.5,1054.44 1178.63,1076.05 1181.77,1096.81 1184.9,1116.7 1188.03,1135.71 1191.16,1153.82 1194.3,1171.03 1197.43,1187.33 1200.56,1202.72 
  1203.69,1217.2 1206.83,1230.8 1209.96,1243.5 1213.09,1255.34 1216.22,1266.32 1219.36,1276.48 1222.49,1285.82 1225.62,1294.39 1228.75,1302.2 1231.88,1309.29 
  1235.02,1315.7 1238.15,1321.44 1241.28,1326.57 1244.41,1331.12 1247.55,1335.12 1250.68,1338.62 1253.81,1341.64 1256.94,1344.24 1260.08,1346.45 1263.21,1348.3 
  1266.34,1349.83 1269.47,1351.08 1272.6,1352.09 1275.74,1352.88 1278.87,1353.49 1282,1353.95 1285.13,1354.28 1288.27,1354.52 1291.4,1354.67 1294.53,1354.76 
  1297.66,1354.82 1300.8,1354.84 1303.93,1354.85 1307.06,1354.85 1310.19,1354.85 1313.32,1354.85 1316.46,1354.85 1319.59,1354.85 1322.72,1354.83 1325.85,1354.78 
  1328.99,1354.7 1332.12,1354.57 1335.25,1354.37 1338.38,1354.07 1341.52,1353.66 1344.65,1353.1 1347.78,1352.37 1350.91,1351.43 1354.05,1350.26 1357.18,1348.82 
  1360.31,1347.07 1363.44,1344.98 1366.57,1342.51 1369.71,1339.63 1372.84,1336.29 1375.97,1332.45 1379.1,1328.08 1382.24,1323.14 1385.37,1317.6 1388.5,1311.41 
  1391.63,1304.54 1394.77,1296.96 1397.9,1288.64 1401.03,1279.54 1404.16,1269.65 1407.29,1258.93 1410.43,1247.37 1413.56,1234.94 1416.69,1221.63 1419.82,1207.43 
  1422.96,1192.33 1426.09,1176.32 1429.22,1159.4 1432.35,1141.58 1435.49,1122.85 1438.62,1103.24 1441.75,1082.75 1444.88,1061.41 1448.01,1039.24 1451.15,1016.25 
  1454.28,992.493 1457.41,967.994 1460.54,942.793 1463.68,916.932 1466.81,890.46 1469.94,863.425 1473.07,835.881 1476.21,807.886 1479.34,779.499 1482.47,750.783 
  1485.6,721.805 1488.74,692.631 1491.87,663.333 1495,633.982 1498.13,604.652 1501.26,575.419 1504.4,546.359 1507.53,517.549 1510.66,489.068 1513.79,460.992 
  1516.93,433.399 1520.06,406.368 1523.19,379.974 1526.32,354.293 1529.46,329.399 1532.59,305.365 1535.72,282.262 1538.85,260.158 1541.98,239.12 1545.12,219.209 
  1548.25,200.487 1551.38,183.01 1554.51,166.832 1557.65,152.002 1560.78,138.567 1563.91,126.568 1567.04,116.042 1570.18,107.023 1573.31,99.5386 1576.44,93.6136 
  1579.57,89.2666 1582.7,86.5121 1585.84,85.3596 1588.97,85.8137 1592.1,87.874 1595.23,91.5353 1598.37,96.7875 1601.5,103.616 1604.63,112 1607.76,121.917 
  1610.9,133.337 1614.03,146.227 1617.16,160.548 1620.29,176.261 1623.43,193.317 1626.56,211.669 1629.69,231.263 1632.82,252.043 1635.95,273.948 1639.09,296.916 
  1642.22,320.882 1645.35,345.779 1648.48,371.536 1651.62,398.081 1654.75,425.342 1657.88,453.243 1661.01,481.709 1664.15,510.663 1667.28,540.028 1670.41,569.726 
  1673.54,599.681 1676.67,629.816 1679.81,660.053 1682.94,690.317 1686.07,720.534 1689.2,750.631 1692.34,780.535 1695.47,810.177 1698.6,839.49 1701.73,868.407 
  1704.87,896.865 1708,924.804 1711.13,952.166 1714.26,978.895 1717.39,1004.94 1720.53,1030.25 1723.66,1054.79 1726.79,1078.5 1729.92,1101.36 1733.06,1123.32 
  1736.19,1144.36 1739.32,1164.45 1742.45,1183.56 1745.59,1201.67 1748.72,1218.77 1751.85,1234.84 1754.98,1249.87 1758.12,1263.87 1761.25,1276.82 1764.38,1288.72 
  1767.51,1299.59 1770.64,1309.42 1773.78,1318.24 1776.91,1326.05 1780.04,1332.87 1783.17,1338.71 1786.31,1343.61 1789.44,1347.59 1792.57,1350.67 1795.7,1352.88 
  1798.84,1354.26 1801.97,1354.83 1805.1,1354.64 1808.23,1353.71 1811.36,1352.09 1814.5,1349.81 1817.63,1346.91 1820.76,1343.44 1823.89,1339.43 1827.03,1334.93 
  1830.16,1329.98 1833.29,1324.61 1836.42,1318.88 1839.56,1312.83 1842.69,1306.49 1845.82,1299.9 1848.95,1293.12 1852.08,1286.16 1855.22,1279.09 1858.35,1271.93 
  1861.48,1264.71 1864.61,1257.48 1867.75,1250.27 1870.88,1243.12 1874.01,1236.04 1877.14,1229.08 1880.28,1222.27 1883.41,1215.62 1886.54,1209.16 1889.67,1202.92 
  1892.81,1196.92 1895.94,1191.18 1899.07,1185.71 1902.2,1180.54 1905.33,1175.68 1908.47,1171.13 1911.6,1166.92 1914.73,1163.05 1917.86,1159.52 1921,1156.35 
  1924.13,1153.54 1927.26,1151.09 1930.39,1149 1933.53,1147.27 1936.66,1145.91 1939.79,1144.9 1942.92,1144.25 1946.05,1143.94 1949.19,1143.98 1952.32,1144.35 
  1955.45,1145.05 1958.58,1146.06 1961.72,1147.38 1964.85,1149 1967.98,1150.89 1971.11,1153.06 1974.25,1155.48 1977.38,1158.15 1980.51,1161.05 1983.64,1164.16 
  1986.77,1167.48 1989.91,1170.98 1993.04,1174.65 1996.17,1178.48 1999.3,1182.46 2002.44,1186.56 2005.57,1190.77 2008.7,1195.09 2011.83,1199.48 2014.97,1203.95 
  2018.1,1208.48 2021.23,1213.05 2024.36,1217.65 2027.5,1222.27 2030.63,1226.9 2033.76,1231.52 2036.89,1236.13 2040.02,1240.7 2043.16,1245.25 2046.29,1249.75 
  2049.42,1254.19 2052.55,1258.57 2055.69,1262.88 2058.82,1267.12 2061.95,1271.27 2065.08,1275.33 2068.22,1279.3 2071.35,1283.16 2074.48,1286.93 2077.61,1290.58 
  2080.74,1294.13 2083.88,1297.56 2087.01,1300.87 2090.14,1304.07 2093.27,1307.16 2096.41,1310.12 2099.54,1312.96 2102.67,1315.69 2105.8,1318.29 2108.94,1320.78 
  2112.07,1323.15 2115.2,1325.41 2118.33,1327.56 2121.46,1329.59 2124.6,1331.51 2127.73,1333.33 2130.86,1335.05 2133.99,1336.66 2137.13,1338.18 2140.26,1339.6 
  2143.39,1340.93 2146.52,1342.17 2149.66,1343.33 2152.79,1344.41 2155.92,1345.4 2159.05,1346.33 2162.19,1347.18 2165.32,1347.97 2168.45,1348.7 2171.58,1349.36 
  2174.71,1349.97 2177.85,1350.52 2180.98,1351.03 2184.11,1351.48 2187.24,1351.9 2190.38,1352.27 2193.51,1352.6 2196.64,1352.9 2199.77,1353.17 2202.91,1353.41 
  2206.04,1353.62 2209.17,1353.81 2212.3,1353.97 2215.43,1354.11 2218.57,1354.23 2221.7,1354.34 2224.83,1354.43 2227.96,1354.51 2231.1,1354.58 2234.23,1354.63 
  2237.36,1354.68 2240.49,1354.72 2243.63,1354.75 2246.76,1354.77 2249.89,1354.79 2253.02,1354.81 2256.15,1354.82 2259.29,1354.83 2262.42,1354.84 2265.55,1354.84 
  2268.68,1354.85 2271.82,1354.85 2274.95,1354.85 2278.08,1354.85 2281.21,1354.85 2284.35,1354.85 2287.48,1354.85 2290.61,1354.85 2293.74,1354.85 
  "/>
<polyline clip-path="url(#clip322)" style="stroke:#000000; stroke-linecap:round; stroke-linejoin:round; stroke-width:4; stroke-opacity:1; fill:none" points="
  1467.31,2738.64 1467.31,-1298.45 
  "/>
<path clip-path="url(#clip320)" d="
M337.134 325.381 L1056.69 325.381 L1056.69 92.1006 L337.134 92.1006  Z
  " fill="#ffffff" fill-rule="evenodd" fill-opacity="1"/>
<polyline clip-path="url(#clip320)" style="stroke:#000000; stroke-linecap:round; stroke-linejoin:round; stroke-width:4; stroke-opacity:1; fill:none" points="
  337.134,325.381 1056.69,325.381 1056.69,92.1006 337.134,92.1006 337.134,325.381 
  "/>
<polyline clip-path="url(#clip320)" style="stroke:#009af9; stroke-linecap:round; stroke-linejoin:round; stroke-width:18; stroke-opacity:1; fill:none" points="
  360.302,169.861 499.31,169.861 
  "/>
<path clip-path="url(#clip320)" d="M522.478 143.941 L566.332 143.941 L566.332 149.843 L547.929 149.843 L547.929 195.781 L540.881 195.781 L540.881 149.843 L522.478 149.843 L522.478 143.941 Z" fill="#000000" fill-rule="evenodd" fill-opacity="1" /><path clip-path="url(#clip320)" d="M578.728 176.232 Q570.985 176.232 567.999 178.003 Q565.013 179.774 565.013 184.045 Q565.013 187.447 567.235 189.461 Q569.492 191.44 573.346 191.44 Q578.658 191.44 581.853 187.69 Q585.082 183.906 585.082 177.656 L585.082 176.232 L578.728 176.232 M591.471 173.593 L591.471 195.781 L585.082 195.781 L585.082 189.878 Q582.894 193.42 579.631 195.121 Q576.367 196.788 571.645 196.788 Q565.672 196.788 562.131 193.454 Q558.624 190.086 558.624 184.461 Q558.624 177.899 562.999 174.565 Q567.408 171.232 576.124 171.232 L585.082 171.232 L585.082 170.607 Q585.082 166.197 582.165 163.802 Q579.283 161.371 574.04 161.371 Q570.707 161.371 567.547 162.17 Q564.388 162.968 561.471 164.566 L561.471 158.663 Q564.978 157.309 568.276 156.649 Q571.575 155.954 574.7 155.954 Q583.138 155.954 587.304 160.329 Q591.471 164.704 591.471 173.593 Z" fill="#000000" fill-rule="evenodd" fill-opacity="1" /><path clip-path="url(#clip320)" d="M627.165 162.864 Q626.089 162.239 624.804 161.961 Q623.554 161.649 622.026 161.649 Q616.61 161.649 613.693 165.191 Q610.811 168.697 610.811 175.295 L610.811 195.781 L604.387 195.781 L604.387 156.892 L610.811 156.892 L610.811 162.934 Q612.825 159.392 616.054 157.691 Q619.283 155.954 623.901 155.954 Q624.561 155.954 625.36 156.059 Q626.158 156.128 627.13 156.302 L627.165 162.864 Z" fill="#000000" fill-rule="evenodd" fill-opacity="1" /><path clip-path="url(#clip320)" d="M658.207 175.885 Q658.207 168.94 655.325 165.121 Q652.477 161.302 647.304 161.302 Q642.165 161.302 639.283 165.121 Q636.436 168.94 636.436 175.885 Q636.436 182.795 639.283 186.614 Q642.165 190.433 647.304 190.433 Q652.477 190.433 655.325 186.614 Q658.207 182.795 658.207 175.885 M664.595 190.954 Q664.595 200.885 660.186 205.711 Q655.776 210.572 646.679 210.572 Q643.311 210.572 640.325 210.051 Q637.339 209.565 634.526 208.524 L634.526 202.308 Q637.339 203.836 640.082 204.565 Q642.825 205.294 645.672 205.294 Q651.957 205.294 655.082 201.996 Q658.207 198.732 658.207 192.1 L658.207 188.94 Q656.227 192.378 653.137 194.079 Q650.047 195.781 645.741 195.781 Q638.589 195.781 634.214 190.329 Q629.839 184.878 629.839 175.885 Q629.839 166.857 634.214 161.406 Q638.589 155.954 645.741 155.954 Q650.047 155.954 653.137 157.656 Q656.227 159.357 658.207 162.795 L658.207 156.892 L664.595 156.892 L664.595 190.954 Z" fill="#000000" fill-rule="evenodd" fill-opacity="1" /><path clip-path="url(#clip320)" d="M711.019 174.739 L711.019 177.864 L681.644 177.864 Q682.061 184.461 685.602 187.933 Q689.179 191.371 695.533 191.371 Q699.213 191.371 702.651 190.468 Q706.123 189.565 709.526 187.76 L709.526 193.801 Q706.088 195.26 702.477 196.024 Q698.866 196.788 695.151 196.788 Q685.845 196.788 680.394 191.371 Q674.977 185.954 674.977 176.718 Q674.977 167.17 680.116 161.579 Q685.29 155.954 694.04 155.954 Q701.887 155.954 706.435 161.024 Q711.019 166.059 711.019 174.739 M704.63 172.864 Q704.56 167.621 701.679 164.496 Q698.831 161.371 694.109 161.371 Q688.762 161.371 685.533 164.392 Q682.338 167.413 681.852 172.899 L704.63 172.864 Z" fill="#000000" fill-rule="evenodd" fill-opacity="1" /><path clip-path="url(#clip320)" d="M727.824 145.85 L727.824 156.892 L740.984 156.892 L740.984 161.857 L727.824 161.857 L727.824 182.968 Q727.824 187.725 729.109 189.079 Q730.428 190.433 734.421 190.433 L740.984 190.433 L740.984 195.781 L734.421 195.781 Q727.026 195.781 724.213 193.038 Q721.401 190.26 721.401 182.968 L721.401 161.857 L716.713 161.857 L716.713 156.892 L721.401 156.892 L721.401 145.85 L727.824 145.85 Z" fill="#000000" fill-rule="evenodd" fill-opacity="1" /><path clip-path="url(#clip320)" d="M779.282 149.704 L779.282 190.017 L787.754 190.017 Q798.484 190.017 803.449 185.156 Q808.449 180.295 808.449 169.809 Q808.449 159.392 803.449 154.566 Q798.484 149.704 787.754 149.704 L779.282 149.704 M772.268 143.941 L786.678 143.941 Q801.747 143.941 808.796 150.225 Q815.845 156.475 815.845 169.809 Q815.845 183.211 808.761 189.496 Q801.678 195.781 786.678 195.781 L772.268 195.781 L772.268 143.941 Z" fill="#000000" fill-rule="evenodd" fill-opacity="1" /><path clip-path="url(#clip320)" d="M860.011 174.739 L860.011 177.864 L830.636 177.864 Q831.053 184.461 834.595 187.933 Q838.171 191.371 844.525 191.371 Q848.206 191.371 851.643 190.468 Q855.115 189.565 858.518 187.76 L858.518 193.801 Q855.081 195.26 851.469 196.024 Q847.858 196.788 844.143 196.788 Q834.838 196.788 829.386 191.371 Q823.97 185.954 823.97 176.718 Q823.97 167.17 829.108 161.579 Q834.282 155.954 843.032 155.954 Q850.879 155.954 855.428 161.024 Q860.011 166.059 860.011 174.739 M853.622 172.864 Q853.553 167.621 850.671 164.496 Q847.824 161.371 843.101 161.371 Q837.754 161.371 834.525 164.392 Q831.331 167.413 830.845 172.899 L853.622 172.864 Z" fill="#000000" fill-rule="evenodd" fill-opacity="1" /><path clip-path="url(#clip320)" d="M902.823 172.309 L902.823 195.781 L896.434 195.781 L896.434 172.517 Q896.434 166.996 894.282 164.253 Q892.129 161.51 887.823 161.51 Q882.65 161.51 879.664 164.809 Q876.678 168.107 876.678 173.802 L876.678 195.781 L870.254 195.781 L870.254 156.892 L876.678 156.892 L876.678 162.934 Q878.969 159.427 882.06 157.691 Q885.185 155.954 889.247 155.954 Q895.948 155.954 899.386 160.121 Q902.823 164.253 902.823 172.309 Z" fill="#000000" fill-rule="evenodd" fill-opacity="1" /><path clip-path="url(#clip320)" d="M940.358 158.038 L940.358 164.079 Q937.65 162.691 934.733 161.996 Q931.816 161.302 928.691 161.302 Q923.934 161.302 921.538 162.76 Q919.177 164.218 919.177 167.135 Q919.177 169.357 920.879 170.642 Q922.58 171.892 927.719 173.038 L929.906 173.524 Q936.712 174.982 939.559 177.656 Q942.441 180.295 942.441 185.052 Q942.441 190.468 938.136 193.628 Q933.865 196.788 926.365 196.788 Q923.24 196.788 919.837 196.163 Q916.469 195.572 912.719 194.357 L912.719 187.76 Q916.261 189.6 919.698 190.538 Q923.136 191.44 926.504 191.44 Q931.018 191.44 933.448 189.913 Q935.879 188.35 935.879 185.538 Q935.879 182.933 934.108 181.545 Q932.372 180.156 926.434 178.871 L924.212 178.35 Q918.275 177.1 915.636 174.531 Q912.997 171.927 912.997 167.413 Q912.997 161.927 916.886 158.941 Q920.775 155.954 927.927 155.954 Q931.469 155.954 934.594 156.475 Q937.719 156.996 940.358 158.038 Z" fill="#000000" fill-rule="evenodd" fill-opacity="1" /><path clip-path="url(#clip320)" d="M952.615 156.892 L959.004 156.892 L959.004 195.781 L952.615 195.781 L952.615 156.892 M952.615 141.753 L959.004 141.753 L959.004 149.843 L952.615 149.843 L952.615 141.753 Z" fill="#000000" fill-rule="evenodd" fill-opacity="1" /><path clip-path="url(#clip320)" d="M978.691 145.85 L978.691 156.892 L991.851 156.892 L991.851 161.857 L978.691 161.857 L978.691 182.968 Q978.691 187.725 979.976 189.079 Q981.295 190.433 985.288 190.433 L991.851 190.433 L991.851 195.781 L985.288 195.781 Q977.892 195.781 975.08 193.038 Q972.267 190.26 972.267 182.968 L972.267 161.857 L967.58 161.857 L967.58 156.892 L972.267 156.892 L972.267 145.85 L978.691 145.85 Z" fill="#000000" fill-rule="evenodd" fill-opacity="1" /><path clip-path="url(#clip320)" d="M1016.43 199.392 Q1013.73 206.336 1011.16 208.454 Q1008.59 210.572 1004.28 210.572 L999.177 210.572 L999.177 205.225 L1002.93 205.225 Q1005.57 205.225 1007.02 203.975 Q1008.48 202.725 1010.25 198.072 L1011.4 195.156 L995.67 156.892 L1002.44 156.892 L1014.59 187.308 L1026.75 156.892 L1033.52 156.892 L1016.43 199.392 Z" fill="#000000" fill-rule="evenodd" fill-opacity="1" /><polyline clip-path="url(#clip320)" style="stroke:#000000; stroke-linecap:round; stroke-linejoin:round; stroke-width:6; stroke-opacity:1; fill:none" points="
  360.302,247.621 499.31,247.621 
  "/>
<path clip-path="url(#clip320)" d="M558.314 226.265 Q558.314 228.232 557.085 229.356 Q555.855 230.445 554.45 230.445 Q553.115 230.445 552.412 229.673 Q551.709 228.9 551.709 227.916 Q551.709 226.581 552.693 225.421 Q553.677 224.262 555.152 224.016 Q553.712 223.103 551.569 223.103 Q550.163 223.103 548.934 223.84 Q547.739 224.578 547.001 225.527 Q546.299 226.475 545.666 227.846 Q545.069 229.181 544.823 229.989 Q544.612 230.762 544.437 231.605 L541.977 241.442 Q540.783 246.115 540.783 247.766 Q540.783 249.804 541.767 251.174 Q542.75 252.509 544.718 252.509 Q545.491 252.509 546.369 252.299 Q547.247 252.053 548.372 251.42 Q549.531 250.753 550.55 249.769 Q551.604 248.75 552.623 247.029 Q553.642 245.307 554.309 243.094 Q554.52 242.321 555.223 242.321 Q556.101 242.321 556.101 243.023 Q556.101 243.621 555.609 244.885 Q555.152 246.115 554.134 247.731 Q553.15 249.312 551.85 250.753 Q550.55 252.158 548.618 253.142 Q546.685 254.126 544.577 254.126 Q541.556 254.126 539.553 252.509 Q537.55 250.893 536.813 248.645 Q536.637 248.961 536.391 249.383 Q536.145 249.804 535.407 250.753 Q534.705 251.666 533.897 252.369 Q533.088 253.036 531.824 253.563 Q530.594 254.126 529.259 254.126 Q527.573 254.126 526.062 253.634 Q524.586 253.142 523.532 252.018 Q522.478 250.893 522.478 249.347 Q522.478 247.626 523.638 246.431 Q524.832 245.202 526.448 245.202 Q527.467 245.202 528.275 245.799 Q529.118 246.396 529.118 247.696 Q529.118 249.137 528.135 250.226 Q527.151 251.315 525.746 251.596 Q527.186 252.509 529.329 252.509 Q531.648 252.509 533.475 250.472 Q535.302 248.434 536.18 245.026 Q538.359 236.84 539.202 233.186 Q540.045 229.497 540.045 227.916 Q540.045 226.44 539.658 225.421 Q539.272 224.402 538.604 223.946 Q537.972 223.454 537.375 223.278 Q536.813 223.103 536.18 223.103 Q535.126 223.103 533.932 223.524 Q532.772 223.946 531.367 224.929 Q529.997 225.878 528.697 227.846 Q527.397 229.813 526.518 232.518 Q526.343 233.326 525.57 233.326 Q524.727 233.291 524.727 232.589 Q524.727 231.991 525.183 230.762 Q525.675 229.497 526.659 227.916 Q527.678 226.335 528.978 224.929 Q530.313 223.489 532.245 222.505 Q534.213 221.522 536.321 221.522 Q537.269 221.522 538.183 221.732 Q539.131 221.908 540.256 222.435 Q541.415 222.962 542.434 224.121 Q543.453 225.281 544.085 226.967 Q544.507 226.159 545.069 225.386 Q545.666 224.613 546.58 223.665 Q547.528 222.681 548.828 222.119 Q550.163 221.522 551.639 221.522 Q553.08 221.522 554.485 221.908 Q555.89 222.259 557.085 223.419 Q558.314 224.543 558.314 226.265 Z" fill="#000000" fill-rule="evenodd" fill-opacity="1" /><path clip-path="url(#clip320)" d="M581.112 251.7 Q581.112 252.388 580.792 252.561 Q580.472 252.708 579.587 252.708 L574.865 252.708 L571.127 267.563 Q570.832 268.866 570.832 269.973 Q570.832 271.203 571.201 271.744 Q571.594 272.285 572.406 272.285 Q574.004 272.285 575.726 270.834 Q577.472 269.383 578.948 265.841 Q579.144 265.374 579.243 265.275 Q579.366 265.153 579.685 265.153 Q580.3 265.153 580.3 265.644 Q580.3 265.817 579.956 266.604 Q579.636 267.391 578.923 268.546 Q578.234 269.702 577.324 270.784 Q576.439 271.867 575.086 272.654 Q573.734 273.416 572.283 273.416 Q570.241 273.416 568.938 272.112 Q567.659 270.809 567.659 268.768 Q567.659 268.104 568.176 265.989 Q568.692 263.849 571.496 252.708 L567.044 252.708 Q566.429 252.708 566.184 252.684 Q565.962 252.659 565.79 252.536 Q565.643 252.388 565.643 252.093 Q565.643 251.626 565.839 251.429 Q566.036 251.208 566.282 251.183 Q566.552 251.134 567.167 251.134 L571.889 251.134 L573.857 243.141 Q574.053 242.354 574.545 241.912 Q575.062 241.444 575.357 241.395 Q575.652 241.321 575.873 241.321 Q576.537 241.321 576.931 241.69 Q577.324 242.035 577.324 242.674 Q577.324 243.018 575.259 251.134 L579.685 251.134 Q580.251 251.134 580.472 251.159 Q580.718 251.183 580.915 251.306 Q581.112 251.429 581.112 251.7 Z" fill="#000000" fill-rule="evenodd" fill-opacity="1" /></svg>
