<?xml version="1.0" encoding="utf-8"?>
<svg xmlns="http://www.w3.org/2000/svg" xmlns:xlink="http://www.w3.org/1999/xlink" width="600" height="400" viewBox="0 0 2400 1600">
<defs>
  <clipPath id="clip470">
    <rect x="0" y="0" width="2400" height="1600"/>
  </clipPath>
</defs>
<path clip-path="url(#clip470)" d="
M0 1600 L2400 1600 L2400 0 L0 0  Z
  " fill="#ffffff" fill-rule="evenodd" fill-opacity="1"/>
<defs>
  <clipPath id="clip471">
    <rect x="480" y="0" width="1681" height="1600"/>
  </clipPath>
</defs>
<path clip-path="url(#clip470)" d="
M267.143 1392.94 L2352.76 1392.94 L2352.76 47.2441 L267.143 47.2441  Z
  " fill="#ffffff" fill-rule="evenodd" fill-opacity="1"/>
<defs>
  <clipPath id="clip472">
    <rect x="267" y="47" width="2087" height="1347"/>
  </clipPath>
</defs>
<polyline clip-path="url(#clip470)" style="stroke:#000000; stroke-linecap:round; stroke-linejoin:round; stroke-width:4; stroke-opacity:1; fill:none" points="
  267.143,1392.94 2352.76,1392.94 
  "/>
<polyline clip-path="url(#clip470)" style="stroke:#000000; stroke-linecap:round; stroke-linejoin:round; stroke-width:4; stroke-opacity:1; fill:none" points="
  553.196,1392.94 553.196,1374.04 
  "/>
<polyline clip-path="url(#clip470)" style="stroke:#000000; stroke-linecap:round; stroke-linejoin:round; stroke-width:4; stroke-opacity:1; fill:none" points="
  931.573,1392.94 931.573,1374.04 
  "/>
<polyline clip-path="url(#clip470)" style="stroke:#000000; stroke-linecap:round; stroke-linejoin:round; stroke-width:4; stroke-opacity:1; fill:none" points="
  1309.95,1392.94 1309.95,1374.04 
  "/>
<polyline clip-path="url(#clip470)" style="stroke:#000000; stroke-linecap:round; stroke-linejoin:round; stroke-width:4; stroke-opacity:1; fill:none" points="
  1688.33,1392.94 1688.33,1374.04 
  "/>
<polyline clip-path="url(#clip470)" style="stroke:#000000; stroke-linecap:round; stroke-linejoin:round; stroke-width:4; stroke-opacity:1; fill:none" points="
  2066.7,1392.94 2066.7,1374.04 
  "/>
<path clip-path="url(#clip470)" d="M510.8 1471.04 L535.279 1471.04 L535.279 1476.94 L502.363 1476.94 L502.363 1471.04 Q506.356 1466.91 513.231 1459.96 Q520.141 1452.98 521.911 1450.97 Q525.28 1447.18 526.599 1444.58 Q527.953 1441.94 527.953 1439.41 Q527.953 1435.27 525.036 1432.67 Q522.155 1430.07 517.502 1430.07 Q514.203 1430.07 510.523 1431.21 Q506.877 1432.36 502.71 1434.68 L502.71 1427.6 Q506.946 1425.9 510.627 1425.03 Q514.307 1424.16 517.363 1424.16 Q525.418 1424.16 530.21 1428.19 Q535.002 1432.22 535.002 1438.95 Q535.002 1442.15 533.786 1445.03 Q532.606 1447.88 529.446 1451.77 Q528.578 1452.77 523.925 1457.6 Q519.273 1462.39 510.8 1471.04 Z" fill="#000000" fill-rule="evenodd" fill-opacity="1" /><path clip-path="url(#clip470)" d="M550.002 1468.12 L557.328 1468.12 L557.328 1476.94 L550.002 1476.94 L550.002 1468.12 Z" fill="#000000" fill-rule="evenodd" fill-opacity="1" /><path clip-path="url(#clip470)" d="M572.675 1425.1 L600.21 1425.1 L600.21 1431 L579.099 1431 L579.099 1443.71 Q580.626 1443.19 582.154 1442.95 Q583.682 1442.67 585.21 1442.67 Q593.89 1442.67 598.96 1447.43 Q604.029 1452.18 604.029 1460.31 Q604.029 1468.68 598.821 1473.33 Q593.612 1477.95 584.133 1477.95 Q580.87 1477.95 577.467 1477.39 Q574.099 1476.84 570.488 1475.72 L570.488 1468.68 Q573.613 1470.38 576.946 1471.21 Q580.279 1472.04 583.994 1472.04 Q590.001 1472.04 593.508 1468.88 Q597.015 1465.72 597.015 1460.31 Q597.015 1454.89 593.508 1451.73 Q590.001 1448.57 583.994 1448.57 Q581.182 1448.57 578.37 1449.2 Q575.592 1449.82 572.675 1451.14 L572.675 1425.1 Z" fill="#000000" fill-rule="evenodd" fill-opacity="1" /><path clip-path="url(#clip470)" d="M882.32 1425.1 L909.854 1425.1 L909.854 1431 L888.743 1431 L888.743 1443.71 Q890.271 1443.19 891.799 1442.95 Q893.326 1442.67 894.854 1442.67 Q903.535 1442.67 908.604 1447.43 Q913.674 1452.18 913.674 1460.31 Q913.674 1468.68 908.465 1473.33 Q903.257 1477.95 893.778 1477.95 Q890.514 1477.95 887.111 1477.39 Q883.743 1476.84 880.132 1475.72 L880.132 1468.68 Q883.257 1470.38 886.59 1471.21 Q889.924 1472.04 893.639 1472.04 Q899.646 1472.04 903.153 1468.88 Q906.66 1465.72 906.66 1460.31 Q906.66 1454.89 903.153 1451.73 Q899.646 1448.57 893.639 1448.57 Q890.826 1448.57 888.014 1449.2 Q885.236 1449.82 882.32 1451.14 L882.32 1425.1 Z" fill="#000000" fill-rule="evenodd" fill-opacity="1" /><path clip-path="url(#clip470)" d="M927.493 1468.12 L934.819 1468.12 L934.819 1476.94 L927.493 1476.94 L927.493 1468.12 Z" fill="#000000" fill-rule="evenodd" fill-opacity="1" /><path clip-path="url(#clip470)" d="M965.097 1429.72 Q959.68 1429.72 956.937 1435.07 Q954.229 1440.38 954.229 1451.07 Q954.229 1461.73 956.937 1467.08 Q959.68 1472.39 965.097 1472.39 Q970.548 1472.39 973.257 1467.08 Q976 1461.73 976 1451.07 Q976 1440.38 973.257 1435.07 Q970.548 1429.72 965.097 1429.72 M965.097 1424.16 Q973.812 1424.16 978.395 1431.07 Q983.013 1437.95 983.013 1451.07 Q983.013 1464.16 978.395 1471.07 Q973.812 1477.95 965.097 1477.95 Q956.382 1477.95 951.764 1471.07 Q947.18 1464.16 947.18 1451.07 Q947.18 1437.95 951.764 1431.07 Q956.382 1424.16 965.097 1424.16 Z" fill="#000000" fill-rule="evenodd" fill-opacity="1" /><path clip-path="url(#clip470)" d="M1259.43 1425.1 L1292.76 1425.1 L1292.76 1428.09 L1273.94 1476.94 L1266.62 1476.94 L1284.32 1431 L1259.43 1431 L1259.43 1425.1 Z" fill="#000000" fill-rule="evenodd" fill-opacity="1" /><path clip-path="url(#clip470)" d="M1306.44 1468.12 L1313.77 1468.12 L1313.77 1476.94 L1306.44 1476.94 L1306.44 1468.12 Z" fill="#000000" fill-rule="evenodd" fill-opacity="1" /><path clip-path="url(#clip470)" d="M1329.12 1425.1 L1356.65 1425.1 L1356.65 1431 L1335.54 1431 L1335.54 1443.71 Q1337.07 1443.19 1338.6 1442.95 Q1340.12 1442.67 1341.65 1442.67 Q1350.33 1442.67 1355.4 1447.43 Q1360.47 1452.18 1360.47 1460.31 Q1360.47 1468.68 1355.26 1473.33 Q1350.05 1477.95 1340.57 1477.95 Q1337.31 1477.95 1333.91 1477.39 Q1330.54 1476.84 1326.93 1475.72 L1326.93 1468.68 Q1330.05 1470.38 1333.39 1471.21 Q1336.72 1472.04 1340.44 1472.04 Q1346.44 1472.04 1349.95 1468.88 Q1353.46 1465.72 1353.46 1460.31 Q1353.46 1454.89 1349.95 1451.73 Q1346.44 1448.57 1340.44 1448.57 Q1337.62 1448.57 1334.81 1449.2 Q1332.03 1449.82 1329.12 1451.14 L1329.12 1425.1 Z" fill="#000000" fill-rule="evenodd" fill-opacity="1" /><path clip-path="url(#clip470)" d="M1616.43 1471.04 L1627.89 1471.04 L1627.89 1431.49 L1615.43 1433.99 L1615.43 1427.6 L1627.82 1425.1 L1634.84 1425.1 L1634.84 1471.04 L1646.3 1471.04 L1646.3 1476.94 L1616.43 1476.94 L1616.43 1471.04 Z" fill="#000000" fill-rule="evenodd" fill-opacity="1" /><path clip-path="url(#clip470)" d="M1675.46 1429.72 Q1670.05 1429.72 1667.3 1435.07 Q1664.59 1440.38 1664.59 1451.07 Q1664.59 1461.73 1667.3 1467.08 Q1670.05 1472.39 1675.46 1472.39 Q1680.91 1472.39 1683.62 1467.08 Q1686.36 1461.73 1686.36 1451.07 Q1686.36 1440.38 1683.62 1435.07 Q1680.91 1429.72 1675.46 1429.72 M1675.46 1424.16 Q1684.18 1424.16 1688.76 1431.07 Q1693.38 1437.95 1693.38 1451.07 Q1693.38 1464.16 1688.76 1471.07 Q1684.18 1477.95 1675.46 1477.95 Q1666.75 1477.95 1662.13 1471.07 Q1657.55 1464.16 1657.55 1451.07 Q1657.55 1437.95 1662.13 1431.07 Q1666.75 1424.16 1675.46 1424.16 Z" fill="#000000" fill-rule="evenodd" fill-opacity="1" /><path clip-path="url(#clip470)" d="M1705.7 1468.12 L1713.03 1468.12 L1713.03 1476.94 L1705.7 1476.94 L1705.7 1468.12 Z" fill="#000000" fill-rule="evenodd" fill-opacity="1" /><path clip-path="url(#clip470)" d="M1743.31 1429.72 Q1737.89 1429.72 1735.15 1435.07 Q1732.44 1440.38 1732.44 1451.07 Q1732.44 1461.73 1735.15 1467.08 Q1737.89 1472.39 1743.31 1472.39 Q1748.76 1472.39 1751.47 1467.08 Q1754.21 1461.73 1754.21 1451.07 Q1754.21 1440.38 1751.47 1435.07 Q1748.76 1429.72 1743.31 1429.72 M1743.31 1424.16 Q1752.02 1424.16 1756.61 1431.07 Q1761.23 1437.95 1761.23 1451.07 Q1761.23 1464.16 1756.61 1471.07 Q1752.02 1477.95 1743.31 1477.95 Q1734.59 1477.95 1729.98 1471.07 Q1725.39 1464.16 1725.39 1451.07 Q1725.39 1437.95 1729.98 1431.07 Q1734.59 1424.16 1743.31 1424.16 Z" fill="#000000" fill-rule="evenodd" fill-opacity="1" /><path clip-path="url(#clip470)" d="M1995.56 1471.04 L2007.02 1471.04 L2007.02 1431.49 L1994.55 1433.99 L1994.55 1427.6 L2006.95 1425.1 L2013.96 1425.1 L2013.96 1471.04 L2025.42 1471.04 L2025.42 1476.94 L1995.56 1476.94 L1995.56 1471.04 Z" fill="#000000" fill-rule="evenodd" fill-opacity="1" /><path clip-path="url(#clip470)" d="M2045.63 1471.04 L2070.11 1471.04 L2070.11 1476.94 L2037.19 1476.94 L2037.19 1471.04 Q2041.18 1466.91 2048.06 1459.96 Q2054.97 1452.98 2056.74 1450.97 Q2060.11 1447.18 2061.43 1444.58 Q2062.78 1441.94 2062.78 1439.41 Q2062.78 1435.27 2059.86 1432.67 Q2056.98 1430.07 2052.33 1430.07 Q2049.03 1430.07 2045.35 1431.21 Q2041.7 1432.36 2037.54 1434.68 L2037.54 1427.6 Q2041.77 1425.9 2045.45 1425.03 Q2049.13 1424.16 2052.19 1424.16 Q2060.24 1424.16 2065.04 1428.19 Q2069.83 1432.22 2069.83 1438.95 Q2069.83 1442.15 2068.61 1445.03 Q2067.43 1447.88 2064.27 1451.77 Q2063.4 1452.77 2058.75 1457.6 Q2054.1 1462.39 2045.63 1471.04 Z" fill="#000000" fill-rule="evenodd" fill-opacity="1" /><path clip-path="url(#clip470)" d="M2084.83 1468.12 L2092.15 1468.12 L2092.15 1476.94 L2084.83 1476.94 L2084.83 1468.12 Z" fill="#000000" fill-rule="evenodd" fill-opacity="1" /><path clip-path="url(#clip470)" d="M2107.5 1425.1 L2135.04 1425.1 L2135.04 1431 L2113.93 1431 L2113.93 1443.71 Q2115.45 1443.19 2116.98 1442.95 Q2118.51 1442.67 2120.04 1442.67 Q2128.72 1442.67 2133.79 1447.43 Q2138.86 1452.18 2138.86 1460.31 Q2138.86 1468.68 2133.65 1473.33 Q2128.44 1477.95 2118.96 1477.95 Q2115.7 1477.95 2112.29 1477.39 Q2108.93 1476.84 2105.31 1475.72 L2105.31 1468.68 Q2108.44 1470.38 2111.77 1471.21 Q2115.11 1472.04 2118.82 1472.04 Q2124.83 1472.04 2128.33 1468.88 Q2131.84 1465.72 2131.84 1460.31 Q2131.84 1454.89 2128.33 1451.73 Q2124.83 1448.57 2118.82 1448.57 Q2116.01 1448.57 2113.2 1449.2 Q2110.42 1449.82 2107.5 1451.14 L2107.5 1425.1 Z" fill="#000000" fill-rule="evenodd" fill-opacity="1" /><path clip-path="url(#clip470)" d="M1242.93 1518.8 L1251.11 1518.8 L1251.11 1572.39 L1280.56 1572.39 L1280.56 1579.28 L1242.93 1579.28 L1242.93 1518.8 Z" fill="#000000" fill-rule="evenodd" fill-opacity="1" /><path clip-path="url(#clip470)" d="M1309.44 1556.47 Q1300.41 1556.47 1296.93 1558.54 Q1293.44 1560.6 1293.44 1565.58 Q1293.44 1569.55 1296.03 1571.9 Q1298.67 1574.21 1303.16 1574.21 Q1309.36 1574.21 1313.09 1569.84 Q1316.86 1565.42 1316.86 1558.13 L1316.86 1556.47 L1309.44 1556.47 M1324.31 1553.39 L1324.31 1579.28 L1316.86 1579.28 L1316.86 1572.39 Q1314.3 1576.52 1310.5 1578.51 Q1306.69 1580.45 1301.18 1580.45 Q1294.21 1580.45 1290.08 1576.56 Q1285.99 1572.63 1285.99 1566.07 Q1285.99 1558.41 1291.09 1554.52 Q1296.24 1550.64 1306.41 1550.64 L1316.86 1550.64 L1316.86 1549.91 Q1316.86 1544.76 1313.45 1541.97 Q1310.09 1539.13 1303.97 1539.13 Q1300.09 1539.13 1296.4 1540.06 Q1292.71 1540.99 1289.31 1542.86 L1289.31 1535.97 Q1293.4 1534.39 1297.25 1533.62 Q1301.1 1532.81 1304.74 1532.81 Q1314.59 1532.81 1319.45 1537.92 Q1324.31 1543.02 1324.31 1553.39 Z" fill="#000000" fill-rule="evenodd" fill-opacity="1" /><path clip-path="url(#clip470)" d="M1369.52 1556.06 Q1369.52 1547.96 1366.16 1543.51 Q1362.83 1539.05 1356.8 1539.05 Q1350.8 1539.05 1347.44 1543.51 Q1344.12 1547.96 1344.12 1556.06 Q1344.12 1564.13 1347.44 1568.58 Q1350.8 1573.04 1356.8 1573.04 Q1362.83 1573.04 1366.16 1568.58 Q1369.52 1564.13 1369.52 1556.06 M1376.97 1573.65 Q1376.97 1585.23 1371.83 1590.86 Q1366.68 1596.53 1356.07 1596.53 Q1352.14 1596.53 1348.66 1595.93 Q1345.17 1595.36 1341.89 1594.14 L1341.89 1586.89 Q1345.17 1588.67 1348.37 1589.52 Q1351.57 1590.38 1354.89 1590.38 Q1362.23 1590.38 1365.87 1586.53 Q1369.52 1582.72 1369.52 1574.98 L1369.52 1571.3 Q1367.21 1575.31 1363.6 1577.29 Q1360 1579.28 1354.98 1579.28 Q1346.63 1579.28 1341.53 1572.92 Q1336.42 1566.56 1336.42 1556.06 Q1336.42 1545.53 1341.53 1539.17 Q1346.63 1532.81 1354.98 1532.81 Q1360 1532.81 1363.6 1534.8 Q1367.21 1536.78 1369.52 1540.79 L1369.52 1533.91 L1376.97 1533.91 L1376.97 1573.65 Z" fill="#000000" fill-rule="evenodd" fill-opacity="1" /><polyline clip-path="url(#clip470)" style="stroke:#000000; stroke-linecap:round; stroke-linejoin:round; stroke-width:4; stroke-opacity:1; fill:none" points="
  267.143,1392.94 267.143,47.2441 
  "/>
<polyline clip-path="url(#clip470)" style="stroke:#000000; stroke-linecap:round; stroke-linejoin:round; stroke-width:4; stroke-opacity:1; fill:none" points="
  267.143,1105.48 286.041,1105.48 
  "/>
<polyline clip-path="url(#clip470)" style="stroke:#000000; stroke-linecap:round; stroke-linejoin:round; stroke-width:4; stroke-opacity:1; fill:none" points="
  267.143,799.435 286.041,799.435 
  "/>
<polyline clip-path="url(#clip470)" style="stroke:#000000; stroke-linecap:round; stroke-linejoin:round; stroke-width:4; stroke-opacity:1; fill:none" points="
  267.143,493.39 286.041,493.39 
  "/>
<polyline clip-path="url(#clip470)" style="stroke:#000000; stroke-linecap:round; stroke-linejoin:round; stroke-width:4; stroke-opacity:1; fill:none" points="
  267.143,187.345 286.041,187.345 
  "/>
<path clip-path="url(#clip470)" d="M145.38 1084.18 Q139.963 1084.18 137.22 1089.53 Q134.512 1094.84 134.512 1105.53 Q134.512 1116.19 137.22 1121.54 Q139.963 1126.85 145.38 1126.85 Q150.831 1126.85 153.539 1121.54 Q156.283 1116.19 156.283 1105.53 Q156.283 1094.84 153.539 1089.53 Q150.831 1084.18 145.38 1084.18 M145.38 1078.62 Q154.095 1078.62 158.678 1085.53 Q163.296 1092.41 163.296 1105.53 Q163.296 1118.62 158.678 1125.53 Q154.095 1132.41 145.38 1132.41 Q136.665 1132.41 132.047 1125.53 Q127.463 1118.62 127.463 1105.53 Q127.463 1092.41 132.047 1085.53 Q136.665 1078.62 145.38 1078.62 Z" fill="#000000" fill-rule="evenodd" fill-opacity="1" /><path clip-path="url(#clip470)" d="M175.623 1122.58 L182.949 1122.58 L182.949 1131.4 L175.623 1131.4 L175.623 1122.58 Z" fill="#000000" fill-rule="evenodd" fill-opacity="1" /><path clip-path="url(#clip470)" d="M213.227 1084.18 Q207.81 1084.18 205.067 1089.53 Q202.359 1094.84 202.359 1105.53 Q202.359 1116.19 205.067 1121.54 Q207.81 1126.85 213.227 1126.85 Q218.678 1126.85 221.386 1121.54 Q224.129 1116.19 224.129 1105.53 Q224.129 1094.84 221.386 1089.53 Q218.678 1084.18 213.227 1084.18 M213.227 1078.62 Q221.942 1078.62 226.525 1085.53 Q231.143 1092.41 231.143 1105.53 Q231.143 1118.62 226.525 1125.53 Q221.942 1132.41 213.227 1132.41 Q204.511 1132.41 199.893 1125.53 Q195.31 1118.62 195.31 1105.53 Q195.31 1092.41 199.893 1085.53 Q204.511 1078.62 213.227 1078.62 Z" fill="#000000" fill-rule="evenodd" fill-opacity="1" /><path clip-path="url(#clip470)" d="M146.352 778.133 Q140.935 778.133 138.192 783.48 Q135.484 788.793 135.484 799.487 Q135.484 810.147 138.192 815.494 Q140.935 820.807 146.352 820.807 Q151.803 820.807 154.512 815.494 Q157.255 810.147 157.255 799.487 Q157.255 788.793 154.512 783.48 Q151.803 778.133 146.352 778.133 M146.352 772.578 Q155.067 772.578 159.651 779.487 Q164.269 786.362 164.269 799.487 Q164.269 812.577 159.651 819.487 Q155.067 826.362 146.352 826.362 Q137.637 826.362 133.019 819.487 Q128.435 812.577 128.435 799.487 Q128.435 786.362 133.019 779.487 Q137.637 772.578 146.352 772.578 Z" fill="#000000" fill-rule="evenodd" fill-opacity="1" /><path clip-path="url(#clip470)" d="M176.595 816.536 L183.921 816.536 L183.921 825.355 L176.595 825.355 L176.595 816.536 Z" fill="#000000" fill-rule="evenodd" fill-opacity="1" /><path clip-path="url(#clip470)" d="M220.449 797.404 Q225.484 798.48 228.296 801.883 Q231.143 805.286 231.143 810.286 Q231.143 817.959 225.865 822.161 Q220.588 826.362 210.866 826.362 Q207.602 826.362 204.129 825.702 Q200.692 825.077 197.011 823.793 L197.011 817.022 Q199.928 818.723 203.4 819.591 Q206.873 820.459 210.657 820.459 Q217.254 820.459 220.692 817.855 Q224.164 815.251 224.164 810.286 Q224.164 805.703 220.935 803.133 Q217.741 800.529 212.011 800.529 L205.97 800.529 L205.97 794.765 L212.289 794.765 Q217.463 794.765 220.206 792.716 Q222.949 790.633 222.949 786.744 Q222.949 782.751 220.102 780.633 Q217.289 778.48 212.011 778.48 Q209.129 778.48 205.831 779.105 Q202.532 779.73 198.574 781.05 L198.574 774.8 Q202.567 773.689 206.039 773.133 Q209.546 772.578 212.636 772.578 Q220.622 772.578 225.275 776.224 Q229.928 779.835 229.928 786.015 Q229.928 790.321 227.463 793.307 Q224.997 796.258 220.449 797.404 Z" fill="#000000" fill-rule="evenodd" fill-opacity="1" /><path clip-path="url(#clip470)" d="M145.137 472.088 Q139.72 472.088 136.977 477.435 Q134.269 482.748 134.269 493.442 Q134.269 504.102 136.977 509.449 Q139.72 514.761 145.137 514.761 Q150.588 514.761 153.296 509.449 Q156.039 504.102 156.039 493.442 Q156.039 482.748 153.296 477.435 Q150.588 472.088 145.137 472.088 M145.137 466.533 Q153.852 466.533 158.435 473.442 Q163.053 480.317 163.053 493.442 Q163.053 506.532 158.435 513.442 Q153.852 520.317 145.137 520.317 Q136.421 520.317 131.803 513.442 Q127.22 506.532 127.22 493.442 Q127.22 480.317 131.803 473.442 Q136.421 466.533 145.137 466.533 Z" fill="#000000" fill-rule="evenodd" fill-opacity="1" /><path clip-path="url(#clip470)" d="M175.38 510.491 L182.706 510.491 L182.706 519.31 L175.38 519.31 L175.38 510.491 Z" fill="#000000" fill-rule="evenodd" fill-opacity="1" /><path clip-path="url(#clip470)" d="M213.852 490.595 Q209.129 490.595 206.352 493.824 Q203.609 497.053 203.609 502.678 Q203.609 508.268 206.352 511.532 Q209.129 514.761 213.852 514.761 Q218.574 514.761 221.317 511.532 Q224.095 508.268 224.095 502.678 Q224.095 497.053 221.317 493.824 Q218.574 490.595 213.852 490.595 M227.775 468.616 L227.775 475.005 Q225.136 473.755 222.428 473.095 Q219.754 472.435 217.116 472.435 Q210.171 472.435 206.491 477.123 Q202.845 481.81 202.324 491.289 Q204.373 488.269 207.463 486.671 Q210.553 485.039 214.268 485.039 Q222.081 485.039 226.595 489.796 Q231.143 494.518 231.143 502.678 Q231.143 510.664 226.421 515.491 Q221.699 520.317 213.852 520.317 Q204.859 520.317 200.102 513.442 Q195.345 506.532 195.345 493.442 Q195.345 481.151 201.178 473.859 Q207.011 466.533 216.838 466.533 Q219.477 466.533 222.15 467.053 Q224.859 467.574 227.775 468.616 Z" fill="#000000" fill-rule="evenodd" fill-opacity="1" /><path clip-path="url(#clip470)" d="M145.658 166.043 Q140.241 166.043 137.498 171.39 Q134.79 176.703 134.79 187.397 Q134.79 198.057 137.498 203.404 Q140.241 208.716 145.658 208.716 Q151.109 208.716 153.817 203.404 Q156.56 198.057 156.56 187.397 Q156.56 176.703 153.817 171.39 Q151.109 166.043 145.658 166.043 M145.658 160.487 Q154.373 160.487 158.956 167.397 Q163.574 174.272 163.574 187.397 Q163.574 200.487 158.956 207.397 Q154.373 214.272 145.658 214.272 Q136.942 214.272 132.324 207.397 Q127.741 200.487 127.741 187.397 Q127.741 174.272 132.324 167.397 Q136.942 160.487 145.658 160.487 Z" fill="#000000" fill-rule="evenodd" fill-opacity="1" /><path clip-path="url(#clip470)" d="M175.9 204.445 L183.227 204.445 L183.227 213.265 L175.9 213.265 L175.9 204.445 Z" fill="#000000" fill-rule="evenodd" fill-opacity="1" /><path clip-path="url(#clip470)" d="M198.713 212.188 L198.713 205.8 Q201.352 207.05 204.06 207.709 Q206.768 208.369 209.372 208.369 Q216.317 208.369 219.963 203.716 Q223.643 199.029 224.164 189.515 Q222.15 192.501 219.06 194.098 Q215.97 195.696 212.22 195.696 Q204.442 195.696 199.893 191.008 Q195.38 186.286 195.38 178.126 Q195.38 170.14 200.102 165.314 Q204.824 160.487 212.671 160.487 Q221.664 160.487 226.386 167.397 Q231.143 174.272 231.143 187.397 Q231.143 199.654 225.31 206.98 Q219.511 214.272 209.685 214.272 Q207.046 214.272 204.338 213.751 Q201.629 213.23 198.713 212.188 M212.671 190.209 Q217.393 190.209 220.136 186.98 Q222.914 183.751 222.914 178.126 Q222.914 172.536 220.136 169.307 Q217.393 166.043 212.671 166.043 Q207.949 166.043 205.171 169.307 Q202.428 172.536 202.428 178.126 Q202.428 183.751 205.171 186.98 Q207.949 190.209 212.671 190.209 Z" fill="#000000" fill-rule="evenodd" fill-opacity="1" /><path clip-path="url(#clip470)" d="M20.6575 1007.42 L50.7557 1018.52 L50.7557 996.283 L20.6575 1007.42 M12.5962 1012.04 L12.5962 1002.76 L73.0762 979.714 L73.0762 988.221 L57.5612 993.731 L57.5612 1020.99 L73.0762 1026.5 L73.0762 1035.13 L12.5962 1012.04 Z" fill="#000000" fill-rule="evenodd" fill-opacity="1" /><path clip-path="url(#clip470)" d="M55.1712 971.977 L27.706 971.977 L27.706 964.524 L54.8876 964.524 Q61.3285 964.524 64.5693 962.012 Q67.7695 959.5 67.7695 954.477 Q67.7695 948.441 63.9211 944.958 Q60.0728 941.433 53.4293 941.433 L27.706 941.433 L27.706 933.98 L73.0762 933.98 L73.0762 941.433 L66.1086 941.433 Q70.2405 944.147 72.266 947.753 Q74.2509 951.318 74.2509 956.057 Q74.2509 963.875 69.3898 967.926 Q64.5287 971.977 55.1712 971.977 M26.6123 953.222 L26.6123 953.222 Z" fill="#000000" fill-rule="evenodd" fill-opacity="1" /><path clip-path="url(#clip470)" d="M14.8242 911.254 L27.706 911.254 L27.706 895.901 L33.4988 895.901 L33.4988 911.254 L58.1283 911.254 Q63.6781 911.254 65.2579 909.755 Q66.8378 908.216 66.8378 903.557 L66.8378 895.901 L73.0762 895.901 L73.0762 903.557 Q73.0762 912.186 69.8759 915.467 Q66.6352 918.748 58.1283 918.748 L33.4988 918.748 L33.4988 924.217 L27.706 924.217 L27.706 918.748 L14.8242 918.748 L14.8242 911.254 Z" fill="#000000" fill-rule="evenodd" fill-opacity="1" /><path clip-path="url(#clip470)" d="M32.9317 868.517 Q32.9317 874.512 37.6307 877.996 Q42.2893 881.48 50.4316 881.48 Q58.5739 881.48 63.273 878.037 Q67.9315 874.553 67.9315 868.517 Q67.9315 862.562 63.2325 859.078 Q58.5334 855.595 50.4316 855.595 Q42.3703 855.595 37.6713 859.078 Q32.9317 862.562 32.9317 868.517 M26.6123 868.517 Q26.6123 858.795 32.9317 853.245 Q39.2511 847.695 50.4316 847.695 Q61.5716 847.695 67.9315 853.245 Q74.2509 858.795 74.2509 868.517 Q74.2509 878.28 67.9315 883.83 Q61.5716 889.339 50.4316 889.339 Q39.2511 889.339 32.9317 883.83 Q26.6123 878.28 26.6123 868.517 Z" fill="#000000" fill-rule="evenodd" fill-opacity="1" /><path clip-path="url(#clip470)" d="M29.4479 802.69 L36.4155 802.69 Q34.6736 805.85 33.8229 809.05 Q32.9317 812.21 32.9317 815.45 Q32.9317 822.701 37.5497 826.712 Q42.1272 830.722 50.4316 830.722 Q58.736 830.722 63.354 826.712 Q67.9315 822.701 67.9315 815.45 Q67.9315 812.21 67.0808 809.05 Q66.1896 805.85 64.4477 802.69 L71.3343 802.69 Q72.7926 805.809 73.5218 809.171 Q74.2509 812.493 74.2509 816.26 Q74.2509 826.509 67.81 832.545 Q61.369 838.581 50.4316 838.581 Q39.3321 838.581 32.9722 832.505 Q26.6123 826.388 26.6123 815.774 Q26.6123 812.331 27.3414 809.05 Q28.0301 805.769 29.4479 802.69 Z" fill="#000000" fill-rule="evenodd" fill-opacity="1" /><path clip-path="url(#clip470)" d="M32.9317 772.146 Q32.9317 778.141 37.6307 781.625 Q42.2893 785.109 50.4316 785.109 Q58.5739 785.109 63.273 781.666 Q67.9315 778.182 67.9315 772.146 Q67.9315 766.191 63.2325 762.707 Q58.5334 759.224 50.4316 759.224 Q42.3703 759.224 37.6713 762.707 Q32.9317 766.191 32.9317 772.146 M26.6123 772.146 Q26.6123 762.424 32.9317 756.874 Q39.2511 751.324 50.4316 751.324 Q61.5716 751.324 67.9315 756.874 Q74.2509 762.424 74.2509 772.146 Q74.2509 781.909 67.9315 787.459 Q61.5716 792.968 50.4316 792.968 Q39.2511 792.968 32.9317 787.459 Q26.6123 781.909 26.6123 772.146 Z" fill="#000000" fill-rule="evenodd" fill-opacity="1" /><path clip-path="url(#clip470)" d="M34.6736 712.679 Q33.9444 713.935 33.6204 715.433 Q33.2558 716.892 33.2558 718.674 Q33.2558 724.994 37.3877 728.396 Q41.4791 731.759 49.1758 731.759 L73.0762 731.759 L73.0762 739.253 L27.706 739.253 L27.706 731.759 L34.7546 731.759 Q30.6227 729.409 28.6377 725.642 Q26.6123 721.874 26.6123 716.487 Q26.6123 715.717 26.7338 714.785 Q26.8148 713.854 27.0174 712.719 L34.6736 712.679 Z" fill="#000000" fill-rule="evenodd" fill-opacity="1" /><path clip-path="url(#clip470)" d="M34.6736 680.029 Q33.9444 681.284 33.6204 682.783 Q33.2558 684.241 33.2558 686.024 Q33.2558 692.343 37.3877 695.746 Q41.4791 699.108 49.1758 699.108 L73.0762 699.108 L73.0762 706.602 L27.706 706.602 L27.706 699.108 L34.7546 699.108 Q30.6227 696.759 28.6377 692.991 Q26.6123 689.224 26.6123 683.836 Q26.6123 683.067 26.7338 682.135 Q26.8148 681.203 27.0174 680.069 L34.6736 680.029 Z" fill="#000000" fill-rule="evenodd" fill-opacity="1" /><path clip-path="url(#clip470)" d="M48.5277 635.226 L52.1735 635.226 L52.1735 669.496 Q59.8702 669.01 63.9211 664.878 Q67.9315 660.706 67.9315 653.293 Q67.9315 648.999 66.8783 644.988 Q65.825 640.937 63.7186 636.967 L70.7671 636.967 Q72.4685 640.978 73.3597 645.191 Q74.2509 649.404 74.2509 653.738 Q74.2509 664.595 67.9315 670.955 Q61.6121 677.274 50.8367 677.274 Q39.6967 677.274 33.1748 671.279 Q26.6123 665.243 26.6123 655.034 Q26.6123 645.879 32.5266 640.573 Q38.4004 635.226 48.5277 635.226 M46.3402 642.679 Q40.2233 642.76 36.5775 646.122 Q32.9317 649.444 32.9317 654.953 Q32.9317 661.192 36.456 664.959 Q39.9803 668.686 46.3807 669.253 L46.3402 642.679 Z" fill="#000000" fill-rule="evenodd" fill-opacity="1" /><path clip-path="url(#clip470)" d="M10.0441 622.992 L10.0441 615.538 L73.0762 615.538 L73.0762 622.992 L10.0441 622.992 Z" fill="#000000" fill-rule="evenodd" fill-opacity="1" /><path clip-path="url(#clip470)" d="M50.2696 579.323 Q50.2696 588.357 52.3355 591.84 Q54.4015 595.324 59.3841 595.324 Q63.354 595.324 65.7035 592.732 Q68.0125 590.098 68.0125 585.602 Q68.0125 579.404 63.6376 575.677 Q59.2221 571.91 51.9304 571.91 L50.2696 571.91 L50.2696 579.323 M47.1909 564.456 L73.0762 564.456 L73.0762 571.91 L66.1896 571.91 Q70.3215 574.462 72.3065 578.27 Q74.2509 582.078 74.2509 587.587 Q74.2509 594.554 70.3621 598.686 Q66.4327 602.778 59.8702 602.778 Q52.214 602.778 48.3251 597.674 Q44.4363 592.529 44.4363 582.361 L44.4363 571.91 L43.7071 571.91 Q38.5625 571.91 35.7673 575.313 Q32.9317 578.675 32.9317 584.792 Q32.9317 588.681 33.8634 592.367 Q34.7951 596.053 36.6585 599.456 L29.772 599.456 Q28.1921 595.365 27.4225 591.516 Q26.6123 587.668 26.6123 584.022 Q26.6123 574.178 31.7164 569.317 Q36.8206 564.456 47.1909 564.456 Z" fill="#000000" fill-rule="evenodd" fill-opacity="1" /><path clip-path="url(#clip470)" d="M14.8242 541.731 L27.706 541.731 L27.706 526.378 L33.4988 526.378 L33.4988 541.731 L58.1283 541.731 Q63.6781 541.731 65.2579 540.232 Q66.8378 538.692 66.8378 534.034 L66.8378 526.378 L73.0762 526.378 L73.0762 534.034 Q73.0762 542.662 69.8759 545.944 Q66.6352 549.225 58.1283 549.225 L33.4988 549.225 L33.4988 554.694 L27.706 554.694 L27.706 549.225 L14.8242 549.225 L14.8242 541.731 Z" fill="#000000" fill-rule="evenodd" fill-opacity="1" /><path clip-path="url(#clip470)" d="M27.706 516.575 L27.706 509.121 L73.0762 509.121 L73.0762 516.575 L27.706 516.575 M10.0441 516.575 L10.0441 509.121 L19.4827 509.121 L19.4827 516.575 L10.0441 516.575 Z" fill="#000000" fill-rule="evenodd" fill-opacity="1" /><path clip-path="url(#clip470)" d="M32.9317 475.944 Q32.9317 481.939 37.6307 485.423 Q42.2893 488.907 50.4316 488.907 Q58.5739 488.907 63.273 485.464 Q67.9315 481.98 67.9315 475.944 Q67.9315 469.989 63.2325 466.505 Q58.5334 463.022 50.4316 463.022 Q42.3703 463.022 37.6713 466.505 Q32.9317 469.989 32.9317 475.944 M26.6123 475.944 Q26.6123 466.222 32.9317 460.672 Q39.2511 455.122 50.4316 455.122 Q61.5716 455.122 67.9315 460.672 Q74.2509 466.222 74.2509 475.944 Q74.2509 485.707 67.9315 491.256 Q61.5716 496.766 50.4316 496.766 Q39.2511 496.766 32.9317 491.256 Q26.6123 485.707 26.6123 475.944 Z" fill="#000000" fill-rule="evenodd" fill-opacity="1" /><path clip-path="url(#clip470)" d="M45.692 405.053 L73.0762 405.053 L73.0762 412.507 L45.9351 412.507 Q39.4942 412.507 36.2939 415.018 Q33.0937 417.53 33.0937 422.553 Q33.0937 428.589 36.9421 432.073 Q40.7905 435.556 47.4339 435.556 L73.0762 435.556 L73.0762 443.051 L27.706 443.051 L27.706 435.556 L34.7546 435.556 Q30.6632 432.883 28.6377 429.278 Q26.6123 425.632 26.6123 420.892 Q26.6123 413.074 31.4734 409.064 Q36.2939 405.053 45.692 405.053 Z" fill="#000000" fill-rule="evenodd" fill-opacity="1" /><polyline clip-path="url(#clip472)" style="stroke:#009af9; stroke-linecap:round; stroke-linejoin:round; stroke-width:12; stroke-opacity:1; fill:none" points="
  326.17,1105.48 326.17,85.3298 
  "/>
<polyline clip-path="url(#clip472)" style="stroke:#009af9; stroke-linecap:round; stroke-linejoin:round; stroke-width:12; stroke-opacity:1; fill:none" points="
  477.521,1105.48 477.521,446.546 
  "/>
<polyline clip-path="url(#clip472)" style="stroke:#009af9; stroke-linecap:round; stroke-linejoin:round; stroke-width:12; stroke-opacity:1; fill:none" points="
  628.871,1105.48 628.871,698.729 
  "/>
<polyline clip-path="url(#clip472)" style="stroke:#009af9; stroke-linecap:round; stroke-linejoin:round; stroke-width:12; stroke-opacity:1; fill:none" points="
  780.222,1105.48 780.222,769.233 
  "/>
<polyline clip-path="url(#clip472)" style="stroke:#009af9; stroke-linecap:round; stroke-linejoin:round; stroke-width:12; stroke-opacity:1; fill:none" points="
  931.573,1105.48 931.573,976.459 
  "/>
<polyline clip-path="url(#clip472)" style="stroke:#009af9; stroke-linecap:round; stroke-linejoin:round; stroke-width:12; stroke-opacity:1; fill:none" points="
  1082.92,1105.48 1082.92,909.412 
  "/>
<polyline clip-path="url(#clip472)" style="stroke:#009af9; stroke-linecap:round; stroke-linejoin:round; stroke-width:12; stroke-opacity:1; fill:none" points="
  1234.27,1105.48 1234.27,968.749 
  "/>
<polyline clip-path="url(#clip472)" style="stroke:#009af9; stroke-linecap:round; stroke-linejoin:round; stroke-width:12; stroke-opacity:1; fill:none" points="
  1385.62,1105.48 1385.62,1117.97 
  "/>
<polyline clip-path="url(#clip472)" style="stroke:#009af9; stroke-linecap:round; stroke-linejoin:round; stroke-width:12; stroke-opacity:1; fill:none" points="
  1536.98,1105.48 1536.98,1058.24 
  "/>
<polyline clip-path="url(#clip472)" style="stroke:#009af9; stroke-linecap:round; stroke-linejoin:round; stroke-width:12; stroke-opacity:1; fill:none" points="
  1688.33,1105.48 1688.33,1243.94 
  "/>
<polyline clip-path="url(#clip472)" style="stroke:#009af9; stroke-linecap:round; stroke-linejoin:round; stroke-width:12; stroke-opacity:1; fill:none" points="
  1839.68,1105.48 1839.68,1354.85 
  "/>
<polyline clip-path="url(#clip472)" style="stroke:#009af9; stroke-linecap:round; stroke-linejoin:round; stroke-width:12; stroke-opacity:1; fill:none" points="
  1991.03,1105.48 1991.03,1235.26 
  "/>
<polyline clip-path="url(#clip472)" style="stroke:#009af9; stroke-linecap:round; stroke-linejoin:round; stroke-width:12; stroke-opacity:1; fill:none" points="
  2142.38,1105.48 2142.38,1298.13 
  "/>
<polyline clip-path="url(#clip472)" style="stroke:#009af9; stroke-linecap:round; stroke-linejoin:round; stroke-width:12; stroke-opacity:1; fill:none" points="
  2293.73,1105.48 2293.73,1334.1 
  "/>
<path clip-path="url(#clip470)" d="
M980.322 221.701 L2283.24 221.701 L2283.24 92.1006 L980.322 92.1006  Z
  " fill="#ffffff" fill-rule="evenodd" fill-opacity="1"/>
<polyline clip-path="url(#clip470)" style="stroke:#000000; stroke-linecap:round; stroke-linejoin:round; stroke-width:4; stroke-opacity:1; fill:none" points="
  980.322,221.701 2283.24,221.701 2283.24,92.1006 980.322,92.1006 980.322,221.701 
  "/>
<polyline clip-path="url(#clip470)" style="stroke:#009af9; stroke-linecap:round; stroke-linejoin:round; stroke-width:15; stroke-opacity:1; fill:none" points="
  1003.5,156.901 1142.54,156.901 
  "/>
<path clip-path="url(#clip470)" d="M1185.5 141.059 L1177.57 162.557 L1193.46 162.557 L1185.5 141.059 M1182.2 135.301 L1188.83 135.301 L1205.29 178.501 L1199.22 178.501 L1195.28 167.419 L1175.81 167.419 L1171.87 178.501 L1165.71 178.501 L1182.2 135.301 Z" fill="#000000" fill-rule="evenodd" fill-opacity="1" /><path clip-path="url(#clip470)" d="M1210.82 165.711 L1210.82 146.093 L1216.14 146.093 L1216.14 165.509 Q1216.14 170.109 1217.94 172.424 Q1219.73 174.71 1223.32 174.71 Q1227.63 174.71 1230.12 171.961 Q1232.64 169.212 1232.64 164.467 L1232.64 146.093 L1237.96 146.093 L1237.96 178.501 L1232.64 178.501 L1232.64 173.524 Q1230.7 176.475 1228.12 177.922 Q1225.58 179.34 1222.19 179.34 Q1216.61 179.34 1213.71 175.868 Q1210.82 172.395 1210.82 165.711 M1224.22 145.312 L1224.22 145.312 Z" fill="#000000" fill-rule="evenodd" fill-opacity="1" /><path clip-path="url(#clip470)" d="M1254.19 136.892 L1254.19 146.093 L1265.16 146.093 L1265.16 150.231 L1254.19 150.231 L1254.19 167.824 Q1254.19 171.788 1255.26 172.916 Q1256.36 174.045 1259.69 174.045 L1265.16 174.045 L1265.16 178.501 L1259.69 178.501 Q1253.53 178.501 1251.18 176.215 Q1248.84 173.9 1248.84 167.824 L1248.84 150.231 L1244.93 150.231 L1244.93 146.093 L1248.84 146.093 L1248.84 136.892 L1254.19 136.892 Z" fill="#000000" fill-rule="evenodd" fill-opacity="1" /><path clip-path="url(#clip470)" d="M1284.72 149.826 Q1280.44 149.826 1277.95 153.182 Q1275.46 156.51 1275.46 162.326 Q1275.46 168.142 1277.92 171.498 Q1280.41 174.826 1284.72 174.826 Q1288.97 174.826 1291.46 171.469 Q1293.95 168.113 1293.95 162.326 Q1293.95 156.568 1291.46 153.211 Q1288.97 149.826 1284.72 149.826 M1284.72 145.312 Q1291.66 145.312 1295.63 149.826 Q1299.59 154.34 1299.59 162.326 Q1299.59 170.283 1295.63 174.826 Q1291.66 179.34 1284.72 179.34 Q1277.75 179.34 1273.78 174.826 Q1269.85 170.283 1269.85 162.326 Q1269.85 154.34 1273.78 149.826 Q1277.75 145.312 1284.72 145.312 Z" fill="#000000" fill-rule="evenodd" fill-opacity="1" /><path clip-path="url(#clip470)" d="M1331.74 147.338 L1331.74 152.314 Q1329.48 151.07 1327.2 150.463 Q1324.94 149.826 1322.62 149.826 Q1317.45 149.826 1314.58 153.125 Q1311.72 156.394 1311.72 162.326 Q1311.72 168.258 1314.58 171.556 Q1317.45 174.826 1322.62 174.826 Q1324.94 174.826 1327.2 174.218 Q1329.48 173.582 1331.74 172.337 L1331.74 177.256 Q1329.51 178.298 1327.11 178.819 Q1324.74 179.34 1322.05 179.34 Q1314.73 179.34 1310.41 174.739 Q1306.1 170.138 1306.1 162.326 Q1306.1 154.398 1310.44 149.855 Q1314.81 145.312 1322.39 145.312 Q1324.85 145.312 1327.2 145.833 Q1329.54 146.325 1331.74 147.338 Z" fill="#000000" fill-rule="evenodd" fill-opacity="1" /><path clip-path="url(#clip470)" d="M1353.56 149.826 Q1349.27 149.826 1346.79 153.182 Q1344.3 156.51 1344.3 162.326 Q1344.3 168.142 1346.76 171.498 Q1349.25 174.826 1353.56 174.826 Q1357.81 174.826 1360.3 171.469 Q1362.79 168.113 1362.79 162.326 Q1362.79 156.568 1360.3 153.211 Q1357.81 149.826 1353.56 149.826 M1353.56 145.312 Q1360.5 145.312 1364.46 149.826 Q1368.43 154.34 1368.43 162.326 Q1368.43 170.283 1364.46 174.826 Q1360.5 179.34 1353.56 179.34 Q1346.58 179.34 1342.62 174.826 Q1338.68 170.283 1338.68 162.326 Q1338.68 154.34 1342.62 149.826 Q1346.58 145.312 1353.56 145.312 Z" fill="#000000" fill-rule="evenodd" fill-opacity="1" /><path clip-path="url(#clip470)" d="M1396.03 151.07 Q1395.14 150.549 1394.07 150.318 Q1393.02 150.057 1391.75 150.057 Q1387.24 150.057 1384.81 153.009 Q1382.4 155.931 1382.4 161.429 L1382.4 178.501 L1377.05 178.501 L1377.05 146.093 L1382.4 146.093 L1382.4 151.128 Q1384.08 148.177 1386.77 146.759 Q1389.46 145.312 1393.31 145.312 Q1393.86 145.312 1394.53 145.399 Q1395.19 145.457 1396 145.601 L1396.03 151.07 Z" fill="#000000" fill-rule="evenodd" fill-opacity="1" /><path clip-path="url(#clip470)" d="M1419.35 151.07 Q1418.46 150.549 1417.39 150.318 Q1416.35 150.057 1415.07 150.057 Q1410.56 150.057 1408.13 153.009 Q1405.73 155.931 1405.73 161.429 L1405.73 178.501 L1400.37 178.501 L1400.37 146.093 L1405.73 146.093 L1405.73 151.128 Q1407.4 148.177 1410.1 146.759 Q1412.79 145.312 1416.63 145.312 Q1417.18 145.312 1417.85 145.399 Q1418.52 145.457 1419.33 145.601 L1419.35 151.07 Z" fill="#000000" fill-rule="evenodd" fill-opacity="1" /><path clip-path="url(#clip470)" d="M1451.36 160.966 L1451.36 163.57 L1426.88 163.57 Q1427.23 169.068 1430.18 171.961 Q1433.16 174.826 1438.45 174.826 Q1441.52 174.826 1444.38 174.074 Q1447.28 173.321 1450.11 171.817 L1450.11 176.851 Q1447.25 178.067 1444.24 178.703 Q1441.23 179.34 1438.13 179.34 Q1430.38 179.34 1425.84 174.826 Q1421.32 170.312 1421.32 162.615 Q1421.32 154.658 1425.6 150 Q1429.92 145.312 1437.21 145.312 Q1443.75 145.312 1447.54 149.537 Q1451.36 153.732 1451.36 160.966 M1446.03 159.403 Q1445.97 155.034 1443.57 152.43 Q1441.2 149.826 1437.27 149.826 Q1432.81 149.826 1430.12 152.343 Q1427.46 154.861 1427.05 159.432 L1446.03 159.403 Z" fill="#000000" fill-rule="evenodd" fill-opacity="1" /><path clip-path="url(#clip470)" d="M1460.1 133.478 L1465.42 133.478 L1465.42 178.501 L1460.1 178.501 L1460.1 133.478 Z" fill="#000000" fill-rule="evenodd" fill-opacity="1" /><path clip-path="url(#clip470)" d="M1491.29 162.21 Q1484.83 162.21 1482.35 163.686 Q1479.86 165.162 1479.86 168.721 Q1479.86 171.556 1481.71 173.234 Q1483.59 174.884 1486.8 174.884 Q1491.23 174.884 1493.89 171.759 Q1496.58 168.605 1496.58 163.397 L1496.58 162.21 L1491.29 162.21 M1501.91 160.011 L1501.91 178.501 L1496.58 178.501 L1496.58 173.582 Q1494.76 176.533 1492.04 177.951 Q1489.32 179.34 1485.38 179.34 Q1480.41 179.34 1477.46 176.562 Q1474.53 173.755 1474.53 169.068 Q1474.53 163.599 1478.18 160.821 Q1481.85 158.044 1489.12 158.044 L1496.58 158.044 L1496.58 157.523 Q1496.58 153.848 1494.15 151.851 Q1491.75 149.826 1487.38 149.826 Q1484.6 149.826 1481.97 150.492 Q1479.34 151.157 1476.91 152.488 L1476.91 147.569 Q1479.83 146.441 1482.58 145.891 Q1485.33 145.312 1487.93 145.312 Q1494.96 145.312 1498.43 148.958 Q1501.91 152.604 1501.91 160.011 Z" fill="#000000" fill-rule="evenodd" fill-opacity="1" /><path clip-path="url(#clip470)" d="M1518.14 136.892 L1518.14 146.093 L1529.11 146.093 L1529.11 150.231 L1518.14 150.231 L1518.14 167.824 Q1518.14 171.788 1519.21 172.916 Q1520.31 174.045 1523.64 174.045 L1529.11 174.045 L1529.11 178.501 L1523.64 178.501 Q1517.47 178.501 1515.13 176.215 Q1512.79 173.9 1512.79 167.824 L1512.79 150.231 L1508.88 150.231 L1508.88 146.093 L1512.79 146.093 L1512.79 136.892 L1518.14 136.892 Z" fill="#000000" fill-rule="evenodd" fill-opacity="1" /><path clip-path="url(#clip470)" d="M1536.11 146.093 L1541.43 146.093 L1541.43 178.501 L1536.11 178.501 L1536.11 146.093 M1536.11 133.478 L1541.43 133.478 L1541.43 140.22 L1536.11 140.22 L1536.11 133.478 Z" fill="#000000" fill-rule="evenodd" fill-opacity="1" /><path clip-path="url(#clip470)" d="M1565.13 149.826 Q1560.85 149.826 1558.36 153.182 Q1555.87 156.51 1555.87 162.326 Q1555.87 168.142 1558.33 171.498 Q1560.82 174.826 1565.13 174.826 Q1569.38 174.826 1571.87 171.469 Q1574.36 168.113 1574.36 162.326 Q1574.36 156.568 1571.87 153.211 Q1569.38 149.826 1565.13 149.826 M1565.13 145.312 Q1572.07 145.312 1576.04 149.826 Q1580 154.34 1580 162.326 Q1580 170.283 1576.04 174.826 Q1572.07 179.34 1565.13 179.34 Q1558.16 179.34 1554.19 174.826 Q1550.26 170.283 1550.26 162.326 Q1550.26 154.34 1554.19 149.826 Q1558.16 145.312 1565.13 145.312 Z" fill="#000000" fill-rule="evenodd" fill-opacity="1" /><path clip-path="url(#clip470)" d="M1615.77 158.941 L1615.77 178.501 L1610.44 178.501 L1610.44 159.114 Q1610.44 154.513 1608.65 152.228 Q1606.85 149.942 1603.27 149.942 Q1598.95 149.942 1596.47 152.691 Q1593.98 155.439 1593.98 160.185 L1593.98 178.501 L1588.62 178.501 L1588.62 146.093 L1593.98 146.093 L1593.98 151.128 Q1595.89 148.206 1598.46 146.759 Q1601.07 145.312 1604.45 145.312 Q1610.04 145.312 1612.9 148.784 Q1615.77 152.228 1615.77 158.941 Z" fill="#000000" fill-rule="evenodd" fill-opacity="1" /><path clip-path="url(#clip470)" d="M1661.63 133.478 L1661.63 137.905 L1656.54 137.905 Q1653.67 137.905 1652.54 139.062 Q1651.44 140.22 1651.44 143.229 L1651.44 146.093 L1660.21 146.093 L1660.21 150.231 L1651.44 150.231 L1651.44 178.501 L1646.09 178.501 L1646.09 150.231 L1641 150.231 L1641 146.093 L1646.09 146.093 L1646.09 143.836 Q1646.09 138.426 1648.61 135.966 Q1651.12 133.478 1656.59 133.478 L1661.63 133.478 Z" fill="#000000" fill-rule="evenodd" fill-opacity="1" /><path clip-path="url(#clip470)" d="M1678.64 149.826 Q1674.36 149.826 1671.87 153.182 Q1669.38 156.51 1669.38 162.326 Q1669.38 168.142 1671.84 171.498 Q1674.33 174.826 1678.64 174.826 Q1682.89 174.826 1685.38 171.469 Q1687.87 168.113 1687.87 162.326 Q1687.87 156.568 1685.38 153.211 Q1682.89 149.826 1678.64 149.826 M1678.64 145.312 Q1685.59 145.312 1689.55 149.826 Q1693.51 154.34 1693.51 162.326 Q1693.51 170.283 1689.55 174.826 Q1685.59 179.34 1678.64 179.34 Q1671.67 179.34 1667.7 174.826 Q1663.77 170.283 1663.77 162.326 Q1663.77 154.34 1667.7 149.826 Q1671.67 145.312 1678.64 145.312 Z" fill="#000000" fill-rule="evenodd" fill-opacity="1" /><path clip-path="url(#clip470)" d="M1721.12 151.07 Q1720.22 150.549 1719.15 150.318 Q1718.11 150.057 1716.84 150.057 Q1712.32 150.057 1709.89 153.009 Q1707.49 155.931 1707.49 161.429 L1707.49 178.501 L1702.14 178.501 L1702.14 146.093 L1707.49 146.093 L1707.49 151.128 Q1709.17 148.177 1711.86 146.759 Q1714.55 145.312 1718.4 145.312 Q1718.95 145.312 1719.61 145.399 Q1720.28 145.457 1721.09 145.601 L1721.12 151.07 Z" fill="#000000" fill-rule="evenodd" fill-opacity="1" /><path clip-path="url(#clip470)" d="M1778.12 138.628 L1778.12 144.791 Q1775.17 142.042 1771.81 140.683 Q1768.48 139.323 1764.72 139.323 Q1757.32 139.323 1753.38 143.865 Q1749.45 148.379 1749.45 156.944 Q1749.45 165.48 1753.38 170.023 Q1757.32 174.537 1764.72 174.537 Q1768.48 174.537 1771.81 173.177 Q1775.17 171.817 1778.12 169.068 L1778.12 175.173 Q1775.05 177.256 1771.61 178.298 Q1768.2 179.34 1764.38 179.34 Q1754.57 179.34 1748.92 173.35 Q1743.28 167.332 1743.28 156.944 Q1743.28 146.527 1748.92 140.538 Q1754.57 134.519 1764.38 134.519 Q1768.25 134.519 1771.67 135.561 Q1775.11 136.574 1778.12 138.628 Z" fill="#000000" fill-rule="evenodd" fill-opacity="1" /><path clip-path="url(#clip470)" d="M1799.47 149.826 Q1795.19 149.826 1792.7 153.182 Q1790.21 156.51 1790.21 162.326 Q1790.21 168.142 1792.67 171.498 Q1795.16 174.826 1799.47 174.826 Q1803.73 174.826 1806.22 171.469 Q1808.7 168.113 1808.7 162.326 Q1808.7 156.568 1806.22 153.211 Q1803.73 149.826 1799.47 149.826 M1799.47 145.312 Q1806.42 145.312 1810.38 149.826 Q1814.35 154.34 1814.35 162.326 Q1814.35 170.283 1810.38 174.826 Q1806.42 179.34 1799.47 179.34 Q1792.5 179.34 1788.54 174.826 Q1784.6 170.283 1784.6 162.326 Q1784.6 154.34 1788.54 149.826 Q1792.5 145.312 1799.47 145.312 Z" fill="#000000" fill-rule="evenodd" fill-opacity="1" /><path clip-path="url(#clip470)" d="M1841.95 151.07 Q1841.05 150.549 1839.98 150.318 Q1838.94 150.057 1837.67 150.057 Q1833.15 150.057 1830.72 153.009 Q1828.32 155.931 1828.32 161.429 L1828.32 178.501 L1822.97 178.501 L1822.97 146.093 L1828.32 146.093 L1828.32 151.128 Q1830 148.177 1832.69 146.759 Q1835.38 145.312 1839.23 145.312 Q1839.78 145.312 1840.45 145.399 Q1841.11 145.457 1841.92 145.601 L1841.95 151.07 Z" fill="#000000" fill-rule="evenodd" fill-opacity="1" /><path clip-path="url(#clip470)" d="M1865.27 151.07 Q1864.38 150.549 1863.3 150.318 Q1862.26 150.057 1860.99 150.057 Q1856.48 150.057 1854.05 153.009 Q1851.64 155.931 1851.64 161.429 L1851.64 178.501 L1846.29 178.501 L1846.29 146.093 L1851.64 146.093 L1851.64 151.128 Q1853.32 148.177 1856.01 146.759 Q1858.7 145.312 1862.55 145.312 Q1863.1 145.312 1863.77 145.399 Q1864.43 145.457 1865.24 145.601 L1865.27 151.07 Z" fill="#000000" fill-rule="evenodd" fill-opacity="1" /><path clip-path="url(#clip470)" d="M1897.27 160.966 L1897.27 163.57 L1872.8 163.57 Q1873.14 169.068 1876.09 171.961 Q1879.07 174.826 1884.37 174.826 Q1887.44 174.826 1890.3 174.074 Q1893.19 173.321 1896.03 171.817 L1896.03 176.851 Q1893.17 178.067 1890.16 178.703 Q1887.15 179.34 1884.05 179.34 Q1876.3 179.34 1871.75 174.826 Q1867.24 170.312 1867.24 162.615 Q1867.24 154.658 1871.52 150 Q1875.83 145.312 1883.13 145.312 Q1889.66 145.312 1893.46 149.537 Q1897.27 153.732 1897.27 160.966 M1891.95 159.403 Q1891.89 155.034 1889.49 152.43 Q1887.12 149.826 1883.18 149.826 Q1878.73 149.826 1876.04 152.343 Q1873.37 154.861 1872.97 159.432 L1891.95 159.403 Z" fill="#000000" fill-rule="evenodd" fill-opacity="1" /><path clip-path="url(#clip470)" d="M1906.01 133.478 L1911.34 133.478 L1911.34 178.501 L1906.01 178.501 L1906.01 133.478 Z" fill="#000000" fill-rule="evenodd" fill-opacity="1" /><path clip-path="url(#clip470)" d="M1937.2 162.21 Q1930.75 162.21 1928.26 163.686 Q1925.78 165.162 1925.78 168.721 Q1925.78 171.556 1927.63 173.234 Q1929.51 174.884 1932.72 174.884 Q1937.15 174.884 1939.81 171.759 Q1942.5 168.605 1942.5 163.397 L1942.5 162.21 L1937.2 162.21 M1947.82 160.011 L1947.82 178.501 L1942.5 178.501 L1942.5 173.582 Q1940.68 176.533 1937.96 177.951 Q1935.24 179.34 1931.3 179.34 Q1926.33 179.34 1923.37 176.562 Q1920.45 173.755 1920.45 169.068 Q1920.45 163.599 1924.1 160.821 Q1927.77 158.044 1935.03 158.044 L1942.5 158.044 L1942.5 157.523 Q1942.5 153.848 1940.07 151.851 Q1937.67 149.826 1933.3 149.826 Q1930.52 149.826 1927.89 150.492 Q1925.25 151.157 1922.82 152.488 L1922.82 147.569 Q1925.75 146.441 1928.5 145.891 Q1931.24 145.312 1933.85 145.312 Q1940.88 145.312 1944.35 148.958 Q1947.82 152.604 1947.82 160.011 Z" fill="#000000" fill-rule="evenodd" fill-opacity="1" /><path clip-path="url(#clip470)" d="M1964.06 136.892 L1964.06 146.093 L1975.02 146.093 L1975.02 150.231 L1964.06 150.231 L1964.06 167.824 Q1964.06 171.788 1965.13 172.916 Q1966.23 174.045 1969.55 174.045 L1975.02 174.045 L1975.02 178.501 L1969.55 178.501 Q1963.39 178.501 1961.05 176.215 Q1958.7 173.9 1958.7 167.824 L1958.7 150.231 L1954.8 150.231 L1954.8 146.093 L1958.7 146.093 L1958.7 136.892 L1964.06 136.892 Z" fill="#000000" fill-rule="evenodd" fill-opacity="1" /><path clip-path="url(#clip470)" d="M2009.75 160.966 L2009.75 163.57 L1985.27 163.57 Q1985.61 169.068 1988.56 171.961 Q1991.54 174.826 1996.84 174.826 Q1999.91 174.826 2002.77 174.074 Q2005.67 173.321 2008.5 171.817 L2008.5 176.851 Q2005.64 178.067 2002.63 178.703 Q1999.62 179.34 1996.52 179.34 Q1988.77 179.34 1984.22 174.826 Q1979.71 170.312 1979.71 162.615 Q1979.71 154.658 1983.99 150 Q1988.3 145.312 1995.6 145.312 Q2002.14 145.312 2005.93 149.537 Q2009.75 153.732 2009.75 160.966 M2004.42 159.403 Q2004.36 155.034 2001.96 152.43 Q1999.59 149.826 1995.65 149.826 Q1991.2 149.826 1988.51 152.343 Q1985.84 154.861 1985.44 159.432 L2004.42 159.403 Z" fill="#000000" fill-rule="evenodd" fill-opacity="1" /><path clip-path="url(#clip470)" d="M2039.81 151.012 L2039.81 133.478 L2045.13 133.478 L2045.13 178.501 L2039.81 178.501 L2039.81 173.64 Q2038.13 176.533 2035.56 177.951 Q2033.01 179.34 2029.42 179.34 Q2023.55 179.34 2019.84 174.652 Q2016.17 169.965 2016.17 162.326 Q2016.17 154.687 2019.84 150 Q2023.55 145.312 2029.42 145.312 Q2033.01 145.312 2035.56 146.73 Q2038.13 148.119 2039.81 151.012 M2021.67 162.326 Q2021.67 168.2 2024.07 171.556 Q2026.5 174.884 2030.72 174.884 Q2034.95 174.884 2037.38 171.556 Q2039.81 168.2 2039.81 162.326 Q2039.81 156.452 2037.38 153.125 Q2034.95 149.768 2030.72 149.768 Q2026.5 149.768 2024.07 153.125 Q2021.67 156.452 2021.67 162.326 Z" fill="#000000" fill-rule="evenodd" fill-opacity="1" /><path clip-path="url(#clip470)" d="M2086.31 178.501 L2069.81 135.301 L2075.92 135.301 L2089.61 171.672 L2103.32 135.301 L2109.4 135.301 L2092.93 178.501 L2086.31 178.501 Z" fill="#000000" fill-rule="evenodd" fill-opacity="1" /><path clip-path="url(#clip470)" d="M2125.6 162.21 Q2119.15 162.21 2116.66 163.686 Q2114.17 165.162 2114.17 168.721 Q2114.17 171.556 2116.02 173.234 Q2117.9 174.884 2121.12 174.884 Q2125.54 174.884 2128.21 171.759 Q2130.9 168.605 2130.9 163.397 L2130.9 162.21 L2125.6 162.21 M2136.22 160.011 L2136.22 178.501 L2130.9 178.501 L2130.9 173.582 Q2129.07 176.533 2126.35 177.951 Q2123.63 179.34 2119.7 179.34 Q2114.72 179.34 2111.77 176.562 Q2108.85 173.755 2108.85 169.068 Q2108.85 163.599 2112.49 160.821 Q2116.17 158.044 2123.43 158.044 L2130.9 158.044 L2130.9 157.523 Q2130.9 153.848 2128.47 151.851 Q2126.06 149.826 2121.69 149.826 Q2118.92 149.826 2116.28 150.492 Q2113.65 151.157 2111.22 152.488 L2111.22 147.569 Q2114.14 146.441 2116.89 145.891 Q2119.64 145.312 2122.24 145.312 Q2129.28 145.312 2132.75 148.958 Q2136.22 152.604 2136.22 160.011 Z" fill="#000000" fill-rule="evenodd" fill-opacity="1" /><path clip-path="url(#clip470)" d="M2147.19 133.478 L2152.51 133.478 L2152.51 178.501 L2147.19 178.501 L2147.19 133.478 Z" fill="#000000" fill-rule="evenodd" fill-opacity="1" /><path clip-path="url(#clip470)" d="M2163.1 165.711 L2163.1 146.093 L2168.42 146.093 L2168.42 165.509 Q2168.42 170.109 2170.22 172.424 Q2172.01 174.71 2175.6 174.71 Q2179.91 174.71 2182.4 171.961 Q2184.92 169.212 2184.92 164.467 L2184.92 146.093 L2190.24 146.093 L2190.24 178.501 L2184.92 178.501 L2184.92 173.524 Q2182.98 176.475 2180.4 177.922 Q2177.86 179.34 2174.47 179.34 Q2168.89 179.34 2165.99 175.868 Q2163.1 172.395 2163.1 165.711 M2176.5 145.312 L2176.5 145.312 Z" fill="#000000" fill-rule="evenodd" fill-opacity="1" /><path clip-path="url(#clip470)" d="M2228.93 160.966 L2228.93 163.57 L2204.45 163.57 Q2204.8 169.068 2207.75 171.961 Q2210.73 174.826 2216.02 174.826 Q2219.09 174.826 2221.95 174.074 Q2224.85 173.321 2227.68 171.817 L2227.68 176.851 Q2224.82 178.067 2221.81 178.703 Q2218.8 179.34 2215.7 179.34 Q2207.95 179.34 2203.41 174.826 Q2198.89 170.312 2198.89 162.615 Q2198.89 154.658 2203.18 150 Q2207.49 145.312 2214.78 145.312 Q2221.32 145.312 2225.11 149.537 Q2228.93 153.732 2228.93 160.966 M2223.6 159.403 Q2223.55 155.034 2221.14 152.43 Q2218.77 149.826 2214.84 149.826 Q2210.38 149.826 2207.69 152.343 Q2205.03 154.861 2204.62 159.432 L2223.6 159.403 Z" fill="#000000" fill-rule="evenodd" fill-opacity="1" /><path clip-path="url(#clip470)" d="M2258.33 147.048 L2258.33 152.083 Q2256.07 150.926 2253.64 150.347 Q2251.21 149.768 2248.6 149.768 Q2244.64 149.768 2242.64 150.983 Q2240.68 152.199 2240.68 154.629 Q2240.68 156.481 2242.09 157.552 Q2243.51 158.593 2247.79 159.548 L2249.62 159.953 Q2255.29 161.169 2257.66 163.397 Q2260.06 165.596 2260.06 169.56 Q2260.06 174.074 2256.47 176.707 Q2252.92 179.34 2246.67 179.34 Q2244.06 179.34 2241.23 178.819 Q2238.42 178.327 2235.29 177.314 L2235.29 171.817 Q2238.24 173.35 2241.11 174.131 Q2243.97 174.884 2246.78 174.884 Q2250.54 174.884 2252.57 173.611 Q2254.59 172.309 2254.59 169.965 Q2254.59 167.795 2253.12 166.637 Q2251.67 165.48 2246.72 164.409 L2244.87 163.975 Q2239.92 162.934 2237.72 160.792 Q2235.53 158.622 2235.53 154.861 Q2235.53 150.289 2238.77 147.801 Q2242.01 145.312 2247.97 145.312 Q2250.92 145.312 2253.52 145.746 Q2256.13 146.18 2258.33 147.048 Z" fill="#000000" fill-rule="evenodd" fill-opacity="1" /></svg>
