<?xml version="1.0" encoding="utf-8"?>
<svg xmlns="http://www.w3.org/2000/svg" xmlns:xlink="http://www.w3.org/1999/xlink" width="600" height="400" viewBox="0 0 2400 1600">
<defs>
  <clipPath id="clip510">
    <rect x="0" y="0" width="2400" height="1600"/>
  </clipPath>
</defs>
<path clip-path="url(#clip510)" d="
M0 1600 L2400 1600 L2400 0 L0 0  Z
  " fill="#ffffff" fill-rule="evenodd" fill-opacity="1"/>
<defs>
  <clipPath id="clip511">
    <rect x="480" y="0" width="1681" height="1600"/>
  </clipPath>
</defs>
<path clip-path="url(#clip510)" d="
M199.053 1392.94 L2352.76 1392.94 L2352.76 47.2441 L199.053 47.2441  Z
  " fill="#ffffff" fill-rule="evenodd" fill-opacity="1"/>
<defs>
  <clipPath id="clip512">
    <rect x="199" y="47" width="2155" height="1347"/>
  </clipPath>
</defs>
<polyline clip-path="url(#clip512)" style="stroke:#000000; stroke-linecap:round; stroke-linejoin:round; stroke-width:2; stroke-opacity:0.1; fill:none" points="
  364.359,1392.94 364.359,47.2441 
  "/>
<polyline clip-path="url(#clip512)" style="stroke:#000000; stroke-linecap:round; stroke-linejoin:round; stroke-width:2; stroke-opacity:0.1; fill:none" points="
  1018.86,1392.94 1018.86,47.2441 
  "/>
<polyline clip-path="url(#clip512)" style="stroke:#000000; stroke-linecap:round; stroke-linejoin:round; stroke-width:2; stroke-opacity:0.1; fill:none" points="
  1673.35,1392.94 1673.35,47.2441 
  "/>
<polyline clip-path="url(#clip512)" style="stroke:#000000; stroke-linecap:round; stroke-linejoin:round; stroke-width:2; stroke-opacity:0.1; fill:none" points="
  2327.85,1392.94 2327.85,47.2441 
  "/>
<polyline clip-path="url(#clip510)" style="stroke:#000000; stroke-linecap:round; stroke-linejoin:round; stroke-width:4; stroke-opacity:1; fill:none" points="
  199.053,1392.94 2352.76,1392.94 
  "/>
<polyline clip-path="url(#clip510)" style="stroke:#000000; stroke-linecap:round; stroke-linejoin:round; stroke-width:4; stroke-opacity:1; fill:none" points="
  364.359,1392.94 364.359,1374.04 
  "/>
<polyline clip-path="url(#clip510)" style="stroke:#000000; stroke-linecap:round; stroke-linejoin:round; stroke-width:4; stroke-opacity:1; fill:none" points="
  1018.86,1392.94 1018.86,1374.04 
  "/>
<polyline clip-path="url(#clip510)" style="stroke:#000000; stroke-linecap:round; stroke-linejoin:round; stroke-width:4; stroke-opacity:1; fill:none" points="
  1673.35,1392.94 1673.35,1374.04 
  "/>
<polyline clip-path="url(#clip510)" style="stroke:#000000; stroke-linecap:round; stroke-linejoin:round; stroke-width:4; stroke-opacity:1; fill:none" points="
  2327.85,1392.94 2327.85,1374.04 
  "/>
<path clip-path="url(#clip510)" d="M364.359 1429.72 Q358.942 1429.72 356.199 1435.07 Q353.491 1440.38 353.491 1451.07 Q353.491 1461.73 356.199 1467.08 Q358.942 1472.39 364.359 1472.39 Q369.81 1472.39 372.518 1467.08 Q375.261 1461.73 375.261 1451.07 Q375.261 1440.38 372.518 1435.07 Q369.81 1429.72 364.359 1429.72 M364.359 1424.16 Q373.074 1424.16 377.657 1431.07 Q382.275 1437.95 382.275 1451.07 Q382.275 1464.16 377.657 1471.07 Q373.074 1477.95 364.359 1477.95 Q355.644 1477.95 351.026 1471.07 Q346.442 1464.16 346.442 1451.07 Q346.442 1437.95 351.026 1431.07 Q355.644 1424.16 364.359 1424.16 Z" fill="#000000" fill-rule="evenodd" fill-opacity="1" /><path clip-path="url(#clip510)" d="M1004.43 1471.04 L1015.89 1471.04 L1015.89 1431.49 L1003.42 1433.99 L1003.42 1427.6 L1015.82 1425.1 L1022.83 1425.1 L1022.83 1471.04 L1034.29 1471.04 L1034.29 1476.94 L1004.43 1476.94 L1004.43 1471.04 Z" fill="#000000" fill-rule="evenodd" fill-opacity="1" /><path clip-path="url(#clip510)" d="M1665.33 1471.04 L1689.81 1471.04 L1689.81 1476.94 L1656.89 1476.94 L1656.89 1471.04 Q1660.89 1466.91 1667.76 1459.96 Q1674.67 1452.98 1676.44 1450.97 Q1679.81 1447.18 1681.13 1444.58 Q1682.48 1441.94 1682.48 1439.41 Q1682.48 1435.27 1679.57 1432.67 Q1676.68 1430.07 1672.03 1430.07 Q1668.73 1430.07 1665.05 1431.21 Q1661.41 1432.36 1657.24 1434.68 L1657.24 1427.6 Q1661.48 1425.9 1665.16 1425.03 Q1668.84 1424.16 1671.89 1424.16 Q1679.95 1424.16 1684.74 1428.19 Q1689.53 1432.22 1689.53 1438.95 Q1689.53 1442.15 1688.32 1445.03 Q1687.14 1447.88 1683.98 1451.77 Q1683.11 1452.77 1678.46 1457.6 Q1673.8 1462.39 1665.33 1471.04 Z" fill="#000000" fill-rule="evenodd" fill-opacity="1" /><path clip-path="url(#clip510)" d="M2334.22 1448.99 Q2339.25 1450.06 2342.07 1453.47 Q2344.91 1456.87 2344.91 1461.87 Q2344.91 1469.54 2339.64 1473.75 Q2334.36 1477.95 2324.64 1477.95 Q2321.37 1477.95 2317.9 1477.29 Q2314.46 1476.66 2310.78 1475.38 L2310.78 1468.61 Q2313.7 1470.31 2317.17 1471.18 Q2320.64 1472.04 2324.43 1472.04 Q2331.03 1472.04 2334.46 1469.44 Q2337.93 1466.84 2337.93 1461.87 Q2337.93 1457.29 2334.71 1454.72 Q2331.51 1452.11 2325.78 1452.11 L2319.74 1452.11 L2319.74 1446.35 L2326.06 1446.35 Q2331.23 1446.35 2333.98 1444.3 Q2336.72 1442.22 2336.72 1438.33 Q2336.72 1434.34 2333.87 1432.22 Q2331.06 1430.07 2325.78 1430.07 Q2322.9 1430.07 2319.6 1430.69 Q2316.3 1431.32 2312.34 1432.63 L2312.34 1426.38 Q2316.34 1425.27 2319.81 1424.72 Q2323.32 1424.16 2326.41 1424.16 Q2334.39 1424.16 2339.05 1427.81 Q2343.7 1431.42 2343.7 1437.6 Q2343.7 1441.91 2341.23 1444.89 Q2338.77 1447.84 2334.22 1448.99 Z" fill="#000000" fill-rule="evenodd" fill-opacity="1" /><path clip-path="url(#clip510)" d="M835.794 1518.8 L886.957 1518.8 L886.957 1525.68 L865.487 1525.68 L865.487 1579.28 L857.264 1579.28 L857.264 1525.68 L835.794 1525.68 L835.794 1518.8 Z" fill="#000000" fill-rule="evenodd" fill-opacity="1" /><path clip-path="url(#clip510)" d="M932.246 1551.89 L932.246 1579.28 L924.792 1579.28 L924.792 1552.13 Q924.792 1545.69 922.281 1542.49 Q919.769 1539.29 914.746 1539.29 Q908.71 1539.29 905.227 1543.14 Q901.743 1546.99 901.743 1553.63 L901.743 1579.28 L894.249 1579.28 L894.249 1516.24 L901.743 1516.24 L901.743 1540.95 Q904.416 1536.86 908.022 1534.84 Q911.668 1532.81 916.407 1532.81 Q924.225 1532.81 928.236 1537.67 Q932.246 1542.49 932.246 1551.89 Z" fill="#000000" fill-rule="evenodd" fill-opacity="1" /><path clip-path="url(#clip510)" d="M985.921 1554.73 L985.921 1558.37 L951.65 1558.37 Q952.136 1566.07 956.268 1570.12 Q960.44 1574.13 967.854 1574.13 Q972.148 1574.13 976.158 1573.08 Q980.209 1572.02 984.179 1569.92 L984.179 1576.97 Q980.168 1578.67 975.955 1579.56 Q971.742 1580.45 967.408 1580.45 Q956.552 1580.45 950.192 1574.13 Q943.872 1567.81 943.872 1557.04 Q943.872 1545.9 949.868 1539.37 Q955.903 1532.81 966.112 1532.81 Q975.267 1532.81 980.573 1538.73 Q985.921 1544.6 985.921 1554.73 M978.467 1552.54 Q978.386 1546.42 975.024 1542.78 Q971.702 1539.13 966.193 1539.13 Q959.954 1539.13 956.187 1542.66 Q952.46 1546.18 951.893 1552.58 L978.467 1552.54 Z" fill="#000000" fill-rule="evenodd" fill-opacity="1" /><path clip-path="url(#clip510)" d="M1015.74 1539.13 Q1009.74 1539.13 1006.26 1543.83 Q1002.77 1548.49 1002.77 1556.63 Q1002.77 1564.77 1006.22 1569.47 Q1009.7 1574.13 1015.74 1574.13 Q1021.69 1574.13 1025.17 1569.43 Q1028.66 1564.73 1028.66 1556.63 Q1028.66 1548.57 1025.17 1543.87 Q1021.69 1539.13 1015.74 1539.13 M1015.74 1532.81 Q1025.46 1532.81 1031.01 1539.13 Q1036.56 1545.45 1036.56 1556.63 Q1036.56 1567.77 1031.01 1574.13 Q1025.46 1580.45 1015.74 1580.45 Q1005.97 1580.45 1000.42 1574.13 Q994.914 1567.77 994.914 1556.63 Q994.914 1545.45 1000.42 1539.13 Q1005.97 1532.81 1015.74 1532.81 Z" fill="#000000" fill-rule="evenodd" fill-opacity="1" /><path clip-path="url(#clip510)" d="M1075.2 1540.87 Q1073.95 1540.14 1072.45 1539.82 Q1070.99 1539.46 1069.21 1539.46 Q1062.89 1539.46 1059.49 1543.59 Q1056.12 1547.68 1056.12 1555.38 L1056.12 1579.28 L1048.63 1579.28 L1048.63 1533.91 L1056.12 1533.91 L1056.12 1540.95 Q1058.47 1536.82 1062.24 1534.84 Q1066.01 1532.81 1071.39 1532.81 Q1072.16 1532.81 1073.1 1532.93 Q1074.03 1533.01 1075.16 1533.22 L1075.2 1540.87 Z" fill="#000000" fill-rule="evenodd" fill-opacity="1" /><path clip-path="url(#clip510)" d="M1120.01 1554.73 L1120.01 1558.37 L1085.73 1558.37 Q1086.22 1566.07 1090.35 1570.12 Q1094.53 1574.13 1101.94 1574.13 Q1106.23 1574.13 1110.24 1573.08 Q1114.29 1572.02 1118.26 1569.92 L1118.26 1576.97 Q1114.25 1578.67 1110.04 1579.56 Q1105.83 1580.45 1101.49 1580.45 Q1090.64 1580.45 1084.28 1574.13 Q1077.96 1567.81 1077.96 1557.04 Q1077.96 1545.9 1083.95 1539.37 Q1089.99 1532.81 1100.2 1532.81 Q1109.35 1532.81 1114.66 1538.73 Q1120.01 1544.6 1120.01 1554.73 M1112.55 1552.54 Q1112.47 1546.42 1109.11 1542.78 Q1105.79 1539.13 1100.28 1539.13 Q1094.04 1539.13 1090.27 1542.66 Q1086.55 1546.18 1085.98 1552.58 L1112.55 1552.54 Z" fill="#000000" fill-rule="evenodd" fill-opacity="1" /><path clip-path="url(#clip510)" d="M1139.61 1521.02 L1139.61 1533.91 L1154.96 1533.91 L1154.96 1539.7 L1139.61 1539.7 L1139.61 1564.33 Q1139.61 1569.88 1141.11 1571.46 Q1142.65 1573.04 1147.31 1573.04 L1154.96 1573.04 L1154.96 1579.28 L1147.31 1579.28 Q1138.68 1579.28 1135.4 1576.08 Q1132.12 1572.83 1132.12 1564.33 L1132.12 1539.7 L1126.65 1539.7 L1126.65 1533.91 L1132.12 1533.91 L1132.12 1521.02 L1139.61 1521.02 Z" fill="#000000" fill-rule="evenodd" fill-opacity="1" /><path clip-path="url(#clip510)" d="M1164.77 1533.91 L1172.22 1533.91 L1172.22 1579.28 L1164.77 1579.28 L1164.77 1533.91 M1164.77 1516.24 L1172.22 1516.24 L1172.22 1525.68 L1164.77 1525.68 L1164.77 1516.24 Z" fill="#000000" fill-rule="evenodd" fill-opacity="1" /><path clip-path="url(#clip510)" d="M1220.47 1535.65 L1220.47 1542.62 Q1217.31 1540.87 1214.11 1540.02 Q1210.95 1539.13 1207.71 1539.13 Q1200.46 1539.13 1196.45 1543.75 Q1192.44 1548.33 1192.44 1556.63 Q1192.44 1564.94 1196.45 1569.55 Q1200.46 1574.13 1207.71 1574.13 Q1210.95 1574.13 1214.11 1573.28 Q1217.31 1572.39 1220.47 1570.65 L1220.47 1577.53 Q1217.35 1578.99 1213.99 1579.72 Q1210.66 1580.45 1206.9 1580.45 Q1196.65 1580.45 1190.61 1574.01 Q1184.58 1567.57 1184.58 1556.63 Q1184.58 1545.53 1190.65 1539.17 Q1196.77 1532.81 1207.38 1532.81 Q1210.83 1532.81 1214.11 1533.54 Q1217.39 1534.23 1220.47 1535.65 Z" fill="#000000" fill-rule="evenodd" fill-opacity="1" /><path clip-path="url(#clip510)" d="M1254.05 1556.47 Q1245.02 1556.47 1241.53 1558.54 Q1238.05 1560.6 1238.05 1565.58 Q1238.05 1569.55 1240.64 1571.9 Q1243.27 1574.21 1247.77 1574.21 Q1253.97 1574.21 1257.7 1569.84 Q1261.46 1565.42 1261.46 1558.13 L1261.46 1556.47 L1254.05 1556.47 M1268.92 1553.39 L1268.92 1579.28 L1261.46 1579.28 L1261.46 1572.39 Q1258.91 1576.52 1255.1 1578.51 Q1251.3 1580.45 1245.79 1580.45 Q1238.82 1580.45 1234.69 1576.56 Q1230.6 1572.63 1230.6 1566.07 Q1230.6 1558.41 1235.7 1554.52 Q1240.84 1550.64 1251.01 1550.64 L1261.46 1550.64 L1261.46 1549.91 Q1261.46 1544.76 1258.06 1541.97 Q1254.7 1539.13 1248.58 1539.13 Q1244.69 1539.13 1241.01 1540.06 Q1237.32 1540.99 1233.92 1542.86 L1233.92 1535.97 Q1238.01 1534.39 1241.86 1533.62 Q1245.71 1532.81 1249.35 1532.81 Q1259.19 1532.81 1264.06 1537.92 Q1268.92 1543.02 1268.92 1553.39 Z" fill="#000000" fill-rule="evenodd" fill-opacity="1" /><path clip-path="url(#clip510)" d="M1284.27 1516.24 L1291.72 1516.24 L1291.72 1579.28 L1284.27 1579.28 L1284.27 1516.24 Z" fill="#000000" fill-rule="evenodd" fill-opacity="1" /><path clip-path="url(#clip510)" d="M1358.56 1524.35 Q1349.65 1524.35 1344.39 1530.99 Q1339.16 1537.63 1339.16 1549.1 Q1339.16 1560.52 1344.39 1567.16 Q1349.65 1573.81 1358.56 1573.81 Q1367.48 1573.81 1372.66 1567.16 Q1377.89 1560.52 1377.89 1549.1 Q1377.89 1537.63 1372.66 1530.99 Q1367.48 1524.35 1358.56 1524.35 M1370.03 1578.18 L1380.8 1589.97 L1370.92 1589.97 L1361.97 1580.29 Q1360.63 1580.37 1359.9 1580.41 Q1359.21 1580.45 1358.56 1580.45 Q1345.8 1580.45 1338.15 1571.94 Q1330.53 1563.4 1330.53 1549.1 Q1330.53 1534.76 1338.15 1526.25 Q1345.8 1517.7 1358.56 1517.7 Q1371.28 1517.7 1378.9 1526.25 Q1386.51 1534.76 1386.51 1549.1 Q1386.51 1559.63 1382.26 1567.12 Q1378.05 1574.62 1370.03 1578.18 Z" fill="#000000" fill-rule="evenodd" fill-opacity="1" /><path clip-path="url(#clip510)" d="M1398.22 1561.37 L1398.22 1533.91 L1405.68 1533.91 L1405.68 1561.09 Q1405.68 1567.53 1408.19 1570.77 Q1410.7 1573.97 1415.72 1573.97 Q1421.76 1573.97 1425.24 1570.12 Q1428.77 1566.27 1428.77 1559.63 L1428.77 1533.91 L1436.22 1533.91 L1436.22 1579.28 L1428.77 1579.28 L1428.77 1572.31 Q1426.05 1576.44 1422.45 1578.47 Q1418.88 1580.45 1414.14 1580.45 Q1406.32 1580.45 1402.27 1575.59 Q1398.22 1570.73 1398.22 1561.37 M1416.98 1532.81 L1416.98 1532.81 Z" fill="#000000" fill-rule="evenodd" fill-opacity="1" /><path clip-path="url(#clip510)" d="M1472.19 1556.47 Q1463.16 1556.47 1459.67 1558.54 Q1456.19 1560.6 1456.19 1565.58 Q1456.19 1569.55 1458.78 1571.9 Q1461.42 1574.21 1465.91 1574.21 Q1472.11 1574.21 1475.84 1569.84 Q1479.6 1565.42 1479.6 1558.13 L1479.6 1556.47 L1472.19 1556.47 M1487.06 1553.39 L1487.06 1579.28 L1479.6 1579.28 L1479.6 1572.39 Q1477.05 1576.52 1473.24 1578.51 Q1469.44 1580.45 1463.93 1580.45 Q1456.96 1580.45 1452.83 1576.56 Q1448.74 1572.63 1448.74 1566.07 Q1448.74 1558.41 1453.84 1554.52 Q1458.99 1550.64 1469.15 1550.64 L1479.6 1550.64 L1479.6 1549.91 Q1479.6 1544.76 1476.2 1541.97 Q1472.84 1539.13 1466.72 1539.13 Q1462.83 1539.13 1459.15 1540.06 Q1455.46 1540.99 1452.06 1542.86 L1452.06 1535.97 Q1456.15 1534.39 1460 1533.62 Q1463.85 1532.81 1467.49 1532.81 Q1477.34 1532.81 1482.2 1537.92 Q1487.06 1543.02 1487.06 1553.39 Z" fill="#000000" fill-rule="evenodd" fill-opacity="1" /><path clip-path="url(#clip510)" d="M1540.12 1551.89 L1540.12 1579.28 L1532.67 1579.28 L1532.67 1552.13 Q1532.67 1545.69 1530.16 1542.49 Q1527.65 1539.29 1522.62 1539.29 Q1516.59 1539.29 1513.11 1543.14 Q1509.62 1546.99 1509.62 1553.63 L1509.62 1579.28 L1502.13 1579.28 L1502.13 1533.91 L1509.62 1533.91 L1509.62 1540.95 Q1512.3 1536.86 1515.9 1534.84 Q1519.55 1532.81 1524.29 1532.81 Q1532.1 1532.81 1536.11 1537.67 Q1540.12 1542.49 1540.12 1551.89 Z" fill="#000000" fill-rule="evenodd" fill-opacity="1" /><path clip-path="url(#clip510)" d="M1562.36 1521.02 L1562.36 1533.91 L1577.72 1533.91 L1577.72 1539.7 L1562.36 1539.7 L1562.36 1564.33 Q1562.36 1569.88 1563.86 1571.46 Q1565.4 1573.04 1570.06 1573.04 L1577.72 1573.04 L1577.72 1579.28 L1570.06 1579.28 Q1561.43 1579.28 1558.15 1576.08 Q1554.87 1572.83 1554.87 1564.33 L1554.87 1539.7 L1549.4 1539.7 L1549.4 1533.91 L1554.87 1533.91 L1554.87 1521.02 L1562.36 1521.02 Z" fill="#000000" fill-rule="evenodd" fill-opacity="1" /><path clip-path="url(#clip510)" d="M1587.52 1533.91 L1594.97 1533.91 L1594.97 1579.28 L1587.52 1579.28 L1587.52 1533.91 M1587.52 1516.24 L1594.97 1516.24 L1594.97 1525.68 L1587.52 1525.68 L1587.52 1516.24 Z" fill="#000000" fill-rule="evenodd" fill-opacity="1" /><path clip-path="url(#clip510)" d="M1610.57 1516.24 L1618.02 1516.24 L1618.02 1579.28 L1610.57 1579.28 L1610.57 1516.24 Z" fill="#000000" fill-rule="evenodd" fill-opacity="1" /><path clip-path="url(#clip510)" d="M1672.43 1554.73 L1672.43 1558.37 L1638.16 1558.37 Q1638.64 1566.07 1642.77 1570.12 Q1646.95 1574.13 1654.36 1574.13 Q1658.65 1574.13 1662.66 1573.08 Q1666.72 1572.02 1670.69 1569.92 L1670.69 1576.97 Q1666.68 1578.67 1662.46 1579.56 Q1658.25 1580.45 1653.91 1580.45 Q1643.06 1580.45 1636.7 1574.13 Q1630.38 1567.81 1630.38 1557.04 Q1630.38 1545.9 1636.37 1539.37 Q1642.41 1532.81 1652.62 1532.81 Q1661.77 1532.81 1667.08 1538.73 Q1672.43 1544.6 1672.43 1554.73 M1664.97 1552.54 Q1664.89 1546.42 1661.53 1542.78 Q1658.21 1539.13 1652.7 1539.13 Q1646.46 1539.13 1642.69 1542.66 Q1638.97 1546.18 1638.4 1552.58 L1664.97 1552.54 Z" fill="#000000" fill-rule="evenodd" fill-opacity="1" /><path clip-path="url(#clip510)" d="M1713.58 1535.24 L1713.58 1542.29 Q1710.42 1540.67 1707.02 1539.86 Q1703.62 1539.05 1699.97 1539.05 Q1694.42 1539.05 1691.63 1540.75 Q1688.87 1542.45 1688.87 1545.86 Q1688.87 1548.45 1690.86 1549.95 Q1692.84 1551.41 1698.84 1552.74 L1701.39 1553.31 Q1709.33 1555.01 1712.65 1558.13 Q1716.02 1561.21 1716.02 1566.76 Q1716.02 1573.08 1710.99 1576.76 Q1706.01 1580.45 1697.26 1580.45 Q1693.61 1580.45 1689.64 1579.72 Q1685.71 1579.03 1681.34 1577.61 L1681.34 1569.92 Q1685.47 1572.07 1689.48 1573.16 Q1693.49 1574.21 1697.42 1574.21 Q1702.69 1574.21 1705.52 1572.43 Q1708.36 1570.61 1708.36 1567.33 Q1708.36 1564.29 1706.29 1562.67 Q1704.27 1561.05 1697.34 1559.55 L1694.75 1558.94 Q1687.82 1557.48 1684.74 1554.48 Q1681.66 1551.45 1681.66 1546.18 Q1681.66 1539.78 1686.2 1536.3 Q1690.74 1532.81 1699.08 1532.81 Q1703.21 1532.81 1706.86 1533.42 Q1710.51 1534.03 1713.58 1535.24 Z" fill="#000000" fill-rule="evenodd" fill-opacity="1" /><polyline clip-path="url(#clip512)" style="stroke:#000000; stroke-linecap:round; stroke-linejoin:round; stroke-width:2; stroke-opacity:0.1; fill:none" points="
  199.053,1289.65 2352.76,1289.65 
  "/>
<polyline clip-path="url(#clip512)" style="stroke:#000000; stroke-linecap:round; stroke-linejoin:round; stroke-width:2; stroke-opacity:0.1; fill:none" points="
  199.053,880.704 2352.76,880.704 
  "/>
<polyline clip-path="url(#clip512)" style="stroke:#000000; stroke-linecap:round; stroke-linejoin:round; stroke-width:2; stroke-opacity:0.1; fill:none" points="
  199.053,471.756 2352.76,471.756 
  "/>
<polyline clip-path="url(#clip512)" style="stroke:#000000; stroke-linecap:round; stroke-linejoin:round; stroke-width:2; stroke-opacity:0.1; fill:none" points="
  199.053,62.8072 2352.76,62.8072 
  "/>
<polyline clip-path="url(#clip510)" style="stroke:#000000; stroke-linecap:round; stroke-linejoin:round; stroke-width:4; stroke-opacity:1; fill:none" points="
  199.053,1392.94 199.053,47.2441 
  "/>
<polyline clip-path="url(#clip510)" style="stroke:#000000; stroke-linecap:round; stroke-linejoin:round; stroke-width:4; stroke-opacity:1; fill:none" points="
  199.053,1289.65 217.951,1289.65 
  "/>
<polyline clip-path="url(#clip510)" style="stroke:#000000; stroke-linecap:round; stroke-linejoin:round; stroke-width:4; stroke-opacity:1; fill:none" points="
  199.053,880.704 217.951,880.704 
  "/>
<polyline clip-path="url(#clip510)" style="stroke:#000000; stroke-linecap:round; stroke-linejoin:round; stroke-width:4; stroke-opacity:1; fill:none" points="
  199.053,471.756 217.951,471.756 
  "/>
<polyline clip-path="url(#clip510)" style="stroke:#000000; stroke-linecap:round; stroke-linejoin:round; stroke-width:4; stroke-opacity:1; fill:none" points="
  199.053,62.8072 217.951,62.8072 
  "/>
<path clip-path="url(#clip510)" d="M145.137 1268.35 Q139.72 1268.35 136.977 1273.7 Q134.269 1279.01 134.269 1289.7 Q134.269 1300.36 136.977 1305.71 Q139.72 1311.02 145.137 1311.02 Q150.588 1311.02 153.296 1305.71 Q156.039 1300.36 156.039 1289.7 Q156.039 1279.01 153.296 1273.7 Q150.588 1268.35 145.137 1268.35 M145.137 1262.79 Q153.852 1262.79 158.435 1269.7 Q163.053 1276.58 163.053 1289.7 Q163.053 1302.79 158.435 1309.7 Q153.852 1316.58 145.137 1316.58 Q136.421 1316.58 131.803 1309.7 Q127.22 1302.79 127.22 1289.7 Q127.22 1276.58 131.803 1269.7 Q136.421 1262.79 145.137 1262.79 Z" fill="#000000" fill-rule="evenodd" fill-opacity="1" /><path clip-path="url(#clip510)" d="M133.192 900.721 L144.651 900.721 L144.651 861.173 L132.185 863.673 L132.185 857.284 L144.581 854.784 L151.595 854.784 L151.595 900.721 L163.053 900.721 L163.053 906.624 L133.192 906.624 L133.192 900.721 Z" fill="#000000" fill-rule="evenodd" fill-opacity="1" /><path clip-path="url(#clip510)" d="M138.574 491.773 L163.053 491.773 L163.053 497.676 L130.137 497.676 L130.137 491.773 Q134.13 487.641 141.005 480.696 Q147.914 473.717 149.685 471.703 Q153.053 467.919 154.373 465.315 Q155.727 462.676 155.727 460.141 Q155.727 456.009 152.81 453.405 Q149.928 450.801 145.276 450.801 Q141.977 450.801 138.296 451.947 Q134.651 453.092 130.484 455.419 L130.484 448.336 Q134.72 446.634 138.401 445.766 Q142.081 444.898 145.137 444.898 Q153.192 444.898 157.984 448.926 Q162.776 452.954 162.776 459.69 Q162.776 462.884 161.56 465.766 Q160.38 468.613 157.22 472.502 Q156.352 473.509 151.699 478.335 Q147.046 483.127 138.574 491.773 Z" fill="#000000" fill-rule="evenodd" fill-opacity="1" /><path clip-path="url(#clip510)" d="M152.359 60.776 Q157.394 61.8524 160.206 65.2551 Q163.053 68.6579 163.053 73.6579 Q163.053 81.3314 157.776 85.5328 Q152.498 89.7342 142.776 89.7342 Q139.512 89.7342 136.04 89.0744 Q132.602 88.4494 128.922 87.1647 L128.922 80.3939 Q131.838 82.0953 135.31 82.9634 Q138.783 83.8314 142.567 83.8314 Q149.164 83.8314 152.602 81.2273 Q156.074 78.6231 156.074 73.6579 Q156.074 69.0746 152.845 66.5051 Q149.651 63.901 143.921 63.901 L137.88 63.901 L137.88 58.1371 L144.199 58.1371 Q149.373 58.1371 152.116 56.0885 Q154.859 54.0052 154.859 50.1163 Q154.859 46.1233 152.012 44.0052 Q149.199 41.8525 143.921 41.8525 Q141.04 41.8525 137.741 42.4775 Q134.442 43.1025 130.484 44.4219 L130.484 38.1719 Q134.477 37.0608 137.949 36.5053 Q141.456 35.9497 144.546 35.9497 Q152.533 35.9497 157.185 39.5955 Q161.838 43.2066 161.838 49.3872 Q161.838 53.6927 159.373 56.6788 Q156.907 59.6302 152.359 60.776 Z" fill="#000000" fill-rule="evenodd" fill-opacity="1" /><path clip-path="url(#clip510)" d="M12.5962 1117.08 L12.5962 1078.84 L19.4827 1078.84 L19.4827 1108.9 L37.3877 1108.9 L37.3877 1080.1 L44.2742 1080.1 L44.2742 1108.9 L66.1896 1108.9 L66.1896 1078.11 L73.0762 1078.11 L73.0762 1117.08 L12.5962 1117.08 Z" fill="#000000" fill-rule="evenodd" fill-opacity="1" /><path clip-path="url(#clip510)" d="M36.4155 1029.66 Q31.3924 1026.87 29.0023 1022.98 Q26.6123 1019.09 26.6123 1013.82 Q26.6123 1006.73 31.5949 1002.89 Q36.537 999.037 45.692 999.037 L73.0762 999.037 L73.0762 1006.53 L45.9351 1006.53 Q39.4131 1006.53 36.2534 1008.84 Q33.0937 1011.15 33.0937 1015.89 Q33.0937 1021.68 36.9421 1025.04 Q40.7905 1028.41 47.4339 1028.41 L73.0762 1028.41 L73.0762 1035.9 L45.9351 1035.9 Q39.3726 1035.9 36.2534 1038.21 Q33.0937 1040.52 33.0937 1045.34 Q33.0937 1051.05 36.9826 1054.41 Q40.831 1057.78 47.4339 1057.78 L73.0762 1057.78 L73.0762 1065.27 L27.706 1065.27 L27.706 1057.78 L34.7546 1057.78 Q30.5822 1055.22 28.5972 1051.66 Q26.6123 1048.09 26.6123 1043.19 Q26.6123 1038.25 29.1238 1034.81 Q31.6354 1031.32 36.4155 1029.66 Z" fill="#000000" fill-rule="evenodd" fill-opacity="1" /><path clip-path="url(#clip510)" d="M66.2706 976.96 L90.333 976.96 L90.333 984.454 L27.706 984.454 L27.706 976.96 L34.5926 976.96 Q30.5417 974.61 28.5972 971.045 Q26.6123 967.44 26.6123 962.458 Q26.6123 954.194 33.1748 949.049 Q39.7372 943.864 50.4316 943.864 Q61.126 943.864 67.6885 949.049 Q74.2509 954.194 74.2509 962.458 Q74.2509 967.44 72.3065 971.045 Q70.3215 974.61 66.2706 976.96 M50.4316 951.601 Q42.2083 951.601 37.5497 955.004 Q32.8507 958.366 32.8507 964.28 Q32.8507 970.195 37.5497 973.598 Q42.2083 976.96 50.4316 976.96 Q58.6549 976.96 63.354 973.598 Q68.0125 970.195 68.0125 964.28 Q68.0125 958.366 63.354 955.004 Q58.6549 951.601 50.4316 951.601 Z" fill="#000000" fill-rule="evenodd" fill-opacity="1" /><path clip-path="url(#clip510)" d="M27.706 931.509 L27.706 924.055 L73.0762 924.055 L73.0762 931.509 L27.706 931.509 M10.0441 931.509 L10.0441 924.055 L19.4827 924.055 L19.4827 931.509 L10.0441 931.509 Z" fill="#000000" fill-rule="evenodd" fill-opacity="1" /><path clip-path="url(#clip510)" d="M34.6736 882.169 Q33.9444 883.424 33.6204 884.923 Q33.2558 886.382 33.2558 888.164 Q33.2558 894.483 37.3877 897.886 Q41.4791 901.248 49.1758 901.248 L73.0762 901.248 L73.0762 908.743 L27.706 908.743 L27.706 901.248 L34.7546 901.248 Q30.6227 898.899 28.6377 895.132 Q26.6123 891.364 26.6123 885.976 Q26.6123 885.207 26.7338 884.275 Q26.8148 883.343 27.0174 882.209 L34.6736 882.169 Z" fill="#000000" fill-rule="evenodd" fill-opacity="1" /><path clip-path="url(#clip510)" d="M27.706 874.35 L27.706 866.897 L73.0762 866.897 L73.0762 874.35 L27.706 874.35 M10.0441 874.35 L10.0441 866.897 L19.4827 866.897 L19.4827 874.35 L10.0441 874.35 Z" fill="#000000" fill-rule="evenodd" fill-opacity="1" /><path clip-path="url(#clip510)" d="M29.4479 818.65 L36.4155 818.65 Q34.6736 821.81 33.8229 825.01 Q32.9317 828.17 32.9317 831.411 Q32.9317 838.662 37.5497 842.672 Q42.1272 846.683 50.4316 846.683 Q58.736 846.683 63.354 842.672 Q67.9315 838.662 67.9315 831.411 Q67.9315 828.17 67.0808 825.01 Q66.1896 821.81 64.4477 818.65 L71.3343 818.65 Q72.7926 821.77 73.5218 825.132 Q74.2509 828.454 74.2509 832.221 Q74.2509 842.47 67.81 848.506 Q61.369 854.541 50.4316 854.541 Q39.3321 854.541 32.9722 848.465 Q26.6123 842.348 26.6123 831.735 Q26.6123 828.292 27.3414 825.01 Q28.0301 821.729 29.4479 818.65 Z" fill="#000000" fill-rule="evenodd" fill-opacity="1" /><path clip-path="url(#clip510)" d="M50.2696 785.068 Q50.2696 794.102 52.3355 797.586 Q54.4015 801.07 59.3841 801.07 Q63.354 801.07 65.7035 798.477 Q68.0125 795.844 68.0125 791.347 Q68.0125 785.149 63.6376 781.423 Q59.2221 777.655 51.9304 777.655 L50.2696 777.655 L50.2696 785.068 M47.1909 770.202 L73.0762 770.202 L73.0762 777.655 L66.1896 777.655 Q70.3215 780.207 72.3065 784.015 Q74.2509 787.823 74.2509 793.332 Q74.2509 800.3 70.3621 804.432 Q66.4327 808.523 59.8702 808.523 Q52.214 808.523 48.3251 803.419 Q44.4363 798.274 44.4363 788.107 L44.4363 777.655 L43.7071 777.655 Q38.5625 777.655 35.7673 781.058 Q32.9317 784.42 32.9317 790.537 Q32.9317 794.426 33.8634 798.112 Q34.7951 801.799 36.6585 805.201 L29.772 805.201 Q28.1921 801.11 27.4225 797.262 Q26.6123 793.413 26.6123 789.768 Q26.6123 779.924 31.7164 775.063 Q36.8206 770.202 47.1909 770.202 Z" fill="#000000" fill-rule="evenodd" fill-opacity="1" /><path clip-path="url(#clip510)" d="M10.0441 754.849 L10.0441 747.395 L73.0762 747.395 L73.0762 754.849 L10.0441 754.849 Z" fill="#000000" fill-rule="evenodd" fill-opacity="1" /><path clip-path="url(#clip510)" d="M18.1459 680.555 Q18.1459 689.467 24.7894 694.733 Q31.4329 699.959 42.8969 699.959 Q54.3205 699.959 60.964 694.733 Q67.6074 689.467 67.6074 680.555 Q67.6074 671.643 60.964 666.458 Q54.3205 661.232 42.8969 661.232 Q31.4329 661.232 24.7894 666.458 Q18.1459 671.643 18.1459 680.555 M71.9824 669.091 L83.7705 658.316 L83.7705 668.2 L74.0889 677.152 Q74.1699 678.489 74.2104 679.218 Q74.2509 679.907 74.2509 680.555 Q74.2509 693.315 65.744 700.972 Q57.1966 708.587 42.8969 708.587 Q28.5567 708.587 20.0498 700.972 Q11.5024 693.315 11.5024 680.555 Q11.5024 667.835 20.0498 660.22 Q28.5567 652.604 42.8969 652.604 Q53.4293 652.604 60.9234 656.857 Q68.4176 661.07 71.9824 669.091 Z" fill="#000000" fill-rule="evenodd" fill-opacity="1" /><path clip-path="url(#clip510)" d="M55.1712 640.897 L27.706 640.897 L27.706 633.443 L54.8876 633.443 Q61.3285 633.443 64.5693 630.932 Q67.7695 628.42 67.7695 623.397 Q67.7695 617.361 63.9211 613.877 Q60.0728 610.353 53.4293 610.353 L27.706 610.353 L27.706 602.899 L73.0762 602.899 L73.0762 610.353 L66.1086 610.353 Q70.2405 613.067 72.266 616.672 Q74.2509 620.237 74.2509 624.977 Q74.2509 632.795 69.3898 636.846 Q64.5287 640.897 55.1712 640.897 M26.6123 622.141 L26.6123 622.141 Z" fill="#000000" fill-rule="evenodd" fill-opacity="1" /><path clip-path="url(#clip510)" d="M50.2696 566.927 Q50.2696 575.961 52.3355 579.445 Q54.4015 582.928 59.3841 582.928 Q63.354 582.928 65.7035 580.336 Q68.0125 577.703 68.0125 573.206 Q68.0125 567.008 63.6376 563.281 Q59.2221 559.514 51.9304 559.514 L50.2696 559.514 L50.2696 566.927 M47.1909 552.06 L73.0762 552.06 L73.0762 559.514 L66.1896 559.514 Q70.3215 562.066 72.3065 565.874 Q74.2509 569.682 74.2509 575.191 Q74.2509 582.159 70.3621 586.291 Q66.4327 590.382 59.8702 590.382 Q52.214 590.382 48.3251 585.278 Q44.4363 580.133 44.4363 569.965 L44.4363 559.514 L43.7071 559.514 Q38.5625 559.514 35.7673 562.917 Q32.9317 566.279 32.9317 572.396 Q32.9317 576.285 33.8634 579.971 Q34.7951 583.658 36.6585 587.06 L29.772 587.06 Q28.1921 582.969 27.4225 579.121 Q26.6123 575.272 26.6123 571.626 Q26.6123 561.783 31.7164 556.922 Q36.8206 552.06 47.1909 552.06 Z" fill="#000000" fill-rule="evenodd" fill-opacity="1" /><path clip-path="url(#clip510)" d="M45.692 498.994 L73.0762 498.994 L73.0762 506.447 L45.9351 506.447 Q39.4942 506.447 36.2939 508.959 Q33.0937 511.47 33.0937 516.494 Q33.0937 522.529 36.9421 526.013 Q40.7905 529.497 47.4339 529.497 L73.0762 529.497 L73.0762 536.991 L27.706 536.991 L27.706 529.497 L34.7546 529.497 Q30.6632 526.823 28.6377 523.218 Q26.6123 519.572 26.6123 514.833 Q26.6123 507.014 31.4734 503.004 Q36.2939 498.994 45.692 498.994 Z" fill="#000000" fill-rule="evenodd" fill-opacity="1" /><path clip-path="url(#clip510)" d="M14.8242 476.754 L27.706 476.754 L27.706 461.401 L33.4988 461.401 L33.4988 476.754 L58.1283 476.754 Q63.6781 476.754 65.2579 475.255 Q66.8378 473.716 66.8378 469.057 L66.8378 461.401 L73.0762 461.401 L73.0762 469.057 Q73.0762 477.686 69.8759 480.967 Q66.6352 484.248 58.1283 484.248 L33.4988 484.248 L33.4988 489.717 L27.706 489.717 L27.706 484.248 L14.8242 484.248 L14.8242 476.754 Z" fill="#000000" fill-rule="evenodd" fill-opacity="1" /><path clip-path="url(#clip510)" d="M27.706 451.598 L27.706 444.144 L73.0762 444.144 L73.0762 451.598 L27.706 451.598 M10.0441 451.598 L10.0441 444.144 L19.4827 444.144 L19.4827 451.598 L10.0441 451.598 Z" fill="#000000" fill-rule="evenodd" fill-opacity="1" /><path clip-path="url(#clip510)" d="M10.0441 428.548 L10.0441 421.095 L73.0762 421.095 L73.0762 428.548 L10.0441 428.548 Z" fill="#000000" fill-rule="evenodd" fill-opacity="1" /><path clip-path="url(#clip510)" d="M48.5277 366.691 L52.1735 366.691 L52.1735 400.962 Q59.8702 400.476 63.9211 396.344 Q67.9315 392.171 67.9315 384.758 Q67.9315 380.464 66.8783 376.454 Q65.825 372.403 63.7186 368.433 L70.7671 368.433 Q72.4685 372.443 73.3597 376.656 Q74.2509 380.869 74.2509 385.204 Q74.2509 396.06 67.9315 402.42 Q61.6121 408.739 50.8367 408.739 Q39.6967 408.739 33.1748 402.744 Q26.6123 396.708 26.6123 386.5 Q26.6123 377.345 32.5266 372.038 Q38.4004 366.691 48.5277 366.691 M46.3402 374.145 Q40.2233 374.226 36.5775 377.588 Q32.9317 380.91 32.9317 386.419 Q32.9317 392.657 36.456 396.425 Q39.9803 400.152 46.3807 400.719 L46.3402 374.145 Z" fill="#000000" fill-rule="evenodd" fill-opacity="1" /><path clip-path="url(#clip510)" d="M29.0428 325.534 L36.0914 325.534 Q34.471 328.694 33.6609 332.096 Q32.8507 335.499 32.8507 339.145 Q32.8507 344.695 34.5521 347.49 Q36.2534 350.244 39.6562 350.244 Q42.2488 350.244 43.7476 348.259 Q45.2059 346.275 46.5427 340.279 L47.1099 337.727 Q48.8112 329.787 51.9304 326.466 Q55.0091 323.103 60.5589 323.103 Q66.8783 323.103 70.5646 328.126 Q74.2509 333.109 74.2509 341.859 Q74.2509 345.505 73.5218 349.475 Q72.8331 353.404 71.4153 357.779 L63.7186 357.779 Q65.8655 353.647 66.9593 349.637 Q68.0125 345.626 68.0125 341.697 Q68.0125 336.431 66.2301 333.595 Q64.4072 330.76 61.126 330.76 Q58.0878 330.76 56.4675 332.826 Q54.8471 334.851 53.3483 341.778 L52.7406 344.371 Q51.2823 351.298 48.2846 354.376 Q45.2464 357.455 39.9803 357.455 Q33.5798 357.455 30.0961 352.918 Q26.6123 348.381 26.6123 340.036 Q26.6123 335.904 27.2199 332.258 Q27.8276 328.613 29.0428 325.534 Z" fill="#000000" fill-rule="evenodd" fill-opacity="1" /><polyline clip-path="url(#clip512)" style="stroke:#6b9e32; stroke-linecap:round; stroke-linejoin:round; stroke-width:4; stroke-opacity:1; fill:none" points="
  260.007,1354.85 2291.8,85.3298 
  "/>
<circle clip-path="url(#clip512)" cx="260.007" cy="1223.15" r="18" fill="#009af9" fill-rule="evenodd" fill-opacity="1" stroke="#000000" stroke-opacity="1" stroke-width="3.2"/>
<circle clip-path="url(#clip512)" cx="535.721" cy="1220.78" r="18" fill="#009af9" fill-rule="evenodd" fill-opacity="1" stroke="#000000" stroke-opacity="1" stroke-width="3.2"/>
<circle clip-path="url(#clip512)" cx="727.034" cy="1077.95" r="18" fill="#009af9" fill-rule="evenodd" fill-opacity="1" stroke="#000000" stroke-opacity="1" stroke-width="3.2"/>
<circle clip-path="url(#clip512)" cx="883.513" cy="1036.47" r="18" fill="#009af9" fill-rule="evenodd" fill-opacity="1" stroke="#000000" stroke-opacity="1" stroke-width="3.2"/>
<circle clip-path="url(#clip512)" cx="1022.07" cy="928.032" r="18" fill="#009af9" fill-rule="evenodd" fill-opacity="1" stroke="#000000" stroke-opacity="1" stroke-width="3.2"/>
<circle clip-path="url(#clip512)" cx="1151.1" cy="821.247" r="18" fill="#009af9" fill-rule="evenodd" fill-opacity="1" stroke="#000000" stroke-opacity="1" stroke-width="3.2"/>
<circle clip-path="url(#clip512)" cx="1275.9" cy="797.058" r="18" fill="#009af9" fill-rule="evenodd" fill-opacity="1" stroke="#000000" stroke-opacity="1" stroke-width="3.2"/>
<circle clip-path="url(#clip512)" cx="1400.71" cy="572.873" r="18" fill="#009af9" fill-rule="evenodd" fill-opacity="1" stroke="#000000" stroke-opacity="1" stroke-width="3.2"/>
<circle clip-path="url(#clip512)" cx="1529.74" cy="447.906" r="18" fill="#009af9" fill-rule="evenodd" fill-opacity="1" stroke="#000000" stroke-opacity="1" stroke-width="3.2"/>
<circle clip-path="url(#clip512)" cx="1668.3" cy="436.994" r="18" fill="#009af9" fill-rule="evenodd" fill-opacity="1" stroke="#000000" stroke-opacity="1" stroke-width="3.2"/>
<circle clip-path="url(#clip512)" cx="1824.78" cy="413.5" r="18" fill="#009af9" fill-rule="evenodd" fill-opacity="1" stroke="#000000" stroke-opacity="1" stroke-width="3.2"/>
<circle clip-path="url(#clip512)" cx="2016.09" cy="352.718" r="18" fill="#009af9" fill-rule="evenodd" fill-opacity="1" stroke="#000000" stroke-opacity="1" stroke-width="3.2"/>
<circle clip-path="url(#clip512)" cx="2291.8" cy="101.492" r="18" fill="#009af9" fill-rule="evenodd" fill-opacity="1" stroke="#000000" stroke-opacity="1" stroke-width="3.2"/>
</svg>
