<?xml version="1.0" encoding="utf-8"?>
<svg xmlns="http://www.w3.org/2000/svg" xmlns:xlink="http://www.w3.org/1999/xlink" width="600" height="400" viewBox="0 0 2400 1600">
<defs>
  <clipPath id="clip350">
    <rect x="0" y="0" width="2400" height="1600"/>
  </clipPath>
</defs>
<path clip-path="url(#clip350)" d="
M0 1600 L2400 1600 L2400 0 L0 0  Z
  " fill="#ffffff" fill-rule="evenodd" fill-opacity="1"/>
<defs>
  <clipPath id="clip351">
    <rect x="480" y="0" width="1681" height="1600"/>
  </clipPath>
</defs>
<path clip-path="url(#clip350)" d="
M254.817 1392.94 L2352.76 1392.94 L2352.76 47.2441 L254.817 47.2441  Z
  " fill="#ffffff" fill-rule="evenodd" fill-opacity="1"/>
<defs>
  <clipPath id="clip352">
    <rect x="254" y="47" width="2099" height="1347"/>
  </clipPath>
</defs>
<polyline clip-path="url(#clip352)" style="stroke:#000000; stroke-linecap:round; stroke-linejoin:round; stroke-width:2; stroke-opacity:0.1; fill:none" points="
  425.303,1392.94 425.303,47.2441 
  "/>
<polyline clip-path="url(#clip352)" style="stroke:#000000; stroke-linecap:round; stroke-linejoin:round; stroke-width:2; stroke-opacity:0.1; fill:none" points="
  897.974,1392.94 897.974,47.2441 
  "/>
<polyline clip-path="url(#clip352)" style="stroke:#000000; stroke-linecap:round; stroke-linejoin:round; stroke-width:2; stroke-opacity:0.1; fill:none" points="
  1370.64,1392.94 1370.64,47.2441 
  "/>
<polyline clip-path="url(#clip352)" style="stroke:#000000; stroke-linecap:round; stroke-linejoin:round; stroke-width:2; stroke-opacity:0.1; fill:none" points="
  1843.31,1392.94 1843.31,47.2441 
  "/>
<polyline clip-path="url(#clip352)" style="stroke:#000000; stroke-linecap:round; stroke-linejoin:round; stroke-width:2; stroke-opacity:0.1; fill:none" points="
  2315.99,1392.94 2315.99,47.2441 
  "/>
<polyline clip-path="url(#clip350)" style="stroke:#000000; stroke-linecap:round; stroke-linejoin:round; stroke-width:4; stroke-opacity:1; fill:none" points="
  254.817,1392.94 2352.76,1392.94 
  "/>
<polyline clip-path="url(#clip350)" style="stroke:#000000; stroke-linecap:round; stroke-linejoin:round; stroke-width:4; stroke-opacity:1; fill:none" points="
  425.303,1392.94 425.303,1374.04 
  "/>
<polyline clip-path="url(#clip350)" style="stroke:#000000; stroke-linecap:round; stroke-linejoin:round; stroke-width:4; stroke-opacity:1; fill:none" points="
  897.974,1392.94 897.974,1374.04 
  "/>
<polyline clip-path="url(#clip350)" style="stroke:#000000; stroke-linecap:round; stroke-linejoin:round; stroke-width:4; stroke-opacity:1; fill:none" points="
  1370.64,1392.94 1370.64,1374.04 
  "/>
<polyline clip-path="url(#clip350)" style="stroke:#000000; stroke-linecap:round; stroke-linejoin:round; stroke-width:4; stroke-opacity:1; fill:none" points="
  1843.31,1392.94 1843.31,1374.04 
  "/>
<polyline clip-path="url(#clip350)" style="stroke:#000000; stroke-linecap:round; stroke-linejoin:round; stroke-width:4; stroke-opacity:1; fill:none" points="
  2315.99,1392.94 2315.99,1374.04 
  "/>
<path clip-path="url(#clip350)" d="M379.505 1451.7 L424.018 1451.7 L424.018 1457.6 L379.505 1457.6 L379.505 1451.7 Z" fill="#000000" fill-rule="evenodd" fill-opacity="1" /><path clip-path="url(#clip350)" d="M460.407 1448.99 Q465.442 1450.06 468.254 1453.47 Q471.102 1456.87 471.102 1461.87 Q471.102 1469.54 465.824 1473.75 Q460.546 1477.95 450.824 1477.95 Q447.56 1477.95 444.088 1477.29 Q440.65 1476.66 436.97 1475.38 L436.97 1468.61 Q439.886 1470.31 443.359 1471.18 Q446.831 1472.04 450.616 1472.04 Q457.213 1472.04 460.65 1469.44 Q464.122 1466.84 464.122 1461.87 Q464.122 1457.29 460.893 1454.72 Q457.699 1452.11 451.97 1452.11 L445.928 1452.11 L445.928 1446.35 L452.247 1446.35 Q457.421 1446.35 460.164 1444.3 Q462.907 1442.22 462.907 1438.33 Q462.907 1434.34 460.06 1432.22 Q457.247 1430.07 451.97 1430.07 Q449.088 1430.07 445.789 1430.69 Q442.491 1431.32 438.532 1432.63 L438.532 1426.38 Q442.525 1425.27 445.998 1424.72 Q449.504 1424.16 452.595 1424.16 Q460.581 1424.16 465.234 1427.81 Q469.886 1431.42 469.886 1437.6 Q469.886 1441.91 467.421 1444.89 Q464.956 1447.84 460.407 1448.99 Z" fill="#000000" fill-rule="evenodd" fill-opacity="1" /><path clip-path="url(#clip350)" d="M852.887 1451.7 L897.401 1451.7 L897.401 1457.6 L852.887 1457.6 L852.887 1451.7 Z" fill="#000000" fill-rule="evenodd" fill-opacity="1" /><path clip-path="url(#clip350)" d="M918.581 1471.04 L943.06 1471.04 L943.06 1476.94 L910.144 1476.94 L910.144 1471.04 Q914.137 1466.91 921.012 1459.96 Q927.921 1452.98 929.692 1450.97 Q933.06 1447.18 934.38 1444.58 Q935.734 1441.94 935.734 1439.41 Q935.734 1435.27 932.817 1432.67 Q929.935 1430.07 925.283 1430.07 Q921.984 1430.07 918.303 1431.21 Q914.658 1432.36 910.491 1434.68 L910.491 1427.6 Q914.727 1425.9 918.408 1425.03 Q922.088 1424.16 925.144 1424.16 Q933.199 1424.16 937.991 1428.19 Q942.782 1432.22 942.782 1438.95 Q942.782 1442.15 941.567 1445.03 Q940.387 1447.88 937.227 1451.77 Q936.359 1452.77 931.706 1457.6 Q927.053 1462.39 918.581 1471.04 Z" fill="#000000" fill-rule="evenodd" fill-opacity="1" /><path clip-path="url(#clip350)" d="M1325.28 1451.7 L1369.79 1451.7 L1369.79 1457.6 L1325.28 1457.6 L1325.28 1451.7 Z" fill="#000000" fill-rule="evenodd" fill-opacity="1" /><path clip-path="url(#clip350)" d="M1386.15 1471.04 L1397.61 1471.04 L1397.61 1431.49 L1385.14 1433.99 L1385.14 1427.6 L1397.54 1425.1 L1404.55 1425.1 L1404.55 1471.04 L1416.01 1471.04 L1416.01 1476.94 L1386.15 1476.94 L1386.15 1471.04 Z" fill="#000000" fill-rule="evenodd" fill-opacity="1" /><path clip-path="url(#clip350)" d="M1843.31 1429.72 Q1837.9 1429.72 1835.15 1435.07 Q1832.45 1440.38 1832.45 1451.07 Q1832.45 1461.73 1835.15 1467.08 Q1837.9 1472.39 1843.31 1472.39 Q1848.77 1472.39 1851.47 1467.08 Q1854.22 1461.73 1854.22 1451.07 Q1854.22 1440.38 1851.47 1435.07 Q1848.77 1429.72 1843.31 1429.72 M1843.31 1424.16 Q1852.03 1424.16 1856.61 1431.07 Q1861.23 1437.95 1861.23 1451.07 Q1861.23 1464.16 1856.61 1471.07 Q1852.03 1477.95 1843.31 1477.95 Q1834.6 1477.95 1829.98 1471.07 Q1825.4 1464.16 1825.4 1451.07 Q1825.4 1437.95 1829.98 1431.07 Q1834.6 1424.16 1843.31 1424.16 Z" fill="#000000" fill-rule="evenodd" fill-opacity="1" /><path clip-path="url(#clip350)" d="M2301.56 1471.04 L2313.02 1471.04 L2313.02 1431.49 L2300.55 1433.99 L2300.55 1427.6 L2312.95 1425.1 L2319.96 1425.1 L2319.96 1471.04 L2331.42 1471.04 L2331.42 1476.94 L2301.56 1476.94 L2301.56 1471.04 Z" fill="#000000" fill-rule="evenodd" fill-opacity="1" /><path clip-path="url(#clip350)" d="M863.676 1518.8 L914.839 1518.8 L914.839 1525.68 L893.369 1525.68 L893.369 1579.28 L885.146 1579.28 L885.146 1525.68 L863.676 1525.68 L863.676 1518.8 Z" fill="#000000" fill-rule="evenodd" fill-opacity="1" /><path clip-path="url(#clip350)" d="M960.128 1551.89 L960.128 1579.28 L952.674 1579.28 L952.674 1552.13 Q952.674 1545.69 950.163 1542.49 Q947.651 1539.29 942.628 1539.29 Q936.592 1539.29 933.108 1543.14 Q929.625 1546.99 929.625 1553.63 L929.625 1579.28 L922.13 1579.28 L922.13 1516.24 L929.625 1516.24 L929.625 1540.95 Q932.298 1536.86 935.904 1534.84 Q939.549 1532.81 944.289 1532.81 Q952.107 1532.81 956.118 1537.67 Q960.128 1542.49 960.128 1551.89 Z" fill="#000000" fill-rule="evenodd" fill-opacity="1" /><path clip-path="url(#clip350)" d="M1013.8 1554.73 L1013.8 1558.37 L979.532 1558.37 Q980.018 1566.07 984.15 1570.12 Q988.322 1574.13 995.735 1574.13 Q1000.03 1574.13 1004.04 1573.08 Q1008.09 1572.02 1012.06 1569.92 L1012.06 1576.97 Q1008.05 1578.67 1003.84 1579.56 Q999.624 1580.45 995.29 1580.45 Q984.433 1580.45 978.073 1574.13 Q971.754 1567.81 971.754 1557.04 Q971.754 1545.9 977.749 1539.37 Q983.785 1532.81 993.993 1532.81 Q1003.15 1532.81 1008.46 1538.73 Q1013.8 1544.6 1013.8 1554.73 M1006.35 1552.54 Q1006.27 1546.42 1002.91 1542.78 Q999.584 1539.13 994.075 1539.13 Q987.836 1539.13 984.069 1542.66 Q980.342 1546.18 979.775 1552.58 L1006.35 1552.54 Z" fill="#000000" fill-rule="evenodd" fill-opacity="1" /><path clip-path="url(#clip350)" d="M1043.62 1539.13 Q1037.62 1539.13 1034.14 1543.83 Q1030.65 1548.49 1030.65 1556.63 Q1030.65 1564.77 1034.1 1569.47 Q1037.58 1574.13 1043.62 1574.13 Q1049.57 1574.13 1053.06 1569.43 Q1056.54 1564.73 1056.54 1556.63 Q1056.54 1548.57 1053.06 1543.87 Q1049.57 1539.13 1043.62 1539.13 M1043.62 1532.81 Q1053.34 1532.81 1058.89 1539.13 Q1064.44 1545.45 1064.44 1556.63 Q1064.44 1567.77 1058.89 1574.13 Q1053.34 1580.45 1043.62 1580.45 Q1033.85 1580.45 1028.3 1574.13 Q1022.8 1567.77 1022.8 1556.63 Q1022.8 1545.45 1028.3 1539.13 Q1033.85 1532.81 1043.62 1532.81 Z" fill="#000000" fill-rule="evenodd" fill-opacity="1" /><path clip-path="url(#clip350)" d="M1103.08 1540.87 Q1101.83 1540.14 1100.33 1539.82 Q1098.87 1539.46 1097.09 1539.46 Q1090.77 1539.46 1087.37 1543.59 Q1084 1547.68 1084 1555.38 L1084 1579.28 L1076.51 1579.28 L1076.51 1533.91 L1084 1533.91 L1084 1540.95 Q1086.35 1536.82 1090.12 1534.84 Q1093.89 1532.81 1099.28 1532.81 Q1100.05 1532.81 1100.98 1532.93 Q1101.91 1533.01 1103.04 1533.22 L1103.08 1540.87 Z" fill="#000000" fill-rule="evenodd" fill-opacity="1" /><path clip-path="url(#clip350)" d="M1147.89 1554.73 L1147.89 1558.37 L1113.62 1558.37 Q1114.1 1566.07 1118.23 1570.12 Q1122.41 1574.13 1129.82 1574.13 Q1134.11 1574.13 1138.12 1573.08 Q1142.18 1572.02 1146.15 1569.92 L1146.15 1576.97 Q1142.14 1578.67 1137.92 1579.56 Q1133.71 1580.45 1129.37 1580.45 Q1118.52 1580.45 1112.16 1574.13 Q1105.84 1567.81 1105.84 1557.04 Q1105.84 1545.9 1111.83 1539.37 Q1117.87 1532.81 1128.08 1532.81 Q1137.23 1532.81 1142.54 1538.73 Q1147.89 1544.6 1147.89 1554.73 M1140.43 1552.54 Q1140.35 1546.42 1136.99 1542.78 Q1133.67 1539.13 1128.16 1539.13 Q1121.92 1539.13 1118.15 1542.66 Q1114.43 1546.18 1113.86 1552.58 L1140.43 1552.54 Z" fill="#000000" fill-rule="evenodd" fill-opacity="1" /><path clip-path="url(#clip350)" d="M1167.49 1521.02 L1167.49 1533.91 L1182.85 1533.91 L1182.85 1539.7 L1167.49 1539.7 L1167.49 1564.33 Q1167.49 1569.88 1168.99 1571.46 Q1170.53 1573.04 1175.19 1573.04 L1182.85 1573.04 L1182.85 1579.28 L1175.19 1579.28 Q1166.56 1579.28 1163.28 1576.08 Q1160 1572.83 1160 1564.33 L1160 1539.7 L1154.53 1539.7 L1154.53 1533.91 L1160 1533.91 L1160 1521.02 L1167.49 1521.02 Z" fill="#000000" fill-rule="evenodd" fill-opacity="1" /><path clip-path="url(#clip350)" d="M1192.65 1533.91 L1200.1 1533.91 L1200.1 1579.28 L1192.65 1579.28 L1192.65 1533.91 M1192.65 1516.24 L1200.1 1516.24 L1200.1 1525.68 L1192.65 1525.68 L1192.65 1516.24 Z" fill="#000000" fill-rule="evenodd" fill-opacity="1" /><path clip-path="url(#clip350)" d="M1248.35 1535.65 L1248.35 1542.62 Q1245.19 1540.87 1241.99 1540.02 Q1238.83 1539.13 1235.59 1539.13 Q1228.34 1539.13 1224.33 1543.75 Q1220.32 1548.33 1220.32 1556.63 Q1220.32 1564.94 1224.33 1569.55 Q1228.34 1574.13 1235.59 1574.13 Q1238.83 1574.13 1241.99 1573.28 Q1245.19 1572.39 1248.35 1570.65 L1248.35 1577.53 Q1245.23 1578.99 1241.87 1579.72 Q1238.55 1580.45 1234.78 1580.45 Q1224.53 1580.45 1218.49 1574.01 Q1212.46 1567.57 1212.46 1556.63 Q1212.46 1545.53 1218.54 1539.17 Q1224.65 1532.81 1235.27 1532.81 Q1238.71 1532.81 1241.99 1533.54 Q1245.27 1534.23 1248.35 1535.65 Z" fill="#000000" fill-rule="evenodd" fill-opacity="1" /><path clip-path="url(#clip350)" d="M1281.93 1556.47 Q1272.9 1556.47 1269.41 1558.54 Q1265.93 1560.6 1265.93 1565.58 Q1265.93 1569.55 1268.52 1571.9 Q1271.16 1574.21 1275.65 1574.21 Q1281.85 1574.21 1285.58 1569.84 Q1289.34 1565.42 1289.34 1558.13 L1289.34 1556.47 L1281.93 1556.47 M1296.8 1553.39 L1296.8 1579.28 L1289.34 1579.28 L1289.34 1572.39 Q1286.79 1576.52 1282.99 1578.51 Q1279.18 1580.45 1273.67 1580.45 Q1266.7 1580.45 1262.57 1576.56 Q1258.48 1572.63 1258.48 1566.07 Q1258.48 1558.41 1263.58 1554.52 Q1268.73 1550.64 1278.89 1550.64 L1289.34 1550.64 L1289.34 1549.91 Q1289.34 1544.76 1285.94 1541.97 Q1282.58 1539.13 1276.46 1539.13 Q1272.57 1539.13 1268.89 1540.06 Q1265.2 1540.99 1261.8 1542.86 L1261.8 1535.97 Q1265.89 1534.39 1269.74 1533.62 Q1273.59 1532.81 1277.23 1532.81 Q1287.08 1532.81 1291.94 1537.92 Q1296.8 1543.02 1296.8 1553.39 Z" fill="#000000" fill-rule="evenodd" fill-opacity="1" /><path clip-path="url(#clip350)" d="M1312.15 1516.24 L1319.61 1516.24 L1319.61 1579.28 L1312.15 1579.28 L1312.15 1516.24 Z" fill="#000000" fill-rule="evenodd" fill-opacity="1" /><path clip-path="url(#clip350)" d="M1386.45 1524.35 Q1377.53 1524.35 1372.27 1530.99 Q1367.04 1537.63 1367.04 1549.1 Q1367.04 1560.52 1372.27 1567.16 Q1377.53 1573.81 1386.45 1573.81 Q1395.36 1573.81 1400.54 1567.16 Q1405.77 1560.52 1405.77 1549.1 Q1405.77 1537.63 1400.54 1530.99 Q1395.36 1524.35 1386.45 1524.35 M1397.91 1578.18 L1408.68 1589.97 L1398.8 1589.97 L1389.85 1580.29 Q1388.51 1580.37 1387.78 1580.41 Q1387.09 1580.45 1386.45 1580.45 Q1373.68 1580.45 1366.03 1571.94 Q1358.41 1563.4 1358.41 1549.1 Q1358.41 1534.76 1366.03 1526.25 Q1373.68 1517.7 1386.45 1517.7 Q1399.16 1517.7 1406.78 1526.25 Q1414.4 1534.76 1414.4 1549.1 Q1414.4 1559.63 1410.14 1567.12 Q1405.93 1574.62 1397.91 1578.18 Z" fill="#000000" fill-rule="evenodd" fill-opacity="1" /><path clip-path="url(#clip350)" d="M1426.1 1561.37 L1426.1 1533.91 L1433.56 1533.91 L1433.56 1561.09 Q1433.56 1567.53 1436.07 1570.77 Q1438.58 1573.97 1443.6 1573.97 Q1449.64 1573.97 1453.12 1570.12 Q1456.65 1566.27 1456.65 1559.63 L1456.65 1533.91 L1464.1 1533.91 L1464.1 1579.28 L1456.65 1579.28 L1456.65 1572.31 Q1453.93 1576.44 1450.33 1578.47 Q1446.76 1580.45 1442.02 1580.45 Q1434.21 1580.45 1430.15 1575.59 Q1426.1 1570.73 1426.1 1561.37 M1444.86 1532.81 L1444.86 1532.81 Z" fill="#000000" fill-rule="evenodd" fill-opacity="1" /><path clip-path="url(#clip350)" d="M1500.07 1556.47 Q1491.04 1556.47 1487.56 1558.54 Q1484.07 1560.6 1484.07 1565.58 Q1484.07 1569.55 1486.66 1571.9 Q1489.3 1574.21 1493.79 1574.21 Q1499.99 1574.21 1503.72 1569.84 Q1507.49 1565.42 1507.49 1558.13 L1507.49 1556.47 L1500.07 1556.47 M1514.94 1553.39 L1514.94 1579.28 L1507.49 1579.28 L1507.49 1572.39 Q1504.93 1576.52 1501.13 1578.51 Q1497.32 1580.45 1491.81 1580.45 Q1484.84 1580.45 1480.71 1576.56 Q1476.62 1572.63 1476.62 1566.07 Q1476.62 1558.41 1481.72 1554.52 Q1486.87 1550.64 1497.03 1550.64 L1507.49 1550.64 L1507.49 1549.91 Q1507.49 1544.76 1504.08 1541.97 Q1500.72 1539.13 1494.6 1539.13 Q1490.72 1539.13 1487.03 1540.06 Q1483.34 1540.99 1479.94 1542.86 L1479.94 1535.97 Q1484.03 1534.39 1487.88 1533.62 Q1491.73 1532.81 1495.37 1532.81 Q1505.22 1532.81 1510.08 1537.92 Q1514.94 1543.02 1514.94 1553.39 Z" fill="#000000" fill-rule="evenodd" fill-opacity="1" /><path clip-path="url(#clip350)" d="M1568.01 1551.89 L1568.01 1579.28 L1560.55 1579.28 L1560.55 1552.13 Q1560.55 1545.69 1558.04 1542.49 Q1555.53 1539.29 1550.51 1539.29 Q1544.47 1539.29 1540.99 1543.14 Q1537.5 1546.99 1537.5 1553.63 L1537.5 1579.28 L1530.01 1579.28 L1530.01 1533.91 L1537.5 1533.91 L1537.5 1540.95 Q1540.18 1536.86 1543.78 1534.84 Q1547.43 1532.81 1552.17 1532.81 Q1559.99 1532.81 1564 1537.67 Q1568.01 1542.49 1568.01 1551.89 Z" fill="#000000" fill-rule="evenodd" fill-opacity="1" /><path clip-path="url(#clip350)" d="M1590.25 1521.02 L1590.25 1533.91 L1605.6 1533.91 L1605.6 1539.7 L1590.25 1539.7 L1590.25 1564.33 Q1590.25 1569.88 1591.74 1571.46 Q1593.28 1573.04 1597.94 1573.04 L1605.6 1573.04 L1605.6 1579.28 L1597.94 1579.28 Q1589.31 1579.28 1586.03 1576.08 Q1582.75 1572.83 1582.75 1564.33 L1582.75 1539.7 L1577.28 1539.7 L1577.28 1533.91 L1582.75 1533.91 L1582.75 1521.02 L1590.25 1521.02 Z" fill="#000000" fill-rule="evenodd" fill-opacity="1" /><path clip-path="url(#clip350)" d="M1615.4 1533.91 L1622.86 1533.91 L1622.86 1579.28 L1615.4 1579.28 L1615.4 1533.91 M1615.4 1516.24 L1622.86 1516.24 L1622.86 1525.68 L1615.4 1525.68 L1615.4 1516.24 Z" fill="#000000" fill-rule="evenodd" fill-opacity="1" /><path clip-path="url(#clip350)" d="M1638.45 1516.24 L1645.91 1516.24 L1645.91 1579.28 L1638.45 1579.28 L1638.45 1516.24 Z" fill="#000000" fill-rule="evenodd" fill-opacity="1" /><path clip-path="url(#clip350)" d="M1700.31 1554.73 L1700.31 1558.37 L1666.04 1558.37 Q1666.52 1566.07 1670.66 1570.12 Q1674.83 1574.13 1682.24 1574.13 Q1686.54 1574.13 1690.55 1573.08 Q1694.6 1572.02 1698.57 1569.92 L1698.57 1576.97 Q1694.56 1578.67 1690.34 1579.56 Q1686.13 1580.45 1681.8 1580.45 Q1670.94 1580.45 1664.58 1574.13 Q1658.26 1567.81 1658.26 1557.04 Q1658.26 1545.9 1664.26 1539.37 Q1670.29 1532.81 1680.5 1532.81 Q1689.66 1532.81 1694.96 1538.73 Q1700.31 1544.6 1700.31 1554.73 M1692.86 1552.54 Q1692.77 1546.42 1689.41 1542.78 Q1686.09 1539.13 1680.58 1539.13 Q1674.34 1539.13 1670.58 1542.66 Q1666.85 1546.18 1666.28 1552.58 L1692.86 1552.54 Z" fill="#000000" fill-rule="evenodd" fill-opacity="1" /><path clip-path="url(#clip350)" d="M1741.47 1535.24 L1741.47 1542.29 Q1738.31 1540.67 1734.9 1539.86 Q1731.5 1539.05 1727.86 1539.05 Q1722.31 1539.05 1719.51 1540.75 Q1716.76 1542.45 1716.76 1545.86 Q1716.76 1548.45 1718.74 1549.95 Q1720.73 1551.41 1726.72 1552.74 L1729.27 1553.31 Q1737.21 1555.01 1740.53 1558.13 Q1743.9 1561.21 1743.9 1566.76 Q1743.9 1573.08 1738.87 1576.76 Q1733.89 1580.45 1725.14 1580.45 Q1721.5 1580.45 1717.53 1579.72 Q1713.6 1579.03 1709.22 1577.61 L1709.22 1569.92 Q1713.35 1572.07 1717.36 1573.16 Q1721.37 1574.21 1725.3 1574.21 Q1730.57 1574.21 1733.41 1572.43 Q1736.24 1570.61 1736.24 1567.33 Q1736.24 1564.29 1734.17 1562.67 Q1732.15 1561.05 1725.22 1559.55 L1722.63 1558.94 Q1715.7 1557.48 1712.62 1554.48 Q1709.55 1551.45 1709.55 1546.18 Q1709.55 1539.78 1714.08 1536.3 Q1718.62 1532.81 1726.96 1532.81 Q1731.1 1532.81 1734.74 1533.42 Q1738.39 1534.03 1741.47 1535.24 Z" fill="#000000" fill-rule="evenodd" fill-opacity="1" /><polyline clip-path="url(#clip352)" style="stroke:#000000; stroke-linecap:round; stroke-linejoin:round; stroke-width:2; stroke-opacity:0.1; fill:none" points="
  254.817,1173.37 2352.76,1173.37 
  "/>
<polyline clip-path="url(#clip352)" style="stroke:#000000; stroke-linecap:round; stroke-linejoin:round; stroke-width:2; stroke-opacity:0.1; fill:none" points="
  254.817,898.066 2352.76,898.066 
  "/>
<polyline clip-path="url(#clip352)" style="stroke:#000000; stroke-linecap:round; stroke-linejoin:round; stroke-width:2; stroke-opacity:0.1; fill:none" points="
  254.817,622.766 2352.76,622.766 
  "/>
<polyline clip-path="url(#clip352)" style="stroke:#000000; stroke-linecap:round; stroke-linejoin:round; stroke-width:2; stroke-opacity:0.1; fill:none" points="
  254.817,347.465 2352.76,347.465 
  "/>
<polyline clip-path="url(#clip352)" style="stroke:#000000; stroke-linecap:round; stroke-linejoin:round; stroke-width:2; stroke-opacity:0.1; fill:none" points="
  254.817,72.1639 2352.76,72.1639 
  "/>
<polyline clip-path="url(#clip350)" style="stroke:#000000; stroke-linecap:round; stroke-linejoin:round; stroke-width:4; stroke-opacity:1; fill:none" points="
  254.817,1392.94 254.817,47.2441 
  "/>
<polyline clip-path="url(#clip350)" style="stroke:#000000; stroke-linecap:round; stroke-linejoin:round; stroke-width:4; stroke-opacity:1; fill:none" points="
  254.817,1173.37 273.715,1173.37 
  "/>
<polyline clip-path="url(#clip350)" style="stroke:#000000; stroke-linecap:round; stroke-linejoin:round; stroke-width:4; stroke-opacity:1; fill:none" points="
  254.817,898.066 273.715,898.066 
  "/>
<polyline clip-path="url(#clip350)" style="stroke:#000000; stroke-linecap:round; stroke-linejoin:round; stroke-width:4; stroke-opacity:1; fill:none" points="
  254.817,622.766 273.715,622.766 
  "/>
<polyline clip-path="url(#clip350)" style="stroke:#000000; stroke-linecap:round; stroke-linejoin:round; stroke-width:4; stroke-opacity:1; fill:none" points="
  254.817,347.465 273.715,347.465 
  "/>
<polyline clip-path="url(#clip350)" style="stroke:#000000; stroke-linecap:round; stroke-linejoin:round; stroke-width:4; stroke-opacity:1; fill:none" points="
  254.817,72.1639 273.715,72.1639 
  "/>
<path clip-path="url(#clip350)" d="M127.22 1174.04 L171.734 1174.04 L171.734 1179.95 L127.22 1179.95 L127.22 1174.04 Z" fill="#000000" fill-rule="evenodd" fill-opacity="1" /><path clip-path="url(#clip350)" d="M208.123 1171.34 Q213.157 1172.41 215.97 1175.82 Q218.817 1179.22 218.817 1184.22 Q218.817 1191.89 213.539 1196.09 Q208.261 1200.29 198.539 1200.29 Q195.275 1200.29 191.803 1199.63 Q188.366 1199.01 184.685 1197.72 L184.685 1190.95 Q187.602 1192.66 191.074 1193.52 Q194.546 1194.39 198.331 1194.39 Q204.928 1194.39 208.366 1191.79 Q211.838 1189.18 211.838 1184.22 Q211.838 1179.63 208.609 1177.07 Q205.414 1174.46 199.685 1174.46 L193.643 1174.46 L193.643 1168.7 L199.963 1168.7 Q205.136 1168.7 207.879 1166.65 Q210.622 1164.57 210.622 1160.68 Q210.622 1156.68 207.775 1154.57 Q204.963 1152.41 199.685 1152.41 Q196.803 1152.41 193.505 1153.04 Q190.206 1153.66 186.248 1154.98 L186.248 1148.73 Q190.241 1147.62 193.713 1147.07 Q197.22 1146.51 200.31 1146.51 Q208.296 1146.51 212.949 1150.16 Q217.602 1153.77 217.602 1159.95 Q217.602 1164.25 215.136 1167.24 Q212.671 1170.19 208.123 1171.34 Z" fill="#000000" fill-rule="evenodd" fill-opacity="1" /><path clip-path="url(#clip350)" d="M128.644 898.744 L173.157 898.744 L173.157 904.646 L128.644 904.646 L128.644 898.744 Z" fill="#000000" fill-rule="evenodd" fill-opacity="1" /><path clip-path="url(#clip350)" d="M194.338 918.084 L218.817 918.084 L218.817 923.986 L185.9 923.986 L185.9 918.084 Q189.893 913.952 196.768 907.007 Q203.678 900.028 205.449 898.014 Q208.817 894.23 210.136 891.625 Q211.491 888.987 211.491 886.452 Q211.491 882.32 208.574 879.716 Q205.692 877.112 201.039 877.112 Q197.741 877.112 194.06 878.258 Q190.414 879.403 186.248 881.73 L186.248 874.646 Q190.484 872.945 194.164 872.077 Q197.845 871.209 200.9 871.209 Q208.956 871.209 213.747 875.237 Q218.539 879.264 218.539 886.001 Q218.539 889.195 217.324 892.077 Q216.143 894.924 212.984 898.813 Q212.116 899.82 207.463 904.646 Q202.81 909.438 194.338 918.084 Z" fill="#000000" fill-rule="evenodd" fill-opacity="1" /><path clip-path="url(#clip350)" d="M128.088 623.443 L172.602 623.443 L172.602 629.345 L128.088 629.345 L128.088 623.443 Z" fill="#000000" fill-rule="evenodd" fill-opacity="1" /><path clip-path="url(#clip350)" d="M188.956 642.783 L200.414 642.783 L200.414 603.234 L187.949 605.734 L187.949 599.346 L200.345 596.846 L207.359 596.846 L207.359 642.783 L218.817 642.783 L218.817 648.686 L188.956 648.686 L188.956 642.783 Z" fill="#000000" fill-rule="evenodd" fill-opacity="1" /><path clip-path="url(#clip350)" d="M200.9 326.163 Q195.484 326.163 192.741 331.51 Q190.032 336.822 190.032 347.517 Q190.032 358.177 192.741 363.524 Q195.484 368.836 200.9 368.836 Q206.352 368.836 209.06 363.524 Q211.803 358.177 211.803 347.517 Q211.803 336.822 209.06 331.51 Q206.352 326.163 200.9 326.163 M200.9 320.607 Q209.616 320.607 214.199 327.517 Q218.817 334.392 218.817 347.517 Q218.817 360.607 214.199 367.517 Q209.616 374.392 200.9 374.392 Q192.185 374.392 187.567 367.517 Q182.984 360.607 182.984 347.517 Q182.984 334.392 187.567 327.517 Q192.185 320.607 200.9 320.607 Z" fill="#000000" fill-rule="evenodd" fill-opacity="1" /><path clip-path="url(#clip350)" d="M188.956 92.1812 L200.414 92.1812 L200.414 52.6328 L187.949 55.1328 L187.949 48.7439 L200.345 46.2439 L207.359 46.2439 L207.359 92.1812 L218.817 92.1812 L218.817 98.0839 L188.956 98.0839 L188.956 92.1812 Z" fill="#000000" fill-rule="evenodd" fill-opacity="1" /><path clip-path="url(#clip350)" d="M12.5962 1117.08 L12.5962 1078.84 L19.4827 1078.84 L19.4827 1108.9 L37.3877 1108.9 L37.3877 1080.1 L44.2742 1080.1 L44.2742 1108.9 L66.1896 1108.9 L66.1896 1078.11 L73.0762 1078.11 L73.0762 1117.08 L12.5962 1117.08 Z" fill="#000000" fill-rule="evenodd" fill-opacity="1" /><path clip-path="url(#clip350)" d="M36.4155 1029.66 Q31.3924 1026.87 29.0023 1022.98 Q26.6123 1019.09 26.6123 1013.82 Q26.6123 1006.73 31.5949 1002.89 Q36.537 999.037 45.692 999.037 L73.0762 999.037 L73.0762 1006.53 L45.9351 1006.53 Q39.4131 1006.53 36.2534 1008.84 Q33.0937 1011.15 33.0937 1015.89 Q33.0937 1021.68 36.9421 1025.04 Q40.7905 1028.41 47.4339 1028.41 L73.0762 1028.41 L73.0762 1035.9 L45.9351 1035.9 Q39.3726 1035.9 36.2534 1038.21 Q33.0937 1040.52 33.0937 1045.34 Q33.0937 1051.05 36.9826 1054.41 Q40.831 1057.78 47.4339 1057.78 L73.0762 1057.78 L73.0762 1065.27 L27.706 1065.27 L27.706 1057.78 L34.7546 1057.78 Q30.5822 1055.22 28.5972 1051.66 Q26.6123 1048.09 26.6123 1043.19 Q26.6123 1038.25 29.1238 1034.81 Q31.6354 1031.32 36.4155 1029.66 Z" fill="#000000" fill-rule="evenodd" fill-opacity="1" /><path clip-path="url(#clip350)" d="M66.2706 976.96 L90.333 976.96 L90.333 984.454 L27.706 984.454 L27.706 976.96 L34.5926 976.96 Q30.5417 974.61 28.5972 971.045 Q26.6123 967.44 26.6123 962.458 Q26.6123 954.194 33.1748 949.049 Q39.7372 943.864 50.4316 943.864 Q61.126 943.864 67.6885 949.049 Q74.2509 954.194 74.2509 962.458 Q74.2509 967.44 72.3065 971.045 Q70.3215 974.61 66.2706 976.96 M50.4316 951.601 Q42.2083 951.601 37.5497 955.004 Q32.8507 958.366 32.8507 964.28 Q32.8507 970.195 37.5497 973.598 Q42.2083 976.96 50.4316 976.96 Q58.6549 976.96 63.354 973.598 Q68.0125 970.195 68.0125 964.28 Q68.0125 958.366 63.354 955.004 Q58.6549 951.601 50.4316 951.601 Z" fill="#000000" fill-rule="evenodd" fill-opacity="1" /><path clip-path="url(#clip350)" d="M27.706 931.509 L27.706 924.055 L73.0762 924.055 L73.0762 931.509 L27.706 931.509 M10.0441 931.509 L10.0441 924.055 L19.4827 924.055 L19.4827 931.509 L10.0441 931.509 Z" fill="#000000" fill-rule="evenodd" fill-opacity="1" /><path clip-path="url(#clip350)" d="M34.6736 882.169 Q33.9444 883.424 33.6204 884.923 Q33.2558 886.382 33.2558 888.164 Q33.2558 894.483 37.3877 897.886 Q41.4791 901.248 49.1758 901.248 L73.0762 901.248 L73.0762 908.743 L27.706 908.743 L27.706 901.248 L34.7546 901.248 Q30.6227 898.899 28.6377 895.132 Q26.6123 891.364 26.6123 885.976 Q26.6123 885.207 26.7338 884.275 Q26.8148 883.343 27.0174 882.209 L34.6736 882.169 Z" fill="#000000" fill-rule="evenodd" fill-opacity="1" /><path clip-path="url(#clip350)" d="M27.706 874.35 L27.706 866.897 L73.0762 866.897 L73.0762 874.35 L27.706 874.35 M10.0441 874.35 L10.0441 866.897 L19.4827 866.897 L19.4827 874.35 L10.0441 874.35 Z" fill="#000000" fill-rule="evenodd" fill-opacity="1" /><path clip-path="url(#clip350)" d="M29.4479 818.65 L36.4155 818.65 Q34.6736 821.81 33.8229 825.01 Q32.9317 828.17 32.9317 831.411 Q32.9317 838.662 37.5497 842.672 Q42.1272 846.683 50.4316 846.683 Q58.736 846.683 63.354 842.672 Q67.9315 838.662 67.9315 831.411 Q67.9315 828.17 67.0808 825.01 Q66.1896 821.81 64.4477 818.65 L71.3343 818.65 Q72.7926 821.77 73.5218 825.132 Q74.2509 828.454 74.2509 832.221 Q74.2509 842.47 67.81 848.506 Q61.369 854.541 50.4316 854.541 Q39.3321 854.541 32.9722 848.465 Q26.6123 842.348 26.6123 831.735 Q26.6123 828.292 27.3414 825.01 Q28.0301 821.729 29.4479 818.65 Z" fill="#000000" fill-rule="evenodd" fill-opacity="1" /><path clip-path="url(#clip350)" d="M50.2696 785.068 Q50.2696 794.102 52.3355 797.586 Q54.4015 801.07 59.3841 801.07 Q63.354 801.07 65.7035 798.477 Q68.0125 795.844 68.0125 791.347 Q68.0125 785.149 63.6376 781.423 Q59.2221 777.655 51.9304 777.655 L50.2696 777.655 L50.2696 785.068 M47.1909 770.202 L73.0762 770.202 L73.0762 777.655 L66.1896 777.655 Q70.3215 780.207 72.3065 784.015 Q74.2509 787.823 74.2509 793.332 Q74.2509 800.3 70.3621 804.432 Q66.4327 808.523 59.8702 808.523 Q52.214 808.523 48.3251 803.419 Q44.4363 798.274 44.4363 788.107 L44.4363 777.655 L43.7071 777.655 Q38.5625 777.655 35.7673 781.058 Q32.9317 784.42 32.9317 790.537 Q32.9317 794.426 33.8634 798.112 Q34.7951 801.799 36.6585 805.201 L29.772 805.201 Q28.1921 801.11 27.4225 797.262 Q26.6123 793.413 26.6123 789.768 Q26.6123 779.924 31.7164 775.063 Q36.8206 770.202 47.1909 770.202 Z" fill="#000000" fill-rule="evenodd" fill-opacity="1" /><path clip-path="url(#clip350)" d="M10.0441 754.849 L10.0441 747.395 L73.0762 747.395 L73.0762 754.849 L10.0441 754.849 Z" fill="#000000" fill-rule="evenodd" fill-opacity="1" /><path clip-path="url(#clip350)" d="M18.1459 680.555 Q18.1459 689.467 24.7894 694.733 Q31.4329 699.959 42.8969 699.959 Q54.3205 699.959 60.964 694.733 Q67.6074 689.467 67.6074 680.555 Q67.6074 671.643 60.964 666.458 Q54.3205 661.232 42.8969 661.232 Q31.4329 661.232 24.7894 666.458 Q18.1459 671.643 18.1459 680.555 M71.9824 669.091 L83.7705 658.316 L83.7705 668.2 L74.0889 677.152 Q74.1699 678.489 74.2104 679.218 Q74.2509 679.907 74.2509 680.555 Q74.2509 693.315 65.744 700.972 Q57.1966 708.587 42.8969 708.587 Q28.5567 708.587 20.0498 700.972 Q11.5024 693.315 11.5024 680.555 Q11.5024 667.835 20.0498 660.22 Q28.5567 652.604 42.8969 652.604 Q53.4293 652.604 60.9234 656.857 Q68.4176 661.07 71.9824 669.091 Z" fill="#000000" fill-rule="evenodd" fill-opacity="1" /><path clip-path="url(#clip350)" d="M55.1712 640.897 L27.706 640.897 L27.706 633.443 L54.8876 633.443 Q61.3285 633.443 64.5693 630.932 Q67.7695 628.42 67.7695 623.397 Q67.7695 617.361 63.9211 613.877 Q60.0728 610.353 53.4293 610.353 L27.706 610.353 L27.706 602.899 L73.0762 602.899 L73.0762 610.353 L66.1086 610.353 Q70.2405 613.067 72.266 616.672 Q74.2509 620.237 74.2509 624.977 Q74.2509 632.795 69.3898 636.846 Q64.5287 640.897 55.1712 640.897 M26.6123 622.141 L26.6123 622.141 Z" fill="#000000" fill-rule="evenodd" fill-opacity="1" /><path clip-path="url(#clip350)" d="M50.2696 566.927 Q50.2696 575.961 52.3355 579.445 Q54.4015 582.928 59.3841 582.928 Q63.354 582.928 65.7035 580.336 Q68.0125 577.703 68.0125 573.206 Q68.0125 567.008 63.6376 563.281 Q59.2221 559.514 51.9304 559.514 L50.2696 559.514 L50.2696 566.927 M47.1909 552.06 L73.0762 552.06 L73.0762 559.514 L66.1896 559.514 Q70.3215 562.066 72.3065 565.874 Q74.2509 569.682 74.2509 575.191 Q74.2509 582.159 70.3621 586.291 Q66.4327 590.382 59.8702 590.382 Q52.214 590.382 48.3251 585.278 Q44.4363 580.133 44.4363 569.965 L44.4363 559.514 L43.7071 559.514 Q38.5625 559.514 35.7673 562.917 Q32.9317 566.279 32.9317 572.396 Q32.9317 576.285 33.8634 579.971 Q34.7951 583.658 36.6585 587.06 L29.772 587.06 Q28.1921 582.969 27.4225 579.121 Q26.6123 575.272 26.6123 571.626 Q26.6123 561.783 31.7164 556.922 Q36.8206 552.06 47.1909 552.06 Z" fill="#000000" fill-rule="evenodd" fill-opacity="1" /><path clip-path="url(#clip350)" d="M45.692 498.994 L73.0762 498.994 L73.0762 506.447 L45.9351 506.447 Q39.4942 506.447 36.2939 508.959 Q33.0937 511.47 33.0937 516.494 Q33.0937 522.529 36.9421 526.013 Q40.7905 529.497 47.4339 529.497 L73.0762 529.497 L73.0762 536.991 L27.706 536.991 L27.706 529.497 L34.7546 529.497 Q30.6632 526.823 28.6377 523.218 Q26.6123 519.572 26.6123 514.833 Q26.6123 507.014 31.4734 503.004 Q36.2939 498.994 45.692 498.994 Z" fill="#000000" fill-rule="evenodd" fill-opacity="1" /><path clip-path="url(#clip350)" d="M14.8242 476.754 L27.706 476.754 L27.706 461.401 L33.4988 461.401 L33.4988 476.754 L58.1283 476.754 Q63.6781 476.754 65.2579 475.255 Q66.8378 473.716 66.8378 469.057 L66.8378 461.401 L73.0762 461.401 L73.0762 469.057 Q73.0762 477.686 69.8759 480.967 Q66.6352 484.248 58.1283 484.248 L33.4988 484.248 L33.4988 489.717 L27.706 489.717 L27.706 484.248 L14.8242 484.248 L14.8242 476.754 Z" fill="#000000" fill-rule="evenodd" fill-opacity="1" /><path clip-path="url(#clip350)" d="M27.706 451.598 L27.706 444.144 L73.0762 444.144 L73.0762 451.598 L27.706 451.598 M10.0441 451.598 L10.0441 444.144 L19.4827 444.144 L19.4827 451.598 L10.0441 451.598 Z" fill="#000000" fill-rule="evenodd" fill-opacity="1" /><path clip-path="url(#clip350)" d="M10.0441 428.548 L10.0441 421.095 L73.0762 421.095 L73.0762 428.548 L10.0441 428.548 Z" fill="#000000" fill-rule="evenodd" fill-opacity="1" /><path clip-path="url(#clip350)" d="M48.5277 366.691 L52.1735 366.691 L52.1735 400.962 Q59.8702 400.476 63.9211 396.344 Q67.9315 392.171 67.9315 384.758 Q67.9315 380.464 66.8783 376.454 Q65.825 372.403 63.7186 368.433 L70.7671 368.433 Q72.4685 372.443 73.3597 376.656 Q74.2509 380.869 74.2509 385.204 Q74.2509 396.06 67.9315 402.42 Q61.6121 408.739 50.8367 408.739 Q39.6967 408.739 33.1748 402.744 Q26.6123 396.708 26.6123 386.5 Q26.6123 377.345 32.5266 372.038 Q38.4004 366.691 48.5277 366.691 M46.3402 374.145 Q40.2233 374.226 36.5775 377.588 Q32.9317 380.91 32.9317 386.419 Q32.9317 392.657 36.456 396.425 Q39.9803 400.152 46.3807 400.719 L46.3402 374.145 Z" fill="#000000" fill-rule="evenodd" fill-opacity="1" /><path clip-path="url(#clip350)" d="M29.0428 325.534 L36.0914 325.534 Q34.471 328.694 33.6609 332.096 Q32.8507 335.499 32.8507 339.145 Q32.8507 344.695 34.5521 347.49 Q36.2534 350.244 39.6562 350.244 Q42.2488 350.244 43.7476 348.259 Q45.2059 346.275 46.5427 340.279 L47.1099 337.727 Q48.8112 329.787 51.9304 326.466 Q55.0091 323.103 60.5589 323.103 Q66.8783 323.103 70.5646 328.126 Q74.2509 333.109 74.2509 341.859 Q74.2509 345.505 73.5218 349.475 Q72.8331 353.404 71.4153 357.779 L63.7186 357.779 Q65.8655 353.647 66.9593 349.637 Q68.0125 345.626 68.0125 341.697 Q68.0125 336.431 66.2301 333.595 Q64.4072 330.76 61.126 330.76 Q58.0878 330.76 56.4675 332.826 Q54.8471 334.851 53.3483 341.778 L52.7406 344.371 Q51.2823 351.298 48.2846 354.376 Q45.2464 357.455 39.9803 357.455 Q33.5798 357.455 30.0961 352.918 Q26.6123 348.381 26.6123 340.036 Q26.6123 335.904 27.2199 332.258 Q27.8276 328.613 29.0428 325.534 Z" fill="#000000" fill-rule="evenodd" fill-opacity="1" /><polyline clip-path="url(#clip352)" style="stroke:#6b9e32; stroke-linecap:round; stroke-linejoin:round; stroke-width:4; stroke-opacity:1; fill:none" points="
  314.193,1238.08 2293.38,85.3298 
  "/>
<circle clip-path="url(#clip352)" cx="314.193" cy="1354.85" r="18" fill="#009af9" fill-rule="evenodd" fill-opacity="1" stroke="#000000" stroke-opacity="1" stroke-width="3.2"/>
<circle clip-path="url(#clip352)" cx="582.768" cy="986.666" r="18" fill="#009af9" fill-rule="evenodd" fill-opacity="1" stroke="#000000" stroke-opacity="1" stroke-width="3.2"/>
<circle clip-path="url(#clip352)" cx="769.127" cy="840.535" r="18" fill="#009af9" fill-rule="evenodd" fill-opacity="1" stroke="#000000" stroke-opacity="1" stroke-width="3.2"/>
<circle clip-path="url(#clip352)" cx="921.554" cy="805.698" r="18" fill="#009af9" fill-rule="evenodd" fill-opacity="1" stroke="#000000" stroke-opacity="1" stroke-width="3.2"/>
<circle clip-path="url(#clip352)" cx="1056.52" cy="658.962" r="18" fill="#009af9" fill-rule="evenodd" fill-opacity="1" stroke="#000000" stroke-opacity="1" stroke-width="3.2"/>
<circle clip-path="url(#clip352)" cx="1182.21" cy="631.348" r="18" fill="#009af9" fill-rule="evenodd" fill-opacity="1" stroke="#000000" stroke-opacity="1" stroke-width="3.2"/>
<circle clip-path="url(#clip352)" cx="1303.79" cy="528.04" r="18" fill="#009af9" fill-rule="evenodd" fill-opacity="1" stroke="#000000" stroke-opacity="1" stroke-width="3.2"/>
<circle clip-path="url(#clip352)" cx="1425.36" cy="495.973" r="18" fill="#009af9" fill-rule="evenodd" fill-opacity="1" stroke="#000000" stroke-opacity="1" stroke-width="3.2"/>
<circle clip-path="url(#clip352)" cx="1551.05" cy="483.793" r="18" fill="#009af9" fill-rule="evenodd" fill-opacity="1" stroke="#000000" stroke-opacity="1" stroke-width="3.2"/>
<circle clip-path="url(#clip352)" cx="1686.02" cy="375.533" r="18" fill="#009af9" fill-rule="evenodd" fill-opacity="1" stroke="#000000" stroke-opacity="1" stroke-width="3.2"/>
<circle clip-path="url(#clip352)" cx="1838.45" cy="347.001" r="18" fill="#009af9" fill-rule="evenodd" fill-opacity="1" stroke="#000000" stroke-opacity="1" stroke-width="3.2"/>
<circle clip-path="url(#clip352)" cx="2024.81" cy="333.761" r="18" fill="#009af9" fill-rule="evenodd" fill-opacity="1" stroke="#000000" stroke-opacity="1" stroke-width="3.2"/>
<circle clip-path="url(#clip352)" cx="2293.38" cy="314.449" r="18" fill="#009af9" fill-rule="evenodd" fill-opacity="1" stroke="#000000" stroke-opacity="1" stroke-width="3.2"/>
</svg>
