<?xml version="1.0" encoding="utf-8"?>
<svg xmlns="http://www.w3.org/2000/svg" xmlns:xlink="http://www.w3.org/1999/xlink" width="600" height="400" viewBox="0 0 2400 1600">
<defs>
  <clipPath id="clip630">
    <rect x="0" y="0" width="2400" height="1600"/>
  </clipPath>
</defs>
<path clip-path="url(#clip630)" d="
M0 1600 L2400 1600 L2400 0 L0 0  Z
  " fill="#ffffff" fill-rule="evenodd" fill-opacity="1"/>
<defs>
  <clipPath id="clip631">
    <rect x="480" y="0" width="1681" height="1600"/>
  </clipPath>
</defs>
<path clip-path="url(#clip630)" d="
M156.112 1486.45 L2352.76 1486.45 L2352.76 47.2441 L156.112 47.2441  Z
  " fill="#ffffff" fill-rule="evenodd" fill-opacity="1"/>
<defs>
  <clipPath id="clip632">
    <rect x="156" y="47" width="2198" height="1440"/>
  </clipPath>
</defs>
<polyline clip-path="url(#clip630)" style="stroke:#000000; stroke-linecap:round; stroke-linejoin:round; stroke-width:4; stroke-opacity:1; fill:none" points="
  156.112,1486.45 2352.76,1486.45 
  "/>
<polyline clip-path="url(#clip630)" style="stroke:#000000; stroke-linecap:round; stroke-linejoin:round; stroke-width:4; stroke-opacity:1; fill:none" points="
  514.5,1486.45 514.5,1467.55 
  "/>
<polyline clip-path="url(#clip630)" style="stroke:#000000; stroke-linecap:round; stroke-linejoin:round; stroke-width:4; stroke-opacity:1; fill:none" points="
  882.587,1486.45 882.587,1467.55 
  "/>
<polyline clip-path="url(#clip630)" style="stroke:#000000; stroke-linecap:round; stroke-linejoin:round; stroke-width:4; stroke-opacity:1; fill:none" points="
  1250.67,1486.45 1250.67,1467.55 
  "/>
<polyline clip-path="url(#clip630)" style="stroke:#000000; stroke-linecap:round; stroke-linejoin:round; stroke-width:4; stroke-opacity:1; fill:none" points="
  1618.76,1486.45 1618.76,1467.55 
  "/>
<polyline clip-path="url(#clip630)" style="stroke:#000000; stroke-linecap:round; stroke-linejoin:round; stroke-width:4; stroke-opacity:1; fill:none" points="
  1986.85,1486.45 1986.85,1467.55 
  "/>
<path clip-path="url(#clip630)" d="M483.563 1532.02 L513.238 1532.02 L513.238 1535.95 L483.563 1535.95 L483.563 1532.02 Z" fill="#000000" fill-rule="evenodd" fill-opacity="1" /><path clip-path="url(#clip630)" d="M533.91 1529.7 Q530.761 1529.7 528.91 1531.86 Q527.081 1534.01 527.081 1537.76 Q527.081 1541.49 528.91 1543.66 Q530.761 1545.82 533.91 1545.82 Q537.058 1545.82 538.886 1543.66 Q540.738 1541.49 540.738 1537.76 Q540.738 1534.01 538.886 1531.86 Q537.058 1529.7 533.91 1529.7 M543.192 1515.05 L543.192 1519.31 Q541.433 1518.48 539.627 1518.04 Q537.845 1517.6 536.085 1517.6 Q531.456 1517.6 529.002 1520.72 Q526.572 1523.85 526.224 1530.17 Q527.59 1528.15 529.65 1527.09 Q531.71 1526 534.187 1526 Q539.396 1526 542.405 1529.17 Q545.437 1532.32 545.437 1537.76 Q545.437 1543.08 542.289 1546.3 Q539.141 1549.52 533.91 1549.52 Q527.914 1549.52 524.743 1544.94 Q521.572 1540.33 521.572 1531.6 Q521.572 1523.41 525.46 1518.55 Q529.349 1513.66 535.9 1513.66 Q537.659 1513.66 539.442 1514.01 Q541.247 1514.36 543.192 1515.05 Z" fill="#000000" fill-rule="evenodd" fill-opacity="1" /><path clip-path="url(#clip630)" d="M852.055 1532.02 L881.731 1532.02 L881.731 1535.95 L852.055 1535.95 L852.055 1532.02 Z" fill="#000000" fill-rule="evenodd" fill-opacity="1" /><path clip-path="url(#clip630)" d="M905.99 1530.21 Q909.346 1530.93 911.221 1533.2 Q913.12 1535.47 913.12 1538.8 Q913.12 1543.92 909.601 1546.72 Q906.083 1549.52 899.601 1549.52 Q897.425 1549.52 895.11 1549.08 Q892.819 1548.66 890.365 1547.81 L890.365 1543.29 Q892.31 1544.43 894.624 1545.01 Q896.939 1545.58 899.462 1545.58 Q903.86 1545.58 906.152 1543.85 Q908.467 1542.11 908.467 1538.8 Q908.467 1535.75 906.314 1534.03 Q904.184 1532.3 900.365 1532.3 L896.337 1532.3 L896.337 1528.45 L900.55 1528.45 Q903.999 1528.45 905.828 1527.09 Q907.657 1525.7 907.657 1523.11 Q907.657 1520.45 905.759 1519.03 Q903.884 1517.6 900.365 1517.6 Q898.444 1517.6 896.245 1518.01 Q894.046 1518.43 891.407 1519.31 L891.407 1515.14 Q894.069 1514.4 896.384 1514.03 Q898.722 1513.66 900.782 1513.66 Q906.106 1513.66 909.208 1516.09 Q912.309 1518.5 912.309 1522.62 Q912.309 1525.49 910.666 1527.48 Q909.022 1529.45 905.99 1530.21 Z" fill="#000000" fill-rule="evenodd" fill-opacity="1" /><path clip-path="url(#clip630)" d="M1250.67 1517.37 Q1247.06 1517.37 1245.24 1520.93 Q1243.43 1524.47 1243.43 1531.6 Q1243.43 1538.71 1245.24 1542.27 Q1247.06 1545.82 1250.67 1545.82 Q1254.31 1545.82 1256.11 1542.27 Q1257.94 1538.71 1257.94 1531.6 Q1257.94 1524.47 1256.11 1520.93 Q1254.31 1517.37 1250.67 1517.37 M1250.67 1513.66 Q1256.48 1513.66 1259.54 1518.27 Q1262.62 1522.85 1262.62 1531.6 Q1262.62 1540.33 1259.54 1544.94 Q1256.48 1549.52 1250.67 1549.52 Q1244.86 1549.52 1241.79 1544.94 Q1238.73 1540.33 1238.73 1531.6 Q1238.73 1522.85 1241.79 1518.27 Q1244.86 1513.66 1250.67 1513.66 Z" fill="#000000" fill-rule="evenodd" fill-opacity="1" /><path clip-path="url(#clip630)" d="M1623.01 1530.21 Q1626.37 1530.93 1628.24 1533.2 Q1630.14 1535.47 1630.14 1538.8 Q1630.14 1543.92 1626.62 1546.72 Q1623.1 1549.52 1616.62 1549.52 Q1614.45 1549.52 1612.13 1549.08 Q1609.84 1548.66 1607.39 1547.81 L1607.39 1543.29 Q1609.33 1544.43 1611.64 1545.01 Q1613.96 1545.58 1616.48 1545.58 Q1620.88 1545.58 1623.17 1543.85 Q1625.49 1542.11 1625.49 1538.8 Q1625.49 1535.75 1623.33 1534.03 Q1621.2 1532.3 1617.38 1532.3 L1613.36 1532.3 L1613.36 1528.45 L1617.57 1528.45 Q1621.02 1528.45 1622.85 1527.09 Q1624.68 1525.7 1624.68 1523.11 Q1624.68 1520.45 1622.78 1519.03 Q1620.9 1517.6 1617.38 1517.6 Q1615.46 1517.6 1613.26 1518.01 Q1611.07 1518.43 1608.43 1519.31 L1608.43 1515.14 Q1611.09 1514.4 1613.4 1514.03 Q1615.74 1513.66 1617.8 1513.66 Q1623.13 1513.66 1626.23 1516.09 Q1629.33 1518.5 1629.33 1522.62 Q1629.33 1525.49 1627.69 1527.48 Q1626.04 1529.45 1623.01 1530.21 Z" fill="#000000" fill-rule="evenodd" fill-opacity="1" /><path clip-path="url(#clip630)" d="M1987.25 1529.7 Q1984.11 1529.7 1982.25 1531.86 Q1980.43 1534.01 1980.43 1537.76 Q1980.43 1541.49 1982.25 1543.66 Q1984.11 1545.82 1987.25 1545.82 Q1990.4 1545.82 1992.23 1543.66 Q1994.08 1541.49 1994.08 1537.76 Q1994.08 1534.01 1992.23 1531.86 Q1990.4 1529.7 1987.25 1529.7 M1996.54 1515.05 L1996.54 1519.31 Q1994.78 1518.48 1992.97 1518.04 Q1991.19 1517.6 1989.43 1517.6 Q1984.8 1517.6 1982.35 1520.72 Q1979.92 1523.85 1979.57 1530.17 Q1980.94 1528.15 1983 1527.09 Q1985.06 1526 1987.53 1526 Q1992.74 1526 1995.75 1529.17 Q1998.78 1532.32 1998.78 1537.76 Q1998.78 1543.08 1995.63 1546.3 Q1992.49 1549.52 1987.25 1549.52 Q1981.26 1549.52 1978.09 1544.94 Q1974.92 1540.33 1974.92 1531.6 Q1974.92 1523.41 1978.81 1518.55 Q1982.69 1513.66 1989.25 1513.66 Q1991 1513.66 1992.79 1514.01 Q1994.59 1514.36 1996.54 1515.05 Z" fill="#000000" fill-rule="evenodd" fill-opacity="1" /><polyline clip-path="url(#clip632)" style="stroke:#009af9; stroke-linecap:round; stroke-linejoin:round; stroke-width:12; stroke-opacity:1; fill:none" points="
  218.281,1445.72 228.695,1445.71 239.108,1445.71 249.522,1445.7 259.936,1445.68 270.349,1445.64 280.763,1445.56 291.176,1445.42 301.59,1445.19 312.004,1444.85 
  322.417,1444.41 332.831,1443.89 343.244,1443.35 353.658,1442.87 364.072,1442.52 374.485,1442.35 384.899,1442.34 395.312,1442.43 405.726,1442.51 416.14,1442.49 
  426.553,1442.31 436.967,1441.95 447.38,1441.48 457.794,1440.96 468.208,1440.47 478.621,1440.06 489.035,1439.71 499.448,1439.38 509.862,1439 520.276,1438.48 
  530.689,1437.77 541.103,1436.77 551.516,1435.38 561.93,1433.53 572.344,1431.16 582.757,1428.28 593.171,1424.96 603.584,1421.32 613.998,1417.48 624.412,1413.48 
  634.825,1409.28 645.239,1404.75 655.652,1399.71 666.066,1394.07 676.479,1387.84 686.893,1381.15 697.307,1374.25 707.72,1367.39 718.134,1360.75 728.547,1354.4 
  738.961,1348.23 749.375,1341.96 759.788,1335.21 770.202,1327.6 780.615,1318.81 791.029,1308.64 801.443,1297.1 811.856,1284.32 822.27,1270.65 832.683,1256.52 
  843.097,1242.37 853.511,1228.5 863.924,1214.94 874.338,1201.44 884.751,1187.51 895.165,1172.56 905.579,1156.03 915.992,1137.54 926.406,1116.93 936.819,1094.28 
  947.233,1069.83 957.647,1044 968.06,1017.26 978.474,990.198 988.887,963.453 999.301,937.661 1009.71,913.388 1020.13,891.043 1030.54,870.823 1040.96,852.689 
  1051.37,836.387 1061.78,821.486 1072.2,807.455 1082.61,793.745 1093.02,779.892 1103.44,765.598 1113.85,750.787 1124.26,735.598 1134.68,720.32 1145.09,705.295 
  1155.5,690.819 1165.92,677.089 1176.33,664.223 1186.75,652.336 1197.16,641.646 1207.57,632.545 1217.99,625.578 1228.4,621.316 1238.81,620.149 1249.23,622.089 
  1259.64,626.709 1270.05,633.255 1280.47,640.906 1290.88,649.03 1301.3,657.306 1311.71,665.682 1322.12,674.243 1332.54,683.09 1342.95,692.311 1353.36,702.008 
  1363.78,712.343 1374.19,723.54 1384.6,735.848 1395.02,749.462 1405.43,764.419 1415.84,780.535 1426.26,797.43 1436.67,814.688 1447.09,832.091 1457.5,849.815 
  1467.91,868.431 1478.33,888.659 1488.74,910.984 1499.15,935.331 1509.57,960.971 1519.98,986.733 1530.39,1011.41 1540.81,1034.17 1551.22,1054.83 1561.64,1073.78 
  1572.05,1091.81 1582.46,1109.75 1592.88,1128.15 1603.29,1147.11 1613.7,1166.35 1624.12,1185.29 1634.53,1203.31 1644.94,1219.94 1655.36,1234.97 1665.77,1248.45 
  1676.18,1260.64 1686.6,1271.89 1697.01,1282.53 1707.43,1292.87 1717.84,1303.11 1728.25,1313.38 1738.67,1323.68 1749.08,1333.94 1759.49,1343.96 1769.91,1353.51 
  1780.32,1362.33 1790.73,1370.21 1801.15,1377 1811.56,1382.66 1821.97,1387.25 1832.39,1391 1842.8,1394.19 1853.22,1397.17 1863.63,1400.2 1874.04,1403.47 
  1884.46,1407 1894.87,1410.72 1905.28,1414.5 1915.7,1418.2 1926.11,1421.74 1936.52,1425.05 1946.94,1428.09 1957.35,1430.81 1967.77,1433.17 1978.18,1435.16 
  1988.59,1436.75 1999.01,1437.98 2009.42,1438.87 2019.83,1439.49 2030.25,1439.92 2040.66,1440.25 2051.07,1440.56 2061.49,1440.92 2071.9,1441.35 2082.31,1441.85 
  2092.73,1442.36 2103.14,1442.84 2113.56,1443.26 2123.97,1443.61 2134.38,1443.92 2144.8,1444.2 2155.21,1444.47 2165.62,1444.74 2176.04,1444.99 2186.45,1445.2 
  2196.86,1445.38 2207.28,1445.51 2217.69,1445.6 2228.11,1445.65 2238.52,1445.69 2248.93,1445.7 2259.35,1445.71 2269.76,1445.71 2280.17,1445.72 2290.59,1445.72 
  
  "/>
<polyline clip-path="url(#clip632)" style="stroke:#e26f46; stroke-linecap:round; stroke-linejoin:round; stroke-width:12; stroke-opacity:1; fill:none" stroke-dasharray="48, 30" points="
  776.882,1445.72 783.453,1445.72 790.024,1445.71 796.595,1445.71 803.167,1445.7 809.738,1445.68 816.309,1445.65 822.88,1445.59 829.452,1445.5 836.023,1445.38 
  842.594,1445.23 849.166,1445.06 855.737,1444.89 862.308,1444.71 868.879,1444.52 875.451,1444.28 882.022,1443.91 888.593,1443.33 895.164,1442.48 901.736,1441.32 
  908.307,1439.86 914.878,1438.14 921.45,1436.2 928.021,1434 934.592,1431.44 941.163,1428.31 947.735,1424.38 954.306,1419.43 960.877,1413.35 967.448,1406.09 
  974.02,1397.64 980.591,1387.94 987.162,1376.8 993.734,1363.9 1000.3,1348.84 1006.88,1331.21 1013.45,1310.77 1020.02,1287.45 1026.59,1261.37 1033.16,1232.82 
  1039.73,1202.15 1046.3,1169.7 1052.88,1135.75 1059.45,1100.45 1066.02,1063.77 1072.59,1025.46 1079.16,985.101 1085.73,942.195 1092.3,896.348 1098.87,847.475 
  1105.45,795.931 1112.02,742.498 1118.59,688.223 1125.16,634.173 1131.73,581.225 1138.3,529.985 1144.87,480.837 1151.44,434.077 1158.02,390.021 1164.59,349.019 
  1171.16,311.381 1177.73,277.274 1184.3,246.656 1190.87,219.306 1197.44,194.915 1204.01,173.201 1210.59,153.99 1217.16,137.273 1223.73,123.219 1230.3,112.158 
  1236.87,104.517 1243.44,100.682 1250.01,100.838 1256.58,104.862 1263.16,112.351 1269.73,122.794 1276.3,135.782 1282.87,151.111 1289.44,168.687 1296.01,188.313 
  1302.58,209.529 1309.15,231.665 1315.73,254.093 1322.3,276.533 1328.87,299.183 1335.44,322.571 1342.01,347.191 1348.58,373.116 1355.15,399.798 1361.72,426.148 
  1368.3,450.885 1374.87,472.976 1381.44,492 1388.01,508.286 1394.58,522.821 1401.15,536.982 1407.72,552.211 1414.3,569.741 1420.87,590.403 1427.44,614.537 
  1434.01,641.98 1440.58,672.114 1447.15,703.966 1453.72,736.345 1460.29,768.027 1466.87,797.951 1473.44,825.399 1480.01,850.098 1486.58,872.236 1493.15,892.379 
  1499.72,911.319 1506.29,929.89 1512.86,948.797 1519.44,968.463 1526.01,988.964 1532.58,1010.05 1539.15,1031.28 1545.72,1052.18 1552.29,1072.41 1558.86,1091.82 
  1565.43,1110.43 1572.01,1128.28 1578.58,1145.31 1585.15,1161.36 1591.72,1176.17 1598.29,1189.6 1604.86,1201.68 1611.43,1212.69 1618,1223.04 1624.58,1233.2 
  1631.15,1243.51 1637.72,1254.19 1644.29,1265.25 1650.86,1276.53 1657.43,1287.74 1664,1298.5 1670.57,1308.44 1677.15,1317.35 1683.72,1325.2 1690.29,1332.17 
  1696.86,1338.56 1703.43,1344.68 1710,1350.74 1716.57,1356.82 1723.15,1362.85 1729.72,1368.7 1736.29,1374.21 1742.86,1379.29 1749.43,1383.87 1756,1387.91 
  1762.57,1391.34 1769.14,1394.08 1775.72,1396.08 1782.29,1397.37 1788.86,1398.12 1795.43,1398.62 1802,1399.25 1808.57,1400.34 1815.14,1402.07 1821.71,1404.47 
  1828.29,1407.38 1834.86,1410.56 1841.43,1413.75 1848,1416.76 1854.57,1419.53 1861.14,1422.05 1867.71,1424.39 1874.28,1426.6 1880.86,1428.73 1887.43,1430.76 
  1894,1432.68 1900.57,1434.46 1907.14,1436.05 1913.71,1437.4 1920.28,1438.46 1926.85,1439.2 1933.43,1439.63 1940,1439.79 1946.57,1439.75 1953.14,1439.64 
  1959.71,1439.56 1966.28,1439.62 1972.85,1439.89 1979.42,1440.39 1986,1441.08 1992.57,1441.88 1999.14,1442.72 2005.71,1443.51 2012.28,1444.18 2018.85,1444.71 
  2025.42,1445.1 2032,1445.36 2038.57,1445.52 2045.14,1445.62 2051.71,1445.67 2058.28,1445.7 2064.85,1445.71 2071.42,1445.71 2077.99,1445.71 2084.57,1445.72 
  
  "/>
<polyline clip-path="url(#clip632)" style="stroke:#3da44d; stroke-linecap:round; stroke-linejoin:round; stroke-width:12; stroke-opacity:1; fill:none" stroke-dasharray="6, 12" points="
  375.744,1445.72 382.38,1445.71 389.016,1445.71 395.651,1445.71 402.287,1445.7 408.923,1445.67 415.559,1445.62 422.195,1445.54 428.831,1445.4 435.467,1445.2 
  442.103,1444.93 448.739,1444.6 455.375,1444.23 462.011,1443.86 468.647,1443.51 475.283,1443.2 481.919,1442.91 488.555,1442.63 495.191,1442.29 501.827,1441.87 
  508.463,1441.34 515.099,1440.74 521.735,1440.11 528.371,1439.52 535.007,1439.03 541.643,1438.65 548.279,1438.36 554.915,1438.12 561.551,1437.84 568.187,1437.48 
  574.823,1436.97 581.459,1436.3 588.095,1435.42 594.731,1434.31 601.367,1432.93 608.003,1431.24 614.639,1429.27 621.275,1427.08 627.911,1424.79 634.547,1422.51 
  641.183,1420.36 647.819,1418.35 654.455,1416.51 661.091,1414.8 667.727,1413.2 674.363,1411.67 680.999,1410.16 687.635,1408.59 694.271,1406.9 700.907,1405.03 
  707.543,1402.99 714.179,1400.83 720.815,1398.57 727.451,1396.16 734.087,1393.45 740.723,1390.21 747.359,1386.2 753.995,1381.28 760.631,1375.44 767.267,1368.84 
  773.903,1361.71 780.539,1354.32 787.175,1346.91 793.811,1339.6 800.447,1332.43 807.083,1325.32 813.719,1318.13 820.355,1310.65 826.991,1302.72 833.627,1294.22 
  840.263,1285.13 846.899,1275.48 853.535,1265.3 860.171,1254.64 866.807,1243.5 873.443,1231.92 880.079,1219.97 886.715,1207.74 893.351,1195.31 899.987,1182.71 
  906.623,1169.8 913.259,1156.38 919.895,1142.18 926.531,1127.01 933.167,1110.83 939.803,1093.77 946.439,1076.05 953.075,1057.87 959.711,1039.32 966.347,1020.41 
  972.983,1001.09 979.619,981.333 986.255,961.173 992.891,940.627 999.527,919.616 1006.16,897.927 1012.8,875.294 1019.43,851.575 1026.07,826.927 1032.71,801.868 
  1039.34,777.19 1045.98,753.745 1052.61,732.182 1059.25,712.728 1065.89,695.039 1072.52,678.194 1079.16,660.868 1085.79,641.678 1092.43,619.618 1099.07,594.393 
  1105.7,566.498 1112.34,536.992 1118.97,507.093 1125.61,477.796 1132.25,449.65 1138.88,422.733 1145.52,396.734 1152.15,371.066 1158.79,344.993 1165.43,317.781 
  1172.06,288.917 1178.7,258.347 1185.33,226.65 1191.97,195.055 1198.61,165.243 1205.24,138.982 1211.88,117.699 1218.51,102.169 1225.15,92.4349 1231.79,87.9763 
  1238.42,88.0411 1245.06,91.958 1251.69,99.2977 1258.33,109.843 1264.97,123.436 1271.6,139.826 1278.24,158.604 1284.87,179.249 1291.51,201.226 1298.15,224.06 
  1304.78,247.389 1311.42,271.023 1318.05,295.055 1324.69,320.011 1331.33,346.908 1337.96,377.1 1344.6,411.879 1351.23,451.976 1357.87,497.195 1364.51,546.408 
  1371.14,597.927 1377.78,650.101 1384.41,701.819 1391.05,752.68 1397.69,802.783 1404.32,852.29 1410.96,901.038 1417.59,948.401 1424.23,993.457 1430.87,1035.33 
  1437.5,1073.52 1444.14,1108.08 1450.77,1139.52 1457.41,1168.58 1464.05,1195.93 1470.68,1222 1477.32,1246.88 1483.95,1270.48 1490.59,1292.65 1497.23,1313.28 
  1503.86,1332.33 1510.5,1349.79 1517.13,1365.6 1523.77,1379.68 1530.41,1391.97 1537.04,1402.45 1543.68,1411.19 1550.31,1418.32 1556.95,1424.04 1563.59,1428.53 
  1570.22,1432.02 1576.86,1434.71 1583.49,1436.79 1590.13,1438.44 1596.77,1439.79 1603.4,1440.95 1610.04,1441.96 1616.67,1442.86 1623.31,1443.64 1629.95,1444.29 
  1636.58,1444.8 1643.22,1445.16 1649.85,1445.4 1656.49,1445.55 1663.13,1445.64 1669.76,1445.68 1676.4,1445.7 1683.03,1445.71 1689.67,1445.71 1696.31,1445.72 
  
  "/>
<path clip-path="url(#clip630)" d="
M1743.83 302.578 L2279.53 302.578 L2279.53 95.2176 L1743.83 95.2176  Z
  " fill="#ffffff" fill-rule="evenodd" fill-opacity="1"/>
<polyline clip-path="url(#clip630)" style="stroke:#000000; stroke-linecap:round; stroke-linejoin:round; stroke-width:4; stroke-opacity:1; fill:none" points="
  1743.83,302.578 2279.53,302.578 2279.53,95.2176 1743.83,95.2176 1743.83,302.578 
  "/>
<polyline clip-path="url(#clip630)" style="stroke:#009af9; stroke-linecap:round; stroke-linejoin:round; stroke-width:12; stroke-opacity:1; fill:none" points="
  1768.24,147.058 1914.68,147.058 
  "/>
<path clip-path="url(#clip630)" d="M1961.33 130.912 L1961.33 135.472 Q1958.67 134.199 1956.31 133.574 Q1953.95 132.949 1951.75 132.949 Q1947.93 132.949 1945.85 134.43 Q1943.79 135.912 1943.79 138.643 Q1943.79 140.935 1945.15 142.115 Q1946.54 143.273 1950.38 143.99 L1953.21 144.569 Q1958.44 145.565 1960.92 148.088 Q1963.42 150.588 1963.42 154.801 Q1963.42 159.824 1960.04 162.416 Q1956.68 165.009 1950.18 165.009 Q1947.72 165.009 1944.94 164.453 Q1942.19 163.898 1939.23 162.81 L1939.23 157.995 Q1942.07 159.592 1944.8 160.402 Q1947.54 161.213 1950.18 161.213 Q1954.18 161.213 1956.36 159.639 Q1958.53 158.064 1958.53 155.148 Q1958.53 152.602 1956.96 151.166 Q1955.41 149.731 1951.84 149.014 L1948.99 148.458 Q1943.76 147.416 1941.43 145.194 Q1939.09 142.972 1939.09 139.014 Q1939.09 134.43 1942.3 131.791 Q1945.55 129.153 1951.22 129.153 Q1953.65 129.153 1956.17 129.592 Q1958.69 130.032 1961.33 130.912 Z" fill="#000000" fill-rule="evenodd" fill-opacity="1" /><path clip-path="url(#clip630)" d="M1981.31 166.745 Q1979.5 171.375 1977.79 172.787 Q1976.08 174.199 1973.21 174.199 L1969.8 174.199 L1969.8 170.634 L1972.3 170.634 Q1974.06 170.634 1975.04 169.8 Q1976.01 168.967 1977.19 165.865 L1977.95 163.921 L1967.47 138.412 L1971.98 138.412 L1980.08 158.689 L1988.18 138.412 L1992.7 138.412 L1981.31 166.745 Z" fill="#000000" fill-rule="evenodd" fill-opacity="1" /><path clip-path="url(#clip630)" d="M2018.76 143.389 Q2020.36 140.518 2022.58 139.153 Q2024.8 137.787 2027.81 137.787 Q2031.86 137.787 2034.06 140.634 Q2036.26 143.458 2036.26 148.689 L2036.26 164.338 L2031.98 164.338 L2031.98 148.828 Q2031.98 145.102 2030.66 143.296 Q2029.34 141.49 2026.63 141.49 Q2023.32 141.49 2021.4 143.69 Q2019.48 145.889 2019.48 149.685 L2019.48 164.338 L2015.2 164.338 L2015.2 148.828 Q2015.2 145.078 2013.88 143.296 Q2012.56 141.49 2009.8 141.49 Q2006.54 141.49 2004.62 143.713 Q2002.7 145.912 2002.7 149.685 L2002.7 164.338 L1998.42 164.338 L1998.42 138.412 L2002.7 138.412 L2002.7 142.44 Q2004.16 140.055 2006.19 138.921 Q2008.23 137.787 2011.03 137.787 Q2013.86 137.787 2015.82 139.222 Q2017.81 140.657 2018.76 143.389 Z" fill="#000000" fill-rule="evenodd" fill-opacity="1" /><path clip-path="url(#clip630)" d="M2064.94 143.389 Q2066.54 140.518 2068.76 139.153 Q2070.98 137.787 2073.99 137.787 Q2078.04 137.787 2080.24 140.634 Q2082.44 143.458 2082.44 148.689 L2082.44 164.338 L2078.16 164.338 L2078.16 148.828 Q2078.16 145.102 2076.84 143.296 Q2075.52 141.49 2072.81 141.49 Q2069.5 141.49 2067.58 143.69 Q2065.66 145.889 2065.66 149.685 L2065.66 164.338 L2061.38 164.338 L2061.38 148.828 Q2061.38 145.078 2060.06 143.296 Q2058.74 141.49 2055.98 141.49 Q2052.72 141.49 2050.8 143.713 Q2048.88 145.912 2048.88 149.685 L2048.88 164.338 L2044.6 164.338 L2044.6 138.412 L2048.88 138.412 L2048.88 142.44 Q2050.34 140.055 2052.37 138.921 Q2054.41 137.787 2057.21 137.787 Q2060.04 137.787 2062 139.222 Q2063.99 140.657 2064.94 143.389 Z" fill="#000000" fill-rule="evenodd" fill-opacity="1" /><path clip-path="url(#clip630)" d="M2113.11 150.31 L2113.11 152.393 L2093.53 152.393 Q2093.81 156.791 2096.17 159.106 Q2098.55 161.398 2102.79 161.398 Q2105.24 161.398 2107.54 160.796 Q2109.85 160.194 2112.12 158.99 L2112.12 163.018 Q2109.83 163.99 2107.42 164.5 Q2105.01 165.009 2102.54 165.009 Q2096.33 165.009 2092.7 161.398 Q2089.09 157.787 2089.09 151.629 Q2089.09 145.264 2092.51 141.537 Q2095.96 137.787 2101.79 137.787 Q2107.03 137.787 2110.06 141.166 Q2113.11 144.523 2113.11 150.31 M2108.85 149.06 Q2108.81 145.565 2106.89 143.481 Q2104.99 141.398 2101.84 141.398 Q2098.28 141.398 2096.12 143.412 Q2093.99 145.426 2093.67 149.083 L2108.85 149.06 Z" fill="#000000" fill-rule="evenodd" fill-opacity="1" /><path clip-path="url(#clip630)" d="M2124.32 131.051 L2124.32 138.412 L2133.09 138.412 L2133.09 141.722 L2124.32 141.722 L2124.32 155.796 Q2124.32 158.967 2125.17 159.87 Q2126.05 160.773 2128.72 160.773 L2133.09 160.773 L2133.09 164.338 L2128.72 164.338 Q2123.79 164.338 2121.91 162.509 Q2120.04 160.657 2120.04 155.796 L2120.04 141.722 L2116.91 141.722 L2116.91 138.412 L2120.04 138.412 L2120.04 131.051 L2124.32 131.051 Z" fill="#000000" fill-rule="evenodd" fill-opacity="1" /><path clip-path="url(#clip630)" d="M2153.72 142.393 Q2153 141.977 2152.14 141.791 Q2151.31 141.583 2150.29 141.583 Q2146.68 141.583 2144.73 143.944 Q2142.81 146.282 2142.81 150.68 L2142.81 164.338 L2138.53 164.338 L2138.53 138.412 L2142.81 138.412 L2142.81 142.44 Q2144.16 140.078 2146.31 138.944 Q2148.46 137.787 2151.54 137.787 Q2151.98 137.787 2152.51 137.856 Q2153.04 137.903 2153.69 138.018 L2153.72 142.393 Z" fill="#000000" fill-rule="evenodd" fill-opacity="1" /><path clip-path="url(#clip630)" d="M2158.18 138.412 L2162.44 138.412 L2162.44 164.338 L2158.18 164.338 L2158.18 138.412 M2158.18 128.319 L2162.44 128.319 L2162.44 133.713 L2158.18 133.713 L2158.18 128.319 Z" fill="#000000" fill-rule="evenodd" fill-opacity="1" /><path clip-path="url(#clip630)" d="M2190.01 139.407 L2190.01 143.389 Q2188.21 142.393 2186.38 141.907 Q2184.57 141.398 2182.72 141.398 Q2178.58 141.398 2176.29 144.037 Q2173.99 146.652 2173.99 151.398 Q2173.99 156.143 2176.29 158.782 Q2178.58 161.398 2182.72 161.398 Q2184.57 161.398 2186.38 160.912 Q2188.21 160.402 2190.01 159.407 L2190.01 163.342 Q2188.23 164.176 2186.31 164.592 Q2184.41 165.009 2182.26 165.009 Q2176.4 165.009 2172.95 161.328 Q2169.5 157.648 2169.5 151.398 Q2169.5 145.055 2172.97 141.421 Q2176.47 137.787 2182.54 137.787 Q2184.5 137.787 2186.38 138.203 Q2188.25 138.597 2190.01 139.407 Z" fill="#000000" fill-rule="evenodd" fill-opacity="1" /><polyline clip-path="url(#clip630)" style="stroke:#e26f46; stroke-linecap:round; stroke-linejoin:round; stroke-width:12; stroke-opacity:1; fill:none" stroke-dasharray="48, 30" points="
  1768.24,198.898 1914.68,198.898 
  "/>
<path clip-path="url(#clip630)" d="M1955.48 199.974 Q1956.98 200.483 1958.39 202.15 Q1959.83 203.817 1961.26 206.733 L1966.01 216.178 L1960.99 216.178 L1956.56 207.312 Q1954.85 203.84 1953.23 202.705 Q1951.63 201.571 1948.86 201.571 L1943.76 201.571 L1943.76 216.178 L1939.09 216.178 L1939.09 181.618 L1949.64 181.618 Q1955.57 181.618 1958.49 184.094 Q1961.4 186.571 1961.4 191.571 Q1961.4 194.835 1959.87 196.988 Q1958.37 199.141 1955.48 199.974 M1943.76 185.46 L1943.76 197.729 L1949.64 197.729 Q1953.02 197.729 1954.74 196.178 Q1956.47 194.604 1956.47 191.571 Q1956.47 188.539 1954.74 187.011 Q1953.02 185.46 1949.64 185.46 L1943.76 185.46 Z" fill="#000000" fill-rule="evenodd" fill-opacity="1" /><path clip-path="url(#clip630)" d="M1971.84 190.252 L1976.1 190.252 L1976.1 216.178 L1971.84 216.178 L1971.84 190.252 M1971.84 180.159 L1976.1 180.159 L1976.1 185.553 L1971.84 185.553 L1971.84 180.159 Z" fill="#000000" fill-rule="evenodd" fill-opacity="1" /><path clip-path="url(#clip630)" d="M2002.07 202.914 Q2002.07 198.284 2000.15 195.738 Q1998.25 193.192 1994.8 193.192 Q1991.38 193.192 1989.46 195.738 Q1987.56 198.284 1987.56 202.914 Q1987.56 207.52 1989.46 210.066 Q1991.38 212.613 1994.8 212.613 Q1998.25 212.613 2000.15 210.066 Q2002.07 207.52 2002.07 202.914 M2006.33 212.96 Q2006.33 219.58 2003.39 222.798 Q2000.45 226.039 1994.39 226.039 Q1992.14 226.039 1990.15 225.691 Q1988.16 225.367 1986.29 224.673 L1986.29 220.529 Q1988.16 221.548 1989.99 222.034 Q1991.82 222.52 1993.72 222.52 Q1997.91 222.52 1999.99 220.321 Q2002.07 218.145 2002.07 213.724 L2002.07 211.617 Q2000.75 213.909 1998.69 215.043 Q1996.63 216.178 1993.76 216.178 Q1988.99 216.178 1986.08 212.543 Q1983.16 208.909 1983.16 202.914 Q1983.16 196.895 1986.08 193.261 Q1988.99 189.627 1993.76 189.627 Q1996.63 189.627 1998.69 190.761 Q2000.75 191.895 2002.07 194.187 L2002.07 190.252 L2006.33 190.252 L2006.33 212.96 Z" fill="#000000" fill-rule="evenodd" fill-opacity="1" /><path clip-path="url(#clip630)" d="M2036.66 200.529 L2036.66 216.178 L2032.4 216.178 L2032.4 200.668 Q2032.4 196.988 2030.96 195.159 Q2029.53 193.33 2026.66 193.33 Q2023.21 193.33 2021.22 195.53 Q2019.23 197.729 2019.23 201.525 L2019.23 216.178 L2014.94 216.178 L2014.94 180.159 L2019.23 180.159 L2019.23 194.28 Q2020.75 191.942 2022.81 190.784 Q2024.9 189.627 2027.61 189.627 Q2032.07 189.627 2034.36 192.405 Q2036.66 195.159 2036.66 200.529 Z" fill="#000000" fill-rule="evenodd" fill-opacity="1" /><path clip-path="url(#clip630)" d="M2049.36 182.891 L2049.36 190.252 L2058.14 190.252 L2058.14 193.562 L2049.36 193.562 L2049.36 207.636 Q2049.36 210.807 2050.22 211.71 Q2051.1 212.613 2053.76 212.613 L2058.14 212.613 L2058.14 216.178 L2053.76 216.178 Q2048.83 216.178 2046.96 214.349 Q2045.08 212.497 2045.08 207.636 L2045.08 193.562 L2041.96 193.562 L2041.96 190.252 L2045.08 190.252 L2045.08 182.891 L2049.36 182.891 Z" fill="#000000" fill-rule="evenodd" fill-opacity="1" /><path clip-path="url(#clip630)" d="M2061.59 201.293 L2074.06 201.293 L2074.06 205.09 L2061.59 205.09 L2061.59 201.293 Z" fill="#000000" fill-rule="evenodd" fill-opacity="1" /><path clip-path="url(#clip630)" d="M2101.75 182.752 L2101.75 187.312 Q2099.09 186.039 2096.73 185.414 Q2094.36 184.789 2092.17 184.789 Q2088.35 184.789 2086.26 186.27 Q2084.2 187.752 2084.2 190.483 Q2084.2 192.775 2085.57 193.955 Q2086.96 195.113 2090.8 195.83 L2093.62 196.409 Q2098.85 197.405 2101.33 199.928 Q2103.83 202.428 2103.83 206.641 Q2103.83 211.664 2100.45 214.256 Q2097.1 216.849 2090.59 216.849 Q2088.14 216.849 2085.36 216.293 Q2082.61 215.738 2079.64 214.65 L2079.64 209.835 Q2082.49 211.432 2085.22 212.242 Q2087.95 213.053 2090.59 213.053 Q2094.6 213.053 2096.77 211.479 Q2098.95 209.904 2098.95 206.988 Q2098.95 204.442 2097.37 203.006 Q2095.82 201.571 2092.26 200.854 L2089.41 200.298 Q2084.18 199.256 2081.84 197.034 Q2079.5 194.812 2079.5 190.854 Q2079.5 186.27 2082.72 183.631 Q2085.96 180.993 2091.63 180.993 Q2094.06 180.993 2096.59 181.432 Q2099.11 181.872 2101.75 182.752 Z" fill="#000000" fill-rule="evenodd" fill-opacity="1" /><path clip-path="url(#clip630)" d="M2110.78 180.159 L2115.06 180.159 L2115.06 201.432 L2127.77 190.252 L2133.21 190.252 L2119.46 202.381 L2133.79 216.178 L2128.23 216.178 L2115.06 203.516 L2115.06 216.178 L2110.78 216.178 L2110.78 180.159 Z" fill="#000000" fill-rule="evenodd" fill-opacity="1" /><path clip-path="url(#clip630)" d="M2158.88 202.15 L2158.88 204.233 L2139.29 204.233 Q2139.57 208.631 2141.93 210.946 Q2144.32 213.238 2148.55 213.238 Q2151.01 213.238 2153.3 212.636 Q2155.61 212.034 2157.88 210.83 L2157.88 214.858 Q2155.59 215.83 2153.18 216.34 Q2150.78 216.849 2148.3 216.849 Q2142.1 216.849 2138.46 213.238 Q2134.85 209.627 2134.85 203.469 Q2134.85 197.104 2138.28 193.377 Q2141.73 189.627 2147.56 189.627 Q2152.79 189.627 2155.82 193.006 Q2158.88 196.363 2158.88 202.15 M2154.62 200.9 Q2154.57 197.405 2152.65 195.321 Q2150.75 193.238 2147.6 193.238 Q2144.04 193.238 2141.89 195.252 Q2139.76 197.266 2139.43 200.923 L2154.62 200.9 Z" fill="#000000" fill-rule="evenodd" fill-opacity="1" /><path clip-path="url(#clip630)" d="M2163.39 190.252 L2167.65 190.252 L2172.97 210.483 L2178.28 190.252 L2183.3 190.252 L2188.62 210.483 L2193.92 190.252 L2198.18 190.252 L2191.4 216.178 L2186.38 216.178 L2180.8 194.928 L2175.2 216.178 L2170.17 216.178 L2163.39 190.252 Z" fill="#000000" fill-rule="evenodd" fill-opacity="1" /><path clip-path="url(#clip630)" d="M2226.82 202.15 L2226.82 204.233 L2207.23 204.233 Q2207.51 208.631 2209.87 210.946 Q2212.26 213.238 2216.49 213.238 Q2218.95 213.238 2221.24 212.636 Q2223.55 212.034 2225.82 210.83 L2225.82 214.858 Q2223.53 215.83 2221.12 216.34 Q2218.72 216.849 2216.24 216.849 Q2210.03 216.849 2206.4 213.238 Q2202.79 209.627 2202.79 203.469 Q2202.79 197.104 2206.22 193.377 Q2209.66 189.627 2215.5 189.627 Q2220.73 189.627 2223.76 193.006 Q2226.82 196.363 2226.82 202.15 M2222.56 200.9 Q2222.51 197.405 2220.59 195.321 Q2218.69 193.238 2215.54 193.238 Q2211.98 193.238 2209.83 195.252 Q2207.7 197.266 2207.37 200.923 L2222.56 200.9 Z" fill="#000000" fill-rule="evenodd" fill-opacity="1" /><path clip-path="url(#clip630)" d="M2250.87 194.187 L2250.87 180.159 L2255.13 180.159 L2255.13 216.178 L2250.87 216.178 L2250.87 212.289 Q2249.53 214.603 2247.47 215.738 Q2245.43 216.849 2242.56 216.849 Q2237.86 216.849 2234.9 213.099 Q2231.96 209.349 2231.96 203.238 Q2231.96 197.127 2234.9 193.377 Q2237.86 189.627 2242.56 189.627 Q2245.43 189.627 2247.47 190.761 Q2249.53 191.872 2250.87 194.187 M2236.35 203.238 Q2236.35 207.937 2238.28 210.622 Q2240.22 213.284 2243.6 213.284 Q2246.98 213.284 2248.92 210.622 Q2250.87 207.937 2250.87 203.238 Q2250.87 198.539 2248.92 195.877 Q2246.98 193.192 2243.6 193.192 Q2240.22 193.192 2238.28 195.877 Q2236.35 198.539 2236.35 203.238 Z" fill="#000000" fill-rule="evenodd" fill-opacity="1" /><polyline clip-path="url(#clip630)" style="stroke:#3da44d; stroke-linecap:round; stroke-linejoin:round; stroke-width:12; stroke-opacity:1; fill:none" stroke-dasharray="6, 12" points="
  1768.24,250.738 1914.68,250.738 
  "/>
<path clip-path="url(#clip630)" d="M1939.09 233.458 L1943.76 233.458 L1943.76 264.082 L1960.59 264.082 L1960.59 268.018 L1939.09 268.018 L1939.09 233.458 Z" fill="#000000" fill-rule="evenodd" fill-opacity="1" /><path clip-path="url(#clip630)" d="M1986.66 253.99 L1986.66 256.073 L1967.07 256.073 Q1967.35 260.471 1969.71 262.786 Q1972.1 265.078 1976.33 265.078 Q1978.79 265.078 1981.08 264.476 Q1983.39 263.874 1985.66 262.67 L1985.66 266.698 Q1983.37 267.67 1980.96 268.18 Q1978.55 268.689 1976.08 268.689 Q1969.87 268.689 1966.24 265.078 Q1962.63 261.467 1962.63 255.309 Q1962.63 248.944 1966.05 245.217 Q1969.5 241.467 1975.34 241.467 Q1980.57 241.467 1983.6 244.846 Q1986.66 248.203 1986.66 253.99 M1982.4 252.74 Q1982.35 249.245 1980.43 247.161 Q1978.53 245.078 1975.38 245.078 Q1971.82 245.078 1969.67 247.092 Q1967.54 249.106 1967.21 252.763 L1982.4 252.74 Z" fill="#000000" fill-rule="evenodd" fill-opacity="1" /><path clip-path="url(#clip630)" d="M2006.77 231.999 L2006.77 235.541 L2002.7 235.541 Q2000.41 235.541 1999.5 236.467 Q1998.62 237.393 1998.62 239.8 L1998.62 242.092 L2005.64 242.092 L2005.64 245.402 L1998.62 245.402 L1998.62 268.018 L1994.34 268.018 L1994.34 245.402 L1990.27 245.402 L1990.27 242.092 L1994.34 242.092 L1994.34 240.286 Q1994.34 235.958 1996.36 233.99 Q1998.37 231.999 2002.74 231.999 L2006.77 231.999 Z" fill="#000000" fill-rule="evenodd" fill-opacity="1" /><path clip-path="url(#clip630)" d="M2013.72 234.731 L2013.72 242.092 L2022.49 242.092 L2022.49 245.402 L2013.72 245.402 L2013.72 259.476 Q2013.72 262.647 2014.57 263.55 Q2015.45 264.453 2018.11 264.453 L2022.49 264.453 L2022.49 268.018 L2018.11 268.018 Q2013.18 268.018 2011.31 266.189 Q2009.43 264.337 2009.43 259.476 L2009.43 245.402 L2006.31 245.402 L2006.31 242.092 L2009.43 242.092 L2009.43 234.731 L2013.72 234.731 Z" fill="#000000" fill-rule="evenodd" fill-opacity="1" /><path clip-path="url(#clip630)" d="M2025.94 253.133 L2038.42 253.133 L2038.42 256.93 L2025.94 256.93 L2025.94 253.133 Z" fill="#000000" fill-rule="evenodd" fill-opacity="1" /><path clip-path="url(#clip630)" d="M2066.1 234.592 L2066.1 239.152 Q2063.44 237.879 2061.08 237.254 Q2058.72 236.629 2056.52 236.629 Q2052.7 236.629 2050.61 238.11 Q2048.55 239.592 2048.55 242.323 Q2048.55 244.615 2049.92 245.795 Q2051.31 246.953 2055.15 247.67 L2057.98 248.249 Q2063.21 249.245 2065.68 251.768 Q2068.18 254.268 2068.18 258.481 Q2068.18 263.504 2064.8 266.096 Q2061.45 268.689 2054.94 268.689 Q2052.49 268.689 2049.71 268.133 Q2046.96 267.578 2043.99 266.49 L2043.99 261.675 Q2046.84 263.272 2049.57 264.082 Q2052.3 264.893 2054.94 264.893 Q2058.95 264.893 2061.12 263.319 Q2063.3 261.744 2063.3 258.828 Q2063.3 256.282 2061.73 254.846 Q2060.17 253.411 2056.61 252.694 L2053.76 252.138 Q2048.53 251.096 2046.19 248.874 Q2043.86 246.652 2043.86 242.694 Q2043.86 238.11 2047.07 235.471 Q2050.31 232.833 2055.98 232.833 Q2058.42 232.833 2060.94 233.272 Q2063.46 233.712 2066.1 234.592 Z" fill="#000000" fill-rule="evenodd" fill-opacity="1" /><path clip-path="url(#clip630)" d="M2075.13 231.999 L2079.41 231.999 L2079.41 253.272 L2092.12 242.092 L2097.56 242.092 L2083.81 254.221 L2098.14 268.018 L2092.58 268.018 L2079.41 255.356 L2079.41 268.018 L2075.13 268.018 L2075.13 231.999 Z" fill="#000000" fill-rule="evenodd" fill-opacity="1" /><path clip-path="url(#clip630)" d="M2123.23 253.99 L2123.23 256.073 L2103.65 256.073 Q2103.92 260.471 2106.29 262.786 Q2108.67 265.078 2112.91 265.078 Q2115.36 265.078 2117.65 264.476 Q2119.97 263.874 2122.23 262.67 L2122.23 266.698 Q2119.94 267.67 2117.54 268.18 Q2115.13 268.689 2112.65 268.689 Q2106.45 268.689 2102.81 265.078 Q2099.2 261.467 2099.2 255.309 Q2099.2 248.944 2102.63 245.217 Q2106.08 241.467 2111.91 241.467 Q2117.14 241.467 2120.17 244.846 Q2123.23 248.203 2123.23 253.99 M2118.97 252.74 Q2118.92 249.245 2117 247.161 Q2115.1 245.078 2111.96 245.078 Q2108.39 245.078 2106.24 247.092 Q2104.11 249.106 2103.79 252.763 L2118.97 252.74 Z" fill="#000000" fill-rule="evenodd" fill-opacity="1" /><path clip-path="url(#clip630)" d="M2127.74 242.092 L2132 242.092 L2137.33 262.323 L2142.63 242.092 L2147.65 242.092 L2152.98 262.323 L2158.28 242.092 L2162.54 242.092 L2155.75 268.018 L2150.73 268.018 L2145.15 246.768 L2139.55 268.018 L2134.53 268.018 L2127.74 242.092 Z" fill="#000000" fill-rule="evenodd" fill-opacity="1" /><path clip-path="url(#clip630)" d="M2191.17 253.99 L2191.17 256.073 L2171.59 256.073 Q2171.86 260.471 2174.22 262.786 Q2176.61 265.078 2180.85 265.078 Q2183.3 265.078 2185.59 264.476 Q2187.91 263.874 2190.17 262.67 L2190.17 266.698 Q2187.88 267.67 2185.47 268.18 Q2183.07 268.689 2180.59 268.689 Q2174.39 268.689 2170.75 265.078 Q2167.14 261.467 2167.14 255.309 Q2167.14 248.944 2170.57 245.217 Q2174.02 241.467 2179.85 241.467 Q2185.08 241.467 2188.11 244.846 Q2191.17 248.203 2191.17 253.99 M2186.91 252.74 Q2186.86 249.245 2184.94 247.161 Q2183.04 245.078 2179.9 245.078 Q2176.33 245.078 2174.18 247.092 Q2172.05 249.106 2171.72 252.763 L2186.91 252.74 Z" fill="#000000" fill-rule="evenodd" fill-opacity="1" /><path clip-path="url(#clip630)" d="M2215.22 246.027 L2215.22 231.999 L2219.48 231.999 L2219.48 268.018 L2215.22 268.018 L2215.22 264.129 Q2213.88 266.443 2211.82 267.578 Q2209.78 268.689 2206.91 268.689 Q2202.21 268.689 2199.25 264.939 Q2196.31 261.189 2196.31 255.078 Q2196.31 248.967 2199.25 245.217 Q2202.21 241.467 2206.91 241.467 Q2209.78 241.467 2211.82 242.601 Q2213.88 243.712 2215.22 246.027 M2200.71 255.078 Q2200.71 259.777 2202.63 262.462 Q2204.57 265.124 2207.95 265.124 Q2211.33 265.124 2213.28 262.462 Q2215.22 259.777 2215.22 255.078 Q2215.22 250.379 2213.28 247.717 Q2211.33 245.032 2207.95 245.032 Q2204.57 245.032 2202.63 247.717 Q2200.71 250.379 2200.71 255.078 Z" fill="#000000" fill-rule="evenodd" fill-opacity="1" /></svg>
