<?xml version="1.0" encoding="utf-8"?>
<svg xmlns="http://www.w3.org/2000/svg" xmlns:xlink="http://www.w3.org/1999/xlink" width="500" height="250" viewBox="0 0 2000 1000">
<defs>
  <clipPath id="clip160">
    <rect x="0" y="0" width="2000" height="1000"/>
  </clipPath>
</defs>
<path clip-path="url(#clip160)" d="
M0 1000 L2000 1000 L2000 0 L0 0  Z
  " fill="#ffffff" fill-rule="evenodd" fill-opacity="1"/>
<defs>
  <clipPath id="clip161">
    <rect x="400" y="0" width="1401" height="1000"/>
  </clipPath>
</defs>
<path clip-path="url(#clip160)" d="
M203.5 849.7 L1952.76 849.7 L1952.76 108.352 L203.5 108.352  Z
  " fill="#ffffff" fill-rule="evenodd" fill-opacity="1"/>
<defs>
  <clipPath id="clip162">
    <rect x="203" y="108" width="1750" height="742"/>
  </clipPath>
</defs>
<polyline clip-path="url(#clip162)" style="stroke:#000000; stroke-linecap:round; stroke-linejoin:round; stroke-width:2; stroke-opacity:0.1; fill:none" points="
  323.919,849.7 323.919,108.352 
  "/>
<polyline clip-path="url(#clip162)" style="stroke:#000000; stroke-linecap:round; stroke-linejoin:round; stroke-width:2; stroke-opacity:0.1; fill:none" points="
  656.24,849.7 656.24,108.352 
  "/>
<polyline clip-path="url(#clip162)" style="stroke:#000000; stroke-linecap:round; stroke-linejoin:round; stroke-width:2; stroke-opacity:0.1; fill:none" points="
  988.56,849.7 988.56,108.352 
  "/>
<polyline clip-path="url(#clip162)" style="stroke:#000000; stroke-linecap:round; stroke-linejoin:round; stroke-width:2; stroke-opacity:0.1; fill:none" points="
  1320.88,849.7 1320.88,108.352 
  "/>
<polyline clip-path="url(#clip162)" style="stroke:#000000; stroke-linecap:round; stroke-linejoin:round; stroke-width:2; stroke-opacity:0.1; fill:none" points="
  1653.2,849.7 1653.2,108.352 
  "/>
<polyline clip-path="url(#clip160)" style="stroke:#000000; stroke-linecap:round; stroke-linejoin:round; stroke-width:4; stroke-opacity:1; fill:none" points="
  203.5,849.7 1952.76,849.7 
  "/>
<polyline clip-path="url(#clip160)" style="stroke:#000000; stroke-linecap:round; stroke-linejoin:round; stroke-width:4; stroke-opacity:1; fill:none" points="
  323.919,849.7 323.919,830.802 
  "/>
<polyline clip-path="url(#clip160)" style="stroke:#000000; stroke-linecap:round; stroke-linejoin:round; stroke-width:4; stroke-opacity:1; fill:none" points="
  656.24,849.7 656.24,830.802 
  "/>
<polyline clip-path="url(#clip160)" style="stroke:#000000; stroke-linecap:round; stroke-linejoin:round; stroke-width:4; stroke-opacity:1; fill:none" points="
  988.56,849.7 988.56,830.802 
  "/>
<polyline clip-path="url(#clip160)" style="stroke:#000000; stroke-linecap:round; stroke-linejoin:round; stroke-width:4; stroke-opacity:1; fill:none" points="
  1320.88,849.7 1320.88,830.802 
  "/>
<polyline clip-path="url(#clip160)" style="stroke:#000000; stroke-linecap:round; stroke-linejoin:round; stroke-width:4; stroke-opacity:1; fill:none" points="
  1653.2,849.7 1653.2,830.802 
  "/>
<path clip-path="url(#clip160)" d="M286.72 877.419 Q283.109 877.419 281.28 880.983 Q279.475 884.525 279.475 891.655 Q279.475 898.761 281.28 902.326 Q283.109 905.867 286.72 905.867 Q290.354 905.867 292.16 902.326 Q293.989 898.761 293.989 891.655 Q293.989 884.525 292.16 880.983 Q290.354 877.419 286.72 877.419 M286.72 873.715 Q292.53 873.715 295.586 878.321 Q298.664 882.905 298.664 891.655 Q298.664 900.381 295.586 904.988 Q292.53 909.571 286.72 909.571 Q280.91 909.571 277.831 904.988 Q274.776 900.381 274.776 891.655 Q274.776 882.905 277.831 878.321 Q280.91 873.715 286.72 873.715 Z" fill="#000000" fill-rule="evenodd" fill-opacity="1" /><path clip-path="url(#clip160)" d="M306.882 903.02 L311.766 903.02 L311.766 908.9 L306.882 908.9 L306.882 903.02 Z" fill="#000000" fill-rule="evenodd" fill-opacity="1" /><path clip-path="url(#clip160)" d="M325.979 904.965 L342.298 904.965 L342.298 908.9 L320.354 908.9 L320.354 904.965 Q323.016 902.21 327.599 897.58 Q332.206 892.928 333.386 891.585 Q335.632 889.062 336.511 887.326 Q337.414 885.567 337.414 883.877 Q337.414 881.122 335.47 879.386 Q333.549 877.65 330.447 877.65 Q328.248 877.65 325.794 878.414 Q323.363 879.178 320.586 880.729 L320.586 876.007 Q323.41 874.872 325.863 874.294 Q328.317 873.715 330.354 873.715 Q335.724 873.715 338.919 876.4 Q342.113 879.085 342.113 883.576 Q342.113 885.706 341.303 887.627 Q340.516 889.525 338.41 892.118 Q337.831 892.789 334.729 896.006 Q331.627 899.201 325.979 904.965 Z" fill="#000000" fill-rule="evenodd" fill-opacity="1" /><path clip-path="url(#clip160)" d="M352.16 874.34 L370.516 874.34 L370.516 878.275 L356.442 878.275 L356.442 886.747 Q357.46 886.4 358.479 886.238 Q359.497 886.053 360.516 886.053 Q366.303 886.053 369.683 889.224 Q373.062 892.395 373.062 897.812 Q373.062 903.391 369.59 906.492 Q366.118 909.571 359.798 909.571 Q357.622 909.571 355.354 909.201 Q353.109 908.83 350.701 908.09 L350.701 903.391 Q352.785 904.525 355.007 905.08 Q357.229 905.636 359.706 905.636 Q363.71 905.636 366.048 903.53 Q368.386 901.423 368.386 897.812 Q368.386 894.201 366.048 892.094 Q363.71 889.988 359.706 889.988 Q357.831 889.988 355.956 890.405 Q354.104 890.821 352.16 891.701 L352.16 874.34 Z" fill="#000000" fill-rule="evenodd" fill-opacity="1" /><path clip-path="url(#clip160)" d="M618.543 877.419 Q614.932 877.419 613.103 880.983 Q611.298 884.525 611.298 891.655 Q611.298 898.761 613.103 902.326 Q614.932 905.867 618.543 905.867 Q622.177 905.867 623.983 902.326 Q625.812 898.761 625.812 891.655 Q625.812 884.525 623.983 880.983 Q622.177 877.419 618.543 877.419 M618.543 873.715 Q624.353 873.715 627.409 878.321 Q630.488 882.905 630.488 891.655 Q630.488 900.381 627.409 904.988 Q624.353 909.571 618.543 909.571 Q612.733 909.571 609.654 904.988 Q606.599 900.381 606.599 891.655 Q606.599 882.905 609.654 878.321 Q612.733 873.715 618.543 873.715 Z" fill="#000000" fill-rule="evenodd" fill-opacity="1" /><path clip-path="url(#clip160)" d="M638.705 903.02 L643.589 903.02 L643.589 908.9 L638.705 908.9 L638.705 903.02 Z" fill="#000000" fill-rule="evenodd" fill-opacity="1" /><path clip-path="url(#clip160)" d="M653.821 874.34 L672.177 874.34 L672.177 878.275 L658.103 878.275 L658.103 886.747 Q659.122 886.4 660.14 886.238 Q661.159 886.053 662.177 886.053 Q667.964 886.053 671.344 889.224 Q674.723 892.395 674.723 897.812 Q674.723 903.391 671.251 906.492 Q667.779 909.571 661.46 909.571 Q659.284 909.571 657.015 909.201 Q654.77 908.83 652.362 908.09 L652.362 903.391 Q654.446 904.525 656.668 905.08 Q658.89 905.636 661.367 905.636 Q665.372 905.636 667.71 903.53 Q670.047 901.423 670.047 897.812 Q670.047 894.201 667.71 892.094 Q665.372 889.988 661.367 889.988 Q659.492 889.988 657.617 890.405 Q655.765 890.821 653.821 891.701 L653.821 874.34 Z" fill="#000000" fill-rule="evenodd" fill-opacity="1" /><path clip-path="url(#clip160)" d="M693.936 877.419 Q690.325 877.419 688.496 880.983 Q686.691 884.525 686.691 891.655 Q686.691 898.761 688.496 902.326 Q690.325 905.867 693.936 905.867 Q697.571 905.867 699.376 902.326 Q701.205 898.761 701.205 891.655 Q701.205 884.525 699.376 880.983 Q697.571 877.419 693.936 877.419 M693.936 873.715 Q699.746 873.715 702.802 878.321 Q705.881 882.905 705.881 891.655 Q705.881 900.381 702.802 904.988 Q699.746 909.571 693.936 909.571 Q688.126 909.571 685.047 904.988 Q681.992 900.381 681.992 891.655 Q681.992 882.905 685.047 878.321 Q688.126 873.715 693.936 873.715 Z" fill="#000000" fill-rule="evenodd" fill-opacity="1" /><path clip-path="url(#clip160)" d="M951.362 877.419 Q947.75 877.419 945.922 880.983 Q944.116 884.525 944.116 891.655 Q944.116 898.761 945.922 902.326 Q947.75 905.867 951.362 905.867 Q954.996 905.867 956.801 902.326 Q958.63 898.761 958.63 891.655 Q958.63 884.525 956.801 880.983 Q954.996 877.419 951.362 877.419 M951.362 873.715 Q957.172 873.715 960.227 878.321 Q963.306 882.905 963.306 891.655 Q963.306 900.381 960.227 904.988 Q957.172 909.571 951.362 909.571 Q945.551 909.571 942.473 904.988 Q939.417 900.381 939.417 891.655 Q939.417 882.905 942.473 878.321 Q945.551 873.715 951.362 873.715 Z" fill="#000000" fill-rule="evenodd" fill-opacity="1" /><path clip-path="url(#clip160)" d="M971.524 903.02 L976.408 903.02 L976.408 908.9 L971.524 908.9 L971.524 903.02 Z" fill="#000000" fill-rule="evenodd" fill-opacity="1" /><path clip-path="url(#clip160)" d="M985.412 874.34 L1007.63 874.34 L1007.63 876.331 L995.088 908.9 L990.204 908.9 L1002.01 878.275 L985.412 878.275 L985.412 874.34 Z" fill="#000000" fill-rule="evenodd" fill-opacity="1" /><path clip-path="url(#clip160)" d="M1016.8 874.34 L1035.16 874.34 L1035.16 878.275 L1021.08 878.275 L1021.08 886.747 Q1022.1 886.4 1023.12 886.238 Q1024.14 886.053 1025.16 886.053 Q1030.94 886.053 1034.32 889.224 Q1037.7 892.395 1037.7 897.812 Q1037.7 903.391 1034.23 906.492 Q1030.76 909.571 1024.44 909.571 Q1022.26 909.571 1020 909.201 Q1017.75 908.83 1015.34 908.09 L1015.34 903.391 Q1017.43 904.525 1019.65 905.08 Q1021.87 905.636 1024.35 905.636 Q1028.35 905.636 1030.69 903.53 Q1033.03 901.423 1033.03 897.812 Q1033.03 894.201 1030.69 892.094 Q1028.35 889.988 1024.35 889.988 Q1022.47 889.988 1020.6 890.405 Q1018.75 890.821 1016.8 891.701 L1016.8 874.34 Z" fill="#000000" fill-rule="evenodd" fill-opacity="1" /><path clip-path="url(#clip160)" d="M1272.95 904.965 L1280.59 904.965 L1280.59 878.599 L1272.28 880.266 L1272.28 876.007 L1280.55 874.34 L1285.22 874.34 L1285.22 904.965 L1292.86 904.965 L1292.86 908.9 L1272.95 908.9 L1272.95 904.965 Z" fill="#000000" fill-rule="evenodd" fill-opacity="1" /><path clip-path="url(#clip160)" d="M1302.3 903.02 L1307.19 903.02 L1307.19 908.9 L1302.3 908.9 L1302.3 903.02 Z" fill="#000000" fill-rule="evenodd" fill-opacity="1" /><path clip-path="url(#clip160)" d="M1327.37 877.419 Q1323.76 877.419 1321.93 880.983 Q1320.13 884.525 1320.13 891.655 Q1320.13 898.761 1321.93 902.326 Q1323.76 905.867 1327.37 905.867 Q1331.01 905.867 1332.81 902.326 Q1334.64 898.761 1334.64 891.655 Q1334.64 884.525 1332.81 880.983 Q1331.01 877.419 1327.37 877.419 M1327.37 873.715 Q1333.18 873.715 1336.24 878.321 Q1339.32 882.905 1339.32 891.655 Q1339.32 900.381 1336.24 904.988 Q1333.18 909.571 1327.37 909.571 Q1321.56 909.571 1318.49 904.988 Q1315.43 900.381 1315.43 891.655 Q1315.43 882.905 1318.49 878.321 Q1321.56 873.715 1327.37 873.715 Z" fill="#000000" fill-rule="evenodd" fill-opacity="1" /><path clip-path="url(#clip160)" d="M1357.54 877.419 Q1353.93 877.419 1352.1 880.983 Q1350.29 884.525 1350.29 891.655 Q1350.29 898.761 1352.1 902.326 Q1353.93 905.867 1357.54 905.867 Q1361.17 905.867 1362.98 902.326 Q1364.8 898.761 1364.8 891.655 Q1364.8 884.525 1362.98 880.983 Q1361.17 877.419 1357.54 877.419 M1357.54 873.715 Q1363.35 873.715 1366.4 878.321 Q1369.48 882.905 1369.48 891.655 Q1369.48 900.381 1366.4 904.988 Q1363.35 909.571 1357.54 909.571 Q1351.73 909.571 1348.65 904.988 Q1345.59 900.381 1345.59 891.655 Q1345.59 882.905 1348.65 878.321 Q1351.73 873.715 1357.54 873.715 Z" fill="#000000" fill-rule="evenodd" fill-opacity="1" /><path clip-path="url(#clip160)" d="M1605.77 904.965 L1613.41 904.965 L1613.41 878.599 L1605.1 880.266 L1605.1 876.007 L1613.36 874.34 L1618.04 874.34 L1618.04 904.965 L1625.68 904.965 L1625.68 908.9 L1605.77 908.9 L1605.77 904.965 Z" fill="#000000" fill-rule="evenodd" fill-opacity="1" /><path clip-path="url(#clip160)" d="M1635.12 903.02 L1640.01 903.02 L1640.01 908.9 L1635.12 908.9 L1635.12 903.02 Z" fill="#000000" fill-rule="evenodd" fill-opacity="1" /><path clip-path="url(#clip160)" d="M1654.22 904.965 L1670.54 904.965 L1670.54 908.9 L1648.6 908.9 L1648.6 904.965 Q1651.26 902.21 1655.84 897.58 Q1660.45 892.928 1661.63 891.585 Q1663.87 889.062 1664.75 887.326 Q1665.66 885.567 1665.66 883.877 Q1665.66 881.122 1663.71 879.386 Q1661.79 877.65 1658.69 877.65 Q1656.49 877.65 1654.04 878.414 Q1651.6 879.178 1648.83 880.729 L1648.83 876.007 Q1651.65 874.872 1654.1 874.294 Q1656.56 873.715 1658.6 873.715 Q1663.97 873.715 1667.16 876.4 Q1670.35 879.085 1670.35 883.576 Q1670.35 885.706 1669.54 887.627 Q1668.76 889.525 1666.65 892.118 Q1666.07 892.789 1662.97 896.006 Q1659.87 899.201 1654.22 904.965 Z" fill="#000000" fill-rule="evenodd" fill-opacity="1" /><path clip-path="url(#clip160)" d="M1680.4 874.34 L1698.76 874.34 L1698.76 878.275 L1684.68 878.275 L1684.68 886.747 Q1685.7 886.4 1686.72 886.238 Q1687.74 886.053 1688.76 886.053 Q1694.54 886.053 1697.92 889.224 Q1701.3 892.395 1701.3 897.812 Q1701.3 903.391 1697.83 906.492 Q1694.36 909.571 1688.04 909.571 Q1685.86 909.571 1683.6 909.201 Q1681.35 908.83 1678.94 908.09 L1678.94 903.391 Q1681.03 904.525 1683.25 905.08 Q1685.47 905.636 1687.95 905.636 Q1691.95 905.636 1694.29 903.53 Q1696.63 901.423 1696.63 897.812 Q1696.63 894.201 1694.29 892.094 Q1691.95 889.988 1687.95 889.988 Q1686.07 889.988 1684.2 890.405 Q1682.35 890.821 1680.4 891.701 L1680.4 874.34 Z" fill="#000000" fill-rule="evenodd" fill-opacity="1" /><path clip-path="url(#clip160)" d="M891.008 942.603 L891.008 948.874 Q887.348 947.123 884.101 946.264 Q880.855 945.404 877.831 945.404 Q872.579 945.404 869.715 947.441 Q866.882 949.478 866.882 953.234 Q866.882 956.385 868.76 958.008 Q870.67 959.6 875.953 960.587 L879.836 961.382 Q887.03 962.751 890.435 966.22 Q893.873 969.658 893.873 975.45 Q893.873 982.357 889.226 985.922 Q884.611 989.487 875.667 989.487 Q872.293 989.487 868.473 988.723 Q864.686 987.959 860.612 986.463 L860.612 979.843 Q864.527 982.039 868.283 983.153 Q872.038 984.267 875.667 984.267 Q881.173 984.267 884.165 982.103 Q887.157 979.938 887.157 975.928 Q887.157 972.427 884.992 970.453 Q882.86 968.48 877.958 967.493 L874.043 966.729 Q866.85 965.297 863.636 962.242 Q860.421 959.186 860.421 953.743 Q860.421 947.441 864.845 943.813 Q869.301 940.184 877.099 940.184 Q880.441 940.184 883.91 940.789 Q887.38 941.394 891.008 942.603 Z" fill="#000000" fill-rule="evenodd" fill-opacity="1" /><path clip-path="url(#clip160)" d="M919.845 970.644 Q912.747 970.644 910.01 972.268 Q907.272 973.891 907.272 977.806 Q907.272 980.925 909.309 982.771 Q911.378 984.585 914.911 984.585 Q919.781 984.585 922.709 981.148 Q925.669 977.678 925.669 971.949 L925.669 970.644 L919.845 970.644 M931.526 968.225 L931.526 988.564 L925.669 988.564 L925.669 983.153 Q923.664 986.4 920.672 987.959 Q917.68 989.487 913.352 989.487 Q907.877 989.487 904.631 986.431 Q901.416 983.344 901.416 978.188 Q901.416 972.172 905.426 969.117 Q909.469 966.061 917.458 966.061 L925.669 966.061 L925.669 965.488 Q925.669 961.446 922.996 959.25 Q920.354 957.022 915.548 957.022 Q912.492 957.022 909.596 957.754 Q906.7 958.486 904.026 959.95 L904.026 954.539 Q907.241 953.298 910.264 952.693 Q913.288 952.057 916.153 952.057 Q923.887 952.057 927.706 956.067 Q931.526 960.077 931.526 968.225 Z" fill="#000000" fill-rule="evenodd" fill-opacity="1" /><path clip-path="url(#clip160)" d="M971.343 959.759 Q973.539 955.812 976.595 953.934 Q979.651 952.057 983.788 952.057 Q989.358 952.057 992.382 955.971 Q995.406 959.855 995.406 967.048 L995.406 988.564 L989.517 988.564 L989.517 967.239 Q989.517 962.114 987.703 959.632 Q985.889 957.149 982.165 957.149 Q977.614 957.149 974.972 960.173 Q972.33 963.197 972.33 968.416 L972.33 988.564 L966.442 988.564 L966.442 967.239 Q966.442 962.083 964.627 959.632 Q962.813 957.149 959.026 957.149 Q954.538 957.149 951.896 960.205 Q949.254 963.228 949.254 968.416 L949.254 988.564 L943.366 988.564 L943.366 952.916 L949.254 952.916 L949.254 958.454 Q951.259 955.176 954.06 953.616 Q956.861 952.057 960.713 952.057 Q964.596 952.057 967.301 954.03 Q970.038 956.003 971.343 959.759 Z" fill="#000000" fill-rule="evenodd" fill-opacity="1" /><path clip-path="url(#clip160)" d="M1012.75 983.217 L1012.75 1002.12 L1006.86 1002.12 L1006.86 952.916 L1012.75 952.916 L1012.75 958.327 Q1014.6 955.144 1017.4 953.616 Q1020.23 952.057 1024.15 952.057 Q1030.64 952.057 1034.68 957.213 Q1038.76 962.369 1038.76 970.772 Q1038.76 979.174 1034.68 984.331 Q1030.64 989.487 1024.15 989.487 Q1020.23 989.487 1017.4 987.959 Q1014.6 986.4 1012.75 983.217 M1032.68 970.772 Q1032.68 964.311 1030 960.65 Q1027.36 956.958 1022.71 956.958 Q1018.07 956.958 1015.39 960.65 Q1012.75 964.311 1012.75 970.772 Q1012.75 977.233 1015.39 980.925 Q1018.07 984.585 1022.71 984.585 Q1027.36 984.585 1030 980.925 Q1032.68 977.233 1032.68 970.772 Z" fill="#000000" fill-rule="evenodd" fill-opacity="1" /><path clip-path="url(#clip160)" d="M1048.46 939.039 L1054.32 939.039 L1054.32 988.564 L1048.46 988.564 L1048.46 939.039 Z" fill="#000000" fill-rule="evenodd" fill-opacity="1" /><path clip-path="url(#clip160)" d="M1097.07 969.276 L1097.07 972.14 L1070.14 972.14 Q1070.52 978.188 1073.77 981.371 Q1077.05 984.522 1082.87 984.522 Q1086.24 984.522 1089.4 983.694 Q1092.58 982.867 1095.7 981.211 L1095.7 986.75 Q1092.55 988.086 1089.24 988.787 Q1085.93 989.487 1082.52 989.487 Q1073.99 989.487 1068.99 984.522 Q1064.03 979.556 1064.03 971.09 Q1064.03 962.337 1068.74 957.213 Q1073.48 952.057 1081.5 952.057 Q1088.7 952.057 1092.86 956.703 Q1097.07 961.319 1097.07 969.276 M1091.21 967.557 Q1091.15 962.751 1088.5 959.886 Q1085.89 957.022 1081.57 957.022 Q1076.66 957.022 1073.7 959.791 Q1070.78 962.56 1070.33 967.589 L1091.21 967.557 Z" fill="#000000" fill-rule="evenodd" fill-opacity="1" /><path clip-path="url(#clip160)" d="M1123.2 952.916 L1129.4 952.916 L1140.54 982.835 L1151.68 952.916 L1157.89 952.916 L1144.52 988.564 L1136.57 988.564 L1123.2 952.916 Z" fill="#000000" fill-rule="evenodd" fill-opacity="1" /><path clip-path="url(#clip160)" d="M1182.18 970.644 Q1175.08 970.644 1172.34 972.268 Q1169.6 973.891 1169.6 977.806 Q1169.6 980.925 1171.64 982.771 Q1173.71 984.585 1177.24 984.585 Q1182.11 984.585 1185.04 981.148 Q1188 977.678 1188 971.949 L1188 970.644 L1182.18 970.644 M1193.86 968.225 L1193.86 988.564 L1188 988.564 L1188 983.153 Q1185.99 986.4 1183 987.959 Q1180.01 989.487 1175.68 989.487 Q1170.21 989.487 1166.96 986.431 Q1163.75 983.344 1163.75 978.188 Q1163.75 972.172 1167.76 969.117 Q1171.8 966.061 1179.79 966.061 L1188 966.061 L1188 965.488 Q1188 961.446 1185.33 959.25 Q1182.68 957.022 1177.88 957.022 Q1174.82 957.022 1171.93 957.754 Q1169.03 958.486 1166.36 959.95 L1166.36 954.539 Q1169.57 953.298 1172.6 952.693 Q1175.62 952.057 1178.48 952.057 Q1186.22 952.057 1190.04 956.067 Q1193.86 960.077 1193.86 968.225 Z" fill="#000000" fill-rule="evenodd" fill-opacity="1" /><path clip-path="url(#clip160)" d="M1205.92 939.039 L1211.78 939.039 L1211.78 988.564 L1205.92 988.564 L1205.92 939.039 Z" fill="#000000" fill-rule="evenodd" fill-opacity="1" /><path clip-path="url(#clip160)" d="M1223.43 974.496 L1223.43 952.916 L1229.28 952.916 L1229.28 974.273 Q1229.28 979.334 1231.26 981.88 Q1233.23 984.394 1237.18 984.394 Q1241.92 984.394 1244.65 981.371 Q1247.42 978.347 1247.42 973.127 L1247.42 952.916 L1253.28 952.916 L1253.28 988.564 L1247.42 988.564 L1247.42 983.089 Q1245.29 986.336 1242.46 987.927 Q1239.66 989.487 1235.93 989.487 Q1229.79 989.487 1226.61 985.667 Q1223.43 981.848 1223.43 974.496 M1238.16 952.057 L1238.16 952.057 Z" fill="#000000" fill-rule="evenodd" fill-opacity="1" /><path clip-path="url(#clip160)" d="M1295.84 969.276 L1295.84 972.14 L1268.91 972.14 Q1269.29 978.188 1272.54 981.371 Q1275.82 984.522 1281.64 984.522 Q1285.01 984.522 1288.16 983.694 Q1291.35 982.867 1294.47 981.211 L1294.47 986.75 Q1291.32 988.086 1288.01 988.787 Q1284.7 989.487 1281.29 989.487 Q1272.76 989.487 1267.76 984.522 Q1262.8 979.556 1262.8 971.09 Q1262.8 962.337 1267.51 957.213 Q1272.25 952.057 1280.27 952.057 Q1287.46 952.057 1291.63 956.703 Q1295.84 961.319 1295.84 969.276 M1289.98 967.557 Q1289.92 962.751 1287.27 959.886 Q1284.66 957.022 1280.33 957.022 Q1275.43 957.022 1272.47 959.791 Q1269.54 962.56 1269.1 967.589 L1289.98 967.557 Z" fill="#000000" fill-rule="evenodd" fill-opacity="1" /><polyline clip-path="url(#clip162)" style="stroke:#000000; stroke-linecap:round; stroke-linejoin:round; stroke-width:2; stroke-opacity:0.1; fill:none" points="
  203.5,840.704 1952.76,840.704 
  "/>
<polyline clip-path="url(#clip162)" style="stroke:#000000; stroke-linecap:round; stroke-linejoin:round; stroke-width:2; stroke-opacity:0.1; fill:none" points="
  203.5,640.5 1952.76,640.5 
  "/>
<polyline clip-path="url(#clip162)" style="stroke:#000000; stroke-linecap:round; stroke-linejoin:round; stroke-width:2; stroke-opacity:0.1; fill:none" points="
  203.5,440.296 1952.76,440.296 
  "/>
<polyline clip-path="url(#clip162)" style="stroke:#000000; stroke-linecap:round; stroke-linejoin:round; stroke-width:2; stroke-opacity:0.1; fill:none" points="
  203.5,240.092 1952.76,240.092 
  "/>
<polyline clip-path="url(#clip160)" style="stroke:#000000; stroke-linecap:round; stroke-linejoin:round; stroke-width:4; stroke-opacity:1; fill:none" points="
  203.5,849.7 203.5,108.352 
  "/>
<polyline clip-path="url(#clip160)" style="stroke:#000000; stroke-linecap:round; stroke-linejoin:round; stroke-width:4; stroke-opacity:1; fill:none" points="
  203.5,840.704 222.398,840.704 
  "/>
<polyline clip-path="url(#clip160)" style="stroke:#000000; stroke-linecap:round; stroke-linejoin:round; stroke-width:4; stroke-opacity:1; fill:none" points="
  203.5,640.5 222.398,640.5 
  "/>
<polyline clip-path="url(#clip160)" style="stroke:#000000; stroke-linecap:round; stroke-linejoin:round; stroke-width:4; stroke-opacity:1; fill:none" points="
  203.5,440.296 222.398,440.296 
  "/>
<polyline clip-path="url(#clip160)" style="stroke:#000000; stroke-linecap:round; stroke-linejoin:round; stroke-width:4; stroke-opacity:1; fill:none" points="
  203.5,240.092 222.398,240.092 
  "/>
<path clip-path="url(#clip160)" d="M116.325 826.503 Q112.713 826.503 110.885 830.068 Q109.079 833.609 109.079 840.739 Q109.079 847.845 110.885 851.41 Q112.713 854.952 116.325 854.952 Q119.959 854.952 121.764 851.41 Q123.593 847.845 123.593 840.739 Q123.593 833.609 121.764 830.068 Q119.959 826.503 116.325 826.503 M116.325 822.799 Q122.135 822.799 125.19 827.406 Q128.269 831.989 128.269 840.739 Q128.269 849.466 125.19 854.072 Q122.135 858.656 116.325 858.656 Q110.514 858.656 107.436 854.072 Q104.38 849.466 104.38 840.739 Q104.38 831.989 107.436 827.406 Q110.514 822.799 116.325 822.799 Z" fill="#000000" fill-rule="evenodd" fill-opacity="1" /><path clip-path="url(#clip160)" d="M136.486 852.105 L141.371 852.105 L141.371 857.984 L136.486 857.984 L136.486 852.105 Z" fill="#000000" fill-rule="evenodd" fill-opacity="1" /><path clip-path="url(#clip160)" d="M161.556 826.503 Q157.945 826.503 156.116 830.068 Q154.31 833.609 154.31 840.739 Q154.31 847.845 156.116 851.41 Q157.945 854.952 161.556 854.952 Q165.19 854.952 166.996 851.41 Q168.824 847.845 168.824 840.739 Q168.824 833.609 166.996 830.068 Q165.19 826.503 161.556 826.503 M161.556 822.799 Q167.366 822.799 170.421 827.406 Q173.5 831.989 173.5 840.739 Q173.5 849.466 170.421 854.072 Q167.366 858.656 161.556 858.656 Q155.746 858.656 152.667 854.072 Q149.611 849.466 149.611 840.739 Q149.611 831.989 152.667 827.406 Q155.746 822.799 161.556 822.799 Z" fill="#000000" fill-rule="evenodd" fill-opacity="1" /><path clip-path="url(#clip160)" d="M117.32 626.299 Q113.709 626.299 111.88 629.864 Q110.075 633.405 110.075 640.535 Q110.075 647.641 111.88 651.206 Q113.709 654.748 117.32 654.748 Q120.954 654.748 122.76 651.206 Q124.588 647.641 124.588 640.535 Q124.588 633.405 122.76 629.864 Q120.954 626.299 117.32 626.299 M117.32 622.595 Q123.13 622.595 126.186 627.202 Q129.264 631.785 129.264 640.535 Q129.264 649.262 126.186 653.868 Q123.13 658.451 117.32 658.451 Q111.51 658.451 108.431 653.868 Q105.376 649.262 105.376 640.535 Q105.376 631.785 108.431 627.202 Q111.51 622.595 117.32 622.595 Z" fill="#000000" fill-rule="evenodd" fill-opacity="1" /><path clip-path="url(#clip160)" d="M137.482 651.9 L142.366 651.9 L142.366 657.78 L137.482 657.78 L137.482 651.9 Z" fill="#000000" fill-rule="evenodd" fill-opacity="1" /><path clip-path="url(#clip160)" d="M152.597 623.22 L170.954 623.22 L170.954 627.155 L156.88 627.155 L156.88 635.627 Q157.898 635.28 158.917 635.118 Q159.935 634.933 160.954 634.933 Q166.741 634.933 170.121 638.104 Q173.5 641.276 173.5 646.692 Q173.5 652.271 170.028 655.373 Q166.556 658.451 160.236 658.451 Q158.06 658.451 155.792 658.081 Q153.547 657.711 151.139 656.97 L151.139 652.271 Q153.222 653.405 155.445 653.961 Q157.667 654.516 160.144 654.516 Q164.148 654.516 166.486 652.41 Q168.824 650.303 168.824 646.692 Q168.824 643.081 166.486 640.975 Q164.148 638.868 160.144 638.868 Q158.269 638.868 156.394 639.285 Q154.542 639.701 152.597 640.581 L152.597 623.22 Z" fill="#000000" fill-rule="evenodd" fill-opacity="1" /><path clip-path="url(#clip160)" d="M107.135 453.641 L114.774 453.641 L114.774 427.275 L106.463 428.942 L106.463 424.683 L114.727 423.016 L119.403 423.016 L119.403 453.641 L127.042 453.641 L127.042 457.576 L107.135 457.576 L107.135 453.641 Z" fill="#000000" fill-rule="evenodd" fill-opacity="1" /><path clip-path="url(#clip160)" d="M136.486 451.696 L141.371 451.696 L141.371 457.576 L136.486 457.576 L136.486 451.696 Z" fill="#000000" fill-rule="evenodd" fill-opacity="1" /><path clip-path="url(#clip160)" d="M161.556 426.095 Q157.945 426.095 156.116 429.659 Q154.31 433.201 154.31 440.331 Q154.31 447.437 156.116 451.002 Q157.945 454.543 161.556 454.543 Q165.19 454.543 166.996 451.002 Q168.824 447.437 168.824 440.331 Q168.824 433.201 166.996 429.659 Q165.19 426.095 161.556 426.095 M161.556 422.391 Q167.366 422.391 170.421 426.997 Q173.5 431.581 173.5 440.331 Q173.5 449.057 170.421 453.664 Q167.366 458.247 161.556 458.247 Q155.746 458.247 152.667 453.664 Q149.611 449.057 149.611 440.331 Q149.611 431.581 152.667 426.997 Q155.746 422.391 161.556 422.391 Z" fill="#000000" fill-rule="evenodd" fill-opacity="1" /><path clip-path="url(#clip160)" d="M108.13 253.436 L115.769 253.436 L115.769 227.071 L107.459 228.738 L107.459 224.478 L115.723 222.812 L120.399 222.812 L120.399 253.436 L128.037 253.436 L128.037 257.372 L108.13 257.372 L108.13 253.436 Z" fill="#000000" fill-rule="evenodd" fill-opacity="1" /><path clip-path="url(#clip160)" d="M137.482 251.492 L142.366 251.492 L142.366 257.372 L137.482 257.372 L137.482 251.492 Z" fill="#000000" fill-rule="evenodd" fill-opacity="1" /><path clip-path="url(#clip160)" d="M152.597 222.812 L170.954 222.812 L170.954 226.747 L156.88 226.747 L156.88 235.219 Q157.898 234.872 158.917 234.71 Q159.935 234.525 160.954 234.525 Q166.741 234.525 170.121 237.696 Q173.5 240.867 173.5 246.284 Q173.5 251.862 170.028 254.964 Q166.556 258.043 160.236 258.043 Q158.06 258.043 155.792 257.673 Q153.547 257.302 151.139 256.561 L151.139 251.862 Q153.222 252.997 155.445 253.552 Q157.667 254.108 160.144 254.108 Q164.148 254.108 166.486 252.001 Q168.824 249.895 168.824 246.284 Q168.824 242.673 166.486 240.566 Q164.148 238.46 160.144 238.46 Q158.269 238.46 156.394 238.876 Q154.542 239.293 152.597 240.173 L152.597 222.812 Z" fill="#000000" fill-rule="evenodd" fill-opacity="1" /><path clip-path="url(#clip160)" d="M17.8877 592.336 L54.8406 592.336 L54.8406 584.569 Q54.8406 574.734 50.3846 570.183 Q45.9286 565.6 36.3164 565.6 Q26.7679 565.6 22.3437 570.183 Q17.8877 574.734 17.8877 584.569 L17.8877 592.336 M12.6042 598.765 L12.6042 585.556 Q12.6042 571.743 18.3651 565.281 Q24.0943 558.82 36.3164 558.82 Q48.6022 558.82 54.3632 565.313 Q60.1242 571.806 60.1242 585.556 L60.1242 598.765 L12.6042 598.765 Z" fill="#000000" fill-rule="evenodd" fill-opacity="1" /><path clip-path="url(#clip160)" d="M40.8361 518.334 L43.7006 518.334 L43.7006 545.261 Q49.7481 544.879 52.9309 541.633 Q56.0819 538.354 56.0819 532.53 Q56.0819 529.156 55.2544 526.005 Q54.4269 522.822 52.7718 519.703 L58.3099 519.703 Q59.6467 522.854 60.347 526.164 Q61.0472 529.474 61.0472 532.88 Q61.0472 541.41 56.0819 546.407 Q51.1167 551.372 42.6503 551.372 Q33.8974 551.372 28.7731 546.662 Q23.6168 541.919 23.6168 533.898 Q23.6168 526.705 28.2638 522.536 Q32.8789 518.334 40.8361 518.334 M39.1173 524.191 Q34.3112 524.254 31.4466 526.896 Q28.5821 529.506 28.5821 533.835 Q28.5821 538.736 31.3512 541.696 Q34.1202 544.625 39.1492 545.07 L39.1173 524.191 Z" fill="#000000" fill-rule="evenodd" fill-opacity="1" /><path clip-path="url(#clip160)" d="M38.6081 479.09 L60.1242 479.09 L60.1242 484.946 L38.799 484.946 Q33.7383 484.946 31.2238 486.919 Q28.7094 488.893 28.7094 492.84 Q28.7094 497.582 31.7331 500.319 Q34.7568 503.057 39.9767 503.057 L60.1242 503.057 L60.1242 508.945 L24.4762 508.945 L24.4762 503.057 L30.0144 503.057 Q26.7997 500.956 25.2083 498.123 Q23.6168 495.259 23.6168 491.535 Q23.6168 485.392 27.4363 482.241 Q31.2238 479.09 38.6081 479.09 Z" fill="#000000" fill-rule="evenodd" fill-opacity="1" /><path clip-path="url(#clip160)" d="M25.5265 444.683 L31.0647 444.683 Q29.7916 447.166 29.155 449.839 Q28.5184 452.513 28.5184 455.377 Q28.5184 459.738 29.8552 461.934 Q31.192 464.098 33.8656 464.098 Q35.9026 464.098 37.0803 462.539 Q38.2261 460.979 39.2765 456.269 L39.7221 454.263 Q41.0589 448.025 43.5097 445.415 Q45.9286 442.773 50.2891 442.773 Q55.2544 442.773 58.1508 446.72 Q61.0472 450.635 61.0472 457.51 Q61.0472 460.374 60.4743 463.494 Q59.9332 466.581 58.8192 470.019 L52.7718 470.019 Q54.4587 466.772 55.318 463.621 Q56.1456 460.47 56.1456 457.383 Q56.1456 453.245 54.7451 451.017 Q53.3129 448.789 50.7347 448.789 Q48.3476 448.789 47.0745 450.412 Q45.8013 452.004 44.6237 457.446 L44.1462 459.483 Q43.0004 464.926 40.6451 467.345 Q38.258 469.764 34.1202 469.764 Q29.0913 469.764 26.3541 466.199 Q23.6168 462.634 23.6168 456.078 Q23.6168 452.831 24.0943 449.967 Q24.5717 447.102 25.5265 444.683 Z" fill="#000000" fill-rule="evenodd" fill-opacity="1" /><path clip-path="url(#clip160)" d="M24.4762 433.448 L24.4762 427.591 L60.1242 427.591 L60.1242 433.448 L24.4762 433.448 M10.599 433.448 L10.599 427.591 L18.015 427.591 L18.015 433.448 L10.599 433.448 Z" fill="#000000" fill-rule="evenodd" fill-opacity="1" /><path clip-path="url(#clip160)" d="M14.3547 409.544 L24.4762 409.544 L24.4762 397.481 L29.0277 397.481 L29.0277 409.544 L48.3794 409.544 Q52.7399 409.544 53.9813 408.367 Q55.2226 407.157 55.2226 403.497 L55.2226 397.481 L60.1242 397.481 L60.1242 403.497 Q60.1242 410.276 57.6097 412.854 Q55.0634 415.433 48.3794 415.433 L29.0277 415.433 L29.0277 419.729 L24.4762 419.729 L24.4762 415.433 L14.3547 415.433 L14.3547 409.544 Z" fill="#000000" fill-rule="evenodd" fill-opacity="1" /><path clip-path="url(#clip160)" d="M63.4343 374.947 Q69.8 377.429 71.7416 379.785 Q73.6831 382.14 73.6831 386.087 L73.6831 390.765 L68.7815 390.765 L68.7815 387.328 Q68.7815 384.909 67.6357 383.572 Q66.4899 382.235 62.2248 380.612 L59.5512 379.562 L24.4762 393.98 L24.4762 387.774 L52.358 376.634 L24.4762 365.494 L24.4762 359.287 L63.4343 374.947 Z" fill="#000000" fill-rule="evenodd" fill-opacity="1" /><path clip-path="url(#clip160)" d="M1099.27 27.2059 L1082.87 49.2833 L1100.12 72.576 L1091.33 72.576 L1078.13 54.752 L1064.92 72.576 L1056.13 72.576 L1073.75 48.8377 L1057.63 27.2059 L1066.42 27.2059 L1078.45 43.369 L1090.48 27.2059 L1099.27 27.2059 Z" fill="#000000" fill-rule="evenodd" fill-opacity="1" /><polyline clip-path="url(#clip162)" style="stroke:#009af9; stroke-linecap:round; stroke-linejoin:round; stroke-width:12; stroke-opacity:1; fill:none" points="
  260.973,807.797 271.76,803.427 282.547,799.101 293.334,794.891 304.121,790.856 314.908,787.035 325.694,783.448 336.481,780.098 347.268,776.974 358.055,774.054 
  368.842,771.307 379.629,768.697 390.416,766.181 401.203,763.715 411.99,761.247 422.777,758.722 433.564,756.077 444.351,753.241 455.138,750.138 465.925,746.684 
  476.712,742.798 487.498,738.406 498.285,733.448 509.072,727.893 519.859,721.744 530.646,715.043 541.433,707.876 552.22,700.365 563.007,692.662 573.794,684.939 
  584.581,677.369 595.368,670.112 606.155,663.303 616.942,657.035 627.729,651.355 638.515,646.253 649.302,641.662 660.089,637.464 670.876,633.494 681.663,629.554 
  692.45,625.432 703.237,620.918 714.024,615.825 724.811,610.006 735.598,603.366 746.385,595.865 757.172,587.514 767.959,578.357 778.746,568.449 789.533,557.835 
  800.319,546.515 811.106,534.434 821.893,521.472 832.68,507.449 843.467,492.149 854.254,475.356 865.041,456.888 875.828,436.647 886.615,414.643 897.402,391.022 
  908.189,366.063 918.976,340.171 929.763,313.841 940.55,287.631 951.336,262.112 962.123,237.842 972.91,215.323 983.697,194.986 994.484,177.171 1005.27,162.115 
  1016.06,149.953 1026.85,140.711 1037.63,134.315 1048.42,130.602 1059.21,129.334 1069.99,130.226 1080.78,132.972 1091.57,137.274 1102.35,142.87 1113.14,149.555 
  1123.93,157.192 1134.71,165.708 1145.5,175.088 1156.29,185.35 1167.08,196.522 1177.86,208.615 1188.65,221.598 1199.44,235.387 1210.22,249.826 1221.01,264.699 
  1231.8,279.729 1242.58,294.602 1253.37,308.986 1264.16,322.55 1274.94,334.99 1285.73,346.046 1296.52,355.511 1307.31,363.243 1318.09,369.168 1328.88,373.277 
  1339.67,375.634 1350.45,376.369 1361.24,375.685 1372.03,373.853 1382.81,371.212 1393.6,368.161 1404.39,365.141 1415.17,362.614 1425.96,361.03 1436.75,360.801 
  1447.54,362.261 1458.32,365.649 1469.11,371.092 1479.9,378.598 1490.68,388.075 1501.47,399.341 1512.26,412.157 1523.04,426.247 1533.83,441.323 1544.62,457.104 
  1555.4,473.319 1566.19,489.72 1576.98,506.078 1587.77,522.19 1598.55,537.88 1609.34,553.01 1620.13,567.488 1630.91,581.274 1641.7,594.389 1652.49,606.912 
  1663.27,618.969 1674.06,630.724 1684.85,642.352 1695.63,654.019 1706.42,665.861 1717.21,677.966 1728,690.359 1738.78,703.005 1749.57,715.805 1760.36,728.614 
  1771.14,741.247 1781.93,753.509 1792.72,765.203 1803.5,776.153 1814.29,786.215 1825.08,795.289 1835.86,803.32 1846.65,810.296 1857.44,816.249 1868.23,821.243 
  1879.01,825.366 1889.8,828.718 
  "/>
<polyline clip-path="url(#clip162)" style="stroke:#e26f46; stroke-linecap:round; stroke-linejoin:round; stroke-width:12; stroke-opacity:1; fill:none" points="
  253.007,825.269 263.518,822.582 274.03,819.773 284.541,816.862 295.052,813.852 305.563,810.726 316.074,807.452 326.585,803.987 337.096,800.283 347.607,796.301 
  358.118,792.014 368.629,787.421 379.14,782.548 389.652,777.456 400.163,772.234 410.674,766.993 421.185,761.853 431.696,756.924 442.207,752.285 452.718,747.969 
  463.229,743.951 473.74,740.148 484.251,736.427 494.762,732.628 505.274,728.588 515.785,724.172 526.296,719.291 536.807,713.921 547.318,708.098 557.829,701.914 
  568.34,695.494 578.851,688.977 589.362,682.496 599.873,676.164 610.384,670.067 620.896,664.267 631.407,658.798 641.918,653.675 652.429,648.891 662.94,644.415 
  673.451,640.194 683.962,636.143 694.473,632.152 704.984,628.09 715.495,623.813 726.006,619.181 736.518,614.064 747.029,608.363 757.54,602.009 768.051,594.975 
  778.562,587.27 789.073,578.932 799.584,570.021 810.095,560.596 820.606,550.702 831.117,540.349 841.628,529.503 852.14,518.077 862.651,505.949 873.162,492.977 
  883.673,479.034 894.184,464.037 904.695,447.973 915.206,430.917 925.717,413.03 936.228,394.538 946.739,375.712 957.25,356.837 967.762,338.193 978.273,320.043 
  988.784,302.633 999.295,286.195 1009.81,270.955 1020.32,257.129 1030.83,244.913 1041.34,234.464 1051.85,225.88 1062.36,219.182 1072.87,214.307 1083.38,211.119 
  1093.89,209.428 1104.41,209.022 1114.92,209.693 1125.43,211.27 1135.94,213.622 1146.45,216.672 1156.96,220.376 1167.47,224.715 1177.98,229.665 1188.49,235.182 
  1199.01,241.179 1209.52,247.521 1220.03,254.022 1230.54,260.456 1241.05,266.578 1251.56,272.151 1262.07,276.977 1272.58,280.925 1283.09,283.945 1293.61,286.072 
  1304.12,287.412 1314.63,288.117 1325.14,288.355 1335.65,288.278 1346.16,288.01 1356.67,287.642 1367.18,287.248 1377.69,286.903 1388.21,286.707 1398.72,286.806 
  1409.23,287.388 1419.74,288.675 1430.25,290.897 1440.76,294.261 1451.27,298.928 1461.78,304.991 1472.29,312.476 1482.81,321.346 1493.32,331.519 1503.83,342.885 
  1514.34,355.322 1524.85,368.705 1535.36,382.907 1545.87,397.792 1556.38,413.215 1566.89,429.012 1577.4,445.009 1587.92,461.023 1598.43,476.884 1608.94,492.45 
  1619.45,507.626 1629.96,522.375 1640.47,536.726 1650.98,550.769 1661.49,564.636 1672,578.486 1682.52,592.48 1693.03,606.755 1703.54,621.414 1714.05,636.501 
  1724.56,652.001 1735.07,667.832 1745.58,683.85 1756.09,699.854 1766.6,715.598 1777.12,730.815 1787.63,745.237 1798.14,758.619 1808.65,770.769 1819.16,781.56 
  1829.67,790.944 1840.18,798.951 1850.69,805.679 1861.2,811.279 1871.72,815.928 1882.23,819.809 1892.74,823.091 1903.25,825.913 
  "/>
<path clip-path="url(#clip160)" d="
M261.809 288.584 L793.607 288.584 L793.607 133.064 L261.809 133.064  Z
  " fill="#ffffff" fill-rule="evenodd" fill-opacity="1"/>
<polyline clip-path="url(#clip160)" style="stroke:#000000; stroke-linecap:round; stroke-linejoin:round; stroke-width:4; stroke-opacity:1; fill:none" points="
  261.809,288.584 793.607,288.584 793.607,133.064 261.809,133.064 261.809,288.584 
  "/>
<polyline clip-path="url(#clip160)" style="stroke:#009af9; stroke-linecap:round; stroke-linejoin:round; stroke-width:12; stroke-opacity:1; fill:none" points="
  281.245,184.904 397.862,184.904 
  "/>
<path clip-path="url(#clip160)" d="M422.923 198.249 L439.242 198.249 L439.242 202.184 L417.298 202.184 L417.298 198.249 Q419.96 195.494 424.543 190.864 Q429.15 186.212 430.33 184.869 Q432.576 182.346 433.455 180.61 Q434.358 178.851 434.358 177.161 Q434.358 174.406 432.414 172.67 Q430.492 170.934 427.391 170.934 Q425.192 170.934 422.738 171.698 Q420.307 172.462 417.53 174.013 L417.53 169.29 Q420.354 168.156 422.807 167.577 Q425.261 166.999 427.298 166.999 Q432.668 166.999 435.863 169.684 Q439.057 172.369 439.057 176.86 Q439.057 178.989 438.247 180.911 Q437.46 182.809 435.354 185.401 Q434.775 186.073 431.673 189.29 Q428.571 192.485 422.923 198.249 Z" fill="#000000" fill-rule="evenodd" fill-opacity="1" /><path clip-path="url(#clip160)" d="M459.057 170.702 Q455.446 170.702 453.617 174.267 Q451.812 177.809 451.812 184.938 Q451.812 192.045 453.617 195.61 Q455.446 199.151 459.057 199.151 Q462.691 199.151 464.497 195.61 Q466.326 192.045 466.326 184.938 Q466.326 177.809 464.497 174.267 Q462.691 170.702 459.057 170.702 M459.057 166.999 Q464.867 166.999 467.923 171.605 Q471.001 176.188 471.001 184.938 Q471.001 193.665 467.923 198.272 Q464.867 202.855 459.057 202.855 Q453.247 202.855 450.168 198.272 Q447.113 193.665 447.113 184.938 Q447.113 176.188 450.168 171.605 Q453.247 166.999 459.057 166.999 Z" fill="#000000" fill-rule="evenodd" fill-opacity="1" /><path clip-path="url(#clip160)" d="M489.219 170.702 Q485.608 170.702 483.779 174.267 Q481.974 177.809 481.974 184.938 Q481.974 192.045 483.779 195.61 Q485.608 199.151 489.219 199.151 Q492.853 199.151 494.659 195.61 Q496.487 192.045 496.487 184.938 Q496.487 177.809 494.659 174.267 Q492.853 170.702 489.219 170.702 M489.219 166.999 Q495.029 166.999 498.085 171.605 Q501.163 176.188 501.163 184.938 Q501.163 193.665 498.085 198.272 Q495.029 202.855 489.219 202.855 Q483.409 202.855 480.33 198.272 Q477.275 193.665 477.275 184.938 Q477.275 176.188 480.33 171.605 Q483.409 166.999 489.219 166.999 Z" fill="#000000" fill-rule="evenodd" fill-opacity="1" /><path clip-path="url(#clip160)" d="M519.381 170.702 Q515.77 170.702 513.941 174.267 Q512.136 177.809 512.136 184.938 Q512.136 192.045 513.941 195.61 Q515.77 199.151 519.381 199.151 Q523.015 199.151 524.821 195.61 Q526.649 192.045 526.649 184.938 Q526.649 177.809 524.821 174.267 Q523.015 170.702 519.381 170.702 M519.381 166.999 Q525.191 166.999 528.247 171.605 Q531.325 176.188 531.325 184.938 Q531.325 193.665 528.247 198.272 Q525.191 202.855 519.381 202.855 Q513.571 202.855 510.492 198.272 Q507.436 193.665 507.436 184.938 Q507.436 176.188 510.492 171.605 Q513.571 166.999 519.381 166.999 Z" fill="#000000" fill-rule="evenodd" fill-opacity="1" /><path clip-path="url(#clip160)" d="M554.195 167.624 L558.871 167.624 L558.871 202.184 L554.195 202.184 L554.195 167.624 Z" fill="#000000" fill-rule="evenodd" fill-opacity="1" /><path clip-path="url(#clip160)" d="M572.205 168.897 L572.205 176.258 L580.978 176.258 L580.978 179.568 L572.205 179.568 L572.205 193.642 Q572.205 196.813 573.061 197.716 Q573.941 198.619 576.603 198.619 L580.978 198.619 L580.978 202.184 L576.603 202.184 Q571.672 202.184 569.797 200.355 Q567.922 198.503 567.922 193.642 L567.922 179.568 L564.797 179.568 L564.797 176.258 L567.922 176.258 L567.922 168.897 L572.205 168.897 Z" fill="#000000" fill-rule="evenodd" fill-opacity="1" /><path clip-path="url(#clip160)" d="M608.755 188.156 L608.755 190.239 L589.172 190.239 Q589.45 194.637 591.811 196.952 Q594.195 199.244 598.431 199.244 Q600.885 199.244 603.177 198.642 Q605.492 198.04 607.76 196.837 L607.76 200.864 Q605.468 201.836 603.061 202.346 Q600.654 202.855 598.177 202.855 Q591.973 202.855 588.339 199.244 Q584.728 195.633 584.728 189.475 Q584.728 183.11 588.154 179.383 Q591.603 175.633 597.436 175.633 Q602.667 175.633 605.7 179.013 Q608.755 182.369 608.755 188.156 M604.496 186.906 Q604.45 183.411 602.529 181.327 Q600.63 179.244 597.482 179.244 Q593.918 179.244 591.765 181.258 Q589.635 183.272 589.311 186.929 L604.496 186.906 Z" fill="#000000" fill-rule="evenodd" fill-opacity="1" /><path clip-path="url(#clip160)" d="M630.769 180.239 Q630.052 179.823 629.195 179.638 Q628.362 179.429 627.343 179.429 Q623.732 179.429 621.788 181.79 Q619.866 184.128 619.866 188.526 L619.866 202.184 L615.584 202.184 L615.584 176.258 L619.866 176.258 L619.866 180.286 Q621.209 177.925 623.362 176.79 Q625.515 175.633 628.593 175.633 Q629.033 175.633 629.565 175.702 Q630.098 175.749 630.746 175.864 L630.769 180.239 Z" fill="#000000" fill-rule="evenodd" fill-opacity="1" /><path clip-path="url(#clip160)" d="M647.019 189.151 Q641.857 189.151 639.866 190.332 Q637.876 191.512 637.876 194.36 Q637.876 196.628 639.357 197.971 Q640.862 199.29 643.431 199.29 Q646.973 199.29 649.102 196.79 Q651.255 194.267 651.255 190.1 L651.255 189.151 L647.019 189.151 M655.514 187.392 L655.514 202.184 L651.255 202.184 L651.255 198.249 Q649.797 200.61 647.621 201.744 Q645.445 202.855 642.297 202.855 Q638.315 202.855 635.954 200.633 Q633.616 198.387 633.616 194.637 Q633.616 190.262 636.533 188.04 Q639.473 185.818 645.283 185.818 L651.255 185.818 L651.255 185.401 Q651.255 182.462 649.311 180.864 Q647.389 179.244 643.894 179.244 Q641.672 179.244 639.565 179.776 Q637.459 180.309 635.515 181.374 L635.515 177.438 Q637.852 176.536 640.052 176.096 Q642.251 175.633 644.334 175.633 Q649.959 175.633 652.737 178.55 Q655.514 181.466 655.514 187.392 Z" fill="#000000" fill-rule="evenodd" fill-opacity="1" /><path clip-path="url(#clip160)" d="M668.5 168.897 L668.5 176.258 L677.274 176.258 L677.274 179.568 L668.5 179.568 L668.5 193.642 Q668.5 196.813 669.357 197.716 Q670.237 198.619 672.899 198.619 L677.274 198.619 L677.274 202.184 L672.899 202.184 Q667.968 202.184 666.093 200.355 Q664.218 198.503 664.218 193.642 L664.218 179.568 L661.093 179.568 L661.093 176.258 L664.218 176.258 L664.218 168.897 L668.5 168.897 Z" fill="#000000" fill-rule="evenodd" fill-opacity="1" /><path clip-path="url(#clip160)" d="M682.875 176.258 L687.135 176.258 L687.135 202.184 L682.875 202.184 L682.875 176.258 M682.875 166.165 L687.135 166.165 L687.135 171.559 L682.875 171.559 L682.875 166.165 Z" fill="#000000" fill-rule="evenodd" fill-opacity="1" /><path clip-path="url(#clip160)" d="M706.093 179.244 Q702.667 179.244 700.676 181.929 Q698.685 184.591 698.685 189.244 Q698.685 193.897 700.653 196.582 Q702.644 199.244 706.093 199.244 Q709.496 199.244 711.486 196.559 Q713.477 193.874 713.477 189.244 Q713.477 184.638 711.486 181.952 Q709.496 179.244 706.093 179.244 M706.093 175.633 Q711.648 175.633 714.82 179.244 Q717.991 182.855 717.991 189.244 Q717.991 195.61 714.82 199.244 Q711.648 202.855 706.093 202.855 Q700.514 202.855 697.343 199.244 Q694.195 195.61 694.195 189.244 Q694.195 182.855 697.343 179.244 Q700.514 175.633 706.093 175.633 Z" fill="#000000" fill-rule="evenodd" fill-opacity="1" /><path clip-path="url(#clip160)" d="M746.602 186.536 L746.602 202.184 L742.343 202.184 L742.343 186.675 Q742.343 182.994 740.907 181.165 Q739.472 179.337 736.602 179.337 Q733.153 179.337 731.162 181.536 Q729.171 183.735 729.171 187.531 L729.171 202.184 L724.889 202.184 L724.889 176.258 L729.171 176.258 L729.171 180.286 Q730.699 177.948 732.759 176.79 Q734.843 175.633 737.551 175.633 Q742.019 175.633 744.31 178.411 Q746.602 181.165 746.602 186.536 Z" fill="#000000" fill-rule="evenodd" fill-opacity="1" /><path clip-path="url(#clip160)" d="M771.625 177.022 L771.625 181.05 Q769.819 180.124 767.875 179.661 Q765.93 179.198 763.847 179.198 Q760.676 179.198 759.079 180.17 Q757.505 181.142 757.505 183.087 Q757.505 184.568 758.639 185.425 Q759.773 186.258 763.199 187.022 L764.657 187.346 Q769.194 188.318 771.092 190.1 Q773.014 191.86 773.014 195.031 Q773.014 198.642 770.143 200.749 Q767.296 202.855 762.296 202.855 Q760.213 202.855 757.944 202.438 Q755.699 202.045 753.199 201.235 L753.199 196.837 Q755.56 198.063 757.852 198.688 Q760.143 199.29 762.389 199.29 Q765.398 199.29 767.018 198.272 Q768.639 197.23 768.639 195.355 Q768.639 193.619 767.458 192.693 Q766.301 191.767 762.343 190.911 L760.861 190.563 Q756.903 189.73 755.143 188.017 Q753.384 186.281 753.384 183.272 Q753.384 179.614 755.977 177.624 Q758.569 175.633 763.338 175.633 Q765.699 175.633 767.782 175.98 Q769.866 176.327 771.625 177.022 Z" fill="#000000" fill-rule="evenodd" fill-opacity="1" /><polyline clip-path="url(#clip160)" style="stroke:#e26f46; stroke-linecap:round; stroke-linejoin:round; stroke-width:12; stroke-opacity:1; fill:none" points="
  281.245,236.744 397.862,236.744 
  "/>
<path clip-path="url(#clip160)" d="M432.9 223.538 L421.094 241.987 L432.9 241.987 L432.9 223.538 M431.673 219.464 L437.553 219.464 L437.553 241.987 L442.483 241.987 L442.483 245.876 L437.553 245.876 L437.553 254.024 L432.9 254.024 L432.9 245.876 L417.298 245.876 L417.298 241.362 L431.673 219.464 Z" fill="#000000" fill-rule="evenodd" fill-opacity="1" /><path clip-path="url(#clip160)" d="M460.215 222.542 Q456.603 222.542 454.775 226.107 Q452.969 229.649 452.969 236.778 Q452.969 243.885 454.775 247.45 Q456.603 250.991 460.215 250.991 Q463.849 250.991 465.654 247.45 Q467.483 243.885 467.483 236.778 Q467.483 229.649 465.654 226.107 Q463.849 222.542 460.215 222.542 M460.215 218.839 Q466.025 218.839 469.08 223.445 Q472.159 228.028 472.159 236.778 Q472.159 245.505 469.08 250.112 Q466.025 254.695 460.215 254.695 Q454.404 254.695 451.326 250.112 Q448.27 245.505 448.27 236.778 Q448.27 228.028 451.326 223.445 Q454.404 218.839 460.215 218.839 Z" fill="#000000" fill-rule="evenodd" fill-opacity="1" /><path clip-path="url(#clip160)" d="M490.376 222.542 Q486.765 222.542 484.937 226.107 Q483.131 229.649 483.131 236.778 Q483.131 243.885 484.937 247.45 Q486.765 250.991 490.376 250.991 Q494.011 250.991 495.816 247.45 Q497.645 243.885 497.645 236.778 Q497.645 229.649 495.816 226.107 Q494.011 222.542 490.376 222.542 M490.376 218.839 Q496.187 218.839 499.242 223.445 Q502.321 228.028 502.321 236.778 Q502.321 245.505 499.242 250.112 Q496.187 254.695 490.376 254.695 Q484.566 254.695 481.488 250.112 Q478.432 245.505 478.432 236.778 Q478.432 228.028 481.488 223.445 Q484.566 218.839 490.376 218.839 Z" fill="#000000" fill-rule="evenodd" fill-opacity="1" /><path clip-path="url(#clip160)" d="M520.538 222.542 Q516.927 222.542 515.098 226.107 Q513.293 229.649 513.293 236.778 Q513.293 243.885 515.098 247.45 Q516.927 250.991 520.538 250.991 Q524.173 250.991 525.978 247.45 Q527.807 243.885 527.807 236.778 Q527.807 229.649 525.978 226.107 Q524.173 222.542 520.538 222.542 M520.538 218.839 Q526.348 218.839 529.404 223.445 Q532.483 228.028 532.483 236.778 Q532.483 245.505 529.404 250.112 Q526.348 254.695 520.538 254.695 Q514.728 254.695 511.649 250.112 Q508.594 245.505 508.594 236.778 Q508.594 228.028 511.649 223.445 Q514.728 218.839 520.538 218.839 Z" fill="#000000" fill-rule="evenodd" fill-opacity="1" /><path clip-path="url(#clip160)" d="M555.353 219.464 L560.029 219.464 L560.029 254.024 L555.353 254.024 L555.353 219.464 Z" fill="#000000" fill-rule="evenodd" fill-opacity="1" /><path clip-path="url(#clip160)" d="M573.362 220.737 L573.362 228.098 L582.135 228.098 L582.135 231.408 L573.362 231.408 L573.362 245.482 Q573.362 248.653 574.219 249.556 Q575.098 250.459 577.76 250.459 L582.135 250.459 L582.135 254.024 L577.76 254.024 Q572.83 254.024 570.955 252.195 Q569.08 250.343 569.08 245.482 L569.08 231.408 L565.955 231.408 L565.955 228.098 L569.08 228.098 L569.08 220.737 L573.362 220.737 Z" fill="#000000" fill-rule="evenodd" fill-opacity="1" /><path clip-path="url(#clip160)" d="M609.913 239.996 L609.913 242.079 L590.33 242.079 Q590.607 246.477 592.968 248.792 Q595.353 251.084 599.589 251.084 Q602.042 251.084 604.334 250.482 Q606.649 249.88 608.917 248.677 L608.917 252.704 Q606.626 253.676 604.218 254.186 Q601.811 254.695 599.334 254.695 Q593.13 254.695 589.496 251.084 Q585.885 247.473 585.885 241.315 Q585.885 234.95 589.311 231.223 Q592.76 227.473 598.593 227.473 Q603.825 227.473 606.857 230.853 Q609.913 234.209 609.913 239.996 M605.654 238.746 Q605.607 235.251 603.686 233.167 Q601.788 231.084 598.64 231.084 Q595.075 231.084 592.922 233.098 Q590.793 235.112 590.468 238.769 L605.654 238.746 Z" fill="#000000" fill-rule="evenodd" fill-opacity="1" /><path clip-path="url(#clip160)" d="M631.927 232.079 Q631.209 231.663 630.352 231.478 Q629.519 231.269 628.501 231.269 Q624.89 231.269 622.945 233.63 Q621.024 235.968 621.024 240.366 L621.024 254.024 L616.741 254.024 L616.741 228.098 L621.024 228.098 L621.024 232.126 Q622.366 229.765 624.519 228.63 Q626.672 227.473 629.751 227.473 Q630.19 227.473 630.723 227.542 Q631.255 227.589 631.903 227.704 L631.927 232.079 Z" fill="#000000" fill-rule="evenodd" fill-opacity="1" /><path clip-path="url(#clip160)" d="M648.176 240.991 Q643.014 240.991 641.024 242.172 Q639.033 243.352 639.033 246.2 Q639.033 248.468 640.514 249.811 Q642.019 251.13 644.589 251.13 Q648.13 251.13 650.26 248.63 Q652.413 246.107 652.413 241.94 L652.413 240.991 L648.176 240.991 M656.672 239.232 L656.672 254.024 L652.413 254.024 L652.413 250.089 Q650.954 252.45 648.778 253.584 Q646.602 254.695 643.454 254.695 Q639.473 254.695 637.112 252.473 Q634.774 250.227 634.774 246.477 Q634.774 242.102 637.69 239.88 Q640.63 237.658 646.44 237.658 L652.413 237.658 L652.413 237.241 Q652.413 234.302 650.468 232.704 Q648.547 231.084 645.051 231.084 Q642.829 231.084 640.723 231.616 Q638.616 232.149 636.672 233.214 L636.672 229.278 Q639.01 228.376 641.209 227.936 Q643.408 227.473 645.491 227.473 Q651.116 227.473 653.894 230.39 Q656.672 233.306 656.672 239.232 Z" fill="#000000" fill-rule="evenodd" fill-opacity="1" /><path clip-path="url(#clip160)" d="M669.658 220.737 L669.658 228.098 L678.431 228.098 L678.431 231.408 L669.658 231.408 L669.658 245.482 Q669.658 248.653 670.514 249.556 Q671.394 250.459 674.056 250.459 L678.431 250.459 L678.431 254.024 L674.056 254.024 Q669.125 254.024 667.25 252.195 Q665.375 250.343 665.375 245.482 L665.375 231.408 L662.25 231.408 L662.25 228.098 L665.375 228.098 L665.375 220.737 L669.658 220.737 Z" fill="#000000" fill-rule="evenodd" fill-opacity="1" /><path clip-path="url(#clip160)" d="M684.033 228.098 L688.292 228.098 L688.292 254.024 L684.033 254.024 L684.033 228.098 M684.033 218.005 L688.292 218.005 L688.292 223.399 L684.033 223.399 L684.033 218.005 Z" fill="#000000" fill-rule="evenodd" fill-opacity="1" /><path clip-path="url(#clip160)" d="M707.25 231.084 Q703.824 231.084 701.834 233.769 Q699.843 236.431 699.843 241.084 Q699.843 245.737 701.81 248.422 Q703.801 251.084 707.25 251.084 Q710.653 251.084 712.644 248.399 Q714.634 245.714 714.634 241.084 Q714.634 236.478 712.644 233.792 Q710.653 231.084 707.25 231.084 M707.25 227.473 Q712.806 227.473 715.977 231.084 Q719.148 234.695 719.148 241.084 Q719.148 247.45 715.977 251.084 Q712.806 254.695 707.25 254.695 Q701.672 254.695 698.5 251.084 Q695.352 247.45 695.352 241.084 Q695.352 234.695 698.5 231.084 Q701.672 227.473 707.25 227.473 Z" fill="#000000" fill-rule="evenodd" fill-opacity="1" /><path clip-path="url(#clip160)" d="M747.759 238.376 L747.759 254.024 L743.5 254.024 L743.5 238.515 Q743.5 234.834 742.065 233.005 Q740.63 231.177 737.759 231.177 Q734.31 231.177 732.32 233.376 Q730.329 235.575 730.329 239.371 L730.329 254.024 L726.046 254.024 L726.046 228.098 L730.329 228.098 L730.329 232.126 Q731.857 229.788 733.917 228.63 Q736 227.473 738.708 227.473 Q743.176 227.473 745.468 230.251 Q747.759 233.005 747.759 238.376 Z" fill="#000000" fill-rule="evenodd" fill-opacity="1" /><path clip-path="url(#clip160)" d="M772.782 228.862 L772.782 232.89 Q770.977 231.964 769.032 231.501 Q767.088 231.038 765.005 231.038 Q761.833 231.038 760.236 232.01 Q758.662 232.982 758.662 234.927 Q758.662 236.408 759.796 237.265 Q760.931 238.098 764.356 238.862 L765.815 239.186 Q770.352 240.158 772.25 241.94 Q774.171 243.7 774.171 246.871 Q774.171 250.482 771.301 252.589 Q768.454 254.695 763.454 254.695 Q761.37 254.695 759.102 254.278 Q756.856 253.885 754.356 253.075 L754.356 248.677 Q756.718 249.903 759.009 250.528 Q761.301 251.13 763.546 251.13 Q766.555 251.13 768.176 250.112 Q769.796 249.07 769.796 247.195 Q769.796 245.459 768.616 244.533 Q767.458 243.607 763.5 242.751 L762.018 242.403 Q758.06 241.57 756.301 239.857 Q754.542 238.121 754.542 235.112 Q754.542 231.454 757.134 229.464 Q759.727 227.473 764.495 227.473 Q766.856 227.473 768.94 227.82 Q771.023 228.167 772.782 228.862 Z" fill="#000000" fill-rule="evenodd" fill-opacity="1" /></svg>
